<?xml version="1.0" encoding="UTF-8" standalone="no"?>
<!DOCTYPE svg PUBLIC "-//W3C//DTD SVG 1.1//EN"
 "http://www.w3.org/Graphics/SVG/1.1/DTD/svg11.dtd">
<!-- Generated by graphviz version 2.40.1 (20161225.0304)
 -->
<!-- Title: ABLMeanBoussinesq.H Pages: 1 -->
<svg width="2687pt" height="408pt"
 viewBox="0.00 0.00 2687.32 408.00" xmlns="http://www.w3.org/2000/svg" xmlns:xlink="http://www.w3.org/1999/xlink">
<g id="graph0" class="graph" transform="scale(1 1) rotate(0) translate(4 404)">
<title>ABLMeanBoussinesq.H</title>
<polygon fill="#ffffff" stroke="transparent" points="-4,4 -4,-404 2683.3178,-404 2683.3178,4 -4,4"/>
<!-- Node0 -->
<g id="node1" class="node">
<title>Node0</title>
<polygon fill="#bfbfbf" stroke="#000000" points="545.3178,-380.5 545.3178,-399.5 666.3178,-399.5 666.3178,-380.5 545.3178,-380.5"/>
<text text-anchor="middle" x="605.8178" y="-387.5" font-family="Helvetica,sans-Serif" font-size="10.00" fill="#000000">ABLMeanBoussinesq.H</text>
</g>
<!-- Node1 -->
<g id="node2" class="node">
<title>Node1</title>
<g id="a_node2"><a xlink:href="_field_repo_8_h.html" target="_top" xlink:title="amr&#45;wind/core/FieldRepo.H">
<polygon fill="#ffffff" stroke="#000000" points="537.8178,-185 537.8178,-204 673.8178,-204 673.8178,-185 537.8178,-185"/>
<text text-anchor="middle" x="605.8178" y="-192" font-family="Helvetica,sans-Serif" font-size="10.00" fill="#000000">amr&#45;wind/core/FieldRepo.H</text>
</a>
</g>
</g>
<!-- Node0&#45;&gt;Node1 -->
<g id="edge1" class="edge">
<title>Node0&#45;&gt;Node1</title>
<path fill="none" stroke="#191970" d="M605.8178,-380.3051C605.8178,-349.8813 605.8178,-255.8666 605.8178,-214.4452"/>
<polygon fill="#191970" stroke="#191970" points="609.3179,-214.2534 605.8178,-204.2534 602.3179,-214.2534 609.3179,-214.2534"/>
</g>
<!-- Node21 -->
<g id="node22" class="node">
<title>Node21</title>
<g id="a_node22"><a xlink:href="_momentum_source_8_h.html" target="_top" xlink:title="amr&#45;wind/equation_systems\l/icns/MomentumSource.H">
<polygon fill="#ffffff" stroke="#000000" points="378.3178,-246.5 378.3178,-276.5 517.3178,-276.5 517.3178,-246.5 378.3178,-246.5"/>
<text text-anchor="start" x="386.3178" y="-264.5" font-family="Helvetica,sans-Serif" font-size="10.00" fill="#000000">amr&#45;wind/equation_systems</text>
<text text-anchor="middle" x="447.8178" y="-253.5" font-family="Helvetica,sans-Serif" font-size="10.00" fill="#000000">/icns/MomentumSource.H</text>
</a>
</g>
</g>
<!-- Node0&#45;&gt;Node21 -->
<g id="edge38" class="edge">
<title>Node0&#45;&gt;Node21</title>
<path fill="none" stroke="#191970" d="M593.9421,-380.3416C568.6947,-359.8081 509.1555,-311.3855 474.3682,-283.0932"/>
<polygon fill="#191970" stroke="#191970" points="476.4758,-280.2959 466.5092,-276.7016 472.059,-285.7266 476.4758,-280.2959"/>
</g>
<!-- Node26 -->
<g id="node27" class="node">
<title>Node26</title>
<g id="a_node27"><a xlink:href="_field_plane_averaging_8_h.html" target="_top" xlink:title="amr&#45;wind/utilities\l/FieldPlaneAveraging.H">
<polygon fill="#ffffff" stroke="#000000" points="1152.3178,-313.5 1152.3178,-343.5 1271.3178,-343.5 1271.3178,-313.5 1152.3178,-313.5"/>
<text text-anchor="start" x="1160.3178" y="-331.5" font-family="Helvetica,sans-Serif" font-size="10.00" fill="#000000">amr&#45;wind/utilities</text>
<text text-anchor="middle" x="1211.8178" y="-320.5" font-family="Helvetica,sans-Serif" font-size="10.00" fill="#000000">/FieldPlaneAveraging.H</text>
</a>
</g>
</g>
<!-- Node0&#45;&gt;Node26 -->
<g id="edge49" class="edge">
<title>Node0&#45;&gt;Node26</title>
<path fill="none" stroke="#191970" d="M666.4181,-383.85C779.577,-372.366 1022.3571,-347.7274 1142.1046,-335.5748"/>
<polygon fill="#191970" stroke="#191970" points="1142.6597,-339.0366 1152.2552,-334.5447 1141.9529,-332.0724 1142.6597,-339.0366"/>
</g>
<!-- Node2 -->
<g id="node3" class="node">
<title>Node2</title>
<polygon fill="#ffffff" stroke="#bfbfbf" points="960.3178,-.5 960.3178,-19.5 1001.3178,-19.5 1001.3178,-.5 960.3178,-.5"/>
<text text-anchor="middle" x="980.8178" y="-7.5" font-family="Helvetica,sans-Serif" font-size="10.00" fill="#000000">string</text>
</g>
<!-- Node1&#45;&gt;Node2 -->
<g id="edge2" class="edge">
<title>Node1&#45;&gt;Node2</title>
<path fill="none" stroke="#191970" d="M663.0659,-184.9392C732.0633,-171.0096 848.5884,-139.5445 927.8178,-76 944.7449,-62.4238 959.7774,-42.5519 969.4696,-28.1633"/>
<polygon fill="#191970" stroke="#191970" points="972.5085,-29.9105 975.0338,-19.621 966.6431,-26.0899 972.5085,-29.9105"/>
</g>
<!-- Node3 -->
<g id="node4" class="node">
<title>Node3</title>
<polygon fill="#ffffff" stroke="#bfbfbf" points="1414.3178,-56.5 1414.3178,-75.5 1497.3178,-75.5 1497.3178,-56.5 1414.3178,-56.5"/>
<text text-anchor="middle" x="1455.8178" y="-63.5" font-family="Helvetica,sans-Serif" font-size="10.00" fill="#000000">unordered_map</text>
</g>
<!-- Node1&#45;&gt;Node3 -->
<g id="edge3" class="edge">
<title>Node1&#45;&gt;Node3</title>
<path fill="none" stroke="#191970" d="M673.8975,-188.6355C708.8426,-185.666 752.1001,-182.0529 790.8178,-179 898.9995,-170.4698 1174.4721,-176.1018 1277.8178,-143 1303.0791,-134.9087 1304.8965,-123.4621 1328.8178,-112 1356.5422,-98.7156 1389.1766,-86.9737 1414.4215,-78.6783"/>
<polygon fill="#191970" stroke="#191970" points="1415.6183,-81.9698 1424.0554,-75.5615 1413.4636,-75.3097 1415.6183,-81.9698"/>
</g>
<!-- Node4 -->
<g id="node5" class="node">
<title>Node4</title>
<g id="a_node5"><a xlink:href="_field_desc_types_8_h.html" target="_top" xlink:title="amr&#45;wind/core/FieldDescTypes.H">
<polygon fill="#ffffff" stroke="#000000" points="286.3178,-.5 286.3178,-19.5 449.3178,-19.5 449.3178,-.5 286.3178,-.5"/>
<text text-anchor="middle" x="367.8178" y="-7.5" font-family="Helvetica,sans-Serif" font-size="10.00" fill="#000000">amr&#45;wind/core/FieldDescTypes.H</text>
</a>
</g>
</g>
<!-- Node1&#45;&gt;Node4 -->
<g id="edge4" class="edge">
<title>Node1&#45;&gt;Node4</title>
<path fill="none" stroke="#191970" d="M537.571,-187.4252C453.4816,-178.0138 319.8177,-160.5175 304.8178,-143 279.6667,-113.6277 286.1742,-90.4095 303.8178,-56 310.7508,-42.4789 323.7114,-32.0326 336.1658,-24.5377"/>
<polygon fill="#191970" stroke="#191970" points="338.0106,-27.5168 345.0517,-19.6001 334.6105,-21.3979 338.0106,-27.5168"/>
</g>
<!-- Node5 -->
<g id="node6" class="node">
<title>Node5</title>
<g id="a_node6"><a xlink:href="_field_utils_8_h.html" target="_top" xlink:title="amr&#45;wind/core/FieldUtils.H">
<polygon fill="#ffffff" stroke="#000000" points="14.3178,-118 14.3178,-137 147.3178,-137 147.3178,-118 14.3178,-118"/>
<text text-anchor="middle" x="80.8178" y="-125" font-family="Helvetica,sans-Serif" font-size="10.00" fill="#000000">amr&#45;wind/core/FieldUtils.H</text>
</a>
</g>
</g>
<!-- Node1&#45;&gt;Node5 -->
<g id="edge5" class="edge">
<title>Node1&#45;&gt;Node5</title>
<path fill="none" stroke="#191970" d="M537.5319,-188.1546C450.177,-179.6762 294.3208,-163.3341 161.8178,-143 153.8694,-141.7802 145.51,-140.3496 137.3023,-138.8594"/>
<polygon fill="#191970" stroke="#191970" points="137.8748,-135.406 127.404,-137.0223 136.5973,-142.2884 137.8748,-135.406"/>
</g>
<!-- Node6 -->
<g id="node7" class="node">
<title>Node6</title>
<polygon fill="#ffffff" stroke="#bfbfbf" points="657.8178,-.5 657.8178,-19.5 761.8178,-19.5 761.8178,-.5 657.8178,-.5"/>
<text text-anchor="middle" x="709.8178" y="-7.5" font-family="Helvetica,sans-Serif" font-size="10.00" fill="#000000">AMReX_MultiFab.H</text>
</g>
<!-- Node1&#45;&gt;Node6 -->
<g id="edge36" class="edge">
<title>Node1&#45;&gt;Node6</title>
<path fill="none" stroke="#191970" d="M595.2775,-184.9618C570.3851,-161.2904 512.4036,-98.6869 544.8178,-56 557.4862,-39.3166 606.183,-27.0643 647.4166,-19.4187"/>
<polygon fill="#191970" stroke="#191970" points="648.2142,-22.8316 657.4394,-17.6216 646.9787,-15.9415 648.2142,-22.8316"/>
</g>
<!-- Node8 -->
<g id="node9" class="node">
<title>Node8</title>
<g id="a_node9"><a xlink:href="_field_8_h.html" target="_top" xlink:title="amr&#45;wind/core/Field.H">
<polygon fill="#ffffff" stroke="#000000" points="1155.3178,-118 1155.3178,-137 1268.3178,-137 1268.3178,-118 1155.3178,-118"/>
<text text-anchor="middle" x="1211.8178" y="-125" font-family="Helvetica,sans-Serif" font-size="10.00" fill="#000000">amr&#45;wind/core/Field.H</text>
</a>
</g>
</g>
<!-- Node1&#45;&gt;Node8 -->
<g id="edge9" class="edge">
<title>Node1&#45;&gt;Node8</title>
<path fill="none" stroke="#191970" d="M673.8624,-186.9769C790.9168,-174.0353 1028.9796,-147.7148 1145.1073,-134.8756"/>
<polygon fill="#191970" stroke="#191970" points="1145.7272,-138.3285 1155.282,-133.7507 1144.9579,-131.3709 1145.7272,-138.3285"/>
</g>
<!-- Node16 -->
<g id="node17" class="node">
<title>Node16</title>
<g id="a_node17"><a xlink:href="_int_field_8_h.html" target="_top" xlink:title="amr&#45;wind/core/IntField.H">
<polygon fill="#ffffff" stroke="#000000" points="313.8178,-118 313.8178,-137 437.8178,-137 437.8178,-118 313.8178,-118"/>
<text text-anchor="middle" x="375.8178" y="-125" font-family="Helvetica,sans-Serif" font-size="10.00" fill="#000000">amr&#45;wind/core/IntField.H</text>
</a>
</g>
</g>
<!-- Node1&#45;&gt;Node16 -->
<g id="edge24" class="edge">
<title>Node1&#45;&gt;Node16</title>
<path fill="none" stroke="#191970" d="M572.8644,-184.9005C532.2157,-173.0594 463.0304,-152.9054 418.3935,-139.9025"/>
<polygon fill="#191970" stroke="#191970" points="419.2899,-136.5182 408.71,-137.0817 417.3321,-143.2389 419.2899,-136.5182"/>
</g>
<!-- Node17 -->
<g id="node18" class="node">
<title>Node17</title>
<polygon fill="#ffffff" stroke="#bfbfbf" points="352.3178,-56.5 352.3178,-75.5 459.3178,-75.5 459.3178,-56.5 352.3178,-56.5"/>
<text text-anchor="middle" x="405.8178" y="-63.5" font-family="Helvetica,sans-Serif" font-size="10.00" fill="#000000">AMReX_iMultiFab.H</text>
</g>
<!-- Node1&#45;&gt;Node17 -->
<g id="edge37" class="edge">
<title>Node1&#45;&gt;Node17</title>
<path fill="none" stroke="#191970" d="M577.8109,-184.9934C553.4762,-176.0663 517.8349,-161.3514 489.8178,-143 463.3649,-125.6732 437.1973,-99.9644 421.2718,-83.0958"/>
<polygon fill="#191970" stroke="#191970" points="423.6866,-80.5525 414.3202,-75.6005 418.5542,-85.3126 423.6866,-80.5525"/>
</g>
<!-- Node18 -->
<g id="node19" class="node">
<title>Node18</title>
<g id="a_node19"><a xlink:href="_scratch_field_8_h.html" target="_top" xlink:title="amr&#45;wind/core/ScratchField.H">
<polygon fill="#ffffff" stroke="#000000" points="636.8178,-118 636.8178,-137 782.8178,-137 782.8178,-118 636.8178,-118"/>
<text text-anchor="middle" x="709.8178" y="-125" font-family="Helvetica,sans-Serif" font-size="10.00" fill="#000000">amr&#45;wind/core/ScratchField.H</text>
</a>
</g>
</g>
<!-- Node1&#45;&gt;Node18 -->
<g id="edge28" class="edge">
<title>Node1&#45;&gt;Node18</title>
<path fill="none" stroke="#191970" d="M620.7184,-184.9005C637.8631,-173.8554 666.2346,-155.5776 686.3523,-142.6172"/>
<polygon fill="#191970" stroke="#191970" points="688.4337,-145.4397 694.9447,-137.0817 684.6427,-139.5552 688.4337,-145.4397"/>
</g>
<!-- Node20 -->
<g id="node21" class="node">
<title>Node20</title>
<polygon fill="#ffffff" stroke="#bfbfbf" points="1337.8178,-118 1337.8178,-137 1443.8178,-137 1443.8178,-118 1337.8178,-118"/>
<text text-anchor="middle" x="1390.8178" y="-125" font-family="Helvetica,sans-Serif" font-size="10.00" fill="#000000">AMReX_AmrCore.H</text>
</g>
<!-- Node1&#45;&gt;Node20 -->
<g id="edge35" class="edge">
<title>Node1&#45;&gt;Node20</title>
<path fill="none" stroke="#191970" d="M673.8901,-188.5405C708.8333,-185.5463 752.0913,-181.9399 790.8178,-179 1025.7966,-161.1619 1086.5162,-176.2207 1319.8178,-143 1327.0311,-141.9729 1334.6032,-140.6204 1342.0049,-139.1416"/>
<polygon fill="#191970" stroke="#191970" points="1342.8701,-142.5365 1351.9431,-137.0654 1341.4387,-135.6844 1342.8701,-142.5365"/>
</g>
<!-- Node5&#45;&gt;Node4 -->
<g id="edge6" class="edge">
<title>Node5&#45;&gt;Node4</title>
<path fill="none" stroke="#191970" d="M62.1022,-117.9872C37.4659,-104.2592 -.5719,-78.113 18.8178,-56 35.5998,-36.8609 178.3527,-23.1504 276.0058,-15.9088"/>
<polygon fill="#191970" stroke="#191970" points="276.478,-19.3838 286.1964,-15.1644 275.9679,-12.4024 276.478,-19.3838"/>
</g>
<!-- Node5&#45;&gt;Node6 -->
<g id="edge7" class="edge">
<title>Node5&#45;&gt;Node6</title>
<path fill="none" stroke="#191970" d="M101.1948,-117.9007C135.5488,-102.171 207.5441,-71.1454 271.8178,-56 403.2257,-25.0351 561.7321,-14.9016 647.4401,-11.5942"/>
<polygon fill="#191970" stroke="#191970" points="647.66,-15.0886 657.5247,-11.2238 647.4029,-8.0933 647.66,-15.0886"/>
</g>
<!-- Node7 -->
<g id="node8" class="node">
<title>Node7</title>
<polygon fill="#ffffff" stroke="#bfbfbf" points="27.8178,-56.5 27.8178,-75.5 143.8178,-75.5 143.8178,-56.5 27.8178,-56.5"/>
<text text-anchor="middle" x="85.8178" y="-63.5" font-family="Helvetica,sans-Serif" font-size="10.00" fill="#000000">AMReX_Interpolater.H</text>
</g>
<!-- Node5&#45;&gt;Node7 -->
<g id="edge8" class="edge">
<title>Node5&#45;&gt;Node7</title>
<path fill="none" stroke="#191970" d="M81.599,-117.8906C82.2921,-109.3657 83.3268,-96.6392 84.198,-85.9235"/>
<polygon fill="#191970" stroke="#191970" points="87.7036,-85.9956 85.0255,-75.7449 80.7266,-85.4283 87.7036,-85.9956"/>
</g>
<!-- Node8&#45;&gt;Node2 -->
<g id="edge10" class="edge">
<title>Node8&#45;&gt;Node2</title>
<path fill="none" stroke="#191970" d="M1259.9449,-117.9207C1300.5464,-108.7467 1354.0425,-93.7067 1366.8178,-76 1372.0187,-68.7915 1372.7196,-62.6469 1366.8178,-56 1343.294,-29.5065 1098.6392,-15.5257 1011.4599,-11.3561"/>
<polygon fill="#191970" stroke="#191970" points="1011.5534,-7.8567 1001.4007,-10.8854 1011.2261,-14.8491 1011.5534,-7.8567"/>
</g>
<!-- Node8&#45;&gt;Node3 -->
<g id="edge12" class="edge">
<title>Node8&#45;&gt;Node3</title>
<path fill="none" stroke="#191970" d="M1249.675,-117.9581C1292.3249,-107.2082 1361.7242,-89.7162 1408.0633,-78.0365"/>
<polygon fill="#191970" stroke="#191970" points="1409.0304,-81.4023 1417.8717,-75.5643 1407.3195,-74.6146 1409.0304,-81.4023"/>
</g>
<!-- Node8&#45;&gt;Node4 -->
<g id="edge18" class="edge">
<title>Node8&#45;&gt;Node4</title>
<path fill="none" stroke="#191970" d="M1197.0114,-117.9977C1166.9872,-98.7471 1101.5368,-56.8815 1098.8178,-56 1039.5326,-36.7805 642.3582,-20.0211 459.5702,-13.225"/>
<polygon fill="#191970" stroke="#191970" points="459.5593,-9.7223 449.4367,-12.8503 459.3005,-16.7175 459.5593,-9.7223"/>
</g>
<!-- Node8&#45;&gt;Node6 -->
<g id="edge14" class="edge">
<title>Node8&#45;&gt;Node6</title>
<path fill="none" stroke="#191970" d="M1204.4505,-117.8056C1191.658,-101.7903 1163.6387,-70.1708 1131.8178,-56 1099.7377,-41.7138 881.4975,-23.2014 772.0867,-14.6752"/>
<polygon fill="#191970" stroke="#191970" points="772.0887,-11.165 761.8481,-13.8818 771.5478,-18.1441 772.0887,-11.165"/>
</g>
<!-- Node9 -->
<g id="node10" class="node">
<title>Node9</title>
<polygon fill="#ffffff" stroke="#bfbfbf" points="1731.8178,-56.5 1731.8178,-75.5 1783.8178,-75.5 1783.8178,-56.5 1731.8178,-56.5"/>
<text text-anchor="middle" x="1757.8178" y="-63.5" font-family="Helvetica,sans-Serif" font-size="10.00" fill="#000000">memory</text>
</g>
<!-- Node8&#45;&gt;Node9 -->
<g id="edge11" class="edge">
<title>Node8&#45;&gt;Node9</title>
<path fill="none" stroke="#191970" d="M1268.5926,-119.5071C1287.7068,-116.9419 1309.1675,-114.1984 1328.8178,-112 1500.3256,-92.8121 1548.2022,-107.7191 1721.5997,-75.9236"/>
<polygon fill="#191970" stroke="#191970" points="1722.3788,-79.3388 1731.5705,-74.0696 1721.0991,-72.4567 1722.3788,-79.3388"/>
</g>
<!-- Node10 -->
<g id="node11" class="node">
<title>Node10</title>
<polygon fill="#ffffff" stroke="#bfbfbf" points="1183.8178,-56.5 1183.8178,-75.5 1239.8178,-75.5 1239.8178,-56.5 1183.8178,-56.5"/>
<text text-anchor="middle" x="1211.8178" y="-63.5" font-family="Helvetica,sans-Serif" font-size="10.00" fill="#000000">algorithm</text>
</g>
<!-- Node8&#45;&gt;Node10 -->
<g id="edge13" class="edge">
<title>Node8&#45;&gt;Node10</title>
<path fill="none" stroke="#191970" d="M1211.8178,-117.8906C1211.8178,-109.3657 1211.8178,-96.6392 1211.8178,-85.9235"/>
<polygon fill="#191970" stroke="#191970" points="1215.3179,-85.7448 1211.8178,-75.7449 1208.3179,-85.7449 1215.3179,-85.7448"/>
</g>
<!-- Node11 -->
<g id="node12" class="node">
<title>Node11</title>
<polygon fill="#ffffff" stroke="#bfbfbf" points="1258.3178,-56.5 1258.3178,-75.5 1357.3178,-75.5 1357.3178,-56.5 1258.3178,-56.5"/>
<text text-anchor="middle" x="1307.8178" y="-63.5" font-family="Helvetica,sans-Serif" font-size="10.00" fill="#000000">AMReX_BCRec.H</text>
</g>
<!-- Node8&#45;&gt;Node11 -->
<g id="edge15" class="edge">
<title>Node8&#45;&gt;Node11</title>
<path fill="none" stroke="#191970" d="M1226.8178,-117.8906C1242.1758,-108.0519 1266.2698,-92.6167 1284.1923,-81.1351"/>
<polygon fill="#191970" stroke="#191970" points="1286.3908,-83.8833 1292.9231,-75.5419 1282.6147,-77.9891 1286.3908,-83.8833"/>
</g>
<!-- Node12 -->
<g id="node13" class="node">
<title>Node12</title>
<polygon fill="#ffffff" stroke="#bfbfbf" points="1004.3178,-56.5 1004.3178,-75.5 1089.3178,-75.5 1089.3178,-56.5 1004.3178,-56.5"/>
<text text-anchor="middle" x="1046.8178" y="-63.5" font-family="Helvetica,sans-Serif" font-size="10.00" fill="#000000">AMReX_Gpu.H</text>
</g>
<!-- Node8&#45;&gt;Node12 -->
<g id="edge16" class="edge">
<title>Node8&#45;&gt;Node12</title>
<path fill="none" stroke="#191970" d="M1186.0365,-117.8906C1158.0657,-107.4652 1113.2359,-90.7559 1082.0318,-79.1252"/>
<polygon fill="#191970" stroke="#191970" points="1083.0107,-75.7549 1072.418,-75.5419 1080.5658,-82.3141 1083.0107,-75.7549"/>
</g>
<!-- Node13 -->
<g id="node14" class="node">
<title>Node13</title>
<g id="a_node14"><a xlink:href="incflo__enums_8_h.html" target="_top" xlink:title="amr&#45;wind/incflo_enums.H">
<polygon fill="#ffffff" stroke="#000000" points="1957.8178,-56.5 1957.8178,-75.5 2085.8178,-75.5 2085.8178,-56.5 1957.8178,-56.5"/>
<text text-anchor="middle" x="2021.8178" y="-63.5" font-family="Helvetica,sans-Serif" font-size="10.00" fill="#000000">amr&#45;wind/incflo_enums.H</text>
</a>
</g>
</g>
<!-- Node8&#45;&gt;Node13 -->
<g id="edge17" class="edge">
<title>Node8&#45;&gt;Node13</title>
<path fill="none" stroke="#191970" d="M1268.5624,-119.2204C1287.6744,-116.6352 1309.1415,-113.9523 1328.8178,-112 1569.9404,-88.0759 1631.0475,-92.1128 1872.8178,-76 1897.1507,-74.3783 1923.7181,-72.5983 1947.5929,-70.9952"/>
<polygon fill="#191970" stroke="#191970" points="1947.9028,-74.4824 1957.6457,-70.32 1947.4336,-67.4981 1947.9028,-74.4824"/>
</g>
<!-- Node14 -->
<g id="node15" class="node">
<title>Node14</title>
<g id="a_node15"><a xlink:href="_view_field_8_h.html" target="_top" xlink:title="amr&#45;wind/core/ViewField.H">
<polygon fill="#ffffff" stroke="#000000" points="737.8178,-56.5 737.8178,-75.5 871.8178,-75.5 871.8178,-56.5 737.8178,-56.5"/>
<text text-anchor="middle" x="804.8178" y="-63.5" font-family="Helvetica,sans-Serif" font-size="10.00" fill="#000000">amr&#45;wind/core/ViewField.H</text>
</a>
</g>
</g>
<!-- Node8&#45;&gt;Node14 -->
<g id="edge19" class="edge">
<title>Node8&#45;&gt;Node14</title>
<path fill="none" stroke="#191970" d="M1155.2261,-118.9487C1082.8563,-108.0132 957.4097,-89.0575 877.8877,-77.0413"/>
<polygon fill="#191970" stroke="#191970" points="878.3548,-73.5722 867.944,-75.5387 877.3088,-80.4936 878.3548,-73.5722"/>
</g>
<!-- Node14&#45;&gt;Node2 -->
<g id="edge20" class="edge">
<title>Node14&#45;&gt;Node2</title>
<path fill="none" stroke="#191970" d="M836.1582,-56.4788C863.9964,-47.9586 906.0127,-34.9458 950.6798,-20.3196"/>
<polygon fill="#191970" stroke="#191970" points="951.8401,-23.6225 960.2473,-17.175 949.6544,-16.9724 951.8401,-23.6225"/>
</g>
<!-- Node14&#45;&gt;Node4 -->
<g id="edge21" class="edge">
<title>Node14&#45;&gt;Node4</title>
<path fill="none" stroke="#191970" d="M737.4942,-57.3727C660.7673,-47.5404 535.2589,-31.457 452.096,-20.8"/>
<polygon fill="#191970" stroke="#191970" points="452.5341,-17.3276 442.1703,-19.528 451.6442,-24.2708 452.5341,-17.3276"/>
</g>
<!-- Node14&#45;&gt;Node6 -->
<g id="edge22" class="edge">
<title>Node14&#45;&gt;Node6</title>
<path fill="none" stroke="#191970" d="M788.27,-56.2455C773.5579,-47.5731 751.829,-34.7645 734.9673,-24.825"/>
<polygon fill="#191970" stroke="#191970" points="736.5679,-21.7057 726.1759,-19.6427 733.0132,-27.736 736.5679,-21.7057"/>
</g>
<!-- Node15 -->
<g id="node16" class="node">
<title>Node15</title>
<polygon fill="#ffffff" stroke="#bfbfbf" points="847.3178,-.5 847.3178,-19.5 942.3178,-19.5 942.3178,-.5 847.3178,-.5"/>
<text text-anchor="middle" x="894.8178" y="-7.5" font-family="Helvetica,sans-Serif" font-size="10.00" fill="#000000">AMReX_Vector.H</text>
</g>
<!-- Node14&#45;&gt;Node15 -->
<g id="edge23" class="edge">
<title>Node14&#45;&gt;Node15</title>
<path fill="none" stroke="#191970" d="M820.4946,-56.2455C834.3033,-47.6534 854.637,-35.0014 870.547,-25.1018"/>
<polygon fill="#191970" stroke="#191970" points="872.6791,-27.8974 879.3206,-19.6427 868.9809,-21.954 872.6791,-27.8974"/>
</g>
<!-- Node16&#45;&gt;Node2 -->
<g id="edge25" class="edge">
<title>Node16&#45;&gt;Node2</title>
<path fill="none" stroke="#191970" d="M365.0865,-117.5459C350.1769,-102.5514 326.841,-74.0117 343.8178,-56 388.5122,-8.5809 849.2993,-31.2976 950.0914,-19.436"/>
<polygon fill="#191970" stroke="#191970" points="950.7411,-22.8774 960.0963,-17.9045 949.6818,-15.958 950.7411,-22.8774"/>
</g>
<!-- Node16&#45;&gt;Node4 -->
<g id="edge26" class="edge">
<title>Node16&#45;&gt;Node4</title>
<path fill="none" stroke="#191970" d="M355.2084,-117.8834C339.5602,-109.3307 319.1893,-95.1997 309.8178,-76 300.0116,-55.9099 320.4416,-37.1918 339.7023,-24.859"/>
<polygon fill="#191970" stroke="#191970" points="341.5871,-27.8098 348.3568,-19.6599 337.9823,-21.8093 341.5871,-27.8098"/>
</g>
<!-- Node16&#45;&gt;Node17 -->
<g id="edge27" class="edge">
<title>Node16&#45;&gt;Node17</title>
<path fill="none" stroke="#191970" d="M380.5053,-117.8906C384.7951,-109.0965 391.2659,-95.8312 396.5912,-84.9145"/>
<polygon fill="#191970" stroke="#191970" points="399.8256,-86.2671 401.0642,-75.7449 393.5342,-83.1981 399.8256,-86.2671"/>
</g>
<!-- Node18&#45;&gt;Node2 -->
<g id="edge29" class="edge">
<title>Node18&#45;&gt;Node2</title>
<path fill="none" stroke="#191970" d="M769.5223,-117.9802C808.178,-110.2375 858.7706,-97.0679 899.8178,-76 924.8293,-63.1625 949.2445,-41.6786 964.6182,-26.7227"/>
<polygon fill="#191970" stroke="#191970" points="967.1759,-29.1151 971.7887,-19.5772 962.2348,-24.1567 967.1759,-29.1151"/>
</g>
<!-- Node18&#45;&gt;Node4 -->
<g id="edge30" class="edge">
<title>Node18&#45;&gt;Node4</title>
<path fill="none" stroke="#191970" d="M677.4,-117.9501C644.0055,-107.9797 590.5292,-91.6433 544.8178,-76 494.6158,-58.8199 437.1725,-36.9941 401.6918,-23.2564"/>
<polygon fill="#191970" stroke="#191970" points="402.88,-19.9633 392.2912,-19.6068 400.3466,-26.4887 402.88,-19.9633"/>
</g>
<!-- Node18&#45;&gt;Node6 -->
<g id="edge32" class="edge">
<title>Node18&#45;&gt;Node6</title>
<path fill="none" stroke="#191970" d="M709.8178,-117.8845C709.8178,-98.6913 709.8178,-55.286 709.8178,-29.7663"/>
<polygon fill="#191970" stroke="#191970" points="713.3179,-29.7483 709.8178,-19.7484 706.3179,-29.7484 713.3179,-29.7483"/>
</g>
<!-- Node18&#45;&gt;Node14 -->
<g id="edge31" class="edge">
<title>Node18&#45;&gt;Node14</title>
<path fill="none" stroke="#191970" d="M724.6615,-117.8906C739.8596,-108.0519 763.7026,-92.6167 781.4384,-81.1351"/>
<polygon fill="#191970" stroke="#191970" points="783.5857,-83.9144 790.0782,-75.5419 779.7817,-78.0382 783.5857,-83.9144"/>
</g>
<!-- Node18&#45;&gt;Node15 -->
<g id="edge33" class="edge">
<title>Node18&#45;&gt;Node15</title>
<path fill="none" stroke="#191970" d="M761.4987,-117.9458C805.6768,-108.7365 864.6035,-93.6281 880.8178,-76 892.0803,-63.7554 895.1551,-44.782 895.6606,-30.3152"/>
<polygon fill="#191970" stroke="#191970" points="899.1592,-29.881 895.6226,-19.8939 892.1592,-29.9066 899.1592,-29.881"/>
</g>
<!-- Node19 -->
<g id="node20" class="node">
<title>Node19</title>
<polygon fill="#ffffff" stroke="#bfbfbf" points="553.8178,-56.5 553.8178,-75.5 681.8178,-75.5 681.8178,-56.5 553.8178,-56.5"/>
<text text-anchor="middle" x="617.8178" y="-63.5" font-family="Helvetica,sans-Serif" font-size="10.00" fill="#000000">AMReX_PhysBCFunct.H</text>
</g>
<!-- Node18&#45;&gt;Node19 -->
<g id="edge34" class="edge">
<title>Node18&#45;&gt;Node19</title>
<path fill="none" stroke="#191970" d="M695.4428,-117.8906C680.7246,-108.0519 657.6345,-92.6167 640.4588,-81.1351"/>
<polygon fill="#191970" stroke="#191970" points="642.3505,-78.1896 632.0918,-75.5419 638.4603,-84.0091 642.3505,-78.1896"/>
</g>
<!-- Node21&#45;&gt;Node1 -->
<g id="edge47" class="edge">
<title>Node21&#45;&gt;Node1</title>
<path fill="none" stroke="#191970" d="M483.276,-246.4639C510.3835,-234.969 547.4377,-219.2561 573.6833,-208.1266"/>
<polygon fill="#191970" stroke="#191970" points="575.3297,-211.2302 583.1697,-204.1039 572.5968,-204.7857 575.3297,-211.2302"/>
</g>
<!-- Node21&#45;&gt;Node4 -->
<g id="edge45" class="edge">
<title>Node21&#45;&gt;Node4</title>
<path fill="none" stroke="#191970" d="M377.9792,-253.5648C264.3494,-239.0032 47.7696,-203.7971 4.8178,-143 -4.1878,-130.2529 1.377,-64.7743 9.8178,-56 28.0357,-37.0623 176.0792,-23.1926 275.9952,-15.88"/>
<polygon fill="#191970" stroke="#191970" points="276.39,-19.3607 286.1121,-15.1499 275.8861,-12.3789 276.39,-19.3607"/>
</g>
<!-- Node21&#45;&gt;Node5 -->
<g id="edge46" class="edge">
<title>Node21&#45;&gt;Node5</title>
<path fill="none" stroke="#191970" d="M389.7737,-246.4506C355.1831,-237.0045 310.6003,-223.9899 271.8178,-210 213.3356,-188.9039 147.1533,-158.8819 110.0615,-141.4728"/>
<polygon fill="#191970" stroke="#191970" points="111.3784,-138.2241 100.8409,-137.1232 108.3919,-144.5551 111.3784,-138.2241"/>
</g>
<!-- Node21&#45;&gt;Node6 -->
<g id="edge48" class="edge">
<title>Node21&#45;&gt;Node6</title>
<path fill="none" stroke="#191970" d="M416.911,-246.4973C382.2449,-227.7364 327.8609,-192.0221 304.8178,-143 287.4183,-105.9845 301.0728,-79.112 334.8178,-56 360.0619,-38.7102 547.728,-22.1867 647.6346,-14.4978"/>
<polygon fill="#191970" stroke="#191970" points="647.9025,-17.9876 657.6074,-13.7372 647.3701,-11.0079 647.9025,-17.9876"/>
</g>
<!-- Node22 -->
<g id="node23" class="node">
<title>Node22</title>
<g id="a_node23"><a xlink:href="_factory_8_h.html" target="_top" xlink:title="amr&#45;wind/core/Factory.H">
<polygon fill="#ffffff" stroke="#000000" points="1633.3178,-118 1633.3178,-137 1758.3178,-137 1758.3178,-118 1633.3178,-118"/>
<text text-anchor="middle" x="1695.8178" y="-125" font-family="Helvetica,sans-Serif" font-size="10.00" fill="#000000">amr&#45;wind/core/Factory.H</text>
</a>
</g>
</g>
<!-- Node21&#45;&gt;Node22 -->
<g id="edge39" class="edge">
<title>Node21&#45;&gt;Node22</title>
<path fill="none" stroke="#191970" d="M517.4749,-250.7768C632.7322,-233.3781 870.4981,-198.9405 1072.8178,-179 1317.0454,-154.9291 1380.7616,-176.9155 1623.8178,-143 1631.2141,-141.9679 1638.9833,-140.6 1646.5702,-139.1031"/>
<polygon fill="#191970" stroke="#191970" points="1647.3047,-142.5254 1656.3922,-137.0785 1645.8915,-135.6695 1647.3047,-142.5254"/>
</g>
<!-- Node22&#45;&gt;Node3 -->
<g id="edge41" class="edge">
<title>Node22&#45;&gt;Node3</title>
<path fill="none" stroke="#191970" d="M1658.5811,-117.9581C1616.7184,-107.2308 1548.6549,-89.7895 1503.0763,-78.11"/>
<polygon fill="#191970" stroke="#191970" points="1503.6976,-74.6562 1493.1418,-75.5643 1501.96,-81.4371 1503.6976,-74.6562"/>
</g>
<!-- Node22&#45;&gt;Node9 -->
<g id="edge40" class="edge">
<title>Node22&#45;&gt;Node9</title>
<path fill="none" stroke="#191970" d="M1705.5053,-117.8906C1714.9137,-108.5581 1729.3984,-94.1902 1740.7427,-82.9374"/>
<polygon fill="#191970" stroke="#191970" points="1743.3588,-85.2722 1747.9937,-75.7449 1738.4292,-80.3024 1743.3588,-85.2722"/>
</g>
<!-- Node23 -->
<g id="node24" class="node">
<title>Node23</title>
<polygon fill="#ffffff" stroke="#bfbfbf" points="1553.8178,-56.5 1553.8178,-75.5 1607.8178,-75.5 1607.8178,-56.5 1553.8178,-56.5"/>
<text text-anchor="middle" x="1580.8178" y="-63.5" font-family="Helvetica,sans-Serif" font-size="10.00" fill="#000000">iostream</text>
</g>
<!-- Node22&#45;&gt;Node23 -->
<g id="edge42" class="edge">
<title>Node22&#45;&gt;Node23</title>
<path fill="none" stroke="#191970" d="M1677.849,-117.8906C1659.0294,-107.8262 1629.2593,-91.9057 1607.6537,-80.3514"/>
<polygon fill="#191970" stroke="#191970" points="1609.1291,-77.1714 1598.6603,-75.5419 1605.828,-83.3442 1609.1291,-77.1714"/>
</g>
<!-- Node24 -->
<g id="node25" class="node">
<title>Node24</title>
<polygon fill="#ffffff" stroke="#bfbfbf" points="1626.3178,-56.5 1626.3178,-75.5 1713.3178,-75.5 1713.3178,-56.5 1626.3178,-56.5"/>
<text text-anchor="middle" x="1669.8178" y="-63.5" font-family="Helvetica,sans-Serif" font-size="10.00" fill="#000000">AMReX_Print.H</text>
</g>
<!-- Node22&#45;&gt;Node24 -->
<g id="edge43" class="edge">
<title>Node22&#45;&gt;Node24</title>
<path fill="none" stroke="#191970" d="M1691.7553,-117.8906C1688.0754,-109.1862 1682.5436,-96.1015 1677.9557,-85.2494"/>
<polygon fill="#191970" stroke="#191970" points="1681.0553,-83.5927 1673.9375,-75.7449 1674.6078,-86.3185 1681.0553,-83.5927"/>
</g>
<!-- Node25 -->
<g id="node26" class="node">
<title>Node25</title>
<polygon fill="#ffffff" stroke="#bfbfbf" points="1801.8178,-56.5 1801.8178,-75.5 1863.8178,-75.5 1863.8178,-56.5 1801.8178,-56.5"/>
<text text-anchor="middle" x="1832.8178" y="-63.5" font-family="Helvetica,sans-Serif" font-size="10.00" fill="#000000">AMReX.H</text>
</g>
<!-- Node22&#45;&gt;Node25 -->
<g id="edge44" class="edge">
<title>Node22&#45;&gt;Node25</title>
<path fill="none" stroke="#191970" d="M1717.224,-117.8906C1740.0461,-107.6457 1776.3857,-91.3326 1802.2235,-79.7339"/>
<polygon fill="#191970" stroke="#191970" points="1803.8723,-82.8303 1811.5618,-75.5419 1801.0055,-76.4443 1803.8723,-82.8303"/>
</g>
<!-- Node26&#45;&gt;Node8 -->
<g id="edge77" class="edge">
<title>Node26&#45;&gt;Node8</title>
<path fill="none" stroke="#191970" d="M1211.8178,-313.3923C1211.8178,-277.5844 1211.8178,-187.5545 1211.8178,-147.386"/>
<polygon fill="#191970" stroke="#191970" points="1215.3179,-147.2562 1211.8178,-137.2562 1208.3179,-147.2562 1215.3179,-147.2562"/>
</g>
<!-- Node27 -->
<g id="node28" class="node">
<title>Node27</title>
<g id="a_node28"><a xlink:href="_direction_selector_8_h.html" target="_top" xlink:title="amr&#45;wind/utilities\l/DirectionSelector.H">
<polygon fill="#ffffff" stroke="#000000" points="1071.3178,-246.5 1071.3178,-276.5 1176.3178,-276.5 1176.3178,-246.5 1071.3178,-246.5"/>
<text text-anchor="start" x="1079.3178" y="-264.5" font-family="Helvetica,sans-Serif" font-size="10.00" fill="#000000">amr&#45;wind/utilities</text>
<text text-anchor="middle" x="1123.8178" y="-253.5" font-family="Helvetica,sans-Serif" font-size="10.00" fill="#000000">/DirectionSelector.H</text>
</a>
</g>
</g>
<!-- Node26&#45;&gt;Node27 -->
<g id="edge50" class="edge">
<title>Node26&#45;&gt;Node27</title>
<path fill="none" stroke="#191970" d="M1191.8492,-313.2967C1180.0353,-304.302 1164.8872,-292.7687 1151.885,-282.8694"/>
<polygon fill="#191970" stroke="#191970" points="1153.7839,-279.9162 1143.7073,-276.6432 1149.5435,-285.4857 1153.7839,-279.9162"/>
</g>
<!-- Node29 -->
<g id="node30" class="node">
<title>Node29</title>
<g id="a_node30"><a xlink:href="_c_f_d_sim_8_h.html" target="_top" xlink:title="amr&#45;wind/CFDSim.H">
<polygon fill="#ffffff" stroke="#000000" points="1458.8178,-252 1458.8178,-271 1566.8178,-271 1566.8178,-252 1458.8178,-252"/>
<text text-anchor="middle" x="1512.8178" y="-259" font-family="Helvetica,sans-Serif" font-size="10.00" fill="#000000">amr&#45;wind/CFDSim.H</text>
</a>
</g>
</g>
<!-- Node26&#45;&gt;Node29 -->
<g id="edge53" class="edge">
<title>Node26&#45;&gt;Node29</title>
<path fill="none" stroke="#191970" d="M1271.6455,-315.1828C1326.7302,-302.9215 1407.6515,-284.9091 1460.2915,-273.1919"/>
<polygon fill="#191970" stroke="#191970" points="1461.1018,-276.5973 1470.1024,-271.0081 1459.5808,-269.7645 1461.1018,-276.5973"/>
</g>
<!-- Node30 -->
<g id="node31" class="node">
<title>Node30</title>
<g id="a_node31"><a xlink:href="_sim_time_8_h.html" target="_top" xlink:title="amr&#45;wind/core/SimTime.H">
<polygon fill="#ffffff" stroke="#000000" points="2311.3178,-185 2311.3178,-204 2442.3178,-204 2442.3178,-185 2311.3178,-185"/>
<text text-anchor="middle" x="2376.8178" y="-192" font-family="Helvetica,sans-Serif" font-size="10.00" fill="#000000">amr&#45;wind/core/SimTime.H</text>
</a>
</g>
</g>
<!-- Node26&#45;&gt;Node30 -->
<g id="edge78" class="edge">
<title>Node26&#45;&gt;Node30</title>
<path fill="none" stroke="#191970" d="M1271.5954,-321.6243C1466.7393,-299.1785 2084.9874,-228.0667 2301.2434,-203.1927"/>
<polygon fill="#191970" stroke="#191970" points="2301.6996,-206.6634 2311.2341,-202.0435 2300.8996,-199.7092 2301.6996,-206.6634"/>
</g>
<!-- Node27&#45;&gt;Node12 -->
<g id="edge52" class="edge">
<title>Node27&#45;&gt;Node12</title>
<path fill="none" stroke="#191970" d="M1103.8914,-246.4672C1092.9993,-237.1646 1080.2493,-224.2896 1072.8178,-210 1051.7079,-169.4097 1047.4319,-114.6637 1046.752,-85.7669"/>
<polygon fill="#191970" stroke="#191970" points="1050.2513,-85.6798 1046.6404,-75.7194 1043.2518,-85.7576 1050.2513,-85.6798"/>
</g>
<!-- Node28 -->
<g id="node29" class="node">
<title>Node28</title>
<polygon fill="#ffffff" stroke="#bfbfbf" points="1081.8178,-185 1081.8178,-204 1165.8178,-204 1165.8178,-185 1081.8178,-185"/>
<text text-anchor="middle" x="1123.8178" y="-192" font-family="Helvetica,sans-Serif" font-size="10.00" fill="#000000">AMReX_Box.H</text>
</g>
<!-- Node27&#45;&gt;Node28 -->
<g id="edge51" class="edge">
<title>Node27&#45;&gt;Node28</title>
<path fill="none" stroke="#191970" d="M1123.8178,-246.2967C1123.8178,-236.7699 1123.8178,-224.3954 1123.8178,-214.1306"/>
<polygon fill="#191970" stroke="#191970" points="1127.3179,-214.0549 1123.8178,-204.055 1120.3179,-214.055 1127.3179,-214.0549"/>
</g>
<!-- Node29&#45;&gt;Node1 -->
<g id="edge59" class="edge">
<title>Node29&#45;&gt;Node1</title>
<path fill="none" stroke="#191970" d="M1458.797,-257.5095C1305.0397,-246.1515 864.5237,-213.6106 684.205,-200.2905"/>
<polygon fill="#191970" stroke="#191970" points="684.2325,-196.783 674.0018,-199.5367 683.7167,-203.764 684.2325,-196.783"/>
</g>
<!-- Node29&#45;&gt;Node20 -->
<g id="edge54" class="edge">
<title>Node29&#45;&gt;Node20</title>
<path fill="none" stroke="#191970" d="M1504.0438,-251.8631C1483.5563,-229.3603 1432.3444,-173.1112 1406.4021,-144.6173"/>
<polygon fill="#191970" stroke="#191970" points="1408.8325,-142.0878 1399.5122,-137.0496 1403.6564,-146.8003 1408.8325,-142.0878"/>
</g>
<!-- Node29&#45;&gt;Node30 -->
<g id="edge55" class="edge">
<title>Node29&#45;&gt;Node30</title>
<path fill="none" stroke="#191970" d="M1566.8648,-257.3088C1715.3008,-245.7982 2129.5619,-213.6738 2301.0239,-200.3775"/>
<polygon fill="#191970" stroke="#191970" points="2301.5243,-203.8493 2311.2237,-199.5866 2300.983,-196.8703 2301.5243,-203.8493"/>
</g>
<!-- Node34 -->
<g id="node35" class="node">
<title>Node34</title>
<g id="a_node35"><a xlink:href="_p_d_e_base_8_h.html" target="_top" xlink:title="amr&#45;wind/equation_systems\l/PDEBase.H">
<polygon fill="#ffffff" stroke="#000000" points="1860.3178,-179.5 1860.3178,-209.5 1999.3178,-209.5 1999.3178,-179.5 1860.3178,-179.5"/>
<text text-anchor="start" x="1868.3178" y="-197.5" font-family="Helvetica,sans-Serif" font-size="10.00" fill="#000000">amr&#45;wind/equation_systems</text>
<text text-anchor="middle" x="1929.8178" y="-186.5" font-family="Helvetica,sans-Serif" font-size="10.00" fill="#000000">/PDEBase.H</text>
</a>
</g>
</g>
<!-- Node29&#45;&gt;Node34 -->
<g id="edge60" class="edge">
<title>Node29&#45;&gt;Node34</title>
<path fill="none" stroke="#191970" d="M1566.9057,-252.8096C1639.011,-241.2244 1767.1698,-220.6329 1850.2912,-207.2776"/>
<polygon fill="#191970" stroke="#191970" points="1850.8798,-210.7281 1860.1979,-205.6859 1849.7693,-203.8167 1850.8798,-210.7281"/>
</g>
<!-- Node38 -->
<g id="node39" class="node">
<title>Node38</title>
<g id="a_node39"><a xlink:href="_physics_8_h.html" target="_top" xlink:title="amr&#45;wind/core/Physics.H">
<polygon fill="#ffffff" stroke="#000000" points="1496.3178,-185 1496.3178,-204 1623.3178,-204 1623.3178,-185 1496.3178,-185"/>
<text text-anchor="middle" x="1559.8178" y="-192" font-family="Helvetica,sans-Serif" font-size="10.00" fill="#000000">amr&#45;wind/core/Physics.H</text>
</a>
</g>
</g>
<!-- Node29&#45;&gt;Node38 -->
<g id="edge72" class="edge">
<title>Node29&#45;&gt;Node38</title>
<path fill="none" stroke="#191970" d="M1519.5517,-251.9005C1526.7413,-241.6515 1538.2997,-225.1747 1547.1926,-212.4976"/>
<polygon fill="#191970" stroke="#191970" points="1550.2187,-214.2783 1553.0963,-204.0817 1544.4881,-210.2582 1550.2187,-214.2783"/>
</g>
<!-- Node31 -->
<g id="node32" class="node">
<title>Node31</title>
<polygon fill="#ffffff" stroke="#bfbfbf" points="2586.3178,-118 2586.3178,-137 2679.3178,-137 2679.3178,-118 2586.3178,-118"/>
<text text-anchor="middle" x="2632.8178" y="-125" font-family="Helvetica,sans-Serif" font-size="10.00" fill="#000000">AMReX_REAL.H</text>
</g>
<!-- Node30&#45;&gt;Node31 -->
<g id="edge56" class="edge">
<title>Node30&#45;&gt;Node31</title>
<path fill="none" stroke="#191970" d="M2414.8403,-184.9259C2455.1138,-174.7343 2520.5272,-158.0363 2576.8178,-143 2580.8197,-141.931 2584.9786,-140.8061 2589.1412,-139.6709"/>
<polygon fill="#191970" stroke="#191970" points="2590.0706,-143.0453 2598.7883,-137.0243 2588.2186,-136.2947 2590.0706,-143.0453"/>
</g>
<!-- Node32 -->
<g id="node33" class="node">
<title>Node32</title>
<polygon fill="#ffffff" stroke="#bfbfbf" points="2313.8178,-118 2313.8178,-137 2439.8178,-137 2439.8178,-118 2313.8178,-118"/>
<text text-anchor="middle" x="2376.8178" y="-125" font-family="Helvetica,sans-Serif" font-size="10.00" fill="#000000">AMReX_GpuQualifiers.H</text>
</g>
<!-- Node30&#45;&gt;Node32 -->
<g id="edge57" class="edge">
<title>Node30&#45;&gt;Node32</title>
<path fill="none" stroke="#191970" d="M2376.8178,-184.9005C2376.8178,-175.149 2376.8178,-159.7597 2376.8178,-147.3695"/>
<polygon fill="#191970" stroke="#191970" points="2380.3179,-147.0816 2376.8178,-137.0817 2373.3179,-147.0817 2380.3179,-147.0816"/>
</g>
<!-- Node33 -->
<g id="node34" class="node">
<title>Node33</title>
<polygon fill="#ffffff" stroke="#bfbfbf" points="2457.8178,-118 2457.8178,-137 2567.8178,-137 2567.8178,-118 2457.8178,-118"/>
<text text-anchor="middle" x="2512.8178" y="-125" font-family="Helvetica,sans-Serif" font-size="10.00" fill="#000000">AMReX_Extension.H</text>
</g>
<!-- Node30&#45;&gt;Node33 -->
<g id="edge58" class="edge">
<title>Node30&#45;&gt;Node33</title>
<path fill="none" stroke="#191970" d="M2396.3032,-184.9005C2419.3291,-173.5569 2457.8405,-154.5844 2484.241,-141.5783"/>
<polygon fill="#191970" stroke="#191970" points="2485.9447,-144.6407 2493.3684,-137.0817 2482.8511,-138.3613 2485.9447,-144.6407"/>
</g>
<!-- Node34&#45;&gt;Node2 -->
<g id="edge61" class="edge">
<title>Node34&#45;&gt;Node2</title>
<path fill="none" stroke="#191970" d="M1978.948,-179.4939C2048.1684,-156.0339 2160.6926,-107.9465 2110.8178,-56 2071.692,-15.2491 1189.3674,-10.5909 1011.7886,-10.0658"/>
<polygon fill="#191970" stroke="#191970" points="1011.5851,-6.5653 1001.5756,-10.038 1011.566,-13.5653 1011.5851,-6.5653"/>
</g>
<!-- Node34&#45;&gt;Node4 -->
<g id="edge70" class="edge">
<title>Node34&#45;&gt;Node4</title>
<path fill="none" stroke="#191970" d="M1929.2545,-179.2834C1927.1719,-148.6812 1917.4936,-80.5227 1872.8178,-56 1813.1817,-23.2656 716.8113,-22.2097 648.8178,-20 585.6625,-17.9475 514.5314,-15.414 459.6372,-13.4106"/>
<polygon fill="#191970" stroke="#191970" points="459.703,-9.9107 449.5818,-13.0429 459.4472,-16.9061 459.703,-9.9107"/>
</g>
<!-- Node34&#45;&gt;Node13 -->
<g id="edge71" class="edge">
<title>Node34&#45;&gt;Node13</title>
<path fill="none" stroke="#191970" d="M1940.7326,-179.2548C1957.774,-155.4524 1990.632,-109.5584 2008.853,-84.1084"/>
<polygon fill="#191970" stroke="#191970" points="2011.8718,-85.9042 2014.8474,-75.7358 2006.1802,-81.8292 2011.8718,-85.9042"/>
</g>
<!-- Node34&#45;&gt;Node22 -->
<g id="edge62" class="edge">
<title>Node34&#45;&gt;Node22</title>
<path fill="none" stroke="#191970" d="M1877.3036,-179.4639C1835.6186,-167.5284 1778.0516,-151.0456 1739.0127,-139.8678"/>
<polygon fill="#191970" stroke="#191970" points="1739.5925,-136.3932 1729.0153,-137.0053 1737.6656,-143.1228 1739.5925,-136.3932"/>
</g>
<!-- Node35 -->
<g id="node36" class="node">
<title>Node35</title>
<g id="a_node36"><a xlink:href="_coll_mgr_8_h.html" target="_top" xlink:title="amr&#45;wind/core/CollMgr.H">
<polygon fill="#ffffff" stroke="#000000" points="1776.3178,-118 1776.3178,-137 1901.3178,-137 1901.3178,-118 1776.3178,-118"/>
<text text-anchor="middle" x="1838.8178" y="-125" font-family="Helvetica,sans-Serif" font-size="10.00" fill="#000000">amr&#45;wind/core/CollMgr.H</text>
</a>
</g>
</g>
<!-- Node34&#45;&gt;Node35 -->
<g id="edge63" class="edge">
<title>Node34&#45;&gt;Node35</title>
<path fill="none" stroke="#191970" d="M1909.1684,-179.2967C1894.4396,-168.4524 1874.6991,-153.9182 1859.8782,-143.006"/>
<polygon fill="#191970" stroke="#191970" points="1861.9234,-140.1655 1851.7954,-137.055 1857.7731,-145.8025 1861.9234,-140.1655"/>
</g>
<!-- Node36 -->
<g id="node37" class="node">
<title>Node36</title>
<g id="a_node37"><a xlink:href="_p_d_e_fields_8_h.html" target="_top" xlink:title="amr&#45;wind/equation_systems\l/PDEFields.H">
<polygon fill="#ffffff" stroke="#000000" points="2156.3178,-112.5 2156.3178,-142.5 2295.3178,-142.5 2295.3178,-112.5 2156.3178,-112.5"/>
<text text-anchor="start" x="2164.3178" y="-130.5" font-family="Helvetica,sans-Serif" font-size="10.00" fill="#000000">amr&#45;wind/equation_systems</text>
<text text-anchor="middle" x="2225.8178" y="-119.5" font-family="Helvetica,sans-Serif" font-size="10.00" fill="#000000">/PDEFields.H</text>
</a>
</g>
</g>
<!-- Node34&#45;&gt;Node36 -->
<g id="edge68" class="edge">
<title>Node34&#45;&gt;Node36</title>
<path fill="none" stroke="#191970" d="M1996.2459,-179.4639C2041.678,-169.1803 2102.0239,-155.5209 2149.4432,-144.7875"/>
<polygon fill="#191970" stroke="#191970" points="2150.3752,-148.1652 2159.3557,-142.5438 2148.8297,-141.3379 2150.3752,-148.1652"/>
</g>
<!-- Node35&#45;&gt;Node2 -->
<g id="edge64" class="edge">
<title>Node35&#45;&gt;Node2</title>
<path fill="none" stroke="#191970" d="M1901.432,-123.7741C1969.2007,-118.2803 2070.8348,-105.2881 2094.8178,-76 2100.4493,-69.1227 2100.9721,-62.4137 2094.8178,-56 2056.2978,-15.8567 1188.2665,-10.7157 1011.9115,-10.085"/>
<polygon fill="#191970" stroke="#191970" points="1011.7696,-6.5846 1001.7579,-10.0511 1011.7461,-13.5846 1011.7696,-6.5846"/>
</g>
<!-- Node35&#45;&gt;Node3 -->
<g id="edge66" class="edge">
<title>Node35&#45;&gt;Node3</title>
<path fill="none" stroke="#191970" d="M1797.2408,-117.9235C1787.6056,-115.8433 1777.3745,-113.7456 1767.8178,-112 1676.4905,-95.319 1569.2687,-80.5549 1507.2731,-72.4864"/>
<polygon fill="#191970" stroke="#191970" points="1507.7169,-69.0147 1497.3503,-71.2019 1506.8182,-75.9568 1507.7169,-69.0147"/>
</g>
<!-- Node35&#45;&gt;Node9 -->
<g id="edge65" class="edge">
<title>Node35&#45;&gt;Node9</title>
<path fill="none" stroke="#191970" d="M1826.1615,-117.8906C1813.4409,-108.2324 1793.6174,-93.1812 1778.5893,-81.771"/>
<polygon fill="#191970" stroke="#191970" points="1780.4661,-78.8015 1770.3851,-75.5419 1776.2331,-84.3766 1780.4661,-78.8015"/>
</g>
<!-- Node35&#45;&gt;Node15 -->
<g id="edge67" class="edge">
<title>Node35&#45;&gt;Node15</title>
<path fill="none" stroke="#191970" d="M1849.7883,-117.7967C1865.3874,-102.8766 1890.2533,-74.1304 1872.8178,-56 1838.6758,-20.4974 1065.1472,-25.0159 952.5188,-19.531"/>
<polygon fill="#191970" stroke="#191970" points="952.5527,-16.0251 942.3357,-18.8293 952.0714,-23.0085 952.5527,-16.0251"/>
</g>
<!-- Node37 -->
<g id="node38" class="node">
<title>Node37</title>
<polygon fill="#ffffff" stroke="#bfbfbf" points="2203.3178,-56.5 2203.3178,-75.5 2248.3178,-75.5 2248.3178,-56.5 2203.3178,-56.5"/>
<text text-anchor="middle" x="2225.8178" y="-63.5" font-family="Helvetica,sans-Serif" font-size="10.00" fill="#000000">iosfwd</text>
</g>
<!-- Node36&#45;&gt;Node37 -->
<g id="edge69" class="edge">
<title>Node36&#45;&gt;Node37</title>
<path fill="none" stroke="#191970" d="M2225.8178,-112.2977C2225.8178,-104.3834 2225.8178,-94.6043 2225.8178,-86.0759"/>
<polygon fill="#191970" stroke="#191970" points="2229.3179,-85.8469 2225.8178,-75.8469 2222.3179,-85.847 2229.3179,-85.8469"/>
</g>
<!-- Node38&#45;&gt;Node6 -->
<g id="edge75" class="edge">
<title>Node38&#45;&gt;Node6</title>
<path fill="none" stroke="#191970" d="M1540.1243,-184.9007C1524.9003,-176.2754 1504.9341,-162.0372 1495.8178,-143 1482.7845,-115.7833 1502.3598,-105.8453 1506.8178,-76 1508.1309,-67.2086 1512.9317,-62.4523 1506.8178,-56 1481.255,-29.0226 875.9028,-22.4364 838.8178,-20 817.051,-18.57 793.2356,-16.7859 772.058,-15.1222"/>
<polygon fill="#191970" stroke="#191970" points="772.1393,-11.6178 761.8941,-14.3172 771.5865,-18.5959 772.1393,-11.6178"/>
</g>
<!-- Node38&#45;&gt;Node22 -->
<g id="edge73" class="edge">
<title>Node38&#45;&gt;Node22</title>
<path fill="none" stroke="#191970" d="M1579.3032,-184.9005C1602.3291,-173.5569 1640.8405,-154.5844 1667.241,-141.5783"/>
<polygon fill="#191970" stroke="#191970" points="1668.9447,-144.6407 1676.3684,-137.0817 1665.8511,-138.3613 1668.9447,-144.6407"/>
</g>
<!-- Node38&#45;&gt;Node35 -->
<g id="edge74" class="edge">
<title>Node38&#45;&gt;Node35</title>
<path fill="none" stroke="#191970" d="M1599.4954,-184.9717C1649.3485,-172.9998 1734.9197,-152.4504 1789.0914,-139.4415"/>
<polygon fill="#191970" stroke="#191970" points="1789.919,-142.8423 1798.8253,-137.1039 1788.2845,-136.0358 1789.919,-142.8423"/>
</g>
<!-- Node39 -->
<g id="node40" class="node">
<title>Node39</title>
<polygon fill="#ffffff" stroke="#bfbfbf" points="1504.8178,-118 1504.8178,-137 1614.8178,-137 1614.8178,-118 1504.8178,-118"/>
<text text-anchor="middle" x="1559.8178" y="-125" font-family="Helvetica,sans-Serif" font-size="10.00" fill="#000000">AMReX_Geometry.H</text>
</g>
<!-- Node38&#45;&gt;Node39 -->
<g id="edge76" class="edge">
<title>Node38&#45;&gt;Node39</title>
<path fill="none" stroke="#191970" d="M1559.8178,-184.9005C1559.8178,-175.149 1559.8178,-159.7597 1559.8178,-147.3695"/>
<polygon fill="#191970" stroke="#191970" points="1563.3179,-147.0816 1559.8178,-137.0817 1556.3179,-147.0817 1563.3179,-147.0816"/>
</g>
</g>
</svg>
