<?xml version="1.0" encoding="UTF-8" standalone="no"?>
<!DOCTYPE svg PUBLIC "-//W3C//DTD SVG 1.1//EN"
 "http://www.w3.org/Graphics/SVG/1.1/DTD/svg11.dtd">
<!-- Generated by graphviz version 2.40.1 (20161225.0304)
 -->
<!-- Title: ABLBoundaryPlane.H Pages: 1 -->
<!--zoomable 330 -->
<svg id="main" version="1.1" xmlns="http://www.w3.org/2000/svg" xmlns:xlink="http://www.w3.org/1999/xlink" xml:space="preserve" onload="init(evt)">
<style type="text/css"><![CDATA[
.edge:hover path { stroke: red; }
.edge:hover polygon { stroke: red; fill: red; }
]]></style>
<script type="text/javascript"><![CDATA[
var edges = document.getElementsByTagName('g');
if (edges && edges.length) {
  for (var i=0;i<edges.length;i++) {
    if (edges[i].id.substr(0,4)=='edge') {
      edges[i].setAttribute('class','edge');
    }
  }
}
]]></script>
        <defs>
                <circle id="rim" cx="0" cy="0" r="7"/>
                <circle id="rim2" cx="0" cy="0" r="3.5"/>
                <g id="zoomPlus">
                        <use xlink:href="#rim" fill="#404040">
                                <set attributeName="fill" to="#808080" begin="zoomplus.mouseover" end="zoomplus.mouseout"/>
                        </use>
                        <path d="M-4,0h8M0,-4v8" fill="none" stroke="white" stroke-width="1.5" pointer-events="none"/>
                </g>
                <g id="zoomMin">
                        <use xlink:href="#rim" fill="#404040">
                                <set attributeName="fill" to="#808080" begin="zoomminus.mouseover" end="zoomminus.mouseout"/>
                        </use>
                        <path d="M-4,0h8" fill="none" stroke="white" stroke-width="1.5" pointer-events="none"/>
                </g>
                <g id="dirArrow">
                        <path fill="none" stroke="white" stroke-width="1.5" d="M0,-3.0v7 M-2.5,-0.5L0,-3.0L2.5,-0.5"/>
                </g>
               <g id="resetDef">
                       <use xlink:href="#rim2" fill="#404040">
                               <set attributeName="fill" to="#808080" begin="reset.mouseover" end="reset.mouseout"/>
                       </use>
               </g>
        </defs>

<script type="text/javascript">
var viewWidth = 2443;
var viewHeight = 330;
var sectionId = 'dynsection-0';
</script>
<script xlink:href="svgpan.js"/>
<svg id="graph" class="graph">
<g id="viewport">
<title>ABLBoundaryPlane.H</title>
<polygon fill="#ffffff" stroke="transparent" points="-4,4 -4,-326 2439.3549,-326 2439.3549,4 -4,4"/>
<!-- Node0 -->
<g id="node1" class="node">
<title>Node0</title>
<polygon fill="#bfbfbf" stroke="#000000" points="1307.5,-302.5 1307.5,-321.5 1419.5,-321.5 1419.5,-302.5 1307.5,-302.5"/>
<text text-anchor="middle" x="1363.5" y="-309.5" font-family="Helvetica,sans-Serif" font-size="10.00" fill="#000000">ABLBoundaryPlane.H</text>
</g>
<!-- Node1 -->
<g id="node2" class="node">
<title>Node1</title>
<g id="a_node2"><a xlink:href="_field_8_h.html" target="_top" xlink:title="amr&#45;wind/core/Field.H">
<polygon fill="#ffffff" stroke="#000000" points="1870,-129 1870,-148 1983,-148 1983,-129 1870,-129"/>
<text text-anchor="middle" x="1926.5" y="-136" font-family="Helvetica,sans-Serif" font-size="10.00" fill="#000000">amr&#45;wind/core/Field.H</text>
</a>
</g>
</g>
<!-- Node0&#45;&gt;Node1 -->
<g id="edge1" class="edge">
<title>Node0&#45;&gt;Node1</title>
<path fill="none" stroke="#191970" d="M1403.5634,-302.4717C1472.5674,-285.7569 1618.0392,-249.1855 1738.5,-210 1793.9789,-191.9529 1857.1159,-167.0089 1894.2863,-151.8566"/>
<polygon fill="#191970" stroke="#191970" points="1895.6771,-155.0692 1903.6051,-148.0409 1893.0246,-148.5912 1895.6771,-155.0692"/>
</g>
<!-- Node8 -->
<g id="node9" class="node">
<title>Node8</title>
<polygon fill="#ffffff" stroke="#bfbfbf" points="2183,-62 2183,-81 2268,-81 2268,-62 2183,-62"/>
<text text-anchor="middle" x="2225.5" y="-69" font-family="Helvetica,sans-Serif" font-size="10.00" fill="#000000">AMReX_Gpu.H</text>
</g>
<!-- Node0&#45;&gt;Node8 -->
<g id="edge67" class="edge">
<title>Node0&#45;&gt;Node8</title>
<path fill="none" stroke="#191970" d="M1418.3837,-302.4674C1465.7735,-293.9262 1535.9595,-280.5336 1596.5,-266 1773.935,-223.4043 1817.59,-209.253 1991.5,-154 2062.8313,-131.3373 2145.1284,-101.4337 2190.6469,-84.5578"/>
<polygon fill="#191970" stroke="#191970" points="2191.8997,-87.8262 2200.0538,-81.0615 2189.4609,-81.2648 2191.8997,-87.8262"/>
</g>
<!-- Node13 -->
<g id="node14" class="node">
<title>Node13</title>
<g id="a_node14"><a xlink:href="_c_f_d_sim_8_h.html" target="_top" xlink:title="amr&#45;wind/CFDSim.H">
<polygon fill="#ffffff" stroke="#000000" points="656.5,-246.5 656.5,-265.5 764.5,-265.5 764.5,-246.5 656.5,-246.5"/>
<text text-anchor="middle" x="710.5" y="-253.5" font-family="Helvetica,sans-Serif" font-size="10.00" fill="#000000">amr&#45;wind/CFDSim.H</text>
</a>
</g>
</g>
<!-- Node0&#45;&gt;Node13 -->
<g id="edge16" class="edge">
<title>Node0&#45;&gt;Node13</title>
<path fill="none" stroke="#191970" d="M1307.2604,-307.177C1186.326,-296.8059 902.1855,-272.4386 774.5527,-261.493"/>
<polygon fill="#191970" stroke="#191970" points="774.7966,-258.0012 764.5341,-260.6339 774.1984,-264.9756 774.7966,-258.0012"/>
</g>
<!-- Node36 -->
<g id="node37" class="node">
<title>Node36</title>
<g id="a_node37"><a xlink:href="nc__interface_8_h.html" target="_top" xlink:title="Interface to NetCDF library. ">
<polygon fill="#ffffff" stroke="#000000" points="61,-56.5 61,-86.5 176,-86.5 176,-56.5 61,-56.5"/>
<text text-anchor="start" x="69" y="-74.5" font-family="Helvetica,sans-Serif" font-size="10.00" fill="#000000">amr&#45;wind/utilities</text>
<text text-anchor="middle" x="118.5" y="-63.5" font-family="Helvetica,sans-Serif" font-size="10.00" fill="#000000">/ncutils/nc_interface.H</text>
</a>
</g>
</g>
<!-- Node0&#45;&gt;Node36 -->
<g id="edge68" class="edge">
<title>Node0&#45;&gt;Node36</title>
<path fill="none" stroke="#191970" d="M1307.4693,-310.0103C1064.2413,-300.7693 108.6129,-257.9996 30.5,-154 22.2257,-142.9835 23.6463,-134.9521 30.5,-123 38.3013,-109.3954 51.2423,-99.0392 64.8312,-91.3125"/>
<polygon fill="#191970" stroke="#191970" points="66.5755,-94.3499 73.8071,-86.6069 63.3253,-88.1502 66.5755,-94.3499"/>
</g>
<!-- Node2 -->
<g id="node3" class="node">
<title>Node2</title>
<polygon fill="#ffffff" stroke="#bfbfbf" points="916,-.5 916,-19.5 957,-19.5 957,-.5 916,-.5"/>
<text text-anchor="middle" x="936.5" y="-7.5" font-family="Helvetica,sans-Serif" font-size="10.00" fill="#000000">string</text>
</g>
<!-- Node1&#45;&gt;Node2 -->
<g id="edge2" class="edge">
<title>Node1&#45;&gt;Node2</title>
<path fill="none" stroke="#191970" d="M1869.9016,-129.4903C1854.5443,-127.2025 1837.904,-124.8667 1822.5,-123 1651.8906,-102.3255 1604.4209,-127.8951 1437.5,-87 1402.0682,-78.3193 1396.8676,-64.9388 1361.5,-56 1286.4604,-37.0346 1051.5688,-18.4373 967.122,-12.1982"/>
<polygon fill="#191970" stroke="#191970" points="967.3656,-8.7067 957.1365,-11.4664 966.8539,-15.688 967.3656,-8.7067"/>
</g>
<!-- Node3 -->
<g id="node4" class="node">
<title>Node3</title>
<polygon fill="#ffffff" stroke="#bfbfbf" points="586.5,-.5 586.5,-19.5 638.5,-19.5 638.5,-.5 586.5,-.5"/>
<text text-anchor="middle" x="612.5" y="-7.5" font-family="Helvetica,sans-Serif" font-size="10.00" fill="#000000">memory</text>
</g>
<!-- Node1&#45;&gt;Node3 -->
<g id="edge3" class="edge">
<title>Node1&#45;&gt;Node3</title>
<path fill="none" stroke="#191970" d="M1869.9575,-128.9757C1854.6,-126.689 1837.9458,-124.4823 1822.5,-123 1455.3949,-87.77 1359.5661,-131.7542 993.5,-87 924.631,-78.5803 908.5057,-69.7497 840.5,-56 772.7521,-42.3024 693.6712,-26.3573 648.6992,-17.2938"/>
<polygon fill="#191970" stroke="#191970" points="649.3267,-13.8499 638.8324,-15.3053 647.9438,-20.712 649.3267,-13.8499"/>
</g>
<!-- Node4 -->
<g id="node5" class="node">
<title>Node4</title>
<polygon fill="#ffffff" stroke="#bfbfbf" points="480,-.5 480,-19.5 563,-19.5 563,-.5 480,-.5"/>
<text text-anchor="middle" x="521.5" y="-7.5" font-family="Helvetica,sans-Serif" font-size="10.00" fill="#000000">unordered_map</text>
</g>
<!-- Node1&#45;&gt;Node4 -->
<g id="edge4" class="edge">
<title>Node1&#45;&gt;Node4</title>
<path fill="none" stroke="#191970" d="M1871.0539,-128.9788C1855.3992,-126.6333 1838.3204,-124.396 1822.5,-123 1751.5255,-116.7372 595.9706,-131.7171 540.5,-87 523.7221,-73.4747 520.3578,-47.7055 520.2766,-29.7197"/>
<polygon fill="#191970" stroke="#191970" points="523.7756,-29.8008 520.5599,-19.7058 516.7784,-29.6029 523.7756,-29.8008"/>
</g>
<!-- Node5 -->
<g id="node6" class="node">
<title>Node5</title>
<polygon fill="#ffffff" stroke="#bfbfbf" points="1952.5,-62 1952.5,-81 2008.5,-81 2008.5,-62 1952.5,-62"/>
<text text-anchor="middle" x="1980.5" y="-69" font-family="Helvetica,sans-Serif" font-size="10.00" fill="#000000">algorithm</text>
</g>
<!-- Node1&#45;&gt;Node5 -->
<g id="edge5" class="edge">
<title>Node1&#45;&gt;Node5</title>
<path fill="none" stroke="#191970" d="M1934.2369,-128.9005C1942.5775,-118.552 1956.0354,-101.8542 1966.2912,-89.1295"/>
<polygon fill="#191970" stroke="#191970" points="1969.2273,-91.064 1972.7775,-81.0817 1963.7771,-86.6713 1969.2273,-91.064"/>
</g>
<!-- Node6 -->
<g id="node7" class="node">
<title>Node6</title>
<polygon fill="#ffffff" stroke="#bfbfbf" points="1556.5,-.5 1556.5,-19.5 1660.5,-19.5 1660.5,-.5 1556.5,-.5"/>
<text text-anchor="middle" x="1608.5" y="-7.5" font-family="Helvetica,sans-Serif" font-size="10.00" fill="#000000">AMReX_MultiFab.H</text>
</g>
<!-- Node1&#45;&gt;Node6 -->
<g id="edge6" class="edge">
<title>Node1&#45;&gt;Node6</title>
<path fill="none" stroke="#191970" d="M1927.0417,-128.9011C1927.4497,-111.5239 1925.5771,-74.9042 1904.5,-56 1867.2442,-22.5852 1736.5237,-27.5965 1671.0401,-19.9959"/>
<polygon fill="#191970" stroke="#191970" points="1671.1169,-16.4744 1660.7376,-18.6005 1670.1773,-23.4111 1671.1169,-16.4744"/>
</g>
<!-- Node7 -->
<g id="node8" class="node">
<title>Node7</title>
<polygon fill="#ffffff" stroke="#bfbfbf" points="2027,-62 2027,-81 2126,-81 2126,-62 2027,-62"/>
<text text-anchor="middle" x="2076.5" y="-69" font-family="Helvetica,sans-Serif" font-size="10.00" fill="#000000">AMReX_BCRec.H</text>
</g>
<!-- Node1&#45;&gt;Node7 -->
<g id="edge7" class="edge">
<title>Node1&#45;&gt;Node7</title>
<path fill="none" stroke="#191970" d="M1947.9913,-128.9005C1973.6103,-117.4574 2016.6099,-98.2509 2045.7447,-85.2374"/>
<polygon fill="#191970" stroke="#191970" points="2047.3454,-88.3557 2055.0485,-81.0817 2044.4905,-81.9643 2047.3454,-88.3557"/>
</g>
<!-- Node1&#45;&gt;Node8 -->
<g id="edge8" class="edge">
<title>Node1&#45;&gt;Node8</title>
<path fill="none" stroke="#191970" d="M1975.3505,-128.9375C2024.3575,-119.1489 2101.912,-103.1256 2168.5,-87 2172.8217,-85.9534 2177.3146,-84.8167 2181.7967,-83.6504"/>
<polygon fill="#191970" stroke="#191970" points="2182.7512,-87.0184 2191.521,-81.0735 2180.9581,-80.2519 2182.7512,-87.0184"/>
</g>
<!-- Node9 -->
<g id="node10" class="node">
<title>Node9</title>
<g id="a_node10"><a xlink:href="incflo__enums_8_h.html" target="_top" xlink:title="amr&#45;wind/incflo_enums.H">
<polygon fill="#ffffff" stroke="#000000" points="1224.5,-62 1224.5,-81 1352.5,-81 1352.5,-62 1224.5,-62"/>
<text text-anchor="middle" x="1288.5" y="-69" font-family="Helvetica,sans-Serif" font-size="10.00" fill="#000000">amr&#45;wind/incflo_enums.H</text>
</a>
</g>
</g>
<!-- Node1&#45;&gt;Node9 -->
<g id="edge9" class="edge">
<title>Node1&#45;&gt;Node9</title>
<path fill="none" stroke="#191970" d="M1869.9191,-129.3412C1854.5618,-127.0538 1837.9171,-124.7553 1822.5,-123 1620.5077,-100.0022 1567.8792,-114.86 1366.5,-87 1358.43,-85.8835 1349.9361,-84.4583 1341.6425,-82.9258"/>
<polygon fill="#191970" stroke="#191970" points="1342.1471,-79.459 1331.6674,-81.017 1340.8314,-86.3342 1342.1471,-79.459"/>
</g>
<!-- Node10 -->
<g id="node11" class="node">
<title>Node10</title>
<g id="a_node11"><a xlink:href="_field_desc_types_8_h.html" target="_top" xlink:title="amr&#45;wind/core/FieldDescTypes.H">
<polygon fill="#ffffff" stroke="#000000" points="1679,-.5 1679,-19.5 1842,-19.5 1842,-.5 1679,-.5"/>
<text text-anchor="middle" x="1760.5" y="-7.5" font-family="Helvetica,sans-Serif" font-size="10.00" fill="#000000">amr&#45;wind/core/FieldDescTypes.H</text>
</a>
</g>
</g>
<!-- Node1&#45;&gt;Node10 -->
<g id="edge10" class="edge">
<title>Node1&#45;&gt;Node10</title>
<path fill="none" stroke="#191970" d="M1983.1793,-134.8233C2059.5135,-127.831 2180.7647,-108.3037 2134.5,-56 2116.0697,-35.164 1957.0361,-21.7092 1852.3683,-15.0251"/>
<polygon fill="#191970" stroke="#191970" points="1852.3,-11.514 1842.1001,-14.3798 1851.8609,-18.5002 1852.3,-11.514"/>
</g>
<!-- Node11 -->
<g id="node12" class="node">
<title>Node11</title>
<g id="a_node12"><a xlink:href="_view_field_8_h.html" target="_top" xlink:title="amr&#45;wind/core/ViewField.H">
<polygon fill="#ffffff" stroke="#000000" points="1446.5,-62 1446.5,-81 1580.5,-81 1580.5,-62 1446.5,-62"/>
<text text-anchor="middle" x="1513.5" y="-69" font-family="Helvetica,sans-Serif" font-size="10.00" fill="#000000">amr&#45;wind/core/ViewField.H</text>
</a>
</g>
</g>
<!-- Node1&#45;&gt;Node11 -->
<g id="edge11" class="edge">
<title>Node1&#45;&gt;Node11</title>
<path fill="none" stroke="#191970" d="M1869.9401,-129.3244C1795.0485,-117.1749 1663.0698,-95.7643 1582.4318,-82.6826"/>
<polygon fill="#191970" stroke="#191970" points="1582.8069,-79.1978 1572.3754,-81.0512 1581.6859,-86.1075 1582.8069,-79.1978"/>
</g>
<!-- Node11&#45;&gt;Node2 -->
<g id="edge12" class="edge">
<title>Node11&#45;&gt;Node2</title>
<path fill="none" stroke="#191970" d="M1446.2037,-62.3836C1429.3338,-60.1949 1411.2646,-57.9333 1394.5,-56 1233.7087,-37.4577 1040.6595,-19.462 967.0422,-12.7545"/>
<polygon fill="#191970" stroke="#191970" points="967.3409,-9.2673 957.0652,-11.848 966.7075,-16.2386 967.3409,-9.2673"/>
</g>
<!-- Node11&#45;&gt;Node6 -->
<g id="edge14" class="edge">
<title>Node11&#45;&gt;Node6</title>
<path fill="none" stroke="#191970" d="M1528.3438,-61.8906C1543.5418,-52.0519 1567.3848,-36.6167 1585.1206,-25.1351"/>
<polygon fill="#191970" stroke="#191970" points="1587.268,-27.9144 1593.7605,-19.5419 1583.4639,-22.0382 1587.268,-27.9144"/>
</g>
<!-- Node11&#45;&gt;Node10 -->
<g id="edge13" class="edge">
<title>Node11&#45;&gt;Node10</title>
<path fill="none" stroke="#191970" d="M1551.8227,-61.9581C1594.997,-51.2082 1665.2495,-33.7162 1712.1584,-22.0365"/>
<polygon fill="#191970" stroke="#191970" points="1713.2293,-25.3768 1722.0874,-19.5643 1711.538,-18.5842 1713.2293,-25.3768"/>
</g>
<!-- Node12 -->
<g id="node13" class="node">
<title>Node12</title>
<polygon fill="#ffffff" stroke="#bfbfbf" points="1371,-.5 1371,-19.5 1466,-19.5 1466,-.5 1371,-.5"/>
<text text-anchor="middle" x="1418.5" y="-7.5" font-family="Helvetica,sans-Serif" font-size="10.00" fill="#000000">AMReX_Vector.H</text>
</g>
<!-- Node11&#45;&gt;Node12 -->
<g id="edge15" class="edge">
<title>Node11&#45;&gt;Node12</title>
<path fill="none" stroke="#191970" d="M1498.6563,-61.8906C1483.4582,-52.0519 1459.6152,-36.6167 1441.8794,-25.1351"/>
<polygon fill="#191970" stroke="#191970" points="1443.5361,-22.0382 1433.2395,-19.5419 1439.732,-27.9144 1443.5361,-22.0382"/>
</g>
<!-- Node14 -->
<g id="node15" class="node">
<title>Node14</title>
<polygon fill="#ffffff" stroke="#bfbfbf" points="568.5,-129 568.5,-148 674.5,-148 674.5,-129 568.5,-129"/>
<text text-anchor="middle" x="621.5" y="-136" font-family="Helvetica,sans-Serif" font-size="10.00" fill="#000000">AMReX_AmrCore.H</text>
</g>
<!-- Node13&#45;&gt;Node14 -->
<g id="edge17" class="edge">
<title>Node13&#45;&gt;Node14</title>
<path fill="none" stroke="#191970" d="M703.2168,-246.3845C688.2878,-226.6749 654.0193,-181.4328 634.9417,-156.2461"/>
<polygon fill="#191970" stroke="#191970" points="637.7118,-154.1065 628.8839,-148.2484 632.1318,-158.3331 637.7118,-154.1065"/>
</g>
<!-- Node15 -->
<g id="node16" class="node">
<title>Node15</title>
<g id="a_node16"><a xlink:href="_sim_time_8_h.html" target="_top" xlink:title="amr&#45;wind/core/SimTime.H">
<polygon fill="#ffffff" stroke="#000000" points="233,-190.5 233,-209.5 364,-209.5 364,-190.5 233,-190.5"/>
<text text-anchor="middle" x="298.5" y="-197.5" font-family="Helvetica,sans-Serif" font-size="10.00" fill="#000000">amr&#45;wind/core/SimTime.H</text>
</a>
</g>
</g>
<!-- Node13&#45;&gt;Node15 -->
<g id="edge18" class="edge">
<title>Node13&#45;&gt;Node15</title>
<path fill="none" stroke="#191970" d="M656.2145,-248.6214C584.0262,-238.8094 456.062,-221.4162 374.357,-210.3107"/>
<polygon fill="#191970" stroke="#191970" points="374.5156,-206.8001 364.1353,-208.9213 373.5728,-213.7363 374.5156,-206.8001"/>
</g>
<!-- Node19 -->
<g id="node20" class="node">
<title>Node19</title>
<g id="a_node20"><a xlink:href="_field_repo_8_h.html" target="_top" xlink:title="amr&#45;wind/core/FieldRepo.H">
<polygon fill="#ffffff" stroke="#000000" points="1593.5,-190.5 1593.5,-209.5 1729.5,-209.5 1729.5,-190.5 1593.5,-190.5"/>
<text text-anchor="middle" x="1661.5" y="-197.5" font-family="Helvetica,sans-Serif" font-size="10.00" fill="#000000">amr&#45;wind/core/FieldRepo.H</text>
</a>
</g>
</g>
<!-- Node13&#45;&gt;Node19 -->
<g id="edge22" class="edge">
<title>Node13&#45;&gt;Node19</title>
<path fill="none" stroke="#191970" d="M764.6997,-252.8084C924.7888,-243.3815 1396.0155,-215.6332 1583.3801,-204.6001"/>
<polygon fill="#191970" stroke="#191970" points="1583.6531,-208.0902 1593.43,-204.0083 1583.2415,-201.1023 1583.6531,-208.0902"/>
</g>
<!-- Node26 -->
<g id="node27" class="node">
<title>Node26</title>
<g id="a_node27"><a xlink:href="_p_d_e_base_8_h.html" target="_top" xlink:title="amr&#45;wind/equation_systems\l/PDEBase.H">
<polygon fill="#ffffff" stroke="#000000" points="731,-123.5 731,-153.5 870,-153.5 870,-123.5 731,-123.5"/>
<text text-anchor="start" x="739" y="-141.5" font-family="Helvetica,sans-Serif" font-size="10.00" fill="#000000">amr&#45;wind/equation_systems</text>
<text text-anchor="middle" x="800.5" y="-130.5" font-family="Helvetica,sans-Serif" font-size="10.00" fill="#000000">/PDEBase.H</text>
</a>
</g>
</g>
<!-- Node13&#45;&gt;Node26 -->
<g id="edge45" class="edge">
<title>Node13&#45;&gt;Node26</title>
<path fill="none" stroke="#191970" d="M717.8651,-246.3845C731.8962,-228.0661 762.8206,-187.6925 782.6047,-161.8633"/>
<polygon fill="#191970" stroke="#191970" points="785.5443,-163.7814 788.8465,-153.7143 779.9871,-159.5248 785.5443,-163.7814"/>
</g>
<!-- Node34 -->
<g id="node35" class="node">
<title>Node34</title>
<g id="a_node35"><a xlink:href="_physics_8_h.html" target="_top" xlink:title="amr&#45;wind/core/Physics.H">
<polygon fill="#ffffff" stroke="#000000" points="423,-129 423,-148 550,-148 550,-129 423,-129"/>
<text text-anchor="middle" x="486.5" y="-136" font-family="Helvetica,sans-Serif" font-size="10.00" fill="#000000">amr&#45;wind/core/Physics.H</text>
</a>
</g>
</g>
<!-- Node13&#45;&gt;Node34 -->
<g id="edge62" class="edge">
<title>Node13&#45;&gt;Node34</title>
<path fill="none" stroke="#191970" d="M692.1691,-246.3845C652.7746,-225.7199 559.874,-176.9886 513.6305,-152.7314"/>
<polygon fill="#191970" stroke="#191970" points="515.2515,-149.6294 504.77,-148.0836 511.9998,-155.8283 515.2515,-149.6294"/>
</g>
<!-- Node16 -->
<g id="node17" class="node">
<title>Node16</title>
<polygon fill="#ffffff" stroke="#bfbfbf" points="312,-129 312,-148 405,-148 405,-129 312,-129"/>
<text text-anchor="middle" x="358.5" y="-136" font-family="Helvetica,sans-Serif" font-size="10.00" fill="#000000">AMReX_REAL.H</text>
</g>
<!-- Node15&#45;&gt;Node16 -->
<g id="edge19" class="edge">
<title>Node15&#45;&gt;Node16</title>
<path fill="none" stroke="#191970" d="M307.875,-190.3906C316.9799,-181.0581 330.9974,-166.6902 341.9757,-155.4374"/>
<polygon fill="#191970" stroke="#191970" points="344.5148,-157.8468 348.9928,-148.2449 339.5043,-152.9586 344.5148,-157.8468"/>
</g>
<!-- Node17 -->
<g id="node18" class="node">
<title>Node17</title>
<polygon fill="#ffffff" stroke="#bfbfbf" points="39.5,-129 39.5,-148 165.5,-148 165.5,-129 39.5,-129"/>
<text text-anchor="middle" x="102.5" y="-136" font-family="Helvetica,sans-Serif" font-size="10.00" fill="#000000">AMReX_GpuQualifiers.H</text>
</g>
<!-- Node15&#45;&gt;Node17 -->
<g id="edge20" class="edge">
<title>Node15&#45;&gt;Node17</title>
<path fill="none" stroke="#191970" d="M267.875,-190.3906C234.2176,-179.8298 180.0101,-162.8208 142.8941,-151.1747"/>
<polygon fill="#191970" stroke="#191970" points="143.4991,-147.6963 132.9099,-148.0419 141.4034,-154.3753 143.4991,-147.6963"/>
</g>
<!-- Node18 -->
<g id="node19" class="node">
<title>Node18</title>
<polygon fill="#ffffff" stroke="#bfbfbf" points="183.5,-129 183.5,-148 293.5,-148 293.5,-129 183.5,-129"/>
<text text-anchor="middle" x="238.5" y="-136" font-family="Helvetica,sans-Serif" font-size="10.00" fill="#000000">AMReX_Extension.H</text>
</g>
<!-- Node15&#45;&gt;Node18 -->
<g id="edge21" class="edge">
<title>Node15&#45;&gt;Node18</title>
<path fill="none" stroke="#191970" d="M289.125,-190.3906C280.0201,-181.0581 266.0026,-166.6902 255.0243,-155.4374"/>
<polygon fill="#191970" stroke="#191970" points="257.4957,-152.9586 248.0072,-148.2449 252.4852,-157.8468 257.4957,-152.9586"/>
</g>
<!-- Node19&#45;&gt;Node1 -->
<g id="edge30" class="edge">
<title>Node19&#45;&gt;Node1</title>
<path fill="none" stroke="#191970" d="M1702.6155,-190.4581C1749.1302,-179.6632 1824.9408,-162.0694 1875.2673,-150.3899"/>
<polygon fill="#191970" stroke="#191970" points="1876.3382,-153.7344 1885.2881,-148.0643 1874.7557,-146.9156 1876.3382,-153.7344"/>
</g>
<!-- Node19&#45;&gt;Node2 -->
<g id="edge23" class="edge">
<title>Node19&#45;&gt;Node2</title>
<path fill="none" stroke="#191970" d="M1593.3208,-198.1007C1435.5936,-192.3214 1051.8736,-169.8809 958.5,-87 942.3884,-72.6989 937.7209,-47.4998 936.5464,-29.8349"/>
<polygon fill="#191970" stroke="#191970" points="940.0408,-29.6116 936.1944,-19.7397 933.0451,-29.8556 940.0408,-29.6116"/>
</g>
<!-- Node19&#45;&gt;Node4 -->
<g id="edge24" class="edge">
<title>Node19&#45;&gt;Node4</title>
<path fill="none" stroke="#191970" d="M1593.4758,-199.1205C1391.1455,-196.1634 802.1518,-184.9664 721.5,-154 701.1524,-146.1875 703.1243,-132.4842 683.5,-123 616.3109,-90.5282 566.2697,-145.1497 519.5,-87 506.6436,-71.0154 509.9127,-46.5398 514.5983,-29.4885"/>
<polygon fill="#191970" stroke="#191970" points="518.072,-30.1085 517.7267,-19.5192 511.3931,-28.0125 518.072,-30.1085"/>
</g>
<!-- Node19&#45;&gt;Node6 -->
<g id="edge43" class="edge">
<title>Node19&#45;&gt;Node6</title>
<path fill="none" stroke="#191970" d="M1658.7989,-190.3167C1650.49,-160.5303 1625.1966,-69.8556 1613.9688,-29.6053"/>
<polygon fill="#191970" stroke="#191970" points="1617.3175,-28.5835 1611.2593,-19.8917 1610.5749,-30.4644 1617.3175,-28.5835"/>
</g>
<!-- Node19&#45;&gt;Node10 -->
<g id="edge25" class="edge">
<title>Node19&#45;&gt;Node10</title>
<path fill="none" stroke="#191970" d="M1729.5179,-195.1172C1908.8923,-181.5402 2384.0931,-140.772 2428.5,-87 2437.2732,-76.3766 2437.9018,-66.0714 2428.5,-56 2409.1436,-35.2649 2030.8863,-19.4049 1852.3365,-13.042"/>
<polygon fill="#191970" stroke="#191970" points="1852.2855,-9.5381 1842.168,-12.6822 1852.0379,-16.5337 1852.2855,-9.5381"/>
</g>
<!-- Node19&#45;&gt;Node14 -->
<g id="edge42" class="edge">
<title>Node19&#45;&gt;Node14</title>
<path fill="none" stroke="#191970" d="M1593.1981,-198.3722C1401.9461,-193.5592 863.6641,-178.201 688.5,-154 681.6663,-153.0558 674.5042,-151.7483 667.5101,-150.2894"/>
<polygon fill="#191970" stroke="#191970" points="667.96,-146.8046 657.4409,-148.0685 666.4523,-153.6403 667.96,-146.8046"/>
</g>
<!-- Node20 -->
<g id="node21" class="node">
<title>Node20</title>
<g id="a_node21"><a xlink:href="_field_utils_8_h.html" target="_top" xlink:title="amr&#45;wind/core/FieldUtils.H">
<polygon fill="#ffffff" stroke="#000000" points="2286,-62 2286,-81 2419,-81 2419,-62 2286,-62"/>
<text text-anchor="middle" x="2352.5" y="-69" font-family="Helvetica,sans-Serif" font-size="10.00" fill="#000000">amr&#45;wind/core/FieldUtils.H</text>
</a>
</g>
</g>
<!-- Node19&#45;&gt;Node20 -->
<g id="edge26" class="edge">
<title>Node19&#45;&gt;Node20</title>
<path fill="none" stroke="#191970" d="M1729.7165,-192.2323C1796.6405,-184.2024 1901.4644,-170.5314 1991.5,-154 2105.0234,-133.156 2236.8675,-100.9722 2305.5017,-83.6056"/>
<polygon fill="#191970" stroke="#191970" points="2306.7297,-86.9049 2315.5609,-81.0517 2305.0071,-80.1202 2306.7297,-86.9049"/>
</g>
<!-- Node22 -->
<g id="node23" class="node">
<title>Node22</title>
<g id="a_node23"><a xlink:href="_int_field_8_h.html" target="_top" xlink:title="amr&#45;wind/core/IntField.H">
<polygon fill="#ffffff" stroke="#000000" points="1689.5,-129 1689.5,-148 1813.5,-148 1813.5,-129 1689.5,-129"/>
<text text-anchor="middle" x="1751.5" y="-136" font-family="Helvetica,sans-Serif" font-size="10.00" fill="#000000">amr&#45;wind/core/IntField.H</text>
</a>
</g>
</g>
<!-- Node19&#45;&gt;Node22 -->
<g id="edge31" class="edge">
<title>Node19&#45;&gt;Node22</title>
<path fill="none" stroke="#191970" d="M1675.5625,-190.3906C1689.8286,-180.6421 1712.135,-165.3994 1728.8872,-153.9521"/>
<polygon fill="#191970" stroke="#191970" points="1731.2545,-156.5736 1737.5362,-148.0419 1727.3051,-150.7941 1731.2545,-156.5736"/>
</g>
<!-- Node23 -->
<g id="node24" class="node">
<title>Node23</title>
<polygon fill="#ffffff" stroke="#bfbfbf" points="1789,-62 1789,-81 1896,-81 1896,-62 1789,-62"/>
<text text-anchor="middle" x="1842.5" y="-69" font-family="Helvetica,sans-Serif" font-size="10.00" fill="#000000">AMReX_iMultiFab.H</text>
</g>
<!-- Node19&#45;&gt;Node23 -->
<g id="edge44" class="edge">
<title>Node19&#45;&gt;Node23</title>
<path fill="none" stroke="#191970" d="M1716.1588,-190.465C1756.8112,-182.2908 1807.7004,-169.4109 1822.5,-154 1838.6378,-137.1957 1842.4713,-109.6853 1843.0431,-91.0995"/>
<polygon fill="#191970" stroke="#191970" points="1846.543,-91.1036 1843.0649,-81.0959 1839.543,-91.0882 1846.543,-91.1036"/>
</g>
<!-- Node24 -->
<g id="node25" class="node">
<title>Node24</title>
<g id="a_node25"><a xlink:href="_scratch_field_8_h.html" target="_top" xlink:title="amr&#45;wind/core/ScratchField.H">
<polygon fill="#ffffff" stroke="#000000" points="1440.5,-129 1440.5,-148 1586.5,-148 1586.5,-129 1440.5,-129"/>
<text text-anchor="middle" x="1513.5" y="-136" font-family="Helvetica,sans-Serif" font-size="10.00" fill="#000000">amr&#45;wind/core/ScratchField.H</text>
</a>
</g>
</g>
<!-- Node19&#45;&gt;Node24 -->
<g id="edge35" class="edge">
<title>Node19&#45;&gt;Node24</title>
<path fill="none" stroke="#191970" d="M1638.375,-190.3906C1613.5033,-180.0554 1573.7702,-163.5447 1545.8156,-151.9284"/>
<polygon fill="#191970" stroke="#191970" points="1547.0402,-148.6472 1536.4626,-148.0419 1544.354,-155.1113 1547.0402,-148.6472"/>
</g>
<!-- Node20&#45;&gt;Node6 -->
<g id="edge28" class="edge">
<title>Node20&#45;&gt;Node6</title>
<path fill="none" stroke="#191970" d="M2311.2634,-61.981C2300.0405,-59.6943 2287.8492,-57.4862 2276.5,-56 2011.8071,-21.3373 1939.842,-49.2016 1670.7613,-20.0281"/>
<polygon fill="#191970" stroke="#191970" points="1671.0174,-16.5353 1660.6945,-18.9202 1670.2515,-23.4932 1671.0174,-16.5353"/>
</g>
<!-- Node20&#45;&gt;Node10 -->
<g id="edge27" class="edge">
<title>Node20&#45;&gt;Node10</title>
<path fill="none" stroke="#191970" d="M2310.0404,-61.9641C2299.1504,-59.7599 2287.4262,-57.5961 2276.5,-56 2128.7937,-34.4236 1955.72,-21.4892 1852.2582,-15.0603"/>
<polygon fill="#191970" stroke="#191970" points="1852.3534,-11.5596 1842.1575,-14.4396 1851.924,-18.5464 1852.3534,-11.5596"/>
</g>
<!-- Node21 -->
<g id="node22" class="node">
<title>Node21</title>
<polygon fill="#ffffff" stroke="#bfbfbf" points="2294.5,-.5 2294.5,-19.5 2410.5,-19.5 2410.5,-.5 2294.5,-.5"/>
<text text-anchor="middle" x="2352.5" y="-7.5" font-family="Helvetica,sans-Serif" font-size="10.00" fill="#000000">AMReX_Interpolater.H</text>
</g>
<!-- Node20&#45;&gt;Node21 -->
<g id="edge29" class="edge">
<title>Node20&#45;&gt;Node21</title>
<path fill="none" stroke="#191970" d="M2352.5,-61.8906C2352.5,-53.3657 2352.5,-40.6392 2352.5,-29.9235"/>
<polygon fill="#191970" stroke="#191970" points="2356.0001,-29.7448 2352.5,-19.7449 2349.0001,-29.7449 2356.0001,-29.7448"/>
</g>
<!-- Node22&#45;&gt;Node2 -->
<g id="edge32" class="edge">
<title>Node22&#45;&gt;Node2</title>
<path fill="none" stroke="#191970" d="M1689.2593,-132.2499C1660.695,-129.3985 1626.3819,-125.997 1595.5,-123 1426.6482,-106.6134 1380.2474,-127.4691 1215.5,-87 1180.0735,-78.2977 1174.2953,-66.9569 1139.5,-56 1079.5411,-37.1192 1007.3353,-22.658 967.2116,-15.328"/>
<polygon fill="#191970" stroke="#191970" points="967.7172,-11.8628 957.2552,-13.5357 966.4769,-18.7521 967.7172,-11.8628"/>
</g>
<!-- Node22&#45;&gt;Node10 -->
<g id="edge33" class="edge">
<title>Node22&#45;&gt;Node10</title>
<path fill="none" stroke="#191970" d="M1752.1765,-128.8416C1753.6424,-107.9114 1757.1379,-58.004 1759.1009,-29.9762"/>
<polygon fill="#191970" stroke="#191970" points="1762.6084,-29.9906 1759.8157,-19.7705 1755.6255,-29.5015 1762.6084,-29.9906"/>
</g>
<!-- Node22&#45;&gt;Node23 -->
<g id="edge34" class="edge">
<title>Node22&#45;&gt;Node23</title>
<path fill="none" stroke="#191970" d="M1764.5381,-128.9005C1779.2693,-118.0544 1803.4733,-100.2339 1821.0092,-87.3229"/>
<polygon fill="#191970" stroke="#191970" points="1823.5085,-89.8291 1829.4861,-81.0817 1819.3582,-84.1922 1823.5085,-89.8291"/>
</g>
<!-- Node24&#45;&gt;Node2 -->
<g id="edge36" class="edge">
<title>Node24&#45;&gt;Node2</title>
<path fill="none" stroke="#191970" d="M1440.3984,-134.5431C1306.3628,-126.809 1031.4714,-108.5466 993.5,-87 970.3098,-73.8409 953.8113,-46.967 944.7176,-28.7158"/>
<polygon fill="#191970" stroke="#191970" points="947.8557,-27.1641 940.4319,-19.6051 941.5215,-30.1438 947.8557,-27.1641"/>
</g>
<!-- Node24&#45;&gt;Node6 -->
<g id="edge39" class="edge">
<title>Node24&#45;&gt;Node6</title>
<path fill="none" stroke="#191970" d="M1535.8162,-128.8961C1553.0343,-120.3505 1576.1053,-106.223 1589.5,-87 1601.2683,-70.1111 1605.7713,-46.688 1607.4812,-30.1222"/>
<polygon fill="#191970" stroke="#191970" points="1610.9892,-30.1546 1608.2738,-19.9137 1604.0102,-29.6127 1610.9892,-30.1546"/>
</g>
<!-- Node24&#45;&gt;Node10 -->
<g id="edge37" class="edge">
<title>Node24&#45;&gt;Node10</title>
<path fill="none" stroke="#191970" d="M1551.1256,-128.9167C1581.6787,-120.3007 1625.3122,-106.0671 1660.5,-87 1691.8816,-69.9953 1723.8152,-43.4548 1742.8923,-26.3988"/>
<polygon fill="#191970" stroke="#191970" points="1745.4252,-28.8264 1750.4734,-19.5116 1740.7182,-23.6452 1745.4252,-28.8264"/>
</g>
<!-- Node24&#45;&gt;Node11 -->
<g id="edge38" class="edge">
<title>Node24&#45;&gt;Node11</title>
<path fill="none" stroke="#191970" d="M1513.5,-128.9005C1513.5,-119.149 1513.5,-103.7597 1513.5,-91.3695"/>
<polygon fill="#191970" stroke="#191970" points="1517.0001,-91.0816 1513.5,-81.0817 1510.0001,-91.0817 1517.0001,-91.0816"/>
</g>
<!-- Node24&#45;&gt;Node12 -->
<g id="edge40" class="edge">
<title>Node24&#45;&gt;Node12</title>
<path fill="none" stroke="#191970" d="M1491.1838,-128.8961C1473.9657,-120.3505 1450.8947,-106.223 1437.5,-87 1425.7317,-70.1111 1421.2287,-46.688 1419.5188,-30.1222"/>
<polygon fill="#191970" stroke="#191970" points="1422.9898,-29.6127 1418.7262,-19.9137 1416.0108,-30.1546 1422.9898,-29.6127"/>
</g>
<!-- Node25 -->
<g id="node26" class="node">
<title>Node25</title>
<polygon fill="#ffffff" stroke="#bfbfbf" points="1002.5,-62 1002.5,-81 1130.5,-81 1130.5,-62 1002.5,-62"/>
<text text-anchor="middle" x="1066.5" y="-69" font-family="Helvetica,sans-Serif" font-size="10.00" fill="#000000">AMReX_PhysBCFunct.H</text>
</g>
<!-- Node24&#45;&gt;Node25 -->
<g id="edge41" class="edge">
<title>Node24&#45;&gt;Node25</title>
<path fill="none" stroke="#191970" d="M1440.4952,-129.5688C1365.9171,-120.1502 1246.8654,-104.2996 1144.5,-87 1137.2934,-85.7821 1129.7319,-84.4051 1122.2705,-82.9869"/>
<polygon fill="#191970" stroke="#191970" points="1122.6833,-79.5019 1112.2005,-81.0384 1121.3535,-86.3744 1122.6833,-79.5019"/>
</g>
<!-- Node26&#45;&gt;Node2 -->
<g id="edge46" class="edge">
<title>Node26&#45;&gt;Node2</title>
<path fill="none" stroke="#191970" d="M815.4444,-123.3554C832.0656,-106.622 859.8296,-78.9976 884.5,-56 895.2452,-45.9834 907.545,-35.0784 917.4838,-26.401"/>
<polygon fill="#191970" stroke="#191970" points="919.938,-28.9053 925.1912,-19.7044 915.3469,-23.6211 919.938,-28.9053"/>
</g>
<!-- Node26&#45;&gt;Node9 -->
<g id="edge61" class="edge">
<title>Node26&#45;&gt;Node9</title>
<path fill="none" stroke="#191970" d="M870.3594,-131.2578C952.1339,-122.426 1091.5271,-106.268 1210.5,-87 1217.8915,-85.8029 1225.652,-84.4174 1233.2933,-82.977"/>
<polygon fill="#191970" stroke="#191970" points="1234.0716,-86.3915 1243.229,-81.063 1232.7475,-79.5178 1234.0716,-86.3915"/>
</g>
<!-- Node26&#45;&gt;Node10 -->
<g id="edge60" class="edge">
<title>Node26&#45;&gt;Node10</title>
<path fill="none" stroke="#191970" d="M870.259,-137.1294C1036.8833,-133.3439 1454.2187,-120.6996 1589.5,-87 1596.8338,-85.1731 1683.5121,-45.4773 1730.5604,-23.8153"/>
<polygon fill="#191970" stroke="#191970" points="1732.0633,-26.9765 1739.6812,-19.6132 1729.1342,-20.6188 1732.0633,-26.9765"/>
</g>
<!-- Node27 -->
<g id="node28" class="node">
<title>Node27</title>
<g id="a_node28"><a xlink:href="_factory_8_h.html" target="_top" xlink:title="amr&#45;wind/core/Factory.H">
<polygon fill="#ffffff" stroke="#000000" points="330,-62 330,-81 455,-81 455,-62 330,-62"/>
<text text-anchor="middle" x="392.5" y="-69" font-family="Helvetica,sans-Serif" font-size="10.00" fill="#000000">amr&#45;wind/core/Factory.H</text>
</a>
</g>
</g>
<!-- Node26&#45;&gt;Node27 -->
<g id="edge47" class="edge">
<title>Node26&#45;&gt;Node27</title>
<path fill="none" stroke="#191970" d="M730.8259,-127.0584C655.3975,-114.6719 535.8641,-95.0426 460.9264,-82.7367"/>
<polygon fill="#191970" stroke="#191970" points="461.0926,-79.2172 450.6576,-81.0504 459.9582,-86.1247 461.0926,-79.2172"/>
</g>
<!-- Node31 -->
<g id="node32" class="node">
<title>Node31</title>
<g id="a_node32"><a xlink:href="_coll_mgr_8_h.html" target="_top" xlink:title="amr&#45;wind/core/CollMgr.H">
<polygon fill="#ffffff" stroke="#000000" points="550,-62 550,-81 675,-81 675,-62 550,-62"/>
<text text-anchor="middle" x="612.5" y="-69" font-family="Helvetica,sans-Serif" font-size="10.00" fill="#000000">amr&#45;wind/core/CollMgr.H</text>
</a>
</g>
</g>
<!-- Node26&#45;&gt;Node31 -->
<g id="edge53" class="edge">
<title>Node26&#45;&gt;Node31</title>
<path fill="none" stroke="#191970" d="M758.3091,-123.4639C725.3886,-111.7316 680.139,-95.6054 648.818,-84.4431"/>
<polygon fill="#191970" stroke="#191970" points="649.7662,-81.0655 639.1716,-81.0053 647.4163,-87.6593 649.7662,-81.0655"/>
</g>
<!-- Node32 -->
<g id="node33" class="node">
<title>Node32</title>
<g id="a_node33"><a xlink:href="_p_d_e_fields_8_h.html" target="_top" xlink:title="amr&#45;wind/equation_systems\l/PDEFields.H">
<polygon fill="#ffffff" stroke="#000000" points="693,-56.5 693,-86.5 832,-86.5 832,-56.5 693,-56.5"/>
<text text-anchor="start" x="701" y="-74.5" font-family="Helvetica,sans-Serif" font-size="10.00" fill="#000000">amr&#45;wind/equation_systems</text>
<text text-anchor="middle" x="762.5" y="-63.5" font-family="Helvetica,sans-Serif" font-size="10.00" fill="#000000">/PDEFields.H</text>
</a>
</g>
</g>
<!-- Node26&#45;&gt;Node32 -->
<g id="edge58" class="edge">
<title>Node26&#45;&gt;Node32</title>
<path fill="none" stroke="#191970" d="M791.8772,-123.2967C787.213,-115.0729 781.3453,-104.7272 776.0826,-95.4483"/>
<polygon fill="#191970" stroke="#191970" points="779.0665,-93.6148 771.0887,-86.6432 772.9777,-97.0683 779.0665,-93.6148"/>
</g>
<!-- Node27&#45;&gt;Node3 -->
<g id="edge48" class="edge">
<title>Node27&#45;&gt;Node3</title>
<path fill="none" stroke="#191970" d="M426.875,-61.8906C467.6252,-50.4991 535.2129,-31.6053 576.6135,-20.0319"/>
<polygon fill="#191970" stroke="#191970" points="577.6019,-23.3899 586.2904,-17.3268 575.7173,-16.6483 577.6019,-23.3899"/>
</g>
<!-- Node27&#45;&gt;Node4 -->
<g id="edge49" class="edge">
<title>Node27&#45;&gt;Node4</title>
<path fill="none" stroke="#191970" d="M412.6563,-61.8906C434.051,-51.6908 468.062,-35.4763 492.3702,-23.8875"/>
<polygon fill="#191970" stroke="#191970" points="493.9648,-27.0047 501.4853,-19.5419 490.9524,-20.686 493.9648,-27.0047"/>
</g>
<!-- Node28 -->
<g id="node29" class="node">
<title>Node28</title>
<polygon fill="#ffffff" stroke="#bfbfbf" points="221.5,-.5 221.5,-19.5 275.5,-19.5 275.5,-.5 221.5,-.5"/>
<text text-anchor="middle" x="248.5" y="-7.5" font-family="Helvetica,sans-Serif" font-size="10.00" fill="#000000">iostream</text>
</g>
<!-- Node27&#45;&gt;Node28 -->
<g id="edge50" class="edge">
<title>Node27&#45;&gt;Node28</title>
<path fill="none" stroke="#191970" d="M370,-61.8906C345.9062,-51.6005 307.4787,-35.1888 280.2992,-23.5809"/>
<polygon fill="#191970" stroke="#191970" points="281.4131,-20.2508 270.842,-19.5419 278.6637,-26.6883 281.4131,-20.2508"/>
</g>
<!-- Node29 -->
<g id="node30" class="node">
<title>Node29</title>
<polygon fill="#ffffff" stroke="#bfbfbf" points="294,-.5 294,-19.5 381,-19.5 381,-.5 294,-.5"/>
<text text-anchor="middle" x="337.5" y="-7.5" font-family="Helvetica,sans-Serif" font-size="10.00" fill="#000000">AMReX_Print.H</text>
</g>
<!-- Node27&#45;&gt;Node29 -->
<g id="edge51" class="edge">
<title>Node27&#45;&gt;Node29</title>
<path fill="none" stroke="#191970" d="M383.9063,-61.8906C375.6403,-52.6478 362.9574,-38.466 352.9383,-27.2628"/>
<polygon fill="#191970" stroke="#191970" points="355.49,-24.8657 346.2149,-19.7449 350.2722,-29.5321 355.49,-24.8657"/>
</g>
<!-- Node30 -->
<g id="node31" class="node">
<title>Node30</title>
<polygon fill="#ffffff" stroke="#bfbfbf" points="399.5,-.5 399.5,-19.5 461.5,-19.5 461.5,-.5 399.5,-.5"/>
<text text-anchor="middle" x="430.5" y="-7.5" font-family="Helvetica,sans-Serif" font-size="10.00" fill="#000000">AMReX.H</text>
</g>
<!-- Node27&#45;&gt;Node30 -->
<g id="edge52" class="edge">
<title>Node27&#45;&gt;Node30</title>
<path fill="none" stroke="#191970" d="M398.4375,-61.8906C403.9267,-53.0068 412.2353,-39.5601 419.019,-28.5811"/>
<polygon fill="#191970" stroke="#191970" points="422.1998,-30.0917 424.4788,-19.7449 416.2449,-26.4122 422.1998,-30.0917"/>
</g>
<!-- Node31&#45;&gt;Node2 -->
<g id="edge54" class="edge">
<title>Node31&#45;&gt;Node2</title>
<path fill="none" stroke="#191970" d="M654.8736,-61.9946C664.2853,-59.9545 674.2212,-57.8558 683.5,-56 763.473,-40.0054 858.144,-23.4137 905.8107,-15.2221"/>
<polygon fill="#191970" stroke="#191970" points="906.5274,-18.6504 915.7925,-13.5115 905.345,-11.7509 906.5274,-18.6504"/>
</g>
<!-- Node31&#45;&gt;Node3 -->
<g id="edge55" class="edge">
<title>Node31&#45;&gt;Node3</title>
<path fill="none" stroke="#191970" d="M612.5,-61.8906C612.5,-53.3657 612.5,-40.6392 612.5,-29.9235"/>
<polygon fill="#191970" stroke="#191970" points="616.0001,-29.7448 612.5,-19.7449 609.0001,-29.7449 616.0001,-29.7448"/>
</g>
<!-- Node31&#45;&gt;Node4 -->
<g id="edge56" class="edge">
<title>Node31&#45;&gt;Node4</title>
<path fill="none" stroke="#191970" d="M598.2813,-61.8906C583.8566,-52.1421 561.3024,-36.8994 544.364,-25.4521"/>
<polygon fill="#191970" stroke="#191970" points="545.8641,-22.2415 535.6189,-19.5419 541.9444,-28.0412 545.8641,-22.2415"/>
</g>
<!-- Node31&#45;&gt;Node12 -->
<g id="edge57" class="edge">
<title>Node31&#45;&gt;Node12</title>
<path fill="none" stroke="#191970" d="M650.9988,-61.9766C661.4834,-59.6899 672.8788,-57.4829 683.5,-56 934.1371,-21.0067 1236.591,-12.6265 1360.8988,-10.6252"/>
<polygon fill="#191970" stroke="#191970" points="1361.01,-14.124 1370.9551,-10.4711 1360.9026,-7.1248 1361.01,-14.124"/>
</g>
<!-- Node33 -->
<g id="node34" class="node">
<title>Node33</title>
<polygon fill="#ffffff" stroke="#bfbfbf" points="740,-.5 740,-19.5 785,-19.5 785,-.5 740,-.5"/>
<text text-anchor="middle" x="762.5" y="-7.5" font-family="Helvetica,sans-Serif" font-size="10.00" fill="#000000">iosfwd</text>
</g>
<!-- Node32&#45;&gt;Node33 -->
<g id="edge59" class="edge">
<title>Node32&#45;&gt;Node33</title>
<path fill="none" stroke="#191970" d="M762.5,-56.2977C762.5,-48.3834 762.5,-38.6043 762.5,-30.0759"/>
<polygon fill="#191970" stroke="#191970" points="766.0001,-29.8469 762.5,-19.8469 759.0001,-29.847 766.0001,-29.8469"/>
</g>
<!-- Node34&#45;&gt;Node6 -->
<g id="edge65" class="edge">
<title>Node34&#45;&gt;Node6</title>
<path fill="none" stroke="#191970" d="M526.095,-128.9845C536.8749,-126.6978 548.5884,-124.4888 559.5,-123 815.4028,-88.0839 887.7155,-144.5323 1139.5,-87 1175.0631,-78.8739 1180.1717,-65.0926 1215.5,-56 1276.4786,-40.3057 1451.6515,-23.5002 1546.2015,-15.2228"/>
<polygon fill="#191970" stroke="#191970" points="1546.5473,-18.7061 1556.2063,-14.3525 1545.9406,-11.7324 1546.5473,-18.7061"/>
</g>
<!-- Node34&#45;&gt;Node27 -->
<g id="edge63" class="edge">
<title>Node34&#45;&gt;Node27</title>
<path fill="none" stroke="#191970" d="M473.0321,-128.9005C457.6756,-117.9549 432.3537,-99.9064 414.2024,-86.9688"/>
<polygon fill="#191970" stroke="#191970" points="416.1176,-84.0358 405.9429,-81.0817 412.0546,-89.736 416.1176,-84.0358"/>
</g>
<!-- Node34&#45;&gt;Node31 -->
<g id="edge64" class="edge">
<title>Node34&#45;&gt;Node31</title>
<path fill="none" stroke="#191970" d="M504.5527,-128.9005C525.6984,-117.6564 560.9404,-98.9166 585.3782,-85.9219"/>
<polygon fill="#191970" stroke="#191970" points="587.2947,-88.867 594.4808,-81.0817 584.0082,-82.6864 587.2947,-88.867"/>
</g>
<!-- Node35 -->
<g id="node36" class="node">
<title>Node35</title>
<polygon fill="#ffffff" stroke="#bfbfbf" points="201.5,-62 201.5,-81 311.5,-81 311.5,-62 201.5,-62"/>
<text text-anchor="middle" x="256.5" y="-69" font-family="Helvetica,sans-Serif" font-size="10.00" fill="#000000">AMReX_Geometry.H</text>
</g>
<!-- Node34&#45;&gt;Node35 -->
<g id="edge66" class="edge">
<title>Node34&#45;&gt;Node35</title>
<path fill="none" stroke="#191970" d="M453.5466,-128.9005C412.8979,-117.0594 343.7127,-96.9054 299.0758,-83.9025"/>
<polygon fill="#191970" stroke="#191970" points="299.9721,-80.5182 289.3923,-81.0817 298.0143,-87.2389 299.9721,-80.5182"/>
</g>
<!-- Node36&#45;&gt;Node2 -->
<g id="edge69" class="edge">
<title>Node36&#45;&gt;Node2</title>
<path fill="none" stroke="#191970" d="M176.1268,-58.5772C181.6424,-57.5976 187.166,-56.7145 192.5,-56 457.7213,-20.4752 526.4721,-37.3337 793.5,-20 832.0375,-17.4984 876.3973,-14.3553 905.3613,-12.2675"/>
<polygon fill="#191970" stroke="#191970" points="905.9424,-15.7347 915.664,-11.5225 905.4376,-8.7529 905.9424,-15.7347"/>
</g>
<!-- Node36&#45;&gt;Node4 -->
<g id="edge70" class="edge">
<title>Node36&#45;&gt;Node4</title>
<path fill="none" stroke="#191970" d="M176.1856,-58.9653C181.6891,-57.9058 187.1938,-56.8979 192.5,-56 312.2219,-35.7413 345.8351,-39.7703 469.9068,-20.0012"/>
<polygon fill="#191970" stroke="#191970" points="470.4761,-23.4547 479.7911,-18.4068 469.3613,-16.5441 470.4761,-23.4547"/>
</g>
<!-- Node37 -->
<g id="node38" class="node">
<title>Node37</title>
<polygon fill="#ffffff" stroke="#bfbfbf" points="89.5,-.5 89.5,-19.5 133.5,-19.5 133.5,-.5 89.5,-.5"/>
<text text-anchor="middle" x="111.5" y="-7.5" font-family="Helvetica,sans-Serif" font-size="10.00" fill="#000000">vector</text>
</g>
<!-- Node36&#45;&gt;Node37 -->
<g id="edge71" class="edge">
<title>Node36&#45;&gt;Node37</title>
<path fill="none" stroke="#191970" d="M116.7697,-56.2977C115.8587,-48.2945 114.7307,-38.3843 113.7524,-29.7889"/>
<polygon fill="#191970" stroke="#191970" points="117.2293,-29.3869 112.6208,-19.8469 110.2742,-30.1786 117.2293,-29.3869"/>
</g>
<!-- Node38 -->
<g id="node39" class="node">
<title>Node38</title>
<polygon fill="#ffffff" stroke="#bfbfbf" points="151.5,-.5 151.5,-19.5 203.5,-19.5 203.5,-.5 151.5,-.5"/>
<text text-anchor="middle" x="177.5" y="-7.5" font-family="Helvetica,sans-Serif" font-size="10.00" fill="#000000">netcdf.h</text>
</g>
<!-- Node36&#45;&gt;Node38 -->
<g id="edge72" class="edge">
<title>Node36&#45;&gt;Node38</title>
<path fill="none" stroke="#191970" d="M133.0843,-56.2977C141.53,-47.4941 152.1892,-36.3833 160.9484,-27.2529"/>
<polygon fill="#191970" stroke="#191970" points="163.6561,-29.4862 168.0534,-19.8469 158.6048,-24.6402 163.6561,-29.4862"/>
</g>
<!-- Node39 -->
<g id="node40" class="node">
<title>Node39</title>
<polygon fill="#ffffff" stroke="#bfbfbf" points="0,-.5 0,-19.5 71,-19.5 71,-.5 0,-.5"/>
<text text-anchor="middle" x="35.5" y="-7.5" font-family="Helvetica,sans-Serif" font-size="10.00" fill="#000000">netcdf_par.h</text>
</g>
<!-- Node36&#45;&gt;Node39 -->
<g id="edge73" class="edge">
<title>Node36&#45;&gt;Node39</title>
<path fill="none" stroke="#191970" d="M97.9831,-56.2977C85.5018,-47.0495 69.5841,-35.2551 56.9386,-25.8853"/>
<polygon fill="#191970" stroke="#191970" points="58.9078,-22.9882 48.7894,-19.8469 54.7404,-28.6126 58.9078,-22.9882"/>
</g>
</g>
</svg>
        <g id="navigator" transform="translate(0 0)" fill="#404254">
                <rect fill="#f2f5e9" fill-opacity="0.5" stroke="#606060" stroke-width=".5" x="0" y="0" width="60" height="60"/>
                <use id="zoomplus" xlink:href="#zoomPlus" x="17" y="9" onmousedown="handleZoom(evt,'in')"/>
                <use id="zoomminus" xlink:href="#zoomMin" x="42" y="9" onmousedown="handleZoom(evt,'out')"/>
                <use id="reset" xlink:href="#resetDef" x="30" y="36" onmousedown="handleReset()"/>
                <g id="arrowUp" xlink:href="#dirArrow" transform="translate(30 24)" onmousedown="handlePan(0,-1)">
                  <use xlink:href="#rim" fill="#404040">
                        <set attributeName="fill" to="#808080" begin="arrowUp.mouseover" end="arrowUp.mouseout"/>
                  </use>
                  <path fill="none" stroke="white" stroke-width="1.5" d="M0,-3.0v7 M-2.5,-0.5L0,-3.0L2.5,-0.5"/>
                </g>
                <g id="arrowRight" xlink:href="#dirArrow" transform="rotate(90) translate(36 -43)" onmousedown="handlePan(1,0)">
                  <use xlink:href="#rim" fill="#404040">
                        <set attributeName="fill" to="#808080" begin="arrowRight.mouseover" end="arrowRight.mouseout"/>
                  </use>
                  <path fill="none" stroke="white" stroke-width="1.5" d="M0,-3.0v7 M-2.5,-0.5L0,-3.0L2.5,-0.5"/>
                </g>
                <g id="arrowDown" xlink:href="#dirArrow" transform="rotate(180) translate(-30 -48)" onmousedown="handlePan(0,1)">
                  <use xlink:href="#rim" fill="#404040">
                        <set attributeName="fill" to="#808080" begin="arrowDown.mouseover" end="arrowDown.mouseout"/>
                  </use>
                  <path fill="none" stroke="white" stroke-width="1.5" d="M0,-3.0v7 M-2.5,-0.5L0,-3.0L2.5,-0.5"/>
                </g>
                <g id="arrowLeft" xlink:href="#dirArrow" transform="rotate(270) translate(-36 17)" onmousedown="handlePan(-1,0)">
                  <use xlink:href="#rim" fill="#404040">
                        <set attributeName="fill" to="#808080" begin="arrowLeft.mouseover" end="arrowLeft.mouseout"/>
                  </use>
                  <path fill="none" stroke="white" stroke-width="1.5" d="M0,-3.0v7 M-2.5,-0.5L0,-3.0L2.5,-0.5"/>
                </g>
        </g>
        <svg viewBox="0 0 15 15" width="100%" height="30px" preserveAspectRatio="xMaxYMin meet">
         <g id="arrow_out" transform="scale(0.3 0.3)">
          <a xlink:href="_a_b_l_boundary_plane_8_h__incl_org.svg" target="_base">
           <rect id="button" ry="5" rx="5" y="6" x="6" height="38" width="38"
                fill="#f2f5e9" fill-opacity="0.5" stroke="#606060" stroke-width="1.0"/>
           <path id="arrow"
             d="M 11.500037,31.436501 C 11.940474,20.09759 22.043105,11.32322 32.158766,21.979434 L 37.068811,17.246167 C 37.068811,17.246167 37.088388,32 37.088388,32 L 22.160133,31.978069 C 22.160133,31.978069 26.997745,27.140456 26.997745,27.140456 C 18.528582,18.264221 13.291696,25.230495 11.500037,31.436501 z"
             style="fill:#404040;"/>
          </a>
         </g>
        </svg>
</svg>
