<?xml version="1.0" encoding="UTF-8" standalone="no"?>
<!DOCTYPE svg PUBLIC "-//W3C//DTD SVG 1.1//EN"
 "http://www.w3.org/Graphics/SVG/1.1/DTD/svg11.dtd">
<!-- Generated by graphviz version 2.40.1 (20161225.0304)
 -->
<!-- Title: ABLFieldInit.H Pages: 1 -->
<svg width="1172pt" height="196pt"
 viewBox="0.00 0.00 1172.39 196.00" xmlns="http://www.w3.org/2000/svg" xmlns:xlink="http://www.w3.org/1999/xlink">
<g id="graph0" class="graph" transform="scale(1 1) rotate(0) translate(4 192)">
<title>ABLFieldInit.H</title>
<polygon fill="#ffffff" stroke="transparent" points="-4,4 -4,-192 1168.3924,-192 1168.3924,4 -4,4"/>
<!-- Node0 -->
<g id="node1" class="node">
<title>Node0</title>
<polygon fill="#bfbfbf" stroke="#000000" points="678.8924,-168.5 678.8924,-187.5 758.8924,-187.5 758.8924,-168.5 678.8924,-168.5"/>
<text text-anchor="middle" x="718.8924" y="-175.5" font-family="Helvetica,sans-Serif" font-size="10.00" fill="#000000">ABLFieldInit.H</text>
</g>
<!-- Node1 -->
<g id="node2" class="node">
<title>Node1</title>
<g id="a_node2"><a xlink:href="_field_8_h.html" target="_top" xlink:title="amr&#45;wind/core/Field.H">
<polygon fill="#ffffff" stroke="#000000" points="449.3924,-112.5 449.3924,-131.5 562.3924,-131.5 562.3924,-112.5 449.3924,-112.5"/>
<text text-anchor="middle" x="505.8924" y="-119.5" font-family="Helvetica,sans-Serif" font-size="10.00" fill="#000000">amr&#45;wind/core/Field.H</text>
</a>
</g>
</g>
<!-- Node0&#45;&gt;Node1 -->
<g id="edge1" class="edge">
<title>Node0&#45;&gt;Node1</title>
<path fill="none" stroke="#191970" d="M682.2764,-168.3733C646.2445,-158.9001 591.1047,-144.4032 552.0811,-134.1435"/>
<polygon fill="#191970" stroke="#191970" points="552.5919,-130.6589 542.0306,-131.5011 550.812,-137.4289 552.5919,-130.6589"/>
</g>
<!-- Node8 -->
<g id="node9" class="node">
<title>Node8</title>
<polygon fill="#ffffff" stroke="#bfbfbf" points="791.3924,-56.5 791.3924,-75.5 876.3924,-75.5 876.3924,-56.5 791.3924,-56.5"/>
<text text-anchor="middle" x="833.8924" y="-63.5" font-family="Helvetica,sans-Serif" font-size="10.00" fill="#000000">AMReX_Gpu.H</text>
</g>
<!-- Node0&#45;&gt;Node8 -->
<g id="edge22" class="edge">
<title>Node0&#45;&gt;Node8</title>
<path fill="none" stroke="#191970" d="M678.6203,-169.6332C638.7726,-159.5286 586.8234,-140.2878 609.8924,-112 611.2637,-110.3185 715.3094,-89.4648 781.0996,-76.4198"/>
<polygon fill="#191970" stroke="#191970" points="782.1793,-79.774 791.3085,-74.3974 780.8189,-72.9075 782.1793,-79.774"/>
</g>
<!-- Node12 -->
<g id="node13" class="node">
<title>Node12</title>
<polygon fill="#ffffff" stroke="#bfbfbf" points="86.3924,-.5 86.3924,-19.5 181.3924,-19.5 181.3924,-.5 86.3924,-.5"/>
<text text-anchor="middle" x="133.8924" y="-7.5" font-family="Helvetica,sans-Serif" font-size="10.00" fill="#000000">AMReX_Vector.H</text>
</g>
<!-- Node0&#45;&gt;Node12 -->
<g id="edge21" class="edge">
<title>Node0&#45;&gt;Node12</title>
<path fill="none" stroke="#191970" d="M678.4434,-175.2541C534.2179,-165.0585 51.3704,-127.3039 6.8924,-76 -17.9248,-47.3742 31.8684,-29.435 76.2019,-19.6071"/>
<polygon fill="#191970" stroke="#191970" points="77.0687,-23.0014 86.1325,-17.5153 75.6258,-16.1517 77.0687,-23.0014"/>
</g>
<!-- Node13 -->
<g id="node14" class="node">
<title>Node13</title>
<polygon fill="#ffffff" stroke="#bfbfbf" points="618.8924,-112.5 618.8924,-131.5 708.8924,-131.5 708.8924,-112.5 618.8924,-112.5"/>
<text text-anchor="middle" x="663.8924" y="-119.5" font-family="Helvetica,sans-Serif" font-size="10.00" fill="#000000">AMReX_Array.H</text>
</g>
<!-- Node0&#45;&gt;Node13 -->
<g id="edge16" class="edge">
<title>Node0&#45;&gt;Node13</title>
<path fill="none" stroke="#191970" d="M709.3122,-168.2455C701.3467,-160.1352 689.8284,-148.4075 680.3845,-138.7919"/>
<polygon fill="#191970" stroke="#191970" points="682.8671,-136.3247 673.3629,-131.6427 677.873,-141.2297 682.8671,-136.3247"/>
</g>
<!-- Node14 -->
<g id="node15" class="node">
<title>Node14</title>
<polygon fill="#ffffff" stroke="#bfbfbf" points="727.3924,-112.5 727.3924,-131.5 822.3924,-131.5 822.3924,-112.5 727.3924,-112.5"/>
<text text-anchor="middle" x="774.8924" y="-119.5" font-family="Helvetica,sans-Serif" font-size="10.00" fill="#000000">AMReX_Array4.H</text>
</g>
<!-- Node0&#45;&gt;Node14 -->
<g id="edge17" class="edge">
<title>Node0&#45;&gt;Node14</title>
<path fill="none" stroke="#191970" d="M728.6469,-168.2455C736.7572,-160.1352 748.4849,-148.4075 758.1005,-138.7919"/>
<polygon fill="#191970" stroke="#191970" points="760.6536,-141.1887 765.2498,-131.6427 755.7038,-136.2389 760.6536,-141.1887"/>
</g>
<!-- Node15 -->
<g id="node16" class="node">
<title>Node15</title>
<polygon fill="#ffffff" stroke="#bfbfbf" points="840.8924,-112.5 840.8924,-131.5 924.8924,-131.5 924.8924,-112.5 840.8924,-112.5"/>
<text text-anchor="middle" x="882.8924" y="-119.5" font-family="Helvetica,sans-Serif" font-size="10.00" fill="#000000">AMReX_Box.H</text>
</g>
<!-- Node0&#45;&gt;Node15 -->
<g id="edge18" class="edge">
<title>Node0&#45;&gt;Node15</title>
<path fill="none" stroke="#191970" d="M747.085,-168.3733C774.2377,-159.1016 815.4831,-145.0178 845.3949,-134.804"/>
<polygon fill="#191970" stroke="#191970" points="846.7352,-138.0449 855.0677,-131.5011 844.4732,-131.4204 846.7352,-138.0449"/>
</g>
<!-- Node16 -->
<g id="node17" class="node">
<title>Node16</title>
<polygon fill="#ffffff" stroke="#bfbfbf" points="942.8924,-112.5 942.8924,-131.5 1052.8924,-131.5 1052.8924,-112.5 942.8924,-112.5"/>
<text text-anchor="middle" x="997.8924" y="-119.5" font-family="Helvetica,sans-Serif" font-size="10.00" fill="#000000">AMReX_Geometry.H</text>
</g>
<!-- Node0&#45;&gt;Node16 -->
<g id="edge19" class="edge">
<title>Node0&#45;&gt;Node16</title>
<path fill="none" stroke="#191970" d="M759.1635,-169.9169C806.656,-160.3844 885.9627,-144.4662 940.0282,-133.6143"/>
<polygon fill="#191970" stroke="#191970" points="941.0361,-136.9819 950.1518,-131.5824 939.6585,-130.1188 941.0361,-136.9819"/>
</g>
<!-- Node17 -->
<g id="node18" class="node">
<title>Node17</title>
<polygon fill="#ffffff" stroke="#bfbfbf" points="1071.3924,-112.5 1071.3924,-131.5 1164.3924,-131.5 1164.3924,-112.5 1071.3924,-112.5"/>
<text text-anchor="middle" x="1117.8924" y="-119.5" font-family="Helvetica,sans-Serif" font-size="10.00" fill="#000000">AMReX_REAL.H</text>
</g>
<!-- Node0&#45;&gt;Node17 -->
<g id="edge20" class="edge">
<title>Node0&#45;&gt;Node17</title>
<path fill="none" stroke="#191970" d="M759.1067,-173.1811C821.4423,-165.5858 945.3901,-149.9843 1061.0746,-132.0721"/>
<polygon fill="#191970" stroke="#191970" points="1061.8248,-135.4976 1071.167,-130.5002 1060.7474,-128.581 1061.8248,-135.4976"/>
</g>
<!-- Node2 -->
<g id="node3" class="node">
<title>Node2</title>
<polygon fill="#ffffff" stroke="#bfbfbf" points="344.3924,-.5 344.3924,-19.5 385.3924,-19.5 385.3924,-.5 344.3924,-.5"/>
<text text-anchor="middle" x="364.8924" y="-7.5" font-family="Helvetica,sans-Serif" font-size="10.00" fill="#000000">string</text>
</g>
<!-- Node1&#45;&gt;Node2 -->
<g id="edge2" class="edge">
<title>Node1&#45;&gt;Node2</title>
<path fill="none" stroke="#191970" d="M449.2571,-112.6156C425.7964,-106.0262 400.1022,-94.8636 382.8924,-76 371.5232,-63.5382 367.2288,-44.5885 365.6585,-30.186"/>
<polygon fill="#191970" stroke="#191970" points="369.1206,-29.539 364.9001,-19.8211 362.1393,-30.0499 369.1206,-29.539"/>
</g>
<!-- Node3 -->
<g id="node4" class="node">
<title>Node3</title>
<polygon fill="#ffffff" stroke="#bfbfbf" points="619.8924,-56.5 619.8924,-75.5 671.8924,-75.5 671.8924,-56.5 619.8924,-56.5"/>
<text text-anchor="middle" x="645.8924" y="-63.5" font-family="Helvetica,sans-Serif" font-size="10.00" fill="#000000">memory</text>
</g>
<!-- Node1&#45;&gt;Node3 -->
<g id="edge3" class="edge">
<title>Node1&#45;&gt;Node3</title>
<path fill="none" stroke="#191970" d="M529.9593,-112.3733C552.7353,-103.2629 587.1268,-89.5062 612.5415,-79.3404"/>
<polygon fill="#191970" stroke="#191970" points="614.1548,-82.4648 622.1396,-75.5011 611.555,-75.9654 614.1548,-82.4648"/>
</g>
<!-- Node4 -->
<g id="node5" class="node">
<title>Node4</title>
<polygon fill="#ffffff" stroke="#bfbfbf" points="690.3924,-56.5 690.3924,-75.5 773.3924,-75.5 773.3924,-56.5 690.3924,-56.5"/>
<text text-anchor="middle" x="731.8924" y="-63.5" font-family="Helvetica,sans-Serif" font-size="10.00" fill="#000000">unordered_map</text>
</g>
<!-- Node1&#45;&gt;Node4 -->
<g id="edge4" class="edge">
<title>Node1&#45;&gt;Node4</title>
<path fill="none" stroke="#191970" d="M544.4864,-112.4369C582.9208,-102.9133 642.0285,-88.2672 683.5635,-77.9753"/>
<polygon fill="#191970" stroke="#191970" points="684.593,-81.3261 693.4576,-75.5237 682.9093,-74.5316 684.593,-81.3261"/>
</g>
<!-- Node5 -->
<g id="node6" class="node">
<title>Node5</title>
<polygon fill="#ffffff" stroke="#bfbfbf" points="15.8924,-56.5 15.8924,-75.5 71.8924,-75.5 71.8924,-56.5 15.8924,-56.5"/>
<text text-anchor="middle" x="43.8924" y="-63.5" font-family="Helvetica,sans-Serif" font-size="10.00" fill="#000000">algorithm</text>
</g>
<!-- Node1&#45;&gt;Node5 -->
<g id="edge5" class="edge">
<title>Node1&#45;&gt;Node5</title>
<path fill="none" stroke="#191970" d="M449.1081,-118.6825C369.2156,-113.3921 219.0116,-101.1688 82.3058,-76.0149"/>
<polygon fill="#191970" stroke="#191970" points="82.5421,-72.4985 72.0693,-74.102 81.2563,-79.3794 82.5421,-72.4985"/>
</g>
<!-- Node6 -->
<g id="node7" class="node">
<title>Node6</title>
<polygon fill="#ffffff" stroke="#bfbfbf" points="405.8924,-.5 405.8924,-19.5 509.8924,-19.5 509.8924,-.5 405.8924,-.5"/>
<text text-anchor="middle" x="457.8924" y="-7.5" font-family="Helvetica,sans-Serif" font-size="10.00" fill="#000000">AMReX_MultiFab.H</text>
</g>
<!-- Node1&#45;&gt;Node6 -->
<g id="edge6" class="edge">
<title>Node1&#45;&gt;Node6</title>
<path fill="none" stroke="#191970" d="M515.8035,-112.3051C527.98,-99.1691 545.7637,-75.158 534.8924,-56 526.6339,-41.4463 511.7408,-31.0054 497.2384,-23.7891"/>
<polygon fill="#191970" stroke="#191970" points="498.389,-20.4671 487.8383,-19.5017 495.4842,-26.8359 498.389,-20.4671"/>
</g>
<!-- Node7 -->
<g id="node8" class="node">
<title>Node7</title>
<polygon fill="#ffffff" stroke="#bfbfbf" points="90.3924,-56.5 90.3924,-75.5 189.3924,-75.5 189.3924,-56.5 90.3924,-56.5"/>
<text text-anchor="middle" x="139.8924" y="-63.5" font-family="Helvetica,sans-Serif" font-size="10.00" fill="#000000">AMReX_BCRec.H</text>
</g>
<!-- Node1&#45;&gt;Node7 -->
<g id="edge7" class="edge">
<title>Node1&#45;&gt;Node7</title>
<path fill="none" stroke="#191970" d="M449.2596,-113.8461C389.7249,-105.1996 293.0609,-90.9498 199.3876,-76.0549"/>
<polygon fill="#191970" stroke="#191970" points="199.882,-72.5896 189.4556,-74.4714 198.7797,-79.5023 199.882,-72.5896"/>
</g>
<!-- Node1&#45;&gt;Node8 -->
<g id="edge8" class="edge">
<title>Node1&#45;&gt;Node8</title>
<path fill="none" stroke="#191970" d="M562.4756,-113.097C616.3273,-104.512 699.8979,-90.9007 781.4056,-76.2345"/>
<polygon fill="#191970" stroke="#191970" points="782.1147,-79.6631 791.3332,-74.4409 780.8702,-72.7746 782.1147,-79.6631"/>
</g>
<!-- Node9 -->
<g id="node10" class="node">
<title>Node9</title>
<g id="a_node10"><a xlink:href="incflo__enums_8_h.html" target="_top" xlink:title="amr&#45;wind/incflo_enums.H">
<polygon fill="#ffffff" stroke="#000000" points="207.8924,-56.5 207.8924,-75.5 335.8924,-75.5 335.8924,-56.5 207.8924,-56.5"/>
<text text-anchor="middle" x="271.8924" y="-63.5" font-family="Helvetica,sans-Serif" font-size="10.00" fill="#000000">amr&#45;wind/incflo_enums.H</text>
</a>
</g>
</g>
<!-- Node1&#45;&gt;Node9 -->
<g id="edge9" class="edge">
<title>Node1&#45;&gt;Node9</title>
<path fill="none" stroke="#191970" d="M465.9323,-112.4369C426.0533,-102.8932 364.6786,-88.2052 321.6597,-77.9101"/>
<polygon fill="#191970" stroke="#191970" points="322.2278,-74.4473 311.6878,-75.5237 320.5985,-81.2551 322.2278,-74.4473"/>
</g>
<!-- Node10 -->
<g id="node11" class="node">
<title>Node10</title>
<g id="a_node11"><a xlink:href="_field_desc_types_8_h.html" target="_top" xlink:title="amr&#45;wind/core/FieldDescTypes.H">
<polygon fill="#ffffff" stroke="#000000" points="528.3924,-.5 528.3924,-19.5 691.3924,-19.5 691.3924,-.5 528.3924,-.5"/>
<text text-anchor="middle" x="609.8924" y="-7.5" font-family="Helvetica,sans-Serif" font-size="10.00" fill="#000000">amr&#45;wind/core/FieldDescTypes.H</text>
</a>
</g>
</g>
<!-- Node1&#45;&gt;Node10 -->
<g id="edge10" class="edge">
<title>Node1&#45;&gt;Node10</title>
<path fill="none" stroke="#191970" d="M515.4066,-112.1982C524.3679,-102.9319 538.1347,-88.6085 549.8924,-76 565.1104,-59.6809 582.2061,-40.8228 594.2444,-27.454"/>
<polygon fill="#191970" stroke="#191970" points="596.9423,-29.6881 601.0244,-19.9112 591.7363,-25.0086 596.9423,-29.6881"/>
</g>
<!-- Node11 -->
<g id="node12" class="node">
<title>Node11</title>
<g id="a_node12"><a xlink:href="_view_field_8_h.html" target="_top" xlink:title="amr&#45;wind/core/ViewField.H">
<polygon fill="#ffffff" stroke="#000000" points="391.8924,-56.5 391.8924,-75.5 525.8924,-75.5 525.8924,-56.5 391.8924,-56.5"/>
<text text-anchor="middle" x="458.8924" y="-63.5" font-family="Helvetica,sans-Serif" font-size="10.00" fill="#000000">amr&#45;wind/core/ViewField.H</text>
</a>
</g>
</g>
<!-- Node1&#45;&gt;Node11 -->
<g id="edge11" class="edge">
<title>Node1&#45;&gt;Node11</title>
<path fill="none" stroke="#191970" d="M497.7057,-112.2455C491.0336,-104.2958 481.4445,-92.8706 473.4671,-83.3656"/>
<polygon fill="#191970" stroke="#191970" points="476.0951,-81.0524 466.9854,-75.6427 470.7332,-85.5525 476.0951,-81.0524"/>
</g>
<!-- Node11&#45;&gt;Node2 -->
<g id="edge12" class="edge">
<title>Node11&#45;&gt;Node2</title>
<path fill="none" stroke="#191970" d="M442.5189,-56.2455C427.9616,-47.5731 406.4614,-34.7645 389.7772,-24.825"/>
<polygon fill="#191970" stroke="#191970" points="391.4607,-21.7539 381.0784,-19.6427 387.8781,-27.7676 391.4607,-21.7539"/>
</g>
<!-- Node11&#45;&gt;Node6 -->
<g id="edge14" class="edge">
<title>Node11&#45;&gt;Node6</title>
<path fill="none" stroke="#191970" d="M458.7183,-56.2455C458.5878,-48.9382 458.4048,-38.6944 458.2443,-29.7046"/>
<polygon fill="#191970" stroke="#191970" points="461.7427,-29.5786 458.0646,-19.6427 454.7438,-29.7036 461.7427,-29.5786"/>
</g>
<!-- Node11&#45;&gt;Node10 -->
<g id="edge13" class="edge">
<title>Node11&#45;&gt;Node10</title>
<path fill="none" stroke="#191970" d="M484.8503,-56.3733C509.6332,-47.1822 547.1671,-33.2624 574.6465,-23.0713"/>
<polygon fill="#191970" stroke="#191970" points="576.1144,-26.26 584.2733,-19.5011 573.6803,-19.6968 576.1144,-26.26"/>
</g>
<!-- Node11&#45;&gt;Node12 -->
<g id="edge15" class="edge">
<title>Node11&#45;&gt;Node12</title>
<path fill="none" stroke="#191970" d="M403.3922,-56.4369C344.3511,-46.2637 251.3864,-30.2451 191.5386,-19.9329"/>
<polygon fill="#191970" stroke="#191970" points="191.9464,-16.4516 181.4973,-18.2027 190.7577,-23.35 191.9464,-16.4516"/>
</g>
</g>
</svg>
