<?xml version="1.0" encoding="UTF-8" standalone="no"?>
<!DOCTYPE svg PUBLIC "-//W3C//DTD SVG 1.1//EN"
 "http://www.w3.org/Graphics/SVG/1.1/DTD/svg11.dtd">
<!-- Generated by graphviz version 2.40.1 (20161225.0304)
 -->
<!-- Title: ABLMeanBoussinesq.cpp Pages: 1 -->
<svg width="2883pt" height="553pt"
 viewBox="0.00 0.00 2883.24 553.00" xmlns="http://www.w3.org/2000/svg" xmlns:xlink="http://www.w3.org/1999/xlink">
<g id="graph0" class="graph" transform="scale(1 1) rotate(0) translate(4 549)">
<title>ABLMeanBoussinesq.cpp</title>
<polygon fill="#ffffff" stroke="transparent" points="-4,4 -4,-549 2879.2403,-549 2879.2403,4 -4,4"/>
<!-- Node0 -->
<g id="node1" class="node">
<title>Node0</title>
<polygon fill="#bfbfbf" stroke="#000000" points="739.7403,-525.5 739.7403,-544.5 868.7403,-544.5 868.7403,-525.5 739.7403,-525.5"/>
<text text-anchor="middle" x="804.2403" y="-532.5" font-family="Helvetica,sans-Serif" font-size="10.00" fill="#000000">ABLMeanBoussinesq.cpp</text>
</g>
<!-- Node1 -->
<g id="node2" class="node">
<title>Node1</title>
<g id="a_node2"><a xlink:href="_a_b_l_mean_boussinesq_8_h.html" target="_top" xlink:title="amr&#45;wind/equation_systems\l/icns/source_terms/ABLMeanBoussinesq.H">
<polygon fill="#ffffff" stroke="#000000" points="518.7403,-324.5 518.7403,-354.5 725.7403,-354.5 725.7403,-324.5 518.7403,-324.5"/>
<text text-anchor="start" x="526.7403" y="-342.5" font-family="Helvetica,sans-Serif" font-size="10.00" fill="#000000">amr&#45;wind/equation_systems</text>
<text text-anchor="middle" x="622.2403" y="-331.5" font-family="Helvetica,sans-Serif" font-size="10.00" fill="#000000">/icns/source_terms/ABLMeanBoussinesq.H</text>
</a>
</g>
</g>
<!-- Node0&#45;&gt;Node1 -->
<g id="edge1" class="edge">
<title>Node0&#45;&gt;Node1</title>
<path fill="none" stroke="#191970" d="M795.2149,-525.3051C767.4627,-495.4944 682.8726,-404.6297 643.1981,-362.0123"/>
<polygon fill="#191970" stroke="#191970" points="645.7121,-359.5762 636.3365,-354.6418 640.5886,-364.3459 645.7121,-359.5762"/>
</g>
<!-- Node6 -->
<g id="node7" class="node">
<title>Node6</title>
<g id="a_node7"><a xlink:href="_field_utils_8_h.html" target="_top" xlink:title="amr&#45;wind/core/FieldUtils.H">
<polygon fill="#ffffff" stroke="#000000" points="15.7403,-62 15.7403,-81 148.7403,-81 148.7403,-62 15.7403,-62"/>
<text text-anchor="middle" x="82.2403" y="-69" font-family="Helvetica,sans-Serif" font-size="10.00" fill="#000000">amr&#45;wind/core/FieldUtils.H</text>
</a>
</g>
</g>
<!-- Node0&#45;&gt;Node6 -->
<g id="edge69" class="edge">
<title>Node0&#45;&gt;Node6</title>
<path fill="none" stroke="#191970" d="M739.5134,-529.8728C566.4757,-515.3036 106.2403,-470.5343 106.2403,-406.5 106.2403,-406.5 106.2403,-406.5 106.2403,-205.5 106.2403,-164.1404 95.0251,-116.7088 87.928,-90.8342"/>
<polygon fill="#191970" stroke="#191970" points="91.2764,-89.8128 85.1832,-81.1455 84.5415,-91.7208 91.2764,-89.8128"/>
</g>
<!-- Node30 -->
<g id="node25" class="node">
<title>Node30</title>
<g id="a_node25"><a xlink:href="_c_f_d_sim_8_h.html" target="_top" xlink:title="amr&#45;wind/CFDSim.H">
<polygon fill="#ffffff" stroke="#000000" points="901.2403,-196 901.2403,-215 1009.2403,-215 1009.2403,-196 901.2403,-196"/>
<text text-anchor="middle" x="955.2403" y="-203" font-family="Helvetica,sans-Serif" font-size="10.00" fill="#000000">amr&#45;wind/CFDSim.H</text>
</a>
</g>
</g>
<!-- Node0&#45;&gt;Node30 -->
<g id="edge68" class="edge">
<title>Node0&#45;&gt;Node30</title>
<path fill="none" stroke="#191970" d="M804.2403,-525.3281C804.2403,-503.9175 804.2403,-450.895 804.2403,-406.5 804.2403,-406.5 804.2403,-406.5 804.2403,-339.5 804.2403,-278.2751 874.547,-238.213 919.2122,-218.9393"/>
<polygon fill="#191970" stroke="#191970" points="920.7067,-222.1084 928.5921,-215.0324 918.0151,-215.6465 920.7067,-222.1084"/>
</g>
<!-- Node41 -->
<g id="node35" class="node">
<title>Node41</title>
<g id="a_node35"><a xlink:href="_a_b_l_8_h.html" target="_top" xlink:title="amr&#45;wind/wind_energy\l/ABL.H">
<polygon fill="#ffffff" stroke="#000000" points="1321.2403,-458.5 1321.2403,-488.5 1435.2403,-488.5 1435.2403,-458.5 1321.2403,-458.5"/>
<text text-anchor="start" x="1329.2403" y="-476.5" font-family="Helvetica,sans-Serif" font-size="10.00" fill="#000000">amr&#45;wind/wind_energy</text>
<text text-anchor="middle" x="1378.2403" y="-465.5" font-family="Helvetica,sans-Serif" font-size="10.00" fill="#000000">/ABL.H</text>
</a>
</g>
</g>
<!-- Node0&#45;&gt;Node41 -->
<g id="edge70" class="edge">
<title>Node0&#45;&gt;Node41</title>
<path fill="none" stroke="#191970" d="M868.9696,-528.0647C978.5744,-516.3213 1199.6178,-492.6381 1310.9391,-480.7108"/>
<polygon fill="#191970" stroke="#191970" points="1311.4672,-484.1744 1321.0374,-479.6289 1310.7214,-477.2142 1311.4672,-484.1744"/>
</g>
<!-- Node63 -->
<g id="node50" class="node">
<title>Node63</title>
<polygon fill="#ffffff" stroke="#bfbfbf" points="1453.2403,-464 1453.2403,-483 1569.2403,-483 1569.2403,-464 1453.2403,-464"/>
<text text-anchor="middle" x="1511.2403" y="-471" font-family="Helvetica,sans-Serif" font-size="10.00" fill="#000000">AMReX_ParmParse.H</text>
</g>
<!-- Node0&#45;&gt;Node63 -->
<g id="edge123" class="edge">
<title>Node0&#45;&gt;Node63</title>
<path fill="none" stroke="#191970" d="M869.1052,-533.6676C985.106,-530.5457 1235.4978,-520.4518 1444.2403,-489 1450.9033,-487.9961 1457.8848,-486.6815 1464.7205,-485.2419"/>
<polygon fill="#191970" stroke="#191970" points="1465.5673,-488.6393 1474.5773,-483.0652 1464.0578,-481.804 1465.5673,-488.6393"/>
</g>
<!-- Node2 -->
<g id="node3" class="node">
<title>Node2</title>
<g id="a_node3"><a xlink:href="_field_repo_8_h.html" target="_top" xlink:title="amr&#45;wind/core/FieldRepo.H">
<polygon fill="#ffffff" stroke="#000000" points="504.2403,-129 504.2403,-148 640.2403,-148 640.2403,-129 504.2403,-129"/>
<text text-anchor="middle" x="572.2403" y="-136" font-family="Helvetica,sans-Serif" font-size="10.00" fill="#000000">amr&#45;wind/core/FieldRepo.H</text>
</a>
</g>
</g>
<!-- Node1&#45;&gt;Node2 -->
<g id="edge2" class="edge">
<title>Node1&#45;&gt;Node2</title>
<path fill="none" stroke="#191970" d="M618.4822,-324.3923C609.5557,-288.5077 587.0833,-198.1687 577.1231,-158.1287"/>
<polygon fill="#191970" stroke="#191970" points="580.4778,-157.1155 574.6672,-148.2562 573.6848,-158.8054 580.4778,-157.1155"/>
</g>
<!-- Node22 -->
<g id="node20" class="node">
<title>Node22</title>
<g id="a_node20"><a xlink:href="_momentum_source_8_h.html" target="_top" xlink:title="amr&#45;wind/equation_systems\l/icns/MomentumSource.H">
<polygon fill="#ffffff" stroke="#000000" points="330.7403,-190.5 330.7403,-220.5 469.7403,-220.5 469.7403,-190.5 330.7403,-190.5"/>
<text text-anchor="start" x="338.7403" y="-208.5" font-family="Helvetica,sans-Serif" font-size="10.00" fill="#000000">amr&#45;wind/equation_systems</text>
<text text-anchor="middle" x="400.2403" y="-197.5" font-family="Helvetica,sans-Serif" font-size="10.00" fill="#000000">/icns/MomentumSource.H</text>
</a>
</g>
</g>
<!-- Node1&#45;&gt;Node22 -->
<g id="edge31" class="edge">
<title>Node1&#45;&gt;Node22</title>
<path fill="none" stroke="#191970" d="M597.2056,-324.389C557.2108,-300.248 478.8503,-252.9492 433.9611,-225.854"/>
<polygon fill="#191970" stroke="#191970" points="435.5535,-222.727 425.1835,-220.5558 431.9361,-228.7199 435.5535,-222.727"/>
</g>
<!-- Node27 -->
<g id="node22" class="node">
<title>Node27</title>
<g id="a_node22"><a xlink:href="_field_plane_averaging_8_h.html" target="_top" xlink:title="amr&#45;wind/utilities\l/FieldPlaneAveraging.H">
<polygon fill="#ffffff" stroke="#000000" points="1307.7403,-257.5 1307.7403,-287.5 1426.7403,-287.5 1426.7403,-257.5 1307.7403,-257.5"/>
<text text-anchor="start" x="1315.7403" y="-275.5" font-family="Helvetica,sans-Serif" font-size="10.00" fill="#000000">amr&#45;wind/utilities</text>
<text text-anchor="middle" x="1367.2403" y="-264.5" font-family="Helvetica,sans-Serif" font-size="10.00" fill="#000000">/FieldPlaneAveraging.H</text>
</a>
</g>
</g>
<!-- Node1&#45;&gt;Node27 -->
<g id="edge39" class="edge">
<title>Node1&#45;&gt;Node27</title>
<path fill="none" stroke="#191970" d="M725.7541,-333.1664C852.1228,-324.9682 1072.2411,-309.183 1260.2403,-288 1272.2623,-286.6454 1285.0132,-284.9904 1297.3641,-283.2721"/>
<polygon fill="#191970" stroke="#191970" points="1298.2097,-286.6873 1307.6198,-281.819 1297.2277,-279.7565 1298.2097,-286.6873"/>
</g>
<!-- Node3 -->
<g id="node4" class="node">
<title>Node3</title>
<polygon fill="#ffffff" stroke="#bfbfbf" points="766.7403,-.5 766.7403,-19.5 807.7403,-19.5 807.7403,-.5 766.7403,-.5"/>
<text text-anchor="middle" x="787.2403" y="-7.5" font-family="Helvetica,sans-Serif" font-size="10.00" fill="#000000">string</text>
</g>
<!-- Node2&#45;&gt;Node3 -->
<g id="edge3" class="edge">
<title>Node2&#45;&gt;Node3</title>
<path fill="none" stroke="#191970" d="M588.152,-128.9219C604.8149,-118.7954 631.6519,-102.2131 654.2403,-87 673.7815,-73.8392 677.1374,-68.2856 697.2403,-56 716.5694,-44.1873 739.2904,-32.5909 757.0672,-23.9965"/>
<polygon fill="#191970" stroke="#191970" points="758.8661,-27.0161 766.3816,-19.5483 755.8495,-20.6994 758.8661,-27.0161"/>
</g>
<!-- Node4 -->
<g id="node5" class="node">
<title>Node4</title>
<polygon fill="#ffffff" stroke="#bfbfbf" points="1337.7403,-.5 1337.7403,-19.5 1420.7403,-19.5 1420.7403,-.5 1337.7403,-.5"/>
<text text-anchor="middle" x="1379.2403" y="-7.5" font-family="Helvetica,sans-Serif" font-size="10.00" fill="#000000">unordered_map</text>
</g>
<!-- Node2&#45;&gt;Node4 -->
<g id="edge4" class="edge">
<title>Node2&#45;&gt;Node4</title>
<path fill="none" stroke="#191970" d="M597.3727,-128.8695C644.9474,-111.0998 751.7794,-73.3872 845.2403,-56 1053.6679,-17.2248 1113.116,-47.8045 1327.5605,-19.9206"/>
<polygon fill="#191970" stroke="#191970" points="1328.1068,-23.3788 1337.5591,-18.593 1327.1854,-16.4397 1328.1068,-23.3788"/>
</g>
<!-- Node5 -->
<g id="node6" class="node">
<title>Node5</title>
<g id="a_node6"><a xlink:href="_field_desc_types_8_h.html" target="_top" xlink:title="amr&#45;wind/core/FieldDescTypes.H">
<polygon fill="#ffffff" stroke="#000000" points="469.7403,-.5 469.7403,-19.5 632.7403,-19.5 632.7403,-.5 469.7403,-.5"/>
<text text-anchor="middle" x="551.2403" y="-7.5" font-family="Helvetica,sans-Serif" font-size="10.00" fill="#000000">amr&#45;wind/core/FieldDescTypes.H</text>
</a>
</g>
</g>
<!-- Node2&#45;&gt;Node5 -->
<g id="edge5" class="edge">
<title>Node2&#45;&gt;Node5</title>
<path fill="none" stroke="#191970" d="M504.1471,-132.0742C445.5562,-124.9697 367.5027,-111.1935 348.2403,-87 312.7161,-42.3816 390.1009,-23.6074 459.3351,-15.714"/>
<polygon fill="#191970" stroke="#191970" points="459.9066,-19.1729 469.4764,-14.6266 459.1602,-12.2128 459.9066,-19.1729"/>
</g>
<!-- Node2&#45;&gt;Node6 -->
<g id="edge6" class="edge">
<title>Node2&#45;&gt;Node6</title>
<path fill="none" stroke="#191970" d="M504.026,-131.2581C422.6796,-122.3111 282.6989,-105.9308 163.2403,-87 155.4848,-85.771 147.3346,-84.3571 139.3149,-82.8941"/>
<polygon fill="#191970" stroke="#191970" points="139.7374,-79.4127 129.2659,-81.0248 138.4572,-86.2947 139.7374,-79.4127"/>
</g>
<!-- Node7 -->
<g id="node8" class="node">
<title>Node7</title>
<polygon fill="#ffffff" stroke="#bfbfbf" points="160.2403,-.5 160.2403,-19.5 264.2403,-19.5 264.2403,-.5 160.2403,-.5"/>
<text text-anchor="middle" x="212.2403" y="-7.5" font-family="Helvetica,sans-Serif" font-size="10.00" fill="#000000">AMReX_MultiFab.H</text>
</g>
<!-- Node2&#45;&gt;Node7 -->
<g id="edge29" class="edge">
<title>Node2&#45;&gt;Node7</title>
<path fill="none" stroke="#191970" d="M504.125,-133.8298C402.4593,-126.1577 220.8038,-109.4667 201.2403,-87 187.378,-71.0805 194.5466,-45.8921 202.2308,-28.6904"/>
<polygon fill="#191970" stroke="#191970" points="205.419,-30.1376 206.6596,-19.6156 199.1282,-27.0674 205.419,-30.1376"/>
</g>
<!-- Node9 -->
<g id="node10" class="node">
<title>Node9</title>
<g id="a_node10"><a xlink:href="_field_8_h.html" target="_top" xlink:title="amr&#45;wind/core/Field.H">
<polygon fill="#ffffff" stroke="#ff0000" points="1307.7403,-62 1307.7403,-81 1420.7403,-81 1420.7403,-62 1307.7403,-62"/>
<text text-anchor="middle" x="1364.2403" y="-69" font-family="Helvetica,sans-Serif" font-size="10.00" fill="#000000">amr&#45;wind/core/Field.H</text>
</a>
</g>
</g>
<!-- Node2&#45;&gt;Node9 -->
<g id="edge10" class="edge">
<title>Node2&#45;&gt;Node9</title>
<path fill="none" stroke="#191970" d="M640.2624,-135.0638C763.9326,-128.4482 1033.7723,-112.3179 1260.2403,-87 1272.2877,-85.6532 1285.0829,-83.9621 1297.4273,-82.196"/>
<polygon fill="#191970" stroke="#191970" points="1298.2751,-85.6094 1307.6642,-80.7008 1297.2633,-78.6829 1298.2751,-85.6094"/>
</g>
<!-- Node17 -->
<g id="node15" class="node">
<title>Node17</title>
<g id="a_node15"><a xlink:href="_int_field_8_h.html" target="_top" xlink:title="amr&#45;wind/core/IntField.H">
<polygon fill="#ffffff" stroke="#000000" points="357.2403,-62 357.2403,-81 481.2403,-81 481.2403,-62 357.2403,-62"/>
<text text-anchor="middle" x="419.2403" y="-69" font-family="Helvetica,sans-Serif" font-size="10.00" fill="#000000">amr&#45;wind/core/IntField.H</text>
</a>
</g>
</g>
<!-- Node2&#45;&gt;Node17 -->
<g id="edge19" class="edge">
<title>Node2&#45;&gt;Node17</title>
<path fill="none" stroke="#191970" d="M550.3192,-128.9005C524.1878,-117.4574 480.3283,-98.2509 450.6107,-85.2374"/>
<polygon fill="#191970" stroke="#191970" points="451.685,-81.887 441.1208,-81.0817 448.8771,-88.2991 451.685,-81.887"/>
</g>
<!-- Node18 -->
<g id="node16" class="node">
<title>Node18</title>
<polygon fill="#ffffff" stroke="#bfbfbf" points="303.7403,-.5 303.7403,-19.5 410.7403,-19.5 410.7403,-.5 303.7403,-.5"/>
<text text-anchor="middle" x="357.2403" y="-7.5" font-family="Helvetica,sans-Serif" font-size="10.00" fill="#000000">AMReX_iMultiFab.H</text>
</g>
<!-- Node2&#45;&gt;Node18 -->
<g id="edge30" class="edge">
<title>Node2&#45;&gt;Node18</title>
<path fill="none" stroke="#191970" d="M504.1107,-133.0539C441.7712,-126.4886 356.1483,-112.9392 335.2403,-87 321.5477,-70.0124 332.9111,-44.9151 343.756,-28.0354"/>
<polygon fill="#191970" stroke="#191970" points="346.7719,-29.827 349.5651,-19.607 341.0083,-25.8545 346.7719,-29.827"/>
</g>
<!-- Node19 -->
<g id="node17" class="node">
<title>Node19</title>
<g id="a_node17"><a xlink:href="_scratch_field_8_h.html" target="_top" xlink:title="amr&#45;wind/core/ScratchField.H">
<polygon fill="#ffffff" stroke="#ff0000" points="499.2403,-62 499.2403,-81 645.2403,-81 645.2403,-62 499.2403,-62"/>
<text text-anchor="middle" x="572.2403" y="-69" font-family="Helvetica,sans-Serif" font-size="10.00" fill="#000000">amr&#45;wind/core/ScratchField.H</text>
</a>
</g>
</g>
<!-- Node2&#45;&gt;Node19 -->
<g id="edge23" class="edge">
<title>Node2&#45;&gt;Node19</title>
<path fill="none" stroke="#191970" d="M572.2403,-128.9005C572.2403,-119.149 572.2403,-103.7597 572.2403,-91.3695"/>
<polygon fill="#191970" stroke="#191970" points="575.7404,-91.0816 572.2403,-81.0817 568.7404,-91.0817 575.7404,-91.0816"/>
</g>
<!-- Node21 -->
<g id="node19" class="node">
<title>Node21</title>
<polygon fill="#ffffff" stroke="#bfbfbf" points="1011.2403,-62 1011.2403,-81 1117.2403,-81 1117.2403,-62 1011.2403,-62"/>
<text text-anchor="middle" x="1064.2403" y="-69" font-family="Helvetica,sans-Serif" font-size="10.00" fill="#000000">AMReX_AmrCore.H</text>
</g>
<!-- Node2&#45;&gt;Node21 -->
<g id="edge28" class="edge">
<title>Node2&#45;&gt;Node21</title>
<path fill="none" stroke="#191970" d="M640.4107,-133.0031C725.5421,-125.5275 875.4276,-110.3499 1002.2403,-87 1007.7644,-85.9829 1013.5283,-84.7619 1019.221,-83.4574"/>
<polygon fill="#191970" stroke="#191970" points="1020.4104,-86.7719 1029.3242,-81.0452 1018.7847,-79.9633 1020.4104,-86.7719"/>
</g>
<!-- Node6&#45;&gt;Node5 -->
<g id="edge7" class="edge">
<title>Node6&#45;&gt;Node5</title>
<path fill="none" stroke="#191970" d="M148.9385,-62.7539C233.035,-51.7263 377.5944,-32.7702 468.6038,-20.8361"/>
<polygon fill="#191970" stroke="#191970" points="469.1471,-24.2949 478.6071,-19.5244 468.2369,-17.3544 469.1471,-24.2949"/>
</g>
<!-- Node6&#45;&gt;Node7 -->
<g id="edge8" class="edge">
<title>Node6&#45;&gt;Node7</title>
<path fill="none" stroke="#191970" d="M102.5528,-61.8906C124.1134,-51.6908 158.3881,-35.4763 182.8847,-23.8875"/>
<polygon fill="#191970" stroke="#191970" points="184.5277,-26.9822 192.0705,-19.5419 181.5342,-20.6545 184.5277,-26.9822"/>
</g>
<!-- Node8 -->
<g id="node9" class="node">
<title>Node8</title>
<polygon fill="#ffffff" stroke="#bfbfbf" points="24.2403,-.5 24.2403,-19.5 140.2403,-19.5 140.2403,-.5 24.2403,-.5"/>
<text text-anchor="middle" x="82.2403" y="-7.5" font-family="Helvetica,sans-Serif" font-size="10.00" fill="#000000">AMReX_Interpolater.H</text>
</g>
<!-- Node6&#45;&gt;Node8 -->
<g id="edge9" class="edge">
<title>Node6&#45;&gt;Node8</title>
<path fill="none" stroke="#191970" d="M82.2403,-61.8906C82.2403,-53.3657 82.2403,-40.6392 82.2403,-29.9235"/>
<polygon fill="#191970" stroke="#191970" points="85.7404,-29.7448 82.2403,-19.7449 78.7404,-29.7449 85.7404,-29.7448"/>
</g>
<!-- Node9&#45;&gt;Node3 -->
<g id="edge11" class="edge">
<title>Node9&#45;&gt;Node3</title>
<path fill="none" stroke="#191970" d="M1324.5987,-61.9345C1314.4248,-59.7309 1303.4655,-57.5747 1293.2403,-56 1114.6361,-28.4951 897.845,-15.5534 818.3637,-11.4806"/>
<polygon fill="#191970" stroke="#191970" points="818.2411,-7.9701 808.0781,-10.9642 817.89,-14.9613 818.2411,-7.9701"/>
</g>
<!-- Node9&#45;&gt;Node4 -->
<g id="edge13" class="edge">
<title>Node9&#45;&gt;Node4</title>
<path fill="none" stroke="#191970" d="M1366.5841,-61.8906C1368.6852,-53.276 1371.8328,-40.3708 1374.4633,-29.5858"/>
<polygon fill="#191970" stroke="#191970" points="1377.8942,-30.2894 1376.8635,-19.7449 1371.0936,-28.6307 1377.8942,-30.2894"/>
</g>
<!-- Node9&#45;&gt;Node5 -->
<g id="edge18" class="edge">
<title>Node9&#45;&gt;Node5</title>
<path fill="none" stroke="#191970" d="M1325.7421,-61.9724C1315.2575,-59.6857 1303.8619,-57.4798 1293.2403,-56 1230.5102,-47.2606 827.7466,-24.8792 643.2735,-14.9139"/>
<polygon fill="#191970" stroke="#191970" points="643.2227,-11.4062 633.0486,-14.3622 642.8455,-18.396 643.2227,-11.4062"/>
</g>
<!-- Node9&#45;&gt;Node7 -->
<g id="edge15" class="edge">
<title>Node9&#45;&gt;Node7</title>
<path fill="none" stroke="#191970" d="M1308.2452,-61.9933C1292.7384,-59.6776 1275.8723,-57.452 1260.2403,-56 832.8926,-16.3059 723.1026,-53.6978 295.2403,-20 288.5325,-19.4717 281.5323,-18.8068 274.5655,-18.0721"/>
<polygon fill="#191970" stroke="#191970" points="274.7435,-14.5706 264.4201,-16.9535 273.9763,-21.5285 274.7435,-14.5706"/>
</g>
<!-- Node10 -->
<g id="node11" class="node">
<title>Node10</title>
<polygon fill="#ffffff" stroke="#bfbfbf" points="2335.2403,-.5 2335.2403,-19.5 2387.2403,-19.5 2387.2403,-.5 2335.2403,-.5"/>
<text text-anchor="middle" x="2361.2403" y="-7.5" font-family="Helvetica,sans-Serif" font-size="10.00" fill="#000000">memory</text>
</g>
<!-- Node9&#45;&gt;Node10 -->
<g id="edge12" class="edge">
<title>Node9&#45;&gt;Node10</title>
<path fill="none" stroke="#191970" d="M1399.6395,-61.9413C1409.4799,-59.6255 1420.2171,-57.4127 1430.2403,-56 1607.856,-30.9667 2175.9703,-14.795 2325.105,-10.9088"/>
<polygon fill="#191970" stroke="#191970" points="2325.2013,-14.4076 2335.1075,-10.6503 2325.0204,-7.4099 2325.2013,-14.4076"/>
</g>
<!-- Node11 -->
<g id="node12" class="node">
<title>Node11</title>
<polygon fill="#ffffff" stroke="#bfbfbf" points="1263.2403,-.5 1263.2403,-19.5 1319.2403,-19.5 1319.2403,-.5 1263.2403,-.5"/>
<text text-anchor="middle" x="1291.2403" y="-7.5" font-family="Helvetica,sans-Serif" font-size="10.00" fill="#000000">algorithm</text>
</g>
<!-- Node9&#45;&gt;Node11 -->
<g id="edge14" class="edge">
<title>Node9&#45;&gt;Node11</title>
<path fill="none" stroke="#191970" d="M1352.8341,-61.8906C1341.5434,-52.3786 1324.0437,-37.6357 1310.5784,-26.2917"/>
<polygon fill="#191970" stroke="#191970" points="1312.7102,-23.5111 1302.8074,-19.7449 1308.2001,-28.8646 1312.7102,-23.5111"/>
</g>
<!-- Node13 -->
<g id="node13" class="node">
<title>Node13</title>
<polygon fill="#ffffff" stroke="#bfbfbf" points="1858.7403,-.5 1858.7403,-19.5 1943.7403,-19.5 1943.7403,-.5 1858.7403,-.5"/>
<text text-anchor="middle" x="1901.2403" y="-7.5" font-family="Helvetica,sans-Serif" font-size="10.00" fill="#000000">AMReX_Gpu.H</text>
</g>
<!-- Node9&#45;&gt;Node13 -->
<g id="edge16" class="edge">
<title>Node9&#45;&gt;Node13</title>
<path fill="none" stroke="#191970" d="M1401.0669,-61.9362C1410.5248,-59.7325 1420.7184,-57.5759 1430.2403,-56 1580.7647,-31.0884 1760.7491,-18.1132 1848.2476,-12.8656"/>
<polygon fill="#191970" stroke="#191970" points="1848.6749,-16.3466 1858.4514,-12.2637 1848.2626,-9.3587 1848.6749,-16.3466"/>
</g>
<!-- Node14 -->
<g id="node14" class="node">
<title>Node14</title>
<g id="a_node14"><a xlink:href="incflo__enums_8_h.html" target="_top" xlink:title="amr&#45;wind/incflo_enums.H">
<polygon fill="#ffffff" stroke="#000000" points="964.2403,-.5 964.2403,-19.5 1092.2403,-19.5 1092.2403,-.5 964.2403,-.5"/>
<text text-anchor="middle" x="1028.2403" y="-7.5" font-family="Helvetica,sans-Serif" font-size="10.00" fill="#000000">amr&#45;wind/incflo_enums.H</text>
</a>
</g>
</g>
<!-- Node9&#45;&gt;Node14 -->
<g id="edge17" class="edge">
<title>Node9&#45;&gt;Node14</title>
<path fill="none" stroke="#191970" d="M1321.8777,-61.9391C1312.4654,-59.9021 1302.5264,-57.8187 1293.2403,-56 1226.9436,-43.0156 1150.9442,-30.0156 1097.383,-21.1646"/>
<polygon fill="#191970" stroke="#191970" points="1097.7512,-17.6782 1087.3152,-19.5061 1096.6133,-24.5851 1097.7512,-17.6782"/>
</g>
<!-- Node17&#45;&gt;Node3 -->
<g id="edge20" class="edge">
<title>Node17&#45;&gt;Node3</title>
<path fill="none" stroke="#191970" d="M460.8267,-61.9745C470.4614,-59.8919 480.69,-57.7803 490.2403,-56 587.1373,-37.937 702.7528,-21.4841 756.6993,-14.1006"/>
<polygon fill="#191970" stroke="#191970" points="757.206,-17.564 766.6425,-12.7471 756.2618,-10.628 757.206,-17.564"/>
</g>
<!-- Node17&#45;&gt;Node5 -->
<g id="edge21" class="edge">
<title>Node17&#45;&gt;Node5</title>
<path fill="none" stroke="#191970" d="M439.8653,-61.8906C461.7576,-51.6908 496.5596,-35.4763 521.4331,-23.8875"/>
<polygon fill="#191970" stroke="#191970" points="523.1738,-26.9377 530.7602,-19.5419 520.2175,-20.5926 523.1738,-26.9377"/>
</g>
<!-- Node17&#45;&gt;Node18 -->
<g id="edge22" class="edge">
<title>Node17&#45;&gt;Node18</title>
<path fill="none" stroke="#191970" d="M409.5528,-61.8906C400.1444,-52.5581 385.6597,-38.1902 374.3154,-26.9374"/>
<polygon fill="#191970" stroke="#191970" points="376.6289,-24.3024 367.0644,-19.7449 371.6992,-29.2722 376.6289,-24.3024"/>
</g>
<!-- Node19&#45;&gt;Node3 -->
<g id="edge24" class="edge">
<title>Node19&#45;&gt;Node3</title>
<path fill="none" stroke="#191970" d="M605.8341,-61.8906C647.228,-50.05 716.9583,-30.1039 756.8319,-18.6982"/>
<polygon fill="#191970" stroke="#191970" points="757.8758,-22.0401 766.5276,-15.9248 755.9507,-15.31 757.8758,-22.0401"/>
</g>
<!-- Node19&#45;&gt;Node5 -->
<g id="edge25" class="edge">
<title>Node19&#45;&gt;Node5</title>
<path fill="none" stroke="#191970" d="M568.9591,-61.8906C565.9868,-53.1862 561.5189,-40.1015 557.8133,-29.2494"/>
<polygon fill="#191970" stroke="#191970" points="561.1116,-28.0773 554.5678,-19.7449 554.4871,-30.3394 561.1116,-28.0773"/>
</g>
<!-- Node19&#45;&gt;Node7 -->
<g id="edge26" class="edge">
<title>Node19&#45;&gt;Node7</title>
<path fill="none" stroke="#191970" d="M522.8414,-61.9735C512.1024,-59.9553 500.7971,-57.8709 490.2403,-56 416.2112,-42.8804 330.8757,-28.9347 274.4888,-19.8831"/>
<polygon fill="#191970" stroke="#191970" points="274.7341,-16.3778 264.3062,-18.2512 273.6263,-23.2896 274.7341,-16.3778"/>
</g>
<!-- Node16 -->
<g id="node18" class="node">
<title>Node16</title>
<polygon fill="#ffffff" stroke="#bfbfbf" points="1453.7403,-.5 1453.7403,-19.5 1548.7403,-19.5 1548.7403,-.5 1453.7403,-.5"/>
<text text-anchor="middle" x="1501.2403" y="-7.5" font-family="Helvetica,sans-Serif" font-size="10.00" fill="#000000">AMReX_Vector.H</text>
</g>
<!-- Node19&#45;&gt;Node16 -->
<g id="edge27" class="edge">
<title>Node19&#45;&gt;Node16</title>
<path fill="none" stroke="#191970" d="M645.5377,-67.2606C846.0858,-55.6397 1391.519,-23.8827 1430.2403,-20 1434.4902,-19.5739 1438.8764,-19.0823 1443.286,-18.5505"/>
<polygon fill="#191970" stroke="#191970" points="1444.0834,-21.9776 1453.5642,-17.2485 1443.2036,-15.033 1444.0834,-21.9776"/>
</g>
<!-- Node22&#45;&gt;Node2 -->
<g id="edge37" class="edge">
<title>Node22&#45;&gt;Node2</title>
<path fill="none" stroke="#191970" d="M438.8405,-190.4639C468.6985,-178.8332 509.6418,-162.8843 538.2661,-151.7342"/>
<polygon fill="#191970" stroke="#191970" points="539.7911,-154.8963 547.8387,-148.0053 537.2503,-148.3737 539.7911,-154.8963"/>
</g>
<!-- Node22&#45;&gt;Node5 -->
<g id="edge35" class="edge">
<title>Node22&#45;&gt;Node5</title>
<path fill="none" stroke="#191970" d="M383.6737,-190.06C354.7084,-161.212 301.0514,-98.2365 335.2403,-56 351.1558,-36.3382 408.0512,-24.7241 459.4526,-18.0853"/>
<polygon fill="#191970" stroke="#191970" points="460.1519,-21.5255 469.6459,-16.8229 459.2915,-14.5786 460.1519,-21.5255"/>
</g>
<!-- Node22&#45;&gt;Node6 -->
<g id="edge36" class="edge">
<title>Node22&#45;&gt;Node6</title>
<path fill="none" stroke="#191970" d="M344.9832,-190.4181C313.5081,-181.1876 273.616,-168.4005 239.2403,-154 190.8542,-133.7303 137.3332,-103.8992 106.9436,-86.2115"/>
<polygon fill="#191970" stroke="#191970" points="108.6832,-83.1743 98.2863,-81.1361 105.1429,-89.213 108.6832,-83.1743"/>
</g>
<!-- Node22&#45;&gt;Node7 -->
<g id="edge38" class="edge">
<title>Node22&#45;&gt;Node7</title>
<path fill="none" stroke="#191970" d="M330.4989,-195.1472C227.475,-178.2048 42.8095,-140.9542 6.2403,-87 -1.4898,-75.595 -2.3753,-66.7517 6.2403,-56 15.36,-44.6193 92.7956,-29.6049 150.0571,-19.8768"/>
<polygon fill="#191970" stroke="#191970" points="150.8521,-23.2924 160.1339,-18.1837 149.6922,-16.3891 150.8521,-23.2924"/>
</g>
<!-- Node23 -->
<g id="node21" class="node">
<title>Node23</title>
<g id="a_node21"><a xlink:href="_factory_8_h.html" target="_top" xlink:title="amr&#45;wind/core/Factory.H">
<polygon fill="#ffffff" stroke="#ff0000" points="1581.7403,-62 1581.7403,-81 1706.7403,-81 1706.7403,-62 1581.7403,-62"/>
<text text-anchor="middle" x="1644.2403" y="-69" font-family="Helvetica,sans-Serif" font-size="10.00" fill="#000000">amr&#45;wind/core/Factory.H</text>
</a>
</g>
</g>
<!-- Node22&#45;&gt;Node23 -->
<g id="edge32" class="edge">
<title>Node22&#45;&gt;Node23</title>
<path fill="none" stroke="#191970" d="M469.7406,-201.6521C651.8665,-190.8844 1157.6341,-156.5762 1573.2403,-87 1579.9287,-85.8803 1586.9385,-84.5475 1593.8397,-83.1404"/>
<polygon fill="#191970" stroke="#191970" points="1594.7571,-86.5242 1603.8232,-81.0419 1593.3171,-79.6739 1594.7571,-86.5242"/>
</g>
<!-- Node23&#45;&gt;Node4 -->
<g id="edge34" class="edge">
<title>Node23&#45;&gt;Node4</title>
<path fill="none" stroke="#191970" d="M1603.1248,-61.9581C1556.6101,-51.1632 1480.7996,-33.5694 1430.473,-21.8899"/>
<polygon fill="#191970" stroke="#191970" points="1430.9847,-18.4156 1420.4523,-19.5643 1429.4021,-25.2344 1430.9847,-18.4156"/>
</g>
<!-- Node23&#45;&gt;Node10 -->
<g id="edge33" class="edge">
<title>Node23&#45;&gt;Node10</title>
<path fill="none" stroke="#191970" d="M1683.6719,-61.9643C1694.2002,-59.7059 1705.6073,-57.516 1716.2403,-56 1946.522,-23.1678 2226.5673,-13.3487 2324.9663,-10.7982"/>
<polygon fill="#191970" stroke="#191970" points="2325.0784,-14.2966 2334.9878,-10.5476 2324.9034,-7.2988 2325.0784,-14.2966"/>
</g>
<!-- Node27&#45;&gt;Node9 -->
<g id="edge66" class="edge">
<title>Node27&#45;&gt;Node9</title>
<path fill="none" stroke="#191970" d="M1363.8021,-257.2077C1358.1627,-230.1331 1348.066,-171.9969 1353.2403,-123 1354.3705,-112.2983 1356.7867,-100.5506 1359.0676,-90.9809"/>
<polygon fill="#191970" stroke="#191970" points="1362.4641,-91.8256 1361.5093,-81.2739 1355.6755,-90.1179 1362.4641,-91.8256"/>
</g>
<!-- Node28 -->
<g id="node23" class="node">
<title>Node28</title>
<g id="a_node23"><a xlink:href="_direction_selector_8_h.html" target="_top" xlink:title="amr&#45;wind/utilities\l/DirectionSelector.H">
<polygon fill="#ffffff" stroke="#000000" points="1516.7403,-190.5 1516.7403,-220.5 1621.7403,-220.5 1621.7403,-190.5 1516.7403,-190.5"/>
<text text-anchor="start" x="1524.7403" y="-208.5" font-family="Helvetica,sans-Serif" font-size="10.00" fill="#000000">amr&#45;wind/utilities</text>
<text text-anchor="middle" x="1569.2403" y="-197.5" font-family="Helvetica,sans-Serif" font-size="10.00" fill="#000000">/DirectionSelector.H</text>
</a>
</g>
</g>
<!-- Node27&#45;&gt;Node28 -->
<g id="edge40" class="edge">
<title>Node27&#45;&gt;Node28</title>
<path fill="none" stroke="#191970" d="M1412.5731,-257.4639C1442.6166,-247.499 1482.2168,-234.3642 1514.0866,-223.7936"/>
<polygon fill="#191970" stroke="#191970" points="1515.3202,-227.072 1523.7099,-220.6017 1513.1164,-220.4279 1515.3202,-227.072"/>
</g>
<!-- Node27&#45;&gt;Node30 -->
<g id="edge43" class="edge">
<title>Node27&#45;&gt;Node30</title>
<path fill="none" stroke="#191970" d="M1307.332,-262.7576C1230.6537,-250.2881 1098.3377,-228.7707 1019.5828,-215.9635"/>
<polygon fill="#191970" stroke="#191970" points="1019.741,-212.4433 1009.3088,-214.2927 1018.6174,-219.3525 1019.741,-212.4433"/>
</g>
<!-- Node31 -->
<g id="node26" class="node">
<title>Node31</title>
<g id="a_node26"><a xlink:href="_sim_time_8_h.html" target="_top" xlink:title="amr&#45;wind/core/SimTime.H">
<polygon fill="#ffffff" stroke="#000000" points="1996.7403,-129 1996.7403,-148 2127.7403,-148 2127.7403,-129 1996.7403,-129"/>
<text text-anchor="middle" x="2062.2403" y="-136" font-family="Helvetica,sans-Serif" font-size="10.00" fill="#000000">amr&#45;wind/core/SimTime.H</text>
</a>
</g>
</g>
<!-- Node27&#45;&gt;Node31 -->
<g id="edge67" class="edge">
<title>Node27&#45;&gt;Node31</title>
<path fill="none" stroke="#191970" d="M1386.4539,-257.4791C1412.4285,-238.098 1460.9555,-205.0846 1508.2403,-190 1681.2453,-134.8088 1734.4925,-171.5217 1915.2403,-154 1938.3803,-151.7568 1963.5518,-149.1602 1986.4191,-146.7411"/>
<polygon fill="#191970" stroke="#191970" points="1986.8311,-150.2172 1996.4055,-145.6806 1986.0918,-143.2563 1986.8311,-150.2172"/>
</g>
<!-- Node28&#45;&gt;Node13 -->
<g id="edge42" class="edge">
<title>Node28&#45;&gt;Node13</title>
<path fill="none" stroke="#191970" d="M1621.8686,-202.688C1743.3076,-195.8828 2040.1265,-177.352 2137.2403,-154 2214.9968,-135.3027 2259.4394,-153.246 2304.2403,-87 2311.9587,-75.5871 2313.4136,-66.28 2304.2403,-56 2281.3209,-30.3156 2058.3027,-17.0306 1954.2307,-12.1878"/>
<polygon fill="#191970" stroke="#191970" points="1954.0911,-8.6779 1943.942,-11.7186 1953.7721,-15.6706 1954.0911,-8.6779"/>
</g>
<!-- Node29 -->
<g id="node24" class="node">
<title>Node29</title>
<polygon fill="#ffffff" stroke="#bfbfbf" points="2687.2403,-62 2687.2403,-81 2771.2403,-81 2771.2403,-62 2687.2403,-62"/>
<text text-anchor="middle" x="2729.2403" y="-69" font-family="Helvetica,sans-Serif" font-size="10.00" fill="#000000">AMReX_Box.H</text>
</g>
<!-- Node28&#45;&gt;Node29 -->
<g id="edge41" class="edge">
<title>Node28&#45;&gt;Node29</title>
<path fill="none" stroke="#191970" d="M1621.8139,-203.9215C1812.58,-198.0323 2461.8677,-176.5235 2552.2403,-154 2610.0271,-139.5979 2671.8479,-106.1167 2704.9587,-86.5206"/>
<polygon fill="#191970" stroke="#191970" points="2707.1223,-89.3039 2713.8933,-81.155 2703.5184,-83.3029 2707.1223,-89.3039"/>
</g>
<!-- Node30&#45;&gt;Node2 -->
<g id="edge49" class="edge">
<title>Node30&#45;&gt;Node2</title>
<path fill="none" stroke="#191970" d="M901.1781,-196.0426C831.6594,-183.8814 711.0675,-162.7857 636.8071,-149.795"/>
<polygon fill="#191970" stroke="#191970" points="637.0998,-146.2931 626.6463,-148.0175 635.8936,-153.1884 637.0998,-146.2931"/>
</g>
<!-- Node30&#45;&gt;Node21 -->
<g id="edge44" class="edge">
<title>Node30&#45;&gt;Node21</title>
<path fill="none" stroke="#191970" d="M964.5356,-195.8751C974.2291,-185.7104 989.7263,-169.0974 1002.2403,-154 1019.9912,-132.5847 1039.0143,-106.8023 1051.2382,-89.8256"/>
<polygon fill="#191970" stroke="#191970" points="1054.3059,-91.553 1057.2785,-81.3838 1048.6131,-87.4797 1054.3059,-91.553"/>
</g>
<!-- Node30&#45;&gt;Node31 -->
<g id="edge45" class="edge">
<title>Node30&#45;&gt;Node31</title>
<path fill="none" stroke="#191970" d="M1009.3493,-203.0699C1152.1238,-196.5328 1550.8263,-177.4697 1882.2403,-154 1916.4009,-151.5809 1954.1648,-148.4058 1986.2445,-145.5596"/>
<polygon fill="#191970" stroke="#191970" points="1986.7995,-149.0241 1996.4485,-144.6485 1986.1768,-142.0518 1986.7995,-149.0241"/>
</g>
<!-- Node35 -->
<g id="node30" class="node">
<title>Node35</title>
<g id="a_node30"><a xlink:href="_p_d_e_base_8_h.html" target="_top" xlink:title="amr&#45;wind/equation_systems\l/PDEBase.H">
<polygon fill="#ffffff" stroke="#000000" points="853.7403,-123.5 853.7403,-153.5 992.7403,-153.5 992.7403,-123.5 853.7403,-123.5"/>
<text text-anchor="start" x="861.7403" y="-141.5" font-family="Helvetica,sans-Serif" font-size="10.00" fill="#000000">amr&#45;wind/equation_systems</text>
<text text-anchor="middle" x="923.2403" y="-130.5" font-family="Helvetica,sans-Serif" font-size="10.00" fill="#000000">/PDEBase.H</text>
</a>
</g>
</g>
<!-- Node30&#45;&gt;Node35 -->
<g id="edge50" class="edge">
<title>Node30&#45;&gt;Node35</title>
<path fill="none" stroke="#191970" d="M950.6555,-195.9005C946.5241,-187.2503 940.2739,-174.164 934.7842,-162.6699"/>
<polygon fill="#191970" stroke="#191970" points="937.883,-161.0369 930.4149,-153.5218 931.5665,-164.0538 937.883,-161.0369"/>
</g>
<!-- Node39 -->
<g id="node33" class="node">
<title>Node39</title>
<g id="a_node33"><a xlink:href="_physics_8_h.html" target="_top" xlink:title="amr&#45;wind/core/Physics.H">
<polygon fill="#ffffff" stroke="#000000" points="1582.7403,-129 1582.7403,-148 1709.7403,-148 1709.7403,-129 1582.7403,-129"/>
<text text-anchor="middle" x="1646.2403" y="-136" font-family="Helvetica,sans-Serif" font-size="10.00" fill="#000000">amr&#45;wind/core/Physics.H</text>
</a>
</g>
</g>
<!-- Node30&#45;&gt;Node39 -->
<g id="edge61" class="edge">
<title>Node30&#45;&gt;Node39</title>
<path fill="none" stroke="#191970" d="M1009.3284,-203.3493C1117.2465,-198.5409 1366.7764,-184.83 1574.2403,-154 1581.4573,-152.9275 1589.0342,-151.5631 1596.4521,-150.09"/>
<polygon fill="#191970" stroke="#191970" points="1597.3346,-153.4817 1606.42,-148.0313 1595.9187,-146.6264 1597.3346,-153.4817"/>
</g>
<!-- Node32 -->
<g id="node27" class="node">
<title>Node32</title>
<polygon fill="#ffffff" stroke="#bfbfbf" points="2201.7403,-62 2201.7403,-81 2294.7403,-81 2294.7403,-62 2201.7403,-62"/>
<text text-anchor="middle" x="2248.2403" y="-69" font-family="Helvetica,sans-Serif" font-size="10.00" fill="#000000">AMReX_REAL.H</text>
</g>
<!-- Node31&#45;&gt;Node32 -->
<g id="edge46" class="edge">
<title>Node31&#45;&gt;Node32</title>
<path fill="none" stroke="#191970" d="M2088.8896,-128.9005C2121.2095,-117.2584 2175.8377,-97.5805 2211.9728,-84.5641"/>
<polygon fill="#191970" stroke="#191970" points="2213.4184,-87.7636 2221.6405,-81.0817 2211.0461,-81.1778 2213.4184,-87.7636"/>
</g>
<!-- Node33 -->
<g id="node28" class="node">
<title>Node33</title>
<polygon fill="#ffffff" stroke="#bfbfbf" points="1929.2403,-62 1929.2403,-81 2055.2403,-81 2055.2403,-62 1929.2403,-62"/>
<text text-anchor="middle" x="1992.2403" y="-69" font-family="Helvetica,sans-Serif" font-size="10.00" fill="#000000">AMReX_GpuQualifiers.H</text>
</g>
<!-- Node31&#45;&gt;Node33 -->
<g id="edge47" class="edge">
<title>Node31&#45;&gt;Node33</title>
<path fill="none" stroke="#191970" d="M2052.211,-128.9005C2041.0872,-118.2535 2022.9417,-100.8856 2009.5193,-88.0385"/>
<polygon fill="#191970" stroke="#191970" points="2011.8953,-85.4678 2002.251,-81.0817 2007.0551,-90.5247 2011.8953,-85.4678"/>
</g>
<!-- Node34 -->
<g id="node29" class="node">
<title>Node34</title>
<polygon fill="#ffffff" stroke="#bfbfbf" points="2073.2403,-62 2073.2403,-81 2183.2403,-81 2183.2403,-62 2073.2403,-62"/>
<text text-anchor="middle" x="2128.2403" y="-69" font-family="Helvetica,sans-Serif" font-size="10.00" fill="#000000">AMReX_Extension.H</text>
</g>
<!-- Node31&#45;&gt;Node34 -->
<g id="edge48" class="edge">
<title>Node31&#45;&gt;Node34</title>
<path fill="none" stroke="#191970" d="M2071.6965,-128.9005C2082.0867,-118.353 2098.9741,-101.2096 2111.5927,-88.3998"/>
<polygon fill="#191970" stroke="#191970" points="2114.2774,-90.6619 2118.8017,-81.0817 2109.2905,-85.7495 2114.2774,-90.6619"/>
</g>
<!-- Node35&#45;&gt;Node3 -->
<g id="edge51" class="edge">
<title>Node35&#45;&gt;Node3</title>
<path fill="none" stroke="#191970" d="M888.875,-123.3161C871.4345,-114.4579 850.723,-102.0559 835.2403,-87 817.8449,-70.084 804.0054,-45.6483 795.7404,-28.8659"/>
<polygon fill="#191970" stroke="#191970" points="798.7705,-27.0862 791.3326,-19.5412 792.4419,-30.0778 798.7705,-27.0862"/>
</g>
<!-- Node35&#45;&gt;Node5 -->
<g id="edge59" class="edge">
<title>Node35&#45;&gt;Node5</title>
<path fill="none" stroke="#191970" d="M879.4733,-123.3816C805.7009,-97.8983 657.8824,-46.8374 588.6392,-22.9187"/>
<polygon fill="#191970" stroke="#191970" points="589.606,-19.5498 579.0113,-19.5929 587.3205,-26.1662 589.606,-19.5498"/>
</g>
<!-- Node35&#45;&gt;Node14 -->
<g id="edge60" class="edge">
<title>Node35&#45;&gt;Node14</title>
<path fill="none" stroke="#191970" d="M891.4719,-123.4844C862.0561,-107.5299 825.6053,-81.1814 845.2403,-56 858.9114,-38.4672 909.5312,-26.5949 954.0751,-19.3094"/>
<polygon fill="#191970" stroke="#191970" points="954.7263,-22.7501 964.0589,-17.7347 953.6356,-15.8356 954.7263,-22.7501"/>
</g>
<!-- Node35&#45;&gt;Node23 -->
<g id="edge52" class="edge">
<title>Node35&#45;&gt;Node23</title>
<path fill="none" stroke="#191970" d="M992.8262,-133.2423C1154.6843,-120.9781 1544.8954,-91.197 1573.2403,-87 1580.3621,-85.9455 1587.8366,-84.591 1595.1527,-83.1226"/>
<polygon fill="#191970" stroke="#191970" points="1595.9111,-86.5398 1604.983,-81.0671 1594.4784,-79.6879 1595.9111,-86.5398"/>
</g>
<!-- Node36 -->
<g id="node31" class="node">
<title>Node36</title>
<g id="a_node31"><a xlink:href="_coll_mgr_8_h.html" target="_top" xlink:title="amr&#45;wind/core/CollMgr.H">
<polygon fill="#ffffff" stroke="#000000" points="1438.7403,-62 1438.7403,-81 1563.7403,-81 1563.7403,-62 1438.7403,-62"/>
<text text-anchor="middle" x="1501.2403" y="-69" font-family="Helvetica,sans-Serif" font-size="10.00" fill="#000000">amr&#45;wind/core/CollMgr.H</text>
</a>
</g>
</g>
<!-- Node35&#45;&gt;Node36 -->
<g id="edge53" class="edge">
<title>Node35&#45;&gt;Node36</title>
<path fill="none" stroke="#191970" d="M992.8604,-133.9457C1090.8744,-126.9631 1274.9391,-111.7572 1430.2403,-87 1437.021,-85.9191 1444.1273,-84.5972 1451.1145,-83.1858"/>
<polygon fill="#191970" stroke="#191970" points="1452.1439,-86.5462 1461.2145,-81.0713 1450.7094,-79.6948 1452.1439,-86.5462"/>
</g>
<!-- Node37 -->
<g id="node32" class="node">
<title>Node37</title>
<g id="a_node32"><a xlink:href="_p_d_e_fields_8_h.html" target="_top" xlink:title="amr&#45;wind/equation_systems\l/PDEFields.H">
<polygon fill="#ffffff" stroke="#ff0000" points="853.7403,-56.5 853.7403,-86.5 992.7403,-86.5 992.7403,-56.5 853.7403,-56.5"/>
<text text-anchor="start" x="861.7403" y="-74.5" font-family="Helvetica,sans-Serif" font-size="10.00" fill="#000000">amr&#45;wind/equation_systems</text>
<text text-anchor="middle" x="923.2403" y="-63.5" font-family="Helvetica,sans-Serif" font-size="10.00" fill="#000000">/PDEFields.H</text>
</a>
</g>
</g>
<!-- Node35&#45;&gt;Node37 -->
<g id="edge58" class="edge">
<title>Node35&#45;&gt;Node37</title>
<path fill="none" stroke="#191970" d="M923.2403,-123.2967C923.2403,-115.5013 923.2403,-105.7991 923.2403,-96.9064"/>
<polygon fill="#191970" stroke="#191970" points="926.7404,-96.6431 923.2403,-86.6432 919.7404,-96.6432 926.7404,-96.6431"/>
</g>
<!-- Node36&#45;&gt;Node3 -->
<g id="edge54" class="edge">
<title>Node36&#45;&gt;Node3</title>
<path fill="none" stroke="#191970" d="M1462.3621,-61.9592C1451.98,-59.7009 1440.7299,-57.5122 1430.2403,-56 1369.3474,-47.2214 938.6821,-19.5864 818.384,-11.964"/>
<polygon fill="#191970" stroke="#191970" points="818.2467,-8.4484 808.0456,-11.3098 817.8046,-15.4344 818.2467,-8.4484"/>
</g>
<!-- Node36&#45;&gt;Node4 -->
<g id="edge56" class="edge">
<title>Node36&#45;&gt;Node4</title>
<path fill="none" stroke="#191970" d="M1482.1778,-61.8906C1462.1231,-51.7811 1430.347,-35.7628 1407.4019,-24.1962"/>
<polygon fill="#191970" stroke="#191970" points="1408.6741,-20.918 1398.169,-19.5419 1405.5231,-27.1687 1408.6741,-20.918"/>
</g>
<!-- Node36&#45;&gt;Node10 -->
<g id="edge55" class="edge">
<title>Node36&#45;&gt;Node10</title>
<path fill="none" stroke="#191970" d="M1540.2834,-61.9522C1550.9156,-59.6655 1562.4711,-57.4647 1573.2403,-56 1721.4785,-35.8389 2190.052,-16.6072 2324.717,-11.3848"/>
<polygon fill="#191970" stroke="#191970" points="2325.0524,-14.8746 2334.91,-10.9916 2324.7825,-7.8798 2325.0524,-14.8746"/>
</g>
<!-- Node36&#45;&gt;Node16 -->
<g id="edge57" class="edge">
<title>Node36&#45;&gt;Node16</title>
<path fill="none" stroke="#191970" d="M1501.2403,-61.8906C1501.2403,-53.3657 1501.2403,-40.6392 1501.2403,-29.9235"/>
<polygon fill="#191970" stroke="#191970" points="1504.7404,-29.7448 1501.2403,-19.7449 1497.7404,-29.7449 1504.7404,-29.7448"/>
</g>
<!-- Node39&#45;&gt;Node7 -->
<g id="edge64" class="edge">
<title>Node39&#45;&gt;Node7</title>
<path fill="none" stroke="#191970" d="M1608.3464,-128.9858C1597.409,-126.6097 1585.4105,-124.3548 1574.2403,-123 1303.6614,-90.182 610.7621,-160.296 348.2403,-87 303.5901,-74.5337 257.9611,-44.4095 232.5483,-25.7502"/>
<polygon fill="#191970" stroke="#191970" points="234.5396,-22.8688 224.4373,-19.6761 230.3436,-28.4719 234.5396,-22.8688"/>
</g>
<!-- Node39&#45;&gt;Node23 -->
<g id="edge62" class="edge">
<title>Node39&#45;&gt;Node23</title>
<path fill="none" stroke="#191970" d="M1645.9538,-128.9005C1645.6627,-119.149 1645.2033,-103.7597 1644.8334,-91.3695"/>
<polygon fill="#191970" stroke="#191970" points="1648.3233,-90.9727 1644.5263,-81.0817 1641.3264,-91.1817 1648.3233,-90.9727"/>
</g>
<!-- Node39&#45;&gt;Node36 -->
<g id="edge63" class="edge">
<title>Node39&#45;&gt;Node36</title>
<path fill="none" stroke="#191970" d="M1625.4654,-128.9005C1600.8081,-117.5072 1559.4952,-98.4178 1531.3386,-85.4075"/>
<polygon fill="#191970" stroke="#191970" points="1532.5226,-82.099 1521.9767,-81.0817 1529.5864,-88.4535 1532.5226,-82.099"/>
</g>
<!-- Node40 -->
<g id="node34" class="node">
<title>Node40</title>
<polygon fill="#ffffff" stroke="#bfbfbf" points="1725.2403,-62 1725.2403,-81 1835.2403,-81 1835.2403,-62 1725.2403,-62"/>
<text text-anchor="middle" x="1780.2403" y="-69" font-family="Helvetica,sans-Serif" font-size="10.00" fill="#000000">AMReX_Geometry.H</text>
</g>
<!-- Node39&#45;&gt;Node40 -->
<g id="edge65" class="edge">
<title>Node39&#45;&gt;Node40</title>
<path fill="none" stroke="#191970" d="M1665.4393,-128.9005C1688.1265,-117.5569 1726.0716,-98.5844 1752.0838,-85.5783"/>
<polygon fill="#191970" stroke="#191970" points="1753.698,-88.6843 1761.077,-81.0817 1750.5675,-82.4234 1753.698,-88.6843"/>
</g>
<!-- Node41&#45;&gt;Node10 -->
<g id="edge71" class="edge">
<title>Node41&#45;&gt;Node10</title>
<path fill="none" stroke="#191970" d="M1435.3477,-459.3443C1438.3452,-458.8347 1441.3225,-458.3806 1444.2403,-458 1720.2395,-421.9988 2425.2525,-485.539 2696.2403,-422 2781.526,-402.0029 2875.2403,-427.0987 2875.2403,-339.5 2875.2403,-339.5 2875.2403,-339.5 2875.2403,-138.5 2875.2403,-94.9189 2859.4031,-78.7648 2822.2403,-56 2786.3037,-33.9864 2500.2266,-17.186 2397.6671,-11.8173"/>
<polygon fill="#191970" stroke="#191970" points="2397.6548,-8.3121 2387.4873,-11.2905 2397.293,-15.3027 2397.6548,-8.3121"/>
</g>
<!-- Node41&#45;&gt;Node27 -->
<g id="edge99" class="edge">
<title>Node41&#45;&gt;Node27</title>
<path fill="none" stroke="#191970" d="M1368.106,-458.2351C1354.3022,-436.4329 1330.2736,-394.6192 1321.2403,-355 1318.1775,-341.567 1316.3285,-336.8725 1321.2403,-324 1325.3633,-313.1949 1332.911,-303.2202 1340.7169,-294.9842"/>
<polygon fill="#191970" stroke="#191970" points="1343.2028,-297.4484 1347.8673,-287.9356 1338.2886,-292.4633 1343.2028,-297.4484"/>
</g>
<!-- Node41&#45;&gt;Node31 -->
<g id="edge98" class="edge">
<title>Node41&#45;&gt;Node31</title>
<path fill="none" stroke="#191970" d="M1435.3809,-459.5705C1438.3697,-459.0019 1441.3361,-458.4732 1444.2403,-458 1585.1023,-435.0469 2723.2403,-482.2198 2723.2403,-339.5 2723.2403,-339.5 2723.2403,-339.5 2723.2403,-272.5 2723.2403,-213.3758 2311.7842,-164.1345 2138.1259,-145.9848"/>
<polygon fill="#191970" stroke="#191970" points="2138.3441,-142.4887 2128.0361,-144.9373 2137.6212,-149.4513 2138.3441,-142.4887"/>
</g>
<!-- Node41&#45;&gt;Node39 -->
<g id="edge72" class="edge">
<title>Node41&#45;&gt;Node39</title>
<path fill="none" stroke="#191970" d="M1435.5454,-459.5658C1469.277,-450.5498 1512.4098,-437.5947 1549.2403,-422 1618.5872,-392.6372 1697.2403,-414.8071 1697.2403,-339.5 1697.2403,-339.5 1697.2403,-339.5 1697.2403,-272.5 1697.2403,-228.7701 1673.2225,-181.9537 1658.1513,-156.8812"/>
<polygon fill="#191970" stroke="#191970" points="1660.9491,-154.752 1652.6995,-148.104 1655.0027,-158.4455 1660.9491,-154.752"/>
</g>
<!-- Node42 -->
<g id="node36" class="node">
<title>Node42</title>
<g id="a_node36"><a xlink:href="_a_b_l_field_init_8_h.html" target="_top" xlink:title="amr&#45;wind/wind_energy\l/ABLFieldInit.H">
<polygon fill="#ffffff" stroke="#000000" points="2429.2403,-123.5 2429.2403,-153.5 2543.2403,-153.5 2543.2403,-123.5 2429.2403,-123.5"/>
<text text-anchor="start" x="2437.2403" y="-141.5" font-family="Helvetica,sans-Serif" font-size="10.00" fill="#000000">amr&#45;wind/wind_energy</text>
<text text-anchor="middle" x="2486.2403" y="-130.5" font-family="Helvetica,sans-Serif" font-size="10.00" fill="#000000">/ABLFieldInit.H</text>
</a>
</g>
</g>
<!-- Node41&#45;&gt;Node42 -->
<g id="edge73" class="edge">
<title>Node41&#45;&gt;Node42</title>
<path fill="none" stroke="#191970" d="M1435.349,-459.354C1438.3461,-458.8419 1441.323,-458.3846 1444.2403,-458 1696.1863,-424.7852 2338.2459,-472.8113 2587.2403,-422 2686.304,-401.7845 2799.2403,-440.6053 2799.2403,-339.5 2799.2403,-339.5 2799.2403,-339.5 2799.2403,-272.5 2799.2403,-219.3884 2645.0096,-174.8129 2553.0762,-152.9602"/>
<polygon fill="#191970" stroke="#191970" points="2553.8206,-149.5399 2543.2854,-150.6627 2552.2213,-156.3548 2553.8206,-149.5399"/>
</g>
<!-- Node45 -->
<g id="node39" class="node">
<title>Node45</title>
<g id="a_node39"><a xlink:href="_a_b_l_wall_function_8_h.html" target="_top" xlink:title="amr&#45;wind/wind_energy\l/ABLWallFunction.H">
<polygon fill="#ffffff" stroke="#000000" points="1131.2403,-324.5 1131.2403,-354.5 1245.2403,-354.5 1245.2403,-324.5 1131.2403,-324.5"/>
<text text-anchor="start" x="1139.2403" y="-342.5" font-family="Helvetica,sans-Serif" font-size="10.00" fill="#000000">amr&#45;wind/wind_energy</text>
<text text-anchor="middle" x="1188.2403" y="-331.5" font-family="Helvetica,sans-Serif" font-size="10.00" fill="#000000">/ABLWallFunction.H</text>
</a>
</g>
</g>
<!-- Node41&#45;&gt;Node45 -->
<g id="edge82" class="edge">
<title>Node41&#45;&gt;Node45</title>
<path fill="none" stroke="#191970" d="M1330.4345,-458.4619C1307.5915,-449.9138 1280.6368,-437.742 1259.2403,-422 1237.0034,-405.6396 1217.0239,-381.0842 1203.9673,-363.0153"/>
<polygon fill="#191970" stroke="#191970" points="1206.753,-360.8922 1198.1342,-354.7305 1201.0294,-364.9221 1206.753,-360.8922"/>
</g>
<!-- Node51 -->
<g id="node42" class="node">
<title>Node51</title>
<g id="a_node42"><a xlink:href="_a_b_l_boundary_plane_8_h.html" target="_top" xlink:title="amr&#45;wind/wind_energy\l/ABLBoundaryPlane.H">
<polygon fill="#ffffff" stroke="#000000" points="1135.7403,-257.5 1135.7403,-287.5 1250.7403,-287.5 1250.7403,-257.5 1135.7403,-257.5"/>
<text text-anchor="start" x="1143.7403" y="-275.5" font-family="Helvetica,sans-Serif" font-size="10.00" fill="#000000">amr&#45;wind/wind_energy</text>
<text text-anchor="middle" x="1193.2403" y="-264.5" font-family="Helvetica,sans-Serif" font-size="10.00" fill="#000000">/ABLBoundaryPlane.H</text>
</a>
</g>
</g>
<!-- Node41&#45;&gt;Node51 -->
<g id="edge91" class="edge">
<title>Node41&#45;&gt;Node51</title>
<path fill="none" stroke="#191970" d="M1321.1757,-466.7037C1258.2489,-455.6833 1160.8073,-427.2631 1122.2403,-355 1115.7532,-342.845 1115.9806,-336.2737 1122.2403,-324 1128.754,-311.2286 1140.0796,-300.8854 1151.7967,-292.9119"/>
<polygon fill="#191970" stroke="#191970" points="1153.7457,-295.8206 1160.3347,-287.5239 1150.0099,-289.9009 1153.7457,-295.8206"/>
</g>
<!-- Node56 -->
<g id="node44" class="node">
<title>Node56</title>
<g id="a_node44"><a xlink:href="_a_b_l_stats_8_h.html" target="_top" xlink:title="amr&#45;wind/wind_energy\l/ABLStats.H">
<polygon fill="#ffffff" stroke="#000000" points="1426.2403,-391.5 1426.2403,-421.5 1540.2403,-421.5 1540.2403,-391.5 1426.2403,-391.5"/>
<text text-anchor="start" x="1434.2403" y="-409.5" font-family="Helvetica,sans-Serif" font-size="10.00" fill="#000000">amr&#45;wind/wind_energy</text>
<text text-anchor="middle" x="1483.2403" y="-398.5" font-family="Helvetica,sans-Serif" font-size="10.00" fill="#000000">/ABLStats.H</text>
</a>
</g>
</g>
<!-- Node41&#45;&gt;Node56 -->
<g id="edge100" class="edge">
<title>Node41&#45;&gt;Node56</title>
<path fill="none" stroke="#191970" d="M1401.8044,-458.4639C1416.293,-449.2188 1435.0576,-437.2452 1450.922,-427.1222"/>
<polygon fill="#191970" stroke="#191970" points="1452.8443,-430.0474 1459.3916,-421.7177 1449.0789,-424.1464 1452.8443,-430.0474"/>
</g>
<!-- Node42&#45;&gt;Node9 -->
<g id="edge74" class="edge">
<title>Node42&#45;&gt;Node9</title>
<path fill="none" stroke="#191970" d="M2429.1293,-124.3713C2426.1328,-123.8547 2423.1567,-123.3917 2420.2403,-123 1983.8676,-64.3921 1866.613,-145.6079 1430.2403,-87 1423.4216,-86.0842 1416.2757,-84.7785 1409.3077,-83.3087"/>
<polygon fill="#191970" stroke="#191970" points="1409.8079,-79.8341 1399.2847,-81.0642 1408.2782,-86.6649 1409.8079,-79.8341"/>
</g>
<!-- Node42&#45;&gt;Node13 -->
<g id="edge81" class="edge">
<title>Node42&#45;&gt;Node13</title>
<path fill="none" stroke="#191970" d="M2477.9114,-123.4832C2466.2552,-104.1066 2443.1101,-71.0981 2413.2403,-56 2372.9953,-35.6576 2077.1698,-18.7639 1954.4046,-12.5528"/>
<polygon fill="#191970" stroke="#191970" points="1954.2848,-9.0425 1944.122,-12.0371 1953.9341,-16.0337 1954.2848,-9.0425"/>
</g>
<!-- Node42&#45;&gt;Node16 -->
<g id="edge80" class="edge">
<title>Node42&#45;&gt;Node16</title>
<path fill="none" stroke="#191970" d="M2461.1066,-123.4752C2426.9559,-103.927 2363.3592,-70.5556 2304.2403,-56 2232.5295,-38.3442 1730.9676,-18.4556 1558.9669,-12.0817"/>
<polygon fill="#191970" stroke="#191970" points="1558.9672,-8.5794 1548.8448,-11.7081 1558.7089,-15.5747 1558.9672,-8.5794"/>
</g>
<!-- Node42&#45;&gt;Node29 -->
<g id="edge77" class="edge">
<title>Node42&#45;&gt;Node29</title>
<path fill="none" stroke="#191970" d="M2543.5055,-123.6682C2581.7466,-113.6339 2633.1137,-99.9058 2678.2403,-87 2681.6352,-86.0291 2685.1511,-85.0033 2688.6765,-83.9605"/>
<polygon fill="#191970" stroke="#191970" points="2689.9671,-87.2277 2698.5443,-81.0082 2687.9606,-80.5214 2689.9671,-87.2277"/>
</g>
<!-- Node42&#45;&gt;Node32 -->
<g id="edge79" class="edge">
<title>Node42&#45;&gt;Node32</title>
<path fill="none" stroke="#191970" d="M2432.8285,-123.4639C2390.2505,-111.4776 2331.3813,-94.9052 2291.6677,-83.7254"/>
<polygon fill="#191970" stroke="#191970" points="2292.5797,-80.3461 2282.0054,-81.0053 2290.6828,-87.0842 2292.5797,-80.3461"/>
</g>
<!-- Node42&#45;&gt;Node40 -->
<g id="edge78" class="edge">
<title>Node42&#45;&gt;Node40</title>
<path fill="none" stroke="#191970" d="M2429.1112,-124.4977C2426.1194,-123.9481 2423.1492,-123.4434 2420.2403,-123 2199.9872,-89.4253 2142.1145,-107.2623 1920.2403,-87 1895.8448,-84.7721 1869.1043,-81.9144 1845.5896,-79.2609"/>
<polygon fill="#191970" stroke="#191970" points="1845.712,-75.7523 1835.3804,-78.099 1844.9204,-82.7074 1845.712,-75.7523"/>
</g>
<!-- Node43 -->
<g id="node37" class="node">
<title>Node43</title>
<polygon fill="#ffffff" stroke="#bfbfbf" points="2579.2403,-62 2579.2403,-81 2669.2403,-81 2669.2403,-62 2579.2403,-62"/>
<text text-anchor="middle" x="2624.2403" y="-69" font-family="Helvetica,sans-Serif" font-size="10.00" fill="#000000">AMReX_Array.H</text>
</g>
<!-- Node42&#45;&gt;Node43 -->
<g id="edge75" class="edge">
<title>Node42&#45;&gt;Node43</title>
<path fill="none" stroke="#191970" d="M2517.2102,-123.4639C2540.5734,-112.1209 2572.3962,-96.6707 2595.2598,-85.5703"/>
<polygon fill="#191970" stroke="#191970" points="2596.9919,-88.62 2604.4591,-81.1039 2593.9346,-82.323 2596.9919,-88.62"/>
</g>
<!-- Node44 -->
<g id="node38" class="node">
<title>Node44</title>
<polygon fill="#ffffff" stroke="#bfbfbf" points="2465.7403,-62 2465.7403,-81 2560.7403,-81 2560.7403,-62 2465.7403,-62"/>
<text text-anchor="middle" x="2513.2403" y="-69" font-family="Helvetica,sans-Serif" font-size="10.00" fill="#000000">AMReX_Array4.H</text>
</g>
<!-- Node42&#45;&gt;Node44 -->
<g id="edge76" class="edge">
<title>Node42&#45;&gt;Node44</title>
<path fill="none" stroke="#191970" d="M2492.367,-123.2967C2496.2879,-113.5672 2501.4057,-100.8675 2505.5923,-90.4784"/>
<polygon fill="#191970" stroke="#191970" points="2508.8983,-91.6384 2509.3898,-81.055 2502.4057,-89.0219 2508.8983,-91.6384"/>
</g>
<!-- Node45&#45;&gt;Node27 -->
<g id="edge84" class="edge">
<title>Node45&#45;&gt;Node27</title>
<path fill="none" stroke="#191970" d="M1228.4114,-324.4639C1254.6899,-314.6278 1289.2193,-301.7034 1317.2675,-291.2049"/>
<polygon fill="#191970" stroke="#191970" points="1318.7555,-294.3852 1326.894,-287.6017 1316.3016,-287.8293 1318.7555,-294.3852"/>
</g>
<!-- Node45&#45;&gt;Node30 -->
<g id="edge83" class="edge">
<title>Node45&#45;&gt;Node30</title>
<path fill="none" stroke="#191970" d="M1131.0265,-336.8794C1059.927,-332.2845 944.7042,-319.9887 918.2403,-288 901.9274,-268.2814 921.3979,-240.2188 937.6911,-222.437"/>
<polygon fill="#191970" stroke="#191970" points="940.3874,-224.6833 944.8136,-215.0573 935.3506,-219.8221 940.3874,-224.6833"/>
</g>
<!-- Node46 -->
<g id="node40" class="node">
<title>Node46</title>
<g id="a_node40"><a xlink:href="_field_b_c_ops_8_h.html" target="_top" xlink:title="amr&#45;wind/core/FieldBCOps.H">
<polygon fill="#ffffff" stroke="#ff0000" points="1727.7403,-129 1727.7403,-148 1872.7403,-148 1872.7403,-129 1727.7403,-129"/>
<text text-anchor="middle" x="1800.2403" y="-136" font-family="Helvetica,sans-Serif" font-size="10.00" fill="#000000">amr&#45;wind/core/FieldBCOps.H</text>
</a>
</g>
</g>
<!-- Node45&#45;&gt;Node46 -->
<g id="edge85" class="edge">
<title>Node45&#45;&gt;Node46</title>
<path fill="none" stroke="#191970" d="M1209.8704,-324.4578C1224.2766,-314.3347 1243.554,-300.5867 1260.2403,-288 1277.9173,-274.666 1280.4684,-268.7425 1299.2403,-257 1357.7217,-220.418 1373.0835,-209.5343 1439.2403,-190 1559.5731,-154.469 1595.3437,-173.8001 1719.2403,-154 1726.9943,-152.7608 1735.1435,-151.3412 1743.1627,-149.8754"/>
<polygon fill="#191970" stroke="#191970" points="1744.0212,-153.2757 1753.2114,-148.0039 1742.7396,-146.394 1744.0212,-153.2757"/>
</g>
<!-- Node48 -->
<g id="node41" class="node">
<title>Node48</title>
<g id="a_node41"><a xlink:href="_m_o_data_8_h.html" target="_top" xlink:title="amr&#45;wind/wind_energy\l/MOData.H">
<polygon fill="#ffffff" stroke="#ff0000" points="927.2403,-257.5 927.2403,-287.5 1041.2403,-287.5 1041.2403,-257.5 927.2403,-257.5"/>
<text text-anchor="start" x="935.2403" y="-275.5" font-family="Helvetica,sans-Serif" font-size="10.00" fill="#000000">amr&#45;wind/wind_energy</text>
<text text-anchor="middle" x="984.2403" y="-264.5" font-family="Helvetica,sans-Serif" font-size="10.00" fill="#000000">/MOData.H</text>
</a>
</g>
</g>
<!-- Node45&#45;&gt;Node48 -->
<g id="edge90" class="edge">
<title>Node45&#45;&gt;Node48</title>
<path fill="none" stroke="#191970" d="M1142.4587,-324.4639C1112.1178,-314.499 1072.1254,-301.3642 1039.9402,-290.7936"/>
<polygon fill="#191970" stroke="#191970" points="1040.8144,-287.3968 1030.2216,-287.6017 1038.6302,-294.0473 1040.8144,-287.3968"/>
</g>
<!-- Node46&#45;&gt;Node5 -->
<g id="edge86" class="edge">
<title>Node46&#45;&gt;Node5</title>
<path fill="none" stroke="#191970" d="M1754.9665,-128.979C1743.3605,-126.7745 1730.8703,-124.6068 1719.2403,-123 1533.652,-97.3595 1473.3269,-156.241 1299.2403,-87 1278.6659,-78.8168 1280.8984,-63.9697 1260.2403,-56 1231.9367,-45.0807 828.3294,-23.7735 643.0348,-14.4962"/>
<polygon fill="#191970" stroke="#191970" points="643.1948,-11 633.0326,-13.9965 642.8455,-17.9912 643.1948,-11"/>
</g>
<!-- Node46&#45;&gt;Node9 -->
<g id="edge87" class="edge">
<title>Node46&#45;&gt;Node9</title>
<path fill="none" stroke="#191970" d="M1753.2164,-128.9645C1742.1003,-126.8595 1730.2716,-124.7406 1719.2403,-123 1591.3851,-102.8256 1557.6484,-109.829 1430.2403,-87 1424.3027,-85.9361 1418.0973,-84.677 1411.9693,-83.3434"/>
<polygon fill="#191970" stroke="#191970" points="1412.3151,-79.8336 1401.7903,-81.0502 1410.7766,-86.6625 1412.3151,-79.8336"/>
</g>
<!-- Node46&#45;&gt;Node13 -->
<g id="edge88" class="edge">
<title>Node46&#45;&gt;Node13</title>
<path fill="none" stroke="#191970" d="M1808.8828,-128.7982C1817.9092,-118.5708 1832.3782,-101.9073 1844.2403,-87 1859.9963,-67.1994 1877.1566,-43.738 1888.4873,-27.9604"/>
<polygon fill="#191970" stroke="#191970" points="1891.4634,-29.8155 1894.4302,-19.6445 1885.7683,-25.7454 1891.4634,-29.8155"/>
</g>
<!-- Node46&#45;&gt;Node40 -->
<g id="edge89" class="edge">
<title>Node46&#45;&gt;Node40</title>
<path fill="none" stroke="#191970" d="M1797.3748,-128.9005C1794.4342,-119.0495 1789.7762,-103.4451 1786.0586,-90.9912"/>
<polygon fill="#191970" stroke="#191970" points="1789.3147,-89.6627 1783.1005,-81.0817 1782.6072,-91.665 1789.3147,-89.6627"/>
</g>
<!-- Node51&#45;&gt;Node9 -->
<g id="edge92" class="edge">
<title>Node51&#45;&gt;Node9</title>
<path fill="none" stroke="#191970" d="M1206.0931,-257.3923C1237.1437,-220.8943 1316.1185,-128.0643 1349.2502,-89.12"/>
<polygon fill="#191970" stroke="#191970" points="1352.1263,-91.1407 1355.9403,-81.2562 1346.7946,-86.6049 1352.1263,-91.1407"/>
</g>
<!-- Node51&#45;&gt;Node13 -->
<g id="edge94" class="edge">
<title>Node51&#45;&gt;Node13</title>
<path fill="none" stroke="#191970" d="M1229.1568,-257.3772C1276.4065,-238.2033 1362.4591,-205.7509 1439.2403,-190 1487.6174,-180.076 1846.4565,-188.0345 1882.2403,-154 1915.9263,-121.9608 1910.9479,-61.3864 1905.5235,-29.9925"/>
<polygon fill="#191970" stroke="#191970" points="1908.8995,-29.0135 1903.5756,-19.8535 1902.0252,-30.3342 1908.8995,-29.0135"/>
</g>
<!-- Node51&#45;&gt;Node30 -->
<g id="edge93" class="edge">
<title>Node51&#45;&gt;Node30</title>
<path fill="none" stroke="#191970" d="M1139.8285,-257.4639C1097.2505,-245.4776 1038.3813,-228.9052 998.6677,-217.7254"/>
<polygon fill="#191970" stroke="#191970" points="999.5797,-214.3461 989.0054,-215.0053 997.6828,-221.0842 999.5797,-214.3461"/>
</g>
<!-- Node52 -->
<g id="node43" class="node">
<title>Node52</title>
<g id="a_node43"><a xlink:href="nc__interface_8_h.html" target="_top" xlink:title="Interface to NetCDF library. ">
<polygon fill="#ffffff" stroke="#ff0000" points="1135.7403,-56.5 1135.7403,-86.5 1250.7403,-86.5 1250.7403,-56.5 1135.7403,-56.5"/>
<text text-anchor="start" x="1143.7403" y="-74.5" font-family="Helvetica,sans-Serif" font-size="10.00" fill="#000000">amr&#45;wind/utilities</text>
<text text-anchor="middle" x="1193.2403" y="-63.5" font-family="Helvetica,sans-Serif" font-size="10.00" fill="#000000">/ncutils/nc_interface.H</text>
</a>
</g>
</g>
<!-- Node51&#45;&gt;Node52 -->
<g id="edge95" class="edge">
<title>Node51&#45;&gt;Node52</title>
<path fill="none" stroke="#191970" d="M1193.2403,-257.3923C1193.2403,-223.0414 1193.2403,-138.7914 1193.2403,-96.5301"/>
<polygon fill="#191970" stroke="#191970" points="1196.7404,-96.5088 1193.2403,-86.5088 1189.7404,-96.5088 1196.7404,-96.5088"/>
</g>
<!-- Node52&#45;&gt;Node3 -->
<g id="edge96" class="edge">
<title>Node52&#45;&gt;Node3</title>
<path fill="none" stroke="#191970" d="M1135.5673,-57.8011C1132.418,-57.1645 1129.2937,-56.5591 1126.2403,-56 1013.4924,-35.3544 878.0813,-19.6945 818.252,-13.2363"/>
<polygon fill="#191970" stroke="#191970" points="818.2981,-9.7214 807.9827,-12.1384 817.5539,-16.6817 818.2981,-9.7214"/>
</g>
<!-- Node52&#45;&gt;Node4 -->
<g id="edge97" class="edge">
<title>Node52&#45;&gt;Node4</title>
<path fill="none" stroke="#191970" d="M1238.741,-56.4554C1270.0479,-46.104 1311.1712,-32.5067 1340.8293,-22.7004"/>
<polygon fill="#191970" stroke="#191970" points="1342.0212,-25.9927 1350.4169,-19.5303 1339.8237,-19.3466 1342.0212,-25.9927"/>
</g>
<!-- Node56&#45;&gt;Node10 -->
<g id="edge101" class="edge">
<title>Node56&#45;&gt;Node10</title>
<path fill="none" stroke="#191970" d="M1540.4192,-405.25C1743.8259,-400.0897 2430.7467,-376.3567 2629.2403,-288 2714.6041,-250.0015 2745.3049,-235.3683 2791.2403,-154 2812.7638,-115.8742 2830.545,-88.5281 2801.2403,-56 2774.3937,-26.2004 2498.4031,-14.4048 2397.732,-11.0726"/>
<polygon fill="#191970" stroke="#191970" points="2397.5538,-7.5651 2387.4463,-10.7416 2397.3285,-14.5615 2397.5538,-7.5651"/>
</g>
<!-- Node56&#45;&gt;Node27 -->
<g id="edge103" class="edge">
<title>Node56&#45;&gt;Node27</title>
<path fill="none" stroke="#191970" d="M1426.1128,-394.4229C1387.9539,-385.0645 1342.7271,-371.0201 1331.2403,-355 1318.1716,-336.7737 1331.0699,-313.0548 1344.9278,-295.7299"/>
<polygon fill="#191970" stroke="#191970" points="1347.8726,-297.6707 1351.6983,-287.7906 1342.5463,-293.1285 1347.8726,-297.6707"/>
</g>
<!-- Node56&#45;&gt;Node30 -->
<g id="edge102" class="edge">
<title>Node56&#45;&gt;Node30</title>
<path fill="none" stroke="#191970" d="M1425.8187,-404.0196C1292.4515,-396.8828 968.4279,-371.1575 907.2403,-288 891.1857,-266.1808 915.2091,-238.5859 934.6712,-221.4895"/>
<polygon fill="#191970" stroke="#191970" points="936.9228,-224.1691 942.3391,-215.0633 932.4266,-218.804 936.9228,-224.1691"/>
</g>
<!-- Node56&#45;&gt;Node45 -->
<g id="edge122" class="edge">
<title>Node56&#45;&gt;Node45</title>
<path fill="none" stroke="#191970" d="M1426.0116,-393.5023C1377.1591,-382.407 1306.8405,-366.4363 1255.3458,-354.7409"/>
<polygon fill="#191970" stroke="#191970" points="1255.8367,-351.2633 1245.3098,-352.4615 1254.2863,-358.0895 1255.8367,-351.2633"/>
</g>
<!-- Node57 -->
<g id="node45" class="node">
<title>Node57</title>
<g id="a_node45"><a xlink:href="_second_moment_averaging_8_h.html" target="_top" xlink:title="amr&#45;wind/utilities\l/SecondMomentAveraging.H">
<polygon fill="#ffffff" stroke="#000000" points="1489.2403,-324.5 1489.2403,-354.5 1631.2403,-354.5 1631.2403,-324.5 1489.2403,-324.5"/>
<text text-anchor="start" x="1497.2403" y="-342.5" font-family="Helvetica,sans-Serif" font-size="10.00" fill="#000000">amr&#45;wind/utilities</text>
<text text-anchor="middle" x="1560.2403" y="-331.5" font-family="Helvetica,sans-Serif" font-size="10.00" fill="#000000">/SecondMomentAveraging.H</text>
</a>
</g>
</g>
<!-- Node56&#45;&gt;Node57 -->
<g id="edge104" class="edge">
<title>Node56&#45;&gt;Node57</title>
<path fill="none" stroke="#191970" d="M1500.7128,-391.2967C1510.8531,-382.4733 1523.8007,-371.2072 1535.0293,-361.4368"/>
<polygon fill="#191970" stroke="#191970" points="1537.5905,-363.8478 1542.837,-354.6432 1532.9955,-358.567 1537.5905,-363.8478"/>
</g>
<!-- Node58 -->
<g id="node46" class="node">
<title>Node58</title>
<g id="a_node46"><a xlink:href="_third_moment_averaging_8_h.html" target="_top" xlink:title="amr&#45;wind/utilities\l/ThirdMomentAveraging.H">
<polygon fill="#ffffff" stroke="#000000" points="1339.7403,-324.5 1339.7403,-354.5 1470.7403,-354.5 1470.7403,-324.5 1339.7403,-324.5"/>
<text text-anchor="start" x="1347.7403" y="-342.5" font-family="Helvetica,sans-Serif" font-size="10.00" fill="#000000">amr&#45;wind/utilities</text>
<text text-anchor="middle" x="1405.2403" y="-331.5" font-family="Helvetica,sans-Serif" font-size="10.00" fill="#000000">/ThirdMomentAveraging.H</text>
</a>
</g>
</g>
<!-- Node56&#45;&gt;Node58 -->
<g id="edge109" class="edge">
<title>Node56&#45;&gt;Node58</title>
<path fill="none" stroke="#191970" d="M1465.5409,-391.2967C1455.2689,-382.4733 1442.1532,-371.2072 1430.7787,-361.4368"/>
<polygon fill="#191970" stroke="#191970" points="1432.736,-358.5041 1422.8697,-354.6432 1428.1748,-363.8141 1432.736,-358.5041"/>
</g>
<!-- Node59 -->
<g id="node47" class="node">
<title>Node59</title>
<g id="a_node47"><a xlink:href="_post_processing_8_h.html" target="_top" xlink:title="amr&#45;wind/utilities\l/PostProcessing.H">
<polygon fill="#ffffff" stroke="#000000" points="2311.7403,-123.5 2311.7403,-153.5 2410.7403,-153.5 2410.7403,-123.5 2311.7403,-123.5"/>
<text text-anchor="start" x="2319.7403" y="-141.5" font-family="Helvetica,sans-Serif" font-size="10.00" fill="#000000">amr&#45;wind/utilities</text>
<text text-anchor="middle" x="2361.2403" y="-130.5" font-family="Helvetica,sans-Serif" font-size="10.00" fill="#000000">/PostProcessing.H</text>
</a>
</g>
</g>
<!-- Node56&#45;&gt;Node59 -->
<g id="edge114" class="edge">
<title>Node56&#45;&gt;Node59</title>
<path fill="none" stroke="#191970" d="M1538.2073,-391.4582C1574.6065,-381.3925 1623.3625,-367.7092 1666.2403,-355 1904.6016,-284.3487 2187.0256,-194.4374 2305.0425,-156.5855"/>
<polygon fill="#191970" stroke="#191970" points="2306.1489,-159.9063 2314.6013,-153.5182 2304.0101,-153.241 2306.1489,-159.9063"/>
</g>
<!-- Node60 -->
<g id="node48" class="node">
<title>Node60</title>
<g id="a_node48"><a xlink:href="_sampler_base_8_h.html" target="_top" xlink:title="amr&#45;wind/utilities\l/sampling/SamplerBase.H">
<polygon fill="#ffffff" stroke="#000000" points="1433.7403,-123.5 1433.7403,-153.5 1564.7403,-153.5 1564.7403,-123.5 1433.7403,-123.5"/>
<text text-anchor="start" x="1441.7403" y="-141.5" font-family="Helvetica,sans-Serif" font-size="10.00" fill="#000000">amr&#45;wind/utilities</text>
<text text-anchor="middle" x="1499.2403" y="-130.5" font-family="Helvetica,sans-Serif" font-size="10.00" fill="#000000">/sampling/SamplerBase.H</text>
</a>
</g>
</g>
<!-- Node56&#45;&gt;Node60 -->
<g id="edge117" class="edge">
<title>Node56&#45;&gt;Node60</title>
<path fill="none" stroke="#191970" d="M1540.5558,-395.0613C1580.2966,-385.8318 1628.1658,-371.6683 1640.2403,-355 1662.3561,-324.4703 1714.1295,-302.9863 1631.2403,-190 1622.5468,-178.1499 1593.2101,-166.1419 1564.3952,-156.7052"/>
<polygon fill="#191970" stroke="#191970" points="1565.2645,-153.3089 1554.6738,-153.6075 1563.1391,-159.9784 1565.2645,-153.3089"/>
</g>
<!-- Node61 -->
<g id="node49" class="node">
<title>Node61</title>
<g id="a_node49"><a xlink:href="_sampling_container_8_h.html" target="_top" xlink:title="amr&#45;wind/utilities\l/sampling/SamplingContainer.H">
<polygon fill="#ffffff" stroke="#ff0000" points="2464.7403,-257.5 2464.7403,-287.5 2619.7403,-287.5 2619.7403,-257.5 2464.7403,-257.5"/>
<text text-anchor="start" x="2472.7403" y="-275.5" font-family="Helvetica,sans-Serif" font-size="10.00" fill="#000000">amr&#45;wind/utilities</text>
<text text-anchor="middle" x="2542.2403" y="-264.5" font-family="Helvetica,sans-Serif" font-size="10.00" fill="#000000">/sampling/SamplingContainer.H</text>
</a>
</g>
</g>
<!-- Node56&#45;&gt;Node61 -->
<g id="edge120" class="edge">
<title>Node56&#45;&gt;Node61</title>
<path fill="none" stroke="#191970" d="M1540.5252,-402.9587C1644.6652,-396.1754 1871.8512,-379.7869 2062.2403,-355 2200.7191,-336.9714 2360.2994,-307.8679 2456.1192,-289.4828"/>
<polygon fill="#191970" stroke="#191970" points="2456.8904,-292.8987 2466.0489,-287.5721 2455.5677,-286.0248 2456.8904,-292.8987"/>
</g>
<!-- Node57&#45;&gt;Node9 -->
<g id="edge107" class="edge">
<title>Node57&#45;&gt;Node9</title>
<path fill="none" stroke="#191970" d="M1549.1409,-324.3233C1515.2919,-278.0399 1413.4793,-138.8268 1377.2301,-89.2616"/>
<polygon fill="#191970" stroke="#191970" points="1379.9841,-87.0981 1371.2558,-81.0926 1374.3339,-91.2304 1379.9841,-87.0981"/>
</g>
<!-- Node57&#45;&gt;Node21 -->
<g id="edge105" class="edge">
<title>Node57&#45;&gt;Node21</title>
<path fill="none" stroke="#191970" d="M1489.197,-325.3922C1486.1746,-324.9005 1483.1794,-324.4337 1480.2403,-324 1402.2337,-312.4892 1187.8212,-338.4727 1127.2403,-288 1096.5431,-262.4247 1074.7434,-139.9757 1067.1702,-91.4094"/>
<polygon fill="#191970" stroke="#191970" points="1070.5879,-90.6025 1065.6259,-81.2414 1063.6673,-91.6537 1070.5879,-90.6025"/>
</g>
<!-- Node57&#45;&gt;Node27 -->
<g id="edge108" class="edge">
<title>Node57&#45;&gt;Node27</title>
<path fill="none" stroke="#191970" d="M1516.9274,-324.4639C1488.3461,-314.5419 1450.7125,-301.4774 1420.3309,-290.9304"/>
<polygon fill="#191970" stroke="#191970" points="1421.337,-287.5748 1410.7422,-287.6017 1419.0413,-294.1877 1421.337,-287.5748"/>
</g>
<!-- Node57&#45;&gt;Node28 -->
<g id="edge106" class="edge">
<title>Node57&#45;&gt;Node28</title>
<path fill="none" stroke="#191970" d="M1561.2552,-324.389C1562.7812,-301.6691 1565.6848,-258.438 1567.5383,-230.8405"/>
<polygon fill="#191970" stroke="#191970" points="1571.0372,-230.9735 1568.2153,-220.7614 1564.0529,-230.5043 1571.0372,-230.9735"/>
</g>
<!-- Node58&#45;&gt;Node9 -->
<g id="edge112" class="edge">
<title>Node58&#45;&gt;Node9</title>
<path fill="none" stroke="#191970" d="M1417.4192,-324.2988C1424.427,-314.5503 1432.5538,-301.2728 1436.2403,-288 1439.9275,-274.7248 1439.0578,-270.4866 1436.2403,-257 1426.0244,-208.0997 1409.0298,-200.6813 1391.2403,-154 1383.1401,-132.7442 1375.2057,-107.8739 1370.0574,-91.0405"/>
<polygon fill="#191970" stroke="#191970" points="1373.3447,-89.8188 1367.1029,-81.2578 1366.6436,-91.8427 1373.3447,-89.8188"/>
</g>
<!-- Node58&#45;&gt;Node21 -->
<g id="edge110" class="edge">
<title>Node58&#45;&gt;Node21</title>
<path fill="none" stroke="#191970" d="M1339.6409,-332.8353C1253.2323,-323.4319 1110.1787,-305.4618 1093.2403,-288 1040.8859,-234.0275 1052.235,-133.7826 1060.014,-91.323"/>
<polygon fill="#191970" stroke="#191970" points="1063.4702,-91.8863 1061.9659,-81.3989 1056.6017,-90.5354 1063.4702,-91.8863"/>
</g>
<!-- Node58&#45;&gt;Node27 -->
<g id="edge113" class="edge">
<title>Node58&#45;&gt;Node27</title>
<path fill="none" stroke="#191970" d="M1396.6175,-324.2967C1391.9533,-316.0729 1386.0856,-305.7272 1380.823,-296.4483"/>
<polygon fill="#191970" stroke="#191970" points="1383.8069,-294.6148 1375.829,-287.6432 1377.718,-298.0683 1383.8069,-294.6148"/>
</g>
<!-- Node58&#45;&gt;Node28 -->
<g id="edge111" class="edge">
<title>Node58&#45;&gt;Node28</title>
<path fill="none" stroke="#191970" d="M1424.0519,-324.4618C1436.8291,-314.2232 1454.0931,-300.3418 1469.2403,-288 1494.3903,-267.508 1522.9214,-243.9375 1543.0529,-227.2516"/>
<polygon fill="#191970" stroke="#191970" points="1545.4018,-229.8507 1550.8648,-220.7729 1540.9332,-224.4626 1545.4018,-229.8507"/>
</g>
<!-- Node59&#45;&gt;Node10 -->
<g id="edge115" class="edge">
<title>Node59&#45;&gt;Node10</title>
<path fill="none" stroke="#191970" d="M2361.2403,-123.2548C2361.2403,-99.9744 2361.2403,-55.5607 2361.2403,-29.8117"/>
<polygon fill="#191970" stroke="#191970" points="2364.7404,-29.7358 2361.2403,-19.7358 2357.7404,-29.7358 2364.7404,-29.7358"/>
</g>
<!-- Node59&#45;&gt;Node23 -->
<g id="edge116" class="edge">
<title>Node59&#45;&gt;Node23</title>
<path fill="none" stroke="#191970" d="M2311.6485,-134.9212C2170.7664,-124.7008 1774.5555,-95.5666 1716.2403,-87 1709.0216,-85.9396 1701.4437,-84.5817 1694.0254,-83.1118"/>
<polygon fill="#191970" stroke="#191970" points="1694.5581,-79.6481 1684.0571,-81.0553 1693.1437,-86.5037 1694.5581,-79.6481"/>
</g>
<!-- Node60&#45;&gt;Node23 -->
<g id="edge118" class="edge">
<title>Node60&#45;&gt;Node23</title>
<path fill="none" stroke="#191970" d="M1531.7812,-123.4639C1556.4391,-112.0702 1590.0652,-96.5327 1614.1109,-85.4219"/>
<polygon fill="#191970" stroke="#191970" points="1615.8461,-88.4757 1623.4557,-81.1039 1612.9098,-82.1213 1615.8461,-88.4757"/>
</g>
<!-- Node60&#45;&gt;Node52 -->
<g id="edge119" class="edge">
<title>Node60&#45;&gt;Node52</title>
<path fill="none" stroke="#191970" d="M1433.5956,-124.1268C1382.641,-112.9701 1312.2466,-97.5569 1260.8105,-86.2948"/>
<polygon fill="#191970" stroke="#191970" points="1261.3047,-82.8201 1250.7875,-84.1002 1259.8074,-89.6581 1261.3047,-82.8201"/>
</g>
<!-- Node61&#45;&gt;Node10 -->
<g id="edge121" class="edge">
<title>Node61&#45;&gt;Node10</title>
<path fill="none" stroke="#191970" d="M2583.4168,-257.3914C2669.462,-223.6847 2854.4272,-138.7772 2780.2403,-56 2754.878,-27.7008 2494.829,-15.0409 2397.6306,-11.2719"/>
<polygon fill="#191970" stroke="#191970" points="2397.5322,-7.7657 2387.407,-10.8851 2397.2675,-14.7607 2397.5322,-7.7657"/>
</g>
</g>
</svg>
