<?xml version="1.0" encoding="UTF-8" standalone="no"?>
<!DOCTYPE svg PUBLIC "-//W3C//DTD SVG 1.1//EN"
 "http://www.w3.org/Graphics/SVG/1.1/DTD/svg11.dtd">
<!-- Generated by graphviz version 2.40.1 (20161225.0304)
 -->
<!-- Title: ABLForcing.H Pages: 1 -->
<svg width="262pt" height="84pt"
 viewBox="0.00 0.00 261.50 84.00" xmlns="http://www.w3.org/2000/svg" xmlns:xlink="http://www.w3.org/1999/xlink">
<g id="graph0" class="graph" transform="scale(1 1) rotate(0) translate(4 80)">
<title>ABLForcing.H</title>
<polygon fill="#ffffff" stroke="transparent" points="-4,4 -4,-80 257.5,-80 257.5,4 -4,4"/>
<!-- Node30 -->
<g id="node1" class="node">
<title>Node30</title>
<polygon fill="#bfbfbf" stroke="#000000" points="92,-56.5 92,-75.5 170,-75.5 170,-56.5 92,-56.5"/>
<text text-anchor="middle" x="131" y="-63.5" font-family="Helvetica,sans-Serif" font-size="10.00" fill="#000000">ABLForcing.H</text>
</g>
<!-- Node31 -->
<g id="node2" class="node">
<title>Node31</title>
<g id="a_node2"><a xlink:href="_a_b_l_forcing_8cpp.html" target="_top" xlink:title="ABLForcing.cpp">
<polygon fill="#ffffff" stroke="#000000" points="0,-.5 0,-19.5 86,-19.5 86,-.5 0,-.5"/>
<text text-anchor="middle" x="43" y="-7.5" font-family="Helvetica,sans-Serif" font-size="10.00" fill="#000000">ABLForcing.cpp</text>
</a>
</g>
</g>
<!-- Node30&#45;&gt;Node31 -->
<g id="edge1" class="edge">
<title>Node30&#45;&gt;Node31</title>
<path fill="none" stroke="#191970" d="M107.0655,-50.769C91.4717,-40.8456 71.599,-28.1994 58.1528,-19.6427"/>
<polygon fill="#191970" stroke="#191970" points="105.3559,-53.8296 115.6716,-56.2455 109.114,-47.9239 105.3559,-53.8296"/>
</g>
<!-- Node32 -->
<g id="node3" class="node">
<title>Node32</title>
<g id="a_node3"><a xlink:href="_a_b_l_8cpp.html" target="_top" xlink:title="ABL.cpp">
<polygon fill="#ffffff" stroke="#000000" points="104,-.5 104,-19.5 158,-19.5 158,-.5 104,-.5"/>
<text text-anchor="middle" x="131" y="-7.5" font-family="Helvetica,sans-Serif" font-size="10.00" fill="#000000">ABL.cpp</text>
</a>
</g>
</g>
<!-- Node30&#45;&gt;Node32 -->
<g id="edge2" class="edge">
<title>Node30&#45;&gt;Node32</title>
<path fill="none" stroke="#191970" d="M131,-46.1575C131,-37.155 131,-26.9199 131,-19.6427"/>
<polygon fill="#191970" stroke="#191970" points="127.5001,-46.2455 131,-56.2455 134.5001,-46.2456 127.5001,-46.2455"/>
</g>
<!-- Node33 -->
<g id="node4" class="node">
<title>Node33</title>
<g id="a_node4"><a xlink:href="_a_b_l_stats_8cpp.html" target="_top" xlink:title="ABLStats.cpp">
<polygon fill="#ffffff" stroke="#000000" points="176.5,-.5 176.5,-19.5 253.5,-19.5 253.5,-.5 176.5,-.5"/>
<text text-anchor="middle" x="215" y="-7.5" font-family="Helvetica,sans-Serif" font-size="10.00" fill="#000000">ABLStats.cpp</text>
</a>
</g>
</g>
<!-- Node30&#45;&gt;Node33 -->
<g id="edge3" class="edge">
<title>Node30&#45;&gt;Node33</title>
<path fill="none" stroke="#191970" d="M154.2649,-50.49C169.0856,-40.6096 187.8209,-28.1194 200.536,-19.6427"/>
<polygon fill="#191970" stroke="#191970" points="152.0107,-47.7863 145.6317,-56.2455 155.8937,-53.6107 152.0107,-47.7863"/>
</g>
</g>
</svg>
