<?xml version="1.0" encoding="UTF-8" standalone="no"?>
<!DOCTYPE svg PUBLIC "-//W3C//DTD SVG 1.1//EN"
 "http://www.w3.org/Graphics/SVG/1.1/DTD/svg11.dtd">
<!-- Generated by graphviz version 2.40.1 (20161225.0304)
 -->
<!-- Title: ABLFieldInit.cpp Pages: 1 -->
<svg width="1352pt" height="263pt"
 viewBox="0.00 0.00 1351.50 263.00" xmlns="http://www.w3.org/2000/svg" xmlns:xlink="http://www.w3.org/1999/xlink">
<g id="graph0" class="graph" transform="scale(1 1) rotate(0) translate(4 259)">
<title>ABLFieldInit.cpp</title>
<polygon fill="#ffffff" stroke="transparent" points="-4,4 -4,-259 1347.5,-259 1347.5,4 -4,4"/>
<!-- Node0 -->
<g id="node1" class="node">
<title>Node0</title>
<polygon fill="#bfbfbf" stroke="#000000" points="729.5,-235.5 729.5,-254.5 818.5,-254.5 818.5,-235.5 729.5,-235.5"/>
<text text-anchor="middle" x="774" y="-242.5" font-family="Helvetica,sans-Serif" font-size="10.00" fill="#000000">ABLFieldInit.cpp</text>
</g>
<!-- Node1 -->
<g id="node2" class="node">
<title>Node1</title>
<polygon fill="#ffffff" stroke="#bfbfbf" points="417,-174 417,-193 461,-193 461,-174 417,-174"/>
<text text-anchor="middle" x="439" y="-181" font-family="Helvetica,sans-Serif" font-size="10.00" fill="#000000">cmath</text>
</g>
<!-- Node0&#45;&gt;Node1 -->
<g id="edge1" class="edge">
<title>Node0&#45;&gt;Node1</title>
<path fill="none" stroke="#191970" d="M729.4731,-242.6285C669.3474,-238.4498 559.4291,-227.3424 470,-199 468.3437,-198.4751 466.6667,-197.8714 464.9947,-197.2134"/>
<polygon fill="#191970" stroke="#191970" points="466.2087,-193.9219 455.6523,-193.0207 463.3426,-200.3083 466.2087,-193.9219"/>
</g>
<!-- Node2 -->
<g id="node3" class="node">
<title>Node2</title>
<g id="a_node3"><a xlink:href="_a_b_l_field_init_8_h.html" target="_top" xlink:title="amr&#45;wind/wind_energy\l/ABLFieldInit.H">
<polygon fill="#ffffff" stroke="#000000" points="479,-168.5 479,-198.5 593,-198.5 593,-168.5 479,-168.5"/>
<text text-anchor="start" x="487" y="-186.5" font-family="Helvetica,sans-Serif" font-size="10.00" fill="#000000">amr&#45;wind/wind_energy</text>
<text text-anchor="middle" x="536" y="-175.5" font-family="Helvetica,sans-Serif" font-size="10.00" fill="#000000">/ABLFieldInit.H</text>
</a>
</g>
</g>
<!-- Node0&#45;&gt;Node2 -->
<g id="edge2" class="edge">
<title>Node0&#45;&gt;Node2</title>
<path fill="none" stroke="#191970" d="M737.0736,-235.4581C701.4613,-226.2557 646.7286,-212.1126 603.3538,-200.9044"/>
<polygon fill="#191970" stroke="#191970" points="603.9966,-197.4556 593.4389,-198.3424 602.2452,-204.233 603.9966,-197.4556"/>
</g>
<!-- Node10 -->
<g id="node11" class="node">
<title>Node10</title>
<polygon fill="#ffffff" stroke="#bfbfbf" points="1258.5,-56.5 1258.5,-75.5 1343.5,-75.5 1343.5,-56.5 1258.5,-56.5"/>
<text text-anchor="middle" x="1301" y="-63.5" font-family="Helvetica,sans-Serif" font-size="10.00" fill="#000000">AMReX_Gpu.H</text>
</g>
<!-- Node0&#45;&gt;Node10 -->
<g id="edge25" class="edge">
<title>Node0&#45;&gt;Node10</title>
<path fill="none" stroke="#191970" d="M800.7064,-235.4989C842.0572,-220.8228 924.1034,-191.8417 994,-168 1090.2271,-135.177 1203.8761,-97.7702 1262.1898,-78.6754"/>
<polygon fill="#191970" stroke="#191970" points="1263.3254,-81.9865 1271.7407,-75.5497 1261.1481,-75.3337 1263.3254,-81.9865"/>
</g>
<!-- Node20 -->
<g id="node21" class="node">
<title>Node20</title>
<polygon fill="#ffffff" stroke="#bfbfbf" points="1003,-174 1003,-193 1119,-193 1119,-174 1003,-174"/>
<text text-anchor="middle" x="1061" y="-181" font-family="Helvetica,sans-Serif" font-size="10.00" fill="#000000">AMReX_ParmParse.H</text>
</g>
<!-- Node0&#45;&gt;Node20 -->
<g id="edge26" class="edge">
<title>Node0&#45;&gt;Node20</title>
<path fill="none" stroke="#191970" d="M818.8882,-235.4133C862.3857,-226.1195 930.2189,-211.6153 989,-199 994.7664,-197.7624 1000.7922,-196.4677 1006.7968,-195.1764"/>
<polygon fill="#191970" stroke="#191970" points="1007.7922,-198.5425 1016.8325,-193.0175 1006.32,-191.699 1007.7922,-198.5425"/>
</g>
<!-- Node3 -->
<g id="node4" class="node">
<title>Node3</title>
<g id="a_node4"><a xlink:href="_field_8_h.html" target="_top" xlink:title="amr&#45;wind/core/Field.H">
<polygon fill="#ffffff" stroke="#000000" points="795.5,-112.5 795.5,-131.5 908.5,-131.5 908.5,-112.5 795.5,-112.5"/>
<text text-anchor="middle" x="852" y="-119.5" font-family="Helvetica,sans-Serif" font-size="10.00" fill="#000000">amr&#45;wind/core/Field.H</text>
</a>
</g>
</g>
<!-- Node2&#45;&gt;Node3 -->
<g id="edge3" class="edge">
<title>Node2&#45;&gt;Node3</title>
<path fill="none" stroke="#191970" d="M593.2252,-172.3628C649.7679,-161.3585 735.8625,-144.6027 793.0105,-133.4806"/>
<polygon fill="#191970" stroke="#191970" points="793.8313,-136.8866 802.9785,-131.5406 792.494,-130.0155 793.8313,-136.8866"/>
</g>
<!-- Node2&#45;&gt;Node10 -->
<g id="edge24" class="edge">
<title>Node2&#45;&gt;Node10</title>
<path fill="none" stroke="#191970" d="M593.0963,-181.155C668.758,-176.845 805.7651,-164.8432 918,-132 938.2288,-126.0805 940.7416,-117.8175 961,-112 1082.2503,-77.1811 1120.2666,-95.4759 1248.2721,-76.1587"/>
<polygon fill="#191970" stroke="#191970" points="1249.121,-79.5687 1258.4629,-74.5707 1248.0432,-72.6522 1249.121,-79.5687"/>
</g>
<!-- Node14 -->
<g id="node15" class="node">
<title>Node14</title>
<polygon fill="#ffffff" stroke="#bfbfbf" points="461.5,-.5 461.5,-19.5 556.5,-19.5 556.5,-.5 461.5,-.5"/>
<text text-anchor="middle" x="509" y="-7.5" font-family="Helvetica,sans-Serif" font-size="10.00" fill="#000000">AMReX_Vector.H</text>
</g>
<!-- Node2&#45;&gt;Node14 -->
<g id="edge23" class="edge">
<title>Node2&#45;&gt;Node14</title>
<path fill="none" stroke="#191970" d="M546.2196,-168.4187C555.1857,-153.1244 565.19,-129.3063 554,-112 532.8297,-79.2583 495.1703,-108.7417 474,-76 463.6391,-59.976 476.7473,-40.5712 489.7709,-26.9641"/>
<polygon fill="#191970" stroke="#191970" points="492.5209,-29.172 497.2512,-19.6917 487.6414,-24.1529 492.5209,-29.172"/>
</g>
<!-- Node15 -->
<g id="node16" class="node">
<title>Node15</title>
<polygon fill="#ffffff" stroke="#bfbfbf" points="0,-112.5 0,-131.5 90,-131.5 90,-112.5 0,-112.5"/>
<text text-anchor="middle" x="45" y="-119.5" font-family="Helvetica,sans-Serif" font-size="10.00" fill="#000000">AMReX_Array.H</text>
</g>
<!-- Node2&#45;&gt;Node15 -->
<g id="edge18" class="edge">
<title>Node2&#45;&gt;Node15</title>
<path fill="none" stroke="#191970" d="M478.8569,-169.586C475.8688,-169.0132 472.9032,-168.4795 470,-168 309.7438,-141.5291 264.7896,-154.5691 100.0247,-132.0302"/>
<polygon fill="#191970" stroke="#191970" points="100.4206,-128.5517 90.0337,-130.6403 99.456,-135.4849 100.4206,-128.5517"/>
</g>
<!-- Node16 -->
<g id="node17" class="node">
<title>Node16</title>
<polygon fill="#ffffff" stroke="#bfbfbf" points="108.5,-112.5 108.5,-131.5 203.5,-131.5 203.5,-112.5 108.5,-112.5"/>
<text text-anchor="middle" x="156" y="-119.5" font-family="Helvetica,sans-Serif" font-size="10.00" fill="#000000">AMReX_Array4.H</text>
</g>
<!-- Node2&#45;&gt;Node16 -->
<g id="edge19" class="edge">
<title>Node2&#45;&gt;Node16</title>
<path fill="none" stroke="#191970" d="M478.8304,-169.7362C475.8492,-169.1242 472.8924,-168.541 470,-168 359.729,-147.373 328.616,-149.8124 213.4785,-132.0206"/>
<polygon fill="#191970" stroke="#191970" points="213.9858,-128.5575 203.5653,-130.4712 212.9048,-135.4735 213.9858,-128.5575"/>
</g>
<!-- Node17 -->
<g id="node18" class="node">
<title>Node17</title>
<polygon fill="#ffffff" stroke="#bfbfbf" points="222,-112.5 222,-131.5 306,-131.5 306,-112.5 222,-112.5"/>
<text text-anchor="middle" x="264" y="-119.5" font-family="Helvetica,sans-Serif" font-size="10.00" fill="#000000">AMReX_Box.H</text>
</g>
<!-- Node2&#45;&gt;Node17 -->
<g id="edge20" class="edge">
<title>Node2&#45;&gt;Node17</title>
<path fill="none" stroke="#191970" d="M478.7715,-170.0195C475.8057,-169.3335 472.8682,-168.657 470,-168 417.697,-156.0191 357.8314,-142.6945 316.166,-133.483"/>
<polygon fill="#191970" stroke="#191970" points="316.765,-130.031 306.2454,-131.2914 315.255,-136.8662 316.765,-130.031"/>
</g>
<!-- Node18 -->
<g id="node19" class="node">
<title>Node18</title>
<polygon fill="#ffffff" stroke="#bfbfbf" points="324,-112.5 324,-131.5 434,-131.5 434,-112.5 324,-112.5"/>
<text text-anchor="middle" x="379" y="-119.5" font-family="Helvetica,sans-Serif" font-size="10.00" fill="#000000">AMReX_Geometry.H</text>
</g>
<!-- Node2&#45;&gt;Node18 -->
<g id="edge21" class="edge">
<title>Node2&#45;&gt;Node18</title>
<path fill="none" stroke="#191970" d="M497.5935,-168.4554C471.6274,-158.284 437.661,-144.9787 412.737,-135.2155"/>
<polygon fill="#191970" stroke="#191970" points="413.9171,-131.9188 403.3294,-131.5303 411.364,-138.4366 413.9171,-131.9188"/>
</g>
<!-- Node19 -->
<g id="node20" class="node">
<title>Node19</title>
<polygon fill="#ffffff" stroke="#bfbfbf" points="452.5,-112.5 452.5,-131.5 545.5,-131.5 545.5,-112.5 452.5,-112.5"/>
<text text-anchor="middle" x="499" y="-119.5" font-family="Helvetica,sans-Serif" font-size="10.00" fill="#000000">AMReX_REAL.H</text>
</g>
<!-- Node2&#45;&gt;Node19 -->
<g id="edge22" class="edge">
<title>Node2&#45;&gt;Node19</title>
<path fill="none" stroke="#191970" d="M526.8539,-168.2977C521.8249,-159.9388 515.5445,-149.4997 510.2209,-140.6509"/>
<polygon fill="#191970" stroke="#191970" points="513.0785,-138.6114 504.9242,-131.8469 507.0803,-142.2201 513.0785,-138.6114"/>
</g>
<!-- Node4 -->
<g id="node5" class="node">
<title>Node4</title>
<polygon fill="#ffffff" stroke="#bfbfbf" points="1034.5,-.5 1034.5,-19.5 1075.5,-19.5 1075.5,-.5 1034.5,-.5"/>
<text text-anchor="middle" x="1055" y="-7.5" font-family="Helvetica,sans-Serif" font-size="10.00" fill="#000000">string</text>
</g>
<!-- Node3&#45;&gt;Node4 -->
<g id="edge4" class="edge">
<title>Node3&#45;&gt;Node4</title>
<path fill="none" stroke="#191970" d="M902.6624,-112.4235C944.5844,-103.7024 1000.0572,-90.0723 1018,-76 1033.1378,-64.1276 1043.0648,-44.2388 1048.7887,-29.3913"/>
<polygon fill="#191970" stroke="#191970" points="1052.1964,-30.2525 1052.2281,-19.6577 1045.5963,-27.9202 1052.1964,-30.2525"/>
</g>
<!-- Node5 -->
<g id="node6" class="node">
<title>Node5</title>
<polygon fill="#ffffff" stroke="#bfbfbf" points="1087,-56.5 1087,-75.5 1139,-75.5 1139,-56.5 1087,-56.5"/>
<text text-anchor="middle" x="1113" y="-63.5" font-family="Helvetica,sans-Serif" font-size="10.00" fill="#000000">memory</text>
</g>
<!-- Node3&#45;&gt;Node5 -->
<g id="edge5" class="edge">
<title>Node3&#45;&gt;Node5</title>
<path fill="none" stroke="#191970" d="M900.8403,-112.414C945.7026,-103.4713 1013.9784,-89.5146 1073,-76 1074.256,-75.7124 1075.5331,-75.4158 1076.8221,-75.1129"/>
<polygon fill="#191970" stroke="#191970" points="1077.884,-78.4573 1086.7858,-72.712 1076.2441,-71.6521 1077.884,-78.4573"/>
</g>
<!-- Node6 -->
<g id="node7" class="node">
<title>Node6</title>
<polygon fill="#ffffff" stroke="#bfbfbf" points="1157.5,-56.5 1157.5,-75.5 1240.5,-75.5 1240.5,-56.5 1157.5,-56.5"/>
<text text-anchor="middle" x="1199" y="-63.5" font-family="Helvetica,sans-Serif" font-size="10.00" fill="#000000">unordered_map</text>
</g>
<!-- Node3&#45;&gt;Node6 -->
<g id="edge6" class="edge">
<title>Node3&#45;&gt;Node6</title>
<path fill="none" stroke="#191970" d="M908.5789,-113.885C966.0756,-105.4855 1057.9563,-91.6448 1147.2474,-76.078"/>
<polygon fill="#191970" stroke="#191970" points="1148.0308,-79.4941 1157.2764,-74.3202 1146.8223,-72.5992 1148.0308,-79.4941"/>
</g>
<!-- Node7 -->
<g id="node8" class="node">
<title>Node7</title>
<polygon fill="#ffffff" stroke="#bfbfbf" points="483,-56.5 483,-75.5 539,-75.5 539,-56.5 483,-56.5"/>
<text text-anchor="middle" x="511" y="-63.5" font-family="Helvetica,sans-Serif" font-size="10.00" fill="#000000">algorithm</text>
</g>
<!-- Node3&#45;&gt;Node7 -->
<g id="edge7" class="edge">
<title>Node3&#45;&gt;Node7</title>
<path fill="none" stroke="#191970" d="M795.2759,-114.6686C734.9591,-106.5476 636.8868,-92.4113 553,-76 551.7587,-75.7572 550.4985,-75.5029 549.2273,-75.2397"/>
<polygon fill="#191970" stroke="#191970" points="549.9153,-71.8075 539.3985,-73.0911 548.4203,-78.646 549.9153,-71.8075"/>
</g>
<!-- Node8 -->
<g id="node9" class="node">
<title>Node8</title>
<polygon fill="#ffffff" stroke="#bfbfbf" points="675,-.5 675,-19.5 779,-19.5 779,-.5 675,-.5"/>
<text text-anchor="middle" x="727" y="-7.5" font-family="Helvetica,sans-Serif" font-size="10.00" fill="#000000">AMReX_MultiFab.H</text>
</g>
<!-- Node3&#45;&gt;Node8 -->
<g id="edge8" class="edge">
<title>Node3&#45;&gt;Node8</title>
<path fill="none" stroke="#191970" d="M795.2991,-120.4045C725.5297,-117.1069 613.0792,-106.9962 587,-76 560.4571,-44.4527 616.0186,-27.0128 664.8028,-18.1021"/>
<polygon fill="#191970" stroke="#191970" points="665.5027,-21.5331 674.76,-16.3801 664.3098,-14.6355 665.5027,-21.5331"/>
</g>
<!-- Node9 -->
<g id="node10" class="node">
<title>Node9</title>
<polygon fill="#ffffff" stroke="#bfbfbf" points="595.5,-56.5 595.5,-75.5 694.5,-75.5 694.5,-56.5 595.5,-56.5"/>
<text text-anchor="middle" x="645" y="-63.5" font-family="Helvetica,sans-Serif" font-size="10.00" fill="#000000">AMReX_BCRec.H</text>
</g>
<!-- Node3&#45;&gt;Node9 -->
<g id="edge9" class="edge">
<title>Node3&#45;&gt;Node9</title>
<path fill="none" stroke="#191970" d="M816.4154,-112.3733C781.3984,-102.9001 727.8119,-88.4032 689.8875,-78.1435"/>
<polygon fill="#191970" stroke="#191970" points="690.6873,-74.7341 680.1202,-75.5011 688.8592,-81.4912 690.6873,-74.7341"/>
</g>
<!-- Node3&#45;&gt;Node10 -->
<g id="edge10" class="edge">
<title>Node3&#45;&gt;Node10</title>
<path fill="none" stroke="#191970" d="M908.5607,-113.8764C913.442,-113.223 918.3065,-112.5887 923,-112 1064.816,-94.2107 1103.7323,-97.905 1248.3327,-76.1565"/>
<polygon fill="#191970" stroke="#191970" points="1249.1092,-79.5788 1258.47,-74.6165 1248.0578,-72.6582 1249.1092,-79.5788"/>
</g>
<!-- Node11 -->
<g id="node12" class="node">
<title>Node11</title>
<g id="a_node12"><a xlink:href="incflo__enums_8_h.html" target="_top" xlink:title="amr&#45;wind/incflo_enums.H">
<polygon fill="#ffffff" stroke="#000000" points="713,-56.5 713,-75.5 841,-75.5 841,-56.5 713,-56.5"/>
<text text-anchor="middle" x="777" y="-63.5" font-family="Helvetica,sans-Serif" font-size="10.00" fill="#000000">amr&#45;wind/incflo_enums.H</text>
</a>
</g>
</g>
<!-- Node3&#45;&gt;Node11 -->
<g id="edge11" class="edge">
<title>Node3&#45;&gt;Node11</title>
<path fill="none" stroke="#191970" d="M838.936,-112.2455C827.6438,-103.814 811.1155,-91.4729 797.9729,-81.6598"/>
<polygon fill="#191970" stroke="#191970" points="800.0211,-78.8211 789.9143,-75.6427 795.8331,-84.4301 800.0211,-78.8211"/>
</g>
<!-- Node12 -->
<g id="node13" class="node">
<title>Node12</title>
<g id="a_node13"><a xlink:href="_field_desc_types_8_h.html" target="_top" xlink:title="amr&#45;wind/core/FieldDescTypes.H">
<polygon fill="#ffffff" stroke="#000000" points="847.5,-.5 847.5,-19.5 1010.5,-19.5 1010.5,-.5 847.5,-.5"/>
<text text-anchor="middle" x="929" y="-7.5" font-family="Helvetica,sans-Serif" font-size="10.00" fill="#000000">amr&#45;wind/core/FieldDescTypes.H</text>
</a>
</g>
</g>
<!-- Node3&#45;&gt;Node12 -->
<g id="edge12" class="edge">
<title>Node3&#45;&gt;Node12</title>
<path fill="none" stroke="#191970" d="M905.9203,-112.4286C944.0177,-104.4409 990.3007,-91.8249 1002,-76 1017.2878,-55.3212 989.3635,-36.1433 963.7555,-23.8498"/>
<polygon fill="#191970" stroke="#191970" points="965.0617,-20.5989 954.5101,-19.6421 962.162,-26.9701 965.0617,-20.5989"/>
</g>
<!-- Node13 -->
<g id="node14" class="node">
<title>Node13</title>
<g id="a_node14"><a xlink:href="_view_field_8_h.html" target="_top" xlink:title="amr&#45;wind/core/ViewField.H">
<polygon fill="#ffffff" stroke="#000000" points="859,-56.5 859,-75.5 993,-75.5 993,-56.5 859,-56.5"/>
<text text-anchor="middle" x="926" y="-63.5" font-family="Helvetica,sans-Serif" font-size="10.00" fill="#000000">amr&#45;wind/core/ViewField.H</text>
</a>
</g>
</g>
<!-- Node3&#45;&gt;Node13 -->
<g id="edge13" class="edge">
<title>Node3&#45;&gt;Node13</title>
<path fill="none" stroke="#191970" d="M864.8898,-112.2455C875.9254,-103.8943 892.0292,-91.7076 904.9353,-81.9408"/>
<polygon fill="#191970" stroke="#191970" points="907.3959,-84.4681 913.2579,-75.6427 903.1717,-78.8862 907.3959,-84.4681"/>
</g>
<!-- Node13&#45;&gt;Node4 -->
<g id="edge14" class="edge">
<title>Node13&#45;&gt;Node4</title>
<path fill="none" stroke="#191970" d="M948.1759,-56.3733C969.3548,-47.1793 1001.4339,-33.2535 1024.9117,-23.0616"/>
<polygon fill="#191970" stroke="#191970" points="1026.6109,-26.1396 1034.3901,-18.9469 1023.8234,-19.7185 1026.6109,-26.1396"/>
</g>
<!-- Node13&#45;&gt;Node8 -->
<g id="edge16" class="edge">
<title>Node13&#45;&gt;Node8</title>
<path fill="none" stroke="#191970" d="M891.7907,-56.3733C858.2703,-46.9404 807.0495,-32.5265 770.619,-22.2747"/>
<polygon fill="#191970" stroke="#191970" points="771.3372,-18.8409 760.7629,-19.5011 769.4409,-25.5792 771.3372,-18.8409"/>
</g>
<!-- Node13&#45;&gt;Node12 -->
<g id="edge15" class="edge">
<title>Node13&#45;&gt;Node12</title>
<path fill="none" stroke="#191970" d="M926.5226,-56.2455C926.914,-48.9382 927.4628,-38.6944 927.9444,-29.7046"/>
<polygon fill="#191970" stroke="#191970" points="931.4434,-29.8156 928.4834,-19.6427 924.4534,-29.4411 931.4434,-29.8156"/>
</g>
<!-- Node13&#45;&gt;Node14 -->
<g id="edge17" class="edge">
<title>Node13&#45;&gt;Node14</title>
<path fill="none" stroke="#191970" d="M858.5383,-56.9404C777.4666,-46.0531 642.8379,-27.9734 566.4879,-17.7202"/>
<polygon fill="#191970" stroke="#191970" points="566.9435,-14.25 556.5666,-16.3878 566.0118,-21.1878 566.9435,-14.25"/>
</g>
</g>
</svg>
