<?xml version="1.0" encoding="UTF-8" standalone="no"?>
<!DOCTYPE svg PUBLIC "-//W3C//DTD SVG 1.1//EN"
 "http://www.w3.org/Graphics/SVG/1.1/DTD/svg11.dtd">
<!-- Generated by graphviz version 2.40.1 (20161225.0304)
 -->
<!-- Title: ActuatorContainer.H Pages: 1 -->
<!--zoomable 330 -->
<svg id="main" version="1.1" xmlns="http://www.w3.org/2000/svg" xmlns:xlink="http://www.w3.org/1999/xlink" xml:space="preserve" onload="init(evt)">
<style type="text/css"><![CDATA[
.edge:hover path { stroke: red; }
.edge:hover polygon { stroke: red; fill: red; }
]]></style>
<script type="text/javascript"><![CDATA[
var edges = document.getElementsByTagName('g');
if (edges && edges.length) {
  for (var i=0;i<edges.length;i++) {
    if (edges[i].id.substr(0,4)=='edge') {
      edges[i].setAttribute('class','edge');
    }
  }
}
]]></script>
        <defs>
                <circle id="rim" cx="0" cy="0" r="7"/>
                <circle id="rim2" cx="0" cy="0" r="3.5"/>
                <g id="zoomPlus">
                        <use xlink:href="#rim" fill="#404040">
                                <set attributeName="fill" to="#808080" begin="zoomplus.mouseover" end="zoomplus.mouseout"/>
                        </use>
                        <path d="M-4,0h8M0,-4v8" fill="none" stroke="white" stroke-width="1.5" pointer-events="none"/>
                </g>
                <g id="zoomMin">
                        <use xlink:href="#rim" fill="#404040">
                                <set attributeName="fill" to="#808080" begin="zoomminus.mouseover" end="zoomminus.mouseout"/>
                        </use>
                        <path d="M-4,0h8" fill="none" stroke="white" stroke-width="1.5" pointer-events="none"/>
                </g>
                <g id="dirArrow">
                        <path fill="none" stroke="white" stroke-width="1.5" d="M0,-3.0v7 M-2.5,-0.5L0,-3.0L2.5,-0.5"/>
                </g>
               <g id="resetDef">
                       <use xlink:href="#rim2" fill="#404040">
                               <set attributeName="fill" to="#808080" begin="reset.mouseover" end="reset.mouseout"/>
                       </use>
               </g>
        </defs>

<script type="text/javascript">
var viewWidth = 539;
var viewHeight = 330;
var sectionId = 'dynsection-0';
</script>
<script xlink:href="svgpan.js"/>
<svg id="graph" class="graph">
<g id="viewport">
<title>ActuatorContainer.H</title>
<polygon fill="#ffffff" stroke="transparent" points="-4,4 -4,-326 535,-326 535,4 -4,4"/>
<!-- Node0 -->
<g id="node1" class="node">
<title>Node0</title>
<polygon fill="#bfbfbf" stroke="#000000" points="303.5,-302.5 303.5,-321.5 409.5,-321.5 409.5,-302.5 303.5,-302.5"/>
<text text-anchor="middle" x="356.5" y="-309.5" font-family="Helvetica,sans-Serif" font-size="10.00" fill="#000000">ActuatorContainer.H</text>
</g>
<!-- Node1 -->
<g id="node2" class="node">
<title>Node1</title>
<g id="a_node2"><a xlink:href="vector__space_8_h.html" target="_top" xlink:title="amr&#45;wind/core/vs/vector\l_space.H">
<polygon fill="#ffffff" stroke="#000000" points="225.5,-235.5 225.5,-265.5 347.5,-265.5 347.5,-235.5 225.5,-235.5"/>
<text text-anchor="start" x="233.5" y="-253.5" font-family="Helvetica,sans-Serif" font-size="10.00" fill="#000000">amr&#45;wind/core/vs/vector</text>
<text text-anchor="middle" x="286.5" y="-242.5" font-family="Helvetica,sans-Serif" font-size="10.00" fill="#000000">_space.H</text>
</a>
</g>
</g>
<!-- Node0&#45;&gt;Node1 -->
<g id="edge1" class="edge">
<title>Node0&#45;&gt;Node1</title>
<path fill="none" stroke="#191970" d="M345.5625,-302.3906C336.4397,-294.3756 323.0897,-282.6466 311.3888,-272.3666"/>
<polygon fill="#191970" stroke="#191970" points="313.4465,-269.5155 303.6239,-265.5446 308.8263,-274.7742 313.4465,-269.5155"/>
</g>
<!-- Node13 -->
<g id="node14" class="node">
<title>Node13</title>
<polygon fill="#ffffff" stroke="#bfbfbf" points="366,-241 366,-260 489,-260 489,-241 366,-241"/>
<text text-anchor="middle" x="427.5" y="-248" font-family="Helvetica,sans-Serif" font-size="10.00" fill="#000000">AMReX_AmrParticles.H</text>
</g>
<!-- Node0&#45;&gt;Node13 -->
<g id="edge22" class="edge">
<title>Node0&#45;&gt;Node13</title>
<path fill="none" stroke="#191970" d="M367.5938,-302.3906C378.4715,-292.9683 395.2748,-278.4134 408.32,-267.1137"/>
<polygon fill="#191970" stroke="#191970" points="410.9827,-269.4377 416.2498,-260.2449 406.3996,-264.1466 410.9827,-269.4377"/>
</g>
<!-- Node2 -->
<g id="node3" class="node">
<title>Node2</title>
<g id="a_node3"><a xlink:href="vector_8_h.html" target="_top" xlink:title="amr&#45;wind/core/vs/vector.H">
<polygon fill="#ffffff" stroke="#000000" points="125.5,-123.5 125.5,-142.5 257.5,-142.5 257.5,-123.5 125.5,-123.5"/>
<text text-anchor="middle" x="191.5" y="-130.5" font-family="Helvetica,sans-Serif" font-size="10.00" fill="#000000">amr&#45;wind/core/vs/vector.H</text>
</a>
</g>
</g>
<!-- Node1&#45;&gt;Node2 -->
<g id="edge2" class="edge">
<title>Node1&#45;&gt;Node2</title>
<path fill="none" stroke="#191970" d="M274.0804,-235.1389C256.4199,-213.2957 224.1415,-173.3724 205.6024,-150.4424"/>
<polygon fill="#191970" stroke="#191970" points="208.2379,-148.1353 199.2289,-142.5595 202.7945,-152.5363 208.2379,-148.1353"/>
</g>
<!-- Node10 -->
<g id="node11" class="node">
<title>Node10</title>
<g id="a_node11"><a xlink:href="tensor_8_h.html" target="_top" xlink:title="amr&#45;wind/core/vs/tensor.H">
<polygon fill="#ffffff" stroke="#000000" points="267.5,-179.5 267.5,-198.5 399.5,-198.5 399.5,-179.5 267.5,-179.5"/>
<text text-anchor="middle" x="333.5" y="-186.5" font-family="Helvetica,sans-Serif" font-size="10.00" fill="#000000">amr&#45;wind/core/vs/tensor.H</text>
</a>
</g>
</g>
<!-- Node1&#45;&gt;Node10 -->
<g id="edge11" class="edge">
<title>Node1&#45;&gt;Node10</title>
<path fill="none" stroke="#191970" d="M298.118,-235.2977C304.71,-226.672 312.9948,-215.8312 319.8901,-206.8087"/>
<polygon fill="#191970" stroke="#191970" points="322.6835,-208.9176 325.9747,-198.8469 317.1217,-204.6671 322.6835,-208.9176"/>
</g>
<!-- Node3 -->
<g id="node4" class="node">
<title>Node3</title>
<polygon fill="#ffffff" stroke="#bfbfbf" points="446,-.5 446,-19.5 531,-19.5 531,-.5 446,-.5"/>
<text text-anchor="middle" x="488.5" y="-7.5" font-family="Helvetica,sans-Serif" font-size="10.00" fill="#000000">AMReX_Gpu.H</text>
</g>
<!-- Node2&#45;&gt;Node3 -->
<g id="edge3" class="edge">
<title>Node2&#45;&gt;Node3</title>
<path fill="none" stroke="#191970" d="M214.1319,-123.4457C248.8208,-108.8201 317.2433,-80.0465 375.5,-56 402.2765,-44.9475 432.6935,-32.5758 455.2193,-23.4488"/>
<polygon fill="#191970" stroke="#191970" points="456.7083,-26.622 464.6638,-19.6248 454.0812,-20.1336 456.7083,-26.622"/>
</g>
<!-- Node4 -->
<g id="node5" class="node">
<title>Node4</title>
<g id="a_node5"><a xlink:href="vstraits_8_h.html" target="_top" xlink:title="amr&#45;wind/core/vs/vstraits.H">
<polygon fill="#ffffff" stroke="#000000" points="153,-62 153,-81 290,-81 290,-62 153,-62"/>
<text text-anchor="middle" x="221.5" y="-69" font-family="Helvetica,sans-Serif" font-size="10.00" fill="#000000">amr&#45;wind/core/vs/vstraits.H</text>
</a>
</g>
</g>
<!-- Node2&#45;&gt;Node4 -->
<g id="edge4" class="edge">
<title>Node2&#45;&gt;Node4</title>
<path fill="none" stroke="#191970" d="M196.1875,-123.3906C200.4773,-114.5965 206.9482,-101.3312 212.2734,-90.4145"/>
<polygon fill="#191970" stroke="#191970" points="215.5078,-91.7671 216.7464,-81.2449 209.2164,-88.6981 215.5078,-91.7671"/>
</g>
<!-- Node7 -->
<g id="node8" class="node">
<title>Node7</title>
<g id="a_node8"><a xlink:href="vector_i_8_h.html" target="_top" xlink:title="amr&#45;wind/core/vs/vectorI.H">
<polygon fill="#ffffff" stroke="#000000" points="0,-62 0,-81 135,-81 135,-62 0,-62"/>
<text text-anchor="middle" x="67.5" y="-69" font-family="Helvetica,sans-Serif" font-size="10.00" fill="#000000">amr&#45;wind/core/vs/vectorI.H</text>
</a>
</g>
</g>
<!-- Node2&#45;&gt;Node7 -->
<g id="edge7" class="edge">
<title>Node2&#45;&gt;Node7</title>
<path fill="none" stroke="#191970" d="M167.0625,-123.3906C144.8062,-113.3262 112.4565,-97.4057 90.6242,-85.8514"/>
<polygon fill="#191970" stroke="#191970" points="92.154,-82.7 81.6897,-81.0419 88.836,-88.8637 92.154,-82.7"/>
</g>
<!-- Node5 -->
<g id="node6" class="node">
<title>Node5</title>
<polygon fill="#ffffff" stroke="#bfbfbf" points="201.5,-.5 201.5,-19.5 241.5,-19.5 241.5,-.5 201.5,-.5"/>
<text text-anchor="middle" x="221.5" y="-7.5" font-family="Helvetica,sans-Serif" font-size="10.00" fill="#000000">limits</text>
</g>
<!-- Node4&#45;&gt;Node5 -->
<g id="edge5" class="edge">
<title>Node4&#45;&gt;Node5</title>
<path fill="none" stroke="#191970" d="M221.5,-61.8906C221.5,-53.3657 221.5,-40.6392 221.5,-29.9235"/>
<polygon fill="#191970" stroke="#191970" points="225.0001,-29.7448 221.5,-19.7449 218.0001,-29.7449 225.0001,-29.7448"/>
</g>
<!-- Node6 -->
<g id="node7" class="node">
<title>Node6</title>
<polygon fill="#ffffff" stroke="#bfbfbf" points="335,-.5 335,-19.5 428,-19.5 428,-.5 335,-.5"/>
<text text-anchor="middle" x="381.5" y="-7.5" font-family="Helvetica,sans-Serif" font-size="10.00" fill="#000000">AMReX_REAL.H</text>
</g>
<!-- Node4&#45;&gt;Node6 -->
<g id="edge6" class="edge">
<title>Node4&#45;&gt;Node6</title>
<path fill="none" stroke="#191970" d="M246.5,-61.8906C273.5058,-51.5103 316.7185,-34.9004 346.9594,-23.2766"/>
<polygon fill="#191970" stroke="#191970" points="348.5971,-26.3968 356.6756,-19.5419 346.0856,-19.8628 348.5971,-26.3968"/>
</g>
<!-- Node7&#45;&gt;Node2 -->
<g id="edge10" class="edge">
<title>Node7&#45;&gt;Node2</title>
<path fill="none" stroke="#191970" d="M91.7882,-81.0419C113.9992,-91.0801 146.3498,-106.9972 168.229,-118.571"/>
<polygon fill="#191970" stroke="#191970" points="166.7228,-121.735 177.1875,-123.3906 170.0393,-115.5705 166.7228,-121.735"/>
</g>
<!-- Node8 -->
<g id="node9" class="node">
<title>Node8</title>
<polygon fill="#ffffff" stroke="#bfbfbf" points="41.5,-.5 41.5,-19.5 93.5,-19.5 93.5,-.5 41.5,-.5"/>
<text text-anchor="middle" x="67.5" y="-7.5" font-family="Helvetica,sans-Serif" font-size="10.00" fill="#000000">ostream</text>
</g>
<!-- Node7&#45;&gt;Node8 -->
<g id="edge8" class="edge">
<title>Node7&#45;&gt;Node8</title>
<path fill="none" stroke="#191970" d="M67.5,-61.8906C67.5,-53.3657 67.5,-40.6392 67.5,-29.9235"/>
<polygon fill="#191970" stroke="#191970" points="71.0001,-29.7448 67.5,-19.7449 64.0001,-29.7449 71.0001,-29.7448"/>
</g>
<!-- Node9 -->
<g id="node10" class="node">
<title>Node9</title>
<polygon fill="#ffffff" stroke="#bfbfbf" points="272.5,-.5 272.5,-19.5 316.5,-19.5 316.5,-.5 272.5,-.5"/>
<text text-anchor="middle" x="294.5" y="-7.5" font-family="Helvetica,sans-Serif" font-size="10.00" fill="#000000">cmath</text>
</g>
<!-- Node7&#45;&gt;Node9 -->
<g id="edge9" class="edge">
<title>Node7&#45;&gt;Node9</title>
<path fill="none" stroke="#191970" d="M102.9688,-61.8906C146.7435,-50.031 220.5324,-30.0397 262.5975,-18.6432"/>
<polygon fill="#191970" stroke="#191970" points="263.5842,-22.0021 272.321,-16.0089 261.7537,-15.2457 263.5842,-22.0021"/>
</g>
<!-- Node10&#45;&gt;Node2 -->
<g id="edge14" class="edge">
<title>Node10&#45;&gt;Node2</title>
<path fill="none" stroke="#191970" d="M309.0893,-179.3733C285.8858,-170.2226 250.7962,-156.3844 224.9858,-146.2057"/>
<polygon fill="#191970" stroke="#191970" points="226.1789,-142.9139 215.5921,-142.5011 223.6108,-149.4258 226.1789,-142.9139"/>
</g>
<!-- Node10&#45;&gt;Node3 -->
<g id="edge12" class="edge">
<title>Node10&#45;&gt;Node3</title>
<path fill="none" stroke="#191970" d="M386.2449,-179.4701C410.6906,-172.7687 438.6521,-161.5559 458.5,-143 489.7923,-113.7447 491.834,-59.3843 490.3431,-30.0351"/>
<polygon fill="#191970" stroke="#191970" points="493.8154,-29.5167 489.6228,-19.7868 486.8326,-30.0076 493.8154,-29.5167"/>
</g>
<!-- Node10&#45;&gt;Node4 -->
<g id="edge13" class="edge">
<title>Node10&#45;&gt;Node4</title>
<path fill="none" stroke="#191970" d="M324.3346,-179.3845C305.3835,-159.5028 261.6681,-113.6406 237.7908,-88.5908"/>
<polygon fill="#191970" stroke="#191970" points="240.2252,-86.072 230.7921,-81.2484 235.1583,-90.9017 240.2252,-86.072"/>
</g>
<!-- Node11 -->
<g id="node12" class="node">
<title>Node11</title>
<g id="a_node12"><a xlink:href="tensor_i_8_h.html" target="_top" xlink:title="amr&#45;wind/core/vs/tensorI.H">
<polygon fill="#ffffff" stroke="#000000" points="314,-123.5 314,-142.5 449,-142.5 449,-123.5 314,-123.5"/>
<text text-anchor="middle" x="381.5" y="-130.5" font-family="Helvetica,sans-Serif" font-size="10.00" fill="#000000">amr&#45;wind/core/vs/tensorI.H</text>
</a>
</g>
</g>
<!-- Node10&#45;&gt;Node11 -->
<g id="edge15" class="edge">
<title>Node10&#45;&gt;Node11</title>
<path fill="none" stroke="#191970" d="M336.5941,-179.2455C341.9797,-171.1352 351.7062,-159.4075 360.8626,-149.7919"/>
<polygon fill="#191970" stroke="#191970" points="363.4083,-152.1958 367.9897,-142.6427 358.4509,-147.2536 363.4083,-152.1958"/>
</g>
<!-- Node11&#45;&gt;Node9 -->
<g id="edge16" class="edge">
<title>Node11&#45;&gt;Node9</title>
<path fill="none" stroke="#191970" d="M374.6733,-123.3484C360.1252,-102.7804 325.8763,-54.3596 307.1956,-27.9489"/>
<polygon fill="#191970" stroke="#191970" points="309.9272,-25.7498 301.295,-19.6068 304.2123,-29.7921 309.9272,-25.7498"/>
</g>
<!-- Node11&#45;&gt;Node10 -->
<g id="edge17" class="edge">
<title>Node11&#45;&gt;Node10</title>
<path fill="none" stroke="#191970" d="M378.48,-142.6427C373.1344,-150.7196 363.4254,-162.4402 354.2639,-172.0751"/>
<polygon fill="#191970" stroke="#191970" points="351.7011,-169.6886 347.1278,-179.2455 356.6628,-174.6265 351.7011,-169.6886"/>
</g>
<!-- Node12 -->
<g id="node13" class="node">
<title>Node12</title>
<g id="a_node13"><a xlink:href="trig__ops_8_h.html" target="_top" xlink:title="Trigonometric utilities. ">
<polygon fill="#ffffff" stroke="#000000" points="384.5,-56.5 384.5,-86.5 474.5,-86.5 474.5,-56.5 384.5,-56.5"/>
<text text-anchor="start" x="392.5" y="-74.5" font-family="Helvetica,sans-Serif" font-size="10.00" fill="#000000">amr&#45;wind/utilities</text>
<text text-anchor="middle" x="429.5" y="-63.5" font-family="Helvetica,sans-Serif" font-size="10.00" fill="#000000">/trig_ops.H</text>
</a>
</g>
</g>
<!-- Node11&#45;&gt;Node12 -->
<g id="edge18" class="edge">
<title>Node11&#45;&gt;Node12</title>
<path fill="none" stroke="#191970" d="M389,-123.3906C395.015,-115.6839 403.7101,-104.5434 411.5028,-94.5589"/>
<polygon fill="#191970" stroke="#191970" points="414.3642,-96.5812 417.7579,-86.5446 408.846,-92.2743 414.3642,-96.5812"/>
</g>
<!-- Node12&#45;&gt;Node3 -->
<g id="edge21" class="edge">
<title>Node12&#45;&gt;Node3</title>
<path fill="none" stroke="#191970" d="M444.0843,-56.2977C452.53,-47.4941 463.1892,-36.3833 471.9484,-27.2529"/>
<polygon fill="#191970" stroke="#191970" points="474.6561,-29.4862 479.0534,-19.8469 469.6048,-24.6402 474.6561,-29.4862"/>
</g>
<!-- Node12&#45;&gt;Node6 -->
<g id="edge20" class="edge">
<title>Node12&#45;&gt;Node6</title>
<path fill="none" stroke="#191970" d="M417.6348,-56.2977C410.9025,-47.672 402.4415,-36.8312 395.3994,-27.8087"/>
<polygon fill="#191970" stroke="#191970" points="398.0973,-25.5766 389.1854,-19.8469 392.579,-29.8836 398.0973,-25.5766"/>
</g>
<!-- Node12&#45;&gt;Node9 -->
<g id="edge19" class="edge">
<title>Node12&#45;&gt;Node9</title>
<path fill="none" stroke="#191970" d="M396.4753,-56.4554C374.543,-46.464 345.9727,-33.4487 324.6547,-23.7372"/>
<polygon fill="#191970" stroke="#191970" points="325.9714,-20.4909 315.4202,-19.5303 323.0694,-26.8611 325.9714,-20.4909"/>
</g>
</g>
</svg>
        <g id="navigator" transform="translate(0 0)" fill="#404254">
                <rect fill="#f2f5e9" fill-opacity="0.5" stroke="#606060" stroke-width=".5" x="0" y="0" width="60" height="60"/>
                <use id="zoomplus" xlink:href="#zoomPlus" x="17" y="9" onmousedown="handleZoom(evt,'in')"/>
                <use id="zoomminus" xlink:href="#zoomMin" x="42" y="9" onmousedown="handleZoom(evt,'out')"/>
                <use id="reset" xlink:href="#resetDef" x="30" y="36" onmousedown="handleReset()"/>
                <g id="arrowUp" xlink:href="#dirArrow" transform="translate(30 24)" onmousedown="handlePan(0,-1)">
                  <use xlink:href="#rim" fill="#404040">
                        <set attributeName="fill" to="#808080" begin="arrowUp.mouseover" end="arrowUp.mouseout"/>
                  </use>
                  <path fill="none" stroke="white" stroke-width="1.5" d="M0,-3.0v7 M-2.5,-0.5L0,-3.0L2.5,-0.5"/>
                </g>
                <g id="arrowRight" xlink:href="#dirArrow" transform="rotate(90) translate(36 -43)" onmousedown="handlePan(1,0)">
                  <use xlink:href="#rim" fill="#404040">
                        <set attributeName="fill" to="#808080" begin="arrowRight.mouseover" end="arrowRight.mouseout"/>
                  </use>
                  <path fill="none" stroke="white" stroke-width="1.5" d="M0,-3.0v7 M-2.5,-0.5L0,-3.0L2.5,-0.5"/>
                </g>
                <g id="arrowDown" xlink:href="#dirArrow" transform="rotate(180) translate(-30 -48)" onmousedown="handlePan(0,1)">
                  <use xlink:href="#rim" fill="#404040">
                        <set attributeName="fill" to="#808080" begin="arrowDown.mouseover" end="arrowDown.mouseout"/>
                  </use>
                  <path fill="none" stroke="white" stroke-width="1.5" d="M0,-3.0v7 M-2.5,-0.5L0,-3.0L2.5,-0.5"/>
                </g>
                <g id="arrowLeft" xlink:href="#dirArrow" transform="rotate(270) translate(-36 17)" onmousedown="handlePan(-1,0)">
                  <use xlink:href="#rim" fill="#404040">
                        <set attributeName="fill" to="#808080" begin="arrowLeft.mouseover" end="arrowLeft.mouseout"/>
                  </use>
                  <path fill="none" stroke="white" stroke-width="1.5" d="M0,-3.0v7 M-2.5,-0.5L0,-3.0L2.5,-0.5"/>
                </g>
        </g>
        <svg viewBox="0 0 15 15" width="100%" height="30px" preserveAspectRatio="xMaxYMin meet">
         <g id="arrow_out" transform="scale(0.3 0.3)">
          <a xlink:href="_actuator_container_8_h__incl_org.svg" target="_base">
           <rect id="button" ry="5" rx="5" y="6" x="6" height="38" width="38"
                fill="#f2f5e9" fill-opacity="0.5" stroke="#606060" stroke-width="1.0"/>
           <path id="arrow"
             d="M 11.500037,31.436501 C 11.940474,20.09759 22.043105,11.32322 32.158766,21.979434 L 37.068811,17.246167 C 37.068811,17.246167 37.088388,32 37.088388,32 L 22.160133,31.978069 C 22.160133,31.978069 26.997745,27.140456 26.997745,27.140456 C 18.528582,18.264221 13.291696,25.230495 11.500037,31.436501 z"
             style="fill:#404040;"/>
          </a>
         </g>
        </svg>
</svg>
