<?xml version="1.0" encoding="UTF-8" standalone="no"?>
<!DOCTYPE svg PUBLIC "-//W3C//DTD SVG 1.1//EN"
 "http://www.w3.org/Graphics/SVG/1.1/DTD/svg11.dtd">
<!-- Generated by graphviz version 2.40.1 (20161225.0304)
 -->
<!-- Title: ActuatorContainer.H Pages: 1 -->
<svg width="212pt" height="84pt"
 viewBox="0.00 0.00 212.00 84.00" xmlns="http://www.w3.org/2000/svg" xmlns:xlink="http://www.w3.org/1999/xlink">
<g id="graph0" class="graph" transform="scale(1 1) rotate(0) translate(4 80)">
<title>ActuatorContainer.H</title>
<polygon fill="#ffffff" stroke="transparent" points="-4,4 -4,-80 208,-80 208,4 -4,4"/>
<!-- Node14 -->
<g id="node1" class="node">
<title>Node14</title>
<polygon fill="#bfbfbf" stroke="#000000" points="38,-56.5 38,-75.5 144,-75.5 144,-56.5 38,-56.5"/>
<text text-anchor="middle" x="91" y="-63.5" font-family="Helvetica,sans-Serif" font-size="10.00" fill="#000000">ActuatorContainer.H</text>
</g>
<!-- Node15 -->
<g id="node2" class="node">
<title>Node15</title>
<g id="a_node2"><a xlink:href="_actuator_8cpp.html" target="_top" xlink:title="Actuator.cpp">
<polygon fill="#ffffff" stroke="#000000" points="0,-.5 0,-19.5 72,-19.5 72,-.5 0,-.5"/>
<text text-anchor="middle" x="36" y="-7.5" font-family="Helvetica,sans-Serif" font-size="10.00" fill="#000000">Actuator.cpp</text>
</a>
</g>
</g>
<!-- Node14&#45;&gt;Node15 -->
<g id="edge1" class="edge">
<title>Node14&#45;&gt;Node15</title>
<path fill="none" stroke="#191970" d="M74.3774,-49.0751C64.9145,-39.4402 53.4031,-27.7196 45.4705,-19.6427"/>
<polygon fill="#191970" stroke="#191970" points="71.9155,-51.5635 81.4197,-56.2455 76.9097,-46.6585 71.9155,-51.5635"/>
</g>
<!-- Node16 -->
<g id="node3" class="node">
<title>Node16</title>
<g id="a_node3"><a xlink:href="_actuator_container_8cpp.html" target="_top" xlink:title="ActuatorContainer.cpp">
<polygon fill="#ffffff" stroke="#000000" points="90,-.5 90,-19.5 204,-19.5 204,-.5 90,-.5"/>
<text text-anchor="middle" x="147" y="-7.5" font-family="Helvetica,sans-Serif" font-size="10.00" fill="#000000">ActuatorContainer.cpp</text>
</a>
</g>
</g>
<!-- Node14&#45;&gt;Node16 -->
<g id="edge2" class="edge">
<title>Node14&#45;&gt;Node16</title>
<path fill="none" stroke="#191970" d="M107.9249,-49.0751C117.5598,-39.4402 129.2804,-27.7196 137.3573,-19.6427"/>
<polygon fill="#191970" stroke="#191970" points="105.3507,-46.6996 100.7545,-56.2455 110.3004,-51.6493 105.3507,-46.6996"/>
</g>
</g>
</svg>
