<?xml version="1.0" encoding="UTF-8" standalone="no"?>
<!DOCTYPE svg PUBLIC "-//W3C//DTD SVG 1.1//EN"
 "http://www.w3.org/Graphics/SVG/1.1/DTD/svg11.dtd">
<!-- Generated by graphviz version 2.40.1 (20161225.0304)
 -->
<!-- Title: ActuatorContainer.cpp Pages: 1 -->
<!--zoomable 397 -->
<svg id="main" version="1.1" xmlns="http://www.w3.org/2000/svg" xmlns:xlink="http://www.w3.org/1999/xlink" xml:space="preserve" onload="init(evt)">
<style type="text/css"><![CDATA[
.edge:hover path { stroke: red; }
.edge:hover polygon { stroke: red; fill: red; }
]]></style>
<script type="text/javascript"><![CDATA[
var edges = document.getElementsByTagName('g');
if (edges && edges.length) {
  for (var i=0;i<edges.length;i++) {
    if (edges[i].id.substr(0,4)=='edge') {
      edges[i].setAttribute('class','edge');
    }
  }
}
]]></script>
        <defs>
                <circle id="rim" cx="0" cy="0" r="7"/>
                <circle id="rim2" cx="0" cy="0" r="3.5"/>
                <g id="zoomPlus">
                        <use xlink:href="#rim" fill="#404040">
                                <set attributeName="fill" to="#808080" begin="zoomplus.mouseover" end="zoomplus.mouseout"/>
                        </use>
                        <path d="M-4,0h8M0,-4v8" fill="none" stroke="white" stroke-width="1.5" pointer-events="none"/>
                </g>
                <g id="zoomMin">
                        <use xlink:href="#rim" fill="#404040">
                                <set attributeName="fill" to="#808080" begin="zoomminus.mouseover" end="zoomminus.mouseout"/>
                        </use>
                        <path d="M-4,0h8" fill="none" stroke="white" stroke-width="1.5" pointer-events="none"/>
                </g>
                <g id="dirArrow">
                        <path fill="none" stroke="white" stroke-width="1.5" d="M0,-3.0v7 M-2.5,-0.5L0,-3.0L2.5,-0.5"/>
                </g>
               <g id="resetDef">
                       <use xlink:href="#rim2" fill="#404040">
                               <set attributeName="fill" to="#808080" begin="reset.mouseover" end="reset.mouseout"/>
                       </use>
               </g>
        </defs>

<script type="text/javascript">
var viewWidth = 1761;
var viewHeight = 397;
var sectionId = 'dynsection-0';
</script>
<script xlink:href="svgpan.js"/>
<svg id="graph" class="graph">
<g id="viewport">
<title>ActuatorContainer.cpp</title>
<polygon fill="#ffffff" stroke="transparent" points="-4,4 -4,-393 1756.5,-393 1756.5,4 -4,4"/>
<!-- Node0 -->
<g id="node1" class="node">
<title>Node0</title>
<polygon fill="#bfbfbf" stroke="#000000" points="1092.5,-369.5 1092.5,-388.5 1206.5,-388.5 1206.5,-369.5 1092.5,-369.5"/>
<text text-anchor="middle" x="1149.5" y="-376.5" font-family="Helvetica,sans-Serif" font-size="10.00" fill="#000000">ActuatorContainer.cpp</text>
</g>
<!-- Node1 -->
<g id="node2" class="node">
<title>Node1</title>
<g id="a_node2"><a xlink:href="_actuator_container_8_h.html" target="_top" xlink:title="amr&#45;wind/wind_energy\l/actuator/ActuatorContainer.H">
<polygon fill="#ffffff" stroke="#000000" points="389,-302.5 389,-332.5 536,-332.5 536,-302.5 389,-302.5"/>
<text text-anchor="start" x="397" y="-320.5" font-family="Helvetica,sans-Serif" font-size="10.00" fill="#000000">amr&#45;wind/wind_energy</text>
<text text-anchor="middle" x="462.5" y="-309.5" font-family="Helvetica,sans-Serif" font-size="10.00" fill="#000000">/actuator/ActuatorContainer.H</text>
</a>
</g>
</g>
<!-- Node0&#45;&gt;Node1 -->
<g id="edge1" class="edge">
<title>Node0&#45;&gt;Node1</title>
<path fill="none" stroke="#191970" d="M1092.3249,-376.4722C985.5401,-371.3381 748.6623,-358 550.5,-333 549.2014,-332.8362 547.8928,-332.6663 546.5763,-332.491"/>
<polygon fill="#191970" stroke="#191970" points="546.7532,-328.9813 536.3622,-331.0494 545.7749,-335.9126 546.7532,-328.9813"/>
</g>
<!-- Node15 -->
<g id="node16" class="node">
<title>Node15</title>
<g id="a_node16"><a xlink:href="_actuator_8_h.html" target="_top" xlink:title="amr&#45;wind/wind_energy\l/actuator/Actuator.H">
<polygon fill="#ffffff" stroke="#000000" points="950.5,-302.5 950.5,-332.5 1064.5,-332.5 1064.5,-302.5 950.5,-302.5"/>
<text text-anchor="start" x="958.5" y="-320.5" font-family="Helvetica,sans-Serif" font-size="10.00" fill="#000000">amr&#45;wind/wind_energy</text>
<text text-anchor="middle" x="1007.5" y="-309.5" font-family="Helvetica,sans-Serif" font-size="10.00" fill="#000000">/actuator/Actuator.H</text>
</a>
</g>
</g>
<!-- Node0&#45;&gt;Node15 -->
<g id="edge24" class="edge">
<title>Node0&#45;&gt;Node15</title>
<path fill="none" stroke="#191970" d="M1127.3125,-369.3906C1107.1158,-360.6435 1076.7056,-347.4728 1051.577,-336.5897"/>
<polygon fill="#191970" stroke="#191970" points="1052.8045,-333.3072 1042.2371,-332.5446 1050.0224,-339.7306 1052.8045,-333.3072"/>
</g>
<!-- Node28 -->
<g id="node29" class="node">
<title>Node28</title>
<g id="a_node29"><a xlink:href="gpu__utils_8_h.html" target="_top" xlink:title="amr&#45;wind/core/gpu_utils.H">
<polygon fill="#ffffff" stroke="#000000" points="531,-62 531,-81 662,-81 662,-62 531,-62"/>
<text text-anchor="middle" x="596.5" y="-69" font-family="Helvetica,sans-Serif" font-size="10.00" fill="#000000">amr&#45;wind/core/gpu_utils.H</text>
</a>
</g>
</g>
<!-- Node0&#45;&gt;Node28 -->
<g id="edge39" class="edge">
<title>Node0&#45;&gt;Node28</title>
<path fill="none" stroke="#191970" d="M1092.3426,-372.466C945.1414,-354.8707 564.5,-304.1816 564.5,-250.5 564.5,-250.5 564.5,-250.5 564.5,-189 564.5,-153.0647 578.6061,-113.0512 588.0871,-90.2158"/>
<polygon fill="#191970" stroke="#191970" points="591.3112,-91.578 592.0505,-81.009 584.8817,-88.8101 591.3112,-91.578"/>
</g>
<!-- Node29 -->
<g id="node30" class="node">
<title>Node29</title>
<g id="a_node30"><a xlink:href="_field_8_h.html" target="_top" xlink:title="amr&#45;wind/core/Field.H">
<polygon fill="#ffffff" stroke="#000000" points="1219,-241 1219,-260 1332,-260 1332,-241 1219,-241"/>
<text text-anchor="middle" x="1275.5" y="-248" font-family="Helvetica,sans-Serif" font-size="10.00" fill="#000000">amr&#45;wind/core/Field.H</text>
</a>
</g>
</g>
<!-- Node0&#45;&gt;Node29 -->
<g id="edge41" class="edge">
<title>Node0&#45;&gt;Node29</title>
<path fill="none" stroke="#191970" d="M1158.9705,-369.3416C1180.2232,-347.6672 1231.9458,-294.9184 1258.7603,-267.5719"/>
<polygon fill="#191970" stroke="#191970" points="1261.4174,-269.8611 1265.9196,-260.2705 1256.4193,-264.9602 1261.4174,-269.8611"/>
</g>
<!-- Node30 -->
<g id="node31" class="node">
<title>Node30</title>
<polygon fill="#ffffff" stroke="#bfbfbf" points="1696.5,-179.5 1696.5,-198.5 1752.5,-198.5 1752.5,-179.5 1696.5,-179.5"/>
<text text-anchor="middle" x="1724.5" y="-186.5" font-family="Helvetica,sans-Serif" font-size="10.00" fill="#000000">algorithm</text>
</g>
<!-- Node0&#45;&gt;Node30 -->
<g id="edge57" class="edge">
<title>Node0&#45;&gt;Node30</title>
<path fill="none" stroke="#191970" d="M1177.9366,-369.4767C1221.5175,-354.8918 1307.4575,-326.1704 1380.5,-302 1491.8146,-265.165 1623.5366,-222.019 1686.8362,-201.3126"/>
<polygon fill="#191970" stroke="#191970" points="1687.9778,-204.6217 1696.3943,-198.1864 1685.8017,-197.9685 1687.9778,-204.6217"/>
</g>
<!-- Node35 -->
<g id="node36" class="node">
<title>Node35</title>
<polygon fill="#ffffff" stroke="#bfbfbf" points="1389,-308 1389,-327 1478,-327 1478,-308 1389,-308"/>
<text text-anchor="middle" x="1433.5" y="-315" font-family="Helvetica,sans-Serif" font-size="10.00" fill="#000000">AMReX_Scan.H</text>
</g>
<!-- Node0&#45;&gt;Node35 -->
<g id="edge56" class="edge">
<title>Node0&#45;&gt;Node35</title>
<path fill="none" stroke="#191970" d="M1200.1629,-369.4719C1245.8793,-360.6773 1314.9005,-346.9099 1374.5,-333 1379.0927,-331.9281 1383.8729,-330.7601 1388.6363,-329.5619"/>
<polygon fill="#191970" stroke="#191970" points="1389.5058,-332.9523 1398.325,-327.081 1387.7693,-326.171 1389.5058,-332.9523"/>
</g>
<!-- Node2 -->
<g id="node3" class="node">
<title>Node2</title>
<g id="a_node3"><a xlink:href="vector__space_8_h.html" target="_top" xlink:title="amr&#45;wind/core/vs/vector\l_space.H">
<polygon fill="#ffffff" stroke="#000000" points="263.5,-235.5 263.5,-265.5 385.5,-265.5 385.5,-235.5 263.5,-235.5"/>
<text text-anchor="start" x="271.5" y="-253.5" font-family="Helvetica,sans-Serif" font-size="10.00" fill="#000000">amr&#45;wind/core/vs/vector</text>
<text text-anchor="middle" x="324.5" y="-242.5" font-family="Helvetica,sans-Serif" font-size="10.00" fill="#000000">_space.H</text>
</a>
</g>
</g>
<!-- Node1&#45;&gt;Node2 -->
<g id="edge2" class="edge">
<title>Node1&#45;&gt;Node2</title>
<path fill="none" stroke="#191970" d="M431.5301,-302.4639C411.8708,-292.9191 386.2216,-280.4663 364.9607,-270.144"/>
<polygon fill="#191970" stroke="#191970" points="366.3685,-266.9368 355.844,-265.7177 363.3112,-273.2339 366.3685,-266.9368"/>
</g>
<!-- Node14 -->
<g id="node15" class="node">
<title>Node14</title>
<polygon fill="#ffffff" stroke="#bfbfbf" points="404,-241 404,-260 527,-260 527,-241 404,-241"/>
<text text-anchor="middle" x="465.5" y="-248" font-family="Helvetica,sans-Serif" font-size="10.00" fill="#000000">AMReX_AmrParticles.H</text>
</g>
<!-- Node1&#45;&gt;Node14 -->
<g id="edge23" class="edge">
<title>Node1&#45;&gt;Node14</title>
<path fill="none" stroke="#191970" d="M463.1807,-302.2967C463.6073,-292.7699 464.1614,-280.3954 464.621,-270.1306"/>
<polygon fill="#191970" stroke="#191970" points="468.1213,-270.2016 465.0722,-260.055 461.1283,-269.8884 468.1213,-270.2016"/>
</g>
<!-- Node3 -->
<g id="node4" class="node">
<title>Node3</title>
<g id="a_node4"><a xlink:href="vector_8_h.html" target="_top" xlink:title="amr&#45;wind/core/vs/vector.H">
<polygon fill="#ffffff" stroke="#000000" points="123.5,-123.5 123.5,-142.5 255.5,-142.5 255.5,-123.5 123.5,-123.5"/>
<text text-anchor="middle" x="189.5" y="-130.5" font-family="Helvetica,sans-Serif" font-size="10.00" fill="#000000">amr&#45;wind/core/vs/vector.H</text>
</a>
</g>
</g>
<!-- Node2&#45;&gt;Node3 -->
<g id="edge3" class="edge">
<title>Node2&#45;&gt;Node3</title>
<path fill="none" stroke="#191970" d="M307.1275,-235.3795C281.6809,-213.2315 234.4597,-172.1316 208.2516,-149.3209"/>
<polygon fill="#191970" stroke="#191970" points="210.376,-146.5298 200.5351,-142.6046 205.7803,-151.81 210.376,-146.5298"/>
</g>
<!-- Node11 -->
<g id="node12" class="node">
<title>Node11</title>
<g id="a_node12"><a xlink:href="tensor_8_h.html" target="_top" xlink:title="amr&#45;wind/core/vs/tensor.H">
<polygon fill="#ffffff" stroke="#000000" points="307.5,-179.5 307.5,-198.5 439.5,-198.5 439.5,-179.5 307.5,-179.5"/>
<text text-anchor="middle" x="373.5" y="-186.5" font-family="Helvetica,sans-Serif" font-size="10.00" fill="#000000">amr&#45;wind/core/vs/tensor.H</text>
</a>
</g>
</g>
<!-- Node2&#45;&gt;Node11 -->
<g id="edge12" class="edge">
<title>Node2&#45;&gt;Node11</title>
<path fill="none" stroke="#191970" d="M336.6124,-235.2977C343.4849,-226.672 352.1223,-215.8312 359.311,-206.8087"/>
<polygon fill="#191970" stroke="#191970" points="362.1604,-208.849 365.6545,-198.8469 356.6856,-204.487 362.1604,-208.849"/>
</g>
<!-- Node4 -->
<g id="node5" class="node">
<title>Node4</title>
<polygon fill="#ffffff" stroke="#bfbfbf" points="460,-.5 460,-19.5 545,-19.5 545,-.5 460,-.5"/>
<text text-anchor="middle" x="502.5" y="-7.5" font-family="Helvetica,sans-Serif" font-size="10.00" fill="#000000">AMReX_Gpu.H</text>
</g>
<!-- Node3&#45;&gt;Node4 -->
<g id="edge4" class="edge">
<title>Node3&#45;&gt;Node4</title>
<path fill="none" stroke="#191970" d="M255.7339,-126.6864C320.7461,-119.5082 414.5225,-106.2352 445.5,-87 467.9284,-73.0733 484.4574,-46.8142 493.7802,-28.8699"/>
<polygon fill="#191970" stroke="#191970" points="497.0404,-30.1719 498.3184,-19.6545 490.7605,-27.0793 497.0404,-30.1719"/>
</g>
<!-- Node5 -->
<g id="node6" class="node">
<title>Node5</title>
<g id="a_node6"><a xlink:href="vstraits_8_h.html" target="_top" xlink:title="amr&#45;wind/core/vs/vstraits.H">
<polygon fill="#ffffff" stroke="#000000" points="153,-62 153,-81 290,-81 290,-62 153,-62"/>
<text text-anchor="middle" x="221.5" y="-69" font-family="Helvetica,sans-Serif" font-size="10.00" fill="#000000">amr&#45;wind/core/vs/vstraits.H</text>
</a>
</g>
</g>
<!-- Node3&#45;&gt;Node5 -->
<g id="edge5" class="edge">
<title>Node3&#45;&gt;Node5</title>
<path fill="none" stroke="#191970" d="M194.5,-123.3906C199.0758,-114.5965 205.9781,-101.3312 211.6583,-90.4145"/>
<polygon fill="#191970" stroke="#191970" points="214.9185,-91.7314 216.4295,-81.2449 208.7088,-88.5003 214.9185,-91.7314"/>
</g>
<!-- Node8 -->
<g id="node9" class="node">
<title>Node8</title>
<g id="a_node9"><a xlink:href="vector_i_8_h.html" target="_top" xlink:title="amr&#45;wind/core/vs/vectorI.H">
<polygon fill="#ffffff" stroke="#000000" points="0,-62 0,-81 135,-81 135,-62 0,-62"/>
<text text-anchor="middle" x="67.5" y="-69" font-family="Helvetica,sans-Serif" font-size="10.00" fill="#000000">amr&#45;wind/core/vs/vectorI.H</text>
</a>
</g>
</g>
<!-- Node3&#45;&gt;Node8 -->
<g id="edge8" class="edge">
<title>Node3&#45;&gt;Node8</title>
<path fill="none" stroke="#191970" d="M165.375,-123.3906C143.446,-113.3262 111.614,-97.4057 90.1575,-85.8514"/>
<polygon fill="#191970" stroke="#191970" points="91.8311,-82.7775 81.3794,-81.0419 88.4675,-88.9164 91.8311,-82.7775"/>
</g>
<!-- Node6 -->
<g id="node7" class="node">
<title>Node6</title>
<polygon fill="#ffffff" stroke="#bfbfbf" points="201.5,-.5 201.5,-19.5 241.5,-19.5 241.5,-.5 201.5,-.5"/>
<text text-anchor="middle" x="221.5" y="-7.5" font-family="Helvetica,sans-Serif" font-size="10.00" fill="#000000">limits</text>
</g>
<!-- Node5&#45;&gt;Node6 -->
<g id="edge6" class="edge">
<title>Node5&#45;&gt;Node6</title>
<path fill="none" stroke="#191970" d="M221.5,-61.8906C221.5,-53.3657 221.5,-40.6392 221.5,-29.9235"/>
<polygon fill="#191970" stroke="#191970" points="225.0001,-29.7448 221.5,-19.7449 218.0001,-29.7449 225.0001,-29.7448"/>
</g>
<!-- Node7 -->
<g id="node8" class="node">
<title>Node7</title>
<polygon fill="#ffffff" stroke="#bfbfbf" points="345,-.5 345,-19.5 438,-19.5 438,-.5 345,-.5"/>
<text text-anchor="middle" x="391.5" y="-7.5" font-family="Helvetica,sans-Serif" font-size="10.00" fill="#000000">AMReX_REAL.H</text>
</g>
<!-- Node5&#45;&gt;Node7 -->
<g id="edge7" class="edge">
<title>Node5&#45;&gt;Node7</title>
<path fill="none" stroke="#191970" d="M248.0625,-61.8906C277.0056,-51.42 323.4694,-34.6111 355.6356,-22.9745"/>
<polygon fill="#191970" stroke="#191970" points="356.9111,-26.2351 365.124,-19.5419 354.5298,-19.6526 356.9111,-26.2351"/>
</g>
<!-- Node8&#45;&gt;Node3 -->
<g id="edge11" class="edge">
<title>Node8&#45;&gt;Node3</title>
<path fill="none" stroke="#191970" d="M91.4779,-81.0419C113.3625,-91.0801 145.1954,-106.9972 166.6983,-118.571"/>
<polygon fill="#191970" stroke="#191970" points="165.0479,-121.6576 175.5,-123.3906 168.4099,-115.5178 165.0479,-121.6576"/>
</g>
<!-- Node9 -->
<g id="node10" class="node">
<title>Node9</title>
<polygon fill="#ffffff" stroke="#bfbfbf" points="41.5,-.5 41.5,-19.5 93.5,-19.5 93.5,-.5 41.5,-.5"/>
<text text-anchor="middle" x="67.5" y="-7.5" font-family="Helvetica,sans-Serif" font-size="10.00" fill="#000000">ostream</text>
</g>
<!-- Node8&#45;&gt;Node9 -->
<g id="edge9" class="edge">
<title>Node8&#45;&gt;Node9</title>
<path fill="none" stroke="#191970" d="M67.5,-61.8906C67.5,-53.3657 67.5,-40.6392 67.5,-29.9235"/>
<polygon fill="#191970" stroke="#191970" points="71.0001,-29.7448 67.5,-19.7449 64.0001,-29.7449 71.0001,-29.7448"/>
</g>
<!-- Node10 -->
<g id="node11" class="node">
<title>Node10</title>
<polygon fill="#ffffff" stroke="#bfbfbf" points="282.5,-.5 282.5,-19.5 326.5,-19.5 326.5,-.5 282.5,-.5"/>
<text text-anchor="middle" x="304.5" y="-7.5" font-family="Helvetica,sans-Serif" font-size="10.00" fill="#000000">cmath</text>
</g>
<!-- Node8&#45;&gt;Node10 -->
<g id="edge10" class="edge">
<title>Node8&#45;&gt;Node10</title>
<path fill="none" stroke="#191970" d="M104.2712,-61.9581C150.372,-49.9952 228.6493,-29.6828 272.4272,-18.3227"/>
<polygon fill="#191970" stroke="#191970" points="273.4562,-21.6717 282.2565,-15.7721 271.6979,-14.8961 273.4562,-21.6717"/>
</g>
<!-- Node11&#45;&gt;Node3 -->
<g id="edge15" class="edge">
<title>Node11&#45;&gt;Node3</title>
<path fill="none" stroke="#191970" d="M341.8693,-179.3733C311.1404,-170.021 264.324,-155.7725 230.6978,-145.5385"/>
<polygon fill="#191970" stroke="#191970" points="231.3038,-142.0644 220.718,-142.5011 229.2656,-148.7612 231.3038,-142.0644"/>
</g>
<!-- Node11&#45;&gt;Node4 -->
<g id="edge13" class="edge">
<title>Node11&#45;&gt;Node4</title>
<path fill="none" stroke="#191970" d="M400.8297,-179.4971C418.6018,-172.058 441.0714,-160.0853 455.5,-143 483.8305,-109.4531 495.5318,-57.6568 500.0004,-29.6298"/>
<polygon fill="#191970" stroke="#191970" points="503.4966,-29.906 501.4601,-19.5088 496.5683,-28.9067 503.4966,-29.906"/>
</g>
<!-- Node11&#45;&gt;Node5 -->
<g id="edge14" class="edge">
<title>Node11&#45;&gt;Node5</title>
<path fill="none" stroke="#191970" d="M357.2495,-179.4224C342.5525,-170.5405 320.5194,-156.671 302.5,-143 279.5945,-125.622 255.0795,-103.421 239.0941,-88.4028"/>
<polygon fill="#191970" stroke="#191970" points="241.2317,-85.6065 231.566,-81.2676 236.4162,-90.687 241.2317,-85.6065"/>
</g>
<!-- Node12 -->
<g id="node13" class="node">
<title>Node12</title>
<g id="a_node13"><a xlink:href="tensor_i_8_h.html" target="_top" xlink:title="amr&#45;wind/core/vs/tensorI.H">
<polygon fill="#ffffff" stroke="#000000" points="312,-123.5 312,-142.5 447,-142.5 447,-123.5 312,-123.5"/>
<text text-anchor="middle" x="379.5" y="-130.5" font-family="Helvetica,sans-Serif" font-size="10.00" fill="#000000">amr&#45;wind/core/vs/tensorI.H</text>
</a>
</g>
</g>
<!-- Node11&#45;&gt;Node12 -->
<g id="edge16" class="edge">
<title>Node11&#45;&gt;Node12</title>
<path fill="none" stroke="#191970" d="M369.2783,-179.2455C368.6433,-171.8579 369.3589,-161.4689 370.9612,-152.4087"/>
<polygon fill="#191970" stroke="#191970" points="374.3765,-153.1744 373.2217,-142.6427 367.5568,-151.5958 374.3765,-153.1744"/>
</g>
<!-- Node12&#45;&gt;Node10 -->
<g id="edge17" class="edge">
<title>Node12&#45;&gt;Node10</title>
<path fill="none" stroke="#191970" d="M368.7455,-123.2341C359.541,-114.4432 346.4039,-100.8172 337.5,-87 325.7221,-68.7229 316.4462,-45.533 310.7667,-29.4014"/>
<polygon fill="#191970" stroke="#191970" points="313.9406,-27.861 307.4228,-19.5082 307.3092,-30.1025 313.9406,-27.861"/>
</g>
<!-- Node12&#45;&gt;Node11 -->
<g id="edge18" class="edge">
<title>Node12&#45;&gt;Node11</title>
<path fill="none" stroke="#191970" d="M383.712,-142.6427C384.3607,-149.9998 383.6563,-160.3803 382.063,-169.4538"/>
<polygon fill="#191970" stroke="#191970" points="378.6415,-168.7156 379.812,-179.2455 385.4635,-170.284 378.6415,-168.7156"/>
</g>
<!-- Node13 -->
<g id="node14" class="node">
<title>Node13</title>
<g id="a_node14"><a xlink:href="trig__ops_8_h.html" target="_top" xlink:title="Trigonometric utilities. ">
<polygon fill="#ffffff" stroke="#000000" points="346.5,-56.5 346.5,-86.5 436.5,-86.5 436.5,-56.5 346.5,-56.5"/>
<text text-anchor="start" x="354.5" y="-74.5" font-family="Helvetica,sans-Serif" font-size="10.00" fill="#000000">amr&#45;wind/utilities</text>
<text text-anchor="middle" x="391.5" y="-63.5" font-family="Helvetica,sans-Serif" font-size="10.00" fill="#000000">/trig_ops.H</text>
</a>
</g>
</g>
<!-- Node12&#45;&gt;Node13 -->
<g id="edge19" class="edge">
<title>Node12&#45;&gt;Node13</title>
<path fill="none" stroke="#191970" d="M381.375,-123.3906C382.7885,-116.1463 384.7941,-105.8679 386.6478,-96.3676"/>
<polygon fill="#191970" stroke="#191970" points="390.0845,-97.0298 388.5645,-86.5446 383.2141,-95.6892 390.0845,-97.0298"/>
</g>
<!-- Node13&#45;&gt;Node4 -->
<g id="edge22" class="edge">
<title>Node13&#45;&gt;Node4</title>
<path fill="none" stroke="#191970" d="M418.6537,-56.4554C436.1995,-46.734 458.9122,-34.15 476.2721,-24.5317"/>
<polygon fill="#191970" stroke="#191970" points="478.248,-27.4383 485.2989,-19.5303 474.8555,-21.3153 478.248,-27.4383"/>
</g>
<!-- Node13&#45;&gt;Node7 -->
<g id="edge21" class="edge">
<title>Node13&#45;&gt;Node7</title>
<path fill="none" stroke="#191970" d="M391.5,-56.2977C391.5,-48.3834 391.5,-38.6043 391.5,-30.0759"/>
<polygon fill="#191970" stroke="#191970" points="395.0001,-29.8469 391.5,-19.8469 388.0001,-29.847 395.0001,-29.8469"/>
</g>
<!-- Node13&#45;&gt;Node10 -->
<g id="edge20" class="edge">
<title>Node13&#45;&gt;Node10</title>
<path fill="none" stroke="#191970" d="M369.9944,-56.2977C356.7032,-46.9022 339.6943,-34.8787 326.3412,-25.4395"/>
<polygon fill="#191970" stroke="#191970" points="328.3561,-22.5776 318.17,-19.6633 324.3154,-28.2937 328.3561,-22.5776"/>
</g>
<!-- Node16 -->
<g id="node17" class="node">
<title>Node16</title>
<g id="a_node17"><a xlink:href="_physics_8_h.html" target="_top" xlink:title="amr&#45;wind/core/Physics.H">
<polygon fill="#ffffff" stroke="#000000" points="908,-241 908,-260 1035,-260 1035,-241 908,-241"/>
<text text-anchor="middle" x="971.5" y="-248" font-family="Helvetica,sans-Serif" font-size="10.00" fill="#000000">amr&#45;wind/core/Physics.H</text>
</a>
</g>
</g>
<!-- Node15&#45;&gt;Node16 -->
<g id="edge25" class="edge">
<title>Node15&#45;&gt;Node16</title>
<path fill="none" stroke="#191970" d="M999.331,-302.2967C994.0488,-292.4658 987.1372,-279.6026 981.5233,-269.1545"/>
<polygon fill="#191970" stroke="#191970" points="984.4504,-267.2073 976.634,-260.055 978.2841,-270.5205 984.4504,-267.2073"/>
</g>
<!-- Node17 -->
<g id="node18" class="node">
<title>Node17</title>
<g id="a_node18"><a xlink:href="_factory_8_h.html" target="_top" xlink:title="amr&#45;wind/core/Factory.H">
<polygon fill="#ffffff" stroke="#000000" points="599,-179.5 599,-198.5 724,-198.5 724,-179.5 599,-179.5"/>
<text text-anchor="middle" x="661.5" y="-186.5" font-family="Helvetica,sans-Serif" font-size="10.00" fill="#000000">amr&#45;wind/core/Factory.H</text>
</a>
</g>
</g>
<!-- Node16&#45;&gt;Node17 -->
<g id="edge26" class="edge">
<title>Node16&#45;&gt;Node17</title>
<path fill="none" stroke="#191970" d="M923.4026,-240.9581C868.3408,-230.0345 778.1868,-212.1492 719.3409,-200.4749"/>
<polygon fill="#191970" stroke="#191970" points="719.9451,-197.0266 709.4551,-198.5137 718.5829,-203.8928 719.9451,-197.0266"/>
</g>
<!-- Node23 -->
<g id="node24" class="node">
<title>Node23</title>
<g id="a_node24"><a xlink:href="_coll_mgr_8_h.html" target="_top" xlink:title="amr&#45;wind/core/CollMgr.H">
<polygon fill="#ffffff" stroke="#000000" points="909,-179.5 909,-198.5 1034,-198.5 1034,-179.5 909,-179.5"/>
<text text-anchor="middle" x="971.5" y="-186.5" font-family="Helvetica,sans-Serif" font-size="10.00" fill="#000000">amr&#45;wind/core/CollMgr.H</text>
</a>
</g>
</g>
<!-- Node16&#45;&gt;Node23 -->
<g id="edge32" class="edge">
<title>Node16&#45;&gt;Node23</title>
<path fill="none" stroke="#191970" d="M971.5,-240.8906C971.5,-232.3657 971.5,-219.6392 971.5,-208.9235"/>
<polygon fill="#191970" stroke="#191970" points="975.0001,-208.7448 971.5,-198.7449 968.0001,-208.7449 975.0001,-208.7448"/>
</g>
<!-- Node26 -->
<g id="node27" class="node">
<title>Node26</title>
<polygon fill="#ffffff" stroke="#bfbfbf" points="1464.5,-123.5 1464.5,-142.5 1568.5,-142.5 1568.5,-123.5 1464.5,-123.5"/>
<text text-anchor="middle" x="1516.5" y="-130.5" font-family="Helvetica,sans-Serif" font-size="10.00" fill="#000000">AMReX_MultiFab.H</text>
</g>
<!-- Node16&#45;&gt;Node26 -->
<g id="edge37" class="edge">
<title>Node16&#45;&gt;Node26</title>
<path fill="none" stroke="#191970" d="M986.7913,-240.9613C1012.9059,-225.1754 1068.2562,-193.8852 1119.5,-179 1180.7344,-161.2127 1358.69,-145.2545 1454.194,-137.6681"/>
<polygon fill="#191970" stroke="#191970" points="1454.6014,-141.147 1464.2957,-136.8725 1454.0517,-134.1686 1454.6014,-141.147"/>
</g>
<!-- Node27 -->
<g id="node28" class="node">
<title>Node27</title>
<polygon fill="#ffffff" stroke="#bfbfbf" points="742.5,-179.5 742.5,-198.5 852.5,-198.5 852.5,-179.5 742.5,-179.5"/>
<text text-anchor="middle" x="797.5" y="-186.5" font-family="Helvetica,sans-Serif" font-size="10.00" fill="#000000">AMReX_Geometry.H</text>
</g>
<!-- Node16&#45;&gt;Node27 -->
<g id="edge38" class="edge">
<title>Node16&#45;&gt;Node27</title>
<path fill="none" stroke="#191970" d="M944.3125,-240.8906C914.6883,-230.42 867.1313,-213.6111 834.2082,-201.9745"/>
<polygon fill="#191970" stroke="#191970" points="835.0914,-198.5745 824.4966,-198.5419 832.7586,-205.1744 835.0914,-198.5745"/>
</g>
<!-- Node18 -->
<g id="node19" class="node">
<title>Node18</title>
<polygon fill="#ffffff" stroke="#bfbfbf" points="952.5,-123.5 952.5,-142.5 1004.5,-142.5 1004.5,-123.5 952.5,-123.5"/>
<text text-anchor="middle" x="978.5" y="-130.5" font-family="Helvetica,sans-Serif" font-size="10.00" fill="#000000">memory</text>
</g>
<!-- Node17&#45;&gt;Node18 -->
<g id="edge27" class="edge">
<title>Node17&#45;&gt;Node18</title>
<path fill="none" stroke="#191970" d="M724.2197,-179.5463C793.9246,-168.8953 902.006,-151.911 942.5,-143 942.599,-142.9782 942.6981,-142.9563 942.7973,-142.9343"/>
<polygon fill="#191970" stroke="#191970" points="943.3401,-146.4041 952.2366,-140.6506 941.6939,-139.6004 943.3401,-146.4041"/>
</g>
<!-- Node19 -->
<g id="node20" class="node">
<title>Node19</title>
<polygon fill="#ffffff" stroke="#bfbfbf" points="851,-123.5 851,-142.5 934,-142.5 934,-123.5 851,-123.5"/>
<text text-anchor="middle" x="892.5" y="-130.5" font-family="Helvetica,sans-Serif" font-size="10.00" fill="#000000">unordered_map</text>
</g>
<!-- Node17&#45;&gt;Node19 -->
<g id="edge28" class="edge">
<title>Node17&#45;&gt;Node19</title>
<path fill="none" stroke="#191970" d="M700.9478,-179.4369C740.3156,-169.8932 800.9034,-155.2052 843.3708,-144.9101"/>
<polygon fill="#191970" stroke="#191970" points="844.321,-148.2812 853.2149,-142.5237 842.6717,-141.4783 844.321,-148.2812"/>
</g>
<!-- Node20 -->
<g id="node21" class="node">
<title>Node20</title>
<polygon fill="#ffffff" stroke="#bfbfbf" points="592.5,-123.5 592.5,-142.5 646.5,-142.5 646.5,-123.5 592.5,-123.5"/>
<text text-anchor="middle" x="619.5" y="-130.5" font-family="Helvetica,sans-Serif" font-size="10.00" fill="#000000">iostream</text>
</g>
<!-- Node17&#45;&gt;Node20 -->
<g id="edge29" class="edge">
<title>Node17&#45;&gt;Node20</title>
<path fill="none" stroke="#191970" d="M654.1842,-179.2455C648.2821,-171.3761 639.8258,-160.101 632.7406,-150.6542"/>
<polygon fill="#191970" stroke="#191970" points="635.5321,-148.5427 626.732,-142.6427 629.932,-152.7427 635.5321,-148.5427"/>
</g>
<!-- Node21 -->
<g id="node22" class="node">
<title>Node21</title>
<polygon fill="#ffffff" stroke="#bfbfbf" points="665,-123.5 665,-142.5 752,-142.5 752,-123.5 665,-123.5"/>
<text text-anchor="middle" x="708.5" y="-130.5" font-family="Helvetica,sans-Serif" font-size="10.00" fill="#000000">AMReX_Print.H</text>
</g>
<!-- Node17&#45;&gt;Node21 -->
<g id="edge30" class="edge">
<title>Node17&#45;&gt;Node21</title>
<path fill="none" stroke="#191970" d="M669.6868,-179.2455C676.3589,-171.2958 685.9479,-159.8706 693.9253,-150.3656"/>
<polygon fill="#191970" stroke="#191970" points="696.6592,-152.5525 700.407,-142.6427 691.2974,-148.0524 696.6592,-152.5525"/>
</g>
<!-- Node22 -->
<g id="node23" class="node">
<title>Node22</title>
<polygon fill="#ffffff" stroke="#bfbfbf" points="770.5,-123.5 770.5,-142.5 832.5,-142.5 832.5,-123.5 770.5,-123.5"/>
<text text-anchor="middle" x="801.5" y="-130.5" font-family="Helvetica,sans-Serif" font-size="10.00" fill="#000000">AMReX.H</text>
</g>
<!-- Node17&#45;&gt;Node22 -->
<g id="edge31" class="edge">
<title>Node17&#45;&gt;Node22</title>
<path fill="none" stroke="#191970" d="M685.5669,-179.3733C708.3428,-170.2629 742.7344,-156.5062 768.149,-146.3404"/>
<polygon fill="#191970" stroke="#191970" points="769.7623,-149.4648 777.7472,-142.5011 767.1625,-142.9654 769.7623,-149.4648"/>
</g>
<!-- Node23&#45;&gt;Node18 -->
<g id="edge34" class="edge">
<title>Node23&#45;&gt;Node18</title>
<path fill="none" stroke="#191970" d="M972.7193,-179.2455C973.6327,-171.9382 974.9132,-161.6944 976.0369,-152.7046"/>
<polygon fill="#191970" stroke="#191970" points="979.5272,-152.9996 977.2947,-142.6427 972.5813,-152.1313 979.5272,-152.9996"/>
</g>
<!-- Node23&#45;&gt;Node19 -->
<g id="edge35" class="edge">
<title>Node23&#45;&gt;Node19</title>
<path fill="none" stroke="#191970" d="M957.7393,-179.2455C945.8448,-170.814 928.435,-158.4729 914.5915,-148.6598"/>
<polygon fill="#191970" stroke="#191970" points="916.2854,-145.5704 906.1031,-142.6427 912.2372,-151.2811 916.2854,-145.5704"/>
</g>
<!-- Node24 -->
<g id="node25" class="node">
<title>Node24</title>
<polygon fill="#ffffff" stroke="#bfbfbf" points="1285,-123.5 1285,-142.5 1326,-142.5 1326,-123.5 1285,-123.5"/>
<text text-anchor="middle" x="1305.5" y="-130.5" font-family="Helvetica,sans-Serif" font-size="10.00" fill="#000000">string</text>
</g>
<!-- Node23&#45;&gt;Node24 -->
<g id="edge33" class="edge">
<title>Node23&#45;&gt;Node24</title>
<path fill="none" stroke="#191970" d="M1028.5371,-179.4369C1099.7769,-167.4925 1219.0758,-147.4903 1274.9232,-138.1267"/>
<polygon fill="#191970" stroke="#191970" points="1275.617,-141.5593 1284.9006,-136.4538 1274.4595,-134.6556 1275.617,-141.5593"/>
</g>
<!-- Node25 -->
<g id="node26" class="node">
<title>Node25</title>
<polygon fill="#ffffff" stroke="#bfbfbf" points="1078,-123.5 1078,-142.5 1173,-142.5 1173,-123.5 1078,-123.5"/>
<text text-anchor="middle" x="1125.5" y="-130.5" font-family="Helvetica,sans-Serif" font-size="10.00" fill="#000000">AMReX_Vector.H</text>
</g>
<!-- Node23&#45;&gt;Node25 -->
<g id="edge36" class="edge">
<title>Node23&#45;&gt;Node25</title>
<path fill="none" stroke="#191970" d="M997.9735,-179.3733C1023.3597,-170.1419 1061.8645,-156.1402 1089.922,-145.9375"/>
<polygon fill="#191970" stroke="#191970" points="1091.1701,-149.2079 1099.3719,-142.5011 1088.7778,-142.6293 1091.1701,-149.2079"/>
</g>
<!-- Node28&#45;&gt;Node4 -->
<g id="edge40" class="edge">
<title>Node28&#45;&gt;Node4</title>
<path fill="none" stroke="#191970" d="M581.8125,-61.8906C566.7744,-52.0519 543.1824,-36.6167 525.6333,-25.1351"/>
<polygon fill="#191970" stroke="#191970" points="527.3687,-22.088 517.0844,-19.5419 523.5363,-27.9457 527.3687,-22.088"/>
</g>
<!-- Node29&#45;&gt;Node4 -->
<g id="edge48" class="edge">
<title>Node29&#45;&gt;Node4</title>
<path fill="none" stroke="#191970" d="M1271.8949,-240.8006C1261.9994,-215.7714 1231.7589,-149.1435 1181.5,-123 1071.7357,-65.9032 695.3006,-27.2423 555.4071,-14.549"/>
<polygon fill="#191970" stroke="#191970" points="555.6303,-11.055 545.3569,-13.6449 555.0031,-18.0269 555.6303,-11.055"/>
</g>
<!-- Node29&#45;&gt;Node18 -->
<g id="edge43" class="edge">
<title>Node29&#45;&gt;Node18</title>
<path fill="none" stroke="#191970" d="M1242.8302,-240.9546C1210.9853,-231.3611 1161.3765,-215.6448 1119.5,-199 1079.5073,-183.1039 1034.7169,-161.4493 1006.5684,-147.349"/>
<polygon fill="#191970" stroke="#191970" points="1007.8463,-144.0737 997.3411,-142.6985 1004.6958,-150.3247 1007.8463,-144.0737"/>
</g>
<!-- Node29&#45;&gt;Node19 -->
<g id="edge44" class="edge">
<title>Node29&#45;&gt;Node19</title>
<path fill="none" stroke="#191970" d="M1218.9348,-246.5639C1119.4069,-239.0895 921.3764,-221.553 899.5,-199 887.8646,-187.0047 887.1661,-167.4178 888.7468,-152.6909"/>
<polygon fill="#191970" stroke="#191970" points="892.2408,-152.9901 890.2564,-142.5828 885.3176,-151.956 892.2408,-152.9901"/>
</g>
<!-- Node29&#45;&gt;Node24 -->
<g id="edge42" class="edge">
<title>Node29&#45;&gt;Node24</title>
<path fill="none" stroke="#191970" d="M1277.955,-240.8845C1282.8554,-221.6913 1293.9376,-178.286 1300.4533,-152.7663"/>
<polygon fill="#191970" stroke="#191970" points="1303.9284,-153.3034 1303.0111,-142.7484 1297.1459,-151.5717 1303.9284,-153.3034"/>
</g>
<!-- Node29&#45;&gt;Node26 -->
<g id="edge46" class="edge">
<title>Node29&#45;&gt;Node26</title>
<path fill="none" stroke="#191970" d="M1316.6875,-240.9248C1326.4325,-238.8214 1336.8092,-236.7132 1346.5,-235 1405.0223,-224.654 1572.4074,-243.7624 1611.5,-199 1631.3988,-176.2152 1594.99,-157.3934 1561.6473,-145.7593"/>
<polygon fill="#191970" stroke="#191970" points="1562.5136,-142.359 1551.9201,-142.5272 1560.3063,-149.0019 1562.5136,-142.359"/>
</g>
<!-- Node29&#45;&gt;Node30 -->
<g id="edge45" class="edge">
<title>Node29&#45;&gt;Node30</title>
<path fill="none" stroke="#191970" d="M1315.5321,-240.9676C1325.6003,-238.7893 1336.4124,-236.6366 1346.5,-235 1494.7497,-210.9483 1534.4831,-224.4446 1682.5,-199 1683.7466,-198.7857 1685.0113,-198.5562 1686.2864,-198.3145"/>
<polygon fill="#191970" stroke="#191970" points="1687.0547,-201.7297 1696.1343,-196.2697 1685.6315,-194.8758 1687.0547,-201.7297"/>
</g>
<!-- Node31 -->
<g id="node32" class="node">
<title>Node31</title>
<polygon fill="#ffffff" stroke="#bfbfbf" points="1129,-179.5 1129,-198.5 1228,-198.5 1228,-179.5 1129,-179.5"/>
<text text-anchor="middle" x="1178.5" y="-186.5" font-family="Helvetica,sans-Serif" font-size="10.00" fill="#000000">AMReX_BCRec.H</text>
</g>
<!-- Node29&#45;&gt;Node31 -->
<g id="edge47" class="edge">
<title>Node29&#45;&gt;Node31</title>
<path fill="none" stroke="#191970" d="M1260.3438,-240.8906C1244.8257,-231.0519 1220.4807,-215.6167 1202.3716,-204.1351"/>
<polygon fill="#191970" stroke="#191970" points="1203.8696,-200.9407 1193.5498,-198.5419 1200.1213,-206.8526 1203.8696,-200.9407"/>
</g>
<!-- Node32 -->
<g id="node33" class="node">
<title>Node32</title>
<g id="a_node33"><a xlink:href="incflo__enums_8_h.html" target="_top" xlink:title="amr&#45;wind/incflo_enums.H">
<polygon fill="#ffffff" stroke="#000000" points="1322.5,-179.5 1322.5,-198.5 1450.5,-198.5 1450.5,-179.5 1322.5,-179.5"/>
<text text-anchor="middle" x="1386.5" y="-186.5" font-family="Helvetica,sans-Serif" font-size="10.00" fill="#000000">amr&#45;wind/incflo_enums.H</text>
</a>
</g>
</g>
<!-- Node29&#45;&gt;Node32 -->
<g id="edge49" class="edge">
<title>Node29&#45;&gt;Node32</title>
<path fill="none" stroke="#191970" d="M1292.8438,-240.8906C1310.9273,-230.8713 1339.4859,-215.0483 1360.3165,-203.5071"/>
<polygon fill="#191970" stroke="#191970" points="1362.2271,-206.4498 1369.278,-198.5419 1358.8346,-200.3268 1362.2271,-206.4498"/>
</g>
<!-- Node33 -->
<g id="node34" class="node">
<title>Node33</title>
<g id="a_node34"><a xlink:href="_field_desc_types_8_h.html" target="_top" xlink:title="amr&#45;wind/core/FieldDescTypes.H">
<polygon fill="#ffffff" stroke="#000000" points="1587,-123.5 1587,-142.5 1750,-142.5 1750,-123.5 1587,-123.5"/>
<text text-anchor="middle" x="1668.5" y="-130.5" font-family="Helvetica,sans-Serif" font-size="10.00" fill="#000000">amr&#45;wind/core/FieldDescTypes.H</text>
</a>
</g>
</g>
<!-- Node29&#45;&gt;Node33 -->
<g id="edge50" class="edge">
<title>Node29&#45;&gt;Node33</title>
<path fill="none" stroke="#191970" d="M1316.3037,-240.9521C1326.1573,-238.8239 1336.6785,-236.6979 1346.5,-235 1470.5694,-213.5521 1521.5763,-267.0691 1627.5,-199 1644.4654,-188.0976 1655.5983,-167.4204 1661.925,-152.1032"/>
<polygon fill="#191970" stroke="#191970" points="1665.2778,-153.1326 1665.5498,-142.5412 1658.7323,-150.6512 1665.2778,-153.1326"/>
</g>
<!-- Node34 -->
<g id="node35" class="node">
<title>Node34</title>
<g id="a_node35"><a xlink:href="_view_field_8_h.html" target="_top" xlink:title="amr&#45;wind/core/ViewField.H">
<polygon fill="#ffffff" stroke="#000000" points="1468.5,-179.5 1468.5,-198.5 1602.5,-198.5 1602.5,-179.5 1468.5,-179.5"/>
<text text-anchor="middle" x="1535.5" y="-186.5" font-family="Helvetica,sans-Serif" font-size="10.00" fill="#000000">amr&#45;wind/core/ViewField.H</text>
</a>
</g>
</g>
<!-- Node29&#45;&gt;Node34 -->
<g id="edge51" class="edge">
<title>Node29&#45;&gt;Node34</title>
<path fill="none" stroke="#191970" d="M1315.8397,-240.9581C1361.4768,-230.1632 1435.857,-212.5694 1485.234,-200.8899"/>
<polygon fill="#191970" stroke="#191970" points="1486.1398,-204.2722 1495.0656,-198.5643 1484.5285,-197.4602 1486.1398,-204.2722"/>
</g>
<!-- Node34&#45;&gt;Node24 -->
<g id="edge52" class="edge">
<title>Node34&#45;&gt;Node24</title>
<path fill="none" stroke="#191970" d="M1496.2229,-179.4369C1450.8039,-168.3784 1377.0172,-150.4129 1335.8022,-140.3779"/>
<polygon fill="#191970" stroke="#191970" points="1336.6069,-136.9717 1326.0627,-138.0066 1334.9508,-143.773 1336.6069,-136.9717"/>
</g>
<!-- Node34&#45;&gt;Node25 -->
<g id="edge55" class="edge">
<title>Node34&#45;&gt;Node25</title>
<path fill="none" stroke="#191970" d="M1468.2559,-179.8154C1388.9519,-168.9837 1258.4567,-151.1599 1183.4389,-140.9136"/>
<polygon fill="#191970" stroke="#191970" points="1183.6145,-137.4052 1173.2329,-139.5196 1182.6672,-144.3408 1183.6145,-137.4052"/>
</g>
<!-- Node34&#45;&gt;Node26 -->
<g id="edge54" class="edge">
<title>Node34&#45;&gt;Node26</title>
<path fill="none" stroke="#191970" d="M1532.1905,-179.2455C1529.6567,-171.7776 1526.0823,-161.2427 1522.985,-152.1137"/>
<polygon fill="#191970" stroke="#191970" points="1526.2991,-150.9879 1519.7716,-142.6427 1519.6702,-153.237 1526.2991,-150.9879"/>
</g>
<!-- Node34&#45;&gt;Node33 -->
<g id="edge53" class="edge">
<title>Node34&#45;&gt;Node33</title>
<path fill="none" stroke="#191970" d="M1558.3635,-179.3733C1579.905,-170.3032 1612.3838,-156.6279 1636.4956,-146.4755"/>
<polygon fill="#191970" stroke="#191970" points="1638.0767,-149.6075 1645.9348,-142.5011 1635.3603,-143.156 1638.0767,-149.6075"/>
</g>
</g>
</svg>
        <g id="navigator" transform="translate(0 0)" fill="#404254">
                <rect fill="#f2f5e9" fill-opacity="0.5" stroke="#606060" stroke-width=".5" x="0" y="0" width="60" height="60"/>
                <use id="zoomplus" xlink:href="#zoomPlus" x="17" y="9" onmousedown="handleZoom(evt,'in')"/>
                <use id="zoomminus" xlink:href="#zoomMin" x="42" y="9" onmousedown="handleZoom(evt,'out')"/>
                <use id="reset" xlink:href="#resetDef" x="30" y="36" onmousedown="handleReset()"/>
                <g id="arrowUp" xlink:href="#dirArrow" transform="translate(30 24)" onmousedown="handlePan(0,-1)">
                  <use xlink:href="#rim" fill="#404040">
                        <set attributeName="fill" to="#808080" begin="arrowUp.mouseover" end="arrowUp.mouseout"/>
                  </use>
                  <path fill="none" stroke="white" stroke-width="1.5" d="M0,-3.0v7 M-2.5,-0.5L0,-3.0L2.5,-0.5"/>
                </g>
                <g id="arrowRight" xlink:href="#dirArrow" transform="rotate(90) translate(36 -43)" onmousedown="handlePan(1,0)">
                  <use xlink:href="#rim" fill="#404040">
                        <set attributeName="fill" to="#808080" begin="arrowRight.mouseover" end="arrowRight.mouseout"/>
                  </use>
                  <path fill="none" stroke="white" stroke-width="1.5" d="M0,-3.0v7 M-2.5,-0.5L0,-3.0L2.5,-0.5"/>
                </g>
                <g id="arrowDown" xlink:href="#dirArrow" transform="rotate(180) translate(-30 -48)" onmousedown="handlePan(0,1)">
                  <use xlink:href="#rim" fill="#404040">
                        <set attributeName="fill" to="#808080" begin="arrowDown.mouseover" end="arrowDown.mouseout"/>
                  </use>
                  <path fill="none" stroke="white" stroke-width="1.5" d="M0,-3.0v7 M-2.5,-0.5L0,-3.0L2.5,-0.5"/>
                </g>
                <g id="arrowLeft" xlink:href="#dirArrow" transform="rotate(270) translate(-36 17)" onmousedown="handlePan(-1,0)">
                  <use xlink:href="#rim" fill="#404040">
                        <set attributeName="fill" to="#808080" begin="arrowLeft.mouseover" end="arrowLeft.mouseout"/>
                  </use>
                  <path fill="none" stroke="white" stroke-width="1.5" d="M0,-3.0v7 M-2.5,-0.5L0,-3.0L2.5,-0.5"/>
                </g>
        </g>
        <svg viewBox="0 0 15 15" width="100%" height="30px" preserveAspectRatio="xMaxYMin meet">
         <g id="arrow_out" transform="scale(0.3 0.3)">
          <a xlink:href="_actuator_container_8cpp__incl_org.svg" target="_base">
           <rect id="button" ry="5" rx="5" y="6" x="6" height="38" width="38"
                fill="#f2f5e9" fill-opacity="0.5" stroke="#606060" stroke-width="1.0"/>
           <path id="arrow"
             d="M 11.500037,31.436501 C 11.940474,20.09759 22.043105,11.32322 32.158766,21.979434 L 37.068811,17.246167 C 37.068811,17.246167 37.088388,32 37.088388,32 L 22.160133,31.978069 C 22.160133,31.978069 26.997745,27.140456 26.997745,27.140456 C 18.528582,18.264221 13.291696,25.230495 11.500037,31.436501 z"
             style="fill:#404040;"/>
          </a>
         </g>
        </svg>
</svg>
