<?xml version="1.0" encoding="UTF-8" standalone="no"?>
<!DOCTYPE svg PUBLIC "-//W3C//DTD SVG 1.1//EN"
 "http://www.w3.org/Graphics/SVG/1.1/DTD/svg11.dtd">
<!-- Generated by graphviz version 2.40.1 (20161225.0304)
 -->
<!-- Title: ActParser.H Pages: 1 -->
<svg width="623pt" height="252pt"
 viewBox="0.00 0.00 623.14 252.00" xmlns="http://www.w3.org/2000/svg" xmlns:xlink="http://www.w3.org/1999/xlink">
<g id="graph0" class="graph" transform="scale(1 1) rotate(0) translate(4 248)">
<title>ActParser.H</title>
<polygon fill="#ffffff" stroke="transparent" points="-4,4 -4,-248 619.1362,-248 619.1362,4 -4,4"/>
<!-- Node14 -->
<g id="node1" class="node">
<title>Node14</title>
<polygon fill="#bfbfbf" stroke="#000000" points="215.1362,-224.5 215.1362,-243.5 286.1362,-243.5 286.1362,-224.5 215.1362,-224.5"/>
<text text-anchor="middle" x="250.6362" y="-231.5" font-family="Helvetica,sans-Serif" font-size="10.00" fill="#000000">ActParser.H</text>
</g>
<!-- Node15 -->
<g id="node2" class="node">
<title>Node15</title>
<g id="a_node2"><a xlink:href="actuator__ops_8_h.html" target="_top" xlink:title="actuator_ops.H">
<polygon fill="#ffffff" stroke="#000000" points="310.1362,-168.5 310.1362,-187.5 393.1362,-187.5 393.1362,-168.5 310.1362,-168.5"/>
<text text-anchor="middle" x="351.6362" y="-175.5" font-family="Helvetica,sans-Serif" font-size="10.00" fill="#000000">actuator_ops.H</text>
</a>
</g>
</g>
<!-- Node14&#45;&gt;Node15 -->
<g id="edge1" class="edge">
<title>Node14&#45;&gt;Node15</title>
<path fill="none" stroke="#191970" d="M277.1081,-219.3225C295.1486,-209.3198 318.5238,-196.3593 334.2449,-187.6427"/>
<polygon fill="#191970" stroke="#191970" points="275.2775,-216.3354 268.229,-224.2455 278.6719,-222.4574 275.2775,-216.3354"/>
</g>
<!-- Node17 -->
<g id="node4" class="node">
<title>Node17</title>
<g id="a_node4"><a xlink:href="_actuator_model_8_h.html" target="_top" xlink:title="ActuatorModel.H">
<polygon fill="#ffffff" stroke="#000000" points="209.6362,-56.5 209.6362,-75.5 299.6362,-75.5 299.6362,-56.5 209.6362,-56.5"/>
<text text-anchor="middle" x="254.6362" y="-63.5" font-family="Helvetica,sans-Serif" font-size="10.00" fill="#000000">ActuatorModel.H</text>
</a>
</g>
</g>
<!-- Node14&#45;&gt;Node17 -->
<g id="edge19" class="edge">
<title>Node14&#45;&gt;Node17</title>
<path fill="none" stroke="#191970" d="M251.1062,-214.2601C251.9655,-178.1669 253.7608,-102.7656 254.4022,-75.8279"/>
<polygon fill="#191970" stroke="#191970" points="247.6018,-214.4057 250.8627,-224.4862 254.5998,-214.5724 247.6018,-214.4057"/>
</g>
<!-- Node18 -->
<g id="node5" class="node">
<title>Node18</title>
<g id="a_node5"><a xlink:href="_actuator_8cpp.html" target="_top" xlink:title="Actuator.cpp">
<polygon fill="#ffffff" stroke="#000000" points="14.6362,-.5 14.6362,-19.5 86.6362,-19.5 86.6362,-.5 14.6362,-.5"/>
<text text-anchor="middle" x="50.6362" y="-7.5" font-family="Helvetica,sans-Serif" font-size="10.00" fill="#000000">Actuator.cpp</text>
</a>
</g>
</g>
<!-- Node14&#45;&gt;Node18 -->
<g id="edge20" class="edge">
<title>Node14&#45;&gt;Node18</title>
<path fill="none" stroke="#191970" d="M204.8894,-230.0699C147.065,-222.3311 49.9714,-199.4481 7.6362,-132 -16.1225,-94.1479 23.0395,-41.4238 41.6566,-19.8217"/>
<polygon fill="#191970" stroke="#191970" points="204.5052,-233.549 214.8599,-231.3064 205.3667,-226.6022 204.5052,-233.549"/>
</g>
<!-- Node26 -->
<g id="node13" class="node">
<title>Node26</title>
<g id="a_node13"><a xlink:href="wing__ops_8cpp.html" target="_top" xlink:title="wing_ops.cpp">
<polygon fill="#ffffff" stroke="#000000" points="538.1362,-56.5 538.1362,-75.5 615.1362,-75.5 615.1362,-56.5 538.1362,-56.5"/>
<text text-anchor="middle" x="576.6362" y="-63.5" font-family="Helvetica,sans-Serif" font-size="10.00" fill="#000000">wing_ops.cpp</text>
</a>
</g>
</g>
<!-- Node14&#45;&gt;Node26 -->
<g id="edge24" class="edge">
<title>Node14&#45;&gt;Node26</title>
<path fill="none" stroke="#191970" d="M296.116,-224.4723C372.4381,-207.6048 521.5084,-170.6099 557.6362,-132 572.3005,-116.3282 575.7364,-90.0655 576.4841,-75.8532"/>
<polygon fill="#191970" stroke="#191970" points="295.3138,-221.065 286.2926,-226.6209 296.8096,-227.9033 295.3138,-221.065"/>
</g>
<!-- Node27 -->
<g id="node14" class="node">
<title>Node27</title>
<g id="a_node14"><a xlink:href="turbine__utils_8_h.html" target="_top" xlink:title="turbine_utils.H">
<polygon fill="#ffffff" stroke="#000000" points="132.6362,-168.5 132.6362,-187.5 212.6362,-187.5 212.6362,-168.5 132.6362,-168.5"/>
<text text-anchor="middle" x="172.6362" y="-175.5" font-family="Helvetica,sans-Serif" font-size="10.00" fill="#000000">turbine_utils.H</text>
</a>
</g>
</g>
<!-- Node14&#45;&gt;Node27 -->
<g id="edge21" class="edge">
<title>Node14&#45;&gt;Node27</title>
<path fill="none" stroke="#191970" d="M228.6426,-218.2097C214.9433,-208.3743 197.7626,-196.0394 186.0671,-187.6427"/>
<polygon fill="#191970" stroke="#191970" points="226.8851,-221.2566 237.0496,-224.2455 230.9676,-215.5703 226.8851,-221.2566"/>
</g>
<!-- Node16 -->
<g id="node3" class="node">
<title>Node16</title>
<g id="a_node3"><a xlink:href="_act_src_op_8_h.html" target="_top" xlink:title="ActSrcOp.H">
<polygon fill="#ffffff" stroke="#000000" points="316.6362,-112.5 316.6362,-131.5 386.6362,-131.5 386.6362,-112.5 316.6362,-112.5"/>
<text text-anchor="middle" x="351.6362" y="-119.5" font-family="Helvetica,sans-Serif" font-size="10.00" fill="#000000">ActSrcOp.H</text>
</a>
</g>
</g>
<!-- Node15&#45;&gt;Node16 -->
<g id="edge2" class="edge">
<title>Node15&#45;&gt;Node16</title>
<path fill="none" stroke="#191970" d="M351.6362,-158.1575C351.6362,-149.155 351.6362,-138.9199 351.6362,-131.6427"/>
<polygon fill="#191970" stroke="#191970" points="348.1363,-158.2455 351.6362,-168.2455 355.1363,-158.2456 348.1363,-158.2455"/>
</g>
<!-- Node15&#45;&gt;Node17 -->
<g id="edge8" class="edge">
<title>Node15&#45;&gt;Node17</title>
<path fill="none" stroke="#191970" d="M334.8611,-161.168C326.4982,-152.6011 316.3385,-141.9244 307.6362,-132 290.584,-112.5532 271.9278,-88.6504 261.9329,-75.6103"/>
<polygon fill="#191970" stroke="#191970" points="332.4327,-163.6903 341.9429,-168.3602 337.4207,-158.779 332.4327,-163.6903"/>
</g>
<!-- Node22 -->
<g id="node9" class="node">
<title>Node22</title>
<g id="a_node9"><a xlink:href="turbine__fast__ops_8_h.html" target="_top" xlink:title="turbine_fast_ops.H">
<polygon fill="#ffffff" stroke="#000000" points="123.1362,-112.5 123.1362,-131.5 222.1362,-131.5 222.1362,-112.5 123.1362,-112.5"/>
<text text-anchor="middle" x="172.6362" y="-119.5" font-family="Helvetica,sans-Serif" font-size="10.00" fill="#000000">turbine_fast_ops.H</text>
</a>
</g>
</g>
<!-- Node15&#45;&gt;Node22 -->
<g id="edge9" class="edge">
<title>Node15&#45;&gt;Node22</title>
<path fill="none" stroke="#191970" d="M311.1167,-165.3235C278.2896,-155.0536 232.7586,-140.8093 203.0058,-131.5011"/>
<polygon fill="#191970" stroke="#191970" points="310.2761,-168.7278 320.865,-168.3733 312.3662,-162.0471 310.2761,-168.7278"/>
</g>
<!-- Node23 -->
<g id="node10" class="node">
<title>Node23</title>
<g id="a_node10"><a xlink:href="fixed__wing__ops_8_h.html" target="_top" xlink:title="fixed_wing_ops.H">
<polygon fill="#ffffff" stroke="#000000" points="318.1362,-56.5 318.1362,-75.5 413.1362,-75.5 413.1362,-56.5 318.1362,-56.5"/>
<text text-anchor="middle" x="365.6362" y="-63.5" font-family="Helvetica,sans-Serif" font-size="10.00" fill="#000000">fixed_wing_ops.H</text>
</a>
</g>
</g>
<!-- Node15&#45;&gt;Node23 -->
<g id="edge11" class="edge">
<title>Node15&#45;&gt;Node23</title>
<path fill="none" stroke="#191970" d="M373.06,-161.8901C381.8173,-153.9676 390.9729,-143.6218 395.6362,-132 403.7919,-111.6747 387.0017,-88.4887 375.4087,-75.7206"/>
<polygon fill="#191970" stroke="#191970" points="370.6635,-159.3325 365.2698,-168.4516 375.173,-164.6864 370.6635,-159.3325"/>
</g>
<!-- Node24 -->
<g id="node11" class="node">
<title>Node24</title>
<g id="a_node11"><a xlink:href="wing__ops_8_h.html" target="_top" xlink:title="wing_ops.H">
<polygon fill="#ffffff" stroke="#000000" points="480.6362,-112.5 480.6362,-131.5 548.6362,-131.5 548.6362,-112.5 480.6362,-112.5"/>
<text text-anchor="middle" x="514.6362" y="-119.5" font-family="Helvetica,sans-Serif" font-size="10.00" fill="#000000">wing_ops.H</text>
</a>
</g>
</g>
<!-- Node15&#45;&gt;Node24 -->
<g id="edge13" class="edge">
<title>Node15&#45;&gt;Node24</title>
<path fill="none" stroke="#191970" d="M389.3095,-165.057C419.1404,-154.8084 460.1214,-140.729 486.9811,-131.5011"/>
<polygon fill="#191970" stroke="#191970" points="387.9771,-161.8139 379.6569,-168.3733 390.2516,-168.4341 387.9771,-161.8139"/>
</g>
<!-- Node25 -->
<g id="node12" class="node">
<title>Node25</title>
<g id="a_node12"><a xlink:href="flat__plate__ops_8_h.html" target="_top" xlink:title="flat_plate_ops.H">
<polygon fill="#ffffff" stroke="#000000" points="431.6362,-56.5 431.6362,-75.5 519.6362,-75.5 519.6362,-56.5 431.6362,-56.5"/>
<text text-anchor="middle" x="475.6362" y="-63.5" font-family="Helvetica,sans-Serif" font-size="10.00" fill="#000000">flat_plate_ops.H</text>
</a>
</g>
</g>
<!-- Node15&#45;&gt;Node25 -->
<g id="edge18" class="edge">
<title>Node15&#45;&gt;Node25</title>
<path fill="none" stroke="#191970" d="M373.282,-162.1978C384.6844,-153.6091 398.7335,-142.6011 410.6362,-132 431.773,-113.1746 454.5693,-89.0388 466.7529,-75.7924"/>
<polygon fill="#191970" stroke="#191970" points="371.0882,-159.4676 365.1578,-168.2472 375.2688,-165.0821 371.0882,-159.4676"/>
</g>
<!-- Node16&#45;&gt;Node17 -->
<g id="edge3" class="edge">
<title>Node16&#45;&gt;Node17</title>
<path fill="none" stroke="#191970" d="M325.7346,-107.0465C308.4753,-97.0824 286.2986,-84.2794 271.3387,-75.6427"/>
<polygon fill="#191970" stroke="#191970" points="324.3297,-110.2768 334.7401,-112.2455 327.8296,-104.2146 324.3297,-110.2768"/>
</g>
<!-- Node17&#45;&gt;Node18 -->
<g id="edge4" class="edge">
<title>Node17&#45;&gt;Node18</title>
<path fill="none" stroke="#191970" d="M209.9015,-53.7199C172.3907,-43.4228 119.5941,-28.9296 85.2474,-19.5011"/>
<polygon fill="#191970" stroke="#191970" points="208.9975,-57.1012 219.5673,-56.3733 210.8506,-50.3509 208.9975,-57.1012"/>
</g>
<!-- Node19 -->
<g id="node6" class="node">
<title>Node19</title>
<g id="a_node6"><a xlink:href="_turbine_fast_8cpp.html" target="_top" xlink:title="TurbineFast.cpp">
<polygon fill="#ffffff" stroke="#000000" points="148.1362,-.5 148.1362,-19.5 235.1362,-19.5 235.1362,-.5 148.1362,-.5"/>
<text text-anchor="middle" x="191.6362" y="-7.5" font-family="Helvetica,sans-Serif" font-size="10.00" fill="#000000">TurbineFast.cpp</text>
</a>
</g>
</g>
<!-- Node17&#45;&gt;Node19 -->
<g id="edge5" class="edge">
<title>Node17&#45;&gt;Node19</title>
<path fill="none" stroke="#191970" d="M235.917,-49.3607C225.018,-39.6727 211.6607,-27.7995 202.4842,-19.6427"/>
<polygon fill="#191970" stroke="#191970" points="233.863,-52.2178 243.6624,-56.2455 238.5136,-46.9859 233.863,-52.2178"/>
</g>
<!-- Node20 -->
<g id="node7" class="node">
<title>Node20</title>
<g id="a_node7"><a xlink:href="_fixed_wing_8cpp.html" target="_top" xlink:title="FixedWing.cpp">
<polygon fill="#ffffff" stroke="#000000" points="298.6362,-.5 298.6362,-19.5 380.6362,-19.5 380.6362,-.5 298.6362,-.5"/>
<text text-anchor="middle" x="339.6362" y="-7.5" font-family="Helvetica,sans-Serif" font-size="10.00" fill="#000000">FixedWing.cpp</text>
</a>
</g>
</g>
<!-- Node17&#45;&gt;Node20 -->
<g id="edge6" class="edge">
<title>Node17&#45;&gt;Node20</title>
<path fill="none" stroke="#191970" d="M278.1781,-50.49C293.1752,-40.6096 312.1335,-28.1194 325,-19.6427"/>
<polygon fill="#191970" stroke="#191970" points="275.8671,-47.8212 269.4421,-56.2455 279.7182,-53.6666 275.8671,-47.8212"/>
</g>
<!-- Node21 -->
<g id="node8" class="node">
<title>Node21</title>
<g id="a_node8"><a xlink:href="_flat_plate_8cpp.html" target="_top" xlink:title="FlatPlate.cpp">
<polygon fill="#ffffff" stroke="#000000" points="427.6362,-.5 427.6362,-19.5 501.6362,-19.5 501.6362,-.5 427.6362,-.5"/>
<text text-anchor="middle" x="464.6362" y="-7.5" font-family="Helvetica,sans-Serif" font-size="10.00" fill="#000000">FlatPlate.cpp</text>
</a>
</g>
</g>
<!-- Node17&#45;&gt;Node21 -->
<g id="edge7" class="edge">
<title>Node17&#45;&gt;Node21</title>
<path fill="none" stroke="#191970" d="M300.6866,-53.7199C339.3007,-43.4228 393.6501,-28.9296 429.007,-19.5011"/>
<polygon fill="#191970" stroke="#191970" points="299.497,-50.4147 290.7365,-56.3733 301.3007,-57.1784 299.497,-50.4147"/>
</g>
<!-- Node22&#45;&gt;Node19 -->
<g id="edge10" class="edge">
<title>Node22&#45;&gt;Node19</title>
<path fill="none" stroke="#191970" d="M175.9832,-102.2702C180.1007,-77.9985 186.9248,-37.7725 190.0204,-19.5249"/>
<polygon fill="#191970" stroke="#191970" points="172.478,-102.0064 174.2561,-112.4509 179.3794,-103.1772 172.478,-102.0064"/>
</g>
<!-- Node23&#45;&gt;Node20 -->
<g id="edge12" class="edge">
<title>Node23&#45;&gt;Node20</title>
<path fill="none" stroke="#191970" d="M356.835,-47.0437C352.5587,-37.8331 347.6032,-27.1598 344.1131,-19.6427"/>
<polygon fill="#191970" stroke="#191970" points="353.7216,-48.6494 361.1073,-56.2455 360.0707,-45.7015 353.7216,-48.6494"/>
</g>
<!-- Node24&#45;&gt;Node23 -->
<g id="edge14" class="edge">
<title>Node24&#45;&gt;Node23</title>
<path fill="none" stroke="#191970" d="M479.485,-108.7888C452.2794,-98.5639 415.2552,-84.6488 390.916,-75.5011"/>
<polygon fill="#191970" stroke="#191970" points="478.4301,-112.1313 489.0222,-112.3733 480.8928,-105.5788 478.4301,-112.1313"/>
</g>
<!-- Node24&#45;&gt;Node25 -->
<g id="edge15" class="edge">
<title>Node24&#45;&gt;Node25</title>
<path fill="none" stroke="#191970" d="M502.0454,-103.9209C495.4966,-94.5176 487.7538,-83.3997 482.3516,-75.6427"/>
<polygon fill="#191970" stroke="#191970" points="499.2558,-106.0397 507.8429,-112.2455 505.0001,-102.0392 499.2558,-106.0397"/>
</g>
<!-- Node24&#45;&gt;Node26 -->
<g id="edge17" class="edge">
<title>Node24&#45;&gt;Node26</title>
<path fill="none" stroke="#191970" d="M533.0583,-105.3607C543.7843,-95.6727 556.9296,-83.7995 565.9604,-75.6427"/>
<polygon fill="#191970" stroke="#191970" points="530.5108,-102.9453 525.4358,-112.2455 535.2028,-108.14 530.5108,-102.9453"/>
</g>
<!-- Node25&#45;&gt;Node21 -->
<g id="edge16" class="edge">
<title>Node25&#45;&gt;Node21</title>
<path fill="none" stroke="#191970" d="M471.7386,-46.1575C469.9702,-37.155 467.9597,-26.9199 466.5303,-19.6427"/>
<polygon fill="#191970" stroke="#191970" points="468.3582,-47.1077 473.7201,-56.2455 475.227,-45.7584 468.3582,-47.1077"/>
</g>
<!-- Node27&#45;&gt;Node22 -->
<g id="edge22" class="edge">
<title>Node27&#45;&gt;Node22</title>
<path fill="none" stroke="#191970" d="M172.6362,-158.1575C172.6362,-149.155 172.6362,-138.9199 172.6362,-131.6427"/>
<polygon fill="#191970" stroke="#191970" points="169.1363,-158.2455 172.6362,-168.2455 176.1363,-158.2456 169.1363,-158.2455"/>
</g>
<!-- Node28 -->
<g id="node15" class="node">
<title>Node28</title>
<g id="a_node15"><a xlink:href="turbine__utils_8cpp.html" target="_top" xlink:title="turbine_utils.cpp">
<polygon fill="#ffffff" stroke="#000000" points="16.6362,-112.5 16.6362,-131.5 104.6362,-131.5 104.6362,-112.5 16.6362,-112.5"/>
<text text-anchor="middle" x="60.6362" y="-119.5" font-family="Helvetica,sans-Serif" font-size="10.00" fill="#000000">turbine_utils.cpp</text>
</a>
</g>
</g>
<!-- Node27&#45;&gt;Node28 -->
<g id="edge23" class="edge">
<title>Node27&#45;&gt;Node28</title>
<path fill="none" stroke="#191970" d="M144.3099,-163.8368C124.0641,-153.7139 97.372,-140.3679 79.6384,-131.5011"/>
<polygon fill="#191970" stroke="#191970" points="142.8732,-167.0316 153.3827,-168.3733 146.0037,-160.7706 142.8732,-167.0316"/>
</g>
</g>
</svg>
