<?xml version="1.0" encoding="UTF-8" standalone="no"?>
<!DOCTYPE svg PUBLIC "-//W3C//DTD SVG 1.1//EN"
 "http://www.w3.org/Graphics/SVG/1.1/DTD/svg11.dtd">
<!-- Generated by graphviz version 2.40.1 (20161225.0304)
 -->
<!-- Title: ActSrcOp.H Pages: 1 -->
<svg width="378pt" height="140pt"
 viewBox="0.00 0.00 378.00 140.00" xmlns="http://www.w3.org/2000/svg" xmlns:xlink="http://www.w3.org/1999/xlink">
<g id="graph0" class="graph" transform="scale(1 1) rotate(0) translate(4 136)">
<title>ActSrcOp.H</title>
<polygon fill="#ffffff" stroke="transparent" points="-4,4 -4,-136 374,-136 374,4 -4,4"/>
<!-- Node56 -->
<g id="node1" class="node">
<title>Node56</title>
<polygon fill="#bfbfbf" stroke="#000000" points="150,-112.5 150,-131.5 220,-131.5 220,-112.5 150,-112.5"/>
<text text-anchor="middle" x="185" y="-119.5" font-family="Helvetica,sans-Serif" font-size="10.00" fill="#000000">ActSrcOp.H</text>
</g>
<!-- Node57 -->
<g id="node2" class="node">
<title>Node57</title>
<g id="a_node2"><a xlink:href="_actuator_model_8_h.html" target="_top" xlink:title="ActuatorModel.H">
<polygon fill="#ffffff" stroke="#000000" points="140,-56.5 140,-75.5 230,-75.5 230,-56.5 140,-56.5"/>
<text text-anchor="middle" x="185" y="-63.5" font-family="Helvetica,sans-Serif" font-size="10.00" fill="#000000">ActuatorModel.H</text>
</a>
</g>
</g>
<!-- Node56&#45;&gt;Node57 -->
<g id="edge1" class="edge">
<title>Node56&#45;&gt;Node57</title>
<path fill="none" stroke="#191970" d="M185,-102.1575C185,-93.155 185,-82.9199 185,-75.6427"/>
<polygon fill="#191970" stroke="#191970" points="181.5001,-102.2455 185,-112.2455 188.5001,-102.2456 181.5001,-102.2455"/>
</g>
<!-- Node58 -->
<g id="node3" class="node">
<title>Node58</title>
<g id="a_node3"><a xlink:href="_actuator_8cpp.html" target="_top" xlink:title="Actuator.cpp">
<polygon fill="#ffffff" stroke="#000000" points="0,-.5 0,-19.5 72,-19.5 72,-.5 0,-.5"/>
<text text-anchor="middle" x="36" y="-7.5" font-family="Helvetica,sans-Serif" font-size="10.00" fill="#000000">Actuator.cpp</text>
</a>
</g>
</g>
<!-- Node57&#45;&gt;Node58 -->
<g id="edge2" class="edge">
<title>Node57&#45;&gt;Node58</title>
<path fill="none" stroke="#191970" d="M149.8488,-52.7888C122.6432,-42.5639 85.6191,-28.6488 61.2798,-19.5011"/>
<polygon fill="#191970" stroke="#191970" points="148.7939,-56.1313 159.386,-56.3733 151.2566,-49.5788 148.7939,-56.1313"/>
</g>
<!-- Node59 -->
<g id="node4" class="node">
<title>Node59</title>
<g id="a_node4"><a xlink:href="_turbine_fast_8cpp.html" target="_top" xlink:title="TurbineFast.cpp">
<polygon fill="#ffffff" stroke="#000000" points="90.5,-.5 90.5,-19.5 177.5,-19.5 177.5,-.5 90.5,-.5"/>
<text text-anchor="middle" x="134" y="-7.5" font-family="Helvetica,sans-Serif" font-size="10.00" fill="#000000">TurbineFast.cpp</text>
</a>
</g>
</g>
<!-- Node57&#45;&gt;Node59 -->
<g id="edge3" class="edge">
<title>Node57&#45;&gt;Node59</title>
<path fill="none" stroke="#191970" d="M169.3251,-48.7884C160.6006,-39.2085 150.0646,-27.6396 142.7817,-19.6427"/>
<polygon fill="#191970" stroke="#191970" points="166.7954,-51.2088 176.1165,-56.2455 171.9709,-46.4954 166.7954,-51.2088"/>
</g>
<!-- Node60 -->
<g id="node5" class="node">
<title>Node60</title>
<g id="a_node5"><a xlink:href="_fixed_wing_8cpp.html" target="_top" xlink:title="FixedWing.cpp">
<polygon fill="#ffffff" stroke="#000000" points="196,-.5 196,-19.5 278,-19.5 278,-.5 196,-.5"/>
<text text-anchor="middle" x="237" y="-7.5" font-family="Helvetica,sans-Serif" font-size="10.00" fill="#000000">FixedWing.cpp</text>
</a>
</g>
</g>
<!-- Node57&#45;&gt;Node60 -->
<g id="edge4" class="edge">
<title>Node57&#45;&gt;Node60</title>
<path fill="none" stroke="#191970" d="M200.9822,-48.7884C209.8778,-39.2085 220.6204,-27.6396 228.0461,-19.6427"/>
<polygon fill="#191970" stroke="#191970" points="198.2975,-46.536 194.0577,-56.2455 203.427,-51.2992 198.2975,-46.536"/>
</g>
<!-- Node61 -->
<g id="node6" class="node">
<title>Node61</title>
<g id="a_node6"><a xlink:href="_flat_plate_8cpp.html" target="_top" xlink:title="FlatPlate.cpp">
<polygon fill="#ffffff" stroke="#000000" points="296,-.5 296,-19.5 370,-19.5 370,-.5 296,-.5"/>
<text text-anchor="middle" x="333" y="-7.5" font-family="Helvetica,sans-Serif" font-size="10.00" fill="#000000">FlatPlate.cpp</text>
</a>
</g>
</g>
<!-- Node57&#45;&gt;Node61 -->
<g id="edge5" class="edge">
<title>Node57&#45;&gt;Node61</title>
<path fill="none" stroke="#191970" d="M219.9153,-52.7888C246.9383,-42.5639 283.714,-28.6488 307.8899,-19.5011"/>
<polygon fill="#191970" stroke="#191970" points="218.5563,-49.5608 210.4421,-56.3733 221.0336,-56.1078 218.5563,-49.5608"/>
</g>
</g>
</svg>
