<?xml version="1.0" encoding="UTF-8" standalone="no"?>
<!DOCTYPE svg PUBLIC "-//W3C//DTD SVG 1.1//EN"
 "http://www.w3.org/Graphics/SVG/1.1/DTD/svg11.dtd">
<!-- Generated by graphviz version 2.40.1 (20161225.0304)
 -->
<!-- Title: ActuatorWing.H Pages: 1 -->
<!--zoomable 397 -->
<svg id="main" version="1.1" xmlns="http://www.w3.org/2000/svg" xmlns:xlink="http://www.w3.org/1999/xlink" xml:space="preserve" onload="init(evt)">
<style type="text/css"><![CDATA[
.edge:hover path { stroke: red; }
.edge:hover polygon { stroke: red; fill: red; }
]]></style>
<script type="text/javascript"><![CDATA[
var edges = document.getElementsByTagName('g');
if (edges && edges.length) {
  for (var i=0;i<edges.length;i++) {
    if (edges[i].id.substr(0,4)=='edge') {
      edges[i].setAttribute('class','edge');
    }
  }
}
]]></script>
        <defs>
                <circle id="rim" cx="0" cy="0" r="7"/>
                <circle id="rim2" cx="0" cy="0" r="3.5"/>
                <g id="zoomPlus">
                        <use xlink:href="#rim" fill="#404040">
                                <set attributeName="fill" to="#808080" begin="zoomplus.mouseover" end="zoomplus.mouseout"/>
                        </use>
                        <path d="M-4,0h8M0,-4v8" fill="none" stroke="white" stroke-width="1.5" pointer-events="none"/>
                </g>
                <g id="zoomMin">
                        <use xlink:href="#rim" fill="#404040">
                                <set attributeName="fill" to="#808080" begin="zoomminus.mouseover" end="zoomminus.mouseout"/>
                        </use>
                        <path d="M-4,0h8" fill="none" stroke="white" stroke-width="1.5" pointer-events="none"/>
                </g>
                <g id="dirArrow">
                        <path fill="none" stroke="white" stroke-width="1.5" d="M0,-3.0v7 M-2.5,-0.5L0,-3.0L2.5,-0.5"/>
                </g>
               <g id="resetDef">
                       <use xlink:href="#rim2" fill="#404040">
                               <set attributeName="fill" to="#808080" begin="reset.mouseover" end="reset.mouseout"/>
                       </use>
               </g>
        </defs>

<script type="text/javascript">
var viewWidth = 620;
var viewHeight = 397;
var sectionId = 'dynsection-0';
</script>
<script xlink:href="svgpan.js"/>
<svg id="graph" class="graph">
<g id="viewport">
<title>ActuatorWing.H</title>
<polygon fill="#ffffff" stroke="transparent" points="-4,4 -4,-393 615.8381,-393 615.8381,4 -4,4"/>
<!-- Node0 -->
<g id="node1" class="node">
<title>Node0</title>
<polygon fill="#bfbfbf" stroke="#000000" points="308,-369.5 308,-388.5 394,-388.5 394,-369.5 308,-369.5"/>
<text text-anchor="middle" x="351" y="-376.5" font-family="Helvetica,sans-Serif" font-size="10.00" fill="#000000">ActuatorWing.H</text>
</g>
<!-- Node1 -->
<g id="node2" class="node">
<title>Node1</title>
<g id="a_node2"><a xlink:href="actuator__types_8_h.html" target="_top" xlink:title="amr&#45;wind/wind_energy\l/actuator/actuator_types.H">
<polygon fill="#ffffff" stroke="#000000" points="139.5,-302.5 139.5,-332.5 272.5,-332.5 272.5,-302.5 139.5,-302.5"/>
<text text-anchor="start" x="147.5" y="-320.5" font-family="Helvetica,sans-Serif" font-size="10.00" fill="#000000">amr&#45;wind/wind_energy</text>
<text text-anchor="middle" x="206" y="-309.5" font-family="Helvetica,sans-Serif" font-size="10.00" fill="#000000">/actuator/actuator_types.H</text>
</a>
</g>
</g>
<!-- Node0&#45;&gt;Node1 -->
<g id="edge1" class="edge">
<title>Node0&#45;&gt;Node1</title>
<path fill="none" stroke="#191970" d="M328.3438,-369.3906C307.7204,-360.6435 276.6677,-347.4728 251.0082,-336.5897"/>
<polygon fill="#191970" stroke="#191970" points="252.0438,-333.2272 241.471,-332.5446 249.3105,-339.6715 252.0438,-333.2272"/>
</g>
<!-- Node6 -->
<g id="node7" class="node">
<title>Node6</title>
<g id="a_node7"><a xlink:href="vector__space_8_h.html" target="_top" xlink:title="amr&#45;wind/core/vs/vector\l_space.H">
<polygon fill="#ffffff" stroke="#000000" points="340,-235.5 340,-265.5 462,-265.5 462,-235.5 340,-235.5"/>
<text text-anchor="start" x="348" y="-253.5" font-family="Helvetica,sans-Serif" font-size="10.00" fill="#000000">amr&#45;wind/core/vs/vector</text>
<text text-anchor="middle" x="401" y="-242.5" font-family="Helvetica,sans-Serif" font-size="10.00" fill="#000000">_space.H</text>
</a>
</g>
</g>
<!-- Node0&#45;&gt;Node6 -->
<g id="edge30" class="edge">
<title>Node0&#45;&gt;Node6</title>
<path fill="none" stroke="#191970" d="M352.4458,-369.2234C354.8636,-354.3076 360.429,-325.1599 370,-302 373.9222,-292.509 379.4097,-282.7049 384.6795,-274.2308"/>
<polygon fill="#191970" stroke="#191970" points="387.7452,-275.9351 390.228,-265.6353 381.864,-272.1387 387.7452,-275.9351"/>
</g>
<!-- Node19 -->
<g id="node20" class="node">
<title>Node19</title>
<polygon fill="#ffffff" stroke="#bfbfbf" points="379.5,-308 379.5,-327 420.5,-327 420.5,-308 379.5,-308"/>
<text text-anchor="middle" x="400" y="-315" font-family="Helvetica,sans-Serif" font-size="10.00" fill="#000000">string</text>
</g>
<!-- Node0&#45;&gt;Node19 -->
<g id="edge31" class="edge">
<title>Node0&#45;&gt;Node19</title>
<path fill="none" stroke="#191970" d="M358.6563,-369.3906C365.9489,-360.2376 377.1007,-346.2409 385.9852,-335.09"/>
<polygon fill="#191970" stroke="#191970" points="388.7417,-337.247 392.2358,-327.2449 383.267,-332.8849 388.7417,-337.247"/>
</g>
<!-- Node2 -->
<g id="node3" class="node">
<title>Node2</title>
<g id="a_node3"><a xlink:href="_slice_8_h.html" target="_top" xlink:title="amr&#45;wind/core/Slice.H">
<polygon fill="#ffffff" stroke="#000000" points="86.5,-241 86.5,-260 199.5,-260 199.5,-241 86.5,-241"/>
<text text-anchor="middle" x="143" y="-248" font-family="Helvetica,sans-Serif" font-size="10.00" fill="#000000">amr&#45;wind/core/Slice.H</text>
</a>
</g>
</g>
<!-- Node1&#45;&gt;Node2 -->
<g id="edge2" class="edge">
<title>Node1&#45;&gt;Node2</title>
<path fill="none" stroke="#191970" d="M191.7043,-302.2967C181.9839,-291.9591 169.1106,-278.2684 159.0403,-267.5588"/>
<polygon fill="#191970" stroke="#191970" points="161.3846,-264.9426 151.9845,-260.055 156.285,-269.7378 161.3846,-264.9426"/>
</g>
<!-- Node5 -->
<g id="node6" class="node">
<title>Node5</title>
<polygon fill="#ffffff" stroke="#bfbfbf" points="91.5,-.5 91.5,-19.5 176.5,-19.5 176.5,-.5 91.5,-.5"/>
<text text-anchor="middle" x="134" y="-7.5" font-family="Helvetica,sans-Serif" font-size="10.00" fill="#000000">AMReX_Gpu.H</text>
</g>
<!-- Node1&#45;&gt;Node5 -->
<g id="edge27" class="edge">
<title>Node1&#45;&gt;Node5</title>
<path fill="none" stroke="#191970" d="M139.3195,-304.0375C116.6802,-296.3761 93.0737,-284.4588 77,-266 53.8521,-239.4173 58,-224.2487 58,-189 58,-189 58,-189 58,-133 58,-89.4388 92.9243,-48.4145 115.4235,-26.5053"/>
<polygon fill="#191970" stroke="#191970" points="117.8999,-28.981 122.7859,-19.5801 113.1038,-23.8822 117.8999,-28.981"/>
</g>
<!-- Node1&#45;&gt;Node6 -->
<g id="edge6" class="edge">
<title>Node1&#45;&gt;Node6</title>
<path fill="none" stroke="#191970" d="M249.7618,-302.4639C278.6392,-292.5419 316.6628,-279.4774 347.3593,-268.9304"/>
<polygon fill="#191970" stroke="#191970" points="348.7273,-272.1613 357.0473,-265.6017 346.4527,-265.5411 348.7273,-272.1613"/>
</g>
<!-- Node17 -->
<g id="node18" class="node">
<title>Node17</title>
<polygon fill="#ffffff" stroke="#bfbfbf" points="218,-241 218,-260 322,-260 322,-241 218,-241"/>
<text text-anchor="middle" x="270" y="-248" font-family="Helvetica,sans-Serif" font-size="10.00" fill="#000000">AMReX_RealBox.H</text>
</g>
<!-- Node1&#45;&gt;Node17 -->
<g id="edge28" class="edge">
<title>Node1&#45;&gt;Node17</title>
<path fill="none" stroke="#191970" d="M220.5226,-302.2967C230.3973,-291.9591 243.4749,-278.2684 253.7051,-267.5588"/>
<polygon fill="#191970" stroke="#191970" points="256.4964,-269.7037 260.8729,-260.055 251.4346,-264.8685 256.4964,-269.7037"/>
</g>
<!-- Node18 -->
<g id="node19" class="node">
<title>Node18</title>
<polygon fill="#ffffff" stroke="#bfbfbf" points="0,-241 0,-260 30,-260 30,-241 0,-241"/>
<text text-anchor="middle" x="15" y="-248" font-family="Helvetica,sans-Serif" font-size="10.00" fill="#000000">set</text>
</g>
<!-- Node1&#45;&gt;Node18 -->
<g id="edge29" class="edge">
<title>Node1&#45;&gt;Node18</title>
<path fill="none" stroke="#191970" d="M149.981,-302.4401C118.3549,-293.2599 78.3955,-280.5148 44,-266 42.409,-265.3286 40.789,-264.5994 39.1692,-263.8355"/>
<polygon fill="#191970" stroke="#191970" points="40.5983,-260.6361 30.0957,-259.241 37.436,-266.8811 40.5983,-260.6361"/>
</g>
<!-- Node3 -->
<g id="node4" class="node">
<title>Node3</title>
<polygon fill="#ffffff" stroke="#bfbfbf" points="124.5,-179.5 124.5,-198.5 171.5,-198.5 171.5,-179.5 124.5,-179.5"/>
<text text-anchor="middle" x="148" y="-186.5" font-family="Helvetica,sans-Serif" font-size="10.00" fill="#000000">iterator</text>
</g>
<!-- Node2&#45;&gt;Node3 -->
<g id="edge3" class="edge">
<title>Node2&#45;&gt;Node3</title>
<path fill="none" stroke="#191970" d="M143.7813,-240.8906C144.4743,-232.3657 145.509,-219.6392 146.3802,-208.9235"/>
<polygon fill="#191970" stroke="#191970" points="149.8858,-208.9956 147.2077,-198.7449 142.9088,-208.4283 149.8858,-208.9956"/>
</g>
<!-- Node4 -->
<g id="node5" class="node">
<title>Node4</title>
<polygon fill="#ffffff" stroke="#bfbfbf" points="189.5,-179.5 189.5,-198.5 284.5,-198.5 284.5,-179.5 189.5,-179.5"/>
<text text-anchor="middle" x="237" y="-186.5" font-family="Helvetica,sans-Serif" font-size="10.00" fill="#000000">AMReX_Vector.H</text>
</g>
<!-- Node2&#45;&gt;Node4 -->
<g id="edge4" class="edge">
<title>Node2&#45;&gt;Node4</title>
<path fill="none" stroke="#191970" d="M157.6875,-240.8906C172.7256,-231.0519 196.3176,-215.6167 213.8667,-204.1351"/>
<polygon fill="#191970" stroke="#191970" points="215.9637,-206.9457 222.4156,-198.5419 212.1313,-201.088 215.9637,-206.9457"/>
</g>
<!-- Node2&#45;&gt;Node5 -->
<g id="edge5" class="edge">
<title>Node2&#45;&gt;Node5</title>
<path fill="none" stroke="#191970" d="M135.8335,-240.8627C128.947,-230.953 119.0126,-214.781 115,-199 99.6006,-138.4366 117.4087,-63.9783 127.7011,-29.378"/>
<polygon fill="#191970" stroke="#191970" points="131.1102,-30.2007 130.727,-19.6128 124.4239,-28.1288 131.1102,-30.2007"/>
</g>
<!-- Node7 -->
<g id="node8" class="node">
<title>Node7</title>
<g id="a_node8"><a xlink:href="vector_8_h.html" target="_top" xlink:title="amr&#45;wind/core/vs/vector.H">
<polygon fill="#ffffff" stroke="#000000" points="228,-123.5 228,-142.5 360,-142.5 360,-123.5 228,-123.5"/>
<text text-anchor="middle" x="294" y="-130.5" font-family="Helvetica,sans-Serif" font-size="10.00" fill="#000000">amr&#45;wind/core/vs/vector.H</text>
</a>
</g>
</g>
<!-- Node6&#45;&gt;Node7 -->
<g id="edge7" class="edge">
<title>Node6&#45;&gt;Node7</title>
<path fill="none" stroke="#191970" d="M382.0771,-235.4037C370.2807,-225.5904 355.0984,-212.2058 343,-199 329.2144,-183.9526 315.5406,-165.1222 306.1551,-151.4303"/>
<polygon fill="#191970" stroke="#191970" points="308.8851,-149.2184 300.394,-142.8819 303.0804,-153.1305 308.8851,-149.2184"/>
</g>
<!-- Node14 -->
<g id="node15" class="node">
<title>Node14</title>
<g id="a_node15"><a xlink:href="tensor_8_h.html" target="_top" xlink:title="amr&#45;wind/core/vs/tensor.H">
<polygon fill="#ffffff" stroke="#000000" points="352,-179.5 352,-198.5 484,-198.5 484,-179.5 352,-179.5"/>
<text text-anchor="middle" x="418" y="-186.5" font-family="Helvetica,sans-Serif" font-size="10.00" fill="#000000">amr&#45;wind/core/vs/tensor.H</text>
</a>
</g>
</g>
<!-- Node6&#45;&gt;Node14 -->
<g id="edge16" class="edge">
<title>Node6&#45;&gt;Node14</title>
<path fill="none" stroke="#191970" d="M405.2022,-235.2977C407.4391,-227.2055 410.2149,-217.1639 412.609,-208.5029"/>
<polygon fill="#191970" stroke="#191970" points="415.9872,-209.418 415.2781,-198.8469 409.2402,-207.5529 415.9872,-209.418"/>
</g>
<!-- Node7&#45;&gt;Node5 -->
<g id="edge8" class="edge">
<title>Node7&#45;&gt;Node5</title>
<path fill="none" stroke="#191970" d="M261.9522,-123.4785C240.3538,-115.9711 212.0693,-103.9264 191,-87 170.7311,-70.7166 153.9623,-45.6088 143.9768,-28.5249"/>
<polygon fill="#191970" stroke="#191970" points="146.8627,-26.5166 138.906,-19.5207 140.7634,-29.9515 146.8627,-26.5166"/>
</g>
<!-- Node8 -->
<g id="node9" class="node">
<title>Node8</title>
<g id="a_node9"><a xlink:href="vstraits_8_h.html" target="_top" xlink:title="amr&#45;wind/core/vs/vstraits.H">
<polygon fill="#ffffff" stroke="#000000" points="353.5,-62 353.5,-81 490.5,-81 490.5,-62 353.5,-62"/>
<text text-anchor="middle" x="422" y="-69" font-family="Helvetica,sans-Serif" font-size="10.00" fill="#000000">amr&#45;wind/core/vs/vstraits.H</text>
</a>
</g>
</g>
<!-- Node7&#45;&gt;Node8 -->
<g id="edge9" class="edge">
<title>Node7&#45;&gt;Node8</title>
<path fill="none" stroke="#191970" d="M314,-123.3906C335.2289,-113.1908 368.9762,-96.9763 393.096,-85.3875"/>
<polygon fill="#191970" stroke="#191970" points="394.6426,-88.5275 402.1404,-81.0419 391.6111,-82.2179 394.6426,-88.5275"/>
</g>
<!-- Node11 -->
<g id="node12" class="node">
<title>Node11</title>
<g id="a_node12"><a xlink:href="vector_i_8_h.html" target="_top" xlink:title="amr&#45;wind/core/vs/vectorI.H">
<polygon fill="#ffffff" stroke="#000000" points="200.5,-62 200.5,-81 335.5,-81 335.5,-62 200.5,-62"/>
<text text-anchor="middle" x="268" y="-69" font-family="Helvetica,sans-Serif" font-size="10.00" fill="#000000">amr&#45;wind/core/vs/vectorI.H</text>
</a>
</g>
</g>
<!-- Node7&#45;&gt;Node11 -->
<g id="edge12" class="edge">
<title>Node7&#45;&gt;Node11</title>
<path fill="none" stroke="#191970" d="M284.875,-123.3906C279.5521,-114.776 273.6711,-101.8708 269.9422,-91.0858"/>
<polygon fill="#191970" stroke="#191970" points="273.224,-89.8412 267.031,-81.2449 266.5116,-91.827 273.224,-89.8412"/>
</g>
<!-- Node9 -->
<g id="node10" class="node">
<title>Node9</title>
<polygon fill="#ffffff" stroke="#bfbfbf" points="382,-.5 382,-19.5 422,-19.5 422,-.5 382,-.5"/>
<text text-anchor="middle" x="402" y="-7.5" font-family="Helvetica,sans-Serif" font-size="10.00" fill="#000000">limits</text>
</g>
<!-- Node8&#45;&gt;Node9 -->
<g id="edge10" class="edge">
<title>Node8&#45;&gt;Node9</title>
<path fill="none" stroke="#191970" d="M418.875,-61.8906C416.0735,-53.276 411.8767,-40.3708 408.3694,-29.5858"/>
<polygon fill="#191970" stroke="#191970" points="411.5902,-28.1722 405.1691,-19.7449 404.9333,-30.3371 411.5902,-28.1722"/>
</g>
<!-- Node10 -->
<g id="node11" class="node">
<title>Node10</title>
<polygon fill="#ffffff" stroke="#bfbfbf" points="440.5,-.5 440.5,-19.5 533.5,-19.5 533.5,-.5 440.5,-.5"/>
<text text-anchor="middle" x="487" y="-7.5" font-family="Helvetica,sans-Serif" font-size="10.00" fill="#000000">AMReX_REAL.H</text>
</g>
<!-- Node8&#45;&gt;Node10 -->
<g id="edge11" class="edge">
<title>Node8&#45;&gt;Node10</title>
<path fill="none" stroke="#191970" d="M432.1563,-61.8906C442.0199,-52.5581 457.2055,-38.1902 469.0987,-26.9374"/>
<polygon fill="#191970" stroke="#191970" points="471.8421,-29.1601 476.7006,-19.7449 467.0311,-24.0753 471.8421,-29.1601"/>
</g>
<!-- Node11&#45;&gt;Node7 -->
<g id="edge15" class="edge">
<title>Node11&#45;&gt;Node7</title>
<path fill="none" stroke="#191970" d="M277.2085,-81.2449C282.5372,-89.9042 288.4098,-102.8205 292.1161,-113.5832"/>
<polygon fill="#191970" stroke="#191970" points="288.821,-114.7842 295,-123.3906 295.5367,-112.8094 288.821,-114.7842"/>
</g>
<!-- Node12 -->
<g id="node13" class="node">
<title>Node12</title>
<polygon fill="#ffffff" stroke="#bfbfbf" points="242,-.5 242,-19.5 294,-19.5 294,-.5 242,-.5"/>
<text text-anchor="middle" x="268" y="-7.5" font-family="Helvetica,sans-Serif" font-size="10.00" fill="#000000">ostream</text>
</g>
<!-- Node11&#45;&gt;Node12 -->
<g id="edge13" class="edge">
<title>Node11&#45;&gt;Node12</title>
<path fill="none" stroke="#191970" d="M268,-61.8906C268,-53.3657 268,-40.6392 268,-29.9235"/>
<polygon fill="#191970" stroke="#191970" points="271.5001,-29.7448 268,-19.7449 264.5001,-29.7449 271.5001,-29.7448"/>
</g>
<!-- Node13 -->
<g id="node14" class="node">
<title>Node13</title>
<polygon fill="#ffffff" stroke="#bfbfbf" points="552,-.5 552,-19.5 596,-19.5 596,-.5 552,-.5"/>
<text text-anchor="middle" x="574" y="-7.5" font-family="Helvetica,sans-Serif" font-size="10.00" fill="#000000">cmath</text>
</g>
<!-- Node11&#45;&gt;Node13 -->
<g id="edge14" class="edge">
<title>Node11&#45;&gt;Node13</title>
<path fill="none" stroke="#191970" d="M313.7827,-61.9914C323.736,-59.9721 334.2146,-57.8827 344,-56 429.1583,-39.6154 454.079,-41.6708 541.8957,-20.0303"/>
<polygon fill="#191970" stroke="#191970" points="542.8979,-23.3875 551.7515,-17.5683 541.2014,-16.5962 542.8979,-23.3875"/>
</g>
<!-- Node14&#45;&gt;Node5 -->
<g id="edge17" class="edge">
<title>Node14&#45;&gt;Node5</title>
<path fill="none" stroke="#191970" d="M351.7874,-182.4863C311.5459,-176.4443 260.1635,-164.9058 219,-143 186.7989,-125.8637 178.5889,-117.7708 159,-87 147.716,-69.2748 141.0854,-45.9921 137.5215,-29.688"/>
<polygon fill="#191970" stroke="#191970" points="140.9119,-28.7923 135.5246,-19.6694 134.0469,-30.1607 140.9119,-28.7923"/>
</g>
<!-- Node14&#45;&gt;Node7 -->
<g id="edge19" class="edge">
<title>Node14&#45;&gt;Node7</title>
<path fill="none" stroke="#191970" d="M396.6836,-179.3733C376.7784,-170.3838 346.8564,-156.8706 324.44,-146.7471"/>
<polygon fill="#191970" stroke="#191970" points="325.5925,-143.4272 315.0382,-142.5011 322.7113,-149.8068 325.5925,-143.4272"/>
</g>
<!-- Node14&#45;&gt;Node8 -->
<g id="edge18" class="edge">
<title>Node14&#45;&gt;Node8</title>
<path fill="none" stroke="#191970" d="M418.3273,-179.3845C418.9807,-160.1913 420.4583,-116.786 421.3271,-91.2663"/>
<polygon fill="#191970" stroke="#191970" points="424.8258,-91.3617 421.6681,-81.2484 417.8298,-91.1235 424.8258,-91.3617"/>
</g>
<!-- Node15 -->
<g id="node16" class="node">
<title>Node15</title>
<g id="a_node16"><a xlink:href="tensor_i_8_h.html" target="_top" xlink:title="amr&#45;wind/core/vs/tensorI.H">
<polygon fill="#ffffff" stroke="#000000" points="468.5,-123.5 468.5,-142.5 603.5,-142.5 603.5,-123.5 468.5,-123.5"/>
<text text-anchor="middle" x="536" y="-130.5" font-family="Helvetica,sans-Serif" font-size="10.00" fill="#000000">amr&#45;wind/core/vs/tensorI.H</text>
</a>
</g>
</g>
<!-- Node14&#45;&gt;Node15 -->
<g id="edge20" class="edge">
<title>Node14&#45;&gt;Node15</title>
<path fill="none" stroke="#191970" d="M433.2872,-179.2455C450.5014,-170.2519 478.6138,-156.8101 501.1617,-146.7327"/>
<polygon fill="#191970" stroke="#191970" points="502.6988,-149.8802 510.4364,-142.6427 499.8743,-143.4753 502.6988,-149.8802"/>
</g>
<!-- Node15&#45;&gt;Node13 -->
<g id="edge21" class="edge">
<title>Node15&#45;&gt;Node13</title>
<path fill="none" stroke="#191970" d="M562.9644,-123.4934C579.1714,-116.2188 598.4508,-104.4326 608,-87 618.8807,-67.1366 604.1253,-43.1022 590.7863,-27.2274"/>
<polygon fill="#191970" stroke="#191970" points="593.3594,-24.8541 584.0833,-19.735 588.1424,-29.5214 593.3594,-24.8541"/>
</g>
<!-- Node15&#45;&gt;Node14 -->
<g id="edge22" class="edge">
<title>Node15&#45;&gt;Node14</title>
<path fill="none" stroke="#191970" d="M521.1971,-142.5011C504.0407,-151.4883 475.6361,-165.0771 452.883,-175.2473"/>
<polygon fill="#191970" stroke="#191970" points="451.2645,-172.1358 443.5269,-179.3733 454.089,-178.5406 451.2645,-172.1358"/>
</g>
<!-- Node16 -->
<g id="node17" class="node">
<title>Node16</title>
<g id="a_node17"><a xlink:href="trig__ops_8_h.html" target="_top" xlink:title="Trigonometric utilities. ">
<polygon fill="#ffffff" stroke="#000000" points="509,-56.5 509,-86.5 599,-86.5 599,-56.5 509,-56.5"/>
<text text-anchor="start" x="517" y="-74.5" font-family="Helvetica,sans-Serif" font-size="10.00" fill="#000000">amr&#45;wind/utilities</text>
<text text-anchor="middle" x="554" y="-63.5" font-family="Helvetica,sans-Serif" font-size="10.00" fill="#000000">/trig_ops.H</text>
</a>
</g>
</g>
<!-- Node15&#45;&gt;Node16 -->
<g id="edge23" class="edge">
<title>Node15&#45;&gt;Node16</title>
<path fill="none" stroke="#191970" d="M538.8125,-123.3906C540.9328,-116.1463 543.9411,-105.8679 546.7217,-96.3676"/>
<polygon fill="#191970" stroke="#191970" points="550.1467,-97.1251 549.5967,-86.5446 543.4286,-95.1588 550.1467,-97.1251"/>
</g>
<!-- Node16&#45;&gt;Node5 -->
<g id="edge26" class="edge">
<title>Node16&#45;&gt;Node5</title>
<path fill="none" stroke="#191970" d="M508.7528,-57.9631C505.8026,-57.2508 502.8664,-56.5878 500,-56 441.3726,-43.9767 273.2634,-24.9903 186.7849,-15.6168"/>
<polygon fill="#191970" stroke="#191970" points="186.9744,-12.117 176.6563,-14.5225 186.2224,-19.0765 186.9744,-12.117"/>
</g>
<!-- Node16&#45;&gt;Node10 -->
<g id="edge25" class="edge">
<title>Node16&#45;&gt;Node10</title>
<path fill="none" stroke="#191970" d="M537.4382,-56.2977C527.6535,-47.3163 515.2526,-35.9334 505.1957,-26.702"/>
<polygon fill="#191970" stroke="#191970" points="507.4613,-24.0307 497.7275,-19.8469 502.7278,-29.1876 507.4613,-24.0307"/>
</g>
<!-- Node16&#45;&gt;Node13 -->
<g id="edge24" class="edge">
<title>Node16&#45;&gt;Node13</title>
<path fill="none" stroke="#191970" d="M558.9438,-56.2977C561.5754,-48.2055 564.841,-38.1639 567.6576,-29.5029"/>
<polygon fill="#191970" stroke="#191970" points="571.0335,-30.4391 570.7977,-19.8469 564.3766,-28.2743 571.0335,-30.4391"/>
</g>
</g>
</svg>
        <g id="navigator" transform="translate(0 0)" fill="#404254">
                <rect fill="#f2f5e9" fill-opacity="0.5" stroke="#606060" stroke-width=".5" x="0" y="0" width="60" height="60"/>
                <use id="zoomplus" xlink:href="#zoomPlus" x="17" y="9" onmousedown="handleZoom(evt,'in')"/>
                <use id="zoomminus" xlink:href="#zoomMin" x="42" y="9" onmousedown="handleZoom(evt,'out')"/>
                <use id="reset" xlink:href="#resetDef" x="30" y="36" onmousedown="handleReset()"/>
                <g id="arrowUp" xlink:href="#dirArrow" transform="translate(30 24)" onmousedown="handlePan(0,-1)">
                  <use xlink:href="#rim" fill="#404040">
                        <set attributeName="fill" to="#808080" begin="arrowUp.mouseover" end="arrowUp.mouseout"/>
                  </use>
                  <path fill="none" stroke="white" stroke-width="1.5" d="M0,-3.0v7 M-2.5,-0.5L0,-3.0L2.5,-0.5"/>
                </g>
                <g id="arrowRight" xlink:href="#dirArrow" transform="rotate(90) translate(36 -43)" onmousedown="handlePan(1,0)">
                  <use xlink:href="#rim" fill="#404040">
                        <set attributeName="fill" to="#808080" begin="arrowRight.mouseover" end="arrowRight.mouseout"/>
                  </use>
                  <path fill="none" stroke="white" stroke-width="1.5" d="M0,-3.0v7 M-2.5,-0.5L0,-3.0L2.5,-0.5"/>
                </g>
                <g id="arrowDown" xlink:href="#dirArrow" transform="rotate(180) translate(-30 -48)" onmousedown="handlePan(0,1)">
                  <use xlink:href="#rim" fill="#404040">
                        <set attributeName="fill" to="#808080" begin="arrowDown.mouseover" end="arrowDown.mouseout"/>
                  </use>
                  <path fill="none" stroke="white" stroke-width="1.5" d="M0,-3.0v7 M-2.5,-0.5L0,-3.0L2.5,-0.5"/>
                </g>
                <g id="arrowLeft" xlink:href="#dirArrow" transform="rotate(270) translate(-36 17)" onmousedown="handlePan(-1,0)">
                  <use xlink:href="#rim" fill="#404040">
                        <set attributeName="fill" to="#808080" begin="arrowLeft.mouseover" end="arrowLeft.mouseout"/>
                  </use>
                  <path fill="none" stroke="white" stroke-width="1.5" d="M0,-3.0v7 M-2.5,-0.5L0,-3.0L2.5,-0.5"/>
                </g>
        </g>
        <svg viewBox="0 0 15 15" width="100%" height="30px" preserveAspectRatio="xMaxYMin meet">
         <g id="arrow_out" transform="scale(0.3 0.3)">
          <a xlink:href="_actuator_wing_8_h__incl_org.svg" target="_base">
           <rect id="button" ry="5" rx="5" y="6" x="6" height="38" width="38"
                fill="#f2f5e9" fill-opacity="0.5" stroke="#606060" stroke-width="1.0"/>
           <path id="arrow"
             d="M 11.500037,31.436501 C 11.940474,20.09759 22.043105,11.32322 32.158766,21.979434 L 37.068811,17.246167 C 37.068811,17.246167 37.088388,32 37.088388,32 L 22.160133,31.978069 C 22.160133,31.978069 26.997745,27.140456 26.997745,27.140456 C 18.528582,18.264221 13.291696,25.230495 11.500037,31.436501 z"
             style="fill:#404040;"/>
          </a>
         </g>
        </svg>
</svg>
