<?xml version="1.0" encoding="UTF-8" standalone="no"?>
<!DOCTYPE svg PUBLIC "-//W3C//DTD SVG 1.1//EN"
 "http://www.w3.org/Graphics/SVG/1.1/DTD/svg11.dtd">
<!-- Generated by graphviz version 2.40.1 (20161225.0304)
 -->
<!-- Title: ActuatorWing.H Pages: 1 -->
<svg width="365pt" height="196pt"
 viewBox="0.00 0.00 365.00 196.00" xmlns="http://www.w3.org/2000/svg" xmlns:xlink="http://www.w3.org/1999/xlink">
<g id="graph0" class="graph" transform="scale(1 1) rotate(0) translate(4 192)">
<title>ActuatorWing.H</title>
<polygon fill="#ffffff" stroke="transparent" points="-4,4 -4,-192 361,-192 361,4 -4,4"/>
<!-- Node20 -->
<g id="node1" class="node">
<title>Node20</title>
<polygon fill="#bfbfbf" stroke="#000000" points="140,-168.5 140,-187.5 226,-187.5 226,-168.5 140,-168.5"/>
<text text-anchor="middle" x="183" y="-175.5" font-family="Helvetica,sans-Serif" font-size="10.00" fill="#000000">ActuatorWing.H</text>
</g>
<!-- Node21 -->
<g id="node2" class="node">
<title>Node21</title>
<g id="a_node2"><a xlink:href="_fixed_wing_8_h.html" target="_top" xlink:title="FixedWing.H">
<polygon fill="#ffffff" stroke="#000000" points="42,-112.5 42,-131.5 116,-131.5 116,-112.5 42,-112.5"/>
<text text-anchor="middle" x="79" y="-119.5" font-family="Helvetica,sans-Serif" font-size="10.00" fill="#000000">FixedWing.H</text>
</a>
</g>
</g>
<!-- Node20&#45;&gt;Node21 -->
<g id="edge1" class="edge">
<title>Node20&#45;&gt;Node21</title>
<path fill="none" stroke="#191970" d="M155.9971,-163.46C137.3864,-153.4388 113.1701,-140.3993 96.9078,-131.6427"/>
<polygon fill="#191970" stroke="#191970" points="154.4205,-166.5861 164.8846,-168.2455 157.7392,-160.4228 154.4205,-166.5861"/>
</g>
<!-- Node24 -->
<g id="node5" class="node">
<title>Node24</title>
<g id="a_node5"><a xlink:href="wing__ops_8_h.html" target="_top" xlink:title="wing_ops.H">
<polygon fill="#ffffff" stroke="#000000" points="149,-112.5 149,-131.5 217,-131.5 217,-112.5 149,-112.5"/>
<text text-anchor="middle" x="183" y="-119.5" font-family="Helvetica,sans-Serif" font-size="10.00" fill="#000000">wing_ops.H</text>
</a>
</g>
</g>
<!-- Node20&#45;&gt;Node24 -->
<g id="edge5" class="edge">
<title>Node20&#45;&gt;Node24</title>
<path fill="none" stroke="#191970" d="M183,-158.1575C183,-149.155 183,-138.9199 183,-131.6427"/>
<polygon fill="#191970" stroke="#191970" points="179.5001,-158.2455 183,-168.2455 186.5001,-158.2456 179.5001,-158.2455"/>
</g>
<!-- Node28 -->
<g id="node9" class="node">
<title>Node28</title>
<g id="a_node9"><a xlink:href="_flat_plate_8_h.html" target="_top" xlink:title="FlatPlate.H">
<polygon fill="#ffffff" stroke="#000000" points="251,-112.5 251,-131.5 317,-131.5 317,-112.5 251,-112.5"/>
<text text-anchor="middle" x="284" y="-119.5" font-family="Helvetica,sans-Serif" font-size="10.00" fill="#000000">FlatPlate.H</text>
</a>
</g>
</g>
<!-- Node20&#45;&gt;Node28 -->
<g id="edge10" class="edge">
<title>Node20&#45;&gt;Node28</title>
<path fill="none" stroke="#191970" d="M209.4719,-163.3225C227.5125,-153.3198 250.8877,-140.3593 266.6087,-131.6427"/>
<polygon fill="#191970" stroke="#191970" points="207.6413,-160.3354 200.5929,-168.2455 211.0357,-166.4574 207.6413,-160.3354"/>
</g>
<!-- Node22 -->
<g id="node3" class="node">
<title>Node22</title>
<g id="a_node3"><a xlink:href="fixed__wing__ops_8_h.html" target="_top" xlink:title="fixed_wing_ops.H">
<polygon fill="#ffffff" stroke="#000000" points="31.5,-56.5 31.5,-75.5 126.5,-75.5 126.5,-56.5 31.5,-56.5"/>
<text text-anchor="middle" x="79" y="-63.5" font-family="Helvetica,sans-Serif" font-size="10.00" fill="#000000">fixed_wing_ops.H</text>
</a>
</g>
</g>
<!-- Node21&#45;&gt;Node22 -->
<g id="edge2" class="edge">
<title>Node21&#45;&gt;Node22</title>
<path fill="none" stroke="#191970" d="M79,-102.1575C79,-93.155 79,-82.9199 79,-75.6427"/>
<polygon fill="#191970" stroke="#191970" points="75.5001,-102.2455 79,-112.2455 82.5001,-102.2456 75.5001,-102.2455"/>
</g>
<!-- Node23 -->
<g id="node4" class="node">
<title>Node23</title>
<g id="a_node4"><a xlink:href="_fixed_wing_8cpp.html" target="_top" xlink:title="FixedWing.cpp">
<polygon fill="#ffffff" stroke="#000000" points="0,-.5 0,-19.5 82,-19.5 82,-.5 0,-.5"/>
<text text-anchor="middle" x="41" y="-7.5" font-family="Helvetica,sans-Serif" font-size="10.00" fill="#000000">FixedWing.cpp</text>
</a>
</g>
</g>
<!-- Node21&#45;&gt;Node23 -->
<g id="edge4" class="edge">
<title>Node21&#45;&gt;Node23</title>
<path fill="none" stroke="#191970" d="M51.0285,-106.9168C39.8299,-99.2694 28.1448,-88.8551 22,-76 12.9496,-57.0662 25.324,-32.9711 33.9418,-19.7606"/>
<polygon fill="#191970" stroke="#191970" points="49.4661,-110.0696 59.79,-112.4505 53.2041,-104.1512 49.4661,-110.0696"/>
</g>
<!-- Node22&#45;&gt;Node23 -->
<g id="edge3" class="edge">
<title>Node22&#45;&gt;Node23</title>
<path fill="none" stroke="#191970" d="M66.7321,-47.9209C60.3512,-38.5176 52.8069,-27.3997 47.5432,-19.6427"/>
<polygon fill="#191970" stroke="#191970" points="63.8697,-49.936 72.3809,-56.2455 69.662,-46.0055 63.8697,-49.936"/>
</g>
<!-- Node24&#45;&gt;Node22 -->
<g id="edge6" class="edge">
<title>Node24&#45;&gt;Node22</title>
<path fill="none" stroke="#191970" d="M155.9971,-107.46C137.3864,-97.4388 113.1701,-84.3993 96.9078,-75.6427"/>
<polygon fill="#191970" stroke="#191970" points="154.4205,-110.5861 164.8846,-112.2455 157.7392,-104.4228 154.4205,-110.5861"/>
</g>
<!-- Node25 -->
<g id="node6" class="node">
<title>Node25</title>
<g id="a_node6"><a xlink:href="flat__plate__ops_8_h.html" target="_top" xlink:title="flat_plate_ops.H">
<polygon fill="#ffffff" stroke="#000000" points="240,-56.5 240,-75.5 328,-75.5 328,-56.5 240,-56.5"/>
<text text-anchor="middle" x="284" y="-63.5" font-family="Helvetica,sans-Serif" font-size="10.00" fill="#000000">flat_plate_ops.H</text>
</a>
</g>
</g>
<!-- Node24&#45;&gt;Node25 -->
<g id="edge7" class="edge">
<title>Node24&#45;&gt;Node25</title>
<path fill="none" stroke="#191970" d="M209.4719,-107.3225C227.5125,-97.3198 250.8877,-84.3593 266.6087,-75.6427"/>
<polygon fill="#191970" stroke="#191970" points="207.6413,-104.3354 200.5929,-112.2455 211.0357,-110.4574 207.6413,-104.3354"/>
</g>
<!-- Node27 -->
<g id="node8" class="node">
<title>Node27</title>
<g id="a_node8"><a xlink:href="wing__ops_8cpp.html" target="_top" xlink:title="wing_ops.cpp">
<polygon fill="#ffffff" stroke="#000000" points="144.5,-56.5 144.5,-75.5 221.5,-75.5 221.5,-56.5 144.5,-56.5"/>
<text text-anchor="middle" x="183" y="-63.5" font-family="Helvetica,sans-Serif" font-size="10.00" fill="#000000">wing_ops.cpp</text>
</a>
</g>
</g>
<!-- Node24&#45;&gt;Node27 -->
<g id="edge9" class="edge">
<title>Node24&#45;&gt;Node27</title>
<path fill="none" stroke="#191970" d="M183,-102.1575C183,-93.155 183,-82.9199 183,-75.6427"/>
<polygon fill="#191970" stroke="#191970" points="179.5001,-102.2455 183,-112.2455 186.5001,-102.2456 179.5001,-102.2455"/>
</g>
<!-- Node26 -->
<g id="node7" class="node">
<title>Node26</title>
<g id="a_node7"><a xlink:href="_flat_plate_8cpp.html" target="_top" xlink:title="FlatPlate.cpp">
<polygon fill="#ffffff" stroke="#000000" points="283,-.5 283,-19.5 357,-19.5 357,-.5 283,-.5"/>
<text text-anchor="middle" x="320" y="-7.5" font-family="Helvetica,sans-Serif" font-size="10.00" fill="#000000">FlatPlate.cpp</text>
</a>
</g>
</g>
<!-- Node25&#45;&gt;Node26 -->
<g id="edge8" class="edge">
<title>Node25&#45;&gt;Node26</title>
<path fill="none" stroke="#191970" d="M295.8096,-47.6296C301.8144,-38.2887 308.8659,-27.3197 313.8011,-19.6427"/>
<polygon fill="#191970" stroke="#191970" points="292.7342,-45.9411 290.2707,-56.2455 298.6225,-49.7264 292.7342,-45.9411"/>
</g>
<!-- Node28&#45;&gt;Node25 -->
<g id="edge11" class="edge">
<title>Node28&#45;&gt;Node25</title>
<path fill="none" stroke="#191970" d="M284,-102.1575C284,-93.155 284,-82.9199 284,-75.6427"/>
<polygon fill="#191970" stroke="#191970" points="280.5001,-102.2455 284,-112.2455 287.5001,-102.2456 280.5001,-102.2455"/>
</g>
<!-- Node28&#45;&gt;Node26 -->
<g id="edge12" class="edge">
<title>Node28&#45;&gt;Node26</title>
<path fill="none" stroke="#191970" d="M309.9274,-106.5977C320.3869,-98.8639 331.3111,-88.4704 337,-76 345.6433,-57.0535 334.3669,-32.9631 326.4751,-19.7569"/>
<polygon fill="#191970" stroke="#191970" points="307.6477,-103.9168 301.3758,-112.4558 311.6037,-109.6918 307.6477,-103.9168"/>
</g>
</g>
</svg>
