<?xml version="1.0" encoding="UTF-8" standalone="no"?>
<!DOCTYPE svg PUBLIC "-//W3C//DTD SVG 1.1//EN"
 "http://www.w3.org/Graphics/SVG/1.1/DTD/svg11.dtd">
<!-- Generated by graphviz version 2.40.1 (20161225.0304)
 -->
<!-- Title: AirfoilTable.H Pages: 1 -->
<!--zoomable 196 -->
<svg id="main" version="1.1" xmlns="http://www.w3.org/2000/svg" xmlns:xlink="http://www.w3.org/1999/xlink" xml:space="preserve" onload="init(evt)">
<style type="text/css"><![CDATA[
.edge:hover path { stroke: red; }
.edge:hover polygon { stroke: red; fill: red; }
]]></style>
<script type="text/javascript"><![CDATA[
var edges = document.getElementsByTagName('g');
if (edges && edges.length) {
  for (var i=0;i<edges.length;i++) {
    if (edges[i].id.substr(0,4)=='edge') {
      edges[i].setAttribute('class','edge');
    }
  }
}
]]></script>
        <defs>
                <circle id="rim" cx="0" cy="0" r="7"/>
                <circle id="rim2" cx="0" cy="0" r="3.5"/>
                <g id="zoomPlus">
                        <use xlink:href="#rim" fill="#404040">
                                <set attributeName="fill" to="#808080" begin="zoomplus.mouseover" end="zoomplus.mouseout"/>
                        </use>
                        <path d="M-4,0h8M0,-4v8" fill="none" stroke="white" stroke-width="1.5" pointer-events="none"/>
                </g>
                <g id="zoomMin">
                        <use xlink:href="#rim" fill="#404040">
                                <set attributeName="fill" to="#808080" begin="zoomminus.mouseover" end="zoomminus.mouseout"/>
                        </use>
                        <path d="M-4,0h8" fill="none" stroke="white" stroke-width="1.5" pointer-events="none"/>
                </g>
                <g id="dirArrow">
                        <path fill="none" stroke="white" stroke-width="1.5" d="M0,-3.0v7 M-2.5,-0.5L0,-3.0L2.5,-0.5"/>
                </g>
               <g id="resetDef">
                       <use xlink:href="#rim2" fill="#404040">
                               <set attributeName="fill" to="#808080" begin="reset.mouseover" end="reset.mouseout"/>
                       </use>
               </g>
        </defs>

<script type="text/javascript">
var viewWidth = 518;
var viewHeight = 196;
var sectionId = 'dynsection-1';
</script>
<script xlink:href="svgpan.js"/>
<svg id="graph" class="graph">
<g id="viewport">
<title>AirfoilTable.H</title>
<polygon fill="#ffffff" stroke="transparent" points="-4,4 -4,-192 514,-192 514,4 -4,4"/>
<!-- Node23 -->
<g id="node1" class="node">
<title>Node23</title>
<polygon fill="#bfbfbf" stroke="#000000" points="150,-168.5 150,-187.5 226,-187.5 226,-168.5 150,-168.5"/>
<text text-anchor="middle" x="188" y="-175.5" font-family="Helvetica,sans-Serif" font-size="10.00" fill="#000000">AirfoilTable.H</text>
</g>
<!-- Node24 -->
<g id="node2" class="node">
<title>Node24</title>
<g id="a_node2"><a xlink:href="_airfoil_table_8cpp.html" target="_top" xlink:title="AirfoilTable.cpp">
<polygon fill="#ffffff" stroke="#000000" points="0,-112.5 0,-131.5 84,-131.5 84,-112.5 0,-112.5"/>
<text text-anchor="middle" x="42" y="-119.5" font-family="Helvetica,sans-Serif" font-size="10.00" fill="#000000">AirfoilTable.cpp</text>
</a>
</g>
</g>
<!-- Node23&#45;&gt;Node24 -->
<g id="edge1" class="edge">
<title>Node23&#45;&gt;Node24</title>
<path fill="none" stroke="#191970" d="M153.5565,-164.7888C126.8987,-154.5639 90.62,-140.6488 66.7708,-131.5011"/>
<polygon fill="#191970" stroke="#191970" points="152.3115,-168.0598 162.9017,-168.3733 154.8184,-161.5241 152.3115,-168.0598"/>
</g>
<!-- Node25 -->
<g id="node3" class="node">
<title>Node25</title>
<g id="a_node3"><a xlink:href="_airfoil_table_i_8_h.html" target="_top" xlink:title="AirfoilTableI.H">
<polygon fill="#ffffff" stroke="#000000" points="101.5,-112.5 101.5,-131.5 180.5,-131.5 180.5,-112.5 101.5,-112.5"/>
<text text-anchor="middle" x="141" y="-119.5" font-family="Helvetica,sans-Serif" font-size="10.00" fill="#000000">AirfoilTableI.H</text>
</a>
</g>
</g>
<!-- Node23&#45;&gt;Node25 -->
<g id="edge2" class="edge">
<title>Node23&#45;&gt;Node25</title>
<path fill="none" stroke="#191970" d="M167.5383,-161.0751C158.5489,-151.4402 149.0491,-139.7196 143.8478,-131.6427"/>
<polygon fill="#191970" stroke="#191970" points="165.0536,-163.5404 174.5464,-168.2455 170.0597,-158.6476 165.0536,-163.5404"/>
</g>
<!-- Node26 -->
<g id="node4" class="node">
<title>Node26</title>
<g id="a_node4"><a xlink:href="_fixed_wing_8_h.html" target="_top" xlink:title="FixedWing.H">
<polygon fill="#ffffff" stroke="#000000" points="199,-112.5 199,-131.5 273,-131.5 273,-112.5 199,-112.5"/>
<text text-anchor="middle" x="236" y="-119.5" font-family="Helvetica,sans-Serif" font-size="10.00" fill="#000000">FixedWing.H</text>
</a>
</g>
</g>
<!-- Node23&#45;&gt;Node26 -->
<g id="edge4" class="edge">
<title>Node23&#45;&gt;Node26</title>
<path fill="none" stroke="#191970" d="M202.9997,-160.5004C211.1622,-150.9775 220.9489,-139.5596 227.7349,-131.6427"/>
<polygon fill="#191970" stroke="#191970" points="200.2115,-158.3752 196.361,-168.2455 205.5263,-162.9307 200.2115,-158.3752"/>
</g>
<!-- Node29 -->
<g id="node7" class="node">
<title>Node29</title>
<g id="a_node7"><a xlink:href="wing__ops_8_h.html" target="_top" xlink:title="wing_ops.H">
<polygon fill="#ffffff" stroke="#000000" points="298,-112.5 298,-131.5 366,-131.5 366,-112.5 298,-112.5"/>
<text text-anchor="middle" x="332" y="-119.5" font-family="Helvetica,sans-Serif" font-size="10.00" fill="#000000">wing_ops.H</text>
</a>
</g>
</g>
<!-- Node23&#45;&gt;Node29 -->
<g id="edge8" class="edge">
<title>Node23&#45;&gt;Node29</title>
<path fill="none" stroke="#191970" d="M222.3182,-164.6541C248.578,-154.4419 284.1492,-140.6086 307.5685,-131.5011"/>
<polygon fill="#191970" stroke="#191970" points="220.806,-161.4867 212.7545,-168.3733 223.3431,-168.0108 220.806,-161.4867"/>
</g>
<!-- Node33 -->
<g id="node11" class="node">
<title>Node33</title>
<g id="a_node11"><a xlink:href="_flat_plate_8_h.html" target="_top" xlink:title="FlatPlate.H">
<polygon fill="#ffffff" stroke="#000000" points="404,-112.5 404,-131.5 470,-131.5 470,-112.5 404,-112.5"/>
<text text-anchor="middle" x="437" y="-119.5" font-family="Helvetica,sans-Serif" font-size="10.00" fill="#000000">FlatPlate.H</text>
</a>
</g>
</g>
<!-- Node23&#45;&gt;Node33 -->
<g id="edge13" class="edge">
<title>Node23&#45;&gt;Node33</title>
<path fill="none" stroke="#191970" d="M235.8778,-167.2323C285.1371,-156.1539 360.5809,-139.1866 403.6993,-129.4893"/>
<polygon fill="#191970" stroke="#191970" points="235.0771,-163.8249 226.0888,-169.4338 236.6131,-170.6543 235.0771,-163.8249"/>
</g>
<!-- Node25&#45;&gt;Node23 -->
<g id="edge3" class="edge">
<title>Node25&#45;&gt;Node23</title>
<path fill="none" stroke="#191970" d="M161.3376,-138.7919C170.3222,-148.4075 179.8393,-160.1352 185.0801,-168.2455"/>
<polygon fill="#191970" stroke="#191970" points="163.8349,-136.3397 154.3381,-131.6427 158.833,-141.2368 163.8349,-136.3397"/>
</g>
<!-- Node27 -->
<g id="node5" class="node">
<title>Node27</title>
<g id="a_node5"><a xlink:href="fixed__wing__ops_8_h.html" target="_top" xlink:title="fixed_wing_ops.H">
<polygon fill="#ffffff" stroke="#000000" points="184.5,-56.5 184.5,-75.5 279.5,-75.5 279.5,-56.5 184.5,-56.5"/>
<text text-anchor="middle" x="232" y="-63.5" font-family="Helvetica,sans-Serif" font-size="10.00" fill="#000000">fixed_wing_ops.H</text>
</a>
</g>
</g>
<!-- Node26&#45;&gt;Node27 -->
<g id="edge5" class="edge">
<title>Node26&#45;&gt;Node27</title>
<path fill="none" stroke="#191970" d="M234.5827,-102.1575C233.9396,-93.155 233.2086,-82.9199 232.6888,-75.6427"/>
<polygon fill="#191970" stroke="#191970" points="231.0996,-102.5204 235.3033,-112.2455 238.0818,-102.0216 231.0996,-102.5204"/>
</g>
<!-- Node28 -->
<g id="node6" class="node">
<title>Node28</title>
<g id="a_node6"><a xlink:href="_fixed_wing_8cpp.html" target="_top" xlink:title="FixedWing.cpp">
<polygon fill="#ffffff" stroke="#000000" points="153,-.5 153,-19.5 235,-19.5 235,-.5 153,-.5"/>
<text text-anchor="middle" x="194" y="-7.5" font-family="Helvetica,sans-Serif" font-size="10.00" fill="#000000">FixedWing.cpp</text>
</a>
</g>
</g>
<!-- Node26&#45;&gt;Node28 -->
<g id="edge7" class="edge">
<title>Node26&#45;&gt;Node28</title>
<path fill="none" stroke="#191970" d="M205.9605,-107.2419C194.0327,-99.6808 181.6003,-89.244 175,-76 165.6395,-57.2176 178.1302,-33.0657 186.8509,-19.805"/>
<polygon fill="#191970" stroke="#191970" points="204.4801,-110.4309 214.8784,-112.4622 208.0165,-104.3898 204.4801,-110.4309"/>
</g>
<!-- Node27&#45;&gt;Node28 -->
<g id="edge6" class="edge">
<title>Node27&#45;&gt;Node28</title>
<path fill="none" stroke="#191970" d="M219.7321,-47.9209C213.3512,-38.5176 205.8069,-27.3997 200.5432,-19.6427"/>
<polygon fill="#191970" stroke="#191970" points="216.8697,-49.936 225.3809,-56.2455 222.662,-46.0055 216.8697,-49.936"/>
</g>
<!-- Node29&#45;&gt;Node27 -->
<g id="edge9" class="edge">
<title>Node29&#45;&gt;Node27</title>
<path fill="none" stroke="#191970" d="M305.7902,-107.3225C287.9283,-97.3198 264.7845,-84.3593 249.2191,-75.6427"/>
<polygon fill="#191970" stroke="#191970" points="304.1461,-110.4132 314.5813,-112.2455 307.5664,-104.3057 304.1461,-110.4132"/>
</g>
<!-- Node30 -->
<g id="node8" class="node">
<title>Node30</title>
<g id="a_node8"><a xlink:href="flat__plate__ops_8_h.html" target="_top" xlink:title="flat_plate_ops.H">
<polygon fill="#ffffff" stroke="#000000" points="393,-56.5 393,-75.5 481,-75.5 481,-56.5 393,-56.5"/>
<text text-anchor="middle" x="437" y="-63.5" font-family="Helvetica,sans-Serif" font-size="10.00" fill="#000000">flat_plate_ops.H</text>
</a>
</g>
</g>
<!-- Node29&#45;&gt;Node30 -->
<g id="edge10" class="edge">
<title>Node29&#45;&gt;Node30</title>
<path fill="none" stroke="#191970" d="M359.2625,-107.46C378.0522,-97.4388 402.5013,-84.3993 418.92,-75.6427"/>
<polygon fill="#191970" stroke="#191970" points="357.4661,-104.4514 350.2896,-112.2455 360.7602,-110.6278 357.4661,-104.4514"/>
</g>
<!-- Node32 -->
<g id="node10" class="node">
<title>Node32</title>
<g id="a_node10"><a xlink:href="wing__ops_8cpp.html" target="_top" xlink:title="wing_ops.cpp">
<polygon fill="#ffffff" stroke="#000000" points="297.5,-56.5 297.5,-75.5 374.5,-75.5 374.5,-56.5 297.5,-56.5"/>
<text text-anchor="middle" x="336" y="-63.5" font-family="Helvetica,sans-Serif" font-size="10.00" fill="#000000">wing_ops.cpp</text>
</a>
</g>
</g>
<!-- Node29&#45;&gt;Node32 -->
<g id="edge12" class="edge">
<title>Node29&#45;&gt;Node32</title>
<path fill="none" stroke="#191970" d="M333.4173,-102.1575C334.0604,-93.155 334.7914,-82.9199 335.3112,-75.6427"/>
<polygon fill="#191970" stroke="#191970" points="329.9182,-102.0216 332.6967,-112.2455 336.9004,-102.5204 329.9182,-102.0216"/>
</g>
<!-- Node31 -->
<g id="node9" class="node">
<title>Node31</title>
<g id="a_node9"><a xlink:href="_flat_plate_8cpp.html" target="_top" xlink:title="FlatPlate.cpp">
<polygon fill="#ffffff" stroke="#000000" points="436,-.5 436,-19.5 510,-19.5 510,-.5 436,-.5"/>
<text text-anchor="middle" x="473" y="-7.5" font-family="Helvetica,sans-Serif" font-size="10.00" fill="#000000">FlatPlate.cpp</text>
</a>
</g>
</g>
<!-- Node30&#45;&gt;Node31 -->
<g id="edge11" class="edge">
<title>Node30&#45;&gt;Node31</title>
<path fill="none" stroke="#191970" d="M448.8096,-47.6296C454.8144,-38.2887 461.8659,-27.3197 466.8011,-19.6427"/>
<polygon fill="#191970" stroke="#191970" points="445.7342,-45.9411 443.2707,-56.2455 451.6225,-49.7264 445.7342,-45.9411"/>
</g>
<!-- Node33&#45;&gt;Node30 -->
<g id="edge14" class="edge">
<title>Node33&#45;&gt;Node30</title>
<path fill="none" stroke="#191970" d="M437,-102.1575C437,-93.155 437,-82.9199 437,-75.6427"/>
<polygon fill="#191970" stroke="#191970" points="433.5001,-102.2455 437,-112.2455 440.5001,-102.2456 433.5001,-102.2455"/>
</g>
<!-- Node33&#45;&gt;Node31 -->
<g id="edge15" class="edge">
<title>Node33&#45;&gt;Node31</title>
<path fill="none" stroke="#191970" d="M462.9274,-106.5977C473.3869,-98.8639 484.3111,-88.4704 490,-76 498.6433,-57.0535 487.3669,-32.9631 479.4751,-19.7569"/>
<polygon fill="#191970" stroke="#191970" points="460.6477,-103.9168 454.3758,-112.4558 464.6037,-109.6918 460.6477,-103.9168"/>
</g>
</g>
</svg>
        <g id="navigator" transform="translate(0 0)" fill="#404254">
                <rect fill="#f2f5e9" fill-opacity="0.5" stroke="#606060" stroke-width=".5" x="0" y="0" width="60" height="60"/>
                <use id="zoomplus" xlink:href="#zoomPlus" x="17" y="9" onmousedown="handleZoom(evt,'in')"/>
                <use id="zoomminus" xlink:href="#zoomMin" x="42" y="9" onmousedown="handleZoom(evt,'out')"/>
                <use id="reset" xlink:href="#resetDef" x="30" y="36" onmousedown="handleReset()"/>
                <g id="arrowUp" xlink:href="#dirArrow" transform="translate(30 24)" onmousedown="handlePan(0,-1)">
                  <use xlink:href="#rim" fill="#404040">
                        <set attributeName="fill" to="#808080" begin="arrowUp.mouseover" end="arrowUp.mouseout"/>
                  </use>
                  <path fill="none" stroke="white" stroke-width="1.5" d="M0,-3.0v7 M-2.5,-0.5L0,-3.0L2.5,-0.5"/>
                </g>
                <g id="arrowRight" xlink:href="#dirArrow" transform="rotate(90) translate(36 -43)" onmousedown="handlePan(1,0)">
                  <use xlink:href="#rim" fill="#404040">
                        <set attributeName="fill" to="#808080" begin="arrowRight.mouseover" end="arrowRight.mouseout"/>
                  </use>
                  <path fill="none" stroke="white" stroke-width="1.5" d="M0,-3.0v7 M-2.5,-0.5L0,-3.0L2.5,-0.5"/>
                </g>
                <g id="arrowDown" xlink:href="#dirArrow" transform="rotate(180) translate(-30 -48)" onmousedown="handlePan(0,1)">
                  <use xlink:href="#rim" fill="#404040">
                        <set attributeName="fill" to="#808080" begin="arrowDown.mouseover" end="arrowDown.mouseout"/>
                  </use>
                  <path fill="none" stroke="white" stroke-width="1.5" d="M0,-3.0v7 M-2.5,-0.5L0,-3.0L2.5,-0.5"/>
                </g>
                <g id="arrowLeft" xlink:href="#dirArrow" transform="rotate(270) translate(-36 17)" onmousedown="handlePan(-1,0)">
                  <use xlink:href="#rim" fill="#404040">
                        <set attributeName="fill" to="#808080" begin="arrowLeft.mouseover" end="arrowLeft.mouseout"/>
                  </use>
                  <path fill="none" stroke="white" stroke-width="1.5" d="M0,-3.0v7 M-2.5,-0.5L0,-3.0L2.5,-0.5"/>
                </g>
        </g>
        <svg viewBox="0 0 15 15" width="100%" height="30px" preserveAspectRatio="xMaxYMin meet">
         <g id="arrow_out" transform="scale(0.3 0.3)">
          <a xlink:href="_airfoil_table_8_h__dep__incl_org.svg" target="_base">
           <rect id="button" ry="5" rx="5" y="6" x="6" height="38" width="38"
                fill="#f2f5e9" fill-opacity="0.5" stroke="#606060" stroke-width="1.0"/>
           <path id="arrow"
             d="M 11.500037,31.436501 C 11.940474,20.09759 22.043105,11.32322 32.158766,21.979434 L 37.068811,17.246167 C 37.068811,17.246167 37.088388,32 37.088388,32 L 22.160133,31.978069 C 22.160133,31.978069 26.997745,27.140456 26.997745,27.140456 C 18.528582,18.264221 13.291696,25.230495 11.500037,31.436501 z"
             style="fill:#404040;"/>
          </a>
         </g>
        </svg>
</svg>
