<?xml version="1.0" encoding="UTF-8" standalone="no"?>
<!DOCTYPE svg PUBLIC "-//W3C//DTD SVG 1.1//EN"
 "http://www.w3.org/Graphics/SVG/1.1/DTD/svg11.dtd">
<!-- Generated by graphviz version 2.40.1 (20161225.0304)
 -->
<!-- Title: AirfoilTable.H Pages: 1 -->
<svg width="588pt" height="397pt"
 viewBox="0.00 0.00 587.54 397.00" xmlns="http://www.w3.org/2000/svg" xmlns:xlink="http://www.w3.org/1999/xlink">
<g id="graph0" class="graph" transform="scale(1 1) rotate(0) translate(4 393)">
<title>AirfoilTable.H</title>
<polygon fill="#ffffff" stroke="transparent" points="-4,4 -4,-393 583.5378,-393 583.5378,4 -4,4"/>
<!-- Node0 -->
<g id="node1" class="node">
<title>Node0</title>
<polygon fill="#bfbfbf" stroke="#000000" points="351.0378,-369.5 351.0378,-388.5 427.0378,-388.5 427.0378,-369.5 351.0378,-369.5"/>
<text text-anchor="middle" x="389.0378" y="-376.5" font-family="Helvetica,sans-Serif" font-size="10.00" fill="#000000">AirfoilTable.H</text>
</g>
<!-- Node1 -->
<g id="node2" class="node">
<title>Node1</title>
<g id="a_node2"><a xlink:href="actuator__types_8_h.html" target="_top" xlink:title="amr&#45;wind/wind_energy\l/actuator/actuator_types.H">
<polygon fill="#ffffff" stroke="#000000" points="148.5378,-302.5 148.5378,-332.5 281.5378,-332.5 281.5378,-302.5 148.5378,-302.5"/>
<text text-anchor="start" x="156.5378" y="-320.5" font-family="Helvetica,sans-Serif" font-size="10.00" fill="#000000">amr&#45;wind/wind_energy</text>
<text text-anchor="middle" x="215.0378" y="-309.5" font-family="Helvetica,sans-Serif" font-size="10.00" fill="#000000">/actuator/actuator_types.H</text>
</a>
</g>
</g>
<!-- Node0&#45;&gt;Node1 -->
<g id="edge1" class="edge">
<title>Node0&#45;&gt;Node1</title>
<path fill="none" stroke="#191970" d="M361.8503,-369.3906C336.6662,-360.4893 298.5219,-347.0073 267.426,-336.0165"/>
<polygon fill="#191970" stroke="#191970" points="268.1978,-332.5772 257.603,-332.5446 265.865,-339.1771 268.1978,-332.5772"/>
</g>
<!-- Node19 -->
<g id="node20" class="node">
<title>Node19</title>
<polygon fill="#ffffff" stroke="#bfbfbf" points="299.5378,-308 299.5378,-327 344.5378,-327 344.5378,-308 299.5378,-308"/>
<text text-anchor="middle" x="322.0378" y="-315" font-family="Helvetica,sans-Serif" font-size="10.00" fill="#000000">iosfwd</text>
</g>
<!-- Node0&#45;&gt;Node19 -->
<g id="edge30" class="edge">
<title>Node0&#45;&gt;Node19</title>
<path fill="none" stroke="#191970" d="M378.5691,-369.3906C368.3042,-359.9683 352.4475,-345.4134 340.1373,-334.1137"/>
<polygon fill="#191970" stroke="#191970" points="342.388,-331.4287 332.6542,-327.2449 337.6544,-336.5856 342.388,-331.4287"/>
</g>
<!-- Node20 -->
<g id="node21" class="node">
<title>Node20</title>
<polygon fill="#ffffff" stroke="#bfbfbf" points="363.0378,-308 363.0378,-327 415.0378,-327 415.0378,-308 363.0378,-308"/>
<text text-anchor="middle" x="389.0378" y="-315" font-family="Helvetica,sans-Serif" font-size="10.00" fill="#000000">memory</text>
</g>
<!-- Node0&#45;&gt;Node20 -->
<g id="edge31" class="edge">
<title>Node0&#45;&gt;Node20</title>
<path fill="none" stroke="#191970" d="M389.0378,-369.3906C389.0378,-360.8657 389.0378,-348.1392 389.0378,-337.4235"/>
<polygon fill="#191970" stroke="#191970" points="392.5379,-337.2448 389.0378,-327.2449 385.5379,-337.2449 392.5379,-337.2448"/>
</g>
<!-- Node21 -->
<g id="node22" class="node">
<title>Node21</title>
<g id="a_node22"><a xlink:href="_airfoil_table_i_8_h.html" target="_top" xlink:title="amr&#45;wind/wind_energy\l/actuator/aero/AirfoilTableI.H">
<polygon fill="#ffffff" stroke="#000000" points="433.0378,-302.5 433.0378,-332.5 575.0378,-332.5 575.0378,-302.5 433.0378,-302.5"/>
<text text-anchor="start" x="441.0378" y="-320.5" font-family="Helvetica,sans-Serif" font-size="10.00" fill="#000000">amr&#45;wind/wind_energy</text>
<text text-anchor="middle" x="504.0378" y="-309.5" font-family="Helvetica,sans-Serif" font-size="10.00" fill="#000000">/actuator/aero/AirfoilTableI.H</text>
</a>
</g>
</g>
<!-- Node0&#45;&gt;Node21 -->
<g id="edge32" class="edge">
<title>Node0&#45;&gt;Node21</title>
<path fill="none" stroke="#191970" d="M401.9441,-369.3906C416.3356,-360.7976 439.9593,-347.9356 460.9178,-337.1671"/>
<polygon fill="#191970" stroke="#191970" points="462.6811,-340.197 470.0086,-332.5446 459.5083,-333.9573 462.6811,-340.197"/>
</g>
<!-- Node2 -->
<g id="node3" class="node">
<title>Node2</title>
<g id="a_node3"><a xlink:href="_slice_8_h.html" target="_top" xlink:title="amr&#45;wind/core/Slice.H">
<polygon fill="#ffffff" stroke="#000000" points="31.5378,-241 31.5378,-260 144.5378,-260 144.5378,-241 31.5378,-241"/>
<text text-anchor="middle" x="88.0378" y="-248" font-family="Helvetica,sans-Serif" font-size="10.00" fill="#000000">amr&#45;wind/core/Slice.H</text>
</a>
</g>
</g>
<!-- Node1&#45;&gt;Node2 -->
<g id="edge2" class="edge">
<title>Node1&#45;&gt;Node2</title>
<path fill="none" stroke="#191970" d="M186.5366,-302.4639C165.2276,-291.2222 136.2718,-275.9463 115.2739,-264.8686"/>
<polygon fill="#191970" stroke="#191970" points="116.7201,-261.6744 106.2423,-260.1039 113.4538,-267.8657 116.7201,-261.6744"/>
</g>
<!-- Node5 -->
<g id="node6" class="node">
<title>Node5</title>
<polygon fill="#ffffff" stroke="#bfbfbf" points="34.5378,-.5 34.5378,-19.5 119.5378,-19.5 119.5378,-.5 34.5378,-.5"/>
<text text-anchor="middle" x="77.0378" y="-7.5" font-family="Helvetica,sans-Serif" font-size="10.00" fill="#000000">AMReX_Gpu.H</text>
</g>
<!-- Node1&#45;&gt;Node5 -->
<g id="edge27" class="edge">
<title>Node1&#45;&gt;Node5</title>
<path fill="none" stroke="#191970" d="M148.2033,-306.9418C99.826,-297.9946 39.9265,-283.7907 22.0378,-266 -3.1135,-240.9863 1.0378,-224.4721 1.0378,-189 1.0378,-189 1.0378,-189 1.0378,-133 1.0378,-89.4388 35.9622,-48.4145 58.4613,-26.5053"/>
<polygon fill="#191970" stroke="#191970" points="60.9377,-28.981 65.8238,-19.5801 56.1417,-23.8822 60.9377,-28.981"/>
</g>
<!-- Node6 -->
<g id="node7" class="node">
<title>Node6</title>
<g id="a_node7"><a xlink:href="vector__space_8_h.html" target="_top" xlink:title="amr&#45;wind/core/vs/vector\l_space.H">
<polygon fill="#ffffff" stroke="#000000" points="333.0378,-235.5 333.0378,-265.5 455.0378,-265.5 455.0378,-235.5 333.0378,-235.5"/>
<text text-anchor="start" x="341.0378" y="-253.5" font-family="Helvetica,sans-Serif" font-size="10.00" fill="#000000">amr&#45;wind/core/vs/vector</text>
<text text-anchor="middle" x="394.0378" y="-242.5" font-family="Helvetica,sans-Serif" font-size="10.00" fill="#000000">_space.H</text>
</a>
</g>
</g>
<!-- Node1&#45;&gt;Node6 -->
<g id="edge6" class="edge">
<title>Node1&#45;&gt;Node6</title>
<path fill="none" stroke="#191970" d="M255.2089,-302.4639C281.4874,-292.6278 316.0168,-279.7034 344.065,-269.2049"/>
<polygon fill="#191970" stroke="#191970" points="345.553,-272.3852 353.6915,-265.6017 343.0991,-265.8293 345.553,-272.3852"/>
</g>
<!-- Node17 -->
<g id="node18" class="node">
<title>Node17</title>
<polygon fill="#ffffff" stroke="#bfbfbf" points="163.0378,-241 163.0378,-260 267.0378,-260 267.0378,-241 163.0378,-241"/>
<text text-anchor="middle" x="215.0378" y="-248" font-family="Helvetica,sans-Serif" font-size="10.00" fill="#000000">AMReX_RealBox.H</text>
</g>
<!-- Node1&#45;&gt;Node17 -->
<g id="edge28" class="edge">
<title>Node1&#45;&gt;Node17</title>
<path fill="none" stroke="#191970" d="M215.0378,-302.2967C215.0378,-292.7699 215.0378,-280.3954 215.0378,-270.1306"/>
<polygon fill="#191970" stroke="#191970" points="218.5379,-270.0549 215.0378,-260.055 211.5379,-270.055 218.5379,-270.0549"/>
</g>
<!-- Node18 -->
<g id="node19" class="node">
<title>Node18</title>
<polygon fill="#ffffff" stroke="#bfbfbf" points="285.0378,-241 285.0378,-260 315.0378,-260 315.0378,-241 285.0378,-241"/>
<text text-anchor="middle" x="300.0378" y="-248" font-family="Helvetica,sans-Serif" font-size="10.00" fill="#000000">set</text>
</g>
<!-- Node1&#45;&gt;Node18 -->
<g id="edge29" class="edge">
<title>Node1&#45;&gt;Node18</title>
<path fill="none" stroke="#191970" d="M234.3256,-302.2967C247.9548,-291.5537 266.178,-277.1895 279.9766,-266.3129"/>
<polygon fill="#191970" stroke="#191970" points="282.2289,-268.9942 287.9159,-260.055 277.8956,-263.4967 282.2289,-268.9942"/>
</g>
<!-- Node3 -->
<g id="node4" class="node">
<title>Node3</title>
<polygon fill="#ffffff" stroke="#bfbfbf" points="67.5378,-179.5 67.5378,-198.5 114.5378,-198.5 114.5378,-179.5 67.5378,-179.5"/>
<text text-anchor="middle" x="91.0378" y="-186.5" font-family="Helvetica,sans-Serif" font-size="10.00" fill="#000000">iterator</text>
</g>
<!-- Node2&#45;&gt;Node3 -->
<g id="edge3" class="edge">
<title>Node2&#45;&gt;Node3</title>
<path fill="none" stroke="#191970" d="M88.5066,-240.8906C88.9224,-232.3657 89.5432,-219.6392 90.066,-208.9235"/>
<polygon fill="#191970" stroke="#191970" points="93.571,-208.9035 90.5625,-198.7449 86.5793,-208.5624 93.571,-208.9035"/>
</g>
<!-- Node4 -->
<g id="node5" class="node">
<title>Node4</title>
<polygon fill="#ffffff" stroke="#bfbfbf" points="132.5378,-179.5 132.5378,-198.5 227.5378,-198.5 227.5378,-179.5 132.5378,-179.5"/>
<text text-anchor="middle" x="180.0378" y="-186.5" font-family="Helvetica,sans-Serif" font-size="10.00" fill="#000000">AMReX_Vector.H</text>
</g>
<!-- Node2&#45;&gt;Node4 -->
<g id="edge4" class="edge">
<title>Node2&#45;&gt;Node4</title>
<path fill="none" stroke="#191970" d="M102.4128,-240.8906C117.131,-231.0519 140.221,-215.6167 157.3968,-204.1351"/>
<polygon fill="#191970" stroke="#191970" points="159.3953,-207.0091 165.7638,-198.5419 155.5051,-201.1896 159.3953,-207.0091"/>
</g>
<!-- Node2&#45;&gt;Node5 -->
<g id="edge5" class="edge">
<title>Node2&#45;&gt;Node5</title>
<path fill="none" stroke="#191970" d="M80.3664,-240.948C72.9935,-231.1047 62.3537,-214.9833 58.0378,-199 41.7473,-138.6702 59.9835,-64.0997 70.5584,-29.4253"/>
<polygon fill="#191970" stroke="#191970" points="73.9757,-30.2283 73.6692,-19.6379 67.3045,-28.1079 73.9757,-30.2283"/>
</g>
<!-- Node7 -->
<g id="node8" class="node">
<title>Node7</title>
<g id="a_node8"><a xlink:href="vector_8_h.html" target="_top" xlink:title="amr&#45;wind/core/vs/vector.H">
<polygon fill="#ffffff" stroke="#000000" points="373.0378,-123.5 373.0378,-142.5 505.0378,-142.5 505.0378,-123.5 373.0378,-123.5"/>
<text text-anchor="middle" x="439.0378" y="-130.5" font-family="Helvetica,sans-Serif" font-size="10.00" fill="#000000">amr&#45;wind/core/vs/vector.H</text>
</a>
</g>
</g>
<!-- Node6&#45;&gt;Node7 -->
<g id="edge7" class="edge">
<title>Node6&#45;&gt;Node7</title>
<path fill="none" stroke="#191970" d="M399.9208,-235.1389C408.102,-213.7768 422.9059,-175.1224 431.7681,-151.982"/>
<polygon fill="#191970" stroke="#191970" points="435.0687,-153.1498 435.3768,-142.5595 428.5317,-150.6463 435.0687,-153.1498"/>
</g>
<!-- Node14 -->
<g id="node15" class="node">
<title>Node14</title>
<g id="a_node15"><a xlink:href="tensor_8_h.html" target="_top" xlink:title="amr&#45;wind/core/vs/tensor.H">
<polygon fill="#ffffff" stroke="#000000" points="268.0378,-179.5 268.0378,-198.5 400.0378,-198.5 400.0378,-179.5 268.0378,-179.5"/>
<text text-anchor="middle" x="334.0378" y="-186.5" font-family="Helvetica,sans-Serif" font-size="10.00" fill="#000000">amr&#45;wind/core/vs/tensor.H</text>
</a>
</g>
</g>
<!-- Node6&#45;&gt;Node14 -->
<g id="edge16" class="edge">
<title>Node6&#45;&gt;Node14</title>
<path fill="none" stroke="#191970" d="M379.2064,-235.2977C370.6175,-226.4941 359.7776,-215.3833 350.87,-206.2529"/>
<polygon fill="#191970" stroke="#191970" points="353.1331,-203.5606 343.6446,-198.8469 348.1226,-208.4489 353.1331,-203.5606"/>
</g>
<!-- Node7&#45;&gt;Node5 -->
<g id="edge8" class="edge">
<title>Node7&#45;&gt;Node5</title>
<path fill="none" stroke="#191970" d="M372.7864,-125.7261C289.2682,-116.1389 154.1128,-99.0779 134.0378,-87 111.3108,-73.3265 94.7802,-46.8094 85.5451,-28.7557"/>
<polygon fill="#191970" stroke="#191970" points="88.6828,-27.2045 81.1721,-19.7319 82.3835,-30.2573 88.6828,-27.2045"/>
</g>
<!-- Node8 -->
<g id="node9" class="node">
<title>Node8</title>
<g id="a_node9"><a xlink:href="vstraits_8_h.html" target="_top" xlink:title="amr&#45;wind/core/vs/vstraits.H">
<polygon fill="#ffffff" stroke="#000000" points="289.5378,-62 289.5378,-81 426.5378,-81 426.5378,-62 289.5378,-62"/>
<text text-anchor="middle" x="358.0378" y="-69" font-family="Helvetica,sans-Serif" font-size="10.00" fill="#000000">amr&#45;wind/core/vs/vstraits.H</text>
</a>
</g>
</g>
<!-- Node7&#45;&gt;Node8 -->
<g id="edge9" class="edge">
<title>Node7&#45;&gt;Node8</title>
<path fill="none" stroke="#191970" d="M426.3816,-123.3906C413.661,-113.7324 393.8375,-98.6812 378.8094,-87.271"/>
<polygon fill="#191970" stroke="#191970" points="380.6862,-84.3015 370.6052,-81.0419 376.4532,-89.8766 380.6862,-84.3015"/>
</g>
<!-- Node11 -->
<g id="node12" class="node">
<title>Node11</title>
<g id="a_node12"><a xlink:href="vector_i_8_h.html" target="_top" xlink:title="amr&#45;wind/core/vs/vectorI.H">
<polygon fill="#ffffff" stroke="#000000" points="444.5378,-62 444.5378,-81 579.5378,-81 579.5378,-62 444.5378,-62"/>
<text text-anchor="middle" x="512.0378" y="-69" font-family="Helvetica,sans-Serif" font-size="10.00" fill="#000000">amr&#45;wind/core/vs/vectorI.H</text>
</a>
</g>
</g>
<!-- Node7&#45;&gt;Node11 -->
<g id="edge12" class="edge">
<title>Node7&#45;&gt;Node11</title>
<path fill="none" stroke="#191970" d="M445.3816,-123.3906C454.9613,-113.7324 472.5208,-98.6812 487.337,-87.271"/>
<polygon fill="#191970" stroke="#191970" points="489.7523,-89.8351 495.6624,-81.0419 485.5587,-84.2303 489.7523,-89.8351"/>
</g>
<!-- Node9 -->
<g id="node10" class="node">
<title>Node9</title>
<polygon fill="#ffffff" stroke="#bfbfbf" points="338.0378,-.5 338.0378,-19.5 378.0378,-19.5 378.0378,-.5 338.0378,-.5"/>
<text text-anchor="middle" x="358.0378" y="-7.5" font-family="Helvetica,sans-Serif" font-size="10.00" fill="#000000">limits</text>
</g>
<!-- Node8&#45;&gt;Node9 -->
<g id="edge10" class="edge">
<title>Node8&#45;&gt;Node9</title>
<path fill="none" stroke="#191970" d="M358.0378,-61.8906C358.0378,-53.3657 358.0378,-40.6392 358.0378,-29.9235"/>
<polygon fill="#191970" stroke="#191970" points="361.5379,-29.7448 358.0378,-19.7449 354.5379,-29.7449 361.5379,-29.7448"/>
</g>
<!-- Node10 -->
<g id="node11" class="node">
<title>Node10</title>
<polygon fill="#ffffff" stroke="#bfbfbf" points="141.5378,-.5 141.5378,-19.5 234.5378,-19.5 234.5378,-.5 141.5378,-.5"/>
<text text-anchor="middle" x="188.0378" y="-7.5" font-family="Helvetica,sans-Serif" font-size="10.00" fill="#000000">AMReX_REAL.H</text>
</g>
<!-- Node8&#45;&gt;Node10 -->
<g id="edge11" class="edge">
<title>Node8&#45;&gt;Node10</title>
<path fill="none" stroke="#191970" d="M331.4753,-61.8906C302.5322,-51.42 256.0684,-34.6111 223.9022,-22.9745"/>
<polygon fill="#191970" stroke="#191970" points="225.0081,-19.6526 214.4138,-19.5419 222.6267,-26.2351 225.0081,-19.6526"/>
</g>
<!-- Node11&#45;&gt;Node7 -->
<g id="edge15" class="edge">
<title>Node11&#45;&gt;Node7</title>
<path fill="none" stroke="#191970" d="M505.5595,-81.2449C495.9621,-90.8964 478.5273,-105.8364 463.7913,-117.1884"/>
<polygon fill="#191970" stroke="#191970" points="461.4143,-114.5958 455.5066,-123.3906 465.6094,-120.1995 461.4143,-114.5958"/>
</g>
<!-- Node12 -->
<g id="node13" class="node">
<title>Node12</title>
<polygon fill="#ffffff" stroke="#bfbfbf" points="486.0378,-.5 486.0378,-19.5 538.0378,-19.5 538.0378,-.5 486.0378,-.5"/>
<text text-anchor="middle" x="512.0378" y="-7.5" font-family="Helvetica,sans-Serif" font-size="10.00" fill="#000000">ostream</text>
</g>
<!-- Node11&#45;&gt;Node12 -->
<g id="edge13" class="edge">
<title>Node11&#45;&gt;Node12</title>
<path fill="none" stroke="#191970" d="M512.0378,-61.8906C512.0378,-53.3657 512.0378,-40.6392 512.0378,-29.9235"/>
<polygon fill="#191970" stroke="#191970" points="515.5379,-29.7448 512.0378,-19.7449 508.5379,-29.7449 515.5379,-29.7448"/>
</g>
<!-- Node13 -->
<g id="node14" class="node">
<title>Node13</title>
<polygon fill="#ffffff" stroke="#bfbfbf" points="253.0378,-.5 253.0378,-19.5 297.0378,-19.5 297.0378,-.5 253.0378,-.5"/>
<text text-anchor="middle" x="275.0378" y="-7.5" font-family="Helvetica,sans-Serif" font-size="10.00" fill="#000000">cmath</text>
</g>
<!-- Node11&#45;&gt;Node13 -->
<g id="edge14" class="edge">
<title>Node11&#45;&gt;Node13</title>
<path fill="none" stroke="#191970" d="M475.2666,-61.9581C429.1658,-49.9952 350.8885,-29.6828 307.1107,-18.3227"/>
<polygon fill="#191970" stroke="#191970" points="307.8399,-14.8961 297.2813,-15.7721 306.0816,-21.6717 307.8399,-14.8961"/>
</g>
<!-- Node14&#45;&gt;Node5 -->
<g id="edge17" class="edge">
<title>Node14&#45;&gt;Node5</title>
<path fill="none" stroke="#191970" d="M281.8457,-179.4354C249.1536,-172.1891 206.785,-160.455 172.0378,-143 135.4978,-124.6444 122.0377,-120.8098 99.0378,-87 87.347,-69.8145 81.8079,-46.4413 79.2225,-29.9682"/>
<polygon fill="#191970" stroke="#191970" points="82.6609,-29.2743 77.8652,-19.8271 75.7228,-30.203 82.6609,-29.2743"/>
</g>
<!-- Node14&#45;&gt;Node7 -->
<g id="edge19" class="edge">
<title>Node14&#45;&gt;Node7</title>
<path fill="none" stroke="#191970" d="M352.3274,-179.2455C368.8141,-170.4527 393.273,-157.4079 412.0144,-147.4125"/>
<polygon fill="#191970" stroke="#191970" points="413.7814,-150.4368 420.9578,-142.6427 410.4872,-144.2604 413.7814,-150.4368"/>
</g>
<!-- Node14&#45;&gt;Node8 -->
<g id="edge18" class="edge">
<title>Node14&#45;&gt;Node8</title>
<path fill="none" stroke="#191970" d="M336.0018,-179.3845C339.9222,-160.1913 348.7879,-116.786 354.0005,-91.2663"/>
<polygon fill="#191970" stroke="#191970" points="357.4746,-91.7465 356.0467,-81.2484 350.6162,-90.3456 357.4746,-91.7465"/>
</g>
<!-- Node15 -->
<g id="node16" class="node">
<title>Node15</title>
<g id="a_node16"><a xlink:href="tensor_i_8_h.html" target="_top" xlink:title="amr&#45;wind/core/vs/tensorI.H">
<polygon fill="#ffffff" stroke="#000000" points="181.5378,-123.5 181.5378,-142.5 316.5378,-142.5 316.5378,-123.5 181.5378,-123.5"/>
<text text-anchor="middle" x="249.0378" y="-130.5" font-family="Helvetica,sans-Serif" font-size="10.00" fill="#000000">amr&#45;wind/core/vs/tensorI.H</text>
</a>
</g>
</g>
<!-- Node14&#45;&gt;Node15 -->
<g id="edge20" class="edge">
<title>Node14&#45;&gt;Node15</title>
<path fill="none" stroke="#191970" d="M313.9651,-179.2455C299.5392,-170.814 280.5194,-158.4729 266.6772,-148.6598"/>
<polygon fill="#191970" stroke="#191970" points="268.5705,-145.7086 258.4289,-142.6427 264.445,-151.3637 268.5705,-145.7086"/>
</g>
<!-- Node15&#45;&gt;Node13 -->
<g id="edge21" class="edge">
<title>Node15&#45;&gt;Node13</title>
<path fill="none" stroke="#191970" d="M251.078,-123.3484C255.3308,-103.2295 265.2168,-56.4608 270.8715,-29.7098"/>
<polygon fill="#191970" stroke="#191970" points="274.3633,-30.1144 273.0071,-19.6068 267.5146,-28.6667 274.3633,-30.1144"/>
</g>
<!-- Node15&#45;&gt;Node14 -->
<g id="edge22" class="edge">
<title>Node15&#45;&gt;Node14</title>
<path fill="none" stroke="#191970" d="M268.9192,-142.6427C283.3043,-151.0394 302.3264,-163.3743 316.2142,-173.2097"/>
<polygon fill="#191970" stroke="#191970" points="314.3554,-176.1858 324.4988,-179.2455 318.4774,-170.5281 314.3554,-176.1858"/>
</g>
<!-- Node16 -->
<g id="node17" class="node">
<title>Node16</title>
<g id="a_node17"><a xlink:href="trig__ops_8_h.html" target="_top" xlink:title="Trigonometric utilities. ">
<polygon fill="#ffffff" stroke="#000000" points="143.0378,-56.5 143.0378,-86.5 233.0378,-86.5 233.0378,-56.5 143.0378,-56.5"/>
<text text-anchor="start" x="151.0378" y="-74.5" font-family="Helvetica,sans-Serif" font-size="10.00" fill="#000000">amr&#45;wind/utilities</text>
<text text-anchor="middle" x="188.0378" y="-63.5" font-family="Helvetica,sans-Serif" font-size="10.00" fill="#000000">/trig_ops.H</text>
</a>
</g>
</g>
<!-- Node15&#45;&gt;Node16 -->
<g id="edge23" class="edge">
<title>Node15&#45;&gt;Node16</title>
<path fill="none" stroke="#191970" d="M239.5066,-123.3906C231.6332,-115.4527 220.1465,-103.8718 210.0212,-93.6635"/>
<polygon fill="#191970" stroke="#191970" points="212.4872,-91.1797 202.9601,-86.5446 207.5173,-96.1093 212.4872,-91.1797"/>
</g>
<!-- Node16&#45;&gt;Node5 -->
<g id="edge26" class="edge">
<title>Node16&#45;&gt;Node5</title>
<path fill="none" stroke="#191970" d="M160.8842,-56.4554C143.3383,-46.734 120.6256,-34.15 103.2658,-24.5317"/>
<polygon fill="#191970" stroke="#191970" points="104.6823,-21.3153 94.2389,-19.5303 101.2898,-27.4383 104.6823,-21.3153"/>
</g>
<!-- Node16&#45;&gt;Node10 -->
<g id="edge25" class="edge">
<title>Node16&#45;&gt;Node10</title>
<path fill="none" stroke="#191970" d="M188.0378,-56.2977C188.0378,-48.3834 188.0378,-38.6043 188.0378,-30.0759"/>
<polygon fill="#191970" stroke="#191970" points="191.5379,-29.8469 188.0378,-19.8469 184.5379,-29.847 191.5379,-29.8469"/>
</g>
<!-- Node16&#45;&gt;Node13 -->
<g id="edge24" class="edge">
<title>Node16&#45;&gt;Node13</title>
<path fill="none" stroke="#191970" d="M209.5435,-56.2977C222.8347,-46.9022 239.8435,-34.8787 253.1966,-25.4395"/>
<polygon fill="#191970" stroke="#191970" points="255.2224,-28.2937 261.3678,-19.6633 251.1817,-22.5776 255.2224,-28.2937"/>
</g>
<!-- Node21&#45;&gt;Node0 -->
<g id="edge33" class="edge">
<title>Node21&#45;&gt;Node0</title>
<path fill="none" stroke="#191970" d="M481.8027,-332.5446C464.5134,-342.4196 440.4844,-355.2484 421.1394,-364.922"/>
<polygon fill="#191970" stroke="#191970" points="419.4927,-361.8315 412.0691,-369.3906 422.5863,-368.1108 419.4927,-361.8315"/>
</g>
<!-- Node22 -->
<g id="node23" class="node">
<title>Node22</title>
<polygon fill="#ffffff" stroke="#bfbfbf" points="483.5378,-241 483.5378,-260 524.5378,-260 524.5378,-241 483.5378,-241"/>
<text text-anchor="middle" x="504.0378" y="-248" font-family="Helvetica,sans-Serif" font-size="10.00" fill="#000000">string</text>
</g>
<!-- Node21&#45;&gt;Node22 -->
<g id="edge34" class="edge">
<title>Node21&#45;&gt;Node22</title>
<path fill="none" stroke="#191970" d="M504.0378,-302.2967C504.0378,-292.7699 504.0378,-280.3954 504.0378,-270.1306"/>
<polygon fill="#191970" stroke="#191970" points="507.5379,-270.0549 504.0378,-260.055 500.5379,-270.055 507.5379,-270.0549"/>
</g>
</g>
</svg>
