<?xml version="1.0" encoding="UTF-8" standalone="no"?>
<!DOCTYPE svg PUBLIC "-//W3C//DTD SVG 1.1//EN"
 "http://www.w3.org/Graphics/SVG/1.1/DTD/svg11.dtd">
<!-- Generated by graphviz version 2.40.1 (20161225.0304)
 -->
<!-- Title: AirfoilTableI.H Pages: 1 -->
<svg width="421pt" height="252pt"
 viewBox="0.00 0.00 421.00 252.00" xmlns="http://www.w3.org/2000/svg" xmlns:xlink="http://www.w3.org/1999/xlink">
<g id="graph0" class="graph" transform="scale(1 1) rotate(0) translate(4 248)">
<title>AirfoilTableI.H</title>
<polygon fill="#ffffff" stroke="transparent" points="-4,4 -4,-248 417,-248 417,4 -4,4"/>
<!-- Node23 -->
<g id="node1" class="node">
<title>Node23</title>
<polygon fill="#bfbfbf" stroke="#000000" points="147.5,-224.5 147.5,-243.5 226.5,-243.5 226.5,-224.5 147.5,-224.5"/>
<text text-anchor="middle" x="187" y="-231.5" font-family="Helvetica,sans-Serif" font-size="10.00" fill="#000000">AirfoilTableI.H</text>
</g>
<!-- Node24 -->
<g id="node2" class="node">
<title>Node24</title>
<g id="a_node2"><a xlink:href="_airfoil_table_8_h.html" target="_top" xlink:title="AirfoilTable.H">
<polygon fill="#ffffff" stroke="#000000" points="149,-168.5 149,-187.5 225,-187.5 225,-168.5 149,-168.5"/>
<text text-anchor="middle" x="187" y="-175.5" font-family="Helvetica,sans-Serif" font-size="10.00" fill="#000000">AirfoilTable.H</text>
</a>
</g>
</g>
<!-- Node23&#45;&gt;Node24 -->
<g id="edge1" class="edge">
<title>Node23&#45;&gt;Node24</title>
<path fill="none" stroke="#191970" d="M180.5113,-214.1575C179.919,-205.155 180.3335,-194.9199 181.7549,-187.6427"/>
<polygon fill="#191970" stroke="#191970" points="177.0561,-214.739 181.7332,-224.2455 184.0053,-213.8972 177.0561,-214.739"/>
</g>
<!-- Node24&#45;&gt;Node23 -->
<g id="edge3" class="edge">
<title>Node24&#45;&gt;Node23</title>
<path fill="none" stroke="#191970" d="M193.4795,-197.7046C194.0821,-206.6944 193.6779,-216.9382 192.2668,-224.2455"/>
<polygon fill="#191970" stroke="#191970" points="196.9368,-197.1421 192.2451,-187.6427 189.9889,-197.9945 196.9368,-197.1421"/>
</g>
<!-- Node25 -->
<g id="node3" class="node">
<title>Node25</title>
<g id="a_node3"><a xlink:href="_airfoil_table_8cpp.html" target="_top" xlink:title="AirfoilTable.cpp">
<polygon fill="#ffffff" stroke="#000000" points="0,-112.5 0,-131.5 84,-131.5 84,-112.5 0,-112.5"/>
<text text-anchor="middle" x="42" y="-119.5" font-family="Helvetica,sans-Serif" font-size="10.00" fill="#000000">AirfoilTable.cpp</text>
</a>
</g>
</g>
<!-- Node24&#45;&gt;Node25 -->
<g id="edge2" class="edge">
<title>Node24&#45;&gt;Node25</title>
<path fill="none" stroke="#191970" d="M152.4435,-164.6541C126.0014,-154.4419 90.1831,-140.6086 66.6011,-131.5011"/>
<polygon fill="#191970" stroke="#191970" points="151.4842,-168.0354 162.0736,-168.3733 154.0061,-161.5055 151.4842,-168.0354"/>
</g>
<!-- Node26 -->
<g id="node4" class="node">
<title>Node26</title>
<g id="a_node4"><a xlink:href="_fixed_wing_8_h.html" target="_top" xlink:title="FixedWing.H">
<polygon fill="#ffffff" stroke="#000000" points="102,-112.5 102,-131.5 176,-131.5 176,-112.5 102,-112.5"/>
<text text-anchor="middle" x="139" y="-119.5" font-family="Helvetica,sans-Serif" font-size="10.00" fill="#000000">FixedWing.H</text>
</a>
</g>
</g>
<!-- Node24&#45;&gt;Node26 -->
<g id="edge4" class="edge">
<title>Node24&#45;&gt;Node26</title>
<path fill="none" stroke="#191970" d="M172.0003,-160.5004C163.8378,-150.9775 154.0511,-139.5596 147.2651,-131.6427"/>
<polygon fill="#191970" stroke="#191970" points="169.4737,-162.9307 178.639,-168.2455 174.7885,-158.3752 169.4737,-162.9307"/>
</g>
<!-- Node29 -->
<g id="node7" class="node">
<title>Node29</title>
<g id="a_node7"><a xlink:href="wing__ops_8_h.html" target="_top" xlink:title="wing_ops.H">
<polygon fill="#ffffff" stroke="#000000" points="201,-112.5 201,-131.5 269,-131.5 269,-112.5 201,-112.5"/>
<text text-anchor="middle" x="235" y="-119.5" font-family="Helvetica,sans-Serif" font-size="10.00" fill="#000000">wing_ops.H</text>
</a>
</g>
</g>
<!-- Node24&#45;&gt;Node29 -->
<g id="edge8" class="edge">
<title>Node24&#45;&gt;Node29</title>
<path fill="none" stroke="#191970" d="M201.9997,-160.5004C210.1622,-150.9775 219.9489,-139.5596 226.7349,-131.6427"/>
<polygon fill="#191970" stroke="#191970" points="199.2115,-158.3752 195.361,-168.2455 204.5263,-162.9307 199.2115,-158.3752"/>
</g>
<!-- Node33 -->
<g id="node11" class="node">
<title>Node33</title>
<g id="a_node11"><a xlink:href="_flat_plate_8_h.html" target="_top" xlink:title="FlatPlate.H">
<polygon fill="#ffffff" stroke="#000000" points="307,-112.5 307,-131.5 373,-131.5 373,-112.5 307,-112.5"/>
<text text-anchor="middle" x="340" y="-119.5" font-family="Helvetica,sans-Serif" font-size="10.00" fill="#000000">FlatPlate.H</text>
</a>
</g>
</g>
<!-- Node24&#45;&gt;Node33 -->
<g id="edge13" class="edge">
<title>Node24&#45;&gt;Node33</title>
<path fill="none" stroke="#191970" d="M222.7279,-164.9231C250.6971,-154.686 288.9393,-140.6889 314.0416,-131.5011"/>
<polygon fill="#191970" stroke="#191970" points="221.4894,-161.6493 213.3016,-168.3733 223.8954,-168.2228 221.4894,-161.6493"/>
</g>
<!-- Node27 -->
<g id="node5" class="node">
<title>Node27</title>
<g id="a_node5"><a xlink:href="fixed__wing__ops_8_h.html" target="_top" xlink:title="fixed_wing_ops.H">
<polygon fill="#ffffff" stroke="#000000" points="87.5,-56.5 87.5,-75.5 182.5,-75.5 182.5,-56.5 87.5,-56.5"/>
<text text-anchor="middle" x="135" y="-63.5" font-family="Helvetica,sans-Serif" font-size="10.00" fill="#000000">fixed_wing_ops.H</text>
</a>
</g>
</g>
<!-- Node26&#45;&gt;Node27 -->
<g id="edge5" class="edge">
<title>Node26&#45;&gt;Node27</title>
<path fill="none" stroke="#191970" d="M137.5827,-102.1575C136.9396,-93.155 136.2086,-82.9199 135.6888,-75.6427"/>
<polygon fill="#191970" stroke="#191970" points="134.0996,-102.5204 138.3033,-112.2455 141.0818,-102.0216 134.0996,-102.5204"/>
</g>
<!-- Node28 -->
<g id="node6" class="node">
<title>Node28</title>
<g id="a_node6"><a xlink:href="_fixed_wing_8cpp.html" target="_top" xlink:title="FixedWing.cpp">
<polygon fill="#ffffff" stroke="#000000" points="56,-.5 56,-19.5 138,-19.5 138,-.5 56,-.5"/>
<text text-anchor="middle" x="97" y="-7.5" font-family="Helvetica,sans-Serif" font-size="10.00" fill="#000000">FixedWing.cpp</text>
</a>
</g>
</g>
<!-- Node26&#45;&gt;Node28 -->
<g id="edge7" class="edge">
<title>Node26&#45;&gt;Node28</title>
<path fill="none" stroke="#191970" d="M108.9605,-107.2419C97.0327,-99.6808 84.6003,-89.244 78,-76 68.6395,-57.2176 81.1302,-33.0657 89.8509,-19.805"/>
<polygon fill="#191970" stroke="#191970" points="107.4801,-110.4309 117.8784,-112.4622 111.0165,-104.3898 107.4801,-110.4309"/>
</g>
<!-- Node27&#45;&gt;Node28 -->
<g id="edge6" class="edge">
<title>Node27&#45;&gt;Node28</title>
<path fill="none" stroke="#191970" d="M122.7321,-47.9209C116.3512,-38.5176 108.8069,-27.3997 103.5432,-19.6427"/>
<polygon fill="#191970" stroke="#191970" points="119.8697,-49.936 128.3809,-56.2455 125.662,-46.0055 119.8697,-49.936"/>
</g>
<!-- Node29&#45;&gt;Node27 -->
<g id="edge9" class="edge">
<title>Node29&#45;&gt;Node27</title>
<path fill="none" stroke="#191970" d="M208.7902,-107.3225C190.9283,-97.3198 167.7845,-84.3593 152.2191,-75.6427"/>
<polygon fill="#191970" stroke="#191970" points="207.1461,-110.4132 217.5813,-112.2455 210.5664,-104.3057 207.1461,-110.4132"/>
</g>
<!-- Node30 -->
<g id="node8" class="node">
<title>Node30</title>
<g id="a_node8"><a xlink:href="flat__plate__ops_8_h.html" target="_top" xlink:title="flat_plate_ops.H">
<polygon fill="#ffffff" stroke="#000000" points="296,-56.5 296,-75.5 384,-75.5 384,-56.5 296,-56.5"/>
<text text-anchor="middle" x="340" y="-63.5" font-family="Helvetica,sans-Serif" font-size="10.00" fill="#000000">flat_plate_ops.H</text>
</a>
</g>
</g>
<!-- Node29&#45;&gt;Node30 -->
<g id="edge10" class="edge">
<title>Node29&#45;&gt;Node30</title>
<path fill="none" stroke="#191970" d="M262.2625,-107.46C281.0522,-97.4388 305.5013,-84.3993 321.92,-75.6427"/>
<polygon fill="#191970" stroke="#191970" points="260.4661,-104.4514 253.2896,-112.2455 263.7602,-110.6278 260.4661,-104.4514"/>
</g>
<!-- Node32 -->
<g id="node10" class="node">
<title>Node32</title>
<g id="a_node10"><a xlink:href="wing__ops_8cpp.html" target="_top" xlink:title="wing_ops.cpp">
<polygon fill="#ffffff" stroke="#000000" points="200.5,-56.5 200.5,-75.5 277.5,-75.5 277.5,-56.5 200.5,-56.5"/>
<text text-anchor="middle" x="239" y="-63.5" font-family="Helvetica,sans-Serif" font-size="10.00" fill="#000000">wing_ops.cpp</text>
</a>
</g>
</g>
<!-- Node29&#45;&gt;Node32 -->
<g id="edge12" class="edge">
<title>Node29&#45;&gt;Node32</title>
<path fill="none" stroke="#191970" d="M236.4173,-102.1575C237.0604,-93.155 237.7914,-82.9199 238.3112,-75.6427"/>
<polygon fill="#191970" stroke="#191970" points="232.9182,-102.0216 235.6967,-112.2455 239.9004,-102.5204 232.9182,-102.0216"/>
</g>
<!-- Node31 -->
<g id="node9" class="node">
<title>Node31</title>
<g id="a_node9"><a xlink:href="_flat_plate_8cpp.html" target="_top" xlink:title="FlatPlate.cpp">
<polygon fill="#ffffff" stroke="#000000" points="339,-.5 339,-19.5 413,-19.5 413,-.5 339,-.5"/>
<text text-anchor="middle" x="376" y="-7.5" font-family="Helvetica,sans-Serif" font-size="10.00" fill="#000000">FlatPlate.cpp</text>
</a>
</g>
</g>
<!-- Node30&#45;&gt;Node31 -->
<g id="edge11" class="edge">
<title>Node30&#45;&gt;Node31</title>
<path fill="none" stroke="#191970" d="M351.8096,-47.6296C357.8144,-38.2887 364.8659,-27.3197 369.8011,-19.6427"/>
<polygon fill="#191970" stroke="#191970" points="348.7342,-45.9411 346.2707,-56.2455 354.6225,-49.7264 348.7342,-45.9411"/>
</g>
<!-- Node33&#45;&gt;Node30 -->
<g id="edge14" class="edge">
<title>Node33&#45;&gt;Node30</title>
<path fill="none" stroke="#191970" d="M340,-102.1575C340,-93.155 340,-82.9199 340,-75.6427"/>
<polygon fill="#191970" stroke="#191970" points="336.5001,-102.2455 340,-112.2455 343.5001,-102.2456 336.5001,-102.2455"/>
</g>
<!-- Node33&#45;&gt;Node31 -->
<g id="edge15" class="edge">
<title>Node33&#45;&gt;Node31</title>
<path fill="none" stroke="#191970" d="M365.9274,-106.5977C376.3869,-98.8639 387.3111,-88.4704 393,-76 401.6433,-57.0535 390.3669,-32.9631 382.4751,-19.7569"/>
<polygon fill="#191970" stroke="#191970" points="363.6477,-103.9168 357.3758,-112.4558 367.6037,-109.6918 363.6477,-103.9168"/>
</g>
</g>
</svg>
