<?xml version="1.0" encoding="UTF-8" standalone="no"?>
<!DOCTYPE svg PUBLIC "-//W3C//DTD SVG 1.1//EN"
 "http://www.w3.org/Graphics/SVG/1.1/DTD/svg11.dtd">
<!-- Generated by graphviz version 2.40.1 (20161225.0304)
 -->
<!-- Title: BCInterface.H Pages: 1 -->
<svg width="856pt" height="196pt"
 viewBox="0.00 0.00 856.47 196.00" xmlns="http://www.w3.org/2000/svg" xmlns:xlink="http://www.w3.org/1999/xlink">
<g id="graph0" class="graph" transform="scale(1 1) rotate(0) translate(4 192)">
<title>BCInterface.H</title>
<polygon fill="#ffffff" stroke="transparent" points="-4,4 -4,-192 852.4687,-192 852.4687,4 -4,4"/>
<!-- Node0 -->
<g id="node1" class="node">
<title>Node0</title>
<polygon fill="#bfbfbf" stroke="#000000" points="646.4687,-168.5 646.4687,-187.5 726.4687,-187.5 726.4687,-168.5 646.4687,-168.5"/>
<text text-anchor="middle" x="686.4687" y="-175.5" font-family="Helvetica,sans-Serif" font-size="10.00" fill="#000000">BCInterface.H</text>
</g>
<!-- Node1 -->
<g id="node2" class="node">
<title>Node1</title>
<g id="a_node2"><a xlink:href="_field_8_h.html" target="_top" xlink:title="amr&#45;wind/core/Field.H">
<polygon fill="#ffffff" stroke="#000000" points="366.9687,-112.5 366.9687,-131.5 479.9687,-131.5 479.9687,-112.5 366.9687,-112.5"/>
<text text-anchor="middle" x="423.4687" y="-119.5" font-family="Helvetica,sans-Serif" font-size="10.00" fill="#000000">amr&#45;wind/core/Field.H</text>
</a>
</g>
</g>
<!-- Node0&#45;&gt;Node1 -->
<g id="edge1" class="edge">
<title>Node0&#45;&gt;Node1</title>
<path fill="none" stroke="#191970" d="M646.2384,-169.4338C601.2752,-159.8599 528.2203,-144.3045 478.1094,-133.6345"/>
<polygon fill="#191970" stroke="#191970" points="478.6056,-130.1618 468.0959,-131.5024 477.1477,-137.0083 478.6056,-130.1618"/>
</g>
<!-- Node9 -->
<g id="node10" class="node">
<title>Node9</title>
<g id="a_node10"><a xlink:href="incflo__enums_8_h.html" target="_top" xlink:title="amr&#45;wind/incflo_enums.H">
<polygon fill="#ffffff" stroke="#000000" points="712.4687,-56.5 712.4687,-75.5 840.4687,-75.5 840.4687,-56.5 712.4687,-56.5"/>
<text text-anchor="middle" x="776.4687" y="-63.5" font-family="Helvetica,sans-Serif" font-size="10.00" fill="#000000">amr&#45;wind/incflo_enums.H</text>
</a>
</g>
</g>
<!-- Node0&#45;&gt;Node9 -->
<g id="edge16" class="edge">
<title>Node0&#45;&gt;Node9</title>
<path fill="none" stroke="#191970" d="M677.5151,-168.3823C666.1042,-154.9137 649.2414,-130.0602 661.4687,-112 672.1999,-96.1497 689.3725,-85.7606 707.2096,-78.9511"/>
<polygon fill="#191970" stroke="#191970" points="708.8373,-82.0922 717.1508,-75.5243 706.556,-75.4743 708.8373,-82.0922"/>
</g>
<!-- Node13 -->
<g id="node14" class="node">
<title>Node13</title>
<polygon fill="#ffffff" stroke="#bfbfbf" points="670.9687,-112.5 670.9687,-131.5 789.9687,-131.5 789.9687,-112.5 670.9687,-112.5"/>
<text text-anchor="middle" x="730.4687" y="-119.5" font-family="Helvetica,sans-Serif" font-size="10.00" fill="#000000">AMReX_BC_TYPES.H</text>
</g>
<!-- Node0&#45;&gt;Node13 -->
<g id="edge17" class="edge">
<title>Node0&#45;&gt;Node13</title>
<path fill="none" stroke="#191970" d="M694.1329,-168.2455C700.3161,-160.3761 709.1751,-149.101 716.5976,-139.6542"/>
<polygon fill="#191970" stroke="#191970" points="719.4662,-141.6683 722.8923,-131.6427 713.962,-137.3435 719.4662,-141.6683"/>
</g>
<!-- Node14 -->
<g id="node15" class="node">
<title>Node14</title>
<polygon fill="#ffffff" stroke="#bfbfbf" points="808.4687,-112.5 808.4687,-131.5 848.4687,-131.5 848.4687,-112.5 808.4687,-112.5"/>
<text text-anchor="middle" x="828.4687" y="-119.5" font-family="Helvetica,sans-Serif" font-size="10.00" fill="#000000">utility</text>
</g>
<!-- Node0&#45;&gt;Node14 -->
<g id="edge18" class="edge">
<title>Node0&#45;&gt;Node14</title>
<path fill="none" stroke="#191970" d="M710.8794,-168.3733C735.208,-158.7789 772.6031,-144.0315 798.6693,-133.7519"/>
<polygon fill="#191970" stroke="#191970" points="800.0353,-136.9756 808.0539,-130.0509 797.4671,-130.4637 800.0353,-136.9756"/>
</g>
<!-- Node2 -->
<g id="node3" class="node">
<title>Node2</title>
<polygon fill="#ffffff" stroke="#bfbfbf" points="147.9687,-.5 147.9687,-19.5 188.9687,-19.5 188.9687,-.5 147.9687,-.5"/>
<text text-anchor="middle" x="168.4687" y="-7.5" font-family="Helvetica,sans-Serif" font-size="10.00" fill="#000000">string</text>
</g>
<!-- Node1&#45;&gt;Node2 -->
<g id="edge2" class="edge">
<title>Node1&#45;&gt;Node2</title>
<path fill="none" stroke="#191970" d="M366.7783,-119.8399C258.7372,-115.1377 31.9498,-102.2276 8.4687,-76 -30.3196,-32.6747 80.975,-17.1363 137.6042,-12.1327"/>
<polygon fill="#191970" stroke="#191970" points="138.1382,-15.6006 147.8173,-11.2919 137.5638,-8.6242 138.1382,-15.6006"/>
</g>
<!-- Node3 -->
<g id="node4" class="node">
<title>Node3</title>
<polygon fill="#ffffff" stroke="#bfbfbf" points="17.4687,-56.5 17.4687,-75.5 69.4687,-75.5 69.4687,-56.5 17.4687,-56.5"/>
<text text-anchor="middle" x="43.4687" y="-63.5" font-family="Helvetica,sans-Serif" font-size="10.00" fill="#000000">memory</text>
</g>
<!-- Node1&#45;&gt;Node3 -->
<g id="edge3" class="edge">
<title>Node1&#45;&gt;Node3</title>
<path fill="none" stroke="#191970" d="M366.8712,-117.0083C300.2528,-110.5647 186.2002,-97.7597 79.691,-76.0132"/>
<polygon fill="#191970" stroke="#191970" points="80.2419,-72.5531 69.7396,-73.9503 78.8209,-79.4074 80.2419,-72.5531"/>
</g>
<!-- Node4 -->
<g id="node5" class="node">
<title>Node4</title>
<polygon fill="#ffffff" stroke="#bfbfbf" points="87.9687,-56.5 87.9687,-75.5 170.9687,-75.5 170.9687,-56.5 87.9687,-56.5"/>
<text text-anchor="middle" x="129.4687" y="-63.5" font-family="Helvetica,sans-Serif" font-size="10.00" fill="#000000">unordered_map</text>
</g>
<!-- Node1&#45;&gt;Node4 -->
<g id="edge4" class="edge">
<title>Node1&#45;&gt;Node4</title>
<path fill="none" stroke="#191970" d="M372.7202,-112.4932C325.7562,-103.6728 253.7058,-90.084 181.4128,-76.1728"/>
<polygon fill="#191970" stroke="#191970" points="181.6945,-72.6628 171.2129,-74.2082 180.3705,-79.5364 181.6945,-72.6628"/>
</g>
<!-- Node5 -->
<g id="node6" class="node">
<title>Node5</title>
<polygon fill="#ffffff" stroke="#bfbfbf" points="189.4687,-56.5 189.4687,-75.5 245.4687,-75.5 245.4687,-56.5 189.4687,-56.5"/>
<text text-anchor="middle" x="217.4687" y="-63.5" font-family="Helvetica,sans-Serif" font-size="10.00" fill="#000000">algorithm</text>
</g>
<!-- Node1&#45;&gt;Node5 -->
<g id="edge5" class="edge">
<title>Node1&#45;&gt;Node5</title>
<path fill="none" stroke="#191970" d="M388.0561,-112.3733C351.1484,-102.3401 293.5115,-86.6718 255.6172,-76.3704"/>
<polygon fill="#191970" stroke="#191970" points="256.0541,-72.8623 245.4862,-73.6164 254.2178,-79.6171 256.0541,-72.8623"/>
</g>
<!-- Node6 -->
<g id="node7" class="node">
<title>Node6</title>
<polygon fill="#ffffff" stroke="#bfbfbf" points="499.4687,-.5 499.4687,-19.5 603.4687,-19.5 603.4687,-.5 499.4687,-.5"/>
<text text-anchor="middle" x="551.4687" y="-7.5" font-family="Helvetica,sans-Serif" font-size="10.00" fill="#000000">AMReX_MultiFab.H</text>
</g>
<!-- Node1&#45;&gt;Node6 -->
<g id="edge6" class="edge">
<title>Node1&#45;&gt;Node6</title>
<path fill="none" stroke="#191970" d="M480.1112,-117.0435C533.9421,-111.0204 609.3016,-98.7198 627.4687,-76 644.0162,-55.3058 614.302,-35.9727 587.321,-23.6478"/>
<polygon fill="#191970" stroke="#191970" points="588.5385,-20.3608 577.9717,-19.5898 585.7514,-26.782 588.5385,-20.3608"/>
</g>
<!-- Node7 -->
<g id="node8" class="node">
<title>Node7</title>
<polygon fill="#ffffff" stroke="#bfbfbf" points="263.9687,-56.5 263.9687,-75.5 362.9687,-75.5 362.9687,-56.5 263.9687,-56.5"/>
<text text-anchor="middle" x="313.4687" y="-63.5" font-family="Helvetica,sans-Serif" font-size="10.00" fill="#000000">AMReX_BCRec.H</text>
</g>
<!-- Node1&#45;&gt;Node7 -->
<g id="edge7" class="edge">
<title>Node1&#45;&gt;Node7</title>
<path fill="none" stroke="#191970" d="M404.3082,-112.2455C386.9576,-103.4125 361.1787,-90.2887 341.5104,-80.2758"/>
<polygon fill="#191970" stroke="#191970" points="342.9092,-77.0605 332.4097,-75.6427 339.7334,-83.2986 342.9092,-77.0605"/>
</g>
<!-- Node8 -->
<g id="node9" class="node">
<title>Node8</title>
<polygon fill="#ffffff" stroke="#bfbfbf" points="380.9687,-56.5 380.9687,-75.5 465.9687,-75.5 465.9687,-56.5 380.9687,-56.5"/>
<text text-anchor="middle" x="423.4687" y="-63.5" font-family="Helvetica,sans-Serif" font-size="10.00" fill="#000000">AMReX_Gpu.H</text>
</g>
<!-- Node1&#45;&gt;Node8 -->
<g id="edge8" class="edge">
<title>Node1&#45;&gt;Node8</title>
<path fill="none" stroke="#191970" d="M423.4687,-112.2455C423.4687,-104.9382 423.4687,-94.6944 423.4687,-85.7046"/>
<polygon fill="#191970" stroke="#191970" points="426.9688,-85.6426 423.4687,-75.6427 419.9688,-85.6427 426.9688,-85.6426"/>
</g>
<!-- Node1&#45;&gt;Node9 -->
<g id="edge9" class="edge">
<title>Node1&#45;&gt;Node9</title>
<path fill="none" stroke="#191970" d="M480.1843,-113.0026C541.7292,-103.2391 640.0655,-87.639 706.3967,-77.1162"/>
<polygon fill="#191970" stroke="#191970" points="707.0215,-80.561 716.3496,-75.5373 705.9247,-73.6474 707.0215,-80.561"/>
</g>
<!-- Node10 -->
<g id="node11" class="node">
<title>Node10</title>
<g id="a_node11"><a xlink:href="_field_desc_types_8_h.html" target="_top" xlink:title="amr&#45;wind/core/FieldDescTypes.H">
<polygon fill="#ffffff" stroke="#000000" points="621.9687,-.5 621.9687,-19.5 784.9687,-19.5 784.9687,-.5 621.9687,-.5"/>
<text text-anchor="middle" x="703.4687" y="-7.5" font-family="Helvetica,sans-Serif" font-size="10.00" fill="#000000">amr&#45;wind/core/FieldDescTypes.H</text>
</a>
</g>
</g>
<!-- Node1&#45;&gt;Node10 -->
<g id="edge10" class="edge">
<title>Node1&#45;&gt;Node10</title>
<path fill="none" stroke="#191970" d="M480.1142,-114.3265C536.0267,-106.0265 617.0148,-91.8388 644.4687,-76 664.5333,-64.4243 681.4227,-43.6019 691.9208,-28.4331"/>
<polygon fill="#191970" stroke="#191970" points="695,-30.1223 697.6027,-19.8521 689.1635,-26.2577 695,-30.1223"/>
</g>
<!-- Node11 -->
<g id="node12" class="node">
<title>Node11</title>
<g id="a_node12"><a xlink:href="_view_field_8_h.html" target="_top" xlink:title="amr&#45;wind/core/ViewField.H">
<polygon fill="#ffffff" stroke="#000000" points="484.4687,-56.5 484.4687,-75.5 618.4687,-75.5 618.4687,-56.5 484.4687,-56.5"/>
<text text-anchor="middle" x="551.4687" y="-63.5" font-family="Helvetica,sans-Serif" font-size="10.00" fill="#000000">amr&#45;wind/core/ViewField.H</text>
</a>
</g>
</g>
<!-- Node1&#45;&gt;Node11 -->
<g id="edge11" class="edge">
<title>Node1&#45;&gt;Node11</title>
<path fill="none" stroke="#191970" d="M445.4727,-112.3733C466.1122,-103.3435 497.1845,-89.7494 520.3576,-79.6111"/>
<polygon fill="#191970" stroke="#191970" points="521.9932,-82.7159 529.7519,-75.5011 519.1874,-76.3028 521.9932,-82.7159"/>
</g>
<!-- Node11&#45;&gt;Node2 -->
<g id="edge12" class="edge">
<title>Node11&#45;&gt;Node2</title>
<path fill="none" stroke="#191970" d="M486.0639,-56.4369C402.4495,-44.2113 261.0999,-23.544 199.1309,-14.4832"/>
<polygon fill="#191970" stroke="#191970" points="199.6006,-11.0148 189.1994,-13.0311 198.5878,-17.9411 199.6006,-11.0148"/>
</g>
<!-- Node11&#45;&gt;Node6 -->
<g id="edge14" class="edge">
<title>Node11&#45;&gt;Node6</title>
<path fill="none" stroke="#191970" d="M551.4687,-56.2455C551.4687,-48.9382 551.4687,-38.6944 551.4687,-29.7046"/>
<polygon fill="#191970" stroke="#191970" points="554.9688,-29.6426 551.4687,-19.6427 547.9688,-29.6427 554.9688,-29.6426"/>
</g>
<!-- Node11&#45;&gt;Node10 -->
<g id="edge13" class="edge">
<title>Node11&#45;&gt;Node10</title>
<path fill="none" stroke="#191970" d="M577.5985,-56.3733C602.5455,-47.1822 640.3279,-33.2624 667.9894,-23.0713"/>
<polygon fill="#191970" stroke="#191970" points="669.5065,-26.2424 677.68,-19.5011 667.0865,-19.674 669.5065,-26.2424"/>
</g>
<!-- Node12 -->
<g id="node13" class="node">
<title>Node12</title>
<polygon fill="#ffffff" stroke="#bfbfbf" points="385.9687,-.5 385.9687,-19.5 480.9687,-19.5 480.9687,-.5 385.9687,-.5"/>
<text text-anchor="middle" x="433.4687" y="-7.5" font-family="Helvetica,sans-Serif" font-size="10.00" fill="#000000">AMReX_Vector.H</text>
</g>
<!-- Node11&#45;&gt;Node12 -->
<g id="edge15" class="edge">
<title>Node11&#45;&gt;Node12</title>
<path fill="none" stroke="#191970" d="M531.1838,-56.3733C512.3267,-47.4241 484.0227,-33.9917 462.7232,-23.8835"/>
<polygon fill="#191970" stroke="#191970" points="464.0238,-20.6266 453.4889,-19.5011 461.0226,-26.9506 464.0238,-20.6266"/>
</g>
</g>
</svg>
