<?xml version="1.0" encoding="UTF-8" standalone="no"?>
<!DOCTYPE svg PUBLIC "-//W3C//DTD SVG 1.1//EN"
 "http://www.w3.org/Graphics/SVG/1.1/DTD/svg11.dtd">
<!-- Generated by graphviz version 2.40.1 (20161225.0304)
 -->
<!-- Title: BCOps.H Pages: 1 -->
<svg width="674pt" height="140pt"
 viewBox="0.00 0.00 673.50 140.00" xmlns="http://www.w3.org/2000/svg" xmlns:xlink="http://www.w3.org/1999/xlink">
<g id="graph0" class="graph" transform="scale(1 1) rotate(0) translate(4 136)">
<title>BCOps.H</title>
<polygon fill="#ffffff" stroke="transparent" points="-4,4 -4,-136 669.5,-136 669.5,4 -4,4"/>
<!-- Node50 -->
<g id="node1" class="node">
<title>Node50</title>
<polygon fill="#bfbfbf" stroke="#000000" points="305,-112.5 305,-131.5 364,-131.5 364,-112.5 305,-112.5"/>
<text text-anchor="middle" x="334.5" y="-119.5" font-family="Helvetica,sans-Serif" font-size="10.00" fill="#000000">BCOps.H</text>
</g>
<!-- Node51 -->
<g id="node2" class="node">
<title>Node51</title>
<g id="a_node2"><a xlink:href="density_8cpp.html" target="_top" xlink:title="density.cpp">
<polygon fill="#ffffff" stroke="#000000" points="0,-56.5 0,-75.5 67,-75.5 67,-56.5 0,-56.5"/>
<text text-anchor="middle" x="33.5" y="-63.5" font-family="Helvetica,sans-Serif" font-size="10.00" fill="#000000">density.cpp</text>
</a>
</g>
</g>
<!-- Node50&#45;&gt;Node51 -->
<g id="edge1" class="edge">
<title>Node50&#45;&gt;Node51</title>
<path fill="none" stroke="#191970" d="M295.1066,-115.6316C244.4004,-107.2843 153.6377,-91.8349 76.5,-76 73.4968,-75.3835 70.3823,-74.7155 67.2646,-74.0272"/>
<polygon fill="#191970" stroke="#191970" points="294.5641,-119.0893 304.9987,-117.2535 295.6968,-112.1816 294.5641,-119.0893"/>
</g>
<!-- Node52 -->
<g id="node3" class="node">
<title>Node52</title>
<g id="a_node3"><a xlink:href="icns__bcop_8_h.html" target="_top" xlink:title="icns_bcop.H">
<polygon fill="#ffffff" stroke="#000000" points="85,-56.5 85,-75.5 156,-75.5 156,-56.5 85,-56.5"/>
<text text-anchor="middle" x="120.5" y="-63.5" font-family="Helvetica,sans-Serif" font-size="10.00" fill="#000000">icns_bcop.H</text>
</a>
</g>
</g>
<!-- Node50&#45;&gt;Node52 -->
<g id="edge2" class="edge">
<title>Node50&#45;&gt;Node52</title>
<path fill="none" stroke="#191970" d="M294.8578,-111.6263C255.0672,-101.2138 194.3316,-85.3204 156.0554,-75.3042"/>
<polygon fill="#191970" stroke="#191970" points="294.1839,-115.0678 304.7442,-114.2134 295.956,-108.2958 294.1839,-115.0678"/>
</g>
<!-- Node54 -->
<g id="node5" class="node">
<title>Node54</title>
<g id="a_node5"><a xlink:href="levelset_8cpp.html" target="_top" xlink:title="levelset.cpp">
<polygon fill="#ffffff" stroke="#000000" points="174,-56.5 174,-75.5 243,-75.5 243,-56.5 174,-56.5"/>
<text text-anchor="middle" x="208.5" y="-63.5" font-family="Helvetica,sans-Serif" font-size="10.00" fill="#000000">levelset.cpp</text>
</a>
</g>
</g>
<!-- Node50&#45;&gt;Node54 -->
<g id="edge4" class="edge">
<title>Node50&#45;&gt;Node54</title>
<path fill="none" stroke="#191970" d="M303.5564,-108.2473C280.6735,-98.0771 250.0986,-84.4883 229.8775,-75.5011"/>
<polygon fill="#191970" stroke="#191970" points="302.2802,-111.5102 312.8398,-112.3733 305.1232,-105.1135 302.2802,-111.5102"/>
</g>
<!-- Node55 -->
<g id="node6" class="node">
<title>Node55</title>
<g id="a_node6"><a xlink:href="_s_d_r_8cpp.html" target="_top" xlink:title="SDR.cpp">
<polygon fill="#ffffff" stroke="#000000" points="261,-56.5 261,-75.5 318,-75.5 318,-56.5 261,-56.5"/>
<text text-anchor="middle" x="289.5" y="-63.5" font-family="Helvetica,sans-Serif" font-size="10.00" fill="#000000">SDR.cpp</text>
</a>
</g>
</g>
<!-- Node50&#45;&gt;Node55 -->
<g id="edge5" class="edge">
<title>Node50&#45;&gt;Node55</title>
<path fill="none" stroke="#191970" d="M320.2054,-104.2112C312.6004,-94.7472 303.5462,-83.4797 297.2486,-75.6427"/>
<polygon fill="#191970" stroke="#191970" points="317.6694,-106.6428 326.6616,-112.2455 323.1259,-102.2581 317.6694,-106.6428"/>
</g>
<!-- Node56 -->
<g id="node7" class="node">
<title>Node56</title>
<g id="a_node7"><a xlink:href="temperature_8cpp.html" target="_top" xlink:title="temperature.cpp">
<polygon fill="#ffffff" stroke="#000000" points="336,-56.5 336,-75.5 423,-75.5 423,-56.5 336,-56.5"/>
<text text-anchor="middle" x="379.5" y="-63.5" font-family="Helvetica,sans-Serif" font-size="10.00" fill="#000000">temperature.cpp</text>
</a>
</g>
</g>
<!-- Node50&#45;&gt;Node56 -->
<g id="edge6" class="edge">
<title>Node50&#45;&gt;Node56</title>
<path fill="none" stroke="#191970" d="M348.7946,-104.2112C356.3996,-94.7472 365.4538,-83.4797 371.7514,-75.6427"/>
<polygon fill="#191970" stroke="#191970" points="345.8741,-102.2581 342.3384,-112.2455 351.3306,-106.6428 345.8741,-102.2581"/>
</g>
<!-- Node57 -->
<g id="node8" class="node">
<title>Node57</title>
<g id="a_node8"><a xlink:href="_t_k_e_8cpp.html" target="_top" xlink:title="TKE.cpp">
<polygon fill="#ffffff" stroke="#000000" points="441,-56.5 441,-75.5 496,-75.5 496,-56.5 441,-56.5"/>
<text text-anchor="middle" x="468.5" y="-63.5" font-family="Helvetica,sans-Serif" font-size="10.00" fill="#000000">TKE.cpp</text>
</a>
</g>
</g>
<!-- Node50&#45;&gt;Node57 -->
<g id="edge7" class="edge">
<title>Node50&#45;&gt;Node57</title>
<path fill="none" stroke="#191970" d="M367.0828,-108.3833C391.4536,-98.1985 424.1642,-84.5284 445.7652,-75.5011"/>
<polygon fill="#191970" stroke="#191970" points="365.4125,-105.2879 357.5354,-112.3733 368.1117,-111.7466 365.4125,-105.2879"/>
</g>
<!-- Node58 -->
<g id="node9" class="node">
<title>Node58</title>
<g id="a_node9"><a xlink:href="vof_8cpp.html" target="_top" xlink:title="vof.cpp">
<polygon fill="#ffffff" stroke="#000000" points="514,-56.5 514,-75.5 563,-75.5 563,-56.5 514,-56.5"/>
<text text-anchor="middle" x="538.5" y="-63.5" font-family="Helvetica,sans-Serif" font-size="10.00" fill="#000000">vof.cpp</text>
</a>
</g>
</g>
<!-- Node50&#45;&gt;Node58 -->
<g id="edge8" class="edge">
<title>Node50&#45;&gt;Node58</title>
<path fill="none" stroke="#191970" d="M373.9927,-111.753C408.714,-102.6542 460.5726,-88.8466 505.5,-76 508.1476,-75.2429 510.9093,-74.4351 513.6585,-73.6191"/>
<polygon fill="#191970" stroke="#191970" points="373.0239,-108.3885 364.2345,-114.3044 374.7947,-115.1609 373.0239,-108.3885"/>
</g>
<!-- Node59 -->
<g id="node10" class="node">
<title>Node59</title>
<g id="a_node10"><a xlink:href="_multi_phase_8cpp.html" target="_top" xlink:title="MultiPhase.cpp">
<polygon fill="#ffffff" stroke="#000000" points="581.5,-56.5 581.5,-75.5 665.5,-75.5 665.5,-56.5 581.5,-56.5"/>
<text text-anchor="middle" x="623.5" y="-63.5" font-family="Helvetica,sans-Serif" font-size="10.00" fill="#000000">MultiPhase.cpp</text>
</a>
</g>
</g>
<!-- Node50&#45;&gt;Node59 -->
<g id="edge9" class="edge">
<title>Node50&#45;&gt;Node59</title>
<path fill="none" stroke="#191970" d="M374.0135,-114.3968C421.2387,-105.3018 502.6501,-89.5982 572.5,-76 575.4226,-75.431 578.4393,-74.8426 581.477,-74.2491"/>
<polygon fill="#191970" stroke="#191970" points="373.346,-110.9609 364.1882,-116.2886 374.6696,-117.8346 373.346,-110.9609"/>
</g>
<!-- Node53 -->
<g id="node4" class="node">
<title>Node53</title>
<g id="a_node4"><a xlink:href="icns_8cpp.html" target="_top" xlink:title="icns.cpp">
<polygon fill="#ffffff" stroke="#000000" points="94,-.5 94,-19.5 147,-19.5 147,-.5 94,-.5"/>
<text text-anchor="middle" x="120.5" y="-7.5" font-family="Helvetica,sans-Serif" font-size="10.00" fill="#000000">icns.cpp</text>
</a>
</g>
</g>
<!-- Node52&#45;&gt;Node53 -->
<g id="edge3" class="edge">
<title>Node52&#45;&gt;Node53</title>
<path fill="none" stroke="#191970" d="M120.5,-46.1575C120.5,-37.155 120.5,-26.9199 120.5,-19.6427"/>
<polygon fill="#191970" stroke="#191970" points="117.0001,-46.2455 120.5,-56.2455 124.0001,-46.2456 117.0001,-46.2455"/>
</g>
</g>
</svg>
