<?xml version="1.0" encoding="UTF-8" standalone="no"?>
<!DOCTYPE svg PUBLIC "-//W3C//DTD SVG 1.1//EN"
 "http://www.w3.org/Graphics/SVG/1.1/DTD/svg11.dtd">
<!-- Generated by graphviz version 2.40.1 (20161225.0304)
 -->
<!-- Title: BCInterface.cpp Pages: 1 -->
<svg width="1739pt" height="330pt"
 viewBox="0.00 0.00 1738.84 330.00" xmlns="http://www.w3.org/2000/svg" xmlns:xlink="http://www.w3.org/1999/xlink">
<g id="graph0" class="graph" transform="scale(1 1) rotate(0) translate(4 326)">
<title>BCInterface.cpp</title>
<polygon fill="#ffffff" stroke="transparent" points="-4,4 -4,-326 1734.8419,-326 1734.8419,4 -4,4"/>
<!-- Node0 -->
<g id="node1" class="node">
<title>Node0</title>
<polygon fill="#bfbfbf" stroke="#000000" points="1148.8419,-302.5 1148.8419,-321.5 1236.8419,-321.5 1236.8419,-302.5 1148.8419,-302.5"/>
<text text-anchor="middle" x="1192.8419" y="-309.5" font-family="Helvetica,sans-Serif" font-size="10.00" fill="#000000">BCInterface.cpp</text>
</g>
<!-- Node1 -->
<g id="node2" class="node">
<title>Node1</title>
<g id="a_node2"><a xlink:href="_b_c_interface_8_h.html" target="_top" xlink:title="amr&#45;wind/boundary_conditions\l/BCInterface.H">
<polygon fill="#ffffff" stroke="#000000" points="1450.3419,-168.5 1450.3419,-198.5 1599.3419,-198.5 1599.3419,-168.5 1450.3419,-168.5"/>
<text text-anchor="start" x="1458.3419" y="-186.5" font-family="Helvetica,sans-Serif" font-size="10.00" fill="#000000">amr&#45;wind/boundary_conditions</text>
<text text-anchor="middle" x="1524.8419" y="-175.5" font-family="Helvetica,sans-Serif" font-size="10.00" fill="#000000">/BCInterface.H</text>
</a>
</g>
</g>
<!-- Node0&#45;&gt;Node1 -->
<g id="edge1" class="edge">
<title>Node0&#45;&gt;Node1</title>
<path fill="none" stroke="#191970" d="M1198.6049,-302.385C1209.1201,-285.7499 1233.1007,-251.7743 1262.8419,-235 1292.6888,-218.166 1375.442,-203.5996 1440.0401,-194.2961"/>
<polygon fill="#191970" stroke="#191970" points="1440.8318,-197.7189 1450.2409,-192.8485 1439.8483,-190.7883 1440.8318,-197.7189"/>
</g>
<!-- Node16 -->
<g id="node17" class="node">
<title>Node16</title>
<g id="a_node17"><a xlink:href="_field_repo_8_h.html" target="_top" xlink:title="amr&#45;wind/core/FieldRepo.H">
<polygon fill="#ffffff" stroke="#000000" points="625.8419,-174 625.8419,-193 761.8419,-193 761.8419,-174 625.8419,-174"/>
<text text-anchor="middle" x="693.8419" y="-181" font-family="Helvetica,sans-Serif" font-size="10.00" fill="#000000">amr&#45;wind/core/FieldRepo.H</text>
</a>
</g>
</g>
<!-- Node0&#45;&gt;Node16 -->
<g id="edge20" class="edge">
<title>Node0&#45;&gt;Node16</title>
<path fill="none" stroke="#191970" d="M1155.7435,-302.4466C1066.4118,-279.4424 839.4722,-221.002 740.8248,-195.5988"/>
<polygon fill="#191970" stroke="#191970" points="741.4024,-192.1334 730.8454,-193.029 739.6566,-198.9123 741.4024,-192.1334"/>
</g>
<!-- Node24 -->
<g id="node25" class="node">
<title>Node24</title>
<g id="a_node25"><a xlink:href="_fixed_gradient_b_c_8_h.html" target="_top" xlink:title="amr&#45;wind/boundary_conditions\l/FixedGradientBC.H">
<polygon fill="#ffffff" stroke="#000000" points="1067.3419,-235.5 1067.3419,-265.5 1216.3419,-265.5 1216.3419,-235.5 1067.3419,-235.5"/>
<text text-anchor="start" x="1075.3419" y="-253.5" font-family="Helvetica,sans-Serif" font-size="10.00" fill="#000000">amr&#45;wind/boundary_conditions</text>
<text text-anchor="middle" x="1141.8419" y="-242.5" font-family="Helvetica,sans-Serif" font-size="10.00" fill="#000000">/FixedGradientBC.H</text>
</a>
</g>
</g>
<!-- Node0&#45;&gt;Node24 -->
<g id="edge43" class="edge">
<title>Node0&#45;&gt;Node24</title>
<path fill="none" stroke="#191970" d="M1184.8731,-302.3906C1178.4183,-294.6068 1169.0586,-283.3202 1160.7158,-273.2597"/>
<polygon fill="#191970" stroke="#191970" points="1163.3954,-271.008 1154.3179,-265.5446 1158.0071,-275.4764 1163.3954,-271.008"/>
</g>
<!-- Node29 -->
<g id="node30" class="node">
<title>Node29</title>
<polygon fill="#ffffff" stroke="#bfbfbf" points="1271.8419,-241 1271.8419,-260 1387.8419,-260 1387.8419,-241 1271.8419,-241"/>
<text text-anchor="middle" x="1329.8419" y="-248" font-family="Helvetica,sans-Serif" font-size="10.00" fill="#000000">AMReX_ParmParse.H</text>
</g>
<!-- Node0&#45;&gt;Node29 -->
<g id="edge53" class="edge">
<title>Node0&#45;&gt;Node29</title>
<path fill="none" stroke="#191970" d="M1214.2481,-302.3906C1237.0702,-292.1457 1273.4098,-275.8326 1299.2476,-264.2339"/>
<polygon fill="#191970" stroke="#191970" points="1300.8964,-267.3303 1308.5859,-260.0419 1298.0296,-260.9443 1300.8964,-267.3303"/>
</g>
<!-- Node2 -->
<g id="node3" class="node">
<title>Node2</title>
<g id="a_node3"><a xlink:href="_field_8_h.html" target="_top" xlink:title="amr&#45;wind/core/Field.H">
<polygon fill="#ffffff" stroke="#000000" points="1085.3419,-112.5 1085.3419,-131.5 1198.3419,-131.5 1198.3419,-112.5 1085.3419,-112.5"/>
<text text-anchor="middle" x="1141.8419" y="-119.5" font-family="Helvetica,sans-Serif" font-size="10.00" fill="#000000">amr&#45;wind/core/Field.H</text>
</a>
</g>
</g>
<!-- Node1&#45;&gt;Node2 -->
<g id="edge2" class="edge">
<title>Node1&#45;&gt;Node2</title>
<path fill="none" stroke="#191970" d="M1450.0864,-171.4962C1379.8912,-160.2246 1275.8543,-143.519 1208.4423,-132.6943"/>
<polygon fill="#191970" stroke="#191970" points="1208.7881,-129.2051 1198.3597,-131.0753 1207.6783,-136.1166 1208.7881,-129.2051"/>
</g>
<!-- Node10 -->
<g id="node11" class="node">
<title>Node10</title>
<g id="a_node11"><a xlink:href="incflo__enums_8_h.html" target="_top" xlink:title="amr&#45;wind/incflo_enums.H">
<polygon fill="#ffffff" stroke="#000000" points="1512.8419,-56.5 1512.8419,-75.5 1640.8419,-75.5 1640.8419,-56.5 1512.8419,-56.5"/>
<text text-anchor="middle" x="1576.8419" y="-63.5" font-family="Helvetica,sans-Serif" font-size="10.00" fill="#000000">amr&#45;wind/incflo_enums.H</text>
</a>
</g>
</g>
<!-- Node1&#45;&gt;Node10 -->
<g id="edge17" class="edge">
<title>Node1&#45;&gt;Node10</title>
<path fill="none" stroke="#191970" d="M1527.518,-168.4688C1530.5076,-153.6316 1536.1073,-130.5401 1544.8419,-112 1549.5309,-102.047 1556.3222,-91.9104 1562.4432,-83.6949"/>
<polygon fill="#191970" stroke="#191970" points="1565.3313,-85.682 1568.6908,-75.6338 1559.7984,-81.3938 1565.3313,-85.682"/>
</g>
<!-- Node14 -->
<g id="node15" class="node">
<title>Node14</title>
<polygon fill="#ffffff" stroke="#bfbfbf" points="1553.3419,-112.5 1553.3419,-131.5 1672.3419,-131.5 1672.3419,-112.5 1553.3419,-112.5"/>
<text text-anchor="middle" x="1612.8419" y="-119.5" font-family="Helvetica,sans-Serif" font-size="10.00" fill="#000000">AMReX_BC_TYPES.H</text>
</g>
<!-- Node1&#45;&gt;Node14 -->
<g id="edge18" class="edge">
<title>Node1&#45;&gt;Node14</title>
<path fill="none" stroke="#191970" d="M1546.5947,-168.2977C1560.0387,-158.9022 1577.243,-146.8787 1590.7496,-137.4395"/>
<polygon fill="#191970" stroke="#191970" points="1592.823,-140.2605 1599.0148,-131.6633 1588.8131,-134.5228 1592.823,-140.2605"/>
</g>
<!-- Node15 -->
<g id="node16" class="node">
<title>Node15</title>
<polygon fill="#ffffff" stroke="#bfbfbf" points="1690.8419,-112.5 1690.8419,-131.5 1730.8419,-131.5 1730.8419,-112.5 1690.8419,-112.5"/>
<text text-anchor="middle" x="1710.8419" y="-119.5" font-family="Helvetica,sans-Serif" font-size="10.00" fill="#000000">utility</text>
</g>
<!-- Node1&#45;&gt;Node15 -->
<g id="edge19" class="edge">
<title>Node1&#45;&gt;Node15</title>
<path fill="none" stroke="#191970" d="M1571.2736,-168.4725C1600.3582,-159.013 1638.8528,-146.4093 1680.9604,-132.2671"/>
<polygon fill="#191970" stroke="#191970" points="1682.2119,-135.5389 1690.5737,-129.0326 1679.9796,-128.9043 1682.2119,-135.5389"/>
</g>
<!-- Node3 -->
<g id="node4" class="node">
<title>Node3</title>
<polygon fill="#ffffff" stroke="#bfbfbf" points="204.3419,-.5 204.3419,-19.5 245.3419,-19.5 245.3419,-.5 204.3419,-.5"/>
<text text-anchor="middle" x="224.8419" y="-7.5" font-family="Helvetica,sans-Serif" font-size="10.00" fill="#000000">string</text>
</g>
<!-- Node2&#45;&gt;Node3 -->
<g id="edge3" class="edge">
<title>Node2&#45;&gt;Node3</title>
<path fill="none" stroke="#191970" d="M1085.0635,-120.8822C949.8931,-117.7433 612.2244,-106.9579 503.8419,-76 485.4906,-70.7582 483.8565,-62.3024 465.8419,-56 392.7327,-30.4228 301.8923,-17.9724 255.3947,-12.9052"/>
<polygon fill="#191970" stroke="#191970" points="255.6761,-9.4156 245.3654,-11.8528 254.9455,-16.3774 255.6761,-9.4156"/>
</g>
<!-- Node4 -->
<g id="node5" class="node">
<title>Node4</title>
<polygon fill="#ffffff" stroke="#bfbfbf" points="1264.8419,-56.5 1264.8419,-75.5 1316.8419,-75.5 1316.8419,-56.5 1264.8419,-56.5"/>
<text text-anchor="middle" x="1290.8419" y="-63.5" font-family="Helvetica,sans-Serif" font-size="10.00" fill="#000000">memory</text>
</g>
<!-- Node2&#45;&gt;Node4 -->
<g id="edge4" class="edge">
<title>Node2&#45;&gt;Node4</title>
<path fill="none" stroke="#191970" d="M1167.4559,-112.3733C1191.9106,-103.1822 1228.9473,-89.2624 1256.0628,-79.0713"/>
<polygon fill="#191970" stroke="#191970" points="1257.4328,-82.2956 1265.5621,-75.5011 1254.97,-75.7431 1257.4328,-82.2956"/>
</g>
<!-- Node5 -->
<g id="node6" class="node">
<title>Node5</title>
<polygon fill="#ffffff" stroke="#bfbfbf" points="779.3419,-56.5 779.3419,-75.5 862.3419,-75.5 862.3419,-56.5 779.3419,-56.5"/>
<text text-anchor="middle" x="820.8419" y="-63.5" font-family="Helvetica,sans-Serif" font-size="10.00" fill="#000000">unordered_map</text>
</g>
<!-- Node2&#45;&gt;Node5 -->
<g id="edge5" class="edge">
<title>Node2&#45;&gt;Node5</title>
<path fill="none" stroke="#191970" d="M1086.5053,-112.4746C1032.8853,-103.2257 949.2722,-88.7533 876.8419,-76 875.3829,-75.7431 873.9027,-75.482 872.4086,-75.218"/>
<polygon fill="#191970" stroke="#191970" points="872.8851,-71.748 862.4278,-73.4491 871.6635,-78.6406 872.8851,-71.748"/>
</g>
<!-- Node6 -->
<g id="node7" class="node">
<title>Node6</title>
<polygon fill="#ffffff" stroke="#bfbfbf" points="1334.8419,-56.5 1334.8419,-75.5 1390.8419,-75.5 1390.8419,-56.5 1334.8419,-56.5"/>
<text text-anchor="middle" x="1362.8419" y="-63.5" font-family="Helvetica,sans-Serif" font-size="10.00" fill="#000000">algorithm</text>
</g>
<!-- Node2&#45;&gt;Node6 -->
<g id="edge6" class="edge">
<title>Node2&#45;&gt;Node6</title>
<path fill="none" stroke="#191970" d="M1181.0211,-112.4337C1216.1972,-103.7939 1269.5032,-90.576 1324.6291,-76.2841"/>
<polygon fill="#191970" stroke="#191970" points="1325.7769,-79.6022 1334.5748,-73.699 1324.0159,-72.8273 1325.7769,-79.6022"/>
</g>
<!-- Node7 -->
<g id="node8" class="node">
<title>Node7</title>
<polygon fill="#ffffff" stroke="#bfbfbf" points="869.8419,-.5 869.8419,-19.5 973.8419,-19.5 973.8419,-.5 869.8419,-.5"/>
<text text-anchor="middle" x="921.8419" y="-7.5" font-family="Helvetica,sans-Serif" font-size="10.00" fill="#000000">AMReX_MultiFab.H</text>
</g>
<!-- Node2&#45;&gt;Node7 -->
<g id="edge7" class="edge">
<title>Node2&#45;&gt;Node7</title>
<path fill="none" stroke="#191970" d="M1137.6058,-112.2989C1130.7631,-97.7881 1115.8856,-70.5808 1094.8419,-56 1076.5726,-43.3416 1024.7125,-30.4684 982.5008,-21.572"/>
<polygon fill="#191970" stroke="#191970" points="983.0591,-18.1134 972.5569,-19.5112 981.6385,-24.9677 983.0591,-18.1134"/>
</g>
<!-- Node8 -->
<g id="node9" class="node">
<title>Node8</title>
<polygon fill="#ffffff" stroke="#bfbfbf" points="1147.3419,-56.5 1147.3419,-75.5 1246.3419,-75.5 1246.3419,-56.5 1147.3419,-56.5"/>
<text text-anchor="middle" x="1196.8419" y="-63.5" font-family="Helvetica,sans-Serif" font-size="10.00" fill="#000000">AMReX_BCRec.H</text>
</g>
<!-- Node2&#45;&gt;Node8 -->
<g id="edge8" class="edge">
<title>Node2&#45;&gt;Node8</title>
<path fill="none" stroke="#191970" d="M1151.4221,-112.2455C1159.3876,-104.1352 1170.9059,-92.4075 1180.3498,-82.7919"/>
<polygon fill="#191970" stroke="#191970" points="1182.8614,-85.2297 1187.3714,-75.6427 1177.8672,-80.3247 1182.8614,-85.2297"/>
</g>
<!-- Node9 -->
<g id="node10" class="node">
<title>Node9</title>
<polygon fill="#ffffff" stroke="#bfbfbf" points="1409.3419,-56.5 1409.3419,-75.5 1494.3419,-75.5 1494.3419,-56.5 1409.3419,-56.5"/>
<text text-anchor="middle" x="1451.8419" y="-63.5" font-family="Helvetica,sans-Serif" font-size="10.00" fill="#000000">AMReX_Gpu.H</text>
</g>
<!-- Node2&#45;&gt;Node9 -->
<g id="edge9" class="edge">
<title>Node2&#45;&gt;Node9</title>
<path fill="none" stroke="#191970" d="M1196.7403,-112.4339C1246.7522,-103.6691 1322.9355,-90.1925 1399.0362,-76.1302"/>
<polygon fill="#191970" stroke="#191970" points="1400.0879,-79.495 1409.2836,-74.2329 1398.8135,-72.612 1400.0879,-79.495"/>
</g>
<!-- Node2&#45;&gt;Node10 -->
<g id="edge10" class="edge">
<title>Node2&#45;&gt;Node10</title>
<path fill="none" stroke="#191970" d="M1198.6076,-114.9603C1267.8832,-106.3304 1388.8733,-91.1333 1502.8097,-76.1268"/>
<polygon fill="#191970" stroke="#191970" points="1503.2961,-79.593 1512.7525,-74.8153 1502.3807,-72.6531 1503.2961,-79.593"/>
</g>
<!-- Node11 -->
<g id="node12" class="node">
<title>Node11</title>
<g id="a_node12"><a xlink:href="_field_desc_types_8_h.html" target="_top" xlink:title="amr&#45;wind/core/FieldDescTypes.H">
<polygon fill="#ffffff" stroke="#000000" points="593.3419,-.5 593.3419,-19.5 756.3419,-19.5 756.3419,-.5 593.3419,-.5"/>
<text text-anchor="middle" x="674.8419" y="-7.5" font-family="Helvetica,sans-Serif" font-size="10.00" fill="#000000">amr&#45;wind/core/FieldDescTypes.H</text>
</a>
</g>
</g>
<!-- Node2&#45;&gt;Node11 -->
<g id="edge11" class="edge">
<title>Node2&#45;&gt;Node11</title>
<path fill="none" stroke="#191970" d="M1085.1428,-115.182C1037.6551,-108.4204 968.5723,-96.1106 910.8419,-76 892.4464,-69.5919 890.1297,-62.7092 871.8419,-56 829.7697,-40.5651 780.6966,-29.0888 742.0535,-21.4594"/>
<polygon fill="#191970" stroke="#191970" points="742.4389,-17.9691 731.9562,-19.5061 741.1094,-24.8417 742.4389,-17.9691"/>
</g>
<!-- Node12 -->
<g id="node13" class="node">
<title>Node12</title>
<g id="a_node13"><a xlink:href="_view_field_8_h.html" target="_top" xlink:title="amr&#45;wind/core/ViewField.H">
<polygon fill="#ffffff" stroke="#000000" points="512.8419,-56.5 512.8419,-75.5 646.8419,-75.5 646.8419,-56.5 512.8419,-56.5"/>
<text text-anchor="middle" x="579.8419" y="-63.5" font-family="Helvetica,sans-Serif" font-size="10.00" fill="#000000">amr&#45;wind/core/ViewField.H</text>
</a>
</g>
</g>
<!-- Node2&#45;&gt;Node12 -->
<g id="edge12" class="edge">
<title>Node2&#45;&gt;Node12</title>
<path fill="none" stroke="#191970" d="M1085.122,-116.3482C983.8052,-106.2526 771.6382,-85.1114 657.108,-73.6991"/>
<polygon fill="#191970" stroke="#191970" points="657.3084,-70.2018 647.0106,-72.693 656.6143,-77.1673 657.3084,-70.2018"/>
</g>
<!-- Node12&#45;&gt;Node3 -->
<g id="edge13" class="edge">
<title>Node12&#45;&gt;Node3</title>
<path fill="none" stroke="#191970" d="M519.2186,-56.4369C442.783,-44.3794 314.295,-24.1109 255.6739,-14.8636"/>
<polygon fill="#191970" stroke="#191970" points="255.9927,-11.3707 245.5694,-13.2697 254.9019,-18.2852 255.9927,-11.3707"/>
</g>
<!-- Node12&#45;&gt;Node7 -->
<g id="edge15" class="edge">
<title>Node12&#45;&gt;Node7</title>
<path fill="none" stroke="#191970" d="M638.2452,-56.4369C699.8704,-46.3462 796.6168,-30.5047 859.6404,-20.185"/>
<polygon fill="#191970" stroke="#191970" points="860.5376,-23.5848 869.8406,-18.5148 859.4064,-16.6768 860.5376,-23.5848"/>
</g>
<!-- Node12&#45;&gt;Node11 -->
<g id="edge14" class="edge">
<title>Node12&#45;&gt;Node11</title>
<path fill="none" stroke="#191970" d="M596.3896,-56.2455C611.1018,-47.5731 632.8307,-34.7645 649.6924,-24.825"/>
<polygon fill="#191970" stroke="#191970" points="651.6464,-27.736 658.4838,-19.6427 648.0917,-21.7057 651.6464,-27.736"/>
</g>
<!-- Node13 -->
<g id="node14" class="node">
<title>Node13</title>
<polygon fill="#ffffff" stroke="#bfbfbf" points="372.3419,-.5 372.3419,-19.5 467.3419,-19.5 467.3419,-.5 372.3419,-.5"/>
<text text-anchor="middle" x="419.8419" y="-7.5" font-family="Helvetica,sans-Serif" font-size="10.00" fill="#000000">AMReX_Vector.H</text>
</g>
<!-- Node12&#45;&gt;Node13 -->
<g id="edge16" class="edge">
<title>Node12&#45;&gt;Node13</title>
<path fill="none" stroke="#191970" d="M552.3369,-56.3733C525.9617,-47.1419 485.9567,-33.1402 456.8061,-22.9375"/>
<polygon fill="#191970" stroke="#191970" points="457.5828,-19.5012 446.9879,-19.5011 455.2703,-26.1082 457.5828,-19.5012"/>
</g>
<!-- Node16&#45;&gt;Node2 -->
<g id="edge28" class="edge">
<title>Node16&#45;&gt;Node2</title>
<path fill="none" stroke="#191970" d="M761.9596,-174.2815C837.4728,-164.042 962.878,-146.9772 1070.8419,-132 1072.3061,-131.7969 1073.7872,-131.5911 1075.2805,-131.3833"/>
<polygon fill="#191970" stroke="#191970" points="1075.8432,-134.8388 1085.2636,-129.9904 1074.8758,-127.906 1075.8432,-134.8388"/>
</g>
<!-- Node16&#45;&gt;Node3 -->
<g id="edge21" class="edge">
<title>Node16&#45;&gt;Node3</title>
<path fill="none" stroke="#191970" d="M625.6829,-182.081C488.4763,-178.5162 183.7124,-166.823 85.8419,-132 44.2631,-117.206 24.4483,-115.026 3.8419,-76 -.3086,-68.1396 -1.7667,-62.8961 3.8419,-56 27.4876,-26.9257 139.1465,-15.6193 194.1175,-11.7598"/>
<polygon fill="#191970" stroke="#191970" points="194.5663,-15.2378 204.313,-11.0841 194.1034,-8.2531 194.5663,-15.2378"/>
</g>
<!-- Node16&#45;&gt;Node5 -->
<g id="edge22" class="edge">
<title>Node16&#45;&gt;Node5</title>
<path fill="none" stroke="#191970" d="M704.2348,-173.8845C725.817,-153.9167 775.7239,-107.743 802.7196,-82.7667"/>
<polygon fill="#191970" stroke="#191970" points="805.342,-85.1087 810.3053,-75.7484 800.5881,-79.9705 805.342,-85.1087"/>
</g>
<!-- Node16&#45;&gt;Node7 -->
<g id="edge41" class="edge">
<title>Node16&#45;&gt;Node7</title>
<path fill="none" stroke="#191970" d="M758.8113,-173.9579C854.3698,-158.4444 1025.4609,-124.5291 1061.8419,-76 1067.1737,-68.8878 1067.0548,-63.1999 1061.8419,-56 1051.7708,-42.0901 1013.7621,-30.119 979.8867,-21.8785"/>
<polygon fill="#191970" stroke="#191970" points="980.5429,-18.4373 970.0066,-19.549 978.9365,-25.2505 980.5429,-18.4373"/>
</g>
<!-- Node16&#45;&gt;Node11 -->
<g id="edge23" class="edge">
<title>Node16&#45;&gt;Node11</title>
<path fill="none" stroke="#191970" d="M692.7933,-173.9248C689.7899,-146.499 681.1094,-67.232 677.0207,-29.8964"/>
<polygon fill="#191970" stroke="#191970" points="680.4785,-29.3191 675.9106,-19.7595 673.5201,-30.0811 680.4785,-29.3191"/>
</g>
<!-- Node17 -->
<g id="node18" class="node">
<title>Node17</title>
<g id="a_node18"><a xlink:href="_field_utils_8_h.html" target="_top" xlink:title="amr&#45;wind/core/FieldUtils.H">
<polygon fill="#ffffff" stroke="#000000" points="919.3419,-56.5 919.3419,-75.5 1052.3419,-75.5 1052.3419,-56.5 919.3419,-56.5"/>
<text text-anchor="middle" x="985.8419" y="-63.5" font-family="Helvetica,sans-Serif" font-size="10.00" fill="#000000">amr&#45;wind/core/FieldUtils.H</text>
</a>
</g>
</g>
<!-- Node16&#45;&gt;Node17 -->
<g id="edge24" class="edge">
<title>Node16&#45;&gt;Node17</title>
<path fill="none" stroke="#191970" d="M717.7375,-173.8845C769.7343,-152.9611 893.2384,-103.2634 952.7117,-79.3315"/>
<polygon fill="#191970" stroke="#191970" points="954.0552,-82.5637 962.0256,-75.5836 951.442,-76.0697 954.0552,-82.5637"/>
</g>
<!-- Node19 -->
<g id="node20" class="node">
<title>Node19</title>
<g id="a_node20"><a xlink:href="_int_field_8_h.html" target="_top" xlink:title="amr&#45;wind/core/IntField.H">
<polygon fill="#ffffff" stroke="#000000" points="117.8419,-112.5 117.8419,-131.5 241.8419,-131.5 241.8419,-112.5 117.8419,-112.5"/>
<text text-anchor="middle" x="179.8419" y="-119.5" font-family="Helvetica,sans-Serif" font-size="10.00" fill="#000000">amr&#45;wind/core/IntField.H</text>
</a>
</g>
</g>
<!-- Node16&#45;&gt;Node19 -->
<g id="edge29" class="edge">
<title>Node16&#45;&gt;Node19</title>
<path fill="none" stroke="#191970" d="M625.5866,-175.3333C528.4291,-163.7084 351.0635,-142.4866 251.8746,-130.6187"/>
<polygon fill="#191970" stroke="#191970" points="252.2832,-127.1427 241.9382,-129.4298 251.4515,-134.0931 252.2832,-127.1427"/>
</g>
<!-- Node20 -->
<g id="node21" class="node">
<title>Node20</title>
<polygon fill="#ffffff" stroke="#bfbfbf" points="13.3419,-56.5 13.3419,-75.5 120.3419,-75.5 120.3419,-56.5 13.3419,-56.5"/>
<text text-anchor="middle" x="66.8419" y="-63.5" font-family="Helvetica,sans-Serif" font-size="10.00" fill="#000000">AMReX_iMultiFab.H</text>
</g>
<!-- Node16&#45;&gt;Node20 -->
<g id="edge42" class="edge">
<title>Node16&#45;&gt;Node20</title>
<path fill="none" stroke="#191970" d="M625.6528,-180.8716C480.8128,-174.8059 152.1372,-158.3032 108.8419,-132 91.4887,-121.4575 80.0799,-100.7198 73.5908,-85.29"/>
<polygon fill="#191970" stroke="#191970" points="76.7355,-83.7171 69.8716,-75.6463 70.2044,-86.2359 76.7355,-83.7171"/>
</g>
<!-- Node21 -->
<g id="node22" class="node">
<title>Node21</title>
<g id="a_node22"><a xlink:href="_scratch_field_8_h.html" target="_top" xlink:title="amr&#45;wind/core/ScratchField.H">
<polygon fill="#ffffff" stroke="#000000" points="319.8419,-112.5 319.8419,-131.5 465.8419,-131.5 465.8419,-112.5 319.8419,-112.5"/>
<text text-anchor="middle" x="392.8419" y="-119.5" font-family="Helvetica,sans-Serif" font-size="10.00" fill="#000000">amr&#45;wind/core/ScratchField.H</text>
</a>
</g>
</g>
<!-- Node16&#45;&gt;Node21 -->
<g id="edge33" class="edge">
<title>Node16&#45;&gt;Node21</title>
<path fill="none" stroke="#191970" d="M647.1409,-173.9581C593.866,-163.073 506.7574,-145.2751 449.6085,-133.5985"/>
<polygon fill="#191970" stroke="#191970" points="450.1507,-130.137 439.6524,-131.5643 448.7494,-136.9953 450.1507,-130.137"/>
</g>
<!-- Node23 -->
<g id="node24" class="node">
<title>Node23</title>
<polygon fill="#ffffff" stroke="#bfbfbf" points="540.8419,-112.5 540.8419,-131.5 646.8419,-131.5 646.8419,-112.5 540.8419,-112.5"/>
<text text-anchor="middle" x="593.8419" y="-119.5" font-family="Helvetica,sans-Serif" font-size="10.00" fill="#000000">AMReX_AmrCore.H</text>
</g>
<!-- Node16&#45;&gt;Node23 -->
<g id="edge40" class="edge">
<title>Node16&#45;&gt;Node23</title>
<path fill="none" stroke="#191970" d="M678.2169,-173.8906C662.0721,-163.9616 636.6597,-148.333 617.9395,-136.8201"/>
<polygon fill="#191970" stroke="#191970" points="619.7087,-133.7992 609.3572,-131.5419 616.0417,-139.7619 619.7087,-133.7992"/>
</g>
<!-- Node17&#45;&gt;Node7 -->
<g id="edge26" class="edge">
<title>Node17&#45;&gt;Node7</title>
<path fill="none" stroke="#191970" d="M974.6939,-56.2455C965.3332,-48.0549 951.7561,-36.1749 940.7069,-26.5069"/>
<polygon fill="#191970" stroke="#191970" points="942.6926,-23.5937 932.8621,-19.6427 938.0831,-28.8618 942.6926,-23.5937"/>
</g>
<!-- Node17&#45;&gt;Node11 -->
<g id="edge25" class="edge">
<title>Node17&#45;&gt;Node11</title>
<path fill="none" stroke="#191970" d="M932.7324,-56.4369C878.7245,-46.712 795.0523,-31.6456 737.7554,-21.3285"/>
<polygon fill="#191970" stroke="#191970" points="738.1943,-17.8513 727.7323,-19.5237 736.9537,-24.7405 738.1943,-17.8513"/>
</g>
<!-- Node18 -->
<g id="node19" class="node">
<title>Node18</title>
<polygon fill="#ffffff" stroke="#bfbfbf" points="991.8419,-.5 991.8419,-19.5 1107.8419,-19.5 1107.8419,-.5 991.8419,-.5"/>
<text text-anchor="middle" x="1049.8419" y="-7.5" font-family="Helvetica,sans-Serif" font-size="10.00" fill="#000000">AMReX_Interpolater.H</text>
</g>
<!-- Node17&#45;&gt;Node18 -->
<g id="edge27" class="edge">
<title>Node17&#45;&gt;Node18</title>
<path fill="none" stroke="#191970" d="M996.9898,-56.2455C1006.3505,-48.0549 1019.9277,-36.1749 1030.9768,-26.5069"/>
<polygon fill="#191970" stroke="#191970" points="1033.6007,-28.8618 1038.8217,-19.6427 1028.9911,-23.5937 1033.6007,-28.8618"/>
</g>
<!-- Node19&#45;&gt;Node3 -->
<g id="edge30" class="edge">
<title>Node19&#45;&gt;Node3</title>
<path fill="none" stroke="#191970" d="M175.778,-112.1094C170.9443,-98.7516 164.512,-74.4901 172.8419,-56 178.4115,-43.6369 189.1282,-33.2563 199.3925,-25.5033"/>
<polygon fill="#191970" stroke="#191970" points="201.6037,-28.2277 207.7852,-19.623 197.587,-22.4948 201.6037,-28.2277"/>
</g>
<!-- Node19&#45;&gt;Node11 -->
<g id="edge31" class="edge">
<title>Node19&#45;&gt;Node11</title>
<path fill="none" stroke="#191970" d="M194.8498,-112.2789C218.4795,-97.4841 266.2678,-69.6031 310.8419,-56 360.0948,-40.969 492.3366,-26.575 583.0885,-18.0094"/>
<polygon fill="#191970" stroke="#191970" points="583.483,-21.4879 593.1132,-17.071 582.8305,-14.5184 583.483,-21.4879"/>
</g>
<!-- Node19&#45;&gt;Node20 -->
<g id="edge32" class="edge">
<title>Node19&#45;&gt;Node20</title>
<path fill="none" stroke="#191970" d="M160.4165,-112.3733C142.4397,-103.4644 115.4978,-90.1127 95.1328,-80.0203"/>
<polygon fill="#191970" stroke="#191970" points="96.528,-76.8055 86.0138,-75.5011 93.4197,-83.0776 96.528,-76.8055"/>
</g>
<!-- Node21&#45;&gt;Node3 -->
<g id="edge34" class="edge">
<title>Node21&#45;&gt;Node3</title>
<path fill="none" stroke="#191970" d="M356.59,-112.4918C332.9341,-105.1081 302.2215,-93.2008 278.8419,-76 261.2337,-63.0453 245.9731,-43.078 236.2098,-28.4973"/>
<polygon fill="#191970" stroke="#191970" points="238.9776,-26.3309 230.6184,-19.8213 233.0937,-30.123 238.9776,-26.3309"/>
</g>
<!-- Node21&#45;&gt;Node7 -->
<g id="edge37" class="edge">
<title>Node21&#45;&gt;Node7</title>
<path fill="none" stroke="#191970" d="M454.4532,-112.4758C507.9015,-103.9153 587.2469,-90.4901 655.8419,-76 734.1272,-59.4629 824.3417,-36.173 877.0335,-22.1375"/>
<polygon fill="#191970" stroke="#191970" points="877.9832,-25.5067 886.7405,-19.5434 876.1759,-18.744 877.9832,-25.5067"/>
</g>
<!-- Node21&#45;&gt;Node11 -->
<g id="edge35" class="edge">
<title>Node21&#45;&gt;Node11</title>
<path fill="none" stroke="#191970" d="M368.1551,-112.4755C340.0648,-100.2799 300.4431,-78.0746 319.8419,-56 337.0205,-36.4518 483.6922,-22.7917 583.0517,-15.683"/>
<polygon fill="#191970" stroke="#191970" points="583.385,-19.1683 593.1141,-14.9738 582.8928,-12.1856 583.385,-19.1683"/>
</g>
<!-- Node21&#45;&gt;Node12 -->
<g id="edge36" class="edge">
<title>Node21&#45;&gt;Node12</title>
<path fill="none" stroke="#191970" d="M424.9883,-112.3733C456.3528,-102.9807 504.2084,-88.6496 538.4135,-78.4064"/>
<polygon fill="#191970" stroke="#191970" points="539.5393,-81.7229 548.1149,-75.5011 537.5311,-75.0171 539.5393,-81.7229"/>
</g>
<!-- Node21&#45;&gt;Node13 -->
<g id="edge38" class="edge">
<title>Node21&#45;&gt;Node13</title>
<path fill="none" stroke="#191970" d="M348.6866,-112.4606C311.4382,-102.2649 267.0966,-83.7221 286.8419,-56 296.4438,-42.519 333.1344,-30.4231 365.5517,-22.0221"/>
<polygon fill="#191970" stroke="#191970" points="366.5955,-25.3687 375.4403,-19.5361 364.8887,-18.5799 366.5955,-25.3687"/>
</g>
<!-- Node22 -->
<g id="node23" class="node">
<title>Node22</title>
<polygon fill="#ffffff" stroke="#bfbfbf" points="328.8419,-56.5 328.8419,-75.5 456.8419,-75.5 456.8419,-56.5 328.8419,-56.5"/>
<text text-anchor="middle" x="392.8419" y="-63.5" font-family="Helvetica,sans-Serif" font-size="10.00" fill="#000000">AMReX_PhysBCFunct.H</text>
</g>
<!-- Node21&#45;&gt;Node22 -->
<g id="edge39" class="edge">
<title>Node21&#45;&gt;Node22</title>
<path fill="none" stroke="#191970" d="M392.8419,-112.2455C392.8419,-104.9382 392.8419,-94.6944 392.8419,-85.7046"/>
<polygon fill="#191970" stroke="#191970" points="396.342,-85.6426 392.8419,-75.6427 389.342,-85.6427 396.342,-85.6426"/>
</g>
<!-- Node24&#45;&gt;Node16 -->
<g id="edge51" class="edge">
<title>Node24&#45;&gt;Node16</title>
<path fill="none" stroke="#191970" d="M1067.109,-239.3234C983.9428,-226.8856 850.3962,-206.9133 767.6186,-194.5336"/>
<polygon fill="#191970" stroke="#191970" points="767.9409,-191.0429 757.5332,-193.0253 766.9055,-197.9659 767.9409,-191.0429"/>
</g>
<!-- Node25 -->
<g id="node26" class="node">
<title>Node25</title>
<g id="a_node26"><a xlink:href="_field_b_c_ops_8_h.html" target="_top" xlink:title="amr&#45;wind/core/FieldBCOps.H">
<polygon fill="#ffffff" stroke="#000000" points="1069.3419,-174 1069.3419,-193 1214.3419,-193 1214.3419,-174 1069.3419,-174"/>
<text text-anchor="middle" x="1141.8419" y="-181" font-family="Helvetica,sans-Serif" font-size="10.00" fill="#000000">amr&#45;wind/core/FieldBCOps.H</text>
</a>
</g>
</g>
<!-- Node24&#45;&gt;Node25 -->
<g id="edge44" class="edge">
<title>Node24&#45;&gt;Node25</title>
<path fill="none" stroke="#191970" d="M1141.8419,-235.2967C1141.8419,-225.7699 1141.8419,-213.3954 1141.8419,-203.1306"/>
<polygon fill="#191970" stroke="#191970" points="1145.342,-203.0549 1141.8419,-193.055 1138.342,-203.055 1145.342,-203.0549"/>
</g>
<!-- Node28 -->
<g id="node29" class="node">
<title>Node28</title>
<polygon fill="#ffffff" stroke="#bfbfbf" points="1232.8419,-174 1232.8419,-193 1346.8419,-193 1346.8419,-174 1232.8419,-174"/>
<text text-anchor="middle" x="1289.8419" y="-181" font-family="Helvetica,sans-Serif" font-size="10.00" fill="#000000">AMReX_Orientation.H</text>
</g>
<!-- Node24&#45;&gt;Node28 -->
<g id="edge52" class="edge">
<title>Node24&#45;&gt;Node28</title>
<path fill="none" stroke="#191970" d="M1175.056,-235.4639C1200.3359,-224.0196 1234.8511,-208.3945 1259.4158,-197.274"/>
<polygon fill="#191970" stroke="#191970" points="1260.9607,-200.4166 1268.6273,-193.1039 1258.0738,-194.0396 1260.9607,-200.4166"/>
</g>
<!-- Node25&#45;&gt;Node2 -->
<g id="edge46" class="edge">
<title>Node25&#45;&gt;Node2</title>
<path fill="none" stroke="#191970" d="M1141.8419,-173.8906C1141.8419,-165.3657 1141.8419,-152.6392 1141.8419,-141.9235"/>
<polygon fill="#191970" stroke="#191970" points="1145.342,-141.7448 1141.8419,-131.7449 1138.342,-141.7449 1145.342,-141.7448"/>
</g>
<!-- Node25&#45;&gt;Node9 -->
<g id="edge47" class="edge">
<title>Node25&#45;&gt;Node9</title>
<path fill="none" stroke="#191970" d="M1152.9542,-173.7981C1171.2453,-158.3458 1209.4113,-128.2365 1246.8419,-112 1260.7421,-105.9704 1342.9593,-88.3893 1398.9546,-76.792"/>
<polygon fill="#191970" stroke="#191970" points="1399.9972,-80.1506 1409.0826,-74.7003 1398.5814,-73.2953 1399.9972,-80.1506"/>
</g>
<!-- Node25&#45;&gt;Node11 -->
<g id="edge45" class="edge">
<title>Node25&#45;&gt;Node11</title>
<path fill="none" stroke="#191970" d="M1090.1703,-173.9911C1016.7194,-159.2758 879.0307,-127.219 770.8419,-76 742.278,-62.4772 712.8185,-40.874 694.198,-26.0923"/>
<polygon fill="#191970" stroke="#191970" points="696.1916,-23.2034 686.2134,-19.6418 691.7927,-28.6486 696.1916,-23.2034"/>
</g>
<!-- Node25&#45;&gt;Node22 -->
<g id="edge50" class="edge">
<title>Node25&#45;&gt;Node22</title>
<path fill="none" stroke="#191970" d="M1080.9005,-173.9716C1014.8571,-163.6429 906.3683,-146.6686 812.8419,-132 689.9912,-112.7322 546.9369,-90.2405 463.4768,-77.1129"/>
<polygon fill="#191970" stroke="#191970" points="463.7729,-73.6165 453.3505,-75.52 462.6852,-80.5315 463.7729,-73.6165"/>
</g>
<!-- Node26 -->
<g id="node27" class="node">
<title>Node26</title>
<polygon fill="#ffffff" stroke="#bfbfbf" points="1255.3419,-112.5 1255.3419,-131.5 1368.3419,-131.5 1368.3419,-112.5 1255.3419,-112.5"/>
<text text-anchor="middle" x="1311.8419" y="-119.5" font-family="Helvetica,sans-Serif" font-size="10.00" fill="#000000">AMReX_FArrayBox.H</text>
</g>
<!-- Node25&#45;&gt;Node26 -->
<g id="edge48" class="edge">
<title>Node25&#45;&gt;Node26</title>
<path fill="none" stroke="#191970" d="M1168.4044,-173.8906C1197.3475,-163.42 1243.8113,-146.6111 1275.9775,-134.9745"/>
<polygon fill="#191970" stroke="#191970" points="1277.253,-138.2351 1285.4659,-131.5419 1274.8716,-131.6526 1277.253,-138.2351"/>
</g>
<!-- Node27 -->
<g id="node28" class="node">
<title>Node27</title>
<polygon fill="#ffffff" stroke="#bfbfbf" points="1386.8419,-112.5 1386.8419,-131.5 1496.8419,-131.5 1496.8419,-112.5 1386.8419,-112.5"/>
<text text-anchor="middle" x="1441.8419" y="-119.5" font-family="Helvetica,sans-Serif" font-size="10.00" fill="#000000">AMReX_Geometry.H</text>
</g>
<!-- Node25&#45;&gt;Node27 -->
<g id="edge49" class="edge">
<title>Node25&#45;&gt;Node27</title>
<path fill="none" stroke="#191970" d="M1188.3877,-173.9581C1241.4856,-163.073 1328.3048,-145.2751 1385.2638,-133.5985"/>
<polygon fill="#191970" stroke="#191970" points="1386.0935,-137.0013 1395.1868,-131.5643 1384.6877,-130.1439 1386.0935,-137.0013"/>
</g>
</g>
</svg>
