<?xml version="1.0" encoding="UTF-8" standalone="no"?>
<!DOCTYPE svg PUBLIC "-//W3C//DTD SVG 1.1//EN"
 "http://www.w3.org/Graphics/SVG/1.1/DTD/svg11.dtd">
<!-- Generated by graphviz version 2.40.1 (20161225.0304)
 -->
<!-- Title: BodyForce.cpp Pages: 1 -->
<svg width="2832pt" height="408pt"
 viewBox="0.00 0.00 2831.50 408.00" xmlns="http://www.w3.org/2000/svg" xmlns:xlink="http://www.w3.org/1999/xlink">
<g id="graph0" class="graph" transform="scale(1 1) rotate(0) translate(4 404)">
<title>BodyForce.cpp</title>
<polygon fill="#ffffff" stroke="transparent" points="-4,4 -4,-404 2827.5,-404 2827.5,4 -4,4"/>
<!-- Node0 -->
<g id="node1" class="node">
<title>Node0</title>
<polygon fill="#bfbfbf" stroke="#000000" points="2538,-380.5 2538,-399.5 2621,-399.5 2621,-380.5 2538,-380.5"/>
<text text-anchor="middle" x="2579.5" y="-387.5" font-family="Helvetica,sans-Serif" font-size="10.00" fill="#000000">BodyForce.cpp</text>
</g>
<!-- Node1 -->
<g id="node2" class="node">
<title>Node1</title>
<g id="a_node2"><a xlink:href="_body_force_8_h.html" target="_top" xlink:title="amr&#45;wind/equation_systems\l/icns/source_terms/BodyForce.H">
<polygon fill="#ffffff" stroke="#000000" points="2189,-313.5 2189,-343.5 2350,-343.5 2350,-313.5 2189,-313.5"/>
<text text-anchor="start" x="2197" y="-331.5" font-family="Helvetica,sans-Serif" font-size="10.00" fill="#000000">amr&#45;wind/equation_systems</text>
<text text-anchor="middle" x="2269.5" y="-320.5" font-family="Helvetica,sans-Serif" font-size="10.00" fill="#000000">/icns/source_terms/BodyForce.H</text>
</a>
</g>
</g>
<!-- Node0&#45;&gt;Node1 -->
<g id="edge1" class="edge">
<title>Node0&#45;&gt;Node1</title>
<path fill="none" stroke="#191970" d="M2537.692,-381.7058C2491.2139,-372.4852 2414.8793,-357.3414 2355.51,-345.5633"/>
<polygon fill="#191970" stroke="#191970" points="2355.8756,-342.0677 2345.3857,-343.5547 2354.5134,-348.9339 2355.8756,-342.0677"/>
</g>
<!-- Node18 -->
<g id="node19" class="node">
<title>Node18</title>
<polygon fill="#ffffff" stroke="#bfbfbf" points="2537,-56.5 2537,-75.5 2622,-75.5 2622,-56.5 2537,-56.5"/>
<text text-anchor="middle" x="2579.5" y="-63.5" font-family="Helvetica,sans-Serif" font-size="10.00" fill="#000000">AMReX_Gpu.H</text>
</g>
<!-- Node0&#45;&gt;Node18 -->
<g id="edge79" class="edge">
<title>Node0&#45;&gt;Node18</title>
<path fill="none" stroke="#191970" d="M2594.6878,-380.3961C2622.6625,-361.3889 2679.5,-316.058 2679.5,-261.5 2679.5,-261.5 2679.5,-261.5 2679.5,-194.5 2679.5,-156.8735 2682.9805,-142.1725 2660.5,-112 2649.778,-97.6093 2633.1317,-87.0513 2617.7117,-79.7071"/>
<polygon fill="#191970" stroke="#191970" points="2618.893,-76.4022 2608.333,-75.5442 2616.0531,-82.8003 2618.893,-76.4022"/>
</g>
<!-- Node31 -->
<g id="node32" class="node">
<title>Node31</title>
<g id="a_node32"><a xlink:href="_c_f_d_sim_8_h.html" target="_top" xlink:title="amr&#45;wind/CFDSim.H">
<polygon fill="#ffffff" stroke="#000000" points="1374.5,-252 1374.5,-271 1482.5,-271 1482.5,-252 1374.5,-252"/>
<text text-anchor="middle" x="1428.5" y="-259" font-family="Helvetica,sans-Serif" font-size="10.00" fill="#000000">amr&#45;wind/CFDSim.H</text>
</a>
</g>
</g>
<!-- Node0&#45;&gt;Node31 -->
<g id="edge53" class="edge">
<title>Node0&#45;&gt;Node31</title>
<path fill="none" stroke="#191970" d="M2537.8553,-385.3507C2364.953,-366.0475 1702.94,-292.139 1492.8655,-268.6859"/>
<polygon fill="#191970" stroke="#191970" points="1492.9437,-265.173 1482.6171,-267.5417 1492.167,-272.1297 1492.9437,-265.173"/>
</g>
<!-- Node38 -->
<g id="node39" class="node">
<title>Node38</title>
<g id="a_node39"><a xlink:href="trig__ops_8_h.html" target="_top" xlink:title="Trigonometric utilities. ">
<polygon fill="#ffffff" stroke="#000000" points="2534.5,-179.5 2534.5,-209.5 2624.5,-209.5 2624.5,-179.5 2534.5,-179.5"/>
<text text-anchor="start" x="2542.5" y="-197.5" font-family="Helvetica,sans-Serif" font-size="10.00" fill="#000000">amr&#45;wind/utilities</text>
<text text-anchor="middle" x="2579.5" y="-186.5" font-family="Helvetica,sans-Serif" font-size="10.00" fill="#000000">/trig_ops.H</text>
</a>
</g>
</g>
<!-- Node0&#45;&gt;Node38 -->
<g id="edge74" class="edge">
<title>Node0&#45;&gt;Node38</title>
<path fill="none" stroke="#191970" d="M2579.5,-380.3051C2579.5,-351.1129 2579.5,-263.3738 2579.5,-219.7262"/>
<polygon fill="#191970" stroke="#191970" points="2583.0001,-219.6417 2579.5,-209.6418 2576.0001,-219.6418 2583.0001,-219.6417"/>
</g>
<!-- Node40 -->
<g id="node41" class="node">
<title>Node40</title>
<polygon fill="#ffffff" stroke="#bfbfbf" points="2707.5,-319 2707.5,-338 2823.5,-338 2823.5,-319 2707.5,-319"/>
<text text-anchor="middle" x="2765.5" y="-326" font-family="Helvetica,sans-Serif" font-size="10.00" fill="#000000">AMReX_ParmParse.H</text>
</g>
<!-- Node0&#45;&gt;Node40 -->
<g id="edge78" class="edge">
<title>Node0&#45;&gt;Node40</title>
<path fill="none" stroke="#191970" d="M2608.5625,-380.3906C2640.3662,-369.8749 2691.5051,-352.966 2726.7144,-341.3243"/>
<polygon fill="#191970" stroke="#191970" points="2728.2459,-344.5043 2736.6416,-338.0419 2726.0483,-337.8582 2728.2459,-344.5043"/>
</g>
<!-- Node2 -->
<g id="node3" class="node">
<title>Node2</title>
<g id="a_node3"><a xlink:href="_momentum_source_8_h.html" target="_top" xlink:title="amr&#45;wind/equation_systems\l/icns/MomentumSource.H">
<polygon fill="#ffffff" stroke="#000000" points="1903,-246.5 1903,-276.5 2042,-276.5 2042,-246.5 1903,-246.5"/>
<text text-anchor="start" x="1911" y="-264.5" font-family="Helvetica,sans-Serif" font-size="10.00" fill="#000000">amr&#45;wind/equation_systems</text>
<text text-anchor="middle" x="1972.5" y="-253.5" font-family="Helvetica,sans-Serif" font-size="10.00" fill="#000000">/icns/MomentumSource.H</text>
</a>
</g>
</g>
<!-- Node1&#45;&gt;Node2 -->
<g id="edge2" class="edge">
<title>Node1&#45;&gt;Node2</title>
<path fill="none" stroke="#191970" d="M2202.8474,-313.4639C2157.2619,-303.1803 2096.712,-289.5209 2049.1326,-278.7875"/>
<polygon fill="#191970" stroke="#191970" points="2049.7117,-275.3302 2039.1866,-276.5438 2048.1712,-282.1586 2049.7117,-275.3302"/>
</g>
<!-- Node27 -->
<g id="node28" class="node">
<title>Node27</title>
<g id="a_node28"><a xlink:href="_sim_time_8_h.html" target="_top" xlink:title="amr&#45;wind/core/SimTime.H">
<polygon fill="#ffffff" stroke="#000000" points="2204,-185 2204,-204 2335,-204 2335,-185 2204,-185"/>
<text text-anchor="middle" x="2269.5" y="-192" font-family="Helvetica,sans-Serif" font-size="10.00" fill="#000000">amr&#45;wind/core/SimTime.H</text>
</a>
</g>
</g>
<!-- Node1&#45;&gt;Node27 -->
<g id="edge49" class="edge">
<title>Node1&#45;&gt;Node27</title>
<path fill="none" stroke="#191970" d="M2269.5,-313.389C2269.5,-289.0735 2269.5,-241.2644 2269.5,-214.2698"/>
<polygon fill="#191970" stroke="#191970" points="2273.0001,-214.1041 2269.5,-204.1042 2266.0001,-214.1042 2273.0001,-214.1041"/>
</g>
<!-- Node3 -->
<g id="node4" class="node">
<title>Node3</title>
<g id="a_node4"><a xlink:href="_factory_8_h.html" target="_top" xlink:title="amr&#45;wind/core/Factory.H">
<polygon fill="#ffffff" stroke="#000000" points="414,-118 414,-137 539,-137 539,-118 414,-118"/>
<text text-anchor="middle" x="476.5" y="-125" font-family="Helvetica,sans-Serif" font-size="10.00" fill="#000000">amr&#45;wind/core/Factory.H</text>
</a>
</g>
</g>
<!-- Node2&#45;&gt;Node3 -->
<g id="edge3" class="edge">
<title>Node2&#45;&gt;Node3</title>
<path fill="none" stroke="#191970" d="M1902.7809,-256.8939C1699.5351,-243.1748 1090.1422,-199.9709 586.5,-143 574.5227,-141.6452 561.8372,-140.028 549.5032,-138.3573"/>
<polygon fill="#191970" stroke="#191970" points="549.6324,-134.8422 539.2485,-136.946 548.6779,-141.7768 549.6324,-134.8422"/>
</g>
<!-- Node9 -->
<g id="node10" class="node">
<title>Node9</title>
<g id="a_node10"><a xlink:href="_field_desc_types_8_h.html" target="_top" xlink:title="amr&#45;wind/core/FieldDescTypes.H">
<polygon fill="#ffffff" stroke="#000000" points="1627,-.5 1627,-19.5 1790,-19.5 1790,-.5 1627,-.5"/>
<text text-anchor="middle" x="1708.5" y="-7.5" font-family="Helvetica,sans-Serif" font-size="10.00" fill="#000000">amr&#45;wind/core/FieldDescTypes.H</text>
</a>
</g>
</g>
<!-- Node2&#45;&gt;Node9 -->
<g id="edge9" class="edge">
<title>Node2&#45;&gt;Node9</title>
<path fill="none" stroke="#191970" d="M2042.1799,-257.2095C2134.8407,-250.5964 2292.9315,-235.8871 2344.5,-210 2391.4308,-186.441 2443.0447,-153.2113 2410.5,-112 2373.1154,-64.66 1981.785,-30.0378 1800.1664,-16.3946"/>
<polygon fill="#191970" stroke="#191970" points="1800.3269,-12.897 1790.0943,-15.6434 1799.8062,-19.8776 1800.3269,-12.897"/>
</g>
<!-- Node10 -->
<g id="node11" class="node">
<title>Node10</title>
<g id="a_node11"><a xlink:href="_field_utils_8_h.html" target="_top" xlink:title="amr&#45;wind/core/FieldUtils.H">
<polygon fill="#ffffff" stroke="#000000" points="1996,-118 1996,-137 2129,-137 2129,-118 1996,-118"/>
<text text-anchor="middle" x="2062.5" y="-125" font-family="Helvetica,sans-Serif" font-size="10.00" fill="#000000">amr&#45;wind/core/FieldUtils.H</text>
</a>
</g>
</g>
<!-- Node2&#45;&gt;Node10 -->
<g id="edge10" class="edge">
<title>Node2&#45;&gt;Node10</title>
<path fill="none" stroke="#191970" d="M1982.6492,-246.389C1999.345,-221.5307 2032.5324,-172.1184 2050.4147,-145.4937"/>
<polygon fill="#191970" stroke="#191970" points="2053.3793,-147.357 2056.0494,-137.1042 2047.5683,-143.4541 2053.3793,-147.357"/>
</g>
<!-- Node11 -->
<g id="node12" class="node">
<title>Node11</title>
<polygon fill="#ffffff" stroke="#bfbfbf" points="1369.5,-.5 1369.5,-19.5 1473.5,-19.5 1473.5,-.5 1369.5,-.5"/>
<text text-anchor="middle" x="1421.5" y="-7.5" font-family="Helvetica,sans-Serif" font-size="10.00" fill="#000000">AMReX_MultiFab.H</text>
</g>
<!-- Node2&#45;&gt;Node11 -->
<g id="edge48" class="edge">
<title>Node2&#45;&gt;Node11</title>
<path fill="none" stroke="#191970" d="M1973.1329,-246.3263C1973.8345,-207.5542 1969.7674,-104.497 1910.5,-56 1894.1959,-42.6587 1611.5855,-22.4984 1483.5964,-14.0009"/>
<polygon fill="#191970" stroke="#191970" points="1483.7558,-10.5039 1473.5467,-13.3366 1483.294,-17.4887 1483.7558,-10.5039"/>
</g>
<!-- Node13 -->
<g id="node14" class="node">
<title>Node13</title>
<g id="a_node14"><a xlink:href="_field_repo_8_h.html" target="_top" xlink:title="amr&#45;wind/core/FieldRepo.H">
<polygon fill="#ffffff" stroke="#000000" points="1507.5,-185 1507.5,-204 1643.5,-204 1643.5,-185 1507.5,-185"/>
<text text-anchor="middle" x="1575.5" y="-192" font-family="Helvetica,sans-Serif" font-size="10.00" fill="#000000">amr&#45;wind/core/FieldRepo.H</text>
</a>
</g>
</g>
<!-- Node2&#45;&gt;Node13 -->
<g id="edge14" class="edge">
<title>Node2&#45;&gt;Node13</title>
<path fill="none" stroke="#191970" d="M1902.8936,-249.7528C1829.3008,-237.3329 1714.0649,-217.885 1641.7639,-205.6831"/>
<polygon fill="#191970" stroke="#191970" points="1642.2987,-202.2239 1631.8556,-204.0109 1641.1337,-209.1263 1642.2987,-202.2239"/>
</g>
<!-- Node4 -->
<g id="node5" class="node">
<title>Node4</title>
<polygon fill="#ffffff" stroke="#bfbfbf" points="449.5,-56.5 449.5,-75.5 501.5,-75.5 501.5,-56.5 449.5,-56.5"/>
<text text-anchor="middle" x="475.5" y="-63.5" font-family="Helvetica,sans-Serif" font-size="10.00" fill="#000000">memory</text>
</g>
<!-- Node3&#45;&gt;Node4 -->
<g id="edge4" class="edge">
<title>Node3&#45;&gt;Node4</title>
<path fill="none" stroke="#191970" d="M476.3438,-117.8906C476.2051,-109.3657 475.9982,-96.6392 475.824,-85.9235"/>
<polygon fill="#191970" stroke="#191970" points="479.3207,-85.6866 475.6585,-75.7449 472.3216,-85.8005 479.3207,-85.6866"/>
</g>
<!-- Node5 -->
<g id="node6" class="node">
<title>Node5</title>
<polygon fill="#ffffff" stroke="#bfbfbf" points="600,-56.5 600,-75.5 683,-75.5 683,-56.5 600,-56.5"/>
<text text-anchor="middle" x="641.5" y="-63.5" font-family="Helvetica,sans-Serif" font-size="10.00" fill="#000000">unordered_map</text>
</g>
<!-- Node3&#45;&gt;Node5 -->
<g id="edge5" class="edge">
<title>Node3&#45;&gt;Node5</title>
<path fill="none" stroke="#191970" d="M502.2813,-117.8906C530.252,-107.4652 575.0819,-90.7559 606.286,-79.1252"/>
<polygon fill="#191970" stroke="#191970" points="607.7519,-82.3141 615.8998,-75.5419 605.3071,-75.7549 607.7519,-82.3141"/>
</g>
<!-- Node6 -->
<g id="node7" class="node">
<title>Node6</title>
<polygon fill="#ffffff" stroke="#bfbfbf" points="271.5,-56.5 271.5,-75.5 325.5,-75.5 325.5,-56.5 271.5,-56.5"/>
<text text-anchor="middle" x="298.5" y="-63.5" font-family="Helvetica,sans-Serif" font-size="10.00" fill="#000000">iostream</text>
</g>
<!-- Node3&#45;&gt;Node6 -->
<g id="edge6" class="edge">
<title>Node3&#45;&gt;Node6</title>
<path fill="none" stroke="#191970" d="M448.6875,-117.8906C418.0737,-107.3134 368.7393,-90.2681 335.0278,-78.6206"/>
<polygon fill="#191970" stroke="#191970" points="336.1291,-75.2981 325.5344,-75.3405 333.8431,-81.9143 336.1291,-75.2981"/>
</g>
<!-- Node7 -->
<g id="node8" class="node">
<title>Node7</title>
<polygon fill="#ffffff" stroke="#bfbfbf" points="344,-56.5 344,-75.5 431,-75.5 431,-56.5 344,-56.5"/>
<text text-anchor="middle" x="387.5" y="-63.5" font-family="Helvetica,sans-Serif" font-size="10.00" fill="#000000">AMReX_Print.H</text>
</g>
<!-- Node3&#45;&gt;Node7 -->
<g id="edge7" class="edge">
<title>Node3&#45;&gt;Node7</title>
<path fill="none" stroke="#191970" d="M462.5938,-117.8906C448.4862,-108.1421 426.4276,-92.8994 409.8615,-81.4521"/>
<polygon fill="#191970" stroke="#191970" points="411.5253,-78.3474 401.3086,-75.5419 407.5458,-84.1063 411.5253,-78.3474"/>
</g>
<!-- Node8 -->
<g id="node9" class="node">
<title>Node8</title>
<polygon fill="#ffffff" stroke="#bfbfbf" points="519.5,-56.5 519.5,-75.5 581.5,-75.5 581.5,-56.5 519.5,-56.5"/>
<text text-anchor="middle" x="550.5" y="-63.5" font-family="Helvetica,sans-Serif" font-size="10.00" fill="#000000">AMReX.H</text>
</g>
<!-- Node3&#45;&gt;Node8 -->
<g id="edge8" class="edge">
<title>Node3&#45;&gt;Node8</title>
<path fill="none" stroke="#191970" d="M488.0625,-117.8906C499.5079,-108.3786 517.2473,-93.6357 530.897,-82.2917"/>
<polygon fill="#191970" stroke="#191970" points="533.3208,-84.8283 538.7745,-75.7449 528.8467,-79.4447 533.3208,-84.8283"/>
</g>
<!-- Node10&#45;&gt;Node9 -->
<g id="edge11" class="edge">
<title>Node10&#45;&gt;Node9</title>
<path fill="none" stroke="#191970" d="M2094.7804,-117.9184C2131.1839,-105.5511 2182.3856,-82.4517 2158.5,-56 2134.9836,-29.9571 1924.9689,-17.8569 1800.3245,-12.9249"/>
<polygon fill="#191970" stroke="#191970" points="1800.1487,-9.4155 1790.0207,-12.5258 1799.8777,-16.4103 1800.1487,-9.4155"/>
</g>
<!-- Node10&#45;&gt;Node11 -->
<g id="edge12" class="edge">
<title>Node10&#45;&gt;Node11</title>
<path fill="none" stroke="#191970" d="M2050.5663,-117.7555C2030.1012,-101.6663 1986.3607,-69.9408 1943.5,-56 1900.7514,-42.0956 1612.8595,-22.2417 1483.8366,-13.9132"/>
<polygon fill="#191970" stroke="#191970" points="1483.9158,-10.4111 1473.7119,-13.2622 1483.4667,-17.3967 1483.9158,-10.4111"/>
</g>
<!-- Node12 -->
<g id="node13" class="node">
<title>Node12</title>
<polygon fill="#ffffff" stroke="#bfbfbf" points="2033.5,-56.5 2033.5,-75.5 2149.5,-75.5 2149.5,-56.5 2033.5,-56.5"/>
<text text-anchor="middle" x="2091.5" y="-63.5" font-family="Helvetica,sans-Serif" font-size="10.00" fill="#000000">AMReX_Interpolater.H</text>
</g>
<!-- Node10&#45;&gt;Node12 -->
<g id="edge13" class="edge">
<title>Node10&#45;&gt;Node12</title>
<path fill="none" stroke="#191970" d="M2067.0313,-117.8906C2071.1781,-109.0965 2077.4332,-95.8312 2082.581,-84.9145"/>
<polygon fill="#191970" stroke="#191970" points="2085.8055,-86.2825 2086.9049,-75.7449 2079.4741,-83.2969 2085.8055,-86.2825"/>
</g>
<!-- Node13&#45;&gt;Node5 -->
<g id="edge16" class="edge">
<title>Node13&#45;&gt;Node5</title>
<path fill="none" stroke="#191970" d="M1507.4681,-193.7852C1362.1498,-191.5116 1026.0174,-182.0619 919.5,-143 897.3807,-134.8884 898.1168,-121.3688 876.5,-112 844.2944,-98.0419 752.3289,-82.4836 693.4529,-73.5091"/>
<polygon fill="#191970" stroke="#191970" points="693.6362,-69.9972 683.2258,-71.9655 692.5915,-76.9188 693.6362,-69.9972"/>
</g>
<!-- Node13&#45;&gt;Node9 -->
<g id="edge17" class="edge">
<title>Node13&#45;&gt;Node9</title>
<path fill="none" stroke="#191970" d="M1643.7724,-187.4991C1715.0918,-179.225 1821.3915,-163.8947 1856.5,-143 1889.3654,-123.4403 1897.775,-112.0665 1910.5,-76 1913.4575,-67.6175 1916.0439,-62.9482 1910.5,-56 1896.315,-38.2216 1846.8453,-26.7823 1800.416,-19.7579"/>
<polygon fill="#191970" stroke="#191970" points="1800.6593,-16.2566 1790.2599,-18.2822 1799.6527,-23.1838 1800.6593,-16.2566"/>
</g>
<!-- Node13&#45;&gt;Node10 -->
<g id="edge18" class="edge">
<title>Node13&#45;&gt;Node10</title>
<path fill="none" stroke="#191970" d="M1643.5709,-187.1897C1724.3713,-178.2065 1863.0879,-161.8206 1981.5,-143 1989.255,-141.7674 1997.4048,-140.3516 2005.4243,-138.8875"/>
<polygon fill="#191970" stroke="#191970" points="2006.2824,-142.288 2015.4732,-137.0175 2005.0016,-135.4062 2006.2824,-142.288"/>
</g>
<!-- Node13&#45;&gt;Node11 -->
<g id="edge46" class="edge">
<title>Node13&#45;&gt;Node11</title>
<path fill="none" stroke="#191970" d="M1585.5987,-184.7805C1609.4146,-160.6952 1664.6697,-97.2219 1631.5,-56 1613.1901,-33.2452 1538.7777,-21.1201 1483.7043,-15.1325"/>
<polygon fill="#191970" stroke="#191970" points="1483.9732,-11.6416 1473.6639,-14.0847 1483.2466,-18.6038 1483.9732,-11.6416"/>
</g>
<!-- Node14 -->
<g id="node15" class="node">
<title>Node14</title>
<polygon fill="#ffffff" stroke="#bfbfbf" points="951,-.5 951,-19.5 992,-19.5 992,-.5 951,-.5"/>
<text text-anchor="middle" x="971.5" y="-7.5" font-family="Helvetica,sans-Serif" font-size="10.00" fill="#000000">string</text>
</g>
<!-- Node13&#45;&gt;Node14 -->
<g id="edge15" class="edge">
<title>Node13&#45;&gt;Node14</title>
<path fill="none" stroke="#191970" d="M1507.2738,-190.6177C1410.3039,-184.3946 1227.3059,-170.0429 1073.5,-143 1043.3756,-137.7034 825.3127,-100.1167 806.5,-76 769.6865,-28.8074 883.4209,-15.2387 940.6731,-11.4344"/>
<polygon fill="#191970" stroke="#191970" points="941.2117,-14.9084 950.9834,-10.8141 940.7913,-7.921 941.2117,-14.9084"/>
</g>
<!-- Node15 -->
<g id="node16" class="node">
<title>Node15</title>
<g id="a_node16"><a xlink:href="_field_8_h.html" target="_top" xlink:title="amr&#45;wind/core/Field.H">
<polygon fill="#ffffff" stroke="#000000" points="1365,-118 1365,-137 1478,-137 1478,-118 1365,-118"/>
<text text-anchor="middle" x="1421.5" y="-125" font-family="Helvetica,sans-Serif" font-size="10.00" fill="#000000">amr&#45;wind/core/Field.H</text>
</a>
</g>
</g>
<!-- Node13&#45;&gt;Node15 -->
<g id="edge19" class="edge">
<title>Node13&#45;&gt;Node15</title>
<path fill="none" stroke="#191970" d="M1553.4356,-184.9005C1527.1335,-173.4574 1482.9872,-154.2509 1453.0755,-141.2374"/>
<polygon fill="#191970" stroke="#191970" points="1454.0896,-137.8617 1443.5235,-137.0817 1451.297,-144.2806 1454.0896,-137.8617"/>
</g>
<!-- Node22 -->
<g id="node23" class="node">
<title>Node22</title>
<g id="a_node23"><a xlink:href="_int_field_8_h.html" target="_top" xlink:title="amr&#45;wind/core/IntField.H">
<polygon fill="#ffffff" stroke="#000000" points="1703.5,-118 1703.5,-137 1827.5,-137 1827.5,-118 1703.5,-118"/>
<text text-anchor="middle" x="1765.5" y="-125" font-family="Helvetica,sans-Serif" font-size="10.00" fill="#000000">amr&#45;wind/core/IntField.H</text>
</a>
</g>
</g>
<!-- Node13&#45;&gt;Node22 -->
<g id="edge34" class="edge">
<title>Node13&#45;&gt;Node22</title>
<path fill="none" stroke="#191970" d="M1602.7224,-184.9005C1635.7374,-173.2584 1691.5403,-153.5805 1728.4526,-140.5641"/>
<polygon fill="#191970" stroke="#191970" points="1730.0613,-143.7081 1738.3281,-137.0817 1727.7333,-137.1065 1730.0613,-143.7081"/>
</g>
<!-- Node23 -->
<g id="node24" class="node">
<title>Node23</title>
<polygon fill="#ffffff" stroke="#bfbfbf" points="1794,-56.5 1794,-75.5 1901,-75.5 1901,-56.5 1794,-56.5"/>
<text text-anchor="middle" x="1847.5" y="-63.5" font-family="Helvetica,sans-Serif" font-size="10.00" fill="#000000">AMReX_iMultiFab.H</text>
</g>
<!-- Node13&#45;&gt;Node23 -->
<g id="edge47" class="edge">
<title>Node13&#45;&gt;Node23</title>
<path fill="none" stroke="#191970" d="M1643.553,-189.8615C1711.8675,-183.7222 1810.5968,-170.3116 1836.5,-143 1850.831,-127.8898 1851.8875,-103.0411 1850.4623,-85.6708"/>
<polygon fill="#191970" stroke="#191970" points="1853.9129,-85.0425 1849.2819,-75.5134 1846.9597,-85.8506 1853.9129,-85.0425"/>
</g>
<!-- Node24 -->
<g id="node25" class="node">
<title>Node24</title>
<g id="a_node25"><a xlink:href="_scratch_field_8_h.html" target="_top" xlink:title="amr&#45;wind/core/ScratchField.H">
<polygon fill="#ffffff" stroke="#000000" points="1082.5,-118 1082.5,-137 1228.5,-137 1228.5,-118 1082.5,-118"/>
<text text-anchor="middle" x="1155.5" y="-125" font-family="Helvetica,sans-Serif" font-size="10.00" fill="#000000">amr&#45;wind/core/ScratchField.H</text>
</a>
</g>
</g>
<!-- Node13&#45;&gt;Node24 -->
<g id="edge38" class="edge">
<title>Node13&#45;&gt;Node24</title>
<path fill="none" stroke="#191970" d="M1515.7703,-184.9717C1439.2127,-172.7589 1306.7005,-151.6201 1225.4931,-138.6656"/>
<polygon fill="#191970" stroke="#191970" points="1225.7898,-135.1687 1215.3633,-137.0496 1224.6871,-142.0813 1225.7898,-135.1687"/>
</g>
<!-- Node26 -->
<g id="node27" class="node">
<title>Node26</title>
<polygon fill="#ffffff" stroke="#bfbfbf" points="761.5,-118 761.5,-137 867.5,-137 867.5,-118 761.5,-118"/>
<text text-anchor="middle" x="814.5" y="-125" font-family="Helvetica,sans-Serif" font-size="10.00" fill="#000000">AMReX_AmrCore.H</text>
</g>
<!-- Node13&#45;&gt;Node26 -->
<g id="edge45" class="edge">
<title>Node13&#45;&gt;Node26</title>
<path fill="none" stroke="#191970" d="M1507.2674,-190.7733C1356.8971,-182.3425 1000.8733,-161.1279 881.5,-143 874.8382,-141.9883 867.8574,-140.6694 861.022,-139.2279"/>
<polygon fill="#191970" stroke="#191970" points="861.6851,-135.79 851.1654,-137.0496 860.1745,-142.6251 861.6851,-135.79"/>
</g>
<!-- Node15&#45;&gt;Node4 -->
<g id="edge21" class="edge">
<title>Node15&#45;&gt;Node4</title>
<path fill="none" stroke="#191970" d="M1364.7591,-122.2104C1328.4048,-118.9475 1280.2015,-114.855 1237.5,-112 918.0234,-90.6402 831.4411,-128.0017 511.7382,-75.8401"/>
<polygon fill="#191970" stroke="#191970" points="512.1622,-72.3629 501.7261,-74.1899 511.0238,-79.2697 512.1622,-72.3629"/>
</g>
<!-- Node15&#45;&gt;Node5 -->
<g id="edge22" class="edge">
<title>Node15&#45;&gt;Node5</title>
<path fill="none" stroke="#191970" d="M1364.7293,-122.6142C1328.3633,-119.5101 1280.1582,-115.4429 1237.5,-112 1036.232,-95.7558 796.6263,-77.632 693.2203,-69.8692"/>
<polygon fill="#191970" stroke="#191970" points="693.2893,-66.3646 683.0554,-69.1065 692.7655,-73.345 693.2893,-66.3646"/>
</g>
<!-- Node15&#45;&gt;Node9 -->
<g id="edge28" class="edge">
<title>Node15&#45;&gt;Node9</title>
<path fill="none" stroke="#191970" d="M1478.3978,-120.8778C1522.1428,-114.0908 1583.0839,-100.8721 1631.5,-76 1655.5496,-63.6454 1678.4532,-42.3643 1692.932,-27.3114"/>
<polygon fill="#191970" stroke="#191970" points="1695.7892,-29.3803 1700.0628,-19.6856 1690.6763,-24.5992 1695.7892,-29.3803"/>
</g>
<!-- Node15&#45;&gt;Node11 -->
<g id="edge24" class="edge">
<title>Node15&#45;&gt;Node11</title>
<path fill="none" stroke="#191970" d="M1421.5,-117.8845C1421.5,-98.6913 1421.5,-55.286 1421.5,-29.7663"/>
<polygon fill="#191970" stroke="#191970" points="1425.0001,-29.7483 1421.5,-19.7484 1418.0001,-29.7484 1425.0001,-29.7483"/>
</g>
<!-- Node15&#45;&gt;Node14 -->
<g id="edge20" class="edge">
<title>Node15&#45;&gt;Node14</title>
<path fill="none" stroke="#191970" d="M1412.3065,-117.8925C1396.46,-102.0051 1362.2462,-70.5693 1326.5,-56 1267.8073,-32.0782 1077.2824,-17.0744 1002.2596,-11.9637"/>
<polygon fill="#191970" stroke="#191970" points="1002.2695,-8.4566 992.0582,-11.2815 1001.8024,-15.441 1002.2695,-8.4566"/>
</g>
<!-- Node16 -->
<g id="node17" class="node">
<title>Node16</title>
<polygon fill="#ffffff" stroke="#bfbfbf" points="1449.5,-56.5 1449.5,-75.5 1505.5,-75.5 1505.5,-56.5 1449.5,-56.5"/>
<text text-anchor="middle" x="1477.5" y="-63.5" font-family="Helvetica,sans-Serif" font-size="10.00" fill="#000000">algorithm</text>
</g>
<!-- Node15&#45;&gt;Node16 -->
<g id="edge23" class="edge">
<title>Node15&#45;&gt;Node16</title>
<path fill="none" stroke="#191970" d="M1430.25,-117.8906C1438.6662,-108.6478 1451.5797,-94.466 1461.781,-83.2628"/>
<polygon fill="#191970" stroke="#191970" points="1464.4818,-85.4953 1468.6266,-75.7449 1459.306,-80.7824 1464.4818,-85.4953"/>
</g>
<!-- Node17 -->
<g id="node18" class="node">
<title>Node17</title>
<polygon fill="#ffffff" stroke="#bfbfbf" points="1524,-56.5 1524,-75.5 1623,-75.5 1623,-56.5 1524,-56.5"/>
<text text-anchor="middle" x="1573.5" y="-63.5" font-family="Helvetica,sans-Serif" font-size="10.00" fill="#000000">AMReX_BCRec.H</text>
</g>
<!-- Node15&#45;&gt;Node17 -->
<g id="edge25" class="edge">
<title>Node15&#45;&gt;Node17</title>
<path fill="none" stroke="#191970" d="M1445.25,-117.8906C1470.7939,-107.5554 1511.6009,-91.0447 1540.311,-79.4284"/>
<polygon fill="#191970" stroke="#191970" points="1541.9596,-82.5371 1549.9168,-75.5419 1539.334,-76.0481 1541.9596,-82.5371"/>
</g>
<!-- Node15&#45;&gt;Node18 -->
<g id="edge26" class="edge">
<title>Node15&#45;&gt;Node18</title>
<path fill="none" stroke="#191970" d="M1478.226,-124.2C1533.4405,-121.0067 1619.7231,-116.0661 1694.5,-112 2010.0467,-94.8416 2388.9599,-75.6045 2526.4238,-68.67"/>
<polygon fill="#191970" stroke="#191970" points="2526.8595,-72.1526 2536.6705,-68.1534 2526.5069,-65.1615 2526.8595,-72.1526"/>
</g>
<!-- Node19 -->
<g id="node20" class="node">
<title>Node19</title>
<g id="a_node20"><a xlink:href="incflo__enums_8_h.html" target="_top" xlink:title="amr&#45;wind/incflo_enums.H">
<polygon fill="#ffffff" stroke="#000000" points="815.5,-56.5 815.5,-75.5 943.5,-75.5 943.5,-56.5 815.5,-56.5"/>
<text text-anchor="middle" x="879.5" y="-63.5" font-family="Helvetica,sans-Serif" font-size="10.00" fill="#000000">amr&#45;wind/incflo_enums.H</text>
</a>
</g>
</g>
<!-- Node15&#45;&gt;Node19 -->
<g id="edge27" class="edge">
<title>Node15&#45;&gt;Node19</title>
<path fill="none" stroke="#191970" d="M1364.7759,-121.0636C1266.1911,-109.8773 1063.3123,-86.8569 953.6903,-74.4183"/>
<polygon fill="#191970" stroke="#191970" points="954.0331,-70.9348 943.7022,-73.2849 953.2438,-77.8902 954.0331,-70.9348"/>
</g>
<!-- Node20 -->
<g id="node21" class="node">
<title>Node20</title>
<g id="a_node21"><a xlink:href="_view_field_8_h.html" target="_top" xlink:title="amr&#45;wind/core/ViewField.H">
<polygon fill="#ffffff" stroke="#000000" points="1183.5,-56.5 1183.5,-75.5 1317.5,-75.5 1317.5,-56.5 1183.5,-56.5"/>
<text text-anchor="middle" x="1250.5" y="-63.5" font-family="Helvetica,sans-Serif" font-size="10.00" fill="#000000">amr&#45;wind/core/ViewField.H</text>
</a>
</g>
</g>
<!-- Node15&#45;&gt;Node20 -->
<g id="edge29" class="edge">
<title>Node15&#45;&gt;Node20</title>
<path fill="none" stroke="#191970" d="M1394.7813,-117.8906C1365.6679,-107.42 1318.9308,-90.6111 1286.5753,-78.9745"/>
<polygon fill="#191970" stroke="#191970" points="1287.6256,-75.6328 1277.0311,-75.5419 1285.2565,-82.2197 1287.6256,-75.6328"/>
</g>
<!-- Node20&#45;&gt;Node9 -->
<g id="edge31" class="edge">
<title>Node20&#45;&gt;Node9</title>
<path fill="none" stroke="#191970" d="M1317.6827,-57.6984C1322.3587,-57.1229 1326.9996,-56.5524 1331.5,-56 1430.3045,-43.8731 1543.6874,-30.0514 1620.0913,-20.7513"/>
<polygon fill="#191970" stroke="#191970" points="1620.6503,-24.2092 1630.1541,-19.5266 1619.8045,-17.2605 1620.6503,-24.2092"/>
</g>
<!-- Node20&#45;&gt;Node11 -->
<g id="edge32" class="edge">
<title>Node20&#45;&gt;Node11</title>
<path fill="none" stroke="#191970" d="M1279.8959,-56.3733C1308.3307,-47.0613 1351.5877,-32.8953 1382.8081,-22.671"/>
<polygon fill="#191970" stroke="#191970" points="1384.0736,-25.9396 1392.4876,-19.5011 1381.895,-19.2872 1384.0736,-25.9396"/>
</g>
<!-- Node20&#45;&gt;Node14 -->
<g id="edge30" class="edge">
<title>Node20&#45;&gt;Node14</title>
<path fill="none" stroke="#191970" d="M1202.8552,-56.4369C1145.4364,-44.912 1050.6425,-25.8852 1002.1487,-16.1517"/>
<polygon fill="#191970" stroke="#191970" points="1002.7481,-12.7023 992.2548,-14.1658 1001.3705,-19.5654 1002.7481,-12.7023"/>
</g>
<!-- Node21 -->
<g id="node22" class="node">
<title>Node21</title>
<polygon fill="#ffffff" stroke="#bfbfbf" points="740,-.5 740,-19.5 835,-19.5 835,-.5 740,-.5"/>
<text text-anchor="middle" x="787.5" y="-7.5" font-family="Helvetica,sans-Serif" font-size="10.00" fill="#000000">AMReX_Vector.H</text>
</g>
<!-- Node20&#45;&gt;Node21 -->
<g id="edge33" class="edge">
<title>Node20&#45;&gt;Node21</title>
<path fill="none" stroke="#191970" d="M1183.1758,-57.8571C1092.075,-46.8384 931.0888,-27.3671 845.2283,-16.9823"/>
<polygon fill="#191970" stroke="#191970" points="845.4876,-13.4882 835.1397,-15.762 844.6471,-20.4376 845.4876,-13.4882"/>
</g>
<!-- Node22&#45;&gt;Node9 -->
<g id="edge36" class="edge">
<title>Node22&#45;&gt;Node9</title>
<path fill="none" stroke="#191970" d="M1763.2495,-117.884C1759.7413,-103.8056 1752.2386,-76.9804 1741.5,-56 1736.4355,-46.1053 1729.4053,-35.9755 1723.1346,-27.7494"/>
<polygon fill="#191970" stroke="#191970" points="1725.701,-25.3516 1716.7574,-19.6716 1720.2068,-29.6892 1725.701,-25.3516"/>
</g>
<!-- Node22&#45;&gt;Node14 -->
<g id="edge35" class="edge">
<title>Node22&#45;&gt;Node14</title>
<path fill="none" stroke="#191970" d="M1752.2438,-117.9441C1729.0779,-101.835 1679.1439,-69.6934 1631.5,-56 1510.9223,-21.3446 1115.5339,-12.3383 1002.1465,-10.4419"/>
<polygon fill="#191970" stroke="#191970" points="1002.1275,-6.9412 992.0725,-10.2799 1002.0149,-13.9403 1002.1275,-6.9412"/>
</g>
<!-- Node22&#45;&gt;Node23 -->
<g id="edge37" class="edge">
<title>Node22&#45;&gt;Node23</title>
<path fill="none" stroke="#191970" d="M1778.3125,-117.8906C1791.1901,-108.2324 1811.2584,-93.1812 1826.472,-81.771"/>
<polygon fill="#191970" stroke="#191970" points="1828.8775,-84.3419 1834.7775,-75.5419 1824.6774,-78.7419 1828.8775,-84.3419"/>
</g>
<!-- Node24&#45;&gt;Node9 -->
<g id="edge40" class="edge">
<title>Node24&#45;&gt;Node9</title>
<path fill="none" stroke="#191970" d="M1189.9621,-117.9546C1243.3519,-103.3711 1349.4068,-75.2154 1440.5,-56 1505.8093,-42.2235 1580.7267,-29.633 1634.7179,-21.1207"/>
<polygon fill="#191970" stroke="#191970" points="1635.5507,-24.533 1644.8879,-19.5265 1634.4665,-17.6174 1635.5507,-24.533"/>
</g>
<!-- Node24&#45;&gt;Node11 -->
<g id="edge42" class="edge">
<title>Node24&#45;&gt;Node11</title>
<path fill="none" stroke="#191970" d="M1155.0507,-117.527C1154.9361,-101.975 1157.1693,-72.0675 1174.5,-56 1200.8018,-31.6153 1295.2401,-19.5769 1359.4205,-14.0854"/>
<polygon fill="#191970" stroke="#191970" points="1359.7674,-17.5687 1369.4462,-13.2593 1359.1925,-10.5924 1359.7674,-17.5687"/>
</g>
<!-- Node24&#45;&gt;Node14 -->
<g id="edge39" class="edge">
<title>Node24&#45;&gt;Node14</title>
<path fill="none" stroke="#191970" d="M1108.3542,-117.9979C1065.67,-108.4947 1007.0234,-92.895 990.5,-76 978.5416,-63.7726 974.019,-44.5273 972.3538,-29.9671"/>
<polygon fill="#191970" stroke="#191970" points="975.8384,-29.6331 971.5616,-19.9398 968.8602,-30.1845 975.8384,-29.6331"/>
</g>
<!-- Node24&#45;&gt;Node20 -->
<g id="edge41" class="edge">
<title>Node24&#45;&gt;Node20</title>
<path fill="none" stroke="#191970" d="M1170.3438,-117.8906C1185.5418,-108.0519 1209.3848,-92.6167 1227.1206,-81.1351"/>
<polygon fill="#191970" stroke="#191970" points="1229.268,-83.9144 1235.7605,-75.5419 1225.4639,-78.0382 1229.268,-83.9144"/>
</g>
<!-- Node24&#45;&gt;Node21 -->
<g id="edge43" class="edge">
<title>Node24&#45;&gt;Node21</title>
<path fill="none" stroke="#191970" d="M1082.1351,-120.9105C985.9286,-111.6297 826.9018,-93.8398 806.5,-76 793.4819,-64.6167 789.1159,-44.9483 787.7769,-30.0359"/>
<polygon fill="#191970" stroke="#191970" points="791.2583,-29.5825 787.2499,-19.7753 784.2676,-29.9417 791.2583,-29.5825"/>
</g>
<!-- Node25 -->
<g id="node26" class="node">
<title>Node25</title>
<polygon fill="#ffffff" stroke="#bfbfbf" points="999.5,-56.5 999.5,-75.5 1127.5,-75.5 1127.5,-56.5 999.5,-56.5"/>
<text text-anchor="middle" x="1063.5" y="-63.5" font-family="Helvetica,sans-Serif" font-size="10.00" fill="#000000">AMReX_PhysBCFunct.H</text>
</g>
<!-- Node24&#45;&gt;Node25 -->
<g id="edge44" class="edge">
<title>Node24&#45;&gt;Node25</title>
<path fill="none" stroke="#191970" d="M1141.125,-117.8906C1126.4069,-108.0519 1103.3168,-92.6167 1086.1411,-81.1351"/>
<polygon fill="#191970" stroke="#191970" points="1088.0327,-78.1896 1077.7741,-75.5419 1084.1425,-84.0091 1088.0327,-78.1896"/>
</g>
<!-- Node28 -->
<g id="node29" class="node">
<title>Node28</title>
<polygon fill="#ffffff" stroke="#bfbfbf" points="2458,-118 2458,-137 2551,-137 2551,-118 2458,-118"/>
<text text-anchor="middle" x="2504.5" y="-125" font-family="Helvetica,sans-Serif" font-size="10.00" fill="#000000">AMReX_REAL.H</text>
</g>
<!-- Node27&#45;&gt;Node28 -->
<g id="edge50" class="edge">
<title>Node27&#45;&gt;Node28</title>
<path fill="none" stroke="#191970" d="M2303.1698,-184.9005C2344.7021,-173.0594 2415.3914,-152.9054 2460.9987,-139.9025"/>
<polygon fill="#191970" stroke="#191970" points="2462.2356,-143.1894 2470.8927,-137.0817 2460.3162,-136.4577 2462.2356,-143.1894"/>
</g>
<!-- Node29 -->
<g id="node30" class="node">
<title>Node29</title>
<polygon fill="#ffffff" stroke="#bfbfbf" points="2275.5,-118 2275.5,-137 2401.5,-137 2401.5,-118 2275.5,-118"/>
<text text-anchor="middle" x="2338.5" y="-125" font-family="Helvetica,sans-Serif" font-size="10.00" fill="#000000">AMReX_GpuQualifiers.H</text>
</g>
<!-- Node27&#45;&gt;Node29 -->
<g id="edge51" class="edge">
<title>Node27&#45;&gt;Node29</title>
<path fill="none" stroke="#191970" d="M2279.386,-184.9005C2290.2484,-174.353 2307.9035,-157.2096 2321.0957,-144.3998"/>
<polygon fill="#191970" stroke="#191970" points="2323.8962,-146.559 2328.6323,-137.0817 2319.0198,-141.537 2323.8962,-146.559"/>
</g>
<!-- Node30 -->
<g id="node31" class="node">
<title>Node30</title>
<polygon fill="#ffffff" stroke="#bfbfbf" points="2147.5,-118 2147.5,-137 2257.5,-137 2257.5,-118 2147.5,-118"/>
<text text-anchor="middle" x="2202.5" y="-125" font-family="Helvetica,sans-Serif" font-size="10.00" fill="#000000">AMReX_Extension.H</text>
</g>
<!-- Node27&#45;&gt;Node30 -->
<g id="edge52" class="edge">
<title>Node27&#45;&gt;Node30</title>
<path fill="none" stroke="#191970" d="M2259.9005,-184.9005C2249.353,-174.353 2232.2096,-157.2096 2219.3998,-144.3998"/>
<polygon fill="#191970" stroke="#191970" points="2221.6276,-141.6779 2212.0817,-137.0817 2216.6779,-146.6276 2221.6276,-141.6779"/>
</g>
<!-- Node31&#45;&gt;Node13 -->
<g id="edge56" class="edge">
<title>Node31&#45;&gt;Node13</title>
<path fill="none" stroke="#191970" d="M1449.5615,-251.9005C1474.6681,-240.4574 1516.8077,-221.2509 1545.3598,-208.2374"/>
<polygon fill="#191970" stroke="#191970" points="1546.8297,-211.4139 1554.4776,-204.0817 1543.9265,-205.0443 1546.8297,-211.4139"/>
</g>
<!-- Node31&#45;&gt;Node26 -->
<g id="edge54" class="edge">
<title>Node31&#45;&gt;Node26</title>
<path fill="none" stroke="#191970" d="M1383.4267,-251.9588C1289.8224,-232.0952 1067.5821,-184.6783 881.5,-143 876.1845,-141.8094 870.6355,-140.5509 865.1051,-139.2865"/>
<polygon fill="#191970" stroke="#191970" points="865.7547,-135.8446 855.225,-137.0175 864.1878,-142.667 865.7547,-135.8446"/>
</g>
<!-- Node31&#45;&gt;Node27 -->
<g id="edge55" class="edge">
<title>Node31&#45;&gt;Node27</title>
<path fill="none" stroke="#191970" d="M1482.7096,-257.1813C1627.9698,-245.6088 2026.2555,-213.8786 2193.7296,-200.5364"/>
<polygon fill="#191970" stroke="#191970" points="2194.2505,-204.0061 2203.9409,-199.7229 2193.6945,-197.0282 2194.2505,-204.0061"/>
</g>
<!-- Node32 -->
<g id="node33" class="node">
<title>Node32</title>
<g id="a_node33"><a xlink:href="_p_d_e_base_8_h.html" target="_top" xlink:title="amr&#45;wind/equation_systems\l/PDEBase.H">
<polygon fill="#ffffff" stroke="#000000" points="264,-179.5 264,-209.5 403,-209.5 403,-179.5 264,-179.5"/>
<text text-anchor="start" x="272" y="-197.5" font-family="Helvetica,sans-Serif" font-size="10.00" fill="#000000">amr&#45;wind/equation_systems</text>
<text text-anchor="middle" x="333.5" y="-186.5" font-family="Helvetica,sans-Serif" font-size="10.00" fill="#000000">/PDEBase.H</text>
</a>
</g>
</g>
<!-- Node31&#45;&gt;Node32 -->
<g id="edge57" class="edge">
<title>Node31&#45;&gt;Node32</title>
<path fill="none" stroke="#191970" d="M1374.2361,-258.2727C1239.4383,-250.2433 878.4988,-228.6682 577.5,-210 522.7367,-206.6035 461.0662,-202.6851 413.4267,-199.6379"/>
<polygon fill="#191970" stroke="#191970" points="413.3781,-196.1277 403.175,-198.9817 412.931,-203.1134 413.3781,-196.1277"/>
</g>
<!-- Node36 -->
<g id="node37" class="node">
<title>Node36</title>
<g id="a_node37"><a xlink:href="_physics_8_h.html" target="_top" xlink:title="amr&#45;wind/core/Physics.H">
<polygon fill="#ffffff" stroke="#000000" points="587,-185 587,-204 714,-204 714,-185 587,-185"/>
<text text-anchor="middle" x="650.5" y="-192" font-family="Helvetica,sans-Serif" font-size="10.00" fill="#000000">amr&#45;wind/core/Physics.H</text>
</a>
</g>
</g>
<!-- Node31&#45;&gt;Node36 -->
<g id="edge69" class="edge">
<title>Node31&#45;&gt;Node36</title>
<path fill="none" stroke="#191970" d="M1374.3978,-256.8596C1269.3571,-247.8478 1030.4613,-227.3398 829.5,-210 795.0079,-207.0239 756.7783,-203.7149 724.5351,-200.9211"/>
<polygon fill="#191970" stroke="#191970" points="724.5541,-197.4097 714.2893,-200.0332 723.9497,-204.3836 724.5541,-197.4097"/>
</g>
<!-- Node32&#45;&gt;Node3 -->
<g id="edge59" class="edge">
<title>Node32&#45;&gt;Node3</title>
<path fill="none" stroke="#191970" d="M365.592,-179.4639C389.9098,-168.0702 423.0721,-152.5327 446.7862,-141.4219"/>
<polygon fill="#191970" stroke="#191970" points="448.4317,-144.5161 456.0021,-137.1039 445.4618,-138.1773 448.4317,-144.5161"/>
</g>
<!-- Node32&#45;&gt;Node9 -->
<g id="edge67" class="edge">
<title>Node32&#45;&gt;Node9</title>
<path fill="none" stroke="#191970" d="M299.7667,-179.3642C285.1998,-170.9147 269.6523,-158.8543 261.5,-143 255.3578,-131.0549 252.982,-65.6295 262.5,-56 286.3335,-31.8873 1448.6194,-21.2494 1482.5,-20 1526.7351,-18.3688 1575.8258,-16.2356 1616.9226,-14.3586"/>
<polygon fill="#191970" stroke="#191970" points="1617.0889,-17.8547 1626.9179,-13.9 1616.768,-10.8621 1617.0889,-17.8547"/>
</g>
<!-- Node32&#45;&gt;Node14 -->
<g id="edge58" class="edge">
<title>Node32&#45;&gt;Node14</title>
<path fill="none" stroke="#191970" d="M275.461,-179.3962C257.2448,-171.6248 239.1329,-160.0582 228.5,-143 207.2184,-108.8582 220.4308,-78.9128 253.5,-56 307.4851,-18.595 777.9809,-24.5579 843.5,-20 876.724,-17.6887 914.7684,-14.669 940.6887,-12.555"/>
<polygon fill="#191970" stroke="#191970" points="940.9871,-16.0424 950.6677,-11.7371 940.4151,-9.0658 940.9871,-16.0424"/>
</g>
<!-- Node32&#45;&gt;Node19 -->
<g id="edge68" class="edge">
<title>Node32&#45;&gt;Node19</title>
<path fill="none" stroke="#191970" d="M403.0876,-185.6076C446.2657,-178.2162 501.9937,-165.2005 547.5,-143 567.4002,-133.2916 566.2255,-120.9004 586.5,-112 624.663,-95.2466 731.7269,-81.287 805.2896,-73.2872"/>
<polygon fill="#191970" stroke="#191970" points="805.8672,-76.7454 815.4366,-72.1983 805.1202,-69.7854 805.8672,-76.7454"/>
</g>
<!-- Node33 -->
<g id="node34" class="node">
<title>Node33</title>
<g id="a_node34"><a xlink:href="_coll_mgr_8_h.html" target="_top" xlink:title="amr&#45;wind/core/CollMgr.H">
<polygon fill="#ffffff" stroke="#000000" points="271,-118 271,-137 396,-137 396,-118 271,-118"/>
<text text-anchor="middle" x="333.5" y="-125" font-family="Helvetica,sans-Serif" font-size="10.00" fill="#000000">amr&#45;wind/core/CollMgr.H</text>
</a>
</g>
</g>
<!-- Node32&#45;&gt;Node33 -->
<g id="edge60" class="edge">
<title>Node32&#45;&gt;Node33</title>
<path fill="none" stroke="#191970" d="M333.5,-179.2967C333.5,-169.7699 333.5,-157.3954 333.5,-147.1306"/>
<polygon fill="#191970" stroke="#191970" points="337.0001,-147.0549 333.5,-137.055 330.0001,-147.055 337.0001,-147.0549"/>
</g>
<!-- Node34 -->
<g id="node35" class="node">
<title>Node34</title>
<g id="a_node35"><a xlink:href="_p_d_e_fields_8_h.html" target="_top" xlink:title="amr&#45;wind/equation_systems\l/PDEFields.H">
<polygon fill="#ffffff" stroke="#000000" points="0,-112.5 0,-142.5 139,-142.5 139,-112.5 0,-112.5"/>
<text text-anchor="start" x="8" y="-130.5" font-family="Helvetica,sans-Serif" font-size="10.00" fill="#000000">amr&#45;wind/equation_systems</text>
<text text-anchor="middle" x="69.5" y="-119.5" font-family="Helvetica,sans-Serif" font-size="10.00" fill="#000000">/PDEFields.H</text>
</a>
</g>
</g>
<!-- Node32&#45;&gt;Node34 -->
<g id="edge65" class="edge">
<title>Node32&#45;&gt;Node34</title>
<path fill="none" stroke="#191970" d="M274.2532,-179.4639C234.1422,-169.2842 180.9971,-155.7966 138.9034,-145.1138"/>
<polygon fill="#191970" stroke="#191970" points="139.5589,-141.6692 129.0052,-142.6017 137.8369,-148.4541 139.5589,-141.6692"/>
</g>
<!-- Node33&#45;&gt;Node4 -->
<g id="edge62" class="edge">
<title>Node33&#45;&gt;Node4</title>
<path fill="none" stroke="#191970" d="M355.6875,-117.8906C379.4467,-107.6005 417.3405,-91.1888 444.1425,-79.5809"/>
<polygon fill="#191970" stroke="#191970" points="445.683,-82.7279 453.4683,-75.5419 442.9009,-76.3045 445.683,-82.7279"/>
</g>
<!-- Node33&#45;&gt;Node5 -->
<g id="edge63" class="edge">
<title>Node33&#45;&gt;Node5</title>
<path fill="none" stroke="#191970" d="M376.2663,-117.9916C385.5651,-115.9723 395.3555,-113.8828 404.5,-112 483.9104,-95.6495 506.2182,-92.3367 589.8086,-76.1273"/>
<polygon fill="#191970" stroke="#191970" points="590.6047,-79.5382 599.7531,-74.1943 589.2689,-72.6668 590.6047,-79.5382"/>
</g>
<!-- Node33&#45;&gt;Node14 -->
<g id="edge61" class="edge">
<title>Node33&#45;&gt;Node14</title>
<path fill="none" stroke="#191970" d="M311.8033,-117.9508C283.8297,-104.3935 241.1733,-78.689 262.5,-56 306.7984,-8.8718 778.9787,-24.519 843.5,-20 876.7229,-17.6731 914.7675,-14.6559 940.6881,-12.5469"/>
<polygon fill="#191970" stroke="#191970" points="940.9857,-16.0343 950.6672,-11.731 940.4153,-9.0576 940.9857,-16.0343"/>
</g>
<!-- Node33&#45;&gt;Node21 -->
<g id="edge64" class="edge">
<title>Node33&#45;&gt;Node21</title>
<path fill="none" stroke="#191970" d="M273.0079,-117.9584C222.1386,-107.4869 162.0605,-87.7992 191.5,-56 209.6379,-36.4082 583.8256,-18.5867 729.8493,-12.3518"/>
<polygon fill="#191970" stroke="#191970" points="730.1179,-15.8437 739.9606,-11.9231 729.8213,-8.85 730.1179,-15.8437"/>
</g>
<!-- Node35 -->
<g id="node36" class="node">
<title>Node35</title>
<polygon fill="#ffffff" stroke="#bfbfbf" points="47,-56.5 47,-75.5 92,-75.5 92,-56.5 47,-56.5"/>
<text text-anchor="middle" x="69.5" y="-63.5" font-family="Helvetica,sans-Serif" font-size="10.00" fill="#000000">iosfwd</text>
</g>
<!-- Node34&#45;&gt;Node35 -->
<g id="edge66" class="edge">
<title>Node34&#45;&gt;Node35</title>
<path fill="none" stroke="#191970" d="M69.5,-112.2977C69.5,-104.3834 69.5,-94.6043 69.5,-86.0759"/>
<polygon fill="#191970" stroke="#191970" points="73.0001,-85.8469 69.5,-75.8469 66.0001,-85.847 73.0001,-85.8469"/>
</g>
<!-- Node36&#45;&gt;Node3 -->
<g id="edge70" class="edge">
<title>Node36&#45;&gt;Node3</title>
<path fill="none" stroke="#191970" d="M625.57,-184.9005C595.4645,-173.3082 544.6679,-153.7486 510.862,-140.7313"/>
<polygon fill="#191970" stroke="#191970" points="511.9735,-137.4089 501.3837,-137.0817 509.4581,-143.9413 511.9735,-137.4089"/>
</g>
<!-- Node36&#45;&gt;Node11 -->
<g id="edge72" class="edge">
<title>Node36&#45;&gt;Node11</title>
<path fill="none" stroke="#191970" d="M663.009,-184.9131C676.0876,-174.7796 697.0927,-158.1916 714.5,-143 756.9002,-105.9968 755.0249,-78.7448 806.5,-56 856.1428,-34.0648 1212.942,-18.02 1359.2043,-12.295"/>
<polygon fill="#191970" stroke="#191970" points="1359.5075,-15.786 1369.3642,-11.9007 1359.236,-8.7913 1359.5075,-15.786"/>
</g>
<!-- Node36&#45;&gt;Node33 -->
<g id="edge71" class="edge">
<title>Node36&#45;&gt;Node33</title>
<path fill="none" stroke="#191970" d="M604.2287,-184.9364C554.7646,-174.684 474.0515,-157.8719 404.5,-143 398.8092,-141.7832 392.8642,-140.5016 386.9413,-139.2182"/>
<polygon fill="#191970" stroke="#191970" points="387.5584,-135.7707 377.0432,-137.0677 386.0721,-142.6111 387.5584,-135.7707"/>
</g>
<!-- Node37 -->
<g id="node38" class="node">
<title>Node37</title>
<polygon fill="#ffffff" stroke="#bfbfbf" points="595.5,-118 595.5,-137 705.5,-137 705.5,-118 595.5,-118"/>
<text text-anchor="middle" x="650.5" y="-125" font-family="Helvetica,sans-Serif" font-size="10.00" fill="#000000">AMReX_Geometry.H</text>
</g>
<!-- Node36&#45;&gt;Node37 -->
<g id="edge73" class="edge">
<title>Node36&#45;&gt;Node37</title>
<path fill="none" stroke="#191970" d="M650.5,-184.9005C650.5,-175.149 650.5,-159.7597 650.5,-147.3695"/>
<polygon fill="#191970" stroke="#191970" points="654.0001,-147.0816 650.5,-137.0817 647.0001,-147.0817 654.0001,-147.0816"/>
</g>
<!-- Node38&#45;&gt;Node18 -->
<g id="edge77" class="edge">
<title>Node38&#45;&gt;Node18</title>
<path fill="none" stroke="#191970" d="M2579.5,-179.2548C2579.5,-155.9744 2579.5,-111.5607 2579.5,-85.8117"/>
<polygon fill="#191970" stroke="#191970" points="2583.0001,-85.7358 2579.5,-75.7358 2576.0001,-85.7358 2583.0001,-85.7358"/>
</g>
<!-- Node38&#45;&gt;Node28 -->
<g id="edge76" class="edge">
<title>Node38&#45;&gt;Node28</title>
<path fill="none" stroke="#191970" d="M2562.4813,-179.2967C2550.6825,-168.7564 2534.9816,-154.7303 2522.8943,-143.9323"/>
<polygon fill="#191970" stroke="#191970" points="2524.9853,-141.107 2515.1959,-137.055 2520.3217,-146.3273 2524.9853,-141.107"/>
</g>
<!-- Node39 -->
<g id="node40" class="node">
<title>Node39</title>
<polygon fill="#ffffff" stroke="#bfbfbf" points="2607.5,-118 2607.5,-137 2651.5,-137 2651.5,-118 2607.5,-118"/>
<text text-anchor="middle" x="2629.5" y="-125" font-family="Helvetica,sans-Serif" font-size="10.00" fill="#000000">cmath</text>
</g>
<!-- Node38&#45;&gt;Node39 -->
<g id="edge75" class="edge">
<title>Node38&#45;&gt;Node39</title>
<path fill="none" stroke="#191970" d="M2590.8458,-179.2967C2598.4091,-169.1618 2608.3776,-155.804 2616.2969,-145.1921"/>
<polygon fill="#191970" stroke="#191970" points="2619.1936,-147.1626 2622.3694,-137.055 2613.5835,-142.976 2619.1936,-147.1626"/>
</g>
</g>
</svg>
