<?xml version="1.0" encoding="UTF-8" standalone="no"?>
<!DOCTYPE svg PUBLIC "-//W3C//DTD SVG 1.1//EN"
 "http://www.w3.org/Graphics/SVG/1.1/DTD/svg11.dtd">
<!-- Generated by graphviz version 2.40.1 (20161225.0304)
 -->
<!-- Title: BoussinesqBubble.H Pages: 1 -->
<svg width="1772pt" height="207pt"
 viewBox="0.00 0.00 1772.07 207.00" xmlns="http://www.w3.org/2000/svg" xmlns:xlink="http://www.w3.org/1999/xlink">
<g id="graph0" class="graph" transform="scale(1 1) rotate(0) translate(4 203)">
<title>BoussinesqBubble.H</title>
<polygon fill="#ffffff" stroke="transparent" points="-4,4 -4,-203 1768.067,-203 1768.067,4 -4,4"/>
<!-- Node0 -->
<g id="node1" class="node">
<title>Node0</title>
<polygon fill="#bfbfbf" stroke="#000000" points="756.5,-179.5 756.5,-198.5 864.5,-198.5 864.5,-179.5 756.5,-179.5"/>
<text text-anchor="middle" x="810.5" y="-186.5" font-family="Helvetica,sans-Serif" font-size="10.00" fill="#000000">BoussinesqBubble.H</text>
</g>
<!-- Node1 -->
<g id="node2" class="node">
<title>Node1</title>
<g id="a_node2"><a xlink:href="_physics_8_h.html" target="_top" xlink:title="amr&#45;wind/core/Physics.H">
<polygon fill="#ffffff" stroke="#000000" points="327,-118 327,-137 454,-137 454,-118 327,-118"/>
<text text-anchor="middle" x="390.5" y="-125" font-family="Helvetica,sans-Serif" font-size="10.00" fill="#000000">amr&#45;wind/core/Physics.H</text>
</a>
</g>
</g>
<!-- Node0&#45;&gt;Node1 -->
<g id="edge1" class="edge">
<title>Node0&#45;&gt;Node1</title>
<path fill="none" stroke="#191970" d="M756.4522,-181.0859C682.044,-170.1904 547.7927,-150.5321 464.2227,-138.2951"/>
<polygon fill="#191970" stroke="#191970" points="464.6915,-134.8265 454.2899,-136.8407 463.6772,-141.7526 464.6915,-134.8265"/>
</g>
<!-- Node13 -->
<g id="node14" class="node">
<title>Node13</title>
<g id="a_node14"><a xlink:href="_boussinesq_bubble_field_init_8_h.html" target="_top" xlink:title="amr&#45;wind/physics/Boussinesq\lBubbleFieldInit.H">
<polygon fill="#ffffff" stroke="#000000" points="737,-112.5 737,-142.5 884,-142.5 884,-112.5 737,-112.5"/>
<text text-anchor="start" x="745" y="-130.5" font-family="Helvetica,sans-Serif" font-size="10.00" fill="#000000">amr&#45;wind/physics/Boussinesq</text>
<text text-anchor="middle" x="810.5" y="-119.5" font-family="Helvetica,sans-Serif" font-size="10.00" fill="#000000">BubbleFieldInit.H</text>
</a>
</g>
</g>
<!-- Node0&#45;&gt;Node13 -->
<g id="edge15" class="edge">
<title>Node0&#45;&gt;Node13</title>
<path fill="none" stroke="#191970" d="M810.5,-179.3906C810.5,-172.2234 810.5,-162.0862 810.5,-152.671"/>
<polygon fill="#191970" stroke="#191970" points="814.0001,-152.5446 810.5,-142.5446 807.0001,-152.5446 814.0001,-152.5446"/>
</g>
<!-- Node19 -->
<g id="node20" class="node">
<title>Node19</title>
<g id="a_node20"><a xlink:href="_field_8_h.html" target="_top" xlink:title="amr&#45;wind/core/Field.H">
<polygon fill="#ffffff" stroke="#000000" points="1248,-118 1248,-137 1361,-137 1361,-118 1248,-118"/>
<text text-anchor="middle" x="1304.5" y="-125" font-family="Helvetica,sans-Serif" font-size="10.00" fill="#000000">amr&#45;wind/core/Field.H</text>
</a>
</g>
</g>
<!-- Node0&#45;&gt;Node19 -->
<g id="edge23" class="edge">
<title>Node0&#45;&gt;Node19</title>
<path fill="none" stroke="#191970" d="M864.7798,-182.2425C955.7993,-170.9111 1138.9133,-148.1145 1237.6921,-135.8172"/>
<polygon fill="#191970" stroke="#191970" points="1238.3635,-139.2607 1247.8545,-134.552 1237.4987,-132.3143 1238.3635,-139.2607"/>
</g>
<!-- Node2 -->
<g id="node3" class="node">
<title>Node2</title>
<g id="a_node3"><a xlink:href="_factory_8_h.html" target="_top" xlink:title="amr&#45;wind/core/Factory.H">
<polygon fill="#ffffff" stroke="#000000" points="94,-56.5 94,-75.5 219,-75.5 219,-56.5 94,-56.5"/>
<text text-anchor="middle" x="156.5" y="-63.5" font-family="Helvetica,sans-Serif" font-size="10.00" fill="#000000">amr&#45;wind/core/Factory.H</text>
</a>
</g>
</g>
<!-- Node1&#45;&gt;Node2 -->
<g id="edge2" class="edge">
<title>Node1&#45;&gt;Node2</title>
<path fill="none" stroke="#191970" d="M354.1942,-117.9581C313.3781,-107.2308 247.0162,-89.7895 202.577,-78.11"/>
<polygon fill="#191970" stroke="#191970" points="203.4522,-74.7212 192.8909,-75.5643 201.6728,-81.4913 203.4522,-74.7212"/>
</g>
<!-- Node8 -->
<g id="node9" class="node">
<title>Node8</title>
<g id="a_node9"><a xlink:href="_coll_mgr_8_h.html" target="_top" xlink:title="amr&#45;wind/core/CollMgr.H">
<polygon fill="#ffffff" stroke="#000000" points="237,-56.5 237,-75.5 362,-75.5 362,-56.5 237,-56.5"/>
<text text-anchor="middle" x="299.5" y="-63.5" font-family="Helvetica,sans-Serif" font-size="10.00" fill="#000000">amr&#45;wind/core/CollMgr.H</text>
</a>
</g>
</g>
<!-- Node1&#45;&gt;Node8 -->
<g id="edge8" class="edge">
<title>Node1&#45;&gt;Node8</title>
<path fill="none" stroke="#191970" d="M376.2813,-117.8906C361.8566,-108.1421 339.3024,-92.8994 322.364,-81.4521"/>
<polygon fill="#191970" stroke="#191970" points="323.8641,-78.2415 313.6189,-75.5419 319.9444,-84.0412 323.8641,-78.2415"/>
</g>
<!-- Node11 -->
<g id="node12" class="node">
<title>Node11</title>
<polygon fill="#ffffff" stroke="#bfbfbf" points="1252.5,-.5 1252.5,-19.5 1356.5,-19.5 1356.5,-.5 1252.5,-.5"/>
<text text-anchor="middle" x="1304.5" y="-7.5" font-family="Helvetica,sans-Serif" font-size="10.00" fill="#000000">AMReX_MultiFab.H</text>
</g>
<!-- Node1&#45;&gt;Node11 -->
<g id="edge13" class="edge">
<title>Node1&#45;&gt;Node11</title>
<path fill="none" stroke="#191970" d="M389.8175,-117.9974C389.2719,-102.2646 390.7823,-71.0508 409.5,-56 445.4254,-27.1126 1192.6172,-24.4593 1238.5,-20 1239.7652,-19.877 1241.0432,-19.7462 1242.3305,-19.6085"/>
<polygon fill="#191970" stroke="#191970" points="1242.8033,-23.0771 1252.3255,-18.432 1241.9849,-16.1251 1242.8033,-23.0771"/>
</g>
<!-- Node12 -->
<g id="node13" class="node">
<title>Node12</title>
<polygon fill="#ffffff" stroke="#bfbfbf" points="418.5,-56.5 418.5,-75.5 528.5,-75.5 528.5,-56.5 418.5,-56.5"/>
<text text-anchor="middle" x="473.5" y="-63.5" font-family="Helvetica,sans-Serif" font-size="10.00" fill="#000000">AMReX_Geometry.H</text>
</g>
<!-- Node1&#45;&gt;Node12 -->
<g id="edge14" class="edge">
<title>Node1&#45;&gt;Node12</title>
<path fill="none" stroke="#191970" d="M403.4688,-117.8906C416.5034,-108.2324 436.8164,-93.1812 452.2155,-81.771"/>
<polygon fill="#191970" stroke="#191970" points="454.6713,-84.3075 460.6223,-75.5419 450.5039,-78.6832 454.6713,-84.3075"/>
</g>
<!-- Node3 -->
<g id="node4" class="node">
<title>Node3</title>
<polygon fill="#ffffff" stroke="#bfbfbf" points="359.5,-.5 359.5,-19.5 411.5,-19.5 411.5,-.5 359.5,-.5"/>
<text text-anchor="middle" x="385.5" y="-7.5" font-family="Helvetica,sans-Serif" font-size="10.00" fill="#000000">memory</text>
</g>
<!-- Node2&#45;&gt;Node3 -->
<g id="edge3" class="edge">
<title>Node2&#45;&gt;Node3</title>
<path fill="none" stroke="#191970" d="M198.4,-56.4841C237.5684,-47.4771 297.6351,-33.3794 349.5,-20 349.5981,-19.9747 349.6964,-19.9493 349.7948,-19.9239"/>
<polygon fill="#191970" stroke="#191970" points="350.4172,-23.38 359.1841,-17.4308 348.6208,-16.6144 350.4172,-23.38"/>
</g>
<!-- Node4 -->
<g id="node5" class="node">
<title>Node4</title>
<polygon fill="#ffffff" stroke="#bfbfbf" points="258,-.5 258,-19.5 341,-19.5 341,-.5 258,-.5"/>
<text text-anchor="middle" x="299.5" y="-7.5" font-family="Helvetica,sans-Serif" font-size="10.00" fill="#000000">unordered_map</text>
</g>
<!-- Node2&#45;&gt;Node4 -->
<g id="edge4" class="edge">
<title>Node2&#45;&gt;Node4</title>
<path fill="none" stroke="#191970" d="M181.0826,-56.3733C204.4496,-47.2226 239.7862,-33.3844 265.7784,-23.2057"/>
<polygon fill="#191970" stroke="#191970" points="267.203,-26.4066 275.2382,-19.5011 264.6505,-19.8886 267.203,-26.4066"/>
</g>
<!-- Node5 -->
<g id="node6" class="node">
<title>Node5</title>
<polygon fill="#ffffff" stroke="#bfbfbf" points="185.5,-.5 185.5,-19.5 239.5,-19.5 239.5,-.5 185.5,-.5"/>
<text text-anchor="middle" x="212.5" y="-7.5" font-family="Helvetica,sans-Serif" font-size="10.00" fill="#000000">iostream</text>
</g>
<!-- Node2&#45;&gt;Node5 -->
<g id="edge5" class="edge">
<title>Node2&#45;&gt;Node5</title>
<path fill="none" stroke="#191970" d="M166.2545,-56.2455C174.3648,-48.1352 186.0925,-36.4075 195.7081,-26.7919"/>
<polygon fill="#191970" stroke="#191970" points="198.2611,-29.1887 202.8573,-19.6427 193.3113,-24.2389 198.2611,-29.1887"/>
</g>
<!-- Node6 -->
<g id="node7" class="node">
<title>Node6</title>
<polygon fill="#ffffff" stroke="#bfbfbf" points="0,-.5 0,-19.5 87,-19.5 87,-.5 0,-.5"/>
<text text-anchor="middle" x="43.5" y="-7.5" font-family="Helvetica,sans-Serif" font-size="10.00" fill="#000000">AMReX_Print.H</text>
</g>
<!-- Node2&#45;&gt;Node6 -->
<g id="edge6" class="edge">
<title>Node2&#45;&gt;Node6</title>
<path fill="none" stroke="#191970" d="M137.0746,-56.3733C119.0979,-47.4644 92.1559,-34.1127 71.791,-24.0203"/>
<polygon fill="#191970" stroke="#191970" points="73.1861,-20.8055 62.6719,-19.5011 70.0778,-27.0776 73.1861,-20.8055"/>
</g>
<!-- Node7 -->
<g id="node8" class="node">
<title>Node7</title>
<polygon fill="#ffffff" stroke="#bfbfbf" points="105.5,-.5 105.5,-19.5 167.5,-19.5 167.5,-.5 105.5,-.5"/>
<text text-anchor="middle" x="136.5" y="-7.5" font-family="Helvetica,sans-Serif" font-size="10.00" fill="#000000">AMReX.H</text>
</g>
<!-- Node2&#45;&gt;Node7 -->
<g id="edge7" class="edge">
<title>Node2&#45;&gt;Node7</title>
<path fill="none" stroke="#191970" d="M153.0163,-56.2455C150.3492,-48.7776 146.5867,-38.2427 143.3263,-29.1137"/>
<polygon fill="#191970" stroke="#191970" points="146.6033,-27.8829 139.9438,-19.6427 140.0111,-30.2373 146.6033,-27.8829"/>
</g>
<!-- Node8&#45;&gt;Node3 -->
<g id="edge10" class="edge">
<title>Node8&#45;&gt;Node3</title>
<path fill="none" stroke="#191970" d="M314.4801,-56.2455C327.6751,-47.6534 347.1051,-35.0014 362.3079,-25.1018"/>
<polygon fill="#191970" stroke="#191970" points="364.2215,-28.0325 370.6916,-19.6427 360.4017,-22.1665 364.2215,-28.0325"/>
</g>
<!-- Node8&#45;&gt;Node4 -->
<g id="edge11" class="edge">
<title>Node8&#45;&gt;Node4</title>
<path fill="none" stroke="#191970" d="M299.5,-56.2455C299.5,-48.9382 299.5,-38.6944 299.5,-29.7046"/>
<polygon fill="#191970" stroke="#191970" points="303.0001,-29.6426 299.5,-19.6427 296.0001,-29.6427 303.0001,-29.6426"/>
</g>
<!-- Node9 -->
<g id="node10" class="node">
<title>Node9</title>
<polygon fill="#ffffff" stroke="#bfbfbf" points="1189,-.5 1189,-19.5 1230,-19.5 1230,-.5 1189,-.5"/>
<text text-anchor="middle" x="1209.5" y="-7.5" font-family="Helvetica,sans-Serif" font-size="10.00" fill="#000000">string</text>
</g>
<!-- Node8&#45;&gt;Node9 -->
<g id="edge9" class="edge">
<title>Node8&#45;&gt;Node9</title>
<path fill="none" stroke="#191970" d="M362.0711,-57.4722C366.9486,-56.9302 371.8016,-56.4305 376.5,-56 673.9053,-28.7491 749.3446,-37.2003 1047.5,-20 1093.1207,-17.3682 1145.9506,-14.0579 1178.5493,-11.9848"/>
<polygon fill="#191970" stroke="#191970" points="1179.0323,-15.4612 1188.7893,-11.332 1178.5868,-8.4754 1179.0323,-15.4612"/>
</g>
<!-- Node10 -->
<g id="node11" class="node">
<title>Node10</title>
<polygon fill="#ffffff" stroke="#bfbfbf" points="944,-.5 944,-19.5 1039,-19.5 1039,-.5 944,-.5"/>
<text text-anchor="middle" x="991.5" y="-7.5" font-family="Helvetica,sans-Serif" font-size="10.00" fill="#000000">AMReX_Vector.H</text>
</g>
<!-- Node8&#45;&gt;Node10 -->
<g id="edge12" class="edge">
<title>Node8&#45;&gt;Node10</title>
<path fill="none" stroke="#191970" d="M362.0818,-57.5827C366.9569,-57.0156 371.8064,-56.48 376.5,-56 581.0645,-35.0819 824.8294,-19.6602 933.8443,-13.261"/>
<polygon fill="#191970" stroke="#191970" points="934.1887,-16.747 943.9677,-12.67 933.7806,-9.7589 934.1887,-16.747"/>
</g>
<!-- Node13&#45;&gt;Node10 -->
<g id="edge21" class="edge">
<title>Node13&#45;&gt;Node10</title>
<path fill="none" stroke="#191970" d="M878.5236,-112.4512C916.17,-102.8606 958.0127,-89.696 971.5,-76 983.55,-63.7636 988.3755,-44.5194 990.2893,-29.9618"/>
<polygon fill="#191970" stroke="#191970" points="993.7799,-30.2268 991.2567,-19.9368 986.8123,-29.5544 993.7799,-30.2268"/>
</g>
<!-- Node13&#45;&gt;Node12 -->
<g id="edge19" class="edge">
<title>Node13&#45;&gt;Node12</title>
<path fill="none" stroke="#191970" d="M736.9604,-114.0796C676.7608,-103.0936 592.5512,-87.726 535.6727,-77.3461"/>
<polygon fill="#191970" stroke="#191970" points="536.2001,-73.8846 525.7342,-75.5324 534.9434,-80.7708 536.2001,-73.8846"/>
</g>
<!-- Node14 -->
<g id="node15" class="node">
<title>Node14</title>
<polygon fill="#ffffff" stroke="#bfbfbf" points="546.5,-56.5 546.5,-75.5 636.5,-75.5 636.5,-56.5 546.5,-56.5"/>
<text text-anchor="middle" x="591.5" y="-63.5" font-family="Helvetica,sans-Serif" font-size="10.00" fill="#000000">AMReX_Array.H</text>
</g>
<!-- Node13&#45;&gt;Node14 -->
<g id="edge16" class="edge">
<title>Node13&#45;&gt;Node14</title>
<path fill="none" stroke="#191970" d="M756.9266,-112.4554C719.5845,-101.9689 670.3808,-88.1515 635.3664,-78.3187"/>
<polygon fill="#191970" stroke="#191970" points="636.0111,-74.8644 625.4372,-75.5303 634.1185,-81.6037 636.0111,-74.8644"/>
</g>
<!-- Node15 -->
<g id="node16" class="node">
<title>Node15</title>
<polygon fill="#ffffff" stroke="#bfbfbf" points="655,-56.5 655,-75.5 750,-75.5 750,-56.5 655,-56.5"/>
<text text-anchor="middle" x="702.5" y="-63.5" font-family="Helvetica,sans-Serif" font-size="10.00" fill="#000000">AMReX_Array4.H</text>
</g>
<!-- Node13&#45;&gt;Node15 -->
<g id="edge17" class="edge">
<title>Node13&#45;&gt;Node15</title>
<path fill="none" stroke="#191970" d="M784.0802,-112.4554C767.0086,-102.734 744.9098,-90.15 728.0191,-80.5317"/>
<polygon fill="#191970" stroke="#191970" points="729.658,-77.4373 719.2362,-75.5303 726.1941,-83.5202 729.658,-77.4373"/>
</g>
<!-- Node16 -->
<g id="node17" class="node">
<title>Node16</title>
<polygon fill="#ffffff" stroke="#bfbfbf" points="768.5,-56.5 768.5,-75.5 852.5,-75.5 852.5,-56.5 768.5,-56.5"/>
<text text-anchor="middle" x="810.5" y="-63.5" font-family="Helvetica,sans-Serif" font-size="10.00" fill="#000000">AMReX_Box.H</text>
</g>
<!-- Node13&#45;&gt;Node16 -->
<g id="edge18" class="edge">
<title>Node13&#45;&gt;Node16</title>
<path fill="none" stroke="#191970" d="M810.5,-112.2977C810.5,-104.3834 810.5,-94.6043 810.5,-86.0759"/>
<polygon fill="#191970" stroke="#191970" points="814.0001,-85.8469 810.5,-75.8469 807.0001,-85.847 814.0001,-85.8469"/>
</g>
<!-- Node17 -->
<g id="node18" class="node">
<title>Node17</title>
<polygon fill="#ffffff" stroke="#bfbfbf" points="870,-56.5 870,-75.5 963,-75.5 963,-56.5 870,-56.5"/>
<text text-anchor="middle" x="916.5" y="-63.5" font-family="Helvetica,sans-Serif" font-size="10.00" fill="#000000">AMReX_REAL.H</text>
</g>
<!-- Node13&#45;&gt;Node17 -->
<g id="edge20" class="edge">
<title>Node13&#45;&gt;Node17</title>
<path fill="none" stroke="#191970" d="M836.4305,-112.4554C853.0309,-102.8241 874.4744,-90.3828 890.9917,-80.7996"/>
<polygon fill="#191970" stroke="#191970" points="893.1806,-83.5761 900.0738,-75.5303 889.6677,-77.5214 893.1806,-83.5761"/>
</g>
<!-- Node18 -->
<g id="node19" class="node">
<title>Node18</title>
<polygon fill="#ffffff" stroke="#bfbfbf" points="1020,-56.5 1020,-75.5 1105,-75.5 1105,-56.5 1020,-56.5"/>
<text text-anchor="middle" x="1062.5" y="-63.5" font-family="Helvetica,sans-Serif" font-size="10.00" fill="#000000">AMReX_Gpu.H</text>
</g>
<!-- Node13&#45;&gt;Node18 -->
<g id="edge22" class="edge">
<title>Node13&#45;&gt;Node18</title>
<path fill="none" stroke="#191970" d="M872.1461,-112.4554C915.6683,-101.8339 973.1933,-87.7951 1013.5717,-77.9408"/>
<polygon fill="#191970" stroke="#191970" points="1014.5639,-81.3015 1023.4489,-75.5303 1012.9042,-74.5011 1014.5639,-81.3015"/>
</g>
<!-- Node19&#45;&gt;Node3 -->
<g id="edge25" class="edge">
<title>Node19&#45;&gt;Node3</title>
<path fill="none" stroke="#191970" d="M1288.7186,-117.9229C1261.1994,-101.7818 1202.1414,-69.5931 1147.5,-56 1007.4086,-21.1495 553.9341,-12.3015 421.8897,-10.4383"/>
<polygon fill="#191970" stroke="#191970" points="421.9285,-6.9386 411.8817,-10.302 421.8331,-13.938 421.9285,-6.9386"/>
</g>
<!-- Node19&#45;&gt;Node4 -->
<g id="edge26" class="edge">
<title>Node19&#45;&gt;Node4</title>
<path fill="none" stroke="#191970" d="M1268.1297,-117.9737C1235.7643,-108.9364 1187.4968,-94.0703 1147.5,-76 1131.5233,-68.7818 1130.3024,-61.0037 1113.5,-56 953.8349,-8.452 534.9469,-39.1949 351.3279,-19.8389"/>
<polygon fill="#191970" stroke="#191970" points="351.5001,-16.3361 341.1693,-18.6865 350.711,-23.2915 351.5001,-16.3361"/>
</g>
<!-- Node19&#45;&gt;Node9 -->
<g id="edge24" class="edge">
<title>Node19&#45;&gt;Node9</title>
<path fill="none" stroke="#191970" d="M1282.7313,-117.9296C1265.5913,-109.3212 1242.3548,-95.0914 1228.5,-76 1218.6637,-62.4458 1213.9014,-43.8978 1211.6064,-29.9155"/>
<polygon fill="#191970" stroke="#191970" points="1215.0555,-29.3033 1210.2449,-19.8635 1208.1188,-30.2428 1215.0555,-29.3033"/>
</g>
<!-- Node19&#45;&gt;Node11 -->
<g id="edge28" class="edge">
<title>Node19&#45;&gt;Node11</title>
<path fill="none" stroke="#191970" d="M1329.5878,-117.7974C1357.1455,-105.5555 1395.6218,-82.8286 1380.5,-56 1372.362,-41.5618 1357.6645,-31.1395 1343.3484,-23.9057"/>
<polygon fill="#191970" stroke="#191970" points="1344.613,-20.6342 1334.0685,-19.6024 1341.6681,-26.9846 1344.613,-20.6342"/>
</g>
<!-- Node19&#45;&gt;Node18 -->
<g id="edge30" class="edge">
<title>Node19&#45;&gt;Node18</title>
<path fill="none" stroke="#191970" d="M1266.953,-117.9581C1224.6528,-107.2082 1155.8223,-89.7162 1109.863,-78.0365"/>
<polygon fill="#191970" stroke="#191970" points="1110.6891,-74.6352 1100.1351,-75.5643 1108.9649,-81.4196 1110.6891,-74.6352"/>
</g>
<!-- Node20 -->
<g id="node21" class="node">
<title>Node20</title>
<polygon fill="#ffffff" stroke="#bfbfbf" points="1427.5,-56.5 1427.5,-75.5 1483.5,-75.5 1483.5,-56.5 1427.5,-56.5"/>
<text text-anchor="middle" x="1455.5" y="-63.5" font-family="Helvetica,sans-Serif" font-size="10.00" fill="#000000">algorithm</text>
</g>
<!-- Node19&#45;&gt;Node20 -->
<g id="edge27" class="edge">
<title>Node19&#45;&gt;Node20</title>
<path fill="none" stroke="#191970" d="M1328.0938,-117.8906C1353.4696,-107.5554 1394.0081,-91.0447 1422.5293,-79.4284"/>
<polygon fill="#191970" stroke="#191970" points="1424.1308,-82.5554 1432.0719,-75.5419 1421.4904,-76.0725 1424.1308,-82.5554"/>
</g>
<!-- Node21 -->
<g id="node22" class="node">
<title>Node21</title>
<polygon fill="#ffffff" stroke="#bfbfbf" points="1502,-56.5 1502,-75.5 1601,-75.5 1601,-56.5 1502,-56.5"/>
<text text-anchor="middle" x="1551.5" y="-63.5" font-family="Helvetica,sans-Serif" font-size="10.00" fill="#000000">AMReX_BCRec.H</text>
</g>
<!-- Node19&#45;&gt;Node21 -->
<g id="edge29" class="edge">
<title>Node19&#45;&gt;Node21</title>
<path fill="none" stroke="#191970" d="M1342.8227,-117.9581C1385.997,-107.2082 1456.2495,-89.7162 1503.1584,-78.0365"/>
<polygon fill="#191970" stroke="#191970" points="1504.2293,-81.3768 1513.0874,-75.5643 1502.538,-74.5842 1504.2293,-81.3768"/>
</g>
<!-- Node22 -->
<g id="node23" class="node">
<title>Node22</title>
<g id="a_node23"><a xlink:href="incflo__enums_8_h.html" target="_top" xlink:title="amr&#45;wind/incflo_enums.H">
<polygon fill="#ffffff" stroke="#000000" points="1619.5,-56.5 1619.5,-75.5 1747.5,-75.5 1747.5,-56.5 1619.5,-56.5"/>
<text text-anchor="middle" x="1683.5" y="-63.5" font-family="Helvetica,sans-Serif" font-size="10.00" fill="#000000">amr&#45;wind/incflo_enums.H</text>
</a>
</g>
</g>
<!-- Node19&#45;&gt;Node22 -->
<g id="edge31" class="edge">
<title>Node19&#45;&gt;Node22</title>
<path fill="none" stroke="#191970" d="M1361.2401,-118.2928C1428.9866,-107.2997 1542.2261,-88.9244 1614.8434,-77.1409"/>
<polygon fill="#191970" stroke="#191970" points="1615.5012,-80.58 1624.8114,-75.5233 1614.3799,-73.6704 1615.5012,-80.58"/>
</g>
<!-- Node23 -->
<g id="node24" class="node">
<title>Node23</title>
<g id="a_node24"><a xlink:href="_field_desc_types_8_h.html" target="_top" xlink:title="amr&#45;wind/core/FieldDescTypes.H">
<polygon fill="#ffffff" stroke="#000000" points="1534,-.5 1534,-19.5 1697,-19.5 1697,-.5 1534,-.5"/>
<text text-anchor="middle" x="1615.5" y="-7.5" font-family="Helvetica,sans-Serif" font-size="10.00" fill="#000000">amr&#45;wind/core/FieldDescTypes.H</text>
</a>
</g>
</g>
<!-- Node19&#45;&gt;Node23 -->
<g id="edge32" class="edge">
<title>Node19&#45;&gt;Node23</title>
<path fill="none" stroke="#191970" d="M1361.3314,-125.1787C1476.8966,-119.8735 1730.5988,-105.0199 1756.5,-76 1781.1479,-48.3843 1739.0717,-31.4271 1694.6077,-21.6278"/>
<polygon fill="#191970" stroke="#191970" points="1695.3107,-18.1992 1684.8068,-19.585 1693.8822,-25.0519 1695.3107,-18.1992"/>
</g>
<!-- Node24 -->
<g id="node25" class="node">
<title>Node24</title>
<g id="a_node25"><a xlink:href="_view_field_8_h.html" target="_top" xlink:title="amr&#45;wind/core/ViewField.H">
<polygon fill="#ffffff" stroke="#000000" points="1237.5,-56.5 1237.5,-75.5 1371.5,-75.5 1371.5,-56.5 1237.5,-56.5"/>
<text text-anchor="middle" x="1304.5" y="-63.5" font-family="Helvetica,sans-Serif" font-size="10.00" fill="#000000">amr&#45;wind/core/ViewField.H</text>
</a>
</g>
</g>
<!-- Node19&#45;&gt;Node24 -->
<g id="edge33" class="edge">
<title>Node19&#45;&gt;Node24</title>
<path fill="none" stroke="#191970" d="M1304.5,-117.8906C1304.5,-109.3657 1304.5,-96.6392 1304.5,-85.9235"/>
<polygon fill="#191970" stroke="#191970" points="1308.0001,-85.7448 1304.5,-75.7449 1301.0001,-85.7449 1308.0001,-85.7448"/>
</g>
<!-- Node24&#45;&gt;Node9 -->
<g id="edge34" class="edge">
<title>Node24&#45;&gt;Node9</title>
<path fill="none" stroke="#191970" d="M1287.9523,-56.2455C1273.2401,-47.5731 1251.5112,-34.7645 1234.6495,-24.825"/>
<polygon fill="#191970" stroke="#191970" points="1236.2502,-21.7057 1225.8581,-19.6427 1232.6954,-27.736 1236.2502,-21.7057"/>
</g>
<!-- Node24&#45;&gt;Node10 -->
<g id="edge37" class="edge">
<title>Node24&#45;&gt;Node10</title>
<path fill="none" stroke="#191970" d="M1251.049,-56.4369C1194.8819,-46.3878 1106.8363,-30.6352 1049.1422,-20.313"/>
<polygon fill="#191970" stroke="#191970" points="1049.5519,-16.8308 1039.0918,-18.5148 1048.3191,-23.7214 1049.5519,-16.8308"/>
</g>
<!-- Node24&#45;&gt;Node11 -->
<g id="edge36" class="edge">
<title>Node24&#45;&gt;Node11</title>
<path fill="none" stroke="#191970" d="M1304.5,-56.2455C1304.5,-48.9382 1304.5,-38.6944 1304.5,-29.7046"/>
<polygon fill="#191970" stroke="#191970" points="1308.0001,-29.6426 1304.5,-19.6427 1301.0001,-29.6427 1308.0001,-29.6426"/>
</g>
<!-- Node24&#45;&gt;Node23 -->
<g id="edge35" class="edge">
<title>Node24&#45;&gt;Node23</title>
<path fill="none" stroke="#191970" d="M1357.6094,-56.4369C1411.6174,-46.712 1495.2896,-31.6456 1552.5864,-21.3285"/>
<polygon fill="#191970" stroke="#191970" points="1553.3882,-24.7405 1562.6096,-19.5237 1552.1476,-17.8513 1553.3882,-24.7405"/>
</g>
</g>
</svg>
