<?xml version="1.0" encoding="UTF-8" standalone="no"?>
<!DOCTYPE svg PUBLIC "-//W3C//DTD SVG 1.1//EN"
 "http://www.w3.org/Graphics/SVG/1.1/DTD/svg11.dtd">
<!-- Generated by graphviz version 2.40.1 (20161225.0304)
 -->
<!-- Title: BoussinesqBuoyancy.H Pages: 1 -->
<svg width="1964pt" height="319pt"
 viewBox="0.00 0.00 1964.44 319.00" xmlns="http://www.w3.org/2000/svg" xmlns:xlink="http://www.w3.org/1999/xlink">
<g id="graph0" class="graph" transform="scale(1 1) rotate(0) translate(4 315)">
<title>BoussinesqBuoyancy.H</title>
<polygon fill="#ffffff" stroke="transparent" points="-4,4 -4,-315 1960.4439,-315 1960.4439,4 -4,4"/>
<!-- Node0 -->
<g id="node1" class="node">
<title>Node0</title>
<polygon fill="#bfbfbf" stroke="#000000" points="1260.9439,-291.5 1260.9439,-310.5 1382.9439,-310.5 1382.9439,-291.5 1260.9439,-291.5"/>
<text text-anchor="middle" x="1321.9439" y="-298.5" font-family="Helvetica,sans-Serif" font-size="10.00" fill="#000000">BoussinesqBuoyancy.H</text>
</g>
<!-- Node1 -->
<g id="node2" class="node">
<title>Node1</title>
<g id="a_node2"><a xlink:href="_field_repo_8_h.html" target="_top" xlink:title="amr&#45;wind/core/FieldRepo.H">
<polygon fill="#ffffff" stroke="#000000" points="975.9439,-168.5 975.9439,-187.5 1111.9439,-187.5 1111.9439,-168.5 975.9439,-168.5"/>
<text text-anchor="middle" x="1043.9439" y="-175.5" font-family="Helvetica,sans-Serif" font-size="10.00" fill="#000000">amr&#45;wind/core/FieldRepo.H</text>
</a>
</g>
</g>
<!-- Node0&#45;&gt;Node1 -->
<g id="edge1" class="edge">
<title>Node0&#45;&gt;Node1</title>
<path fill="none" stroke="#191970" d="M1300.1297,-291.3484C1251.0038,-269.6128 1131.5757,-216.7723 1074.847,-191.6729"/>
<polygon fill="#191970" stroke="#191970" points="1076.2178,-188.4522 1065.6568,-187.6068 1073.3855,-194.8537 1076.2178,-188.4522"/>
</g>
<!-- Node21 -->
<g id="node22" class="node">
<title>Node21</title>
<g id="a_node22"><a xlink:href="_momentum_source_8_h.html" target="_top" xlink:title="amr&#45;wind/equation_systems\l/icns/MomentumSource.H">
<polygon fill="#ffffff" stroke="#000000" points="1344.4439,-224.5 1344.4439,-254.5 1483.4439,-254.5 1483.4439,-224.5 1344.4439,-224.5"/>
<text text-anchor="start" x="1352.4439" y="-242.5" font-family="Helvetica,sans-Serif" font-size="10.00" fill="#000000">amr&#45;wind/equation_systems</text>
<text text-anchor="middle" x="1413.9439" y="-231.5" font-family="Helvetica,sans-Serif" font-size="10.00" fill="#000000">/icns/MomentumSource.H</text>
</a>
</g>
</g>
<!-- Node0&#45;&gt;Node21 -->
<g id="edge38" class="edge">
<title>Node0&#45;&gt;Node21</title>
<path fill="none" stroke="#191970" d="M1336.3189,-291.3906C1348.77,-283.0673 1367.2126,-270.7389 1382.9973,-260.1872"/>
<polygon fill="#191970" stroke="#191970" points="1385.0698,-263.0118 1391.4382,-254.5446 1381.1795,-257.1923 1385.0698,-263.0118"/>
</g>
<!-- Node2 -->
<g id="node3" class="node">
<title>Node2</title>
<polygon fill="#ffffff" stroke="#bfbfbf" points="187.4439,-.5 187.4439,-19.5 228.4439,-19.5 228.4439,-.5 187.4439,-.5"/>
<text text-anchor="middle" x="207.9439" y="-7.5" font-family="Helvetica,sans-Serif" font-size="10.00" fill="#000000">string</text>
</g>
<!-- Node1&#45;&gt;Node2 -->
<g id="edge2" class="edge">
<title>Node1&#45;&gt;Node2</title>
<path fill="none" stroke="#191970" d="M975.5729,-176.8878C753.6699,-172.5325 64.4252,-152.8688 4.9439,-76 -.4959,-68.97 -.6036,-62.9453 4.9439,-56 26.157,-29.4422 125.8117,-17.0763 177.169,-12.3857"/>
<polygon fill="#191970" stroke="#191970" points="177.6909,-15.8536 187.3494,-11.499 177.0834,-8.88 177.6909,-15.8536"/>
</g>
<!-- Node3 -->
<g id="node4" class="node">
<title>Node3</title>
<polygon fill="#ffffff" stroke="#bfbfbf" points="1221.4439,-56.5 1221.4439,-75.5 1304.4439,-75.5 1304.4439,-56.5 1221.4439,-56.5"/>
<text text-anchor="middle" x="1262.9439" y="-63.5" font-family="Helvetica,sans-Serif" font-size="10.00" fill="#000000">unordered_map</text>
</g>
<!-- Node1&#45;&gt;Node3 -->
<g id="edge3" class="edge">
<title>Node1&#45;&gt;Node3</title>
<path fill="none" stroke="#191970" d="M1050.2347,-168.389C1060.1513,-153.9958 1080.7947,-126.9402 1104.9439,-112 1122.7862,-100.9617 1172.1635,-87.4478 1211.0175,-77.9323"/>
<polygon fill="#191970" stroke="#191970" points="1212.2544,-81.2342 1221.1516,-75.4818 1210.6091,-74.4303 1212.2544,-81.2342"/>
</g>
<!-- Node4 -->
<g id="node5" class="node">
<title>Node4</title>
<g id="a_node5"><a xlink:href="_field_desc_types_8_h.html" target="_top" xlink:title="amr&#45;wind/core/FieldDescTypes.H">
<polygon fill="#ffffff" stroke="#000000" points="594.4439,-.5 594.4439,-19.5 757.4439,-19.5 757.4439,-.5 594.4439,-.5"/>
<text text-anchor="middle" x="675.9439" y="-7.5" font-family="Helvetica,sans-Serif" font-size="10.00" fill="#000000">amr&#45;wind/core/FieldDescTypes.H</text>
</a>
</g>
</g>
<!-- Node1&#45;&gt;Node4 -->
<g id="edge4" class="edge">
<title>Node1&#45;&gt;Node4</title>
<path fill="none" stroke="#191970" d="M988.5179,-168.492C900.9456,-152.4044 736.2601,-117.4836 694.9439,-76 682.7406,-63.7473 678.2662,-44.1946 676.6802,-29.5458"/>
<polygon fill="#191970" stroke="#191970" points="680.1659,-29.2217 675.9501,-19.5018 673.1843,-29.7292 680.1659,-29.2217"/>
</g>
<!-- Node5 -->
<g id="node6" class="node">
<title>Node5</title>
<g id="a_node6"><a xlink:href="_field_utils_8_h.html" target="_top" xlink:title="amr&#45;wind/core/FieldUtils.H">
<polygon fill="#ffffff" stroke="#000000" points="1432.4439,-112.5 1432.4439,-131.5 1565.4439,-131.5 1565.4439,-112.5 1432.4439,-112.5"/>
<text text-anchor="middle" x="1498.9439" y="-119.5" font-family="Helvetica,sans-Serif" font-size="10.00" fill="#000000">amr&#45;wind/core/FieldUtils.H</text>
</a>
</g>
</g>
<!-- Node1&#45;&gt;Node5 -->
<g id="edge5" class="edge">
<title>Node1&#45;&gt;Node5</title>
<path fill="none" stroke="#191970" d="M1112.1914,-169.6154C1187.166,-160.4021 1311.1362,-145.1615 1417.9439,-132 1419.2491,-131.8392 1420.5662,-131.6768 1421.8925,-131.5134"/>
<polygon fill="#191970" stroke="#191970" points="1422.7026,-134.9401 1432.1991,-130.2425 1421.8459,-127.9927 1422.7026,-134.9401"/>
</g>
<!-- Node6 -->
<g id="node7" class="node">
<title>Node6</title>
<polygon fill="#ffffff" stroke="#bfbfbf" points="1248.9439,-.5 1248.9439,-19.5 1352.9439,-19.5 1352.9439,-.5 1248.9439,-.5"/>
<text text-anchor="middle" x="1300.9439" y="-7.5" font-family="Helvetica,sans-Serif" font-size="10.00" fill="#000000">AMReX_MultiFab.H</text>
</g>
<!-- Node1&#45;&gt;Node6 -->
<g id="edge36" class="edge">
<title>Node1&#45;&gt;Node6</title>
<path fill="none" stroke="#191970" d="M1103.9471,-168.4229C1140.9972,-161.2211 1188.9326,-149.5393 1228.9439,-132 1270.3774,-113.8373 1292.4887,-115.8283 1313.9439,-76 1321.8771,-61.2732 1316.8633,-42.3647 1310.9069,-28.564"/>
<polygon fill="#191970" stroke="#191970" points="1314.0613,-27.0474 1306.5748,-19.5506 1307.7522,-30.0798 1314.0613,-27.0474"/>
</g>
<!-- Node8 -->
<g id="node9" class="node">
<title>Node8</title>
<g id="a_node9"><a xlink:href="_field_8_h.html" target="_top" xlink:title="amr&#45;wind/core/Field.H">
<polygon fill="#ffffff" stroke="#000000" points="944.4439,-112.5 944.4439,-131.5 1057.4439,-131.5 1057.4439,-112.5 944.4439,-112.5"/>
<text text-anchor="middle" x="1000.9439" y="-119.5" font-family="Helvetica,sans-Serif" font-size="10.00" fill="#000000">amr&#45;wind/core/Field.H</text>
</a>
</g>
</g>
<!-- Node1&#45;&gt;Node8 -->
<g id="edge9" class="edge">
<title>Node1&#45;&gt;Node8</title>
<path fill="none" stroke="#191970" d="M1036.4539,-168.2455C1030.4113,-160.3761 1021.7536,-149.101 1014.4998,-139.6542"/>
<polygon fill="#191970" stroke="#191970" points="1017.2145,-137.4426 1008.3481,-131.6427 1011.6624,-141.7058 1017.2145,-137.4426"/>
</g>
<!-- Node16 -->
<g id="node17" class="node">
<title>Node16</title>
<g id="a_node17"><a xlink:href="_int_field_8_h.html" target="_top" xlink:title="amr&#45;wind/core/IntField.H">
<polygon fill="#ffffff" stroke="#000000" points="419.9439,-112.5 419.9439,-131.5 543.9439,-131.5 543.9439,-112.5 419.9439,-112.5"/>
<text text-anchor="middle" x="481.9439" y="-119.5" font-family="Helvetica,sans-Serif" font-size="10.00" fill="#000000">amr&#45;wind/core/IntField.H</text>
</a>
</g>
</g>
<!-- Node1&#45;&gt;Node16 -->
<g id="edge24" class="edge">
<title>Node1&#45;&gt;Node16</title>
<path fill="none" stroke="#191970" d="M975.8738,-171.2172C869.2853,-160.5963 663.9017,-140.131 554.5716,-129.2369"/>
<polygon fill="#191970" stroke="#191970" points="554.5954,-125.722 544.2976,-128.2132 553.9013,-132.6876 554.5954,-125.722"/>
</g>
<!-- Node17 -->
<g id="node18" class="node">
<title>Node17</title>
<polygon fill="#ffffff" stroke="#bfbfbf" points="502.4439,-56.5 502.4439,-75.5 609.4439,-75.5 609.4439,-56.5 502.4439,-56.5"/>
<text text-anchor="middle" x="555.9439" y="-63.5" font-family="Helvetica,sans-Serif" font-size="10.00" fill="#000000">AMReX_iMultiFab.H</text>
</g>
<!-- Node1&#45;&gt;Node17 -->
<g id="edge37" class="edge">
<title>Node1&#45;&gt;Node17</title>
<path fill="none" stroke="#191970" d="M975.5745,-173.3463C881.7143,-166.3466 718.1811,-151.7902 661.9439,-132 629.1677,-120.4658 595.8818,-97.5028 575.5727,-81.9434"/>
<polygon fill="#191970" stroke="#191970" points="577.4836,-78.9943 567.4528,-75.5833 573.1672,-84.5051 577.4836,-78.9943"/>
</g>
<!-- Node18 -->
<g id="node19" class="node">
<title>Node18</title>
<g id="a_node19"><a xlink:href="_scratch_field_8_h.html" target="_top" xlink:title="amr&#45;wind/core/ScratchField.H">
<polygon fill="#ffffff" stroke="#000000" points="229.9439,-112.5 229.9439,-131.5 375.9439,-131.5 375.9439,-112.5 229.9439,-112.5"/>
<text text-anchor="middle" x="302.9439" y="-119.5" font-family="Helvetica,sans-Serif" font-size="10.00" fill="#000000">amr&#45;wind/core/ScratchField.H</text>
</a>
</g>
</g>
<!-- Node1&#45;&gt;Node18 -->
<g id="edge28" class="edge">
<title>Node1&#45;&gt;Node18</title>
<path fill="none" stroke="#191970" d="M975.5299,-173.4738C859.3981,-165.6909 616.2913,-148.9664 410.9439,-132 402.939,-131.3386 394.6031,-130.62 386.2689,-129.8816"/>
<polygon fill="#191970" stroke="#191970" points="386.3985,-126.3792 376.1262,-128.9735 385.7743,-133.3514 386.3985,-126.3792"/>
</g>
<!-- Node20 -->
<g id="node21" class="node">
<title>Node20</title>
<polygon fill="#ffffff" stroke="#bfbfbf" points="1113.9439,-112.5 1113.9439,-131.5 1219.9439,-131.5 1219.9439,-112.5 1113.9439,-112.5"/>
<text text-anchor="middle" x="1166.9439" y="-119.5" font-family="Helvetica,sans-Serif" font-size="10.00" fill="#000000">AMReX_AmrCore.H</text>
</g>
<!-- Node1&#45;&gt;Node20 -->
<g id="edge35" class="edge">
<title>Node1&#45;&gt;Node20</title>
<path fill="none" stroke="#191970" d="M1065.0884,-168.3733C1084.8331,-159.3838 1114.5138,-145.8706 1136.7494,-135.7471"/>
<polygon fill="#191970" stroke="#191970" points="1138.4245,-138.8302 1146.0754,-131.5011 1135.524,-132.4594 1138.4245,-138.8302"/>
</g>
<!-- Node5&#45;&gt;Node4 -->
<g id="edge6" class="edge">
<title>Node5&#45;&gt;Node4</title>
<path fill="none" stroke="#191970" d="M1482.2863,-112.4939C1455.0059,-97.4575 1398.6535,-68.602 1346.9439,-56 1239.7511,-29.8764 925.1737,-17.2547 767.8004,-12.4363"/>
<polygon fill="#191970" stroke="#191970" points="767.7669,-8.9338 757.6657,-12.1301 767.5554,-15.9306 767.7669,-8.9338"/>
</g>
<!-- Node5&#45;&gt;Node6 -->
<g id="edge7" class="edge">
<title>Node5&#45;&gt;Node6</title>
<path fill="none" stroke="#191970" d="M1561.527,-112.4232C1607.3075,-102.8089 1657.3332,-85.1617 1631.9439,-56 1614.5884,-36.0657 1454.2253,-21.2029 1363.2412,-14.2922"/>
<polygon fill="#191970" stroke="#191970" points="1363.2764,-10.7851 1353.043,-13.5288 1362.7538,-17.7656 1363.2764,-10.7851"/>
</g>
<!-- Node7 -->
<g id="node8" class="node">
<title>Node7</title>
<polygon fill="#ffffff" stroke="#bfbfbf" points="1436.9439,-56.5 1436.9439,-75.5 1552.9439,-75.5 1552.9439,-56.5 1436.9439,-56.5"/>
<text text-anchor="middle" x="1494.9439" y="-63.5" font-family="Helvetica,sans-Serif" font-size="10.00" fill="#000000">AMReX_Interpolater.H</text>
</g>
<!-- Node5&#45;&gt;Node7 -->
<g id="edge8" class="edge">
<title>Node5&#45;&gt;Node7</title>
<path fill="none" stroke="#191970" d="M1498.2472,-112.2455C1497.7252,-104.9382 1496.9935,-94.6944 1496.3514,-85.7046"/>
<polygon fill="#191970" stroke="#191970" points="1499.8364,-85.3679 1495.6327,-75.6427 1492.8542,-85.8667 1499.8364,-85.3679"/>
</g>
<!-- Node8&#45;&gt;Node2 -->
<g id="edge10" class="edge">
<title>Node8&#45;&gt;Node2</title>
<path fill="none" stroke="#191970" d="M944.2221,-115.3383C882.5474,-107.6618 781.234,-93.7855 694.9439,-76 660.7352,-68.9491 653.2796,-62.4039 618.9439,-56 478.2476,-29.7588 307.4679,-16.4933 238.759,-11.9065"/>
<polygon fill="#191970" stroke="#191970" points="238.8353,-8.4041 228.6282,-11.2442 238.3786,-15.3892 238.8353,-8.4041"/>
</g>
<!-- Node8&#45;&gt;Node3 -->
<g id="edge12" class="edge">
<title>Node8&#45;&gt;Node3</title>
<path fill="none" stroke="#191970" d="M1045.6856,-112.4369C1091.6685,-102.6085 1163.1764,-87.3244 1211.476,-77.0008"/>
<polygon fill="#191970" stroke="#191970" points="1212.3653,-80.3898 1221.4129,-74.8769 1210.9022,-73.5444 1212.3653,-80.3898"/>
</g>
<!-- Node8&#45;&gt;Node4 -->
<g id="edge18" class="edge">
<title>Node8&#45;&gt;Node4</title>
<path fill="none" stroke="#191970" d="M1057.7674,-113.7371C1106.0615,-104.4263 1163.5151,-86.4658 1135.9439,-56 1111.7421,-29.2573 894.7249,-17.3904 767.6055,-12.694"/>
<polygon fill="#191970" stroke="#191970" points="767.6012,-9.1916 757.4813,-12.3281 767.3483,-16.1871 767.6012,-9.1916"/>
</g>
<!-- Node8&#45;&gt;Node6 -->
<g id="edge14" class="edge">
<title>Node8&#45;&gt;Node6</title>
<path fill="none" stroke="#191970" d="M1044.8556,-112.4763C1079.1989,-104.4339 1127.85,-91.7242 1168.9439,-76 1189.4168,-68.1662 1241.4931,-41.3189 1273.7794,-24.3749"/>
<polygon fill="#191970" stroke="#191970" points="1275.4926,-27.4284 1282.7126,-19.6745 1272.2331,-21.2336 1275.4926,-27.4284"/>
</g>
<!-- Node9 -->
<g id="node10" class="node">
<title>Node9</title>
<polygon fill="#ffffff" stroke="#bfbfbf" points="1570.9439,-56.5 1570.9439,-75.5 1622.9439,-75.5 1622.9439,-56.5 1570.9439,-56.5"/>
<text text-anchor="middle" x="1596.9439" y="-63.5" font-family="Helvetica,sans-Serif" font-size="10.00" fill="#000000">memory</text>
</g>
<!-- Node8&#45;&gt;Node9 -->
<g id="edge11" class="edge">
<title>Node8&#45;&gt;Node9</title>
<path fill="none" stroke="#191970" d="M1057.6021,-116.3733C1072.9593,-114.897 1089.5846,-113.3433 1104.9439,-112 1304.6391,-94.5351 1359.6753,-111.5979 1560.7075,-75.9023"/>
<polygon fill="#191970" stroke="#191970" points="1561.4802,-79.3196 1570.7033,-74.1057 1560.2418,-72.43 1561.4802,-79.3196"/>
</g>
<!-- Node10 -->
<g id="node11" class="node">
<title>Node10</title>
<polygon fill="#ffffff" stroke="#bfbfbf" points="703.9439,-56.5 703.9439,-75.5 759.9439,-75.5 759.9439,-56.5 703.9439,-56.5"/>
<text text-anchor="middle" x="731.9439" y="-63.5" font-family="Helvetica,sans-Serif" font-size="10.00" fill="#000000">algorithm</text>
</g>
<!-- Node8&#45;&gt;Node10 -->
<g id="edge13" class="edge">
<title>Node8&#45;&gt;Node10</title>
<path fill="none" stroke="#191970" d="M948.4562,-112.4889C901.5092,-103.7584 830.9038,-90.0769 769.9439,-76 769.8442,-75.977 769.7444,-75.9539 769.6444,-75.9307"/>
<polygon fill="#191970" stroke="#191970" points="770.6619,-72.5761 760.1184,-73.618 769.0103,-79.3785 770.6619,-72.5761"/>
</g>
<!-- Node11 -->
<g id="node12" class="node">
<title>Node11</title>
<polygon fill="#ffffff" stroke="#bfbfbf" points="778.4439,-56.5 778.4439,-75.5 877.4439,-75.5 877.4439,-56.5 778.4439,-56.5"/>
<text text-anchor="middle" x="827.9439" y="-63.5" font-family="Helvetica,sans-Serif" font-size="10.00" fill="#000000">AMReX_BCRec.H</text>
</g>
<!-- Node8&#45;&gt;Node11 -->
<g id="edge15" class="edge">
<title>Node8&#45;&gt;Node11</title>
<path fill="none" stroke="#191970" d="M971.2042,-112.3733C942.4369,-103.0613 898.6739,-88.8953 867.0883,-78.671"/>
<polygon fill="#191970" stroke="#191970" points="867.8875,-75.251 857.2956,-75.5011 865.7317,-81.9107 867.8875,-75.251"/>
</g>
<!-- Node12 -->
<g id="node13" class="node">
<title>Node12</title>
<polygon fill="#ffffff" stroke="#bfbfbf" points="895.4439,-56.5 895.4439,-75.5 980.4439,-75.5 980.4439,-56.5 895.4439,-56.5"/>
<text text-anchor="middle" x="937.9439" y="-63.5" font-family="Helvetica,sans-Serif" font-size="10.00" fill="#000000">AMReX_Gpu.H</text>
</g>
<!-- Node8&#45;&gt;Node12 -->
<g id="edge16" class="edge">
<title>Node8&#45;&gt;Node12</title>
<path fill="none" stroke="#191970" d="M989.9702,-112.2455C980.7557,-104.0549 967.3907,-92.1749 956.5142,-82.5069"/>
<polygon fill="#191970" stroke="#191970" points="958.5913,-79.6704 948.7919,-75.6427 953.9408,-84.9023 958.5913,-79.6704"/>
</g>
<!-- Node13 -->
<g id="node14" class="node">
<title>Node13</title>
<g id="a_node14"><a xlink:href="incflo__enums_8_h.html" target="_top" xlink:title="amr&#45;wind/incflo_enums.H">
<polygon fill="#ffffff" stroke="#000000" points="998.9439,-56.5 998.9439,-75.5 1126.9439,-75.5 1126.9439,-56.5 998.9439,-56.5"/>
<text text-anchor="middle" x="1062.9439" y="-63.5" font-family="Helvetica,sans-Serif" font-size="10.00" fill="#000000">amr&#45;wind/incflo_enums.H</text>
</a>
</g>
</g>
<!-- Node8&#45;&gt;Node13 -->
<g id="edge17" class="edge">
<title>Node8&#45;&gt;Node13</title>
<path fill="none" stroke="#191970" d="M1011.7435,-112.2455C1020.8117,-104.0549 1033.9646,-92.1749 1044.6684,-82.5069"/>
<polygon fill="#191970" stroke="#191970" points="1047.1931,-84.9429 1052.2681,-75.6427 1042.501,-79.7482 1047.1931,-84.9429"/>
</g>
<!-- Node14 -->
<g id="node15" class="node">
<title>Node14</title>
<g id="a_node15"><a xlink:href="_view_field_8_h.html" target="_top" xlink:title="amr&#45;wind/core/ViewField.H">
<polygon fill="#ffffff" stroke="#000000" points="235.9439,-56.5 235.9439,-75.5 369.9439,-75.5 369.9439,-56.5 235.9439,-56.5"/>
<text text-anchor="middle" x="302.9439" y="-63.5" font-family="Helvetica,sans-Serif" font-size="10.00" fill="#000000">amr&#45;wind/core/ViewField.H</text>
</a>
</g>
</g>
<!-- Node8&#45;&gt;Node14 -->
<g id="edge19" class="edge">
<title>Node8&#45;&gt;Node14</title>
<path fill="none" stroke="#191970" d="M944.4149,-117.4647C819.9806,-107.4815 522.1981,-83.5906 380.4646,-72.2194"/>
<polygon fill="#191970" stroke="#191970" points="380.3702,-68.7007 370.1223,-71.3897 379.8103,-75.6783 380.3702,-68.7007"/>
</g>
<!-- Node14&#45;&gt;Node2 -->
<g id="edge20" class="edge">
<title>Node14&#45;&gt;Node2</title>
<path fill="none" stroke="#191970" d="M286.3962,-56.2455C271.6841,-47.5731 249.9552,-34.7645 233.0934,-24.825"/>
<polygon fill="#191970" stroke="#191970" points="234.6941,-21.7057 224.302,-19.6427 231.1394,-27.736 234.6941,-21.7057"/>
</g>
<!-- Node14&#45;&gt;Node4 -->
<g id="edge21" class="edge">
<title>Node14&#45;&gt;Node4</title>
<path fill="none" stroke="#191970" d="M366.6411,-56.4369C432.0865,-46.6113 533.8503,-31.3331 602.612,-21.0096"/>
<polygon fill="#191970" stroke="#191970" points="603.14,-24.4697 612.5095,-19.5237 602.1006,-17.5472 603.14,-24.4697"/>
</g>
<!-- Node14&#45;&gt;Node6 -->
<g id="edge22" class="edge">
<title>Node14&#45;&gt;Node6</title>
<path fill="none" stroke="#191970" d="M370.168,-61.5854C397.9548,-59.7951 430.4983,-57.743 459.9439,-56 751.1641,-38.7614 1099.2535,-20.4537 1238.7008,-13.2132"/>
<polygon fill="#191970" stroke="#191970" points="1238.9685,-16.7041 1248.7737,-12.6905 1238.6058,-9.7135 1238.9685,-16.7041"/>
</g>
<!-- Node15 -->
<g id="node16" class="node">
<title>Node15</title>
<polygon fill="#ffffff" stroke="#bfbfbf" points="6.4439,-.5 6.4439,-19.5 101.4439,-19.5 101.4439,-.5 6.4439,-.5"/>
<text text-anchor="middle" x="53.9439" y="-7.5" font-family="Helvetica,sans-Serif" font-size="10.00" fill="#000000">AMReX_Vector.H</text>
</g>
<!-- Node14&#45;&gt;Node15 -->
<g id="edge23" class="edge">
<title>Node14&#45;&gt;Node15</title>
<path fill="none" stroke="#191970" d="M260.4222,-56.4369C217.8078,-46.8529 152.1264,-32.0812 106.3229,-21.78"/>
<polygon fill="#191970" stroke="#191970" points="106.8146,-18.3032 96.2903,-19.5237 105.2786,-25.1326 106.8146,-18.3032"/>
</g>
<!-- Node16&#45;&gt;Node2 -->
<g id="edge25" class="edge">
<title>Node16&#45;&gt;Node2</title>
<path fill="none" stroke="#191970" d="M419.7497,-114.2522C348.9272,-104.8941 241.1334,-88.8135 226.9439,-76 214.1094,-64.4101 209.719,-44.7692 208.3243,-29.9194"/>
<polygon fill="#191970" stroke="#191970" points="211.8063,-29.4985 207.7515,-19.7103 204.8173,-29.8907 211.8063,-29.4985"/>
</g>
<!-- Node16&#45;&gt;Node4 -->
<g id="edge26" class="edge">
<title>Node16&#45;&gt;Node4</title>
<path fill="none" stroke="#191970" d="M480.7044,-112.0528C479.513,-97.7235 479.631,-71.3164 493.9439,-56 508.3642,-40.5687 554.8343,-28.9717 597.2051,-21.282"/>
<polygon fill="#191970" stroke="#191970" points="598.0548,-24.6863 607.2978,-19.5079 596.8429,-17.792 598.0548,-24.6863"/>
</g>
<!-- Node16&#45;&gt;Node17 -->
<g id="edge27" class="edge">
<title>Node16&#45;&gt;Node17</title>
<path fill="none" stroke="#191970" d="M494.8337,-112.2455C505.8693,-103.8943 521.9731,-91.7076 534.8793,-81.9408"/>
<polygon fill="#191970" stroke="#191970" points="537.3398,-84.4681 543.2018,-75.6427 533.1157,-78.8862 537.3398,-84.4681"/>
</g>
<!-- Node18&#45;&gt;Node2 -->
<g id="edge29" class="edge">
<title>Node18&#45;&gt;Node2</title>
<path fill="none" stroke="#191970" d="M248.9259,-112.4617C228.1163,-105.8668 206.3771,-94.742 193.9439,-76 184.6693,-62.0192 190.1558,-43.0218 196.789,-28.9982"/>
<polygon fill="#191970" stroke="#191970" points="200.0654,-30.2879 201.6269,-19.8088 193.8713,-27.0269 200.0654,-30.2879"/>
</g>
<!-- Node18&#45;&gt;Node4 -->
<g id="edge30" class="edge">
<title>Node18&#45;&gt;Node4</title>
<path fill="none" stroke="#191970" d="M325.6816,-112.39C358.9091,-98.5961 422.8818,-72.9791 478.9439,-56 524.8629,-42.0928 577.8719,-29.9293 617.3283,-21.6087"/>
<polygon fill="#191970" stroke="#191970" points="618.237,-24.9945 627.3105,-19.5245 616.8062,-18.1423 618.237,-24.9945"/>
</g>
<!-- Node18&#45;&gt;Node6 -->
<g id="edge32" class="edge">
<title>Node18&#45;&gt;Node6</title>
<path fill="none" stroke="#191970" d="M345.9197,-112.4523C378.0479,-104.5923 422.6678,-92.1292 459.9439,-76 476.0339,-69.0379 477.1662,-61.0859 493.9439,-56 564.3894,-34.6454 1061.4707,-17.3947 1238.5148,-11.8659"/>
<polygon fill="#191970" stroke="#191970" points="1238.8217,-15.3581 1248.7082,-11.5495 1238.6044,-8.3615 1238.8217,-15.3581"/>
</g>
<!-- Node18&#45;&gt;Node14 -->
<g id="edge31" class="edge">
<title>Node18&#45;&gt;Node14</title>
<path fill="none" stroke="#191970" d="M302.9439,-112.2455C302.9439,-104.9382 302.9439,-94.6944 302.9439,-85.7046"/>
<polygon fill="#191970" stroke="#191970" points="306.444,-85.6426 302.9439,-75.6427 299.444,-85.6427 306.444,-85.6426"/>
</g>
<!-- Node18&#45;&gt;Node15 -->
<g id="edge33" class="edge">
<title>Node18&#45;&gt;Node15</title>
<path fill="none" stroke="#191970" d="M229.919,-115.6674C146.4587,-107.6759 19.4475,-92.9142 4.9439,-76 -9.2343,-59.4653 10.9101,-39.187 29.491,-25.506"/>
<polygon fill="#191970" stroke="#191970" points="31.5871,-28.3114 37.7893,-19.7216 27.5842,-22.5688 31.5871,-28.3114"/>
</g>
<!-- Node19 -->
<g id="node20" class="node">
<title>Node19</title>
<polygon fill="#ffffff" stroke="#bfbfbf" points="13.9439,-56.5 13.9439,-75.5 141.9439,-75.5 141.9439,-56.5 13.9439,-56.5"/>
<text text-anchor="middle" x="77.9439" y="-63.5" font-family="Helvetica,sans-Serif" font-size="10.00" fill="#000000">AMReX_PhysBCFunct.H</text>
</g>
<!-- Node18&#45;&gt;Node19 -->
<g id="edge34" class="edge">
<title>Node18&#45;&gt;Node19</title>
<path fill="none" stroke="#191970" d="M264.5207,-112.4369C226.2564,-102.9133 167.4103,-88.2672 126.0591,-77.9753"/>
<polygon fill="#191970" stroke="#191970" points="126.758,-74.5426 116.2087,-75.5237 125.0673,-81.3353 126.758,-74.5426"/>
</g>
<!-- Node21&#45;&gt;Node1 -->
<g id="edge47" class="edge">
<title>Node21&#45;&gt;Node1</title>
<path fill="none" stroke="#191970" d="M1344.3498,-227.9323C1277.5469,-216.8286 1177.3173,-200.1688 1111.2805,-189.1924"/>
<polygon fill="#191970" stroke="#191970" points="1111.8286,-185.7356 1101.3901,-187.5485 1110.6808,-192.6409 1111.8286,-185.7356"/>
</g>
<!-- Node21&#45;&gt;Node4 -->
<g id="edge45" class="edge">
<title>Node21&#45;&gt;Node4</title>
<path fill="none" stroke="#191970" d="M1410.8235,-224.2869C1402.4671,-187.8901 1375.8747,-95.8622 1313.9439,-56 1269.1832,-27.1894 933.5839,-15.7314 767.9116,-11.7943"/>
<polygon fill="#191970" stroke="#191970" points="767.8122,-8.2911 757.7332,-11.5568 767.6488,-15.2892 767.8122,-8.2911"/>
</g>
<!-- Node21&#45;&gt;Node5 -->
<g id="edge46" class="edge">
<title>Node21&#45;&gt;Node5</title>
<path fill="none" stroke="#191970" d="M1425.0562,-224.1389C1440.7881,-202.3919 1469.4842,-162.7238 1486.1061,-139.7465"/>
<polygon fill="#191970" stroke="#191970" points="1489.0031,-141.7132 1492.0286,-131.5595 1483.3315,-137.6103 1489.0031,-141.7132"/>
</g>
<!-- Node21&#45;&gt;Node6 -->
<g id="edge48" class="edge">
<title>Node21&#45;&gt;Node6</title>
<path fill="none" stroke="#191970" d="M1464.3047,-224.3972C1551.2233,-195.9021 1714.1126,-130.3498 1648.9439,-56 1630.4371,-34.8859 1458.2401,-20.333 1363.2152,-13.8363"/>
<polygon fill="#191970" stroke="#191970" points="1363.359,-10.3382 1353.1464,-13.1583 1362.8886,-17.3223 1363.359,-10.3382"/>
</g>
<!-- Node22 -->
<g id="node23" class="node">
<title>Node22</title>
<g id="a_node23"><a xlink:href="_factory_8_h.html" target="_top" xlink:title="amr&#45;wind/core/Factory.H">
<polygon fill="#ffffff" stroke="#000000" points="1717.4439,-112.5 1717.4439,-131.5 1842.4439,-131.5 1842.4439,-112.5 1717.4439,-112.5"/>
<text text-anchor="middle" x="1779.9439" y="-119.5" font-family="Helvetica,sans-Serif" font-size="10.00" fill="#000000">amr&#45;wind/core/Factory.H</text>
</a>
</g>
</g>
<!-- Node21&#45;&gt;Node22 -->
<g id="edge39" class="edge">
<title>Node21&#45;&gt;Node22</title>
<path fill="none" stroke="#191970" d="M1483.4623,-231.3866C1556.205,-222.1443 1665.0056,-205.9761 1702.9439,-188 1727.3773,-176.4229 1750.2043,-154.9865 1764.5603,-139.6848"/>
<polygon fill="#191970" stroke="#191970" points="1767.4849,-141.6709 1771.6208,-131.9166 1762.3048,-136.9627 1767.4849,-141.6709"/>
</g>
<!-- Node22&#45;&gt;Node3 -->
<g id="edge41" class="edge">
<title>Node22&#45;&gt;Node3</title>
<path fill="none" stroke="#191970" d="M1717.3243,-115.2172C1614.0891,-104.0351 1410.1105,-81.9407 1314.5788,-71.5929"/>
<polygon fill="#191970" stroke="#191970" points="1314.8969,-68.107 1304.5782,-70.5097 1314.1431,-75.0663 1314.8969,-68.107"/>
</g>
<!-- Node22&#45;&gt;Node9 -->
<g id="edge40" class="edge">
<title>Node22&#45;&gt;Node9</title>
<path fill="none" stroke="#191970" d="M1748.4851,-112.3733C1716.3489,-102.5392 1666.5215,-87.2915 1632.8577,-76.99"/>
<polygon fill="#191970" stroke="#191970" points="1633.5532,-73.5427 1622.9668,-73.9633 1631.5049,-80.2363 1633.5532,-73.5427"/>
</g>
<!-- Node23 -->
<g id="node24" class="node">
<title>Node23</title>
<polygon fill="#ffffff" stroke="#bfbfbf" points="1796.9439,-56.5 1796.9439,-75.5 1850.9439,-75.5 1850.9439,-56.5 1796.9439,-56.5"/>
<text text-anchor="middle" x="1823.9439" y="-63.5" font-family="Helvetica,sans-Serif" font-size="10.00" fill="#000000">iostream</text>
</g>
<!-- Node22&#45;&gt;Node23 -->
<g id="edge42" class="edge">
<title>Node22&#45;&gt;Node23</title>
<path fill="none" stroke="#191970" d="M1787.6081,-112.2455C1793.7913,-104.3761 1802.6503,-93.101 1810.0728,-83.6542"/>
<polygon fill="#191970" stroke="#191970" points="1812.9414,-85.6683 1816.3675,-75.6427 1807.4372,-81.3435 1812.9414,-85.6683"/>
</g>
<!-- Node24 -->
<g id="node25" class="node">
<title>Node24</title>
<polygon fill="#ffffff" stroke="#bfbfbf" points="1869.4439,-56.5 1869.4439,-75.5 1956.4439,-75.5 1956.4439,-56.5 1869.4439,-56.5"/>
<text text-anchor="middle" x="1912.9439" y="-63.5" font-family="Helvetica,sans-Serif" font-size="10.00" fill="#000000">AMReX_Print.H</text>
</g>
<!-- Node22&#45;&gt;Node24 -->
<g id="edge43" class="edge">
<title>Node22&#45;&gt;Node24</title>
<path fill="none" stroke="#191970" d="M1802.8074,-112.3733C1824.3489,-103.3032 1856.8277,-89.6279 1880.9395,-79.4755"/>
<polygon fill="#191970" stroke="#191970" points="1882.5206,-82.6075 1890.3788,-75.5011 1879.8042,-76.156 1882.5206,-82.6075"/>
</g>
<!-- Node25 -->
<g id="node26" class="node">
<title>Node25</title>
<polygon fill="#ffffff" stroke="#bfbfbf" points="1716.9439,-56.5 1716.9439,-75.5 1778.9439,-75.5 1778.9439,-56.5 1716.9439,-56.5"/>
<text text-anchor="middle" x="1747.9439" y="-63.5" font-family="Helvetica,sans-Serif" font-size="10.00" fill="#000000">AMReX.H</text>
</g>
<!-- Node22&#45;&gt;Node25 -->
<g id="edge44" class="edge">
<title>Node22&#45;&gt;Node25</title>
<path fill="none" stroke="#191970" d="M1774.37,-112.2455C1770.0108,-104.617 1763.8229,-93.7881 1758.5306,-84.5267"/>
<polygon fill="#191970" stroke="#191970" points="1761.4543,-82.5886 1753.454,-75.6427 1755.3766,-86.0616 1761.4543,-82.5886"/>
</g>
</g>
</svg>
