<?xml version="1.0" encoding="UTF-8" standalone="no"?>
<!DOCTYPE svg PUBLIC "-//W3C//DTD SVG 1.1//EN"
 "http://www.w3.org/Graphics/SVG/1.1/DTD/svg11.dtd">
<!-- Generated by graphviz version 2.40.1 (20161225.0304)
 -->
<!-- Title: CFDSim.H Pages: 1 -->
<svg width="2536pt" height="274pt"
 viewBox="0.00 0.00 2535.50 274.00" xmlns="http://www.w3.org/2000/svg" xmlns:xlink="http://www.w3.org/1999/xlink">
<g id="graph0" class="graph" transform="scale(1 1) rotate(0) translate(4 270)">
<title>CFDSim.H</title>
<polygon fill="#ffffff" stroke="transparent" points="-4,4 -4,-270 2531.5,-270 2531.5,4 -4,4"/>
<!-- Node0 -->
<g id="node1" class="node">
<title>Node0</title>
<polygon fill="#bfbfbf" stroke="#000000" points="612,-246.5 612,-265.5 677,-265.5 677,-246.5 612,-246.5"/>
<text text-anchor="middle" x="644.5" y="-253.5" font-family="Helvetica,sans-Serif" font-size="10.00" fill="#000000">CFDSim.H</text>
</g>
<!-- Node1 -->
<g id="node2" class="node">
<title>Node1</title>
<polygon fill="#ffffff" stroke="#bfbfbf" points="591.5,-129 591.5,-148 697.5,-148 697.5,-129 591.5,-129"/>
<text text-anchor="middle" x="644.5" y="-136" font-family="Helvetica,sans-Serif" font-size="10.00" fill="#000000">AMReX_AmrCore.H</text>
</g>
<!-- Node0&#45;&gt;Node1 -->
<g id="edge1" class="edge">
<title>Node0&#45;&gt;Node1</title>
<path fill="none" stroke="#191970" d="M644.5,-246.3845C644.5,-227.1913 644.5,-183.786 644.5,-158.2663"/>
<polygon fill="#191970" stroke="#191970" points="648.0001,-158.2483 644.5,-148.2484 641.0001,-158.2484 648.0001,-158.2483"/>
</g>
<!-- Node2 -->
<g id="node3" class="node">
<title>Node2</title>
<g id="a_node3"><a xlink:href="_sim_time_8_h.html" target="_top" xlink:title="amr&#45;wind/core/SimTime.H">
<polygon fill="#ffffff" stroke="#000000" points="2207,-190.5 2207,-209.5 2338,-209.5 2338,-190.5 2207,-190.5"/>
<text text-anchor="middle" x="2272.5" y="-197.5" font-family="Helvetica,sans-Serif" font-size="10.00" fill="#000000">amr&#45;wind/core/SimTime.H</text>
</a>
</g>
</g>
<!-- Node0&#45;&gt;Node2 -->
<g id="edge2" class="edge">
<title>Node0&#45;&gt;Node2</title>
<path fill="none" stroke="#191970" d="M677.0199,-254.8814C873.7753,-248.1134 1906.2797,-212.5973 2196.5327,-202.6131"/>
<polygon fill="#191970" stroke="#191970" points="2196.6684,-206.1106 2206.5421,-202.2688 2196.4277,-199.1148 2196.6684,-206.1106"/>
</g>
<!-- Node6 -->
<g id="node7" class="node">
<title>Node6</title>
<g id="a_node7"><a xlink:href="_field_repo_8_h.html" target="_top" xlink:title="amr&#45;wind/core/FieldRepo.H">
<polygon fill="#ffffff" stroke="#000000" points="1489.5,-190.5 1489.5,-209.5 1625.5,-209.5 1625.5,-190.5 1489.5,-190.5"/>
<text text-anchor="middle" x="1557.5" y="-197.5" font-family="Helvetica,sans-Serif" font-size="10.00" fill="#000000">amr&#45;wind/core/FieldRepo.H</text>
</a>
</g>
</g>
<!-- Node0&#45;&gt;Node6 -->
<g id="edge6" class="edge">
<title>Node0&#45;&gt;Node6</title>
<path fill="none" stroke="#191970" d="M677.2633,-253.9904C807.203,-246.0204 1288.4477,-216.5027 1479.0399,-204.8124"/>
<polygon fill="#191970" stroke="#191970" points="1479.4938,-208.2913 1489.2607,-204.1855 1479.0652,-201.3044 1479.4938,-208.2913"/>
</g>
<!-- Node25 -->
<g id="node26" class="node">
<title>Node25</title>
<g id="a_node26"><a xlink:href="_p_d_e_base_8_h.html" target="_top" xlink:title="amr&#45;wind/equation_systems\l/PDEBase.H">
<polygon fill="#ffffff" stroke="#000000" points="289,-123.5 289,-153.5 428,-153.5 428,-123.5 289,-123.5"/>
<text text-anchor="start" x="297" y="-141.5" font-family="Helvetica,sans-Serif" font-size="10.00" fill="#000000">amr&#45;wind/equation_systems</text>
<text text-anchor="middle" x="358.5" y="-130.5" font-family="Helvetica,sans-Serif" font-size="10.00" fill="#000000">/PDEBase.H</text>
</a>
</g>
</g>
<!-- Node0&#45;&gt;Node25 -->
<g id="edge43" class="edge">
<title>Node0&#45;&gt;Node25</title>
<path fill="none" stroke="#191970" d="M621.0954,-246.3845C573.861,-226.9787 466.3804,-182.8215 404.5641,-157.4249"/>
<polygon fill="#191970" stroke="#191970" points="405.6311,-154.0795 395.0512,-153.5167 402.971,-160.5544 405.6311,-154.0795"/>
</g>
<!-- Node33 -->
<g id="node34" class="node">
<title>Node33</title>
<g id="a_node34"><a xlink:href="_physics_8_h.html" target="_top" xlink:title="amr&#45;wind/core/Physics.H">
<polygon fill="#ffffff" stroke="#000000" points="446,-129 446,-148 573,-148 573,-129 446,-129"/>
<text text-anchor="middle" x="509.5" y="-136" font-family="Helvetica,sans-Serif" font-size="10.00" fill="#000000">amr&#45;wind/core/Physics.H</text>
</a>
</g>
</g>
<!-- Node0&#45;&gt;Node33 -->
<g id="edge60" class="edge">
<title>Node0&#45;&gt;Node33</title>
<path fill="none" stroke="#191970" d="M633.4524,-246.3845C610.4118,-226.3306 557.0022,-179.8445 528.3941,-154.9449"/>
<polygon fill="#191970" stroke="#191970" points="530.5412,-152.1736 520.7003,-148.2484 525.9455,-157.4537 530.5412,-152.1736"/>
</g>
<!-- Node3 -->
<g id="node4" class="node">
<title>Node3</title>
<polygon fill="#ffffff" stroke="#bfbfbf" points="2162,-129 2162,-148 2255,-148 2255,-129 2162,-129"/>
<text text-anchor="middle" x="2208.5" y="-136" font-family="Helvetica,sans-Serif" font-size="10.00" fill="#000000">AMReX_REAL.H</text>
</g>
<!-- Node2&#45;&gt;Node3 -->
<g id="edge3" class="edge">
<title>Node2&#45;&gt;Node3</title>
<path fill="none" stroke="#191970" d="M2262.5,-190.3906C2252.7881,-181.0581 2237.8361,-166.6902 2226.1259,-155.4374"/>
<polygon fill="#191970" stroke="#191970" points="2228.2766,-152.65 2218.641,-148.2449 2223.4264,-157.6974 2228.2766,-152.65"/>
</g>
<!-- Node4 -->
<g id="node5" class="node">
<title>Node4</title>
<polygon fill="#ffffff" stroke="#bfbfbf" points="2273.5,-129 2273.5,-148 2399.5,-148 2399.5,-129 2273.5,-129"/>
<text text-anchor="middle" x="2336.5" y="-136" font-family="Helvetica,sans-Serif" font-size="10.00" fill="#000000">AMReX_GpuQualifiers.H</text>
</g>
<!-- Node2&#45;&gt;Node4 -->
<g id="edge4" class="edge">
<title>Node2&#45;&gt;Node4</title>
<path fill="none" stroke="#191970" d="M2282.5,-190.3906C2292.2119,-181.0581 2307.1639,-166.6902 2318.8741,-155.4374"/>
<polygon fill="#191970" stroke="#191970" points="2321.5736,-157.6974 2326.359,-148.2449 2316.7234,-152.65 2321.5736,-157.6974"/>
</g>
<!-- Node5 -->
<g id="node6" class="node">
<title>Node5</title>
<polygon fill="#ffffff" stroke="#bfbfbf" points="2417.5,-129 2417.5,-148 2527.5,-148 2527.5,-129 2417.5,-129"/>
<text text-anchor="middle" x="2472.5" y="-136" font-family="Helvetica,sans-Serif" font-size="10.00" fill="#000000">AMReX_Extension.H</text>
</g>
<!-- Node2&#45;&gt;Node5 -->
<g id="edge5" class="edge">
<title>Node2&#45;&gt;Node5</title>
<path fill="none" stroke="#191970" d="M2303.75,-190.3906C2338.2411,-179.7846 2393.8812,-162.6753 2431.7662,-151.0257"/>
<polygon fill="#191970" stroke="#191970" points="2432.9399,-154.3266 2441.4694,-148.0419 2430.8824,-147.6357 2432.9399,-154.3266"/>
</g>
<!-- Node6&#45;&gt;Node1 -->
<g id="edge40" class="edge">
<title>Node6&#45;&gt;Node1</title>
<path fill="none" stroke="#191970" d="M1489.1946,-197.8127C1315.6855,-192.0114 861.1407,-175.2146 711.5,-154 704.6697,-153.0317 697.5095,-151.7108 690.5162,-150.2459"/>
<polygon fill="#191970" stroke="#191970" points="690.9672,-146.7612 680.4475,-148.0209 689.4567,-153.5963 690.9672,-146.7612"/>
</g>
<!-- Node7 -->
<g id="node8" class="node">
<title>Node7</title>
<polygon fill="#ffffff" stroke="#bfbfbf" points="976,-.5 976,-19.5 1017,-19.5 1017,-.5 976,-.5"/>
<text text-anchor="middle" x="996.5" y="-7.5" font-family="Helvetica,sans-Serif" font-size="10.00" fill="#000000">string</text>
</g>
<!-- Node6&#45;&gt;Node7 -->
<g id="edge7" class="edge">
<title>Node6&#45;&gt;Node7</title>
<path fill="none" stroke="#191970" d="M1489.1539,-198.1018C1375.8803,-194.1729 1154.5733,-182.9571 1082.5,-154 1037.865,-136.0669 1018.7744,-130.1425 997.5,-87 988.6604,-69.0741 989.8041,-45.8252 992.2856,-29.5838"/>
<polygon fill="#191970" stroke="#191970" points="995.7533,-30.0776 994.111,-19.6108 988.8677,-28.8172 995.7533,-30.0776"/>
</g>
<!-- Node8 -->
<g id="node9" class="node">
<title>Node8</title>
<polygon fill="#ffffff" stroke="#bfbfbf" points="534,-.5 534,-19.5 617,-19.5 617,-.5 534,-.5"/>
<text text-anchor="middle" x="575.5" y="-7.5" font-family="Helvetica,sans-Serif" font-size="10.00" fill="#000000">unordered_map</text>
</g>
<!-- Node6&#45;&gt;Node8 -->
<g id="edge8" class="edge">
<title>Node6&#45;&gt;Node8</title>
<path fill="none" stroke="#191970" d="M1489.4622,-196.6205C1309.2511,-186.8261 823.5415,-154.7117 679.5,-87 659.7748,-77.7275 658.8975,-69.1296 641.5,-56 627.3695,-45.3359 611.0522,-33.9553 598.1775,-25.1819"/>
<polygon fill="#191970" stroke="#191970" points="600.1261,-22.2744 589.8834,-19.5654 596.2011,-28.0705 600.1261,-22.2744"/>
</g>
<!-- Node9 -->
<g id="node10" class="node">
<title>Node9</title>
<g id="a_node10"><a xlink:href="_field_desc_types_8_h.html" target="_top" xlink:title="amr&#45;wind/core/FieldDescTypes.H">
<polygon fill="#ffffff" stroke="#000000" points="1502,-.5 1502,-19.5 1665,-19.5 1665,-.5 1502,-.5"/>
<text text-anchor="middle" x="1583.5" y="-7.5" font-family="Helvetica,sans-Serif" font-size="10.00" fill="#000000">amr&#45;wind/core/FieldDescTypes.H</text>
</a>
</g>
</g>
<!-- Node6&#45;&gt;Node9 -->
<g id="edge9" class="edge">
<title>Node6&#45;&gt;Node9</title>
<path fill="none" stroke="#191970" d="M1625.6918,-196.2338C1691.7632,-191.1994 1794.208,-179.7074 1879.5,-154 1952.5696,-131.9765 2071.5612,-112.7182 2020.5,-56 2014.7656,-49.6303 1801.6212,-29.5255 1675.1706,-18.1152"/>
<polygon fill="#191970" stroke="#191970" points="1675.3675,-14.6188 1665.0939,-17.2077 1674.7396,-21.5906 1675.3675,-14.6188"/>
</g>
<!-- Node10 -->
<g id="node11" class="node">
<title>Node10</title>
<g id="a_node11"><a xlink:href="_field_utils_8_h.html" target="_top" xlink:title="amr&#45;wind/core/FieldUtils.H">
<polygon fill="#ffffff" stroke="#000000" points="2124,-62 2124,-81 2257,-81 2257,-62 2124,-62"/>
<text text-anchor="middle" x="2190.5" y="-69" font-family="Helvetica,sans-Serif" font-size="10.00" fill="#000000">amr&#45;wind/core/FieldUtils.H</text>
</a>
</g>
</g>
<!-- Node6&#45;&gt;Node10 -->
<g id="edge10" class="edge">
<title>Node6&#45;&gt;Node10</title>
<path fill="none" stroke="#191970" d="M1625.6386,-196.9782C1763.6261,-190.4746 2066.681,-174.0986 2109.5,-154 2139.7741,-139.7898 2164.9517,-109.1309 2178.8431,-89.4532"/>
<polygon fill="#191970" stroke="#191970" points="2181.8365,-91.2756 2184.5693,-81.0393 2176.0495,-87.3372 2181.8365,-91.2756"/>
</g>
<!-- Node11 -->
<g id="node12" class="node">
<title>Node11</title>
<polygon fill="#ffffff" stroke="#bfbfbf" points="1720.5,-.5 1720.5,-19.5 1824.5,-19.5 1824.5,-.5 1720.5,-.5"/>
<text text-anchor="middle" x="1772.5" y="-7.5" font-family="Helvetica,sans-Serif" font-size="10.00" fill="#000000">AMReX_MultiFab.H</text>
</g>
<!-- Node6&#45;&gt;Node11 -->
<g id="edge41" class="edge">
<title>Node6&#45;&gt;Node11</title>
<path fill="none" stroke="#191970" d="M1625.8913,-195.9065C1721.2046,-189.5192 1888.6809,-175.625 1945.5,-154 1994.1275,-135.4926 2017.4395,-133.133 2041.5,-87 2047.8713,-74.7839 2050.3834,-66.5315 2041.5,-56 2028.2978,-40.3485 1910.2645,-24.8595 1834.9987,-16.4504"/>
<polygon fill="#191970" stroke="#191970" points="1835.0012,-12.9295 1824.6776,-15.3115 1834.2334,-19.8873 1835.0012,-12.9295"/>
</g>
<!-- Node13 -->
<g id="node14" class="node">
<title>Node13</title>
<g id="a_node14"><a xlink:href="_field_8_h.html" target="_top" xlink:title="amr&#45;wind/core/Field.H">
<polygon fill="#ffffff" stroke="#000000" points="1092,-129 1092,-148 1205,-148 1205,-129 1092,-129"/>
<text text-anchor="middle" x="1148.5" y="-136" font-family="Helvetica,sans-Serif" font-size="10.00" fill="#000000">amr&#45;wind/core/Field.H</text>
</a>
</g>
</g>
<!-- Node6&#45;&gt;Node13 -->
<g id="edge14" class="edge">
<title>Node6&#45;&gt;Node13</title>
<path fill="none" stroke="#191970" d="M1494.0425,-190.4581C1418.3485,-179.0762 1292.389,-160.1361 1215.2651,-148.5392"/>
<polygon fill="#191970" stroke="#191970" points="1215.5906,-145.0489 1205.1813,-147.023 1214.5496,-151.9711 1215.5906,-145.0489"/>
</g>
<!-- Node21 -->
<g id="node22" class="node">
<title>Node21</title>
<g id="a_node22"><a xlink:href="_int_field_8_h.html" target="_top" xlink:title="amr&#45;wind/core/IntField.H">
<polygon fill="#ffffff" stroke="#000000" points="1495.5,-129 1495.5,-148 1619.5,-148 1619.5,-129 1495.5,-129"/>
<text text-anchor="middle" x="1557.5" y="-136" font-family="Helvetica,sans-Serif" font-size="10.00" fill="#000000">amr&#45;wind/core/IntField.H</text>
</a>
</g>
</g>
<!-- Node6&#45;&gt;Node21 -->
<g id="edge29" class="edge">
<title>Node6&#45;&gt;Node21</title>
<path fill="none" stroke="#191970" d="M1557.5,-190.3906C1557.5,-181.8657 1557.5,-169.1392 1557.5,-158.4235"/>
<polygon fill="#191970" stroke="#191970" points="1561.0001,-158.2448 1557.5,-148.2449 1554.0001,-158.2449 1561.0001,-158.2448"/>
</g>
<!-- Node22 -->
<g id="node23" class="node">
<title>Node22</title>
<polygon fill="#ffffff" stroke="#bfbfbf" points="1624,-62 1624,-81 1731,-81 1731,-62 1624,-62"/>
<text text-anchor="middle" x="1677.5" y="-69" font-family="Helvetica,sans-Serif" font-size="10.00" fill="#000000">AMReX_iMultiFab.H</text>
</g>
<!-- Node6&#45;&gt;Node22 -->
<g id="edge42" class="edge">
<title>Node6&#45;&gt;Node22</title>
<path fill="none" stroke="#191970" d="M1577.3276,-190.3801C1592.6324,-182.2436 1613.6352,-169.4552 1628.5,-154 1646.6484,-135.1309 1660.9807,-108.3378 1669.3429,-90.4607"/>
<polygon fill="#191970" stroke="#191970" points="1672.6467,-91.6479 1673.5602,-81.0925 1666.2637,-88.7744 1672.6467,-91.6479"/>
</g>
<!-- Node23 -->
<g id="node24" class="node">
<title>Node23</title>
<g id="a_node24"><a xlink:href="_scratch_field_8_h.html" target="_top" xlink:title="amr&#45;wind/core/ScratchField.H">
<polygon fill="#ffffff" stroke="#000000" points="1724.5,-129 1724.5,-148 1870.5,-148 1870.5,-129 1724.5,-129"/>
<text text-anchor="middle" x="1797.5" y="-136" font-family="Helvetica,sans-Serif" font-size="10.00" fill="#000000">amr&#45;wind/core/ScratchField.H</text>
</a>
</g>
</g>
<!-- Node6&#45;&gt;Node23 -->
<g id="edge33" class="edge">
<title>Node6&#45;&gt;Node23</title>
<path fill="none" stroke="#191970" d="M1594.7367,-190.4581C1636.5994,-179.7308 1704.6628,-162.2895 1750.2415,-150.61"/>
<polygon fill="#191970" stroke="#191970" points="1751.3578,-153.9371 1760.176,-148.0643 1749.6201,-147.1562 1751.3578,-153.9371"/>
</g>
<!-- Node10&#45;&gt;Node9 -->
<g id="edge11" class="edge">
<title>Node10&#45;&gt;Node9</title>
<path fill="none" stroke="#191970" d="M2123.8361,-62.3926C2106.7882,-60.1802 2088.4775,-57.9052 2071.5,-56 1933.6709,-40.5326 1773.5422,-26.115 1675.3731,-17.6798"/>
<polygon fill="#191970" stroke="#191970" points="1675.4495,-14.1736 1665.1872,-16.8069 1674.8518,-21.148 1675.4495,-14.1736"/>
</g>
<!-- Node10&#45;&gt;Node11 -->
<g id="edge12" class="edge">
<title>Node10&#45;&gt;Node11</title>
<path fill="none" stroke="#191970" d="M2143.0331,-61.9772C2132.0424,-59.8945 2120.3796,-57.7822 2109.5,-56 2013.8876,-40.3379 1902.4011,-25.8561 1834.6651,-17.4754"/>
<polygon fill="#191970" stroke="#191970" points="1834.9404,-13.983 1824.5874,-16.2337 1834.0843,-20.9304 1834.9404,-13.983"/>
</g>
<!-- Node12 -->
<g id="node13" class="node">
<title>Node12</title>
<polygon fill="#ffffff" stroke="#bfbfbf" points="2132.5,-.5 2132.5,-19.5 2248.5,-19.5 2248.5,-.5 2132.5,-.5"/>
<text text-anchor="middle" x="2190.5" y="-7.5" font-family="Helvetica,sans-Serif" font-size="10.00" fill="#000000">AMReX_Interpolater.H</text>
</g>
<!-- Node10&#45;&gt;Node12 -->
<g id="edge13" class="edge">
<title>Node10&#45;&gt;Node12</title>
<path fill="none" stroke="#191970" d="M2190.5,-61.8906C2190.5,-53.3657 2190.5,-40.6392 2190.5,-29.9235"/>
<polygon fill="#191970" stroke="#191970" points="2194.0001,-29.7448 2190.5,-19.7449 2187.0001,-29.7449 2194.0001,-29.7448"/>
</g>
<!-- Node13&#45;&gt;Node7 -->
<g id="edge15" class="edge">
<title>Node13&#45;&gt;Node7</title>
<path fill="none" stroke="#191970" d="M1091.7221,-129.044C1065.0726,-121.8039 1034.9654,-109.1204 1015.5,-87 1001.5468,-71.1436 997.4934,-46.6426 996.4856,-29.5503"/>
<polygon fill="#191970" stroke="#191970" points="999.9842,-29.4454 996.1897,-19.5533 992.9872,-29.6525 999.9842,-29.4454"/>
</g>
<!-- Node13&#45;&gt;Node8 -->
<g id="edge17" class="edge">
<title>Node13&#45;&gt;Node8</title>
<path fill="none" stroke="#191970" d="M1119.1488,-128.9246C1067.1133,-112.2253 955.0657,-77.5076 858.5,-56 778.456,-38.1722 684.2325,-24.2396 627.2293,-16.5721"/>
<polygon fill="#191970" stroke="#191970" points="627.405,-13.0646 617.0305,-15.2137 626.4808,-20.0034 627.405,-13.0646"/>
</g>
<!-- Node13&#45;&gt;Node9 -->
<g id="edge23" class="edge">
<title>Node13&#45;&gt;Node9</title>
<path fill="none" stroke="#191970" d="M1180.8075,-128.9261C1213.4825,-119.0657 1265.3308,-102.9314 1309.5,-87 1344.2032,-74.4829 1351.3229,-67.1159 1386.5,-56 1431.6329,-41.7381 1483.8426,-29.7439 1523.17,-21.5823"/>
<polygon fill="#191970" stroke="#191970" points="1524.0412,-24.9766 1533.1343,-19.5391 1522.635,-18.1193 1524.0412,-24.9766"/>
</g>
<!-- Node13&#45;&gt;Node11 -->
<g id="edge19" class="edge">
<title>Node13&#45;&gt;Node11</title>
<path fill="none" stroke="#191970" d="M1205.2431,-135.5632C1281.9495,-130.5674 1422.482,-117.7754 1538.5,-87 1573.7602,-77.6467 1580.0518,-68.0037 1614.5,-56 1651.5026,-43.1061 1694.209,-30.8244 1725.8858,-22.1999"/>
<polygon fill="#191970" stroke="#191970" points="1727.0205,-25.5189 1735.7618,-19.5322 1725.195,-18.7612 1727.0205,-25.5189"/>
</g>
<!-- Node14 -->
<g id="node15" class="node">
<title>Node14</title>
<polygon fill="#ffffff" stroke="#bfbfbf" points="377.5,-.5 377.5,-19.5 429.5,-19.5 429.5,-.5 377.5,-.5"/>
<text text-anchor="middle" x="403.5" y="-7.5" font-family="Helvetica,sans-Serif" font-size="10.00" fill="#000000">memory</text>
</g>
<!-- Node13&#45;&gt;Node14 -->
<g id="edge16" class="edge">
<title>Node13&#45;&gt;Node14</title>
<path fill="none" stroke="#191970" d="M1091.7856,-132.3206C1019.3253,-123.7615 898.4932,-107.0621 858.5,-87 840.5132,-77.9771 843.7797,-64.4137 825.5,-56 808.0397,-47.9634 538.7177,-22.4704 439.6817,-13.3144"/>
<polygon fill="#191970" stroke="#191970" points="439.8338,-9.8137 429.5545,-12.3803 439.1907,-16.7841 439.8338,-9.8137"/>
</g>
<!-- Node15 -->
<g id="node16" class="node">
<title>Node15</title>
<polygon fill="#ffffff" stroke="#bfbfbf" points="1024.5,-62 1024.5,-81 1080.5,-81 1080.5,-62 1024.5,-62"/>
<text text-anchor="middle" x="1052.5" y="-69" font-family="Helvetica,sans-Serif" font-size="10.00" fill="#000000">algorithm</text>
</g>
<!-- Node13&#45;&gt;Node15 -->
<g id="edge18" class="edge">
<title>Node13&#45;&gt;Node15</title>
<path fill="none" stroke="#191970" d="M1134.7455,-128.9005C1119.0623,-117.9549 1093.2017,-99.9064 1074.6642,-86.9688"/>
<polygon fill="#191970" stroke="#191970" points="1076.4324,-83.9347 1066.2289,-81.0817 1072.4262,-89.675 1076.4324,-83.9347"/>
</g>
<!-- Node16 -->
<g id="node17" class="node">
<title>Node16</title>
<polygon fill="#ffffff" stroke="#bfbfbf" points="1099,-62 1099,-81 1198,-81 1198,-62 1099,-62"/>
<text text-anchor="middle" x="1148.5" y="-69" font-family="Helvetica,sans-Serif" font-size="10.00" fill="#000000">AMReX_BCRec.H</text>
</g>
<!-- Node13&#45;&gt;Node16 -->
<g id="edge20" class="edge">
<title>Node13&#45;&gt;Node16</title>
<path fill="none" stroke="#191970" d="M1148.5,-128.9005C1148.5,-119.149 1148.5,-103.7597 1148.5,-91.3695"/>
<polygon fill="#191970" stroke="#191970" points="1152.0001,-91.0816 1148.5,-81.0817 1145.0001,-91.0817 1152.0001,-91.0816"/>
</g>
<!-- Node17 -->
<g id="node18" class="node">
<title>Node17</title>
<polygon fill="#ffffff" stroke="#bfbfbf" points="1216,-62 1216,-81 1301,-81 1301,-62 1216,-62"/>
<text text-anchor="middle" x="1258.5" y="-69" font-family="Helvetica,sans-Serif" font-size="10.00" fill="#000000">AMReX_Gpu.H</text>
</g>
<!-- Node13&#45;&gt;Node17 -->
<g id="edge21" class="edge">
<title>Node13&#45;&gt;Node17</title>
<path fill="none" stroke="#191970" d="M1164.2603,-128.9005C1182.4757,-117.8057 1212.673,-99.4128 1233.9677,-86.4424"/>
<polygon fill="#191970" stroke="#191970" points="1236.0491,-89.2728 1242.7689,-81.0817 1232.4077,-83.2945 1236.0491,-89.2728"/>
</g>
<!-- Node18 -->
<g id="node19" class="node">
<title>Node18</title>
<g id="a_node19"><a xlink:href="incflo__enums_8_h.html" target="_top" xlink:title="amr&#45;wind/incflo_enums.H">
<polygon fill="#ffffff" stroke="#000000" points="688.5,-62 688.5,-81 816.5,-81 816.5,-62 688.5,-62"/>
<text text-anchor="middle" x="752.5" y="-69" font-family="Helvetica,sans-Serif" font-size="10.00" fill="#000000">amr&#45;wind/incflo_enums.H</text>
</a>
</g>
</g>
<!-- Node13&#45;&gt;Node18 -->
<g id="edge22" class="edge">
<title>Node13&#45;&gt;Node18</title>
<path fill="none" stroke="#191970" d="M1091.8146,-129.9431C1028.1313,-120.1851 921.7295,-103.4464 830.5,-87 823.494,-85.737 816.1459,-84.354 808.8777,-82.9505"/>
<polygon fill="#191970" stroke="#191970" points="809.5411,-79.514 799.0558,-81.0333 808.2,-86.3843 809.5411,-79.514"/>
</g>
<!-- Node19 -->
<g id="node20" class="node">
<title>Node19</title>
<g id="a_node20"><a xlink:href="_view_field_8_h.html" target="_top" xlink:title="amr&#45;wind/core/ViewField.H">
<polygon fill="#ffffff" stroke="#000000" points="1395.5,-62 1395.5,-81 1529.5,-81 1529.5,-62 1395.5,-62"/>
<text text-anchor="middle" x="1462.5" y="-69" font-family="Helvetica,sans-Serif" font-size="10.00" fill="#000000">amr&#45;wind/core/ViewField.H</text>
</a>
</g>
</g>
<!-- Node13&#45;&gt;Node19 -->
<g id="edge24" class="edge">
<title>Node13&#45;&gt;Node19</title>
<path fill="none" stroke="#191970" d="M1193.1551,-128.9717C1249.6916,-116.9082 1347.0446,-96.1354 1407.9291,-83.1441"/>
<polygon fill="#191970" stroke="#191970" points="1408.6956,-86.5594 1417.745,-81.0496 1407.2348,-79.7135 1408.6956,-86.5594"/>
</g>
<!-- Node19&#45;&gt;Node7 -->
<g id="edge25" class="edge">
<title>Node19&#45;&gt;Node7</title>
<path fill="none" stroke="#191970" d="M1415.4823,-61.9244C1404.366,-59.8211 1392.5356,-57.713 1381.5,-56 1250.1216,-35.607 1092.3022,-19.3005 1027.0392,-12.9133"/>
<polygon fill="#191970" stroke="#191970" points="1027.3123,-9.4235 1017.0207,-11.9398 1026.6353,-16.3906 1027.3123,-9.4235"/>
</g>
<!-- Node19&#45;&gt;Node9 -->
<g id="edge26" class="edge">
<title>Node19&#45;&gt;Node9</title>
<path fill="none" stroke="#191970" d="M1481.4063,-61.8906C1501.2966,-51.7811 1532.8123,-35.7628 1555.5692,-24.1962"/>
<polygon fill="#191970" stroke="#191970" points="1557.3978,-27.193 1564.7265,-19.5419 1554.226,-20.9528 1557.3978,-27.193"/>
</g>
<!-- Node19&#45;&gt;Node11 -->
<g id="edge27" class="edge">
<title>Node19&#45;&gt;Node11</title>
<path fill="none" stroke="#191970" d="M1510.5974,-61.9581C1565.6592,-51.0345 1655.8132,-33.1492 1714.6591,-21.4749"/>
<polygon fill="#191970" stroke="#191970" points="1715.4171,-24.8928 1724.5449,-19.5137 1714.0549,-18.0266 1715.4171,-24.8928"/>
</g>
<!-- Node20 -->
<g id="node21" class="node">
<title>Node20</title>
<polygon fill="#ffffff" stroke="#bfbfbf" points="1389,-.5 1389,-19.5 1484,-19.5 1484,-.5 1389,-.5"/>
<text text-anchor="middle" x="1436.5" y="-7.5" font-family="Helvetica,sans-Serif" font-size="10.00" fill="#000000">AMReX_Vector.H</text>
</g>
<!-- Node19&#45;&gt;Node20 -->
<g id="edge28" class="edge">
<title>Node19&#45;&gt;Node20</title>
<path fill="none" stroke="#191970" d="M1458.4375,-61.8906C1454.7576,-53.1862 1449.2258,-40.1015 1444.638,-29.2494"/>
<polygon fill="#191970" stroke="#191970" points="1447.7375,-27.5927 1440.6198,-19.7449 1441.29,-30.3185 1447.7375,-27.5927"/>
</g>
<!-- Node21&#45;&gt;Node7 -->
<g id="edge30" class="edge">
<title>Node21&#45;&gt;Node7</title>
<path fill="none" stroke="#191970" d="M1522.4873,-128.9552C1487.7135,-119.2417 1433.0141,-103.3302 1386.5,-87 1351.6913,-74.7794 1345.1102,-65.6385 1309.5,-56 1208.3931,-28.6339 1084.224,-16.5127 1027.4638,-12.11"/>
<polygon fill="#191970" stroke="#191970" points="1027.5871,-8.6095 1017.3536,-11.3529 1027.0643,-15.5899 1027.5871,-8.6095"/>
</g>
<!-- Node21&#45;&gt;Node9 -->
<g id="edge31" class="edge">
<title>Node21&#45;&gt;Node9</title>
<path fill="none" stroke="#191970" d="M1559.4542,-128.8416C1563.708,-107.8184 1573.877,-57.5598 1579.5335,-29.6038"/>
<polygon fill="#191970" stroke="#191970" points="1582.9703,-30.266 1581.5231,-19.7705 1576.1094,-28.8777 1582.9703,-30.266"/>
</g>
<!-- Node21&#45;&gt;Node22 -->
<g id="edge32" class="edge">
<title>Node21&#45;&gt;Node22</title>
<path fill="none" stroke="#191970" d="M1574.6931,-128.9005C1594.7427,-117.7062 1628.0988,-99.0823 1651.3602,-86.0947"/>
<polygon fill="#191970" stroke="#191970" points="1653.3138,-89.0126 1660.3388,-81.0817 1649.9013,-82.9007 1653.3138,-89.0126"/>
</g>
<!-- Node23&#45;&gt;Node7 -->
<g id="edge34" class="edge">
<title>Node23&#45;&gt;Node7</title>
<path fill="none" stroke="#191970" d="M1794.0493,-128.9668C1786.9813,-111.0091 1768.9919,-72.4941 1739.5,-56 1707.9601,-38.3605 1164.2424,-16.4257 1027.5076,-11.1702"/>
<polygon fill="#191970" stroke="#191970" points="1027.4389,-7.6651 1017.3124,-10.7803 1027.1713,-14.66 1027.4389,-7.6651"/>
</g>
<!-- Node23&#45;&gt;Node9 -->
<g id="edge35" class="edge">
<title>Node23&#45;&gt;Node9</title>
<path fill="none" stroke="#191970" d="M1870.7518,-132.5208C1944.7704,-123.7627 2042.6348,-103.0384 2000.5,-56 1995.1011,-49.9728 1796.1563,-30.1381 1675.0447,-18.5761"/>
<polygon fill="#191970" stroke="#191970" points="1675.3079,-15.0854 1665.021,-17.6211 1674.644,-22.0539 1675.3079,-15.0854"/>
</g>
<!-- Node23&#45;&gt;Node11 -->
<g id="edge37" class="edge">
<title>Node23&#45;&gt;Node11</title>
<path fill="none" stroke="#191970" d="M1802.3841,-128.5484C1809.4463,-112.7358 1820.7065,-81.0955 1811.5,-56 1807.4432,-44.9418 1799.4203,-34.7193 1791.7006,-26.7335"/>
<polygon fill="#191970" stroke="#191970" points="1793.8698,-23.9632 1784.24,-19.5451 1789.0128,-29.0041 1793.8698,-23.9632"/>
</g>
<!-- Node23&#45;&gt;Node19 -->
<g id="edge36" class="edge">
<title>Node23&#45;&gt;Node19</title>
<path fill="none" stroke="#191970" d="M1749.8584,-128.9717C1689.4164,-116.8833 1585.2484,-96.0497 1520.3192,-83.0638"/>
<polygon fill="#191970" stroke="#191970" points="1520.7404,-79.5788 1510.2481,-81.0496 1519.3675,-86.4429 1520.7404,-79.5788"/>
</g>
<!-- Node23&#45;&gt;Node20 -->
<g id="edge38" class="edge">
<title>Node23&#45;&gt;Node20</title>
<path fill="none" stroke="#191970" d="M1797.8315,-128.8265C1797.8547,-111.328 1795.1516,-74.5185 1773.5,-56 1727.8067,-16.9187 1569.8369,-28.3493 1494.2334,-19.9889"/>
<polygon fill="#191970" stroke="#191970" points="1494.5012,-16.4942 1484.1323,-18.6705 1493.5952,-23.4353 1494.5012,-16.4942"/>
</g>
<!-- Node24 -->
<g id="node25" class="node">
<title>Node24</title>
<polygon fill="#ffffff" stroke="#bfbfbf" points="1863.5,-62 1863.5,-81 1991.5,-81 1991.5,-62 1863.5,-62"/>
<text text-anchor="middle" x="1927.5" y="-69" font-family="Helvetica,sans-Serif" font-size="10.00" fill="#000000">AMReX_PhysBCFunct.H</text>
</g>
<!-- Node23&#45;&gt;Node24 -->
<g id="edge39" class="edge">
<title>Node23&#45;&gt;Node24</title>
<path fill="none" stroke="#191970" d="M1816.1258,-128.9005C1838.0393,-117.6067 1874.6256,-98.7506 1899.8513,-85.7497"/>
<polygon fill="#191970" stroke="#191970" points="1901.6232,-88.774 1908.9087,-81.0817 1898.4164,-82.5518 1901.6232,-88.774"/>
</g>
<!-- Node25&#45;&gt;Node7 -->
<g id="edge44" class="edge">
<title>Node25&#45;&gt;Node7</title>
<path fill="none" stroke="#191970" d="M345.7317,-123.4855C331.871,-105.3215 313.9175,-74.8407 331.5,-56 353.4136,-32.5182 837.5351,-15.1663 965.635,-10.9746"/>
<polygon fill="#191970" stroke="#191970" points="966.0268,-14.4638 975.9082,-10.6418 965.8,-7.4675 966.0268,-14.4638"/>
</g>
<!-- Node25&#45;&gt;Node9 -->
<g id="edge58" class="edge">
<title>Node25&#45;&gt;Node9</title>
<path fill="none" stroke="#191970" d="M398.9478,-123.4942C421.8306,-114.2883 450.5662,-101.5005 474.5,-87 493.4376,-75.5265 492.7323,-63.6794 513.5,-56 613.0027,-19.2065 1345.3515,-27.4882 1491.4685,-19.9021"/>
<polygon fill="#191970" stroke="#191970" points="1491.9064,-23.3819 1501.6732,-19.2758 1491.4776,-16.395 1491.9064,-23.3819"/>
</g>
<!-- Node25&#45;&gt;Node18 -->
<g id="edge59" class="edge">
<title>Node25&#45;&gt;Node18</title>
<path fill="none" stroke="#191970" d="M428.2184,-124.5215C431.014,-124.0003 433.7828,-123.4913 436.5,-123 519.8325,-107.9343 615.8954,-92.5609 680.0234,-82.5817"/>
<polygon fill="#191970" stroke="#191970" points="680.6899,-86.0203 690.0345,-81.0273 679.6159,-79.1031 680.6899,-86.0203"/>
</g>
<!-- Node26 -->
<g id="node27" class="node">
<title>Node26</title>
<g id="a_node27"><a xlink:href="_factory_8_h.html" target="_top" xlink:title="amr&#45;wind/core/Factory.H">
<polygon fill="#ffffff" stroke="#000000" points="159,-62 159,-81 284,-81 284,-62 159,-62"/>
<text text-anchor="middle" x="221.5" y="-69" font-family="Helvetica,sans-Serif" font-size="10.00" fill="#000000">amr&#45;wind/core/Factory.H</text>
</a>
</g>
</g>
<!-- Node25&#45;&gt;Node26 -->
<g id="edge45" class="edge">
<title>Node25&#45;&gt;Node26</title>
<path fill="none" stroke="#191970" d="M327.7545,-123.4639C304.5606,-112.1209 272.9684,-96.6707 250.2706,-85.5703"/>
<polygon fill="#191970" stroke="#191970" points="251.6588,-82.3531 241.1379,-81.1039 248.5835,-88.6414 251.6588,-82.3531"/>
</g>
<!-- Node30 -->
<g id="node31" class="node">
<title>Node30</title>
<g id="a_node31"><a xlink:href="_coll_mgr_8_h.html" target="_top" xlink:title="amr&#45;wind/core/CollMgr.H">
<polygon fill="#ffffff" stroke="#000000" points="341,-62 341,-81 466,-81 466,-62 341,-62"/>
<text text-anchor="middle" x="403.5" y="-69" font-family="Helvetica,sans-Serif" font-size="10.00" fill="#000000">amr&#45;wind/core/CollMgr.H</text>
</a>
</g>
</g>
<!-- Node25&#45;&gt;Node30 -->
<g id="edge51" class="edge">
<title>Node25&#45;&gt;Node30</title>
<path fill="none" stroke="#191970" d="M368.7112,-123.2967C375.4501,-113.2631 384.3106,-100.0709 391.4029,-89.5113"/>
<polygon fill="#191970" stroke="#191970" points="394.4124,-91.3078 397.0825,-81.055 388.6014,-87.4049 394.4124,-91.3078"/>
</g>
<!-- Node31 -->
<g id="node32" class="node">
<title>Node31</title>
<g id="a_node32"><a xlink:href="_p_d_e_fields_8_h.html" target="_top" xlink:title="amr&#45;wind/equation_systems\l/PDEFields.H">
<polygon fill="#ffffff" stroke="#000000" points="0,-56.5 0,-86.5 139,-86.5 139,-56.5 0,-56.5"/>
<text text-anchor="start" x="8" y="-74.5" font-family="Helvetica,sans-Serif" font-size="10.00" fill="#000000">amr&#45;wind/equation_systems</text>
<text text-anchor="middle" x="69.5" y="-63.5" font-family="Helvetica,sans-Serif" font-size="10.00" fill="#000000">/PDEFields.H</text>
</a>
</g>
</g>
<!-- Node25&#45;&gt;Node31 -->
<g id="edge56" class="edge">
<title>Node25&#45;&gt;Node31</title>
<path fill="none" stroke="#191970" d="M293.6428,-123.4639C249.4554,-113.2198 190.8185,-99.6257 144.6023,-88.9113"/>
<polygon fill="#191970" stroke="#191970" points="145.1722,-85.4506 134.6401,-86.6017 143.5913,-92.2698 145.1722,-85.4506"/>
</g>
<!-- Node26&#45;&gt;Node8 -->
<g id="edge47" class="edge">
<title>Node26&#45;&gt;Node8</title>
<path fill="none" stroke="#191970" d="M267.4603,-61.9817C277.667,-59.9423 288.441,-57.8471 298.5,-56 376.8141,-41.6194 467.9552,-26.8638 523.6758,-18.0656"/>
<polygon fill="#191970" stroke="#191970" points="524.3232,-21.5068 533.6568,-16.4935 523.234,-14.5921 524.3232,-21.5068"/>
</g>
<!-- Node26&#45;&gt;Node14 -->
<g id="edge46" class="edge">
<title>Node26&#45;&gt;Node14</title>
<path fill="none" stroke="#191970" d="M249.9375,-61.8906C281.6942,-51.1597 333.1527,-33.7712 367.6441,-22.1161"/>
<polygon fill="#191970" stroke="#191970" points="368.9737,-25.3613 377.327,-18.8442 366.7328,-18.7297 368.9737,-25.3613"/>
</g>
<!-- Node27 -->
<g id="node28" class="node">
<title>Node27</title>
<polygon fill="#ffffff" stroke="#bfbfbf" points="107.5,-.5 107.5,-19.5 161.5,-19.5 161.5,-.5 107.5,-.5"/>
<text text-anchor="middle" x="134.5" y="-7.5" font-family="Helvetica,sans-Serif" font-size="10.00" fill="#000000">iostream</text>
</g>
<!-- Node26&#45;&gt;Node27 -->
<g id="edge48" class="edge">
<title>Node26&#45;&gt;Node27</title>
<path fill="none" stroke="#191970" d="M207.9063,-61.8906C194.1157,-52.1421 172.5528,-36.8994 156.359,-25.4521"/>
<polygon fill="#191970" stroke="#191970" points="158.1844,-22.4563 147.9983,-19.5419 154.1437,-28.1723 158.1844,-22.4563"/>
</g>
<!-- Node28 -->
<g id="node29" class="node">
<title>Node28</title>
<polygon fill="#ffffff" stroke="#bfbfbf" points="180,-.5 180,-19.5 267,-19.5 267,-.5 180,-.5"/>
<text text-anchor="middle" x="223.5" y="-7.5" font-family="Helvetica,sans-Serif" font-size="10.00" fill="#000000">AMReX_Print.H</text>
</g>
<!-- Node26&#45;&gt;Node28 -->
<g id="edge49" class="edge">
<title>Node26&#45;&gt;Node28</title>
<path fill="none" stroke="#191970" d="M221.8125,-61.8906C222.0897,-53.3657 222.5036,-40.6392 222.8521,-29.9235"/>
<polygon fill="#191970" stroke="#191970" points="226.3561,-29.8534 223.1831,-19.7449 219.3598,-29.6258 226.3561,-29.8534"/>
</g>
<!-- Node29 -->
<g id="node30" class="node">
<title>Node29</title>
<polygon fill="#ffffff" stroke="#bfbfbf" points="285.5,-.5 285.5,-19.5 347.5,-19.5 347.5,-.5 285.5,-.5"/>
<text text-anchor="middle" x="316.5" y="-7.5" font-family="Helvetica,sans-Serif" font-size="10.00" fill="#000000">AMReX.H</text>
</g>
<!-- Node26&#45;&gt;Node29 -->
<g id="edge50" class="edge">
<title>Node26&#45;&gt;Node29</title>
<path fill="none" stroke="#191970" d="M236.3438,-61.8906C251.5418,-52.0519 275.3848,-36.6167 293.1206,-25.1351"/>
<polygon fill="#191970" stroke="#191970" points="295.268,-27.9144 301.7605,-19.5419 291.4639,-22.0382 295.268,-27.9144"/>
</g>
<!-- Node30&#45;&gt;Node7 -->
<g id="edge52" class="edge">
<title>Node30&#45;&gt;Node7</title>
<path fill="none" stroke="#191970" d="M446.5234,-61.9726C457.5565,-59.7682 469.4337,-57.6021 480.5,-56 663.2759,-29.5382 884.8263,-15.9313 965.3516,-11.5823"/>
<polygon fill="#191970" stroke="#191970" points="965.959,-15.0551 975.7594,-11.0298 965.5878,-8.065 965.959,-15.0551"/>
</g>
<!-- Node30&#45;&gt;Node8 -->
<g id="edge54" class="edge">
<title>Node30&#45;&gt;Node8</title>
<path fill="none" stroke="#191970" d="M430.375,-61.8906C459.6586,-51.42 506.669,-34.6111 539.2137,-22.9745"/>
<polygon fill="#191970" stroke="#191970" points="540.5759,-26.2045 548.8137,-19.5419 538.2191,-19.6131 540.5759,-26.2045"/>
</g>
<!-- Node30&#45;&gt;Node14 -->
<g id="edge53" class="edge">
<title>Node30&#45;&gt;Node14</title>
<path fill="none" stroke="#191970" d="M403.5,-61.8906C403.5,-53.3657 403.5,-40.6392 403.5,-29.9235"/>
<polygon fill="#191970" stroke="#191970" points="407.0001,-29.7448 403.5,-19.7449 400.0001,-29.7449 407.0001,-29.7448"/>
</g>
<!-- Node30&#45;&gt;Node20 -->
<g id="edge55" class="edge">
<title>Node30&#45;&gt;Node20</title>
<path fill="none" stroke="#191970" d="M444.8728,-61.9815C456.3535,-59.6657 468.862,-57.443 480.5,-56 655.9099,-34.2506 1200.0087,-16.8817 1378.8678,-11.6332"/>
<polygon fill="#191970" stroke="#191970" points="1378.9723,-15.1317 1388.8659,-11.3413 1378.7679,-8.1347 1378.9723,-15.1317"/>
</g>
<!-- Node32 -->
<g id="node33" class="node">
<title>Node32</title>
<polygon fill="#ffffff" stroke="#bfbfbf" points="44,-.5 44,-19.5 89,-19.5 89,-.5 44,-.5"/>
<text text-anchor="middle" x="66.5" y="-7.5" font-family="Helvetica,sans-Serif" font-size="10.00" fill="#000000">iosfwd</text>
</g>
<!-- Node31&#45;&gt;Node32 -->
<g id="edge57" class="edge">
<title>Node31&#45;&gt;Node32</title>
<path fill="none" stroke="#191970" d="M68.7584,-56.2977C68.3724,-48.3834 67.8953,-38.6043 67.4793,-30.0759"/>
<polygon fill="#191970" stroke="#191970" points="70.9635,-29.6645 66.9803,-19.8469 63.9718,-30.0056 70.9635,-29.6645"/>
</g>
<!-- Node33&#45;&gt;Node11 -->
<g id="edge63" class="edge">
<title>Node33&#45;&gt;Node11</title>
<path fill="none" stroke="#191970" d="M552.2593,-128.9563C562.1654,-126.8745 572.6817,-124.7679 582.5,-123 689.9508,-103.6525 717.6201,-103.7909 825.5,-87 910.0431,-73.8413 930.4393,-65.2392 1015.5,-56 1306.6692,-24.3735 1381.501,-42.7231 1673.5,-20 1685.408,-19.0733 1698.1052,-17.9178 1710.2966,-16.7246"/>
<polygon fill="#191970" stroke="#191970" points="1710.787,-20.1931 1720.3901,-15.7176 1710.092,-13.2277 1710.787,-20.1931"/>
</g>
<!-- Node33&#45;&gt;Node26 -->
<g id="edge61" class="edge">
<title>Node33&#45;&gt;Node26</title>
<path fill="none" stroke="#191970" d="M468.5425,-128.9717C417.0812,-116.9998 328.7496,-96.4504 272.8305,-83.4415"/>
<polygon fill="#191970" stroke="#191970" points="273.3155,-79.9609 262.7825,-81.1039 271.7293,-86.7788 273.3155,-79.9609"/>
</g>
<!-- Node33&#45;&gt;Node30 -->
<g id="edge62" class="edge">
<title>Node33&#45;&gt;Node30</title>
<path fill="none" stroke="#191970" d="M494.3128,-128.9005C476.7597,-117.8057 447.6606,-99.4128 427.1402,-86.4424"/>
<polygon fill="#191970" stroke="#191970" points="428.9821,-83.4661 418.659,-81.0817 425.242,-89.3832 428.9821,-83.4661"/>
</g>
<!-- Node34 -->
<g id="node35" class="node">
<title>Node34</title>
<polygon fill="#ffffff" stroke="#bfbfbf" points="522.5,-62 522.5,-81 632.5,-81 632.5,-62 522.5,-62"/>
<text text-anchor="middle" x="577.5" y="-69" font-family="Helvetica,sans-Serif" font-size="10.00" fill="#000000">AMReX_Geometry.H</text>
</g>
<!-- Node33&#45;&gt;Node34 -->
<g id="edge64" class="edge">
<title>Node33&#45;&gt;Node34</title>
<path fill="none" stroke="#191970" d="M519.2427,-128.9005C529.9477,-118.353 547.347,-101.2096 560.3479,-88.3998"/>
<polygon fill="#191970" stroke="#191970" points="563.1085,-90.5933 567.7753,-81.0817 558.1956,-85.607 563.1085,-90.5933"/>
</g>
</g>
</svg>
