<?xml version="1.0" encoding="UTF-8" standalone="no"?>
<!DOCTYPE svg PUBLIC "-//W3C//DTD SVG 1.1//EN"
 "http://www.w3.org/Graphics/SVG/1.1/DTD/svg11.dtd">
<!-- Generated by graphviz version 2.40.1 (20161225.0304)
 -->
<!-- Title: ConstTransport.H Pages: 1 -->
<svg width="1830pt" height="319pt"
 viewBox="0.00 0.00 1829.70 319.00" xmlns="http://www.w3.org/2000/svg" xmlns:xlink="http://www.w3.org/1999/xlink">
<g id="graph0" class="graph" transform="scale(1 1) rotate(0) translate(4 315)">
<title>ConstTransport.H</title>
<polygon fill="#ffffff" stroke="transparent" points="-4,4 -4,-315 1825.6952,-315 1825.6952,4 -4,4"/>
<!-- Node0 -->
<g id="node1" class="node">
<title>Node0</title>
<polygon fill="#bfbfbf" stroke="#000000" points="714.5,-291.5 714.5,-310.5 809.5,-310.5 809.5,-291.5 714.5,-291.5"/>
<text text-anchor="middle" x="762" y="-298.5" font-family="Helvetica,sans-Serif" font-size="10.00" fill="#000000">ConstTransport.H</text>
</g>
<!-- Node1 -->
<g id="node2" class="node">
<title>Node1</title>
<g id="a_node2"><a xlink:href="_transport_model_8_h.html" target="_top" xlink:title="amr&#45;wind/transport\l_models/TransportModel.H">
<polygon fill="#ffffff" stroke="#000000" points="624,-224.5 624,-254.5 758,-254.5 758,-224.5 624,-224.5"/>
<text text-anchor="start" x="632" y="-242.5" font-family="Helvetica,sans-Serif" font-size="10.00" fill="#000000">amr&#45;wind/transport</text>
<text text-anchor="middle" x="691" y="-231.5" font-family="Helvetica,sans-Serif" font-size="10.00" fill="#000000">_models/TransportModel.H</text>
</a>
</g>
</g>
<!-- Node0&#45;&gt;Node1 -->
<g id="edge1" class="edge">
<title>Node0&#45;&gt;Node1</title>
<path fill="none" stroke="#191970" d="M750.9063,-291.3906C741.6532,-283.3756 728.1124,-271.6466 716.2444,-261.3666"/>
<polygon fill="#191970" stroke="#191970" points="718.2188,-258.4464 708.3686,-254.5446 713.6357,-263.7374 718.2188,-258.4464"/>
</g>
<!-- Node26 -->
<g id="node27" class="node">
<title>Node26</title>
<polygon fill="#ffffff" stroke="#bfbfbf" points="776,-230 776,-249 892,-249 892,-230 776,-230"/>
<text text-anchor="middle" x="834" y="-237" font-family="Helvetica,sans-Serif" font-size="10.00" fill="#000000">AMReX_ParmParse.H</text>
</g>
<!-- Node0&#45;&gt;Node26 -->
<g id="edge45" class="edge">
<title>Node0&#45;&gt;Node26</title>
<path fill="none" stroke="#191970" d="M773.25,-291.3906C784.386,-281.8786 801.646,-267.1357 814.9268,-255.7917"/>
<polygon fill="#191970" stroke="#191970" points="817.2608,-258.4011 822.5914,-249.2449 812.7144,-253.0784 817.2608,-258.4011"/>
</g>
<!-- Node2 -->
<g id="node3" class="node">
<title>Node2</title>
<g id="a_node3"><a xlink:href="_factory_8_h.html" target="_top" xlink:title="amr&#45;wind/core/Factory.H">
<polygon fill="#ffffff" stroke="#000000" points="185.5,-112.5 185.5,-131.5 310.5,-131.5 310.5,-112.5 185.5,-112.5"/>
<text text-anchor="middle" x="248" y="-119.5" font-family="Helvetica,sans-Serif" font-size="10.00" fill="#000000">amr&#45;wind/core/Factory.H</text>
</a>
</g>
</g>
<!-- Node1&#45;&gt;Node2 -->
<g id="edge2" class="edge">
<title>Node1&#45;&gt;Node2</title>
<path fill="none" stroke="#191970" d="M634.4438,-224.4992C545.6607,-200.9506 375.3117,-155.7678 293.7366,-134.131"/>
<polygon fill="#191970" stroke="#191970" points="294.5681,-130.7306 284.005,-131.5499 292.7735,-137.4967 294.5681,-130.7306"/>
</g>
<!-- Node8 -->
<g id="node9" class="node">
<title>Node8</title>
<g id="a_node9"><a xlink:href="_field_repo_8_h.html" target="_top" xlink:title="amr&#45;wind/core/FieldRepo.H">
<polygon fill="#ffffff" stroke="#000000" points="1014,-168.5 1014,-187.5 1150,-187.5 1150,-168.5 1014,-168.5"/>
<text text-anchor="middle" x="1082" y="-175.5" font-family="Helvetica,sans-Serif" font-size="10.00" fill="#000000">amr&#45;wind/core/FieldRepo.H</text>
</a>
</g>
</g>
<!-- Node1&#45;&gt;Node8 -->
<g id="edge8" class="edge">
<title>Node1&#45;&gt;Node8</title>
<path fill="none" stroke="#191970" d="M758.0979,-225.6027C761.1038,-225.0473 764.0817,-224.5102 767,-224 847.4869,-209.9271 940.0666,-196.767 1003.9286,-188.1589"/>
<polygon fill="#191970" stroke="#191970" points="1004.4798,-191.6164 1013.9252,-186.817 1003.5484,-184.6786 1004.4798,-191.6164"/>
</g>
<!-- Node3 -->
<g id="node4" class="node">
<title>Node3</title>
<polygon fill="#ffffff" stroke="#bfbfbf" points="510,-56.5 510,-75.5 562,-75.5 562,-56.5 510,-56.5"/>
<text text-anchor="middle" x="536" y="-63.5" font-family="Helvetica,sans-Serif" font-size="10.00" fill="#000000">memory</text>
</g>
<!-- Node2&#45;&gt;Node3 -->
<g id="edge3" class="edge">
<title>Node2&#45;&gt;Node3</title>
<path fill="none" stroke="#191970" d="M308.9078,-112.4674C360.1428,-104.0702 435.2,-90.8822 500,-76 500.0988,-75.9773 500.1977,-75.9545 500.2967,-75.9317"/>
<polygon fill="#191970" stroke="#191970" points="500.8601,-79.398 509.7239,-73.5943 499.1755,-72.6037 500.8601,-79.398"/>
</g>
<!-- Node4 -->
<g id="node5" class="node">
<title>Node4</title>
<polygon fill="#ffffff" stroke="#bfbfbf" points="257.5,-56.5 257.5,-75.5 340.5,-75.5 340.5,-56.5 257.5,-56.5"/>
<text text-anchor="middle" x="299" y="-63.5" font-family="Helvetica,sans-Serif" font-size="10.00" fill="#000000">unordered_map</text>
</g>
<!-- Node2&#45;&gt;Node4 -->
<g id="edge4" class="edge">
<title>Node2&#45;&gt;Node4</title>
<path fill="none" stroke="#191970" d="M256.8835,-112.2455C264.1966,-104.2155 274.7391,-92.6394 283.4467,-83.0781"/>
<polygon fill="#191970" stroke="#191970" points="286.0727,-85.3928 290.2183,-75.6427 280.8972,-80.6795 286.0727,-85.3928"/>
</g>
<!-- Node5 -->
<g id="node6" class="node">
<title>Node5</title>
<polygon fill="#ffffff" stroke="#bfbfbf" points="80,-56.5 80,-75.5 134,-75.5 134,-56.5 80,-56.5"/>
<text text-anchor="middle" x="107" y="-63.5" font-family="Helvetica,sans-Serif" font-size="10.00" fill="#000000">iostream</text>
</g>
<!-- Node2&#45;&gt;Node5 -->
<g id="edge5" class="edge">
<title>Node2&#45;&gt;Node5</title>
<path fill="none" stroke="#191970" d="M223.7612,-112.3733C200.7211,-103.2226 165.8786,-89.3844 140.2499,-79.2057"/>
<polygon fill="#191970" stroke="#191970" points="141.5082,-75.9395 130.9225,-75.5011 138.9244,-82.4452 141.5082,-75.9395"/>
</g>
<!-- Node6 -->
<g id="node7" class="node">
<title>Node6</title>
<polygon fill="#ffffff" stroke="#bfbfbf" points="152.5,-56.5 152.5,-75.5 239.5,-75.5 239.5,-56.5 152.5,-56.5"/>
<text text-anchor="middle" x="196" y="-63.5" font-family="Helvetica,sans-Serif" font-size="10.00" fill="#000000">AMReX_Print.H</text>
</g>
<!-- Node2&#45;&gt;Node6 -->
<g id="edge6" class="edge">
<title>Node2&#45;&gt;Node6</title>
<path fill="none" stroke="#191970" d="M238.9423,-112.2455C231.4858,-104.2155 220.7366,-92.6394 211.8583,-83.0781"/>
<polygon fill="#191970" stroke="#191970" points="214.3232,-80.589 204.9539,-75.6427 209.1937,-85.3522 214.3232,-80.589"/>
</g>
<!-- Node7 -->
<g id="node8" class="node">
<title>Node7</title>
<polygon fill="#ffffff" stroke="#bfbfbf" points="0,-56.5 0,-75.5 62,-75.5 62,-56.5 0,-56.5"/>
<text text-anchor="middle" x="31" y="-63.5" font-family="Helvetica,sans-Serif" font-size="10.00" fill="#000000">AMReX.H</text>
</g>
<!-- Node2&#45;&gt;Node7 -->
<g id="edge7" class="edge">
<title>Node2&#45;&gt;Node7</title>
<path fill="none" stroke="#191970" d="M210.6964,-112.3733C172.0441,-102.3985 111.8093,-86.854 71.8845,-76.5508"/>
<polygon fill="#191970" stroke="#191970" points="72.7546,-73.1608 62.1973,-74.0509 71.0054,-79.9387 72.7546,-73.1608"/>
</g>
<!-- Node8&#45;&gt;Node4 -->
<g id="edge10" class="edge">
<title>Node8&#45;&gt;Node4</title>
<path fill="none" stroke="#191970" d="M1013.6416,-174.2604C884.7642,-166.9077 610.4247,-149.7358 517,-132 450.8217,-119.4367 376.1916,-94.3703 333.6588,-79.0027"/>
<polygon fill="#191970" stroke="#191970" points="334.6631,-75.6435 324.0692,-75.5051 332.2645,-82.2198 334.6631,-75.6435"/>
</g>
<!-- Node9 -->
<g id="node10" class="node">
<title>Node9</title>
<polygon fill="#ffffff" stroke="#bfbfbf" points="1555.5,-.5 1555.5,-19.5 1596.5,-19.5 1596.5,-.5 1555.5,-.5"/>
<text text-anchor="middle" x="1576" y="-7.5" font-family="Helvetica,sans-Serif" font-size="10.00" fill="#000000">string</text>
</g>
<!-- Node8&#45;&gt;Node9 -->
<g id="edge9" class="edge">
<title>Node8&#45;&gt;Node9</title>
<path fill="none" stroke="#191970" d="M1150.1381,-175.9615C1287.7751,-171.3421 1594.4769,-158.3688 1696,-132 1753.3549,-117.1031 1785.0889,-125.9318 1817,-76 1821.7868,-68.5101 1822.6656,-62.8493 1817,-56 1790.6743,-24.1743 1665.9329,-14.1692 1606.9904,-11.1885"/>
<polygon fill="#191970" stroke="#191970" points="1606.9419,-7.6824 1596.7888,-10.71 1606.6138,-14.6747 1606.9419,-7.6824"/>
</g>
<!-- Node10 -->
<g id="node11" class="node">
<title>Node10</title>
<g id="a_node11"><a xlink:href="_field_desc_types_8_h.html" target="_top" xlink:title="amr&#45;wind/core/FieldDescTypes.H">
<polygon fill="#ffffff" stroke="#000000" points="901.5,-.5 901.5,-19.5 1064.5,-19.5 1064.5,-.5 901.5,-.5"/>
<text text-anchor="middle" x="983" y="-7.5" font-family="Helvetica,sans-Serif" font-size="10.00" fill="#000000">amr&#45;wind/core/FieldDescTypes.H</text>
</a>
</g>
</g>
<!-- Node8&#45;&gt;Node10 -->
<g id="edge11" class="edge">
<title>Node8&#45;&gt;Node10</title>
<path fill="none" stroke="#191970" d="M1013.8866,-173.5413C895.3887,-164.2105 659.1146,-138.1082 609,-76 572.0004,-30.1455 768.9541,-16.1484 891.2275,-11.8762"/>
<polygon fill="#191970" stroke="#191970" points="891.478,-15.3699 901.3558,-11.5385 891.2447,-8.3738 891.478,-15.3699"/>
</g>
<!-- Node11 -->
<g id="node12" class="node">
<title>Node11</title>
<g id="a_node12"><a xlink:href="_field_utils_8_h.html" target="_top" xlink:title="amr&#45;wind/core/FieldUtils.H">
<polygon fill="#ffffff" stroke="#000000" points="358.5,-56.5 358.5,-75.5 491.5,-75.5 491.5,-56.5 358.5,-56.5"/>
<text text-anchor="middle" x="425" y="-63.5" font-family="Helvetica,sans-Serif" font-size="10.00" fill="#000000">amr&#45;wind/core/FieldUtils.H</text>
</a>
</g>
</g>
<!-- Node8&#45;&gt;Node11 -->
<g id="edge12" class="edge">
<title>Node8&#45;&gt;Node11</title>
<path fill="none" stroke="#191970" d="M1013.6945,-174.5088C895.3182,-168.0055 656.952,-152.7879 576,-132 530.1903,-120.2364 480.5777,-96.1438 451.1761,-80.5506"/>
<polygon fill="#191970" stroke="#191970" points="452.4788,-77.277 442.0146,-75.6183 449.1605,-83.4405 452.4788,-77.277"/>
</g>
<!-- Node12 -->
<g id="node13" class="node">
<title>Node12</title>
<polygon fill="#ffffff" stroke="#bfbfbf" points="1334,-.5 1334,-19.5 1438,-19.5 1438,-.5 1334,-.5"/>
<text text-anchor="middle" x="1386" y="-7.5" font-family="Helvetica,sans-Serif" font-size="10.00" fill="#000000">AMReX_MultiFab.H</text>
</g>
<!-- Node8&#45;&gt;Node12 -->
<g id="edge43" class="edge">
<title>Node8&#45;&gt;Node12</title>
<path fill="none" stroke="#191970" d="M1150.0198,-175.9794C1224.5255,-172.271 1337.4013,-161.7628 1367,-132 1393.8489,-105.0023 1392.5868,-56.7354 1389.2974,-29.7118"/>
<polygon fill="#191970" stroke="#191970" points="1392.7249,-28.9561 1387.8397,-19.5548 1385.7959,-29.9507 1392.7249,-28.9561"/>
</g>
<!-- Node14 -->
<g id="node15" class="node">
<title>Node14</title>
<g id="a_node15"><a xlink:href="_field_8_h.html" target="_top" xlink:title="amr&#45;wind/core/Field.H">
<polygon fill="#ffffff" stroke="#000000" points="877.5,-112.5 877.5,-131.5 990.5,-131.5 990.5,-112.5 877.5,-112.5"/>
<text text-anchor="middle" x="934" y="-119.5" font-family="Helvetica,sans-Serif" font-size="10.00" fill="#000000">amr&#45;wind/core/Field.H</text>
</a>
</g>
</g>
<!-- Node8&#45;&gt;Node14 -->
<g id="edge16" class="edge">
<title>Node8&#45;&gt;Node14</title>
<path fill="none" stroke="#191970" d="M1056.5579,-168.3733C1032.2674,-159.1822 995.4792,-145.2624 968.5457,-135.0713"/>
<polygon fill="#191970" stroke="#191970" points="969.7016,-131.7666 959.1101,-131.5011 967.2243,-138.3136 969.7016,-131.7666"/>
</g>
<!-- Node21 -->
<g id="node22" class="node">
<title>Node21</title>
<g id="a_node22"><a xlink:href="_int_field_8_h.html" target="_top" xlink:title="amr&#45;wind/core/IntField.H">
<polygon fill="#ffffff" stroke="#000000" points="1110,-112.5 1110,-131.5 1234,-131.5 1234,-112.5 1110,-112.5"/>
<text text-anchor="middle" x="1172" y="-119.5" font-family="Helvetica,sans-Serif" font-size="10.00" fill="#000000">amr&#45;wind/core/IntField.H</text>
</a>
</g>
</g>
<!-- Node8&#45;&gt;Node21 -->
<g id="edge31" class="edge">
<title>Node8&#45;&gt;Node21</title>
<path fill="none" stroke="#191970" d="M1097.6768,-168.2455C1111.4856,-159.6534 1131.8193,-147.0014 1147.7292,-137.1018"/>
<polygon fill="#191970" stroke="#191970" points="1149.8613,-139.8974 1156.5028,-131.6427 1146.1632,-133.954 1149.8613,-139.8974"/>
</g>
<!-- Node22 -->
<g id="node23" class="node">
<title>Node22</title>
<polygon fill="#ffffff" stroke="#bfbfbf" points="1174.5,-56.5 1174.5,-75.5 1281.5,-75.5 1281.5,-56.5 1174.5,-56.5"/>
<text text-anchor="middle" x="1228" y="-63.5" font-family="Helvetica,sans-Serif" font-size="10.00" fill="#000000">AMReX_iMultiFab.H</text>
</g>
<!-- Node8&#45;&gt;Node22 -->
<g id="edge44" class="edge">
<title>Node8&#45;&gt;Node22</title>
<path fill="none" stroke="#191970" d="M1082.1538,-168.1483C1082.9035,-153.938 1086.3421,-127.6777 1101,-112 1117.6016,-94.2434 1141.5817,-83.3246 1164.2428,-76.6175"/>
<polygon fill="#191970" stroke="#191970" points="1165.4599,-79.9136 1174.1883,-73.9081 1163.6199,-73.1597 1165.4599,-79.9136"/>
</g>
<!-- Node23 -->
<g id="node24" class="node">
<title>Node23</title>
<g id="a_node24"><a xlink:href="_scratch_field_8_h.html" target="_top" xlink:title="amr&#45;wind/core/ScratchField.H">
<polygon fill="#ffffff" stroke="#000000" points="1541,-112.5 1541,-131.5 1687,-131.5 1687,-112.5 1541,-112.5"/>
<text text-anchor="middle" x="1614" y="-119.5" font-family="Helvetica,sans-Serif" font-size="10.00" fill="#000000">amr&#45;wind/core/ScratchField.H</text>
</a>
</g>
</g>
<!-- Node8&#45;&gt;Node23 -->
<g id="edge35" class="edge">
<title>Node8&#45;&gt;Node23</title>
<path fill="none" stroke="#191970" d="M1150.1894,-170.8222C1247.3296,-160.5969 1425.3834,-141.8544 1530.3639,-130.8038"/>
<polygon fill="#191970" stroke="#191970" points="1531.0239,-134.2537 1540.6026,-129.726 1530.2911,-127.2922 1531.0239,-134.2537"/>
</g>
<!-- Node25 -->
<g id="node26" class="node">
<title>Node25</title>
<polygon fill="#ffffff" stroke="#bfbfbf" points="1252,-112.5 1252,-131.5 1358,-131.5 1358,-112.5 1252,-112.5"/>
<text text-anchor="middle" x="1305" y="-119.5" font-family="Helvetica,sans-Serif" font-size="10.00" fill="#000000">AMReX_AmrCore.H</text>
</g>
<!-- Node8&#45;&gt;Node25 -->
<g id="edge42" class="edge">
<title>Node8&#45;&gt;Node25</title>
<path fill="none" stroke="#191970" d="M1120.0817,-168.4369C1158.0059,-158.9133 1216.3289,-144.2672 1257.3126,-133.9753"/>
<polygon fill="#191970" stroke="#191970" points="1258.229,-137.3539 1267.0754,-131.5237 1256.524,-130.5647 1258.229,-137.3539"/>
</g>
<!-- Node11&#45;&gt;Node10 -->
<g id="edge13" class="edge">
<title>Node11&#45;&gt;Node10</title>
<path fill="none" stroke="#191970" d="M491.7116,-57.0853C494.8503,-56.7089 497.9586,-56.3451 501,-56 636.7271,-40.5989 794.3545,-26.2154 891.3914,-17.7631"/>
<polygon fill="#191970" stroke="#191970" points="891.8028,-21.2407 901.4623,-16.8882 891.1969,-14.2669 891.8028,-21.2407"/>
</g>
<!-- Node11&#45;&gt;Node12 -->
<g id="edge14" class="edge">
<title>Node11&#45;&gt;Node12</title>
<path fill="none" stroke="#191970" d="M491.6948,-56.9218C494.838,-56.5892 497.9519,-56.2793 501,-56 809.0311,-27.7738 1179.0839,-15.5109 1323.7547,-11.5469"/>
<polygon fill="#191970" stroke="#191970" points="1323.8759,-15.045 1333.7775,-11.2757 1323.6865,-8.0475 1323.8759,-15.045"/>
</g>
<!-- Node13 -->
<g id="node14" class="node">
<title>Node13</title>
<polygon fill="#ffffff" stroke="#bfbfbf" points="367,-.5 367,-19.5 483,-19.5 483,-.5 367,-.5"/>
<text text-anchor="middle" x="425" y="-7.5" font-family="Helvetica,sans-Serif" font-size="10.00" fill="#000000">AMReX_Interpolater.H</text>
</g>
<!-- Node11&#45;&gt;Node13 -->
<g id="edge15" class="edge">
<title>Node11&#45;&gt;Node13</title>
<path fill="none" stroke="#191970" d="M425,-56.2455C425,-48.9382 425,-38.6944 425,-29.7046"/>
<polygon fill="#191970" stroke="#191970" points="428.5001,-29.6426 425,-19.6427 421.5001,-29.6427 428.5001,-29.6426"/>
</g>
<!-- Node14&#45;&gt;Node3 -->
<g id="edge18" class="edge">
<title>Node14&#45;&gt;Node3</title>
<path fill="none" stroke="#191970" d="M877.399,-114.036C794.3174,-102.3462 641.6958,-80.8718 572.1912,-71.0922"/>
<polygon fill="#191970" stroke="#191970" points="572.5551,-67.609 562.165,-69.6815 571.5797,-74.5408 572.5551,-67.609"/>
</g>
<!-- Node14&#45;&gt;Node4 -->
<g id="edge19" class="edge">
<title>Node14&#45;&gt;Node4</title>
<path fill="none" stroke="#191970" d="M877.2856,-119.7838C774.2563,-115.2686 549.363,-103.1653 350.7162,-76.1045"/>
<polygon fill="#191970" stroke="#191970" points="351.063,-72.6193 340.6788,-74.7212 350.1073,-79.5538 351.063,-72.6193"/>
</g>
<!-- Node14&#45;&gt;Node9 -->
<g id="edge17" class="edge">
<title>Node14&#45;&gt;Node9</title>
<path fill="none" stroke="#191970" d="M986.0485,-112.4288C1024.7131,-104.594 1078.4211,-92.173 1124,-76 1143.4847,-69.0861 1146.1192,-61.6754 1166,-56 1202.2778,-45.6438 1456.5414,-21.1773 1545.419,-12.8402"/>
<polygon fill="#191970" stroke="#191970" points="1545.7815,-16.3216 1555.4121,-11.9054 1545.1296,-9.3521 1545.7815,-16.3216"/>
</g>
<!-- Node14&#45;&gt;Node10 -->
<g id="edge25" class="edge">
<title>Node14&#45;&gt;Node10</title>
<path fill="none" stroke="#191970" d="M877.3826,-115.3852C829.5837,-108.4979 766.5107,-95.8921 751,-76 745.5342,-68.9902 745.3588,-62.8695 751,-56 768.8842,-34.2216 834.2848,-22.5731 891.1071,-16.4526"/>
<polygon fill="#191970" stroke="#191970" points="891.6486,-19.9154 901.2372,-15.4089 890.9312,-12.9523 891.6486,-19.9154"/>
</g>
<!-- Node14&#45;&gt;Node12 -->
<g id="edge21" class="edge">
<title>Node14&#45;&gt;Node12</title>
<path fill="none" stroke="#191970" d="M971.1843,-112.4237C1002.67,-103.9527 1048.8051,-90.6836 1088,-76 1108.1157,-68.4641 1111.4969,-62.4074 1132,-56 1195.7607,-36.0741 1271.3861,-23.7569 1323.4415,-16.9434"/>
<polygon fill="#191970" stroke="#191970" points="1324.0527,-20.3939 1333.5278,-15.6535 1323.1646,-13.4504 1324.0527,-20.3939"/>
</g>
<!-- Node15 -->
<g id="node16" class="node">
<title>Node15</title>
<polygon fill="#ffffff" stroke="#bfbfbf" points="906,-56.5 906,-75.5 962,-75.5 962,-56.5 906,-56.5"/>
<text text-anchor="middle" x="934" y="-63.5" font-family="Helvetica,sans-Serif" font-size="10.00" fill="#000000">algorithm</text>
</g>
<!-- Node14&#45;&gt;Node15 -->
<g id="edge20" class="edge">
<title>Node14&#45;&gt;Node15</title>
<path fill="none" stroke="#191970" d="M934,-112.2455C934,-104.9382 934,-94.6944 934,-85.7046"/>
<polygon fill="#191970" stroke="#191970" points="937.5001,-85.6426 934,-75.6427 930.5001,-85.6427 937.5001,-85.6426"/>
</g>
<!-- Node16 -->
<g id="node17" class="node">
<title>Node16</title>
<polygon fill="#ffffff" stroke="#bfbfbf" points="980.5,-56.5 980.5,-75.5 1079.5,-75.5 1079.5,-56.5 980.5,-56.5"/>
<text text-anchor="middle" x="1030" y="-63.5" font-family="Helvetica,sans-Serif" font-size="10.00" fill="#000000">AMReX_BCRec.H</text>
</g>
<!-- Node14&#45;&gt;Node16 -->
<g id="edge22" class="edge">
<title>Node14&#45;&gt;Node16</title>
<path fill="none" stroke="#191970" d="M950.7219,-112.2455C965.5889,-103.5731 987.5466,-90.7645 1004.5858,-80.825"/>
<polygon fill="#191970" stroke="#191970" points="1006.5955,-83.7047 1013.4697,-75.6427 1003.0683,-77.6582 1006.5955,-83.7047"/>
</g>
<!-- Node17 -->
<g id="node18" class="node">
<title>Node17</title>
<polygon fill="#ffffff" stroke="#bfbfbf" points="618.5,-56.5 618.5,-75.5 703.5,-75.5 703.5,-56.5 618.5,-56.5"/>
<text text-anchor="middle" x="661" y="-63.5" font-family="Helvetica,sans-Serif" font-size="10.00" fill="#000000">AMReX_Gpu.H</text>
</g>
<!-- Node14&#45;&gt;Node17 -->
<g id="edge23" class="edge">
<title>Node14&#45;&gt;Node17</title>
<path fill="none" stroke="#191970" d="M887.3798,-112.4369C839.2237,-102.5587 764.2007,-87.1694 713.8658,-76.8443"/>
<polygon fill="#191970" stroke="#191970" points="714.3303,-73.3667 703.8309,-74.7858 712.9236,-80.224 714.3303,-73.3667"/>
</g>
<!-- Node18 -->
<g id="node19" class="node">
<title>Node18</title>
<g id="a_node19"><a xlink:href="incflo__enums_8_h.html" target="_top" xlink:title="amr&#45;wind/incflo_enums.H">
<polygon fill="#ffffff" stroke="#000000" points="760,-56.5 760,-75.5 888,-75.5 888,-56.5 760,-56.5"/>
<text text-anchor="middle" x="824" y="-63.5" font-family="Helvetica,sans-Serif" font-size="10.00" fill="#000000">amr&#45;wind/incflo_enums.H</text>
</a>
</g>
</g>
<!-- Node14&#45;&gt;Node18 -->
<g id="edge24" class="edge">
<title>Node14&#45;&gt;Node18</title>
<path fill="none" stroke="#191970" d="M914.8395,-112.2455C897.4889,-103.4125 871.7099,-90.2887 852.0417,-80.2758"/>
<polygon fill="#191970" stroke="#191970" points="853.4405,-77.0605 842.941,-75.6427 850.2647,-83.2986 853.4405,-77.0605"/>
</g>
<!-- Node19 -->
<g id="node20" class="node">
<title>Node19</title>
<g id="a_node20"><a xlink:href="_view_field_8_h.html" target="_top" xlink:title="amr&#45;wind/core/ViewField.H">
<polygon fill="#ffffff" stroke="#000000" points="1414,-56.5 1414,-75.5 1548,-75.5 1548,-56.5 1414,-56.5"/>
<text text-anchor="middle" x="1481" y="-63.5" font-family="Helvetica,sans-Serif" font-size="10.00" fill="#000000">amr&#45;wind/core/ViewField.H</text>
</a>
</g>
</g>
<!-- Node14&#45;&gt;Node19 -->
<g id="edge26" class="edge">
<title>Node14&#45;&gt;Node19</title>
<path fill="none" stroke="#191970" d="M990.7342,-116.1917C1089.3238,-106.0985 1292.3625,-85.3121 1403.7263,-73.911"/>
<polygon fill="#191970" stroke="#191970" points="1404.2906,-77.3716 1413.8821,-72.8713 1403.5776,-70.408 1404.2906,-77.3716"/>
</g>
<!-- Node19&#45;&gt;Node9 -->
<g id="edge27" class="edge">
<title>Node19&#45;&gt;Node9</title>
<path fill="none" stroke="#191970" d="M1497.5477,-56.2455C1512.2599,-47.5731 1533.9888,-34.7645 1550.8505,-24.825"/>
<polygon fill="#191970" stroke="#191970" points="1552.8046,-27.736 1559.6419,-19.6427 1549.2498,-21.7057 1552.8046,-27.736"/>
</g>
<!-- Node19&#45;&gt;Node10 -->
<g id="edge28" class="edge">
<title>Node19&#45;&gt;Node10</title>
<path fill="none" stroke="#191970" d="M1413.8375,-58.4476C1326.3986,-48.6151 1173.1814,-31.3859 1074.9897,-20.3442"/>
<polygon fill="#191970" stroke="#191970" points="1075.1055,-16.8353 1064.777,-19.1958 1074.3233,-23.7914 1075.1055,-16.8353"/>
</g>
<!-- Node19&#45;&gt;Node12 -->
<g id="edge29" class="edge">
<title>Node19&#45;&gt;Node12</title>
<path fill="none" stroke="#191970" d="M1464.4523,-56.2455C1449.7401,-47.5731 1428.0112,-34.7645 1411.1495,-24.825"/>
<polygon fill="#191970" stroke="#191970" points="1412.7502,-21.7057 1402.3581,-19.6427 1409.1954,-27.736 1412.7502,-21.7057"/>
</g>
<!-- Node20 -->
<g id="node21" class="node">
<title>Node20</title>
<polygon fill="#ffffff" stroke="#bfbfbf" points="1720.5,-.5 1720.5,-19.5 1815.5,-19.5 1815.5,-.5 1720.5,-.5"/>
<text text-anchor="middle" x="1768" y="-7.5" font-family="Helvetica,sans-Serif" font-size="10.00" fill="#000000">AMReX_Vector.H</text>
</g>
<!-- Node19&#45;&gt;Node20 -->
<g id="edge30" class="edge">
<title>Node19&#45;&gt;Node20</title>
<path fill="none" stroke="#191970" d="M1530.011,-56.4369C1579.9455,-46.6936 1657.359,-31.5885 1710.2418,-21.2699"/>
<polygon fill="#191970" stroke="#191970" points="1711.0023,-24.6876 1720.1469,-19.3372 1709.6617,-17.8171 1711.0023,-24.6876"/>
</g>
<!-- Node21&#45;&gt;Node9 -->
<g id="edge32" class="edge">
<title>Node21&#45;&gt;Node9</title>
<path fill="none" stroke="#191970" d="M1234.3259,-113.1291C1237.2572,-112.741 1240.16,-112.3627 1243,-112 1312.6689,-103.1015 1503.3867,-121.3713 1557,-76 1570.2005,-64.8288 1574.5423,-45.1322 1575.8259,-30.1554"/>
<polygon fill="#191970" stroke="#191970" points="1579.3372,-29.9944 1576.3075,-19.842 1572.3448,-29.6678 1579.3372,-29.9944"/>
</g>
<!-- Node21&#45;&gt;Node10 -->
<g id="edge33" class="edge">
<title>Node21&#45;&gt;Node10</title>
<path fill="none" stroke="#191970" d="M1222.4855,-112.4535C1264.5367,-102.302 1313.9739,-83.8337 1290,-56 1275.9596,-39.6991 1159.9951,-25.8368 1074.7174,-17.713"/>
<polygon fill="#191970" stroke="#191970" points="1075.0242,-14.2265 1064.7405,-16.7752 1074.3691,-21.1958 1075.0242,-14.2265"/>
</g>
<!-- Node21&#45;&gt;Node22 -->
<g id="edge34" class="edge">
<title>Node21&#45;&gt;Node22</title>
<path fill="none" stroke="#191970" d="M1181.7545,-112.2455C1189.8648,-104.1352 1201.5925,-92.4075 1211.2081,-82.7919"/>
<polygon fill="#191970" stroke="#191970" points="1213.7611,-85.1887 1218.3573,-75.6427 1208.8113,-80.2389 1213.7611,-85.1887"/>
</g>
<!-- Node23&#45;&gt;Node9 -->
<g id="edge36" class="edge">
<title>Node23&#45;&gt;Node9</title>
<path fill="none" stroke="#191970" d="M1619.7278,-112.199C1626.6751,-98.9428 1636.4677,-74.7961 1628,-56 1622.4303,-43.6369 1611.7137,-33.2563 1601.4494,-25.5033"/>
<polygon fill="#191970" stroke="#191970" points="1603.2549,-22.4948 1593.0567,-19.623 1599.2382,-28.2277 1603.2549,-22.4948"/>
</g>
<!-- Node23&#45;&gt;Node10 -->
<g id="edge37" class="edge">
<title>Node23&#45;&gt;Node10</title>
<path fill="none" stroke="#191970" d="M1570.5553,-112.4815C1492.1525,-95.3304 1332.7283,-60.586 1307,-56 1227.6272,-41.8519 1136.6928,-29.2543 1071.4044,-20.8356"/>
<polygon fill="#191970" stroke="#191970" points="1071.5159,-17.3213 1061.1519,-19.5208 1070.6254,-24.2645 1071.5159,-17.3213"/>
</g>
<!-- Node23&#45;&gt;Node12 -->
<g id="edge39" class="edge">
<title>Node23&#45;&gt;Node12</title>
<path fill="none" stroke="#191970" d="M1608.3151,-112.3165C1599.3014,-97.8287 1580.3371,-70.6511 1557,-56 1524.1785,-35.3946 1482.2185,-23.9283 1448.0778,-17.5969"/>
<polygon fill="#191970" stroke="#191970" points="1448.6664,-14.1468 1438.2123,-15.8682 1447.4581,-21.0417 1448.6664,-14.1468"/>
</g>
<!-- Node23&#45;&gt;Node19 -->
<g id="edge38" class="edge">
<title>Node23&#45;&gt;Node19</title>
<path fill="none" stroke="#191970" d="M1591.1365,-112.3733C1569.595,-103.3032 1537.1162,-89.6279 1513.0044,-79.4755"/>
<polygon fill="#191970" stroke="#191970" points="1514.1397,-76.156 1503.5652,-75.5011 1511.4233,-82.6075 1514.1397,-76.156"/>
</g>
<!-- Node23&#45;&gt;Node20 -->
<g id="edge40" class="edge">
<title>Node23&#45;&gt;Node20</title>
<path fill="none" stroke="#191970" d="M1687.2437,-114.9635C1738.5612,-108.3428 1800.762,-96.3293 1817,-76 1830.5936,-58.9814 1810.5617,-38.7962 1792.1669,-25.2693"/>
<polygon fill="#191970" stroke="#191970" points="1794.165,-22.3957 1783.9572,-19.5581 1790.1674,-28.142 1794.165,-22.3957"/>
</g>
<!-- Node24 -->
<g id="node25" class="node">
<title>Node24</title>
<polygon fill="#ffffff" stroke="#bfbfbf" points="1680,-56.5 1680,-75.5 1808,-75.5 1808,-56.5 1680,-56.5"/>
<text text-anchor="middle" x="1744" y="-63.5" font-family="Helvetica,sans-Serif" font-size="10.00" fill="#000000">AMReX_PhysBCFunct.H</text>
</g>
<!-- Node23&#45;&gt;Node24 -->
<g id="edge41" class="edge">
<title>Node23&#45;&gt;Node24</title>
<path fill="none" stroke="#191970" d="M1636.3478,-112.3733C1657.4033,-103.3032 1689.1495,-89.6279 1712.7175,-79.4755"/>
<polygon fill="#191970" stroke="#191970" points="1714.1444,-82.6719 1721.9438,-75.5011 1711.375,-76.243 1714.1444,-82.6719"/>
</g>
</g>
</svg>
