<?xml version="1.0" encoding="UTF-8" standalone="no"?>
<!DOCTYPE svg PUBLIC "-//W3C//DTD SVG 1.1//EN"
 "http://www.w3.org/Graphics/SVG/1.1/DTD/svg11.dtd">
<!-- Generated by graphviz version 2.40.1 (20161225.0304)
 -->
<!-- Title: CylinderRefiner.cpp Pages: 1 -->
<svg width="950pt" height="408pt"
 viewBox="0.00 0.00 950.00 408.00" xmlns="http://www.w3.org/2000/svg" xmlns:xlink="http://www.w3.org/1999/xlink">
<g id="graph0" class="graph" transform="scale(1 1) rotate(0) translate(4 404)">
<title>CylinderRefiner.cpp</title>
<polygon fill="#ffffff" stroke="transparent" points="-4,4 -4,-404 946,-404 946,4 -4,4"/>
<!-- Node0 -->
<g id="node1" class="node">
<title>Node0</title>
<polygon fill="#bfbfbf" stroke="#000000" points="474,-380.5 474,-399.5 577,-399.5 577,-380.5 474,-380.5"/>
<text text-anchor="middle" x="525.5" y="-387.5" font-family="Helvetica,sans-Serif" font-size="10.00" fill="#000000">CylinderRefiner.cpp</text>
</g>
<!-- Node1 -->
<g id="node2" class="node">
<title>Node1</title>
<g id="a_node2"><a xlink:href="_cylinder_refiner_8_h.html" target="_top" xlink:title="amr&#45;wind/utilities\l/tagging/CylinderRefiner.H">
<polygon fill="#ffffff" stroke="#000000" points="388.5,-313.5 388.5,-343.5 520.5,-343.5 520.5,-313.5 388.5,-313.5"/>
<text text-anchor="start" x="396.5" y="-331.5" font-family="Helvetica,sans-Serif" font-size="10.00" fill="#000000">amr&#45;wind/utilities</text>
<text text-anchor="middle" x="454.5" y="-320.5" font-family="Helvetica,sans-Serif" font-size="10.00" fill="#000000">/tagging/CylinderRefiner.H</text>
</a>
</g>
</g>
<!-- Node0&#45;&gt;Node1 -->
<g id="edge1" class="edge">
<title>Node0&#45;&gt;Node1</title>
<path fill="none" stroke="#191970" d="M514.4063,-380.3906C505.1532,-372.3756 491.6124,-360.6466 479.7444,-350.3666"/>
<polygon fill="#191970" stroke="#191970" points="481.7188,-347.4464 471.8686,-343.5446 477.1357,-352.7374 481.7188,-347.4464"/>
</g>
<!-- Node24 -->
<g id="node25" class="node">
<title>Node24</title>
<polygon fill="#ffffff" stroke="#bfbfbf" points="538.5,-319 538.5,-338 654.5,-338 654.5,-319 538.5,-319"/>
<text text-anchor="middle" x="596.5" y="-326" font-family="Helvetica,sans-Serif" font-size="10.00" fill="#000000">AMReX_ParmParse.H</text>
</g>
<!-- Node0&#45;&gt;Node24 -->
<g id="edge33" class="edge">
<title>Node0&#45;&gt;Node24</title>
<path fill="none" stroke="#191970" d="M536.5938,-380.3906C547.4715,-370.9683 564.2748,-356.4134 577.32,-345.1137"/>
<polygon fill="#191970" stroke="#191970" points="579.9827,-347.4377 585.2498,-338.2449 575.3996,-342.1466 579.9827,-347.4377"/>
</g>
<!-- Node2 -->
<g id="node3" class="node">
<title>Node2</title>
<g id="a_node3"><a xlink:href="_geometry_refinement_8_h.html" target="_top" xlink:title="amr&#45;wind/utilities\l/tagging/GeometryRefinement.H">
<polygon fill="#ffffff" stroke="#000000" points="296.5,-246.5 296.5,-276.5 454.5,-276.5 454.5,-246.5 296.5,-246.5"/>
<text text-anchor="start" x="304.5" y="-264.5" font-family="Helvetica,sans-Serif" font-size="10.00" fill="#000000">amr&#45;wind/utilities</text>
<text text-anchor="middle" x="375.5" y="-253.5" font-family="Helvetica,sans-Serif" font-size="10.00" fill="#000000">/tagging/GeometryRefinement.H</text>
</a>
</g>
</g>
<!-- Node1&#45;&gt;Node2 -->
<g id="edge2" class="edge">
<title>Node1&#45;&gt;Node2</title>
<path fill="none" stroke="#191970" d="M436.5737,-313.2967C426.069,-304.3876 412.6279,-292.9882 401.0308,-283.1527"/>
<polygon fill="#191970" stroke="#191970" points="403.2458,-280.442 393.3554,-276.6432 398.7181,-285.7806 403.2458,-280.442"/>
</g>
<!-- Node12 -->
<g id="node13" class="node">
<title>Node12</title>
<g id="a_node13"><a xlink:href="vector__space_8_h.html" target="_top" xlink:title="amr&#45;wind/core/vs/vector\l_space.H">
<polygon fill="#ffffff" stroke="#000000" points="489.5,-246.5 489.5,-276.5 611.5,-276.5 611.5,-246.5 489.5,-246.5"/>
<text text-anchor="start" x="497.5" y="-264.5" font-family="Helvetica,sans-Serif" font-size="10.00" fill="#000000">amr&#45;wind/core/vs/vector</text>
<text text-anchor="middle" x="550.5" y="-253.5" font-family="Helvetica,sans-Serif" font-size="10.00" fill="#000000">_space.H</text>
</a>
</g>
</g>
<!-- Node1&#45;&gt;Node12 -->
<g id="edge12" class="edge">
<title>Node1&#45;&gt;Node12</title>
<path fill="none" stroke="#191970" d="M476.2839,-313.2967C489.2945,-304.2163 506.0121,-292.5488 520.2858,-282.587"/>
<polygon fill="#191970" stroke="#191970" points="522.6051,-285.2365 528.8023,-276.6432 518.5988,-279.4962 522.6051,-285.2365"/>
</g>
<!-- Node3 -->
<g id="node4" class="node">
<title>Node3</title>
<g id="a_node4"><a xlink:href="_refinement_criteria_8_h.html" target="_top" xlink:title="amr&#45;wind/utilities\l/tagging/RefinementCriteria.H">
<polygon fill="#ffffff" stroke="#000000" points="215.5,-179.5 215.5,-209.5 361.5,-209.5 361.5,-179.5 215.5,-179.5"/>
<text text-anchor="start" x="223.5" y="-197.5" font-family="Helvetica,sans-Serif" font-size="10.00" fill="#000000">amr&#45;wind/utilities</text>
<text text-anchor="middle" x="288.5" y="-186.5" font-family="Helvetica,sans-Serif" font-size="10.00" fill="#000000">/tagging/RefinementCriteria.H</text>
</a>
</g>
</g>
<!-- Node2&#45;&gt;Node3 -->
<g id="edge3" class="edge">
<title>Node2&#45;&gt;Node3</title>
<path fill="none" stroke="#191970" d="M355.7584,-246.2967C344.0787,-237.302 329.1027,-225.7687 316.2483,-215.8694"/>
<polygon fill="#191970" stroke="#191970" points="318.2219,-212.9717 308.1635,-209.6432 313.9509,-218.5177 318.2219,-212.9717"/>
</g>
<!-- Node4 -->
<g id="node5" class="node">
<title>Node4</title>
<polygon fill="#ffffff" stroke="#bfbfbf" points="302.5,-123.5 302.5,-142.5 408.5,-142.5 408.5,-123.5 302.5,-123.5"/>
<text text-anchor="middle" x="355.5" y="-130.5" font-family="Helvetica,sans-Serif" font-size="10.00" fill="#000000">AMReX_AmrCore.H</text>
</g>
<!-- Node3&#45;&gt;Node4 -->
<g id="edge4" class="edge">
<title>Node3&#45;&gt;Node4</title>
<path fill="none" stroke="#191970" d="M305.0618,-179.2977C314.8465,-170.3163 327.2474,-158.9334 337.3043,-149.702"/>
<polygon fill="#191970" stroke="#191970" points="339.7722,-152.1876 344.7725,-142.8469 335.0387,-147.0307 339.7722,-152.1876"/>
</g>
<!-- Node5 -->
<g id="node6" class="node">
<title>Node5</title>
<polygon fill="#ffffff" stroke="#bfbfbf" points="40,-123.5 40,-142.5 141,-142.5 141,-123.5 40,-123.5"/>
<text text-anchor="middle" x="90.5" y="-130.5" font-family="Helvetica,sans-Serif" font-size="10.00" fill="#000000">AMReX_TagBox.H</text>
</g>
<!-- Node3&#45;&gt;Node5 -->
<g id="edge5" class="edge">
<title>Node3&#45;&gt;Node5</title>
<path fill="none" stroke="#191970" d="M240.0638,-179.4554C206.5922,-169.059 162.5798,-155.3884 130.9781,-145.5727"/>
<polygon fill="#191970" stroke="#191970" points="131.7711,-142.1542 121.183,-142.5303 129.6947,-148.8391 131.7711,-142.1542"/>
</g>
<!-- Node6 -->
<g id="node7" class="node">
<title>Node6</title>
<g id="a_node7"><a xlink:href="_factory_8_h.html" target="_top" xlink:title="amr&#45;wind/core/Factory.H">
<polygon fill="#ffffff" stroke="#000000" points="159,-123.5 159,-142.5 284,-142.5 284,-123.5 159,-123.5"/>
<text text-anchor="middle" x="221.5" y="-130.5" font-family="Helvetica,sans-Serif" font-size="10.00" fill="#000000">amr&#45;wind/core/Factory.H</text>
</a>
</g>
</g>
<!-- Node3&#45;&gt;Node6 -->
<g id="edge6" class="edge">
<title>Node3&#45;&gt;Node6</title>
<path fill="none" stroke="#191970" d="M271.9382,-179.2977C262.1535,-170.3163 249.7526,-158.9334 239.6957,-149.702"/>
<polygon fill="#191970" stroke="#191970" points="241.9613,-147.0307 232.2275,-142.8469 237.2278,-152.1876 241.9613,-147.0307"/>
</g>
<!-- Node7 -->
<g id="node8" class="node">
<title>Node7</title>
<polygon fill="#ffffff" stroke="#bfbfbf" points="359.5,-62 359.5,-81 411.5,-81 411.5,-62 359.5,-62"/>
<text text-anchor="middle" x="385.5" y="-69" font-family="Helvetica,sans-Serif" font-size="10.00" fill="#000000">memory</text>
</g>
<!-- Node6&#45;&gt;Node7 -->
<g id="edge7" class="edge">
<title>Node6&#45;&gt;Node7</title>
<path fill="none" stroke="#191970" d="M250.1654,-123.462C276.4589,-114.5519 316.381,-100.6163 350.5,-87 352.0701,-86.3734 353.6737,-85.7183 355.2887,-85.0466"/>
<polygon fill="#191970" stroke="#191970" points="356.6929,-88.2527 364.5084,-81.0995 353.9379,-81.8176 356.6929,-88.2527"/>
</g>
<!-- Node8 -->
<g id="node9" class="node">
<title>Node8</title>
<polygon fill="#ffffff" stroke="#bfbfbf" points="0,-62 0,-81 83,-81 83,-62 0,-62"/>
<text text-anchor="middle" x="41.5" y="-69" font-family="Helvetica,sans-Serif" font-size="10.00" fill="#000000">unordered_map</text>
</g>
<!-- Node6&#45;&gt;Node8 -->
<g id="edge8" class="edge">
<title>Node6&#45;&gt;Node8</title>
<path fill="none" stroke="#191970" d="M193.375,-123.3906C162.5972,-112.8749 113.1079,-95.966 79.0345,-84.3243"/>
<polygon fill="#191970" stroke="#191970" points="80.022,-80.9631 69.4275,-81.0419 77.7588,-87.5871 80.022,-80.9631"/>
</g>
<!-- Node9 -->
<g id="node10" class="node">
<title>Node9</title>
<polygon fill="#ffffff" stroke="#bfbfbf" points="101.5,-62 101.5,-81 155.5,-81 155.5,-62 101.5,-62"/>
<text text-anchor="middle" x="128.5" y="-69" font-family="Helvetica,sans-Serif" font-size="10.00" fill="#000000">iostream</text>
</g>
<!-- Node6&#45;&gt;Node9 -->
<g id="edge9" class="edge">
<title>Node6&#45;&gt;Node9</title>
<path fill="none" stroke="#191970" d="M206.9688,-123.3906C192.0906,-113.5519 168.7496,-98.1167 151.3872,-86.6351"/>
<polygon fill="#191970" stroke="#191970" points="153.201,-83.6385 142.9292,-81.0419 149.3398,-89.4773 153.201,-83.6385"/>
</g>
<!-- Node10 -->
<g id="node11" class="node">
<title>Node10</title>
<polygon fill="#ffffff" stroke="#bfbfbf" points="174,-62 174,-81 261,-81 261,-62 174,-62"/>
<text text-anchor="middle" x="217.5" y="-69" font-family="Helvetica,sans-Serif" font-size="10.00" fill="#000000">AMReX_Print.H</text>
</g>
<!-- Node6&#45;&gt;Node10 -->
<g id="edge10" class="edge">
<title>Node6&#45;&gt;Node10</title>
<path fill="none" stroke="#191970" d="M220.875,-123.3906C220.3205,-114.8657 219.4928,-102.1392 218.7958,-91.4235"/>
<polygon fill="#191970" stroke="#191970" points="222.2756,-90.9966 218.1338,-81.2449 215.2903,-91.451 222.2756,-90.9966"/>
</g>
<!-- Node11 -->
<g id="node12" class="node">
<title>Node11</title>
<polygon fill="#ffffff" stroke="#bfbfbf" points="279.5,-62 279.5,-81 341.5,-81 341.5,-62 279.5,-62"/>
<text text-anchor="middle" x="310.5" y="-69" font-family="Helvetica,sans-Serif" font-size="10.00" fill="#000000">AMReX.H</text>
</g>
<!-- Node6&#45;&gt;Node11 -->
<g id="edge11" class="edge">
<title>Node6&#45;&gt;Node11</title>
<path fill="none" stroke="#191970" d="M235.4063,-123.3906C249.5138,-113.6421 271.5724,-98.3994 288.1385,-86.9521"/>
<polygon fill="#191970" stroke="#191970" points="290.4542,-89.6063 296.6914,-81.0419 286.4747,-83.8474 290.4542,-89.6063"/>
</g>
<!-- Node13 -->
<g id="node14" class="node">
<title>Node13</title>
<g id="a_node14"><a xlink:href="vector_8_h.html" target="_top" xlink:title="amr&#45;wind/core/vs/vector.H">
<polygon fill="#ffffff" stroke="#000000" points="674.5,-123.5 674.5,-142.5 806.5,-142.5 806.5,-123.5 674.5,-123.5"/>
<text text-anchor="middle" x="740.5" y="-130.5" font-family="Helvetica,sans-Serif" font-size="10.00" fill="#000000">amr&#45;wind/core/vs/vector.H</text>
</a>
</g>
</g>
<!-- Node12&#45;&gt;Node13 -->
<g id="edge13" class="edge">
<title>Node12&#45;&gt;Node13</title>
<path fill="none" stroke="#191970" d="M573.0416,-246.2548C609.4706,-221.6173 680.8968,-173.3106 717.5717,-148.5068"/>
<polygon fill="#191970" stroke="#191970" points="719.782,-151.2373 726.1047,-142.7358 715.8604,-145.4388 719.782,-151.2373"/>
</g>
<!-- Node21 -->
<g id="node22" class="node">
<title>Node21</title>
<g id="a_node22"><a xlink:href="tensor_8_h.html" target="_top" xlink:title="amr&#45;wind/core/vs/tensor.H">
<polygon fill="#ffffff" stroke="#000000" points="484.5,-185 484.5,-204 616.5,-204 616.5,-185 484.5,-185"/>
<text text-anchor="middle" x="550.5" y="-192" font-family="Helvetica,sans-Serif" font-size="10.00" fill="#000000">amr&#45;wind/core/vs/tensor.H</text>
</a>
</g>
</g>
<!-- Node12&#45;&gt;Node21 -->
<g id="edge22" class="edge">
<title>Node12&#45;&gt;Node21</title>
<path fill="none" stroke="#191970" d="M550.5,-246.2967C550.5,-236.7699 550.5,-224.3954 550.5,-214.1306"/>
<polygon fill="#191970" stroke="#191970" points="554.0001,-214.0549 550.5,-204.055 547.0001,-214.055 554.0001,-214.0549"/>
</g>
<!-- Node14 -->
<g id="node15" class="node">
<title>Node14</title>
<polygon fill="#ffffff" stroke="#bfbfbf" points="412,-.5 412,-19.5 497,-19.5 497,-.5 412,-.5"/>
<text text-anchor="middle" x="454.5" y="-7.5" font-family="Helvetica,sans-Serif" font-size="10.00" fill="#000000">AMReX_Gpu.H</text>
</g>
<!-- Node13&#45;&gt;Node14 -->
<g id="edge14" class="edge">
<title>Node13&#45;&gt;Node14</title>
<path fill="none" stroke="#191970" d="M674.477,-126.9395C612.177,-120.1028 524.3008,-107.2229 496.5,-87 477.1357,-72.914 465.7134,-47.0787 459.7828,-29.2439"/>
<polygon fill="#191970" stroke="#191970" points="463.1025,-28.1306 456.8422,-19.5831 456.4058,-30.169 463.1025,-28.1306"/>
</g>
<!-- Node15 -->
<g id="node16" class="node">
<title>Node15</title>
<g id="a_node16"><a xlink:href="vstraits_8_h.html" target="_top" xlink:title="amr&#45;wind/core/vs/vstraits.H">
<polygon fill="#ffffff" stroke="#000000" points="652,-62 652,-81 789,-81 789,-62 652,-62"/>
<text text-anchor="middle" x="720.5" y="-69" font-family="Helvetica,sans-Serif" font-size="10.00" fill="#000000">amr&#45;wind/core/vs/vstraits.H</text>
</a>
</g>
</g>
<!-- Node13&#45;&gt;Node15 -->
<g id="edge15" class="edge">
<title>Node13&#45;&gt;Node15</title>
<path fill="none" stroke="#191970" d="M737.375,-123.3906C734.5735,-114.776 730.3767,-101.8708 726.8694,-91.0858"/>
<polygon fill="#191970" stroke="#191970" points="730.0902,-89.6722 723.6691,-81.2449 723.4333,-91.8371 730.0902,-89.6722"/>
</g>
<!-- Node18 -->
<g id="node19" class="node">
<title>Node18</title>
<g id="a_node19"><a xlink:href="vector_i_8_h.html" target="_top" xlink:title="amr&#45;wind/core/vs/vectorI.H">
<polygon fill="#ffffff" stroke="#000000" points="807,-62 807,-81 942,-81 942,-62 807,-62"/>
<text text-anchor="middle" x="874.5" y="-69" font-family="Helvetica,sans-Serif" font-size="10.00" fill="#000000">amr&#45;wind/core/vs/vectorI.H</text>
</a>
</g>
</g>
<!-- Node13&#45;&gt;Node18 -->
<g id="edge18" class="edge">
<title>Node13&#45;&gt;Node18</title>
<path fill="none" stroke="#191970" d="M756.375,-123.3906C776.7878,-113.1005 812.3306,-96.6888 839.1982,-85.0809"/>
<polygon fill="#191970" stroke="#191970" points="840.8372,-88.1869 848.6602,-81.0419 838.089,-81.7489 840.8372,-88.1869"/>
</g>
<!-- Node16 -->
<g id="node17" class="node">
<title>Node16</title>
<polygon fill="#ffffff" stroke="#bfbfbf" points="700.5,-.5 700.5,-19.5 740.5,-19.5 740.5,-.5 700.5,-.5"/>
<text text-anchor="middle" x="720.5" y="-7.5" font-family="Helvetica,sans-Serif" font-size="10.00" fill="#000000">limits</text>
</g>
<!-- Node15&#45;&gt;Node16 -->
<g id="edge16" class="edge">
<title>Node15&#45;&gt;Node16</title>
<path fill="none" stroke="#191970" d="M720.5,-61.8906C720.5,-53.3657 720.5,-40.6392 720.5,-29.9235"/>
<polygon fill="#191970" stroke="#191970" points="724.0001,-29.7448 720.5,-19.7449 717.0001,-29.7449 724.0001,-29.7448"/>
</g>
<!-- Node17 -->
<g id="node18" class="node">
<title>Node17</title>
<polygon fill="#ffffff" stroke="#bfbfbf" points="515,-.5 515,-19.5 608,-19.5 608,-.5 515,-.5"/>
<text text-anchor="middle" x="561.5" y="-7.5" font-family="Helvetica,sans-Serif" font-size="10.00" fill="#000000">AMReX_REAL.H</text>
</g>
<!-- Node15&#45;&gt;Node17 -->
<g id="edge17" class="edge">
<title>Node15&#45;&gt;Node17</title>
<path fill="none" stroke="#191970" d="M695.6563,-61.8906C668.8193,-51.5103 625.8767,-34.9004 595.8247,-23.2766"/>
<polygon fill="#191970" stroke="#191970" points="596.7586,-19.8851 586.1693,-19.5419 594.2333,-26.4138 596.7586,-19.8851"/>
</g>
<!-- Node18&#45;&gt;Node13 -->
<g id="edge21" class="edge">
<title>Node18&#45;&gt;Node13</title>
<path fill="none" stroke="#191970" d="M858.7588,-81.0419C838.4123,-91.3051 802.8838,-107.7139 775.9783,-119.3428"/>
<polygon fill="#191970" stroke="#191970" points="774.3218,-116.2443 766.5,-123.3906 777.0711,-122.6819 774.3218,-116.2443"/>
</g>
<!-- Node19 -->
<g id="node20" class="node">
<title>Node19</title>
<polygon fill="#ffffff" stroke="#bfbfbf" points="848.5,-.5 848.5,-19.5 900.5,-19.5 900.5,-.5 848.5,-.5"/>
<text text-anchor="middle" x="874.5" y="-7.5" font-family="Helvetica,sans-Serif" font-size="10.00" fill="#000000">ostream</text>
</g>
<!-- Node18&#45;&gt;Node19 -->
<g id="edge19" class="edge">
<title>Node18&#45;&gt;Node19</title>
<path fill="none" stroke="#191970" d="M874.5,-61.8906C874.5,-53.3657 874.5,-40.6392 874.5,-29.9235"/>
<polygon fill="#191970" stroke="#191970" points="878.0001,-29.7448 874.5,-19.7449 871.0001,-29.7449 878.0001,-29.7448"/>
</g>
<!-- Node20 -->
<g id="node21" class="node">
<title>Node20</title>
<polygon fill="#ffffff" stroke="#bfbfbf" points="626.5,-.5 626.5,-19.5 670.5,-19.5 670.5,-.5 626.5,-.5"/>
<text text-anchor="middle" x="648.5" y="-7.5" font-family="Helvetica,sans-Serif" font-size="10.00" fill="#000000">cmath</text>
</g>
<!-- Node18&#45;&gt;Node20 -->
<g id="edge20" class="edge">
<title>Node18&#45;&gt;Node20</title>
<path fill="none" stroke="#191970" d="M839.1875,-61.8906C795.6056,-50.031 722.1417,-30.0397 680.262,-18.6432"/>
<polygon fill="#191970" stroke="#191970" points="681.1495,-15.2575 670.5813,-16.0089 679.3114,-22.0119 681.1495,-15.2575"/>
</g>
<!-- Node21&#45;&gt;Node13 -->
<g id="edge25" class="edge">
<title>Node21&#45;&gt;Node13</title>
<path fill="none" stroke="#191970" d="M580.1875,-184.8906C612.8146,-174.3298 665.3626,-157.3208 701.3425,-145.6747"/>
<polygon fill="#191970" stroke="#191970" points="702.5848,-148.9514 711.021,-142.5419 700.4291,-142.2916 702.5848,-148.9514"/>
</g>
<!-- Node21&#45;&gt;Node14 -->
<g id="edge23" class="edge">
<title>Node21&#45;&gt;Node14</title>
<path fill="none" stroke="#191970" d="M526.629,-184.9821C508.9721,-176.6384 485.9186,-162.7378 473.5,-143 451.4367,-107.933 450.8434,-57.4988 452.5482,-29.9046"/>
<polygon fill="#191970" stroke="#191970" points="456.0647,-29.8329 453.3636,-19.5882 449.0865,-29.2813 456.0647,-29.8329"/>
</g>
<!-- Node21&#45;&gt;Node15 -->
<g id="edge24" class="edge">
<title>Node21&#45;&gt;Node15</title>
<path fill="none" stroke="#191970" d="M565.4593,-184.9127C581.1207,-174.7787 606.333,-158.1903 627.5,-143 653.2113,-124.5485 681.9745,-102.1533 700.6115,-87.4003"/>
<polygon fill="#191970" stroke="#191970" points="702.9996,-89.9732 708.6519,-81.012 698.645,-84.4925 702.9996,-89.9732"/>
</g>
<!-- Node22 -->
<g id="node23" class="node">
<title>Node22</title>
<g id="a_node23"><a xlink:href="tensor_i_8_h.html" target="_top" xlink:title="amr&#45;wind/core/vs/tensorI.H">
<polygon fill="#ffffff" stroke="#000000" points="483,-123.5 483,-142.5 618,-142.5 618,-123.5 483,-123.5"/>
<text text-anchor="middle" x="550.5" y="-130.5" font-family="Helvetica,sans-Serif" font-size="10.00" fill="#000000">amr&#45;wind/core/vs/tensorI.H</text>
</a>
</g>
</g>
<!-- Node21&#45;&gt;Node22 -->
<g id="edge26" class="edge">
<title>Node21&#45;&gt;Node22</title>
<path fill="none" stroke="#191970" d="M545.4375,-184.8906C543.7741,-176.3657 543.3404,-163.6392 544.1365,-152.9235"/>
<polygon fill="#191970" stroke="#191970" points="547.6414,-153.1023 545.4112,-142.7449 540.6956,-152.2324 547.6414,-153.1023"/>
</g>
<!-- Node22&#45;&gt;Node20 -->
<g id="edge27" class="edge">
<title>Node22&#45;&gt;Node20</title>
<path fill="none" stroke="#191970" d="M564.5435,-123.186C576.197,-114.5701 592.7101,-101.2215 604.5,-87 619.4731,-68.9387 632.2102,-45.0985 640.0683,-28.7576"/>
<polygon fill="#191970" stroke="#191970" points="643.2514,-30.2129 644.307,-19.6708 636.9077,-27.2537 643.2514,-30.2129"/>
</g>
<!-- Node22&#45;&gt;Node21 -->
<g id="edge28" class="edge">
<title>Node22&#45;&gt;Node21</title>
<path fill="none" stroke="#191970" d="M555.5888,-142.7449C557.2392,-151.314 557.6598,-164.0519 556.8508,-174.7462"/>
<polygon fill="#191970" stroke="#191970" points="553.3503,-174.5293 555.5625,-184.8906 560.2945,-175.4113 553.3503,-174.5293"/>
</g>
<!-- Node23 -->
<g id="node24" class="node">
<title>Node23</title>
<g id="a_node24"><a xlink:href="trig__ops_8_h.html" target="_top" xlink:title="Trigonometric utilities. ">
<polygon fill="#ffffff" stroke="#000000" points="505.5,-56.5 505.5,-86.5 595.5,-86.5 595.5,-56.5 505.5,-56.5"/>
<text text-anchor="start" x="513.5" y="-74.5" font-family="Helvetica,sans-Serif" font-size="10.00" fill="#000000">amr&#45;wind/utilities</text>
<text text-anchor="middle" x="550.5" y="-63.5" font-family="Helvetica,sans-Serif" font-size="10.00" fill="#000000">/trig_ops.H</text>
</a>
</g>
</g>
<!-- Node22&#45;&gt;Node23 -->
<g id="edge29" class="edge">
<title>Node22&#45;&gt;Node23</title>
<path fill="none" stroke="#191970" d="M550.5,-123.3906C550.5,-116.2234 550.5,-106.0862 550.5,-96.671"/>
<polygon fill="#191970" stroke="#191970" points="554.0001,-96.5446 550.5,-86.5446 547.0001,-96.5446 554.0001,-96.5446"/>
</g>
<!-- Node23&#45;&gt;Node14 -->
<g id="edge32" class="edge">
<title>Node23&#45;&gt;Node14</title>
<path fill="none" stroke="#191970" d="M526.7697,-56.2977C511.9638,-46.8127 492.9772,-34.6495 478.1807,-25.1705"/>
<polygon fill="#191970" stroke="#191970" points="479.8925,-22.1105 469.5841,-19.6633 476.1165,-28.0047 479.8925,-22.1105"/>
</g>
<!-- Node23&#45;&gt;Node17 -->
<g id="edge31" class="edge">
<title>Node23&#45;&gt;Node17</title>
<path fill="none" stroke="#191970" d="M553.2191,-56.2977C554.6506,-48.2945 556.4231,-38.3843 557.9605,-29.7889"/>
<polygon fill="#191970" stroke="#191970" points="561.4233,-30.307 559.7388,-19.8469 554.5327,-29.0744 561.4233,-30.307"/>
</g>
<!-- Node23&#45;&gt;Node20 -->
<g id="edge30" class="edge">
<title>Node23&#45;&gt;Node20</title>
<path fill="none" stroke="#191970" d="M574.4735,-56.4554C589.6776,-46.9141 609.2759,-34.6151 624.4875,-25.0691"/>
<polygon fill="#191970" stroke="#191970" points="626.7037,-27.8105 633.3135,-19.5303 622.9828,-21.8813 626.7037,-27.8105"/>
</g>
</g>
</svg>
