<?xml version="1.0" encoding="UTF-8" standalone="no"?>
<!DOCTYPE svg PUBLIC "-//W3C//DTD SVG 1.1//EN"
 "http://www.w3.org/Graphics/SVG/1.1/DTD/svg11.dtd">
<!-- Generated by graphviz version 2.40.1 (20161225.0304)
 -->
<!-- Title: DerivedQuantity.H Pages: 1 -->
<svg width="308pt" height="140pt"
 viewBox="0.00 0.00 308.00 140.00" xmlns="http://www.w3.org/2000/svg" xmlns:xlink="http://www.w3.org/1999/xlink">
<g id="graph0" class="graph" transform="scale(1 1) rotate(0) translate(4 136)">
<title>DerivedQuantity.H</title>
<polygon fill="#ffffff" stroke="transparent" points="-4,4 -4,-136 304,-136 304,4 -4,4"/>
<!-- Node37 -->
<g id="node1" class="node">
<title>Node37</title>
<polygon fill="#bfbfbf" stroke="#000000" points="117,-112.5 117,-131.5 215,-131.5 215,-112.5 117,-112.5"/>
<text text-anchor="middle" x="166" y="-119.5" font-family="Helvetica,sans-Serif" font-size="10.00" fill="#000000">DerivedQuantity.H</text>
</g>
<!-- Node38 -->
<g id="node2" class="node">
<title>Node38</title>
<g id="a_node2"><a xlink:href="_derived_qty_defs_8_h.html" target="_top" xlink:title="DerivedQtyDefs.H">
<polygon fill="#ffffff" stroke="#000000" points="40,-56.5 40,-75.5 138,-75.5 138,-56.5 40,-56.5"/>
<text text-anchor="middle" x="89" y="-63.5" font-family="Helvetica,sans-Serif" font-size="10.00" fill="#000000">DerivedQtyDefs.H</text>
</a>
</g>
</g>
<!-- Node37&#45;&gt;Node38 -->
<g id="edge1" class="edge">
<title>Node37&#45;&gt;Node38</title>
<path fill="none" stroke="#191970" d="M144.2884,-106.2097C130.7647,-96.3743 113.8042,-84.0394 102.2587,-75.6427"/>
<polygon fill="#191970" stroke="#191970" points="142.4416,-109.1944 152.5876,-112.2455 146.5589,-103.5332 142.4416,-109.1944"/>
</g>
<!-- Node40 -->
<g id="node4" class="node">
<title>Node40</title>
<g id="a_node4"><a xlink:href="_i_o_manager_8cpp.html" target="_top" xlink:title="IOManager.cpp">
<polygon fill="#ffffff" stroke="#000000" points="124.5,-.5 124.5,-19.5 207.5,-19.5 207.5,-.5 124.5,-.5"/>
<text text-anchor="middle" x="166" y="-7.5" font-family="Helvetica,sans-Serif" font-size="10.00" fill="#000000">IOManager.cpp</text>
</a>
</g>
</g>
<!-- Node37&#45;&gt;Node40 -->
<g id="edge5" class="edge">
<title>Node37&#45;&gt;Node40</title>
<path fill="none" stroke="#191970" d="M166,-102.2702C166,-77.9985 166,-37.7725 166,-19.5249"/>
<polygon fill="#191970" stroke="#191970" points="162.5001,-102.4509 166,-112.4509 169.5001,-102.451 162.5001,-102.4509"/>
</g>
<!-- Node41 -->
<g id="node5" class="node">
<title>Node41</title>
<g id="a_node5"><a xlink:href="_derived_quantity_8cpp.html" target="_top" xlink:title="DerivedQuantity.cpp">
<polygon fill="#ffffff" stroke="#000000" points="194,-56.5 194,-75.5 300,-75.5 300,-56.5 194,-56.5"/>
<text text-anchor="middle" x="247" y="-63.5" font-family="Helvetica,sans-Serif" font-size="10.00" fill="#000000">DerivedQuantity.cpp</text>
</a>
</g>
</g>
<!-- Node37&#45;&gt;Node41 -->
<g id="edge4" class="edge">
<title>Node37&#45;&gt;Node41</title>
<path fill="none" stroke="#191970" d="M188.434,-106.49C202.7254,-96.6096 220.7916,-84.1194 233.0526,-75.6427"/>
<polygon fill="#191970" stroke="#191970" points="186.3443,-103.6797 180.1091,-112.2455 190.3251,-109.4376 186.3443,-103.6797"/>
</g>
<!-- Node39 -->
<g id="node3" class="node">
<title>Node39</title>
<g id="a_node3"><a xlink:href="_derived_qty_defs_8cpp.html" target="_top" xlink:title="DerivedQtyDefs.cpp">
<polygon fill="#ffffff" stroke="#000000" points="0,-.5 0,-19.5 106,-19.5 106,-.5 0,-.5"/>
<text text-anchor="middle" x="53" y="-7.5" font-family="Helvetica,sans-Serif" font-size="10.00" fill="#000000">DerivedQtyDefs.cpp</text>
</a>
</g>
</g>
<!-- Node38&#45;&gt;Node39 -->
<g id="edge2" class="edge">
<title>Node38&#45;&gt;Node39</title>
<path fill="none" stroke="#191970" d="M77.1904,-47.6296C71.1856,-38.2887 64.1341,-27.3197 59.1989,-19.6427"/>
<polygon fill="#191970" stroke="#191970" points="74.3775,-49.7264 82.7293,-56.2455 80.2658,-45.9411 74.3775,-49.7264"/>
</g>
<!-- Node38&#45;&gt;Node40 -->
<g id="edge3" class="edge">
<title>Node38&#45;&gt;Node40</title>
<path fill="none" stroke="#191970" d="M110.7116,-50.2097C124.2353,-40.3743 141.1958,-28.0394 152.7413,-19.6427"/>
<polygon fill="#191970" stroke="#191970" points="108.4411,-47.5332 102.4124,-56.2455 112.5584,-53.1944 108.4411,-47.5332"/>
</g>
</g>
</svg>
