<?xml version="1.0" encoding="UTF-8" standalone="no"?>
<!DOCTYPE svg PUBLIC "-//W3C//DTD SVG 1.1//EN"
 "http://www.w3.org/Graphics/SVG/1.1/DTD/svg11.dtd">
<!-- Generated by graphviz version 2.40.1 (20161225.0304)
 -->
<!-- Title: DerivedQtyDefs.H Pages: 1 -->
<svg width="2542pt" height="397pt"
 viewBox="0.00 0.00 2541.59 397.00" xmlns="http://www.w3.org/2000/svg" xmlns:xlink="http://www.w3.org/1999/xlink">
<g id="graph0" class="graph" transform="scale(1 1) rotate(0) translate(4 393)">
<title>DerivedQtyDefs.H</title>
<polygon fill="#ffffff" stroke="transparent" points="-4,4 -4,-393 2537.5868,-393 2537.5868,4 -4,4"/>
<!-- Node0 -->
<g id="node1" class="node">
<title>Node0</title>
<polygon fill="#bfbfbf" stroke="#000000" points="682.5868,-369.5 682.5868,-388.5 780.5868,-388.5 780.5868,-369.5 682.5868,-369.5"/>
<text text-anchor="middle" x="731.5868" y="-376.5" font-family="Helvetica,sans-Serif" font-size="10.00" fill="#000000">DerivedQtyDefs.H</text>
</g>
<!-- Node1 -->
<g id="node2" class="node">
<title>Node1</title>
<g id="a_node2"><a xlink:href="_derived_quantity_8_h.html" target="_top" xlink:title="amr&#45;wind/utilities\l/DerivedQuantity.H">
<polygon fill="#ffffff" stroke="#000000" points="681.0868,-302.5 681.0868,-332.5 782.0868,-332.5 782.0868,-302.5 681.0868,-302.5"/>
<text text-anchor="start" x="689.0868" y="-320.5" font-family="Helvetica,sans-Serif" font-size="10.00" fill="#000000">amr&#45;wind/utilities</text>
<text text-anchor="middle" x="731.5868" y="-309.5" font-family="Helvetica,sans-Serif" font-size="10.00" fill="#000000">/DerivedQuantity.H</text>
</a>
</g>
</g>
<!-- Node0&#45;&gt;Node1 -->
<g id="edge1" class="edge">
<title>Node0&#45;&gt;Node1</title>
<path fill="none" stroke="#191970" d="M731.5868,-369.3906C731.5868,-362.2234 731.5868,-352.0862 731.5868,-342.671"/>
<polygon fill="#191970" stroke="#191970" points="735.0869,-342.5446 731.5868,-332.5446 728.0869,-342.5446 735.0869,-342.5446"/>
</g>
<!-- Node2 -->
<g id="node3" class="node">
<title>Node2</title>
<polygon fill="#ffffff" stroke="#bfbfbf" points="1386.0868,-.5 1386.0868,-19.5 1427.0868,-19.5 1427.0868,-.5 1386.0868,-.5"/>
<text text-anchor="middle" x="1406.5868" y="-7.5" font-family="Helvetica,sans-Serif" font-size="10.00" fill="#000000">string</text>
</g>
<!-- Node1&#45;&gt;Node2 -->
<g id="edge2" class="edge">
<title>Node1&#45;&gt;Node2</title>
<path fill="none" stroke="#191970" d="M751.3092,-302.2196C781.0203,-277.2185 831.6614,-225.6738 810.5868,-179 792.056,-137.9602 772.0621,-136.9651 734.5868,-112 704.1482,-91.7226 679.9838,-107.007 660.5868,-76 655.8726,-68.4642 654.4774,-62.4566 660.5868,-56 710.378,-3.3793 1239.375,-25.7937 1311.5868,-20 1333.1062,-18.2735 1357.3047,-15.7171 1375.8933,-13.6213"/>
<polygon fill="#191970" stroke="#191970" points="1376.3208,-17.0953 1385.8583,-12.4815 1375.5253,-10.1406 1376.3208,-17.0953"/>
</g>
<!-- Node3 -->
<g id="node4" class="node">
<title>Node3</title>
<polygon fill="#ffffff" stroke="#bfbfbf" points="320.0868,-56.5 320.0868,-75.5 403.0868,-75.5 403.0868,-56.5 320.0868,-56.5"/>
<text text-anchor="middle" x="361.5868" y="-63.5" font-family="Helvetica,sans-Serif" font-size="10.00" fill="#000000">unordered_map</text>
</g>
<!-- Node1&#45;&gt;Node3 -->
<g id="edge3" class="edge">
<title>Node1&#45;&gt;Node3</title>
<path fill="none" stroke="#191970" d="M680.7102,-312.359C577.9842,-300.8183 351.6417,-269.1205 305.5868,-210 278.8201,-175.6397 286.9732,-151.3779 305.5868,-112 311.6113,-99.2547 323.0899,-88.8542 334.0942,-81.1874"/>
<polygon fill="#191970" stroke="#191970" points="336.1989,-83.9948 342.7044,-75.6324 332.404,-78.1127 336.1989,-83.9948"/>
</g>
<!-- Node4 -->
<g id="node5" class="node">
<title>Node4</title>
<polygon fill="#ffffff" stroke="#bfbfbf" points="983.5868,-246.5 983.5868,-265.5 1027.5868,-265.5 1027.5868,-246.5 983.5868,-246.5"/>
<text text-anchor="middle" x="1005.5868" y="-253.5" font-family="Helvetica,sans-Serif" font-size="10.00" fill="#000000">vector</text>
</g>
<!-- Node1&#45;&gt;Node4 -->
<g id="edge4" class="edge">
<title>Node1&#45;&gt;Node4</title>
<path fill="none" stroke="#191970" d="M782.2089,-308.3507C829.3958,-299.4687 901.8739,-284.9263 973.2552,-266.1628"/>
<polygon fill="#191970" stroke="#191970" points="974.5526,-269.4395 983.3174,-263.4873 972.7537,-262.6745 974.5526,-269.4395"/>
</g>
<!-- Node5 -->
<g id="node6" class="node">
<title>Node5</title>
<g id="a_node6"><a xlink:href="_factory_8_h.html" target="_top" xlink:title="amr&#45;wind/core/Factory.H">
<polygon fill="#ffffff" stroke="#000000" points="133.0868,-118 133.0868,-137 258.0868,-137 258.0868,-118 133.0868,-118"/>
<text text-anchor="middle" x="195.5868" y="-125" font-family="Helvetica,sans-Serif" font-size="10.00" fill="#000000">amr&#45;wind/core/Factory.H</text>
</a>
</g>
</g>
<!-- Node1&#45;&gt;Node5 -->
<g id="edge5" class="edge">
<title>Node1&#45;&gt;Node5</title>
<path fill="none" stroke="#191970" d="M680.9376,-314.4296C568.6458,-307.2513 306.04,-288.2809 272.5868,-266 230.373,-237.8843 209.0262,-178.4348 200.3845,-147.3632"/>
<polygon fill="#191970" stroke="#191970" points="203.6726,-146.1021 197.7604,-137.3103 196.8996,-147.8701 203.6726,-146.1021"/>
</g>
<!-- Node10 -->
<g id="node11" class="node">
<title>Node10</title>
<g id="a_node11"><a xlink:href="_coll_mgr_8_h.html" target="_top" xlink:title="amr&#45;wind/core/CollMgr.H">
<polygon fill="#ffffff" stroke="#000000" points="443.0868,-118 443.0868,-137 568.0868,-137 568.0868,-118 443.0868,-118"/>
<text text-anchor="middle" x="505.5868" y="-125" font-family="Helvetica,sans-Serif" font-size="10.00" fill="#000000">amr&#45;wind/core/CollMgr.H</text>
</a>
</g>
</g>
<!-- Node1&#45;&gt;Node10 -->
<g id="edge11" class="edge">
<title>Node1&#45;&gt;Node10</title>
<path fill="none" stroke="#191970" d="M713.4743,-302.2727C671.4457,-266.9389 567.6133,-179.6462 524.6601,-143.5351"/>
<polygon fill="#191970" stroke="#191970" points="526.8242,-140.7819 516.9175,-137.0258 522.3196,-146.14 526.8242,-140.7819"/>
</g>
<!-- Node12 -->
<g id="node13" class="node">
<title>Node12</title>
<g id="a_node13"><a xlink:href="_c_f_d_sim_8_h.html" target="_top" xlink:title="amr&#45;wind/CFDSim.H">
<polygon fill="#ffffff" stroke="#000000" points="857.5868,-246.5 857.5868,-265.5 965.5868,-265.5 965.5868,-246.5 857.5868,-246.5"/>
<text text-anchor="middle" x="911.5868" y="-253.5" font-family="Helvetica,sans-Serif" font-size="10.00" fill="#000000">amr&#45;wind/CFDSim.H</text>
</a>
</g>
</g>
<!-- Node1&#45;&gt;Node12 -->
<g id="edge16" class="edge">
<title>Node1&#45;&gt;Node12</title>
<path fill="none" stroke="#191970" d="M775.6197,-302.4554C805.7849,-292.149 845.3676,-278.6249 874.0398,-268.8286"/>
<polygon fill="#191970" stroke="#191970" points="875.3619,-272.0756 883.6932,-265.5303 873.0986,-265.4515 875.3619,-272.0756"/>
</g>
<!-- Node5&#45;&gt;Node3 -->
<g id="edge7" class="edge">
<title>Node5&#45;&gt;Node3</title>
<path fill="none" stroke="#191970" d="M221.5243,-117.8906C249.6646,-107.4652 294.7661,-90.7559 326.1594,-79.1252"/>
<polygon fill="#191970" stroke="#191970" points="327.6702,-82.298 335.8314,-75.5419 325.2383,-75.734 327.6702,-82.298"/>
</g>
<!-- Node6 -->
<g id="node7" class="node">
<title>Node6</title>
<polygon fill="#ffffff" stroke="#bfbfbf" points="421.5868,-56.5 421.5868,-75.5 473.5868,-75.5 473.5868,-56.5 421.5868,-56.5"/>
<text text-anchor="middle" x="447.5868" y="-63.5" font-family="Helvetica,sans-Serif" font-size="10.00" fill="#000000">memory</text>
</g>
<!-- Node5&#45;&gt;Node6 -->
<g id="edge6" class="edge">
<title>Node5&#45;&gt;Node6</title>
<path fill="none" stroke="#191970" d="M237.5119,-117.9866C281.1144,-107.9796 351.3009,-91.5542 411.5868,-76 411.6849,-75.9747 411.7832,-75.9493 411.8816,-75.9238"/>
<polygon fill="#191970" stroke="#191970" points="412.5041,-79.3799 421.2708,-73.4306 410.7074,-72.6144 412.5041,-79.3799"/>
</g>
<!-- Node7 -->
<g id="node8" class="node">
<title>Node7</title>
<polygon fill="#ffffff" stroke="#bfbfbf" points="247.5868,-56.5 247.5868,-75.5 301.5868,-75.5 301.5868,-56.5 247.5868,-56.5"/>
<text text-anchor="middle" x="274.5868" y="-63.5" font-family="Helvetica,sans-Serif" font-size="10.00" fill="#000000">iostream</text>
</g>
<!-- Node5&#45;&gt;Node7 -->
<g id="edge8" class="edge">
<title>Node5&#45;&gt;Node7</title>
<path fill="none" stroke="#191970" d="M207.9305,-117.8906C220.337,-108.2324 239.6711,-93.1812 254.3281,-81.771"/>
<polygon fill="#191970" stroke="#191970" points="256.5889,-84.4466 262.3297,-75.5419 252.2888,-78.923 256.5889,-84.4466"/>
</g>
<!-- Node8 -->
<g id="node9" class="node">
<title>Node8</title>
<polygon fill="#ffffff" stroke="#bfbfbf" points="62.0868,-56.5 62.0868,-75.5 149.0868,-75.5 149.0868,-56.5 62.0868,-56.5"/>
<text text-anchor="middle" x="105.5868" y="-63.5" font-family="Helvetica,sans-Serif" font-size="10.00" fill="#000000">AMReX_Print.H</text>
</g>
<!-- Node5&#45;&gt;Node8 -->
<g id="edge9" class="edge">
<title>Node5&#45;&gt;Node8</title>
<path fill="none" stroke="#191970" d="M181.5243,-117.8906C167.2582,-108.1421 144.9517,-92.8994 128.1995,-81.4521"/>
<polygon fill="#191970" stroke="#191970" points="129.7817,-78.2941 119.5505,-75.5419 125.8323,-84.0736 129.7817,-78.2941"/>
</g>
<!-- Node9 -->
<g id="node10" class="node">
<title>Node9</title>
<polygon fill="#ffffff" stroke="#bfbfbf" points="167.5868,-56.5 167.5868,-75.5 229.5868,-75.5 229.5868,-56.5 167.5868,-56.5"/>
<text text-anchor="middle" x="198.5868" y="-63.5" font-family="Helvetica,sans-Serif" font-size="10.00" fill="#000000">AMReX.H</text>
</g>
<!-- Node5&#45;&gt;Node9 -->
<g id="edge10" class="edge">
<title>Node5&#45;&gt;Node9</title>
<path fill="none" stroke="#191970" d="M196.0555,-117.8906C196.4714,-109.3657 197.0922,-96.6392 197.6149,-85.9235"/>
<polygon fill="#191970" stroke="#191970" points="201.1199,-85.9035 198.1114,-75.7449 194.1283,-85.5624 201.1199,-85.9035"/>
</g>
<!-- Node10&#45;&gt;Node2 -->
<g id="edge12" class="edge">
<title>Node10&#45;&gt;Node2</title>
<path fill="none" stroke="#191970" d="M509.3944,-117.9413C516.3896,-101.8279 532.9605,-69.68 558.5868,-56 632.4794,-16.554 1228.0684,-26.3869 1311.5868,-20 1333.1125,-18.3539 1357.3109,-15.7961 1375.8979,-13.6795"/>
<polygon fill="#191970" stroke="#191970" points="1376.3306,-17.1529 1385.8618,-12.5262 1375.5256,-10.1993 1376.3306,-17.1529"/>
</g>
<!-- Node10&#45;&gt;Node3 -->
<g id="edge14" class="edge">
<title>Node10&#45;&gt;Node3</title>
<path fill="none" stroke="#191970" d="M483.0868,-117.8906C458.9929,-107.6005 420.5654,-91.1888 393.386,-79.5809"/>
<polygon fill="#191970" stroke="#191970" points="394.4999,-76.2508 383.9288,-75.5419 391.7505,-82.6883 394.4999,-76.2508"/>
</g>
<!-- Node10&#45;&gt;Node6 -->
<g id="edge13" class="edge">
<title>Node10&#45;&gt;Node6</title>
<path fill="none" stroke="#191970" d="M496.5243,-117.8906C487.8075,-108.6478 474.4328,-94.466 463.8672,-83.2628"/>
<polygon fill="#191970" stroke="#191970" points="466.1844,-80.6186 456.777,-75.7449 461.0918,-85.4213 466.1844,-80.6186"/>
</g>
<!-- Node11 -->
<g id="node12" class="node">
<title>Node11</title>
<polygon fill="#ffffff" stroke="#bfbfbf" points="1207.0868,-.5 1207.0868,-19.5 1302.0868,-19.5 1302.0868,-.5 1207.0868,-.5"/>
<text text-anchor="middle" x="1254.5868" y="-7.5" font-family="Helvetica,sans-Serif" font-size="10.00" fill="#000000">AMReX_Vector.H</text>
</g>
<!-- Node10&#45;&gt;Node11 -->
<g id="edge15" class="edge">
<title>Node10&#45;&gt;Node11</title>
<path fill="none" stroke="#191970" d="M505.0754,-117.7694C504.8384,-101.994 506.9526,-71.0851 525.5868,-56 538.604,-45.462 1026.8164,-20.9798 1196.8809,-12.7528"/>
<polygon fill="#191970" stroke="#191970" points="1197.0788,-16.2475 1206.8983,-12.2693 1196.7412,-9.2556 1197.0788,-16.2475"/>
</g>
<!-- Node13 -->
<g id="node14" class="node">
<title>Node13</title>
<polygon fill="#ffffff" stroke="#bfbfbf" points="2043.5868,-118 2043.5868,-137 2149.5868,-137 2149.5868,-118 2043.5868,-118"/>
<text text-anchor="middle" x="2096.5868" y="-125" font-family="Helvetica,sans-Serif" font-size="10.00" fill="#000000">AMReX_AmrCore.H</text>
</g>
<!-- Node12&#45;&gt;Node13 -->
<g id="edge17" class="edge">
<title>Node12&#45;&gt;Node13</title>
<path fill="none" stroke="#191970" d="M965.8319,-246.988C968.7892,-246.6222 971.722,-246.2888 974.5868,-246 1340.1927,-209.1374 1437.6862,-267.7037 1800.5868,-210 1896.3122,-194.779 2005.2598,-159.6068 2060.4424,-140.4705"/>
<polygon fill="#191970" stroke="#191970" points="2061.8205,-143.6965 2070.1052,-137.0924 2059.5104,-137.0887 2061.8205,-143.6965"/>
</g>
<!-- Node14 -->
<g id="node15" class="node">
<title>Node14</title>
<g id="a_node15"><a xlink:href="_sim_time_8_h.html" target="_top" xlink:title="amr&#45;wind/core/SimTime.H">
<polygon fill="#ffffff" stroke="#000000" points="2217.0868,-185 2217.0868,-204 2348.0868,-204 2348.0868,-185 2217.0868,-185"/>
<text text-anchor="middle" x="2282.5868" y="-192" font-family="Helvetica,sans-Serif" font-size="10.00" fill="#000000">amr&#45;wind/core/SimTime.H</text>
</a>
</g>
</g>
<!-- Node12&#45;&gt;Node14 -->
<g id="edge18" class="edge">
<title>Node12&#45;&gt;Node14</title>
<path fill="none" stroke="#191970" d="M965.8291,-246.9597C968.7871,-246.6012 971.7208,-246.2772 974.5868,-246 1424.3271,-202.5023 1539.1896,-229.9762 1990.5868,-210 2064.0267,-206.75 2147.8118,-202.2174 2206.741,-198.893"/>
<polygon fill="#191970" stroke="#191970" points="2207.293,-202.3675 2217.0792,-198.3078 2206.8973,-195.3786 2207.293,-202.3675"/>
</g>
<!-- Node18 -->
<g id="node19" class="node">
<title>Node18</title>
<g id="a_node19"><a xlink:href="_field_repo_8_h.html" target="_top" xlink:title="amr&#45;wind/core/FieldRepo.H">
<polygon fill="#ffffff" stroke="#000000" points="1655.5868,-185 1655.5868,-204 1791.5868,-204 1791.5868,-185 1655.5868,-185"/>
<text text-anchor="middle" x="1723.5868" y="-192" font-family="Helvetica,sans-Serif" font-size="10.00" fill="#000000">amr&#45;wind/core/FieldRepo.H</text>
</a>
</g>
</g>
<!-- Node12&#45;&gt;Node18 -->
<g id="edge22" class="edge">
<title>Node12&#45;&gt;Node18</title>
<path fill="none" stroke="#191970" d="M965.8412,-247.075C968.7961,-246.6867 971.7258,-246.3248 974.5868,-246 1218.3523,-218.3284 1508.5583,-203.5076 1645.1407,-197.5994"/>
<polygon fill="#191970" stroke="#191970" points="1645.6582,-201.0805 1655.4992,-197.1557 1645.3585,-194.0869 1645.6582,-201.0805"/>
</g>
<!-- Node33 -->
<g id="node34" class="node">
<title>Node33</title>
<g id="a_node34"><a xlink:href="_p_d_e_base_8_h.html" target="_top" xlink:title="amr&#45;wind/equation_systems\l/PDEBase.H">
<polygon fill="#ffffff" stroke="#000000" points="662.0868,-179.5 662.0868,-209.5 801.0868,-209.5 801.0868,-179.5 662.0868,-179.5"/>
<text text-anchor="start" x="670.0868" y="-197.5" font-family="Helvetica,sans-Serif" font-size="10.00" fill="#000000">amr&#45;wind/equation_systems</text>
<text text-anchor="middle" x="731.5868" y="-186.5" font-family="Helvetica,sans-Serif" font-size="10.00" fill="#000000">/PDEBase.H</text>
</a>
</g>
</g>
<!-- Node12&#45;&gt;Node33 -->
<g id="edge59" class="edge">
<title>Node12&#45;&gt;Node33</title>
<path fill="none" stroke="#191970" d="M883.4618,-246.3906C857.2965,-237.4508 817.6077,-223.8905 785.3641,-212.8739"/>
<polygon fill="#191970" stroke="#191970" points="786.2143,-209.4658 775.6197,-209.5446 783.951,-216.0898 786.2143,-209.4658"/>
</g>
<!-- Node36 -->
<g id="node37" class="node">
<title>Node36</title>
<g id="a_node37"><a xlink:href="_physics_8_h.html" target="_top" xlink:title="amr&#45;wind/core/Physics.H">
<polygon fill="#ffffff" stroke="#000000" points="315.0868,-185 315.0868,-204 442.0868,-204 442.0868,-185 315.0868,-185"/>
<text text-anchor="middle" x="378.5868" y="-192" font-family="Helvetica,sans-Serif" font-size="10.00" fill="#000000">amr&#45;wind/core/Physics.H</text>
</a>
</g>
</g>
<!-- Node12&#45;&gt;Node36 -->
<g id="edge67" class="edge">
<title>Node12&#45;&gt;Node36</title>
<path fill="none" stroke="#191970" d="M857.5467,-249.7646C761.5302,-238.6858 561.1018,-215.5594 452.4411,-203.0216"/>
<polygon fill="#191970" stroke="#191970" points="452.5539,-199.5115 442.2186,-201.8421 451.7514,-206.4654 452.5539,-199.5115"/>
</g>
<!-- Node15 -->
<g id="node16" class="node">
<title>Node15</title>
<polygon fill="#ffffff" stroke="#bfbfbf" points="2296.0868,-118 2296.0868,-137 2389.0868,-137 2389.0868,-118 2296.0868,-118"/>
<text text-anchor="middle" x="2342.5868" y="-125" font-family="Helvetica,sans-Serif" font-size="10.00" fill="#000000">AMReX_REAL.H</text>
</g>
<!-- Node14&#45;&gt;Node15 -->
<g id="edge19" class="edge">
<title>Node14&#45;&gt;Node15</title>
<path fill="none" stroke="#191970" d="M2291.1833,-184.9005C2300.5398,-174.4525 2315.692,-157.5325 2327.1269,-144.7635"/>
<polygon fill="#191970" stroke="#191970" points="2329.9423,-146.8661 2334.0062,-137.0817 2324.7276,-142.1963 2329.9423,-146.8661"/>
</g>
<!-- Node16 -->
<g id="node17" class="node">
<title>Node16</title>
<polygon fill="#ffffff" stroke="#bfbfbf" points="2407.5868,-118 2407.5868,-137 2533.5868,-137 2533.5868,-118 2407.5868,-118"/>
<text text-anchor="middle" x="2470.5868" y="-125" font-family="Helvetica,sans-Serif" font-size="10.00" fill="#000000">AMReX_GpuQualifiers.H</text>
</g>
<!-- Node14&#45;&gt;Node16 -->
<g id="edge20" class="edge">
<title>Node14&#45;&gt;Node16</title>
<path fill="none" stroke="#191970" d="M2309.5226,-184.9005C2342.1901,-173.2584 2397.4056,-153.5805 2433.9293,-140.5641"/>
<polygon fill="#191970" stroke="#191970" points="2435.4562,-143.7356 2443.7009,-137.0817 2433.1063,-137.1418 2435.4562,-143.7356"/>
</g>
<!-- Node17 -->
<g id="node18" class="node">
<title>Node17</title>
<polygon fill="#ffffff" stroke="#bfbfbf" points="2167.5868,-118 2167.5868,-137 2277.5868,-137 2277.5868,-118 2167.5868,-118"/>
<text text-anchor="middle" x="2222.5868" y="-125" font-family="Helvetica,sans-Serif" font-size="10.00" fill="#000000">AMReX_Extension.H</text>
</g>
<!-- Node14&#45;&gt;Node17 -->
<g id="edge21" class="edge">
<title>Node14&#45;&gt;Node17</title>
<path fill="none" stroke="#191970" d="M2273.9902,-184.9005C2264.6338,-174.4525 2249.4815,-157.5325 2238.0466,-144.7635"/>
<polygon fill="#191970" stroke="#191970" points="2240.4459,-142.1963 2231.1674,-137.0817 2235.2313,-146.8661 2240.4459,-142.1963"/>
</g>
<!-- Node18&#45;&gt;Node2 -->
<g id="edge23" class="edge">
<title>Node18&#45;&gt;Node2</title>
<path fill="none" stroke="#191970" d="M1722.7297,-184.9294C1719.9054,-159.4743 1708.5151,-89.7494 1666.5868,-56 1631.7214,-27.9358 1498.7639,-15.9207 1437.6491,-11.7997"/>
<polygon fill="#191970" stroke="#191970" points="1437.6595,-8.2931 1427.4546,-11.141 1437.2081,-15.2785 1437.6595,-8.2931"/>
</g>
<!-- Node18&#45;&gt;Node3 -->
<g id="edge24" class="edge">
<title>Node18&#45;&gt;Node3</title>
<path fill="none" stroke="#191970" d="M1655.4331,-192.4541C1516.7148,-187.7777 1191.7279,-174.2089 920.5868,-143 837.3295,-133.4169 817.5942,-123.5489 734.5868,-112 595.1615,-92.6016 556.6358,-97.6287 413.3328,-76.0002"/>
<polygon fill="#191970" stroke="#191970" points="413.7,-72.5158 403.2863,-74.4665 412.6435,-79.4356 413.7,-72.5158"/>
</g>
<!-- Node18&#45;&gt;Node13 -->
<g id="edge56" class="edge">
<title>Node18&#45;&gt;Node13</title>
<path fill="none" stroke="#191970" d="M1787.0858,-184.9628C1849.1177,-175.3753 1946.1158,-159.6634 2029.5868,-143 2035.2872,-141.862 2041.2427,-140.5963 2047.1502,-139.2925"/>
<polygon fill="#191970" stroke="#191970" points="2048.0051,-142.6877 2056.9931,-137.0782 2046.4688,-135.8584 2048.0051,-142.6877"/>
</g>
<!-- Node19 -->
<g id="node20" class="node">
<title>Node19</title>
<g id="a_node20"><a xlink:href="_field_desc_types_8_h.html" target="_top" xlink:title="amr&#45;wind/core/FieldDescTypes.H">
<polygon fill="#ffffff" stroke="#000000" points="1718.0868,-.5 1718.0868,-19.5 1881.0868,-19.5 1881.0868,-.5 1718.0868,-.5"/>
<text text-anchor="middle" x="1799.5868" y="-7.5" font-family="Helvetica,sans-Serif" font-size="10.00" fill="#000000">amr&#45;wind/core/FieldDescTypes.H</text>
</a>
</g>
</g>
<!-- Node18&#45;&gt;Node19 -->
<g id="edge25" class="edge">
<title>Node18&#45;&gt;Node19</title>
<path fill="none" stroke="#191970" d="M1763.3765,-184.9958C1815.6407,-172.3329 1902.3624,-150.6374 1915.5868,-143 1952.0542,-121.9392 1966.4712,-114.9065 1982.5868,-76 1985.9884,-67.7877 1988.0526,-63.0098 1982.5868,-56 1970.0455,-39.9161 1926.4098,-28.5958 1884.8952,-21.2102"/>
<polygon fill="#191970" stroke="#191970" points="1885.4162,-17.7485 1874.9687,-19.5093 1884.2339,-24.648 1885.4162,-17.7485"/>
</g>
<!-- Node20 -->
<g id="node21" class="node">
<title>Node20</title>
<g id="a_node21"><a xlink:href="_field_utils_8_h.html" target="_top" xlink:title="amr&#45;wind/core/FieldUtils.H">
<polygon fill="#ffffff" stroke="#000000" points="2030.0868,-56.5 2030.0868,-75.5 2163.0868,-75.5 2163.0868,-56.5 2030.0868,-56.5"/>
<text text-anchor="middle" x="2096.5868" y="-63.5" font-family="Helvetica,sans-Serif" font-size="10.00" fill="#000000">amr&#45;wind/core/FieldUtils.H</text>
</a>
</g>
</g>
<!-- Node18&#45;&gt;Node20 -->
<g id="edge26" class="edge">
<title>Node18&#45;&gt;Node20</title>
<path fill="none" stroke="#191970" d="M1791.8366,-189.7341C1847.5144,-183.9101 1927.2051,-171.0818 1991.5868,-143 1993.9323,-141.9769 2045.5179,-103.8582 2075.4944,-81.6466"/>
<polygon fill="#191970" stroke="#191970" points="2077.7225,-84.3518 2083.6717,-75.5849 2073.5539,-78.7283 2077.7225,-84.3518"/>
</g>
<!-- Node21 -->
<g id="node22" class="node">
<title>Node21</title>
<polygon fill="#ffffff" stroke="#bfbfbf" points="928.5868,-.5 928.5868,-19.5 1032.5868,-19.5 1032.5868,-.5 928.5868,-.5"/>
<text text-anchor="middle" x="980.5868" y="-7.5" font-family="Helvetica,sans-Serif" font-size="10.00" fill="#000000">AMReX_MultiFab.H</text>
</g>
<!-- Node18&#45;&gt;Node21 -->
<g id="edge57" class="edge">
<title>Node18&#45;&gt;Node21</title>
<path fill="none" stroke="#191970" d="M1655.2455,-193.65C1358.7185,-189.7893 195.193,-172.7945 123.5868,-143 83.5286,-126.3323 69.7694,-115.84 52.5868,-76 49.0665,-67.8379 46.4589,-62.4391 52.5868,-56 82.423,-24.6482 714.6083,-13.5323 918.0896,-10.759"/>
<polygon fill="#191970" stroke="#191970" points="918.357,-14.2558 928.3091,-10.6218 918.263,-7.2564 918.357,-14.2558"/>
</g>
<!-- Node23 -->
<g id="node24" class="node">
<title>Node23</title>
<g id="a_node24"><a xlink:href="_field_8_h.html" target="_top" xlink:title="amr&#45;wind/core/Field.H">
<polygon fill="#ffffff" stroke="#000000" points="929.0868,-118 929.0868,-137 1042.0868,-137 1042.0868,-118 929.0868,-118"/>
<text text-anchor="middle" x="985.5868" y="-125" font-family="Helvetica,sans-Serif" font-size="10.00" fill="#000000">amr&#45;wind/core/Field.H</text>
</a>
</g>
</g>
<!-- Node18&#45;&gt;Node23 -->
<g id="edge30" class="edge">
<title>Node18&#45;&gt;Node23</title>
<path fill="none" stroke="#191970" d="M1655.4803,-188.3169C1514.4914,-175.5171 1192.1664,-146.2545 1052.3434,-133.5606"/>
<polygon fill="#191970" stroke="#191970" points="1052.4703,-130.0578 1042.1948,-132.6392 1051.8373,-137.0291 1052.4703,-130.0578"/>
</g>
<!-- Node29 -->
<g id="node30" class="node">
<title>Node29</title>
<g id="a_node30"><a xlink:href="_int_field_8_h.html" target="_top" xlink:title="amr&#45;wind/core/IntField.H">
<polygon fill="#ffffff" stroke="#000000" points="1759.5868,-118 1759.5868,-137 1883.5868,-137 1883.5868,-118 1759.5868,-118"/>
<text text-anchor="middle" x="1821.5868" y="-125" font-family="Helvetica,sans-Serif" font-size="10.00" fill="#000000">amr&#45;wind/core/IntField.H</text>
</a>
</g>
</g>
<!-- Node18&#45;&gt;Node29 -->
<g id="edge45" class="edge">
<title>Node18&#45;&gt;Node29</title>
<path fill="none" stroke="#191970" d="M1737.6278,-184.9005C1753.7105,-173.9052 1780.2774,-155.7422 1799.2184,-142.7927"/>
<polygon fill="#191970" stroke="#191970" points="1801.292,-145.6148 1807.5718,-137.0817 1797.3413,-139.8362 1801.292,-145.6148"/>
</g>
<!-- Node30 -->
<g id="node31" class="node">
<title>Node30</title>
<polygon fill="#ffffff" stroke="#bfbfbf" points="1866.0868,-56.5 1866.0868,-75.5 1973.0868,-75.5 1973.0868,-56.5 1866.0868,-56.5"/>
<text text-anchor="middle" x="1919.5868" y="-63.5" font-family="Helvetica,sans-Serif" font-size="10.00" fill="#000000">AMReX_iMultiFab.H</text>
</g>
<!-- Node18&#45;&gt;Node30 -->
<g id="edge58" class="edge">
<title>Node18&#45;&gt;Node30</title>
<path fill="none" stroke="#191970" d="M1771.6507,-184.9211C1815.205,-175.3616 1875.1566,-159.7221 1892.5868,-143 1908.3516,-127.8756 1914.9209,-103.0298 1917.6526,-85.664"/>
<polygon fill="#191970" stroke="#191970" points="1921.1543,-85.8731 1918.9516,-75.5097 1914.2109,-84.9847 1921.1543,-85.8731"/>
</g>
<!-- Node31 -->
<g id="node32" class="node">
<title>Node31</title>
<g id="a_node32"><a xlink:href="_scratch_field_8_h.html" target="_top" xlink:title="amr&#45;wind/core/ScratchField.H">
<polygon fill="#ffffff" stroke="#000000" points="1491.5868,-118 1491.5868,-137 1637.5868,-137 1637.5868,-118 1491.5868,-118"/>
<text text-anchor="middle" x="1564.5868" y="-125" font-family="Helvetica,sans-Serif" font-size="10.00" fill="#000000">amr&#45;wind/core/ScratchField.H</text>
</a>
</g>
</g>
<!-- Node18&#45;&gt;Node31 -->
<g id="edge49" class="edge">
<title>Node18&#45;&gt;Node31</title>
<path fill="none" stroke="#191970" d="M1700.806,-184.9005C1673.5318,-173.4077 1627.6736,-154.0838 1596.7854,-141.068"/>
<polygon fill="#191970" stroke="#191970" points="1597.8997,-137.7395 1587.3253,-137.0817 1595.1815,-144.1902 1597.8997,-137.7395"/>
</g>
<!-- Node20&#45;&gt;Node19 -->
<g id="edge27" class="edge">
<title>Node20&#45;&gt;Node19</title>
<path fill="none" stroke="#191970" d="M2045.8681,-56.4369C1994.3982,-46.7321 1914.7165,-31.708 1860.0084,-21.3926"/>
<polygon fill="#191970" stroke="#191970" points="1860.5716,-17.9372 1850.0962,-19.5237 1859.2746,-24.816 1860.5716,-17.9372"/>
</g>
<!-- Node20&#45;&gt;Node21 -->
<g id="edge28" class="edge">
<title>Node20&#45;&gt;Node21</title>
<path fill="none" stroke="#191970" d="M2030.0124,-59.691C2014.4591,-58.3473 1997.95,-57.026 1982.5868,-56 1981.1127,-55.9016 1261.0017,-22.864 1042.6267,-12.846"/>
<polygon fill="#191970" stroke="#191970" points="1042.7619,-9.3486 1032.612,-12.3866 1042.441,-16.3413 1042.7619,-9.3486"/>
</g>
<!-- Node22 -->
<g id="node23" class="node">
<title>Node22</title>
<polygon fill="#ffffff" stroke="#bfbfbf" points="2038.5868,-.5 2038.5868,-19.5 2154.5868,-19.5 2154.5868,-.5 2038.5868,-.5"/>
<text text-anchor="middle" x="2096.5868" y="-7.5" font-family="Helvetica,sans-Serif" font-size="10.00" fill="#000000">AMReX_Interpolater.H</text>
</g>
<!-- Node20&#45;&gt;Node22 -->
<g id="edge29" class="edge">
<title>Node20&#45;&gt;Node22</title>
<path fill="none" stroke="#191970" d="M2096.5868,-56.2455C2096.5868,-48.9382 2096.5868,-38.6944 2096.5868,-29.7046"/>
<polygon fill="#191970" stroke="#191970" points="2100.0869,-29.6426 2096.5868,-19.6427 2093.0869,-29.6427 2100.0869,-29.6426"/>
</g>
<!-- Node23&#45;&gt;Node2 -->
<g id="edge31" class="edge">
<title>Node23&#45;&gt;Node2</title>
<path fill="none" stroke="#191970" d="M1042.1612,-122.9191C1126.432,-115.4481 1280.3946,-99.1187 1330.5868,-76 1355.2289,-64.6498 1377.9338,-42.7929 1391.9883,-27.3472"/>
<polygon fill="#191970" stroke="#191970" points="1394.8856,-29.3528 1398.8638,-19.5332 1389.6303,-24.7287 1394.8856,-29.3528"/>
</g>
<!-- Node23&#45;&gt;Node3 -->
<g id="edge33" class="edge">
<title>Node23&#45;&gt;Node3</title>
<path fill="none" stroke="#191970" d="M929.0548,-123.1729C808.4823,-113.8247 528.3952,-91.4439 413.242,-75.9264"/>
<polygon fill="#191970" stroke="#191970" points="413.662,-72.4513 403.2753,-74.5407 412.698,-79.3846 413.662,-72.4513"/>
</g>
<!-- Node23&#45;&gt;Node6 -->
<g id="edge32" class="edge">
<title>Node23&#45;&gt;Node6</title>
<path fill="none" stroke="#191970" d="M929.0282,-121.0347C818.3476,-108.3825 575.9289,-80.6711 483.9537,-70.1572"/>
<polygon fill="#191970" stroke="#191970" points="484.0866,-66.6497 473.7537,-68.9912 483.2915,-73.6044 484.0866,-66.6497"/>
</g>
<!-- Node23&#45;&gt;Node19 -->
<g id="edge39" class="edge">
<title>Node23&#45;&gt;Node19</title>
<path fill="none" stroke="#191970" d="M1042.325,-119.9036C1115.6316,-110.0392 1247.19,-92.1677 1359.5868,-76 1489.393,-57.328 1640.5496,-34.3938 1727.6453,-21.0631"/>
<polygon fill="#191970" stroke="#191970" points="1728.3293,-24.4993 1737.6841,-19.5257 1727.2695,-17.5799 1728.3293,-24.4993"/>
</g>
<!-- Node23&#45;&gt;Node21 -->
<g id="edge35" class="edge">
<title>Node23&#45;&gt;Node21</title>
<path fill="none" stroke="#191970" d="M944.5402,-117.923C907.5585,-108.3648 857.256,-92.7263 845.5868,-76 823.2665,-44.0068 873.0781,-26.8707 918.3728,-18.1509"/>
<polygon fill="#191970" stroke="#191970" points="919.0234,-21.59 928.2401,-16.3648 917.7765,-14.702 919.0234,-21.59"/>
</g>
<!-- Node24 -->
<g id="node25" class="node">
<title>Node24</title>
<polygon fill="#ffffff" stroke="#bfbfbf" points="957.5868,-56.5 957.5868,-75.5 1013.5868,-75.5 1013.5868,-56.5 957.5868,-56.5"/>
<text text-anchor="middle" x="985.5868" y="-63.5" font-family="Helvetica,sans-Serif" font-size="10.00" fill="#000000">algorithm</text>
</g>
<!-- Node23&#45;&gt;Node24 -->
<g id="edge34" class="edge">
<title>Node23&#45;&gt;Node24</title>
<path fill="none" stroke="#191970" d="M985.5868,-117.8906C985.5868,-109.3657 985.5868,-96.6392 985.5868,-85.9235"/>
<polygon fill="#191970" stroke="#191970" points="989.0869,-85.7448 985.5868,-75.7449 982.0869,-85.7449 989.0869,-85.7448"/>
</g>
<!-- Node25 -->
<g id="node26" class="node">
<title>Node25</title>
<polygon fill="#ffffff" stroke="#bfbfbf" points="1032.0868,-56.5 1032.0868,-75.5 1131.0868,-75.5 1131.0868,-56.5 1032.0868,-56.5"/>
<text text-anchor="middle" x="1081.5868" y="-63.5" font-family="Helvetica,sans-Serif" font-size="10.00" fill="#000000">AMReX_BCRec.H</text>
</g>
<!-- Node23&#45;&gt;Node25 -->
<g id="edge36" class="edge">
<title>Node23&#45;&gt;Node25</title>
<path fill="none" stroke="#191970" d="M1000.5868,-117.8906C1015.9448,-108.0519 1040.0388,-92.6167 1057.9613,-81.1351"/>
<polygon fill="#191970" stroke="#191970" points="1060.1598,-83.8833 1066.6921,-75.5419 1056.3838,-77.9891 1060.1598,-83.8833"/>
</g>
<!-- Node26 -->
<g id="node27" class="node">
<title>Node26</title>
<polygon fill="#ffffff" stroke="#bfbfbf" points="854.0868,-56.5 854.0868,-75.5 939.0868,-75.5 939.0868,-56.5 854.0868,-56.5"/>
<text text-anchor="middle" x="896.5868" y="-63.5" font-family="Helvetica,sans-Serif" font-size="10.00" fill="#000000">AMReX_Gpu.H</text>
</g>
<!-- Node23&#45;&gt;Node26 -->
<g id="edge37" class="edge">
<title>Node23&#45;&gt;Node26</title>
<path fill="none" stroke="#191970" d="M971.6805,-117.8906C957.5729,-108.1421 935.5144,-92.8994 918.9483,-81.4521"/>
<polygon fill="#191970" stroke="#191970" points="920.612,-78.3474 910.3954,-75.5419 916.6326,-84.1063 920.612,-78.3474"/>
</g>
<!-- Node27 -->
<g id="node28" class="node">
<title>Node27</title>
<g id="a_node28"><a xlink:href="incflo__enums_8_h.html" target="_top" xlink:title="amr&#45;wind/incflo_enums.H">
<polygon fill="#ffffff" stroke="#000000" points="669.5868,-56.5 669.5868,-75.5 797.5868,-75.5 797.5868,-56.5 669.5868,-56.5"/>
<text text-anchor="middle" x="733.5868" y="-63.5" font-family="Helvetica,sans-Serif" font-size="10.00" fill="#000000">amr&#45;wind/incflo_enums.H</text>
</a>
</g>
</g>
<!-- Node23&#45;&gt;Node27 -->
<g id="edge38" class="edge">
<title>Node23&#45;&gt;Node27</title>
<path fill="none" stroke="#191970" d="M946.4883,-117.9581C902.3477,-107.1857 830.4648,-89.6428 782.6062,-77.9631"/>
<polygon fill="#191970" stroke="#191970" points="783.3217,-74.535 772.777,-75.5643 781.662,-81.3355 783.3217,-74.535"/>
</g>
<!-- Node28 -->
<g id="node29" class="node">
<title>Node28</title>
<g id="a_node29"><a xlink:href="_view_field_8_h.html" target="_top" xlink:title="amr&#45;wind/core/ViewField.H">
<polygon fill="#ffffff" stroke="#000000" points="1187.5868,-56.5 1187.5868,-75.5 1321.5868,-75.5 1321.5868,-56.5 1187.5868,-56.5"/>
<text text-anchor="middle" x="1254.5868" y="-63.5" font-family="Helvetica,sans-Serif" font-size="10.00" fill="#000000">amr&#45;wind/core/ViewField.H</text>
</a>
</g>
</g>
<!-- Node23&#45;&gt;Node28 -->
<g id="edge40" class="edge">
<title>Node23&#45;&gt;Node28</title>
<path fill="none" stroke="#191970" d="M1027.3229,-117.9581C1074.6383,-107.1406 1151.816,-89.4959 1202.9004,-77.8168"/>
<polygon fill="#191970" stroke="#191970" points="1203.7844,-81.2051 1212.7528,-75.5643 1202.2242,-74.3811 1203.7844,-81.2051"/>
</g>
<!-- Node28&#45;&gt;Node2 -->
<g id="edge41" class="edge">
<title>Node28&#45;&gt;Node2</title>
<path fill="none" stroke="#191970" d="M1280.7165,-56.3733C1307.1755,-46.6252 1348.0728,-31.5578 1376.0201,-21.2614"/>
<polygon fill="#191970" stroke="#191970" points="1377.5064,-24.4439 1385.6798,-17.7026 1375.0864,-17.8755 1377.5064,-24.4439"/>
</g>
<!-- Node28&#45;&gt;Node11 -->
<g id="edge44" class="edge">
<title>Node28&#45;&gt;Node11</title>
<path fill="none" stroke="#191970" d="M1254.5868,-56.2455C1254.5868,-48.9382 1254.5868,-38.6944 1254.5868,-29.7046"/>
<polygon fill="#191970" stroke="#191970" points="1258.0869,-29.6426 1254.5868,-19.6427 1251.0869,-29.6427 1258.0869,-29.6426"/>
</g>
<!-- Node28&#45;&gt;Node19 -->
<g id="edge42" class="edge">
<title>Node28&#45;&gt;Node19</title>
<path fill="none" stroke="#191970" d="M1321.6876,-59.1052C1418.6681,-49.1403 1598.3306,-30.6795 1707.6029,-19.4516"/>
<polygon fill="#191970" stroke="#191970" points="1708.0366,-22.9255 1717.6264,-18.4216 1707.321,-15.9622 1708.0366,-22.9255"/>
</g>
<!-- Node28&#45;&gt;Node21 -->
<g id="edge43" class="edge">
<title>Node28&#45;&gt;Node21</title>
<path fill="none" stroke="#191970" d="M1207.7958,-56.4369C1160.6073,-46.7925 1087.7148,-31.8948 1037.2744,-21.5858"/>
<polygon fill="#191970" stroke="#191970" points="1037.6831,-18.097 1027.1847,-19.5237 1036.2813,-24.9553 1037.6831,-18.097"/>
</g>
<!-- Node29&#45;&gt;Node2 -->
<g id="edge46" class="edge">
<title>Node29&#45;&gt;Node2</title>
<path fill="none" stroke="#191970" d="M1813.6907,-117.9115C1800.0223,-102.052 1770.2627,-70.6564 1737.5868,-56 1684.0882,-32.0039 1508.7287,-17.2242 1437.2882,-12.0662"/>
<polygon fill="#191970" stroke="#191970" points="1437.3604,-8.5626 1427.1382,-11.3479 1436.8662,-15.5451 1437.3604,-8.5626"/>
</g>
<!-- Node29&#45;&gt;Node19 -->
<g id="edge47" class="edge">
<title>Node29&#45;&gt;Node19</title>
<path fill="none" stroke="#191970" d="M1821.0623,-117.6962C1820.1917,-103.8364 1818.0786,-77.7749 1813.5868,-56 1811.7574,-47.132 1808.9649,-37.5206 1806.3539,-29.3878"/>
<polygon fill="#191970" stroke="#191970" points="1809.6159,-28.1067 1803.1222,-19.7352 1802.9781,-30.329 1809.6159,-28.1067"/>
</g>
<!-- Node29&#45;&gt;Node30 -->
<g id="edge48" class="edge">
<title>Node29&#45;&gt;Node30</title>
<path fill="none" stroke="#191970" d="M1836.8993,-117.8906C1852.6492,-108.0067 1877.3991,-92.4749 1895.7205,-80.9773"/>
<polygon fill="#191970" stroke="#191970" points="1897.772,-83.8221 1904.3818,-75.5419 1894.0511,-77.8929 1897.772,-83.8221"/>
</g>
<!-- Node31&#45;&gt;Node2 -->
<g id="edge50" class="edge">
<title>Node31&#45;&gt;Node2</title>
<path fill="none" stroke="#191970" d="M1553.647,-117.829C1537.4644,-103.6821 1505.9929,-76.7724 1477.5868,-56 1462.5125,-44.9767 1444.8976,-33.5559 1430.9844,-24.8517"/>
<polygon fill="#191970" stroke="#191970" points="1432.7835,-21.8491 1422.4399,-19.5556 1429.0957,-27.7989 1432.7835,-21.8491"/>
</g>
<!-- Node31&#45;&gt;Node11 -->
<g id="edge54" class="edge">
<title>Node31&#45;&gt;Node11</title>
<path fill="none" stroke="#191970" d="M1539.4808,-117.984C1484.3417,-97.0845 1352.5631,-47.1362 1289.4454,-23.2125"/>
<polygon fill="#191970" stroke="#191970" points="1290.5185,-19.8763 1279.9271,-19.6048 1288.0374,-26.4219 1290.5185,-19.8763"/>
</g>
<!-- Node31&#45;&gt;Node19 -->
<g id="edge51" class="edge">
<title>Node31&#45;&gt;Node19</title>
<path fill="none" stroke="#191970" d="M1583.8178,-117.8845C1625.2332,-97.1768 1723.0167,-48.285 1771.4272,-24.0798"/>
<polygon fill="#191970" stroke="#191970" points="1773.0406,-27.1863 1780.4196,-19.5836 1769.91,-20.9253 1773.0406,-27.1863"/>
</g>
<!-- Node31&#45;&gt;Node21 -->
<g id="edge53" class="edge">
<title>Node31&#45;&gt;Node21</title>
<path fill="none" stroke="#191970" d="M1491.2612,-120.8094C1396.0025,-111.5842 1235.1913,-94.042 1178.5868,-76 1160.4029,-70.2041 1158.2949,-63.1183 1140.5868,-56 1105.378,-41.8467 1064.1999,-30.1116 1032.4359,-22.037"/>
<polygon fill="#191970" stroke="#191970" points="1033.0237,-18.5763 1022.4733,-19.5456 1031.3254,-25.3671 1033.0237,-18.5763"/>
</g>
<!-- Node31&#45;&gt;Node28 -->
<g id="edge52" class="edge">
<title>Node31&#45;&gt;Node28</title>
<path fill="none" stroke="#191970" d="M1516.4894,-117.9581C1461.4276,-107.0345 1371.2736,-89.1492 1312.4277,-77.4749"/>
<polygon fill="#191970" stroke="#191970" points="1313.0319,-74.0266 1302.5419,-75.5137 1311.6696,-80.8928 1313.0319,-74.0266"/>
</g>
<!-- Node32 -->
<g id="node33" class="node">
<title>Node32</title>
<polygon fill="#ffffff" stroke="#bfbfbf" points="1529.5868,-56.5 1529.5868,-75.5 1657.5868,-75.5 1657.5868,-56.5 1529.5868,-56.5"/>
<text text-anchor="middle" x="1593.5868" y="-63.5" font-family="Helvetica,sans-Serif" font-size="10.00" fill="#000000">AMReX_PhysBCFunct.H</text>
</g>
<!-- Node31&#45;&gt;Node32 -->
<g id="edge55" class="edge">
<title>Node31&#45;&gt;Node32</title>
<path fill="none" stroke="#191970" d="M1569.118,-117.8906C1573.2649,-109.0965 1579.52,-95.8312 1584.6677,-84.9145"/>
<polygon fill="#191970" stroke="#191970" points="1587.8922,-86.2825 1588.9916,-75.7449 1581.5608,-83.2969 1587.8922,-86.2825"/>
</g>
<!-- Node33&#45;&gt;Node2 -->
<g id="edge60" class="edge">
<title>Node33&#45;&gt;Node2</title>
<path fill="none" stroke="#191970" d="M801.1975,-188.1611C944.8282,-174.0054 1268.2415,-136.2506 1359.5868,-76 1377.1179,-64.4366 1390.1863,-43.9132 1398.0347,-28.8134"/>
<polygon fill="#191970" stroke="#191970" points="1401.1825,-30.3434 1402.4328,-19.8225 1394.8945,-27.2674 1401.1825,-30.3434"/>
</g>
<!-- Node33&#45;&gt;Node5 -->
<g id="edge61" class="edge">
<title>Node33&#45;&gt;Node5</title>
<path fill="none" stroke="#191970" d="M661.8021,-186.4904C577.3823,-176.7024 430.9756,-159.4119 305.5868,-143 293.4401,-141.4101 280.549,-139.655 268.0307,-137.9144"/>
<polygon fill="#191970" stroke="#191970" points="268.4808,-134.4434 258.0925,-136.5251 267.5116,-141.376 268.4808,-134.4434"/>
</g>
<!-- Node33&#45;&gt;Node10 -->
<g id="edge62" class="edge">
<title>Node33&#45;&gt;Node10</title>
<path fill="none" stroke="#191970" d="M680.868,-179.4639C640.6081,-167.5284 585.0092,-151.0456 547.3049,-139.8678"/>
<polygon fill="#191970" stroke="#191970" points="548.2318,-136.492 537.6494,-137.0053 546.2421,-143.2033 548.2318,-136.492"/>
</g>
<!-- Node33&#45;&gt;Node19 -->
<g id="edge65" class="edge">
<title>Node33&#45;&gt;Node19</title>
<path fill="none" stroke="#191970" d="M801.387,-193.1695C1001.712,-188.9885 1569.1071,-174.478 1646.5868,-143 1708.0196,-118.0415 1761.8973,-57.7841 1786.0672,-27.702"/>
<polygon fill="#191970" stroke="#191970" points="1788.9004,-29.7613 1792.335,-19.7386 1783.3998,-25.4319 1788.9004,-29.7613"/>
</g>
<!-- Node33&#45;&gt;Node27 -->
<g id="edge66" class="edge">
<title>Node33&#45;&gt;Node27</title>
<path fill="none" stroke="#191970" d="M732.7128,-179.1866C733.4079,-168.9489 734.2325,-155.1752 734.5868,-143 734.9876,-129.2281 734.7365,-125.777 734.5868,-112 734.4925,-103.3235 734.2982,-93.7282 734.1057,-85.5559"/>
<polygon fill="#191970" stroke="#191970" points="737.6035,-85.4229 733.8539,-75.5138 730.6057,-85.5984 737.6035,-85.4229"/>
</g>
<!-- Node34 -->
<g id="node35" class="node">
<title>Node34</title>
<g id="a_node35"><a xlink:href="_p_d_e_fields_8_h.html" target="_top" xlink:title="amr&#45;wind/equation_systems\l/PDEFields.H">
<polygon fill="#ffffff" stroke="#000000" points="586.0868,-112.5 586.0868,-142.5 725.0868,-142.5 725.0868,-112.5 586.0868,-112.5"/>
<text text-anchor="start" x="594.0868" y="-130.5" font-family="Helvetica,sans-Serif" font-size="10.00" fill="#000000">amr&#45;wind/equation_systems</text>
<text text-anchor="middle" x="655.5868" y="-119.5" font-family="Helvetica,sans-Serif" font-size="10.00" fill="#000000">/PDEFields.H</text>
</a>
</g>
</g>
<!-- Node33&#45;&gt;Node34 -->
<g id="edge63" class="edge">
<title>Node33&#45;&gt;Node34</title>
<path fill="none" stroke="#191970" d="M714.3412,-179.2967C704.3326,-170.4733 691.5531,-159.2072 680.4703,-149.4368"/>
<polygon fill="#191970" stroke="#191970" points="682.5799,-146.6307 672.7641,-142.6432 677.9508,-151.8816 682.5799,-146.6307"/>
</g>
<!-- Node35 -->
<g id="node36" class="node">
<title>Node35</title>
<polygon fill="#ffffff" stroke="#bfbfbf" points="568.0868,-56.5 568.0868,-75.5 613.0868,-75.5 613.0868,-56.5 568.0868,-56.5"/>
<text text-anchor="middle" x="590.5868" y="-63.5" font-family="Helvetica,sans-Serif" font-size="10.00" fill="#000000">iosfwd</text>
</g>
<!-- Node34&#45;&gt;Node35 -->
<g id="edge64" class="edge">
<title>Node34&#45;&gt;Node35</title>
<path fill="none" stroke="#191970" d="M639.5194,-112.2977C630.1207,-103.4052 618.234,-92.1586 608.5298,-82.9769"/>
<polygon fill="#191970" stroke="#191970" points="610.6635,-80.1774 600.9941,-75.8469 605.8526,-85.2621 610.6635,-80.1774"/>
</g>
<!-- Node36&#45;&gt;Node5 -->
<g id="edge68" class="edge">
<title>Node36&#45;&gt;Node5</title>
<path fill="none" stroke="#191970" d="M352.3673,-184.9005C320.5687,-173.2584 266.8216,-153.5805 231.2693,-140.5641"/>
<polygon fill="#191970" stroke="#191970" points="232.3513,-137.2331 221.7576,-137.0817 229.9447,-143.8064 232.3513,-137.2331"/>
</g>
<!-- Node36&#45;&gt;Node10 -->
<g id="edge69" class="edge">
<title>Node36&#45;&gt;Node10</title>
<path fill="none" stroke="#191970" d="M396.7828,-184.9005C418.1906,-173.6067 453.9326,-154.7506 478.5761,-141.7497"/>
<polygon fill="#191970" stroke="#191970" points="480.213,-144.8434 487.4245,-137.0817 476.9467,-138.6522 480.213,-144.8434"/>
</g>
<!-- Node36&#45;&gt;Node21 -->
<g id="edge70" class="edge">
<title>Node36&#45;&gt;Node21</title>
<path fill="none" stroke="#191970" d="M315.0661,-189.8595C217.1646,-182.0547 38.6347,-164.9755 19.5868,-143 -5.7391,-113.7817 -7.0931,-83.9875 19.5868,-56 50.6306,-23.4346 710.3171,-13.1001 918.3346,-10.6447"/>
<polygon fill="#191970" stroke="#191970" points="918.5197,-14.1429 928.4784,-10.5271 918.4384,-7.1434 918.5197,-14.1429"/>
</g>
<!-- Node37 -->
<g id="node38" class="node">
<title>Node37</title>
<polygon fill="#ffffff" stroke="#bfbfbf" points="314.5868,-118 314.5868,-137 424.5868,-137 424.5868,-118 314.5868,-118"/>
<text text-anchor="middle" x="369.5868" y="-125" font-family="Helvetica,sans-Serif" font-size="10.00" fill="#000000">AMReX_Geometry.H</text>
</g>
<!-- Node36&#45;&gt;Node37 -->
<g id="edge71" class="edge">
<title>Node36&#45;&gt;Node37</title>
<path fill="none" stroke="#191970" d="M377.2973,-184.9005C375.9874,-175.149 373.9202,-159.7597 372.2558,-147.3695"/>
<polygon fill="#191970" stroke="#191970" points="375.6741,-146.5266 370.8739,-137.0817 368.7364,-147.4586 375.6741,-146.5266"/>
</g>
</g>
</svg>
