<?xml version="1.0" encoding="UTF-8" standalone="no"?>
<!DOCTYPE svg PUBLIC "-//W3C//DTD SVG 1.1//EN"
 "http://www.w3.org/Graphics/SVG/1.1/DTD/svg11.dtd">
<!-- Generated by graphviz version 2.40.1 (20161225.0304)
 -->
<!-- Title: DiffusionOps.H Pages: 1 -->
<!--zoomable 252 -->
<svg id="main" version="1.1" xmlns="http://www.w3.org/2000/svg" xmlns:xlink="http://www.w3.org/1999/xlink" xml:space="preserve" onload="init(evt)">
<style type="text/css"><![CDATA[
.edge:hover path { stroke: red; }
.edge:hover polygon { stroke: red; fill: red; }
]]></style>
<script type="text/javascript"><![CDATA[
var edges = document.getElementsByTagName('g');
if (edges && edges.length) {
  for (var i=0;i<edges.length;i++) {
    if (edges[i].id.substr(0,4)=='edge') {
      edges[i].setAttribute('class','edge');
    }
  }
}
]]></script>
        <defs>
                <circle id="rim" cx="0" cy="0" r="7"/>
                <circle id="rim2" cx="0" cy="0" r="3.5"/>
                <g id="zoomPlus">
                        <use xlink:href="#rim" fill="#404040">
                                <set attributeName="fill" to="#808080" begin="zoomplus.mouseover" end="zoomplus.mouseout"/>
                        </use>
                        <path d="M-4,0h8M0,-4v8" fill="none" stroke="white" stroke-width="1.5" pointer-events="none"/>
                </g>
                <g id="zoomMin">
                        <use xlink:href="#rim" fill="#404040">
                                <set attributeName="fill" to="#808080" begin="zoomminus.mouseover" end="zoomminus.mouseout"/>
                        </use>
                        <path d="M-4,0h8" fill="none" stroke="white" stroke-width="1.5" pointer-events="none"/>
                </g>
                <g id="dirArrow">
                        <path fill="none" stroke="white" stroke-width="1.5" d="M0,-3.0v7 M-2.5,-0.5L0,-3.0L2.5,-0.5"/>
                </g>
               <g id="resetDef">
                       <use xlink:href="#rim2" fill="#404040">
                               <set attributeName="fill" to="#808080" begin="reset.mouseover" end="reset.mouseout"/>
                       </use>
               </g>
        </defs>

<script type="text/javascript">
var viewWidth = 1394;
var viewHeight = 252;
var sectionId = 'dynsection-1';
</script>
<script xlink:href="svgpan.js"/>
<svg id="graph" class="graph">
<g id="viewport">
<title>DiffusionOps.H</title>
<polygon fill="#ffffff" stroke="transparent" points="-4,4 -4,-248 1389.5,-248 1389.5,4 -4,4"/>
<!-- Node54 -->
<g id="node1" class="node">
<title>Node54</title>
<polygon fill="#bfbfbf" stroke="#000000" points="1124.5,-224.5 1124.5,-243.5 1208.5,-243.5 1208.5,-224.5 1124.5,-224.5"/>
<text text-anchor="middle" x="1166.5" y="-231.5" font-family="Helvetica,sans-Serif" font-size="10.00" fill="#000000">DiffusionOps.H</text>
</g>
<!-- Node55 -->
<g id="node2" class="node">
<title>Node55</title>
<g id="a_node2"><a xlink:href="_p_d_e_8_h.html" target="_top" xlink:title="PDE.H">
<polygon fill="#ffffff" stroke="#000000" points="463.5,-168.5 463.5,-187.5 511.5,-187.5 511.5,-168.5 463.5,-168.5"/>
<text text-anchor="middle" x="487.5" y="-175.5" font-family="Helvetica,sans-Serif" font-size="10.00" fill="#000000">PDE.H</text>
</a>
</g>
</g>
<!-- Node54&#45;&gt;Node55 -->
<g id="edge1" class="edge">
<title>Node54&#45;&gt;Node55</title>
<path fill="none" stroke="#191970" d="M1114.0095,-229.6709C976.4839,-218.3286 609.5595,-188.0668 511.7443,-179.9995"/>
<polygon fill="#191970" stroke="#191970" points="1114.0282,-233.1842 1124.2821,-230.5181 1114.6036,-226.2079 1114.0282,-233.1842"/>
</g>
<!-- Node61 -->
<g id="node8" class="node">
<title>Node61</title>
<g id="a_node8"><a xlink:href="icns__ops_8_h.html" target="_top" xlink:title="icns_ops.H">
<polygon fill="#ffffff" stroke="#000000" points="1319.5,-56.5 1319.5,-75.5 1385.5,-75.5 1385.5,-56.5 1319.5,-56.5"/>
<text text-anchor="middle" x="1352.5" y="-63.5" font-family="Helvetica,sans-Serif" font-size="10.00" fill="#000000">icns_ops.H</text>
</a>
</g>
</g>
<!-- Node54&#45;&gt;Node61 -->
<g id="edge36" class="edge">
<title>Node54&#45;&gt;Node61</title>
<path fill="none" stroke="#191970" d="M1174.6511,-214.968C1181.2941,-200.927 1191.6621,-181.9227 1204.5,-168 1243.4231,-125.7879 1302.8513,-91.5624 1333.2007,-75.6495"/>
<polygon fill="#191970" stroke="#191970" points="1171.4207,-213.6172 1170.4902,-224.1711 1177.7991,-216.501 1171.4207,-213.6172"/>
</g>
<!-- Node64 -->
<g id="node11" class="node">
<title>Node64</title>
<g id="a_node11"><a xlink:href="icns__diffusion_8_h.html" target="_top" xlink:title="icns_diffusion.H">
<polygon fill="#ffffff" stroke="#000000" points="1104,-56.5 1104,-75.5 1191,-75.5 1191,-56.5 1104,-56.5"/>
<text text-anchor="middle" x="1147.5" y="-63.5" font-family="Helvetica,sans-Serif" font-size="10.00" fill="#000000">icns_diffusion.H</text>
</a>
</g>
</g>
<!-- Node54&#45;&gt;Node64 -->
<g id="edge37" class="edge">
<title>Node54&#45;&gt;Node64</title>
<path fill="none" stroke="#191970" d="M1164.2675,-214.2601C1160.1855,-178.1669 1151.658,-102.7656 1148.6115,-75.8279"/>
<polygon fill="#191970" stroke="#191970" points="1160.8223,-214.9429 1165.424,-224.4862 1167.778,-214.1562 1160.8223,-214.9429"/>
</g>
<!-- Node81 -->
<g id="node28" class="node">
<title>Node81</title>
<g id="a_node28"><a xlink:href="_diffusion_ops_8cpp.html" target="_top" xlink:title="DiffusionOps.cpp">
<polygon fill="#ffffff" stroke="#000000" points="1213.5,-168.5 1213.5,-187.5 1305.5,-187.5 1305.5,-168.5 1213.5,-168.5"/>
<text text-anchor="middle" x="1259.5" y="-175.5" font-family="Helvetica,sans-Serif" font-size="10.00" fill="#000000">DiffusionOps.cpp</text>
</a>
</g>
</g>
<!-- Node54&#45;&gt;Node81 -->
<g id="edge35" class="edge">
<title>Node54&#45;&gt;Node81</title>
<path fill="none" stroke="#191970" d="M1191.3335,-219.0465C1207.8811,-209.0824 1229.1432,-196.2794 1243.4863,-187.6427"/>
<polygon fill="#191970" stroke="#191970" points="1189.4607,-216.0886 1182.6994,-224.2455 1193.0717,-222.0854 1189.4607,-216.0886"/>
</g>
<!-- Node56 -->
<g id="node3" class="node">
<title>Node56</title>
<g id="a_node3"><a xlink:href="density_8_h.html" target="_top" xlink:title="density.H">
<polygon fill="#ffffff" stroke="#000000" points="693,-112.5 693,-131.5 752,-131.5 752,-112.5 693,-112.5"/>
<text text-anchor="middle" x="722.5" y="-119.5" font-family="Helvetica,sans-Serif" font-size="10.00" fill="#000000">density.H</text>
</a>
</g>
</g>
<!-- Node55&#45;&gt;Node56 -->
<g id="edge2" class="edge">
<title>Node55&#45;&gt;Node56</title>
<path fill="none" stroke="#191970" d="M521.587,-169.8771C567.6966,-158.8893 649.1889,-139.4699 692.8747,-129.0596"/>
<polygon fill="#191970" stroke="#191970" points="520.6803,-166.4951 511.764,-172.2179 522.303,-173.3045 520.6803,-166.4951"/>
</g>
<!-- Node59 -->
<g id="node6" class="node">
<title>Node59</title>
<g id="a_node6"><a xlink:href="icns_8_h.html" target="_top" xlink:title="icns.H">
<polygon fill="#ffffff" stroke="#000000" points="1009,-112.5 1009,-131.5 1054,-131.5 1054,-112.5 1009,-112.5"/>
<text text-anchor="middle" x="1031.5" y="-119.5" font-family="Helvetica,sans-Serif" font-size="10.00" fill="#000000">icns.H</text>
</a>
</g>
</g>
<!-- Node55&#45;&gt;Node59 -->
<g id="edge6" class="edge">
<title>Node55&#45;&gt;Node59</title>
<path fill="none" stroke="#191970" d="M521.6366,-174.4859C623.5854,-163.9912 924.0044,-133.0657 1008.9142,-124.325"/>
<polygon fill="#191970" stroke="#191970" points="521.1659,-171.0158 511.5769,-175.5215 521.8828,-177.979 521.1659,-171.0158"/>
</g>
<!-- Node67 -->
<g id="node14" class="node">
<title>Node67</title>
<g id="a_node14"><a xlink:href="levelset_8_h.html" target="_top" xlink:title="levelset.H">
<polygon fill="#ffffff" stroke="#000000" points="38,-112.5 38,-131.5 99,-131.5 99,-112.5 38,-112.5"/>
<text text-anchor="middle" x="68.5" y="-119.5" font-family="Helvetica,sans-Serif" font-size="10.00" fill="#000000">levelset.H</text>
</a>
</g>
</g>
<!-- Node55&#45;&gt;Node67 -->
<g id="edge18" class="edge">
<title>Node55&#45;&gt;Node67</title>
<path fill="none" stroke="#191970" d="M453.4502,-173.4492C373.5967,-162.7766 175.2784,-136.2711 99.0351,-126.0811"/>
<polygon fill="#191970" stroke="#191970" points="453.0923,-176.9324 463.4678,-174.7881 454.0196,-169.9941 453.0923,-176.9324"/>
</g>
<!-- Node70 -->
<g id="node17" class="node">
<title>Node70</title>
<g id="a_node17"><a xlink:href="_s_d_r_8_h.html" target="_top" xlink:title="SDR.H">
<polygon fill="#ffffff" stroke="#000000" points="189,-112.5 189,-131.5 238,-131.5 238,-112.5 189,-112.5"/>
<text text-anchor="middle" x="213.5" y="-119.5" font-family="Helvetica,sans-Serif" font-size="10.00" fill="#000000">SDR.H</text>
</a>
</g>
</g>
<!-- Node55&#45;&gt;Node70 -->
<g id="edge22" class="edge">
<title>Node55&#45;&gt;Node70</title>
<path fill="none" stroke="#191970" d="M453.3831,-171.0272C397.3759,-159.5805 287.2638,-137.0758 238.1551,-127.039"/>
<polygon fill="#191970" stroke="#191970" points="452.686,-174.457 463.1843,-173.0304 454.0877,-167.5988 452.686,-174.457"/>
</g>
<!-- Node72 -->
<g id="node19" class="node">
<title>Node72</title>
<g id="a_node19"><a xlink:href="temperature_8_h.html" target="_top" xlink:title="temperature.H">
<polygon fill="#ffffff" stroke="#000000" points="297,-112.5 297,-131.5 376,-131.5 376,-112.5 297,-112.5"/>
<text text-anchor="middle" x="336.5" y="-119.5" font-family="Helvetica,sans-Serif" font-size="10.00" fill="#000000">temperature.H</text>
</a>
</g>
</g>
<!-- Node55&#45;&gt;Node72 -->
<g id="edge24" class="edge">
<title>Node55&#45;&gt;Node72</title>
<path fill="none" stroke="#191970" d="M453.5778,-165.4196C425.9024,-155.1559 387.3958,-140.8752 362.2167,-131.5373"/>
<polygon fill="#191970" stroke="#191970" points="452.6462,-168.807 463.2392,-169.0026 455.0803,-162.2438 452.6462,-168.807"/>
</g>
<!-- Node74 -->
<g id="node21" class="node">
<title>Node74</title>
<g id="a_node21"><a xlink:href="_t_k_e_8_h.html" target="_top" xlink:title="TKE.H">
<polygon fill="#ffffff" stroke="#000000" points="553,-112.5 553,-131.5 600,-131.5 600,-112.5 553,-112.5"/>
<text text-anchor="middle" x="576.5" y="-119.5" font-family="Helvetica,sans-Serif" font-size="10.00" fill="#000000">TKE.H</text>
</a>
</g>
</g>
<!-- Node55&#45;&gt;Node74 -->
<g id="edge26" class="edge">
<title>Node55&#45;&gt;Node74</title>
<path fill="none" stroke="#191970" d="M511.7064,-162.769C527.4775,-152.8456 547.576,-140.1994 561.175,-131.6427"/>
<polygon fill="#191970" stroke="#191970" points="509.6026,-159.9575 503.0026,-168.2455 513.3305,-165.8823 509.6026,-159.9575"/>
</g>
<!-- Node77 -->
<g id="node24" class="node">
<title>Node77</title>
<g id="a_node24"><a xlink:href="vof_8_h.html" target="_top" xlink:title="vof.H">
<polygon fill="#ffffff" stroke="#000000" points="414,-112.5 414,-131.5 455,-131.5 455,-112.5 414,-112.5"/>
<text text-anchor="middle" x="434.5" y="-119.5" font-family="Helvetica,sans-Serif" font-size="10.00" fill="#000000">vof.H</text>
</a>
</g>
</g>
<!-- Node55&#45;&gt;Node77 -->
<g id="edge29" class="edge">
<title>Node55&#45;&gt;Node77</title>
<path fill="none" stroke="#191970" d="M471.2104,-160.7884C462.1438,-151.2085 451.1946,-139.6396 443.6261,-131.6427"/>
<polygon fill="#191970" stroke="#191970" points="468.8522,-163.3884 478.2681,-168.2455 473.9363,-158.5767 468.8522,-163.3884"/>
</g>
<!-- Node57 -->
<g id="node4" class="node">
<title>Node57</title>
<g id="a_node4"><a xlink:href="density_8cpp.html" target="_top" xlink:title="density.cpp">
<polygon fill="#ffffff" stroke="#000000" points="723,-.5 723,-19.5 790,-19.5 790,-.5 723,-.5"/>
<text text-anchor="middle" x="756.5" y="-7.5" font-family="Helvetica,sans-Serif" font-size="10.00" fill="#000000">density.cpp</text>
</a>
</g>
</g>
<!-- Node56&#45;&gt;Node57 -->
<g id="edge3" class="edge">
<title>Node56&#45;&gt;Node57</title>
<path fill="none" stroke="#191970" d="M727.9796,-102.2906C731.6822,-89.1445 736.7447,-71.4955 741.5,-56 745.3444,-43.4726 750.0735,-29.1315 753.1815,-19.8389"/>
<polygon fill="#191970" stroke="#191970" points="724.5511,-101.5549 725.2259,-112.1282 731.292,-103.4419 724.5511,-101.5549"/>
</g>
<!-- Node58 -->
<g id="node5" class="node">
<title>Node58</title>
<g id="a_node5"><a xlink:href="density__ops_8_h.html" target="_top" xlink:title="density_ops.H">
<polygon fill="#ffffff" stroke="#000000" points="750.5,-56.5 750.5,-75.5 830.5,-75.5 830.5,-56.5 750.5,-56.5"/>
<text text-anchor="middle" x="790.5" y="-63.5" font-family="Helvetica,sans-Serif" font-size="10.00" fill="#000000">density_ops.H</text>
</a>
</g>
</g>
<!-- Node56&#45;&gt;Node58 -->
<g id="edge4" class="edge">
<title>Node56&#45;&gt;Node58</title>
<path fill="none" stroke="#191970" d="M742.3596,-105.645C754.1858,-95.9058 768.7892,-83.8795 778.791,-75.6427"/>
<polygon fill="#191970" stroke="#191970" points="739.839,-103.1867 734.3447,-112.2455 744.289,-108.5902 739.839,-103.1867"/>
</g>
<!-- Node58&#45;&gt;Node57 -->
<g id="edge5" class="edge">
<title>Node58&#45;&gt;Node57</title>
<path fill="none" stroke="#191970" d="M779.3465,-47.6296C773.6753,-38.2887 767.0155,-27.3197 762.3545,-19.6427"/>
<polygon fill="#191970" stroke="#191970" points="776.3961,-49.5141 784.5777,-56.2455 782.3796,-45.8812 776.3961,-49.5141"/>
</g>
<!-- Node60 -->
<g id="node7" class="node">
<title>Node60</title>
<g id="a_node7"><a xlink:href="icns_8cpp.html" target="_top" xlink:title="icns.cpp">
<polygon fill="#ffffff" stroke="#000000" points="1121,-.5 1121,-19.5 1174,-19.5 1174,-.5 1121,-.5"/>
<text text-anchor="middle" x="1147.5" y="-7.5" font-family="Helvetica,sans-Serif" font-size="10.00" fill="#000000">icns.cpp</text>
</a>
</g>
</g>
<!-- Node59&#45;&gt;Node60 -->
<g id="edge7" class="edge">
<title>Node59&#45;&gt;Node60</title>
<path fill="none" stroke="#191970" d="M1001.3798,-107.5532C978.67,-94.6862 953.7599,-75.007 968.5,-56 987.0816,-32.0394 1075.7919,-18.3854 1120.9534,-12.8796"/>
<polygon fill="#191970" stroke="#191970" points="999.7442,-110.6475 1010.2094,-112.2996 1003.0586,-104.4819 999.7442,-110.6475"/>
</g>
<!-- Node59&#45;&gt;Node61 -->
<g id="edge8" class="edge">
<title>Node59&#45;&gt;Node61</title>
<path fill="none" stroke="#191970" d="M1064.0223,-117.3966C1116.2101,-109.8395 1221.8011,-93.8485 1310.5,-76 1313.2923,-75.4381 1316.1811,-74.8227 1319.0761,-74.182"/>
<polygon fill="#191970" stroke="#191970" points="1063.4189,-113.9473 1054.0195,-118.8363 1064.4161,-120.8759 1063.4189,-113.9473"/>
</g>
<!-- Node62 -->
<g id="node9" class="node">
<title>Node62</title>
<g id="a_node9"><a xlink:href="icns__advection_8_h.html" target="_top" xlink:title="icns_advection.H">
<polygon fill="#ffffff" stroke="#000000" points="1209.5,-56.5 1209.5,-75.5 1301.5,-75.5 1301.5,-56.5 1209.5,-56.5"/>
<text text-anchor="middle" x="1255.5" y="-63.5" font-family="Helvetica,sans-Serif" font-size="10.00" fill="#000000">icns_advection.H</text>
</a>
</g>
</g>
<!-- Node59&#45;&gt;Node62 -->
<g id="edge10" class="edge">
<title>Node59&#45;&gt;Node62</title>
<path fill="none" stroke="#191970" d="M1064.1564,-113.8359C1104.8843,-103.6539 1174.3878,-86.278 1217.4727,-75.5068"/>
<polygon fill="#191970" stroke="#191970" points="1063.0636,-110.5013 1054.211,-116.3222 1064.7614,-117.2923 1063.0636,-110.5013"/>
</g>
<!-- Node59&#45;&gt;Node64 -->
<g id="edge13" class="edge">
<title>Node59&#45;&gt;Node64</title>
<path fill="none" stroke="#191970" d="M1060.5537,-107.9741C1081.5565,-97.8348 1109.3691,-84.408 1127.8191,-75.5011"/>
<polygon fill="#191970" stroke="#191970" points="1058.925,-104.8738 1051.4411,-112.3733 1061.9683,-111.1776 1058.925,-104.8738"/>
</g>
<!-- Node65 -->
<g id="node12" class="node">
<title>Node65</title>
<g id="a_node12"><a xlink:href="icns__bcop_8_h.html" target="_top" xlink:title="icns_bcop.H">
<polygon fill="#ffffff" stroke="#000000" points="849,-56.5 849,-75.5 920,-75.5 920,-56.5 849,-56.5"/>
<text text-anchor="middle" x="884.5" y="-63.5" font-family="Helvetica,sans-Serif" font-size="10.00" fill="#000000">icns_bcop.H</text>
</a>
</g>
</g>
<!-- Node59&#45;&gt;Node65 -->
<g id="edge15" class="edge">
<title>Node59&#45;&gt;Node65</title>
<path fill="none" stroke="#191970" d="M999.4627,-109.7953C972.492,-99.5208 934.4514,-85.0291 909.6364,-75.5758"/>
<polygon fill="#191970" stroke="#191970" points="998.2625,-113.0834 1008.8534,-113.3727 1000.7545,-106.542 998.2625,-113.0834"/>
</g>
<!-- Node66 -->
<g id="node13" class="node">
<title>Node66</title>
<g id="a_node13"><a xlink:href="_power_law_profile_8cpp.html" target="_top" xlink:title="PowerLawProfile.cpp">
<polygon fill="#ffffff" stroke="#000000" points="977,-56.5 977,-75.5 1086,-75.5 1086,-56.5 977,-56.5"/>
<text text-anchor="middle" x="1031.5" y="-63.5" font-family="Helvetica,sans-Serif" font-size="10.00" fill="#000000">PowerLawProfile.cpp</text>
</a>
</g>
</g>
<!-- Node59&#45;&gt;Node66 -->
<g id="edge17" class="edge">
<title>Node59&#45;&gt;Node66</title>
<path fill="none" stroke="#191970" d="M1031.5,-102.1575C1031.5,-93.155 1031.5,-82.9199 1031.5,-75.6427"/>
<polygon fill="#191970" stroke="#191970" points="1028.0001,-102.2455 1031.5,-112.2455 1035.0001,-102.2456 1028.0001,-102.2455"/>
</g>
<!-- Node61&#45;&gt;Node60 -->
<g id="edge9" class="edge">
<title>Node61&#45;&gt;Node60</title>
<path fill="none" stroke="#191970" d="M1309.4075,-54.2284C1268.5035,-43.0546 1208.3234,-26.6152 1174.0236,-17.2455"/>
<polygon fill="#191970" stroke="#191970" points="1308.5381,-57.6191 1319.107,-56.878 1310.3827,-50.8665 1308.5381,-57.6191"/>
</g>
<!-- Node62&#45;&gt;Node60 -->
<g id="edge11" class="edge">
<title>Node62&#45;&gt;Node60</title>
<path fill="none" stroke="#191970" d="M1227.7229,-51.5971C1208.3618,-41.558 1183.0615,-28.4393 1166.0966,-19.6427"/>
<polygon fill="#191970" stroke="#191970" points="1226.1992,-54.7495 1236.6878,-56.2455 1229.4214,-48.5352 1226.1992,-54.7495"/>
</g>
<!-- Node63 -->
<g id="node10" class="node">
<title>Node63</title>
<g id="a_node10"><a xlink:href="icns__advection_8cpp.html" target="_top" xlink:title="icns_advection.cpp">
<polygon fill="#ffffff" stroke="#000000" points="1205,-.5 1205,-19.5 1306,-19.5 1306,-.5 1205,-.5"/>
<text text-anchor="middle" x="1255.5" y="-7.5" font-family="Helvetica,sans-Serif" font-size="10.00" fill="#000000">icns_advection.cpp</text>
</a>
</g>
</g>
<!-- Node62&#45;&gt;Node63 -->
<g id="edge12" class="edge">
<title>Node62&#45;&gt;Node63</title>
<path fill="none" stroke="#191970" d="M1255.5,-46.1575C1255.5,-37.155 1255.5,-26.9199 1255.5,-19.6427"/>
<polygon fill="#191970" stroke="#191970" points="1252.0001,-46.2455 1255.5,-56.2455 1259.0001,-46.2456 1252.0001,-46.2455"/>
</g>
<!-- Node64&#45;&gt;Node60 -->
<g id="edge14" class="edge">
<title>Node64&#45;&gt;Node60</title>
<path fill="none" stroke="#191970" d="M1147.5,-46.1575C1147.5,-37.155 1147.5,-26.9199 1147.5,-19.6427"/>
<polygon fill="#191970" stroke="#191970" points="1144.0001,-46.2455 1147.5,-56.2455 1151.0001,-46.2456 1144.0001,-46.2455"/>
</g>
<!-- Node65&#45;&gt;Node60 -->
<g id="edge16" class="edge">
<title>Node65&#45;&gt;Node60</title>
<path fill="none" stroke="#191970" d="M930.1053,-56.2894C985.2596,-44.5455 1076.2524,-25.1706 1120.9905,-15.6446"/>
<polygon fill="#191970" stroke="#191970" points="929.2949,-52.8834 920.2431,-58.3893 930.7527,-59.7299 929.2949,-52.8834"/>
</g>
<!-- Node68 -->
<g id="node15" class="node">
<title>Node68</title>
<g id="a_node15"><a xlink:href="levelset_8cpp.html" target="_top" xlink:title="levelset.cpp">
<polygon fill="#ffffff" stroke="#000000" points="0,-.5 0,-19.5 69,-19.5 69,-.5 0,-.5"/>
<text text-anchor="middle" x="34.5" y="-7.5" font-family="Helvetica,sans-Serif" font-size="10.00" fill="#000000">levelset.cpp</text>
</a>
</g>
</g>
<!-- Node67&#45;&gt;Node68 -->
<g id="edge19" class="edge">
<title>Node67&#45;&gt;Node68</title>
<path fill="none" stroke="#191970" d="M44.0076,-106.2969C34.1339,-98.5062 23.8323,-88.1513 18.5,-76 10.1616,-56.9982 20.851,-32.9286 28.3462,-19.7407"/>
<polygon fill="#191970" stroke="#191970" points="41.9491,-109.1277 52.0823,-112.2212 46.09,-103.4838 41.9491,-109.1277"/>
</g>
<!-- Node69 -->
<g id="node16" class="node">
<title>Node69</title>
<g id="a_node16"><a xlink:href="levelset__ops_8_h.html" target="_top" xlink:title="levelset_ops.H">
<polygon fill="#ffffff" stroke="#000000" points="27.5,-56.5 27.5,-75.5 109.5,-75.5 109.5,-56.5 27.5,-56.5"/>
<text text-anchor="middle" x="68.5" y="-63.5" font-family="Helvetica,sans-Serif" font-size="10.00" fill="#000000">levelset_ops.H</text>
</a>
</g>
</g>
<!-- Node67&#45;&gt;Node69 -->
<g id="edge20" class="edge">
<title>Node67&#45;&gt;Node69</title>
<path fill="none" stroke="#191970" d="M68.5,-102.1575C68.5,-93.155 68.5,-82.9199 68.5,-75.6427"/>
<polygon fill="#191970" stroke="#191970" points="65.0001,-102.2455 68.5,-112.2455 72.0001,-102.2456 65.0001,-102.2455"/>
</g>
<!-- Node69&#45;&gt;Node68 -->
<g id="edge21" class="edge">
<title>Node69&#45;&gt;Node68</title>
<path fill="none" stroke="#191970" d="M57.3465,-47.6296C51.6753,-38.2887 45.0155,-27.3197 40.3545,-19.6427"/>
<polygon fill="#191970" stroke="#191970" points="54.3961,-49.5141 62.5777,-56.2455 60.3796,-45.8812 54.3961,-49.5141"/>
</g>
<!-- Node71 -->
<g id="node18" class="node">
<title>Node71</title>
<g id="a_node18"><a xlink:href="_s_d_r_8cpp.html" target="_top" xlink:title="SDR.cpp">
<polygon fill="#ffffff" stroke="#000000" points="128,-56.5 128,-75.5 185,-75.5 185,-56.5 128,-56.5"/>
<text text-anchor="middle" x="156.5" y="-63.5" font-family="Helvetica,sans-Serif" font-size="10.00" fill="#000000">SDR.cpp</text>
</a>
</g>
</g>
<!-- Node70&#45;&gt;Node71 -->
<g id="edge23" class="edge">
<title>Node70&#45;&gt;Node71</title>
<path fill="none" stroke="#191970" d="M196.2729,-105.0751C186.4659,-95.4402 174.536,-83.7196 166.3149,-75.6427"/>
<polygon fill="#191970" stroke="#191970" points="193.9851,-107.734 203.5714,-112.2455 198.8909,-102.7406 193.9851,-107.734"/>
</g>
<!-- Node73 -->
<g id="node20" class="node">
<title>Node73</title>
<g id="a_node20"><a xlink:href="temperature_8cpp.html" target="_top" xlink:title="temperature.cpp">
<polygon fill="#ffffff" stroke="#000000" points="203,-56.5 203,-75.5 290,-75.5 290,-56.5 203,-56.5"/>
<text text-anchor="middle" x="246.5" y="-63.5" font-family="Helvetica,sans-Serif" font-size="10.00" fill="#000000">temperature.cpp</text>
</a>
</g>
</g>
<!-- Node72&#45;&gt;Node73 -->
<g id="edge25" class="edge">
<title>Node72&#45;&gt;Node73</title>
<path fill="none" stroke="#191970" d="M312.0216,-106.769C296.0734,-96.8456 275.749,-84.1994 261.9972,-75.6427"/>
<polygon fill="#191970" stroke="#191970" points="310.4835,-109.9342 320.8232,-112.2455 314.1817,-103.9908 310.4835,-109.9342"/>
</g>
<!-- Node75 -->
<g id="node22" class="node">
<title>Node75</title>
<g id="a_node22"><a xlink:href="_t_k_e_8cpp.html" target="_top" xlink:title="TKE.cpp">
<polygon fill="#ffffff" stroke="#000000" points="639,-56.5 639,-75.5 694,-75.5 694,-56.5 639,-56.5"/>
<text text-anchor="middle" x="666.5" y="-63.5" font-family="Helvetica,sans-Serif" font-size="10.00" fill="#000000">TKE.cpp</text>
</a>
</g>
</g>
<!-- Node74&#45;&gt;Node75 -->
<g id="edge27" class="edge">
<title>Node74&#45;&gt;Node75</title>
<path fill="none" stroke="#191970" d="M600.9784,-106.769C616.9266,-96.8456 637.251,-84.1994 651.0028,-75.6427"/>
<polygon fill="#191970" stroke="#191970" points="598.8183,-103.9908 592.1768,-112.2455 602.5165,-109.9342 598.8183,-103.9908"/>
</g>
<!-- Node76 -->
<g id="node23" class="node">
<title>Node76</title>
<g id="a_node23"><a xlink:href="_one_eq_ksgs_8cpp.html" target="_top" xlink:title="OneEqKsgs.cpp">
<polygon fill="#ffffff" stroke="#000000" points="532.5,-56.5 532.5,-75.5 620.5,-75.5 620.5,-56.5 532.5,-56.5"/>
<text text-anchor="middle" x="576.5" y="-63.5" font-family="Helvetica,sans-Serif" font-size="10.00" fill="#000000">OneEqKsgs.cpp</text>
</a>
</g>
</g>
<!-- Node74&#45;&gt;Node76 -->
<g id="edge28" class="edge">
<title>Node74&#45;&gt;Node76</title>
<path fill="none" stroke="#191970" d="M576.5,-102.1575C576.5,-93.155 576.5,-82.9199 576.5,-75.6427"/>
<polygon fill="#191970" stroke="#191970" points="573.0001,-102.2455 576.5,-112.2455 580.0001,-102.2456 573.0001,-102.2455"/>
</g>
<!-- Node78 -->
<g id="node25" class="node">
<title>Node78</title>
<g id="a_node25"><a xlink:href="vof_8cpp.html" target="_top" xlink:title="vof.cpp">
<polygon fill="#ffffff" stroke="#000000" points="374,-.5 374,-19.5 423,-19.5 423,-.5 374,-.5"/>
<text text-anchor="middle" x="398.5" y="-7.5" font-family="Helvetica,sans-Serif" font-size="10.00" fill="#000000">vof.cpp</text>
</a>
</g>
</g>
<!-- Node77&#45;&gt;Node78 -->
<g id="edge30" class="edge">
<title>Node77&#45;&gt;Node78</title>
<path fill="none" stroke="#191970" d="M427.0423,-102.7931C423.95,-94.5874 420.4124,-84.8731 417.5,-76 411.0298,-56.2875 404.5775,-32.8813 401.1078,-19.9092"/>
<polygon fill="#191970" stroke="#191970" points="423.7998,-104.1129 430.6407,-112.2032 430.3381,-101.6127 423.7998,-104.1129"/>
</g>
<!-- Node79 -->
<g id="node26" class="node">
<title>Node79</title>
<g id="a_node26"><a xlink:href="vof__advection_8_h.html" target="_top" xlink:title="vof_advection.H">
<polygon fill="#ffffff" stroke="#000000" points="426.5,-56.5 426.5,-75.5 514.5,-75.5 514.5,-56.5 426.5,-56.5"/>
<text text-anchor="middle" x="470.5" y="-63.5" font-family="Helvetica,sans-Serif" font-size="10.00" fill="#000000">vof_advection.H</text>
</a>
</g>
</g>
<!-- Node77&#45;&gt;Node79 -->
<g id="edge31" class="edge">
<title>Node77&#45;&gt;Node79</title>
<path fill="none" stroke="#191970" d="M446.3096,-103.6296C452.3144,-94.2887 459.3659,-83.3197 464.3011,-75.6427"/>
<polygon fill="#191970" stroke="#191970" points="443.2342,-101.9411 440.7707,-112.2455 449.1225,-105.7264 443.2342,-101.9411"/>
</g>
<!-- Node80 -->
<g id="node27" class="node">
<title>Node80</title>
<g id="a_node27"><a xlink:href="vof__ops_8_h.html" target="_top" xlink:title="vof_ops.H">
<polygon fill="#ffffff" stroke="#000000" points="308.5,-56.5 308.5,-75.5 370.5,-75.5 370.5,-56.5 308.5,-56.5"/>
<text text-anchor="middle" x="339.5" y="-63.5" font-family="Helvetica,sans-Serif" font-size="10.00" fill="#000000">vof_ops.H</text>
</a>
</g>
</g>
<!-- Node77&#45;&gt;Node80 -->
<g id="edge33" class="edge">
<title>Node77&#45;&gt;Node80</title>
<path fill="none" stroke="#191970" d="M409.1324,-107.0465C392.229,-97.0824 370.5096,-84.2794 355.8581,-75.6427"/>
<polygon fill="#191970" stroke="#191970" points="407.5602,-110.1825 417.9523,-112.2455 411.1149,-104.1522 407.5602,-110.1825"/>
</g>
<!-- Node79&#45;&gt;Node78 -->
<g id="edge32" class="edge">
<title>Node79&#45;&gt;Node78</title>
<path fill="none" stroke="#191970" d="M449.836,-49.928C437.2511,-40.1397 421.5908,-27.9595 410.8977,-19.6427"/>
<polygon fill="#191970" stroke="#191970" points="447.9162,-52.8688 457.9586,-56.2455 452.2138,-47.3434 447.9162,-52.8688"/>
</g>
<!-- Node80&#45;&gt;Node78 -->
<g id="edge34" class="edge">
<title>Node80&#45;&gt;Node78</title>
<path fill="none" stroke="#191970" d="M357.0307,-49.3607C367.2377,-39.6727 379.7469,-27.7995 388.3408,-19.6427"/>
<polygon fill="#191970" stroke="#191970" points="354.6206,-46.8227 349.777,-56.2455 359.4396,-51.8998 354.6206,-46.8227"/>
</g>
</g>
</svg>
        <g id="navigator" transform="translate(0 0)" fill="#404254">
                <rect fill="#f2f5e9" fill-opacity="0.5" stroke="#606060" stroke-width=".5" x="0" y="0" width="60" height="60"/>
                <use id="zoomplus" xlink:href="#zoomPlus" x="17" y="9" onmousedown="handleZoom(evt,'in')"/>
                <use id="zoomminus" xlink:href="#zoomMin" x="42" y="9" onmousedown="handleZoom(evt,'out')"/>
                <use id="reset" xlink:href="#resetDef" x="30" y="36" onmousedown="handleReset()"/>
                <g id="arrowUp" xlink:href="#dirArrow" transform="translate(30 24)" onmousedown="handlePan(0,-1)">
                  <use xlink:href="#rim" fill="#404040">
                        <set attributeName="fill" to="#808080" begin="arrowUp.mouseover" end="arrowUp.mouseout"/>
                  </use>
                  <path fill="none" stroke="white" stroke-width="1.5" d="M0,-3.0v7 M-2.5,-0.5L0,-3.0L2.5,-0.5"/>
                </g>
                <g id="arrowRight" xlink:href="#dirArrow" transform="rotate(90) translate(36 -43)" onmousedown="handlePan(1,0)">
                  <use xlink:href="#rim" fill="#404040">
                        <set attributeName="fill" to="#808080" begin="arrowRight.mouseover" end="arrowRight.mouseout"/>
                  </use>
                  <path fill="none" stroke="white" stroke-width="1.5" d="M0,-3.0v7 M-2.5,-0.5L0,-3.0L2.5,-0.5"/>
                </g>
                <g id="arrowDown" xlink:href="#dirArrow" transform="rotate(180) translate(-30 -48)" onmousedown="handlePan(0,1)">
                  <use xlink:href="#rim" fill="#404040">
                        <set attributeName="fill" to="#808080" begin="arrowDown.mouseover" end="arrowDown.mouseout"/>
                  </use>
                  <path fill="none" stroke="white" stroke-width="1.5" d="M0,-3.0v7 M-2.5,-0.5L0,-3.0L2.5,-0.5"/>
                </g>
                <g id="arrowLeft" xlink:href="#dirArrow" transform="rotate(270) translate(-36 17)" onmousedown="handlePan(-1,0)">
                  <use xlink:href="#rim" fill="#404040">
                        <set attributeName="fill" to="#808080" begin="arrowLeft.mouseover" end="arrowLeft.mouseout"/>
                  </use>
                  <path fill="none" stroke="white" stroke-width="1.5" d="M0,-3.0v7 M-2.5,-0.5L0,-3.0L2.5,-0.5"/>
                </g>
        </g>
        <svg viewBox="0 0 15 15" width="100%" height="30px" preserveAspectRatio="xMaxYMin meet">
         <g id="arrow_out" transform="scale(0.3 0.3)">
          <a xlink:href="_diffusion_ops_8_h__dep__incl_org.svg" target="_base">
           <rect id="button" ry="5" rx="5" y="6" x="6" height="38" width="38"
                fill="#f2f5e9" fill-opacity="0.5" stroke="#606060" stroke-width="1.0"/>
           <path id="arrow"
             d="M 11.500037,31.436501 C 11.940474,20.09759 22.043105,11.32322 32.158766,21.979434 L 37.068811,17.246167 C 37.068811,17.246167 37.088388,32 37.088388,32 L 22.160133,31.978069 C 22.160133,31.978069 26.997745,27.140456 26.997745,27.140456 C 18.528582,18.264221 13.291696,25.230495 11.500037,31.436501 z"
             style="fill:#404040;"/>
          </a>
         </g>
        </svg>
</svg>
