<?xml version="1.0" encoding="UTF-8" standalone="no"?>
<!DOCTYPE svg PUBLIC "-//W3C//DTD SVG 1.1//EN"
 "http://www.w3.org/Graphics/SVG/1.1/DTD/svg11.dtd">
<!-- Generated by graphviz version 2.40.1 (20161225.0304)
 -->
<!-- Title: EkmanSpiral.H Pages: 1 -->
<svg width="2877pt" height="330pt"
 viewBox="0.00 0.00 2877.00 330.00" xmlns="http://www.w3.org/2000/svg" xmlns:xlink="http://www.w3.org/1999/xlink">
<g id="graph0" class="graph" transform="scale(1 1) rotate(0) translate(4 326)">
<title>EkmanSpiral.H</title>
<polygon fill="#ffffff" stroke="transparent" points="-4,4 -4,-326 2873,-326 2873,4 -4,4"/>
<!-- Node0 -->
<g id="node1" class="node">
<title>Node0</title>
<polygon fill="#bfbfbf" stroke="#000000" points="940.5,-302.5 940.5,-321.5 1023.5,-321.5 1023.5,-302.5 940.5,-302.5"/>
<text text-anchor="middle" x="982" y="-309.5" font-family="Helvetica,sans-Serif" font-size="10.00" fill="#000000">EkmanSpiral.H</text>
</g>
<!-- Node1 -->
<g id="node2" class="node">
<title>Node1</title>
<g id="a_node2"><a xlink:href="_physics_8_h.html" target="_top" xlink:title="amr&#45;wind/core/Physics.H">
<polygon fill="#ffffff" stroke="#000000" points="442.5,-185 442.5,-204 569.5,-204 569.5,-185 442.5,-185"/>
<text text-anchor="middle" x="506" y="-192" font-family="Helvetica,sans-Serif" font-size="10.00" fill="#000000">amr&#45;wind/core/Physics.H</text>
</a>
</g>
</g>
<!-- Node0&#45;&gt;Node1 -->
<g id="edge1" class="edge">
<title>Node0&#45;&gt;Node1</title>
<path fill="none" stroke="#191970" d="M943.4501,-302.484C857.2845,-281.2141 649.2323,-229.8567 554.4727,-206.4654"/>
<polygon fill="#191970" stroke="#191970" points="555.1244,-203.0213 544.577,-204.0227 553.4468,-209.8173 555.1244,-203.0213"/>
</g>
<!-- Node13 -->
<g id="node14" class="node">
<title>Node13</title>
<g id="a_node14"><a xlink:href="_field_8_h.html" target="_top" xlink:title="amr&#45;wind/core/Field.H">
<polygon fill="#ffffff" stroke="#000000" points="925.5,-118 925.5,-137 1038.5,-137 1038.5,-118 925.5,-118"/>
<text text-anchor="middle" x="982" y="-125" font-family="Helvetica,sans-Serif" font-size="10.00" fill="#000000">amr&#45;wind/core/Field.H</text>
</a>
</g>
</g>
<!-- Node0&#45;&gt;Node13 -->
<g id="edge15" class="edge">
<title>Node0&#45;&gt;Node13</title>
<path fill="none" stroke="#191970" d="M982,-302.3402C982,-273.3223 982,-186.5088 982,-147.2113"/>
<polygon fill="#191970" stroke="#191970" points="985.5001,-147.0641 982,-137.0641 978.5001,-147.0642 985.5001,-147.0641"/>
</g>
<!-- Node20 -->
<g id="node21" class="node">
<title>Node20</title>
<g id="a_node21"><a xlink:href="_c_f_d_sim_8_h.html" target="_top" xlink:title="amr&#45;wind/CFDSim.H">
<polygon fill="#ffffff" stroke="#000000" points="1706,-246.5 1706,-265.5 1814,-265.5 1814,-246.5 1706,-246.5"/>
<text text-anchor="middle" x="1760" y="-253.5" font-family="Helvetica,sans-Serif" font-size="10.00" fill="#000000">amr&#45;wind/CFDSim.H</text>
</a>
</g>
</g>
<!-- Node0&#45;&gt;Node20 -->
<g id="edge30" class="edge">
<title>Node0&#45;&gt;Node20</title>
<path fill="none" stroke="#191970" d="M1023.5536,-309.009C1151.6031,-299.7921 1540.8211,-271.7764 1695.5633,-260.6381"/>
<polygon fill="#191970" stroke="#191970" points="1696.1296,-264.1065 1705.8525,-259.8975 1695.627,-257.1246 1696.1296,-264.1065"/>
</g>
<!-- Node2 -->
<g id="node3" class="node">
<title>Node2</title>
<g id="a_node3"><a xlink:href="_factory_8_h.html" target="_top" xlink:title="amr&#45;wind/core/Factory.H">
<polygon fill="#ffffff" stroke="#000000" points="298.5,-118 298.5,-137 423.5,-137 423.5,-118 298.5,-118"/>
<text text-anchor="middle" x="361" y="-125" font-family="Helvetica,sans-Serif" font-size="10.00" fill="#000000">amr&#45;wind/core/Factory.H</text>
</a>
</g>
</g>
<!-- Node1&#45;&gt;Node2 -->
<g id="edge2" class="edge">
<title>Node1&#45;&gt;Node2</title>
<path fill="none" stroke="#191970" d="M485.225,-184.9005C460.5677,-173.5072 419.2549,-154.4178 391.0982,-141.4075"/>
<polygon fill="#191970" stroke="#191970" points="392.2823,-138.099 381.7364,-137.0817 389.3461,-144.4535 392.2823,-138.099"/>
</g>
<!-- Node8 -->
<g id="node9" class="node">
<title>Node8</title>
<g id="a_node9"><a xlink:href="_coll_mgr_8_h.html" target="_top" xlink:title="amr&#45;wind/core/CollMgr.H">
<polygon fill="#ffffff" stroke="#000000" points="570.5,-118 570.5,-137 695.5,-137 695.5,-118 570.5,-118"/>
<text text-anchor="middle" x="633" y="-125" font-family="Helvetica,sans-Serif" font-size="10.00" fill="#000000">amr&#45;wind/core/CollMgr.H</text>
</a>
</g>
</g>
<!-- Node1&#45;&gt;Node8 -->
<g id="edge8" class="edge">
<title>Node1&#45;&gt;Node8</title>
<path fill="none" stroke="#191970" d="M524.196,-184.9005C545.6038,-173.6067 581.3458,-154.7506 605.9893,-141.7497"/>
<polygon fill="#191970" stroke="#191970" points="607.6262,-144.8434 614.8378,-137.0817 604.3599,-138.6522 607.6262,-144.8434"/>
</g>
<!-- Node11 -->
<g id="node12" class="node">
<title>Node11</title>
<polygon fill="#ffffff" stroke="#bfbfbf" points="842,-.5 842,-19.5 946,-19.5 946,-.5 842,-.5"/>
<text text-anchor="middle" x="894" y="-7.5" font-family="Helvetica,sans-Serif" font-size="10.00" fill="#000000">AMReX_MultiFab.H</text>
</g>
<!-- Node1&#45;&gt;Node11 -->
<g id="edge13" class="edge">
<title>Node1&#45;&gt;Node11</title>
<path fill="none" stroke="#191970" d="M442.116,-190.5122C319.2899,-180.6721 69.7378,-148.8785 157,-56 179.9694,-31.5523 658.1523,-16.3293 831.7386,-11.5914"/>
<polygon fill="#191970" stroke="#191970" points="831.842,-15.09 841.7437,-11.3208 831.6526,-8.0926 831.842,-15.09"/>
</g>
<!-- Node12 -->
<g id="node13" class="node">
<title>Node12</title>
<polygon fill="#ffffff" stroke="#bfbfbf" points="0,-118 0,-137 110,-137 110,-118 0,-118"/>
<text text-anchor="middle" x="55" y="-125" font-family="Helvetica,sans-Serif" font-size="10.00" fill="#000000">AMReX_Geometry.H</text>
</g>
<!-- Node1&#45;&gt;Node12 -->
<g id="edge14" class="edge">
<title>Node1&#45;&gt;Node12</title>
<path fill="none" stroke="#191970" d="M442.2003,-187.6174C366.1389,-179.0158 235.3171,-162.9677 124,-143 117.7348,-141.8762 111.1773,-140.5718 104.7029,-139.2062"/>
<polygon fill="#191970" stroke="#191970" points="105.1658,-135.7253 94.6512,-137.0269 103.6825,-142.5663 105.1658,-135.7253"/>
</g>
<!-- Node3 -->
<g id="node4" class="node">
<title>Node3</title>
<polygon fill="#ffffff" stroke="#bfbfbf" points="564,-56.5 564,-75.5 616,-75.5 616,-56.5 564,-56.5"/>
<text text-anchor="middle" x="590" y="-63.5" font-family="Helvetica,sans-Serif" font-size="10.00" fill="#000000">memory</text>
</g>
<!-- Node2&#45;&gt;Node3 -->
<g id="edge3" class="edge">
<title>Node2&#45;&gt;Node3</title>
<path fill="none" stroke="#191970" d="M397.3123,-117.9284C436.128,-107.6693 499.4586,-90.8517 554,-76 554.0978,-75.9734 554.1957,-75.9467 554.2938,-75.92"/>
<polygon fill="#191970" stroke="#191970" points="554.9451,-79.3707 563.6625,-73.3493 553.0927,-72.6202 554.9451,-79.3707"/>
</g>
<!-- Node4 -->
<g id="node5" class="node">
<title>Node4</title>
<polygon fill="#ffffff" stroke="#bfbfbf" points="462.5,-56.5 462.5,-75.5 545.5,-75.5 545.5,-56.5 462.5,-56.5"/>
<text text-anchor="middle" x="504" y="-63.5" font-family="Helvetica,sans-Serif" font-size="10.00" fill="#000000">unordered_map</text>
</g>
<!-- Node2&#45;&gt;Node4 -->
<g id="edge4" class="edge">
<title>Node2&#45;&gt;Node4</title>
<path fill="none" stroke="#191970" d="M383.3438,-117.8906C407.2703,-107.6005 445.4309,-91.1888 472.4216,-79.5809"/>
<polygon fill="#191970" stroke="#191970" points="474.0095,-82.708 481.8131,-75.5419 471.2439,-76.2775 474.0095,-82.708"/>
</g>
<!-- Node5 -->
<g id="node6" class="node">
<title>Node5</title>
<polygon fill="#ffffff" stroke="#bfbfbf" points="352,-56.5 352,-75.5 406,-75.5 406,-56.5 352,-56.5"/>
<text text-anchor="middle" x="379" y="-63.5" font-family="Helvetica,sans-Serif" font-size="10.00" fill="#000000">iostream</text>
</g>
<!-- Node2&#45;&gt;Node5 -->
<g id="edge5" class="edge">
<title>Node2&#45;&gt;Node5</title>
<path fill="none" stroke="#191970" d="M363.8125,-117.8906C366.3339,-109.276 370.111,-96.3708 373.2676,-85.5858"/>
<polygon fill="#191970" stroke="#191970" points="376.6979,-86.3254 376.1478,-75.7449 369.9797,-84.3591 376.6979,-86.3254"/>
</g>
<!-- Node6 -->
<g id="node7" class="node">
<title>Node6</title>
<polygon fill="#ffffff" stroke="#bfbfbf" points="166.5,-56.5 166.5,-75.5 253.5,-75.5 253.5,-56.5 166.5,-56.5"/>
<text text-anchor="middle" x="210" y="-63.5" font-family="Helvetica,sans-Serif" font-size="10.00" fill="#000000">AMReX_Print.H</text>
</g>
<!-- Node2&#45;&gt;Node6 -->
<g id="edge6" class="edge">
<title>Node2&#45;&gt;Node6</title>
<path fill="none" stroke="#191970" d="M337.4063,-117.8906C312.0304,-107.5554 271.4919,-91.0447 242.9707,-79.4284"/>
<polygon fill="#191970" stroke="#191970" points="244.0096,-76.0725 233.4281,-75.5419 241.3692,-82.5554 244.0096,-76.0725"/>
</g>
<!-- Node7 -->
<g id="node8" class="node">
<title>Node7</title>
<polygon fill="#ffffff" stroke="#bfbfbf" points="272,-56.5 272,-75.5 334,-75.5 334,-56.5 272,-56.5"/>
<text text-anchor="middle" x="303" y="-63.5" font-family="Helvetica,sans-Serif" font-size="10.00" fill="#000000">AMReX.H</text>
</g>
<!-- Node2&#45;&gt;Node7 -->
<g id="edge7" class="edge">
<title>Node2&#45;&gt;Node7</title>
<path fill="none" stroke="#191970" d="M351.9375,-117.8906C343.2207,-108.6478 329.846,-94.466 319.2804,-83.2628"/>
<polygon fill="#191970" stroke="#191970" points="321.5976,-80.6186 312.1903,-75.7449 316.505,-85.4213 321.5976,-80.6186"/>
</g>
<!-- Node8&#45;&gt;Node3 -->
<g id="edge10" class="edge">
<title>Node8&#45;&gt;Node3</title>
<path fill="none" stroke="#191970" d="M626.2813,-117.8906C620.007,-108.917 610.4777,-95.2879 602.7596,-84.2491"/>
<polygon fill="#191970" stroke="#191970" points="605.4121,-81.9348 596.8135,-75.7449 599.6753,-85.9459 605.4121,-81.9348"/>
</g>
<!-- Node8&#45;&gt;Node4 -->
<g id="edge11" class="edge">
<title>Node8&#45;&gt;Node4</title>
<path fill="none" stroke="#191970" d="M612.8438,-117.8906C591.449,-107.6908 557.438,-91.4763 533.1298,-79.8875"/>
<polygon fill="#191970" stroke="#191970" points="534.5476,-76.686 524.0147,-75.5419 531.5352,-83.0047 534.5476,-76.686"/>
</g>
<!-- Node9 -->
<g id="node10" class="node">
<title>Node9</title>
<polygon fill="#ffffff" stroke="#bfbfbf" points="1444.5,-.5 1444.5,-19.5 1485.5,-19.5 1485.5,-.5 1444.5,-.5"/>
<text text-anchor="middle" x="1465" y="-7.5" font-family="Helvetica,sans-Serif" font-size="10.00" fill="#000000">string</text>
</g>
<!-- Node8&#45;&gt;Node9 -->
<g id="edge9" class="edge">
<title>Node8&#45;&gt;Node9</title>
<path fill="none" stroke="#191970" d="M643.1023,-117.8943C660.8477,-101.7099 699.4974,-69.4579 739,-56 772.3573,-44.6357 1299.5436,-18.1147 1433.987,-11.5101"/>
<polygon fill="#191970" stroke="#191970" points="1434.558,-14.9864 1444.3747,-11.0011 1434.2154,-7.9948 1434.558,-14.9864"/>
</g>
<!-- Node10 -->
<g id="node11" class="node">
<title>Node10</title>
<polygon fill="#ffffff" stroke="#bfbfbf" points="1138.5,-.5 1138.5,-19.5 1233.5,-19.5 1233.5,-.5 1138.5,-.5"/>
<text text-anchor="middle" x="1186" y="-7.5" font-family="Helvetica,sans-Serif" font-size="10.00" fill="#000000">AMReX_Vector.H</text>
</g>
<!-- Node8&#45;&gt;Node10 -->
<g id="edge12" class="edge">
<title>Node8&#45;&gt;Node10</title>
<path fill="none" stroke="#191970" d="M634.6151,-117.9073C637.8424,-102.0416 646.6998,-70.6371 668,-56 705.2276,-30.4177 1000.8054,-16.7215 1128.0607,-11.9615"/>
<polygon fill="#191970" stroke="#191970" points="1128.5202,-15.447 1138.3845,-11.5811 1128.2624,-8.4518 1128.5202,-15.447"/>
</g>
<!-- Node13&#45;&gt;Node3 -->
<g id="edge17" class="edge">
<title>Node13&#45;&gt;Node3</title>
<path fill="none" stroke="#191970" d="M925.4185,-118.6231C843.7077,-105.8036 694.9702,-82.4685 626.4021,-71.7111"/>
<polygon fill="#191970" stroke="#191970" points="626.5299,-68.1884 616.1083,-70.0961 625.4449,-75.1038 626.5299,-68.1884"/>
</g>
<!-- Node13&#45;&gt;Node4 -->
<g id="edge18" class="edge">
<title>Node13&#45;&gt;Node4</title>
<path fill="none" stroke="#191970" d="M925.178,-121.991C845.1019,-113.9299 694.297,-97.6608 555.6636,-76.0052"/>
<polygon fill="#191970" stroke="#191970" points="556.1269,-72.5351 545.7041,-74.4367 555.0379,-79.4499 556.1269,-72.5351"/>
</g>
<!-- Node13&#45;&gt;Node9 -->
<g id="edge16" class="edge">
<title>Node13&#45;&gt;Node9</title>
<path fill="none" stroke="#191970" d="M995.0338,-117.972C1017.3378,-102.2018 1064.8042,-70.9342 1110,-56 1170.0395,-36.1609 1358.9368,-18.7965 1433.8999,-12.5079"/>
<polygon fill="#191970" stroke="#191970" points="1434.428,-15.9762 1444.1044,-11.6615 1433.8493,-9.0001 1434.428,-15.9762"/>
</g>
<!-- Node13&#45;&gt;Node11 -->
<g id="edge20" class="edge">
<title>Node13&#45;&gt;Node11</title>
<path fill="none" stroke="#191970" d="M925.3992,-123.5602C861.0775,-117.7667 762.0089,-104.3963 739,-76 709.7055,-39.8463 776.6885,-23.1386 831.5953,-15.6701"/>
<polygon fill="#191970" stroke="#191970" points="832.2058,-19.1207 841.6811,-14.3805 831.3179,-12.1772 832.2058,-19.1207"/>
</g>
<!-- Node14 -->
<g id="node15" class="node">
<title>Node14</title>
<polygon fill="#ffffff" stroke="#bfbfbf" points="748,-56.5 748,-75.5 804,-75.5 804,-56.5 748,-56.5"/>
<text text-anchor="middle" x="776" y="-63.5" font-family="Helvetica,sans-Serif" font-size="10.00" fill="#000000">algorithm</text>
</g>
<!-- Node13&#45;&gt;Node14 -->
<g id="edge19" class="edge">
<title>Node13&#45;&gt;Node14</title>
<path fill="none" stroke="#191970" d="M949.8125,-117.8906C913.1441,-106.9435 853.2683,-89.068 814.2487,-77.4189"/>
<polygon fill="#191970" stroke="#191970" points="814.9026,-73.9615 804.3192,-74.4545 812.9001,-80.669 814.9026,-73.9615"/>
</g>
<!-- Node15 -->
<g id="node16" class="node">
<title>Node15</title>
<polygon fill="#ffffff" stroke="#bfbfbf" points="822.5,-56.5 822.5,-75.5 921.5,-75.5 921.5,-56.5 822.5,-56.5"/>
<text text-anchor="middle" x="872" y="-63.5" font-family="Helvetica,sans-Serif" font-size="10.00" fill="#000000">AMReX_BCRec.H</text>
</g>
<!-- Node13&#45;&gt;Node15 -->
<g id="edge21" class="edge">
<title>Node13&#45;&gt;Node15</title>
<path fill="none" stroke="#191970" d="M964.8125,-117.8906C946.8918,-107.8713 918.5905,-92.0483 897.9477,-80.5071"/>
<polygon fill="#191970" stroke="#191970" points="899.5033,-77.367 889.0668,-75.5419 896.0872,-83.4769 899.5033,-77.367"/>
</g>
<!-- Node16 -->
<g id="node17" class="node">
<title>Node16</title>
<polygon fill="#ffffff" stroke="#bfbfbf" points="939.5,-56.5 939.5,-75.5 1024.5,-75.5 1024.5,-56.5 939.5,-56.5"/>
<text text-anchor="middle" x="982" y="-63.5" font-family="Helvetica,sans-Serif" font-size="10.00" fill="#000000">AMReX_Gpu.H</text>
</g>
<!-- Node13&#45;&gt;Node16 -->
<g id="edge22" class="edge">
<title>Node13&#45;&gt;Node16</title>
<path fill="none" stroke="#191970" d="M982,-117.8906C982,-109.3657 982,-96.6392 982,-85.9235"/>
<polygon fill="#191970" stroke="#191970" points="985.5001,-85.7448 982,-75.7449 978.5001,-85.7449 985.5001,-85.7448"/>
</g>
<!-- Node17 -->
<g id="node18" class="node">
<title>Node17</title>
<g id="a_node18"><a xlink:href="incflo__enums_8_h.html" target="_top" xlink:title="amr&#45;wind/incflo_enums.H">
<polygon fill="#ffffff" stroke="#000000" points="1309,-56.5 1309,-75.5 1437,-75.5 1437,-56.5 1309,-56.5"/>
<text text-anchor="middle" x="1373" y="-63.5" font-family="Helvetica,sans-Serif" font-size="10.00" fill="#000000">amr&#45;wind/incflo_enums.H</text>
</a>
</g>
</g>
<!-- Node13&#45;&gt;Node17 -->
<g id="edge23" class="edge">
<title>Node13&#45;&gt;Node17</title>
<path fill="none" stroke="#191970" d="M1038.8548,-118.5574C1108.6855,-107.5738 1227.1388,-88.9424 1302.6388,-77.067"/>
<polygon fill="#191970" stroke="#191970" points="1303.2054,-80.521 1312.5401,-75.5097 1302.1177,-73.606 1303.2054,-80.521"/>
</g>
<!-- Node18 -->
<g id="node19" class="node">
<title>Node18</title>
<g id="a_node19"><a xlink:href="_field_desc_types_8_h.html" target="_top" xlink:title="amr&#45;wind/core/FieldDescTypes.H">
<polygon fill="#ffffff" stroke="#000000" points="1833.5,-.5 1833.5,-19.5 1996.5,-19.5 1996.5,-.5 1833.5,-.5"/>
<text text-anchor="middle" x="1915" y="-7.5" font-family="Helvetica,sans-Serif" font-size="10.00" fill="#000000">amr&#45;wind/core/FieldDescTypes.H</text>
</a>
</g>
</g>
<!-- Node13&#45;&gt;Node18 -->
<g id="edge24" class="edge">
<title>Node13&#45;&gt;Node18</title>
<path fill="none" stroke="#191970" d="M1038.6527,-124.8595C1221.0159,-116.2493 1783.1243,-88.8075 1820,-76 1828.1457,-73.1709 1868.1215,-44.4309 1893.5514,-25.8207"/>
<polygon fill="#191970" stroke="#191970" points="1895.8731,-28.4582 1901.8636,-19.7195 1891.7311,-22.8151 1895.8731,-28.4582"/>
</g>
<!-- Node19 -->
<g id="node20" class="node">
<title>Node19</title>
<g id="a_node20"><a xlink:href="_view_field_8_h.html" target="_top" xlink:title="amr&#45;wind/core/ViewField.H">
<polygon fill="#ffffff" stroke="#000000" points="1119,-56.5 1119,-75.5 1253,-75.5 1253,-56.5 1119,-56.5"/>
<text text-anchor="middle" x="1186" y="-63.5" font-family="Helvetica,sans-Serif" font-size="10.00" fill="#000000">amr&#45;wind/core/ViewField.H</text>
</a>
</g>
</g>
<!-- Node13&#45;&gt;Node19 -->
<g id="edge25" class="edge">
<title>Node13&#45;&gt;Node19</title>
<path fill="none" stroke="#191970" d="M1013.875,-117.8906C1049.0559,-107.2846 1105.8088,-90.1753 1144.4515,-78.5257"/>
<polygon fill="#191970" stroke="#191970" points="1145.7847,-81.7794 1154.3488,-75.5419 1143.7642,-75.0773 1145.7847,-81.7794"/>
</g>
<!-- Node19&#45;&gt;Node9 -->
<g id="edge26" class="edge">
<title>Node19&#45;&gt;Node9</title>
<path fill="none" stroke="#191970" d="M1233.6448,-56.4369C1291.0636,-44.912 1385.8575,-25.8852 1434.3513,-16.1517"/>
<polygon fill="#191970" stroke="#191970" points="1435.1295,-19.5654 1444.2452,-14.1658 1433.7519,-12.7023 1435.1295,-19.5654"/>
</g>
<!-- Node19&#45;&gt;Node10 -->
<g id="edge29" class="edge">
<title>Node19&#45;&gt;Node10</title>
<path fill="none" stroke="#191970" d="M1186,-56.2455C1186,-48.9382 1186,-38.6944 1186,-29.7046"/>
<polygon fill="#191970" stroke="#191970" points="1189.5001,-29.6426 1186,-19.6427 1182.5001,-29.6427 1189.5001,-29.6426"/>
</g>
<!-- Node19&#45;&gt;Node11 -->
<g id="edge28" class="edge">
<title>Node19&#45;&gt;Node11</title>
<path fill="none" stroke="#191970" d="M1136.1352,-56.4369C1085.6367,-46.7522 1007.5165,-31.7703 953.7395,-21.4569"/>
<polygon fill="#191970" stroke="#191970" points="954.1394,-17.9699 943.6591,-19.5237 952.8209,-24.8446 954.1394,-17.9699"/>
</g>
<!-- Node19&#45;&gt;Node18 -->
<g id="edge27" class="edge">
<title>Node19&#45;&gt;Node18</title>
<path fill="none" stroke="#191970" d="M1253.1969,-59.9124C1268.5724,-58.5732 1284.8485,-57.1982 1300,-56 1526.9655,-38.0518 1584.1116,-38.8972 1811,-20 1814.9542,-19.6707 1818.992,-19.3246 1823.0702,-18.9671"/>
<polygon fill="#191970" stroke="#191970" points="1823.6167,-22.4323 1833.2662,-18.0577 1822.9948,-15.46 1823.6167,-22.4323"/>
</g>
<!-- Node20&#45;&gt;Node1 -->
<g id="edge67" class="edge">
<title>Node20&#45;&gt;Node1</title>
<path fill="none" stroke="#191970" d="M1705.7147,-253.3377C1505.7047,-243.5286 809.6696,-209.3929 580.0936,-198.1338"/>
<polygon fill="#191970" stroke="#191970" points="580.0018,-194.6252 569.8423,-197.631 579.6588,-201.6168 580.0018,-194.6252"/>
</g>
<!-- Node21 -->
<g id="node22" class="node">
<title>Node21</title>
<polygon fill="#ffffff" stroke="#bfbfbf" points="2379,-118 2379,-137 2485,-137 2485,-118 2379,-118"/>
<text text-anchor="middle" x="2432" y="-125" font-family="Helvetica,sans-Serif" font-size="10.00" fill="#000000">AMReX_AmrCore.H</text>
</g>
<!-- Node20&#45;&gt;Node21 -->
<g id="edge31" class="edge">
<title>Node20&#45;&gt;Node21</title>
<path fill="none" stroke="#191970" d="M1814.0797,-247.1374C1920.791,-229.3946 2165.8227,-187.3892 2370,-143 2375.0212,-141.9084 2380.2547,-140.7044 2385.4594,-139.4645"/>
<polygon fill="#191970" stroke="#191970" points="2386.4791,-142.8187 2395.3696,-137.0559 2384.8258,-136.0167 2386.4791,-142.8187"/>
</g>
<!-- Node22 -->
<g id="node23" class="node">
<title>Node22</title>
<g id="a_node23"><a xlink:href="_sim_time_8_h.html" target="_top" xlink:title="amr&#45;wind/core/SimTime.H">
<polygon fill="#ffffff" stroke="#000000" points="2548.5,-185 2548.5,-204 2679.5,-204 2679.5,-185 2548.5,-185"/>
<text text-anchor="middle" x="2614" y="-192" font-family="Helvetica,sans-Serif" font-size="10.00" fill="#000000">amr&#45;wind/core/SimTime.H</text>
</a>
</g>
</g>
<!-- Node20&#45;&gt;Node22 -->
<g id="edge32" class="edge">
<title>Node20&#45;&gt;Node22</title>
<path fill="none" stroke="#191970" d="M1814.0694,-252.1062C1961.1184,-241.5167 2368.6188,-212.1709 2538.3134,-199.9505"/>
<polygon fill="#191970" stroke="#191970" points="2538.6885,-203.4326 2548.4112,-199.2233 2538.1856,-196.4507 2538.6885,-203.4326"/>
</g>
<!-- Node26 -->
<g id="node27" class="node">
<title>Node26</title>
<g id="a_node27"><a xlink:href="_field_repo_8_h.html" target="_top" xlink:title="amr&#45;wind/core/FieldRepo.H">
<polygon fill="#ffffff" stroke="#000000" points="1614,-185 1614,-204 1750,-204 1750,-185 1614,-185"/>
<text text-anchor="middle" x="1682" y="-192" font-family="Helvetica,sans-Serif" font-size="10.00" fill="#000000">amr&#45;wind/core/FieldRepo.H</text>
</a>
</g>
</g>
<!-- Node20&#45;&gt;Node26 -->
<g id="edge36" class="edge">
<title>Node20&#45;&gt;Node26</title>
<path fill="none" stroke="#191970" d="M1747.8125,-246.3906C1735.563,-236.7324 1716.4737,-221.6812 1702.0023,-210.271"/>
<polygon fill="#191970" stroke="#191970" points="1704.1217,-207.485 1694.1019,-204.0419 1699.7876,-212.9819 1704.1217,-207.485"/>
</g>
<!-- Node33 -->
<g id="node34" class="node">
<title>Node33</title>
<g id="a_node34"><a xlink:href="_p_d_e_base_8_h.html" target="_top" xlink:title="amr&#45;wind/equation_systems\l/PDEBase.H">
<polygon fill="#ffffff" stroke="#000000" points="1768.5,-179.5 1768.5,-209.5 1907.5,-209.5 1907.5,-179.5 1768.5,-179.5"/>
<text text-anchor="start" x="1776.5" y="-197.5" font-family="Helvetica,sans-Serif" font-size="10.00" fill="#000000">amr&#45;wind/equation_systems</text>
<text text-anchor="middle" x="1838" y="-186.5" font-family="Helvetica,sans-Serif" font-size="10.00" fill="#000000">/PDEBase.H</text>
</a>
</g>
</g>
<!-- Node20&#45;&gt;Node33 -->
<g id="edge59" class="edge">
<title>Node20&#45;&gt;Node33</title>
<path fill="none" stroke="#191970" d="M1772.1875,-246.3906C1782.5484,-238.2215 1797.8026,-226.1941 1811.0169,-215.7752"/>
<polygon fill="#191970" stroke="#191970" points="1813.2334,-218.4846 1818.9191,-209.5446 1808.8993,-212.9877 1813.2334,-218.4846"/>
</g>
<!-- Node23 -->
<g id="node24" class="node">
<title>Node23</title>
<polygon fill="#ffffff" stroke="#bfbfbf" points="2503.5,-118 2503.5,-137 2596.5,-137 2596.5,-118 2503.5,-118"/>
<text text-anchor="middle" x="2550" y="-125" font-family="Helvetica,sans-Serif" font-size="10.00" fill="#000000">AMReX_REAL.H</text>
</g>
<!-- Node22&#45;&gt;Node23 -->
<g id="edge33" class="edge">
<title>Node22&#45;&gt;Node23</title>
<path fill="none" stroke="#191970" d="M2604.8304,-184.9005C2594.7551,-174.353 2578.3793,-157.2096 2566.1431,-144.3998"/>
<polygon fill="#191970" stroke="#191970" points="2568.5909,-141.8952 2559.1526,-137.0817 2563.5291,-146.7304 2568.5909,-141.8952"/>
</g>
<!-- Node24 -->
<g id="node25" class="node">
<title>Node24</title>
<polygon fill="#ffffff" stroke="#bfbfbf" points="2615,-118 2615,-137 2741,-137 2741,-118 2615,-118"/>
<text text-anchor="middle" x="2678" y="-125" font-family="Helvetica,sans-Serif" font-size="10.00" fill="#000000">AMReX_GpuQualifiers.H</text>
</g>
<!-- Node22&#45;&gt;Node24 -->
<g id="edge34" class="edge">
<title>Node22&#45;&gt;Node24</title>
<path fill="none" stroke="#191970" d="M2623.1696,-184.9005C2633.2449,-174.353 2649.6207,-157.2096 2661.8569,-144.3998"/>
<polygon fill="#191970" stroke="#191970" points="2664.4709,-146.7304 2668.8474,-137.0817 2659.4091,-141.8952 2664.4709,-146.7304"/>
</g>
<!-- Node25 -->
<g id="node26" class="node">
<title>Node25</title>
<polygon fill="#ffffff" stroke="#bfbfbf" points="2759,-118 2759,-137 2869,-137 2869,-118 2759,-118"/>
<text text-anchor="middle" x="2814" y="-125" font-family="Helvetica,sans-Serif" font-size="10.00" fill="#000000">AMReX_Extension.H</text>
</g>
<!-- Node22&#45;&gt;Node25 -->
<g id="edge35" class="edge">
<title>Node22&#45;&gt;Node25</title>
<path fill="none" stroke="#191970" d="M2642.6551,-184.9005C2677.5563,-173.2086 2736.6502,-153.4122 2775.4997,-140.3976"/>
<polygon fill="#191970" stroke="#191970" points="2777.0277,-143.577 2785.398,-137.0817 2774.8041,-136.9395 2777.0277,-143.577"/>
</g>
<!-- Node26&#45;&gt;Node4 -->
<g id="edge38" class="edge">
<title>Node26&#45;&gt;Node4</title>
<path fill="none" stroke="#191970" d="M1613.9031,-192.9809C1378.0014,-187.5096 607.5536,-167.8152 561,-143 537.4705,-130.4577 521.0576,-103.4282 512.0754,-84.9743"/>
<polygon fill="#191970" stroke="#191970" points="515.1975,-83.3857 507.8517,-75.7509 508.8331,-86.3002 515.1975,-83.3857"/>
</g>
<!-- Node26&#45;&gt;Node9 -->
<g id="edge37" class="edge">
<title>Node26&#45;&gt;Node9</title>
<path fill="none" stroke="#191970" d="M1681.2882,-184.8044C1678.909,-159.6445 1669.009,-91.7446 1630,-56 1610.3938,-38.0345 1537.6529,-22.7203 1495.5868,-15.121"/>
<polygon fill="#191970" stroke="#191970" points="1496.0602,-11.6505 1485.604,-13.3583 1494.843,-18.5439 1496.0602,-11.6505"/>
</g>
<!-- Node26&#45;&gt;Node11 -->
<g id="edge57" class="edge">
<title>Node26&#45;&gt;Node11</title>
<path fill="none" stroke="#191970" d="M1613.8941,-194.1704C1381.1549,-192.6726 626.2476,-184.6232 526,-143 485.3283,-126.113 470.72,-116.3157 453,-76 449.4233,-67.8625 447.0496,-62.6034 453,-56 477.8855,-28.3837 716.3101,-16.253 831.8441,-11.962"/>
<polygon fill="#191970" stroke="#191970" points="832.0935,-15.4553 841.9599,-11.5947 831.8395,-8.4599 832.0935,-15.4553"/>
</g>
<!-- Node26&#45;&gt;Node13 -->
<g id="edge44" class="edge">
<title>Node26&#45;&gt;Node13</title>
<path fill="none" stroke="#191970" d="M1613.9261,-187.9844C1479.6539,-175.1326 1182.1726,-146.6594 1048.8769,-133.9011"/>
<polygon fill="#191970" stroke="#191970" points="1049.0871,-130.4053 1038.7991,-132.9365 1048.4201,-137.3734 1049.0871,-130.4053"/>
</g>
<!-- Node26&#45;&gt;Node18 -->
<g id="edge39" class="edge">
<title>Node26&#45;&gt;Node18</title>
<path fill="none" stroke="#191970" d="M1728.1291,-184.973C1738.5913,-182.9127 1749.6645,-180.8109 1760,-179 1914.6859,-151.8967 2023.7399,-214.3754 2098,-76 2102.2033,-68.1677 2103.4658,-63.0098 2098,-56 2085.4587,-39.9161 2041.823,-28.5958 2000.3084,-21.2102"/>
<polygon fill="#191970" stroke="#191970" points="2000.8294,-17.7485 1990.3819,-19.5093 1999.6472,-24.648 2000.8294,-17.7485"/>
</g>
<!-- Node26&#45;&gt;Node21 -->
<g id="edge56" class="edge">
<title>Node26&#45;&gt;Node21</title>
<path fill="none" stroke="#191970" d="M1724.3322,-184.9899C1735.8504,-182.7032 1748.3599,-180.4929 1760,-179 2029.3765,-144.452 2101.5469,-184.112 2370,-143 2376.1897,-142.0521 2382.6635,-140.7688 2388.9955,-139.3441"/>
<polygon fill="#191970" stroke="#191970" points="2389.8506,-142.7384 2398.7676,-137.0167 2388.2287,-135.9289 2389.8506,-142.7384"/>
</g>
<!-- Node27 -->
<g id="node28" class="node">
<title>Node27</title>
<g id="a_node28"><a xlink:href="_field_utils_8_h.html" target="_top" xlink:title="amr&#45;wind/core/FieldUtils.H">
<polygon fill="#ffffff" stroke="#000000" points="1677.5,-56.5 1677.5,-75.5 1810.5,-75.5 1810.5,-56.5 1677.5,-56.5"/>
<text text-anchor="middle" x="1744" y="-63.5" font-family="Helvetica,sans-Serif" font-size="10.00" fill="#000000">amr&#45;wind/core/FieldUtils.H</text>
</a>
</g>
</g>
<!-- Node26&#45;&gt;Node27 -->
<g id="edge40" class="edge">
<title>Node26&#45;&gt;Node27</title>
<path fill="none" stroke="#191970" d="M1686.6601,-184.8416C1696.8933,-163.6323 1721.4832,-112.6679 1734.8969,-84.8669"/>
<polygon fill="#191970" stroke="#191970" points="1738.0925,-86.2979 1739.2858,-75.7705 1731.788,-83.256 1738.0925,-86.2979"/>
</g>
<!-- Node29 -->
<g id="node30" class="node">
<title>Node29</title>
<g id="a_node30"><a xlink:href="_int_field_8_h.html" target="_top" xlink:title="amr&#45;wind/core/IntField.H">
<polygon fill="#ffffff" stroke="#000000" points="1832,-118 1832,-137 1956,-137 1956,-118 1832,-118"/>
<text text-anchor="middle" x="1894" y="-125" font-family="Helvetica,sans-Serif" font-size="10.00" fill="#000000">amr&#45;wind/core/IntField.H</text>
</a>
</g>
</g>
<!-- Node26&#45;&gt;Node29 -->
<g id="edge45" class="edge">
<title>Node26&#45;&gt;Node29</title>
<path fill="none" stroke="#191970" d="M1712.3744,-184.9005C1749.6058,-173.134 1812.8099,-153.1591 1853.9757,-140.1492"/>
<polygon fill="#191970" stroke="#191970" points="1855.2015,-143.4325 1863.6819,-137.0817 1853.092,-136.7579 1855.2015,-143.4325"/>
</g>
<!-- Node30 -->
<g id="node31" class="node">
<title>Node30</title>
<polygon fill="#ffffff" stroke="#bfbfbf" points="1981.5,-56.5 1981.5,-75.5 2088.5,-75.5 2088.5,-56.5 1981.5,-56.5"/>
<text text-anchor="middle" x="2035" y="-63.5" font-family="Helvetica,sans-Serif" font-size="10.00" fill="#000000">AMReX_iMultiFab.H</text>
</g>
<!-- Node26&#45;&gt;Node30 -->
<g id="edge58" class="edge">
<title>Node26&#45;&gt;Node30</title>
<path fill="none" stroke="#191970" d="M1728.9882,-184.9863C1739.2035,-182.9673 1749.9576,-180.8793 1760,-179 1850.9268,-161.984 1883.9706,-187.6259 1965,-143 1990.4698,-128.9728 2011.5821,-102.1486 2023.7488,-84.1625"/>
<polygon fill="#191970" stroke="#191970" points="2026.75,-85.9675 2029.2716,-75.6771 2020.8832,-82.1491 2026.75,-85.9675"/>
</g>
<!-- Node31 -->
<g id="node32" class="node">
<title>Node31</title>
<g id="a_node32"><a xlink:href="_scratch_field_8_h.html" target="_top" xlink:title="amr&#45;wind/core/ScratchField.H">
<polygon fill="#ffffff" stroke="#000000" points="1392,-118 1392,-137 1538,-137 1538,-118 1392,-118"/>
<text text-anchor="middle" x="1465" y="-125" font-family="Helvetica,sans-Serif" font-size="10.00" fill="#000000">amr&#45;wind/core/ScratchField.H</text>
</a>
</g>
</g>
<!-- Node26&#45;&gt;Node31 -->
<g id="edge49" class="edge">
<title>Node26&#45;&gt;Node31</title>
<path fill="none" stroke="#191970" d="M1650.9092,-184.9005C1612.7192,-173.1091 1547.8313,-153.0746 1505.7014,-140.0668"/>
<polygon fill="#191970" stroke="#191970" points="1506.6206,-136.6876 1496.0331,-137.0817 1504.5555,-143.3761 1506.6206,-136.6876"/>
</g>
<!-- Node27&#45;&gt;Node11 -->
<g id="edge42" class="edge">
<title>Node27&#45;&gt;Node11</title>
<path fill="none" stroke="#191970" d="M1677.4125,-59.8763C1661.8598,-58.5245 1645.3542,-57.1531 1630,-56 1380.7153,-37.2793 1083.5267,-20.3552 956.5363,-13.3782"/>
<polygon fill="#191970" stroke="#191970" points="956.4112,-9.8661 946.2346,-12.8135 956.028,-16.8556 956.4112,-9.8661"/>
</g>
<!-- Node27&#45;&gt;Node18 -->
<g id="edge41" class="edge">
<title>Node27&#45;&gt;Node18</title>
<path fill="none" stroke="#191970" d="M1773.3959,-56.3733C1801.8307,-47.0613 1845.0877,-32.8953 1876.3081,-22.671"/>
<polygon fill="#191970" stroke="#191970" points="1877.5736,-25.9396 1885.9876,-19.5011 1875.395,-19.2872 1877.5736,-25.9396"/>
</g>
<!-- Node28 -->
<g id="node29" class="node">
<title>Node28</title>
<polygon fill="#ffffff" stroke="#bfbfbf" points="1686,-.5 1686,-19.5 1802,-19.5 1802,-.5 1686,-.5"/>
<text text-anchor="middle" x="1744" y="-7.5" font-family="Helvetica,sans-Serif" font-size="10.00" fill="#000000">AMReX_Interpolater.H</text>
</g>
<!-- Node27&#45;&gt;Node28 -->
<g id="edge43" class="edge">
<title>Node27&#45;&gt;Node28</title>
<path fill="none" stroke="#191970" d="M1744,-56.2455C1744,-48.9382 1744,-38.6944 1744,-29.7046"/>
<polygon fill="#191970" stroke="#191970" points="1747.5001,-29.6426 1744,-19.6427 1740.5001,-29.6427 1747.5001,-29.6426"/>
</g>
<!-- Node29&#45;&gt;Node9 -->
<g id="edge46" class="edge">
<title>Node29&#45;&gt;Node9</title>
<path fill="none" stroke="#191970" d="M1887.3308,-117.8745C1875.7121,-101.9605 1850.102,-70.4867 1820,-56 1762.889,-28.5151 1571.4253,-15.6261 1495.9557,-11.5221"/>
<polygon fill="#191970" stroke="#191970" points="1495.8631,-8.0124 1485.6922,-10.9797 1495.4935,-15.0027 1495.8631,-8.0124"/>
</g>
<!-- Node29&#45;&gt;Node18 -->
<g id="edge47" class="edge">
<title>Node29&#45;&gt;Node18</title>
<path fill="none" stroke="#191970" d="M1903.2523,-117.8141C1911.8225,-108.1164 1923.9776,-92.3252 1929,-76 1933.7832,-60.4523 1929.2568,-42.3504 1924.1138,-29.041"/>
<polygon fill="#191970" stroke="#191970" points="1927.1909,-27.337 1920.023,-19.535 1920.7609,-30.1041 1927.1909,-27.337"/>
</g>
<!-- Node29&#45;&gt;Node30 -->
<g id="edge48" class="edge">
<title>Node29&#45;&gt;Node30</title>
<path fill="none" stroke="#191970" d="M1916.0313,-117.8906C1939.6231,-107.6005 1977.2501,-91.1888 2003.8633,-79.5809"/>
<polygon fill="#191970" stroke="#191970" points="2005.3567,-82.748 2013.1235,-75.5419 2002.5581,-76.3318 2005.3567,-82.748"/>
</g>
<!-- Node31&#45;&gt;Node9 -->
<g id="edge50" class="edge">
<title>Node31&#45;&gt;Node9</title>
<path fill="none" stroke="#191970" d="M1465,-117.8845C1465,-98.6913 1465,-55.286 1465,-29.7663"/>
<polygon fill="#191970" stroke="#191970" points="1468.5001,-29.7483 1465,-19.7484 1461.5001,-29.7484 1468.5001,-29.7483"/>
</g>
<!-- Node31&#45;&gt;Node10 -->
<g id="edge54" class="edge">
<title>Node31&#45;&gt;Node10</title>
<path fill="none" stroke="#191970" d="M1426.1102,-117.9854C1392.1038,-109.0531 1341.7659,-94.3352 1300,-76 1282.3153,-68.2364 1238.3401,-41.9862 1210.4655,-25.0236"/>
<polygon fill="#191970" stroke="#191970" points="1212.0498,-21.8902 1201.6908,-19.6672 1208.4026,-27.865 1212.0498,-21.8902"/>
</g>
<!-- Node31&#45;&gt;Node11 -->
<g id="edge53" class="edge">
<title>Node31&#45;&gt;Node11</title>
<path fill="none" stroke="#191970" d="M1391.9993,-120.2039C1319.8123,-112.2186 1206.4754,-97.6047 1110,-76 1045.7056,-61.6019 972.7564,-37.6709 930.2128,-22.9239"/>
<polygon fill="#191970" stroke="#191970" points="931.182,-19.5552 920.5872,-19.5639 928.875,-26.1641 931.182,-19.5552"/>
</g>
<!-- Node31&#45;&gt;Node18 -->
<g id="edge51" class="edge">
<title>Node31&#45;&gt;Node18</title>
<path fill="none" stroke="#191970" d="M1538.1694,-123.6347C1634.9664,-117.5308 1799.5765,-103.4269 1853,-76 1874.5118,-64.9561 1892.5555,-43.3574 1903.5329,-27.8741"/>
<polygon fill="#191970" stroke="#191970" points="1906.4349,-29.8307 1909.1525,-19.5903 1900.6421,-25.9009 1906.4349,-29.8307"/>
</g>
<!-- Node31&#45;&gt;Node19 -->
<g id="edge52" class="edge">
<title>Node31&#45;&gt;Node19</title>
<path fill="none" stroke="#191970" d="M1421.7124,-117.9581C1372.5358,-107.1181 1292.2576,-89.4224 1239.277,-77.7439"/>
<polygon fill="#191970" stroke="#191970" points="1239.9082,-74.299 1229.3892,-75.5643 1238.4013,-81.1349 1239.9082,-74.299"/>
</g>
<!-- Node32 -->
<g id="node33" class="node">
<title>Node32</title>
<polygon fill="#ffffff" stroke="#bfbfbf" points="1493,-56.5 1493,-75.5 1621,-75.5 1621,-56.5 1493,-56.5"/>
<text text-anchor="middle" x="1557" y="-63.5" font-family="Helvetica,sans-Serif" font-size="10.00" fill="#000000">AMReX_PhysBCFunct.H</text>
</g>
<!-- Node31&#45;&gt;Node32 -->
<g id="edge55" class="edge">
<title>Node31&#45;&gt;Node32</title>
<path fill="none" stroke="#191970" d="M1479.375,-117.8906C1494.0931,-108.0519 1517.1832,-92.6167 1534.3589,-81.1351"/>
<polygon fill="#191970" stroke="#191970" points="1536.3575,-84.0091 1542.7259,-75.5419 1532.4673,-78.1896 1536.3575,-84.0091"/>
</g>
<!-- Node33&#45;&gt;Node2 -->
<g id="edge61" class="edge">
<title>Node33&#45;&gt;Node2</title>
<path fill="none" stroke="#191970" d="M1768.3091,-180.1843C1765.1696,-179.7421 1762.0557,-179.3433 1759,-179 1229.6462,-119.5215 1092.9171,-171.5878 561,-143 518.8815,-140.7363 471.8509,-137.1453 433.9831,-133.9895"/>
<polygon fill="#191970" stroke="#191970" points="433.8154,-130.4631 423.5571,-133.1124 433.2285,-137.4385 433.8154,-130.4631"/>
</g>
<!-- Node33&#45;&gt;Node8 -->
<g id="edge62" class="edge">
<title>Node33&#45;&gt;Node8</title>
<path fill="none" stroke="#191970" d="M1768.3035,-180.2327C1765.1655,-179.7774 1762.0534,-179.3626 1759,-179 1386.6089,-134.7734 1290.5636,-161.2546 916,-143 844.4843,-139.5146 762.8344,-134.9836 705.6773,-131.7217"/>
<polygon fill="#191970" stroke="#191970" points="705.8378,-128.2253 695.6543,-131.1484 705.438,-135.2139 705.8378,-128.2253"/>
</g>
<!-- Node33&#45;&gt;Node9 -->
<g id="edge60" class="edge">
<title>Node33&#45;&gt;Node9</title>
<path fill="none" stroke="#191970" d="M1907.7035,-183.3332C2004.5339,-165.0682 2161.1274,-123.8813 2098,-56 2087.6101,-44.8277 1621.1361,-18.5421 1495.7516,-11.6685"/>
<polygon fill="#191970" stroke="#191970" points="1495.8535,-8.169 1485.6773,-11.1179 1495.4713,-15.1585 1495.8535,-8.169"/>
</g>
<!-- Node33&#45;&gt;Node17 -->
<g id="edge66" class="edge">
<title>Node33&#45;&gt;Node17</title>
<path fill="none" stroke="#191970" d="M1786.0367,-179.4667C1727.8842,-162.7132 1630.8196,-134.9593 1547,-112 1503.9372,-100.2045 1454.7355,-87.245 1419.6651,-78.096"/>
<polygon fill="#191970" stroke="#191970" points="1420.2714,-74.6372 1409.712,-75.5029 1418.5065,-81.4111 1420.2714,-74.6372"/>
</g>
<!-- Node33&#45;&gt;Node18 -->
<g id="edge65" class="edge">
<title>Node33&#45;&gt;Node18</title>
<path fill="none" stroke="#191970" d="M1907.5475,-188.4715C1999.5775,-179.7794 2152.2129,-162.6009 2169,-143 2194.1521,-113.6319 2193.7859,-85.6778 2169,-56 2148.3445,-31.2678 2070.7438,-19.8063 2006.6931,-14.5105"/>
<polygon fill="#191970" stroke="#191970" points="2006.7841,-11.0069 1996.5405,-13.7124 2006.2354,-17.9854 2006.7841,-11.0069"/>
</g>
<!-- Node34 -->
<g id="node35" class="node">
<title>Node34</title>
<g id="a_node35"><a xlink:href="_p_d_e_fields_8_h.html" target="_top" xlink:title="amr&#45;wind/equation_systems\l/PDEFields.H">
<polygon fill="#ffffff" stroke="#000000" points="2221.5,-112.5 2221.5,-142.5 2360.5,-142.5 2360.5,-112.5 2221.5,-112.5"/>
<text text-anchor="start" x="2229.5" y="-130.5" font-family="Helvetica,sans-Serif" font-size="10.00" fill="#000000">amr&#45;wind/equation_systems</text>
<text text-anchor="middle" x="2291" y="-119.5" font-family="Helvetica,sans-Serif" font-size="10.00" fill="#000000">/PDEFields.H</text>
</a>
</g>
</g>
<!-- Node33&#45;&gt;Node34 -->
<g id="edge63" class="edge">
<title>Node33&#45;&gt;Node34</title>
<path fill="none" stroke="#191970" d="M1907.5057,-185.7223C1981.7845,-176.1263 2102.9223,-159.857 2207,-143 2208.4639,-142.7629 2209.9416,-142.5207 2211.4297,-142.2741"/>
<polygon fill="#191970" stroke="#191970" points="2212.0935,-145.7116 2221.3689,-140.5913 2210.9249,-138.8098 2212.0935,-145.7116"/>
</g>
<!-- Node35 -->
<g id="node36" class="node">
<title>Node35</title>
<polygon fill="#ffffff" stroke="#bfbfbf" points="2268.5,-56.5 2268.5,-75.5 2313.5,-75.5 2313.5,-56.5 2268.5,-56.5"/>
<text text-anchor="middle" x="2291" y="-63.5" font-family="Helvetica,sans-Serif" font-size="10.00" fill="#000000">iosfwd</text>
</g>
<!-- Node34&#45;&gt;Node35 -->
<g id="edge64" class="edge">
<title>Node34&#45;&gt;Node35</title>
<path fill="none" stroke="#191970" d="M2291,-112.2977C2291,-104.3834 2291,-94.6043 2291,-86.0759"/>
<polygon fill="#191970" stroke="#191970" points="2294.5001,-85.8469 2291,-75.8469 2287.5001,-85.847 2294.5001,-85.8469"/>
</g>
</g>
</svg>
