<?xml version="1.0" encoding="UTF-8" standalone="no"?>
<!DOCTYPE svg PUBLIC "-//W3C//DTD SVG 1.1//EN"
 "http://www.w3.org/Graphics/SVG/1.1/DTD/svg11.dtd">
<!-- Generated by graphviz version 2.40.1 (20161225.0304)
 -->
<!-- Title: ExtSolver.H Pages: 1 -->
<svg width="240pt" height="252pt"
 viewBox="0.00 0.00 239.50 252.00" xmlns="http://www.w3.org/2000/svg" xmlns:xlink="http://www.w3.org/1999/xlink">
<g id="graph0" class="graph" transform="scale(1 1) rotate(0) translate(4 248)">
<title>ExtSolver.H</title>
<polygon fill="#ffffff" stroke="transparent" points="-4,4 -4,-248 235.5,-248 235.5,4 -4,4"/>
<!-- Node10 -->
<g id="node1" class="node">
<title>Node10</title>
<polygon fill="#bfbfbf" stroke="#000000" points="91,-224.5 91,-243.5 161,-243.5 161,-224.5 91,-224.5"/>
<text text-anchor="middle" x="126" y="-231.5" font-family="Helvetica,sans-Serif" font-size="10.00" fill="#000000">ExtSolver.H</text>
</g>
<!-- Node11 -->
<g id="node2" class="node">
<title>Node11</title>
<g id="a_node2"><a xlink:href="_c_f_d_sim_8cpp.html" target="_top" xlink:title="CFDSim.cpp">
<polygon fill="#ffffff" stroke="#000000" points="0,-168.5 0,-187.5 74,-187.5 74,-168.5 0,-168.5"/>
<text text-anchor="middle" x="37" y="-175.5" font-family="Helvetica,sans-Serif" font-size="10.00" fill="#000000">CFDSim.cpp</text>
</a>
</g>
</g>
<!-- Node10&#45;&gt;Node11 -->
<g id="edge1" class="edge">
<title>Node10&#45;&gt;Node11</title>
<path fill="none" stroke="#191970" d="M101.7936,-218.769C86.0225,-208.8456 65.924,-196.1994 52.325,-187.6427"/>
<polygon fill="#191970" stroke="#191970" points="100.1695,-221.8823 110.4974,-224.2455 103.8974,-215.9575 100.1695,-221.8823"/>
</g>
<!-- Node12 -->
<g id="node3" class="node">
<title>Node12</title>
<g id="a_node3"><a xlink:href="_fast_iface_8_h.html" target="_top" xlink:title="FastIface.H">
<polygon fill="#ffffff" stroke="#000000" points="92,-168.5 92,-187.5 160,-187.5 160,-168.5 92,-168.5"/>
<text text-anchor="middle" x="126" y="-175.5" font-family="Helvetica,sans-Serif" font-size="10.00" fill="#000000">FastIface.H</text>
</a>
</g>
</g>
<!-- Node10&#45;&gt;Node12 -->
<g id="edge2" class="edge">
<title>Node10&#45;&gt;Node12</title>
<path fill="none" stroke="#191970" d="M126,-214.1575C126,-205.155 126,-194.9199 126,-187.6427"/>
<polygon fill="#191970" stroke="#191970" points="122.5001,-214.2455 126,-224.2455 129.5001,-214.2456 122.5001,-214.2455"/>
</g>
<!-- Node14 -->
<g id="node5" class="node">
<title>Node14</title>
<g id="a_node5"><a xlink:href="_turbine_fast_8_h.html" target="_top" xlink:title="TurbineFast.H">
<polygon fill="#ffffff" stroke="#000000" points="148.5,-112.5 148.5,-131.5 227.5,-131.5 227.5,-112.5 148.5,-112.5"/>
<text text-anchor="middle" x="188" y="-119.5" font-family="Helvetica,sans-Serif" font-size="10.00" fill="#000000">TurbineFast.H</text>
</a>
</g>
</g>
<!-- Node10&#45;&gt;Node14 -->
<g id="edge8" class="edge">
<title>Node10&#45;&gt;Node14</title>
<path fill="none" stroke="#191970" d="M145.4093,-217.1772C153.7043,-209.0881 162.8686,-198.8086 169,-188 179.4721,-169.5392 184.5672,-144.8422 186.6998,-131.5062"/>
<polygon fill="#191970" stroke="#191970" points="142.7892,-214.8342 137.8501,-224.2073 147.5564,-219.96 142.7892,-214.8342"/>
</g>
<!-- Node13 -->
<g id="node4" class="node">
<title>Node13</title>
<g id="a_node4"><a xlink:href="_fast_iface_8cpp.html" target="_top" xlink:title="FastIface.cpp">
<polygon fill="#ffffff" stroke="#000000" points="53.5,-112.5 53.5,-131.5 130.5,-131.5 130.5,-112.5 53.5,-112.5"/>
<text text-anchor="middle" x="92" y="-119.5" font-family="Helvetica,sans-Serif" font-size="10.00" fill="#000000">FastIface.cpp</text>
</a>
</g>
</g>
<!-- Node12&#45;&gt;Node13 -->
<g id="edge3" class="edge">
<title>Node12&#45;&gt;Node13</title>
<path fill="none" stroke="#191970" d="M114.8465,-159.6296C109.1753,-150.2887 102.5155,-139.3197 97.8545,-131.6427"/>
<polygon fill="#191970" stroke="#191970" points="111.8961,-161.5141 120.0777,-168.2455 117.8796,-157.8812 111.8961,-161.5141"/>
</g>
<!-- Node12&#45;&gt;Node14 -->
<g id="edge4" class="edge">
<title>Node12&#45;&gt;Node14</title>
<path fill="none" stroke="#191970" d="M144.4221,-161.3607C155.1481,-151.6727 168.2934,-139.7995 177.3242,-131.6427"/>
<polygon fill="#191970" stroke="#191970" points="141.8746,-158.9453 136.7996,-168.2455 146.5666,-164.14 141.8746,-158.9453"/>
</g>
<!-- Node15 -->
<g id="node6" class="node">
<title>Node15</title>
<g id="a_node6"><a xlink:href="turbine__fast__ops_8_h.html" target="_top" xlink:title="turbine_fast_ops.H">
<polygon fill="#ffffff" stroke="#000000" points="99.5,-56.5 99.5,-75.5 198.5,-75.5 198.5,-56.5 99.5,-56.5"/>
<text text-anchor="middle" x="149" y="-63.5" font-family="Helvetica,sans-Serif" font-size="10.00" fill="#000000">turbine_fast_ops.H</text>
</a>
</g>
</g>
<!-- Node14&#45;&gt;Node15 -->
<g id="edge5" class="edge">
<title>Node14&#45;&gt;Node15</title>
<path fill="none" stroke="#191970" d="M175.4092,-103.9209C168.8605,-94.5176 161.1176,-83.3997 155.7154,-75.6427"/>
<polygon fill="#191970" stroke="#191970" points="172.6196,-106.0397 181.2067,-112.2455 178.3639,-102.0392 172.6196,-106.0397"/>
</g>
<!-- Node16 -->
<g id="node7" class="node">
<title>Node16</title>
<g id="a_node7"><a xlink:href="_turbine_fast_8cpp.html" target="_top" xlink:title="TurbineFast.cpp">
<polygon fill="#ffffff" stroke="#000000" points="144.5,-.5 144.5,-19.5 231.5,-19.5 231.5,-.5 144.5,-.5"/>
<text text-anchor="middle" x="188" y="-7.5" font-family="Helvetica,sans-Serif" font-size="10.00" fill="#000000">TurbineFast.cpp</text>
</a>
</g>
</g>
<!-- Node14&#45;&gt;Node16 -->
<g id="edge7" class="edge">
<title>Node14&#45;&gt;Node16</title>
<path fill="none" stroke="#191970" d="M198.2469,-103.217C202.1196,-95.0983 206.0586,-85.3345 208,-76 212.2422,-55.6037 201.4781,-32.4433 194.1472,-19.6988"/>
<polygon fill="#191970" stroke="#191970" points="195.1097,-101.6647 193.6945,-112.1646 201.3486,-104.839 195.1097,-101.6647"/>
</g>
<!-- Node15&#45;&gt;Node16 -->
<g id="edge6" class="edge">
<title>Node15&#45;&gt;Node16</title>
<path fill="none" stroke="#191970" d="M161.5908,-47.9209C168.1395,-38.5176 175.8824,-27.3997 181.2846,-19.6427"/>
<polygon fill="#191970" stroke="#191970" points="158.6361,-46.0392 155.7933,-56.2455 164.3804,-50.0397 158.6361,-46.0392"/>
</g>
</g>
</svg>
