<?xml version="1.0" encoding="UTF-8" standalone="no"?>
<!DOCTYPE svg PUBLIC "-//W3C//DTD SVG 1.1//EN"
 "http://www.w3.org/Graphics/SVG/1.1/DTD/svg11.dtd">
<!-- Generated by graphviz version 2.40.1 (20161225.0304)
 -->
<!-- Title: FastIface.H Pages: 1 -->
<svg width="186pt" height="196pt"
 viewBox="0.00 0.00 186.00 196.00" xmlns="http://www.w3.org/2000/svg" xmlns:xlink="http://www.w3.org/1999/xlink">
<g id="graph0" class="graph" transform="scale(1 1) rotate(0) translate(4 192)">
<title>FastIface.H</title>
<polygon fill="#ffffff" stroke="transparent" points="-4,4 -4,-192 182,-192 182,4 -4,4"/>
<!-- Node15 -->
<g id="node1" class="node">
<title>Node15</title>
<polygon fill="#bfbfbf" stroke="#000000" points="52.5,-168.5 52.5,-187.5 120.5,-187.5 120.5,-168.5 52.5,-168.5"/>
<text text-anchor="middle" x="86.5" y="-175.5" font-family="Helvetica,sans-Serif" font-size="10.00" fill="#000000">FastIface.H</text>
</g>
<!-- Node16 -->
<g id="node2" class="node">
<title>Node16</title>
<g id="a_node2"><a xlink:href="_fast_iface_8cpp.html" target="_top" xlink:title="FastIface.cpp">
<polygon fill="#ffffff" stroke="#000000" points="0,-112.5 0,-131.5 77,-131.5 77,-112.5 0,-112.5"/>
<text text-anchor="middle" x="38.5" y="-119.5" font-family="Helvetica,sans-Serif" font-size="10.00" fill="#000000">FastIface.cpp</text>
</a>
</g>
</g>
<!-- Node15&#45;&gt;Node16 -->
<g id="edge1" class="edge">
<title>Node15&#45;&gt;Node16</title>
<path fill="none" stroke="#191970" d="M71.5003,-160.5004C63.3378,-150.9775 53.5511,-139.5596 46.7651,-131.6427"/>
<polygon fill="#191970" stroke="#191970" points="68.9737,-162.9307 78.139,-168.2455 74.2885,-158.3752 68.9737,-162.9307"/>
</g>
<!-- Node17 -->
<g id="node3" class="node">
<title>Node17</title>
<g id="a_node3"><a xlink:href="_turbine_fast_8_h.html" target="_top" xlink:title="TurbineFast.H">
<polygon fill="#ffffff" stroke="#000000" points="95,-112.5 95,-131.5 174,-131.5 174,-112.5 95,-112.5"/>
<text text-anchor="middle" x="134.5" y="-119.5" font-family="Helvetica,sans-Serif" font-size="10.00" fill="#000000">TurbineFast.H</text>
</a>
</g>
</g>
<!-- Node15&#45;&gt;Node17 -->
<g id="edge2" class="edge">
<title>Node15&#45;&gt;Node17</title>
<path fill="none" stroke="#191970" d="M101.4997,-160.5004C109.6622,-150.9775 119.4489,-139.5596 126.2349,-131.6427"/>
<polygon fill="#191970" stroke="#191970" points="98.7115,-158.3752 94.861,-168.2455 104.0263,-162.9307 98.7115,-158.3752"/>
</g>
<!-- Node18 -->
<g id="node4" class="node">
<title>Node18</title>
<g id="a_node4"><a xlink:href="turbine__fast__ops_8_h.html" target="_top" xlink:title="turbine_fast_ops.H">
<polygon fill="#ffffff" stroke="#000000" points="46,-56.5 46,-75.5 145,-75.5 145,-56.5 46,-56.5"/>
<text text-anchor="middle" x="95.5" y="-63.5" font-family="Helvetica,sans-Serif" font-size="10.00" fill="#000000">turbine_fast_ops.H</text>
</a>
</g>
</g>
<!-- Node17&#45;&gt;Node18 -->
<g id="edge3" class="edge">
<title>Node17&#45;&gt;Node18</title>
<path fill="none" stroke="#191970" d="M121.9092,-103.9209C115.3605,-94.5176 107.6176,-83.3997 102.2154,-75.6427"/>
<polygon fill="#191970" stroke="#191970" points="119.1196,-106.0397 127.7067,-112.2455 124.8639,-102.0392 119.1196,-106.0397"/>
</g>
<!-- Node19 -->
<g id="node5" class="node">
<title>Node19</title>
<g id="a_node5"><a xlink:href="_turbine_fast_8cpp.html" target="_top" xlink:title="TurbineFast.cpp">
<polygon fill="#ffffff" stroke="#000000" points="91,-.5 91,-19.5 178,-19.5 178,-.5 91,-.5"/>
<text text-anchor="middle" x="134.5" y="-7.5" font-family="Helvetica,sans-Serif" font-size="10.00" fill="#000000">TurbineFast.cpp</text>
</a>
</g>
</g>
<!-- Node17&#45;&gt;Node19 -->
<g id="edge5" class="edge">
<title>Node17&#45;&gt;Node19</title>
<path fill="none" stroke="#191970" d="M144.8443,-103.3333C150.8757,-90.2285 156.7173,-72.2169 153.5,-56 150.8769,-42.7785 144.3953,-28.5891 139.7318,-19.5212"/>
<polygon fill="#191970" stroke="#191970" points="141.7075,-101.7807 140.3421,-112.2872 147.9614,-104.9253 141.7075,-101.7807"/>
</g>
<!-- Node18&#45;&gt;Node19 -->
<g id="edge4" class="edge">
<title>Node18&#45;&gt;Node19</title>
<path fill="none" stroke="#191970" d="M108.0908,-47.9209C114.6395,-38.5176 122.3824,-27.3997 127.7846,-19.6427"/>
<polygon fill="#191970" stroke="#191970" points="105.1361,-46.0392 102.2933,-56.2455 110.8804,-50.0397 105.1361,-46.0392"/>
</g>
</g>
</svg>
