<?xml version="1.0" encoding="UTF-8" standalone="no"?>
<!DOCTYPE svg PUBLIC "-//W3C//DTD SVG 1.1//EN"
 "http://www.w3.org/Graphics/SVG/1.1/DTD/svg11.dtd">
<!-- Generated by graphviz version 2.40.1 (20161225.0304)
 -->
<!-- Title: Field.cpp Pages: 1 -->
<!--zoomable 263 -->
<svg id="main" version="1.1" xmlns="http://www.w3.org/2000/svg" xmlns:xlink="http://www.w3.org/1999/xlink" xml:space="preserve" onload="init(evt)">
<style type="text/css"><![CDATA[
.edge:hover path { stroke: red; }
.edge:hover polygon { stroke: red; fill: red; }
]]></style>
<script type="text/javascript"><![CDATA[
var edges = document.getElementsByTagName('g');
if (edges && edges.length) {
  for (var i=0;i<edges.length;i++) {
    if (edges[i].id.substr(0,4)=='edge') {
      edges[i].setAttribute('class','edge');
    }
  }
}
]]></script>
        <defs>
                <circle id="rim" cx="0" cy="0" r="7"/>
                <circle id="rim2" cx="0" cy="0" r="3.5"/>
                <g id="zoomPlus">
                        <use xlink:href="#rim" fill="#404040">
                                <set attributeName="fill" to="#808080" begin="zoomplus.mouseover" end="zoomplus.mouseout"/>
                        </use>
                        <path d="M-4,0h8M0,-4v8" fill="none" stroke="white" stroke-width="1.5" pointer-events="none"/>
                </g>
                <g id="zoomMin">
                        <use xlink:href="#rim" fill="#404040">
                                <set attributeName="fill" to="#808080" begin="zoomminus.mouseover" end="zoomminus.mouseout"/>
                        </use>
                        <path d="M-4,0h8" fill="none" stroke="white" stroke-width="1.5" pointer-events="none"/>
                </g>
                <g id="dirArrow">
                        <path fill="none" stroke="white" stroke-width="1.5" d="M0,-3.0v7 M-2.5,-0.5L0,-3.0L2.5,-0.5"/>
                </g>
               <g id="resetDef">
                       <use xlink:href="#rim2" fill="#404040">
                               <set attributeName="fill" to="#808080" begin="reset.mouseover" end="reset.mouseout"/>
                       </use>
               </g>
        </defs>

<script type="text/javascript">
var viewWidth = 2276;
var viewHeight = 263;
var sectionId = 'dynsection-0';
</script>
<script xlink:href="svgpan.js"/>
<svg id="graph" class="graph">
<g id="viewport">
<title>Field.cpp</title>
<polygon fill="#ffffff" stroke="transparent" points="-4,4 -4,-259 2271.8362,-259 2271.8362,4 -4,4"/>
<!-- Node0 -->
<g id="node1" class="node">
<title>Node0</title>
<polygon fill="#bfbfbf" stroke="#000000" points="1494.8362,-235.5 1494.8362,-254.5 1550.8362,-254.5 1550.8362,-235.5 1494.8362,-235.5"/>
<text text-anchor="middle" x="1522.8362" y="-242.5" font-family="Helvetica,sans-Serif" font-size="10.00" fill="#000000">Field.cpp</text>
</g>
<!-- Node1 -->
<g id="node2" class="node">
<title>Node1</title>
<g id="a_node2"><a xlink:href="_field_8_h.html" target="_top" xlink:title="amr&#45;wind/core/Field.H">
<polygon fill="#ffffff" stroke="#000000" points="1417.3362,-112.5 1417.3362,-131.5 1530.3362,-131.5 1530.3362,-112.5 1417.3362,-112.5"/>
<text text-anchor="middle" x="1473.8362" y="-119.5" font-family="Helvetica,sans-Serif" font-size="10.00" fill="#000000">amr&#45;wind/core/Field.H</text>
</a>
</g>
</g>
<!-- Node0&#45;&gt;Node1 -->
<g id="edge1" class="edge">
<title>Node0&#45;&gt;Node1</title>
<path fill="none" stroke="#191970" d="M1515.1306,-235.325C1508.3555,-226.3775 1498.6878,-212.4666 1492.8362,-199 1484.7999,-180.5054 1479.7401,-157.9712 1476.8814,-142.0723"/>
<polygon fill="#191970" stroke="#191970" points="1480.2699,-141.1117 1475.1777,-131.8208 1473.3646,-142.2593 1480.2699,-141.1117"/>
</g>
<!-- Node13 -->
<g id="node14" class="node">
<title>Node13</title>
<g id="a_node14"><a xlink:href="_field_repo_8_h.html" target="_top" xlink:title="amr&#45;wind/core/FieldRepo.H">
<polygon fill="#ffffff" stroke="#000000" points="637.8362,-174 637.8362,-193 773.8362,-193 773.8362,-174 637.8362,-174"/>
<text text-anchor="middle" x="705.8362" y="-181" font-family="Helvetica,sans-Serif" font-size="10.00" fill="#000000">amr&#45;wind/core/FieldRepo.H</text>
</a>
</g>
</g>
<!-- Node0&#45;&gt;Node13 -->
<g id="edge16" class="edge">
<title>Node0&#45;&gt;Node13</title>
<path fill="none" stroke="#191970" d="M1494.7133,-242.883C1381.9315,-234.3933 960.0377,-202.6351 783.8788,-189.3747"/>
<polygon fill="#191970" stroke="#191970" points="784.1361,-185.8842 773.9016,-188.6236 783.6106,-192.8645 784.1361,-185.8842"/>
</g>
<!-- Node21 -->
<g id="node22" class="node">
<title>Node21</title>
<g id="a_node22"><a xlink:href="_field_fill_patch_ops_8_h.html" target="_top" xlink:title="amr&#45;wind/core/FieldFillPatch\lOps.H">
<polygon fill="#ffffff" stroke="#000000" points="1501.8362,-168.5 1501.8362,-198.5 1641.8362,-198.5 1641.8362,-168.5 1501.8362,-168.5"/>
<text text-anchor="start" x="1509.8362" y="-186.5" font-family="Helvetica,sans-Serif" font-size="10.00" fill="#000000">amr&#45;wind/core/FieldFillPatch</text>
<text text-anchor="middle" x="1571.8362" y="-175.5" font-family="Helvetica,sans-Serif" font-size="10.00" fill="#000000">Ops.H</text>
</a>
</g>
</g>
<!-- Node0&#45;&gt;Node21 -->
<g id="edge39" class="edge">
<title>Node0&#45;&gt;Node21</title>
<path fill="none" stroke="#191970" d="M1530.4925,-235.3906C1536.6328,-227.6839 1545.509,-216.5434 1553.4641,-206.5589"/>
<polygon fill="#191970" stroke="#191970" points="1556.3554,-208.5467 1559.8495,-198.5446 1550.8806,-204.1847 1556.3554,-208.5467"/>
</g>
<!-- Node22 -->
<g id="node23" class="node">
<title>Node22</title>
<g id="a_node23"><a xlink:href="_sim_time_8_h.html" target="_top" xlink:title="amr&#45;wind/core/SimTime.H">
<polygon fill="#ffffff" stroke="#000000" points="2048.3362,-112.5 2048.3362,-131.5 2179.3362,-131.5 2179.3362,-112.5 2048.3362,-112.5"/>
<text text-anchor="middle" x="2113.8362" y="-119.5" font-family="Helvetica,sans-Serif" font-size="10.00" fill="#000000">amr&#45;wind/core/SimTime.H</text>
</a>
</g>
</g>
<!-- Node0&#45;&gt;Node22 -->
<g id="edge59" class="edge">
<title>Node0&#45;&gt;Node22</title>
<path fill="none" stroke="#191970" d="M1551.1866,-243.8982C1615.3624,-240.9084 1776.3246,-230.6166 1906.8362,-199 1971.7654,-183.2708 2044.1993,-153.2843 2083.8458,-135.7337"/>
<polygon fill="#191970" stroke="#191970" points="2085.4927,-138.8314 2093.1945,-131.5559 2082.6367,-132.4405 2085.4927,-138.8314"/>
</g>
<!-- Node27 -->
<g id="node28" class="node">
<title>Node27</title>
<g id="a_node28"><a xlink:href="_field_b_c_ops_8_h.html" target="_top" xlink:title="amr&#45;wind/core/FieldBCOps.H">
<polygon fill="#ffffff" stroke="#000000" points="1195.3362,-174 1195.3362,-193 1340.3362,-193 1340.3362,-174 1195.3362,-174"/>
<text text-anchor="middle" x="1267.8362" y="-181" font-family="Helvetica,sans-Serif" font-size="10.00" fill="#000000">amr&#45;wind/core/FieldBCOps.H</text>
</a>
</g>
</g>
<!-- Node0&#45;&gt;Node27 -->
<g id="edge52" class="edge">
<title>Node0&#45;&gt;Node27</title>
<path fill="none" stroke="#191970" d="M1494.5725,-238.1834C1451.8132,-227.8709 1370.0841,-208.1598 1317.3173,-195.4337"/>
<polygon fill="#191970" stroke="#191970" points="1318.036,-192.0067 1307.4941,-193.0645 1316.3948,-198.8116 1318.036,-192.0067"/>
</g>
<!-- Node30 -->
<g id="node31" class="node">
<title>Node30</title>
<g id="a_node31"><a xlink:href="_b_c_interface_8_h.html" target="_top" xlink:title="amr&#45;wind/boundary_conditions\l/BCInterface.H">
<polygon fill="#ffffff" stroke="#000000" points="1749.3362,-168.5 1749.3362,-198.5 1898.3362,-198.5 1898.3362,-168.5 1749.3362,-168.5"/>
<text text-anchor="start" x="1757.3362" y="-186.5" font-family="Helvetica,sans-Serif" font-size="10.00" fill="#000000">amr&#45;wind/boundary_conditions</text>
<text text-anchor="middle" x="1823.8362" y="-175.5" font-family="Helvetica,sans-Serif" font-size="10.00" fill="#000000">/BCInterface.H</text>
</a>
</g>
</g>
<!-- Node0&#45;&gt;Node30 -->
<g id="edge60" class="edge">
<title>Node0&#45;&gt;Node30</title>
<path fill="none" stroke="#191970" d="M1550.8833,-239.2695C1593.6899,-230.5233 1677.0286,-213.4956 1740.4121,-200.5451"/>
<polygon fill="#191970" stroke="#191970" points="1741.3072,-203.9346 1750.4042,-198.5036 1739.9059,-197.0763 1741.3072,-203.9346"/>
</g>
<!-- Node2 -->
<g id="node3" class="node">
<title>Node2</title>
<polygon fill="#ffffff" stroke="#bfbfbf" points="204.3362,-.5 204.3362,-19.5 245.3362,-19.5 245.3362,-.5 204.3362,-.5"/>
<text text-anchor="middle" x="224.8362" y="-7.5" font-family="Helvetica,sans-Serif" font-size="10.00" fill="#000000">string</text>
</g>
<!-- Node1&#45;&gt;Node2 -->
<g id="edge2" class="edge">
<title>Node1&#45;&gt;Node2</title>
<path fill="none" stroke="#191970" d="M1417.2032,-117.5588C1391.2068,-115.6367 1359.9706,-113.4906 1331.8362,-112 1219.4783,-106.0471 426.5914,-111.5401 319.8362,-76 311.6547,-73.2763 271.6912,-44.5003 246.2732,-25.8549"/>
<polygon fill="#191970" stroke="#191970" points="248.0939,-22.8492 237.9651,-19.7416 243.9452,-28.4874 248.0939,-22.8492"/>
</g>
<!-- Node3 -->
<g id="node4" class="node">
<title>Node3</title>
<polygon fill="#ffffff" stroke="#bfbfbf" points="1269.8362,-56.5 1269.8362,-75.5 1321.8362,-75.5 1321.8362,-56.5 1269.8362,-56.5"/>
<text text-anchor="middle" x="1295.8362" y="-63.5" font-family="Helvetica,sans-Serif" font-size="10.00" fill="#000000">memory</text>
</g>
<!-- Node1&#45;&gt;Node3 -->
<g id="edge3" class="edge">
<title>Node1&#45;&gt;Node3</title>
<path fill="none" stroke="#191970" d="M1443.237,-112.3733C1412.249,-102.6242 1364.3496,-87.5547 1331.6216,-77.2583"/>
<polygon fill="#191970" stroke="#191970" points="1332.5767,-73.8897 1321.9872,-74.2273 1330.4759,-80.5671 1332.5767,-73.8897"/>
</g>
<!-- Node4 -->
<g id="node5" class="node">
<title>Node4</title>
<polygon fill="#ffffff" stroke="#bfbfbf" points="1027.3362,-56.5 1027.3362,-75.5 1110.3362,-75.5 1110.3362,-56.5 1027.3362,-56.5"/>
<text text-anchor="middle" x="1068.8362" y="-63.5" font-family="Helvetica,sans-Serif" font-size="10.00" fill="#000000">unordered_map</text>
</g>
<!-- Node1&#45;&gt;Node4 -->
<g id="edge4" class="edge">
<title>Node1&#45;&gt;Node4</title>
<path fill="none" stroke="#191970" d="M1417.096,-115.862C1348.9227,-108.2162 1230.8686,-94.1161 1120.5088,-76.1957"/>
<polygon fill="#191970" stroke="#191970" points="1120.9733,-72.7252 1110.5391,-74.5628 1119.8418,-79.6332 1120.9733,-72.7252"/>
</g>
<!-- Node5 -->
<g id="node6" class="node">
<title>Node5</title>
<polygon fill="#ffffff" stroke="#bfbfbf" points="1339.8362,-56.5 1339.8362,-75.5 1395.8362,-75.5 1395.8362,-56.5 1339.8362,-56.5"/>
<text text-anchor="middle" x="1367.8362" y="-63.5" font-family="Helvetica,sans-Serif" font-size="10.00" fill="#000000">algorithm</text>
</g>
<!-- Node1&#45;&gt;Node5 -->
<g id="edge5" class="edge">
<title>Node1&#45;&gt;Node5</title>
<path fill="none" stroke="#191970" d="M1455.3725,-112.2455C1438.7288,-103.4527 1414.037,-90.4079 1395.1171,-80.4125"/>
<polygon fill="#191970" stroke="#191970" points="1396.5653,-77.2193 1386.0885,-75.6427 1393.2955,-83.4086 1396.5653,-77.2193"/>
</g>
<!-- Node6 -->
<g id="node7" class="node">
<title>Node6</title>
<polygon fill="#ffffff" stroke="#bfbfbf" points="743.8362,-.5 743.8362,-19.5 847.8362,-19.5 847.8362,-.5 743.8362,-.5"/>
<text text-anchor="middle" x="795.8362" y="-7.5" font-family="Helvetica,sans-Serif" font-size="10.00" fill="#000000">AMReX_MultiFab.H</text>
</g>
<!-- Node1&#45;&gt;Node6 -->
<g id="edge6" class="edge">
<title>Node1&#45;&gt;Node6</title>
<path fill="none" stroke="#191970" d="M1489.2959,-112.4736C1509.1479,-99.1135 1539.096,-74.388 1521.8362,-56 1499.2574,-31.9453 1029.738,-16.5096 858.0278,-11.6509"/>
<polygon fill="#191970" stroke="#191970" points="857.9778,-8.1482 847.8836,-11.3664 857.7815,-15.1455 857.9778,-8.1482"/>
</g>
<!-- Node7 -->
<g id="node8" class="node">
<title>Node7</title>
<polygon fill="#ffffff" stroke="#bfbfbf" points="1414.3362,-56.5 1414.3362,-75.5 1513.3362,-75.5 1513.3362,-56.5 1414.3362,-56.5"/>
<text text-anchor="middle" x="1463.8362" y="-63.5" font-family="Helvetica,sans-Serif" font-size="10.00" fill="#000000">AMReX_BCRec.H</text>
</g>
<!-- Node1&#45;&gt;Node7 -->
<g id="edge7" class="edge">
<title>Node1&#45;&gt;Node7</title>
<path fill="none" stroke="#191970" d="M1472.0944,-112.2455C1470.7895,-104.9382 1468.9602,-94.6944 1467.3549,-85.7046"/>
<polygon fill="#191970" stroke="#191970" points="1470.7616,-84.8717 1465.5582,-75.6427 1463.8706,-86.1022 1470.7616,-84.8717"/>
</g>
<!-- Node8 -->
<g id="node9" class="node">
<title>Node8</title>
<polygon fill="#ffffff" stroke="#bfbfbf" points="1128.3362,-56.5 1128.3362,-75.5 1213.3362,-75.5 1213.3362,-56.5 1128.3362,-56.5"/>
<text text-anchor="middle" x="1170.8362" y="-63.5" font-family="Helvetica,sans-Serif" font-size="10.00" fill="#000000">AMReX_Gpu.H</text>
</g>
<!-- Node1&#45;&gt;Node8 -->
<g id="edge8" class="edge">
<title>Node1&#45;&gt;Node8</title>
<path fill="none" stroke="#191970" d="M1422.093,-112.4369C1366.719,-102.2028 1279.3381,-86.0531 1223.5816,-75.7483"/>
<polygon fill="#191970" stroke="#191970" points="1224.0231,-72.2707 1213.5535,-73.8949 1222.7509,-79.1541 1224.0231,-72.2707"/>
</g>
<!-- Node9 -->
<g id="node10" class="node">
<title>Node9</title>
<g id="a_node10"><a xlink:href="incflo__enums_8_h.html" target="_top" xlink:title="amr&#45;wind/incflo_enums.H">
<polygon fill="#ffffff" stroke="#000000" points="1607.8362,-56.5 1607.8362,-75.5 1735.8362,-75.5 1735.8362,-56.5 1607.8362,-56.5"/>
<text text-anchor="middle" x="1671.8362" y="-63.5" font-family="Helvetica,sans-Serif" font-size="10.00" fill="#000000">amr&#45;wind/incflo_enums.H</text>
</a>
</g>
</g>
<!-- Node1&#45;&gt;Node9 -->
<g id="edge9" class="edge">
<title>Node1&#45;&gt;Node9</title>
<path fill="none" stroke="#191970" d="M1507.8737,-112.3733C1541.2256,-102.9404 1592.189,-88.5265 1628.4364,-78.2747"/>
<polygon fill="#191970" stroke="#191970" points="1629.573,-81.5906 1638.243,-75.5011 1627.6679,-74.8548 1629.573,-81.5906"/>
</g>
<!-- Node10 -->
<g id="node11" class="node">
<title>Node10</title>
<g id="a_node11"><a xlink:href="_field_desc_types_8_h.html" target="_top" xlink:title="amr&#45;wind/core/FieldDescTypes.H">
<polygon fill="#ffffff" stroke="#000000" points="504.3362,-.5 504.3362,-19.5 667.3362,-19.5 667.3362,-.5 504.3362,-.5"/>
<text text-anchor="middle" x="585.8362" y="-7.5" font-family="Helvetica,sans-Serif" font-size="10.00" fill="#000000">amr&#45;wind/core/FieldDescTypes.H</text>
</a>
</g>
</g>
<!-- Node1&#45;&gt;Node10 -->
<g id="edge10" class="edge">
<title>Node1&#45;&gt;Node10</title>
<path fill="none" stroke="#191970" d="M1417.1109,-113.8937C1373.5413,-106.6834 1312.3137,-94.3993 1260.8362,-76 1242.4931,-69.4437 1240.5944,-61.2526 1221.8362,-56 1208.9179,-52.3826 850.7484,-27.8584 677.7063,-16.1709"/>
<polygon fill="#191970" stroke="#191970" points="677.8027,-12.6695 667.5897,-15.4879 677.3312,-19.6536 677.8027,-12.6695"/>
</g>
<!-- Node11 -->
<g id="node12" class="node">
<title>Node11</title>
<g id="a_node12"><a xlink:href="_view_field_8_h.html" target="_top" xlink:title="amr&#45;wind/core/ViewField.H">
<polygon fill="#ffffff" stroke="#000000" points="328.8362,-56.5 328.8362,-75.5 462.8362,-75.5 462.8362,-56.5 328.8362,-56.5"/>
<text text-anchor="middle" x="395.8362" y="-63.5" font-family="Helvetica,sans-Serif" font-size="10.00" fill="#000000">amr&#45;wind/core/ViewField.H</text>
</a>
</g>
</g>
<!-- Node1&#45;&gt;Node11 -->
<g id="edge11" class="edge">
<title>Node1&#45;&gt;Node11</title>
<path fill="none" stroke="#191970" d="M1417.1933,-117.7347C1391.1949,-115.8481 1359.9598,-113.6811 1331.8362,-112 1165.5039,-102.0571 666.1042,-78.5755 473.1249,-69.5865"/>
<polygon fill="#191970" stroke="#191970" points="473.2162,-66.087 463.0642,-69.118 472.8905,-73.0794 473.2162,-66.087"/>
</g>
<!-- Node11&#45;&gt;Node2 -->
<g id="edge12" class="edge">
<title>Node11&#45;&gt;Node2</title>
<path fill="none" stroke="#191970" d="M366.4403,-56.3733C335.4206,-46.2148 286.7612,-30.2795 255.3321,-19.9869"/>
<polygon fill="#191970" stroke="#191970" points="256.3701,-16.644 245.7775,-16.8579 254.1915,-23.2964 256.3701,-16.644"/>
</g>
<!-- Node11&#45;&gt;Node6 -->
<g id="edge14" class="edge">
<title>Node11&#45;&gt;Node6</title>
<path fill="none" stroke="#191970" d="M463.2385,-56.5637C538.835,-45.9802 660.4322,-28.9566 733.7755,-18.6885"/>
<polygon fill="#191970" stroke="#191970" points="734.3764,-22.1386 743.7945,-17.2858 733.4058,-15.2062 734.3764,-22.1386"/>
</g>
<!-- Node11&#45;&gt;Node10 -->
<g id="edge13" class="edge">
<title>Node11&#45;&gt;Node10</title>
<path fill="none" stroke="#191970" d="M428.4984,-56.3733C460.3661,-46.9807 508.9894,-32.6496 543.7433,-22.4064"/>
<polygon fill="#191970" stroke="#191970" points="544.9978,-25.6855 553.6003,-19.5011 543.0187,-18.9711 544.9978,-25.6855"/>
</g>
<!-- Node12 -->
<g id="node13" class="node">
<title>Node12</title>
<polygon fill="#ffffff" stroke="#bfbfbf" points="306.3362,-.5 306.3362,-19.5 401.3362,-19.5 401.3362,-.5 306.3362,-.5"/>
<text text-anchor="middle" x="353.8362" y="-7.5" font-family="Helvetica,sans-Serif" font-size="10.00" fill="#000000">AMReX_Vector.H</text>
</g>
<!-- Node11&#45;&gt;Node12 -->
<g id="edge15" class="edge">
<title>Node11&#45;&gt;Node12</title>
<path fill="none" stroke="#191970" d="M388.5204,-56.2455C382.6183,-48.3761 374.162,-37.101 367.0769,-27.6542"/>
<polygon fill="#191970" stroke="#191970" points="369.8683,-25.5427 361.0683,-19.6427 364.2683,-29.7427 369.8683,-25.5427"/>
</g>
<!-- Node13&#45;&gt;Node1 -->
<g id="edge24" class="edge">
<title>Node13&#45;&gt;Node1</title>
<path fill="none" stroke="#191970" d="M773.9911,-178.0423C920.1704,-166.3365 1262.2779,-138.9412 1407.1419,-127.3408"/>
<polygon fill="#191970" stroke="#191970" points="1407.5371,-130.8204 1417.2258,-126.5333 1406.9783,-123.8427 1407.5371,-130.8204"/>
</g>
<!-- Node13&#45;&gt;Node2 -->
<g id="edge17" class="edge">
<title>Node13&#45;&gt;Node2</title>
<path fill="none" stroke="#191970" d="M637.8064,-182.2721C498.4238,-179.0399 185.0959,-167.8972 84.8362,-132 43.6318,-117.247 24.1608,-114.7604 3.8362,-76 -.2917,-68.1277 -1.7723,-62.8961 3.8362,-56 27.482,-26.9257 139.1409,-15.6193 194.1119,-11.7598"/>
<polygon fill="#191970" stroke="#191970" points="194.5607,-15.2378 204.3074,-11.0841 194.0978,-8.2531 194.5607,-15.2378"/>
</g>
<!-- Node13&#45;&gt;Node4 -->
<g id="edge18" class="edge">
<title>Node13&#45;&gt;Node4</title>
<path fill="none" stroke="#191970" d="M735.2346,-173.984C800.2798,-152.9294 956.4043,-102.3932 1029.6501,-78.6842"/>
<polygon fill="#191970" stroke="#191970" points="1030.9811,-81.9322 1039.4172,-75.5227 1028.8254,-75.2724 1030.9811,-81.9322"/>
</g>
<!-- Node13&#45;&gt;Node6 -->
<g id="edge37" class="edge">
<title>Node13&#45;&gt;Node6</title>
<path fill="none" stroke="#191970" d="M729.2051,-173.891C746.4667,-165.4985 768.9492,-151.5764 780.8362,-132 800.0461,-100.3639 800.1119,-55.5969 798.1562,-30.0119"/>
<polygon fill="#191970" stroke="#191970" points="801.6088,-29.3459 797.177,-19.7225 794.6402,-30.0092 801.6088,-29.3459"/>
</g>
<!-- Node13&#45;&gt;Node10 -->
<g id="edge19" class="edge">
<title>Node13&#45;&gt;Node10</title>
<path fill="none" stroke="#191970" d="M685.7704,-173.9248C668.9594,-165.0485 645.2957,-150.4453 629.8362,-132 604.5128,-101.7856 593.2467,-55.832 588.6548,-29.8023"/>
<polygon fill="#191970" stroke="#191970" points="592.0696,-28.991 587.0309,-19.6711 585.1578,-30.099 592.0696,-28.991"/>
</g>
<!-- Node14 -->
<g id="node15" class="node">
<title>Node14</title>
<g id="a_node15"><a xlink:href="_field_utils_8_h.html" target="_top" xlink:title="amr&#45;wind/core/FieldUtils.H">
<polygon fill="#ffffff" stroke="#000000" points="639.3362,-112.5 639.3362,-131.5 772.3362,-131.5 772.3362,-112.5 639.3362,-112.5"/>
<text text-anchor="middle" x="705.8362" y="-119.5" font-family="Helvetica,sans-Serif" font-size="10.00" fill="#000000">amr&#45;wind/core/FieldUtils.H</text>
</a>
</g>
</g>
<!-- Node13&#45;&gt;Node14 -->
<g id="edge20" class="edge">
<title>Node13&#45;&gt;Node14</title>
<path fill="none" stroke="#191970" d="M705.8362,-173.8906C705.8362,-165.3657 705.8362,-152.6392 705.8362,-141.9235"/>
<polygon fill="#191970" stroke="#191970" points="709.3363,-141.7448 705.8362,-131.7449 702.3363,-141.7449 709.3363,-141.7448"/>
</g>
<!-- Node16 -->
<g id="node17" class="node">
<title>Node16</title>
<g id="a_node17"><a xlink:href="_int_field_8_h.html" target="_top" xlink:title="amr&#45;wind/core/IntField.H">
<polygon fill="#ffffff" stroke="#000000" points="116.8362,-112.5 116.8362,-131.5 240.8362,-131.5 240.8362,-112.5 116.8362,-112.5"/>
<text text-anchor="middle" x="178.8362" y="-119.5" font-family="Helvetica,sans-Serif" font-size="10.00" fill="#000000">amr&#45;wind/core/IntField.H</text>
</a>
</g>
</g>
<!-- Node13&#45;&gt;Node16 -->
<g id="edge25" class="edge">
<title>Node13&#45;&gt;Node16</title>
<path fill="none" stroke="#191970" d="M637.75,-175.5544C538.0812,-163.9233 353.2556,-142.3544 251.2083,-130.4457"/>
<polygon fill="#191970" stroke="#191970" points="251.3323,-126.9365 240.994,-129.2537 250.5209,-133.8893 251.3323,-126.9365"/>
</g>
<!-- Node17 -->
<g id="node18" class="node">
<title>Node17</title>
<polygon fill="#ffffff" stroke="#bfbfbf" points="13.3362,-56.5 13.3362,-75.5 120.3362,-75.5 120.3362,-56.5 13.3362,-56.5"/>
<text text-anchor="middle" x="66.8362" y="-63.5" font-family="Helvetica,sans-Serif" font-size="10.00" fill="#000000">AMReX_iMultiFab.H</text>
</g>
<!-- Node13&#45;&gt;Node17 -->
<g id="edge38" class="edge">
<title>Node13&#45;&gt;Node17</title>
<path fill="none" stroke="#191970" d="M637.7812,-181.0539C490.5562,-175.275 152.132,-159.1834 107.8362,-132 90.6483,-121.4521 79.5528,-100.7153 73.2957,-85.2872"/>
<polygon fill="#191970" stroke="#191970" points="76.479,-83.8048 69.7214,-75.6448 69.9154,-86.2378 76.479,-83.8048"/>
</g>
<!-- Node18 -->
<g id="node19" class="node">
<title>Node18</title>
<g id="a_node19"><a xlink:href="_scratch_field_8_h.html" target="_top" xlink:title="amr&#45;wind/core/ScratchField.H">
<polygon fill="#ffffff" stroke="#000000" points="392.8362,-112.5 392.8362,-131.5 538.8362,-131.5 538.8362,-112.5 392.8362,-112.5"/>
<text text-anchor="middle" x="465.8362" y="-119.5" font-family="Helvetica,sans-Serif" font-size="10.00" fill="#000000">amr&#45;wind/core/ScratchField.H</text>
</a>
</g>
</g>
<!-- Node13&#45;&gt;Node18 -->
<g id="edge29" class="edge">
<title>Node13&#45;&gt;Node18</title>
<path fill="none" stroke="#191970" d="M668.5996,-173.9581C626.7369,-163.2308 558.6734,-145.7895 513.0948,-134.11"/>
<polygon fill="#191970" stroke="#191970" points="513.7161,-130.6562 503.1603,-131.5643 511.9785,-137.4371 513.7161,-130.6562"/>
</g>
<!-- Node20 -->
<g id="node21" class="node">
<title>Node20</title>
<polygon fill="#ffffff" stroke="#bfbfbf" points="956.8362,-112.5 956.8362,-131.5 1062.8362,-131.5 1062.8362,-112.5 956.8362,-112.5"/>
<text text-anchor="middle" x="1009.8362" y="-119.5" font-family="Helvetica,sans-Serif" font-size="10.00" fill="#000000">AMReX_AmrCore.H</text>
</g>
<!-- Node13&#45;&gt;Node20 -->
<g id="edge36" class="edge">
<title>Node13&#45;&gt;Node20</title>
<path fill="none" stroke="#191970" d="M753.0027,-173.9581C806.8086,-163.073 894.7854,-145.2751 952.5038,-133.5985"/>
<polygon fill="#191970" stroke="#191970" points="953.4517,-136.9777 962.5591,-131.5643 952.0637,-130.1167 953.4517,-136.9777"/>
</g>
<!-- Node14&#45;&gt;Node6 -->
<g id="edge22" class="edge">
<title>Node14&#45;&gt;Node6</title>
<path fill="none" stroke="#191970" d="M718.8742,-112.4207C730.0925,-103.7495 746.2526,-90.1941 757.8362,-76 769.8102,-61.3276 780.281,-42.4126 787.1823,-28.5957"/>
<polygon fill="#191970" stroke="#191970" points="790.3446,-30.0958 791.547,-19.5694 784.0427,-27.0484 790.3446,-30.0958"/>
</g>
<!-- Node14&#45;&gt;Node10 -->
<g id="edge21" class="edge">
<title>Node14&#45;&gt;Node10</title>
<path fill="none" stroke="#191970" d="M681.3408,-112.4543C663.7445,-104.6687 640.3175,-92.2981 623.8362,-76 610.219,-62.5341 599.8462,-43.1778 593.4056,-28.9075"/>
<polygon fill="#191970" stroke="#191970" points="596.5657,-27.3953 589.4207,-19.5723 590.1277,-30.1435 596.5657,-27.3953"/>
</g>
<!-- Node15 -->
<g id="node16" class="node">
<title>Node15</title>
<polygon fill="#ffffff" stroke="#bfbfbf" points="632.8362,-56.5 632.8362,-75.5 748.8362,-75.5 748.8362,-56.5 632.8362,-56.5"/>
<text text-anchor="middle" x="690.8362" y="-63.5" font-family="Helvetica,sans-Serif" font-size="10.00" fill="#000000">AMReX_Interpolater.H</text>
</g>
<!-- Node14&#45;&gt;Node15 -->
<g id="edge23" class="edge">
<title>Node14&#45;&gt;Node15</title>
<path fill="none" stroke="#191970" d="M703.2234,-112.2455C701.2446,-104.8579 698.4618,-94.4689 696.035,-85.4087"/>
<polygon fill="#191970" stroke="#191970" points="699.3874,-84.3966 693.4191,-75.6427 692.6257,-86.2078 699.3874,-84.3966"/>
</g>
<!-- Node16&#45;&gt;Node2 -->
<g id="edge26" class="edge">
<title>Node16&#45;&gt;Node2</title>
<path fill="none" stroke="#191970" d="M175.0079,-112.1014C170.4737,-98.7345 164.5187,-74.4628 172.8362,-56 178.4059,-43.6369 189.1225,-33.2563 199.3868,-25.5033"/>
<polygon fill="#191970" stroke="#191970" points="201.5981,-28.2277 207.7796,-19.623 197.5813,-22.4948 201.5981,-28.2277"/>
</g>
<!-- Node16&#45;&gt;Node10 -->
<g id="edge27" class="edge">
<title>Node16&#45;&gt;Node10</title>
<path fill="none" stroke="#191970" d="M195.6062,-112.3411C221.44,-97.8853 272.9081,-70.7491 319.8362,-56 376.4221,-38.2156 442.0723,-26.7727 493.9938,-19.7479"/>
<polygon fill="#191970" stroke="#191970" points="494.7328,-23.1808 504.1883,-18.4012 493.8161,-16.241 494.7328,-23.1808"/>
</g>
<!-- Node16&#45;&gt;Node17 -->
<g id="edge28" class="edge">
<title>Node16&#45;&gt;Node17</title>
<path fill="none" stroke="#191970" d="M159.5828,-112.3733C141.7651,-103.4644 115.0616,-90.1127 94.8768,-80.0203"/>
<polygon fill="#191970" stroke="#191970" points="96.348,-76.8428 85.8385,-75.5011 93.2175,-83.1038 96.348,-76.8428"/>
</g>
<!-- Node18&#45;&gt;Node2 -->
<g id="edge30" class="edge">
<title>Node18&#45;&gt;Node2</title>
<path fill="none" stroke="#191970" d="M418.3523,-112.4741C387.0242,-105.0829 345.6763,-93.1739 311.8362,-76 285.7784,-62.7756 259.5608,-41.5504 242.8218,-26.7526"/>
<polygon fill="#191970" stroke="#191970" points="244.7516,-23.7795 234.9834,-19.6765 240.0609,-28.9754 244.7516,-23.7795"/>
</g>
<!-- Node18&#45;&gt;Node6 -->
<g id="edge33" class="edge">
<title>Node18&#45;&gt;Node6</title>
<path fill="none" stroke="#191970" d="M486.2005,-112.4534C515.9707,-98.7376 573.3287,-73.2159 623.8362,-56 663.6466,-42.4303 709.729,-30.2902 744.1692,-21.8935"/>
<polygon fill="#191970" stroke="#191970" points="745.1107,-25.2669 754.0106,-19.5186 743.4686,-18.4622 745.1107,-25.2669"/>
</g>
<!-- Node18&#45;&gt;Node10 -->
<g id="edge31" class="edge">
<title>Node18&#45;&gt;Node10</title>
<path fill="none" stroke="#191970" d="M471.5515,-112.193C479.8578,-98.4997 496.3108,-73.3807 514.8362,-56 527.9282,-43.7171 544.7036,-32.6771 558.6607,-24.4931"/>
<polygon fill="#191970" stroke="#191970" points="560.3986,-27.5313 567.3586,-19.5432 556.9363,-21.4475 560.3986,-27.5313"/>
</g>
<!-- Node18&#45;&gt;Node11 -->
<g id="edge32" class="edge">
<title>Node18&#45;&gt;Node11</title>
<path fill="none" stroke="#191970" d="M453.6432,-112.2455C443.2042,-103.8943 427.9708,-91.7076 415.7623,-81.9408"/>
<polygon fill="#191970" stroke="#191970" points="417.8847,-79.1566 407.8896,-75.6427 413.5119,-84.6227 417.8847,-79.1566"/>
</g>
<!-- Node18&#45;&gt;Node12 -->
<g id="edge34" class="edge">
<title>Node18&#45;&gt;Node12</title>
<path fill="none" stroke="#191970" d="M414.4881,-112.4847C377.1834,-104.4058 331.3094,-91.6439 319.8362,-76 308.5165,-60.5652 321.7701,-40.8288 334.8972,-26.975"/>
<polygon fill="#191970" stroke="#191970" points="337.359,-29.4628 342.0201,-19.9483 332.443,-24.4795 337.359,-29.4628"/>
</g>
<!-- Node19 -->
<g id="node20" class="node">
<title>Node19</title>
<polygon fill="#ffffff" stroke="#bfbfbf" points="880.8362,-56.5 880.8362,-75.5 1008.8362,-75.5 1008.8362,-56.5 880.8362,-56.5"/>
<text text-anchor="middle" x="944.8362" y="-63.5" font-family="Helvetica,sans-Serif" font-size="10.00" fill="#000000">AMReX_PhysBCFunct.H</text>
</g>
<!-- Node18&#45;&gt;Node19 -->
<g id="edge35" class="edge">
<title>Node18&#45;&gt;Node19</title>
<path fill="none" stroke="#191970" d="M538.8466,-113.4643C628.6217,-102.9687 780.1684,-85.2514 870.5322,-74.6869"/>
<polygon fill="#191970" stroke="#191970" points="871.1743,-78.1358 880.7002,-73.4982 870.3614,-71.1831 871.1743,-78.1358"/>
</g>
<!-- Node21&#45;&gt;Node1 -->
<g id="edge40" class="edge">
<title>Node21&#45;&gt;Node1</title>
<path fill="none" stroke="#191970" d="M1547.8628,-168.4554C1532.6587,-158.9141 1513.0603,-146.6151 1497.8487,-137.0691"/>
<polygon fill="#191970" stroke="#191970" points="1499.3535,-133.8813 1489.0228,-131.5303 1495.6326,-139.8105 1499.3535,-133.8813"/>
</g>
<!-- Node21&#45;&gt;Node6 -->
<g id="edge48" class="edge">
<title>Node21&#45;&gt;Node6</title>
<path fill="none" stroke="#191970" d="M1637.839,-168.4501C1674.6916,-158.8091 1715.7598,-145.5921 1728.8362,-132 1752.7679,-107.1247 1768.6461,-80.9919 1744.8362,-56 1714.2238,-23.8678 1064.2196,-13.2498 858.0166,-10.6833"/>
<polygon fill="#191970" stroke="#191970" points="858.0001,-7.1829 847.9579,-10.5601 857.9143,-14.1824 858.0001,-7.1829"/>
</g>
<!-- Node21&#45;&gt;Node10 -->
<g id="edge45" class="edge">
<title>Node21&#45;&gt;Node10</title>
<path fill="none" stroke="#191970" d="M1570.9442,-168.1282C1568.4196,-140.3992 1558.7605,-82.4381 1521.8362,-56 1450.6635,-5.0396 822.2331,-24.9311 734.8362,-20 716.2956,-18.9539 696.4657,-17.7103 677.5194,-16.4617"/>
<polygon fill="#191970" stroke="#191970" points="677.6126,-12.9603 667.4024,-15.7891 677.1481,-19.9448 677.6126,-12.9603"/>
</g>
<!-- Node21&#45;&gt;Node14 -->
<g id="edge46" class="edge">
<title>Node21&#45;&gt;Node14</title>
<path fill="none" stroke="#191970" d="M1501.7014,-178.5193C1341.3746,-167.1335 949.1008,-139.2757 782.5926,-127.4509"/>
<polygon fill="#191970" stroke="#191970" points="782.6579,-123.9469 772.4351,-126.7296 782.162,-130.9293 782.6579,-123.9469"/>
</g>
<!-- Node21&#45;&gt;Node19 -->
<g id="edge50" class="edge">
<title>Node21&#45;&gt;Node19</title>
<path fill="none" stroke="#191970" d="M1524.8917,-168.4455C1466.1694,-149.8021 1368.8396,-119.5722 1331.8362,-112 1197.4438,-84.4987 1158.9976,-93.0996 1019.1657,-76.1268"/>
<polygon fill="#191970" stroke="#191970" points="1019.2739,-72.6136 1008.9199,-74.8597 1018.4147,-79.5607 1019.2739,-72.6136"/>
</g>
<!-- Node21&#45;&gt;Node20 -->
<g id="edge47" class="edge">
<title>Node21&#45;&gt;Node20</title>
<path fill="none" stroke="#191970" d="M1501.7157,-177.554C1406.8441,-169.2245 1232.1019,-152.8779 1072.886,-132.0771"/>
<polygon fill="#191970" stroke="#191970" points="1073.2778,-128.5985 1062.9067,-130.7647 1072.365,-135.5388 1073.2778,-128.5985"/>
</g>
<!-- Node21&#45;&gt;Node22 -->
<g id="edge41" class="edge">
<title>Node21&#45;&gt;Node22</title>
<path fill="none" stroke="#191970" d="M1641.9129,-176.2736C1731.2596,-166.9476 1890.7837,-149.9205 2037.8783,-132.0946"/>
<polygon fill="#191970" stroke="#191970" points="2038.4924,-135.5458 2047.997,-130.8646 2037.6477,-128.5969 2038.4924,-135.5458"/>
</g>
<!-- Node23 -->
<g id="node24" class="node">
<title>Node23</title>
<polygon fill="#ffffff" stroke="#bfbfbf" points="1829.3362,-56.5 1829.3362,-75.5 1922.3362,-75.5 1922.3362,-56.5 1829.3362,-56.5"/>
<text text-anchor="middle" x="1875.8362" y="-63.5" font-family="Helvetica,sans-Serif" font-size="10.00" fill="#000000">AMReX_REAL.H</text>
</g>
<!-- Node21&#45;&gt;Node23 -->
<g id="edge49" class="edge">
<title>Node21&#45;&gt;Node23</title>
<path fill="none" stroke="#191970" d="M1641.8749,-169.1208C1678.3922,-160.4827 1723.3476,-148.0348 1761.8362,-132 1795.4193,-118.0089 1831.2861,-95.9201 1853.6301,-81.2003"/>
<polygon fill="#191970" stroke="#191970" points="1855.6807,-84.0397 1862.0542,-75.5763 1851.7939,-78.2179 1855.6807,-84.0397"/>
</g>
<!-- Node26 -->
<g id="node27" class="node">
<title>Node26</title>
<polygon fill="#ffffff" stroke="#bfbfbf" points="1599.8362,-112.5 1599.8362,-131.5 1719.8362,-131.5 1719.8362,-112.5 1599.8362,-112.5"/>
<text text-anchor="middle" x="1659.8362" y="-119.5" font-family="Helvetica,sans-Serif" font-size="10.00" fill="#000000">AMReX_FillPatchUtil.H</text>
</g>
<!-- Node21&#45;&gt;Node26 -->
<g id="edge51" class="edge">
<title>Node21&#45;&gt;Node26</title>
<path fill="none" stroke="#191970" d="M1593.5891,-168.2977C1607.0331,-158.9022 1624.2374,-146.8787 1637.744,-137.4395"/>
<polygon fill="#191970" stroke="#191970" points="1639.8174,-140.2605 1646.0091,-131.6633 1635.8075,-134.5228 1639.8174,-140.2605"/>
</g>
<!-- Node22&#45;&gt;Node23 -->
<g id="edge42" class="edge">
<title>Node22&#45;&gt;Node23</title>
<path fill="none" stroke="#191970" d="M2073.193,-112.4369C2032.5467,-102.8731 1969.945,-88.1432 1926.1775,-77.845"/>
<polygon fill="#191970" stroke="#191970" points="1926.8477,-74.4072 1916.3118,-75.5237 1925.2444,-81.2211 1926.8477,-74.4072"/>
</g>
<!-- Node24 -->
<g id="node25" class="node">
<title>Node24</title>
<polygon fill="#ffffff" stroke="#bfbfbf" points="2013.8362,-56.5 2013.8362,-75.5 2139.8362,-75.5 2139.8362,-56.5 2013.8362,-56.5"/>
<text text-anchor="middle" x="2076.8362" y="-63.5" font-family="Helvetica,sans-Serif" font-size="10.00" fill="#000000">AMReX_GpuQualifiers.H</text>
</g>
<!-- Node22&#45;&gt;Node24 -->
<g id="edge43" class="edge">
<title>Node22&#45;&gt;Node24</title>
<path fill="none" stroke="#191970" d="M2107.3913,-112.2455C2102.298,-104.5367 2095.0454,-93.5598 2088.8842,-84.2348"/>
<polygon fill="#191970" stroke="#191970" points="2091.6401,-82.0566 2083.2073,-75.6427 2085.7997,-85.9155 2091.6401,-82.0566"/>
</g>
<!-- Node25 -->
<g id="node26" class="node">
<title>Node25</title>
<polygon fill="#ffffff" stroke="#bfbfbf" points="2157.8362,-56.5 2157.8362,-75.5 2267.8362,-75.5 2267.8362,-56.5 2157.8362,-56.5"/>
<text text-anchor="middle" x="2212.8362" y="-63.5" font-family="Helvetica,sans-Serif" font-size="10.00" fill="#000000">AMReX_Extension.H</text>
</g>
<!-- Node22&#45;&gt;Node25 -->
<g id="edge44" class="edge">
<title>Node22&#45;&gt;Node25</title>
<path fill="none" stroke="#191970" d="M2131.0807,-112.2455C2146.4123,-103.5731 2169.0561,-90.7645 2186.6278,-80.825"/>
<polygon fill="#191970" stroke="#191970" points="2188.8086,-83.6126 2195.7894,-75.6427 2185.3621,-77.5198 2188.8086,-83.6126"/>
</g>
<!-- Node27&#45;&gt;Node1 -->
<g id="edge54" class="edge">
<title>Node27&#45;&gt;Node1</title>
<path fill="none" stroke="#191970" d="M1300.0237,-173.8906C1335.5495,-163.2846 1392.8588,-146.1753 1431.8804,-134.5257"/>
<polygon fill="#191970" stroke="#191970" points="1433.2939,-137.7564 1441.8748,-131.5419 1431.2914,-131.0489 1433.2939,-137.7564"/>
</g>
<!-- Node27&#45;&gt;Node8 -->
<g id="edge55" class="edge">
<title>Node27&#45;&gt;Node8</title>
<path fill="none" stroke="#191970" d="M1287.8529,-173.7747C1312.6219,-160.4252 1349.4932,-135.4084 1331.8362,-112 1325.0618,-103.0189 1267.616,-88.0806 1223.2536,-77.6729"/>
<polygon fill="#191970" stroke="#191970" points="1223.9728,-74.2468 1213.4403,-75.3937 1222.3892,-81.0654 1223.9728,-74.2468"/>
</g>
<!-- Node27&#45;&gt;Node10 -->
<g id="edge53" class="edge">
<title>Node27&#45;&gt;Node10</title>
<path fill="none" stroke="#191970" d="M1195.1544,-177.491C1127.1309,-170.6377 1023.1767,-156.9936 935.8362,-132 853.1354,-108.3341 839.1472,-84.072 757.8362,-56 718.2124,-42.3201 672.3019,-30.2251 637.8847,-21.8747"/>
<polygon fill="#191970" stroke="#191970" points="638.5862,-18.4438 628.0455,-19.5134 636.9526,-25.2505 638.5862,-18.4438"/>
</g>
<!-- Node27&#45;&gt;Node19 -->
<g id="edge58" class="edge">
<title>Node27&#45;&gt;Node19</title>
<path fill="none" stroke="#191970" d="M1195.0029,-176.6165C1105.6981,-167.4448 964.1057,-150.2412 947.8362,-132 936.8851,-119.7216 937.2641,-100.4825 939.7145,-85.9375"/>
<polygon fill="#191970" stroke="#191970" points="943.1875,-86.4316 941.8389,-75.9229 936.3399,-84.979 943.1875,-86.4316"/>
</g>
<!-- Node28 -->
<g id="node29" class="node">
<title>Node28</title>
<polygon fill="#ffffff" stroke="#bfbfbf" points="1081.3362,-112.5 1081.3362,-131.5 1194.3362,-131.5 1194.3362,-112.5 1081.3362,-112.5"/>
<text text-anchor="middle" x="1137.8362" y="-119.5" font-family="Helvetica,sans-Serif" font-size="10.00" fill="#000000">AMReX_FArrayBox.H</text>
</g>
<!-- Node27&#45;&gt;Node28 -->
<g id="edge56" class="edge">
<title>Node27&#45;&gt;Node28</title>
<path fill="none" stroke="#191970" d="M1247.5237,-173.8906C1225.9632,-163.6908 1191.6885,-147.4763 1167.1919,-135.8875"/>
<polygon fill="#191970" stroke="#191970" points="1168.5424,-132.6545 1158.0061,-131.5419 1165.5489,-138.9822 1168.5424,-132.6545"/>
</g>
<!-- Node29 -->
<g id="node30" class="node">
<title>Node29</title>
<polygon fill="#ffffff" stroke="#bfbfbf" points="1212.8362,-112.5 1212.8362,-131.5 1322.8362,-131.5 1322.8362,-112.5 1212.8362,-112.5"/>
<text text-anchor="middle" x="1267.8362" y="-119.5" font-family="Helvetica,sans-Serif" font-size="10.00" fill="#000000">AMReX_Geometry.H</text>
</g>
<!-- Node27&#45;&gt;Node29 -->
<g id="edge57" class="edge">
<title>Node27&#45;&gt;Node29</title>
<path fill="none" stroke="#191970" d="M1267.8362,-173.8906C1267.8362,-165.3657 1267.8362,-152.6392 1267.8362,-141.9235"/>
<polygon fill="#191970" stroke="#191970" points="1271.3363,-141.7448 1267.8362,-131.7449 1264.3363,-141.7449 1271.3363,-141.7448"/>
</g>
<!-- Node30&#45;&gt;Node1 -->
<g id="edge61" class="edge">
<title>Node30&#45;&gt;Node1</title>
<path fill="none" stroke="#191970" d="M1749.1818,-170.3821C1686.4579,-159.3607 1597.7576,-143.7748 1538.1382,-133.2988"/>
<polygon fill="#191970" stroke="#191970" points="1538.5485,-129.8173 1528.0937,-131.5338 1537.337,-136.7117 1538.5485,-129.8173"/>
</g>
<!-- Node30&#45;&gt;Node9 -->
<g id="edge62" class="edge">
<title>Node30&#45;&gt;Node9</title>
<path fill="none" stroke="#191970" d="M1804.2761,-168.3795C1775.377,-146.0397 1721.5351,-104.4185 1692.1881,-81.7325"/>
<polygon fill="#191970" stroke="#191970" points="1694.3133,-78.9515 1684.2609,-75.6046 1690.0321,-84.4897 1694.3133,-78.9515"/>
</g>
<!-- Node31 -->
<g id="node32" class="node">
<title>Node31</title>
<polygon fill="#ffffff" stroke="#bfbfbf" points="1852.3362,-112.5 1852.3362,-131.5 1971.3362,-131.5 1971.3362,-112.5 1852.3362,-112.5"/>
<text text-anchor="middle" x="1911.8362" y="-119.5" font-family="Helvetica,sans-Serif" font-size="10.00" fill="#000000">AMReX_BC_TYPES.H</text>
</g>
<!-- Node30&#45;&gt;Node31 -->
<g id="edge63" class="edge">
<title>Node30&#45;&gt;Node31</title>
<path fill="none" stroke="#191970" d="M1845.5891,-168.2977C1859.0331,-158.9022 1876.2374,-146.8787 1889.744,-137.4395"/>
<polygon fill="#191970" stroke="#191970" points="1891.8174,-140.2605 1898.0091,-131.6633 1887.8075,-134.5228 1891.8174,-140.2605"/>
</g>
<!-- Node32 -->
<g id="node33" class="node">
<title>Node32</title>
<polygon fill="#ffffff" stroke="#bfbfbf" points="1989.8362,-112.5 1989.8362,-131.5 2029.8362,-131.5 2029.8362,-112.5 1989.8362,-112.5"/>
<text text-anchor="middle" x="2009.8362" y="-119.5" font-family="Helvetica,sans-Serif" font-size="10.00" fill="#000000">utility</text>
</g>
<!-- Node30&#45;&gt;Node32 -->
<g id="edge64" class="edge">
<title>Node30&#45;&gt;Node32</title>
<path fill="none" stroke="#191970" d="M1870.268,-168.4725C1899.3525,-159.013 1937.8471,-146.4093 1979.9547,-132.2671"/>
<polygon fill="#191970" stroke="#191970" points="1981.2063,-135.5389 1989.5681,-129.0326 1978.974,-128.9043 1981.2063,-135.5389"/>
</g>
</g>
</svg>
        <g id="navigator" transform="translate(0 0)" fill="#404254">
                <rect fill="#f2f5e9" fill-opacity="0.5" stroke="#606060" stroke-width=".5" x="0" y="0" width="60" height="60"/>
                <use id="zoomplus" xlink:href="#zoomPlus" x="17" y="9" onmousedown="handleZoom(evt,'in')"/>
                <use id="zoomminus" xlink:href="#zoomMin" x="42" y="9" onmousedown="handleZoom(evt,'out')"/>
                <use id="reset" xlink:href="#resetDef" x="30" y="36" onmousedown="handleReset()"/>
                <g id="arrowUp" xlink:href="#dirArrow" transform="translate(30 24)" onmousedown="handlePan(0,-1)">
                  <use xlink:href="#rim" fill="#404040">
                        <set attributeName="fill" to="#808080" begin="arrowUp.mouseover" end="arrowUp.mouseout"/>
                  </use>
                  <path fill="none" stroke="white" stroke-width="1.5" d="M0,-3.0v7 M-2.5,-0.5L0,-3.0L2.5,-0.5"/>
                </g>
                <g id="arrowRight" xlink:href="#dirArrow" transform="rotate(90) translate(36 -43)" onmousedown="handlePan(1,0)">
                  <use xlink:href="#rim" fill="#404040">
                        <set attributeName="fill" to="#808080" begin="arrowRight.mouseover" end="arrowRight.mouseout"/>
                  </use>
                  <path fill="none" stroke="white" stroke-width="1.5" d="M0,-3.0v7 M-2.5,-0.5L0,-3.0L2.5,-0.5"/>
                </g>
                <g id="arrowDown" xlink:href="#dirArrow" transform="rotate(180) translate(-30 -48)" onmousedown="handlePan(0,1)">
                  <use xlink:href="#rim" fill="#404040">
                        <set attributeName="fill" to="#808080" begin="arrowDown.mouseover" end="arrowDown.mouseout"/>
                  </use>
                  <path fill="none" stroke="white" stroke-width="1.5" d="M0,-3.0v7 M-2.5,-0.5L0,-3.0L2.5,-0.5"/>
                </g>
                <g id="arrowLeft" xlink:href="#dirArrow" transform="rotate(270) translate(-36 17)" onmousedown="handlePan(-1,0)">
                  <use xlink:href="#rim" fill="#404040">
                        <set attributeName="fill" to="#808080" begin="arrowLeft.mouseover" end="arrowLeft.mouseout"/>
                  </use>
                  <path fill="none" stroke="white" stroke-width="1.5" d="M0,-3.0v7 M-2.5,-0.5L0,-3.0L2.5,-0.5"/>
                </g>
        </g>
        <svg viewBox="0 0 15 15" width="100%" height="30px" preserveAspectRatio="xMaxYMin meet">
         <g id="arrow_out" transform="scale(0.3 0.3)">
          <a xlink:href="_field_8cpp__incl_org.svg" target="_base">
           <rect id="button" ry="5" rx="5" y="6" x="6" height="38" width="38"
                fill="#f2f5e9" fill-opacity="0.5" stroke="#606060" stroke-width="1.0"/>
           <path id="arrow"
             d="M 11.500037,31.436501 C 11.940474,20.09759 22.043105,11.32322 32.158766,21.979434 L 37.068811,17.246167 C 37.068811,17.246167 37.088388,32 37.088388,32 L 22.160133,31.978069 C 22.160133,31.978069 26.997745,27.140456 26.997745,27.140456 C 18.528582,18.264221 13.291696,25.230495 11.500037,31.436501 z"
             style="fill:#404040;"/>
          </a>
         </g>
        </svg>
</svg>
