<?xml version="1.0" encoding="UTF-8" standalone="no"?>
<!DOCTYPE svg PUBLIC "-//W3C//DTD SVG 1.1//EN"
 "http://www.w3.org/Graphics/SVG/1.1/DTD/svg11.dtd">
<!-- Generated by graphviz version 2.40.1 (20161225.0304)
 -->
<!-- Title: Field.H Pages: 1 -->
<svg width="933pt" height="140pt"
 viewBox="0.00 0.00 932.50 140.00" xmlns="http://www.w3.org/2000/svg" xmlns:xlink="http://www.w3.org/1999/xlink">
<g id="graph0" class="graph" transform="scale(1 1) rotate(0) translate(4 136)">
<title>Field.H</title>
<polygon fill="#ffffff" stroke="transparent" points="-4,4 -4,-136 928.5,-136 928.5,4 -4,4"/>
<!-- Node0 -->
<g id="node1" class="node">
<title>Node0</title>
<polygon fill="#bfbfbf" stroke="#000000" points="374.5,-112.5 374.5,-131.5 422.5,-131.5 422.5,-112.5 374.5,-112.5"/>
<text text-anchor="middle" x="398.5" y="-119.5" font-family="Helvetica,sans-Serif" font-size="10.00" fill="#000000">Field.H</text>
</g>
<!-- Node1 -->
<g id="node2" class="node">
<title>Node1</title>
<polygon fill="#ffffff" stroke="#bfbfbf" points="0,-.5 0,-19.5 41,-19.5 41,-.5 0,-.5"/>
<text text-anchor="middle" x="20.5" y="-7.5" font-family="Helvetica,sans-Serif" font-size="10.00" fill="#000000">string</text>
</g>
<!-- Node0&#45;&gt;Node1 -->
<g id="edge1" class="edge">
<title>Node0&#45;&gt;Node1</title>
<path fill="none" stroke="#191970" d="M374.2967,-119.5216C314.4476,-113.1664 160.9261,-95.4176 113.5,-76 84.6853,-64.2025 56.1764,-41.9922 38.4719,-26.615"/>
<polygon fill="#191970" stroke="#191970" points="40.4907,-23.7262 30.6945,-19.6906 35.8359,-28.9544 40.4907,-23.7262"/>
</g>
<!-- Node2 -->
<g id="node3" class="node">
<title>Node2</title>
<polygon fill="#ffffff" stroke="#bfbfbf" points="329.5,-56.5 329.5,-75.5 381.5,-75.5 381.5,-56.5 329.5,-56.5"/>
<text text-anchor="middle" x="355.5" y="-63.5" font-family="Helvetica,sans-Serif" font-size="10.00" fill="#000000">memory</text>
</g>
<!-- Node0&#45;&gt;Node2 -->
<g id="edge2" class="edge">
<title>Node0&#45;&gt;Node2</title>
<path fill="none" stroke="#191970" d="M391.01,-112.2455C384.9674,-104.3761 376.3097,-93.101 369.0559,-83.6542"/>
<polygon fill="#191970" stroke="#191970" points="371.7705,-81.4426 362.9042,-75.6427 366.2185,-85.7058 371.7705,-81.4426"/>
</g>
<!-- Node3 -->
<g id="node4" class="node">
<title>Node3</title>
<polygon fill="#ffffff" stroke="#bfbfbf" points="400,-56.5 400,-75.5 483,-75.5 483,-56.5 400,-56.5"/>
<text text-anchor="middle" x="441.5" y="-63.5" font-family="Helvetica,sans-Serif" font-size="10.00" fill="#000000">unordered_map</text>
</g>
<!-- Node0&#45;&gt;Node3 -->
<g id="edge3" class="edge">
<title>Node0&#45;&gt;Node3</title>
<path fill="none" stroke="#191970" d="M405.99,-112.2455C412.0326,-104.3761 420.6903,-93.101 427.9441,-83.6542"/>
<polygon fill="#191970" stroke="#191970" points="430.7815,-85.7058 434.0958,-75.6427 425.2295,-81.4426 430.7815,-85.7058"/>
</g>
<!-- Node4 -->
<g id="node5" class="node">
<title>Node4</title>
<polygon fill="#ffffff" stroke="#bfbfbf" points="501.5,-56.5 501.5,-75.5 557.5,-75.5 557.5,-56.5 501.5,-56.5"/>
<text text-anchor="middle" x="529.5" y="-63.5" font-family="Helvetica,sans-Serif" font-size="10.00" fill="#000000">algorithm</text>
</g>
<!-- Node0&#45;&gt;Node4 -->
<g id="edge4" class="edge">
<title>Node0&#45;&gt;Node4</title>
<path fill="none" stroke="#191970" d="M421.0197,-112.3733C442.2372,-103.3032 474.2276,-89.6279 497.9769,-79.4755"/>
<polygon fill="#191970" stroke="#191970" points="499.4548,-82.6502 507.2742,-75.5011 496.7033,-76.2136 499.4548,-82.6502"/>
</g>
<!-- Node5 -->
<g id="node6" class="node">
<title>Node5</title>
<polygon fill="#ffffff" stroke="#bfbfbf" points="59.5,-.5 59.5,-19.5 163.5,-19.5 163.5,-.5 59.5,-.5"/>
<text text-anchor="middle" x="111.5" y="-7.5" font-family="Helvetica,sans-Serif" font-size="10.00" fill="#000000">AMReX_MultiFab.H</text>
</g>
<!-- Node0&#45;&gt;Node5 -->
<g id="edge5" class="edge">
<title>Node0&#45;&gt;Node5</title>
<path fill="none" stroke="#191970" d="M374.2598,-121.053C315.2565,-118.2592 166.3742,-108.12 130.5,-76 117.6164,-64.4647 113.2325,-44.8165 111.8528,-29.9502"/>
<polygon fill="#191970" stroke="#191970" points="115.3346,-29.5208 111.2922,-19.7274 108.3451,-29.9041 115.3346,-29.5208"/>
</g>
<!-- Node6 -->
<g id="node7" class="node">
<title>Node6</title>
<polygon fill="#ffffff" stroke="#bfbfbf" points="576,-56.5 576,-75.5 675,-75.5 675,-56.5 576,-56.5"/>
<text text-anchor="middle" x="625.5" y="-63.5" font-family="Helvetica,sans-Serif" font-size="10.00" fill="#000000">AMReX_BCRec.H</text>
</g>
<!-- Node0&#45;&gt;Node6 -->
<g id="edge6" class="edge">
<title>Node0&#45;&gt;Node6</title>
<path fill="none" stroke="#191970" d="M422.793,-116.007C459.4183,-106.9717 529.5228,-89.6772 576.9017,-77.989"/>
<polygon fill="#191970" stroke="#191970" points="577.776,-81.3783 586.6466,-75.585 576.0994,-74.5821 577.776,-81.3783"/>
</g>
<!-- Node7 -->
<g id="node8" class="node">
<title>Node7</title>
<polygon fill="#ffffff" stroke="#bfbfbf" points="693,-56.5 693,-75.5 778,-75.5 778,-56.5 693,-56.5"/>
<text text-anchor="middle" x="735.5" y="-63.5" font-family="Helvetica,sans-Serif" font-size="10.00" fill="#000000">AMReX_Gpu.H</text>
</g>
<!-- Node0&#45;&gt;Node7 -->
<g id="edge7" class="edge">
<title>Node0&#45;&gt;Node7</title>
<path fill="none" stroke="#191970" d="M422.6527,-118.4002C470.4169,-111.2204 580.5399,-94.3654 683.0495,-76.2172"/>
<polygon fill="#191970" stroke="#191970" points="683.7112,-79.6545 692.9437,-74.4572 682.4852,-72.7627 683.7112,-79.6545"/>
</g>
<!-- Node8 -->
<g id="node9" class="node">
<title>Node8</title>
<g id="a_node9"><a xlink:href="incflo__enums_8_h.html" target="_top" xlink:title="amr&#45;wind/incflo_enums.H">
<polygon fill="#ffffff" stroke="#000000" points="796.5,-56.5 796.5,-75.5 924.5,-75.5 924.5,-56.5 796.5,-56.5"/>
<text text-anchor="middle" x="860.5" y="-63.5" font-family="Helvetica,sans-Serif" font-size="10.00" fill="#000000">amr&#45;wind/incflo_enums.H</text>
</a>
</g>
</g>
<!-- Node0&#45;&gt;Node8 -->
<g id="edge8" class="edge">
<title>Node0&#45;&gt;Node8</title>
<path fill="none" stroke="#191970" d="M422.6458,-119.3014C482.3919,-112.5908 642.1534,-94.4438 786.4912,-76.1107"/>
<polygon fill="#191970" stroke="#191970" points="786.9371,-79.5823 796.4148,-74.8468 786.0527,-72.6384 786.9371,-79.5823"/>
</g>
<!-- Node9 -->
<g id="node10" class="node">
<title>Node9</title>
<g id="a_node10"><a xlink:href="_field_desc_types_8_h.html" target="_top" xlink:title="amr&#45;wind/core/FieldDescTypes.H">
<polygon fill="#ffffff" stroke="#000000" points="295,-.5 295,-19.5 458,-19.5 458,-.5 295,-.5"/>
<text text-anchor="middle" x="376.5" y="-7.5" font-family="Helvetica,sans-Serif" font-size="10.00" fill="#000000">amr&#45;wind/core/FieldDescTypes.H</text>
</a>
</g>
</g>
<!-- Node0&#45;&gt;Node9 -->
<g id="edge9" class="edge">
<title>Node0&#45;&gt;Node9</title>
<path fill="none" stroke="#191970" d="M374.3539,-114.9974C355.9797,-108.2559 331.9624,-96.0671 320.5,-76 309.4475,-56.6505 329.9894,-37.5722 349.2318,-24.9434"/>
<polygon fill="#191970" stroke="#191970" points="351.1913,-27.8471 357.8633,-19.617 347.5152,-21.89 351.1913,-27.8471"/>
</g>
<!-- Node10 -->
<g id="node11" class="node">
<title>Node10</title>
<g id="a_node11"><a xlink:href="_view_field_8_h.html" target="_top" xlink:title="amr&#45;wind/core/ViewField.H">
<polygon fill="#ffffff" stroke="#000000" points="139.5,-56.5 139.5,-75.5 273.5,-75.5 273.5,-56.5 139.5,-56.5"/>
<text text-anchor="middle" x="206.5" y="-63.5" font-family="Helvetica,sans-Serif" font-size="10.00" fill="#000000">amr&#45;wind/core/ViewField.H</text>
</a>
</g>
</g>
<!-- Node0&#45;&gt;Node10 -->
<g id="edge10" class="edge">
<title>Node0&#45;&gt;Node10</title>
<path fill="none" stroke="#191970" d="M374.1831,-114.9076C342.7816,-105.7488 287.6067,-89.6561 249.1574,-78.4417"/>
<polygon fill="#191970" stroke="#191970" points="249.8593,-75.0007 239.2793,-75.5606 247.8993,-81.7207 249.8593,-75.0007"/>
</g>
<!-- Node10&#45;&gt;Node1 -->
<g id="edge11" class="edge">
<title>Node10&#45;&gt;Node1</title>
<path fill="none" stroke="#191970" d="M172.9233,-56.4671C143.24,-47.9581 98.5507,-34.9502 50.7287,-19.9967"/>
<polygon fill="#191970" stroke="#191970" points="51.7153,-16.638 41.126,-16.9808 49.6178,-23.3164 51.7153,-16.638"/>
</g>
<!-- Node10&#45;&gt;Node5 -->
<g id="edge13" class="edge">
<title>Node10&#45;&gt;Node5</title>
<path fill="none" stroke="#191970" d="M189.9523,-56.2455C175.2401,-47.5731 153.5112,-34.7645 136.6495,-24.825"/>
<polygon fill="#191970" stroke="#191970" points="138.2502,-21.7057 127.8581,-19.6427 134.6954,-27.736 138.2502,-21.7057"/>
</g>
<!-- Node10&#45;&gt;Node9 -->
<g id="edge12" class="edge">
<title>Node10&#45;&gt;Node9</title>
<path fill="none" stroke="#191970" d="M235.724,-56.3733C263.9925,-47.0613 306.9965,-32.8953 338.0344,-22.671"/>
<polygon fill="#191970" stroke="#191970" points="339.2544,-25.9542 347.6573,-19.5011 337.0643,-19.3056 339.2544,-25.9542"/>
</g>
<!-- Node11 -->
<g id="node12" class="node">
<title>Node11</title>
<polygon fill="#ffffff" stroke="#bfbfbf" points="182,-.5 182,-19.5 277,-19.5 277,-.5 182,-.5"/>
<text text-anchor="middle" x="229.5" y="-7.5" font-family="Helvetica,sans-Serif" font-size="10.00" fill="#000000">AMReX_Vector.H</text>
</g>
<!-- Node10&#45;&gt;Node11 -->
<g id="edge14" class="edge">
<title>Node10&#45;&gt;Node11</title>
<path fill="none" stroke="#191970" d="M210.5063,-56.2455C213.5735,-48.7776 217.9003,-38.2427 221.6497,-29.1137"/>
<polygon fill="#191970" stroke="#191970" points="224.9779,-30.2226 225.5396,-19.6427 218.5028,-27.5631 224.9779,-30.2226"/>
</g>
</g>
</svg>
