<?xml version="1.0" encoding="UTF-8" standalone="no"?>
<!DOCTYPE svg PUBLIC "-//W3C//DTD SVG 1.1//EN"
 "http://www.w3.org/Graphics/SVG/1.1/DTD/svg11.dtd">
<!-- Generated by graphviz version 2.40.1 (20161225.0304)
 -->
<!-- Title: FieldPlaneAveraging.cpp Pages: 1 -->
<svg width="2263pt" height="408pt"
 viewBox="0.00 0.00 2262.50 408.00" xmlns="http://www.w3.org/2000/svg" xmlns:xlink="http://www.w3.org/1999/xlink">
<g id="graph0" class="graph" transform="scale(1 1) rotate(0) translate(4 404)">
<title>FieldPlaneAveraging.cpp</title>
<polygon fill="#ffffff" stroke="transparent" points="-4,4 -4,-404 2258.5,-404 2258.5,4 -4,4"/>
<!-- Node0 -->
<g id="node1" class="node">
<title>Node0</title>
<polygon fill="#bfbfbf" stroke="#000000" points="1037.5,-380.5 1037.5,-399.5 1162.5,-399.5 1162.5,-380.5 1037.5,-380.5"/>
<text text-anchor="middle" x="1100" y="-387.5" font-family="Helvetica,sans-Serif" font-size="10.00" fill="#000000">FieldPlaneAveraging.cpp</text>
</g>
<!-- Node1 -->
<g id="node2" class="node">
<title>Node1</title>
<g id="a_node2"><a xlink:href="_field_plane_averaging_8_h.html" target="_top" xlink:title="amr&#45;wind/utilities\l/FieldPlaneAveraging.H">
<polygon fill="#ffffff" stroke="#000000" points="524.5,-313.5 524.5,-343.5 643.5,-343.5 643.5,-313.5 524.5,-313.5"/>
<text text-anchor="start" x="532.5" y="-331.5" font-family="Helvetica,sans-Serif" font-size="10.00" fill="#000000">amr&#45;wind/utilities</text>
<text text-anchor="middle" x="584" y="-320.5" font-family="Helvetica,sans-Serif" font-size="10.00" fill="#000000">/FieldPlaneAveraging.H</text>
</a>
</g>
</g>
<!-- Node0&#45;&gt;Node1 -->
<g id="edge1" class="edge">
<title>Node0&#45;&gt;Node1</title>
<path fill="none" stroke="#191970" d="M1037.2441,-382.5204C940.2589,-370.9611 754.6286,-348.8366 653.6319,-336.7992"/>
<polygon fill="#191970" stroke="#191970" points="653.8767,-333.3036 643.5327,-335.5955 653.0482,-340.2544 653.8767,-333.3036"/>
</g>
<!-- Node20 -->
<g id="node21" class="node">
<title>Node20</title>
<polygon fill="#ffffff" stroke="#bfbfbf" points="1586,-62 1586,-81 1642,-81 1642,-62 1586,-62"/>
<text text-anchor="middle" x="1614" y="-69" font-family="Helvetica,sans-Serif" font-size="10.00" fill="#000000">algorithm</text>
</g>
<!-- Node0&#45;&gt;Node20 -->
<g id="edge72" class="edge">
<title>Node0&#45;&gt;Node20</title>
<path fill="none" stroke="#191970" d="M1162.5738,-384.8851C1332.1733,-370.1879 1788,-324.7991 1788,-261.5 1788,-261.5 1788,-261.5 1788,-200 1788,-164.3539 1692.311,-110.9096 1642.8546,-85.6677"/>
<polygon fill="#191970" stroke="#191970" points="1644.1263,-82.3891 1633.6218,-81.009 1640.9729,-88.6386 1644.1263,-82.3891"/>
</g>
<!-- Node39 -->
<g id="node40" class="node">
<title>Node39</title>
<g id="a_node40"><a xlink:href="incflo_8_h.html" target="_top" xlink:title="amr&#45;wind/incflo.H">
<polygon fill="#ffffff" stroke="#000000" points="1053.5,-319 1053.5,-338 1146.5,-338 1146.5,-319 1053.5,-319"/>
<text text-anchor="middle" x="1100" y="-326" font-family="Helvetica,sans-Serif" font-size="10.00" fill="#000000">amr&#45;wind/incflo.H</text>
</a>
</g>
</g>
<!-- Node0&#45;&gt;Node39 -->
<g id="edge73" class="edge">
<title>Node0&#45;&gt;Node39</title>
<path fill="none" stroke="#191970" d="M1100,-380.3906C1100,-371.8657 1100,-359.1392 1100,-348.4235"/>
<polygon fill="#191970" stroke="#191970" points="1103.5001,-348.2448 1100,-338.2449 1096.5001,-348.2449 1103.5001,-348.2448"/>
</g>
<!-- Node2 -->
<g id="node3" class="node">
<title>Node2</title>
<g id="a_node3"><a xlink:href="_direction_selector_8_h.html" target="_top" xlink:title="amr&#45;wind/utilities\l/DirectionSelector.H">
<polygon fill="#ffffff" stroke="#000000" points="199.5,-246.5 199.5,-276.5 304.5,-276.5 304.5,-246.5 199.5,-246.5"/>
<text text-anchor="start" x="207.5" y="-264.5" font-family="Helvetica,sans-Serif" font-size="10.00" fill="#000000">amr&#45;wind/utilities</text>
<text text-anchor="middle" x="252" y="-253.5" font-family="Helvetica,sans-Serif" font-size="10.00" fill="#000000">/DirectionSelector.H</text>
</a>
</g>
</g>
<!-- Node1&#45;&gt;Node2 -->
<g id="edge2" class="edge">
<title>Node1&#45;&gt;Node2</title>
<path fill="none" stroke="#191970" d="M524.2616,-316.4444C465.1409,-304.5134 374.9977,-286.3218 314.825,-274.1785"/>
<polygon fill="#191970" stroke="#191970" points="315.1893,-270.6816 304.6945,-272.1341 313.8045,-277.5432 315.1893,-270.6816"/>
</g>
<!-- Node5 -->
<g id="node6" class="node">
<title>Node5</title>
<g id="a_node6"><a xlink:href="_c_f_d_sim_8_h.html" target="_top" xlink:title="amr&#45;wind/CFDSim.H">
<polygon fill="#ffffff" stroke="#000000" points="530,-252 530,-271 638,-271 638,-252 530,-252"/>
<text text-anchor="middle" x="584" y="-259" font-family="Helvetica,sans-Serif" font-size="10.00" fill="#000000">amr&#45;wind/CFDSim.H</text>
</a>
</g>
</g>
<!-- Node1&#45;&gt;Node5 -->
<g id="edge5" class="edge">
<title>Node1&#45;&gt;Node5</title>
<path fill="none" stroke="#191970" d="M584,-313.2967C584,-303.7699 584,-291.3954 584,-281.1306"/>
<polygon fill="#191970" stroke="#191970" points="587.5001,-281.0549 584,-271.055 580.5001,-281.055 587.5001,-281.0549"/>
</g>
<!-- Node7 -->
<g id="node8" class="node">
<title>Node7</title>
<g id="a_node8"><a xlink:href="_sim_time_8_h.html" target="_top" xlink:title="amr&#45;wind/core/SimTime.H">
<polygon fill="#ffffff" stroke="#000000" points="436.5,-190.5 436.5,-209.5 567.5,-209.5 567.5,-190.5 436.5,-190.5"/>
<text text-anchor="middle" x="502" y="-197.5" font-family="Helvetica,sans-Serif" font-size="10.00" fill="#000000">amr&#45;wind/core/SimTime.H</text>
</a>
</g>
</g>
<!-- Node1&#45;&gt;Node7 -->
<g id="edge71" class="edge">
<title>Node1&#45;&gt;Node7</title>
<path fill="none" stroke="#191970" d="M533.3397,-313.4444C515.8371,-305.5435 498.0996,-293.8792 488,-277 477.3697,-259.2339 484.354,-235.3375 491.75,-218.9027"/>
<polygon fill="#191970" stroke="#191970" points="494.9766,-220.2729 496.2545,-209.7554 488.6967,-217.1804 494.9766,-220.2729"/>
</g>
<!-- Node18 -->
<g id="node19" class="node">
<title>Node18</title>
<g id="a_node19"><a xlink:href="_field_8_h.html" target="_top" xlink:title="amr&#45;wind/core/Field.H">
<polygon fill="#ffffff" stroke="#000000" points="1083.5,-129 1083.5,-148 1196.5,-148 1196.5,-129 1083.5,-129"/>
<text text-anchor="middle" x="1140" y="-136" font-family="Helvetica,sans-Serif" font-size="10.00" fill="#000000">amr&#45;wind/core/Field.H</text>
</a>
</g>
</g>
<!-- Node1&#45;&gt;Node18 -->
<g id="edge70" class="edge">
<title>Node1&#45;&gt;Node18</title>
<path fill="none" stroke="#191970" d="M602.4588,-313.4009C631.5215,-289.6308 684.705,-246.1456 685,-246 753.6604,-212.1135 968.2407,-169.7878 1076.373,-149.8664"/>
<polygon fill="#191970" stroke="#191970" points="1077.2922,-153.2562 1086.4966,-148.0095 1076.0293,-146.3711 1077.2922,-153.2562"/>
</g>
<!-- Node3 -->
<g id="node4" class="node">
<title>Node3</title>
<polygon fill="#ffffff" stroke="#bfbfbf" points="210,-190.5 210,-209.5 294,-209.5 294,-190.5 210,-190.5"/>
<text text-anchor="middle" x="252" y="-197.5" font-family="Helvetica,sans-Serif" font-size="10.00" fill="#000000">AMReX_Box.H</text>
</g>
<!-- Node2&#45;&gt;Node3 -->
<g id="edge3" class="edge">
<title>Node2&#45;&gt;Node3</title>
<path fill="none" stroke="#191970" d="M252,-246.2977C252,-238.3834 252,-228.6043 252,-220.0759"/>
<polygon fill="#191970" stroke="#191970" points="255.5001,-219.8469 252,-209.8469 248.5001,-219.847 255.5001,-219.8469"/>
</g>
<!-- Node4 -->
<g id="node5" class="node">
<title>Node4</title>
<polygon fill="#ffffff" stroke="#bfbfbf" points="428.5,-62 428.5,-81 513.5,-81 513.5,-62 428.5,-62"/>
<text text-anchor="middle" x="471" y="-69" font-family="Helvetica,sans-Serif" font-size="10.00" fill="#000000">AMReX_Gpu.H</text>
</g>
<!-- Node2&#45;&gt;Node4 -->
<g id="edge4" class="edge">
<title>Node2&#45;&gt;Node4</title>
<path fill="none" stroke="#191970" d="M231.6418,-246.3754C197.9531,-219.5686 137.5792,-162.8013 172,-123 208.2839,-81.0444 364.8346,-98.9539 419,-87 423.1913,-86.075 427.5378,-84.9883 431.8516,-83.8267"/>
<polygon fill="#191970" stroke="#191970" points="433.0993,-87.1112 441.769,-81.0214 431.1939,-80.3755 433.0993,-87.1112"/>
</g>
<!-- Node6 -->
<g id="node7" class="node">
<title>Node6</title>
<polygon fill="#ffffff" stroke="#bfbfbf" points="921,-129 921,-148 1027,-148 1027,-129 921,-129"/>
<text text-anchor="middle" x="974" y="-136" font-family="Helvetica,sans-Serif" font-size="10.00" fill="#000000">AMReX_AmrCore.H</text>
</g>
<!-- Node5&#45;&gt;Node6 -->
<g id="edge6" class="edge">
<title>Node5&#45;&gt;Node6</title>
<path fill="none" stroke="#191970" d="M614.2781,-251.9507C683.9031,-229.9921 855.4044,-175.9032 933.7671,-151.1888"/>
<polygon fill="#191970" stroke="#191970" points="935.257,-154.389 943.7412,-148.0432 933.1515,-147.7131 935.257,-154.389"/>
</g>
<!-- Node5&#45;&gt;Node7 -->
<g id="edge7" class="edge">
<title>Node5&#45;&gt;Node7</title>
<path fill="none" stroke="#191970" d="M571.1875,-251.8906C558.3099,-242.2324 538.2416,-227.1812 523.028,-215.771"/>
<polygon fill="#191970" stroke="#191970" points="524.8226,-212.7419 514.7225,-209.5419 520.6225,-218.3419 524.8226,-212.7419"/>
</g>
<!-- Node11 -->
<g id="node12" class="node">
<title>Node11</title>
<g id="a_node12"><a xlink:href="_field_repo_8_h.html" target="_top" xlink:title="amr&#45;wind/core/FieldRepo.H">
<polygon fill="#ffffff" stroke="#000000" points="1307,-190.5 1307,-209.5 1443,-209.5 1443,-190.5 1307,-190.5"/>
<text text-anchor="middle" x="1375" y="-197.5" font-family="Helvetica,sans-Serif" font-size="10.00" fill="#000000">amr&#45;wind/core/FieldRepo.H</text>
</a>
</g>
</g>
<!-- Node5&#45;&gt;Node11 -->
<g id="edge11" class="edge">
<title>Node5&#45;&gt;Node11</title>
<path fill="none" stroke="#191970" d="M638.1384,-252.3169C653.2701,-249.9887 669.7467,-247.6758 685,-246 906.057,-221.7143 1168.4649,-208.49 1296.6484,-203.0345"/>
<polygon fill="#191970" stroke="#191970" points="1296.92,-206.5263 1306.7637,-202.6083 1296.6252,-199.5325 1296.92,-206.5263"/>
</g>
<!-- Node29 -->
<g id="node30" class="node">
<title>Node29</title>
<g id="a_node30"><a xlink:href="_p_d_e_base_8_h.html" target="_top" xlink:title="amr&#45;wind/equation_systems\l/PDEBase.H">
<polygon fill="#ffffff" stroke="#000000" points="711.5,-123.5 711.5,-153.5 850.5,-153.5 850.5,-123.5 711.5,-123.5"/>
<text text-anchor="start" x="719.5" y="-141.5" font-family="Helvetica,sans-Serif" font-size="10.00" fill="#000000">amr&#45;wind/equation_systems</text>
<text text-anchor="middle" x="781" y="-130.5" font-family="Helvetica,sans-Serif" font-size="10.00" fill="#000000">/PDEBase.H</text>
</a>
</g>
</g>
<!-- Node5&#45;&gt;Node29 -->
<g id="edge48" class="edge">
<title>Node5&#45;&gt;Node29</title>
<path fill="none" stroke="#191970" d="M599.4583,-251.8484C631.3832,-231.9156 705.2054,-185.8235 748.2354,-158.9571"/>
<polygon fill="#191970" stroke="#191970" points="750.2953,-161.7972 756.924,-153.5322 746.5879,-155.8595 750.2953,-161.7972"/>
</g>
<!-- Node37 -->
<g id="node38" class="node">
<title>Node37</title>
<g id="a_node38"><a xlink:href="_physics_8_h.html" target="_top" xlink:title="amr&#45;wind/core/Physics.H">
<polygon fill="#ffffff" stroke="#000000" points="181.5,-129 181.5,-148 308.5,-148 308.5,-129 181.5,-129"/>
<text text-anchor="middle" x="245" y="-136" font-family="Helvetica,sans-Serif" font-size="10.00" fill="#000000">amr&#45;wind/core/Physics.H</text>
</a>
</g>
</g>
<!-- Node5&#45;&gt;Node37 -->
<g id="edge65" class="edge">
<title>Node5&#45;&gt;Node37</title>
<path fill="none" stroke="#191970" d="M553.1366,-251.9519C521.3472,-241.9829 470.4528,-225.6476 427,-210 374.3024,-191.0232 313.9346,-166.8086 277.6719,-151.9898"/>
<polygon fill="#191970" stroke="#191970" points="278.69,-148.6246 268.1096,-148.0715 276.0358,-155.1019 278.69,-148.6246"/>
</g>
<!-- Node8 -->
<g id="node9" class="node">
<title>Node8</title>
<polygon fill="#ffffff" stroke="#bfbfbf" points="455.5,-129 455.5,-148 548.5,-148 548.5,-129 455.5,-129"/>
<text text-anchor="middle" x="502" y="-136" font-family="Helvetica,sans-Serif" font-size="10.00" fill="#000000">AMReX_REAL.H</text>
</g>
<!-- Node7&#45;&gt;Node8 -->
<g id="edge8" class="edge">
<title>Node7&#45;&gt;Node8</title>
<path fill="none" stroke="#191970" d="M502,-190.3906C502,-181.8657 502,-169.1392 502,-158.4235"/>
<polygon fill="#191970" stroke="#191970" points="505.5001,-158.2448 502,-148.2449 498.5001,-158.2449 505.5001,-158.2448"/>
</g>
<!-- Node9 -->
<g id="node10" class="node">
<title>Node9</title>
<polygon fill="#ffffff" stroke="#bfbfbf" points="567,-129 567,-148 693,-148 693,-129 567,-129"/>
<text text-anchor="middle" x="630" y="-136" font-family="Helvetica,sans-Serif" font-size="10.00" fill="#000000">AMReX_GpuQualifiers.H</text>
</g>
<!-- Node7&#45;&gt;Node9 -->
<g id="edge9" class="edge">
<title>Node7&#45;&gt;Node9</title>
<path fill="none" stroke="#191970" d="M522,-190.3906C543.2289,-180.1908 576.9762,-163.9763 601.096,-152.3875"/>
<polygon fill="#191970" stroke="#191970" points="602.6426,-155.5275 610.1404,-148.0419 599.6111,-149.2179 602.6426,-155.5275"/>
</g>
<!-- Node10 -->
<g id="node11" class="node">
<title>Node10</title>
<polygon fill="#ffffff" stroke="#bfbfbf" points="327,-129 327,-148 437,-148 437,-129 327,-129"/>
<text text-anchor="middle" x="382" y="-136" font-family="Helvetica,sans-Serif" font-size="10.00" fill="#000000">AMReX_Extension.H</text>
</g>
<!-- Node7&#45;&gt;Node10 -->
<g id="edge10" class="edge">
<title>Node7&#45;&gt;Node10</title>
<path fill="none" stroke="#191970" d="M483.25,-190.3906C463.524,-180.2811 432.2688,-164.2628 409.7,-152.6962"/>
<polygon fill="#191970" stroke="#191970" points="411.114,-149.4881 400.6183,-148.0419 407.9213,-155.7176 411.114,-149.4881"/>
</g>
<!-- Node11&#45;&gt;Node6 -->
<g id="edge45" class="edge">
<title>Node11&#45;&gt;Node6</title>
<path fill="none" stroke="#191970" d="M1312.9468,-190.4876C1252.2801,-181.1871 1157.2909,-166.6234 1075,-154 1062.755,-152.1216 1049.6751,-150.1147 1037.1268,-148.1891"/>
<polygon fill="#191970" stroke="#191970" points="1037.6187,-144.7237 1027.2035,-146.6662 1036.5568,-151.6427 1037.6187,-144.7237"/>
</g>
<!-- Node12 -->
<g id="node13" class="node">
<title>Node12</title>
<polygon fill="#ffffff" stroke="#bfbfbf" points="1290.5,-.5 1290.5,-19.5 1331.5,-19.5 1331.5,-.5 1290.5,-.5"/>
<text text-anchor="middle" x="1311" y="-7.5" font-family="Helvetica,sans-Serif" font-size="10.00" fill="#000000">string</text>
</g>
<!-- Node11&#45;&gt;Node12 -->
<g id="edge12" class="edge">
<title>Node11&#45;&gt;Node12</title>
<path fill="none" stroke="#191970" d="M1366.8156,-190.3817C1359.6125,-181.4725 1349.3152,-167.5857 1343,-154 1323.6444,-112.3612 1315.7043,-58.4119 1312.6839,-29.8212"/>
<polygon fill="#191970" stroke="#191970" points="1316.1373,-29.1666 1311.6986,-19.5464 1309.1692,-29.8348 1316.1373,-29.1666"/>
</g>
<!-- Node13 -->
<g id="node14" class="node">
<title>Node13</title>
<polygon fill="#ffffff" stroke="#bfbfbf" points="767.5,-.5 767.5,-19.5 850.5,-19.5 850.5,-.5 767.5,-.5"/>
<text text-anchor="middle" x="809" y="-7.5" font-family="Helvetica,sans-Serif" font-size="10.00" fill="#000000">unordered_map</text>
</g>
<!-- Node11&#45;&gt;Node13 -->
<g id="edge13" class="edge">
<title>Node11&#45;&gt;Node13</title>
<path fill="none" stroke="#191970" d="M1362.076,-190.3256C1326.0715,-163.9146 1220.7115,-90.2723 1121,-56 1032.7128,-25.6544 923.6236,-15.3255 860.6084,-11.8111"/>
<polygon fill="#191970" stroke="#191970" points="860.6928,-8.3108 850.5241,-11.2852 860.3282,-15.3013 860.6928,-8.3108"/>
</g>
<!-- Node14 -->
<g id="node15" class="node">
<title>Node14</title>
<g id="a_node15"><a xlink:href="_field_desc_types_8_h.html" target="_top" xlink:title="amr&#45;wind/core/FieldDescTypes.H">
<polygon fill="#ffffff" stroke="#000000" points="1734.5,-.5 1734.5,-19.5 1897.5,-19.5 1897.5,-.5 1734.5,-.5"/>
<text text-anchor="middle" x="1816" y="-7.5" font-family="Helvetica,sans-Serif" font-size="10.00" fill="#000000">amr&#45;wind/core/FieldDescTypes.H</text>
</a>
</g>
</g>
<!-- Node11&#45;&gt;Node14 -->
<g id="edge14" class="edge">
<title>Node11&#45;&gt;Node14</title>
<path fill="none" stroke="#191970" d="M1443.2284,-196.983C1591.6675,-190.0887 1932.0584,-172.3536 1949,-154 1971.6286,-129.4854 1933.579,-67.8883 1922,-56 1906.9127,-40.5097 1885.7384,-29.9088 1866.2776,-22.826"/>
<polygon fill="#191970" stroke="#191970" points="1867.1928,-19.4403 1856.5983,-19.5308 1864.9368,-26.0669 1867.1928,-19.4403"/>
</g>
<!-- Node15 -->
<g id="node16" class="node">
<title>Node15</title>
<g id="a_node16"><a xlink:href="_field_utils_8_h.html" target="_top" xlink:title="amr&#45;wind/core/FieldUtils.H">
<polygon fill="#ffffff" stroke="#000000" points="1996.5,-62 1996.5,-81 2129.5,-81 2129.5,-62 1996.5,-62"/>
<text text-anchor="middle" x="2063" y="-69" font-family="Helvetica,sans-Serif" font-size="10.00" fill="#000000">amr&#45;wind/core/FieldUtils.H</text>
</a>
</g>
</g>
<!-- Node11&#45;&gt;Node15 -->
<g id="edge15" class="edge">
<title>Node11&#45;&gt;Node15</title>
<path fill="none" stroke="#191970" d="M1443.1071,-197.5354C1591.4106,-191.7818 1934.1414,-176.2454 1982,-154 2012.3272,-139.9035 2037.4888,-109.2103 2051.3626,-89.4948"/>
<polygon fill="#191970" stroke="#191970" points="2054.3645,-91.304 2057.0805,-81.0632 2048.5711,-87.3751 2054.3645,-91.304"/>
</g>
<!-- Node16 -->
<g id="node17" class="node">
<title>Node16</title>
<polygon fill="#ffffff" stroke="#bfbfbf" points="1421,-.5 1421,-19.5 1525,-19.5 1525,-.5 1421,-.5"/>
<text text-anchor="middle" x="1473" y="-7.5" font-family="Helvetica,sans-Serif" font-size="10.00" fill="#000000">AMReX_MultiFab.H</text>
</g>
<!-- Node11&#45;&gt;Node16 -->
<g id="edge46" class="edge">
<title>Node11&#45;&gt;Node16</title>
<path fill="none" stroke="#191970" d="M1443.2047,-191.7664C1551.2903,-177.1608 1754.1136,-142.8811 1797,-87 1805.3883,-76.07 1806.0317,-66.4046 1797,-56 1780.1004,-36.5316 1624.2943,-21.546 1535.0473,-14.473"/>
<polygon fill="#191970" stroke="#191970" points="1535.2794,-10.9806 1525.037,-13.6907 1534.7339,-17.9593 1535.2794,-10.9806"/>
</g>
<!-- Node11&#45;&gt;Node18 -->
<g id="edge19" class="edge">
<title>Node11&#45;&gt;Node18</title>
<path fill="none" stroke="#191970" d="M1338.5391,-190.4581C1297.5485,-179.7308 1230.9031,-162.2895 1186.274,-150.61"/>
<polygon fill="#191970" stroke="#191970" points="1187.1068,-147.2101 1176.5464,-148.0643 1185.3345,-153.9821 1187.1068,-147.2101"/>
</g>
<!-- Node25 -->
<g id="node26" class="node">
<title>Node25</title>
<g id="a_node26"><a xlink:href="_int_field_8_h.html" target="_top" xlink:title="amr&#45;wind/core/IntField.H">
<polygon fill="#ffffff" stroke="#000000" points="1816,-129 1816,-148 1940,-148 1940,-129 1816,-129"/>
<text text-anchor="middle" x="1878" y="-136" font-family="Helvetica,sans-Serif" font-size="10.00" fill="#000000">amr&#45;wind/core/IntField.H</text>
</a>
</g>
</g>
<!-- Node11&#45;&gt;Node25 -->
<g id="edge34" class="edge">
<title>Node11&#45;&gt;Node25</title>
<path fill="none" stroke="#191970" d="M1443.206,-192.2989C1520.91,-183.4407 1651.6748,-168.2764 1764,-154 1777.5527,-152.2775 1792.0014,-150.3689 1805.8997,-148.4967"/>
<polygon fill="#191970" stroke="#191970" points="1806.4617,-151.9526 1815.9019,-147.143 1805.5228,-145.0159 1806.4617,-151.9526"/>
</g>
<!-- Node26 -->
<g id="node27" class="node">
<title>Node26</title>
<polygon fill="#ffffff" stroke="#bfbfbf" points="2147.5,-62 2147.5,-81 2254.5,-81 2254.5,-62 2147.5,-62"/>
<text text-anchor="middle" x="2201" y="-69" font-family="Helvetica,sans-Serif" font-size="10.00" fill="#000000">AMReX_iMultiFab.H</text>
</g>
<!-- Node11&#45;&gt;Node26 -->
<g id="edge47" class="edge">
<title>Node11&#45;&gt;Node26</title>
<path fill="none" stroke="#191970" d="M1443.1077,-198.0959C1585.2314,-193.6359 1909.0612,-180.8006 2016,-154 2076.1784,-138.9183 2141.2701,-105.4449 2175.9258,-86.0899"/>
<polygon fill="#191970" stroke="#191970" points="2177.8844,-89.0032 2184.864,-81.0322 2174.4371,-82.9109 2177.8844,-89.0032"/>
</g>
<!-- Node27 -->
<g id="node28" class="node">
<title>Node27</title>
<g id="a_node28"><a xlink:href="_scratch_field_8_h.html" target="_top" xlink:title="amr&#45;wind/core/ScratchField.H">
<polygon fill="#ffffff" stroke="#000000" points="1352,-129 1352,-148 1498,-148 1498,-129 1352,-129"/>
<text text-anchor="middle" x="1425" y="-136" font-family="Helvetica,sans-Serif" font-size="10.00" fill="#000000">amr&#45;wind/core/ScratchField.H</text>
</a>
</g>
</g>
<!-- Node11&#45;&gt;Node27 -->
<g id="edge38" class="edge">
<title>Node11&#45;&gt;Node27</title>
<path fill="none" stroke="#191970" d="M1382.8125,-190.3906C1390.254,-181.2376 1401.6334,-167.2409 1410.6992,-156.09"/>
<polygon fill="#191970" stroke="#191970" points="1413.4847,-158.212 1417.0774,-148.2449 1408.0533,-153.7962 1413.4847,-158.212"/>
</g>
<!-- Node15&#45;&gt;Node14 -->
<g id="edge16" class="edge">
<title>Node15&#45;&gt;Node14</title>
<path fill="none" stroke="#191970" d="M2024.6773,-61.9581C1981.503,-51.2082 1911.2505,-33.7162 1864.3416,-22.0365"/>
<polygon fill="#191970" stroke="#191970" points="1864.962,-18.5842 1854.4126,-19.5643 1863.2707,-25.3768 1864.962,-18.5842"/>
</g>
<!-- Node15&#45;&gt;Node16 -->
<g id="edge17" class="edge">
<title>Node15&#45;&gt;Node16</title>
<path fill="none" stroke="#191970" d="M1996.4664,-64.5647C1881.4685,-52.5776 1647.1221,-28.15 1535.2013,-16.4837"/>
<polygon fill="#191970" stroke="#191970" points="1535.3936,-12.9849 1525.0846,-15.4292 1534.6678,-19.9471 1535.3936,-12.9849"/>
</g>
<!-- Node17 -->
<g id="node18" class="node">
<title>Node17</title>
<polygon fill="#ffffff" stroke="#bfbfbf" points="2005,-.5 2005,-19.5 2121,-19.5 2121,-.5 2005,-.5"/>
<text text-anchor="middle" x="2063" y="-7.5" font-family="Helvetica,sans-Serif" font-size="10.00" fill="#000000">AMReX_Interpolater.H</text>
</g>
<!-- Node15&#45;&gt;Node17 -->
<g id="edge18" class="edge">
<title>Node15&#45;&gt;Node17</title>
<path fill="none" stroke="#191970" d="M2063,-61.8906C2063,-53.3657 2063,-40.6392 2063,-29.9235"/>
<polygon fill="#191970" stroke="#191970" points="2066.5001,-29.7448 2063,-19.7449 2059.5001,-29.7449 2066.5001,-29.7448"/>
</g>
<!-- Node18&#45;&gt;Node4 -->
<g id="edge26" class="edge">
<title>Node18&#45;&gt;Node4</title>
<path fill="none" stroke="#191970" d="M1083.4284,-129.2583C1068.071,-126.971 1051.4241,-124.6934 1036,-123 811.0079,-98.2989 751.1525,-124.8759 528,-87 522.6288,-86.0883 517.0321,-84.8875 511.5349,-83.5569"/>
<polygon fill="#191970" stroke="#191970" points="512.3744,-80.159 501.8176,-81.0559 510.6296,-86.938 512.3744,-80.159"/>
</g>
<!-- Node18&#45;&gt;Node12 -->
<g id="edge20" class="edge">
<title>Node18&#45;&gt;Node12</title>
<path fill="none" stroke="#191970" d="M1145.0325,-128.7869C1154.2346,-111.8745 1175.3078,-76.8374 1202,-56 1214.7614,-46.0377 1253.1379,-30.902 1280.7438,-20.7418"/>
<polygon fill="#191970" stroke="#191970" points="1282.1595,-23.9512 1290.3597,-17.2425 1279.7657,-17.3732 1282.1595,-23.9512"/>
</g>
<!-- Node18&#45;&gt;Node13 -->
<g id="edge22" class="edge">
<title>Node18&#45;&gt;Node13</title>
<path fill="none" stroke="#191970" d="M1106.2935,-128.9477C1077.9581,-120.177 1036.9252,-105.712 1004,-87 984.7496,-76.0596 984.6483,-66.2086 965,-56 932.1035,-38.9082 891.9181,-27.2487 860.5725,-19.945"/>
<polygon fill="#191970" stroke="#191970" points="861.2514,-16.5103 850.7264,-17.7254 859.7119,-23.3389 861.2514,-16.5103"/>
</g>
<!-- Node18&#45;&gt;Node14 -->
<g id="edge28" class="edge">
<title>Node18&#45;&gt;Node14</title>
<path fill="none" stroke="#191970" d="M1196.5216,-134.7492C1268.3272,-129.0073 1395.5912,-115.5493 1501,-87 1536.211,-77.4633 1542.0303,-66.3866 1577,-56 1629.5484,-40.3922 1690.2147,-28.7901 1737.2764,-21.1421"/>
<polygon fill="#191970" stroke="#191970" points="1738.0856,-24.5573 1747.4076,-19.5224 1736.9805,-17.645 1738.0856,-24.5573"/>
</g>
<!-- Node18&#45;&gt;Node16 -->
<g id="edge24" class="edge">
<title>Node18&#45;&gt;Node16</title>
<path fill="none" stroke="#191970" d="M1163.7587,-128.936C1202.4688,-113.3952 1281.6022,-81.8002 1349,-56 1378.59,-44.6728 1412.3078,-32.1919 1437.1065,-23.092"/>
<polygon fill="#191970" stroke="#191970" points="1438.629,-26.2618 1446.8146,-19.5352 1436.2208,-19.6891 1438.629,-26.2618"/>
</g>
<!-- Node19 -->
<g id="node20" class="node">
<title>Node19</title>
<polygon fill="#ffffff" stroke="#bfbfbf" points="516,-.5 516,-19.5 568,-19.5 568,-.5 516,-.5"/>
<text text-anchor="middle" x="542" y="-7.5" font-family="Helvetica,sans-Serif" font-size="10.00" fill="#000000">memory</text>
</g>
<!-- Node18&#45;&gt;Node19 -->
<g id="edge21" class="edge">
<title>Node18&#45;&gt;Node19</title>
<path fill="none" stroke="#191970" d="M1083.4228,-129.3088C1068.0654,-127.0215 1051.4199,-124.7311 1036,-123 983.4013,-117.095 601.4053,-121.1893 561,-87 544.6262,-73.1451 541.1442,-47.6403 540.9274,-29.7938"/>
<polygon fill="#191970" stroke="#191970" points="544.4305,-29.6789 541.1408,-19.6078 537.432,-29.5322 544.4305,-29.6789"/>
</g>
<!-- Node18&#45;&gt;Node20 -->
<g id="edge23" class="edge">
<title>Node18&#45;&gt;Node20</title>
<path fill="none" stroke="#191970" d="M1196.6326,-133.416C1296.9886,-124.1292 1502.0525,-103.8283 1572,-87 1575.1738,-86.2364 1578.4367,-85.3062 1581.6741,-84.2845"/>
<polygon fill="#191970" stroke="#191970" points="1582.8702,-87.5745 1591.1947,-81.0206 1580.6001,-80.9528 1582.8702,-87.5745"/>
</g>
<!-- Node21 -->
<g id="node22" class="node">
<title>Node21</title>
<polygon fill="#ffffff" stroke="#bfbfbf" points="1012.5,-62 1012.5,-81 1111.5,-81 1111.5,-62 1012.5,-62"/>
<text text-anchor="middle" x="1062" y="-69" font-family="Helvetica,sans-Serif" font-size="10.00" fill="#000000">AMReX_BCRec.H</text>
</g>
<!-- Node18&#45;&gt;Node21 -->
<g id="edge25" class="edge">
<title>Node18&#45;&gt;Node21</title>
<path fill="none" stroke="#191970" d="M1128.8245,-128.9005C1116.3136,-118.1539 1095.8314,-100.5603 1080.8358,-87.6794"/>
<polygon fill="#191970" stroke="#191970" points="1083.0211,-84.9426 1073.1548,-81.0817 1078.4599,-90.2526 1083.0211,-84.9426"/>
</g>
<!-- Node22 -->
<g id="node23" class="node">
<title>Node22</title>
<g id="a_node23"><a xlink:href="incflo__enums_8_h.html" target="_top" xlink:title="amr&#45;wind/incflo_enums.H">
<polygon fill="#ffffff" stroke="#000000" points="828,-62 828,-81 956,-81 956,-62 828,-62"/>
<text text-anchor="middle" x="892" y="-69" font-family="Helvetica,sans-Serif" font-size="10.00" fill="#000000">amr&#45;wind/incflo_enums.H</text>
</a>
</g>
</g>
<!-- Node18&#45;&gt;Node22 -->
<g id="edge27" class="edge">
<title>Node18&#45;&gt;Node22</title>
<path fill="none" stroke="#191970" d="M1104.731,-128.9717C1060.7849,-117.0991 985.6141,-96.7909 937.4058,-83.7669"/>
<polygon fill="#191970" stroke="#191970" points="938.1156,-80.3332 927.5488,-81.1039 936.2899,-87.091 938.1156,-80.3332"/>
</g>
<!-- Node23 -->
<g id="node24" class="node">
<title>Node23</title>
<g id="a_node24"><a xlink:href="_view_field_8_h.html" target="_top" xlink:title="amr&#45;wind/core/ViewField.H">
<polygon fill="#ffffff" stroke="#000000" points="1358,-62 1358,-81 1492,-81 1492,-62 1358,-62"/>
<text text-anchor="middle" x="1425" y="-69" font-family="Helvetica,sans-Serif" font-size="10.00" fill="#000000">amr&#45;wind/core/ViewField.H</text>
</a>
</g>
</g>
<!-- Node18&#45;&gt;Node23 -->
<g id="edge29" class="edge">
<title>Node18&#45;&gt;Node23</title>
<path fill="none" stroke="#191970" d="M1180.5309,-128.9717C1231.4561,-116.9998 1318.8676,-96.4504 1374.2042,-83.4415"/>
<polygon fill="#191970" stroke="#191970" points="1375.2139,-86.7996 1384.1475,-81.1039 1373.6119,-79.9854 1375.2139,-86.7996"/>
</g>
<!-- Node23&#45;&gt;Node12 -->
<g id="edge30" class="edge">
<title>Node23&#45;&gt;Node12</title>
<path fill="none" stroke="#191970" d="M1407.1875,-61.8906C1388.5315,-51.8262 1359.0203,-35.9057 1337.6026,-24.3514"/>
<polygon fill="#191970" stroke="#191970" points="1339.1502,-21.2095 1328.6874,-19.5419 1335.8266,-27.3702 1339.1502,-21.2095"/>
</g>
<!-- Node23&#45;&gt;Node14 -->
<g id="edge31" class="edge">
<title>Node23&#45;&gt;Node14</title>
<path fill="none" stroke="#191970" d="M1485.6647,-61.9581C1555.8312,-50.9217 1671.1781,-32.7789 1745.3334,-21.1151"/>
<polygon fill="#191970" stroke="#191970" points="1746.18,-24.525 1755.5147,-19.5137 1745.0922,-17.6101 1746.18,-24.525"/>
</g>
<!-- Node23&#45;&gt;Node16 -->
<g id="edge32" class="edge">
<title>Node23&#45;&gt;Node16</title>
<path fill="none" stroke="#191970" d="M1432.5,-61.8906C1439.5738,-52.8273 1450.3542,-39.0149 1459.0146,-27.9188"/>
<polygon fill="#191970" stroke="#191970" points="1462.0006,-29.7815 1465.3943,-19.7449 1456.4824,-25.4746 1462.0006,-29.7815"/>
</g>
<!-- Node24 -->
<g id="node25" class="node">
<title>Node24</title>
<polygon fill="#ffffff" stroke="#bfbfbf" points="1177.5,-.5 1177.5,-19.5 1272.5,-19.5 1272.5,-.5 1177.5,-.5"/>
<text text-anchor="middle" x="1225" y="-7.5" font-family="Helvetica,sans-Serif" font-size="10.00" fill="#000000">AMReX_Vector.H</text>
</g>
<!-- Node23&#45;&gt;Node24 -->
<g id="edge33" class="edge">
<title>Node23&#45;&gt;Node24</title>
<path fill="none" stroke="#191970" d="M1393.75,-61.8906C1359.2589,-51.2846 1303.6188,-34.1753 1265.7338,-22.5257"/>
<polygon fill="#191970" stroke="#191970" points="1266.6176,-19.1357 1256.0306,-19.5419 1264.5601,-25.8266 1266.6176,-19.1357"/>
</g>
<!-- Node25&#45;&gt;Node12 -->
<g id="edge35" class="edge">
<title>Node25&#45;&gt;Node12</title>
<path fill="none" stroke="#191970" d="M1872.0542,-128.9928C1860.2576,-111.0797 1831.9851,-72.6375 1797,-56 1719.3993,-19.0963 1497.5334,-28.2332 1412,-20 1388.3609,-17.7246 1361.6179,-15.0733 1341.5914,-13.0726"/>
<polygon fill="#191970" stroke="#191970" points="1341.8003,-9.5761 1331.5015,-12.0629 1341.1033,-16.5413 1341.8003,-9.5761"/>
</g>
<!-- Node25&#45;&gt;Node14 -->
<g id="edge36" class="edge">
<title>Node25&#45;&gt;Node14</title>
<path fill="none" stroke="#191970" d="M1886.4294,-128.7508C1899.2495,-112.6744 1920.6844,-79.9967 1906,-56 1896.6591,-40.7354 1880.4772,-30.3326 1864.3874,-23.3404"/>
<polygon fill="#191970" stroke="#191970" points="1865.5629,-20.0414 1854.977,-19.6067 1862.9813,-26.548 1865.5629,-20.0414"/>
</g>
<!-- Node25&#45;&gt;Node26 -->
<g id="edge37" class="edge">
<title>Node25&#45;&gt;Node26</title>
<path fill="none" stroke="#191970" d="M1930.653,-128.9134C1983.4825,-119.1061 2067.1069,-103.0689 2139,-87 2143.9487,-85.8939 2149.1066,-84.6887 2154.2411,-83.4551"/>
<polygon fill="#191970" stroke="#191970" points="2155.1408,-86.8383 2164.0253,-81.0663 2153.4805,-80.0381 2155.1408,-86.8383"/>
</g>
<!-- Node27&#45;&gt;Node12 -->
<g id="edge39" class="edge">
<title>Node27&#45;&gt;Node12</title>
<path fill="none" stroke="#191970" d="M1405.443,-128.9501C1388.7255,-119.9952 1364.9169,-105.264 1349,-87 1334.2169,-70.037 1323.6562,-46.3094 1317.4778,-29.6909"/>
<polygon fill="#191970" stroke="#191970" points="1320.6683,-28.2128 1314.0502,-19.9392 1314.0643,-30.5341 1320.6683,-28.2128"/>
</g>
<!-- Node27&#45;&gt;Node14 -->
<g id="edge40" class="edge">
<title>Node27&#45;&gt;Node14</title>
<path fill="none" stroke="#191970" d="M1498.1276,-132.77C1600.1451,-124.1197 1775.2,-106.6361 1797,-87 1812.8528,-72.7209 1816.4757,-47.5171 1816.8658,-29.8452"/>
<polygon fill="#191970" stroke="#191970" points="1820.3647,-29.7086 1816.7616,-19.7453 1813.3651,-29.7809 1820.3647,-29.7086"/>
</g>
<!-- Node27&#45;&gt;Node16 -->
<g id="edge42" class="edge">
<title>Node27&#45;&gt;Node16</title>
<path fill="none" stroke="#191970" d="M1450.4821,-128.8529C1468.1723,-120.6533 1490.3961,-106.9948 1501,-87 1511.2342,-67.7024 1499.1153,-43.8498 1487.7779,-27.8506"/>
<polygon fill="#191970" stroke="#191970" points="1490.5395,-25.6998 1481.7067,-19.8489 1484.963,-29.931 1490.5395,-25.6998"/>
</g>
<!-- Node27&#45;&gt;Node23 -->
<g id="edge41" class="edge">
<title>Node27&#45;&gt;Node23</title>
<path fill="none" stroke="#191970" d="M1425,-128.9005C1425,-119.149 1425,-103.7597 1425,-91.3695"/>
<polygon fill="#191970" stroke="#191970" points="1428.5001,-91.0816 1425,-81.0817 1421.5001,-91.0817 1428.5001,-91.0816"/>
</g>
<!-- Node27&#45;&gt;Node24 -->
<g id="edge43" class="edge">
<title>Node27&#45;&gt;Node24</title>
<path fill="none" stroke="#191970" d="M1403.7065,-128.9098C1383.0326,-119.283 1351.0449,-103.5428 1325,-87 1295.3546,-68.1702 1263.6311,-42.7351 1244.0527,-26.347"/>
<polygon fill="#191970" stroke="#191970" points="1246.1025,-23.4969 1236.2049,-19.7167 1241.5849,-28.844 1246.1025,-23.4969"/>
</g>
<!-- Node28 -->
<g id="node29" class="node">
<title>Node28</title>
<polygon fill="#ffffff" stroke="#bfbfbf" points="1660,-62 1660,-81 1788,-81 1788,-62 1660,-62"/>
<text text-anchor="middle" x="1724" y="-69" font-family="Helvetica,sans-Serif" font-size="10.00" fill="#000000">AMReX_PhysBCFunct.H</text>
</g>
<!-- Node27&#45;&gt;Node28 -->
<g id="edge44" class="edge">
<title>Node27&#45;&gt;Node28</title>
<path fill="none" stroke="#191970" d="M1467.5219,-128.9717C1521.0596,-116.975 1613.0348,-96.3651 1671.0699,-83.3606"/>
<polygon fill="#191970" stroke="#191970" points="1672.148,-86.7059 1681.1407,-81.1039 1670.6174,-79.8753 1672.148,-86.7059"/>
</g>
<!-- Node29&#45;&gt;Node12 -->
<g id="edge49" class="edge">
<title>Node29&#45;&gt;Node12</title>
<path fill="none" stroke="#191970" d="M776.6585,-123.3522C772.3586,-104.7627 768.6525,-73.5555 786,-56 823.1316,-18.4231 1193.1509,-29.9376 1280.1312,-19.461"/>
<polygon fill="#191970" stroke="#191970" points="1280.935,-22.8778 1290.2716,-17.87 1279.85,-15.9624 1280.935,-22.8778"/>
</g>
<!-- Node29&#45;&gt;Node14 -->
<g id="edge63" class="edge">
<title>Node29&#45;&gt;Node14</title>
<path fill="none" stroke="#191970" d="M783.1934,-123.2463C786.8646,-103.9309 796.2405,-71.3257 819,-56 828.3317,-49.7163 1479.2106,-23.3333 1724.1501,-13.6144"/>
<polygon fill="#191970" stroke="#191970" points="1724.5968,-17.0996 1734.4503,-13.2061 1724.3195,-10.1051 1724.5968,-17.0996"/>
</g>
<!-- Node29&#45;&gt;Node22 -->
<g id="edge64" class="edge">
<title>Node29&#45;&gt;Node22</title>
<path fill="none" stroke="#191970" d="M805.9106,-123.4639C824.2833,-112.3741 849.16,-97.3584 867.4474,-86.32"/>
<polygon fill="#191970" stroke="#191970" points="869.3364,-89.268 876.089,-81.1039 865.719,-83.2751 869.3364,-89.268"/>
</g>
<!-- Node30 -->
<g id="node31" class="node">
<title>Node30</title>
<g id="a_node31"><a xlink:href="_factory_8_h.html" target="_top" xlink:title="amr&#45;wind/core/Factory.H">
<polygon fill="#ffffff" stroke="#000000" points="128.5,-62 128.5,-81 253.5,-81 253.5,-62 128.5,-62"/>
<text text-anchor="middle" x="191" y="-69" font-family="Helvetica,sans-Serif" font-size="10.00" fill="#000000">amr&#45;wind/core/Factory.H</text>
</a>
</g>
</g>
<!-- Node29&#45;&gt;Node30 -->
<g id="edge50" class="edge">
<title>Node29&#45;&gt;Node30</title>
<path fill="none" stroke="#191970" d="M711.2844,-124.3816C708.1515,-123.886 705.0458,-123.422 702,-123 507.6479,-96.0695 456.0557,-115.9887 262,-87 254.8796,-85.9363 247.4059,-84.5767 240.0901,-83.106"/>
<polygon fill="#191970" stroke="#191970" points="240.7649,-79.6715 230.26,-81.0489 239.331,-86.523 240.7649,-79.6715"/>
</g>
<!-- Node34 -->
<g id="node35" class="node">
<title>Node34</title>
<g id="a_node35"><a xlink:href="_coll_mgr_8_h.html" target="_top" xlink:title="amr&#45;wind/core/CollMgr.H">
<polygon fill="#ffffff" stroke="#000000" points="570.5,-62 570.5,-81 695.5,-81 695.5,-62 570.5,-62"/>
<text text-anchor="middle" x="633" y="-69" font-family="Helvetica,sans-Serif" font-size="10.00" fill="#000000">amr&#45;wind/core/CollMgr.H</text>
</a>
</g>
</g>
<!-- Node29&#45;&gt;Node34 -->
<g id="edge56" class="edge">
<title>Node29&#45;&gt;Node34</title>
<path fill="none" stroke="#191970" d="M747.7859,-123.4639C722.506,-112.0196 687.9908,-96.3945 663.4261,-85.274"/>
<polygon fill="#191970" stroke="#191970" points="664.7681,-82.0396 654.2146,-81.1039 661.8812,-88.4166 664.7681,-82.0396"/>
</g>
<!-- Node35 -->
<g id="node36" class="node">
<title>Node35</title>
<g id="a_node36"><a xlink:href="_p_d_e_fields_8_h.html" target="_top" xlink:title="amr&#45;wind/equation_systems\l/PDEFields.H">
<polygon fill="#ffffff" stroke="#000000" points="271.5,-56.5 271.5,-86.5 410.5,-86.5 410.5,-56.5 271.5,-56.5"/>
<text text-anchor="start" x="279.5" y="-74.5" font-family="Helvetica,sans-Serif" font-size="10.00" fill="#000000">amr&#45;wind/equation_systems</text>
<text text-anchor="middle" x="341" y="-63.5" font-family="Helvetica,sans-Serif" font-size="10.00" fill="#000000">/PDEFields.H</text>
</a>
</g>
</g>
<!-- Node29&#45;&gt;Node35 -->
<g id="edge61" class="edge">
<title>Node29&#45;&gt;Node35</title>
<path fill="none" stroke="#191970" d="M711.2587,-124.5527C708.1328,-124.0108 705.0355,-123.4903 702,-123 580.009,-103.2962 545.8641,-107.1517 420.6707,-87.208"/>
<polygon fill="#191970" stroke="#191970" points="421.1272,-83.7365 410.6975,-85.6 420.0129,-90.6472 421.1272,-83.7365"/>
</g>
<!-- Node30&#45;&gt;Node13 -->
<g id="edge52" class="edge">
<title>Node30&#45;&gt;Node13</title>
<path fill="none" stroke="#191970" d="M230.2624,-61.9672C240.541,-59.7362 251.6448,-57.5589 262,-56 442.7146,-28.7953 659.6197,-16.5361 757.0958,-12.0968"/>
<polygon fill="#191970" stroke="#191970" points="757.4341,-15.5852 767.2679,-11.6423 757.1216,-8.5922 757.4341,-15.5852"/>
</g>
<!-- Node30&#45;&gt;Node19 -->
<g id="edge51" class="edge">
<title>Node30&#45;&gt;Node19</title>
<path fill="none" stroke="#191970" d="M232.9742,-61.9574C242.4982,-59.8979 252.5818,-57.8004 262,-56 349.0958,-39.3505 452.1409,-23.3726 505.6477,-15.3532"/>
<polygon fill="#191970" stroke="#191970" points="506.2954,-18.7954 515.6692,-13.8576 505.2621,-11.8721 506.2954,-18.7954"/>
</g>
<!-- Node31 -->
<g id="node32" class="node">
<title>Node31</title>
<polygon fill="#ffffff" stroke="#bfbfbf" points="68,-.5 68,-19.5 122,-19.5 122,-.5 68,-.5"/>
<text text-anchor="middle" x="95" y="-7.5" font-family="Helvetica,sans-Serif" font-size="10.00" fill="#000000">iostream</text>
</g>
<!-- Node30&#45;&gt;Node31 -->
<g id="edge53" class="edge">
<title>Node30&#45;&gt;Node31</title>
<path fill="none" stroke="#191970" d="M176,-61.8906C160.6419,-52.0519 136.5479,-36.6167 118.6255,-25.1351"/>
<polygon fill="#191970" stroke="#191970" points="120.203,-21.9891 109.8947,-19.5419 116.427,-27.8833 120.203,-21.9891"/>
</g>
<!-- Node32 -->
<g id="node33" class="node">
<title>Node32</title>
<polygon fill="#ffffff" stroke="#bfbfbf" points="140.5,-.5 140.5,-19.5 227.5,-19.5 227.5,-.5 140.5,-.5"/>
<text text-anchor="middle" x="184" y="-7.5" font-family="Helvetica,sans-Serif" font-size="10.00" fill="#000000">AMReX_Print.H</text>
</g>
<!-- Node30&#45;&gt;Node32 -->
<g id="edge54" class="edge">
<title>Node30&#45;&gt;Node32</title>
<path fill="none" stroke="#191970" d="M189.9063,-61.8906C188.9359,-53.3657 187.4874,-40.6392 186.2677,-29.9235"/>
<polygon fill="#191970" stroke="#191970" points="189.7177,-29.2849 185.1092,-19.7449 182.7626,-30.0766 189.7177,-29.2849"/>
</g>
<!-- Node33 -->
<g id="node34" class="node">
<title>Node33</title>
<polygon fill="#ffffff" stroke="#bfbfbf" points="246,-.5 246,-19.5 308,-19.5 308,-.5 246,-.5"/>
<text text-anchor="middle" x="277" y="-7.5" font-family="Helvetica,sans-Serif" font-size="10.00" fill="#000000">AMReX.H</text>
</g>
<!-- Node30&#45;&gt;Node33 -->
<g id="edge55" class="edge">
<title>Node30&#45;&gt;Node33</title>
<path fill="none" stroke="#191970" d="M204.4375,-61.8906C218.0695,-52.1421 239.3846,-36.8994 255.3922,-25.4521"/>
<polygon fill="#191970" stroke="#191970" points="257.5586,-28.2057 263.6569,-19.5419 253.4868,-22.5118 257.5586,-28.2057"/>
</g>
<!-- Node34&#45;&gt;Node12 -->
<g id="edge57" class="edge">
<title>Node34&#45;&gt;Node12</title>
<path fill="none" stroke="#191970" d="M675.1899,-61.9337C686.4492,-59.6756 698.6434,-57.4934 710,-56 959.2215,-23.2276 1030.3556,-68.741 1280.1679,-19.9032"/>
<polygon fill="#191970" stroke="#191970" points="1281.1504,-23.2765 1290.2767,-17.8949 1279.7863,-16.4106 1281.1504,-23.2765"/>
</g>
<!-- Node34&#45;&gt;Node13 -->
<g id="edge59" class="edge">
<title>Node34&#45;&gt;Node13</title>
<path fill="none" stroke="#191970" d="M660.5,-61.8906C690.4647,-51.42 738.5683,-34.6111 771.8698,-22.9745"/>
<polygon fill="#191970" stroke="#191970" points="773.4074,-26.1448 781.6931,-19.5419 771.0983,-19.5366 773.4074,-26.1448"/>
</g>
<!-- Node34&#45;&gt;Node19 -->
<g id="edge58" class="edge">
<title>Node34&#45;&gt;Node19</title>
<path fill="none" stroke="#191970" d="M618.7813,-61.8906C604.3566,-52.1421 581.8024,-36.8994 564.864,-25.4521"/>
<polygon fill="#191970" stroke="#191970" points="566.3641,-22.2415 556.1189,-19.5419 562.4444,-28.0412 566.3641,-22.2415"/>
</g>
<!-- Node34&#45;&gt;Node24 -->
<g id="edge60" class="edge">
<title>Node34&#45;&gt;Node24</title>
<path fill="none" stroke="#191970" d="M676.0236,-61.9739C687.0567,-59.7695 698.9338,-57.6031 710,-56 875.0016,-32.0971 1071.6635,-18.6649 1167.1927,-13.0919"/>
<polygon fill="#191970" stroke="#191970" points="1167.4438,-16.5833 1177.2259,-12.5139 1167.0411,-9.5949 1167.4438,-16.5833"/>
</g>
<!-- Node36 -->
<g id="node37" class="node">
<title>Node36</title>
<polygon fill="#ffffff" stroke="#bfbfbf" points="326.5,-.5 326.5,-19.5 371.5,-19.5 371.5,-.5 326.5,-.5"/>
<text text-anchor="middle" x="349" y="-7.5" font-family="Helvetica,sans-Serif" font-size="10.00" fill="#000000">iosfwd</text>
</g>
<!-- Node35&#45;&gt;Node36 -->
<g id="edge62" class="edge">
<title>Node35&#45;&gt;Node36</title>
<path fill="none" stroke="#191970" d="M342.9775,-56.2977C344.0186,-48.2945 345.3077,-38.3843 346.4258,-29.7889"/>
<polygon fill="#191970" stroke="#191970" points="349.8998,-30.2149 347.7191,-19.8469 342.9583,-29.3119 349.8998,-30.2149"/>
</g>
<!-- Node37&#45;&gt;Node16 -->
<g id="edge68" class="edge">
<title>Node37&#45;&gt;Node16</title>
<path fill="none" stroke="#191970" d="M285.7724,-128.9686C296.2327,-126.7643 307.497,-124.5993 318,-123 488.3367,-97.063 535.7647,-124.205 704,-87 744.0796,-78.1365 750.8017,-64.3089 791,-56 1030.8964,-6.4137 1096.6408,-37.2528 1341,-20 1363.7596,-18.3931 1388.7183,-16.5286 1410.7476,-14.848"/>
<polygon fill="#191970" stroke="#191970" points="1411.2697,-18.3183 1420.9733,-14.0651 1410.7352,-11.3388 1411.2697,-18.3183"/>
</g>
<!-- Node37&#45;&gt;Node30 -->
<g id="edge66" class="edge">
<title>Node37&#45;&gt;Node30</title>
<path fill="none" stroke="#191970" d="M237.2631,-128.9005C228.9225,-118.552 215.4646,-101.8542 205.2088,-89.1295"/>
<polygon fill="#191970" stroke="#191970" points="207.7229,-86.6713 198.7225,-81.0817 202.2727,-91.064 207.7229,-86.6713"/>
</g>
<!-- Node37&#45;&gt;Node34 -->
<g id="edge67" class="edge">
<title>Node37&#45;&gt;Node34</title>
<path fill="none" stroke="#191970" d="M288.1654,-128.9827C297.9572,-126.9219 308.3225,-124.8175 318,-123 400.8426,-107.442 496.4509,-92.1902 560.406,-82.3736"/>
<polygon fill="#191970" stroke="#191970" points="561.0363,-85.8179 570.3918,-80.8455 559.9774,-78.8985 561.0363,-85.8179"/>
</g>
<!-- Node38 -->
<g id="node39" class="node">
<title>Node38</title>
<polygon fill="#ffffff" stroke="#bfbfbf" points="0,-62 0,-81 110,-81 110,-62 0,-62"/>
<text text-anchor="middle" x="55" y="-69" font-family="Helvetica,sans-Serif" font-size="10.00" fill="#000000">AMReX_Geometry.H</text>
</g>
<!-- Node37&#45;&gt;Node38 -->
<g id="edge69" class="edge">
<title>Node37&#45;&gt;Node38</title>
<path fill="none" stroke="#191970" d="M217.7776,-128.9005C184.7626,-117.2584 128.9597,-97.5805 92.0474,-84.5641"/>
<polygon fill="#191970" stroke="#191970" points="92.7667,-81.1065 82.1719,-81.0817 90.4387,-87.7081 92.7667,-81.1065"/>
</g>
<!-- Node39&#45;&gt;Node5 -->
<g id="edge80" class="edge">
<title>Node39&#45;&gt;Node5</title>
<path fill="none" stroke="#191970" d="M1053.2648,-323.1451C976.3722,-314.235 818.3974,-295.5091 685,-277 673.1254,-275.3524 660.482,-273.4945 648.3031,-271.6522"/>
<polygon fill="#191970" stroke="#191970" points="648.6225,-268.1606 638.2092,-270.1134 647.5674,-275.0806 648.6225,-268.1606"/>
</g>
<!-- Node39&#45;&gt;Node6 -->
<g id="edge74" class="edge">
<title>Node39&#45;&gt;Node6</title>
<path fill="none" stroke="#191970" d="M1144.8351,-318.9318C1191.1731,-306.8281 1253.5492,-282.9906 1229,-246 1225.7161,-241.0519 1075.3127,-179.5891 1007.0648,-151.886"/>
<polygon fill="#191970" stroke="#191970" points="1008.2011,-148.57 997.6188,-148.0543 1005.5698,-155.0566 1008.2011,-148.57"/>
</g>
<!-- Node39&#45;&gt;Node7 -->
<g id="edge81" class="edge">
<title>Node39&#45;&gt;Node7</title>
<path fill="none" stroke="#191970" d="M1053.1347,-327.4128C922.476,-323.9587 561.0773,-311.3637 521,-277 504.717,-263.0384 501.2153,-237.5568 500.9692,-219.7448"/>
<polygon fill="#191970" stroke="#191970" points="504.4716,-219.6463 501.1635,-209.5812 497.4729,-219.5124 504.4716,-219.6463"/>
</g>
<!-- Node39&#45;&gt;Node11 -->
<g id="edge82" class="edge">
<title>Node39&#45;&gt;Node11</title>
<path fill="none" stroke="#191970" d="M1146.7865,-323.7329C1189.149,-317.7858 1252.0727,-304.779 1300,-277 1325.8478,-262.0184 1348.6981,-235.6614 1362.1914,-218.0156"/>
<polygon fill="#191970" stroke="#191970" points="1365.2201,-219.8071 1368.3609,-209.6885 1359.5956,-215.6399 1365.2201,-219.8071"/>
</g>
<!-- Node39&#45;&gt;Node22 -->
<g id="edge79" class="edge">
<title>Node39&#45;&gt;Node22</title>
<path fill="none" stroke="#191970" d="M1146.6301,-321.1444C1197.9918,-310.7993 1270.2037,-288.2974 1245,-246 1201.024,-172.1985 1146.68,-201.3553 1075,-154 1056.5255,-141.7949 1055.351,-133.7616 1036,-123 1005.2802,-105.9159 967.8219,-92.7285 938.8105,-83.9765"/>
<polygon fill="#191970" stroke="#191970" points="939.5074,-80.5332 928.9261,-81.0667 937.5306,-87.2483 939.5074,-80.5332"/>
</g>
<!-- Node39&#45;&gt;Node26 -->
<g id="edge77" class="edge">
<title>Node39&#45;&gt;Node26</title>
<path fill="none" stroke="#191970" d="M1146.7157,-326.4668C1289.8469,-318.9202 1733.0812,-285.7076 2071,-154 2113.367,-137.487 2156.8302,-106.4918 2181.2257,-87.5523"/>
<polygon fill="#191970" stroke="#191970" points="2183.6321,-90.1119 2189.3135,-81.1691 2179.2954,-84.617 2183.6321,-90.1119"/>
</g>
<!-- Node40 -->
<g id="node41" class="node">
<title>Node40</title>
<polygon fill="#ffffff" stroke="#bfbfbf" points="694.5,-252 694.5,-271 813.5,-271 813.5,-252 694.5,-252"/>
<text text-anchor="middle" x="754" y="-259" font-family="Helvetica,sans-Serif" font-size="10.00" fill="#000000">AMReX_MultiFabUtil.H</text>
</g>
<!-- Node39&#45;&gt;Node40 -->
<g id="edge75" class="edge">
<title>Node39&#45;&gt;Node40</title>
<path fill="none" stroke="#191970" d="M1053.3366,-320.37C998.1973,-310.6372 903.7383,-293.5679 823,-277 817.2214,-275.8142 811.1813,-274.5275 805.1815,-273.2196"/>
<polygon fill="#191970" stroke="#191970" points="805.6948,-269.7487 795.1756,-271.0125 804.1869,-276.5844 805.6948,-269.7487"/>
</g>
<!-- Node41 -->
<g id="node42" class="node">
<title>Node41</title>
<polygon fill="#ffffff" stroke="#bfbfbf" points="832,-252 832,-271 948,-271 948,-252 832,-252"/>
<text text-anchor="middle" x="890" y="-259" font-family="Helvetica,sans-Serif" font-size="10.00" fill="#000000">AMReX_ParmParse.H</text>
</g>
<!-- Node39&#45;&gt;Node41 -->
<g id="edge76" class="edge">
<title>Node39&#45;&gt;Node41</title>
<path fill="none" stroke="#191970" d="M1069.9121,-318.9005C1033.032,-307.134 970.4242,-287.1591 929.6468,-274.1492"/>
<polygon fill="#191970" stroke="#191970" points="930.6228,-270.7868 920.0321,-271.0817 928.4951,-277.4557 930.6228,-270.7868"/>
</g>
<!-- Node42 -->
<g id="node43" class="node">
<title>Node42</title>
<polygon fill="#ffffff" stroke="#bfbfbf" points="966.5,-252 966.5,-271 1097.5,-271 1097.5,-252 966.5,-252"/>
<text text-anchor="middle" x="1032" y="-259" font-family="Helvetica,sans-Serif" font-size="10.00" fill="#000000">AMReX_NodalProjector.H</text>
</g>
<!-- Node39&#45;&gt;Node42 -->
<g id="edge78" class="edge">
<title>Node39&#45;&gt;Node42</title>
<path fill="none" stroke="#191970" d="M1090.2573,-318.9005C1079.5523,-308.353 1062.153,-291.2096 1049.1521,-278.3998"/>
<polygon fill="#191970" stroke="#191970" points="1051.3044,-275.607 1041.7247,-271.0817 1046.3915,-280.5933 1051.3044,-275.607"/>
</g>
<!-- Node43 -->
<g id="node44" class="node">
<title>Node43</title>
<g id="a_node44"><a xlink:href="incflo__prob___i_8_h.html" target="_top" xlink:title="amr&#45;wind/prob/incflo\l_prob_I.H">
<polygon fill="#ffffff" stroke="#000000" points="1116,-246.5 1116,-276.5 1220,-276.5 1220,-246.5 1116,-246.5"/>
<text text-anchor="start" x="1124" y="-264.5" font-family="Helvetica,sans-Serif" font-size="10.00" fill="#000000">amr&#45;wind/prob/incflo</text>
<text text-anchor="middle" x="1168" y="-253.5" font-family="Helvetica,sans-Serif" font-size="10.00" fill="#000000">_prob_I.H</text>
</a>
</g>
</g>
<!-- Node39&#45;&gt;Node43 -->
<g id="edge83" class="edge">
<title>Node39&#45;&gt;Node43</title>
<path fill="none" stroke="#191970" d="M1109.7427,-318.9005C1119.0488,-309.7313 1133.4138,-295.5776 1145.5504,-283.6195"/>
<polygon fill="#191970" stroke="#191970" points="1148.0872,-286.0334 1152.754,-276.5218 1143.1743,-281.0471 1148.0872,-286.0334"/>
</g>
</g>
</svg>
