<?xml version="1.0" encoding="UTF-8" standalone="no"?>
<!DOCTYPE svg PUBLIC "-//W3C//DTD SVG 1.1//EN"
 "http://www.w3.org/Graphics/SVG/1.1/DTD/svg11.dtd">
<!-- Generated by graphviz version 2.40.1 (20161225.0304)
 -->
<!-- Title: FieldPlaneAveraging.H Pages: 1 -->
<svg width="2575pt" height="341pt"
 viewBox="0.00 0.00 2574.50 341.00" xmlns="http://www.w3.org/2000/svg" xmlns:xlink="http://www.w3.org/1999/xlink">
<g id="graph0" class="graph" transform="scale(1 1) rotate(0) translate(4 337)">
<title>FieldPlaneAveraging.H</title>
<polygon fill="#ffffff" stroke="transparent" points="-4,4 -4,-337 2570.5,-337 2570.5,4 -4,4"/>
<!-- Node0 -->
<g id="node1" class="node">
<title>Node0</title>
<polygon fill="#bfbfbf" stroke="#000000" points="473.5,-313.5 473.5,-332.5 589.5,-332.5 589.5,-313.5 473.5,-313.5"/>
<text text-anchor="middle" x="531.5" y="-320.5" font-family="Helvetica,sans-Serif" font-size="10.00" fill="#000000">FieldPlaneAveraging.H</text>
</g>
<!-- Node1 -->
<g id="node2" class="node">
<title>Node1</title>
<g id="a_node2"><a xlink:href="_direction_selector_8_h.html" target="_top" xlink:title="amr&#45;wind/utilities\l/DirectionSelector.H">
<polygon fill="#ffffff" stroke="#000000" points="341,-246.5 341,-276.5 446,-276.5 446,-246.5 341,-246.5"/>
<text text-anchor="start" x="349" y="-264.5" font-family="Helvetica,sans-Serif" font-size="10.00" fill="#000000">amr&#45;wind/utilities</text>
<text text-anchor="middle" x="393.5" y="-253.5" font-family="Helvetica,sans-Serif" font-size="10.00" fill="#000000">/DirectionSelector.H</text>
</a>
</g>
</g>
<!-- Node0&#45;&gt;Node1 -->
<g id="edge1" class="edge">
<title>Node0&#45;&gt;Node1</title>
<path fill="none" stroke="#191970" d="M509.9375,-313.3906C490.3962,-304.682 461.0163,-291.5888 436.6584,-280.7336"/>
<polygon fill="#191970" stroke="#191970" points="437.8174,-277.4183 427.2586,-276.5446 434.9679,-283.8122 437.8174,-277.4183"/>
</g>
<!-- Node4 -->
<g id="node5" class="node">
<title>Node4</title>
<g id="a_node5"><a xlink:href="_c_f_d_sim_8_h.html" target="_top" xlink:title="amr&#45;wind/CFDSim.H">
<polygon fill="#ffffff" stroke="#000000" points="556.5,-252 556.5,-271 664.5,-271 664.5,-252 556.5,-252"/>
<text text-anchor="middle" x="610.5" y="-259" font-family="Helvetica,sans-Serif" font-size="10.00" fill="#000000">amr&#45;wind/CFDSim.H</text>
</a>
</g>
</g>
<!-- Node0&#45;&gt;Node4 -->
<g id="edge4" class="edge">
<title>Node0&#45;&gt;Node4</title>
<path fill="none" stroke="#191970" d="M543.8438,-313.3906C556.2503,-303.7324 575.5843,-288.6812 590.2413,-277.271"/>
<polygon fill="#191970" stroke="#191970" points="592.5021,-279.9466 598.2429,-271.0419 588.2021,-274.423 592.5021,-279.9466"/>
</g>
<!-- Node6 -->
<g id="node7" class="node">
<title>Node6</title>
<g id="a_node7"><a xlink:href="_sim_time_8_h.html" target="_top" xlink:title="amr&#45;wind/core/SimTime.H">
<polygon fill="#ffffff" stroke="#000000" points="132,-190.5 132,-209.5 263,-209.5 263,-190.5 132,-190.5"/>
<text text-anchor="middle" x="197.5" y="-197.5" font-family="Helvetica,sans-Serif" font-size="10.00" fill="#000000">amr&#45;wind/core/SimTime.H</text>
</a>
</g>
</g>
<!-- Node0&#45;&gt;Node6 -->
<g id="edge70" class="edge">
<title>Node0&#45;&gt;Node6</title>
<path fill="none" stroke="#191970" d="M473.2492,-314.2899C432.605,-307.0918 377.604,-295.0845 331.5,-277 289.4935,-260.5228 244.8498,-232.465 219.1615,-215.1524"/>
<polygon fill="#191970" stroke="#191970" points="221.1336,-212.2609 210.9012,-209.5134 217.1869,-218.0422 221.1336,-212.2609"/>
</g>
<!-- Node17 -->
<g id="node18" class="node">
<title>Node17</title>
<g id="a_node18"><a xlink:href="_field_8_h.html" target="_top" xlink:title="amr&#45;wind/core/Field.H">
<polygon fill="#ffffff" stroke="#000000" points="1446,-129 1446,-148 1559,-148 1559,-129 1446,-129"/>
<text text-anchor="middle" x="1502.5" y="-136" font-family="Helvetica,sans-Serif" font-size="10.00" fill="#000000">amr&#45;wind/core/Field.H</text>
</a>
</g>
</g>
<!-- Node0&#45;&gt;Node17 -->
<g id="edge69" class="edge">
<title>Node0&#45;&gt;Node17</title>
<path fill="none" stroke="#191970" d="M581.6605,-313.469C745.565,-282.3255 1264.975,-183.6322 1442.4069,-149.9183"/>
<polygon fill="#191970" stroke="#191970" points="1443.1776,-153.3346 1452.3484,-148.0293 1441.8708,-146.4576 1443.1776,-153.3346"/>
</g>
<!-- Node2 -->
<g id="node3" class="node">
<title>Node2</title>
<polygon fill="#ffffff" stroke="#bfbfbf" points="281.5,-190.5 281.5,-209.5 365.5,-209.5 365.5,-190.5 281.5,-190.5"/>
<text text-anchor="middle" x="323.5" y="-197.5" font-family="Helvetica,sans-Serif" font-size="10.00" fill="#000000">AMReX_Box.H</text>
</g>
<!-- Node1&#45;&gt;Node2 -->
<g id="edge2" class="edge">
<title>Node1&#45;&gt;Node2</title>
<path fill="none" stroke="#191970" d="M376.1966,-246.2977C365.9738,-237.3163 353.0177,-225.9334 342.5104,-216.702"/>
<polygon fill="#191970" stroke="#191970" points="344.5305,-213.8178 334.7079,-209.8469 339.9103,-219.0766 344.5305,-213.8178"/>
</g>
<!-- Node3 -->
<g id="node4" class="node">
<title>Node3</title>
<polygon fill="#ffffff" stroke="#bfbfbf" points="500,-62 500,-81 585,-81 585,-62 500,-62"/>
<text text-anchor="middle" x="542.5" y="-69" font-family="Helvetica,sans-Serif" font-size="10.00" fill="#000000">AMReX_Gpu.H</text>
</g>
<!-- Node1&#45;&gt;Node3 -->
<g id="edge3" class="edge">
<title>Node1&#45;&gt;Node3</title>
<path fill="none" stroke="#191970" d="M391.0206,-246.3029C387.3983,-218.6215 383.8964,-159.4794 412.5,-123 431.2438,-99.0952 462.724,-86.255 490.0111,-79.3742"/>
<polygon fill="#191970" stroke="#191970" points="490.8895,-82.7635 499.8432,-77.0994 489.3115,-75.9437 490.8895,-82.7635"/>
</g>
<!-- Node5 -->
<g id="node6" class="node">
<title>Node5</title>
<polygon fill="#ffffff" stroke="#bfbfbf" points="421.5,-129 421.5,-148 527.5,-148 527.5,-129 421.5,-129"/>
<text text-anchor="middle" x="474.5" y="-136" font-family="Helvetica,sans-Serif" font-size="10.00" fill="#000000">AMReX_AmrCore.H</text>
</g>
<!-- Node4&#45;&gt;Node5 -->
<g id="edge5" class="edge">
<title>Node4&#45;&gt;Node5</title>
<path fill="none" stroke="#191970" d="M599.8283,-251.8484C576.6893,-230.9212 521.6683,-181.1596 492.8383,-155.0854"/>
<polygon fill="#191970" stroke="#191970" points="494.8865,-152.2187 485.1221,-148.1068 490.1911,-157.4103 494.8865,-152.2187"/>
</g>
<!-- Node4&#45;&gt;Node6 -->
<g id="edge6" class="edge">
<title>Node4&#45;&gt;Node6</title>
<path fill="none" stroke="#191970" d="M556.0828,-253.3967C483.1199,-242.5318 353.3157,-223.2026 271.5156,-211.0217"/>
<polygon fill="#191970" stroke="#191970" points="271.9448,-207.5471 261.5383,-209.536 270.9137,-214.4708 271.9448,-207.5471"/>
</g>
<!-- Node10 -->
<g id="node11" class="node">
<title>Node10</title>
<g id="a_node11"><a xlink:href="_field_repo_8_h.html" target="_top" xlink:title="amr&#45;wind/core/FieldRepo.H">
<polygon fill="#ffffff" stroke="#000000" points="619.5,-190.5 619.5,-209.5 755.5,-209.5 755.5,-190.5 619.5,-190.5"/>
<text text-anchor="middle" x="687.5" y="-197.5" font-family="Helvetica,sans-Serif" font-size="10.00" fill="#000000">amr&#45;wind/core/FieldRepo.H</text>
</a>
</g>
</g>
<!-- Node4&#45;&gt;Node10 -->
<g id="edge10" class="edge">
<title>Node4&#45;&gt;Node10</title>
<path fill="none" stroke="#191970" d="M622.5313,-251.8906C634.5107,-242.3227 653.1166,-227.4621 667.3525,-216.0919"/>
<polygon fill="#191970" stroke="#191970" points="669.9239,-218.5175 675.5532,-209.5419 665.5553,-213.0479 669.9239,-218.5175"/>
</g>
<!-- Node28 -->
<g id="node29" class="node">
<title>Node28</title>
<g id="a_node29"><a xlink:href="_p_d_e_base_8_h.html" target="_top" xlink:title="amr&#45;wind/equation_systems\l/PDEBase.H">
<polygon fill="#ffffff" stroke="#000000" points="1800,-123.5 1800,-153.5 1939,-153.5 1939,-123.5 1800,-123.5"/>
<text text-anchor="start" x="1808" y="-141.5" font-family="Helvetica,sans-Serif" font-size="10.00" fill="#000000">amr&#45;wind/equation_systems</text>
<text text-anchor="middle" x="1869.5" y="-130.5" font-family="Helvetica,sans-Serif" font-size="10.00" fill="#000000">/PDEBase.H</text>
</a>
</g>
</g>
<!-- Node4&#45;&gt;Node28 -->
<g id="edge47" class="edge">
<title>Node4&#45;&gt;Node28</title>
<path fill="none" stroke="#191970" d="M664.5977,-256.2148C863.3233,-236.8 1553.689,-169.3537 1789.6839,-146.2978"/>
<polygon fill="#191970" stroke="#191970" points="1790.2923,-149.7551 1799.9046,-145.2992 1789.6116,-142.7882 1790.2923,-149.7551"/>
</g>
<!-- Node36 -->
<g id="node37" class="node">
<title>Node36</title>
<g id="a_node37"><a xlink:href="_physics_8_h.html" target="_top" xlink:title="amr&#45;wind/core/Physics.H">
<polygon fill="#ffffff" stroke="#000000" points="2312,-129 2312,-148 2439,-148 2439,-129 2312,-129"/>
<text text-anchor="middle" x="2375.5" y="-136" font-family="Helvetica,sans-Serif" font-size="10.00" fill="#000000">amr&#45;wind/core/Physics.H</text>
</a>
</g>
</g>
<!-- Node4&#45;&gt;Node36 -->
<g id="edge64" class="edge">
<title>Node4&#45;&gt;Node36</title>
<path fill="none" stroke="#191970" d="M664.6488,-260.6561C875.1201,-256.8255 1658.7475,-237.4435 2297.5,-154 2305.6756,-152.932 2314.2814,-151.5188 2322.6719,-149.9795"/>
<polygon fill="#191970" stroke="#191970" points="2323.59,-153.3676 2332.7562,-148.0543 2322.2772,-146.4918 2323.59,-153.3676"/>
</g>
<!-- Node7 -->
<g id="node8" class="node">
<title>Node7</title>
<polygon fill="#ffffff" stroke="#bfbfbf" points="0,-129 0,-148 93,-148 93,-129 0,-129"/>
<text text-anchor="middle" x="46.5" y="-136" font-family="Helvetica,sans-Serif" font-size="10.00" fill="#000000">AMReX_REAL.H</text>
</g>
<!-- Node6&#45;&gt;Node7 -->
<g id="edge7" class="edge">
<title>Node6&#45;&gt;Node7</title>
<path fill="none" stroke="#191970" d="M173.9063,-190.3906C148.5304,-180.0554 107.9919,-163.5447 79.4707,-151.9284"/>
<polygon fill="#191970" stroke="#191970" points="80.5096,-148.5725 69.9281,-148.0419 77.8692,-155.0554 80.5096,-148.5725"/>
</g>
<!-- Node8 -->
<g id="node9" class="node">
<title>Node8</title>
<polygon fill="#ffffff" stroke="#bfbfbf" points="111.5,-129 111.5,-148 237.5,-148 237.5,-129 111.5,-129"/>
<text text-anchor="middle" x="174.5" y="-136" font-family="Helvetica,sans-Serif" font-size="10.00" fill="#000000">AMReX_GpuQualifiers.H</text>
</g>
<!-- Node6&#45;&gt;Node8 -->
<g id="edge8" class="edge">
<title>Node6&#45;&gt;Node8</title>
<path fill="none" stroke="#191970" d="M193.9063,-190.3906C190.6509,-181.6862 185.7575,-168.6015 181.699,-157.7494"/>
<polygon fill="#191970" stroke="#191970" points="184.9256,-156.3852 178.1444,-148.2449 178.3691,-158.8373 184.9256,-156.3852"/>
</g>
<!-- Node9 -->
<g id="node10" class="node">
<title>Node9</title>
<polygon fill="#ffffff" stroke="#bfbfbf" points="255.5,-129 255.5,-148 365.5,-148 365.5,-129 255.5,-129"/>
<text text-anchor="middle" x="310.5" y="-136" font-family="Helvetica,sans-Serif" font-size="10.00" fill="#000000">AMReX_Extension.H</text>
</g>
<!-- Node6&#45;&gt;Node9 -->
<g id="edge9" class="edge">
<title>Node6&#45;&gt;Node9</title>
<path fill="none" stroke="#191970" d="M215.1563,-190.3906C233.6486,-180.3262 262.901,-164.4057 284.1308,-152.8514"/>
<polygon fill="#191970" stroke="#191970" points="285.8575,-155.8965 292.9677,-148.0419 282.5112,-149.7481 285.8575,-155.8965"/>
</g>
<!-- Node10&#45;&gt;Node5 -->
<g id="edge44" class="edge">
<title>Node10&#45;&gt;Node5</title>
<path fill="none" stroke="#191970" d="M654.2188,-190.3906C617.3295,-179.7395 557.7243,-162.5296 517.3675,-150.8772"/>
<polygon fill="#191970" stroke="#191970" points="518.126,-147.4533 507.5475,-148.0419 516.1842,-154.1786 518.126,-147.4533"/>
</g>
<!-- Node11 -->
<g id="node12" class="node">
<title>Node11</title>
<polygon fill="#ffffff" stroke="#bfbfbf" points="1397,-.5 1397,-19.5 1438,-19.5 1438,-.5 1397,-.5"/>
<text text-anchor="middle" x="1417.5" y="-7.5" font-family="Helvetica,sans-Serif" font-size="10.00" fill="#000000">string</text>
</g>
<!-- Node10&#45;&gt;Node11 -->
<g id="edge11" class="edge">
<title>Node10&#45;&gt;Node11</title>
<path fill="none" stroke="#191970" d="M755.7737,-197.9047C912.7476,-191.7168 1293.0237,-168.4831 1386.5,-87 1403.2527,-72.3967 1411.0713,-47.4442 1414.6402,-29.9111"/>
<polygon fill="#191970" stroke="#191970" points="1418.1605,-30.0956 1416.423,-19.6442 1411.2637,-28.8979 1418.1605,-30.0956"/>
</g>
<!-- Node12 -->
<g id="node13" class="node">
<title>Node12</title>
<polygon fill="#ffffff" stroke="#bfbfbf" points="2205,-.5 2205,-19.5 2288,-19.5 2288,-.5 2205,-.5"/>
<text text-anchor="middle" x="2246.5" y="-7.5" font-family="Helvetica,sans-Serif" font-size="10.00" fill="#000000">unordered_map</text>
</g>
<!-- Node10&#45;&gt;Node12 -->
<g id="edge12" class="edge">
<title>Node10&#45;&gt;Node12</title>
<path fill="none" stroke="#191970" d="M755.8023,-199.1522C983.4008,-196.0693 1714.7836,-184.0188 1948.5,-154 2084.4352,-136.5403 2163.7617,-193.9213 2249.5,-87 2262.3383,-70.9898 2258.7137,-46.5193 2253.7461,-29.4761"/>
<polygon fill="#191970" stroke="#191970" points="2256.913,-27.9056 2250.4472,-19.5124 2250.2678,-30.1058 2256.913,-27.9056"/>
</g>
<!-- Node13 -->
<g id="node14" class="node">
<title>Node13</title>
<g id="a_node14"><a xlink:href="_field_desc_types_8_h.html" target="_top" xlink:title="amr&#45;wind/core/FieldDescTypes.H">
<polygon fill="#ffffff" stroke="#000000" points="734,-.5 734,-19.5 897,-19.5 897,-.5 734,-.5"/>
<text text-anchor="middle" x="815.5" y="-7.5" font-family="Helvetica,sans-Serif" font-size="10.00" fill="#000000">amr&#45;wind/core/FieldDescTypes.H</text>
</a>
</g>
</g>
<!-- Node10&#45;&gt;Node13 -->
<g id="edge13" class="edge">
<title>Node10&#45;&gt;Node13</title>
<path fill="none" stroke="#191970" d="M672.6893,-190.4012C658.4782,-181.1594 636.4417,-166.7459 617.5,-154 597.3507,-140.4415 593.714,-134.8234 572.5,-123 537.7332,-103.6231 512.2643,-120.3244 490.5,-87 482.9661,-75.4645 481.4661,-66.4026 490.5,-56 505.7163,-38.4783 633.1547,-24.6303 723.8399,-16.875"/>
<polygon fill="#191970" stroke="#191970" points="724.2053,-20.3567 733.8758,-16.0286 723.617,-13.3815 724.2053,-20.3567"/>
</g>
<!-- Node14 -->
<g id="node15" class="node">
<title>Node14</title>
<g id="a_node15"><a xlink:href="_field_utils_8_h.html" target="_top" xlink:title="amr&#45;wind/core/FieldUtils.H">
<polygon fill="#ffffff" stroke="#000000" points="310,-62 310,-81 443,-81 443,-62 310,-62"/>
<text text-anchor="middle" x="376.5" y="-69" font-family="Helvetica,sans-Serif" font-size="10.00" fill="#000000">amr&#45;wind/core/FieldUtils.H</text>
</a>
</g>
</g>
<!-- Node10&#45;&gt;Node14 -->
<g id="edge14" class="edge">
<title>Node10&#45;&gt;Node14</title>
<path fill="none" stroke="#191970" d="M660.5308,-190.4291C638.1947,-182.0556 605.9476,-168.9205 579.5,-154 558.9804,-142.4238 557.5262,-133.6283 536.5,-123 501.9551,-105.5384 460.2531,-92.3457 428.0851,-83.686"/>
<polygon fill="#191970" stroke="#191970" points="428.5584,-80.1916 417.9971,-81.0341 426.7786,-86.9616 428.5584,-80.1916"/>
</g>
<!-- Node15 -->
<g id="node16" class="node">
<title>Node15</title>
<polygon fill="#ffffff" stroke="#bfbfbf" points="1004.5,-.5 1004.5,-19.5 1108.5,-19.5 1108.5,-.5 1004.5,-.5"/>
<text text-anchor="middle" x="1056.5" y="-7.5" font-family="Helvetica,sans-Serif" font-size="10.00" fill="#000000">AMReX_MultiFab.H</text>
</g>
<!-- Node10&#45;&gt;Node15 -->
<g id="edge45" class="edge">
<title>Node10&#45;&gt;Node15</title>
<path fill="none" stroke="#191970" d="M677.8116,-190.3618C653.731,-165.2706 595.6804,-97.0302 632.5,-56 644.4259,-42.7103 879.1857,-23.3259 994.1411,-14.5808"/>
<polygon fill="#191970" stroke="#191970" points="994.5054,-18.0634 1004.2127,-13.8186 993.9771,-11.0833 994.5054,-18.0634"/>
</g>
<!-- Node10&#45;&gt;Node17 -->
<g id="edge18" class="edge">
<title>Node10&#45;&gt;Node17</title>
<path fill="none" stroke="#191970" d="M755.5518,-199.2715C886.8713,-197.098 1184.1186,-188.4436 1431.5,-154 1438.8854,-152.9717 1446.645,-151.5921 1454.2123,-150.0781"/>
<polygon fill="#191970" stroke="#191970" points="1454.9313,-153.5036 1464.002,-148.0288 1453.497,-146.6521 1454.9313,-153.5036"/>
</g>
<!-- Node24 -->
<g id="node25" class="node">
<title>Node24</title>
<g id="a_node25"><a xlink:href="_int_field_8_h.html" target="_top" xlink:title="amr&#45;wind/core/IntField.H">
<polygon fill="#ffffff" stroke="#000000" points="715.5,-129 715.5,-148 839.5,-148 839.5,-129 715.5,-129"/>
<text text-anchor="middle" x="777.5" y="-136" font-family="Helvetica,sans-Serif" font-size="10.00" fill="#000000">amr&#45;wind/core/IntField.H</text>
</a>
</g>
</g>
<!-- Node10&#45;&gt;Node24 -->
<g id="edge33" class="edge">
<title>Node10&#45;&gt;Node24</title>
<path fill="none" stroke="#191970" d="M701.5625,-190.3906C715.8286,-180.6421 738.135,-165.3994 754.8872,-153.9521"/>
<polygon fill="#191970" stroke="#191970" points="757.2545,-156.5736 763.5362,-148.0419 753.3051,-150.7941 757.2545,-156.5736"/>
</g>
<!-- Node25 -->
<g id="node26" class="node">
<title>Node25</title>
<polygon fill="#ffffff" stroke="#bfbfbf" points="642,-62 642,-81 749,-81 749,-62 642,-62"/>
<text text-anchor="middle" x="695.5" y="-69" font-family="Helvetica,sans-Serif" font-size="10.00" fill="#000000">AMReX_iMultiFab.H</text>
</g>
<!-- Node10&#45;&gt;Node25 -->
<g id="edge46" class="edge">
<title>Node10&#45;&gt;Node25</title>
<path fill="none" stroke="#191970" d="M688.1013,-190.3416C689.4043,-169.4114 692.5114,-119.504 694.2563,-91.4762"/>
<polygon fill="#191970" stroke="#191970" points="697.7635,-91.4686 694.8917,-81.2705 690.777,-91.0336 697.7635,-91.4686"/>
</g>
<!-- Node26 -->
<g id="node27" class="node">
<title>Node26</title>
<g id="a_node27"><a xlink:href="_scratch_field_8_h.html" target="_top" xlink:title="amr&#45;wind/core/ScratchField.H">
<polygon fill="#ffffff" stroke="#000000" points="964.5,-129 964.5,-148 1110.5,-148 1110.5,-129 964.5,-129"/>
<text text-anchor="middle" x="1037.5" y="-136" font-family="Helvetica,sans-Serif" font-size="10.00" fill="#000000">amr&#45;wind/core/ScratchField.H</text>
</a>
</g>
</g>
<!-- Node10&#45;&gt;Node26 -->
<g id="edge37" class="edge">
<title>Node10&#45;&gt;Node26</title>
<path fill="none" stroke="#191970" d="M741.8035,-190.4581C804.3554,-179.4668 907.0201,-161.4272 973.4271,-149.7585"/>
<polygon fill="#191970" stroke="#191970" points="974.1137,-153.1916 983.3571,-148.0137 972.9022,-146.2972 974.1137,-153.1916"/>
</g>
<!-- Node14&#45;&gt;Node13 -->
<g id="edge15" class="edge">
<title>Node14&#45;&gt;Node13</title>
<path fill="none" stroke="#191970" d="M423.5288,-61.9954C434.6447,-59.8891 446.4721,-57.7619 457.5,-56 547.7741,-41.5768 651.4216,-28.6536 723.883,-20.2048"/>
<polygon fill="#191970" stroke="#191970" points="724.3662,-23.6723 733.8959,-19.0427 723.5591,-16.719 724.3662,-23.6723"/>
</g>
<!-- Node14&#45;&gt;Node15 -->
<g id="edge16" class="edge">
<title>Node14&#45;&gt;Node15</title>
<path fill="none" stroke="#191970" d="M441.8341,-61.9994C457.7379,-59.8575 474.7136,-57.7134 490.5,-56 673.0933,-36.1816 889.6734,-20.8472 994.0773,-13.9659"/>
<polygon fill="#191970" stroke="#191970" points="994.3791,-17.4538 1004.1286,-13.3068 993.921,-10.4688 994.3791,-17.4538"/>
</g>
<!-- Node16 -->
<g id="node17" class="node">
<title>Node16</title>
<polygon fill="#ffffff" stroke="#bfbfbf" points="318.5,-.5 318.5,-19.5 434.5,-19.5 434.5,-.5 318.5,-.5"/>
<text text-anchor="middle" x="376.5" y="-7.5" font-family="Helvetica,sans-Serif" font-size="10.00" fill="#000000">AMReX_Interpolater.H</text>
</g>
<!-- Node14&#45;&gt;Node16 -->
<g id="edge17" class="edge">
<title>Node14&#45;&gt;Node16</title>
<path fill="none" stroke="#191970" d="M376.5,-61.8906C376.5,-53.3657 376.5,-40.6392 376.5,-29.9235"/>
<polygon fill="#191970" stroke="#191970" points="380.0001,-29.7448 376.5,-19.7449 373.0001,-29.7449 380.0001,-29.7448"/>
</g>
<!-- Node17&#45;&gt;Node3 -->
<g id="edge25" class="edge">
<title>Node17&#45;&gt;Node3</title>
<path fill="none" stroke="#191970" d="M1445.7072,-135.9676C1278.694,-128.3889 790.9826,-105.2802 632.5,-87 620.4409,-85.609 607.545,-83.6637 595.3913,-81.62"/>
<polygon fill="#191970" stroke="#191970" points="595.8417,-78.146 585.3914,-79.8901 594.6485,-85.0435 595.8417,-78.146"/>
</g>
<!-- Node17&#45;&gt;Node11 -->
<g id="edge19" class="edge">
<title>Node17&#45;&gt;Node11</title>
<path fill="none" stroke="#191970" d="M1496.1112,-128.8416C1481.9586,-107.4463 1447.7769,-55.7715 1429.4997,-28.1407"/>
<polygon fill="#191970" stroke="#191970" points="1432.3992,-26.1799 1423.963,-19.7705 1426.5609,-30.0419 1432.3992,-26.1799"/>
</g>
<!-- Node17&#45;&gt;Node12 -->
<g id="edge21" class="edge">
<title>Node17&#45;&gt;Node12</title>
<path fill="none" stroke="#191970" d="M1559.1488,-135.3633C1727.6331,-125.9204 2214.7337,-97.7506 2227.5,-87 2243.9065,-73.1839 2247.3814,-47.6707 2247.5877,-29.8117"/>
<polygon fill="#191970" stroke="#191970" points="2251.0827,-29.5394 2247.3673,-19.6174 2244.0843,-29.6908 2251.0827,-29.5394"/>
</g>
<!-- Node17&#45;&gt;Node13 -->
<g id="edge27" class="edge">
<title>Node17&#45;&gt;Node13</title>
<path fill="none" stroke="#191970" d="M1445.9441,-134.207C1365.9735,-127.513 1215.5385,-112.6244 1089.5,-87 1040.1441,-76.9657 1028.9801,-69.6517 980.5,-56 939.6423,-44.4947 893.0522,-31.5192 859.8233,-22.2895"/>
<polygon fill="#191970" stroke="#191970" points="860.5329,-18.8541 849.961,-19.5511 858.6601,-25.599 860.5329,-18.8541"/>
</g>
<!-- Node17&#45;&gt;Node15 -->
<g id="edge23" class="edge">
<title>Node17&#45;&gt;Node15</title>
<path fill="none" stroke="#191970" d="M1445.6424,-135.0475C1355.9252,-128.8606 1186.1907,-113.9441 1132.5,-87 1105.3382,-73.3692 1082.1519,-46.2107 1068.7656,-28.0689"/>
<polygon fill="#191970" stroke="#191970" points="1071.3368,-25.6451 1062.6896,-19.5232 1065.6318,-29.7013 1071.3368,-25.6451"/>
</g>
<!-- Node18 -->
<g id="node19" class="node">
<title>Node18</title>
<polygon fill="#ffffff" stroke="#bfbfbf" points="2129.5,-.5 2129.5,-19.5 2181.5,-19.5 2181.5,-.5 2129.5,-.5"/>
<text text-anchor="middle" x="2155.5" y="-7.5" font-family="Helvetica,sans-Serif" font-size="10.00" fill="#000000">memory</text>
</g>
<!-- Node17&#45;&gt;Node18 -->
<g id="edge20" class="edge">
<title>Node17&#45;&gt;Node18</title>
<path fill="none" stroke="#191970" d="M1548.9074,-128.9177C1582.816,-120.7504 1629.195,-107.1038 1666.5,-87 1685.6871,-76.66 1684.3655,-64.3464 1704.5,-56 1723.6105,-48.0781 2015.6148,-22.1342 2119.3094,-13.1197"/>
<polygon fill="#191970" stroke="#191970" points="2119.648,-16.6036 2129.3081,-12.2523 2119.0429,-9.6298 2119.648,-16.6036"/>
</g>
<!-- Node19 -->
<g id="node20" class="node">
<title>Node19</title>
<polygon fill="#ffffff" stroke="#bfbfbf" points="1483.5,-62 1483.5,-81 1539.5,-81 1539.5,-62 1483.5,-62"/>
<text text-anchor="middle" x="1511.5" y="-69" font-family="Helvetica,sans-Serif" font-size="10.00" fill="#000000">algorithm</text>
</g>
<!-- Node17&#45;&gt;Node19 -->
<g id="edge22" class="edge">
<title>Node17&#45;&gt;Node19</title>
<path fill="none" stroke="#191970" d="M1503.7895,-128.9005C1505.0994,-119.149 1507.1666,-103.7597 1508.831,-91.3695"/>
<polygon fill="#191970" stroke="#191970" points="1512.3503,-91.4586 1510.2129,-81.0817 1505.4127,-90.5266 1512.3503,-91.4586"/>
</g>
<!-- Node20 -->
<g id="node21" class="node">
<title>Node20</title>
<polygon fill="#ffffff" stroke="#bfbfbf" points="1558,-62 1558,-81 1657,-81 1657,-62 1558,-62"/>
<text text-anchor="middle" x="1607.5" y="-69" font-family="Helvetica,sans-Serif" font-size="10.00" fill="#000000">AMReX_BCRec.H</text>
</g>
<!-- Node17&#45;&gt;Node20 -->
<g id="edge24" class="edge">
<title>Node17&#45;&gt;Node20</title>
<path fill="none" stroke="#191970" d="M1517.5439,-128.9005C1534.8534,-117.8554 1563.4977,-99.5776 1583.8089,-86.6172"/>
<polygon fill="#191970" stroke="#191970" points="1585.9367,-89.4113 1592.484,-81.0817 1582.1712,-83.5103 1585.9367,-89.4113"/>
</g>
<!-- Node21 -->
<g id="node22" class="node">
<title>Node21</title>
<g id="a_node22"><a xlink:href="incflo__enums_8_h.html" target="_top" xlink:title="amr&#45;wind/incflo_enums.H">
<polygon fill="#ffffff" stroke="#000000" points="1713.5,-62 1713.5,-81 1841.5,-81 1841.5,-62 1713.5,-62"/>
<text text-anchor="middle" x="1777.5" y="-69" font-family="Helvetica,sans-Serif" font-size="10.00" fill="#000000">amr&#45;wind/incflo_enums.H</text>
</a>
</g>
</g>
<!-- Node17&#45;&gt;Node21 -->
<g id="edge26" class="edge">
<title>Node17&#45;&gt;Node21</title>
<path fill="none" stroke="#191970" d="M1541.6087,-128.9717C1590.6452,-117.0246 1674.7417,-96.5357 1728.1538,-83.5225"/>
<polygon fill="#191970" stroke="#191970" points="1729.1936,-86.8716 1738.0809,-81.1039 1727.5366,-80.0706 1729.1936,-86.8716"/>
</g>
<!-- Node22 -->
<g id="node23" class="node">
<title>Node22</title>
<g id="a_node23"><a xlink:href="_view_field_8_h.html" target="_top" xlink:title="amr&#45;wind/core/ViewField.H">
<polygon fill="#ffffff" stroke="#000000" points="1141.5,-62 1141.5,-81 1275.5,-81 1275.5,-62 1141.5,-62"/>
<text text-anchor="middle" x="1208.5" y="-69" font-family="Helvetica,sans-Serif" font-size="10.00" fill="#000000">amr&#45;wind/core/ViewField.H</text>
</a>
</g>
</g>
<!-- Node17&#45;&gt;Node22 -->
<g id="edge28" class="edge">
<title>Node17&#45;&gt;Node22</title>
<path fill="none" stroke="#191970" d="M1460.6892,-128.9717C1408.0468,-116.975 1317.6096,-96.3651 1260.545,-83.3606"/>
<polygon fill="#191970" stroke="#191970" points="1261.1703,-79.9134 1250.6426,-81.1039 1259.6149,-86.7385 1261.1703,-79.9134"/>
</g>
<!-- Node22&#45;&gt;Node11 -->
<g id="edge29" class="edge">
<title>Node22&#45;&gt;Node11</title>
<path fill="none" stroke="#191970" d="M1241.1563,-61.8906C1281.0988,-50.1372 1348.1828,-30.3972 1387.0795,-18.9515"/>
<polygon fill="#191970" stroke="#191970" points="1388.1871,-22.274 1396.7923,-16.0934 1386.211,-15.5587 1388.1871,-22.274"/>
</g>
<!-- Node22&#45;&gt;Node13 -->
<g id="edge30" class="edge">
<title>Node22&#45;&gt;Node13</title>
<path fill="none" stroke="#191970" d="M1160.5904,-61.9814C1149.7262,-59.9206 1138.2287,-57.8166 1127.5,-56 1049.1324,-42.731 959.3165,-29.7189 896.2361,-20.9392"/>
<polygon fill="#191970" stroke="#191970" points="896.3423,-17.4204 885.9561,-19.5129 895.3802,-24.354 896.3423,-17.4204"/>
</g>
<!-- Node22&#45;&gt;Node15 -->
<g id="edge31" class="edge">
<title>Node22&#45;&gt;Node15</title>
<path fill="none" stroke="#191970" d="M1184.75,-61.8906C1159.2061,-51.5554 1118.3991,-35.0447 1089.689,-23.4284"/>
<polygon fill="#191970" stroke="#191970" points="1090.666,-20.0481 1080.0832,-19.5419 1088.0404,-26.5371 1090.666,-20.0481"/>
</g>
<!-- Node23 -->
<g id="node24" class="node">
<title>Node23</title>
<polygon fill="#ffffff" stroke="#bfbfbf" points="1256,-.5 1256,-19.5 1351,-19.5 1351,-.5 1256,-.5"/>
<text text-anchor="middle" x="1303.5" y="-7.5" font-family="Helvetica,sans-Serif" font-size="10.00" fill="#000000">AMReX_Vector.H</text>
</g>
<!-- Node22&#45;&gt;Node23 -->
<g id="edge32" class="edge">
<title>Node22&#45;&gt;Node23</title>
<path fill="none" stroke="#191970" d="M1223.3438,-61.8906C1238.5418,-52.0519 1262.3848,-36.6167 1280.1206,-25.1351"/>
<polygon fill="#191970" stroke="#191970" points="1282.268,-27.9144 1288.7605,-19.5419 1278.4639,-22.0382 1282.268,-27.9144"/>
</g>
<!-- Node24&#45;&gt;Node11 -->
<g id="edge34" class="edge">
<title>Node24&#45;&gt;Node11</title>
<path fill="none" stroke="#191970" d="M839.5824,-132.8958C970.2937,-121 1263.6141,-93.7598 1284.5,-87 1327.4552,-73.0974 1371.7351,-43.9303 1396.8197,-25.7533"/>
<polygon fill="#191970" stroke="#191970" points="1399.1869,-28.3563 1405.155,-19.6023 1395.0304,-22.7239 1399.1869,-28.3563"/>
</g>
<!-- Node24&#45;&gt;Node13 -->
<g id="edge35" class="edge">
<title>Node24&#45;&gt;Node13</title>
<path fill="none" stroke="#191970" d="M780.2695,-128.8358C784.6976,-113.4169 793.6708,-82.3063 801.5,-56 804.116,-47.2102 807.065,-37.4931 809.5794,-29.2634"/>
<polygon fill="#191970" stroke="#191970" points="812.9863,-30.0911 812.5699,-19.5045 806.2935,-28.0401 812.9863,-30.0911"/>
</g>
<!-- Node24&#45;&gt;Node25 -->
<g id="edge36" class="edge">
<title>Node24&#45;&gt;Node25</title>
<path fill="none" stroke="#191970" d="M765.7514,-128.9005C752.5989,-118.1539 731.0664,-100.5603 715.3017,-87.6794"/>
<polygon fill="#191970" stroke="#191970" points="717.1852,-84.6986 707.2268,-81.0817 712.7561,-90.1193 717.1852,-84.6986"/>
</g>
<!-- Node26&#45;&gt;Node11 -->
<g id="edge38" class="edge">
<title>Node26&#45;&gt;Node11</title>
<path fill="none" stroke="#191970" d="M1110.7195,-132.7332C1191.3673,-125.3275 1315.0093,-110.5464 1355.5,-87 1379.1598,-73.2412 1397.4012,-46.7451 1407.7939,-28.7193"/>
<polygon fill="#191970" stroke="#191970" points="1410.9956,-30.1606 1412.7447,-19.7111 1404.861,-26.789 1410.9956,-30.1606"/>
</g>
<!-- Node26&#45;&gt;Node13 -->
<g id="edge39" class="edge">
<title>Node26&#45;&gt;Node13</title>
<path fill="none" stroke="#191970" d="M969.9808,-128.9711C918.5679,-120.3659 853.4952,-106.1197 834.5,-87 819.5341,-71.936 815.7044,-47.0779 815.0249,-29.6927"/>
<polygon fill="#191970" stroke="#191970" points="818.5236,-29.4985 814.9478,-19.5253 811.5238,-29.5516 818.5236,-29.4985"/>
</g>
<!-- Node26&#45;&gt;Node15 -->
<g id="edge41" class="edge">
<title>Node26&#45;&gt;Node15</title>
<path fill="none" stroke="#191970" d="M1038.9281,-128.8416C1042.0228,-107.9114 1049.4021,-58.004 1053.5463,-29.9762"/>
<polygon fill="#191970" stroke="#191970" points="1057.0549,-30.1749 1055.0553,-19.7705 1050.1302,-29.1509 1057.0549,-30.1749"/>
</g>
<!-- Node26&#45;&gt;Node22 -->
<g id="edge40" class="edge">
<title>Node26&#45;&gt;Node22</title>
<path fill="none" stroke="#191970" d="M1062.0001,-128.9005C1091.5867,-117.3082 1141.5074,-97.7486 1174.7305,-84.7313"/>
<polygon fill="#191970" stroke="#191970" points="1176.0113,-87.9886 1184.0453,-81.0817 1173.4576,-81.471 1176.0113,-87.9886"/>
</g>
<!-- Node26&#45;&gt;Node23 -->
<g id="edge42" class="edge">
<title>Node26&#45;&gt;Node23</title>
<path fill="none" stroke="#191970" d="M1110.7845,-131.8158C1174.3934,-124.5183 1260.0231,-110.6026 1284.5,-87 1299.7855,-72.2605 1303.5497,-47.3359 1304.1267,-29.8465"/>
<polygon fill="#191970" stroke="#191970" points="1307.6268,-29.6118 1304.1347,-19.6091 1300.6268,-29.6063 1307.6268,-29.6118"/>
</g>
<!-- Node27 -->
<g id="node28" class="node">
<title>Node27</title>
<polygon fill="#ffffff" stroke="#bfbfbf" points="843.5,-62 843.5,-81 971.5,-81 971.5,-62 843.5,-62"/>
<text text-anchor="middle" x="907.5" y="-69" font-family="Helvetica,sans-Serif" font-size="10.00" fill="#000000">AMReX_PhysBCFunct.H</text>
</g>
<!-- Node26&#45;&gt;Node27 -->
<g id="edge43" class="edge">
<title>Node26&#45;&gt;Node27</title>
<path fill="none" stroke="#191970" d="M1018.8742,-128.9005C996.9607,-117.6067 960.3744,-98.7506 935.1487,-85.7497"/>
<polygon fill="#191970" stroke="#191970" points="936.5836,-82.5518 926.0913,-81.0817 933.3768,-88.774 936.5836,-82.5518"/>
</g>
<!-- Node28&#45;&gt;Node11 -->
<g id="edge48" class="edge">
<title>Node28&#45;&gt;Node11</title>
<path fill="none" stroke="#191970" d="M1870.8045,-123.425C1871.5167,-104.6116 1869.53,-72.8644 1850.5,-56 1820.4657,-29.3836 1542.3482,-15.2734 1448.3631,-11.2349"/>
<polygon fill="#191970" stroke="#191970" points="1448.2306,-7.7263 1438.0922,-10.8024 1447.936,-14.7201 1448.2306,-7.7263"/>
</g>
<!-- Node28&#45;&gt;Node13 -->
<g id="edge62" class="edge">
<title>Node28&#45;&gt;Node13</title>
<path fill="none" stroke="#191970" d="M1799.8016,-134.7737C1628.5831,-125.4565 1196.5843,-100.9009 1132.5,-87 1094.0171,-78.6524 1087.3899,-66.7224 1049.5,-56 996.4259,-40.9806 935.2191,-29.1357 888.7182,-21.2289"/>
<polygon fill="#191970" stroke="#191970" points="889.1701,-17.7558 878.7286,-19.5523 888.0114,-24.6593 889.1701,-17.7558"/>
</g>
<!-- Node28&#45;&gt;Node21 -->
<g id="edge63" class="edge">
<title>Node28&#45;&gt;Node21</title>
<path fill="none" stroke="#191970" d="M1848.6238,-123.2967C1833.7331,-112.4524 1813.7757,-97.9182 1798.7919,-87.006"/>
<polygon fill="#191970" stroke="#191970" points="1800.7643,-84.1127 1790.6203,-81.055 1796.6434,-89.7712 1800.7643,-84.1127"/>
</g>
<!-- Node29 -->
<g id="node30" class="node">
<title>Node29</title>
<g id="a_node30"><a xlink:href="_factory_8_h.html" target="_top" xlink:title="amr&#45;wind/core/Factory.H">
<polygon fill="#ffffff" stroke="#000000" points="2313,-62 2313,-81 2438,-81 2438,-62 2313,-62"/>
<text text-anchor="middle" x="2375.5" y="-69" font-family="Helvetica,sans-Serif" font-size="10.00" fill="#000000">amr&#45;wind/core/Factory.H</text>
</a>
</g>
</g>
<!-- Node28&#45;&gt;Node29 -->
<g id="edge49" class="edge">
<title>Node28&#45;&gt;Node29</title>
<path fill="none" stroke="#191970" d="M1939.0789,-129.3999C2017.275,-119.1577 2148.0081,-101.9893 2260.5,-87 2274.1587,-85.18 2288.7281,-83.2261 2302.7465,-81.3397"/>
<polygon fill="#191970" stroke="#191970" points="2303.3924,-84.7844 2312.8357,-79.9809 2302.458,-77.847 2303.3924,-84.7844"/>
</g>
<!-- Node33 -->
<g id="node34" class="node">
<title>Node33</title>
<g id="a_node34"><a xlink:href="_coll_mgr_8_h.html" target="_top" xlink:title="amr&#45;wind/core/CollMgr.H">
<polygon fill="#ffffff" stroke="#000000" points="2093,-62 2093,-81 2218,-81 2218,-62 2093,-62"/>
<text text-anchor="middle" x="2155.5" y="-69" font-family="Helvetica,sans-Serif" font-size="10.00" fill="#000000">amr&#45;wind/core/CollMgr.H</text>
</a>
</g>
</g>
<!-- Node28&#45;&gt;Node33 -->
<g id="edge55" class="edge">
<title>Node28&#45;&gt;Node33</title>
<path fill="none" stroke="#191970" d="M1933.684,-123.4639C1985.4996,-111.3253 2057.3928,-94.4831 2105.1228,-83.3016"/>
<polygon fill="#191970" stroke="#191970" points="2105.9871,-86.694 2114.9252,-81.0053 2104.3904,-79.8785 2105.9871,-86.694"/>
</g>
<!-- Node34 -->
<g id="node35" class="node">
<title>Node34</title>
<g id="a_node35"><a xlink:href="_p_d_e_fields_8_h.html" target="_top" xlink:title="amr&#45;wind/equation_systems\l/PDEFields.H">
<polygon fill="#ffffff" stroke="#000000" points="1936,-56.5 1936,-86.5 2075,-86.5 2075,-56.5 1936,-56.5"/>
<text text-anchor="start" x="1944" y="-74.5" font-family="Helvetica,sans-Serif" font-size="10.00" fill="#000000">amr&#45;wind/equation_systems</text>
<text text-anchor="middle" x="2005.5" y="-63.5" font-family="Helvetica,sans-Serif" font-size="10.00" fill="#000000">/PDEFields.H</text>
</a>
</g>
</g>
<!-- Node28&#45;&gt;Node34 -->
<g id="edge60" class="edge">
<title>Node28&#45;&gt;Node34</title>
<path fill="none" stroke="#191970" d="M1900.0211,-123.4639C1919.3955,-113.9191 1944.673,-101.4663 1965.6257,-91.144"/>
<polygon fill="#191970" stroke="#191970" points="1967.1865,-94.2768 1974.6103,-86.7177 1964.093,-87.9974 1967.1865,-94.2768"/>
</g>
<!-- Node29&#45;&gt;Node12 -->
<g id="edge51" class="edge">
<title>Node29&#45;&gt;Node12</title>
<path fill="none" stroke="#191970" d="M2355.3438,-61.8906C2333.949,-51.6908 2299.938,-35.4763 2275.6298,-23.8875"/>
<polygon fill="#191970" stroke="#191970" points="2277.0476,-20.686 2266.5147,-19.5419 2274.0352,-27.0047 2277.0476,-20.686"/>
</g>
<!-- Node29&#45;&gt;Node18 -->
<g id="edge50" class="edge">
<title>Node29&#45;&gt;Node18</title>
<path fill="none" stroke="#191970" d="M2341.125,-61.8906C2300.3748,-50.4991 2232.7871,-31.6053 2191.3865,-20.0319"/>
<polygon fill="#191970" stroke="#191970" points="2192.2827,-16.6483 2181.7096,-17.3268 2190.3981,-23.3899 2192.2827,-16.6483"/>
</g>
<!-- Node30 -->
<g id="node31" class="node">
<title>Node30</title>
<polygon fill="#ffffff" stroke="#bfbfbf" points="2386.5,-.5 2386.5,-19.5 2440.5,-19.5 2440.5,-.5 2386.5,-.5"/>
<text text-anchor="middle" x="2413.5" y="-7.5" font-family="Helvetica,sans-Serif" font-size="10.00" fill="#000000">iostream</text>
</g>
<!-- Node29&#45;&gt;Node30 -->
<g id="edge52" class="edge">
<title>Node29&#45;&gt;Node30</title>
<path fill="none" stroke="#191970" d="M2381.4375,-61.8906C2386.9267,-53.0068 2395.2353,-39.5601 2402.019,-28.5811"/>
<polygon fill="#191970" stroke="#191970" points="2405.1998,-30.0917 2407.4788,-19.7449 2399.2449,-26.4122 2405.1998,-30.0917"/>
</g>
<!-- Node31 -->
<g id="node32" class="node">
<title>Node31</title>
<polygon fill="#ffffff" stroke="#bfbfbf" points="2459,-.5 2459,-19.5 2546,-19.5 2546,-.5 2459,-.5"/>
<text text-anchor="middle" x="2502.5" y="-7.5" font-family="Helvetica,sans-Serif" font-size="10.00" fill="#000000">AMReX_Print.H</text>
</g>
<!-- Node29&#45;&gt;Node31 -->
<g id="edge53" class="edge">
<title>Node29&#45;&gt;Node31</title>
<path fill="none" stroke="#191970" d="M2395.3438,-61.8906C2416.3136,-51.7359 2449.5944,-35.6196 2473.5036,-24.0416"/>
<polygon fill="#191970" stroke="#191970" points="2475.3208,-27.0504 2482.7956,-19.5419 2472.2699,-20.7502 2475.3208,-27.0504"/>
</g>
<!-- Node32 -->
<g id="node33" class="node">
<title>Node32</title>
<polygon fill="#ffffff" stroke="#bfbfbf" points="2306.5,-.5 2306.5,-19.5 2368.5,-19.5 2368.5,-.5 2306.5,-.5"/>
<text text-anchor="middle" x="2337.5" y="-7.5" font-family="Helvetica,sans-Serif" font-size="10.00" fill="#000000">AMReX.H</text>
</g>
<!-- Node29&#45;&gt;Node32 -->
<g id="edge54" class="edge">
<title>Node29&#45;&gt;Node32</title>
<path fill="none" stroke="#191970" d="M2369.5625,-61.8906C2364.0733,-53.0068 2355.7647,-39.5601 2348.981,-28.5811"/>
<polygon fill="#191970" stroke="#191970" points="2351.7551,-26.4122 2343.5212,-19.7449 2345.8002,-30.0917 2351.7551,-26.4122"/>
</g>
<!-- Node33&#45;&gt;Node11 -->
<g id="edge56" class="edge">
<title>Node33&#45;&gt;Node11</title>
<path fill="none" stroke="#191970" d="M2116.6244,-61.941C2106.2423,-59.6828 2094.9915,-57.4988 2084.5,-56 1840.8089,-21.187 1543.1237,-12.4847 1448.1465,-10.5233"/>
<polygon fill="#191970" stroke="#191970" points="1448.1502,-7.0228 1438.0833,-10.3254 1448.0125,-14.0214 1448.1502,-7.0228"/>
</g>
<!-- Node33&#45;&gt;Node12 -->
<g id="edge58" class="edge">
<title>Node33&#45;&gt;Node12</title>
<path fill="none" stroke="#191970" d="M2169.7188,-61.8906C2184.1434,-52.1421 2206.6976,-36.8994 2223.636,-25.4521"/>
<polygon fill="#191970" stroke="#191970" points="2226.0556,-28.0412 2232.3811,-19.5419 2222.1359,-22.2415 2226.0556,-28.0412"/>
</g>
<!-- Node33&#45;&gt;Node18 -->
<g id="edge57" class="edge">
<title>Node33&#45;&gt;Node18</title>
<path fill="none" stroke="#191970" d="M2155.5,-61.8906C2155.5,-53.3657 2155.5,-40.6392 2155.5,-29.9235"/>
<polygon fill="#191970" stroke="#191970" points="2159.0001,-29.7448 2155.5,-19.7449 2152.0001,-29.7449 2159.0001,-29.7448"/>
</g>
<!-- Node33&#45;&gt;Node23 -->
<g id="edge59" class="edge">
<title>Node33&#45;&gt;Node23</title>
<path fill="none" stroke="#191970" d="M2117.3815,-61.9798C2106.7955,-59.6641 2095.2541,-57.4418 2084.5,-56 1777.0599,-14.7829 1696.5696,-46.349 1387.5,-20 1379.0859,-19.2827 1370.2138,-18.3831 1361.514,-17.4193"/>
<polygon fill="#191970" stroke="#191970" points="1361.7508,-13.9237 1351.418,-16.2655 1360.9559,-20.8784 1361.7508,-13.9237"/>
</g>
<!-- Node35 -->
<g id="node36" class="node">
<title>Node35</title>
<polygon fill="#ffffff" stroke="#bfbfbf" points="1983,-.5 1983,-19.5 2028,-19.5 2028,-.5 1983,-.5"/>
<text text-anchor="middle" x="2005.5" y="-7.5" font-family="Helvetica,sans-Serif" font-size="10.00" fill="#000000">iosfwd</text>
</g>
<!-- Node34&#45;&gt;Node35 -->
<g id="edge61" class="edge">
<title>Node34&#45;&gt;Node35</title>
<path fill="none" stroke="#191970" d="M2005.5,-56.2977C2005.5,-48.3834 2005.5,-38.6043 2005.5,-30.0759"/>
<polygon fill="#191970" stroke="#191970" points="2009.0001,-29.8469 2005.5,-19.8469 2002.0001,-29.847 2009.0001,-29.8469"/>
</g>
<!-- Node36&#45;&gt;Node15 -->
<g id="edge67" class="edge">
<title>Node36&#45;&gt;Node15</title>
<path fill="none" stroke="#191970" d="M2311.842,-136.538C2224.0999,-132.6297 2061.6236,-121.0472 1927.5,-87 1891.7425,-77.923 1886.4999,-64.0619 1850.5,-56 1832.6991,-52.0136 1302.963,-23.2486 1118.836,-13.3421"/>
<polygon fill="#191970" stroke="#191970" points="1118.9429,-9.8429 1108.7694,-12.8007 1118.567,-16.8328 1118.9429,-9.8429"/>
</g>
<!-- Node36&#45;&gt;Node29 -->
<g id="edge65" class="edge">
<title>Node36&#45;&gt;Node29</title>
<path fill="none" stroke="#191970" d="M2375.5,-128.9005C2375.5,-119.149 2375.5,-103.7597 2375.5,-91.3695"/>
<polygon fill="#191970" stroke="#191970" points="2379.0001,-91.0816 2375.5,-81.0817 2372.0001,-91.0817 2379.0001,-91.0816"/>
</g>
<!-- Node36&#45;&gt;Node33 -->
<g id="edge66" class="edge">
<title>Node36&#45;&gt;Node33</title>
<path fill="none" stroke="#191970" d="M2343.9794,-128.9005C2305.2614,-117.1091 2239.4764,-97.0746 2196.7641,-84.0668"/>
<polygon fill="#191970" stroke="#191970" points="2197.5481,-80.6469 2186.9622,-81.0817 2195.5087,-87.3433 2197.5481,-80.6469"/>
</g>
<!-- Node37 -->
<g id="node38" class="node">
<title>Node37</title>
<polygon fill="#ffffff" stroke="#bfbfbf" points="2456.5,-62 2456.5,-81 2566.5,-81 2566.5,-62 2456.5,-62"/>
<text text-anchor="middle" x="2511.5" y="-69" font-family="Helvetica,sans-Serif" font-size="10.00" fill="#000000">AMReX_Geometry.H</text>
</g>
<!-- Node36&#45;&gt;Node37 -->
<g id="edge68" class="edge">
<title>Node36&#45;&gt;Node37</title>
<path fill="none" stroke="#191970" d="M2394.9855,-128.9005C2418.0113,-117.5569 2456.5228,-98.5844 2482.9232,-85.5783"/>
<polygon fill="#191970" stroke="#191970" points="2484.6269,-88.6407 2492.0507,-81.0817 2481.5334,-82.3613 2484.6269,-88.6407"/>
</g>
</g>
</svg>
