<?xml version="1.0" encoding="UTF-8" standalone="no"?>
<!DOCTYPE svg PUBLIC "-//W3C//DTD SVG 1.1//EN"
 "http://www.w3.org/Graphics/SVG/1.1/DTD/svg11.dtd">
<!-- Generated by graphviz version 2.40.1 (20161225.0304)
 -->
<!-- Title: FieldRepo.H Pages: 1 -->
<svg width="3743pt" height="252pt"
 viewBox="0.00 0.00 3743.00 252.00" xmlns="http://www.w3.org/2000/svg" xmlns:xlink="http://www.w3.org/1999/xlink">
<g id="graph0" class="graph" transform="scale(1 1) rotate(0) translate(4 248)">
<title>FieldRepo.H</title>
<polygon fill="#ffffff" stroke="transparent" points="-4,4 -4,-248 3739,-248 3739,4 -4,4"/>
<!-- Node20 -->
<g id="node1" class="node">
<title>Node20</title>
<polygon fill="#bfbfbf" stroke="#000000" points="1797.5,-224.5 1797.5,-243.5 1868.5,-243.5 1868.5,-224.5 1797.5,-224.5"/>
<text text-anchor="middle" x="1833" y="-231.5" font-family="Helvetica,sans-Serif" font-size="10.00" fill="#000000">FieldRepo.H</text>
</g>
<!-- Node21 -->
<g id="node2" class="node">
<title>Node21</title>
<g id="a_node2"><a xlink:href="_b_c_interface_8cpp.html" target="_top" xlink:title="BCInterface.cpp">
<polygon fill="#ffffff" stroke="#000000" points="0,-112.5 0,-131.5 88,-131.5 88,-112.5 0,-112.5"/>
<text text-anchor="middle" x="44" y="-119.5" font-family="Helvetica,sans-Serif" font-size="10.00" fill="#000000">BCInterface.cpp</text>
</a>
</g>
</g>
<!-- Node20&#45;&gt;Node21 -->
<g id="edge1" class="edge">
<title>Node20&#45;&gt;Node21</title>
<path fill="none" stroke="#191970" d="M1787.3559,-233.827C1521.2647,-232.6885 179.3361,-225.1182 101,-188 75.8254,-176.0714 57.393,-147.1945 49.0161,-131.8948"/>
<polygon fill="#191970" stroke="#191970" points="1787.4244,-237.3272 1797.439,-233.8692 1787.4538,-230.3273 1787.4244,-237.3272"/>
</g>
<!-- Node22 -->
<g id="node3" class="node">
<title>Node22</title>
<g id="a_node3"><a xlink:href="_fixed_gradient_b_c_8_h.html" target="_top" xlink:title="FixedGradientBC.H">
<polygon fill="#ffffff" stroke="#000000" points="110,-168.5 110,-187.5 212,-187.5 212,-168.5 110,-168.5"/>
<text text-anchor="middle" x="161" y="-175.5" font-family="Helvetica,sans-Serif" font-size="10.00" fill="#000000">FixedGradientBC.H</text>
</a>
</g>
</g>
<!-- Node20&#45;&gt;Node22 -->
<g id="edge2" class="edge">
<title>Node20&#45;&gt;Node22</title>
<path fill="none" stroke="#191970" d="M1787.2251,-233.119C1603.433,-229.473 901.2461,-214.499 324,-188 286.4734,-186.2773 244.1271,-183.659 212.0031,-181.5337"/>
<polygon fill="#191970" stroke="#191970" points="1787.2709,-236.6205 1797.338,-233.3186 1787.409,-229.6219 1787.2709,-236.6205"/>
</g>
<!-- Node24 -->
<g id="node5" class="node">
<title>Node24</title>
<g id="a_node5"><a xlink:href="_c_f_d_sim_8_h.html" target="_top" xlink:title="CFDSim.H">
<polygon fill="#ffffff" stroke="#ff0000" points="1214.5,-168.5 1214.5,-187.5 1279.5,-187.5 1279.5,-168.5 1214.5,-168.5"/>
<text text-anchor="middle" x="1247" y="-175.5" font-family="Helvetica,sans-Serif" font-size="10.00" fill="#000000">CFDSim.H</text>
</a>
</g>
</g>
<!-- Node20&#45;&gt;Node24 -->
<g id="edge5" class="edge">
<title>Node20&#45;&gt;Node24</title>
<path fill="none" stroke="#191970" d="M1787.452,-232.4473C1693.6518,-228.7454 1472.339,-217.4086 1289,-188 1286.0396,-187.5251 1282.979,-186.9545 1279.9217,-186.3297"/>
<polygon fill="#191970" stroke="#191970" points="1787.3275,-235.945 1797.4547,-232.832 1787.5966,-228.9502 1787.3275,-235.945"/>
</g>
<!-- Node25 -->
<g id="node6" class="node">
<title>Node25</title>
<g id="a_node6"><a xlink:href="incflo_8_h.html" target="_top" xlink:title="incflo.H">
<polygon fill="#ffffff" stroke="#ff0000" points="893,-112.5 893,-131.5 943,-131.5 943,-112.5 893,-112.5"/>
<text text-anchor="middle" x="918" y="-119.5" font-family="Helvetica,sans-Serif" font-size="10.00" fill="#000000">incflo.H</text>
</a>
</g>
</g>
<!-- Node20&#45;&gt;Node25 -->
<g id="edge26" class="edge">
<title>Node20&#45;&gt;Node25</title>
<path fill="none" stroke="#191970" d="M1787.2385,-232.9808C1683.2478,-230.1563 1421.3997,-220.1746 1205,-188 1106.8922,-173.4132 992.6607,-143.0321 943.0844,-129.1718"/>
<polygon fill="#191970" stroke="#191970" points="1787.2974,-236.4834 1797.3858,-233.247 1787.4811,-229.4858 1787.2974,-236.4834"/>
</g>
<!-- Node57 -->
<g id="node10" class="node">
<title>Node57</title>
<g id="a_node10"><a xlink:href="_a_b_l_mean_boussinesq_8_h.html" target="_top" xlink:title="ABLMeanBoussinesq.H">
<polygon fill="#ffffff" stroke="#ff0000" points="813.5,-56.5 813.5,-75.5 934.5,-75.5 934.5,-56.5 813.5,-56.5"/>
<text text-anchor="middle" x="874" y="-63.5" font-family="Helvetica,sans-Serif" font-size="10.00" fill="#000000">ABLMeanBoussinesq.H</text>
</a>
</g>
</g>
<!-- Node20&#45;&gt;Node57 -->
<g id="edge48" class="edge">
<title>Node20&#45;&gt;Node57</title>
<path fill="none" stroke="#191970" d="M1787.1403,-232.2931C1647.9656,-226.9291 1231.7966,-209.4854 1098,-188 1000.9299,-172.4122 949.7536,-205.0893 884,-132 870.0483,-116.4918 870.7723,-90.1626 872.4318,-75.8965"/>
<polygon fill="#191970" stroke="#191970" points="1787.3171,-235.8023 1797.4438,-232.6875 1787.585,-228.8074 1787.3171,-235.8023"/>
</g>
<!-- Node104 -->
<g id="node18" class="node">
<title>Node104</title>
<g id="a_node18"><a xlink:href="_p_d_e_base_8cpp.html" target="_top" xlink:title="PDEBase.cpp">
<polygon fill="#ffffff" stroke="#000000" points="1779.5,-112.5 1779.5,-131.5 1858.5,-131.5 1858.5,-112.5 1779.5,-112.5"/>
<text text-anchor="middle" x="1819" y="-119.5" font-family="Helvetica,sans-Serif" font-size="10.00" fill="#000000">PDEBase.cpp</text>
</a>
</g>
</g>
<!-- Node20&#45;&gt;Node104 -->
<g id="edge54" class="edge">
<title>Node20&#45;&gt;Node104</title>
<path fill="none" stroke="#191970" d="M1787.0642,-232.1081C1686.7796,-227.5062 1455.3119,-214.139 1432,-188 1426.0836,-181.3661 1426.0568,-174.6099 1432,-168 1482.5044,-111.8308 1695.3547,-143.5652 1770,-132 1773.0888,-131.5214 1776.2778,-130.9797 1779.4779,-130.4021"/>
<polygon fill="#191970" stroke="#191970" points="1787.0562,-235.6112 1797.2033,-232.5639 1787.3706,-228.6182 1787.0562,-235.6112"/>
</g>
<!-- Node109 -->
<g id="node19" class="node">
<title>Node109</title>
<g id="a_node19"><a xlink:href="_tioga_interface_8cpp.html" target="_top" xlink:title="TiogaInterface.cpp">
<polygon fill="#ffffff" stroke="#000000" points="1876,-112.5 1876,-131.5 1974,-131.5 1974,-112.5 1876,-112.5"/>
<text text-anchor="middle" x="1925" y="-119.5" font-family="Helvetica,sans-Serif" font-size="10.00" fill="#000000">TiogaInterface.cpp</text>
</a>
</g>
</g>
<!-- Node20&#45;&gt;Node109 -->
<g id="edge61" class="edge">
<title>Node20&#45;&gt;Node109</title>
<path fill="none" stroke="#191970" d="M1787.1118,-232.8561C1680.0725,-229.3739 1426.1492,-215.9962 1470,-168 1499.9499,-135.2188 1823.9832,-137.8415 1868,-132 1870.5895,-131.6563 1873.241,-131.2793 1875.9151,-130.8793"/>
<polygon fill="#191970" stroke="#191970" points="1787.1962,-236.3603 1797.2999,-233.172 1787.4132,-229.3637 1787.1962,-236.3603"/>
</g>
<!-- Node151 -->
<g id="node20" class="node">
<title>Node151</title>
<g id="a_node20"><a xlink:href="_actuator_8cpp.html" target="_top" xlink:title="Actuator.cpp">
<polygon fill="#ffffff" stroke="#000000" points="1992,-112.5 1992,-131.5 2064,-131.5 2064,-112.5 1992,-112.5"/>
<text text-anchor="middle" x="2028" y="-119.5" font-family="Helvetica,sans-Serif" font-size="10.00" fill="#000000">Actuator.cpp</text>
</a>
</g>
</g>
<!-- Node20&#45;&gt;Node151 -->
<g id="edge68" class="edge">
<title>Node20&#45;&gt;Node151</title>
<path fill="none" stroke="#191970" d="M1787.3738,-230.9238C1701.1906,-224.6468 1521.4053,-209.1488 1503,-188 1497.1646,-181.2948 1496.9542,-174.5162 1503,-168 1539.3766,-128.793 1930.0919,-139.8213 1983,-132 1985.8501,-131.5787 1988.7886,-131.0781 1991.7341,-130.5289"/>
<polygon fill="#191970" stroke="#191970" points="1787.178,-234.4187 1797.4028,-231.6433 1787.679,-227.4366 1787.178,-234.4187"/>
</g>
<!-- Node161 -->
<g id="node21" class="node">
<title>Node161</title>
<g id="a_node21"><a xlink:href="velocity__bcs_8_h.html" target="_top" xlink:title="velocity_bcs.H">
<polygon fill="#ffffff" stroke="#ff0000" points="1512,-168.5 1512,-187.5 1594,-187.5 1594,-168.5 1512,-168.5"/>
<text text-anchor="middle" x="1553" y="-175.5" font-family="Helvetica,sans-Serif" font-size="10.00" fill="#000000">velocity_bcs.H</text>
</a>
</g>
</g>
<!-- Node20&#45;&gt;Node161 -->
<g id="edge27" class="edge">
<title>Node20&#45;&gt;Node161</title>
<path fill="none" stroke="#191970" d="M1787.361,-224.8722C1733.8849,-214.177 1646.0453,-196.6091 1594.4468,-186.2894"/>
<polygon fill="#191970" stroke="#191970" points="1786.7612,-228.3215 1797.2534,-226.8507 1788.134,-221.4574 1786.7612,-228.3215"/>
</g>
<!-- Node162 -->
<g id="node22" class="node">
<title>Node162</title>
<g id="a_node22"><a xlink:href="_godunov_8_h.html" target="_top" xlink:title="Godunov.H">
<polygon fill="#ffffff" stroke="#ff0000" points="1612,-168.5 1612,-187.5 1678,-187.5 1678,-168.5 1612,-168.5"/>
<text text-anchor="middle" x="1645" y="-175.5" font-family="Helvetica,sans-Serif" font-size="10.00" fill="#000000">Godunov.H</text>
</a>
</g>
</g>
<!-- Node20&#45;&gt;Node162 -->
<g id="edge28" class="edge">
<title>Node20&#45;&gt;Node162</title>
<path fill="none" stroke="#191970" d="M1790.8883,-221.4561C1756.3782,-211.1765 1708.2801,-196.8494 1676.8966,-187.5011"/>
<polygon fill="#191970" stroke="#191970" points="1790.0986,-224.8728 1800.6816,-224.3733 1792.097,-218.1641 1790.0986,-224.8728"/>
</g>
<!-- Node168 -->
<g id="node23" class="node">
<title>Node168</title>
<g id="a_node23"><a xlink:href="_m_o_l_8_h.html" target="_top" xlink:title="MOL.H">
<polygon fill="#ffffff" stroke="#ff0000" points="1696,-168.5 1696,-187.5 1744,-187.5 1744,-168.5 1696,-168.5"/>
<text text-anchor="middle" x="1720" y="-175.5" font-family="Helvetica,sans-Serif" font-size="10.00" fill="#000000">MOL.H</text>
</a>
</g>
</g>
<!-- Node20&#45;&gt;Node168 -->
<g id="edge29" class="edge">
<title>Node20&#45;&gt;Node168</title>
<path fill="none" stroke="#191970" d="M1804.4208,-219.8368C1783.9942,-209.7139 1757.0638,-196.3679 1739.1719,-187.5011"/>
<polygon fill="#191970" stroke="#191970" points="1803.0604,-223.0688 1813.5746,-224.3733 1806.1687,-216.7968 1803.0604,-223.0688"/>
</g>
<!-- Node171 -->
<g id="node24" class="node">
<title>Node171</title>
<g id="a_node24"><a xlink:href="_field_8cpp.html" target="_top" xlink:title="Field.cpp">
<polygon fill="#ffffff" stroke="#000000" points="1762,-168.5 1762,-187.5 1818,-187.5 1818,-168.5 1762,-168.5"/>
<text text-anchor="middle" x="1790" y="-175.5" font-family="Helvetica,sans-Serif" font-size="10.00" fill="#000000">Field.cpp</text>
</a>
</g>
</g>
<!-- Node20&#45;&gt;Node171 -->
<g id="edge30" class="edge">
<title>Node20&#45;&gt;Node171</title>
<path fill="none" stroke="#191970" d="M1819.3408,-216.2112C1812.0737,-206.7472 1803.4219,-195.4797 1797.4042,-187.6427"/>
<polygon fill="#191970" stroke="#191970" points="1816.6436,-218.4456 1825.51,-224.2455 1822.1957,-214.1824 1816.6436,-218.4456"/>
</g>
<!-- Node172 -->
<g id="node25" class="node">
<title>Node172</title>
<g id="a_node25"><a xlink:href="_field_repo_8cpp.html" target="_top" xlink:title="FieldRepo.cpp">
<polygon fill="#ffffff" stroke="#000000" points="1836,-168.5 1836,-187.5 1916,-187.5 1916,-168.5 1836,-168.5"/>
<text text-anchor="middle" x="1876" y="-175.5" font-family="Helvetica,sans-Serif" font-size="10.00" fill="#000000">FieldRepo.cpp</text>
</a>
</g>
</g>
<!-- Node20&#45;&gt;Node172 -->
<g id="edge31" class="edge">
<title>Node20&#45;&gt;Node172</title>
<path fill="none" stroke="#191970" d="M1846.6592,-216.2112C1853.9263,-206.7472 1862.5781,-195.4797 1868.5958,-187.6427"/>
<polygon fill="#191970" stroke="#191970" points="1843.8043,-214.1824 1840.49,-224.2455 1849.3564,-218.4456 1843.8043,-214.1824"/>
</g>
<!-- Node173 -->
<g id="node26" class="node">
<title>Node173</title>
<g id="a_node26"><a xlink:href="_int_field_8cpp.html" target="_top" xlink:title="IntField.cpp">
<polygon fill="#ffffff" stroke="#000000" points="1934,-168.5 1934,-187.5 2002,-187.5 2002,-168.5 1934,-168.5"/>
<text text-anchor="middle" x="1968" y="-175.5" font-family="Helvetica,sans-Serif" font-size="10.00" fill="#000000">IntField.cpp</text>
</a>
</g>
</g>
<!-- Node20&#45;&gt;Node173 -->
<g id="edge32" class="edge">
<title>Node20&#45;&gt;Node173</title>
<path fill="none" stroke="#191970" d="M1865.4991,-220.5189C1890.0854,-210.3201 1923.2366,-196.5685 1945.0955,-187.5011"/>
<polygon fill="#191970" stroke="#191970" points="1864.1031,-217.3087 1856.2073,-224.3733 1866.7852,-223.7745 1864.1031,-217.3087"/>
</g>
<!-- Node174 -->
<g id="node27" class="node">
<title>Node174</title>
<g id="a_node27"><a xlink:href="_scratch_field_8cpp.html" target="_top" xlink:title="ScratchField.cpp">
<polygon fill="#ffffff" stroke="#000000" points="2020,-168.5 2020,-187.5 2110,-187.5 2110,-168.5 2020,-168.5"/>
<text text-anchor="middle" x="2065" y="-175.5" font-family="Helvetica,sans-Serif" font-size="10.00" fill="#000000">ScratchField.cpp</text>
</a>
</g>
</g>
<!-- Node20&#45;&gt;Node174 -->
<g id="edge33" class="edge">
<title>Node20&#45;&gt;Node174</title>
<path fill="none" stroke="#191970" d="M1878.6056,-222.9917C1921.356,-212.6727 1984.6192,-197.4023 2025.3289,-187.5758"/>
<polygon fill="#191970" stroke="#191970" points="1877.6411,-219.624 1868.7416,-225.3727 1879.2837,-226.4285 1877.6411,-219.624"/>
</g>
<!-- Node175 -->
<g id="node28" class="node">
<title>Node175</title>
<g id="a_node28"><a xlink:href="_view_field_8cpp.html" target="_top" xlink:title="ViewField.cpp">
<polygon fill="#ffffff" stroke="#000000" points="2128,-168.5 2128,-187.5 2206,-187.5 2206,-168.5 2128,-168.5"/>
<text text-anchor="middle" x="2167" y="-175.5" font-family="Helvetica,sans-Serif" font-size="10.00" fill="#000000">ViewField.cpp</text>
</a>
</g>
</g>
<!-- Node20&#45;&gt;Node175 -->
<g id="edge34" class="edge">
<title>Node20&#45;&gt;Node175</title>
<path fill="none" stroke="#191970" d="M1878.8156,-227.294C1935.3882,-218.861 2034.4963,-203.5897 2119,-188 2121.9298,-187.4595 2124.9558,-186.8798 2127.9968,-186.2819"/>
<polygon fill="#191970" stroke="#191970" points="1878.1375,-223.8563 1868.7603,-228.7876 1879.1661,-230.7803 1878.1375,-223.8563"/>
</g>
<!-- Node176 -->
<g id="node29" class="node">
<title>Node176</title>
<g id="a_node29"><a xlink:href="field__algebra_8cpp.html" target="_top" xlink:title="field_algebra.cpp">
<polygon fill="#ffffff" stroke="#000000" points="2224,-168.5 2224,-187.5 2314,-187.5 2314,-168.5 2224,-168.5"/>
<text text-anchor="middle" x="2269" y="-175.5" font-family="Helvetica,sans-Serif" font-size="10.00" fill="#000000">field_algebra.cpp</text>
</a>
</g>
</g>
<!-- Node20&#45;&gt;Node176 -->
<g id="edge35" class="edge">
<title>Node20&#45;&gt;Node176</title>
<path fill="none" stroke="#191970" d="M1878.7121,-229.4404C1950.5068,-222.0666 2094.001,-206.47 2215,-188 2217.9218,-187.554 2220.9278,-187.0694 2223.9549,-186.562"/>
<polygon fill="#191970" stroke="#191970" points="1878.2435,-225.97 1868.6509,-230.4681 1878.9548,-232.9338 1878.2435,-225.97"/>
</g>
<!-- Node177 -->
<g id="node30" class="node">
<title>Node177</title>
<g id="a_node30"><a xlink:href="diffusion_8_h.html" target="_top" xlink:title="diffusion.H">
<polygon fill="#ffffff" stroke="#ff0000" points="2332,-168.5 2332,-187.5 2396,-187.5 2396,-168.5 2332,-168.5"/>
<text text-anchor="middle" x="2364" y="-175.5" font-family="Helvetica,sans-Serif" font-size="10.00" fill="#000000">diffusion.H</text>
</a>
</g>
</g>
<!-- Node20&#45;&gt;Node177 -->
<g id="edge36" class="edge">
<title>Node20&#45;&gt;Node177</title>
<path fill="none" stroke="#191970" d="M1878.6463,-231.9374C1965.6147,-227.5173 2160.8545,-215.2357 2323,-188 2325.8902,-187.5145 2328.8782,-186.9366 2331.8628,-186.307"/>
<polygon fill="#191970" stroke="#191970" points="1878.4003,-228.4453 1868.5866,-232.438 1878.7482,-235.4366 1878.4003,-228.4453"/>
</g>
<!-- Node178 -->
<g id="node31" class="node">
<title>Node178</title>
<g id="a_node31"><a xlink:href="_p_d_e_helpers_8_h.html" target="_top" xlink:title="PDEHelpers.H">
<polygon fill="#ffffff" stroke="#ff0000" points="1298,-168.5 1298,-187.5 1380,-187.5 1380,-168.5 1298,-168.5"/>
<text text-anchor="middle" x="1339" y="-175.5" font-family="Helvetica,sans-Serif" font-size="10.00" fill="#000000">PDEHelpers.H</text>
</a>
</g>
</g>
<!-- Node20&#45;&gt;Node178 -->
<g id="edge37" class="edge">
<title>Node20&#45;&gt;Node178</title>
<path fill="none" stroke="#191970" d="M1787.0977,-230.3384C1707.0555,-223.6975 1536.841,-208.4395 1394,-188 1389.4846,-187.3539 1384.7733,-186.6079 1380.0903,-185.8206"/>
<polygon fill="#191970" stroke="#191970" points="1787.0694,-233.8478 1797.3229,-231.1805 1787.6439,-226.8715 1787.0694,-233.8478"/>
</g>
<!-- Node179 -->
<g id="node32" class="node">
<title>Node179</title>
<g id="a_node32"><a xlink:href="_density_source_8_h.html" target="_top" xlink:title="DensitySource.H">
<polygon fill="#ffffff" stroke="#ff0000" points="2414,-168.5 2414,-187.5 2506,-187.5 2506,-168.5 2414,-168.5"/>
<text text-anchor="middle" x="2460" y="-175.5" font-family="Helvetica,sans-Serif" font-size="10.00" fill="#000000">DensitySource.H</text>
</a>
</g>
</g>
<!-- Node20&#45;&gt;Node179 -->
<g id="edge40" class="edge">
<title>Node20&#45;&gt;Node179</title>
<path fill="none" stroke="#191970" d="M1878.6727,-231.875C1975.8354,-227.0147 2210.0871,-213.4923 2405,-188 2407.887,-187.6224 2410.8526,-187.196 2413.8388,-186.7374"/>
<polygon fill="#191970" stroke="#191970" points="1878.4214,-228.383 1868.6062,-232.3719 1878.7666,-235.3745 1878.4214,-228.383"/>
</g>
<!-- Node180 -->
<g id="node33" class="node">
<title>Node180</title>
<g id="a_node33"><a xlink:href="_momentum_source_8_h.html" target="_top" xlink:title="MomentumSource.H">
<polygon fill="#ffffff" stroke="#ff0000" points="564.5,-168.5 564.5,-187.5 671.5,-187.5 671.5,-168.5 564.5,-168.5"/>
<text text-anchor="middle" x="618" y="-175.5" font-family="Helvetica,sans-Serif" font-size="10.00" fill="#000000">MomentumSource.H</text>
</a>
</g>
</g>
<!-- Node20&#45;&gt;Node180 -->
<g id="edge41" class="edge">
<title>Node20&#45;&gt;Node180</title>
<path fill="none" stroke="#191970" d="M1787.0028,-232.847C1635.7589,-228.8918 1140.1277,-214.6275 731,-188 711.6417,-186.7401 690.4511,-184.9693 671.7042,-183.2672"/>
<polygon fill="#191970" stroke="#191970" points="1787.2038,-236.3533 1797.2913,-233.114 1787.3855,-229.3557 1787.2038,-236.3533"/>
</g>
<!-- Node184 -->
<g id="node34" class="node">
<title>Node184</title>
<g id="a_node34"><a xlink:href="_boussinesq_buoyancy_8_h.html" target="_top" xlink:title="BoussinesqBuoyancy.H">
<polygon fill="#ffffff" stroke="#ff0000" points="234,-112.5 234,-131.5 356,-131.5 356,-112.5 234,-112.5"/>
<text text-anchor="middle" x="295" y="-119.5" font-family="Helvetica,sans-Serif" font-size="10.00" fill="#000000">BoussinesqBuoyancy.H</text>
</a>
</g>
</g>
<!-- Node20&#45;&gt;Node184 -->
<g id="edge49" class="edge">
<title>Node20&#45;&gt;Node184</title>
<path fill="none" stroke="#191970" d="M1787.0109,-233.2376C1565.8331,-229.4621 616.8665,-211.9846 487,-188 422.7028,-176.1251 350.775,-146.8057 316.0349,-131.5576"/>
<polygon fill="#191970" stroke="#191970" points="1787.2272,-236.7417 1797.2853,-233.4121 1787.3461,-229.7427 1787.2272,-236.7417"/>
</g>
<!-- Node185 -->
<g id="node35" class="node">
<title>Node185</title>
<g id="a_node35"><a xlink:href="_coriolis_forcing_8_h.html" target="_top" xlink:title="CoriolisForcing.H">
<polygon fill="#ffffff" stroke="#ff0000" points="374,-112.5 374,-131.5 466,-131.5 466,-112.5 374,-112.5"/>
<text text-anchor="middle" x="420" y="-119.5" font-family="Helvetica,sans-Serif" font-size="10.00" fill="#000000">CoriolisForcing.H</text>
</a>
</g>
</g>
<!-- Node20&#45;&gt;Node185 -->
<g id="edge50" class="edge">
<title>Node20&#45;&gt;Node185</title>
<path fill="none" stroke="#191970" d="M1787.2434,-233.6499C1571.3694,-231.8267 660.1016,-222.153 538,-188 496.1804,-176.3027 453.1798,-147.0443 432.5447,-131.7148"/>
<polygon fill="#191970" stroke="#191970" points="1787.2548,-237.15 1797.2835,-233.7332 1787.3129,-230.1503 1787.2548,-237.15"/>
</g>
<!-- Node186 -->
<g id="node36" class="node">
<title>Node186</title>
<g id="a_node36"><a xlink:href="_density_buoyancy_8_h.html" target="_top" xlink:title="DensityBuoyancy.H">
<polygon fill="#ffffff" stroke="#ff0000" points="484,-112.5 484,-131.5 588,-131.5 588,-112.5 484,-112.5"/>
<text text-anchor="middle" x="536" y="-119.5" font-family="Helvetica,sans-Serif" font-size="10.00" fill="#000000">DensityBuoyancy.H</text>
</a>
</g>
</g>
<!-- Node20&#45;&gt;Node186 -->
<g id="edge51" class="edge">
<title>Node20&#45;&gt;Node186</title>
<path fill="none" stroke="#191970" d="M1787.3359,-233.8473C1565.0059,-232.9166 604.4857,-226.6635 555,-188 537.7115,-174.4924 535.4598,-146.3063 535.5608,-131.5201"/>
<polygon fill="#191970" stroke="#191970" points="1787.3444,-237.3473 1797.3585,-233.8877 1787.3727,-230.3473 1787.3444,-237.3473"/>
</g>
<!-- Node188 -->
<g id="node37" class="node">
<title>Node188</title>
<g id="a_node37"><a xlink:href="_gravity_forcing_8_h.html" target="_top" xlink:title="GravityForcing.H">
<polygon fill="#ffffff" stroke="#ff0000" points="644.5,-112.5 644.5,-131.5 735.5,-131.5 735.5,-112.5 644.5,-112.5"/>
<text text-anchor="middle" x="690" y="-119.5" font-family="Helvetica,sans-Serif" font-size="10.00" fill="#000000">GravityForcing.H</text>
</a>
</g>
</g>
<!-- Node20&#45;&gt;Node188 -->
<g id="edge52" class="edge">
<title>Node20&#45;&gt;Node188</title>
<path fill="none" stroke="#191970" d="M1787.3071,-233.0287C1602.6557,-228.9523 916.9781,-212.3046 823,-188 776.8315,-176.0599 727.9341,-146.9097 704.3625,-131.6588"/>
<polygon fill="#191970" stroke="#191970" points="1787.4121,-236.5317 1797.4864,-233.2518 1787.5655,-229.5334 1787.4121,-236.5317"/>
</g>
<!-- Node189 -->
<g id="node38" class="node">
<title>Node189</title>
<g id="a_node38"><a xlink:href="_m_m_s_forcing_8_h.html" target="_top" xlink:title="MMSForcing.H">
<polygon fill="#ffffff" stroke="#ff0000" points="753.5,-112.5 753.5,-131.5 836.5,-131.5 836.5,-112.5 753.5,-112.5"/>
<text text-anchor="middle" x="795" y="-119.5" font-family="Helvetica,sans-Serif" font-size="10.00" fill="#000000">MMSForcing.H</text>
</a>
</g>
</g>
<!-- Node20&#45;&gt;Node189 -->
<g id="edge60" class="edge">
<title>Node20&#45;&gt;Node189</title>
<path fill="none" stroke="#191970" d="M1787.3951,-232.8748C1599.5359,-228.1103 893.4646,-208.8804 851,-188 826.1874,-175.7993 808.1132,-147.0414 799.9092,-131.8302"/>
<polygon fill="#191970" stroke="#191970" points="1787.401,-236.376 1797.4861,-233.1294 1787.5776,-229.3782 1787.401,-236.376"/>
</g>
<!-- Node190 -->
<g id="node39" class="node">
<title>Node190</title>
<g id="a_node39"><a xlink:href="_source_term_8_h.html" target="_top" xlink:title="SourceTerm.H">
<polygon fill="#ffffff" stroke="#ff0000" points="2524,-168.5 2524,-187.5 2604,-187.5 2604,-168.5 2524,-168.5"/>
<text text-anchor="middle" x="2564" y="-175.5" font-family="Helvetica,sans-Serif" font-size="10.00" fill="#000000">SourceTerm.H</text>
</a>
</g>
</g>
<!-- Node20&#45;&gt;Node190 -->
<g id="edge53" class="edge">
<title>Node20&#45;&gt;Node190</title>
<path fill="none" stroke="#191970" d="M1878.7567,-233.0282C1988.8203,-230.2314 2276.8913,-220.1794 2515,-188 2517.9254,-187.6046 2520.938,-187.1379 2523.9632,-186.6257"/>
<polygon fill="#191970" stroke="#191970" points="1878.5794,-229.5314 1868.6687,-233.2768 1878.7519,-236.5293 1878.5794,-229.5314"/>
</g>
<!-- Node191 -->
<g id="node40" class="node">
<title>Node191</title>
<g id="a_node40"><a xlink:href="_s_d_r_source_8_h.html" target="_top" xlink:title="SDRSource.H">
<polygon fill="#ffffff" stroke="#ff0000" points="2622,-168.5 2622,-187.5 2702,-187.5 2702,-168.5 2622,-168.5"/>
<text text-anchor="middle" x="2662" y="-175.5" font-family="Helvetica,sans-Serif" font-size="10.00" fill="#000000">SDRSource.H</text>
</a>
</g>
</g>
<!-- Node20&#45;&gt;Node191 -->
<g id="edge55" class="edge">
<title>Node20&#45;&gt;Node191</title>
<path fill="none" stroke="#191970" d="M1878.8758,-233.5711C1999.5945,-231.951 2335.8763,-224.2619 2613,-188 2615.927,-187.617 2618.9409,-187.1593 2621.9669,-186.6536"/>
<polygon fill="#191970" stroke="#191970" points="1878.4971,-230.0755 1868.5422,-233.7018 1878.5857,-237.075 1878.4971,-230.0755"/>
</g>
<!-- Node192 -->
<g id="node41" class="node">
<title>Node192</title>
<g id="a_node41"><a xlink:href="_temperature_source_8_h.html" target="_top" xlink:title="TemperatureSource.H">
<polygon fill="#ffffff" stroke="#ff0000" points="2720.5,-168.5 2720.5,-187.5 2833.5,-187.5 2833.5,-168.5 2720.5,-168.5"/>
<text text-anchor="middle" x="2777" y="-175.5" font-family="Helvetica,sans-Serif" font-size="10.00" fill="#000000">TemperatureSource.H</text>
</a>
</g>
</g>
<!-- Node20&#45;&gt;Node192 -->
<g id="edge56" class="edge">
<title>Node20&#45;&gt;Node192</title>
<path fill="none" stroke="#191970" d="M1878.6593,-233.1853C2008.936,-230.5211 2393.4874,-220.293 2711,-188 2713.9977,-187.6951 2717.0673,-187.349 2720.1632,-186.9732"/>
<polygon fill="#191970" stroke="#191970" points="1878.569,-229.6863 1868.6409,-233.3854 1878.7089,-236.6849 1878.569,-229.6863"/>
</g>
<!-- Node193 -->
<g id="node42" class="node">
<title>Node193</title>
<g id="a_node42"><a xlink:href="_t_k_e_source_8_h.html" target="_top" xlink:title="TKESource.H">
<polygon fill="#ffffff" stroke="#ff0000" points="2851.5,-168.5 2851.5,-187.5 2928.5,-187.5 2928.5,-168.5 2851.5,-168.5"/>
<text text-anchor="middle" x="2890" y="-175.5" font-family="Helvetica,sans-Serif" font-size="10.00" fill="#000000">TKESource.H</text>
</a>
</g>
</g>
<!-- Node20&#45;&gt;Node193 -->
<g id="edge57" class="edge">
<title>Node20&#45;&gt;Node193</title>
<path fill="none" stroke="#191970" d="M1878.7308,-232.9157C2049.8823,-228.7022 2652.537,-212.4313 2843,-188 2845.7306,-187.6497 2848.5382,-187.2236 2851.3576,-186.747"/>
<polygon fill="#191970" stroke="#191970" points="1878.4672,-229.421 1868.5557,-233.1644 1878.6383,-236.4189 1878.4672,-229.421"/>
</g>
<!-- Node196 -->
<g id="node43" class="node">
<title>Node196</title>
<g id="a_node43"><a xlink:href="_split_advection_8_h.html" target="_top" xlink:title="SplitAdvection.H">
<polygon fill="#ffffff" stroke="#ff0000" points="2947,-168.5 2947,-187.5 3037,-187.5 3037,-168.5 2947,-168.5"/>
<text text-anchor="middle" x="2992" y="-175.5" font-family="Helvetica,sans-Serif" font-size="10.00" fill="#000000">SplitAdvection.H</text>
</a>
</g>
</g>
<!-- Node20&#45;&gt;Node196 -->
<g id="edge58" class="edge">
<title>Node20&#45;&gt;Node196</title>
<path fill="none" stroke="#191970" d="M1878.7608,-232.9599C2059.9794,-228.7068 2727.664,-211.7329 2938,-188 2940.937,-187.6686 2943.9546,-187.2708 2946.9901,-186.8276"/>
<polygon fill="#191970" stroke="#191970" points="1878.4332,-229.4665 1868.5176,-233.1988 1878.5965,-236.4646 1878.4332,-229.4665"/>
</g>
<!-- Node198 -->
<g id="node44" class="node">
<title>Node198</title>
<g id="a_node44"><a xlink:href="fvm__utils_8_h.html" target="_top" xlink:title="fvm_utils.H">
<polygon fill="#ffffff" stroke="#ff0000" points="3055.5,-168.5 3055.5,-187.5 3122.5,-187.5 3122.5,-168.5 3055.5,-168.5"/>
<text text-anchor="middle" x="3089" y="-175.5" font-family="Helvetica,sans-Serif" font-size="10.00" fill="#000000">fvm_utils.H</text>
</a>
</g>
</g>
<!-- Node20&#45;&gt;Node198 -->
<g id="edge59" class="edge">
<title>Node20&#45;&gt;Node198</title>
<path fill="none" stroke="#191970" d="M1878.8137,-233.4309C2071.1351,-230.862 2813.9792,-219.0894 3046,-188 3049.0386,-187.5928 3052.1775,-187.0688 3055.3111,-186.4743"/>
<polygon fill="#191970" stroke="#191970" points="1878.7169,-229.9318 1868.7639,-233.5635 1878.8092,-236.9312 1878.7169,-229.9318"/>
</g>
<!-- Node207 -->
<g id="node45" class="node">
<title>Node207</title>
<g id="a_node45"><a xlink:href="_linear_profile_8cpp.html" target="_top" xlink:title="LinearProfile.cpp">
<polygon fill="#ffffff" stroke="#000000" points="3140.5,-168.5 3140.5,-187.5 3229.5,-187.5 3229.5,-168.5 3140.5,-168.5"/>
<text text-anchor="middle" x="3185" y="-175.5" font-family="Helvetica,sans-Serif" font-size="10.00" fill="#000000">LinearProfile.cpp</text>
</a>
</g>
</g>
<!-- Node20&#45;&gt;Node207 -->
<g id="edge62" class="edge">
<title>Node20&#45;&gt;Node207</title>
<path fill="none" stroke="#191970" d="M1878.7018,-233.3089C2079.1277,-230.1352 2881.5094,-215.9045 3132,-188 3134.6988,-187.6994 3137.4663,-187.3385 3140.2522,-186.9349"/>
<polygon fill="#191970" stroke="#191970" points="1878.4718,-229.8119 1868.5281,-233.4686 1878.5818,-236.8111 1878.4718,-229.8119"/>
</g>
<!-- Node85 -->
<g id="node46" class="node">
<title>Node85</title>
<g id="a_node46"><a xlink:href="_power_law_profile_8cpp.html" target="_top" xlink:title="PowerLawProfile.cpp">
<polygon fill="#ffffff" stroke="#000000" points="3247.5,-168.5 3247.5,-187.5 3356.5,-187.5 3356.5,-168.5 3247.5,-168.5"/>
<text text-anchor="middle" x="3302" y="-175.5" font-family="Helvetica,sans-Serif" font-size="10.00" fill="#000000">PowerLawProfile.cpp</text>
</a>
</g>
</g>
<!-- Node20&#45;&gt;Node85 -->
<g id="edge63" class="edge">
<title>Node20&#45;&gt;Node85</title>
<path fill="none" stroke="#191970" d="M1878.6465,-233.2735C2088.9478,-229.8088 2965.8409,-214.0453 3239,-188 3241.7561,-187.7372 3244.5747,-187.4304 3247.4174,-187.0906"/>
<polygon fill="#191970" stroke="#191970" points="1878.5131,-229.7751 1868.5717,-233.4385 1878.6277,-236.7742 1878.5131,-229.7751"/>
</g>
<!-- Node208 -->
<g id="node47" class="node">
<title>Node208</title>
<g id="a_node47"><a xlink:href="_u_d_f_8cpp.html" target="_top" xlink:title="UDF.cpp">
<polygon fill="#ffffff" stroke="#000000" points="3375,-168.5 3375,-187.5 3431,-187.5 3431,-168.5 3375,-168.5"/>
<text text-anchor="middle" x="3403" y="-175.5" font-family="Helvetica,sans-Serif" font-size="10.00" fill="#000000">UDF.cpp</text>
</a>
</g>
</g>
<!-- Node20&#45;&gt;Node208 -->
<g id="edge64" class="edge">
<title>Node20&#45;&gt;Node208</title>
<path fill="none" stroke="#191970" d="M1878.6623,-233.2665C2117.3003,-229.3476 3215.8744,-210.2258 3366,-188 3368.8962,-187.5712 3371.8899,-186.9944 3374.862,-186.3332"/>
<polygon fill="#191970" stroke="#191970" points="1878.5369,-229.768 1868.5955,-233.4311 1878.6515,-236.767 1878.5369,-229.768"/>
</g>
<!-- Node209 -->
<g id="node48" class="node">
<title>Node209</title>
<g id="a_node48"><a xlink:href="_transport_model_8_h.html" target="_top" xlink:title="TransportModel.H">
<polygon fill="#ffffff" stroke="#ff0000" points="3449.5,-168.5 3449.5,-187.5 3544.5,-187.5 3544.5,-168.5 3449.5,-168.5"/>
<text text-anchor="middle" x="3497" y="-175.5" font-family="Helvetica,sans-Serif" font-size="10.00" fill="#000000">TransportModel.H</text>
</a>
</g>
</g>
<!-- Node20&#45;&gt;Node209 -->
<g id="edge65" class="edge">
<title>Node20&#45;&gt;Node209</title>
<path fill="none" stroke="#191970" d="M1879.1092,-233.5842C2108.1806,-231.3803 3125.3149,-219.9375 3440,-188 3443.0986,-187.6855 3446.2827,-187.3006 3449.4859,-186.8668"/>
<polygon fill="#191970" stroke="#191970" points="1878.7689,-230.0872 1868.8027,-233.6822 1878.8355,-237.0868 1878.7689,-230.0872"/>
</g>
<!-- Node126 -->
<g id="node49" class="node">
<title>Node126</title>
<g id="a_node49"><a xlink:href="_smagorinsky_8_h.html" target="_top" xlink:title="Smagorinsky.H">
<polygon fill="#ffffff" stroke="#ff0000" points="3563,-168.5 3563,-187.5 3647,-187.5 3647,-168.5 3563,-168.5"/>
<text text-anchor="middle" x="3605" y="-175.5" font-family="Helvetica,sans-Serif" font-size="10.00" fill="#000000">Smagorinsky.H</text>
</a>
</g>
</g>
<!-- Node20&#45;&gt;Node126 -->
<g id="edge66" class="edge">
<title>Node20&#45;&gt;Node126</title>
<path fill="none" stroke="#191970" d="M1878.5353,-233.812C2116.1231,-232.6743 3215.5338,-225.4412 3554,-188 3556.8698,-187.6825 3559.819,-187.2882 3562.7829,-186.8412"/>
<polygon fill="#191970" stroke="#191970" points="1878.4995,-230.312 1868.516,-233.8587 1878.5322,-237.3119 1878.4995,-230.312"/>
</g>
<!-- Node149 -->
<g id="node50" class="node">
<title>Node149</title>
<g id="a_node50"><a xlink:href="_act_src_op_8_h.html" target="_top" xlink:title="ActSrcOp.H">
<polygon fill="#ffffff" stroke="#ff0000" points="3665,-168.5 3665,-187.5 3735,-187.5 3735,-168.5 3665,-168.5"/>
<text text-anchor="middle" x="3700" y="-175.5" font-family="Helvetica,sans-Serif" font-size="10.00" fill="#000000">ActSrcOp.H</text>
</a>
</g>
</g>
<!-- Node20&#45;&gt;Node149 -->
<g id="edge67" class="edge">
<title>Node20&#45;&gt;Node149</title>
<path fill="none" stroke="#191970" d="M1878.541,-233.3916C2142.9299,-229.7872 3475.0331,-210.6203 3656,-188 3658.7984,-187.6502 3661.6798,-187.2011 3664.5656,-186.6874"/>
<polygon fill="#191970" stroke="#191970" points="1878.473,-229.8921 1868.5215,-233.5277 1878.5682,-236.8914 1878.473,-229.8921"/>
</g>
<!-- Node22&#45;&gt;Node21 -->
<g id="edge3" class="edge">
<title>Node22&#45;&gt;Node21</title>
<path fill="none" stroke="#191970" d="M131.6958,-163.9741C110.512,-153.8348 82.4597,-140.408 63.8506,-131.5011"/>
<polygon fill="#191970" stroke="#191970" points="130.3559,-167.2129 140.887,-168.3733 133.378,-160.8989 130.3559,-167.2129"/>
</g>
<!-- Node23 -->
<g id="node4" class="node">
<title>Node23</title>
<g id="a_node4"><a xlink:href="_fixed_gradient_b_c_8cpp.html" target="_top" xlink:title="FixedGradientBC.cpp">
<polygon fill="#ffffff" stroke="#000000" points="106,-112.5 106,-131.5 216,-131.5 216,-112.5 106,-112.5"/>
<text text-anchor="middle" x="161" y="-119.5" font-family="Helvetica,sans-Serif" font-size="10.00" fill="#000000">FixedGradientBC.cpp</text>
</a>
</g>
</g>
<!-- Node22&#45;&gt;Node23 -->
<g id="edge4" class="edge">
<title>Node22&#45;&gt;Node23</title>
<path fill="none" stroke="#191970" d="M161,-158.1575C161,-149.155 161,-138.9199 161,-131.6427"/>
<polygon fill="#191970" stroke="#191970" points="157.5001,-158.2455 161,-168.2455 164.5001,-158.2456 157.5001,-158.2455"/>
</g>
<!-- Node24&#45;&gt;Node25 -->
<g id="edge6" class="edge">
<title>Node24&#45;&gt;Node25</title>
<path fill="none" stroke="#191970" d="M1204.1511,-172.4826C1147.3611,-164.8784 1044.1722,-150.0482 957,-132 952.4825,-131.0647 947.7021,-129.947 943.0946,-128.8031"/>
<polygon fill="#191970" stroke="#191970" points="1203.8269,-175.9702 1214.2007,-173.8175 1204.7487,-169.0311 1203.8269,-175.9702"/>
</g>
<!-- Node44 -->
<g id="node7" class="node">
<title>Node44</title>
<g id="a_node7"><a xlink:href="_a_b_l_wall_function_8_h.html" target="_top" xlink:title="ABLWallFunction.H">
<polygon fill="#ffffff" stroke="#ff0000" points="1417.5,-56.5 1417.5,-75.5 1520.5,-75.5 1520.5,-56.5 1417.5,-56.5"/>
<text text-anchor="middle" x="1469" y="-63.5" font-family="Helvetica,sans-Serif" font-size="10.00" fill="#000000">ABLWallFunction.H</text>
</a>
</g>
</g>
<!-- Node24&#45;&gt;Node44 -->
<g id="edge7" class="edge">
<title>Node24&#45;&gt;Node44</title>
<path fill="none" stroke="#191970" d="M1289.8299,-168.2987C1375.2925,-157.8686 1564.0244,-183.42 1610,-132 1639.8154,-98.6539 1572.1506,-80.8391 1520.5833,-72.4108"/>
<polygon fill="#191970" stroke="#191970" points="1289.3191,-164.8361 1279.9362,-169.7566 1290.3396,-171.7613 1289.3191,-164.8361"/>
</g>
<!-- Node49 -->
<g id="node8" class="node">
<title>Node49</title>
<g id="a_node8"><a xlink:href="_a_b_l_stats_8_h.html" target="_top" xlink:title="ABLStats.H">
<polygon fill="#ffffff" stroke="#ff0000" points="1354.5,-.5 1354.5,-19.5 1423.5,-19.5 1423.5,-.5 1354.5,-.5"/>
<text text-anchor="middle" x="1389" y="-7.5" font-family="Helvetica,sans-Serif" font-size="10.00" fill="#000000">ABLStats.H</text>
</a>
</g>
</g>
<!-- Node24&#45;&gt;Node49 -->
<g id="edge15" class="edge">
<title>Node24&#45;&gt;Node49</title>
<path fill="none" stroke="#191970" d="M1271.0191,-162.7249C1282.9255,-154.4783 1297.0581,-143.6191 1308,-132 1342.8598,-94.9828 1372.6897,-41.3421 1384.0721,-19.6456"/>
<polygon fill="#191970" stroke="#191970" points="1268.786,-160.0087 1262.4379,-168.4912 1272.6902,-165.8188 1268.786,-160.0087"/>
</g>
<!-- Node52 -->
<g id="node9" class="node">
<title>Node52</title>
<g id="a_node9"><a xlink:href="_field_plane_averaging_8_h.html" target="_top" xlink:title="FieldPlaneAveraging.H">
<polygon fill="#ffffff" stroke="#ff0000" points="1355,-112.5 1355,-131.5 1471,-131.5 1471,-112.5 1355,-112.5"/>
<text text-anchor="middle" x="1413" y="-119.5" font-family="Helvetica,sans-Serif" font-size="10.00" fill="#000000">FieldPlaneAveraging.H</text>
</a>
</g>
</g>
<!-- Node24&#45;&gt;Node52 -->
<g id="edge9" class="edge">
<title>Node24&#45;&gt;Node52</title>
<path fill="none" stroke="#191970" d="M1285.3667,-165.057C1315.7466,-154.8084 1357.4819,-140.729 1384.836,-131.5011"/>
<polygon fill="#191970" stroke="#191970" points="1283.893,-161.8603 1275.5364,-168.3733 1286.1306,-168.4931 1283.893,-161.8603"/>
</g>
<!-- Node47 -->
<g id="node11" class="node">
<title>Node47</title>
<g id="a_node11"><a xlink:href="_a_b_l_mean_boussinesq_8cpp.html" target="_top" xlink:title="ABLMeanBoussinesq.cpp">
<polygon fill="#ffffff" stroke="#000000" points="862.5,-.5 862.5,-19.5 991.5,-19.5 991.5,-.5 862.5,-.5"/>
<text text-anchor="middle" x="927" y="-7.5" font-family="Helvetica,sans-Serif" font-size="10.00" fill="#000000">ABLMeanBoussinesq.cpp</text>
</a>
</g>
</g>
<!-- Node24&#45;&gt;Node47 -->
<g id="edge21" class="edge">
<title>Node24&#45;&gt;Node47</title>
<path fill="none" stroke="#191970" d="M1204.142,-172.4335C1135.5359,-163.2121 1007.0001,-144.5418 990,-132 970.0502,-117.282 940.929,-45.9417 930.7099,-19.7065"/>
<polygon fill="#191970" stroke="#191970" points="1203.8355,-175.9236 1214.2106,-173.7768 1204.7613,-168.985 1203.8355,-175.9236"/>
</g>
<!-- Node58 -->
<g id="node12" class="node">
<title>Node58</title>
<g id="a_node12"><a xlink:href="_a_b_l_boundary_plane_8_h.html" target="_top" xlink:title="ABLBoundaryPlane.H">
<polygon fill="#ffffff" stroke="#ff0000" points="1489,-112.5 1489,-131.5 1601,-131.5 1601,-112.5 1489,-112.5"/>
<text text-anchor="middle" x="1545" y="-119.5" font-family="Helvetica,sans-Serif" font-size="10.00" fill="#000000">ABLBoundaryPlane.H</text>
</a>
</g>
</g>
<!-- Node24&#45;&gt;Node58 -->
<g id="edge14" class="edge">
<title>Node24&#45;&gt;Node58</title>
<path fill="none" stroke="#191970" d="M1289.5788,-167.9718C1364.2881,-152.5189 1439.1444,-139.4788 1488.8937,-131.1527"/>
<polygon fill="#191970" stroke="#191970" points="1288.595,-164.6015 1279.5191,-170.0676 1290.0227,-171.4544 1288.595,-164.6015"/>
</g>
<!-- Node62 -->
<g id="node13" class="node">
<title>Node62</title>
<g id="a_node13"><a xlink:href="_c_f_d_sim_8cpp.html" target="_top" xlink:title="CFDSim.cpp">
<polygon fill="#ffffff" stroke="#000000" points="999,-112.5 999,-131.5 1073,-131.5 1073,-112.5 999,-112.5"/>
<text text-anchor="middle" x="1036" y="-119.5" font-family="Helvetica,sans-Serif" font-size="10.00" fill="#000000">CFDSim.cpp</text>
</a>
</g>
</g>
<!-- Node24&#45;&gt;Node62 -->
<g id="edge16" class="edge">
<title>Node24&#45;&gt;Node62</title>
<path fill="none" stroke="#191970" d="M1204.5342,-166.7295C1165.6721,-156.4153 1108.7925,-141.3193 1072.0802,-131.5758"/>
<polygon fill="#191970" stroke="#191970" points="1203.9304,-170.1903 1214.4937,-169.3727 1205.7261,-163.4245 1203.9304,-170.1903"/>
</g>
<!-- Node63 -->
<g id="node14" class="node">
<title>Node63</title>
<g id="a_node14"><a xlink:href="_p_d_e_ops_8_h.html" target="_top" xlink:title="PDEOps.H">
<polygon fill="#ffffff" stroke="#ff0000" points="1695,-112.5 1695,-131.5 1761,-131.5 1761,-112.5 1695,-112.5"/>
<text text-anchor="middle" x="1728" y="-119.5" font-family="Helvetica,sans-Serif" font-size="10.00" fill="#000000">PDEOps.H</text>
</a>
</g>
</g>
<!-- Node24&#45;&gt;Node63 -->
<g id="edge17" class="edge">
<title>Node24&#45;&gt;Node63</title>
<path fill="none" stroke="#191970" d="M1289.9026,-168.0713C1463.4106,-140.341 1511.2347,-157.7634 1681,-132 1685.5364,-131.3116 1690.2929,-130.4574 1694.9657,-129.5404"/>
<polygon fill="#191970" stroke="#191970" points="1289.2343,-164.634 1279.9254,-169.6931 1290.3574,-171.5433 1289.2343,-164.634"/>
</g>
<!-- Node80 -->
<g id="node15" class="node">
<title>Node80</title>
<g id="a_node15"><a xlink:href="_p_d_e_8_h.html" target="_top" xlink:title="PDE.H">
<polygon fill="#ffffff" stroke="#ff0000" points="1673,-56.5 1673,-75.5 1721,-75.5 1721,-56.5 1673,-56.5"/>
<text text-anchor="middle" x="1697" y="-63.5" font-family="Helvetica,sans-Serif" font-size="10.00" fill="#000000">PDE.H</text>
</a>
</g>
</g>
<!-- Node24&#45;&gt;Node80 -->
<g id="edge19" class="edge">
<title>Node24&#45;&gt;Node80</title>
<path fill="none" stroke="#191970" d="M1289.9693,-168.0891C1440.1634,-144.662 1492.6959,-193.7657 1627,-132 1654.9219,-119.1589 1678.8682,-90.6812 1690.1293,-75.6782"/>
<polygon fill="#191970" stroke="#191970" points="1289.2329,-164.6631 1279.9331,-169.739 1290.3685,-171.5703 1289.2329,-164.6631"/>
</g>
<!-- Node46 -->
<g id="node16" class="node">
<title>Node46</title>
<g id="a_node16"><a xlink:href="_a_b_l_forcing_8cpp.html" target="_top" xlink:title="ABLForcing.cpp">
<polygon fill="#ffffff" stroke="#000000" points="1091,-112.5 1091,-131.5 1177,-131.5 1177,-112.5 1091,-112.5"/>
<text text-anchor="middle" x="1134" y="-119.5" font-family="Helvetica,sans-Serif" font-size="10.00" fill="#000000">ABLForcing.cpp</text>
</a>
</g>
</g>
<!-- Node24&#45;&gt;Node46 -->
<g id="edge20" class="edge">
<title>Node24&#45;&gt;Node46</title>
<path fill="none" stroke="#191970" d="M1218.4208,-163.8368C1197.9942,-153.7139 1171.0638,-140.3679 1153.1719,-131.5011"/>
<polygon fill="#191970" stroke="#191970" points="1217.0604,-167.0688 1227.5746,-168.3733 1220.1687,-160.7968 1217.0604,-167.0688"/>
</g>
<!-- Node97 -->
<g id="node17" class="node">
<title>Node97</title>
<g id="a_node17"><a xlink:href="_actuator_forcing_8cpp.html" target="_top" xlink:title="ActuatorForcing.cpp">
<polygon fill="#ffffff" stroke="#000000" points="1195,-112.5 1195,-131.5 1299,-131.5 1299,-112.5 1195,-112.5"/>
<text text-anchor="middle" x="1247" y="-119.5" font-family="Helvetica,sans-Serif" font-size="10.00" fill="#000000">ActuatorForcing.cpp</text>
</a>
</g>
</g>
<!-- Node24&#45;&gt;Node97 -->
<g id="edge22" class="edge">
<title>Node24&#45;&gt;Node97</title>
<path fill="none" stroke="#191970" d="M1247,-158.1575C1247,-149.155 1247,-138.9199 1247,-131.6427"/>
<polygon fill="#191970" stroke="#191970" points="1243.5001,-158.2455 1247,-168.2455 1250.5001,-158.2456 1243.5001,-158.2455"/>
</g>
<!-- Node24&#45;&gt;Node104 -->
<g id="edge23" class="edge">
<title>Node24&#45;&gt;Node104</title>
<path fill="none" stroke="#191970" d="M1289.837,-168.1114C1502.5874,-135.8561 1560.8768,-161.0459 1770,-132 1773.0959,-131.57 1776.2901,-131.0632 1779.4937,-130.5097"/>
<polygon fill="#191970" stroke="#191970" points="1289.2673,-164.6578 1279.9169,-169.6398 1290.3332,-171.5762 1289.2673,-164.6578"/>
</g>
<!-- Node24&#45;&gt;Node109 -->
<g id="edge24" class="edge">
<title>Node24&#45;&gt;Node109</title>
<path fill="none" stroke="#191970" d="M1289.8754,-168.1262C1545.7702,-130.8114 1615.2097,-161.9387 1868,-132 1870.5941,-131.6928 1873.2492,-131.3448 1875.9262,-130.9675"/>
<polygon fill="#191970" stroke="#191970" points="1289.2911,-164.6744 1279.9108,-169.5999 1290.3153,-171.5991 1289.2911,-164.6744"/>
</g>
<!-- Node24&#45;&gt;Node151 -->
<g id="edge25" class="edge">
<title>Node24&#45;&gt;Node151</title>
<path fill="none" stroke="#191970" d="M1289.9713,-168.1331C1596.5089,-125.1043 1680.2489,-173.1979 1983,-132 1985.8548,-131.6115 1988.7966,-131.1346 1991.7444,-130.6017"/>
<polygon fill="#191970" stroke="#191970" points="1289.3123,-164.6916 1279.906,-169.5673 1290.2998,-171.6216 1289.3123,-164.6916"/>
</g>
<!-- Node44&#45;&gt;Node49 -->
<g id="edge8" class="edge">
<title>Node44&#45;&gt;Node49</title>
<path fill="none" stroke="#191970" d="M1446.8429,-50.49C1432.728,-40.6096 1414.8849,-28.1194 1402.7752,-19.6427"/>
<polygon fill="#191970" stroke="#191970" points="1444.8656,-53.3782 1455.0651,-56.2455 1448.8799,-47.6436 1444.8656,-53.3782"/>
</g>
<!-- Node52&#45;&gt;Node44 -->
<g id="edge10" class="edge">
<title>Node52&#45;&gt;Node44</title>
<path fill="none" stroke="#191970" d="M1429.9249,-105.0751C1439.5598,-95.4402 1451.2804,-83.7196 1459.3573,-75.6427"/>
<polygon fill="#191970" stroke="#191970" points="1427.3507,-102.6996 1422.7545,-112.2455 1432.3004,-107.6493 1427.3507,-102.6996"/>
</g>
<!-- Node52&#45;&gt;Node49 -->
<g id="edge11" class="edge">
<title>Node52&#45;&gt;Node49</title>
<path fill="none" stroke="#191970" d="M1408.8426,-102.5987C1403.6492,-78.363 1394.9689,-37.8551 1391.041,-19.5249"/>
<polygon fill="#191970" stroke="#191970" points="1405.4361,-103.4063 1410.9538,-112.4509 1412.2807,-101.9395 1405.4361,-103.4063"/>
</g>
<!-- Node52&#45;&gt;Node57 -->
<g id="edge12" class="edge">
<title>Node52&#45;&gt;Node57</title>
<path fill="none" stroke="#191970" d="M1344.8565,-114.9202C1238.8624,-103.9078 1036.1723,-82.8491 934.8329,-72.3203"/>
<polygon fill="#191970" stroke="#191970" points="1344.4973,-118.4016 1354.8054,-115.9538 1345.2207,-111.4391 1344.4973,-118.4016"/>
</g>
<!-- Node57&#45;&gt;Node47 -->
<g id="edge13" class="edge">
<title>Node57&#45;&gt;Node47</title>
<path fill="none" stroke="#191970" d="M890.2896,-48.7884C899.3562,-39.2085 910.3054,-27.6396 917.8739,-19.6427"/>
<polygon fill="#191970" stroke="#191970" points="887.5637,-46.5767 883.2319,-56.2455 892.6478,-51.3884 887.5637,-46.5767"/>
</g>
<!-- Node63&#45;&gt;Node80 -->
<g id="edge18" class="edge">
<title>Node63&#45;&gt;Node80</title>
<path fill="none" stroke="#191970" d="M1717.6688,-103.3372C1712.5335,-94.0605 1706.5434,-83.2398 1702.3379,-75.6427"/>
<polygon fill="#191970" stroke="#191970" points="1714.6949,-105.1917 1722.6002,-112.2455 1720.8191,-101.8015 1714.6949,-105.1917"/>
</g>
<!-- Node178&#45;&gt;Node63 -->
<g id="edge38" class="edge">
<title>Node178&#45;&gt;Node63</title>
<path fill="none" stroke="#191970" d="M1390.1538,-168.6024C1391.4482,-168.3959 1392.732,-168.1947 1394,-168 1521.0667,-148.4943 1554.2379,-153.3959 1681,-132 1685.5243,-131.2364 1690.274,-130.3393 1694.9434,-129.4013"/>
<polygon fill="#191970" stroke="#191970" points="1389.3954,-165.1804 1380.1039,-170.2713 1390.5422,-172.0858 1389.3954,-165.1804"/>
</g>
<!-- Node178&#45;&gt;Node104 -->
<g id="edge39" class="edge">
<title>Node178&#45;&gt;Node104</title>
<path fill="none" stroke="#191970" d="M1390.1465,-168.5522C1391.4431,-168.3606 1392.7292,-168.176 1394,-168 1560.2873,-144.9643 1603.9694,-156.8189 1770,-132 1773.0913,-131.5379 1776.2821,-131.008 1779.4834,-130.4385"/>
<polygon fill="#191970" stroke="#191970" points="1389.4172,-165.1239 1380.0846,-170.139 1390.5077,-172.0384 1389.4172,-165.1239"/>
</g>
<!-- Node180&#45;&gt;Node57 -->
<g id="edge42" class="edge">
<title>Node180&#45;&gt;Node57</title>
<path fill="none" stroke="#191970" d="M617.7649,-158.1724C618.7032,-143.3719 622.4956,-123.7527 635,-112 660.2474,-88.2702 751.2323,-76.0658 813.3669,-70.3586"/>
<polygon fill="#191970" stroke="#191970" points="614.2618,-158.2553 617.5067,-168.3409 621.2595,-158.433 614.2618,-158.2553"/>
</g>
<!-- Node180&#45;&gt;Node184 -->
<g id="edge43" class="edge">
<title>Node180&#45;&gt;Node184</title>
<path fill="none" stroke="#191970" d="M554.2496,-166.9473C494.6211,-156.6092 406.4935,-141.3301 349.909,-131.5198"/>
<polygon fill="#191970" stroke="#191970" points="553.8496,-170.4301 564.3005,-168.6899 555.0454,-163.533 553.8496,-170.4301"/>
</g>
<!-- Node180&#45;&gt;Node185 -->
<g id="edge44" class="edge">
<title>Node180&#45;&gt;Node185</title>
<path fill="none" stroke="#191970" d="M574.1155,-165.5882C537.7377,-155.2996 486.7879,-140.8895 453.5933,-131.5011"/>
<polygon fill="#191970" stroke="#191970" points="573.3875,-169.0195 583.9626,-168.3733 575.2926,-162.2838 573.3875,-169.0195"/>
</g>
<!-- Node180&#45;&gt;Node186 -->
<g id="edge45" class="edge">
<title>Node180&#45;&gt;Node186</title>
<path fill="none" stroke="#191970" d="M595.289,-162.49C580.8212,-152.6096 562.532,-140.1194 550.1196,-131.6427"/>
<polygon fill="#191970" stroke="#191970" points="593.4848,-165.4962 603.7167,-168.2455 597.4325,-159.7156 593.4848,-165.4962"/>
</g>
<!-- Node180&#45;&gt;Node188 -->
<g id="edge46" class="edge">
<title>Node180&#45;&gt;Node188</title>
<path fill="none" stroke="#191970" d="M638.664,-161.928C651.2489,-152.1397 666.9092,-139.9595 677.6023,-131.6427"/>
<polygon fill="#191970" stroke="#191970" points="636.2862,-159.3434 630.5414,-168.2455 640.5838,-164.8688 636.2862,-159.3434"/>
</g>
<!-- Node180&#45;&gt;Node189 -->
<g id="edge47" class="edge">
<title>Node180&#45;&gt;Node189</title>
<path fill="none" stroke="#191970" d="M658.0668,-165.3235C690.527,-155.0536 735.5493,-140.8093 764.9697,-131.5011"/>
<polygon fill="#191970" stroke="#191970" points="656.9058,-162.0197 648.4274,-168.3733 659.0174,-168.6937 656.9058,-162.0197"/>
</g>
</g>
</svg>
