<?xml version="1.0" encoding="UTF-8" standalone="no"?>
<!DOCTYPE svg PUBLIC "-//W3C//DTD SVG 1.1//EN"
 "http://www.w3.org/Graphics/SVG/1.1/DTD/svg11.dtd">
<!-- Generated by graphviz version 2.40.1 (20161225.0304)
 -->
<!-- Title: FieldBCOps.H Pages: 1 -->
<svg width="1314pt" height="196pt"
 viewBox="0.00 0.00 1313.50 196.00" xmlns="http://www.w3.org/2000/svg" xmlns:xlink="http://www.w3.org/1999/xlink">
<g id="graph0" class="graph" transform="scale(1 1) rotate(0) translate(4 192)">
<title>FieldBCOps.H</title>
<polygon fill="#ffffff" stroke="transparent" points="-4,4 -4,-192 1309.5,-192 1309.5,4 -4,4"/>
<!-- Node0 -->
<g id="node1" class="node">
<title>Node0</title>
<polygon fill="#bfbfbf" stroke="#000000" points="891.5,-168.5 891.5,-187.5 971.5,-187.5 971.5,-168.5 891.5,-168.5"/>
<text text-anchor="middle" x="931.5" y="-175.5" font-family="Helvetica,sans-Serif" font-size="10.00" fill="#000000">FieldBCOps.H</text>
</g>
<!-- Node1 -->
<g id="node2" class="node">
<title>Node1</title>
<g id="a_node2"><a xlink:href="_field_desc_types_8_h.html" target="_top" xlink:title="amr&#45;wind/core/FieldDescTypes.H">
<polygon fill="#ffffff" stroke="#000000" points="717,-.5 717,-19.5 880,-19.5 880,-.5 717,-.5"/>
<text text-anchor="middle" x="798.5" y="-7.5" font-family="Helvetica,sans-Serif" font-size="10.00" fill="#000000">amr&#45;wind/core/FieldDescTypes.H</text>
</a>
</g>
</g>
<!-- Node0&#45;&gt;Node1 -->
<g id="edge1" class="edge">
<title>Node0&#45;&gt;Node1</title>
<path fill="none" stroke="#191970" d="M926.6206,-168.2321C912.3559,-139.6976 871.5965,-58.3284 869.5,-56 857.9216,-43.1411 841.9631,-32.3753 828.1081,-24.4996"/>
<polygon fill="#191970" stroke="#191970" points="829.3904,-21.2133 818.932,-19.5187 826.0509,-27.3654 829.3904,-21.2133"/>
</g>
<!-- Node2 -->
<g id="node3" class="node">
<title>Node2</title>
<g id="a_node3"><a xlink:href="_field_8_h.html" target="_top" xlink:title="amr&#45;wind/core/Field.H">
<polygon fill="#ffffff" stroke="#000000" points="488,-112.5 488,-131.5 601,-131.5 601,-112.5 488,-112.5"/>
<text text-anchor="middle" x="544.5" y="-119.5" font-family="Helvetica,sans-Serif" font-size="10.00" fill="#000000">amr&#45;wind/core/Field.H</text>
</a>
</g>
</g>
<!-- Node0&#45;&gt;Node2 -->
<g id="edge2" class="edge">
<title>Node0&#45;&gt;Node2</title>
<path fill="none" stroke="#191970" d="M891.1794,-172.1655C824.8081,-162.5614 691.8815,-143.3265 611.2897,-131.6647"/>
<polygon fill="#191970" stroke="#191970" points="611.6437,-128.1795 601.2455,-130.2112 610.6412,-135.1074 611.6437,-128.1795"/>
</g>
<!-- Node9 -->
<g id="node10" class="node">
<title>Node9</title>
<polygon fill="#ffffff" stroke="#bfbfbf" points="776,-56.5 776,-75.5 861,-75.5 861,-56.5 776,-56.5"/>
<text text-anchor="middle" x="818.5" y="-63.5" font-family="Helvetica,sans-Serif" font-size="10.00" fill="#000000">AMReX_Gpu.H</text>
</g>
<!-- Node0&#45;&gt;Node9 -->
<g id="edge17" class="edge">
<title>Node0&#45;&gt;Node9</title>
<path fill="none" stroke="#191970" d="M918.5191,-168.3555C906.8169,-159.4286 889.3689,-145.5306 875.5,-132 859.8542,-116.7357 843.7265,-97.6967 832.6368,-83.9956"/>
<polygon fill="#191970" stroke="#191970" points="835.1094,-81.4832 826.1324,-75.8561 829.6409,-85.8531 835.1094,-81.4832"/>
</g>
<!-- Node13 -->
<g id="node14" class="node">
<title>Node13</title>
<polygon fill="#ffffff" stroke="#bfbfbf" points="918,-112.5 918,-131.5 1031,-131.5 1031,-112.5 918,-112.5"/>
<text text-anchor="middle" x="974.5" y="-119.5" font-family="Helvetica,sans-Serif" font-size="10.00" fill="#000000">AMReX_FArrayBox.H</text>
</g>
<!-- Node0&#45;&gt;Node13 -->
<g id="edge18" class="edge">
<title>Node0&#45;&gt;Node13</title>
<path fill="none" stroke="#191970" d="M938.99,-168.2455C945.0326,-160.3761 953.6903,-149.101 960.9441,-139.6542"/>
<polygon fill="#191970" stroke="#191970" points="963.7815,-141.7058 967.0958,-131.6427 958.2295,-137.4426 963.7815,-141.7058"/>
</g>
<!-- Node14 -->
<g id="node15" class="node">
<title>Node14</title>
<polygon fill="#ffffff" stroke="#bfbfbf" points="1049.5,-112.5 1049.5,-131.5 1159.5,-131.5 1159.5,-112.5 1049.5,-112.5"/>
<text text-anchor="middle" x="1104.5" y="-119.5" font-family="Helvetica,sans-Serif" font-size="10.00" fill="#000000">AMReX_Geometry.H</text>
</g>
<!-- Node0&#45;&gt;Node14 -->
<g id="edge19" class="edge">
<title>Node0&#45;&gt;Node14</title>
<path fill="none" stroke="#191970" d="M961.2398,-168.3733C990.007,-159.0613 1033.77,-144.8953 1065.3556,-134.671"/>
<polygon fill="#191970" stroke="#191970" points="1066.7122,-137.9107 1075.1483,-131.5011 1064.5564,-131.251 1066.7122,-137.9107"/>
</g>
<!-- Node15 -->
<g id="node16" class="node">
<title>Node15</title>
<polygon fill="#ffffff" stroke="#bfbfbf" points="1177.5,-112.5 1177.5,-131.5 1305.5,-131.5 1305.5,-112.5 1177.5,-112.5"/>
<text text-anchor="middle" x="1241.5" y="-119.5" font-family="Helvetica,sans-Serif" font-size="10.00" fill="#000000">AMReX_PhysBCFunct.H</text>
</g>
<!-- Node0&#45;&gt;Node15 -->
<g id="edge20" class="edge">
<title>Node0&#45;&gt;Node15</title>
<path fill="none" stroke="#191970" d="M971.7093,-170.7364C1024.2397,-161.247 1116.789,-144.5284 1178.629,-133.3573"/>
<polygon fill="#191970" stroke="#191970" points="1179.4407,-136.7674 1188.6592,-131.5454 1178.1963,-129.8789 1179.4407,-136.7674"/>
</g>
<!-- Node2&#45;&gt;Node1 -->
<g id="edge11" class="edge">
<title>Node2&#45;&gt;Node1</title>
<path fill="none" stroke="#191970" d="M601.1569,-115.4539C639.0087,-109.2985 688.9221,-97.6465 728.5,-76 750.795,-63.8061 771.3136,-42.7952 784.2928,-27.754"/>
<polygon fill="#191970" stroke="#191970" points="787.2959,-29.6183 791.02,-19.6995 781.9233,-25.131 787.2959,-29.6183"/>
</g>
<!-- Node3 -->
<g id="node4" class="node">
<title>Node3</title>
<polygon fill="#ffffff" stroke="#bfbfbf" points="422,-.5 422,-19.5 463,-19.5 463,-.5 422,-.5"/>
<text text-anchor="middle" x="442.5" y="-7.5" font-family="Helvetica,sans-Serif" font-size="10.00" fill="#000000">string</text>
</g>
<!-- Node2&#45;&gt;Node3 -->
<g id="edge3" class="edge">
<title>Node2&#45;&gt;Node3</title>
<path fill="none" stroke="#191970" d="M520.4054,-112.3898C503.8489,-104.7125 482.4249,-92.5023 468.5,-76 457.2196,-62.6317 450.453,-43.7814 446.6638,-29.647"/>
<polygon fill="#191970" stroke="#191970" points="449.9701,-28.4251 444.234,-19.5174 443.1632,-30.0579 449.9701,-28.4251"/>
</g>
<!-- Node4 -->
<g id="node5" class="node">
<title>Node4</title>
<polygon fill="#ffffff" stroke="#bfbfbf" points="667.5,-56.5 667.5,-75.5 719.5,-75.5 719.5,-56.5 667.5,-56.5"/>
<text text-anchor="middle" x="693.5" y="-63.5" font-family="Helvetica,sans-Serif" font-size="10.00" fill="#000000">memory</text>
</g>
<!-- Node2&#45;&gt;Node4 -->
<g id="edge4" class="edge">
<title>Node2&#45;&gt;Node4</title>
<path fill="none" stroke="#191970" d="M570.114,-112.3733C594.5687,-103.1822 631.6054,-89.2624 658.7209,-79.0713"/>
<polygon fill="#191970" stroke="#191970" points="660.0909,-82.2956 668.2202,-75.5011 657.6281,-75.7431 660.0909,-82.2956"/>
</g>
<!-- Node5 -->
<g id="node6" class="node">
<title>Node5</title>
<polygon fill="#ffffff" stroke="#bfbfbf" points="0,-56.5 0,-75.5 83,-75.5 83,-56.5 0,-56.5"/>
<text text-anchor="middle" x="41.5" y="-63.5" font-family="Helvetica,sans-Serif" font-size="10.00" fill="#000000">unordered_map</text>
</g>
<!-- Node2&#45;&gt;Node5 -->
<g id="edge5" class="edge">
<title>Node2&#45;&gt;Node5</title>
<path fill="none" stroke="#191970" d="M487.9187,-117.9266C404.049,-111.5173 241.6138,-97.6827 93.3881,-76.0069"/>
<polygon fill="#191970" stroke="#191970" points="93.5987,-72.5001 83.1944,-74.5004 92.5752,-79.4249 93.5987,-72.5001"/>
</g>
<!-- Node6 -->
<g id="node7" class="node">
<title>Node6</title>
<polygon fill="#ffffff" stroke="#bfbfbf" points="101.5,-56.5 101.5,-75.5 157.5,-75.5 157.5,-56.5 101.5,-56.5"/>
<text text-anchor="middle" x="129.5" y="-63.5" font-family="Helvetica,sans-Serif" font-size="10.00" fill="#000000">algorithm</text>
</g>
<!-- Node2&#45;&gt;Node6 -->
<g id="edge6" class="edge">
<title>Node2&#45;&gt;Node6</title>
<path fill="none" stroke="#191970" d="M487.7488,-117.6394C415.4875,-111.5231 286.6908,-98.7345 167.6954,-76.0035"/>
<polygon fill="#191970" stroke="#191970" points="168.1678,-72.5299 157.6844,-74.0627 166.8355,-79.402 168.1678,-72.5299"/>
</g>
<!-- Node7 -->
<g id="node8" class="node">
<title>Node7</title>
<polygon fill="#ffffff" stroke="#bfbfbf" points="594.5,-.5 594.5,-19.5 698.5,-19.5 698.5,-.5 594.5,-.5"/>
<text text-anchor="middle" x="646.5" y="-7.5" font-family="Helvetica,sans-Serif" font-size="10.00" fill="#000000">AMReX_MultiFab.H</text>
</g>
<!-- Node2&#45;&gt;Node7 -->
<g id="edge7" class="edge">
<title>Node2&#45;&gt;Node7</title>
<path fill="none" stroke="#191970" d="M568.5946,-112.3898C585.1511,-104.7125 606.5751,-92.5023 620.5,-76 631.7804,-62.6317 638.547,-43.7814 642.3362,-29.647"/>
<polygon fill="#191970" stroke="#191970" points="645.8368,-30.0579 644.766,-19.5174 639.0299,-28.4251 645.8368,-30.0579"/>
</g>
<!-- Node8 -->
<g id="node9" class="node">
<title>Node8</title>
<polygon fill="#ffffff" stroke="#bfbfbf" points="176,-56.5 176,-75.5 275,-75.5 275,-56.5 176,-56.5"/>
<text text-anchor="middle" x="225.5" y="-63.5" font-family="Helvetica,sans-Serif" font-size="10.00" fill="#000000">AMReX_BCRec.H</text>
</g>
<!-- Node2&#45;&gt;Node8 -->
<g id="edge8" class="edge">
<title>Node2&#45;&gt;Node8</title>
<path fill="none" stroke="#191970" d="M490.0244,-112.4369C432.9985,-102.4261 343.7299,-86.7551 284.92,-76.4311"/>
<polygon fill="#191970" stroke="#191970" points="285.4859,-72.977 275.0313,-74.6951 284.2755,-79.8716 285.4859,-72.977"/>
</g>
<!-- Node2&#45;&gt;Node9 -->
<g id="edge9" class="edge">
<title>Node2&#45;&gt;Node9</title>
<path fill="none" stroke="#191970" d="M591.291,-112.4369C639.7664,-102.5295 715.367,-87.0783 765.8883,-76.7528"/>
<polygon fill="#191970" stroke="#191970" points="766.8593,-80.1267 775.9559,-74.6951 765.4575,-73.2685 766.8593,-80.1267"/>
</g>
<!-- Node10 -->
<g id="node11" class="node">
<title>Node10</title>
<g id="a_node11"><a xlink:href="incflo__enums_8_h.html" target="_top" xlink:title="amr&#45;wind/incflo_enums.H">
<polygon fill="#ffffff" stroke="#000000" points="293.5,-56.5 293.5,-75.5 421.5,-75.5 421.5,-56.5 293.5,-56.5"/>
<text text-anchor="middle" x="357.5" y="-63.5" font-family="Helvetica,sans-Serif" font-size="10.00" fill="#000000">amr&#45;wind/incflo_enums.H</text>
</a>
</g>
</g>
<!-- Node2&#45;&gt;Node10 -->
<g id="edge10" class="edge">
<title>Node2&#45;&gt;Node10</title>
<path fill="none" stroke="#191970" d="M512.3536,-112.3733C480.9891,-102.9807 433.1335,-88.6496 398.9284,-78.4064"/>
<polygon fill="#191970" stroke="#191970" points="399.8107,-75.0171 389.227,-75.5011 397.8025,-81.7229 399.8107,-75.0171"/>
</g>
<!-- Node11 -->
<g id="node12" class="node">
<title>Node11</title>
<g id="a_node12"><a xlink:href="_view_field_8_h.html" target="_top" xlink:title="amr&#45;wind/core/ViewField.H">
<polygon fill="#ffffff" stroke="#000000" points="477.5,-56.5 477.5,-75.5 611.5,-75.5 611.5,-56.5 477.5,-56.5"/>
<text text-anchor="middle" x="544.5" y="-63.5" font-family="Helvetica,sans-Serif" font-size="10.00" fill="#000000">amr&#45;wind/core/ViewField.H</text>
</a>
</g>
</g>
<!-- Node2&#45;&gt;Node11 -->
<g id="edge12" class="edge">
<title>Node2&#45;&gt;Node11</title>
<path fill="none" stroke="#191970" d="M544.5,-112.2455C544.5,-104.9382 544.5,-94.6944 544.5,-85.7046"/>
<polygon fill="#191970" stroke="#191970" points="548.0001,-85.6426 544.5,-75.6427 541.0001,-85.6427 548.0001,-85.6426"/>
</g>
<!-- Node11&#45;&gt;Node1 -->
<g id="edge14" class="edge">
<title>Node11&#45;&gt;Node1</title>
<path fill="none" stroke="#191970" d="M587.8756,-56.4369C631.437,-46.8328 698.6277,-32.0191 745.3634,-21.7152"/>
<polygon fill="#191970" stroke="#191970" points="746.2915,-25.0947 755.3034,-19.5237 744.7843,-18.2588 746.2915,-25.0947"/>
</g>
<!-- Node11&#45;&gt;Node3 -->
<g id="edge13" class="edge">
<title>Node11&#45;&gt;Node3</title>
<path fill="none" stroke="#191970" d="M526.733,-56.2455C510.7905,-47.4928 487.1741,-34.527 469.0011,-24.5496"/>
<polygon fill="#191970" stroke="#191970" points="470.5137,-21.3873 460.0634,-19.6427 467.1448,-27.5233 470.5137,-21.3873"/>
</g>
<!-- Node11&#45;&gt;Node7 -->
<g id="edge15" class="edge">
<title>Node11&#45;&gt;Node7</title>
<path fill="none" stroke="#191970" d="M562.267,-56.2455C578.2095,-47.4928 601.8259,-34.527 619.9989,-24.5496"/>
<polygon fill="#191970" stroke="#191970" points="621.8552,-27.5233 628.9366,-19.6427 618.4863,-21.3873 621.8552,-27.5233"/>
</g>
<!-- Node12 -->
<g id="node13" class="node">
<title>Node12</title>
<polygon fill="#ffffff" stroke="#bfbfbf" points="481,-.5 481,-19.5 576,-19.5 576,-.5 481,-.5"/>
<text text-anchor="middle" x="528.5" y="-7.5" font-family="Helvetica,sans-Serif" font-size="10.00" fill="#000000">AMReX_Vector.H</text>
</g>
<!-- Node11&#45;&gt;Node12 -->
<g id="edge16" class="edge">
<title>Node11&#45;&gt;Node12</title>
<path fill="none" stroke="#191970" d="M541.713,-56.2455C539.6023,-48.8579 536.634,-38.4689 534.0453,-29.4087"/>
<polygon fill="#191970" stroke="#191970" points="537.3677,-28.2964 531.255,-19.6427 530.637,-30.2195 537.3677,-28.2964"/>
</g>
</g>
</svg>
