<?xml version="1.0" encoding="UTF-8" standalone="no"?>
<!DOCTYPE svg PUBLIC "-//W3C//DTD SVG 1.1//EN"
 "http://www.w3.org/Graphics/SVG/1.1/DTD/svg11.dtd">
<!-- Generated by graphviz version 2.40.1 (20161225.0304)
 -->
<!-- Title: FieldNorms.H Pages: 1 -->
<!--zoomable 330 -->
<svg id="main" version="1.1" xmlns="http://www.w3.org/2000/svg" xmlns:xlink="http://www.w3.org/1999/xlink" xml:space="preserve" onload="init(evt)">
<style type="text/css"><![CDATA[
.edge:hover path { stroke: red; }
.edge:hover polygon { stroke: red; fill: red; }
]]></style>
<script type="text/javascript"><![CDATA[
var edges = document.getElementsByTagName('g');
if (edges && edges.length) {
  for (var i=0;i<edges.length;i++) {
    if (edges[i].id.substr(0,4)=='edge') {
      edges[i].setAttribute('class','edge');
    }
  }
}
]]></script>
        <defs>
                <circle id="rim" cx="0" cy="0" r="7"/>
                <circle id="rim2" cx="0" cy="0" r="3.5"/>
                <g id="zoomPlus">
                        <use xlink:href="#rim" fill="#404040">
                                <set attributeName="fill" to="#808080" begin="zoomplus.mouseover" end="zoomplus.mouseout"/>
                        </use>
                        <path d="M-4,0h8M0,-4v8" fill="none" stroke="white" stroke-width="1.5" pointer-events="none"/>
                </g>
                <g id="zoomMin">
                        <use xlink:href="#rim" fill="#404040">
                                <set attributeName="fill" to="#808080" begin="zoomminus.mouseover" end="zoomminus.mouseout"/>
                        </use>
                        <path d="M-4,0h8" fill="none" stroke="white" stroke-width="1.5" pointer-events="none"/>
                </g>
                <g id="dirArrow">
                        <path fill="none" stroke="white" stroke-width="1.5" d="M0,-3.0v7 M-2.5,-0.5L0,-3.0L2.5,-0.5"/>
                </g>
               <g id="resetDef">
                       <use xlink:href="#rim2" fill="#404040">
                               <set attributeName="fill" to="#808080" begin="reset.mouseover" end="reset.mouseout"/>
                       </use>
               </g>
        </defs>

<script type="text/javascript">
var viewWidth = 2317;
var viewHeight = 330;
var sectionId = 'dynsection-0';
</script>
<script xlink:href="svgpan.js"/>
<svg id="graph" class="graph">
<g id="viewport">
<title>FieldNorms.H</title>
<polygon fill="#ffffff" stroke="transparent" points="-4,4 -4,-326 2313,-326 2313,4 -4,4"/>
<!-- Node0 -->
<g id="node1" class="node">
<title>Node0</title>
<polygon fill="#bfbfbf" stroke="#000000" points="545,-302.5 545,-321.5 622,-321.5 622,-302.5 545,-302.5"/>
<text text-anchor="middle" x="583.5" y="-309.5" font-family="Helvetica,sans-Serif" font-size="10.00" fill="#000000">FieldNorms.H</text>
</g>
<!-- Node1 -->
<g id="node2" class="node">
<title>Node1</title>
<g id="a_node2"><a xlink:href="_c_f_d_sim_8_h.html" target="_top" xlink:title="amr&#45;wind/CFDSim.H">
<polygon fill="#ffffff" stroke="#000000" points="699.5,-246.5 699.5,-265.5 807.5,-265.5 807.5,-246.5 699.5,-246.5"/>
<text text-anchor="middle" x="753.5" y="-253.5" font-family="Helvetica,sans-Serif" font-size="10.00" fill="#000000">amr&#45;wind/CFDSim.H</text>
</a>
</g>
</g>
<!-- Node0&#45;&gt;Node1 -->
<g id="edge1" class="edge">
<title>Node0&#45;&gt;Node1</title>
<path fill="none" stroke="#191970" d="M612.724,-302.3733C640.9925,-293.0613 683.9965,-278.8953 715.0344,-268.671"/>
<polygon fill="#191970" stroke="#191970" points="716.2544,-271.9542 724.6573,-265.5011 714.0643,-265.3056 716.2544,-271.9542"/>
</g>
<!-- Node36 -->
<g id="node37" class="node">
<title>Node36</title>
<g id="a_node37"><a xlink:href="_post_processing_8_h.html" target="_top" xlink:title="amr&#45;wind/utilities\l/PostProcessing.H">
<polygon fill="#ffffff" stroke="#000000" points="272,-179.5 272,-209.5 371,-209.5 371,-179.5 272,-179.5"/>
<text text-anchor="start" x="280" y="-197.5" font-family="Helvetica,sans-Serif" font-size="10.00" fill="#000000">amr&#45;wind/utilities</text>
<text text-anchor="middle" x="321.5" y="-186.5" font-family="Helvetica,sans-Serif" font-size="10.00" fill="#000000">/PostProcessing.H</text>
</a>
</g>
</g>
<!-- Node0&#45;&gt;Node36 -->
<g id="edge66" class="edge">
<title>Node0&#45;&gt;Node36</title>
<path fill="none" stroke="#191970" d="M562.0594,-302.3845C518.9668,-283.0586 421.1369,-239.1845 364.3998,-213.7394"/>
<polygon fill="#191970" stroke="#191970" points="365.5407,-210.4152 354.984,-209.5167 362.6762,-216.8023 365.5407,-210.4152"/>
</g>
<!-- Node2 -->
<g id="node3" class="node">
<title>Node2</title>
<polygon fill="#ffffff" stroke="#bfbfbf" points="1161.5,-118 1161.5,-137 1267.5,-137 1267.5,-118 1161.5,-118"/>
<text text-anchor="middle" x="1214.5" y="-125" font-family="Helvetica,sans-Serif" font-size="10.00" fill="#000000">AMReX_AmrCore.H</text>
</g>
<!-- Node1&#45;&gt;Node2 -->
<g id="edge2" class="edge">
<title>Node1&#45;&gt;Node2</title>
<path fill="none" stroke="#191970" d="M807.9309,-247.4162C854.8693,-239.4683 924.2419,-226.4135 983.5,-210 1055.6116,-190.0263 1137.5578,-158.6051 1181.8662,-140.8607"/>
<polygon fill="#191970" stroke="#191970" points="1183.2845,-144.0627 1191.2529,-137.0802 1180.6694,-137.5695 1183.2845,-144.0627"/>
</g>
<!-- Node3 -->
<g id="node4" class="node">
<title>Node3</title>
<g id="a_node4"><a xlink:href="_sim_time_8_h.html" target="_top" xlink:title="amr&#45;wind/core/SimTime.H">
<polygon fill="#ffffff" stroke="#000000" points="843,-185 843,-204 974,-204 974,-185 843,-185"/>
<text text-anchor="middle" x="908.5" y="-192" font-family="Helvetica,sans-Serif" font-size="10.00" fill="#000000">amr&#45;wind/core/SimTime.H</text>
</a>
</g>
</g>
<!-- Node1&#45;&gt;Node3 -->
<g id="edge3" class="edge">
<title>Node1&#45;&gt;Node3</title>
<path fill="none" stroke="#191970" d="M777.7188,-246.3906C803.8806,-236.0103 845.7429,-219.4004 875.0388,-207.7766"/>
<polygon fill="#191970" stroke="#191970" points="876.4471,-210.9833 884.4513,-204.0419 873.8654,-204.4767 876.4471,-210.9833"/>
</g>
<!-- Node7 -->
<g id="node8" class="node">
<title>Node7</title>
<g id="a_node8"><a xlink:href="_field_repo_8_h.html" target="_top" xlink:title="amr&#45;wind/core/FieldRepo.H">
<polygon fill="#ffffff" stroke="#000000" points="1435.5,-185 1435.5,-204 1571.5,-204 1571.5,-185 1435.5,-185"/>
<text text-anchor="middle" x="1503.5" y="-192" font-family="Helvetica,sans-Serif" font-size="10.00" fill="#000000">amr&#45;wind/core/FieldRepo.H</text>
</a>
</g>
</g>
<!-- Node1&#45;&gt;Node7 -->
<g id="edge7" class="edge">
<title>Node1&#45;&gt;Node7</title>
<path fill="none" stroke="#191970" d="M807.7399,-251.5523C938.6516,-240.8176 1272.3562,-213.4538 1425.064,-200.9317"/>
<polygon fill="#191970" stroke="#191970" points="1425.6185,-204.3981 1435.299,-200.0925 1425.0464,-197.4215 1425.6185,-204.3981"/>
</g>
<!-- Node26 -->
<g id="node27" class="node">
<title>Node26</title>
<g id="a_node27"><a xlink:href="_p_d_e_base_8_h.html" target="_top" xlink:title="amr&#45;wind/equation_systems\l/PDEBase.H">
<polygon fill="#ffffff" stroke="#000000" points="389,-179.5 389,-209.5 528,-209.5 528,-179.5 389,-179.5"/>
<text text-anchor="start" x="397" y="-197.5" font-family="Helvetica,sans-Serif" font-size="10.00" fill="#000000">amr&#45;wind/equation_systems</text>
<text text-anchor="middle" x="458.5" y="-186.5" font-family="Helvetica,sans-Serif" font-size="10.00" fill="#000000">/PDEBase.H</text>
</a>
</g>
</g>
<!-- Node1&#45;&gt;Node26 -->
<g id="edge44" class="edge">
<title>Node1&#45;&gt;Node26</title>
<path fill="none" stroke="#191970" d="M707.7299,-246.4581C662.481,-237.0248 592.3282,-222.3998 537.9649,-211.0664"/>
<polygon fill="#191970" stroke="#191970" points="538.5113,-207.6051 528.0074,-208.9905 537.0826,-214.4578 538.5113,-207.6051"/>
</g>
<!-- Node34 -->
<g id="node35" class="node">
<title>Node34</title>
<g id="a_node35"><a xlink:href="_physics_8_h.html" target="_top" xlink:title="amr&#45;wind/core/Physics.H">
<polygon fill="#ffffff" stroke="#000000" points="603,-185 603,-204 730,-204 730,-185 603,-185"/>
<text text-anchor="middle" x="666.5" y="-192" font-family="Helvetica,sans-Serif" font-size="10.00" fill="#000000">amr&#45;wind/core/Physics.H</text>
</a>
</g>
</g>
<!-- Node1&#45;&gt;Node34 -->
<g id="edge61" class="edge">
<title>Node1&#45;&gt;Node34</title>
<path fill="none" stroke="#191970" d="M739.9063,-246.3906C726.1157,-236.6421 704.5528,-221.3994 688.359,-209.9521"/>
<polygon fill="#191970" stroke="#191970" points="690.1844,-206.9563 679.9983,-204.0419 686.1437,-212.6723 690.1844,-206.9563"/>
</g>
<!-- Node4 -->
<g id="node5" class="node">
<title>Node4</title>
<polygon fill="#ffffff" stroke="#bfbfbf" points="1050,-118 1050,-137 1143,-137 1143,-118 1050,-118"/>
<text text-anchor="middle" x="1096.5" y="-125" font-family="Helvetica,sans-Serif" font-size="10.00" fill="#000000">AMReX_REAL.H</text>
</g>
<!-- Node3&#45;&gt;Node4 -->
<g id="edge4" class="edge">
<title>Node3&#45;&gt;Node4</title>
<path fill="none" stroke="#191970" d="M935.4358,-184.9005C968.1033,-173.2584 1023.3188,-153.5805 1059.8425,-140.5641"/>
<polygon fill="#191970" stroke="#191970" points="1061.3694,-143.7356 1069.6142,-137.0817 1059.0195,-137.1418 1061.3694,-143.7356"/>
</g>
<!-- Node5 -->
<g id="node6" class="node">
<title>Node5</title>
<polygon fill="#ffffff" stroke="#bfbfbf" points="777.5,-118 777.5,-137 903.5,-137 903.5,-118 777.5,-118"/>
<text text-anchor="middle" x="840.5" y="-125" font-family="Helvetica,sans-Serif" font-size="10.00" fill="#000000">AMReX_GpuQualifiers.H</text>
</g>
<!-- Node3&#45;&gt;Node5 -->
<g id="edge5" class="edge">
<title>Node3&#45;&gt;Node5</title>
<path fill="none" stroke="#191970" d="M898.7573,-184.9005C888.0523,-174.353 870.653,-157.2096 857.6521,-144.3998"/>
<polygon fill="#191970" stroke="#191970" points="859.8044,-141.607 850.2247,-137.0817 854.8915,-146.5933 859.8044,-141.607"/>
</g>
<!-- Node6 -->
<g id="node7" class="node">
<title>Node6</title>
<polygon fill="#ffffff" stroke="#bfbfbf" points="921.5,-118 921.5,-137 1031.5,-137 1031.5,-118 921.5,-118"/>
<text text-anchor="middle" x="976.5" y="-125" font-family="Helvetica,sans-Serif" font-size="10.00" fill="#000000">AMReX_Extension.H</text>
</g>
<!-- Node3&#45;&gt;Node6 -->
<g id="edge6" class="edge">
<title>Node3&#45;&gt;Node6</title>
<path fill="none" stroke="#191970" d="M918.2427,-184.9005C928.9477,-174.353 946.347,-157.2096 959.3479,-144.3998"/>
<polygon fill="#191970" stroke="#191970" points="962.1085,-146.5933 966.7753,-137.0817 957.1956,-141.607 962.1085,-146.5933"/>
</g>
<!-- Node7&#45;&gt;Node2 -->
<g id="edge41" class="edge">
<title>Node7&#45;&gt;Node2</title>
<path fill="none" stroke="#191970" d="M1462.4003,-184.9717C1410.7603,-172.9998 1322.122,-152.4504 1266.0087,-139.4415"/>
<polygon fill="#191970" stroke="#191970" points="1266.458,-135.9529 1255.9259,-137.1039 1264.877,-142.772 1266.458,-135.9529"/>
</g>
<!-- Node8 -->
<g id="node9" class="node">
<title>Node8</title>
<polygon fill="#ffffff" stroke="#bfbfbf" points="1028,-.5 1028,-19.5 1069,-19.5 1069,-.5 1028,-.5"/>
<text text-anchor="middle" x="1048.5" y="-7.5" font-family="Helvetica,sans-Serif" font-size="10.00" fill="#000000">string</text>
</g>
<!-- Node7&#45;&gt;Node8 -->
<g id="edge8" class="edge">
<title>Node7&#45;&gt;Node8</title>
<path fill="none" stroke="#191970" d="M1465.5161,-184.9342C1434.3802,-176.2863 1389.705,-162 1353.5,-143 1332.9564,-132.2189 1332.9919,-120.7389 1311.5,-112 1257.0591,-89.8636 1088.4587,-120.0005 1049.5,-76 1038.6035,-63.6933 1039.6037,-44.4576 1042.59,-29.9211"/>
<polygon fill="#191970" stroke="#191970" points="1046.062,-30.4643 1045.0966,-19.9135 1039.2717,-28.7635 1046.062,-30.4643"/>
</g>
<!-- Node9 -->
<g id="node10" class="node">
<title>Node9</title>
<polygon fill="#ffffff" stroke="#bfbfbf" points="538,-56.5 538,-75.5 621,-75.5 621,-56.5 538,-56.5"/>
<text text-anchor="middle" x="579.5" y="-63.5" font-family="Helvetica,sans-Serif" font-size="10.00" fill="#000000">unordered_map</text>
</g>
<!-- Node7&#45;&gt;Node9 -->
<g id="edge9" class="edge">
<title>Node7&#45;&gt;Node9</title>
<path fill="none" stroke="#191970" d="M1450.9794,-184.9444C1413.1795,-176.8548 1361.6413,-163.2927 1319.5,-143 1298.2731,-132.7784 1298.6694,-119.9738 1276.5,-112 1246.2594,-101.1232 788.0923,-76.7139 631.5041,-68.6452"/>
<polygon fill="#191970" stroke="#191970" points="631.3633,-65.1334 621.1968,-68.1153 631.0038,-72.1242 631.3633,-65.1334"/>
</g>
<!-- Node10 -->
<g id="node11" class="node">
<title>Node10</title>
<g id="a_node11"><a xlink:href="_field_desc_types_8_h.html" target="_top" xlink:title="amr&#45;wind/core/FieldDescTypes.H">
<polygon fill="#ffffff" stroke="#000000" points="1756,-.5 1756,-19.5 1919,-19.5 1919,-.5 1756,-.5"/>
<text text-anchor="middle" x="1837.5" y="-7.5" font-family="Helvetica,sans-Serif" font-size="10.00" fill="#000000">amr&#45;wind/core/FieldDescTypes.H</text>
</a>
</g>
</g>
<!-- Node7&#45;&gt;Node10 -->
<g id="edge10" class="edge">
<title>Node7&#45;&gt;Node10</title>
<path fill="none" stroke="#191970" d="M1571.7405,-189.4979C1675.1092,-181.379 1866.2523,-164.0967 1931.5,-143 1989.9903,-124.0882 2021.2888,-128.9587 2052.5,-76 2057.0132,-68.3421 2058.0893,-62.9117 2052.5,-56 2036.6924,-36.4525 1980.2331,-24.8425 1929.1397,-18.1769"/>
<polygon fill="#191970" stroke="#191970" points="1929.3635,-14.6776 1919.0062,-16.9088 1928.4942,-21.6235 1929.3635,-14.6776"/>
</g>
<!-- Node11 -->
<g id="node12" class="node">
<title>Node11</title>
<g id="a_node12"><a xlink:href="_field_utils_8_h.html" target="_top" xlink:title="amr&#45;wind/core/FieldUtils.H">
<polygon fill="#ffffff" stroke="#000000" points="2176,-56.5 2176,-75.5 2309,-75.5 2309,-56.5 2176,-56.5"/>
<text text-anchor="middle" x="2242.5" y="-63.5" font-family="Helvetica,sans-Serif" font-size="10.00" fill="#000000">amr&#45;wind/core/FieldUtils.H</text>
</a>
</g>
</g>
<!-- Node7&#45;&gt;Node11 -->
<g id="edge11" class="edge">
<title>Node7&#45;&gt;Node11</title>
<path fill="none" stroke="#191970" d="M1571.633,-191.748C1729.0476,-185.0219 2108.6095,-166.5622 2161.5,-143 2190.439,-130.108 2215.4141,-102.337 2229.7091,-83.9118"/>
<polygon fill="#191970" stroke="#191970" points="2232.6479,-85.8264 2235.8392,-75.7236 2227.0443,-81.6312 2232.6479,-85.8264"/>
</g>
<!-- Node12 -->
<g id="node13" class="node">
<title>Node12</title>
<polygon fill="#ffffff" stroke="#bfbfbf" points="1965.5,-.5 1965.5,-19.5 2069.5,-19.5 2069.5,-.5 1965.5,-.5"/>
<text text-anchor="middle" x="2017.5" y="-7.5" font-family="Helvetica,sans-Serif" font-size="10.00" fill="#000000">AMReX_MultiFab.H</text>
</g>
<!-- Node7&#45;&gt;Node12 -->
<g id="edge42" class="edge">
<title>Node7&#45;&gt;Node12</title>
<path fill="none" stroke="#191970" d="M1571.734,-192.2589C1687.2853,-187.6401 1916.0836,-174.7021 1989.5,-143 2031.4556,-124.883 2048.4258,-117.5291 2067.5,-76 2076.2368,-56.9777 2058.8567,-38.2414 2042.2443,-25.6203"/>
<polygon fill="#191970" stroke="#191970" points="2043.9508,-22.5397 2033.7695,-19.6087 2039.9008,-28.2492 2043.9508,-22.5397"/>
</g>
<!-- Node14 -->
<g id="node15" class="node">
<title>Node14</title>
<g id="a_node15"><a xlink:href="_field_8_h.html" target="_top" xlink:title="amr&#45;wind/core/Field.H">
<polygon fill="#ffffff" stroke="#000000" points="1362,-118 1362,-137 1475,-137 1475,-118 1362,-118"/>
<text text-anchor="middle" x="1418.5" y="-125" font-family="Helvetica,sans-Serif" font-size="10.00" fill="#000000">amr&#45;wind/core/Field.H</text>
</a>
</g>
</g>
<!-- Node7&#45;&gt;Node14 -->
<g id="edge15" class="edge">
<title>Node7&#45;&gt;Node14</title>
<path fill="none" stroke="#191970" d="M1491.3216,-184.9005C1477.5616,-174.0544 1454.9535,-156.2339 1438.5738,-143.3229"/>
<polygon fill="#191970" stroke="#191970" points="1440.6761,-140.5234 1430.6558,-137.0817 1436.3427,-146.0209 1440.6761,-140.5234"/>
</g>
<!-- Node22 -->
<g id="node23" class="node">
<title>Node22</title>
<g id="a_node23"><a xlink:href="_int_field_8_h.html" target="_top" xlink:title="amr&#45;wind/core/IntField.H">
<polygon fill="#ffffff" stroke="#000000" points="1531.5,-118 1531.5,-137 1655.5,-137 1655.5,-118 1531.5,-118"/>
<text text-anchor="middle" x="1593.5" y="-125" font-family="Helvetica,sans-Serif" font-size="10.00" fill="#000000">amr&#45;wind/core/IntField.H</text>
</a>
</g>
</g>
<!-- Node7&#45;&gt;Node22 -->
<g id="edge30" class="edge">
<title>Node7&#45;&gt;Node22</title>
<path fill="none" stroke="#191970" d="M1516.3948,-184.9005C1530.9642,-174.0544 1554.9022,-156.2339 1572.2454,-143.3229"/>
<polygon fill="#191970" stroke="#191970" points="1574.6978,-145.8606 1580.6291,-137.0817 1570.5177,-140.2457 1574.6978,-145.8606"/>
</g>
<!-- Node23 -->
<g id="node24" class="node">
<title>Node23</title>
<polygon fill="#ffffff" stroke="#bfbfbf" points="1448,-56.5 1448,-75.5 1555,-75.5 1555,-56.5 1448,-56.5"/>
<text text-anchor="middle" x="1501.5" y="-63.5" font-family="Helvetica,sans-Serif" font-size="10.00" fill="#000000">AMReX_iMultiFab.H</text>
</g>
<!-- Node7&#45;&gt;Node23 -->
<g id="edge43" class="edge">
<title>Node7&#45;&gt;Node23</title>
<path fill="none" stroke="#191970" d="M1503.3497,-184.8416C1503.0239,-163.9114 1502.2471,-114.004 1501.8109,-85.9762"/>
<polygon fill="#191970" stroke="#191970" points="1505.3074,-85.7148 1501.6521,-75.7705 1498.3082,-85.8238 1505.3074,-85.7148"/>
</g>
<!-- Node24 -->
<g id="node25" class="node">
<title>Node24</title>
<g id="a_node25"><a xlink:href="_scratch_field_8_h.html" target="_top" xlink:title="amr&#45;wind/core/ScratchField.H">
<polygon fill="#ffffff" stroke="#000000" points="1776.5,-118 1776.5,-137 1922.5,-137 1922.5,-118 1776.5,-118"/>
<text text-anchor="middle" x="1849.5" y="-125" font-family="Helvetica,sans-Serif" font-size="10.00" fill="#000000">amr&#45;wind/core/ScratchField.H</text>
</a>
</g>
</g>
<!-- Node7&#45;&gt;Node24 -->
<g id="edge34" class="edge">
<title>Node7&#45;&gt;Node24</title>
<path fill="none" stroke="#191970" d="M1552.7059,-184.9717C1615.261,-172.8584 1723.164,-151.9639 1790.1957,-138.9838"/>
<polygon fill="#191970" stroke="#191970" points="1791.0318,-142.387 1800.184,-137.0496 1789.701,-135.5146 1791.0318,-142.387"/>
</g>
<!-- Node11&#45;&gt;Node10 -->
<g id="edge12" class="edge">
<title>Node11&#45;&gt;Node10</title>
<path fill="none" stroke="#191970" d="M2175.6225,-56.7527C2104.4519,-46.9119 1991.9164,-31.3514 1916.4453,-20.9159"/>
<polygon fill="#191970" stroke="#191970" points="1916.8962,-17.445 1906.511,-19.5423 1915.9374,-24.3791 1916.8962,-17.445"/>
</g>
<!-- Node11&#45;&gt;Node12 -->
<g id="edge13" class="edge">
<title>Node11&#45;&gt;Node12</title>
<path fill="none" stroke="#191970" d="M2204.0768,-56.4369C2165.8125,-46.9133 2106.9663,-32.2672 2065.6151,-21.9753"/>
<polygon fill="#191970" stroke="#191970" points="2066.3141,-18.5426 2055.7647,-19.5237 2064.6234,-25.3353 2066.3141,-18.5426"/>
</g>
<!-- Node13 -->
<g id="node14" class="node">
<title>Node13</title>
<polygon fill="#ffffff" stroke="#bfbfbf" points="2184.5,-.5 2184.5,-19.5 2300.5,-19.5 2300.5,-.5 2184.5,-.5"/>
<text text-anchor="middle" x="2242.5" y="-7.5" font-family="Helvetica,sans-Serif" font-size="10.00" fill="#000000">AMReX_Interpolater.H</text>
</g>
<!-- Node11&#45;&gt;Node13 -->
<g id="edge14" class="edge">
<title>Node11&#45;&gt;Node13</title>
<path fill="none" stroke="#191970" d="M2242.5,-56.2455C2242.5,-48.9382 2242.5,-38.6944 2242.5,-29.7046"/>
<polygon fill="#191970" stroke="#191970" points="2246.0001,-29.6426 2242.5,-19.6427 2239.0001,-29.6427 2246.0001,-29.6426"/>
</g>
<!-- Node14&#45;&gt;Node8 -->
<g id="edge16" class="edge">
<title>Node14&#45;&gt;Node8</title>
<path fill="none" stroke="#191970" d="M1377.6958,-117.9553C1367.8421,-115.8269 1357.3211,-113.7001 1347.5,-112 1285.6849,-101.2997 1115.1088,-116.8535 1067.5,-76 1054.3764,-64.7385 1050.0244,-45.0539 1048.7174,-30.1045"/>
<polygon fill="#191970" stroke="#191970" points="1052.1987,-29.6316 1048.2167,-19.8136 1045.2069,-29.9719 1052.1987,-29.6316"/>
</g>
<!-- Node14&#45;&gt;Node9 -->
<g id="edge18" class="edge">
<title>Node14&#45;&gt;Node9</title>
<path fill="none" stroke="#191970" d="M1361.7488,-118.5714C1344.9593,-116.1624 1326.5179,-113.7435 1309.5,-112 1177.6309,-98.4902 775.3342,-76.4216 631.3973,-68.7394"/>
<polygon fill="#191970" stroke="#191970" points="631.257,-65.227 621.085,-68.19 630.8846,-72.2171 631.257,-65.227"/>
</g>
<!-- Node14&#45;&gt;Node10 -->
<g id="edge24" class="edge">
<title>Node14&#45;&gt;Node10</title>
<path fill="none" stroke="#191970" d="M1412.3076,-117.8083C1403.4789,-102.6419 1389.9677,-73.2531 1405.5,-56 1429.6172,-29.2109 1678.7802,-24.5854 1745.6084,-19.9599"/>
<polygon fill="#191970" stroke="#191970" points="1745.9137,-23.4466 1755.5857,-19.1219 1745.3278,-16.4712 1745.9137,-23.4466"/>
</g>
<!-- Node14&#45;&gt;Node12 -->
<g id="edge20" class="edge">
<title>Node14&#45;&gt;Node12</title>
<path fill="none" stroke="#191970" d="M1418.1523,-117.7769C1418.1757,-102.0121 1420.7781,-71.1181 1439.5,-56 1481.8862,-21.7726 1874.2535,-25.0425 1928.5,-20 1937.1614,-19.1949 1946.2876,-18.2641 1955.2618,-17.301"/>
<polygon fill="#191970" stroke="#191970" points="1955.7357,-20.7701 1965.2965,-16.2048 1954.9756,-13.8115 1955.7357,-20.7701"/>
</g>
<!-- Node15 -->
<g id="node16" class="node">
<title>Node15</title>
<polygon fill="#ffffff" stroke="#bfbfbf" points="391.5,-56.5 391.5,-75.5 443.5,-75.5 443.5,-56.5 391.5,-56.5"/>
<text text-anchor="middle" x="417.5" y="-63.5" font-family="Helvetica,sans-Serif" font-size="10.00" fill="#000000">memory</text>
</g>
<!-- Node14&#45;&gt;Node15 -->
<g id="edge17" class="edge">
<title>Node14&#45;&gt;Node15</title>
<path fill="none" stroke="#191970" d="M1361.913,-120.5276C1335.9259,-117.5303 1304.6842,-114.2144 1276.5,-112 944.6933,-85.9303 860.538,-98.9368 528.5,-76 503.6174,-74.2811 475.6492,-71.7578 454.012,-69.6759"/>
<polygon fill="#191970" stroke="#191970" points="454.2321,-66.1809 443.9398,-68.6949 453.5534,-73.1479 454.2321,-66.1809"/>
</g>
<!-- Node16 -->
<g id="node17" class="node">
<title>Node16</title>
<polygon fill="#ffffff" stroke="#bfbfbf" points="1076.5,-56.5 1076.5,-75.5 1132.5,-75.5 1132.5,-56.5 1076.5,-56.5"/>
<text text-anchor="middle" x="1104.5" y="-63.5" font-family="Helvetica,sans-Serif" font-size="10.00" fill="#000000">algorithm</text>
</g>
<!-- Node14&#45;&gt;Node16 -->
<g id="edge19" class="edge">
<title>Node14&#45;&gt;Node16</title>
<path fill="none" stroke="#191970" d="M1376.1347,-117.9528C1366.7226,-115.915 1356.7843,-113.8278 1347.5,-112 1256.7369,-94.1312 1232.864,-95.7882 1142.5,-76 1142.4,-75.9781 1142.2999,-75.9561 1142.1997,-75.9341"/>
<polygon fill="#191970" stroke="#191970" points="1143.194,-72.5725 1132.6583,-73.6899 1141.5913,-79.3866 1143.194,-72.5725"/>
</g>
<!-- Node17 -->
<g id="node18" class="node">
<title>Node17</title>
<polygon fill="#ffffff" stroke="#bfbfbf" points="1151,-56.5 1151,-75.5 1250,-75.5 1250,-56.5 1151,-56.5"/>
<text text-anchor="middle" x="1200.5" y="-63.5" font-family="Helvetica,sans-Serif" font-size="10.00" fill="#000000">AMReX_BCRec.H</text>
</g>
<!-- Node14&#45;&gt;Node17 -->
<g id="edge21" class="edge">
<title>Node14&#45;&gt;Node17</title>
<path fill="none" stroke="#191970" d="M1384.4375,-117.8906C1346.6023,-107.2169 1285.4194,-89.9566 1244.1115,-78.3033"/>
<polygon fill="#191970" stroke="#191970" points="1244.898,-74.8886 1234.3233,-75.5419 1242.9973,-81.6256 1244.898,-74.8886"/>
</g>
<!-- Node18 -->
<g id="node19" class="node">
<title>Node18</title>
<polygon fill="#ffffff" stroke="#bfbfbf" points="1268,-56.5 1268,-75.5 1353,-75.5 1353,-56.5 1268,-56.5"/>
<text text-anchor="middle" x="1310.5" y="-63.5" font-family="Helvetica,sans-Serif" font-size="10.00" fill="#000000">AMReX_Gpu.H</text>
</g>
<!-- Node14&#45;&gt;Node18 -->
<g id="edge22" class="edge">
<title>Node14&#45;&gt;Node18</title>
<path fill="none" stroke="#191970" d="M1401.625,-117.8906C1384.0302,-107.8713 1356.2434,-92.0483 1335.9759,-80.5071"/>
<polygon fill="#191970" stroke="#191970" points="1337.6783,-77.4489 1327.2565,-75.5419 1334.2144,-83.5318 1337.6783,-77.4489"/>
</g>
<!-- Node19 -->
<g id="node20" class="node">
<title>Node19</title>
<g id="a_node20"><a xlink:href="incflo__enums_8_h.html" target="_top" xlink:title="amr&#45;wind/incflo_enums.H">
<polygon fill="#ffffff" stroke="#000000" points="816.5,-56.5 816.5,-75.5 944.5,-75.5 944.5,-56.5 816.5,-56.5"/>
<text text-anchor="middle" x="880.5" y="-63.5" font-family="Helvetica,sans-Serif" font-size="10.00" fill="#000000">amr&#45;wind/incflo_enums.H</text>
</a>
</g>
</g>
<!-- Node14&#45;&gt;Node19 -->
<g id="edge23" class="edge">
<title>Node14&#45;&gt;Node19</title>
<path fill="none" stroke="#191970" d="M1361.9763,-119.0849C1345.1102,-116.6759 1326.5704,-114.1283 1309.5,-112 1185.2169,-96.5048 1040.2753,-81.6275 954.6786,-73.1711"/>
<polygon fill="#191970" stroke="#191970" points="954.8345,-69.6696 944.5395,-72.172 954.1481,-76.6358 954.8345,-69.6696"/>
</g>
<!-- Node20 -->
<g id="node21" class="node">
<title>Node20</title>
<g id="a_node21"><a xlink:href="_view_field_8_h.html" target="_top" xlink:title="amr&#45;wind/core/ViewField.H">
<polygon fill="#ffffff" stroke="#000000" points="1649.5,-56.5 1649.5,-75.5 1783.5,-75.5 1783.5,-56.5 1649.5,-56.5"/>
<text text-anchor="middle" x="1716.5" y="-63.5" font-family="Helvetica,sans-Serif" font-size="10.00" fill="#000000">amr&#45;wind/core/ViewField.H</text>
</a>
</g>
</g>
<!-- Node14&#45;&gt;Node20 -->
<g id="edge25" class="edge">
<title>Node14&#45;&gt;Node20</title>
<path fill="none" stroke="#191970" d="M1464.7355,-117.9581C1517.4795,-107.073 1603.7199,-89.2751 1660.2992,-77.5985"/>
<polygon fill="#191970" stroke="#191970" points="1661.0698,-81.0133 1670.156,-75.5643 1659.6549,-74.1578 1661.0698,-81.0133"/>
</g>
<!-- Node20&#45;&gt;Node8 -->
<g id="edge26" class="edge">
<title>Node20&#45;&gt;Node8</title>
<path fill="none" stroke="#191970" d="M1649.3423,-57.4748C1644.6604,-56.9525 1640.0113,-56.455 1635.5,-56 1422.9021,-34.5574 1166.1243,-17.4627 1079.0583,-11.9117"/>
<polygon fill="#191970" stroke="#191970" points="1079.2667,-8.418 1069.0652,-11.2779 1078.8236,-15.404 1079.2667,-8.418"/>
</g>
<!-- Node20&#45;&gt;Node10 -->
<g id="edge27" class="edge">
<title>Node20&#45;&gt;Node10</title>
<path fill="none" stroke="#191970" d="M1737.3006,-56.3733C1756.7243,-47.3838 1785.9224,-33.8706 1807.7964,-23.7471"/>
<polygon fill="#191970" stroke="#191970" points="1809.3656,-26.8776 1816.9708,-19.5011 1806.4255,-20.5249 1809.3656,-26.8776"/>
</g>
<!-- Node20&#45;&gt;Node12 -->
<g id="edge28" class="edge">
<title>Node20&#45;&gt;Node12</title>
<path fill="none" stroke="#191970" d="M1767.9017,-56.4369C1820.0649,-46.7321 1900.8197,-31.708 1956.2646,-21.3926"/>
<polygon fill="#191970" stroke="#191970" points="1957.1192,-24.7938 1966.3103,-19.5237 1955.8388,-17.9119 1957.1192,-24.7938"/>
</g>
<!-- Node21 -->
<g id="node22" class="node">
<title>Node21</title>
<polygon fill="#ffffff" stroke="#bfbfbf" points="1643,-.5 1643,-19.5 1738,-19.5 1738,-.5 1643,-.5"/>
<text text-anchor="middle" x="1690.5" y="-7.5" font-family="Helvetica,sans-Serif" font-size="10.00" fill="#000000">AMReX_Vector.H</text>
</g>
<!-- Node20&#45;&gt;Node21 -->
<g id="edge29" class="edge">
<title>Node20&#45;&gt;Node21</title>
<path fill="none" stroke="#191970" d="M1711.9711,-56.2455C1708.4666,-48.6973 1703.5073,-38.0158 1699.2377,-28.8197"/>
<polygon fill="#191970" stroke="#191970" points="1702.3627,-27.2389 1694.977,-19.6427 1696.0136,-30.1867 1702.3627,-27.2389"/>
</g>
<!-- Node22&#45;&gt;Node8 -->
<g id="edge31" class="edge">
<title>Node22&#45;&gt;Node8</title>
<path fill="none" stroke="#191970" d="M1592.7034,-117.9652C1590.8274,-102.1849 1584.6339,-70.9029 1564.5,-56 1525.445,-27.0918 1184.6309,-14.2102 1079.3474,-10.8972"/>
<polygon fill="#191970" stroke="#191970" points="1079.1814,-7.3905 1069.0784,-10.5811 1078.966,-14.3872 1079.1814,-7.3905"/>
</g>
<!-- Node22&#45;&gt;Node10 -->
<g id="edge32" class="edge">
<title>Node22&#45;&gt;Node10</title>
<path fill="none" stroke="#191970" d="M1647.5641,-117.9499C1698.1466,-108.2325 1769.2915,-92.3181 1792.5,-76 1809.276,-64.2047 1821.686,-44.0143 1829.1764,-29.0632"/>
<polygon fill="#191970" stroke="#191970" points="1832.4831,-30.256 1833.5693,-19.717 1826.1479,-27.2784 1832.4831,-30.256"/>
</g>
<!-- Node22&#45;&gt;Node23 -->
<g id="edge33" class="edge">
<title>Node22&#45;&gt;Node23</title>
<path fill="none" stroke="#191970" d="M1579.125,-117.8906C1564.4069,-108.0519 1541.3168,-92.6167 1524.1411,-81.1351"/>
<polygon fill="#191970" stroke="#191970" points="1526.0327,-78.1896 1515.7741,-75.5419 1522.1425,-84.0091 1526.0327,-78.1896"/>
</g>
<!-- Node24&#45;&gt;Node8 -->
<g id="edge35" class="edge">
<title>Node24&#45;&gt;Node8</title>
<path fill="none" stroke="#191970" d="M1804.6831,-117.9187C1762.1039,-108.4724 1696.4546,-93.014 1640.5,-76 1615.6145,-68.4331 1610.8998,-61.6029 1585.5,-56 1487.7397,-34.4352 1178.2303,-16.7825 1079.2546,-11.5683"/>
<polygon fill="#191970" stroke="#191970" points="1079.2023,-8.0609 1069.0335,-11.0347 1078.8374,-15.0513 1079.2023,-8.0609"/>
</g>
<!-- Node24&#45;&gt;Node10 -->
<g id="edge36" class="edge">
<title>Node24&#45;&gt;Node10</title>
<path fill="none" stroke="#191970" d="M1854.2023,-117.6961C1860.2219,-103.8361 1869.2278,-77.7743 1863.5,-56 1860.8888,-46.0734 1855.5933,-36.0366 1850.4588,-27.8822"/>
<polygon fill="#191970" stroke="#191970" points="1853.364,-25.9303 1844.8819,-19.5817 1847.5537,-29.8342 1853.364,-25.9303"/>
</g>
<!-- Node24&#45;&gt;Node12 -->
<g id="edge38" class="edge">
<title>Node24&#45;&gt;Node12</title>
<path fill="none" stroke="#191970" d="M1922.5699,-118.4595C1973.9878,-110.422 2036.3972,-96.6981 2052.5,-76 2064.4609,-60.6257 2050.3413,-40.5747 2036.6257,-26.6259"/>
<polygon fill="#191970" stroke="#191970" points="2038.8721,-23.9321 2029.2157,-19.5728 2034.046,-29.0025 2038.8721,-23.9321"/>
</g>
<!-- Node24&#45;&gt;Node20 -->
<g id="edge37" class="edge">
<title>Node24&#45;&gt;Node20</title>
<path fill="none" stroke="#191970" d="M1828.7188,-117.8906C1806.6606,-107.6908 1771.595,-91.4763 1746.5331,-79.8875"/>
<polygon fill="#191970" stroke="#191970" points="1747.6809,-76.5622 1737.1353,-75.5419 1744.7429,-82.9158 1747.6809,-76.5622"/>
</g>
<!-- Node24&#45;&gt;Node21 -->
<g id="edge39" class="edge">
<title>Node24&#45;&gt;Node21</title>
<path fill="none" stroke="#191970" d="M1843.9827,-117.9679C1834.9191,-103.0202 1815.5628,-73.9256 1792.5,-56 1774.1786,-41.7596 1750.7469,-30.7933 1730.9631,-23.146"/>
<polygon fill="#191970" stroke="#191970" points="1732.1754,-19.8627 1721.5825,-19.6588 1729.7362,-26.424 1732.1754,-19.8627"/>
</g>
<!-- Node25 -->
<g id="node26" class="node">
<title>Node25</title>
<polygon fill="#ffffff" stroke="#bfbfbf" points="1915.5,-56.5 1915.5,-75.5 2043.5,-75.5 2043.5,-56.5 1915.5,-56.5"/>
<text text-anchor="middle" x="1979.5" y="-63.5" font-family="Helvetica,sans-Serif" font-size="10.00" fill="#000000">AMReX_PhysBCFunct.H</text>
</g>
<!-- Node24&#45;&gt;Node25 -->
<g id="edge40" class="edge">
<title>Node24&#45;&gt;Node25</title>
<path fill="none" stroke="#191970" d="M1869.8125,-117.8906C1891.3731,-107.6908 1925.6478,-91.4763 1950.1444,-79.8875"/>
<polygon fill="#191970" stroke="#191970" points="1951.7874,-82.9822 1959.3301,-75.5419 1948.7939,-76.6545 1951.7874,-82.9822"/>
</g>
<!-- Node26&#45;&gt;Node8 -->
<g id="edge45" class="edge">
<title>Node26&#45;&gt;Node8</title>
<path fill="none" stroke="#191970" d="M422.1483,-179.3589C407.0152,-171.0205 391.013,-159.0521 382.5,-143 364.3837,-108.8399 356.1173,-84.2678 382.5,-56 404.4476,-32.4842 889.2963,-15.1573 1017.5887,-10.9728"/>
<polygon fill="#191970" stroke="#191970" points="1017.9954,-14.4616 1027.8772,-10.6406 1017.7695,-7.4652 1017.9954,-14.4616"/>
</g>
<!-- Node26&#45;&gt;Node10 -->
<g id="edge59" class="edge">
<title>Node26&#45;&gt;Node10</title>
<path fill="none" stroke="#191970" d="M479.079,-179.3843C492.5153,-169.3447 510.3172,-155.7186 525.5,-143 541.1759,-129.8684 541.5196,-121.7406 559.5,-112 646.7003,-64.7606 677.3718,-70.3639 775.5,-56 1199.8962,6.1228 1314.5947,-50.9845 1745.3722,-20.104"/>
<polygon fill="#191970" stroke="#191970" points="1745.8881,-23.5757 1755.6072,-19.358 1745.3792,-16.5943 1745.8881,-23.5757"/>
</g>
<!-- Node26&#45;&gt;Node19 -->
<g id="edge60" class="edge">
<title>Node26&#45;&gt;Node19</title>
<path fill="none" stroke="#191970" d="M491.0252,-179.4852C511.1647,-169.8068 537.3245,-156.5376 559.5,-143 579.6088,-130.7241 580.7482,-121.0509 602.5,-112 638.3921,-97.0653 736.8691,-82.9445 806.3872,-74.3834"/>
<polygon fill="#191970" stroke="#191970" points="806.9195,-77.8445 816.423,-73.1612 806.0732,-70.8959 806.9195,-77.8445"/>
</g>
<!-- Node27 -->
<g id="node28" class="node">
<title>Node27</title>
<g id="a_node28"><a xlink:href="_factory_8_h.html" target="_top" xlink:title="amr&#45;wind/core/Factory.H">
<polygon fill="#ffffff" stroke="#000000" points="172,-118 172,-137 297,-137 297,-118 172,-118"/>
<text text-anchor="middle" x="234.5" y="-125" font-family="Helvetica,sans-Serif" font-size="10.00" fill="#000000">amr&#45;wind/core/Factory.H</text>
</a>
</g>
</g>
<!-- Node26&#45;&gt;Node27 -->
<g id="edge46" class="edge">
<title>Node26&#45;&gt;Node27</title>
<path fill="none" stroke="#191970" d="M408.23,-179.4639C368.4962,-167.5792 313.6883,-151.1858 276.327,-140.0108"/>
<polygon fill="#191970" stroke="#191970" points="276.8625,-136.5178 266.2789,-137.0053 274.8565,-143.2242 276.8625,-136.5178"/>
</g>
<!-- Node31 -->
<g id="node32" class="node">
<title>Node31</title>
<g id="a_node32"><a xlink:href="_coll_mgr_8_h.html" target="_top" xlink:title="amr&#45;wind/core/CollMgr.H">
<polygon fill="#ffffff" stroke="#000000" points="392,-118 392,-137 517,-137 517,-118 392,-118"/>
<text text-anchor="middle" x="454.5" y="-125" font-family="Helvetica,sans-Serif" font-size="10.00" fill="#000000">amr&#45;wind/core/CollMgr.H</text>
</a>
</g>
</g>
<!-- Node26&#45;&gt;Node31 -->
<g id="edge52" class="edge">
<title>Node26&#45;&gt;Node31</title>
<path fill="none" stroke="#191970" d="M457.5923,-179.2967C457.0236,-169.7699 456.2848,-157.3954 455.672,-147.1306"/>
<polygon fill="#191970" stroke="#191970" points="459.1603,-146.8286 455.0704,-137.055 452.1727,-147.2458 459.1603,-146.8286"/>
</g>
<!-- Node32 -->
<g id="node33" class="node">
<title>Node32</title>
<g id="a_node33"><a xlink:href="_p_d_e_fields_8_h.html" target="_top" xlink:title="amr&#45;wind/equation_systems\l/PDEFields.H">
<polygon fill="#ffffff" stroke="#000000" points="0,-112.5 0,-142.5 139,-142.5 139,-112.5 0,-112.5"/>
<text text-anchor="start" x="8" y="-130.5" font-family="Helvetica,sans-Serif" font-size="10.00" fill="#000000">amr&#45;wind/equation_systems</text>
<text text-anchor="middle" x="69.5" y="-119.5" font-family="Helvetica,sans-Serif" font-size="10.00" fill="#000000">/PDEFields.H</text>
</a>
</g>
</g>
<!-- Node26&#45;&gt;Node32 -->
<g id="edge57" class="edge">
<title>Node26&#45;&gt;Node32</title>
<path fill="none" stroke="#191970" d="M388.7341,-180.6965C385.6148,-180.1157 382.5257,-179.5477 379.5,-179 283.3006,-161.5869 258.9385,-159.036 162.5,-143 158.1126,-142.2705 153.6088,-141.5212 149.0629,-140.7645"/>
<polygon fill="#191970" stroke="#191970" points="149.5113,-137.2911 139.0722,-139.1012 148.3616,-144.196 149.5113,-137.2911"/>
</g>
<!-- Node27&#45;&gt;Node9 -->
<g id="edge48" class="edge">
<title>Node27&#45;&gt;Node9</title>
<path fill="none" stroke="#191970" d="M288.0277,-117.9581C353.422,-106.3009 463.2928,-86.7152 527.8307,-75.2106"/>
<polygon fill="#191970" stroke="#191970" points="528.5551,-78.6367 537.7857,-73.436 527.3266,-71.7454 528.5551,-78.6367"/>
</g>
<!-- Node27&#45;&gt;Node15 -->
<g id="edge47" class="edge">
<title>Node27&#45;&gt;Node15</title>
<path fill="none" stroke="#191970" d="M263.0938,-117.8906C295.1164,-107.1289 347.0629,-89.6715 381.7448,-78.0161"/>
<polygon fill="#191970" stroke="#191970" points="383.1108,-81.2494 391.4749,-74.7461 380.8809,-74.6141 383.1108,-81.2494"/>
</g>
<!-- Node28 -->
<g id="node29" class="node">
<title>Node28</title>
<polygon fill="#ffffff" stroke="#bfbfbf" points="175.5,-56.5 175.5,-75.5 229.5,-75.5 229.5,-56.5 175.5,-56.5"/>
<text text-anchor="middle" x="202.5" y="-63.5" font-family="Helvetica,sans-Serif" font-size="10.00" fill="#000000">iostream</text>
</g>
<!-- Node27&#45;&gt;Node28 -->
<g id="edge49" class="edge">
<title>Node27&#45;&gt;Node28</title>
<path fill="none" stroke="#191970" d="M229.5,-117.8906C224.9242,-109.0965 218.0219,-95.8312 212.3417,-84.9145"/>
<polygon fill="#191970" stroke="#191970" points="215.2912,-83.0003 207.5705,-75.7449 209.0815,-86.2314 215.2912,-83.0003"/>
</g>
<!-- Node29 -->
<g id="node30" class="node">
<title>Node29</title>
<polygon fill="#ffffff" stroke="#bfbfbf" points="248,-56.5 248,-75.5 335,-75.5 335,-56.5 248,-56.5"/>
<text text-anchor="middle" x="291.5" y="-63.5" font-family="Helvetica,sans-Serif" font-size="10.00" fill="#000000">AMReX_Print.H</text>
</g>
<!-- Node27&#45;&gt;Node29 -->
<g id="edge50" class="edge">
<title>Node27&#45;&gt;Node29</title>
<path fill="none" stroke="#191970" d="M243.4063,-117.8906C251.9728,-108.6478 265.1169,-94.466 275.5003,-83.2628"/>
<polygon fill="#191970" stroke="#191970" points="278.2375,-85.4584 282.4682,-75.7449 273.1035,-80.7 278.2375,-85.4584"/>
</g>
<!-- Node30 -->
<g id="node31" class="node">
<title>Node30</title>
<polygon fill="#ffffff" stroke="#bfbfbf" points="95.5,-56.5 95.5,-75.5 157.5,-75.5 157.5,-56.5 95.5,-56.5"/>
<text text-anchor="middle" x="126.5" y="-63.5" font-family="Helvetica,sans-Serif" font-size="10.00" fill="#000000">AMReX.H</text>
</g>
<!-- Node27&#45;&gt;Node30 -->
<g id="edge51" class="edge">
<title>Node27&#45;&gt;Node30</title>
<path fill="none" stroke="#191970" d="M217.625,-117.8906C200.0302,-107.8713 172.2434,-92.0483 151.9759,-80.5071"/>
<polygon fill="#191970" stroke="#191970" points="153.6783,-77.4489 143.2565,-75.5419 150.2144,-83.5318 153.6783,-77.4489"/>
</g>
<!-- Node31&#45;&gt;Node8 -->
<g id="edge53" class="edge">
<title>Node31&#45;&gt;Node8</title>
<path fill="none" stroke="#191970" d="M456.9095,-117.8474C461.4525,-101.8934 472.9228,-70.3622 495.5,-56 539.7004,-27.8825 907.9935,-14.3377 1017.7495,-10.9002"/>
<polygon fill="#191970" stroke="#191970" points="1017.9448,-14.3959 1027.8325,-10.5902 1017.7296,-7.3992 1017.9448,-14.3959"/>
</g>
<!-- Node31&#45;&gt;Node9 -->
<g id="edge55" class="edge">
<title>Node31&#45;&gt;Node9</title>
<path fill="none" stroke="#191970" d="M474.0313,-117.8906C494.6708,-107.7359 527.4276,-91.6196 550.9602,-80.0416"/>
<polygon fill="#191970" stroke="#191970" points="552.6782,-83.0971 560.1059,-75.5419 549.588,-76.8161 552.6782,-83.0971"/>
</g>
<!-- Node31&#45;&gt;Node15 -->
<g id="edge54" class="edge">
<title>Node31&#45;&gt;Node15</title>
<path fill="none" stroke="#191970" d="M448.7188,-117.8906C443.374,-109.0068 435.2841,-95.5601 428.6789,-84.5811"/>
<polygon fill="#191970" stroke="#191970" points="431.5171,-82.5093 423.3628,-75.7449 425.5189,-86.118 431.5171,-82.5093"/>
</g>
<!-- Node31&#45;&gt;Node21 -->
<g id="edge56" class="edge">
<title>Node31&#45;&gt;Node21</title>
<path fill="none" stroke="#191970" d="M460.8528,-117.8395C472.1848,-101.5724 497.6172,-69.199 528.5,-56 579.6664,-34.1321 1404.6605,-15.8102 1632.5713,-11.1476"/>
<polygon fill="#191970" stroke="#191970" points="1632.7251,-14.6453 1642.6517,-10.9424 1632.5825,-7.6468 1632.7251,-14.6453"/>
</g>
<!-- Node33 -->
<g id="node34" class="node">
<title>Node33</title>
<polygon fill="#ffffff" stroke="#bfbfbf" points="32,-56.5 32,-75.5 77,-75.5 77,-56.5 32,-56.5"/>
<text text-anchor="middle" x="54.5" y="-63.5" font-family="Helvetica,sans-Serif" font-size="10.00" fill="#000000">iosfwd</text>
</g>
<!-- Node32&#45;&gt;Node33 -->
<g id="edge58" class="edge">
<title>Node32&#45;&gt;Node33</title>
<path fill="none" stroke="#191970" d="M65.7921,-112.2977C63.8401,-104.2945 61.423,-94.3843 59.3266,-85.7889"/>
<polygon fill="#191970" stroke="#191970" points="62.6716,-84.7328 56.9017,-75.8469 55.871,-86.3915 62.6716,-84.7328"/>
</g>
<!-- Node34&#45;&gt;Node12 -->
<g id="edge64" class="edge">
<title>Node34&#45;&gt;Node12</title>
<path fill="none" stroke="#191970" d="M679.7851,-184.8507C693.118,-174.9316 713.9907,-158.7525 730.5,-143 767.8583,-107.3541 760.7647,-77.9564 807.5,-56 920.2923,-3.0097 1804.2031,-28.9645 1928.5,-20 1937.1762,-19.3743 1946.3107,-18.5444 1955.2889,-17.6296"/>
<polygon fill="#191970" stroke="#191970" points="1955.7505,-21.1004 1965.3264,-16.567 1955.0135,-14.1393 1955.7505,-21.1004"/>
</g>
<!-- Node34&#45;&gt;Node27 -->
<g id="edge62" class="edge">
<title>Node34&#45;&gt;Node27</title>
<path fill="none" stroke="#191970" d="M605.0637,-184.9717C526.1584,-172.7341 389.4651,-151.5339 305.9832,-138.5865"/>
<polygon fill="#191970" stroke="#191970" points="306.492,-135.1237 296.0737,-137.0496 305.4191,-142.041 306.492,-135.1237"/>
</g>
<!-- Node34&#45;&gt;Node31 -->
<g id="edge63" class="edge">
<title>Node34&#45;&gt;Node31</title>
<path fill="none" stroke="#191970" d="M636.1256,-184.9005C598.8942,-173.134 535.6901,-153.1591 494.5243,-140.1492"/>
<polygon fill="#191970" stroke="#191970" points="495.408,-136.7579 484.8181,-137.0817 493.2985,-143.4325 495.408,-136.7579"/>
</g>
<!-- Node35 -->
<g id="node36" class="node">
<title>Node35</title>
<polygon fill="#ffffff" stroke="#bfbfbf" points="611.5,-118 611.5,-137 721.5,-137 721.5,-118 611.5,-118"/>
<text text-anchor="middle" x="666.5" y="-125" font-family="Helvetica,sans-Serif" font-size="10.00" fill="#000000">AMReX_Geometry.H</text>
</g>
<!-- Node34&#45;&gt;Node35 -->
<g id="edge65" class="edge">
<title>Node34&#45;&gt;Node35</title>
<path fill="none" stroke="#191970" d="M666.5,-184.9005C666.5,-175.149 666.5,-159.7597 666.5,-147.3695"/>
<polygon fill="#191970" stroke="#191970" points="670.0001,-147.0816 666.5,-137.0817 663.0001,-147.0817 670.0001,-147.0816"/>
</g>
<!-- Node36&#45;&gt;Node15 -->
<g id="edge67" class="edge">
<title>Node36&#45;&gt;Node15</title>
<path fill="none" stroke="#191970" d="M332.6804,-179.2481C344.8666,-162.655 364.9709,-135.3697 382.5,-112 389.4716,-102.7055 397.2963,-92.409 403.7764,-83.918"/>
<polygon fill="#191970" stroke="#191970" points="406.6583,-85.9112 409.9505,-75.8408 401.0969,-81.6601 406.6583,-85.9112"/>
</g>
<!-- Node36&#45;&gt;Node27 -->
<g id="edge68" class="edge">
<title>Node36&#45;&gt;Node27</title>
<path fill="none" stroke="#191970" d="M301.7584,-179.2967C287.8085,-168.5537 269.1565,-154.1895 255.0332,-143.3129"/>
<polygon fill="#191970" stroke="#191970" points="256.9656,-140.3835 246.9072,-137.055 252.6945,-145.9295 256.9656,-140.3835"/>
</g>
</g>
</svg>
        <g id="navigator" transform="translate(0 0)" fill="#404254">
                <rect fill="#f2f5e9" fill-opacity="0.5" stroke="#606060" stroke-width=".5" x="0" y="0" width="60" height="60"/>
                <use id="zoomplus" xlink:href="#zoomPlus" x="17" y="9" onmousedown="handleZoom(evt,'in')"/>
                <use id="zoomminus" xlink:href="#zoomMin" x="42" y="9" onmousedown="handleZoom(evt,'out')"/>
                <use id="reset" xlink:href="#resetDef" x="30" y="36" onmousedown="handleReset()"/>
                <g id="arrowUp" xlink:href="#dirArrow" transform="translate(30 24)" onmousedown="handlePan(0,-1)">
                  <use xlink:href="#rim" fill="#404040">
                        <set attributeName="fill" to="#808080" begin="arrowUp.mouseover" end="arrowUp.mouseout"/>
                  </use>
                  <path fill="none" stroke="white" stroke-width="1.5" d="M0,-3.0v7 M-2.5,-0.5L0,-3.0L2.5,-0.5"/>
                </g>
                <g id="arrowRight" xlink:href="#dirArrow" transform="rotate(90) translate(36 -43)" onmousedown="handlePan(1,0)">
                  <use xlink:href="#rim" fill="#404040">
                        <set attributeName="fill" to="#808080" begin="arrowRight.mouseover" end="arrowRight.mouseout"/>
                  </use>
                  <path fill="none" stroke="white" stroke-width="1.5" d="M0,-3.0v7 M-2.5,-0.5L0,-3.0L2.5,-0.5"/>
                </g>
                <g id="arrowDown" xlink:href="#dirArrow" transform="rotate(180) translate(-30 -48)" onmousedown="handlePan(0,1)">
                  <use xlink:href="#rim" fill="#404040">
                        <set attributeName="fill" to="#808080" begin="arrowDown.mouseover" end="arrowDown.mouseout"/>
                  </use>
                  <path fill="none" stroke="white" stroke-width="1.5" d="M0,-3.0v7 M-2.5,-0.5L0,-3.0L2.5,-0.5"/>
                </g>
                <g id="arrowLeft" xlink:href="#dirArrow" transform="rotate(270) translate(-36 17)" onmousedown="handlePan(-1,0)">
                  <use xlink:href="#rim" fill="#404040">
                        <set attributeName="fill" to="#808080" begin="arrowLeft.mouseover" end="arrowLeft.mouseout"/>
                  </use>
                  <path fill="none" stroke="white" stroke-width="1.5" d="M0,-3.0v7 M-2.5,-0.5L0,-3.0L2.5,-0.5"/>
                </g>
        </g>
        <svg viewBox="0 0 15 15" width="100%" height="30px" preserveAspectRatio="xMaxYMin meet">
         <g id="arrow_out" transform="scale(0.3 0.3)">
          <a xlink:href="_field_norms_8_h__incl_org.svg" target="_base">
           <rect id="button" ry="5" rx="5" y="6" x="6" height="38" width="38"
                fill="#f2f5e9" fill-opacity="0.5" stroke="#606060" stroke-width="1.0"/>
           <path id="arrow"
             d="M 11.500037,31.436501 C 11.940474,20.09759 22.043105,11.32322 32.158766,21.979434 L 37.068811,17.246167 C 37.068811,17.246167 37.088388,32 37.088388,32 L 22.160133,31.978069 C 22.160133,31.978069 26.997745,27.140456 26.997745,27.140456 C 18.528582,18.264221 13.291696,25.230495 11.500037,31.436501 z"
             style="fill:#404040;"/>
          </a>
         </g>
        </svg>
</svg>
