<?xml version="1.0" encoding="UTF-8" standalone="no"?>
<!DOCTYPE svg PUBLIC "-//W3C//DTD SVG 1.1//EN"
 "http://www.w3.org/Graphics/SVG/1.1/DTD/svg11.dtd">
<!-- Generated by graphviz version 2.40.1 (20161225.0304)
 -->
<!-- Title: FixedGradientBC.H Pages: 1 -->
<svg width="1909pt" height="252pt"
 viewBox="0.00 0.00 1908.81 252.00" xmlns="http://www.w3.org/2000/svg" xmlns:xlink="http://www.w3.org/1999/xlink">
<g id="graph0" class="graph" transform="scale(1 1) rotate(0) translate(4 248)">
<title>FixedGradientBC.H</title>
<polygon fill="#ffffff" stroke="transparent" points="-4,4 -4,-248 1904.8072,-248 1904.8072,4 -4,4"/>
<!-- Node0 -->
<g id="node1" class="node">
<title>Node0</title>
<polygon fill="#bfbfbf" stroke="#000000" points="1508.8072,-224.5 1508.8072,-243.5 1610.8072,-243.5 1610.8072,-224.5 1508.8072,-224.5"/>
<text text-anchor="middle" x="1559.8072" y="-231.5" font-family="Helvetica,sans-Serif" font-size="10.00" fill="#000000">FixedGradientBC.H</text>
</g>
<!-- Node1 -->
<g id="node2" class="node">
<title>Node1</title>
<g id="a_node2"><a xlink:href="_field_b_c_ops_8_h.html" target="_top" xlink:title="amr&#45;wind/core/FieldBCOps.H">
<polygon fill="#ffffff" stroke="#000000" points="1487.3072,-168.5 1487.3072,-187.5 1632.3072,-187.5 1632.3072,-168.5 1487.3072,-168.5"/>
<text text-anchor="middle" x="1559.8072" y="-175.5" font-family="Helvetica,sans-Serif" font-size="10.00" fill="#000000">amr&#45;wind/core/FieldBCOps.H</text>
</a>
</g>
</g>
<!-- Node0&#45;&gt;Node1 -->
<g id="edge1" class="edge">
<title>Node0&#45;&gt;Node1</title>
<path fill="none" stroke="#191970" d="M1559.8072,-224.2455C1559.8072,-216.9382 1559.8072,-206.6944 1559.8072,-197.7046"/>
<polygon fill="#191970" stroke="#191970" points="1563.3073,-197.6426 1559.8072,-187.6427 1556.3073,-197.6427 1563.3073,-197.6426"/>
</g>
<!-- Node17 -->
<g id="node18" class="node">
<title>Node17</title>
<g id="a_node18"><a xlink:href="_field_repo_8_h.html" target="_top" xlink:title="amr&#45;wind/core/FieldRepo.H">
<polygon fill="#ffffff" stroke="#000000" points="568.8072,-168.5 568.8072,-187.5 704.8072,-187.5 704.8072,-168.5 568.8072,-168.5"/>
<text text-anchor="middle" x="636.8072" y="-175.5" font-family="Helvetica,sans-Serif" font-size="10.00" fill="#000000">amr&#45;wind/core/FieldRepo.H</text>
</a>
</g>
</g>
<!-- Node0&#45;&gt;Node17 -->
<g id="edge22" class="edge">
<title>Node0&#45;&gt;Node17</title>
<path fill="none" stroke="#191970" d="M1508.537,-230.8893C1355.187,-221.5853 899.3173,-193.9269 715.2208,-182.7575"/>
<polygon fill="#191970" stroke="#191970" points="715.2685,-179.254 705.0748,-182.1419 714.8445,-186.2412 715.2685,-179.254"/>
</g>
<!-- Node24 -->
<g id="node25" class="node">
<title>Node24</title>
<polygon fill="#ffffff" stroke="#bfbfbf" points="1650.8072,-168.5 1650.8072,-187.5 1764.8072,-187.5 1764.8072,-168.5 1650.8072,-168.5"/>
<text text-anchor="middle" x="1707.8072" y="-175.5" font-family="Helvetica,sans-Serif" font-size="10.00" fill="#000000">AMReX_Orientation.H</text>
</g>
<!-- Node0&#45;&gt;Node24 -->
<g id="edge45" class="edge">
<title>Node0&#45;&gt;Node24</title>
<path fill="none" stroke="#191970" d="M1585.2493,-224.3733C1609.5399,-215.1822 1646.3281,-201.2624 1673.2615,-191.0713"/>
<polygon fill="#191970" stroke="#191970" points="1674.5829,-194.3136 1682.6971,-187.5011 1672.1056,-187.7666 1674.5829,-194.3136"/>
</g>
<!-- Node2 -->
<g id="node3" class="node">
<title>Node2</title>
<g id="a_node3"><a xlink:href="_field_desc_types_8_h.html" target="_top" xlink:title="amr&#45;wind/core/FieldDescTypes.H">
<polygon fill="#ffffff" stroke="#000000" points="688.3072,-.5 688.3072,-19.5 851.3072,-19.5 851.3072,-.5 688.3072,-.5"/>
<text text-anchor="middle" x="769.8072" y="-7.5" font-family="Helvetica,sans-Serif" font-size="10.00" fill="#000000">amr&#45;wind/core/FieldDescTypes.H</text>
</a>
</g>
</g>
<!-- Node1&#45;&gt;Node2 -->
<g id="edge2" class="edge">
<title>Node1&#45;&gt;Node2</title>
<path fill="none" stroke="#191970" d="M1570.3888,-168.1734C1593.4423,-145.6306 1643.6711,-89.5621 1611.8072,-56 1585.2634,-28.0415 957.291,-22.2908 918.8072,-20 900.2699,-18.8965 880.4414,-17.6277 861.4956,-16.3724"/>
<polygon fill="#191970" stroke="#191970" points="861.5893,-12.871 851.3786,-15.698 861.1237,-19.8555 861.5893,-12.871"/>
</g>
<!-- Node3 -->
<g id="node4" class="node">
<title>Node3</title>
<g id="a_node4"><a xlink:href="_field_8_h.html" target="_top" xlink:title="amr&#45;wind/core/Field.H">
<polygon fill="#ffffff" stroke="#000000" points="1076.3072,-112.5 1076.3072,-131.5 1189.3072,-131.5 1189.3072,-112.5 1076.3072,-112.5"/>
<text text-anchor="middle" x="1132.8072" y="-119.5" font-family="Helvetica,sans-Serif" font-size="10.00" fill="#000000">amr&#45;wind/core/Field.H</text>
</a>
</g>
</g>
<!-- Node1&#45;&gt;Node3 -->
<g id="edge3" class="edge">
<title>Node1&#45;&gt;Node3</title>
<path fill="none" stroke="#191970" d="M1486.8885,-168.4369C1406.3043,-157.8685 1277.6197,-140.9918 1199.5842,-130.7576"/>
<polygon fill="#191970" stroke="#191970" points="1199.7588,-127.2506 1189.3885,-129.4205 1198.8485,-134.1912 1199.7588,-127.2506"/>
</g>
<!-- Node10 -->
<g id="node11" class="node">
<title>Node10</title>
<polygon fill="#ffffff" stroke="#bfbfbf" points="1517.3072,-56.5 1517.3072,-75.5 1602.3072,-75.5 1602.3072,-56.5 1517.3072,-56.5"/>
<text text-anchor="middle" x="1559.8072" y="-63.5" font-family="Helvetica,sans-Serif" font-size="10.00" fill="#000000">AMReX_Gpu.H</text>
</g>
<!-- Node1&#45;&gt;Node10 -->
<g id="edge18" class="edge">
<title>Node1&#45;&gt;Node10</title>
<path fill="none" stroke="#191970" d="M1559.8072,-168.4509C1559.8072,-150.184 1559.8072,-109.9553 1559.8072,-85.6976"/>
<polygon fill="#191970" stroke="#191970" points="1563.3073,-85.5249 1559.8072,-75.5249 1556.3073,-85.5249 1563.3073,-85.5249"/>
</g>
<!-- Node14 -->
<g id="node15" class="node">
<title>Node14</title>
<polygon fill="#ffffff" stroke="#bfbfbf" points="1659.3072,-112.5 1659.3072,-131.5 1772.3072,-131.5 1772.3072,-112.5 1659.3072,-112.5"/>
<text text-anchor="middle" x="1715.8072" y="-119.5" font-family="Helvetica,sans-Serif" font-size="10.00" fill="#000000">AMReX_FArrayBox.H</text>
</g>
<!-- Node1&#45;&gt;Node14 -->
<g id="edge19" class="edge">
<title>Node1&#45;&gt;Node14</title>
<path fill="none" stroke="#191970" d="M1586.6246,-168.3733C1612.3404,-159.1419 1651.3453,-145.1402 1679.7671,-134.9375"/>
<polygon fill="#191970" stroke="#191970" points="1681.1104,-138.174 1689.3398,-131.5011 1678.7453,-131.5857 1681.1104,-138.174"/>
</g>
<!-- Node15 -->
<g id="node16" class="node">
<title>Node15</title>
<polygon fill="#ffffff" stroke="#bfbfbf" points="1790.8072,-112.5 1790.8072,-131.5 1900.8072,-131.5 1900.8072,-112.5 1790.8072,-112.5"/>
<text text-anchor="middle" x="1845.8072" y="-119.5" font-family="Helvetica,sans-Serif" font-size="10.00" fill="#000000">AMReX_Geometry.H</text>
</g>
<!-- Node1&#45;&gt;Node15 -->
<g id="edge20" class="edge">
<title>Node1&#45;&gt;Node15</title>
<path fill="none" stroke="#191970" d="M1608.6474,-168.4369C1658.1083,-158.7522 1734.6233,-143.7703 1787.2952,-133.4569"/>
<polygon fill="#191970" stroke="#191970" points="1788.0274,-136.8801 1797.1685,-131.5237 1786.6823,-130.0105 1788.0274,-136.8801"/>
</g>
<!-- Node16 -->
<g id="node17" class="node">
<title>Node16</title>
<polygon fill="#ffffff" stroke="#bfbfbf" points="290.8072,-56.5 290.8072,-75.5 418.8072,-75.5 418.8072,-56.5 290.8072,-56.5"/>
<text text-anchor="middle" x="354.8072" y="-63.5" font-family="Helvetica,sans-Serif" font-size="10.00" fill="#000000">AMReX_PhysBCFunct.H</text>
</g>
<!-- Node1&#45;&gt;Node16 -->
<g id="edge21" class="edge">
<title>Node1&#45;&gt;Node16</title>
<path fill="none" stroke="#191970" d="M1487.2338,-172.8599C1308.479,-159.9029 832.507,-123.6008 429.1794,-76.612"/>
<polygon fill="#191970" stroke="#191970" points="429.4058,-73.1147 419.067,-75.4299 428.593,-80.0674 429.4058,-73.1147"/>
</g>
<!-- Node3&#45;&gt;Node2 -->
<g id="edge12" class="edge">
<title>Node3&#45;&gt;Node2</title>
<path fill="none" stroke="#191970" d="M1189.4658,-118.2826C1280.6622,-111.7165 1451.6793,-96.7705 1469.8072,-76 1475.6522,-69.303 1475.8843,-62.4871 1469.8072,-56 1427.8623,-11.2252 980.0259,-24.0542 918.8072,-20 900.2776,-18.7729 880.4526,-17.4496 861.5077,-16.18"/>
<polygon fill="#191970" stroke="#191970" points="861.6028,-12.6786 851.391,-15.5016 861.1344,-19.663 861.6028,-12.6786"/>
</g>
<!-- Node4 -->
<g id="node5" class="node">
<title>Node4</title>
<polygon fill="#ffffff" stroke="#bfbfbf" points="166.3072,-.5 166.3072,-19.5 207.3072,-19.5 207.3072,-.5 166.3072,-.5"/>
<text text-anchor="middle" x="186.8072" y="-7.5" font-family="Helvetica,sans-Serif" font-size="10.00" fill="#000000">string</text>
</g>
<!-- Node3&#45;&gt;Node4 -->
<g id="edge4" class="edge">
<title>Node3&#45;&gt;Node4</title>
<path fill="none" stroke="#191970" d="M1076.2945,-119.4434C925.9646,-112.4534 523.7306,-92.4473 465.8072,-76 447.4478,-70.7868 445.8219,-62.3024 427.8072,-56 354.6981,-30.4228 263.8577,-17.9724 217.36,-12.9052"/>
<polygon fill="#191970" stroke="#191970" points="217.6415,-9.4156 207.3308,-11.8528 216.9108,-16.3774 217.6415,-9.4156"/>
</g>
<!-- Node5 -->
<g id="node6" class="node">
<title>Node5</title>
<polygon fill="#ffffff" stroke="#bfbfbf" points="1070.8072,-56.5 1070.8072,-75.5 1122.8072,-75.5 1122.8072,-56.5 1070.8072,-56.5"/>
<text text-anchor="middle" x="1096.8072" y="-63.5" font-family="Helvetica,sans-Serif" font-size="10.00" fill="#000000">memory</text>
</g>
<!-- Node3&#45;&gt;Node5 -->
<g id="edge5" class="edge">
<title>Node3&#45;&gt;Node5</title>
<path fill="none" stroke="#191970" d="M1126.5365,-112.2455C1121.5808,-104.5367 1114.5243,-93.5598 1108.5296,-84.2348"/>
<polygon fill="#191970" stroke="#191970" points="1111.3578,-82.1618 1103.0061,-75.6427 1105.4696,-85.9471 1111.3578,-82.1618"/>
</g>
<!-- Node6 -->
<g id="node7" class="node">
<title>Node6</title>
<polygon fill="#ffffff" stroke="#bfbfbf" points="779.3072,-56.5 779.3072,-75.5 862.3072,-75.5 862.3072,-56.5 779.3072,-56.5"/>
<text text-anchor="middle" x="820.8072" y="-63.5" font-family="Helvetica,sans-Serif" font-size="10.00" fill="#000000">unordered_map</text>
</g>
<!-- Node3&#45;&gt;Node6 -->
<g id="edge6" class="edge">
<title>Node3&#45;&gt;Node6</title>
<path fill="none" stroke="#191970" d="M1079.527,-112.4369C1021.5691,-102.0342 929.5587,-85.5195 872.309,-75.2439"/>
<polygon fill="#191970" stroke="#191970" points="872.8488,-71.7849 862.3877,-73.4632 871.6121,-78.6748 872.8488,-71.7849"/>
</g>
<!-- Node7 -->
<g id="node8" class="node">
<title>Node7</title>
<polygon fill="#ffffff" stroke="#bfbfbf" points="1140.8072,-56.5 1140.8072,-75.5 1196.8072,-75.5 1196.8072,-56.5 1140.8072,-56.5"/>
<text text-anchor="middle" x="1168.8072" y="-63.5" font-family="Helvetica,sans-Serif" font-size="10.00" fill="#000000">algorithm</text>
</g>
<!-- Node3&#45;&gt;Node7 -->
<g id="edge7" class="edge">
<title>Node3&#45;&gt;Node7</title>
<path fill="none" stroke="#191970" d="M1139.078,-112.2455C1144.0336,-104.5367 1151.0902,-93.5598 1157.0849,-84.2348"/>
<polygon fill="#191970" stroke="#191970" points="1160.1449,-85.9471 1162.6084,-75.6427 1154.2566,-82.1618 1160.1449,-85.9471"/>
</g>
<!-- Node8 -->
<g id="node9" class="node">
<title>Node8</title>
<polygon fill="#ffffff" stroke="#bfbfbf" points="565.8072,-.5 565.8072,-19.5 669.8072,-19.5 669.8072,-.5 565.8072,-.5"/>
<text text-anchor="middle" x="617.8072" y="-7.5" font-family="Helvetica,sans-Serif" font-size="10.00" fill="#000000">AMReX_MultiFab.H</text>
</g>
<!-- Node3&#45;&gt;Node8 -->
<g id="edge8" class="edge">
<title>Node3&#45;&gt;Node8</title>
<path fill="none" stroke="#191970" d="M1076.2264,-114.6534C1030.4551,-107.6898 964.8032,-95.3699 909.8072,-76 891.4339,-69.5288 889.2556,-62.2542 870.8072,-56 852.9752,-49.9547 748.7737,-31.9004 679.7812,-20.2901"/>
<polygon fill="#191970" stroke="#191970" points="680.3135,-16.8306 669.8719,-18.6261 679.1541,-23.7339 680.3135,-16.8306"/>
</g>
<!-- Node9 -->
<g id="node10" class="node">
<title>Node9</title>
<polygon fill="#ffffff" stroke="#bfbfbf" points="1215.3072,-56.5 1215.3072,-75.5 1314.3072,-75.5 1314.3072,-56.5 1215.3072,-56.5"/>
<text text-anchor="middle" x="1264.8072" y="-63.5" font-family="Helvetica,sans-Serif" font-size="10.00" fill="#000000">AMReX_BCRec.H</text>
</g>
<!-- Node3&#45;&gt;Node9 -->
<g id="edge9" class="edge">
<title>Node3&#45;&gt;Node9</title>
<path fill="none" stroke="#191970" d="M1155.4988,-112.3733C1176.8783,-103.3032 1209.1129,-89.6279 1233.0435,-79.4755"/>
<polygon fill="#191970" stroke="#191970" points="1234.5729,-82.6287 1242.4117,-75.5011 1231.839,-76.1846 1234.5729,-82.6287"/>
</g>
<!-- Node3&#45;&gt;Node10 -->
<g id="edge10" class="edge">
<title>Node3&#45;&gt;Node10</title>
<path fill="none" stroke="#191970" d="M1189.343,-115.8605C1262.022,-107.7639 1392.0587,-92.5886 1502.8072,-76 1504.2666,-75.7814 1505.7461,-75.555 1507.2387,-75.3223"/>
<polygon fill="#191970" stroke="#191970" points="1507.889,-78.7628 1517.2035,-73.7139 1506.7735,-71.8522 1507.889,-78.7628"/>
</g>
<!-- Node11 -->
<g id="node12" class="node">
<title>Node11</title>
<g id="a_node12"><a xlink:href="incflo__enums_8_h.html" target="_top" xlink:title="amr&#45;wind/incflo_enums.H">
<polygon fill="#ffffff" stroke="#000000" points="1332.8072,-56.5 1332.8072,-75.5 1460.8072,-75.5 1460.8072,-56.5 1332.8072,-56.5"/>
<text text-anchor="middle" x="1396.8072" y="-63.5" font-family="Helvetica,sans-Serif" font-size="10.00" fill="#000000">amr&#45;wind/incflo_enums.H</text>
</a>
</g>
</g>
<!-- Node3&#45;&gt;Node11 -->
<g id="edge11" class="edge">
<title>Node3&#45;&gt;Node11</title>
<path fill="none" stroke="#191970" d="M1177.8905,-112.4369C1223.2619,-102.8127 1293.2958,-87.957 1341.8839,-77.6504"/>
<polygon fill="#191970" stroke="#191970" points="1342.8539,-81.0226 1351.9099,-75.5237 1341.4013,-74.175 1342.8539,-81.0226"/>
</g>
<!-- Node12 -->
<g id="node13" class="node">
<title>Node12</title>
<g id="a_node13"><a xlink:href="_view_field_8_h.html" target="_top" xlink:title="amr&#45;wind/core/ViewField.H">
<polygon fill="#ffffff" stroke="#000000" points="474.8072,-56.5 474.8072,-75.5 608.8072,-75.5 608.8072,-56.5 474.8072,-56.5"/>
<text text-anchor="middle" x="541.8072" y="-63.5" font-family="Helvetica,sans-Serif" font-size="10.00" fill="#000000">amr&#45;wind/core/ViewField.H</text>
</a>
</g>
</g>
<!-- Node3&#45;&gt;Node12 -->
<g id="edge13" class="edge">
<title>Node3&#45;&gt;Node12</title>
<path fill="none" stroke="#191970" d="M1076.1397,-116.6305C969.7433,-106.5489 739.9655,-84.7764 619.3397,-73.3466"/>
<polygon fill="#191970" stroke="#191970" points="619.362,-69.8331 609.0764,-72.3741 618.7016,-76.8019 619.362,-69.8331"/>
</g>
<!-- Node12&#45;&gt;Node2 -->
<g id="edge15" class="edge">
<title>Node12&#45;&gt;Node2</title>
<path fill="none" stroke="#191970" d="M580.7428,-56.4369C619.5993,-46.8932 679.4002,-32.2052 721.3161,-21.9101"/>
<polygon fill="#191970" stroke="#191970" points="722.1558,-25.308 731.0323,-19.5237 720.4861,-18.51 722.1558,-25.308"/>
</g>
<!-- Node12&#45;&gt;Node4 -->
<g id="edge14" class="edge">
<title>Node12&#45;&gt;Node4</title>
<path fill="none" stroke="#191970" d="M481.1839,-56.4369C404.7483,-44.3794 276.2604,-24.1109 217.6392,-14.8636"/>
<polygon fill="#191970" stroke="#191970" points="217.958,-11.3707 207.5348,-13.2697 216.8672,-18.2852 217.958,-11.3707"/>
</g>
<!-- Node12&#45;&gt;Node8 -->
<g id="edge16" class="edge">
<title>Node12&#45;&gt;Node8</title>
<path fill="none" stroke="#191970" d="M555.0454,-56.2455C566.4882,-47.814 583.2369,-35.4729 596.5547,-25.6598"/>
<polygon fill="#191970" stroke="#191970" points="598.7464,-28.3924 604.7208,-19.6427 594.594,-22.757 598.7464,-28.3924"/>
</g>
<!-- Node13 -->
<g id="node14" class="node">
<title>Node13</title>
<polygon fill="#ffffff" stroke="#bfbfbf" points="348.3072,-.5 348.3072,-19.5 443.3072,-19.5 443.3072,-.5 348.3072,-.5"/>
<text text-anchor="middle" x="395.8072" y="-7.5" font-family="Helvetica,sans-Serif" font-size="10.00" fill="#000000">AMReX_Vector.H</text>
</g>
<!-- Node12&#45;&gt;Node13 -->
<g id="edge17" class="edge">
<title>Node12&#45;&gt;Node13</title>
<path fill="none" stroke="#191970" d="M516.7089,-56.3733C492.8518,-47.2226 456.7737,-33.3844 430.2363,-23.2057"/>
<polygon fill="#191970" stroke="#191970" points="431.1682,-19.8145 420.578,-19.5011 428.6613,-26.3503 431.1682,-19.8145"/>
</g>
<!-- Node17&#45;&gt;Node2 -->
<g id="edge25" class="edge">
<title>Node17&#45;&gt;Node2</title>
<path fill="none" stroke="#191970" d="M644.5563,-168.4865C659.1797,-150.5057 691.8022,-110.2614 718.8072,-76 731.4801,-59.9219 745.7096,-41.4736 755.9116,-28.1763"/>
<polygon fill="#191970" stroke="#191970" points="758.9596,-29.9528 762.2624,-19.8859 753.4027,-25.6959 758.9596,-29.9528"/>
</g>
<!-- Node17&#45;&gt;Node3 -->
<g id="edge30" class="edge">
<title>Node17&#45;&gt;Node3</title>
<path fill="none" stroke="#191970" d="M704.9933,-170.3016C800.1718,-159.5556 971.7607,-140.1827 1066.1259,-129.5285"/>
<polygon fill="#191970" stroke="#191970" points="1066.582,-132.9994 1076.1262,-128.3995 1065.7966,-126.0436 1066.582,-132.9994"/>
</g>
<!-- Node17&#45;&gt;Node4 -->
<g id="edge23" class="edge">
<title>Node17&#45;&gt;Node4</title>
<path fill="none" stroke="#191970" d="M568.4773,-176.2429C442.6346,-172.3451 179.2047,-160.9183 92.8072,-132 48.4895,-117.1663 26.4007,-116.9101 3.8072,-76 -.4901,-68.2189 -1.6586,-63.0098 3.8072,-56 22.3942,-32.1627 109.2804,-18.7885 156.3372,-13.1795"/>
<polygon fill="#191970" stroke="#191970" points="156.7475,-16.6555 166.2837,-12.0389 155.95,-9.701 156.7475,-16.6555"/>
</g>
<!-- Node17&#45;&gt;Node6 -->
<g id="edge24" class="edge">
<title>Node17&#45;&gt;Node6</title>
<path fill="none" stroke="#191970" d="M680.0746,-168.4943C706.2101,-161.3429 739.2862,-149.6891 764.8072,-132 783.0435,-119.3601 798.873,-99.3444 809.0053,-84.6664"/>
<polygon fill="#191970" stroke="#191970" points="812.1948,-86.1901 814.809,-75.9228 806.3627,-82.3188 812.1948,-86.1901"/>
</g>
<!-- Node17&#45;&gt;Node8 -->
<g id="edge43" class="edge">
<title>Node17&#45;&gt;Node8</title>
<path fill="none" stroke="#191970" d="M635.7313,-168.4862C632.7278,-141.9293 624.2045,-66.5651 620.0879,-30.1655"/>
<polygon fill="#191970" stroke="#191970" points="623.5204,-29.3712 618.9187,-19.8279 616.5648,-30.1579 623.5204,-29.3712"/>
</g>
<!-- Node18 -->
<g id="node19" class="node">
<title>Node18</title>
<g id="a_node19"><a xlink:href="_field_utils_8_h.html" target="_top" xlink:title="amr&#45;wind/core/FieldUtils.H">
<polygon fill="#ffffff" stroke="#000000" points="919.3072,-56.5 919.3072,-75.5 1052.3072,-75.5 1052.3072,-56.5 919.3072,-56.5"/>
<text text-anchor="middle" x="985.8072" y="-63.5" font-family="Helvetica,sans-Serif" font-size="10.00" fill="#000000">amr&#45;wind/core/FieldUtils.H</text>
</a>
</g>
</g>
<!-- Node17&#45;&gt;Node18 -->
<g id="edge26" class="edge">
<title>Node17&#45;&gt;Node18</title>
<path fill="none" stroke="#191970" d="M669.7334,-168.4393C700.7832,-159.3434 748.5793,-145.1352 789.8072,-132 845.3541,-114.3028 909.2843,-92.5048 948.6192,-78.9268"/>
<polygon fill="#191970" stroke="#191970" points="950.0033,-82.1516 958.3105,-75.5759 947.7158,-75.5359 950.0033,-82.1516"/>
</g>
<!-- Node20 -->
<g id="node21" class="node">
<title>Node20</title>
<g id="a_node21"><a xlink:href="_int_field_8_h.html" target="_top" xlink:title="amr&#45;wind/core/IntField.H">
<polygon fill="#ffffff" stroke="#000000" points="128.8072,-112.5 128.8072,-131.5 252.8072,-131.5 252.8072,-112.5 128.8072,-112.5"/>
<text text-anchor="middle" x="190.8072" y="-119.5" font-family="Helvetica,sans-Serif" font-size="10.00" fill="#000000">amr&#45;wind/core/IntField.H</text>
</a>
</g>
</g>
<!-- Node17&#45;&gt;Node20 -->
<g id="edge31" class="edge">
<title>Node17&#45;&gt;Node20</title>
<path fill="none" stroke="#191970" d="M568.5839,-169.4338C485.9271,-159.0554 347.2892,-141.648 262.9206,-131.0546"/>
<polygon fill="#191970" stroke="#191970" points="263.2664,-127.5706 252.9082,-129.7974 262.3942,-134.5161 263.2664,-127.5706"/>
</g>
<!-- Node21 -->
<g id="node22" class="node">
<title>Node21</title>
<polygon fill="#ffffff" stroke="#bfbfbf" points="13.3072,-56.5 13.3072,-75.5 120.3072,-75.5 120.3072,-56.5 13.3072,-56.5"/>
<text text-anchor="middle" x="66.8072" y="-63.5" font-family="Helvetica,sans-Serif" font-size="10.00" fill="#000000">AMReX_iMultiFab.H</text>
</g>
<!-- Node17&#45;&gt;Node21 -->
<g id="edge44" class="edge">
<title>Node17&#45;&gt;Node21</title>
<path fill="none" stroke="#191970" d="M568.5728,-174.9037C437.1609,-168.5088 158.4625,-152.6916 119.8072,-132 100.2516,-121.5321 85.3317,-100.4645 76.3791,-84.9353"/>
<polygon fill="#191970" stroke="#191970" points="79.2131,-82.8191 71.369,-75.6973 73.0597,-86.1563 79.2131,-82.8191"/>
</g>
<!-- Node22 -->
<g id="node23" class="node">
<title>Node22</title>
<g id="a_node23"><a xlink:href="_scratch_field_8_h.html" target="_top" xlink:title="amr&#45;wind/core/ScratchField.H">
<polygon fill="#ffffff" stroke="#000000" points="281.8072,-112.5 281.8072,-131.5 427.8072,-131.5 427.8072,-112.5 281.8072,-112.5"/>
<text text-anchor="middle" x="354.8072" y="-119.5" font-family="Helvetica,sans-Serif" font-size="10.00" fill="#000000">amr&#45;wind/core/ScratchField.H</text>
</a>
</g>
</g>
<!-- Node17&#45;&gt;Node22 -->
<g id="edge35" class="edge">
<title>Node17&#45;&gt;Node22</title>
<path fill="none" stroke="#191970" d="M588.6501,-168.4369C539.9824,-158.7724 464.7498,-143.8326 412.8251,-133.5213"/>
<polygon fill="#191970" stroke="#191970" points="413.2559,-130.0386 402.7657,-131.5237 411.8924,-136.9045 413.2559,-130.0386"/>
</g>
<!-- Node23 -->
<g id="node24" class="node">
<title>Node23</title>
<polygon fill="#ffffff" stroke="#bfbfbf" points="502.8072,-112.5 502.8072,-131.5 608.8072,-131.5 608.8072,-112.5 502.8072,-112.5"/>
<text text-anchor="middle" x="555.8072" y="-119.5" font-family="Helvetica,sans-Serif" font-size="10.00" fill="#000000">AMReX_AmrCore.H</text>
</g>
<!-- Node17&#45;&gt;Node23 -->
<g id="edge42" class="edge">
<title>Node17&#45;&gt;Node23</title>
<path fill="none" stroke="#191970" d="M622.6981,-168.2455C610.3864,-159.7337 592.3115,-147.2375 578.0534,-137.3801"/>
<polygon fill="#191970" stroke="#191970" points="579.9707,-134.4506 569.7547,-131.6427 575.9899,-140.2085 579.9707,-134.4506"/>
</g>
<!-- Node18&#45;&gt;Node2 -->
<g id="edge27" class="edge">
<title>Node18&#45;&gt;Node2</title>
<path fill="none" stroke="#191970" d="M948.6755,-56.3733C911.9806,-46.8598 855.7434,-32.2797 816.1421,-22.0127"/>
<polygon fill="#191970" stroke="#191970" points="817.0128,-18.6228 806.4544,-19.5011 815.256,-25.3988 817.0128,-18.6228"/>
</g>
<!-- Node18&#45;&gt;Node8 -->
<g id="edge28" class="edge">
<title>Node18&#45;&gt;Node8</title>
<path fill="none" stroke="#191970" d="M920.489,-56.4788C860.5582,-47.6822 769.0377,-34.0971 680.0395,-20.1782"/>
<polygon fill="#191970" stroke="#191970" points="680.4644,-16.7022 670.0431,-18.6117 679.3806,-23.6178 680.4644,-16.7022"/>
</g>
<!-- Node19 -->
<g id="node20" class="node">
<title>Node19</title>
<polygon fill="#ffffff" stroke="#bfbfbf" points="927.8072,-.5 927.8072,-19.5 1043.8072,-19.5 1043.8072,-.5 927.8072,-.5"/>
<text text-anchor="middle" x="985.8072" y="-7.5" font-family="Helvetica,sans-Serif" font-size="10.00" fill="#000000">AMReX_Interpolater.H</text>
</g>
<!-- Node18&#45;&gt;Node19 -->
<g id="edge29" class="edge">
<title>Node18&#45;&gt;Node19</title>
<path fill="none" stroke="#191970" d="M985.8072,-56.2455C985.8072,-48.9382 985.8072,-38.6944 985.8072,-29.7046"/>
<polygon fill="#191970" stroke="#191970" points="989.3073,-29.6426 985.8072,-19.6427 982.3073,-29.6427 989.3073,-29.6426"/>
</g>
<!-- Node20&#45;&gt;Node2 -->
<g id="edge33" class="edge">
<title>Node20&#45;&gt;Node2</title>
<path fill="none" stroke="#191970" d="M253.0275,-114.297C259.7024,-113.505 266.3944,-112.7255 272.8072,-112 425.9957,-94.6681 468.6972,-115.1574 617.8072,-76 664.0066,-63.8677 714.2156,-39.7109 743.8004,-24.23"/>
<polygon fill="#191970" stroke="#191970" points="745.4566,-27.3134 752.65,-19.5348 742.1759,-21.1298 745.4566,-27.3134"/>
</g>
<!-- Node20&#45;&gt;Node4 -->
<g id="edge32" class="edge">
<title>Node20&#45;&gt;Node4</title>
<path fill="none" stroke="#191970" d="M185.8487,-112.4444C181.4292,-103.352 175.2877,-89.1462 172.8072,-76 169.8254,-60.1969 174.0689,-42.3608 178.6452,-29.2179"/>
<polygon fill="#191970" stroke="#191970" points="181.9395,-30.4024 182.2551,-19.8122 175.4043,-27.8941 181.9395,-30.4024"/>
</g>
<!-- Node20&#45;&gt;Node21 -->
<g id="edge34" class="edge">
<title>Node20&#45;&gt;Node21</title>
<path fill="none" stroke="#191970" d="M169.4909,-112.3733C149.5856,-103.3838 119.6637,-89.8706 97.2472,-79.7471"/>
<polygon fill="#191970" stroke="#191970" points="98.3997,-76.4272 87.8454,-75.5011 95.5186,-82.8068 98.3997,-76.4272"/>
</g>
<!-- Node22&#45;&gt;Node2 -->
<g id="edge37" class="edge">
<title>Node22&#45;&gt;Node2</title>
<path fill="none" stroke="#191970" d="M427.8554,-116.5708C511.644,-109.5375 643.3172,-95.7869 688.8072,-76 714.8709,-64.663 739.3736,-42.4791 754.4622,-26.9732"/>
<polygon fill="#191970" stroke="#191970" points="757.1344,-29.2411 761.4528,-19.5662 752.0437,-24.4364 757.1344,-29.2411"/>
</g>
<!-- Node22&#45;&gt;Node4 -->
<g id="edge36" class="edge">
<title>Node22&#45;&gt;Node4</title>
<path fill="none" stroke="#191970" d="M317.6554,-112.4625C293.842,-105.1222 263.1373,-93.2747 239.8072,-76 222.3685,-63.0875 207.4145,-43.1137 197.8805,-28.5199"/>
<polygon fill="#191970" stroke="#191970" points="200.7086,-26.4421 192.4263,-19.8349 194.7806,-30.1649 200.7086,-26.4421"/>
</g>
<!-- Node22&#45;&gt;Node8 -->
<g id="edge39" class="edge">
<title>Node22&#45;&gt;Node8</title>
<path fill="none" stroke="#191970" d="M330.1462,-112.498C302.0824,-100.3256 262.4881,-78.1443 281.8072,-56 299.5051,-35.7141 463.4125,-20.9351 555.5837,-14.1485"/>
<polygon fill="#191970" stroke="#191970" points="555.9151,-17.6337 565.6356,-13.4191 555.4084,-10.6521 555.9151,-17.6337"/>
</g>
<!-- Node22&#45;&gt;Node12 -->
<g id="edge38" class="edge">
<title>Node22&#45;&gt;Node12</title>
<path fill="none" stroke="#191970" d="M386.9537,-112.3733C418.3182,-102.9807 466.1737,-88.6496 500.3789,-78.4064"/>
<polygon fill="#191970" stroke="#191970" points="501.5047,-81.7229 510.0803,-75.5011 499.4965,-75.0171 501.5047,-81.7229"/>
</g>
<!-- Node22&#45;&gt;Node13 -->
<g id="edge40" class="edge">
<title>Node22&#45;&gt;Node13</title>
<path fill="none" stroke="#191970" d="M310.8251,-112.4257C273.3704,-102.1541 228.5881,-83.5131 248.8072,-56 259.7357,-41.1292 301.6109,-28.9221 337.886,-20.8292"/>
<polygon fill="#191970" stroke="#191970" points="338.9034,-24.1902 347.9385,-18.6568 337.4248,-17.3481 338.9034,-24.1902"/>
</g>
<!-- Node22&#45;&gt;Node16 -->
<g id="edge41" class="edge">
<title>Node22&#45;&gt;Node16</title>
<path fill="none" stroke="#191970" d="M354.8072,-112.2455C354.8072,-104.9382 354.8072,-94.6944 354.8072,-85.7046"/>
<polygon fill="#191970" stroke="#191970" points="358.3073,-85.6426 354.8072,-75.6427 351.3073,-85.6427 358.3073,-85.6426"/>
</g>
</g>
</svg>
