<?xml version="1.0" encoding="UTF-8" standalone="no"?>
<!DOCTYPE svg PUBLIC "-//W3C//DTD SVG 1.1//EN"
 "http://www.w3.org/Graphics/SVG/1.1/DTD/svg11.dtd">
<!-- Generated by graphviz version 2.40.1 (20161225.0304)
 -->
<!-- Title: FixedWing.H Pages: 1 -->
<svg width="135pt" height="140pt"
 viewBox="0.00 0.00 134.50 140.00" xmlns="http://www.w3.org/2000/svg" xmlns:xlink="http://www.w3.org/1999/xlink">
<g id="graph0" class="graph" transform="scale(1 1) rotate(0) translate(4 136)">
<title>FixedWing.H</title>
<polygon fill="#ffffff" stroke="transparent" points="-4,4 -4,-136 130.5,-136 130.5,4 -4,4"/>
<!-- Node25 -->
<g id="node1" class="node">
<title>Node25</title>
<polygon fill="#bfbfbf" stroke="#000000" points="48.5,-112.5 48.5,-131.5 122.5,-131.5 122.5,-112.5 48.5,-112.5"/>
<text text-anchor="middle" x="85.5" y="-119.5" font-family="Helvetica,sans-Serif" font-size="10.00" fill="#000000">FixedWing.H</text>
</g>
<!-- Node26 -->
<g id="node2" class="node">
<title>Node26</title>
<g id="a_node2"><a xlink:href="fixed__wing__ops_8_h.html" target="_top" xlink:title="fixed_wing_ops.H">
<polygon fill="#ffffff" stroke="#000000" points="0,-56.5 0,-75.5 95,-75.5 95,-56.5 0,-56.5"/>
<text text-anchor="middle" x="47.5" y="-63.5" font-family="Helvetica,sans-Serif" font-size="10.00" fill="#000000">fixed_wing_ops.H</text>
</a>
</g>
</g>
<!-- Node25&#45;&gt;Node26 -->
<g id="edge1" class="edge">
<title>Node25&#45;&gt;Node26</title>
<path fill="none" stroke="#191970" d="M73.2321,-103.9209C66.8512,-94.5176 59.3069,-83.3997 54.0432,-75.6427"/>
<polygon fill="#191970" stroke="#191970" points="70.3697,-105.936 78.8809,-112.2455 76.162,-102.0055 70.3697,-105.936"/>
</g>
<!-- Node27 -->
<g id="node3" class="node">
<title>Node27</title>
<g id="a_node3"><a xlink:href="_fixed_wing_8cpp.html" target="_top" xlink:title="FixedWing.cpp">
<polygon fill="#ffffff" stroke="#000000" points="44.5,-.5 44.5,-19.5 126.5,-19.5 126.5,-.5 44.5,-.5"/>
<text text-anchor="middle" x="85.5" y="-7.5" font-family="Helvetica,sans-Serif" font-size="10.00" fill="#000000">FixedWing.cpp</text>
</a>
</g>
</g>
<!-- Node25&#45;&gt;Node27 -->
<g id="edge3" class="edge">
<title>Node25&#45;&gt;Node27</title>
<path fill="none" stroke="#191970" d="M95.0946,-103.4785C98.8201,-95.2885 102.6352,-85.3997 104.5,-76 108.5374,-55.6494 98.3089,-32.4726 91.3421,-19.7128"/>
<polygon fill="#191970" stroke="#191970" points="91.9443,-101.9536 90.7318,-112.4788 98.2433,-105.007 91.9443,-101.9536"/>
</g>
<!-- Node26&#45;&gt;Node27 -->
<g id="edge2" class="edge">
<title>Node26&#45;&gt;Node27</title>
<path fill="none" stroke="#191970" d="M59.7679,-47.9209C66.1488,-38.5176 73.6931,-27.3997 78.9568,-19.6427"/>
<polygon fill="#191970" stroke="#191970" points="56.838,-46.0055 54.1191,-56.2455 62.6303,-49.936 56.838,-46.0055"/>
</g>
</g>
</svg>
