<?xml version="1.0" encoding="UTF-8" standalone="no"?>
<!DOCTYPE svg PUBLIC "-//W3C//DTD SVG 1.1//EN"
 "http://www.w3.org/Graphics/SVG/1.1/DTD/svg11.dtd">
<!-- Generated by graphviz version 2.40.1 (20161225.0304)
 -->
<!-- Title: FlatPlate.H Pages: 1 -->
<!--zoomable 464 -->
<svg id="main" version="1.1" xmlns="http://www.w3.org/2000/svg" xmlns:xlink="http://www.w3.org/1999/xlink" xml:space="preserve" onload="init(evt)">
<style type="text/css"><![CDATA[
.edge:hover path { stroke: red; }
.edge:hover polygon { stroke: red; fill: red; }
]]></style>
<script type="text/javascript"><![CDATA[
var edges = document.getElementsByTagName('g');
if (edges && edges.length) {
  for (var i=0;i<edges.length;i++) {
    if (edges[i].id.substr(0,4)=='edge') {
      edges[i].setAttribute('class','edge');
    }
  }
}
]]></script>
        <defs>
                <circle id="rim" cx="0" cy="0" r="7"/>
                <circle id="rim2" cx="0" cy="0" r="3.5"/>
                <g id="zoomPlus">
                        <use xlink:href="#rim" fill="#404040">
                                <set attributeName="fill" to="#808080" begin="zoomplus.mouseover" end="zoomplus.mouseout"/>
                        </use>
                        <path d="M-4,0h8M0,-4v8" fill="none" stroke="white" stroke-width="1.5" pointer-events="none"/>
                </g>
                <g id="zoomMin">
                        <use xlink:href="#rim" fill="#404040">
                                <set attributeName="fill" to="#808080" begin="zoomminus.mouseover" end="zoomminus.mouseout"/>
                        </use>
                        <path d="M-4,0h8" fill="none" stroke="white" stroke-width="1.5" pointer-events="none"/>
                </g>
                <g id="dirArrow">
                        <path fill="none" stroke="white" stroke-width="1.5" d="M0,-3.0v7 M-2.5,-0.5L0,-3.0L2.5,-0.5"/>
                </g>
               <g id="resetDef">
                       <use xlink:href="#rim2" fill="#404040">
                               <set attributeName="fill" to="#808080" begin="reset.mouseover" end="reset.mouseout"/>
                       </use>
               </g>
        </defs>

<script type="text/javascript">
var viewWidth = 927;
var viewHeight = 464;
var sectionId = 'dynsection-0';
</script>
<script xlink:href="svgpan.js"/>
<svg id="graph" class="graph">
<g id="viewport">
<title>FlatPlate.H</title>
<polygon fill="#ffffff" stroke="transparent" points="-4,4 -4,-460 922.5,-460 922.5,4 -4,4"/>
<!-- Node0 -->
<g id="node1" class="node">
<title>Node0</title>
<polygon fill="#bfbfbf" stroke="#000000" points="592.5,-436.5 592.5,-455.5 658.5,-455.5 658.5,-436.5 592.5,-436.5"/>
<text text-anchor="middle" x="625.5" y="-443.5" font-family="Helvetica,sans-Serif" font-size="10.00" fill="#000000">FlatPlate.H</text>
</g>
<!-- Node1 -->
<g id="node2" class="node">
<title>Node1</title>
<g id="a_node2"><a xlink:href="_actuator_wing_8_h.html" target="_top" xlink:title="amr&#45;wind/wind_energy\l/actuator/wing/ActuatorWing.H">
<polygon fill="#ffffff" stroke="#000000" points="469,-369.5 469,-399.5 620,-399.5 620,-369.5 469,-369.5"/>
<text text-anchor="start" x="477" y="-387.5" font-family="Helvetica,sans-Serif" font-size="10.00" fill="#000000">amr&#45;wind/wind_energy</text>
<text text-anchor="middle" x="544.5" y="-376.5" font-family="Helvetica,sans-Serif" font-size="10.00" fill="#000000">/actuator/wing/ActuatorWing.H</text>
</a>
</g>
</g>
<!-- Node0&#45;&gt;Node1 -->
<g id="edge1" class="edge">
<title>Node0&#45;&gt;Node1</title>
<path fill="none" stroke="#191970" d="M612.8438,-436.3906C602.0844,-428.2215 586.2435,-416.1941 572.5209,-405.7752"/>
<polygon fill="#191970" stroke="#191970" points="574.3958,-402.8042 564.3148,-399.5446 570.1628,-408.3793 574.3958,-402.8042"/>
</g>
<!-- Node21 -->
<g id="node22" class="node">
<title>Node21</title>
<g id="a_node22"><a xlink:href="_airfoil_table_8_h.html" target="_top" xlink:title="amr&#45;wind/wind_energy\l/actuator/aero/AirfoilTable.H">
<polygon fill="#ffffff" stroke="#000000" points="650,-369.5 650,-399.5 789,-399.5 789,-369.5 650,-369.5"/>
<text text-anchor="start" x="658" y="-387.5" font-family="Helvetica,sans-Serif" font-size="10.00" fill="#000000">amr&#45;wind/wind_energy</text>
<text text-anchor="middle" x="719.5" y="-376.5" font-family="Helvetica,sans-Serif" font-size="10.00" fill="#000000">/actuator/aero/AirfoilTable.H</text>
</a>
</g>
</g>
<!-- Node0&#45;&gt;Node21 -->
<g id="edge33" class="edge">
<title>Node0&#45;&gt;Node21</title>
<path fill="none" stroke="#191970" d="M640.1875,-436.3906C652.9093,-428.0673 671.7527,-415.7389 687.8806,-405.1872"/>
<polygon fill="#191970" stroke="#191970" points="690.0531,-407.9484 696.505,-399.5446 686.2206,-402.0907 690.0531,-407.9484"/>
</g>
<!-- Node2 -->
<g id="node3" class="node">
<title>Node2</title>
<g id="a_node3"><a xlink:href="actuator__types_8_h.html" target="_top" xlink:title="amr&#45;wind/wind_energy\l/actuator/actuator_types.H">
<polygon fill="#ffffff" stroke="#000000" points="453,-302.5 453,-332.5 586,-332.5 586,-302.5 453,-302.5"/>
<text text-anchor="start" x="461" y="-320.5" font-family="Helvetica,sans-Serif" font-size="10.00" fill="#000000">amr&#45;wind/wind_energy</text>
<text text-anchor="middle" x="519.5" y="-309.5" font-family="Helvetica,sans-Serif" font-size="10.00" fill="#000000">/actuator/actuator_types.H</text>
</a>
</g>
</g>
<!-- Node1&#45;&gt;Node2 -->
<g id="edge2" class="edge">
<title>Node1&#45;&gt;Node2</title>
<path fill="none" stroke="#191970" d="M538.8271,-369.2967C535.8225,-361.2443 532.0587,-351.1574 528.6528,-342.0296"/>
<polygon fill="#191970" stroke="#191970" points="531.9256,-340.7886 525.1504,-332.6432 525.3672,-343.2358 531.9256,-340.7886"/>
</g>
<!-- Node7 -->
<g id="node8" class="node">
<title>Node7</title>
<g id="a_node8"><a xlink:href="vector__space_8_h.html" target="_top" xlink:title="amr&#45;wind/core/vs/vector\l_space.H">
<polygon fill="#ffffff" stroke="#000000" points="259.5,-235.5 259.5,-265.5 381.5,-265.5 381.5,-235.5 259.5,-235.5"/>
<text text-anchor="start" x="267.5" y="-253.5" font-family="Helvetica,sans-Serif" font-size="10.00" fill="#000000">amr&#45;wind/core/vs/vector</text>
<text text-anchor="middle" x="320.5" y="-242.5" font-family="Helvetica,sans-Serif" font-size="10.00" fill="#000000">_space.H</text>
</a>
</g>
</g>
<!-- Node1&#45;&gt;Node7 -->
<g id="edge31" class="edge">
<title>Node1&#45;&gt;Node7</title>
<path fill="none" stroke="#191970" d="M512.589,-369.4415C492.4505,-359.6429 466.071,-346.2603 443.5,-333 410.3811,-313.5428 374.0307,-288.7008 349.4978,-271.3841"/>
<polygon fill="#191970" stroke="#191970" points="351.5187,-268.5265 341.3378,-265.594 347.4678,-274.2353 351.5187,-268.5265"/>
</g>
<!-- Node20 -->
<g id="node21" class="node">
<title>Node20</title>
<polygon fill="#ffffff" stroke="#bfbfbf" points="810,-241 810,-260 851,-260 851,-241 810,-241"/>
<text text-anchor="middle" x="830.5" y="-248" font-family="Helvetica,sans-Serif" font-size="10.00" fill="#000000">string</text>
</g>
<!-- Node1&#45;&gt;Node20 -->
<g id="edge32" class="edge">
<title>Node1&#45;&gt;Node20</title>
<path fill="none" stroke="#191970" d="M558.978,-369.4135C579.6267,-348.1977 616.8717,-311.1132 633.5,-302 689.0854,-271.5362 710.1805,-282.0529 771.5,-266 780.7304,-263.5836 790.7713,-260.9482 799.909,-258.5473"/>
<polygon fill="#191970" stroke="#191970" points="800.969,-261.8877 809.7507,-255.9604 799.1894,-255.1177 800.969,-261.8877"/>
</g>
<!-- Node3 -->
<g id="node4" class="node">
<title>Node3</title>
<g id="a_node4"><a xlink:href="_slice_8_h.html" target="_top" xlink:title="amr&#45;wind/core/Slice.H">
<polygon fill="#ffffff" stroke="#000000" points="570,-241 570,-260 683,-260 683,-241 570,-241"/>
<text text-anchor="middle" x="626.5" y="-248" font-family="Helvetica,sans-Serif" font-size="10.00" fill="#000000">amr&#45;wind/core/Slice.H</text>
</a>
</g>
</g>
<!-- Node2&#45;&gt;Node3 -->
<g id="edge3" class="edge">
<title>Node2&#45;&gt;Node3</title>
<path fill="none" stroke="#191970" d="M543.5129,-302.4639C561.1426,-291.4247 584.9849,-276.4954 602.5903,-265.4715"/>
<polygon fill="#191970" stroke="#191970" points="604.5444,-268.3775 611.1624,-260.1039 600.8293,-262.4446 604.5444,-268.3775"/>
</g>
<!-- Node6 -->
<g id="node7" class="node">
<title>Node6</title>
<polygon fill="#ffffff" stroke="#bfbfbf" points="460,-.5 460,-19.5 545,-19.5 545,-.5 460,-.5"/>
<text text-anchor="middle" x="502.5" y="-7.5" font-family="Helvetica,sans-Serif" font-size="10.00" fill="#000000">AMReX_Gpu.H</text>
</g>
<!-- Node2&#45;&gt;Node6 -->
<g id="edge28" class="edge">
<title>Node2&#45;&gt;Node6</title>
<path fill="none" stroke="#191970" d="M583.0605,-302.4615C624.1907,-291.9777 673.3382,-277.8096 691.5,-266 729.2872,-241.4291 757.5,-234.0733 757.5,-189 757.5,-189 757.5,-189 757.5,-133 757.5,-87.2884 622.8851,-43.0701 549.2692,-22.3064"/>
<polygon fill="#191970" stroke="#191970" points="549.8791,-18.8432 539.3069,-19.5345 548.0027,-25.587 549.8791,-18.8432"/>
</g>
<!-- Node2&#45;&gt;Node7 -->
<g id="edge7" class="edge">
<title>Node2&#45;&gt;Node7</title>
<path fill="none" stroke="#191970" d="M474.8405,-302.4639C445.2432,-292.499 406.2311,-279.3642 374.8346,-268.7936"/>
<polygon fill="#191970" stroke="#191970" points="375.9484,-265.4755 365.3543,-265.6017 373.7147,-272.1096 375.9484,-265.4755"/>
</g>
<!-- Node18 -->
<g id="node19" class="node">
<title>Node18</title>
<polygon fill="#ffffff" stroke="#bfbfbf" points="399.5,-241 399.5,-260 503.5,-260 503.5,-241 399.5,-241"/>
<text text-anchor="middle" x="451.5" y="-248" font-family="Helvetica,sans-Serif" font-size="10.00" fill="#000000">AMReX_RealBox.H</text>
</g>
<!-- Node2&#45;&gt;Node18 -->
<g id="edge29" class="edge">
<title>Node2&#45;&gt;Node18</title>
<path fill="none" stroke="#191970" d="M504.0697,-302.2967C493.475,-291.8578 479.4101,-277.9997 468.4946,-267.2446"/>
<polygon fill="#191970" stroke="#191970" points="470.7773,-264.5804 461.1976,-260.055 465.8644,-269.5666 470.7773,-264.5804"/>
</g>
<!-- Node19 -->
<g id="node20" class="node">
<title>Node19</title>
<polygon fill="#ffffff" stroke="#bfbfbf" points="521.5,-241 521.5,-260 551.5,-260 551.5,-241 521.5,-241"/>
<text text-anchor="middle" x="536.5" y="-248" font-family="Helvetica,sans-Serif" font-size="10.00" fill="#000000">set</text>
</g>
<!-- Node2&#45;&gt;Node19 -->
<g id="edge30" class="edge">
<title>Node2&#45;&gt;Node19</title>
<path fill="none" stroke="#191970" d="M523.3576,-302.2967C525.8005,-292.6685 528.9815,-280.1318 531.602,-269.8038"/>
<polygon fill="#191970" stroke="#191970" points="535.0086,-270.6086 534.0756,-260.055 528.2236,-268.887 535.0086,-270.6086"/>
</g>
<!-- Node4 -->
<g id="node5" class="node">
<title>Node4</title>
<polygon fill="#ffffff" stroke="#bfbfbf" points="682,-179.5 682,-198.5 729,-198.5 729,-179.5 682,-179.5"/>
<text text-anchor="middle" x="705.5" y="-186.5" font-family="Helvetica,sans-Serif" font-size="10.00" fill="#000000">iterator</text>
</g>
<!-- Node3&#45;&gt;Node4 -->
<g id="edge4" class="edge">
<title>Node3&#45;&gt;Node4</title>
<path fill="none" stroke="#191970" d="M638.8438,-240.8906C651.2503,-231.2324 670.5843,-216.1812 685.2413,-204.771"/>
<polygon fill="#191970" stroke="#191970" points="687.5021,-207.4466 693.2429,-198.5419 683.2021,-201.923 687.5021,-207.4466"/>
</g>
<!-- Node5 -->
<g id="node6" class="node">
<title>Node5</title>
<polygon fill="#ffffff" stroke="#bfbfbf" points="569,-179.5 569,-198.5 664,-198.5 664,-179.5 569,-179.5"/>
<text text-anchor="middle" x="616.5" y="-186.5" font-family="Helvetica,sans-Serif" font-size="10.00" fill="#000000">AMReX_Vector.H</text>
</g>
<!-- Node3&#45;&gt;Node5 -->
<g id="edge5" class="edge">
<title>Node3&#45;&gt;Node5</title>
<path fill="none" stroke="#191970" d="M624.9375,-240.8906C623.5513,-232.3657 621.482,-219.6392 619.7396,-208.9235"/>
<polygon fill="#191970" stroke="#191970" points="623.1442,-208.0535 618.0845,-198.7449 616.2349,-209.177 623.1442,-208.0535"/>
</g>
<!-- Node3&#45;&gt;Node6 -->
<g id="edge6" class="edge">
<title>Node3&#45;&gt;Node6</title>
<path fill="none" stroke="#191970" d="M608.5839,-240.9938C593.4133,-232.067 572.1686,-217.3522 559.5,-199 522.2548,-145.045 508.8447,-66.1909 504.4453,-29.7773"/>
<polygon fill="#191970" stroke="#191970" points="507.8904,-29.0871 503.3147,-19.5314 500.9327,-29.8549 507.8904,-29.0871"/>
</g>
<!-- Node8 -->
<g id="node9" class="node">
<title>Node8</title>
<g id="a_node9"><a xlink:href="vector_8_h.html" target="_top" xlink:title="amr&#45;wind/core/vs/vector.H">
<polygon fill="#ffffff" stroke="#000000" points="115.5,-123.5 115.5,-142.5 247.5,-142.5 247.5,-123.5 115.5,-123.5"/>
<text text-anchor="middle" x="181.5" y="-130.5" font-family="Helvetica,sans-Serif" font-size="10.00" fill="#000000">amr&#45;wind/core/vs/vector.H</text>
</a>
</g>
</g>
<!-- Node7&#45;&gt;Node8 -->
<g id="edge8" class="edge">
<title>Node7&#45;&gt;Node8</title>
<path fill="none" stroke="#191970" d="M302.6127,-235.3795C276.4122,-213.2315 227.7919,-172.1316 200.8072,-149.3209"/>
<polygon fill="#191970" stroke="#191970" points="202.7586,-146.3874 192.8621,-142.6046 198.2395,-151.7333 202.7586,-146.3874"/>
</g>
<!-- Node15 -->
<g id="node16" class="node">
<title>Node15</title>
<g id="a_node16"><a xlink:href="tensor_8_h.html" target="_top" xlink:title="amr&#45;wind/core/vs/tensor.H">
<polygon fill="#ffffff" stroke="#000000" points="294.5,-179.5 294.5,-198.5 426.5,-198.5 426.5,-179.5 294.5,-179.5"/>
<text text-anchor="middle" x="360.5" y="-186.5" font-family="Helvetica,sans-Serif" font-size="10.00" fill="#000000">amr&#45;wind/core/vs/tensor.H</text>
</a>
</g>
</g>
<!-- Node7&#45;&gt;Node15 -->
<g id="edge17" class="edge">
<title>Node7&#45;&gt;Node15</title>
<path fill="none" stroke="#191970" d="M330.3876,-235.2977C335.8822,-226.8498 342.7586,-216.2773 348.5527,-207.369"/>
<polygon fill="#191970" stroke="#191970" points="351.5772,-209.1381 354.0955,-198.8469 345.7092,-205.3215 351.5772,-209.1381"/>
</g>
<!-- Node8&#45;&gt;Node6 -->
<g id="edge9" class="edge">
<title>Node8&#45;&gt;Node6</title>
<path fill="none" stroke="#191970" d="M247.6259,-127.1159C314.7277,-120.1601 413.1857,-106.9473 445.5,-87 467.9651,-73.1326 484.4853,-46.8592 493.7961,-28.8956"/>
<polygon fill="#191970" stroke="#191970" points="497.0607,-30.1878 498.3274,-19.669 490.7776,-27.102 497.0607,-30.1878"/>
</g>
<!-- Node9 -->
<g id="node10" class="node">
<title>Node9</title>
<g id="a_node10"><a xlink:href="vstraits_8_h.html" target="_top" xlink:title="amr&#45;wind/core/vs/vstraits.H">
<polygon fill="#ffffff" stroke="#000000" points="153,-62 153,-81 290,-81 290,-62 153,-62"/>
<text text-anchor="middle" x="221.5" y="-69" font-family="Helvetica,sans-Serif" font-size="10.00" fill="#000000">amr&#45;wind/core/vs/vstraits.H</text>
</a>
</g>
</g>
<!-- Node8&#45;&gt;Node9 -->
<g id="edge10" class="edge">
<title>Node8&#45;&gt;Node9</title>
<path fill="none" stroke="#191970" d="M187.75,-123.3906C193.5865,-114.417 202.4509,-100.7879 209.6306,-89.7491"/>
<polygon fill="#191970" stroke="#191970" points="212.6436,-91.5361 215.1619,-81.2449 206.7755,-87.7194 212.6436,-91.5361"/>
</g>
<!-- Node12 -->
<g id="node13" class="node">
<title>Node12</title>
<g id="a_node13"><a xlink:href="vector_i_8_h.html" target="_top" xlink:title="amr&#45;wind/core/vs/vectorI.H">
<polygon fill="#ffffff" stroke="#000000" points="0,-62 0,-81 135,-81 135,-62 0,-62"/>
<text text-anchor="middle" x="67.5" y="-69" font-family="Helvetica,sans-Serif" font-size="10.00" fill="#000000">amr&#45;wind/core/vs/vectorI.H</text>
</a>
</g>
</g>
<!-- Node8&#45;&gt;Node12 -->
<g id="edge13" class="edge">
<title>Node8&#45;&gt;Node12</title>
<path fill="none" stroke="#191970" d="M158.625,-123.3906C138.1901,-113.4165 108.7773,-97.6908 88.8299,-86.1633"/>
<polygon fill="#191970" stroke="#191970" points="90.5306,-83.103 80.1381,-81.0419 86.9769,-89.134 90.5306,-83.103"/>
</g>
<!-- Node10 -->
<g id="node11" class="node">
<title>Node10</title>
<polygon fill="#ffffff" stroke="#bfbfbf" points="201.5,-.5 201.5,-19.5 241.5,-19.5 241.5,-.5 201.5,-.5"/>
<text text-anchor="middle" x="221.5" y="-7.5" font-family="Helvetica,sans-Serif" font-size="10.00" fill="#000000">limits</text>
</g>
<!-- Node9&#45;&gt;Node10 -->
<g id="edge11" class="edge">
<title>Node9&#45;&gt;Node10</title>
<path fill="none" stroke="#191970" d="M221.5,-61.8906C221.5,-53.3657 221.5,-40.6392 221.5,-29.9235"/>
<polygon fill="#191970" stroke="#191970" points="225.0001,-29.7448 221.5,-19.7449 218.0001,-29.7449 225.0001,-29.7448"/>
</g>
<!-- Node11 -->
<g id="node12" class="node">
<title>Node11</title>
<polygon fill="#ffffff" stroke="#bfbfbf" points="345,-.5 345,-19.5 438,-19.5 438,-.5 345,-.5"/>
<text text-anchor="middle" x="391.5" y="-7.5" font-family="Helvetica,sans-Serif" font-size="10.00" fill="#000000">AMReX_REAL.H</text>
</g>
<!-- Node9&#45;&gt;Node11 -->
<g id="edge12" class="edge">
<title>Node9&#45;&gt;Node11</title>
<path fill="none" stroke="#191970" d="M248.0625,-61.8906C277.0056,-51.42 323.4694,-34.6111 355.6356,-22.9745"/>
<polygon fill="#191970" stroke="#191970" points="356.9111,-26.2351 365.124,-19.5419 354.5298,-19.6526 356.9111,-26.2351"/>
</g>
<!-- Node12&#45;&gt;Node8 -->
<g id="edge16" class="edge">
<title>Node12&#45;&gt;Node8</title>
<path fill="none" stroke="#191970" d="M90.2367,-81.0419C110.6309,-90.99 140.0448,-106.7122 160.0348,-118.2585"/>
<polygon fill="#191970" stroke="#191970" points="158.357,-121.3323 168.75,-123.3906 161.909,-115.3004 158.357,-121.3323"/>
</g>
<!-- Node13 -->
<g id="node14" class="node">
<title>Node13</title>
<polygon fill="#ffffff" stroke="#bfbfbf" points="41.5,-.5 41.5,-19.5 93.5,-19.5 93.5,-.5 41.5,-.5"/>
<text text-anchor="middle" x="67.5" y="-7.5" font-family="Helvetica,sans-Serif" font-size="10.00" fill="#000000">ostream</text>
</g>
<!-- Node12&#45;&gt;Node13 -->
<g id="edge14" class="edge">
<title>Node12&#45;&gt;Node13</title>
<path fill="none" stroke="#191970" d="M67.5,-61.8906C67.5,-53.3657 67.5,-40.6392 67.5,-29.9235"/>
<polygon fill="#191970" stroke="#191970" points="71.0001,-29.7448 67.5,-19.7449 64.0001,-29.7449 71.0001,-29.7448"/>
</g>
<!-- Node14 -->
<g id="node15" class="node">
<title>Node14</title>
<polygon fill="#ffffff" stroke="#bfbfbf" points="282.5,-.5 282.5,-19.5 326.5,-19.5 326.5,-.5 282.5,-.5"/>
<text text-anchor="middle" x="304.5" y="-7.5" font-family="Helvetica,sans-Serif" font-size="10.00" fill="#000000">cmath</text>
</g>
<!-- Node12&#45;&gt;Node14 -->
<g id="edge15" class="edge">
<title>Node12&#45;&gt;Node14</title>
<path fill="none" stroke="#191970" d="M104.2712,-61.9581C150.372,-49.9952 228.6493,-29.6828 272.4272,-18.3227"/>
<polygon fill="#191970" stroke="#191970" points="273.4562,-21.6717 282.2565,-15.7721 271.6979,-14.8961 273.4562,-21.6717"/>
</g>
<!-- Node15&#45;&gt;Node6 -->
<g id="edge18" class="edge">
<title>Node15&#45;&gt;Node6</title>
<path fill="none" stroke="#191970" d="M388.4075,-179.4365C407.0248,-171.9103 431.0184,-159.8605 447.5,-143 478.9559,-110.8211 493.3734,-58.0956 499.1577,-29.6576"/>
<polygon fill="#191970" stroke="#191970" points="502.6177,-30.1959 501.0245,-19.7215 495.7381,-28.9033 502.6177,-30.1959"/>
</g>
<!-- Node15&#45;&gt;Node8 -->
<g id="edge20" class="edge">
<title>Node15&#45;&gt;Node8</title>
<path fill="none" stroke="#191970" d="M329.7288,-179.3733C299.835,-170.021 254.2907,-155.7725 221.5783,-145.5385"/>
<polygon fill="#191970" stroke="#191970" points="222.4586,-142.1466 211.8697,-142.5011 220.3685,-148.8273 222.4586,-142.1466"/>
</g>
<!-- Node15&#45;&gt;Node9 -->
<g id="edge19" class="edge">
<title>Node15&#45;&gt;Node9</title>
<path fill="none" stroke="#191970" d="M345.3048,-179.4466C331.5827,-170.581 311.0632,-156.7219 294.5,-143 273.7524,-125.8115 251.9293,-103.8525 237.6091,-88.8329"/>
<polygon fill="#191970" stroke="#191970" points="239.8883,-86.1485 230.4798,-81.277 234.7969,-90.9524 239.8883,-86.1485"/>
</g>
<!-- Node16 -->
<g id="node17" class="node">
<title>Node16</title>
<g id="a_node17"><a xlink:href="tensor_i_8_h.html" target="_top" xlink:title="amr&#45;wind/core/vs/tensorI.H">
<polygon fill="#ffffff" stroke="#000000" points="304,-123.5 304,-142.5 439,-142.5 439,-123.5 304,-123.5"/>
<text text-anchor="middle" x="371.5" y="-130.5" font-family="Helvetica,sans-Serif" font-size="10.00" fill="#000000">amr&#45;wind/core/vs/tensorI.H</text>
</a>
</g>
</g>
<!-- Node15&#45;&gt;Node16 -->
<g id="edge21" class="edge">
<title>Node15&#45;&gt;Node16</title>
<path fill="none" stroke="#191970" d="M357.1492,-179.2455C357.1738,-171.8579 358.817,-161.4689 361.2283,-152.4087"/>
<polygon fill="#191970" stroke="#191970" points="364.6392,-153.2339 364.3608,-142.6427 357.9737,-151.0958 364.6392,-153.2339"/>
</g>
<!-- Node16&#45;&gt;Node14 -->
<g id="edge22" class="edge">
<title>Node16&#45;&gt;Node14</title>
<path fill="none" stroke="#191970" d="M363.232,-123.2298C355.8667,-114.2182 345.1083,-100.2666 337.5,-87 326.8006,-68.3433 317.451,-45.5481 311.4618,-29.6205"/>
<polygon fill="#191970" stroke="#191970" points="314.601,-28.014 307.8771,-19.8262 308.0274,-30.4199 314.601,-28.014"/>
</g>
<!-- Node16&#45;&gt;Node15 -->
<g id="edge23" class="edge">
<title>Node16&#45;&gt;Node15</title>
<path fill="none" stroke="#191970" d="M374.851,-142.6427C374.8428,-149.9998 373.2117,-160.3803 370.8082,-169.4538"/>
<polygon fill="#191970" stroke="#191970" points="367.3893,-168.6548 367.6829,-179.2455 374.0579,-170.7833 367.3893,-168.6548"/>
</g>
<!-- Node17 -->
<g id="node18" class="node">
<title>Node17</title>
<g id="a_node18"><a xlink:href="trig__ops_8_h.html" target="_top" xlink:title="Trigonometric utilities. ">
<polygon fill="#ffffff" stroke="#000000" points="346.5,-56.5 346.5,-86.5 436.5,-86.5 436.5,-56.5 346.5,-56.5"/>
<text text-anchor="start" x="354.5" y="-74.5" font-family="Helvetica,sans-Serif" font-size="10.00" fill="#000000">amr&#45;wind/utilities</text>
<text text-anchor="middle" x="391.5" y="-63.5" font-family="Helvetica,sans-Serif" font-size="10.00" fill="#000000">/trig_ops.H</text>
</a>
</g>
</g>
<!-- Node16&#45;&gt;Node17 -->
<g id="edge24" class="edge">
<title>Node16&#45;&gt;Node17</title>
<path fill="none" stroke="#191970" d="M374.625,-123.3906C377.0059,-116.0692 380.3947,-105.6488 383.5115,-96.0647"/>
<polygon fill="#191970" stroke="#191970" points="386.8432,-97.1368 386.6074,-86.5446 380.1863,-94.9719 386.8432,-97.1368"/>
</g>
<!-- Node17&#45;&gt;Node6 -->
<g id="edge27" class="edge">
<title>Node17&#45;&gt;Node6</title>
<path fill="none" stroke="#191970" d="M418.6537,-56.4554C436.1995,-46.734 458.9122,-34.15 476.2721,-24.5317"/>
<polygon fill="#191970" stroke="#191970" points="478.248,-27.4383 485.2989,-19.5303 474.8555,-21.3153 478.248,-27.4383"/>
</g>
<!-- Node17&#45;&gt;Node11 -->
<g id="edge26" class="edge">
<title>Node17&#45;&gt;Node11</title>
<path fill="none" stroke="#191970" d="M391.5,-56.2977C391.5,-48.3834 391.5,-38.6043 391.5,-30.0759"/>
<polygon fill="#191970" stroke="#191970" points="395.0001,-29.8469 391.5,-19.8469 388.0001,-29.847 395.0001,-29.8469"/>
</g>
<!-- Node17&#45;&gt;Node14 -->
<g id="edge25" class="edge">
<title>Node17&#45;&gt;Node14</title>
<path fill="none" stroke="#191970" d="M369.9944,-56.2977C356.7032,-46.9022 339.6943,-34.8787 326.3412,-25.4395"/>
<polygon fill="#191970" stroke="#191970" points="328.3561,-22.5776 318.17,-19.6633 324.3154,-28.2937 328.3561,-22.5776"/>
</g>
<!-- Node21&#45;&gt;Node2 -->
<g id="edge34" class="edge">
<title>Node21&#45;&gt;Node2</title>
<path fill="none" stroke="#191970" d="M674.6161,-369.4639C644.87,-359.499 605.6619,-346.3642 574.1077,-335.7936"/>
<polygon fill="#191970" stroke="#191970" points="575.1735,-332.4595 564.5797,-332.6017 572.95,-339.097 575.1735,-332.4595"/>
</g>
<!-- Node22 -->
<g id="node23" class="node">
<title>Node22</title>
<polygon fill="#ffffff" stroke="#bfbfbf" points="643,-308 643,-327 688,-327 688,-308 643,-308"/>
<text text-anchor="middle" x="665.5" y="-315" font-family="Helvetica,sans-Serif" font-size="10.00" fill="#000000">iosfwd</text>
</g>
<!-- Node21&#45;&gt;Node22 -->
<g id="edge35" class="edge">
<title>Node21&#45;&gt;Node22</title>
<path fill="none" stroke="#191970" d="M707.2466,-369.2967C698.9965,-359.0605 688.0966,-345.5366 679.5034,-334.8746"/>
<polygon fill="#191970" stroke="#191970" points="682.2014,-332.6446 673.201,-327.055 676.7512,-337.0373 682.2014,-332.6446"/>
</g>
<!-- Node23 -->
<g id="node24" class="node">
<title>Node23</title>
<polygon fill="#ffffff" stroke="#bfbfbf" points="706.5,-308 706.5,-327 758.5,-327 758.5,-308 706.5,-308"/>
<text text-anchor="middle" x="732.5" y="-315" font-family="Helvetica,sans-Serif" font-size="10.00" fill="#000000">memory</text>
</g>
<!-- Node21&#45;&gt;Node23 -->
<g id="edge36" class="edge">
<title>Node21&#45;&gt;Node23</title>
<path fill="none" stroke="#191970" d="M722.4499,-369.2967C724.2984,-359.7699 726.6994,-347.3954 728.6911,-337.1306"/>
<polygon fill="#191970" stroke="#191970" points="732.1771,-337.5386 730.6461,-327.055 725.3053,-336.2052 732.1771,-337.5386"/>
</g>
<!-- Node24 -->
<g id="node25" class="node">
<title>Node24</title>
<g id="a_node25"><a xlink:href="_airfoil_table_i_8_h.html" target="_top" xlink:title="amr&#45;wind/wind_energy\l/actuator/aero/AirfoilTableI.H">
<polygon fill="#ffffff" stroke="#000000" points="776.5,-302.5 776.5,-332.5 918.5,-332.5 918.5,-302.5 776.5,-302.5"/>
<text text-anchor="start" x="784.5" y="-320.5" font-family="Helvetica,sans-Serif" font-size="10.00" fill="#000000">amr&#45;wind/wind_energy</text>
<text text-anchor="middle" x="847.5" y="-309.5" font-family="Helvetica,sans-Serif" font-size="10.00" fill="#000000">/actuator/aero/AirfoilTableI.H</text>
</a>
</g>
</g>
<!-- Node21&#45;&gt;Node24 -->
<g id="edge37" class="edge">
<title>Node21&#45;&gt;Node24</title>
<path fill="none" stroke="#191970" d="M742.4852,-369.4639C759.4773,-359.9619 782.9767,-347.5779 803.4861,-337.283"/>
<polygon fill="#191970" stroke="#191970" points="805.2698,-340.3049 812.6648,-332.7177 802.1524,-334.0373 805.2698,-340.3049"/>
</g>
<!-- Node24&#45;&gt;Node20 -->
<g id="edge39" class="edge">
<title>Node24&#45;&gt;Node20</title>
<path fill="none" stroke="#191970" d="M843.6424,-302.2967C841.1995,-292.6685 838.0185,-280.1318 835.398,-269.8038"/>
<polygon fill="#191970" stroke="#191970" points="838.7764,-268.887 832.9244,-260.055 831.9914,-270.6086 838.7764,-268.887"/>
</g>
<!-- Node24&#45;&gt;Node21 -->
<g id="edge38" class="edge">
<title>Node24&#45;&gt;Node21</title>
<path fill="none" stroke="#191970" d="M824.1899,-332.7177C807.1153,-342.2561 783.5939,-354.645 763.123,-364.9132"/>
<polygon fill="#191970" stroke="#191970" points="761.3636,-361.8791 753.9662,-369.4639 764.479,-368.1477 761.3636,-361.8791"/>
</g>
</g>
</svg>
        <g id="navigator" transform="translate(0 0)" fill="#404254">
                <rect fill="#f2f5e9" fill-opacity="0.5" stroke="#606060" stroke-width=".5" x="0" y="0" width="60" height="60"/>
                <use id="zoomplus" xlink:href="#zoomPlus" x="17" y="9" onmousedown="handleZoom(evt,'in')"/>
                <use id="zoomminus" xlink:href="#zoomMin" x="42" y="9" onmousedown="handleZoom(evt,'out')"/>
                <use id="reset" xlink:href="#resetDef" x="30" y="36" onmousedown="handleReset()"/>
                <g id="arrowUp" xlink:href="#dirArrow" transform="translate(30 24)" onmousedown="handlePan(0,-1)">
                  <use xlink:href="#rim" fill="#404040">
                        <set attributeName="fill" to="#808080" begin="arrowUp.mouseover" end="arrowUp.mouseout"/>
                  </use>
                  <path fill="none" stroke="white" stroke-width="1.5" d="M0,-3.0v7 M-2.5,-0.5L0,-3.0L2.5,-0.5"/>
                </g>
                <g id="arrowRight" xlink:href="#dirArrow" transform="rotate(90) translate(36 -43)" onmousedown="handlePan(1,0)">
                  <use xlink:href="#rim" fill="#404040">
                        <set attributeName="fill" to="#808080" begin="arrowRight.mouseover" end="arrowRight.mouseout"/>
                  </use>
                  <path fill="none" stroke="white" stroke-width="1.5" d="M0,-3.0v7 M-2.5,-0.5L0,-3.0L2.5,-0.5"/>
                </g>
                <g id="arrowDown" xlink:href="#dirArrow" transform="rotate(180) translate(-30 -48)" onmousedown="handlePan(0,1)">
                  <use xlink:href="#rim" fill="#404040">
                        <set attributeName="fill" to="#808080" begin="arrowDown.mouseover" end="arrowDown.mouseout"/>
                  </use>
                  <path fill="none" stroke="white" stroke-width="1.5" d="M0,-3.0v7 M-2.5,-0.5L0,-3.0L2.5,-0.5"/>
                </g>
                <g id="arrowLeft" xlink:href="#dirArrow" transform="rotate(270) translate(-36 17)" onmousedown="handlePan(-1,0)">
                  <use xlink:href="#rim" fill="#404040">
                        <set attributeName="fill" to="#808080" begin="arrowLeft.mouseover" end="arrowLeft.mouseout"/>
                  </use>
                  <path fill="none" stroke="white" stroke-width="1.5" d="M0,-3.0v7 M-2.5,-0.5L0,-3.0L2.5,-0.5"/>
                </g>
        </g>
        <svg viewBox="0 0 15 15" width="100%" height="30px" preserveAspectRatio="xMaxYMin meet">
         <g id="arrow_out" transform="scale(0.3 0.3)">
          <a xlink:href="_flat_plate_8_h__incl_org.svg" target="_base">
           <rect id="button" ry="5" rx="5" y="6" x="6" height="38" width="38"
                fill="#f2f5e9" fill-opacity="0.5" stroke="#606060" stroke-width="1.0"/>
           <path id="arrow"
             d="M 11.500037,31.436501 C 11.940474,20.09759 22.043105,11.32322 32.158766,21.979434 L 37.068811,17.246167 C 37.068811,17.246167 37.088388,32 37.088388,32 L 22.160133,31.978069 C 22.160133,31.978069 26.997745,27.140456 26.997745,27.140456 C 18.528582,18.264221 13.291696,25.230495 11.500037,31.436501 z"
             style="fill:#404040;"/>
          </a>
         </g>
        </svg>
</svg>
