<?xml version="1.0" encoding="UTF-8" standalone="no"?>
<!DOCTYPE svg PUBLIC "-//W3C//DTD SVG 1.1//EN"
 "http://www.w3.org/Graphics/SVG/1.1/DTD/svg11.dtd">
<!-- Generated by graphviz version 2.40.1 (20161225.0304)
 -->
<!-- Title: FlatPlate.H Pages: 1 -->
<svg width="125pt" height="140pt"
 viewBox="0.00 0.00 125.00 140.00" xmlns="http://www.w3.org/2000/svg" xmlns:xlink="http://www.w3.org/1999/xlink">
<g id="graph0" class="graph" transform="scale(1 1) rotate(0) translate(4 136)">
<title>FlatPlate.H</title>
<polygon fill="#ffffff" stroke="transparent" points="-4,4 -4,-136 121,-136 121,4 -4,4"/>
<!-- Node25 -->
<g id="node1" class="node">
<title>Node25</title>
<polygon fill="#bfbfbf" stroke="#000000" points="47,-112.5 47,-131.5 113,-131.5 113,-112.5 47,-112.5"/>
<text text-anchor="middle" x="80" y="-119.5" font-family="Helvetica,sans-Serif" font-size="10.00" fill="#000000">FlatPlate.H</text>
</g>
<!-- Node26 -->
<g id="node2" class="node">
<title>Node26</title>
<g id="a_node2"><a xlink:href="flat__plate__ops_8_h.html" target="_top" xlink:title="flat_plate_ops.H">
<polygon fill="#ffffff" stroke="#000000" points="0,-56.5 0,-75.5 88,-75.5 88,-56.5 0,-56.5"/>
<text text-anchor="middle" x="44" y="-63.5" font-family="Helvetica,sans-Serif" font-size="10.00" fill="#000000">flat_plate_ops.H</text>
</a>
</g>
</g>
<!-- Node25&#45;&gt;Node26 -->
<g id="edge1" class="edge">
<title>Node25&#45;&gt;Node26</title>
<path fill="none" stroke="#191970" d="M68.1904,-103.6296C62.1856,-94.2887 55.1341,-83.3197 50.1989,-75.6427"/>
<polygon fill="#191970" stroke="#191970" points="65.3775,-105.7264 73.7293,-112.2455 71.2658,-101.9411 65.3775,-105.7264"/>
</g>
<!-- Node27 -->
<g id="node3" class="node">
<title>Node27</title>
<g id="a_node3"><a xlink:href="_flat_plate_8cpp.html" target="_top" xlink:title="FlatPlate.cpp">
<polygon fill="#ffffff" stroke="#000000" points="43,-.5 43,-19.5 117,-19.5 117,-.5 43,-.5"/>
<text text-anchor="middle" x="80" y="-7.5" font-family="Helvetica,sans-Serif" font-size="10.00" fill="#000000">FlatPlate.cpp</text>
</a>
</g>
</g>
<!-- Node25&#45;&gt;Node27 -->
<g id="edge3" class="edge">
<title>Node25&#45;&gt;Node27</title>
<path fill="none" stroke="#191970" d="M89.4206,-102.9037C94.7629,-89.814 99.8604,-71.9916 97,-56 94.6614,-42.9256 88.8602,-28.7041 84.6849,-19.5885"/>
<polygon fill="#191970" stroke="#191970" points="86.1229,-101.7041 85.231,-112.2613 92.5118,-104.5645 86.1229,-101.7041"/>
</g>
<!-- Node26&#45;&gt;Node27 -->
<g id="edge2" class="edge">
<title>Node26&#45;&gt;Node27</title>
<path fill="none" stroke="#191970" d="M55.8096,-47.6296C61.8144,-38.2887 68.8659,-27.3197 73.8011,-19.6427"/>
<polygon fill="#191970" stroke="#191970" points="52.7342,-45.9411 50.2707,-56.2455 58.6225,-49.7264 52.7342,-45.9411"/>
</g>
</g>
</svg>
