<?xml version="1.0" encoding="UTF-8" standalone="no"?>
<!DOCTYPE svg PUBLIC "-//W3C//DTD SVG 1.1//EN"
 "http://www.w3.org/Graphics/SVG/1.1/DTD/svg11.dtd">
<!-- Generated by graphviz version 2.40.1 (20161225.0304)
 -->
<!-- Title: FreeStream.H Pages: 1 -->
<svg width="1357pt" height="207pt"
 viewBox="0.00 0.00 1356.50 207.00" xmlns="http://www.w3.org/2000/svg" xmlns:xlink="http://www.w3.org/1999/xlink">
<g id="graph0" class="graph" transform="scale(1 1) rotate(0) translate(4 203)">
<title>FreeStream.H</title>
<polygon fill="#ffffff" stroke="transparent" points="-4,4 -4,-203 1352.5,-203 1352.5,4 -4,4"/>
<!-- Node0 -->
<g id="node1" class="node">
<title>Node0</title>
<polygon fill="#bfbfbf" stroke="#000000" points="292,-179.5 292,-198.5 370,-198.5 370,-179.5 292,-179.5"/>
<text text-anchor="middle" x="331" y="-186.5" font-family="Helvetica,sans-Serif" font-size="10.00" fill="#000000">FreeStream.H</text>
</g>
<!-- Node1 -->
<g id="node2" class="node">
<title>Node1</title>
<g id="a_node2"><a xlink:href="_physics_8_h.html" target="_top" xlink:title="amr&#45;wind/core/Physics.H">
<polygon fill="#ffffff" stroke="#000000" points="406.5,-118 406.5,-137 533.5,-137 533.5,-118 406.5,-118"/>
<text text-anchor="middle" x="470" y="-125" font-family="Helvetica,sans-Serif" font-size="10.00" fill="#000000">amr&#45;wind/core/Physics.H</text>
</a>
</g>
</g>
<!-- Node0&#45;&gt;Node1 -->
<g id="edge1" class="edge">
<title>Node0&#45;&gt;Node1</title>
<path fill="none" stroke="#191970" d="M352.7188,-179.3906C375.874,-169.1457 412.7441,-152.8326 438.9591,-141.2339"/>
<polygon fill="#191970" stroke="#191970" points="440.705,-144.2888 448.4338,-137.0419 437.8727,-137.8874 440.705,-144.2888"/>
</g>
<!-- Node3 -->
<g id="node4" class="node">
<title>Node3</title>
<polygon fill="#ffffff" stroke="#bfbfbf" points="496,-.5 496,-19.5 548,-19.5 548,-.5 496,-.5"/>
<text text-anchor="middle" x="522" y="-7.5" font-family="Helvetica,sans-Serif" font-size="10.00" fill="#000000">memory</text>
</g>
<!-- Node0&#45;&gt;Node3 -->
<g id="edge34" class="edge">
<title>Node0&#45;&gt;Node3</title>
<path fill="none" stroke="#191970" d="M307.2141,-179.4178C292.1331,-171.9442 273.8538,-159.9629 265,-143 247.1084,-108.7217 240.1838,-85.6524 265,-56 279.0484,-39.2138 418.2199,-21.5696 485.6916,-13.9195"/>
<polygon fill="#191970" stroke="#191970" points="486.3262,-17.3704 495.8746,-12.7791 485.5472,-10.4138 486.3262,-17.3704"/>
</g>
<!-- Node4 -->
<g id="node5" class="node">
<title>Node4</title>
<polygon fill="#ffffff" stroke="#bfbfbf" points="330.5,-.5 330.5,-19.5 413.5,-19.5 413.5,-.5 330.5,-.5"/>
<text text-anchor="middle" x="372" y="-7.5" font-family="Helvetica,sans-Serif" font-size="10.00" fill="#000000">unordered_map</text>
</g>
<!-- Node0&#45;&gt;Node4 -->
<g id="edge33" class="edge">
<title>Node0&#45;&gt;Node4</title>
<path fill="none" stroke="#191970" d="M291.9119,-181.7407C269.9803,-175.4528 244.4024,-163.9175 231,-143 210.1398,-110.4429 208.291,-87.2956 231,-56 241.8509,-41.0462 284.8451,-28.4026 320.5351,-20.1782"/>
<polygon fill="#191970" stroke="#191970" points="321.3801,-23.5758 330.3751,-17.9775 319.8522,-16.7446 321.3801,-23.5758"/>
</g>
<!-- Node13 -->
<g id="node14" class="node">
<title>Node13</title>
<g id="a_node14"><a xlink:href="_field_8_h.html" target="_top" xlink:title="amr&#45;wind/core/Field.H">
<polygon fill="#ffffff" stroke="#000000" points="808.5,-118 808.5,-137 921.5,-137 921.5,-118 808.5,-118"/>
<text text-anchor="middle" x="865" y="-125" font-family="Helvetica,sans-Serif" font-size="10.00" fill="#000000">amr&#45;wind/core/Field.H</text>
</a>
</g>
</g>
<!-- Node0&#45;&gt;Node13 -->
<g id="edge15" class="edge">
<title>Node0&#45;&gt;Node13</title>
<path fill="none" stroke="#191970" d="M370.2663,-184.4778C460.8911,-174.0406 685.4945,-148.1734 798.2219,-135.1907"/>
<polygon fill="#191970" stroke="#191970" points="798.911,-138.6346 808.4449,-134.0134 798.1101,-131.6806 798.911,-138.6346"/>
</g>
<!-- Node20 -->
<g id="node21" class="node">
<title>Node20</title>
<g id="a_node21"><a xlink:href="_u_d_f_8_h.html" target="_top" xlink:title="amr&#45;wind/physics/udfs\l/UDF.H">
<polygon fill="#ffffff" stroke="#000000" points="273.5,-112.5 273.5,-142.5 388.5,-142.5 388.5,-112.5 273.5,-112.5"/>
<text text-anchor="start" x="281.5" y="-130.5" font-family="Helvetica,sans-Serif" font-size="10.00" fill="#000000">amr&#45;wind/physics/udfs</text>
<text text-anchor="middle" x="331" y="-119.5" font-family="Helvetica,sans-Serif" font-size="10.00" fill="#000000">/UDF.H</text>
</a>
</g>
</g>
<!-- Node0&#45;&gt;Node20 -->
<g id="edge30" class="edge">
<title>Node0&#45;&gt;Node20</title>
<path fill="none" stroke="#191970" d="M331,-179.3906C331,-172.2234 331,-162.0862 331,-152.671"/>
<polygon fill="#191970" stroke="#191970" points="334.5001,-152.5446 331,-142.5446 327.5001,-152.5446 334.5001,-152.5446"/>
</g>
<!-- Node2 -->
<g id="node3" class="node">
<title>Node2</title>
<g id="a_node3"><a xlink:href="_factory_8_h.html" target="_top" xlink:title="amr&#45;wind/core/Factory.H">
<polygon fill="#ffffff" stroke="#000000" points="53.5,-56.5 53.5,-75.5 178.5,-75.5 178.5,-56.5 53.5,-56.5"/>
<text text-anchor="middle" x="116" y="-63.5" font-family="Helvetica,sans-Serif" font-size="10.00" fill="#000000">amr&#45;wind/core/Factory.H</text>
</a>
</g>
</g>
<!-- Node1&#45;&gt;Node2 -->
<g id="edge2" class="edge">
<title>Node1&#45;&gt;Node2</title>
<path fill="none" stroke="#191970" d="M427.4312,-117.9648C417.7732,-115.9049 407.5485,-113.8054 398,-112 327.0742,-98.5897 245.6668,-85.5623 188.6089,-76.8153"/>
<polygon fill="#191970" stroke="#191970" points="189.0161,-73.337 178.6023,-75.2869 187.9592,-80.2568 189.0161,-73.337"/>
</g>
<!-- Node8 -->
<g id="node9" class="node">
<title>Node8</title>
<g id="a_node9"><a xlink:href="_coll_mgr_8_h.html" target="_top" xlink:title="amr&#45;wind/core/CollMgr.H">
<polygon fill="#ffffff" stroke="#000000" points="543.5,-56.5 543.5,-75.5 668.5,-75.5 668.5,-56.5 543.5,-56.5"/>
<text text-anchor="middle" x="606" y="-63.5" font-family="Helvetica,sans-Serif" font-size="10.00" fill="#000000">amr&#45;wind/core/CollMgr.H</text>
</a>
</g>
</g>
<!-- Node1&#45;&gt;Node8 -->
<g id="edge8" class="edge">
<title>Node1&#45;&gt;Node8</title>
<path fill="none" stroke="#191970" d="M491.25,-117.8906C513.9055,-107.6457 549.9798,-91.3326 575.6291,-79.7339"/>
<polygon fill="#191970" stroke="#191970" points="577.2297,-82.8514 584.8992,-75.5419 574.3454,-76.4732 577.2297,-82.8514"/>
</g>
<!-- Node11 -->
<g id="node12" class="node">
<title>Node11</title>
<polygon fill="#ffffff" stroke="#bfbfbf" points="962,-.5 962,-19.5 1066,-19.5 1066,-.5 962,-.5"/>
<text text-anchor="middle" x="1014" y="-7.5" font-family="Helvetica,sans-Serif" font-size="10.00" fill="#000000">AMReX_MultiFab.H</text>
</g>
<!-- Node1&#45;&gt;Node11 -->
<g id="edge13" class="edge">
<title>Node1&#45;&gt;Node11</title>
<path fill="none" stroke="#191970" d="M511.8969,-117.9977C573.2978,-104.1172 691.359,-77.5993 792,-56 847.9928,-43.983 912.0486,-30.7669 956.9157,-21.5964"/>
<polygon fill="#191970" stroke="#191970" points="957.657,-25.0173 966.7546,-19.5873 956.2565,-18.1588 957.657,-25.0173"/>
</g>
<!-- Node12 -->
<g id="node13" class="node">
<title>Node12</title>
<polygon fill="#ffffff" stroke="#bfbfbf" points="377,-56.5 377,-75.5 487,-75.5 487,-56.5 377,-56.5"/>
<text text-anchor="middle" x="432" y="-63.5" font-family="Helvetica,sans-Serif" font-size="10.00" fill="#000000">AMReX_Geometry.H</text>
</g>
<!-- Node1&#45;&gt;Node12 -->
<g id="edge14" class="edge">
<title>Node1&#45;&gt;Node12</title>
<path fill="none" stroke="#191970" d="M464.0625,-117.8906C458.5733,-109.0068 450.2647,-95.5601 443.481,-84.5811"/>
<polygon fill="#191970" stroke="#191970" points="446.2551,-82.4122 438.0212,-75.7449 440.3002,-86.0917 446.2551,-82.4122"/>
</g>
<!-- Node2&#45;&gt;Node3 -->
<g id="edge3" class="edge">
<title>Node2&#45;&gt;Node3</title>
<path fill="none" stroke="#191970" d="M178.5477,-57.3727C264.4464,-45.5246 416.1544,-24.5994 485.5313,-15.0302"/>
<polygon fill="#191970" stroke="#191970" points="486.1167,-18.4826 495.5447,-13.649 485.1602,-11.5483 486.1167,-18.4826"/>
</g>
<!-- Node2&#45;&gt;Node4 -->
<g id="edge4" class="edge">
<title>Node2&#45;&gt;Node4</title>
<path fill="none" stroke="#191970" d="M159.7171,-56.4369C204.1537,-46.7164 272.9865,-31.6592 320.1487,-21.3425"/>
<polygon fill="#191970" stroke="#191970" points="321.1411,-24.7082 330.1621,-19.152 319.6452,-17.8699 321.1411,-24.7082"/>
</g>
<!-- Node5 -->
<g id="node6" class="node">
<title>Node5</title>
<polygon fill="#ffffff" stroke="#bfbfbf" points="0,-.5 0,-19.5 54,-19.5 54,-.5 0,-.5"/>
<text text-anchor="middle" x="27" y="-7.5" font-family="Helvetica,sans-Serif" font-size="10.00" fill="#000000">iostream</text>
</g>
<!-- Node2&#45;&gt;Node5 -->
<g id="edge5" class="edge">
<title>Node2&#45;&gt;Node5</title>
<path fill="none" stroke="#191970" d="M100.4974,-56.2455C86.842,-47.6534 66.7343,-35.0014 51.0011,-25.1018"/>
<polygon fill="#191970" stroke="#191970" points="52.6529,-22.006 42.325,-19.6427 48.9249,-27.9307 52.6529,-22.006"/>
</g>
<!-- Node6 -->
<g id="node7" class="node">
<title>Node6</title>
<polygon fill="#ffffff" stroke="#bfbfbf" points="72.5,-.5 72.5,-19.5 159.5,-19.5 159.5,-.5 72.5,-.5"/>
<text text-anchor="middle" x="116" y="-7.5" font-family="Helvetica,sans-Serif" font-size="10.00" fill="#000000">AMReX_Print.H</text>
</g>
<!-- Node2&#45;&gt;Node6 -->
<g id="edge6" class="edge">
<title>Node2&#45;&gt;Node6</title>
<path fill="none" stroke="#191970" d="M116,-56.2455C116,-48.9382 116,-38.6944 116,-29.7046"/>
<polygon fill="#191970" stroke="#191970" points="119.5001,-29.6426 116,-19.6427 112.5001,-29.6427 119.5001,-29.6426"/>
</g>
<!-- Node7 -->
<g id="node8" class="node">
<title>Node7</title>
<polygon fill="#ffffff" stroke="#bfbfbf" points="178,-.5 178,-19.5 240,-19.5 240,-.5 178,-.5"/>
<text text-anchor="middle" x="209" y="-7.5" font-family="Helvetica,sans-Serif" font-size="10.00" fill="#000000">AMReX.H</text>
</g>
<!-- Node2&#45;&gt;Node7 -->
<g id="edge7" class="edge">
<title>Node2&#45;&gt;Node7</title>
<path fill="none" stroke="#191970" d="M132.1994,-56.2455C146.6018,-47.5731 167.8732,-34.7645 184.3799,-24.825"/>
<polygon fill="#191970" stroke="#191970" points="186.225,-27.7996 192.9863,-19.6427 182.614,-21.8028 186.225,-27.7996"/>
</g>
<!-- Node8&#45;&gt;Node3 -->
<g id="edge10" class="edge">
<title>Node8&#45;&gt;Node3</title>
<path fill="none" stroke="#191970" d="M591.3683,-56.2455C578.6006,-47.7337 559.8562,-35.2375 545.0701,-25.3801"/>
<polygon fill="#191970" stroke="#191970" points="546.726,-22.2775 536.464,-19.6427 542.8431,-28.1019 546.726,-22.2775"/>
</g>
<!-- Node8&#45;&gt;Node4 -->
<g id="edge11" class="edge">
<title>Node8&#45;&gt;Node4</title>
<path fill="none" stroke="#191970" d="M566.0398,-56.4369C526.1608,-46.8932 464.7861,-32.2052 421.7672,-21.9101"/>
<polygon fill="#191970" stroke="#191970" points="422.3354,-18.4473 411.7953,-19.5237 420.7061,-25.2551 422.3354,-18.4473"/>
</g>
<!-- Node9 -->
<g id="node10" class="node">
<title>Node9</title>
<polygon fill="#ffffff" stroke="#bfbfbf" points="752.5,-.5 752.5,-19.5 793.5,-19.5 793.5,-.5 752.5,-.5"/>
<text text-anchor="middle" x="773" y="-7.5" font-family="Helvetica,sans-Serif" font-size="10.00" fill="#000000">string</text>
</g>
<!-- Node8&#45;&gt;Node9 -->
<g id="edge9" class="edge">
<title>Node8&#45;&gt;Node9</title>
<path fill="none" stroke="#191970" d="M634.7083,-56.3733C664.7037,-46.3149 711.5881,-30.5932 742.3047,-20.293"/>
<polygon fill="#191970" stroke="#191970" points="743.6857,-23.5216 752.054,-17.0238 741.4601,-16.8848 743.6857,-23.5216"/>
</g>
<!-- Node10 -->
<g id="node11" class="node">
<title>Node10</title>
<polygon fill="#ffffff" stroke="#bfbfbf" points="598.5,-.5 598.5,-19.5 693.5,-19.5 693.5,-.5 598.5,-.5"/>
<text text-anchor="middle" x="646" y="-7.5" font-family="Helvetica,sans-Serif" font-size="10.00" fill="#000000">AMReX_Vector.H</text>
</g>
<!-- Node8&#45;&gt;Node10 -->
<g id="edge12" class="edge">
<title>Node8&#45;&gt;Node10</title>
<path fill="none" stroke="#191970" d="M612.9675,-56.2455C618.5311,-48.4564 626.478,-37.3308 633.1829,-27.9439"/>
<polygon fill="#191970" stroke="#191970" points="636.148,-29.8144 639.1124,-19.6427 630.4519,-25.7457 636.148,-29.8144"/>
</g>
<!-- Node13&#45;&gt;Node3 -->
<g id="edge17" class="edge">
<title>Node13&#45;&gt;Node3</title>
<path fill="none" stroke="#191970" d="M841.8904,-117.991C806.781,-103.6981 737.7627,-76.2017 678,-56 637.2084,-42.2111 589.6592,-28.5272 557.878,-19.716"/>
<polygon fill="#191970" stroke="#191970" points="558.7125,-16.3156 548.142,-17.0325 556.8525,-23.0639 558.7125,-16.3156"/>
</g>
<!-- Node13&#45;&gt;Node4 -->
<g id="edge18" class="edge">
<title>Node13&#45;&gt;Node4</title>
<path fill="none" stroke="#191970" d="M808.2626,-124.1507C741.4843,-118.9618 627.9177,-106.2085 535,-76 516.4748,-69.9773 513.8297,-63.8458 496,-56 467.9232,-43.6451 435.3815,-31.6579 410.6811,-23.0193"/>
<polygon fill="#191970" stroke="#191970" points="411.545,-19.6145 400.9503,-19.6471 409.2529,-26.2286 411.545,-19.6145"/>
</g>
<!-- Node13&#45;&gt;Node9 -->
<g id="edge16" class="edge">
<title>Node13&#45;&gt;Node9</title>
<path fill="none" stroke="#191970" d="M844.4229,-117.8992C827.9283,-109.1875 805.3967,-94.8308 792,-76 782.2918,-62.3538 777.5171,-43.8147 775.1847,-29.8593"/>
<polygon fill="#191970" stroke="#191970" points="778.6342,-29.2536 773.7902,-19.831 771.7009,-30.2178 778.6342,-29.2536"/>
</g>
<!-- Node13&#45;&gt;Node11 -->
<g id="edge20" class="edge">
<title>Node13&#45;&gt;Node11</title>
<path fill="none" stroke="#191970" d="M921.7275,-122.4646C981.3508,-115.8587 1069.3329,-101.932 1090,-76 1106.514,-55.279 1076.806,-35.9509 1049.8355,-23.6344"/>
<polygon fill="#191970" stroke="#191970" points="1051.057,-20.3492 1040.4902,-19.5796 1048.2707,-26.7708 1051.057,-20.3492"/>
</g>
<!-- Node14 -->
<g id="node15" class="node">
<title>Node14</title>
<polygon fill="#ffffff" stroke="#bfbfbf" points="1137,-56.5 1137,-75.5 1193,-75.5 1193,-56.5 1137,-56.5"/>
<text text-anchor="middle" x="1165" y="-63.5" font-family="Helvetica,sans-Serif" font-size="10.00" fill="#000000">algorithm</text>
</g>
<!-- Node13&#45;&gt;Node14 -->
<g id="edge19" class="edge">
<title>Node13&#45;&gt;Node14</title>
<path fill="none" stroke="#191970" d="M915.5399,-117.9804C967.6377,-108.034 1051.1619,-91.7165 1123,-76 1124.2356,-75.7297 1125.4909,-75.4515 1126.7578,-75.1678"/>
<polygon fill="#191970" stroke="#191970" points="1127.6008,-78.5654 1136.5659,-72.9193 1126.0366,-71.7424 1127.6008,-78.5654"/>
</g>
<!-- Node15 -->
<g id="node16" class="node">
<title>Node15</title>
<polygon fill="#ffffff" stroke="#bfbfbf" points="1249.5,-56.5 1249.5,-75.5 1348.5,-75.5 1348.5,-56.5 1249.5,-56.5"/>
<text text-anchor="middle" x="1299" y="-63.5" font-family="Helvetica,sans-Serif" font-size="10.00" fill="#000000">AMReX_BCRec.H</text>
</g>
<!-- Node13&#45;&gt;Node15 -->
<g id="edge21" class="edge">
<title>Node13&#45;&gt;Node15</title>
<path fill="none" stroke="#191970" d="M921.773,-119.8974C994.4302,-110.0989 1124.1649,-92.3713 1235,-76 1236.4602,-75.7843 1237.9389,-75.5645 1239.4303,-75.3414"/>
<polygon fill="#191970" stroke="#191970" points="1240.0341,-78.79 1249.3982,-73.8339 1238.9873,-71.8687 1240.0341,-78.79"/>
</g>
<!-- Node16 -->
<g id="node17" class="node">
<title>Node16</title>
<polygon fill="#ffffff" stroke="#bfbfbf" points="273.5,-56.5 273.5,-75.5 358.5,-75.5 358.5,-56.5 273.5,-56.5"/>
<text text-anchor="middle" x="316" y="-63.5" font-family="Helvetica,sans-Serif" font-size="10.00" fill="#000000">AMReX_Gpu.H</text>
</g>
<!-- Node13&#45;&gt;Node16 -->
<g id="edge22" class="edge">
<title>Node13&#45;&gt;Node16</title>
<path fill="none" stroke="#191970" d="M808.1532,-123.2235C717.5091,-116.0502 534.4649,-100.1167 368.8918,-76.0122"/>
<polygon fill="#191970" stroke="#191970" points="368.9186,-72.4787 358.5159,-74.4875 367.9008,-79.4043 368.9186,-72.4787"/>
</g>
<!-- Node17 -->
<g id="node18" class="node">
<title>Node17</title>
<g id="a_node18"><a xlink:href="incflo__enums_8_h.html" target="_top" xlink:title="amr&#45;wind/incflo_enums.H">
<polygon fill="#ffffff" stroke="#000000" points="801,-56.5 801,-75.5 929,-75.5 929,-56.5 801,-56.5"/>
<text text-anchor="middle" x="865" y="-63.5" font-family="Helvetica,sans-Serif" font-size="10.00" fill="#000000">amr&#45;wind/incflo_enums.H</text>
</a>
</g>
</g>
<!-- Node13&#45;&gt;Node17 -->
<g id="edge23" class="edge">
<title>Node13&#45;&gt;Node17</title>
<path fill="none" stroke="#191970" d="M865,-117.8906C865,-109.3657 865,-96.6392 865,-85.9235"/>
<polygon fill="#191970" stroke="#191970" points="868.5001,-85.7448 865,-75.7449 861.5001,-85.7449 868.5001,-85.7448"/>
</g>
<!-- Node18 -->
<g id="node19" class="node">
<title>Node18</title>
<g id="a_node19"><a xlink:href="_field_desc_types_8_h.html" target="_top" xlink:title="amr&#45;wind/core/FieldDescTypes.H">
<polygon fill="#ffffff" stroke="#000000" points="1111.5,-.5 1111.5,-19.5 1274.5,-19.5 1274.5,-.5 1111.5,-.5"/>
<text text-anchor="middle" x="1193" y="-7.5" font-family="Helvetica,sans-Serif" font-size="10.00" fill="#000000">amr&#45;wind/core/FieldDescTypes.H</text>
</a>
</g>
</g>
<!-- Node13&#45;&gt;Node18 -->
<g id="edge24" class="edge">
<title>Node13&#45;&gt;Node18</title>
<path fill="none" stroke="#191970" d="M921.686,-122.8352C1012.9226,-114.7476 1183.9971,-96.9631 1202,-76 1212.913,-63.2926 1208.5958,-43.8365 1202.7893,-29.3365"/>
<polygon fill="#191970" stroke="#191970" points="1205.7987,-27.4961 1198.4945,-19.8215 1199.4185,-30.376 1205.7987,-27.4961"/>
</g>
<!-- Node19 -->
<g id="node20" class="node">
<title>Node19</title>
<g id="a_node20"><a xlink:href="_view_field_8_h.html" target="_top" xlink:title="amr&#45;wind/core/ViewField.H">
<polygon fill="#ffffff" stroke="#000000" points="947,-56.5 947,-75.5 1081,-75.5 1081,-56.5 947,-56.5"/>
<text text-anchor="middle" x="1014" y="-63.5" font-family="Helvetica,sans-Serif" font-size="10.00" fill="#000000">amr&#45;wind/core/ViewField.H</text>
</a>
</g>
</g>
<!-- Node13&#45;&gt;Node19 -->
<g id="edge25" class="edge">
<title>Node13&#45;&gt;Node19</title>
<path fill="none" stroke="#191970" d="M888.2813,-117.8906C913.321,-107.5554 953.3225,-91.0447 981.466,-79.4284"/>
<polygon fill="#191970" stroke="#191970" points="982.974,-82.5925 990.8822,-75.5419 980.3033,-76.122 982.974,-82.5925"/>
</g>
<!-- Node19&#45;&gt;Node9 -->
<g id="edge26" class="edge">
<title>Node19&#45;&gt;Node9</title>
<path fill="none" stroke="#191970" d="M972.8445,-56.4369C924.7798,-45.2683 846.3964,-27.0548 803.4728,-17.0808"/>
<polygon fill="#191970" stroke="#191970" points="804.1482,-13.6446 793.6155,-14.7903 802.5638,-20.4629 804.1482,-13.6446"/>
</g>
<!-- Node19&#45;&gt;Node10 -->
<g id="edge29" class="edge">
<title>Node19&#45;&gt;Node10</title>
<path fill="none" stroke="#191970" d="M951.1567,-56.4369C881.7418,-45.8737 770.914,-29.0086 703.651,-18.773"/>
<polygon fill="#191970" stroke="#191970" points="704.0609,-15.2951 693.6481,-17.2508 703.0077,-22.2155 704.0609,-15.2951"/>
</g>
<!-- Node19&#45;&gt;Node11 -->
<g id="edge28" class="edge">
<title>Node19&#45;&gt;Node11</title>
<path fill="none" stroke="#191970" d="M1014,-56.2455C1014,-48.9382 1014,-38.6944 1014,-29.7046"/>
<polygon fill="#191970" stroke="#191970" points="1017.5001,-29.6426 1014,-19.6427 1010.5001,-29.6427 1017.5001,-29.6426"/>
</g>
<!-- Node19&#45;&gt;Node18 -->
<g id="edge27" class="edge">
<title>Node19&#45;&gt;Node18</title>
<path fill="none" stroke="#191970" d="M1044.7712,-56.3733C1074.665,-47.021 1120.2093,-32.7725 1152.9217,-22.5385"/>
<polygon fill="#191970" stroke="#191970" points="1154.1315,-25.8273 1162.6303,-19.5011 1152.0414,-19.1466 1154.1315,-25.8273"/>
</g>
<!-- Node20&#45;&gt;Node2 -->
<g id="edge31" class="edge">
<title>Node20&#45;&gt;Node2</title>
<path fill="none" stroke="#191970" d="M278.4051,-112.4554C241.7451,-101.9689 193.44,-88.1515 159.0652,-78.3187"/>
<polygon fill="#191970" stroke="#191970" points="159.8944,-74.9155 149.3174,-75.5303 157.9692,-81.6456 159.8944,-74.9155"/>
</g>
<!-- Node20&#45;&gt;Node16 -->
<g id="edge32" class="edge">
<title>Node20&#45;&gt;Node16</title>
<path fill="none" stroke="#191970" d="M327.2921,-112.2977C325.3401,-104.2945 322.923,-94.3843 320.8266,-85.7889"/>
<polygon fill="#191970" stroke="#191970" points="324.1716,-84.7328 318.4017,-75.8469 317.371,-86.3915 324.1716,-84.7328"/>
</g>
</g>
</svg>
