<?xml version="1.0" encoding="UTF-8" standalone="no"?>
<!DOCTYPE svg PUBLIC "-//W3C//DTD SVG 1.1//EN"
 "http://www.w3.org/Graphics/SVG/1.1/DTD/svg11.dtd">
<!-- Generated by graphviz version 2.40.1 (20161225.0304)
 -->
<!-- Title: FreeStream.cpp Pages: 1 -->
<svg width="2380pt" height="341pt"
 viewBox="0.00 0.00 2380.08 341.00" xmlns="http://www.w3.org/2000/svg" xmlns:xlink="http://www.w3.org/1999/xlink">
<g id="graph0" class="graph" transform="scale(1 1) rotate(0) translate(4 337)">
<title>FreeStream.cpp</title>
<polygon fill="#ffffff" stroke="transparent" points="-4,4 -4,-337 2376.0767,-337 2376.0767,4 -4,4"/>
<!-- Node0 -->
<g id="node1" class="node">
<title>Node0</title>
<polygon fill="#bfbfbf" stroke="#000000" points="647.5,-313.5 647.5,-332.5 733.5,-332.5 733.5,-313.5 647.5,-313.5"/>
<text text-anchor="middle" x="690.5" y="-320.5" font-family="Helvetica,sans-Serif" font-size="10.00" fill="#000000">FreeStream.cpp</text>
</g>
<!-- Node1 -->
<g id="node2" class="node">
<title>Node1</title>
<g id="a_node2"><a xlink:href="_free_stream_8_h.html" target="_top" xlink:title="amr&#45;wind/physics/FreeStream.H">
<polygon fill="#ffffff" stroke="#000000" points="251.5,-196 251.5,-215 409.5,-215 409.5,-196 251.5,-196"/>
<text text-anchor="middle" x="330.5" y="-203" font-family="Helvetica,sans-Serif" font-size="10.00" fill="#000000">amr&#45;wind/physics/FreeStream.H</text>
</a>
</g>
</g>
<!-- Node0&#45;&gt;Node1 -->
<g id="edge1" class="edge">
<title>Node0&#45;&gt;Node1</title>
<path fill="none" stroke="#191970" d="M661.3446,-313.484C596.8369,-292.4294 442.0027,-241.8932 369.3623,-218.1842"/>
<polygon fill="#191970" stroke="#191970" points="370.2683,-214.7983 359.6759,-215.0227 368.0963,-221.4528 370.2683,-214.7983"/>
</g>
<!-- Node21 -->
<g id="node22" class="node">
<title>Node21</title>
<g id="a_node22"><a xlink:href="_u_d_f_8_h.html" target="_top" xlink:title="amr&#45;wind/physics/udfs\l/UDF.H">
<polygon fill="#ffffff" stroke="#000000" points="84,-123.5 84,-153.5 199,-153.5 199,-123.5 84,-123.5"/>
<text text-anchor="start" x="92" y="-141.5" font-family="Helvetica,sans-Serif" font-size="10.00" fill="#000000">amr&#45;wind/physics/udfs</text>
<text text-anchor="middle" x="141.5" y="-130.5" font-family="Helvetica,sans-Serif" font-size="10.00" fill="#000000">/UDF.H</text>
</a>
</g>
</g>
<!-- Node0&#45;&gt;Node21 -->
<g id="edge79" class="edge">
<title>Node0&#45;&gt;Node21</title>
<path fill="none" stroke="#191970" d="M647.2543,-319.7892C564.6949,-312.261 380.5626,-288.6667 242.5,-221 211.7661,-205.9368 182.1104,-179.8953 162.9766,-161.0938"/>
<polygon fill="#191970" stroke="#191970" points="165.2295,-158.3961 155.6919,-153.7825 160.2707,-163.3369 165.2295,-158.3961"/>
</g>
<!-- Node22 -->
<g id="node23" class="node">
<title>Node22</title>
<g id="a_node23"><a xlink:href="_c_f_d_sim_8_h.html" target="_top" xlink:title="amr&#45;wind/CFDSim.H">
<polygon fill="#ffffff" stroke="#000000" points="718.5,-257.5 718.5,-276.5 826.5,-276.5 826.5,-257.5 718.5,-257.5"/>
<text text-anchor="middle" x="772.5" y="-264.5" font-family="Helvetica,sans-Serif" font-size="10.00" fill="#000000">amr&#45;wind/CFDSim.H</text>
</a>
</g>
</g>
<!-- Node0&#45;&gt;Node22 -->
<g id="edge36" class="edge">
<title>Node0&#45;&gt;Node22</title>
<path fill="none" stroke="#191970" d="M704.7833,-313.2455C717.247,-304.7337 735.5451,-292.2375 749.9792,-282.3801"/>
<polygon fill="#191970" stroke="#191970" points="752.0962,-285.1726 758.3804,-276.6427 748.1485,-279.392 752.0962,-285.1726"/>
</g>
<!-- Node38 -->
<g id="node39" class="node">
<title>Node38</title>
<polygon fill="#ffffff" stroke="#bfbfbf" points="844.5,-257.5 844.5,-276.5 960.5,-276.5 960.5,-257.5 844.5,-257.5"/>
<text text-anchor="middle" x="902.5" y="-264.5" font-family="Helvetica,sans-Serif" font-size="10.00" fill="#000000">AMReX_ParmParse.H</text>
</g>
<!-- Node0&#45;&gt;Node38 -->
<g id="edge74" class="edge">
<title>Node0&#45;&gt;Node38</title>
<path fill="none" stroke="#191970" d="M726.9441,-313.3733C762.8069,-303.9001 817.6878,-289.4032 856.5282,-279.1435"/>
<polygon fill="#191970" stroke="#191970" points="857.757,-282.439 866.5315,-276.5011 855.9692,-275.6712 857.757,-282.439"/>
</g>
<!-- Node39 -->
<g id="node40" class="node">
<title>Node39</title>
<g id="a_node40"><a xlink:href="trig__ops_8_h.html" target="_top" xlink:title="Trigonometric utilities. ">
<polygon fill="#ffffff" stroke="#000000" points="769.5,-190.5 769.5,-220.5 859.5,-220.5 859.5,-190.5 769.5,-190.5"/>
<text text-anchor="start" x="777.5" y="-208.5" font-family="Helvetica,sans-Serif" font-size="10.00" fill="#000000">amr&#45;wind/utilities</text>
<text text-anchor="middle" x="814.5" y="-197.5" font-family="Helvetica,sans-Serif" font-size="10.00" fill="#000000">/trig_ops.H</text>
</a>
</g>
</g>
<!-- Node0&#45;&gt;Node39 -->
<g id="edge75" class="edge">
<title>Node0&#45;&gt;Node39</title>
<path fill="none" stroke="#191970" d="M690.8842,-313.3524C691.9211,-299.3962 695.7137,-273.4494 709.5,-257 722.6051,-241.3634 741.5996,-230.0675 759.841,-222.1138"/>
<polygon fill="#191970" stroke="#191970" points="761.346,-225.2797 769.2762,-218.2539 758.6955,-218.8009 761.346,-225.2797"/>
</g>
<!-- Node2 -->
<g id="node3" class="node">
<title>Node2</title>
<g id="a_node3"><a xlink:href="_physics_8_h.html" target="_top" xlink:title="amr&#45;wind/core/Physics.H">
<polygon fill="#ffffff" stroke="#000000" points="294,-129 294,-148 421,-148 421,-129 294,-129"/>
<text text-anchor="middle" x="357.5" y="-136" font-family="Helvetica,sans-Serif" font-size="10.00" fill="#000000">amr&#45;wind/core/Physics.H</text>
</a>
</g>
</g>
<!-- Node1&#45;&gt;Node2 -->
<g id="edge2" class="edge">
<title>Node1&#45;&gt;Node2</title>
<path fill="none" stroke="#191970" d="M334.3684,-195.9005C338.3784,-185.95 344.7539,-170.1292 349.797,-157.6147"/>
<polygon fill="#191970" stroke="#191970" points="353.1472,-158.6651 353.6387,-148.0817 346.6546,-156.0486 353.1472,-158.6651"/>
</g>
<!-- Node4 -->
<g id="node5" class="node">
<title>Node4</title>
<polygon fill="#ffffff" stroke="#bfbfbf" points="378.5,-.5 378.5,-19.5 430.5,-19.5 430.5,-.5 378.5,-.5"/>
<text text-anchor="middle" x="404.5" y="-7.5" font-family="Helvetica,sans-Serif" font-size="10.00" fill="#000000">memory</text>
</g>
<!-- Node1&#45;&gt;Node4 -->
<g id="edge35" class="edge">
<title>Node1&#45;&gt;Node4</title>
<path fill="none" stroke="#191970" d="M303.6546,-195.947C285.3459,-187.8586 262.4974,-174.297 251.5,-154 230.7506,-115.7045 225.5108,-90.9521 251.5,-56 265.469,-37.2134 327.5409,-23.2015 368.204,-15.8359"/>
<polygon fill="#191970" stroke="#191970" points="369.0466,-19.2416 378.2905,-14.0647 367.8359,-12.3471 369.0466,-19.2416"/>
</g>
<!-- Node5 -->
<g id="node6" class="node">
<title>Node5</title>
<polygon fill="#ffffff" stroke="#bfbfbf" points="570,-.5 570,-19.5 653,-19.5 653,-.5 570,-.5"/>
<text text-anchor="middle" x="611.5" y="-7.5" font-family="Helvetica,sans-Serif" font-size="10.00" fill="#000000">unordered_map</text>
</g>
<!-- Node1&#45;&gt;Node5 -->
<g id="edge34" class="edge">
<title>Node1&#45;&gt;Node5</title>
<path fill="none" stroke="#191970" d="M317.546,-195.7027C306.3912,-186.3819 291.0818,-171.2489 284.5,-154 268.9723,-113.3063 255.9271,-88.8736 284.5,-56 302.2717,-35.5533 472.0649,-20.223 559.7029,-13.6003"/>
<polygon fill="#191970" stroke="#191970" points="559.9994,-17.088 569.7118,-12.8549 559.4794,-10.1074 559.9994,-17.088"/>
</g>
<!-- Node14 -->
<g id="node15" class="node">
<title>Node14</title>
<g id="a_node15"><a xlink:href="_field_8_h.html" target="_top" xlink:title="amr&#45;wind/core/Field.H">
<polygon fill="#ffffff" stroke="#000000" points="1086,-129 1086,-148 1199,-148 1199,-129 1086,-129"/>
<text text-anchor="middle" x="1142.5" y="-136" font-family="Helvetica,sans-Serif" font-size="10.00" fill="#000000">amr&#45;wind/core/Field.H</text>
</a>
</g>
</g>
<!-- Node1&#45;&gt;Node14 -->
<g id="edge16" class="edge">
<title>Node1&#45;&gt;Node14</title>
<path fill="none" stroke="#191970" d="M409.7676,-200.4909C568.1089,-190.3602 918.6102,-167.2754 1038.5,-154 1050.5488,-152.6658 1063.3447,-150.9809 1075.6893,-149.2169"/>
<polygon fill="#191970" stroke="#191970" points="1076.5368,-152.6303 1085.9263,-147.7225 1075.5256,-145.7037 1076.5368,-152.6303"/>
</g>
<!-- Node1&#45;&gt;Node21 -->
<g id="edge31" class="edge">
<title>Node1&#45;&gt;Node21</title>
<path fill="none" stroke="#191970" d="M303.4209,-195.9005C274.8714,-185.7798 229.1914,-169.5864 193.6178,-156.9756"/>
<polygon fill="#191970" stroke="#191970" points="194.4696,-153.5642 183.8748,-153.5218 192.1307,-160.1619 194.4696,-153.5642"/>
</g>
<!-- Node3 -->
<g id="node4" class="node">
<title>Node3</title>
<g id="a_node4"><a xlink:href="_factory_8_h.html" target="_top" xlink:title="amr&#45;wind/core/Factory.H">
<polygon fill="#ffffff" stroke="#000000" points="74,-62 74,-81 199,-81 199,-62 74,-62"/>
<text text-anchor="middle" x="136.5" y="-69" font-family="Helvetica,sans-Serif" font-size="10.00" fill="#000000">amr&#45;wind/core/Factory.H</text>
</a>
</g>
</g>
<!-- Node2&#45;&gt;Node3 -->
<g id="edge3" class="edge">
<title>Node2&#45;&gt;Node3</title>
<path fill="none" stroke="#191970" d="M325.8361,-128.9005C286.86,-117.0843 220.5792,-96.9901 177.6804,-83.9845"/>
<polygon fill="#191970" stroke="#191970" points="178.6905,-80.6335 168.1052,-81.0817 176.6596,-87.3325 178.6905,-80.6335"/>
</g>
<!-- Node9 -->
<g id="node10" class="node">
<title>Node9</title>
<g id="a_node10"><a xlink:href="_coll_mgr_8_h.html" target="_top" xlink:title="amr&#45;wind/core/CollMgr.H">
<polygon fill="#ffffff" stroke="#000000" points="870,-62 870,-81 995,-81 995,-62 870,-62"/>
<text text-anchor="middle" x="932.5" y="-69" font-family="Helvetica,sans-Serif" font-size="10.00" fill="#000000">amr&#45;wind/core/CollMgr.H</text>
</a>
</g>
</g>
<!-- Node2&#45;&gt;Node9 -->
<g id="edge9" class="edge">
<title>Node2&#45;&gt;Node9</title>
<path fill="none" stroke="#191970" d="M397.8797,-128.9803C408.4477,-126.7492 419.8614,-124.5684 430.5,-123 620.2289,-95.0286 670.8107,-115.2389 860.5,-87 867.7167,-85.9257 875.2935,-84.5601 882.7112,-83.0866"/>
<polygon fill="#191970" stroke="#191970" points="883.5939,-86.4783 892.6791,-81.0276 882.1778,-79.623 883.5939,-86.4783"/>
</g>
<!-- Node12 -->
<g id="node13" class="node">
<title>Node12</title>
<polygon fill="#ffffff" stroke="#bfbfbf" points="1363.5,-.5 1363.5,-19.5 1467.5,-19.5 1467.5,-.5 1363.5,-.5"/>
<text text-anchor="middle" x="1415.5" y="-7.5" font-family="Helvetica,sans-Serif" font-size="10.00" fill="#000000">AMReX_MultiFab.H</text>
</g>
<!-- Node2&#45;&gt;Node12 -->
<g id="edge14" class="edge">
<title>Node2&#45;&gt;Node12</title>
<path fill="none" stroke="#191970" d="M367.4667,-128.963C389.3582,-108.1188 440.4907,-60.0339 450.5,-56 541.9865,-19.1296 1239.2114,-28.2794 1337.5,-20 1342.557,-19.574 1347.7899,-19.0609 1353.0411,-18.495"/>
<polygon fill="#191970" stroke="#191970" points="1353.5792,-21.9564 1363.1205,-17.3505 1352.7894,-15.0011 1353.5792,-21.9564"/>
</g>
<!-- Node13 -->
<g id="node14" class="node">
<title>Node13</title>
<polygon fill="#ffffff" stroke="#bfbfbf" points="293.5,-62 293.5,-81 403.5,-81 403.5,-62 293.5,-62"/>
<text text-anchor="middle" x="348.5" y="-69" font-family="Helvetica,sans-Serif" font-size="10.00" fill="#000000">AMReX_Geometry.H</text>
</g>
<!-- Node2&#45;&gt;Node13 -->
<g id="edge15" class="edge">
<title>Node2&#45;&gt;Node13</title>
<path fill="none" stroke="#191970" d="M356.2105,-128.9005C354.9006,-119.149 352.8334,-103.7597 351.169,-91.3695"/>
<polygon fill="#191970" stroke="#191970" points="354.5873,-90.5266 349.7871,-81.0817 347.6497,-91.4586 354.5873,-90.5266"/>
</g>
<!-- Node3&#45;&gt;Node4 -->
<g id="edge4" class="edge">
<title>Node3&#45;&gt;Node4</title>
<path fill="none" stroke="#191970" d="M178.081,-61.9581C230.24,-49.9888 318.8235,-29.6608 368.3121,-18.3043"/>
<polygon fill="#191970" stroke="#191970" points="369.2881,-21.6714 378.2519,-16.0234 367.7224,-14.8487 369.2881,-21.6714"/>
</g>
<!-- Node3&#45;&gt;Node5 -->
<g id="edge5" class="edge">
<title>Node3&#45;&gt;Node5</title>
<path fill="none" stroke="#191970" d="M199.1584,-62.9751C216.14,-60.6864 234.5217,-58.2289 251.5,-56 361.1331,-41.6075 489.6304,-25.3308 559.6089,-16.5166"/>
<polygon fill="#191970" stroke="#191970" points="560.4283,-19.9412 569.9128,-15.2195 559.5539,-12.996 560.4283,-19.9412"/>
</g>
<!-- Node6 -->
<g id="node7" class="node">
<title>Node6</title>
<polygon fill="#ffffff" stroke="#bfbfbf" points="185.5,-.5 185.5,-19.5 239.5,-19.5 239.5,-.5 185.5,-.5"/>
<text text-anchor="middle" x="212.5" y="-7.5" font-family="Helvetica,sans-Serif" font-size="10.00" fill="#000000">iostream</text>
</g>
<!-- Node3&#45;&gt;Node6 -->
<g id="edge6" class="edge">
<title>Node3&#45;&gt;Node6</title>
<path fill="none" stroke="#191970" d="M148.375,-61.8906C160.1297,-52.3786 178.3486,-37.6357 192.3672,-26.2917"/>
<polygon fill="#191970" stroke="#191970" points="194.8856,-28.7562 200.4576,-19.7449 190.4822,-23.3146 194.8856,-28.7562"/>
</g>
<!-- Node7 -->
<g id="node8" class="node">
<title>Node7</title>
<polygon fill="#ffffff" stroke="#bfbfbf" points="0,-.5 0,-19.5 87,-19.5 87,-.5 0,-.5"/>
<text text-anchor="middle" x="43.5" y="-7.5" font-family="Helvetica,sans-Serif" font-size="10.00" fill="#000000">AMReX_Print.H</text>
</g>
<!-- Node3&#45;&gt;Node7 -->
<g id="edge7" class="edge">
<title>Node3&#45;&gt;Node7</title>
<path fill="none" stroke="#191970" d="M121.9688,-61.8906C107.0906,-52.0519 83.7496,-36.6167 66.3872,-25.1351"/>
<polygon fill="#191970" stroke="#191970" points="68.201,-22.1385 57.9292,-19.5419 64.3398,-27.9773 68.201,-22.1385"/>
</g>
<!-- Node8 -->
<g id="node9" class="node">
<title>Node8</title>
<polygon fill="#ffffff" stroke="#bfbfbf" points="105.5,-.5 105.5,-19.5 167.5,-19.5 167.5,-.5 105.5,-.5"/>
<text text-anchor="middle" x="136.5" y="-7.5" font-family="Helvetica,sans-Serif" font-size="10.00" fill="#000000">AMReX.H</text>
</g>
<!-- Node3&#45;&gt;Node8 -->
<g id="edge8" class="edge">
<title>Node3&#45;&gt;Node8</title>
<path fill="none" stroke="#191970" d="M136.5,-61.8906C136.5,-53.3657 136.5,-40.6392 136.5,-29.9235"/>
<polygon fill="#191970" stroke="#191970" points="140.0001,-29.7448 136.5,-19.7449 133.0001,-29.7449 140.0001,-29.7448"/>
</g>
<!-- Node9&#45;&gt;Node4 -->
<g id="edge11" class="edge">
<title>Node9&#45;&gt;Node4</title>
<path fill="none" stroke="#191970" d="M891.9055,-61.9333C881.6955,-59.7558 870.7307,-57.6121 860.5,-56 705.2972,-31.544 518.2194,-17.4474 440.7791,-12.2794"/>
<polygon fill="#191970" stroke="#191970" points="440.8025,-8.7735 430.5943,-11.6093 440.3429,-15.7584 440.8025,-8.7735"/>
</g>
<!-- Node9&#45;&gt;Node5 -->
<g id="edge12" class="edge">
<title>Node9&#45;&gt;Node5</title>
<path fill="none" stroke="#191970" d="M889.1388,-61.9499C879.7086,-59.9332 869.7782,-57.8553 860.5,-56 792.5459,-42.4116 713.8643,-28.1157 663.4339,-19.136"/>
<polygon fill="#191970" stroke="#191970" points="663.8841,-15.6613 653.426,-17.3578 662.6594,-22.5533 663.8841,-15.6613"/>
</g>
<!-- Node10 -->
<g id="node11" class="node">
<title>Node10</title>
<polygon fill="#ffffff" stroke="#bfbfbf" points="1497,-.5 1497,-19.5 1538,-19.5 1538,-.5 1497,-.5"/>
<text text-anchor="middle" x="1517.5" y="-7.5" font-family="Helvetica,sans-Serif" font-size="10.00" fill="#000000">string</text>
</g>
<!-- Node9&#45;&gt;Node10 -->
<g id="edge10" class="edge">
<title>Node9&#45;&gt;Node10</title>
<path fill="none" stroke="#191970" d="M995.0991,-62.4816C1012.0807,-60.1939 1030.4774,-57.8602 1047.5,-56 1237.7045,-35.2146 1287.6523,-50.7622 1476.5,-20 1479.8264,-19.4581 1483.2812,-18.7881 1486.7109,-18.0535"/>
<polygon fill="#191970" stroke="#191970" points="1487.8205,-21.3891 1496.7706,-15.7195 1486.2383,-14.5703 1487.8205,-21.3891"/>
</g>
<!-- Node11 -->
<g id="node12" class="node">
<title>Node11</title>
<polygon fill="#ffffff" stroke="#bfbfbf" points="1603,-.5 1603,-19.5 1698,-19.5 1698,-.5 1603,-.5"/>
<text text-anchor="middle" x="1650.5" y="-7.5" font-family="Helvetica,sans-Serif" font-size="10.00" fill="#000000">AMReX_Vector.H</text>
</g>
<!-- Node9&#45;&gt;Node11 -->
<g id="edge13" class="edge">
<title>Node9&#45;&gt;Node11</title>
<path fill="none" stroke="#191970" d="M995.1144,-64.5585C1021.4618,-61.7374 1052.4555,-58.549 1080.5,-56 1287.8168,-37.1567 1340.1135,-38.059 1547.5,-20 1562.1878,-18.721 1578.043,-17.2344 1592.8078,-15.8048"/>
<polygon fill="#191970" stroke="#191970" points="1593.2148,-19.2818 1602.8277,-14.8274 1592.5351,-12.3148 1593.2148,-19.2818"/>
</g>
<!-- Node14&#45;&gt;Node4 -->
<g id="edge18" class="edge">
<title>Node14&#45;&gt;Node4</title>
<path fill="none" stroke="#191970" d="M1085.9076,-129.4408C1070.5502,-127.1532 1053.9085,-124.8297 1038.5,-123 858.6114,-101.6387 808.8327,-128.5086 632.5,-87 595.7859,-78.3575 589.0999,-68.4606 553.5,-56 515.161,-42.5806 470.5805,-29.0901 440.2441,-20.2214"/>
<polygon fill="#191970" stroke="#191970" points="441.1113,-16.8287 430.5318,-17.3977 439.1571,-23.5504 441.1113,-16.8287"/>
</g>
<!-- Node14&#45;&gt;Node5 -->
<g id="edge19" class="edge">
<title>Node14&#45;&gt;Node5</title>
<path fill="none" stroke="#191970" d="M1102.8599,-128.9249C1092.6859,-126.7215 1081.7262,-124.5678 1071.5,-123 982.845,-109.4083 747.8965,-130.5709 669.5,-87 646.0484,-73.9662 629.2237,-47.0607 619.9227,-28.7683"/>
<polygon fill="#191970" stroke="#191970" points="623.0202,-27.1331 615.5353,-19.6347 616.7105,-30.1642 623.0202,-27.1331"/>
</g>
<!-- Node14&#45;&gt;Node10 -->
<g id="edge17" class="edge">
<title>Node14&#45;&gt;Node10</title>
<path fill="none" stroke="#191970" d="M1126.0876,-128.8879C1100.9398,-113.0086 1058.0277,-80.6079 1080.5,-56 1110.2932,-23.3754 1432.9182,-27.2545 1476.5,-20 1479.8245,-19.4466 1483.2781,-18.7692 1486.707,-18.0302"/>
<polygon fill="#191970" stroke="#191970" points="1487.8186,-21.3652 1496.766,-15.6911 1486.2331,-14.5471 1487.8186,-21.3652"/>
</g>
<!-- Node14&#45;&gt;Node12 -->
<g id="edge21" class="edge">
<title>Node14&#45;&gt;Node12</title>
<path fill="none" stroke="#191970" d="M1115.7727,-128.9154C1079.3291,-114.4422 1021.3934,-85.5477 1047.5,-56 1090.4975,-7.3348 1273.0717,-28.129 1337.5,-20 1342.6175,-19.3543 1347.9234,-18.6814 1353.2506,-18.0034"/>
<polygon fill="#191970" stroke="#191970" points="1354.0007,-21.4361 1363.4775,-16.699 1353.115,-14.4924 1354.0007,-21.4361"/>
</g>
<!-- Node15 -->
<g id="node16" class="node">
<title>Node15</title>
<polygon fill="#ffffff" stroke="#bfbfbf" points="795.5,-62 795.5,-81 851.5,-81 851.5,-62 795.5,-62"/>
<text text-anchor="middle" x="823.5" y="-69" font-family="Helvetica,sans-Serif" font-size="10.00" fill="#000000">algorithm</text>
</g>
<!-- Node14&#45;&gt;Node15 -->
<g id="edge20" class="edge">
<title>Node14&#45;&gt;Node15</title>
<path fill="none" stroke="#191970" d="M1100.1403,-128.9245C1090.7278,-126.8884 1080.788,-124.809 1071.5,-123 978.5517,-104.8968 952.5452,-113.0362 861.5,-87 859.0424,-86.2972 856.5274,-85.487 854.0193,-84.6133"/>
<polygon fill="#191970" stroke="#191970" points="855.1078,-81.2831 844.5161,-81.0216 852.6329,-87.831 855.1078,-81.2831"/>
</g>
<!-- Node16 -->
<g id="node17" class="node">
<title>Node16</title>
<polygon fill="#ffffff" stroke="#bfbfbf" points="678,-62 678,-81 777,-81 777,-62 678,-62"/>
<text text-anchor="middle" x="727.5" y="-69" font-family="Helvetica,sans-Serif" font-size="10.00" fill="#000000">AMReX_BCRec.H</text>
</g>
<!-- Node14&#45;&gt;Node16 -->
<g id="edge22" class="edge">
<title>Node14&#45;&gt;Node16</title>
<path fill="none" stroke="#191970" d="M1101.6985,-128.9397C1091.8447,-126.8119 1081.323,-124.6892 1071.5,-123 945.6736,-101.363 911.8447,-111.2725 786.5,-87 781.3679,-86.0062 776.0214,-84.8194 770.7341,-83.551"/>
<polygon fill="#191970" stroke="#191970" points="771.2618,-80.0751 760.7111,-81.0404 769.561,-86.8653 771.2618,-80.0751"/>
</g>
<!-- Node17 -->
<g id="node18" class="node">
<title>Node17</title>
<polygon fill="#ffffff" stroke="#bfbfbf" points="460,-62 460,-81 545,-81 545,-62 460,-62"/>
<text text-anchor="middle" x="502.5" y="-69" font-family="Helvetica,sans-Serif" font-size="10.00" fill="#000000">AMReX_Gpu.H</text>
</g>
<!-- Node14&#45;&gt;Node17 -->
<g id="edge23" class="edge">
<title>Node14&#45;&gt;Node17</title>
<path fill="none" stroke="#191970" d="M1085.9235,-129.3023C1070.5662,-127.015 1053.9204,-124.7263 1038.5,-123 826.336,-99.249 769.9023,-123.1739 559.5,-87 554.1307,-86.0769 548.5352,-84.8694 543.0386,-83.5353"/>
<polygon fill="#191970" stroke="#191970" points="543.8789,-80.1376 533.3218,-81.0313 542.132,-86.9161 543.8789,-80.1376"/>
</g>
<!-- Node18 -->
<g id="node19" class="node">
<title>Node18</title>
<g id="a_node19"><a xlink:href="incflo__enums_8_h.html" target="_top" xlink:title="amr&#45;wind/incflo_enums.H">
<polygon fill="#ffffff" stroke="#000000" points="1089.5,-62 1089.5,-81 1217.5,-81 1217.5,-62 1089.5,-62"/>
<text text-anchor="middle" x="1153.5" y="-69" font-family="Helvetica,sans-Serif" font-size="10.00" fill="#000000">amr&#45;wind/incflo_enums.H</text>
</a>
</g>
</g>
<!-- Node14&#45;&gt;Node18 -->
<g id="edge24" class="edge">
<title>Node14&#45;&gt;Node18</title>
<path fill="none" stroke="#191970" d="M1144.076,-128.9005C1145.6934,-119.0495 1148.2553,-103.4451 1150.3,-90.9912"/>
<polygon fill="#191970" stroke="#191970" points="1153.7605,-91.5166 1151.9269,-81.0817 1146.8529,-90.3825 1153.7605,-91.5166"/>
</g>
<!-- Node19 -->
<g id="node20" class="node">
<title>Node19</title>
<g id="a_node20"><a xlink:href="_field_desc_types_8_h.html" target="_top" xlink:title="amr&#45;wind/core/FieldDescTypes.H">
<polygon fill="#ffffff" stroke="#000000" points="1904,-.5 1904,-19.5 2067,-19.5 2067,-.5 1904,-.5"/>
<text text-anchor="middle" x="1985.5" y="-7.5" font-family="Helvetica,sans-Serif" font-size="10.00" fill="#000000">amr&#45;wind/core/FieldDescTypes.H</text>
</a>
</g>
</g>
<!-- Node14&#45;&gt;Node19 -->
<g id="edge25" class="edge">
<title>Node14&#45;&gt;Node19</title>
<path fill="none" stroke="#191970" d="M1177.9006,-128.9508C1187.7409,-126.635 1198.4778,-124.4199 1208.5,-123 1364.479,-100.902 1774.3377,-154.8798 1916.5,-87 1930.3192,-80.4016 1956.369,-48.3934 1972.207,-27.7781"/>
<polygon fill="#191970" stroke="#191970" points="1975.0446,-29.8287 1978.3041,-19.7477 1969.4694,-25.5957 1975.0446,-29.8287"/>
</g>
<!-- Node20 -->
<g id="node21" class="node">
<title>Node20</title>
<g id="a_node21"><a xlink:href="_view_field_8_h.html" target="_top" xlink:title="amr&#45;wind/core/ViewField.H">
<polygon fill="#ffffff" stroke="#000000" points="1583.5,-62 1583.5,-81 1717.5,-81 1717.5,-62 1583.5,-62"/>
<text text-anchor="middle" x="1650.5" y="-69" font-family="Helvetica,sans-Serif" font-size="10.00" fill="#000000">amr&#45;wind/core/ViewField.H</text>
</a>
</g>
</g>
<!-- Node14&#45;&gt;Node20 -->
<g id="edge26" class="edge">
<title>Node14&#45;&gt;Node20</title>
<path fill="none" stroke="#191970" d="M1179.6938,-128.9783C1189.0534,-126.7997 1199.1091,-124.6442 1208.5,-123 1335.3179,-100.7958 1484.3334,-85.6761 1572.9033,-77.8268"/>
<polygon fill="#191970" stroke="#191970" points="1573.4788,-81.2898 1583.1344,-76.9286 1572.8666,-74.3166 1573.4788,-81.2898"/>
</g>
<!-- Node20&#45;&gt;Node10 -->
<g id="edge27" class="edge">
<title>Node20&#45;&gt;Node10</title>
<path fill="none" stroke="#191970" d="M1629.7188,-61.8906C1607.6606,-51.6908 1572.595,-35.4763 1547.5331,-23.8875"/>
<polygon fill="#191970" stroke="#191970" points="1548.6809,-20.5622 1538.1353,-19.5419 1545.7429,-26.9158 1548.6809,-20.5622"/>
</g>
<!-- Node20&#45;&gt;Node11 -->
<g id="edge30" class="edge">
<title>Node20&#45;&gt;Node11</title>
<path fill="none" stroke="#191970" d="M1650.5,-61.8906C1650.5,-53.3657 1650.5,-40.6392 1650.5,-29.9235"/>
<polygon fill="#191970" stroke="#191970" points="1654.0001,-29.7448 1650.5,-19.7449 1647.0001,-29.7449 1654.0001,-29.7448"/>
</g>
<!-- Node20&#45;&gt;Node12 -->
<g id="edge29" class="edge">
<title>Node20&#45;&gt;Node12</title>
<path fill="none" stroke="#191970" d="M1614.0391,-61.9581C1573.0485,-51.2308 1506.4031,-33.7895 1461.774,-22.11"/>
<polygon fill="#191970" stroke="#191970" points="1462.6068,-18.7101 1452.0464,-19.5643 1460.8345,-25.4821 1462.6068,-18.7101"/>
</g>
<!-- Node20&#45;&gt;Node19 -->
<g id="edge28" class="edge">
<title>Node20&#45;&gt;Node19</title>
<path fill="none" stroke="#191970" d="M1702.4762,-61.9581C1762.2244,-50.9894 1860.2087,-33.0012 1923.7811,-21.3305"/>
<polygon fill="#191970" stroke="#191970" points="1924.4739,-24.7619 1933.6775,-19.5137 1923.2099,-17.8769 1924.4739,-24.7619"/>
</g>
<!-- Node21&#45;&gt;Node3 -->
<g id="edge32" class="edge">
<title>Node21&#45;&gt;Node3</title>
<path fill="none" stroke="#191970" d="M140.3654,-123.2967C139.6545,-113.7699 138.731,-101.3954 137.965,-91.1306"/>
<polygon fill="#191970" stroke="#191970" points="141.4476,-90.7667 137.2131,-81.055 134.4671,-91.2877 141.4476,-90.7667"/>
</g>
<!-- Node21&#45;&gt;Node17 -->
<g id="edge33" class="edge">
<title>Node21&#45;&gt;Node17</title>
<path fill="none" stroke="#191970" d="M199.1007,-127.8096C268.2109,-114.983 383.0977,-93.6605 449.9041,-81.2616"/>
<polygon fill="#191970" stroke="#191970" points="450.6064,-84.6911 459.7998,-79.425 449.329,-77.8086 450.6064,-84.6911"/>
</g>
<!-- Node22&#45;&gt;Node2 -->
<g id="edge73" class="edge">
<title>Node22&#45;&gt;Node2</title>
<path fill="none" stroke="#191970" d="M722.5212,-257.437C681.9696,-249.2034 623.5282,-236.2569 573.5,-221 506.4946,-200.5657 430.4693,-169.6541 388.858,-152.045"/>
<polygon fill="#191970" stroke="#191970" points="390.1082,-148.7733 379.5361,-148.0786 387.3675,-155.2145 390.1082,-148.7733"/>
</g>
<!-- Node23 -->
<g id="node24" class="node">
<title>Node23</title>
<polygon fill="#ffffff" stroke="#bfbfbf" points="923.5,-129 923.5,-148 1029.5,-148 1029.5,-129 923.5,-129"/>
<text text-anchor="middle" x="976.5" y="-136" font-family="Helvetica,sans-Serif" font-size="10.00" fill="#000000">AMReX_AmrCore.H</text>
</g>
<!-- Node22&#45;&gt;Node23 -->
<g id="edge37" class="edge">
<title>Node22&#45;&gt;Node23</title>
<path fill="none" stroke="#191970" d="M795.6917,-257.4891C815.579,-248.9615 844.7029,-235.5766 868.5,-221 901.5685,-200.7443 936.6918,-172.4925 957.6012,-154.8608"/>
<polygon fill="#191970" stroke="#191970" points="960.0475,-157.3748 965.3917,-148.2266 955.509,-152.0453 960.0475,-157.3748"/>
</g>
<!-- Node24 -->
<g id="node25" class="node">
<title>Node24</title>
<g id="a_node25"><a xlink:href="_sim_time_8_h.html" target="_top" xlink:title="amr&#45;wind/core/SimTime.H">
<polygon fill="#ffffff" stroke="#000000" points="583,-196 583,-215 714,-215 714,-196 583,-196"/>
<text text-anchor="middle" x="648.5" y="-203" font-family="Helvetica,sans-Serif" font-size="10.00" fill="#000000">amr&#45;wind/core/SimTime.H</text>
</a>
</g>
</g>
<!-- Node22&#45;&gt;Node24 -->
<g id="edge38" class="edge">
<title>Node22&#45;&gt;Node24</title>
<path fill="none" stroke="#191970" d="M753.125,-257.3906C732.6505,-247.2359 700.1558,-231.1196 676.8115,-219.5416"/>
<polygon fill="#191970" stroke="#191970" points="678.2528,-216.3496 667.7389,-215.0419 675.1425,-222.6207 678.2528,-216.3496"/>
</g>
<!-- Node28 -->
<g id="node29" class="node">
<title>Node28</title>
<g id="a_node29"><a xlink:href="_field_repo_8_h.html" target="_top" xlink:title="amr&#45;wind/core/FieldRepo.H">
<polygon fill="#ffffff" stroke="#000000" points="1449.5,-196 1449.5,-215 1585.5,-215 1585.5,-196 1449.5,-196"/>
<text text-anchor="middle" x="1517.5" y="-203" font-family="Helvetica,sans-Serif" font-size="10.00" fill="#000000">amr&#45;wind/core/FieldRepo.H</text>
</a>
</g>
</g>
<!-- Node22&#45;&gt;Node28 -->
<g id="edge42" class="edge">
<title>Node22&#45;&gt;Node28</title>
<path fill="none" stroke="#191970" d="M826.7571,-258.0982C829.7113,-257.704 832.6401,-257.3344 835.5,-257 1053.3839,-231.5246 1311.9765,-215.9973 1439.0469,-209.3274"/>
<polygon fill="#191970" stroke="#191970" points="1439.2733,-212.8204 1449.0777,-208.805 1438.9092,-205.8299 1439.2733,-212.8204"/>
</g>
<!-- Node35 -->
<g id="node36" class="node">
<title>Node35</title>
<g id="a_node36"><a xlink:href="_p_d_e_base_8_h.html" target="_top" xlink:title="amr&#45;wind/equation_systems\l/PDEBase.H">
<polygon fill="#ffffff" stroke="#000000" points="1217,-123.5 1217,-153.5 1356,-153.5 1356,-123.5 1217,-123.5"/>
<text text-anchor="start" x="1225" y="-141.5" font-family="Helvetica,sans-Serif" font-size="10.00" fill="#000000">amr&#45;wind/equation_systems</text>
<text text-anchor="middle" x="1286.5" y="-130.5" font-family="Helvetica,sans-Serif" font-size="10.00" fill="#000000">/PDEBase.H</text>
</a>
</g>
</g>
<!-- Node22&#45;&gt;Node35 -->
<g id="edge65" class="edge">
<title>Node22&#45;&gt;Node35</title>
<path fill="none" stroke="#191970" d="M810.7136,-257.4466C896.6727,-235.9568 1106.3274,-183.5432 1216.3959,-156.026"/>
<polygon fill="#191970" stroke="#191970" points="1217.554,-159.3443 1226.4065,-153.5234 1215.8562,-152.5533 1217.554,-159.3443"/>
</g>
<!-- Node25 -->
<g id="node26" class="node">
<title>Node25</title>
<polygon fill="#ffffff" stroke="#bfbfbf" points="712,-129 712,-148 805,-148 805,-129 712,-129"/>
<text text-anchor="middle" x="758.5" y="-136" font-family="Helvetica,sans-Serif" font-size="10.00" fill="#000000">AMReX_REAL.H</text>
</g>
<!-- Node24&#45;&gt;Node25 -->
<g id="edge39" class="edge">
<title>Node24&#45;&gt;Node25</title>
<path fill="none" stroke="#191970" d="M664.2603,-195.9005C682.4757,-184.8057 712.673,-166.4128 733.9677,-153.4424"/>
<polygon fill="#191970" stroke="#191970" points="736.0491,-156.2728 742.7689,-148.0817 732.4077,-150.2945 736.0491,-156.2728"/>
</g>
<!-- Node26 -->
<g id="node27" class="node">
<title>Node26</title>
<polygon fill="#ffffff" stroke="#bfbfbf" points="567.5,-129 567.5,-148 693.5,-148 693.5,-129 567.5,-129"/>
<text text-anchor="middle" x="630.5" y="-136" font-family="Helvetica,sans-Serif" font-size="10.00" fill="#000000">AMReX_GpuQualifiers.H</text>
</g>
<!-- Node24&#45;&gt;Node26 -->
<g id="edge40" class="edge">
<title>Node24&#45;&gt;Node26</title>
<path fill="none" stroke="#191970" d="M645.921,-195.9005C643.2745,-186.0495 639.0823,-170.4451 635.7364,-157.9912"/>
<polygon fill="#191970" stroke="#191970" points="639.049,-156.8311 633.0742,-148.0817 632.2887,-158.6473 639.049,-156.8311"/>
</g>
<!-- Node27 -->
<g id="node28" class="node">
<title>Node27</title>
<polygon fill="#ffffff" stroke="#bfbfbf" points="439.5,-129 439.5,-148 549.5,-148 549.5,-129 439.5,-129"/>
<text text-anchor="middle" x="494.5" y="-136" font-family="Helvetica,sans-Serif" font-size="10.00" fill="#000000">AMReX_Extension.H</text>
</g>
<!-- Node24&#45;&gt;Node27 -->
<g id="edge41" class="edge">
<title>Node24&#45;&gt;Node27</title>
<path fill="none" stroke="#191970" d="M626.4356,-195.9005C600.1335,-184.4574 555.9872,-165.2509 526.0755,-152.2374"/>
<polygon fill="#191970" stroke="#191970" points="527.0896,-148.8617 516.5235,-148.0817 524.297,-155.2806 527.0896,-148.8617"/>
</g>
<!-- Node28&#45;&gt;Node5 -->
<g id="edge44" class="edge">
<title>Node28&#45;&gt;Node5</title>
<path fill="none" stroke="#191970" d="M1449.4668,-202.0916C1343.1776,-196.0061 1143.1008,-181.2775 1077.5,-154 1057.0549,-145.4987 1059.0624,-131.2134 1038.5,-123 954.3858,-89.4015 701.9808,-145.1074 632.5,-87 615.9422,-73.1526 611.7596,-47.6462 611.0224,-29.7973"/>
<polygon fill="#191970" stroke="#191970" points="614.5207,-29.5789 610.9343,-19.6096 607.521,-29.6396 614.5207,-29.5789"/>
</g>
<!-- Node28&#45;&gt;Node10 -->
<g id="edge43" class="edge">
<title>Node28&#45;&gt;Node10</title>
<path fill="none" stroke="#191970" d="M1517.5,-195.8051C1517.5,-165.3813 1517.5,-71.3666 1517.5,-29.9452"/>
<polygon fill="#191970" stroke="#191970" points="1521.0001,-29.7534 1517.5,-19.7534 1514.0001,-29.7534 1521.0001,-29.7534"/>
</g>
<!-- Node28&#45;&gt;Node12 -->
<g id="edge63" class="edge">
<title>Node28&#45;&gt;Node12</title>
<path fill="none" stroke="#191970" d="M1512.4418,-195.8051C1496.3989,-165.0563 1446.4655,-69.3505 1425.223,-28.6357"/>
<polygon fill="#191970" stroke="#191970" points="1428.3175,-27.0003 1420.5887,-19.7534 1422.1114,-30.2383 1428.3175,-27.0003"/>
</g>
<!-- Node28&#45;&gt;Node14 -->
<g id="edge50" class="edge">
<title>Node28&#45;&gt;Node14</title>
<path fill="none" stroke="#191970" d="M1452.7663,-195.9743C1390.0902,-186.4538 1292.4856,-170.8419 1208.5,-154 1202.8074,-152.8584 1196.8581,-151.5813 1190.9623,-150.2632"/>
<polygon fill="#191970" stroke="#191970" points="1191.6737,-146.8357 1181.1456,-148.0231 1190.1163,-153.6602 1191.6737,-146.8357"/>
</g>
<!-- Node28&#45;&gt;Node19 -->
<g id="edge45" class="edge">
<title>Node28&#45;&gt;Node19</title>
<path fill="none" stroke="#191970" d="M1585.6956,-203.6112C1778.7789,-197.9538 2317.0692,-179.9193 2344.5,-154 2376.2636,-123.9866 2381.4156,-88.7661 2352.5,-56 2334.5359,-35.6437 2180.1415,-22.1077 2077.4135,-15.2646"/>
<polygon fill="#191970" stroke="#191970" points="2077.5376,-11.7653 2067.3299,-14.6033 2077.0794,-18.7503 2077.5376,-11.7653"/>
</g>
<!-- Node28&#45;&gt;Node23 -->
<g id="edge62" class="edge">
<title>Node28&#45;&gt;Node23</title>
<path fill="none" stroke="#191970" d="M1449.2515,-200.6527C1356.8306,-193.5043 1186.9358,-178.2947 1043.5,-154 1037.2427,-152.9402 1030.6953,-151.6522 1024.2479,-150.2765"/>
<polygon fill="#191970" stroke="#191970" points="1024.7753,-146.8085 1014.2549,-148.0627 1023.2612,-153.6428 1024.7753,-146.8085"/>
</g>
<!-- Node29 -->
<g id="node30" class="node">
<title>Node29</title>
<g id="a_node30"><a xlink:href="_field_utils_8_h.html" target="_top" xlink:title="amr&#45;wind/core/FieldUtils.H">
<polygon fill="#ffffff" stroke="#000000" points="1774,-62 1774,-81 1907,-81 1907,-62 1774,-62"/>
<text text-anchor="middle" x="1840.5" y="-69" font-family="Helvetica,sans-Serif" font-size="10.00" fill="#000000">amr&#45;wind/core/FieldUtils.H</text>
</a>
</g>
</g>
<!-- Node28&#45;&gt;Node29 -->
<g id="edge46" class="edge">
<title>Node28&#45;&gt;Node29</title>
<path fill="none" stroke="#191970" d="M1585.7978,-196.603C1629.3186,-189.1552 1686.0483,-176.0799 1732.5,-154 1768.273,-136.996 1803.5703,-106.8173 1823.6333,-88.0543"/>
<polygon fill="#191970" stroke="#191970" points="1826.1964,-90.4465 1831.0199,-81.0133 1821.3666,-85.3796 1826.1964,-90.4465"/>
</g>
<!-- Node31 -->
<g id="node32" class="node">
<title>Node31</title>
<g id="a_node32"><a xlink:href="_int_field_8_h.html" target="_top" xlink:title="amr&#45;wind/core/IntField.H">
<polygon fill="#ffffff" stroke="#000000" points="2211.5,-129 2211.5,-148 2335.5,-148 2335.5,-129 2211.5,-129"/>
<text text-anchor="middle" x="2273.5" y="-136" font-family="Helvetica,sans-Serif" font-size="10.00" fill="#000000">amr&#45;wind/core/IntField.H</text>
</a>
</g>
</g>
<!-- Node28&#45;&gt;Node31 -->
<g id="edge51" class="edge">
<title>Node28&#45;&gt;Node31</title>
<path fill="none" stroke="#191970" d="M1585.589,-199.4657C1727.8084,-186.8616 2055.2635,-157.8411 2201.123,-144.9144"/>
<polygon fill="#191970" stroke="#191970" points="2201.654,-148.3811 2211.306,-144.0119 2201.036,-141.4084 2201.654,-148.3811"/>
</g>
<!-- Node32 -->
<g id="node33" class="node">
<title>Node32</title>
<polygon fill="#ffffff" stroke="#bfbfbf" points="2186,-62 2186,-81 2293,-81 2293,-62 2186,-62"/>
<text text-anchor="middle" x="2239.5" y="-69" font-family="Helvetica,sans-Serif" font-size="10.00" fill="#000000">AMReX_iMultiFab.H</text>
</g>
<!-- Node28&#45;&gt;Node32 -->
<g id="edge64" class="edge">
<title>Node28&#45;&gt;Node32</title>
<path fill="none" stroke="#191970" d="M1568.8575,-195.9986C1677.3734,-175.9176 1937.9786,-127.666 2156.5,-87 2163.6336,-85.6725 2171.1118,-84.2788 2178.5344,-82.8942"/>
<polygon fill="#191970" stroke="#191970" points="2179.3961,-86.2939 2188.5843,-81.0188 2178.112,-79.4127 2179.3961,-86.2939"/>
</g>
<!-- Node33 -->
<g id="node34" class="node">
<title>Node33</title>
<g id="a_node34"><a xlink:href="_scratch_field_8_h.html" target="_top" xlink:title="amr&#45;wind/core/ScratchField.H">
<polygon fill="#ffffff" stroke="#000000" points="1577.5,-129 1577.5,-148 1723.5,-148 1723.5,-129 1577.5,-129"/>
<text text-anchor="middle" x="1650.5" y="-136" font-family="Helvetica,sans-Serif" font-size="10.00" fill="#000000">amr&#45;wind/core/ScratchField.H</text>
</a>
</g>
</g>
<!-- Node28&#45;&gt;Node33 -->
<g id="edge55" class="edge">
<title>Node28&#45;&gt;Node33</title>
<path fill="none" stroke="#191970" d="M1536.5557,-195.9005C1558.9748,-184.6067 1596.4054,-165.7506 1622.2132,-152.7497"/>
<polygon fill="#191970" stroke="#191970" points="1624.1235,-155.7065 1631.4797,-148.0817 1620.9742,-149.4549 1624.1235,-155.7065"/>
</g>
<!-- Node29&#45;&gt;Node12 -->
<g id="edge48" class="edge">
<title>Node29&#45;&gt;Node12</title>
<path fill="none" stroke="#191970" d="M1774.5601,-61.9581C1693.562,-50.2372 1557.174,-30.5011 1477.8532,-19.0229"/>
<polygon fill="#191970" stroke="#191970" points="1477.9226,-15.4965 1467.5244,-17.5282 1476.9201,-22.4244 1477.9226,-15.4965"/>
</g>
<!-- Node29&#45;&gt;Node19 -->
<g id="edge47" class="edge">
<title>Node29&#45;&gt;Node19</title>
<path fill="none" stroke="#191970" d="M1863.1563,-61.8906C1887.4174,-51.6005 1926.1118,-35.1888 1953.48,-23.5809"/>
<polygon fill="#191970" stroke="#191970" points="1955.1633,-26.6688 1963.0028,-19.5419 1952.43,-20.2245 1955.1633,-26.6688"/>
</g>
<!-- Node30 -->
<g id="node31" class="node">
<title>Node30</title>
<polygon fill="#ffffff" stroke="#bfbfbf" points="1769.5,-.5 1769.5,-19.5 1885.5,-19.5 1885.5,-.5 1769.5,-.5"/>
<text text-anchor="middle" x="1827.5" y="-7.5" font-family="Helvetica,sans-Serif" font-size="10.00" fill="#000000">AMReX_Interpolater.H</text>
</g>
<!-- Node29&#45;&gt;Node30 -->
<g id="edge49" class="edge">
<title>Node29&#45;&gt;Node30</title>
<path fill="none" stroke="#191970" d="M1838.4688,-61.8906C1836.6478,-53.276 1833.9198,-40.3708 1831.6401,-29.5858"/>
<polygon fill="#191970" stroke="#191970" points="1835.0524,-28.8048 1829.5599,-19.7449 1828.2038,-30.2525 1835.0524,-28.8048"/>
</g>
<!-- Node31&#45;&gt;Node10 -->
<g id="edge52" class="edge">
<title>Node31&#45;&gt;Node10</title>
<path fill="none" stroke="#191970" d="M2282.4816,-128.7789C2297.0405,-111.8541 2322.2679,-76.7986 2302.5,-56 2275.3675,-27.4529 1633.7248,-23.5388 1594.5,-20 1579.2009,-18.6197 1562.2652,-16.4869 1548.1812,-14.5449"/>
<polygon fill="#191970" stroke="#191970" points="1548.4325,-11.0457 1538.0413,-13.1127 1547.4535,-17.9769 1548.4325,-11.0457"/>
</g>
<!-- Node31&#45;&gt;Node19 -->
<g id="edge53" class="edge">
<title>Node31&#45;&gt;Node19</title>
<path fill="none" stroke="#191970" d="M2289.8009,-128.9876C2314.7885,-113.2518 2357.4755,-81.0527 2335.5,-56 2318.6672,-36.8101 2175.506,-23.115 2077.5741,-15.8903"/>
<polygon fill="#191970" stroke="#191970" points="2077.5818,-12.3817 2067.3544,-15.1476 2077.0744,-19.3633 2077.5818,-12.3817"/>
</g>
<!-- Node31&#45;&gt;Node32 -->
<g id="edge54" class="edge">
<title>Node31&#45;&gt;Node32</title>
<path fill="none" stroke="#191970" d="M2268.6286,-128.9005C2263.5286,-118.8505 2255.3898,-102.8122 2249.01,-90.2403"/>
<polygon fill="#191970" stroke="#191970" points="2252.0088,-88.4153 2244.3623,-81.0817 2245.7666,-91.583 2252.0088,-88.4153"/>
</g>
<!-- Node33&#45;&gt;Node10 -->
<g id="edge56" class="edge">
<title>Node33&#45;&gt;Node10</title>
<path fill="none" stroke="#191970" d="M1632.984,-128.9431C1616.7405,-119.5702 1592.4441,-104.2113 1574.5,-87 1556.0374,-69.2913 1539.1837,-45.0657 1528.6706,-28.5471"/>
<polygon fill="#191970" stroke="#191970" points="1531.4988,-26.467 1523.249,-19.8193 1525.5526,-30.1607 1531.4988,-26.467"/>
</g>
<!-- Node33&#45;&gt;Node11 -->
<g id="edge60" class="edge">
<title>Node33&#45;&gt;Node11</title>
<path fill="none" stroke="#191970" d="M1675.9821,-128.8529C1693.6723,-120.6533 1715.8961,-106.9948 1726.5,-87 1732.9552,-74.828 1733.2651,-68.0025 1726.5,-56 1718.362,-41.5618 1703.6645,-31.1395 1689.3484,-23.9057"/>
<polygon fill="#191970" stroke="#191970" points="1690.613,-20.6342 1680.0685,-19.6024 1687.6681,-26.9846 1690.613,-20.6342"/>
</g>
<!-- Node33&#45;&gt;Node12 -->
<g id="edge59" class="edge">
<title>Node33&#45;&gt;Node12</title>
<path fill="none" stroke="#191970" d="M1629.5159,-128.9543C1607.9365,-118.9872 1573.4833,-102.6535 1544.5,-87 1507.0967,-66.799 1465.0317,-41.1096 1439.4015,-25.1084"/>
<polygon fill="#191970" stroke="#191970" points="1441.0733,-22.0256 1430.7415,-19.6797 1437.3553,-27.9566 1441.0733,-22.0256"/>
</g>
<!-- Node33&#45;&gt;Node19 -->
<g id="edge57" class="edge">
<title>Node33&#45;&gt;Node19</title>
<path fill="none" stroke="#191970" d="M1723.6424,-136.0735C1853.0326,-131.0223 2111.2865,-117.2365 2138.5,-87 2168.3703,-53.8116 2110.5638,-33.0656 2057.6562,-21.5838"/>
<polygon fill="#191970" stroke="#191970" points="2058.3595,-18.1553 2047.8565,-19.5468 2056.9349,-25.0088 2058.3595,-18.1553"/>
</g>
<!-- Node33&#45;&gt;Node20 -->
<g id="edge58" class="edge">
<title>Node33&#45;&gt;Node20</title>
<path fill="none" stroke="#191970" d="M1650.5,-128.9005C1650.5,-119.149 1650.5,-103.7597 1650.5,-91.3695"/>
<polygon fill="#191970" stroke="#191970" points="1654.0001,-91.0816 1650.5,-81.0817 1647.0001,-91.0817 1654.0001,-91.0816"/>
</g>
<!-- Node34 -->
<g id="node35" class="node">
<title>Node34</title>
<polygon fill="#ffffff" stroke="#bfbfbf" points="2001.5,-62 2001.5,-81 2129.5,-81 2129.5,-62 2001.5,-62"/>
<text text-anchor="middle" x="2065.5" y="-69" font-family="Helvetica,sans-Serif" font-size="10.00" fill="#000000">AMReX_PhysBCFunct.H</text>
</g>
<!-- Node33&#45;&gt;Node34 -->
<g id="edge61" class="edge">
<title>Node33&#45;&gt;Node34</title>
<path fill="none" stroke="#191970" d="M1718.7415,-128.9807C1786.9224,-119.2561 1894.6677,-103.3087 1987.5,-87 1994.6051,-85.7518 2002.0591,-84.3674 2009.4237,-82.9545"/>
<polygon fill="#191970" stroke="#191970" points="2010.2218,-86.3649 2019.3697,-81.0201 2008.8854,-79.4936 2010.2218,-86.3649"/>
</g>
<!-- Node35&#45;&gt;Node3 -->
<g id="edge67" class="edge">
<title>Node35&#45;&gt;Node3</title>
<path fill="none" stroke="#191970" d="M1216.8453,-124.0947C1214.0321,-123.6917 1211.2422,-123.3238 1208.5,-123 800.358,-74.7999 694.4239,-116.4195 284.5,-87 259.9231,-85.2362 233.1165,-82.6352 209.1528,-80.0657"/>
<polygon fill="#191970" stroke="#191970" points="209.3915,-76.5711 199.0715,-78.9689 208.6343,-83.53 209.3915,-76.5711"/>
</g>
<!-- Node35&#45;&gt;Node9 -->
<g id="edge68" class="edge">
<title>Node35&#45;&gt;Node9</title>
<path fill="none" stroke="#191970" d="M1216.7668,-124.6008C1213.9753,-124.0577 1211.2114,-123.5224 1208.5,-123 1135.0537,-108.8506 1050.4914,-93.1602 994.528,-82.86"/>
<polygon fill="#191970" stroke="#191970" points="994.8885,-79.3676 984.4204,-81.001 993.6223,-86.2522 994.8885,-79.3676"/>
</g>
<!-- Node35&#45;&gt;Node10 -->
<g id="edge66" class="edge">
<title>Node35&#45;&gt;Node10</title>
<path fill="none" stroke="#191970" d="M1315.8268,-123.4869C1335.387,-113.3761 1361.6149,-99.6309 1384.5,-87 1422.5297,-66.0104 1465.9795,-40.5758 1492.5748,-24.839"/>
<polygon fill="#191970" stroke="#191970" points="1494.4254,-27.8107 1501.2424,-19.7002 1490.8556,-21.7894 1494.4254,-27.8107"/>
</g>
<!-- Node35&#45;&gt;Node18 -->
<g id="edge72" class="edge">
<title>Node35&#45;&gt;Node18</title>
<path fill="none" stroke="#191970" d="M1256.6522,-123.4639C1234.236,-112.1715 1203.7394,-96.8086 1181.7262,-85.7192"/>
<polygon fill="#191970" stroke="#191970" points="1183.07,-82.4772 1172.5645,-81.1039 1179.9207,-88.7287 1183.07,-82.4772"/>
</g>
<!-- Node35&#45;&gt;Node19 -->
<g id="edge71" class="edge">
<title>Node35&#45;&gt;Node19</title>
<path fill="none" stroke="#191970" d="M1356.2629,-134.0055C1524.0786,-123.0726 1937.4043,-95.373 1949.5,-87 1968.6814,-73.7221 1977.9009,-47.4803 1982.1474,-29.3489"/>
<polygon fill="#191970" stroke="#191970" points="1985.5803,-30.031 1984.1523,-19.5329 1978.7219,-28.6302 1985.5803,-30.031"/>
</g>
<!-- Node36 -->
<g id="node37" class="node">
<title>Node36</title>
<g id="a_node37"><a xlink:href="_p_d_e_fields_8_h.html" target="_top" xlink:title="amr&#45;wind/equation_systems\l/PDEFields.H">
<polygon fill="#ffffff" stroke="#000000" points="1236,-56.5 1236,-86.5 1375,-86.5 1375,-56.5 1236,-56.5"/>
<text text-anchor="start" x="1244" y="-74.5" font-family="Helvetica,sans-Serif" font-size="10.00" fill="#000000">amr&#45;wind/equation_systems</text>
<text text-anchor="middle" x="1305.5" y="-63.5" font-family="Helvetica,sans-Serif" font-size="10.00" fill="#000000">/PDEFields.H</text>
</a>
</g>
</g>
<!-- Node35&#45;&gt;Node36 -->
<g id="edge69" class="edge">
<title>Node35&#45;&gt;Node36</title>
<path fill="none" stroke="#191970" d="M1290.8114,-123.2967C1293.0706,-115.3299 1295.8946,-105.3718 1298.4611,-96.3213"/>
<polygon fill="#191970" stroke="#191970" points="1301.8446,-97.2187 1301.2057,-86.6432 1295.1101,-95.3089 1301.8446,-97.2187"/>
</g>
<!-- Node37 -->
<g id="node38" class="node">
<title>Node37</title>
<polygon fill="#ffffff" stroke="#bfbfbf" points="1283,-.5 1283,-19.5 1328,-19.5 1328,-.5 1283,-.5"/>
<text text-anchor="middle" x="1305.5" y="-7.5" font-family="Helvetica,sans-Serif" font-size="10.00" fill="#000000">iosfwd</text>
</g>
<!-- Node36&#45;&gt;Node37 -->
<g id="edge70" class="edge">
<title>Node36&#45;&gt;Node37</title>
<path fill="none" stroke="#191970" d="M1305.5,-56.2977C1305.5,-48.3834 1305.5,-38.6043 1305.5,-30.0759"/>
<polygon fill="#191970" stroke="#191970" points="1309.0001,-29.8469 1305.5,-19.8469 1302.0001,-29.847 1309.0001,-29.8469"/>
</g>
<!-- Node39&#45;&gt;Node17 -->
<g id="edge78" class="edge">
<title>Node39&#45;&gt;Node17</title>
<path fill="none" stroke="#191970" d="M819.8124,-190.3693C825.1665,-172.0882 830.5626,-141.4895 814.5,-123 776.9681,-79.7973 615.5549,-98.531 559.5,-87 554.7287,-86.0185 549.7656,-84.8676 544.8462,-83.6439"/>
<polygon fill="#191970" stroke="#191970" points="545.4435,-80.1832 534.8852,-81.061 543.6865,-86.9591 545.4435,-80.1832"/>
</g>
<!-- Node39&#45;&gt;Node25 -->
<g id="edge77" class="edge">
<title>Node39&#45;&gt;Node25</title>
<path fill="none" stroke="#191970" d="M801.7927,-190.2967C793.2371,-180.0605 781.9335,-166.5366 773.0221,-155.8746"/>
<polygon fill="#191970" stroke="#191970" points="775.5849,-153.4832 766.4862,-148.055 770.2139,-157.9724 775.5849,-153.4832"/>
</g>
<!-- Node40 -->
<g id="node41" class="node">
<title>Node40</title>
<polygon fill="#ffffff" stroke="#bfbfbf" points="861.5,-129 861.5,-148 905.5,-148 905.5,-129 861.5,-129"/>
<text text-anchor="middle" x="883.5" y="-136" font-family="Helvetica,sans-Serif" font-size="10.00" fill="#000000">cmath</text>
</g>
<!-- Node39&#45;&gt;Node40 -->
<g id="edge76" class="edge">
<title>Node39&#45;&gt;Node40</title>
<path fill="none" stroke="#191970" d="M830.1572,-190.2967C840.9077,-179.8578 855.1794,-165.9997 866.2555,-155.2446"/>
<polygon fill="#191970" stroke="#191970" points="868.9237,-157.5323 873.6598,-148.055 864.0473,-152.5103 868.9237,-157.5323"/>
</g>
</g>
</svg>
