<?xml version="1.0" encoding="UTF-8" standalone="no"?>
<!DOCTYPE svg PUBLIC "-//W3C//DTD SVG 1.1//EN"
 "http://www.w3.org/Graphics/SVG/1.1/DTD/svg11.dtd">
<!-- Generated by graphviz version 2.40.1 (20161225.0304)
 -->
<!-- Title: GeometryRefinement.H Pages: 1 -->
<svg width="354pt" height="140pt"
 viewBox="0.00 0.00 354.00 140.00" xmlns="http://www.w3.org/2000/svg" xmlns:xlink="http://www.w3.org/1999/xlink">
<g id="graph0" class="graph" transform="scale(1 1) rotate(0) translate(4 136)">
<title>GeometryRefinement.H</title>
<polygon fill="#ffffff" stroke="transparent" points="-4,4 -4,-136 350,-136 350,4 -4,4"/>
<!-- Node10 -->
<g id="node1" class="node">
<title>Node10</title>
<polygon fill="#bfbfbf" stroke="#000000" points="92,-112.5 92,-131.5 212,-131.5 212,-112.5 92,-112.5"/>
<text text-anchor="middle" x="152" y="-119.5" font-family="Helvetica,sans-Serif" font-size="10.00" fill="#000000">GeometryRefinement.H</text>
</g>
<!-- Node11 -->
<g id="node2" class="node">
<title>Node11</title>
<g id="a_node2"><a xlink:href="_box_refiner_8_h.html" target="_top" xlink:title="BoxRefiner.H">
<polygon fill="#ffffff" stroke="#000000" points="8,-56.5 8,-75.5 84,-75.5 84,-56.5 8,-56.5"/>
<text text-anchor="middle" x="46" y="-63.5" font-family="Helvetica,sans-Serif" font-size="10.00" fill="#000000">BoxRefiner.H</text>
</a>
</g>
</g>
<!-- Node10&#45;&gt;Node11 -->
<g id="edge1" class="edge">
<title>Node10&#45;&gt;Node11</title>
<path fill="none" stroke="#191970" d="M124.4778,-107.46C105.5092,-97.4388 80.8273,-84.3993 64.2522,-75.6427"/>
<polygon fill="#191970" stroke="#191970" points="123.0593,-110.669 133.5362,-112.2455 126.3292,-104.4796 123.0593,-110.669"/>
</g>
<!-- Node13 -->
<g id="node4" class="node">
<title>Node13</title>
<g id="a_node4"><a xlink:href="_cylinder_refiner_8_h.html" target="_top" xlink:title="CylinderRefiner.H">
<polygon fill="#ffffff" stroke="#000000" points="104.5,-56.5 104.5,-75.5 199.5,-75.5 199.5,-56.5 104.5,-56.5"/>
<text text-anchor="middle" x="152" y="-63.5" font-family="Helvetica,sans-Serif" font-size="10.00" fill="#000000">CylinderRefiner.H</text>
</a>
</g>
</g>
<!-- Node10&#45;&gt;Node13 -->
<g id="edge3" class="edge">
<title>Node10&#45;&gt;Node13</title>
<path fill="none" stroke="#191970" d="M152,-102.1575C152,-93.155 152,-82.9199 152,-75.6427"/>
<polygon fill="#191970" stroke="#191970" points="148.5001,-102.2455 152,-112.2455 155.5001,-102.2456 148.5001,-102.2455"/>
</g>
<!-- Node15 -->
<g id="node6" class="node">
<title>Node15</title>
<g id="a_node6"><a xlink:href="_geometry_refinement_8cpp.html" target="_top" xlink:title="GeometryRefinement.cpp">
<polygon fill="#ffffff" stroke="#000000" points="218,-56.5 218,-75.5 346,-75.5 346,-56.5 218,-56.5"/>
<text text-anchor="middle" x="282" y="-63.5" font-family="Helvetica,sans-Serif" font-size="10.00" fill="#000000">GeometryRefinement.cpp</text>
</a>
</g>
</g>
<!-- Node10&#45;&gt;Node15 -->
<g id="edge5" class="edge">
<title>Node10&#45;&gt;Node15</title>
<path fill="none" stroke="#191970" d="M183.6102,-108.3833C207.2535,-98.1985 238.9876,-84.5284 259.9438,-75.5011"/>
<polygon fill="#191970" stroke="#191970" points="182.1472,-105.2025 174.3478,-112.3733 184.9166,-111.6314 182.1472,-105.2025"/>
</g>
<!-- Node12 -->
<g id="node3" class="node">
<title>Node12</title>
<g id="a_node3"><a xlink:href="_box_refiner_8cpp.html" target="_top" xlink:title="BoxRefiner.cpp">
<polygon fill="#ffffff" stroke="#000000" points="0,-.5 0,-19.5 84,-19.5 84,-.5 0,-.5"/>
<text text-anchor="middle" x="42" y="-7.5" font-family="Helvetica,sans-Serif" font-size="10.00" fill="#000000">BoxRefiner.cpp</text>
</a>
</g>
</g>
<!-- Node11&#45;&gt;Node12 -->
<g id="edge2" class="edge">
<title>Node11&#45;&gt;Node12</title>
<path fill="none" stroke="#191970" d="M44.5827,-46.1575C43.9396,-37.155 43.2086,-26.9199 42.6888,-19.6427"/>
<polygon fill="#191970" stroke="#191970" points="41.0996,-46.5204 45.3033,-56.2455 48.0818,-46.0216 41.0996,-46.5204"/>
</g>
<!-- Node14 -->
<g id="node5" class="node">
<title>Node14</title>
<g id="a_node5"><a xlink:href="_cylinder_refiner_8cpp.html" target="_top" xlink:title="CylinderRefiner.cpp">
<polygon fill="#ffffff" stroke="#000000" points="102.5,-.5 102.5,-19.5 205.5,-19.5 205.5,-.5 102.5,-.5"/>
<text text-anchor="middle" x="154" y="-7.5" font-family="Helvetica,sans-Serif" font-size="10.00" fill="#000000">CylinderRefiner.cpp</text>
</a>
</g>
</g>
<!-- Node13&#45;&gt;Node14 -->
<g id="edge4" class="edge">
<title>Node13&#45;&gt;Node14</title>
<path fill="none" stroke="#191970" d="M152.7087,-46.1575C153.0302,-37.155 153.3957,-26.9199 153.6556,-19.6427"/>
<polygon fill="#191970" stroke="#191970" points="149.2076,-46.127 152.3484,-56.2455 156.2032,-46.3769 149.2076,-46.127"/>
</g>
</g>
</svg>
