<?xml version="1.0" encoding="UTF-8" standalone="no"?>
<!DOCTYPE svg PUBLIC "-//W3C//DTD SVG 1.1//EN"
 "http://www.w3.org/Graphics/SVG/1.1/DTD/svg11.dtd">
<!-- Generated by graphviz version 2.40.1 (20161225.0304)
 -->
<!-- Title: Godunov.H Pages: 1 -->
<svg width="1122pt" height="196pt"
 viewBox="0.00 0.00 1121.50 196.00" xmlns="http://www.w3.org/2000/svg" xmlns:xlink="http://www.w3.org/1999/xlink">
<g id="graph0" class="graph" transform="scale(1 1) rotate(0) translate(4 192)">
<title>Godunov.H</title>
<polygon fill="#ffffff" stroke="transparent" points="-4,4 -4,-192 1117.5,-192 1117.5,4 -4,4"/>
<!-- Node21 -->
<g id="node1" class="node">
<title>Node21</title>
<polygon fill="#bfbfbf" stroke="#000000" points="410,-168.5 410,-187.5 476,-187.5 476,-168.5 410,-168.5"/>
<text text-anchor="middle" x="443" y="-175.5" font-family="Helvetica,sans-Serif" font-size="10.00" fill="#000000">Godunov.H</text>
</g>
<!-- Node22 -->
<g id="node2" class="node">
<title>Node22</title>
<g id="a_node2"><a xlink:href="incflo__godunov__advection_8cpp.html" target="_top" xlink:title="incflo_godunov_advection.cpp">
<polygon fill="#ffffff" stroke="#000000" points="0,-112.5 0,-131.5 148,-131.5 148,-112.5 0,-112.5"/>
<text text-anchor="middle" x="74" y="-119.5" font-family="Helvetica,sans-Serif" font-size="10.00" fill="#000000">incflo_godunov_advection.cpp</text>
</a>
</g>
</g>
<!-- Node21&#45;&gt;Node22 -->
<g id="edge1" class="edge">
<title>Node21&#45;&gt;Node22</title>
<path fill="none" stroke="#191970" d="M400.0289,-171.4786C335.111,-161.6266 211.673,-142.8935 136.7113,-131.5172"/>
<polygon fill="#191970" stroke="#191970" points="399.517,-174.9409 409.929,-172.9811 400.5674,-168.0202 399.517,-174.9409"/>
</g>
<!-- Node23 -->
<g id="node3" class="node">
<title>Node23</title>
<g id="a_node3"><a xlink:href="incflo__godunov__plm_8cpp.html" target="_top" xlink:title="incflo_godunov_plm.cpp">
<polygon fill="#ffffff" stroke="#000000" points="166,-112.5 166,-131.5 288,-131.5 288,-112.5 166,-112.5"/>
<text text-anchor="middle" x="227" y="-119.5" font-family="Helvetica,sans-Serif" font-size="10.00" fill="#000000">incflo_godunov_plm.cpp</text>
</a>
</g>
</g>
<!-- Node21&#45;&gt;Node23 -->
<g id="edge2" class="edge">
<title>Node21&#45;&gt;Node23</title>
<path fill="none" stroke="#191970" d="M400.0348,-166.8609C360.2408,-156.5439 301.6773,-141.3608 263.9351,-131.5758"/>
<polygon fill="#191970" stroke="#191970" points="399.165,-170.251 409.7234,-169.3727 400.9218,-163.475 399.165,-170.251"/>
</g>
<!-- Node24 -->
<g id="node4" class="node">
<title>Node24</title>
<g id="a_node4"><a xlink:href="incflo__godunov__ppm_8cpp.html" target="_top" xlink:title="incflo_godunov_ppm.cpp">
<polygon fill="#ffffff" stroke="#000000" points="306.5,-112.5 306.5,-131.5 431.5,-131.5 431.5,-112.5 306.5,-112.5"/>
<text text-anchor="middle" x="369" y="-119.5" font-family="Helvetica,sans-Serif" font-size="10.00" fill="#000000">incflo_godunov_ppm.cpp</text>
</a>
</g>
</g>
<!-- Node21&#45;&gt;Node24 -->
<g id="edge3" class="edge">
<title>Node21&#45;&gt;Node24</title>
<path fill="none" stroke="#191970" d="M422.1343,-162.2097C409.1375,-152.3743 392.8378,-140.0394 381.7421,-131.6427"/>
<polygon fill="#191970" stroke="#191970" points="420.024,-165.002 430.1102,-168.2455 424.2482,-159.4201 420.024,-165.002"/>
</g>
<!-- Node25 -->
<g id="node5" class="node">
<title>Node25</title>
<g id="a_node5"><a xlink:href="incflo__godunov__predict_8cpp.html" target="_top" xlink:title="incflo_godunov_predict.cpp">
<polygon fill="#ffffff" stroke="#000000" points="449.5,-112.5 449.5,-131.5 584.5,-131.5 584.5,-112.5 449.5,-112.5"/>
<text text-anchor="middle" x="517" y="-119.5" font-family="Helvetica,sans-Serif" font-size="10.00" fill="#000000">incflo_godunov_predict.cpp</text>
</a>
</g>
</g>
<!-- Node21&#45;&gt;Node25 -->
<g id="edge4" class="edge">
<title>Node21&#45;&gt;Node25</title>
<path fill="none" stroke="#191970" d="M463.8657,-162.2097C476.8625,-152.3743 493.1622,-140.0394 504.2579,-131.6427"/>
<polygon fill="#191970" stroke="#191970" points="461.7518,-159.4201 455.8898,-168.2455 465.976,-165.002 461.7518,-159.4201"/>
</g>
<!-- Node26 -->
<g id="node6" class="node">
<title>Node26</title>
<g id="a_node6"><a xlink:href="incflo__godunov__weno_8cpp.html" target="_top" xlink:title="incflo_godunov_weno.cpp">
<polygon fill="#ffffff" stroke="#000000" points="602.5,-112.5 602.5,-131.5 731.5,-131.5 731.5,-112.5 602.5,-112.5"/>
<text text-anchor="middle" x="667" y="-119.5" font-family="Helvetica,sans-Serif" font-size="10.00" fill="#000000">incflo_godunov_weno.cpp</text>
</a>
</g>
</g>
<!-- Node21&#45;&gt;Node26 -->
<g id="edge5" class="edge">
<title>Node21&#45;&gt;Node26</title>
<path fill="none" stroke="#191970" d="M485.8384,-167.2904C527.2055,-156.9486 589.257,-141.4358 628.9341,-131.5165"/>
<polygon fill="#191970" stroke="#191970" points="484.9045,-163.9161 476.052,-169.737 486.6023,-170.7071 484.9045,-163.9161"/>
</g>
<!-- Node27 -->
<g id="node7" class="node">
<title>Node27</title>
<g id="a_node7"><a xlink:href="_adv_op___godunov_8_h.html" target="_top" xlink:title="AdvOp_Godunov.H">
<polygon fill="#ffffff" stroke="#000000" points="749.5,-112.5 749.5,-131.5 850.5,-131.5 850.5,-112.5 749.5,-112.5"/>
<text text-anchor="middle" x="800" y="-119.5" font-family="Helvetica,sans-Serif" font-size="10.00" fill="#000000">AdvOp_Godunov.H</text>
</a>
</g>
</g>
<!-- Node21&#45;&gt;Node27 -->
<g id="edge6" class="edge">
<title>Node21&#45;&gt;Node27</title>
<path fill="none" stroke="#191970" d="M485.9998,-171.5659C543.954,-162.8475 650.3271,-146.6816 741,-132 743.769,-131.5516 746.6102,-131.0866 749.4776,-130.6135"/>
<polygon fill="#191970" stroke="#191970" points="485.4672,-168.1065 476.0983,-173.0538 486.5074,-175.0288 485.4672,-168.1065"/>
</g>
<!-- Node28 -->
<g id="node8" class="node">
<title>Node28</title>
<g id="a_node8"><a xlink:href="density_8cpp.html" target="_top" xlink:title="density.cpp">
<polygon fill="#ffffff" stroke="#000000" points="444.5,-56.5 444.5,-75.5 511.5,-75.5 511.5,-56.5 444.5,-56.5"/>
<text text-anchor="middle" x="478" y="-63.5" font-family="Helvetica,sans-Serif" font-size="10.00" fill="#000000">density.cpp</text>
</a>
</g>
</g>
<!-- Node27&#45;&gt;Node28 -->
<g id="edge7" class="edge">
<title>Node27&#45;&gt;Node28</title>
<path fill="none" stroke="#191970" d="M739.4525,-111.7582C641.5772,-95.6705 615.0616,-94.6121 521,-76 517.9925,-75.4049 514.8751,-74.7516 511.7554,-74.0729"/>
<polygon fill="#191970" stroke="#191970" points="739.0354,-115.2367 749.4727,-113.4166 740.1784,-108.3307 739.0354,-115.2367"/>
</g>
<!-- Node29 -->
<g id="node9" class="node">
<title>Node29</title>
<g id="a_node9"><a xlink:href="icns__ops_8_h.html" target="_top" xlink:title="icns_ops.H">
<polygon fill="#ffffff" stroke="#000000" points="530,-56.5 530,-75.5 596,-75.5 596,-56.5 530,-56.5"/>
<text text-anchor="middle" x="563" y="-63.5" font-family="Helvetica,sans-Serif" font-size="10.00" fill="#000000">icns_ops.H</text>
</a>
</g>
</g>
<!-- Node27&#45;&gt;Node29 -->
<g id="edge8" class="edge">
<title>Node27&#45;&gt;Node29</title>
<path fill="none" stroke="#191970" d="M749.3978,-110.0935C710.0308,-100.8233 654.0385,-87.6219 605,-76 602.0826,-75.3086 599.0515,-74.5891 596.0135,-73.8672"/>
<polygon fill="#191970" stroke="#191970" points="748.7488,-113.5363 759.2848,-112.4214 750.3531,-106.7227 748.7488,-113.5363"/>
</g>
<!-- Node31 -->
<g id="node11" class="node">
<title>Node31</title>
<g id="a_node11"><a xlink:href="icns__advection_8_h.html" target="_top" xlink:title="icns_advection.H">
<polygon fill="#ffffff" stroke="#000000" points="614,-56.5 614,-75.5 706,-75.5 706,-56.5 614,-56.5"/>
<text text-anchor="middle" x="660" y="-63.5" font-family="Helvetica,sans-Serif" font-size="10.00" fill="#000000">icns_advection.H</text>
</a>
</g>
</g>
<!-- Node27&#45;&gt;Node31 -->
<g id="edge10" class="edge">
<title>Node27&#45;&gt;Node31</title>
<path fill="none" stroke="#191970" d="M766.6351,-108.6541C741.1048,-98.4419 706.5216,-84.6086 683.7528,-75.5011"/>
<polygon fill="#191970" stroke="#191970" points="765.3485,-111.909 775.9331,-112.3733 767.9483,-105.4096 765.3485,-111.909"/>
</g>
<!-- Node33 -->
<g id="node13" class="node">
<title>Node33</title>
<g id="a_node13"><a xlink:href="levelset_8cpp.html" target="_top" xlink:title="levelset.cpp">
<polygon fill="#ffffff" stroke="#000000" points="724.5,-56.5 724.5,-75.5 793.5,-75.5 793.5,-56.5 724.5,-56.5"/>
<text text-anchor="middle" x="759" y="-63.5" font-family="Helvetica,sans-Serif" font-size="10.00" fill="#000000">levelset.cpp</text>
</a>
</g>
</g>
<!-- Node27&#45;&gt;Node33 -->
<g id="edge13" class="edge">
<title>Node27&#45;&gt;Node33</title>
<path fill="none" stroke="#191970" d="M786.7636,-103.9209C779.8789,-94.5176 771.7391,-83.3997 766.0598,-75.6427"/>
<polygon fill="#191970" stroke="#191970" points="784.1269,-106.2445 792.8583,-112.2455 789.7749,-102.1093 784.1269,-106.2445"/>
</g>
<!-- Node34 -->
<g id="node14" class="node">
<title>Node34</title>
<g id="a_node14"><a xlink:href="_s_d_r_8cpp.html" target="_top" xlink:title="SDR.cpp">
<polygon fill="#ffffff" stroke="#000000" points="811.5,-56.5 811.5,-75.5 868.5,-75.5 868.5,-56.5 811.5,-56.5"/>
<text text-anchor="middle" x="840" y="-63.5" font-family="Helvetica,sans-Serif" font-size="10.00" fill="#000000">SDR.cpp</text>
</a>
</g>
</g>
<!-- Node27&#45;&gt;Node34 -->
<g id="edge14" class="edge">
<title>Node27&#45;&gt;Node34</title>
<path fill="none" stroke="#191970" d="M812.9136,-103.9209C819.6303,-94.5176 827.5717,-83.3997 833.1124,-75.6427"/>
<polygon fill="#191970" stroke="#191970" points="809.9318,-102.0738 806.9675,-112.2455 815.628,-106.1425 809.9318,-102.0738"/>
</g>
<!-- Node35 -->
<g id="node15" class="node">
<title>Node35</title>
<g id="a_node15"><a xlink:href="temperature_8cpp.html" target="_top" xlink:title="temperature.cpp">
<polygon fill="#ffffff" stroke="#000000" points="886.5,-56.5 886.5,-75.5 973.5,-75.5 973.5,-56.5 886.5,-56.5"/>
<text text-anchor="middle" x="930" y="-63.5" font-family="Helvetica,sans-Serif" font-size="10.00" fill="#000000">temperature.cpp</text>
</a>
</g>
</g>
<!-- Node27&#45;&gt;Node35 -->
<g id="edge15" class="edge">
<title>Node27&#45;&gt;Node35</title>
<path fill="none" stroke="#191970" d="M831.6102,-108.3833C855.2535,-98.1985 886.9876,-84.5284 907.9438,-75.5011"/>
<polygon fill="#191970" stroke="#191970" points="830.1472,-105.2025 822.3478,-112.3733 832.9166,-111.6314 830.1472,-105.2025"/>
</g>
<!-- Node36 -->
<g id="node16" class="node">
<title>Node36</title>
<g id="a_node16"><a xlink:href="_t_k_e_8cpp.html" target="_top" xlink:title="TKE.cpp">
<polygon fill="#ffffff" stroke="#000000" points="991.5,-56.5 991.5,-75.5 1046.5,-75.5 1046.5,-56.5 991.5,-56.5"/>
<text text-anchor="middle" x="1019" y="-63.5" font-family="Helvetica,sans-Serif" font-size="10.00" fill="#000000">TKE.cpp</text>
</a>
</g>
</g>
<!-- Node27&#45;&gt;Node36 -->
<g id="edge16" class="edge">
<title>Node27&#45;&gt;Node36</title>
<path fill="none" stroke="#191970" d="M848.9787,-110.0367C885.8816,-100.9385 937.696,-87.9842 983,-76 985.6338,-75.3033 988.3724,-74.566 991.1105,-73.8202"/>
<polygon fill="#191970" stroke="#191970" points="847.8573,-106.7081 838.9835,-112.4965 849.5302,-113.5053 847.8573,-106.7081"/>
</g>
<!-- Node37 -->
<g id="node17" class="node">
<title>Node37</title>
<g id="a_node17"><a xlink:href="vof_8cpp.html" target="_top" xlink:title="vof.cpp">
<polygon fill="#ffffff" stroke="#000000" points="1064.5,-56.5 1064.5,-75.5 1113.5,-75.5 1113.5,-56.5 1064.5,-56.5"/>
<text text-anchor="middle" x="1089" y="-63.5" font-family="Helvetica,sans-Serif" font-size="10.00" fill="#000000">vof.cpp</text>
</a>
</g>
</g>
<!-- Node27&#45;&gt;Node37 -->
<g id="edge17" class="edge">
<title>Node27&#45;&gt;Node37</title>
<path fill="none" stroke="#191970" d="M860.9641,-113.0934C913.0932,-104.9905 989.9376,-91.8876 1056,-76 1058.6774,-75.3561 1061.4581,-74.6207 1064.2186,-73.8475"/>
<polygon fill="#191970" stroke="#191970" points="860.2291,-109.6653 850.8784,-114.6467 861.2946,-116.5837 860.2291,-109.6653"/>
</g>
<!-- Node30 -->
<g id="node10" class="node">
<title>Node30</title>
<g id="a_node10"><a xlink:href="icns_8cpp.html" target="_top" xlink:title="icns.cpp">
<polygon fill="#ffffff" stroke="#000000" points="537.5,-.5 537.5,-19.5 590.5,-19.5 590.5,-.5 537.5,-.5"/>
<text text-anchor="middle" x="564" y="-7.5" font-family="Helvetica,sans-Serif" font-size="10.00" fill="#000000">icns.cpp</text>
</a>
</g>
</g>
<!-- Node29&#45;&gt;Node30 -->
<g id="edge9" class="edge">
<title>Node29&#45;&gt;Node30</title>
<path fill="none" stroke="#191970" d="M563.3543,-46.1575C563.5151,-37.155 563.6979,-26.9199 563.8278,-19.6427"/>
<polygon fill="#191970" stroke="#191970" points="559.8534,-46.1846 563.1742,-56.2455 566.8523,-46.3097 559.8534,-46.1846"/>
</g>
<!-- Node31&#45;&gt;Node30 -->
<g id="edge11" class="edge">
<title>Node31&#45;&gt;Node30</title>
<path fill="none" stroke="#191970" d="M634.3654,-51.0465C617.2841,-41.0824 595.336,-28.2794 580.5303,-19.6427"/>
<polygon fill="#191970" stroke="#191970" points="632.8767,-54.23 643.2781,-56.2455 636.4038,-48.1836 632.8767,-54.23"/>
</g>
<!-- Node32 -->
<g id="node12" class="node">
<title>Node32</title>
<g id="a_node12"><a xlink:href="icns__advection_8cpp.html" target="_top" xlink:title="icns_advection.cpp">
<polygon fill="#ffffff" stroke="#000000" points="609.5,-.5 609.5,-19.5 710.5,-19.5 710.5,-.5 609.5,-.5"/>
<text text-anchor="middle" x="660" y="-7.5" font-family="Helvetica,sans-Serif" font-size="10.00" fill="#000000">icns_advection.cpp</text>
</a>
</g>
</g>
<!-- Node31&#45;&gt;Node32 -->
<g id="edge12" class="edge">
<title>Node31&#45;&gt;Node32</title>
<path fill="none" stroke="#191970" d="M660,-46.1575C660,-37.155 660,-26.9199 660,-19.6427"/>
<polygon fill="#191970" stroke="#191970" points="656.5001,-46.2455 660,-56.2455 663.5001,-46.2456 656.5001,-46.2455"/>
</g>
</g>
</svg>
