<?xml version="1.0" encoding="UTF-8" standalone="no"?>
<!DOCTYPE svg PUBLIC "-//W3C//DTD SVG 1.1//EN"
 "http://www.w3.org/Graphics/SVG/1.1/DTD/svg11.dtd">
<!-- Generated by graphviz version 2.40.1 (20161225.0304)
 -->
<!-- Title: GravityForcing.cpp Pages: 1 -->
<!--zoomable 408 -->
<svg id="main" version="1.1" xmlns="http://www.w3.org/2000/svg" xmlns:xlink="http://www.w3.org/1999/xlink" xml:space="preserve" onload="init(evt)">
<style type="text/css"><![CDATA[
.edge:hover path { stroke: red; }
.edge:hover polygon { stroke: red; fill: red; }
]]></style>
<script type="text/javascript"><![CDATA[
var edges = document.getElementsByTagName('g');
if (edges && edges.length) {
  for (var i=0;i<edges.length;i++) {
    if (edges[i].id.substr(0,4)=='edge') {
      edges[i].setAttribute('class','edge');
    }
  }
}
]]></script>
        <defs>
                <circle id="rim" cx="0" cy="0" r="7"/>
                <circle id="rim2" cx="0" cy="0" r="3.5"/>
                <g id="zoomPlus">
                        <use xlink:href="#rim" fill="#404040">
                                <set attributeName="fill" to="#808080" begin="zoomplus.mouseover" end="zoomplus.mouseout"/>
                        </use>
                        <path d="M-4,0h8M0,-4v8" fill="none" stroke="white" stroke-width="1.5" pointer-events="none"/>
                </g>
                <g id="zoomMin">
                        <use xlink:href="#rim" fill="#404040">
                                <set attributeName="fill" to="#808080" begin="zoomminus.mouseover" end="zoomminus.mouseout"/>
                        </use>
                        <path d="M-4,0h8" fill="none" stroke="white" stroke-width="1.5" pointer-events="none"/>
                </g>
                <g id="dirArrow">
                        <path fill="none" stroke="white" stroke-width="1.5" d="M0,-3.0v7 M-2.5,-0.5L0,-3.0L2.5,-0.5"/>
                </g>
               <g id="resetDef">
                       <use xlink:href="#rim2" fill="#404040">
                               <set attributeName="fill" to="#808080" begin="reset.mouseover" end="reset.mouseout"/>
                       </use>
               </g>
        </defs>

<script type="text/javascript">
var viewWidth = 2742;
var viewHeight = 408;
var sectionId = 'dynsection-0';
</script>
<script xlink:href="svgpan.js"/>
<svg id="graph" class="graph">
<g id="viewport">
<title>GravityForcing.cpp</title>
<polygon fill="#ffffff" stroke="transparent" points="-4,4 -4,-404 2738.3238,-404 2738.3238,4 -4,4"/>
<!-- Node0 -->
<g id="node1" class="node">
<title>Node0</title>
<polygon fill="#bfbfbf" stroke="#000000" points="497.3238,-380.5 497.3238,-399.5 596.3238,-399.5 596.3238,-380.5 497.3238,-380.5"/>
<text text-anchor="middle" x="546.8238" y="-387.5" font-family="Helvetica,sans-Serif" font-size="10.00" fill="#000000">GravityForcing.cpp</text>
</g>
<!-- Node1 -->
<g id="node2" class="node">
<title>Node1</title>
<g id="a_node2"><a xlink:href="_gravity_forcing_8_h.html" target="_top" xlink:title="amr&#45;wind/equation_systems\l/icns/source_terms/GravityForcing.H">
<polygon fill="#ffffff" stroke="#000000" points="400.3238,-313.5 400.3238,-343.5 577.3238,-343.5 577.3238,-313.5 400.3238,-313.5"/>
<text text-anchor="start" x="408.3238" y="-331.5" font-family="Helvetica,sans-Serif" font-size="10.00" fill="#000000">amr&#45;wind/equation_systems</text>
<text text-anchor="middle" x="488.8238" y="-320.5" font-family="Helvetica,sans-Serif" font-size="10.00" fill="#000000">/icns/source_terms/GravityForcing.H</text>
</a>
</g>
</g>
<!-- Node0&#45;&gt;Node1 -->
<g id="edge1" class="edge">
<title>Node0&#45;&gt;Node1</title>
<path fill="none" stroke="#191970" d="M537.7613,-380.3906C530.3478,-372.5298 519.565,-361.0964 510.0067,-350.9612"/>
<polygon fill="#191970" stroke="#191970" points="512.4195,-348.4183 503.0122,-343.5446 507.3269,-353.221 512.4195,-348.4183"/>
</g>
<!-- Node6 -->
<g id="node7" class="node">
<title>Node6</title>
<g id="a_node7"><a xlink:href="_field_utils_8_h.html" target="_top" xlink:title="amr&#45;wind/core/FieldUtils.H">
<polygon fill="#ffffff" stroke="#000000" points="42.3238,-118 42.3238,-137 175.3238,-137 175.3238,-118 42.3238,-118"/>
<text text-anchor="middle" x="108.8238" y="-125" font-family="Helvetica,sans-Serif" font-size="10.00" fill="#000000">amr&#45;wind/core/FieldUtils.H</text>
</a>
</g>
</g>
<!-- Node0&#45;&gt;Node6 -->
<g id="edge74" class="edge">
<title>Node0&#45;&gt;Node6</title>
<path fill="none" stroke="#191970" d="M498.6584,-380.4859C467.1588,-373.1277 425.7209,-361.2514 391.8238,-344 280.183,-287.1822 168.0867,-184.7867 126.1098,-144.47"/>
<polygon fill="#191970" stroke="#191970" points="128.289,-141.7082 118.6702,-137.2663 123.4196,-146.737 128.289,-141.7082"/>
</g>
<!-- Node27 -->
<g id="node28" class="node">
<title>Node27</title>
<g id="a_node28"><a xlink:href="_c_f_d_sim_8_h.html" target="_top" xlink:title="amr&#45;wind/CFDSim.H">
<polygon fill="#ffffff" stroke="#000000" points="1401.8238,-252 1401.8238,-271 1509.8238,-271 1509.8238,-252 1401.8238,-252"/>
<text text-anchor="middle" x="1455.8238" y="-259" font-family="Helvetica,sans-Serif" font-size="10.00" fill="#000000">amr&#45;wind/CFDSim.H</text>
</a>
</g>
</g>
<!-- Node0&#45;&gt;Node27 -->
<g id="edge50" class="edge">
<title>Node0&#45;&gt;Node27</title>
<path fill="none" stroke="#191970" d="M554.9938,-380.2584C571.1393,-361.2874 607.0203,-320.5768 623.8238,-313 693.0963,-281.7644 1208.7222,-267.1172 1391.6735,-262.8639"/>
<polygon fill="#191970" stroke="#191970" points="1391.7709,-266.3627 1401.6878,-262.6338 1391.61,-259.3646 1391.7709,-266.3627"/>
</g>
<!-- Node38 -->
<g id="node39" class="node">
<title>Node38</title>
<polygon fill="#ffffff" stroke="#bfbfbf" points="632.8238,-319 632.8238,-338 748.8238,-338 748.8238,-319 632.8238,-319"/>
<text text-anchor="middle" x="690.8238" y="-326" font-family="Helvetica,sans-Serif" font-size="10.00" fill="#000000">AMReX_ParmParse.H</text>
</g>
<!-- Node0&#45;&gt;Node38 -->
<g id="edge75" class="edge">
<title>Node0&#45;&gt;Node38</title>
<path fill="none" stroke="#191970" d="M569.3238,-380.3906C593.4176,-370.1005 631.8451,-353.6888 659.0246,-342.0809"/>
<polygon fill="#191970" stroke="#191970" points="660.66,-345.1883 668.4818,-338.0419 657.9107,-338.7508 660.66,-345.1883"/>
</g>
<!-- Node2 -->
<g id="node3" class="node">
<title>Node2</title>
<g id="a_node3"><a xlink:href="_field_repo_8_h.html" target="_top" xlink:title="amr&#45;wind/core/FieldRepo.H">
<polygon fill="#ffffff" stroke="#000000" points="520.8238,-185 520.8238,-204 656.8238,-204 656.8238,-185 520.8238,-185"/>
<text text-anchor="middle" x="588.8238" y="-192" font-family="Helvetica,sans-Serif" font-size="10.00" fill="#000000">amr&#45;wind/core/FieldRepo.H</text>
</a>
</g>
</g>
<!-- Node1&#45;&gt;Node2 -->
<g id="edge2" class="edge">
<title>Node1&#45;&gt;Node2</title>
<path fill="none" stroke="#191970" d="M500.1006,-313.389C518.7326,-288.4222 555.8489,-238.6864 575.6549,-212.1462"/>
<polygon fill="#191970" stroke="#191970" points="578.4806,-214.2118 581.6565,-204.1042 572.8706,-210.0252 578.4806,-214.2118"/>
</g>
<!-- Node22 -->
<g id="node23" class="node">
<title>Node22</title>
<g id="a_node23"><a xlink:href="_momentum_source_8_h.html" target="_top" xlink:title="amr&#45;wind/equation_systems\l/icns/MomentumSource.H">
<polygon fill="#ffffff" stroke="#000000" points="353.3238,-246.5 353.3238,-276.5 492.3238,-276.5 492.3238,-246.5 353.3238,-246.5"/>
<text text-anchor="start" x="361.3238" y="-264.5" font-family="Helvetica,sans-Serif" font-size="10.00" fill="#000000">amr&#45;wind/equation_systems</text>
<text text-anchor="middle" x="422.8238" y="-253.5" font-family="Helvetica,sans-Serif" font-size="10.00" fill="#000000">/icns/MomentumSource.H</text>
</a>
</g>
</g>
<!-- Node1&#45;&gt;Node22 -->
<g id="edge39" class="edge">
<title>Node1&#45;&gt;Node22</title>
<path fill="none" stroke="#191970" d="M473.8473,-313.2967C465.3244,-304.6446 454.4878,-293.6438 444.9955,-284.0076"/>
<polygon fill="#191970" stroke="#191970" points="447.2521,-281.311 437.7409,-276.6432 442.2652,-286.2234 447.2521,-281.311"/>
</g>
<!-- Node3 -->
<g id="node4" class="node">
<title>Node3</title>
<polygon fill="#ffffff" stroke="#bfbfbf" points="1434.3238,-.5 1434.3238,-19.5 1475.3238,-19.5 1475.3238,-.5 1434.3238,-.5"/>
<text text-anchor="middle" x="1454.8238" y="-7.5" font-family="Helvetica,sans-Serif" font-size="10.00" fill="#000000">string</text>
</g>
<!-- Node2&#45;&gt;Node3 -->
<g id="edge3" class="edge">
<title>Node2&#45;&gt;Node3</title>
<path fill="none" stroke="#191970" d="M656.9196,-193.5203C884.6945,-189.9619 1618.7863,-176.1464 1852.8238,-143 1976.5233,-125.4806 2048.7256,-174.3076 2125.8238,-76 2131.3092,-69.0055 2131.8904,-62.4968 2125.8238,-56 2103.7061,-32.3142 1615.2213,-15.1122 1485.9669,-10.9638"/>
<polygon fill="#191970" stroke="#191970" points="1485.7073,-7.4539 1475.6012,-10.6345 1485.485,-14.4504 1485.7073,-7.4539"/>
</g>
<!-- Node4 -->
<g id="node5" class="node">
<title>Node4</title>
<polygon fill="#ffffff" stroke="#bfbfbf" points="1483.3238,-56.5 1483.3238,-75.5 1566.3238,-75.5 1566.3238,-56.5 1483.3238,-56.5"/>
<text text-anchor="middle" x="1524.8238" y="-63.5" font-family="Helvetica,sans-Serif" font-size="10.00" fill="#000000">unordered_map</text>
</g>
<!-- Node2&#45;&gt;Node4 -->
<g id="edge4" class="edge">
<title>Node2&#45;&gt;Node4</title>
<path fill="none" stroke="#191970" d="M657.1197,-191.7095C819.5107,-184.7427 1219.3747,-165.5176 1275.8238,-143 1296.0684,-134.9244 1294.1927,-121.4701 1313.8238,-112 1341.5029,-98.6475 1420.2577,-83.5327 1473.3231,-74.3881"/>
<polygon fill="#191970" stroke="#191970" points="1473.9732,-77.8279 1483.2425,-72.6965 1472.7964,-70.9275 1473.9732,-77.8279"/>
</g>
<!-- Node5 -->
<g id="node6" class="node">
<title>Node5</title>
<g id="a_node6"><a xlink:href="_field_desc_types_8_h.html" target="_top" xlink:title="amr&#45;wind/core/FieldDescTypes.H">
<polygon fill="#ffffff" stroke="#000000" points="641.3238,-.5 641.3238,-19.5 804.3238,-19.5 804.3238,-.5 641.3238,-.5"/>
<text text-anchor="middle" x="722.8238" y="-7.5" font-family="Helvetica,sans-Serif" font-size="10.00" fill="#000000">amr&#45;wind/core/FieldDescTypes.H</text>
</a>
</g>
</g>
<!-- Node2&#45;&gt;Node5 -->
<g id="edge5" class="edge">
<title>Node2&#45;&gt;Node5</title>
<path fill="none" stroke="#191970" d="M556.6335,-184.9084C493.3217,-164.4942 362.9207,-113.8544 412.8238,-56 427.0528,-39.5038 544.812,-25.6439 630.991,-17.5783"/>
<polygon fill="#191970" stroke="#191970" points="631.4347,-21.0523 641.0706,-16.6476 630.7911,-14.0819 631.4347,-21.0523"/>
</g>
<!-- Node2&#45;&gt;Node6 -->
<g id="edge6" class="edge">
<title>Node2&#45;&gt;Node6</title>
<path fill="none" stroke="#191970" d="M520.5132,-186.9612C440.9126,-177.8807 305.5168,-161.5183 189.8238,-143 182.1695,-141.7748 174.13,-140.3746 166.2104,-138.9282"/>
<polygon fill="#191970" stroke="#191970" points="166.7527,-135.4691 156.2812,-137.081 165.4724,-142.351 166.7527,-135.4691"/>
</g>
<!-- Node7 -->
<g id="node8" class="node">
<title>Node7</title>
<polygon fill="#ffffff" stroke="#bfbfbf" points="189.8238,-.5 189.8238,-19.5 293.8238,-19.5 293.8238,-.5 189.8238,-.5"/>
<text text-anchor="middle" x="241.8238" y="-7.5" font-family="Helvetica,sans-Serif" font-size="10.00" fill="#000000">AMReX_MultiFab.H</text>
</g>
<!-- Node2&#45;&gt;Node7 -->
<g id="edge37" class="edge">
<title>Node2&#45;&gt;Node7</title>
<path fill="none" stroke="#191970" d="M535.3037,-184.9547C443.8023,-167.4091 263.6662,-127.1014 227.8238,-76 218.0961,-62.1311 223.8278,-42.8679 230.6562,-28.7318"/>
<polygon fill="#191970" stroke="#191970" points="233.7532,-30.3625 235.3823,-19.8936 227.5803,-27.0616 233.7532,-30.3625"/>
</g>
<!-- Node9 -->
<g id="node10" class="node">
<title>Node9</title>
<g id="a_node10"><a xlink:href="_field_8_h.html" target="_top" xlink:title="amr&#45;wind/core/Field.H">
<polygon fill="#ffffff" stroke="#000000" points="1153.3238,-118 1153.3238,-137 1266.3238,-137 1266.3238,-118 1153.3238,-118"/>
<text text-anchor="middle" x="1209.8238" y="-125" font-family="Helvetica,sans-Serif" font-size="10.00" fill="#000000">amr&#45;wind/core/Field.H</text>
</a>
</g>
</g>
<!-- Node2&#45;&gt;Node9 -->
<g id="edge10" class="edge">
<title>Node2&#45;&gt;Node9</title>
<path fill="none" stroke="#191970" d="M657.058,-187.1382C777.07,-174.19 1024.4462,-147.5005 1143.2628,-134.6813"/>
<polygon fill="#191970" stroke="#191970" points="1143.751,-138.149 1153.3178,-133.5965 1143.0001,-131.1894 1143.751,-138.149"/>
</g>
<!-- Node17 -->
<g id="node18" class="node">
<title>Node17</title>
<g id="a_node18"><a xlink:href="_int_field_8_h.html" target="_top" xlink:title="amr&#45;wind/core/IntField.H">
<polygon fill="#ffffff" stroke="#000000" points="679.8238,-118 679.8238,-137 803.8238,-137 803.8238,-118 679.8238,-118"/>
<text text-anchor="middle" x="741.8238" y="-125" font-family="Helvetica,sans-Serif" font-size="10.00" fill="#000000">amr&#45;wind/core/IntField.H</text>
</a>
</g>
</g>
<!-- Node2&#45;&gt;Node17 -->
<g id="edge25" class="edge">
<title>Node2&#45;&gt;Node17</title>
<path fill="none" stroke="#191970" d="M610.7449,-184.9005C636.8762,-173.4574 680.7358,-154.2509 710.4533,-141.2374"/>
<polygon fill="#191970" stroke="#191970" points="712.187,-144.2991 719.9433,-137.0817 709.3791,-137.887 712.187,-144.2991"/>
</g>
<!-- Node18 -->
<g id="node19" class="node">
<title>Node18</title>
<polygon fill="#ffffff" stroke="#bfbfbf" points="422.3238,-56.5 422.3238,-75.5 529.3238,-75.5 529.3238,-56.5 422.3238,-56.5"/>
<text text-anchor="middle" x="475.8238" y="-63.5" font-family="Helvetica,sans-Serif" font-size="10.00" fill="#000000">AMReX_iMultiFab.H</text>
</g>
<!-- Node2&#45;&gt;Node18 -->
<g id="edge38" class="edge">
<title>Node2&#45;&gt;Node18</title>
<path fill="none" stroke="#191970" d="M565.8761,-184.9275C547.6961,-176.3178 522.7829,-162.0874 506.8238,-143 492.72,-126.1317 484.4161,-102.0183 480.0086,-85.2881"/>
<polygon fill="#191970" stroke="#191970" points="483.3979,-84.4127 477.6531,-75.5106 476.5926,-86.0522 483.3979,-84.4127"/>
</g>
<!-- Node19 -->
<g id="node20" class="node">
<title>Node19</title>
<g id="a_node20"><a xlink:href="_scratch_field_8_h.html" target="_top" xlink:title="amr&#45;wind/core/ScratchField.H">
<polygon fill="#ffffff" stroke="#000000" points="515.8238,-118 515.8238,-137 661.8238,-137 661.8238,-118 515.8238,-118"/>
<text text-anchor="middle" x="588.8238" y="-125" font-family="Helvetica,sans-Serif" font-size="10.00" fill="#000000">amr&#45;wind/core/ScratchField.H</text>
</a>
</g>
</g>
<!-- Node2&#45;&gt;Node19 -->
<g id="edge29" class="edge">
<title>Node2&#45;&gt;Node19</title>
<path fill="none" stroke="#191970" d="M588.8238,-184.9005C588.8238,-175.149 588.8238,-159.7597 588.8238,-147.3695"/>
<polygon fill="#191970" stroke="#191970" points="592.3239,-147.0816 588.8238,-137.0817 585.3239,-147.0817 592.3239,-147.0816"/>
</g>
<!-- Node21 -->
<g id="node22" class="node">
<title>Node21</title>
<polygon fill="#ffffff" stroke="#bfbfbf" points="1322.8238,-118 1322.8238,-137 1428.8238,-137 1428.8238,-118 1322.8238,-118"/>
<text text-anchor="middle" x="1375.8238" y="-125" font-family="Helvetica,sans-Serif" font-size="10.00" fill="#000000">AMReX_AmrCore.H</text>
</g>
<!-- Node2&#45;&gt;Node21 -->
<g id="edge36" class="edge">
<title>Node2&#45;&gt;Node21</title>
<path fill="none" stroke="#191970" d="M656.9617,-193.1607C785.2293,-189.8584 1071.0449,-178.7848 1308.8238,-143 1315.4869,-141.9972 1322.4685,-140.6833 1329.3042,-139.244"/>
<polygon fill="#191970" stroke="#191970" points="1330.151,-142.6415 1339.1611,-137.0675 1328.6416,-135.8061 1330.151,-142.6415"/>
</g>
<!-- Node6&#45;&gt;Node5 -->
<g id="edge7" class="edge">
<title>Node6&#45;&gt;Node5</title>
<path fill="none" stroke="#191970" d="M134.6334,-117.9233C177.1941,-102.5093 265.0401,-72.2815 341.8238,-56 439.4429,-35.3004 553.2504,-23.0763 630.8894,-16.4956"/>
<polygon fill="#191970" stroke="#191970" points="631.4485,-19.9613 641.1235,-15.6431 630.8674,-12.9854 631.4485,-19.9613"/>
</g>
<!-- Node6&#45;&gt;Node7 -->
<g id="edge8" class="edge">
<title>Node6&#45;&gt;Node7</title>
<path fill="none" stroke="#191970" d="M119.7077,-117.8845C142.4069,-97.8306 195.0253,-51.3445 223.2096,-26.4449"/>
<polygon fill="#191970" stroke="#191970" points="225.6125,-28.9923 230.7894,-19.7484 220.9778,-23.7463 225.6125,-28.9923"/>
</g>
<!-- Node8 -->
<g id="node9" class="node">
<title>Node8</title>
<polygon fill="#ffffff" stroke="#bfbfbf" points="21.8238,-56.5 21.8238,-75.5 137.8238,-75.5 137.8238,-56.5 21.8238,-56.5"/>
<text text-anchor="middle" x="79.8238" y="-63.5" font-family="Helvetica,sans-Serif" font-size="10.00" fill="#000000">AMReX_Interpolater.H</text>
</g>
<!-- Node6&#45;&gt;Node8 -->
<g id="edge9" class="edge">
<title>Node6&#45;&gt;Node8</title>
<path fill="none" stroke="#191970" d="M104.2925,-117.8906C100.1457,-109.0965 93.8905,-95.8312 88.7428,-84.9145"/>
<polygon fill="#191970" stroke="#191970" points="91.8497,-83.2969 84.4189,-75.7449 85.5183,-86.2825 91.8497,-83.2969"/>
</g>
<!-- Node9&#45;&gt;Node3 -->
<g id="edge11" class="edge">
<title>Node9&#45;&gt;Node3</title>
<path fill="none" stroke="#191970" d="M1252.9998,-117.9475C1318.1259,-103.4991 1434.1422,-77.5895 1435.8238,-76 1448.3908,-64.1207 1452.8168,-44.5183 1454.2926,-29.7563"/>
<polygon fill="#191970" stroke="#191970" points="1457.7955,-29.8198 1454.932,-19.6192 1450.8093,-29.379 1457.7955,-29.8198"/>
</g>
<!-- Node9&#45;&gt;Node4 -->
<g id="edge13" class="edge">
<title>Node9&#45;&gt;Node4</title>
<path fill="none" stroke="#191970" d="M1252.5831,-117.958C1261.8824,-115.9408 1271.6747,-113.8607 1280.8238,-112 1347.0786,-98.5255 1423.7378,-84.295 1473.1827,-75.2928"/>
<polygon fill="#191970" stroke="#191970" points="1474.0939,-78.6846 1483.3071,-73.4533 1472.8425,-71.7974 1474.0939,-78.6846"/>
</g>
<!-- Node9&#45;&gt;Node5 -->
<g id="edge19" class="edge">
<title>Node9&#45;&gt;Node5</title>
<path fill="none" stroke="#191970" d="M1189.739,-117.9383C1156.5762,-102.5455 1087.9491,-72.3474 1026.8238,-56 956.7283,-37.2537 875.3605,-25.4459 814.4545,-18.4936"/>
<polygon fill="#191970" stroke="#191970" points="814.8055,-15.0111 804.4783,-17.3772 814.027,-21.9677 814.8055,-15.0111"/>
</g>
<!-- Node9&#45;&gt;Node7 -->
<g id="edge15" class="edge">
<title>Node9&#45;&gt;Node7</title>
<path fill="none" stroke="#191970" d="M1153.1867,-119.1833C1057.0228,-105.1978 855.6149,-76.492 684.8238,-56 549.2646,-39.7352 389.9548,-24.0234 304.1479,-15.8395"/>
<polygon fill="#191970" stroke="#191970" points="304.3411,-12.3422 294.0545,-14.8793 303.6781,-19.3107 304.3411,-12.3422"/>
</g>
<!-- Node10 -->
<g id="node11" class="node">
<title>Node10</title>
<polygon fill="#ffffff" stroke="#bfbfbf" points="1622.8238,-56.5 1622.8238,-75.5 1674.8238,-75.5 1674.8238,-56.5 1622.8238,-56.5"/>
<text text-anchor="middle" x="1648.8238" y="-63.5" font-family="Helvetica,sans-Serif" font-size="10.00" fill="#000000">memory</text>
</g>
<!-- Node9&#45;&gt;Node10 -->
<g id="edge12" class="edge">
<title>Node9&#45;&gt;Node10</title>
<path fill="none" stroke="#191970" d="M1266.481,-118.9353C1281.8382,-116.6467 1298.4637,-114.1991 1313.8238,-112 1328.505,-109.8981 1528.8017,-82.4444 1612.4854,-70.9783"/>
<polygon fill="#191970" stroke="#191970" points="1613.1269,-74.4232 1622.5592,-69.5981 1612.1766,-67.488 1613.1269,-74.4232"/>
</g>
<!-- Node11 -->
<g id="node12" class="node">
<title>Node11</title>
<polygon fill="#ffffff" stroke="#bfbfbf" points="1370.8238,-56.5 1370.8238,-75.5 1426.8238,-75.5 1426.8238,-56.5 1370.8238,-56.5"/>
<text text-anchor="middle" x="1398.8238" y="-63.5" font-family="Helvetica,sans-Serif" font-size="10.00" fill="#000000">algorithm</text>
</g>
<!-- Node9&#45;&gt;Node11 -->
<g id="edge14" class="edge">
<title>Node9&#45;&gt;Node11</title>
<path fill="none" stroke="#191970" d="M1239.355,-117.8906C1272.19,-107.2062 1325.3073,-89.922 1361.1213,-78.2683"/>
<polygon fill="#191970" stroke="#191970" points="1362.3064,-81.5633 1370.7326,-75.1408 1360.1404,-74.9069 1362.3064,-81.5633"/>
</g>
<!-- Node12 -->
<g id="node13" class="node">
<title>Node12</title>
<polygon fill="#ffffff" stroke="#bfbfbf" points="1150.3238,-56.5 1150.3238,-75.5 1249.3238,-75.5 1249.3238,-56.5 1150.3238,-56.5"/>
<text text-anchor="middle" x="1199.8238" y="-63.5" font-family="Helvetica,sans-Serif" font-size="10.00" fill="#000000">AMReX_BCRec.H</text>
</g>
<!-- Node9&#45;&gt;Node12 -->
<g id="edge16" class="edge">
<title>Node9&#45;&gt;Node12</title>
<path fill="none" stroke="#191970" d="M1208.2613,-117.8906C1206.8751,-109.3657 1204.8057,-96.6392 1203.0634,-85.9235"/>
<polygon fill="#191970" stroke="#191970" points="1206.4679,-85.0535 1201.4083,-75.7449 1199.5587,-86.177 1206.4679,-85.0535"/>
</g>
<!-- Node13 -->
<g id="node14" class="node">
<title>Node13</title>
<polygon fill="#ffffff" stroke="#bfbfbf" points="1267.3238,-56.5 1267.3238,-75.5 1352.3238,-75.5 1352.3238,-56.5 1267.3238,-56.5"/>
<text text-anchor="middle" x="1309.8238" y="-63.5" font-family="Helvetica,sans-Serif" font-size="10.00" fill="#000000">AMReX_Gpu.H</text>
</g>
<!-- Node9&#45;&gt;Node13 -->
<g id="edge17" class="edge">
<title>Node9&#45;&gt;Node13</title>
<path fill="none" stroke="#191970" d="M1225.4488,-117.8906C1241.5935,-107.9616 1267.0059,-92.333 1285.7261,-80.8201"/>
<polygon fill="#191970" stroke="#191970" points="1287.6239,-83.7619 1294.3085,-75.5419 1283.9569,-77.7992 1287.6239,-83.7619"/>
</g>
<!-- Node14 -->
<g id="node15" class="node">
<title>Node14</title>
<g id="a_node15"><a xlink:href="incflo__enums_8_h.html" target="_top" xlink:title="amr&#45;wind/incflo_enums.H">
<polygon fill="#ffffff" stroke="#000000" points="1730.8238,-56.5 1730.8238,-75.5 1858.8238,-75.5 1858.8238,-56.5 1730.8238,-56.5"/>
<text text-anchor="middle" x="1794.8238" y="-63.5" font-family="Helvetica,sans-Serif" font-size="10.00" fill="#000000">amr&#45;wind/incflo_enums.H</text>
</a>
</g>
</g>
<!-- Node9&#45;&gt;Node14 -->
<g id="edge18" class="edge">
<title>Node9&#45;&gt;Node14</title>
<path fill="none" stroke="#191970" d="M1266.4248,-118.512C1281.7821,-116.2242 1298.4217,-113.8829 1313.8238,-112 1353.0539,-107.2041 1595.1819,-84.5415 1720.2259,-72.916"/>
<polygon fill="#191970" stroke="#191970" points="1720.8539,-76.3728 1730.4871,-71.9624 1720.2061,-69.4029 1720.8539,-76.3728"/>
</g>
<!-- Node15 -->
<g id="node16" class="node">
<title>Node15</title>
<g id="a_node16"><a xlink:href="_view_field_8_h.html" target="_top" xlink:title="amr&#45;wind/core/ViewField.H">
<polygon fill="#ffffff" stroke="#000000" points="883.8238,-56.5 883.8238,-75.5 1017.8238,-75.5 1017.8238,-56.5 883.8238,-56.5"/>
<text text-anchor="middle" x="950.8238" y="-63.5" font-family="Helvetica,sans-Serif" font-size="10.00" fill="#000000">amr&#45;wind/core/ViewField.H</text>
</a>
</g>
</g>
<!-- Node9&#45;&gt;Node15 -->
<g id="edge20" class="edge">
<title>Node9&#45;&gt;Node15</title>
<path fill="none" stroke="#191970" d="M1169.6392,-117.9581C1124.1776,-107.1632 1050.0836,-89.5694 1000.8965,-77.8899"/>
<polygon fill="#191970" stroke="#191970" points="1001.6407,-74.4693 991.1026,-75.5643 1000.0235,-81.28 1001.6407,-74.4693"/>
</g>
<!-- Node15&#45;&gt;Node3 -->
<g id="edge21" class="edge">
<title>Node15&#45;&gt;Node3</title>
<path fill="none" stroke="#191970" d="M1017.9984,-57.6307C1022.6763,-57.0713 1027.3198,-56.5229 1031.8238,-56 1178.44,-38.9785 1353.8752,-20.5049 1423.8244,-13.2154"/>
<polygon fill="#191970" stroke="#191970" points="1424.5406,-16.6598 1434.1245,-12.1434 1423.8159,-9.6974 1424.5406,-16.6598"/>
</g>
<!-- Node15&#45;&gt;Node5 -->
<g id="edge22" class="edge">
<title>Node15&#45;&gt;Node5</title>
<path fill="none" stroke="#191970" d="M911.8882,-56.4369C873.0317,-46.8932 813.2308,-32.2052 771.3149,-21.9101"/>
<polygon fill="#191970" stroke="#191970" points="772.1449,-18.51 761.5987,-19.5237 770.4752,-25.308 772.1449,-18.51"/>
</g>
<!-- Node15&#45;&gt;Node7 -->
<g id="edge23" class="edge">
<title>Node15&#45;&gt;Node7</title>
<path fill="none" stroke="#191970" d="M883.8035,-60.7064C746.8782,-49.8915 436.7867,-25.399 304.0312,-14.9134"/>
<polygon fill="#191970" stroke="#191970" points="304.2674,-11.4213 294.0228,-14.1229 303.7162,-18.3995 304.2674,-11.4213"/>
</g>
<!-- Node16 -->
<g id="node17" class="node">
<title>Node16</title>
<polygon fill="#ffffff" stroke="#bfbfbf" points="903.3238,-.5 903.3238,-19.5 998.3238,-19.5 998.3238,-.5 903.3238,-.5"/>
<text text-anchor="middle" x="950.8238" y="-7.5" font-family="Helvetica,sans-Serif" font-size="10.00" fill="#000000">AMReX_Vector.H</text>
</g>
<!-- Node15&#45;&gt;Node16 -->
<g id="edge24" class="edge">
<title>Node15&#45;&gt;Node16</title>
<path fill="none" stroke="#191970" d="M950.8238,-56.2455C950.8238,-48.9382 950.8238,-38.6944 950.8238,-29.7046"/>
<polygon fill="#191970" stroke="#191970" points="954.3239,-29.6426 950.8238,-19.6427 947.3239,-29.6427 954.3239,-29.6426"/>
</g>
<!-- Node17&#45;&gt;Node3 -->
<g id="edge26" class="edge">
<title>Node17&#45;&gt;Node3</title>
<path fill="none" stroke="#191970" d="M803.9394,-118.9169C868.229,-109.6883 971.4362,-93.9073 1059.8238,-76 1096.5896,-68.5513 1105.0044,-63.1795 1141.8238,-56 1244.6325,-35.9531 1367.9678,-20.2461 1424.192,-13.5382"/>
<polygon fill="#191970" stroke="#191970" points="1424.6832,-17.0046 1434.2031,-12.3547 1423.8613,-10.0531 1424.6832,-17.0046"/>
</g>
<!-- Node17&#45;&gt;Node5 -->
<g id="edge27" class="edge">
<title>Node17&#45;&gt;Node5</title>
<path fill="none" stroke="#191970" d="M740.2689,-117.8845C737.1653,-98.6913 730.1466,-55.286 726.02,-29.7663"/>
<polygon fill="#191970" stroke="#191970" points="729.4516,-29.0614 724.4001,-19.7484 722.5413,-30.1789 729.4516,-29.0614"/>
</g>
<!-- Node17&#45;&gt;Node18 -->
<g id="edge28" class="edge">
<title>Node17&#45;&gt;Node18</title>
<path fill="none" stroke="#191970" d="M700.5531,-117.9581C653.8629,-107.1632 577.7663,-89.5694 527.2498,-77.8899"/>
<polygon fill="#191970" stroke="#191970" points="527.7227,-74.4069 517.1912,-75.5643 526.1458,-81.227 527.7227,-74.4069"/>
</g>
<!-- Node19&#45;&gt;Node3 -->
<g id="edge30" class="edge">
<title>Node19&#45;&gt;Node3</title>
<path fill="none" stroke="#191970" d="M635.5398,-117.9502C647.0434,-115.7975 659.3528,-113.661 670.8238,-112 828.2115,-89.2102 876.0095,-126.4511 1026.8238,-76 1043.0879,-70.5592 1043.6013,-61.5638 1059.8238,-56 1127.3233,-32.8497 1343.3708,-17.0927 1424.0499,-11.884"/>
<polygon fill="#191970" stroke="#191970" points="1424.3149,-15.3743 1434.0725,-11.2465 1423.8705,-8.3884 1424.3149,-15.3743"/>
</g>
<!-- Node19&#45;&gt;Node5 -->
<g id="edge31" class="edge">
<title>Node19&#45;&gt;Node5</title>
<path fill="none" stroke="#191970" d="M615.3633,-117.9718C636.1793,-109.4691 664.8714,-95.3623 684.8238,-76 698.5673,-62.663 708.9235,-43.2898 715.3258,-28.9804"/>
<polygon fill="#191970" stroke="#191970" points="718.6148,-30.1885 719.2808,-19.6146 712.1662,-27.4653 718.6148,-30.1885"/>
</g>
<!-- Node19&#45;&gt;Node7 -->
<g id="edge33" class="edge">
<title>Node19&#45;&gt;Node7</title>
<path fill="none" stroke="#191970" d="M552.8184,-117.9146C517.0513,-108.1703 460.7699,-92.2359 412.8238,-76 363.9933,-59.4647 308.483,-37.4255 274.3036,-23.4709"/>
<polygon fill="#191970" stroke="#191970" points="275.4126,-20.1429 264.8323,-19.5878 272.7572,-26.6197 275.4126,-20.1429"/>
</g>
<!-- Node19&#45;&gt;Node15 -->
<g id="edge32" class="edge">
<title>Node19&#45;&gt;Node15</title>
<path fill="none" stroke="#191970" d="M638.221,-117.9643C648.9601,-115.9467 660.2659,-113.8648 670.8238,-112 741.9869,-99.4305 823.5323,-86.1621 880.1951,-77.1229"/>
<polygon fill="#191970" stroke="#191970" points="880.7997,-80.5708 890.1248,-75.5415 879.6987,-73.6579 880.7997,-80.5708"/>
</g>
<!-- Node19&#45;&gt;Node16 -->
<g id="edge34" class="edge">
<title>Node19&#45;&gt;Node16</title>
<path fill="none" stroke="#191970" d="M618.1411,-117.984C683.0072,-96.9294 838.7016,-46.3932 911.7456,-22.6842"/>
<polygon fill="#191970" stroke="#191970" points="913.0549,-25.9391 921.4858,-19.5227 910.8937,-19.281 913.0549,-25.9391"/>
</g>
<!-- Node20 -->
<g id="node21" class="node">
<title>Node20</title>
<polygon fill="#ffffff" stroke="#bfbfbf" points="547.8238,-56.5 547.8238,-75.5 675.8238,-75.5 675.8238,-56.5 547.8238,-56.5"/>
<text text-anchor="middle" x="611.8238" y="-63.5" font-family="Helvetica,sans-Serif" font-size="10.00" fill="#000000">AMReX_PhysBCFunct.H</text>
</g>
<!-- Node19&#45;&gt;Node20 -->
<g id="edge35" class="edge">
<title>Node19&#45;&gt;Node20</title>
<path fill="none" stroke="#191970" d="M592.4175,-117.8906C595.6728,-109.1862 600.5663,-96.1015 604.6248,-85.2494"/>
<polygon fill="#191970" stroke="#191970" points="607.9546,-86.3373 608.1793,-75.7449 601.3981,-83.8852 607.9546,-86.3373"/>
</g>
<!-- Node22&#45;&gt;Node2 -->
<g id="edge48" class="edge">
<title>Node22&#45;&gt;Node2</title>
<path fill="none" stroke="#191970" d="M460.0774,-246.4639C488.6828,-234.9183 527.8309,-219.1176 555.426,-207.9798"/>
<polygon fill="#191970" stroke="#191970" points="557.0658,-211.0924 565.029,-204.1039 554.4458,-204.6012 557.0658,-211.0924"/>
</g>
<!-- Node22&#45;&gt;Node5 -->
<g id="edge46" class="edge">
<title>Node22&#45;&gt;Node5</title>
<path fill="none" stroke="#191970" d="M414.3097,-246.3573C394.55,-208.9747 350.7893,-111.3358 398.8238,-56 413.968,-38.5537 540.6619,-24.7074 631.0432,-16.9292"/>
<polygon fill="#191970" stroke="#191970" points="631.3786,-20.4134 641.0467,-16.0802 630.7865,-13.4385 631.3786,-20.4134"/>
</g>
<!-- Node22&#45;&gt;Node6 -->
<g id="edge47" class="edge">
<title>Node22&#45;&gt;Node6</title>
<path fill="none" stroke="#191970" d="M387.4143,-246.389C325.7305,-220.0653 199.5256,-166.2071 140.5337,-141.0322"/>
<polygon fill="#191970" stroke="#191970" points="141.9003,-137.8101 131.329,-137.1042 139.1528,-144.2484 141.9003,-137.8101"/>
</g>
<!-- Node22&#45;&gt;Node7 -->
<g id="edge49" class="edge">
<title>Node22&#45;&gt;Node7</title>
<path fill="none" stroke="#191970" d="M353.0768,-248.709C253.4054,-229.077 77.3243,-188.9324 32.8238,-143 5.2168,-114.5048 -12.317,-86.6931 12.8238,-56 33.5315,-30.719 118.937,-19.0377 179.3655,-13.8526"/>
<polygon fill="#191970" stroke="#191970" points="179.9037,-17.3203 189.5849,-13.0165 179.3328,-10.3436 179.9037,-17.3203"/>
</g>
<!-- Node23 -->
<g id="node24" class="node">
<title>Node23</title>
<g id="a_node24"><a xlink:href="_factory_8_h.html" target="_top" xlink:title="amr&#45;wind/core/Factory.H">
<polygon fill="#ffffff" stroke="#000000" points="1718.3238,-118 1718.3238,-137 1843.3238,-137 1843.3238,-118 1718.3238,-118"/>
<text text-anchor="middle" x="1780.8238" y="-125" font-family="Helvetica,sans-Serif" font-size="10.00" fill="#000000">amr&#45;wind/core/Factory.H</text>
</a>
</g>
</g>
<!-- Node22&#45;&gt;Node23 -->
<g id="edge40" class="edge">
<title>Node22&#45;&gt;Node23</title>
<path fill="none" stroke="#191970" d="M492.6885,-259.7408C725.9974,-253.6773 1469.4602,-232.766 1574.8238,-210 1641.9962,-195.486 1715.5776,-161.1418 1754.0213,-141.6502"/>
<polygon fill="#191970" stroke="#191970" points="1755.714,-144.7156 1763.0128,-137.0358 1752.5179,-138.4878 1755.714,-144.7156"/>
</g>
<!-- Node23&#45;&gt;Node4 -->
<g id="edge42" class="edge">
<title>Node23&#45;&gt;Node4</title>
<path fill="none" stroke="#191970" d="M1741.1046,-117.9581C1696.2635,-107.1857 1623.2395,-89.6428 1574.6213,-77.9631"/>
<polygon fill="#191970" stroke="#191970" points="1575.177,-74.4971 1564.6361,-75.5643 1573.5418,-81.3034 1575.177,-74.4971"/>
</g>
<!-- Node23&#45;&gt;Node10 -->
<g id="edge41" class="edge">
<title>Node23&#45;&gt;Node10</title>
<path fill="none" stroke="#191970" d="M1760.1988,-117.8906C1738.3065,-107.6908 1703.5045,-91.4763 1678.631,-79.8875"/>
<polygon fill="#191970" stroke="#191970" points="1679.8465,-76.5926 1669.3039,-75.5419 1676.8903,-82.9377 1679.8465,-76.5926"/>
</g>
<!-- Node24 -->
<g id="node25" class="node">
<title>Node24</title>
<polygon fill="#ffffff" stroke="#bfbfbf" points="1956.8238,-56.5 1956.8238,-75.5 2010.8238,-75.5 2010.8238,-56.5 1956.8238,-56.5"/>
<text text-anchor="middle" x="1983.8238" y="-63.5" font-family="Helvetica,sans-Serif" font-size="10.00" fill="#000000">iostream</text>
</g>
<!-- Node23&#45;&gt;Node24 -->
<g id="edge43" class="edge">
<title>Node23&#45;&gt;Node24</title>
<path fill="none" stroke="#191970" d="M1812.5425,-117.8906C1848.8817,-106.8815 1908.3501,-88.8652 1946.7836,-77.2215"/>
<polygon fill="#191970" stroke="#191970" points="1947.996,-80.5114 1956.5517,-74.2622 1945.9664,-73.8121 1947.996,-80.5114"/>
</g>
<!-- Node25 -->
<g id="node26" class="node">
<title>Node25</title>
<polygon fill="#ffffff" stroke="#bfbfbf" points="2029.3238,-56.5 2029.3238,-75.5 2116.3238,-75.5 2116.3238,-56.5 2029.3238,-56.5"/>
<text text-anchor="middle" x="2072.8238" y="-63.5" font-family="Helvetica,sans-Serif" font-size="10.00" fill="#000000">AMReX_Print.H</text>
</g>
<!-- Node23&#45;&gt;Node25 -->
<g id="edge44" class="edge">
<title>Node23&#45;&gt;Node25</title>
<path fill="none" stroke="#191970" d="M1826.1284,-117.9581C1878.3066,-106.9685 1963.9401,-88.9327 2019.3433,-77.2639"/>
<polygon fill="#191970" stroke="#191970" points="2020.2576,-80.6482 2029.3216,-75.1623 2018.8149,-73.7984 2020.2576,-80.6482"/>
</g>
<!-- Node26 -->
<g id="node27" class="node">
<title>Node26</title>
<polygon fill="#ffffff" stroke="#bfbfbf" points="1876.8238,-56.5 1876.8238,-75.5 1938.8238,-75.5 1938.8238,-56.5 1876.8238,-56.5"/>
<text text-anchor="middle" x="1907.8238" y="-63.5" font-family="Helvetica,sans-Serif" font-size="10.00" fill="#000000">AMReX.H</text>
</g>
<!-- Node23&#45;&gt;Node26 -->
<g id="edge45" class="edge">
<title>Node23&#45;&gt;Node26</title>
<path fill="none" stroke="#191970" d="M1800.6675,-117.8906C1821.6373,-107.7359 1854.9182,-91.6196 1878.8273,-80.0416"/>
<polygon fill="#191970" stroke="#191970" points="1880.6446,-83.0504 1888.1194,-75.5419 1877.5936,-76.7502 1880.6446,-83.0504"/>
</g>
<!-- Node27&#45;&gt;Node2 -->
<g id="edge56" class="edge">
<title>Node27&#45;&gt;Node2</title>
<path fill="none" stroke="#191970" d="M1401.589,-257.3088C1253.2904,-245.8486 840.5764,-213.9549 667.1568,-200.5534"/>
<polygon fill="#191970" stroke="#191970" points="667.3219,-197.0558 657.0819,-199.7749 666.7825,-204.035 667.3219,-197.0558"/>
</g>
<!-- Node27&#45;&gt;Node21 -->
<g id="edge51" class="edge">
<title>Node27&#45;&gt;Node21</title>
<path fill="none" stroke="#191970" d="M1450.0704,-251.8631C1436.8089,-229.6501 1403.9158,-174.5541 1386.7083,-145.7316"/>
<polygon fill="#191970" stroke="#191970" points="1389.6564,-143.8417 1381.525,-137.0496 1383.646,-147.43 1389.6564,-143.8417"/>
</g>
<!-- Node28 -->
<g id="node29" class="node">
<title>Node28</title>
<g id="a_node29"><a xlink:href="_sim_time_8_h.html" target="_top" xlink:title="amr&#45;wind/core/SimTime.H">
<polygon fill="#ffffff" stroke="#000000" points="2434.3238,-185 2434.3238,-204 2565.3238,-204 2565.3238,-185 2434.3238,-185"/>
<text text-anchor="middle" x="2499.8238" y="-192" font-family="Helvetica,sans-Serif" font-size="10.00" fill="#000000">amr&#45;wind/core/SimTime.H</text>
</a>
</g>
</g>
<!-- Node27&#45;&gt;Node28 -->
<g id="edge52" class="edge">
<title>Node27&#45;&gt;Node28</title>
<path fill="none" stroke="#191970" d="M1510.119,-258.0155C1683.4197,-246.8937 2223.6779,-212.222 2424.0456,-199.3632"/>
<polygon fill="#191970" stroke="#191970" points="2424.4297,-202.8458 2434.185,-198.7124 2423.9813,-195.8602 2424.4297,-202.8458"/>
</g>
<!-- Node32 -->
<g id="node33" class="node">
<title>Node32</title>
<g id="a_node33"><a xlink:href="_p_d_e_base_8_h.html" target="_top" xlink:title="amr&#45;wind/equation_systems\l/PDEBase.H">
<polygon fill="#ffffff" stroke="#000000" points="1711.3238,-179.5 1711.3238,-209.5 1850.3238,-209.5 1850.3238,-179.5 1711.3238,-179.5"/>
<text text-anchor="start" x="1719.3238" y="-197.5" font-family="Helvetica,sans-Serif" font-size="10.00" fill="#000000">amr&#45;wind/equation_systems</text>
<text text-anchor="middle" x="1780.8238" y="-186.5" font-family="Helvetica,sans-Serif" font-size="10.00" fill="#000000">/PDEBase.H</text>
</a>
</g>
</g>
<!-- Node27&#45;&gt;Node32 -->
<g id="edge57" class="edge">
<title>Node27&#45;&gt;Node32</title>
<path fill="none" stroke="#191970" d="M1502.0432,-251.9717C1553.8607,-241.2893 1638.8047,-223.7778 1701.3323,-210.8875"/>
<polygon fill="#191970" stroke="#191970" points="1702.0793,-214.3072 1711.1666,-208.8601 1700.6659,-207.4513 1702.0793,-214.3072"/>
</g>
<!-- Node36 -->
<g id="node37" class="node">
<title>Node36</title>
<g id="a_node37"><a xlink:href="_physics_8_h.html" target="_top" xlink:title="amr&#45;wind/core/Physics.H">
<polygon fill="#ffffff" stroke="#000000" points="1438.3238,-185 1438.3238,-204 1565.3238,-204 1565.3238,-185 1438.3238,-185"/>
<text text-anchor="middle" x="1501.8238" y="-192" font-family="Helvetica,sans-Serif" font-size="10.00" fill="#000000">amr&#45;wind/core/Physics.H</text>
</a>
</g>
</g>
<!-- Node27&#45;&gt;Node36 -->
<g id="edge69" class="edge">
<title>Node27&#45;&gt;Node36</title>
<path fill="none" stroke="#191970" d="M1462.4144,-251.9005C1469.4511,-241.6515 1480.7635,-225.1747 1489.4672,-212.4976"/>
<polygon fill="#191970" stroke="#191970" points="1492.4706,-214.3067 1495.2453,-204.0817 1486.6998,-210.3446 1492.4706,-214.3067"/>
</g>
<!-- Node29 -->
<g id="node30" class="node">
<title>Node29</title>
<polygon fill="#ffffff" stroke="#bfbfbf" points="2641.3238,-118 2641.3238,-137 2734.3238,-137 2734.3238,-118 2641.3238,-118"/>
<text text-anchor="middle" x="2687.8238" y="-125" font-family="Helvetica,sans-Serif" font-size="10.00" fill="#000000">AMReX_REAL.H</text>
</g>
<!-- Node28&#45;&gt;Node29 -->
<g id="edge53" class="edge">
<title>Node28&#45;&gt;Node29</title>
<path fill="none" stroke="#191970" d="M2526.7596,-184.9005C2559.4271,-173.2584 2614.6426,-153.5805 2651.1663,-140.5641"/>
<polygon fill="#191970" stroke="#191970" points="2652.6932,-143.7356 2660.9379,-137.0817 2650.3432,-137.1418 2652.6932,-143.7356"/>
</g>
<!-- Node30 -->
<g id="node31" class="node">
<title>Node30</title>
<polygon fill="#ffffff" stroke="#bfbfbf" points="2368.8238,-118 2368.8238,-137 2494.8238,-137 2494.8238,-118 2368.8238,-118"/>
<text text-anchor="middle" x="2431.8238" y="-125" font-family="Helvetica,sans-Serif" font-size="10.00" fill="#000000">AMReX_GpuQualifiers.H</text>
</g>
<!-- Node28&#45;&gt;Node30 -->
<g id="edge54" class="edge">
<title>Node28&#45;&gt;Node30</title>
<path fill="none" stroke="#191970" d="M2490.081,-184.9005C2479.376,-174.353 2461.9768,-157.2096 2448.9758,-144.3998"/>
<polygon fill="#191970" stroke="#191970" points="2451.1282,-141.607 2441.5484,-137.0817 2446.2152,-146.5933 2451.1282,-141.607"/>
</g>
<!-- Node31 -->
<g id="node32" class="node">
<title>Node31</title>
<polygon fill="#ffffff" stroke="#bfbfbf" points="2512.8238,-118 2512.8238,-137 2622.8238,-137 2622.8238,-118 2512.8238,-118"/>
<text text-anchor="middle" x="2567.8238" y="-125" font-family="Helvetica,sans-Serif" font-size="10.00" fill="#000000">AMReX_Extension.H</text>
</g>
<!-- Node28&#45;&gt;Node31 -->
<g id="edge55" class="edge">
<title>Node28&#45;&gt;Node31</title>
<path fill="none" stroke="#191970" d="M2509.5665,-184.9005C2520.2715,-174.353 2537.6707,-157.2096 2550.6717,-144.3998"/>
<polygon fill="#191970" stroke="#191970" points="2553.4323,-146.5933 2558.0991,-137.0817 2548.5193,-141.607 2553.4323,-146.5933"/>
</g>
<!-- Node32&#45;&gt;Node3 -->
<g id="edge58" class="edge">
<title>Node32&#45;&gt;Node3</title>
<path fill="none" stroke="#191970" d="M1850.3418,-191.6282C1983.2183,-183.8324 2252.1188,-155.59 2158.8238,-56 2135.4839,-31.0853 1618.6937,-14.6739 1485.7721,-10.8549"/>
<polygon fill="#191970" stroke="#191970" points="1485.5869,-7.3483 1475.4915,-10.5628 1485.388,-14.3455 1485.5869,-7.3483"/>
</g>
<!-- Node32&#45;&gt;Node5 -->
<g id="edge67" class="edge">
<title>Node32&#45;&gt;Node5</title>
<path fill="none" stroke="#191970" d="M1711.2557,-189.1719C1551.9856,-176.932 1172.4118,-147.5093 1144.8238,-143 1022.8035,-123.0559 991.9338,-115.6479 874.8238,-76 830.564,-61.0157 781.2803,-38.4777 751.1639,-24.0028"/>
<polygon fill="#191970" stroke="#191970" points="752.6155,-20.8169 742.0901,-19.6062 749.5632,-27.1164 752.6155,-20.8169"/>
</g>
<!-- Node32&#45;&gt;Node14 -->
<g id="edge68" class="edge">
<title>Node32&#45;&gt;Node14</title>
<path fill="none" stroke="#191970" d="M1814.557,-179.3642C1829.124,-170.9147 1844.6714,-158.8543 1852.8238,-143 1859.1242,-130.7472 1858.8183,-124.4053 1852.8238,-112 1846.5409,-98.9981 1834.6003,-88.5481 1823.1786,-80.9145"/>
<polygon fill="#191970" stroke="#191970" points="1824.9922,-77.9209 1814.6479,-75.6305 1821.3061,-83.8718 1824.9922,-77.9209"/>
</g>
<!-- Node32&#45;&gt;Node23 -->
<g id="edge59" class="edge">
<title>Node32&#45;&gt;Node23</title>
<path fill="none" stroke="#191970" d="M1780.8238,-179.2967C1780.8238,-169.7699 1780.8238,-157.3954 1780.8238,-147.1306"/>
<polygon fill="#191970" stroke="#191970" points="1784.3239,-147.0549 1780.8238,-137.055 1777.3239,-147.055 1784.3239,-147.0549"/>
</g>
<!-- Node33 -->
<g id="node34" class="node">
<title>Node33</title>
<g id="a_node34"><a xlink:href="_coll_mgr_8_h.html" target="_top" xlink:title="amr&#45;wind/core/CollMgr.H">
<polygon fill="#ffffff" stroke="#000000" points="1575.3238,-118 1575.3238,-137 1700.3238,-137 1700.3238,-118 1575.3238,-118"/>
<text text-anchor="middle" x="1637.8238" y="-125" font-family="Helvetica,sans-Serif" font-size="10.00" fill="#000000">amr&#45;wind/core/CollMgr.H</text>
</a>
</g>
</g>
<!-- Node32&#45;&gt;Node33 -->
<g id="edge60" class="edge">
<title>Node32&#45;&gt;Node33</title>
<path fill="none" stroke="#191970" d="M1748.7318,-179.4639C1724.414,-168.0702 1691.2517,-152.5327 1667.5376,-141.4219"/>
<polygon fill="#191970" stroke="#191970" points="1668.862,-138.1773 1658.3217,-137.1039 1665.8921,-144.5161 1668.862,-138.1773"/>
</g>
<!-- Node34 -->
<g id="node35" class="node">
<title>Node34</title>
<g id="a_node35"><a xlink:href="_p_d_e_fields_8_h.html" target="_top" xlink:title="amr&#45;wind/equation_systems\l/PDEFields.H">
<polygon fill="#ffffff" stroke="#000000" points="2211.3238,-112.5 2211.3238,-142.5 2350.3238,-142.5 2350.3238,-112.5 2211.3238,-112.5"/>
<text text-anchor="start" x="2219.3238" y="-130.5" font-family="Helvetica,sans-Serif" font-size="10.00" fill="#000000">amr&#45;wind/equation_systems</text>
<text text-anchor="middle" x="2280.8238" y="-119.5" font-family="Helvetica,sans-Serif" font-size="10.00" fill="#000000">/PDEFields.H</text>
</a>
</g>
</g>
<!-- Node32&#45;&gt;Node34 -->
<g id="edge65" class="edge">
<title>Node32&#45;&gt;Node34</title>
<path fill="none" stroke="#191970" d="M1850.5554,-187.1457C1933.3308,-178.1205 2075.4496,-161.6943 2196.8238,-143 2198.2894,-142.7743 2199.7688,-142.5425 2201.2585,-142.3055"/>
<polygon fill="#191970" stroke="#191970" points="2201.9038,-145.7465 2211.2058,-140.6748 2200.7713,-138.8388 2201.9038,-145.7465"/>
</g>
<!-- Node33&#45;&gt;Node3 -->
<g id="edge61" class="edge">
<title>Node33&#45;&gt;Node3</title>
<path fill="none" stroke="#191970" d="M1652.0306,-117.7711C1671.0781,-103.5522 1700.6592,-76.5536 1683.8238,-56 1659.0803,-25.7919 1541.9631,-15.001 1485.4606,-11.5086"/>
<polygon fill="#191970" stroke="#191970" points="1485.5183,-8.0061 1475.3323,-10.921 1485.1128,-14.9944 1485.5183,-8.0061"/>
</g>
<!-- Node33&#45;&gt;Node4 -->
<g id="edge63" class="edge">
<title>Node33&#45;&gt;Node4</title>
<path fill="none" stroke="#191970" d="M1620.1675,-117.8906C1601.6752,-107.8262 1572.4228,-91.9057 1551.193,-80.3514"/>
<polygon fill="#191970" stroke="#191970" points="1552.8126,-77.2481 1542.356,-75.5419 1549.4663,-83.3965 1552.8126,-77.2481"/>
</g>
<!-- Node33&#45;&gt;Node10 -->
<g id="edge62" class="edge">
<title>Node33&#45;&gt;Node10</title>
<path fill="none" stroke="#191970" d="M1639.5425,-117.8906C1641.0673,-109.3657 1643.3436,-96.6392 1645.2602,-85.9235"/>
<polygon fill="#191970" stroke="#191970" points="1648.7653,-86.2049 1647.0808,-75.7449 1641.8747,-84.9724 1648.7653,-86.2049"/>
</g>
<!-- Node33&#45;&gt;Node16 -->
<g id="edge64" class="edge">
<title>Node33&#45;&gt;Node16</title>
<path fill="none" stroke="#191970" d="M1632.8683,-117.9773C1623.9283,-101.9182 1603.4333,-69.8499 1575.8238,-56 1525.9046,-30.9589 1154.0171,-16.4954 1008.7357,-11.7503"/>
<polygon fill="#191970" stroke="#191970" points="1008.7823,-8.2501 998.6746,-11.4254 1008.5564,-15.2464 1008.7823,-8.2501"/>
</g>
<!-- Node35 -->
<g id="node36" class="node">
<title>Node35</title>
<polygon fill="#ffffff" stroke="#bfbfbf" points="2258.3238,-56.5 2258.3238,-75.5 2303.3238,-75.5 2303.3238,-56.5 2258.3238,-56.5"/>
<text text-anchor="middle" x="2280.8238" y="-63.5" font-family="Helvetica,sans-Serif" font-size="10.00" fill="#000000">iosfwd</text>
</g>
<!-- Node34&#45;&gt;Node35 -->
<g id="edge66" class="edge">
<title>Node34&#45;&gt;Node35</title>
<path fill="none" stroke="#191970" d="M2280.8238,-112.2977C2280.8238,-104.3834 2280.8238,-94.6043 2280.8238,-86.0759"/>
<polygon fill="#191970" stroke="#191970" points="2284.3239,-85.8469 2280.8238,-75.8469 2277.3239,-85.847 2284.3239,-85.8469"/>
</g>
<!-- Node36&#45;&gt;Node7 -->
<g id="edge72" class="edge">
<title>Node36&#45;&gt;Node7</title>
<path fill="none" stroke="#191970" d="M1438.2513,-192.5653C1233.1295,-186.1346 596.9072,-164.6534 506.8238,-143 409.6318,-119.6379 307.4103,-55.1913 263.7129,-25.4314"/>
<polygon fill="#191970" stroke="#191970" points="265.52,-22.4262 255.2995,-19.6347 261.5484,-28.1905 265.52,-22.4262"/>
</g>
<!-- Node36&#45;&gt;Node23 -->
<g id="edge70" class="edge">
<title>Node36&#45;&gt;Node23</title>
<path fill="none" stroke="#191970" d="M1541.5014,-184.9717C1591.3545,-172.9998 1676.9257,-152.4504 1731.0974,-139.4415"/>
<polygon fill="#191970" stroke="#191970" points="1731.925,-142.8423 1740.8313,-137.1039 1730.2905,-136.0358 1731.925,-142.8423"/>
</g>
<!-- Node36&#45;&gt;Node33 -->
<g id="edge71" class="edge">
<title>Node36&#45;&gt;Node33</title>
<path fill="none" stroke="#191970" d="M1521.3092,-184.9005C1544.3351,-173.5569 1582.8465,-154.5844 1609.247,-141.5783"/>
<polygon fill="#191970" stroke="#191970" points="1610.9507,-144.6407 1618.3744,-137.0817 1607.8571,-138.3613 1610.9507,-144.6407"/>
</g>
<!-- Node37 -->
<g id="node38" class="node">
<title>Node37</title>
<polygon fill="#ffffff" stroke="#bfbfbf" points="1446.8238,-118 1446.8238,-137 1556.8238,-137 1556.8238,-118 1446.8238,-118"/>
<text text-anchor="middle" x="1501.8238" y="-125" font-family="Helvetica,sans-Serif" font-size="10.00" fill="#000000">AMReX_Geometry.H</text>
</g>
<!-- Node36&#45;&gt;Node37 -->
<g id="edge73" class="edge">
<title>Node36&#45;&gt;Node37</title>
<path fill="none" stroke="#191970" d="M1501.8238,-184.9005C1501.8238,-175.149 1501.8238,-159.7597 1501.8238,-147.3695"/>
<polygon fill="#191970" stroke="#191970" points="1505.3239,-147.0816 1501.8238,-137.0817 1498.3239,-147.0817 1505.3239,-147.0816"/>
</g>
</g>
</svg>
        <g id="navigator" transform="translate(0 0)" fill="#404254">
                <rect fill="#f2f5e9" fill-opacity="0.5" stroke="#606060" stroke-width=".5" x="0" y="0" width="60" height="60"/>
                <use id="zoomplus" xlink:href="#zoomPlus" x="17" y="9" onmousedown="handleZoom(evt,'in')"/>
                <use id="zoomminus" xlink:href="#zoomMin" x="42" y="9" onmousedown="handleZoom(evt,'out')"/>
                <use id="reset" xlink:href="#resetDef" x="30" y="36" onmousedown="handleReset()"/>
                <g id="arrowUp" xlink:href="#dirArrow" transform="translate(30 24)" onmousedown="handlePan(0,-1)">
                  <use xlink:href="#rim" fill="#404040">
                        <set attributeName="fill" to="#808080" begin="arrowUp.mouseover" end="arrowUp.mouseout"/>
                  </use>
                  <path fill="none" stroke="white" stroke-width="1.5" d="M0,-3.0v7 M-2.5,-0.5L0,-3.0L2.5,-0.5"/>
                </g>
                <g id="arrowRight" xlink:href="#dirArrow" transform="rotate(90) translate(36 -43)" onmousedown="handlePan(1,0)">
                  <use xlink:href="#rim" fill="#404040">
                        <set attributeName="fill" to="#808080" begin="arrowRight.mouseover" end="arrowRight.mouseout"/>
                  </use>
                  <path fill="none" stroke="white" stroke-width="1.5" d="M0,-3.0v7 M-2.5,-0.5L0,-3.0L2.5,-0.5"/>
                </g>
                <g id="arrowDown" xlink:href="#dirArrow" transform="rotate(180) translate(-30 -48)" onmousedown="handlePan(0,1)">
                  <use xlink:href="#rim" fill="#404040">
                        <set attributeName="fill" to="#808080" begin="arrowDown.mouseover" end="arrowDown.mouseout"/>
                  </use>
                  <path fill="none" stroke="white" stroke-width="1.5" d="M0,-3.0v7 M-2.5,-0.5L0,-3.0L2.5,-0.5"/>
                </g>
                <g id="arrowLeft" xlink:href="#dirArrow" transform="rotate(270) translate(-36 17)" onmousedown="handlePan(-1,0)">
                  <use xlink:href="#rim" fill="#404040">
                        <set attributeName="fill" to="#808080" begin="arrowLeft.mouseover" end="arrowLeft.mouseout"/>
                  </use>
                  <path fill="none" stroke="white" stroke-width="1.5" d="M0,-3.0v7 M-2.5,-0.5L0,-3.0L2.5,-0.5"/>
                </g>
        </g>
        <svg viewBox="0 0 15 15" width="100%" height="30px" preserveAspectRatio="xMaxYMin meet">
         <g id="arrow_out" transform="scale(0.3 0.3)">
          <a xlink:href="_gravity_forcing_8cpp__incl_org.svg" target="_base">
           <rect id="button" ry="5" rx="5" y="6" x="6" height="38" width="38"
                fill="#f2f5e9" fill-opacity="0.5" stroke="#606060" stroke-width="1.0"/>
           <path id="arrow"
             d="M 11.500037,31.436501 C 11.940474,20.09759 22.043105,11.32322 32.158766,21.979434 L 37.068811,17.246167 C 37.068811,17.246167 37.088388,32 37.088388,32 L 22.160133,31.978069 C 22.160133,31.978069 26.997745,27.140456 26.997745,27.140456 C 18.528582,18.264221 13.291696,25.230495 11.500037,31.436501 z"
             style="fill:#404040;"/>
          </a>
         </g>
        </svg>
</svg>
