<?xml version="1.0" encoding="UTF-8" standalone="no"?>
<!DOCTYPE svg PUBLIC "-//W3C//DTD SVG 1.1//EN"
 "http://www.w3.org/Graphics/SVG/1.1/DTD/svg11.dtd">
<!-- Generated by graphviz version 2.40.1 (20161225.0304)
 -->
<!-- Title: IntField.H Pages: 1 -->
<svg width="3529pt" height="308pt"
 viewBox="0.00 0.00 3528.60 308.00" xmlns="http://www.w3.org/2000/svg" xmlns:xlink="http://www.w3.org/1999/xlink">
<g id="graph0" class="graph" transform="scale(1 1) rotate(0) translate(4 304)">
<title>IntField.H</title>
<polygon fill="#ffffff" stroke="transparent" points="-4,4 -4,-304 3524.5983,-304 3524.5983,4 -4,4"/>
<!-- Node4 -->
<g id="node1" class="node">
<title>Node4</title>
<polygon fill="#bfbfbf" stroke="#000000" points="1182.5,-280.5 1182.5,-299.5 1241.5,-299.5 1241.5,-280.5 1182.5,-280.5"/>
<text text-anchor="middle" x="1212" y="-287.5" font-family="Helvetica,sans-Serif" font-size="10.00" fill="#000000">IntField.H</text>
</g>
<!-- Node5 -->
<g id="node2" class="node">
<title>Node5</title>
<g id="a_node2"><a xlink:href="_field_repo_8_h.html" target="_top" xlink:title="FieldRepo.H">
<polygon fill="#ffffff" stroke="#000000" points="1880.5,-224.5 1880.5,-243.5 1951.5,-243.5 1951.5,-224.5 1880.5,-224.5"/>
<text text-anchor="middle" x="1916" y="-231.5" font-family="Helvetica,sans-Serif" font-size="10.00" fill="#000000">FieldRepo.H</text>
</a>
</g>
</g>
<!-- Node4&#45;&gt;Node5 -->
<g id="edge1" class="edge">
<title>Node4&#45;&gt;Node5</title>
<path fill="none" stroke="#191970" d="M1252.1015,-286.8101C1377.5939,-276.8278 1761.5024,-246.2896 1880.4703,-236.8262"/>
<polygon fill="#191970" stroke="#191970" points="1251.4913,-283.3475 1241.8003,-287.6295 1252.0464,-290.3255 1251.4913,-283.3475"/>
</g>
<!-- Node158 -->
<g id="node26" class="node">
<title>Node158</title>
<g id="a_node26"><a xlink:href="_int_field_8cpp.html" target="_top" xlink:title="IntField.cpp">
<polygon fill="#ffffff" stroke="#000000" points="401,-168.5 401,-187.5 469,-187.5 469,-168.5 401,-168.5"/>
<text text-anchor="middle" x="435" y="-175.5" font-family="Helvetica,sans-Serif" font-size="10.00" fill="#000000">IntField.cpp</text>
</a>
</g>
</g>
<!-- Node4&#45;&gt;Node158 -->
<g id="edge69" class="edge">
<title>Node4&#45;&gt;Node158</title>
<path fill="none" stroke="#191970" d="M1172.4065,-285.3982C1062.5792,-272.4313 744.9319,-233.5573 483,-188 478.4714,-187.2123 473.7175,-186.312 469.0349,-185.3816"/>
<polygon fill="#191970" stroke="#191970" points="1172.0367,-288.8787 1182.3773,-286.5715 1172.8549,-281.9267 1172.0367,-288.8787"/>
</g>
<!-- Node6 -->
<g id="node3" class="node">
<title>Node6</title>
<g id="a_node3"><a xlink:href="_b_c_interface_8cpp.html" target="_top" xlink:title="BCInterface.cpp">
<polygon fill="#ffffff" stroke="#000000" points="1479,-112.5 1479,-131.5 1567,-131.5 1567,-112.5 1479,-112.5"/>
<text text-anchor="middle" x="1523" y="-119.5" font-family="Helvetica,sans-Serif" font-size="10.00" fill="#000000">BCInterface.cpp</text>
</a>
</g>
</g>
<!-- Node5&#45;&gt;Node6 -->
<g id="edge2" class="edge">
<title>Node5&#45;&gt;Node6</title>
<path fill="none" stroke="#191970" d="M1942.566,-219.0372C1963.3608,-205.4717 1986.3902,-185.0514 1971,-168 1944.25,-138.3627 1675.003,-126.7356 1567.2404,-123.246"/>
<polygon fill="#191970" stroke="#191970" points="1940.566,-216.159 1933.9093,-224.4016 1944.2532,-222.1092 1940.566,-216.159"/>
</g>
<!-- Node7 -->
<g id="node4" class="node">
<title>Node7</title>
<g id="a_node4"><a xlink:href="_fixed_gradient_b_c_8_h.html" target="_top" xlink:title="FixedGradientBC.H">
<polygon fill="#ffffff" stroke="#000000" points="896,-168.5 896,-187.5 998,-187.5 998,-168.5 896,-168.5"/>
<text text-anchor="middle" x="947" y="-175.5" font-family="Helvetica,sans-Serif" font-size="10.00" fill="#000000">FixedGradientBC.H</text>
</a>
</g>
</g>
<!-- Node5&#45;&gt;Node7 -->
<g id="edge3" class="edge">
<title>Node5&#45;&gt;Node7</title>
<path fill="none" stroke="#191970" d="M1870.1072,-233.5335C1736.5418,-231.7769 1336.616,-223.6893 1007,-188 1004.0603,-187.6817 1001.0459,-187.3134 998.0082,-186.9098"/>
<polygon fill="#191970" stroke="#191970" points="1870.3225,-237.0364 1880.3658,-233.6627 1870.4107,-230.0369 1870.3225,-237.0364"/>
</g>
<!-- Node9 -->
<g id="node6" class="node">
<title>Node9</title>
<g id="a_node6"><a xlink:href="_c_f_d_sim_8_h.html" target="_top" xlink:title="CFDSim.H">
<polygon fill="#ffffff" stroke="#ff0000" points="525.5,-168.5 525.5,-187.5 590.5,-187.5 590.5,-168.5 525.5,-168.5"/>
<text text-anchor="middle" x="558" y="-175.5" font-family="Helvetica,sans-Serif" font-size="10.00" fill="#000000">CFDSim.H</text>
</a>
</g>
</g>
<!-- Node5&#45;&gt;Node9 -->
<g id="edge6" class="edge">
<title>Node5&#45;&gt;Node9</title>
<path fill="none" stroke="#191970" d="M1870.1399,-233.0572C1707.4898,-229.5514 1143.0592,-216.0026 678,-188 648.3678,-186.2158 614.6874,-183.3341 590.567,-181.1215"/>
<polygon fill="#191970" stroke="#191970" points="1870.1945,-236.5591 1880.2671,-233.2737 1870.3442,-229.5607 1870.1945,-236.5591"/>
</g>
<!-- Node10 -->
<g id="node7" class="node">
<title>Node10</title>
<g id="a_node7"><a xlink:href="incflo_8_h.html" target="_top" xlink:title="incflo.H">
<polygon fill="#ffffff" stroke="#ff0000" points="0,-112.5 0,-131.5 50,-131.5 50,-112.5 0,-112.5"/>
<text text-anchor="middle" x="25" y="-119.5" font-family="Helvetica,sans-Serif" font-size="10.00" fill="#000000">incflo.H</text>
</a>
</g>
</g>
<!-- Node5&#45;&gt;Node10 -->
<g id="edge26" class="edge">
<title>Node5&#45;&gt;Node10</title>
<path fill="none" stroke="#191970" d="M1870.2735,-233.7146C1643.9519,-232.139 649.213,-223.2467 516,-188 497.5497,-183.1182 496.3149,-173.3677 478,-168 298.6362,-115.4326 242.6886,-166.5428 59,-132 56.0975,-131.4542 53.0882,-130.7615 50.1141,-129.9962"/>
<polygon fill="#191970" stroke="#191970" points="1870.4397,-237.2158 1880.4634,-233.7842 1870.4876,-230.2159 1870.4397,-237.2158"/>
</g>
<!-- Node42 -->
<g id="node11" class="node">
<title>Node42</title>
<g id="a_node11"><a xlink:href="_a_b_l_mean_boussinesq_8_h.html" target="_top" xlink:title="ABLMeanBoussinesq.H">
<polygon fill="#ffffff" stroke="#ff0000" points="1257.5,-56.5 1257.5,-75.5 1378.5,-75.5 1378.5,-56.5 1257.5,-56.5"/>
<text text-anchor="middle" x="1318" y="-63.5" font-family="Helvetica,sans-Serif" font-size="10.00" fill="#000000">ABLMeanBoussinesq.H</text>
</a>
</g>
</g>
<!-- Node5&#45;&gt;Node42 -->
<g id="edge48" class="edge">
<title>Node5&#45;&gt;Node42</title>
<path fill="none" stroke="#191970" d="M1897.5629,-217.539C1879.7138,-202.4623 1851.2739,-180.6288 1823,-168 1672.1187,-100.6076 1475.9985,-77.3629 1378.5175,-69.6443"/>
<polygon fill="#191970" stroke="#191970" points="1895.5704,-220.4427 1905.4273,-224.3276 1900.1445,-215.1438 1895.5704,-220.4427"/>
</g>
<!-- Node89 -->
<g id="node18" class="node">
<title>Node89</title>
<g id="a_node18"><a xlink:href="_p_d_e_base_8cpp.html" target="_top" xlink:title="PDEBase.cpp">
<polygon fill="#ffffff" stroke="#000000" points="970.5,-112.5 970.5,-131.5 1049.5,-131.5 1049.5,-112.5 970.5,-112.5"/>
<text text-anchor="middle" x="1010" y="-119.5" font-family="Helvetica,sans-Serif" font-size="10.00" fill="#000000">PDEBase.cpp</text>
</a>
</g>
</g>
<!-- Node5&#45;&gt;Node89 -->
<g id="edge54" class="edge">
<title>Node5&#45;&gt;Node89</title>
<path fill="none" stroke="#191970" d="M1870.2433,-233.6953C1675.1763,-232.1765 921.4167,-223.9896 887,-188 880.8566,-181.5758 881.9337,-175.3037 887,-168 896.8757,-153.7629 938.3863,-140.2156 970.4838,-131.558"/>
<polygon fill="#191970" stroke="#191970" points="1870.4087,-237.1965 1880.435,-233.7725 1870.4618,-230.1967 1870.4087,-237.1965"/>
</g>
<!-- Node94 -->
<g id="node19" class="node">
<title>Node94</title>
<g id="a_node19"><a xlink:href="_tioga_interface_8cpp.html" target="_top" xlink:title="TiogaInterface.cpp">
<polygon fill="#ffffff" stroke="#000000" points="680,-112.5 680,-131.5 778,-131.5 778,-112.5 680,-112.5"/>
<text text-anchor="middle" x="729" y="-119.5" font-family="Helvetica,sans-Serif" font-size="10.00" fill="#000000">TiogaInterface.cpp</text>
</a>
</g>
</g>
<!-- Node5&#45;&gt;Node94 -->
<g id="edge61" class="edge">
<title>Node5&#45;&gt;Node94</title>
<path fill="none" stroke="#191970" d="M1870.1538,-233.8259C1658.2157,-232.8175 781.8591,-226.3356 739,-188 723.279,-173.9383 724.857,-146.5121 727.0829,-131.8312"/>
<polygon fill="#191970" stroke="#191970" points="1870.2963,-237.3265 1880.3122,-233.8724 1870.3284,-230.3266 1870.2963,-237.3265"/>
</g>
<!-- Node136 -->
<g id="node20" class="node">
<title>Node136</title>
<g id="a_node20"><a xlink:href="_actuator_8cpp.html" target="_top" xlink:title="Actuator.cpp">
<polygon fill="#ffffff" stroke="#000000" points="796,-112.5 796,-131.5 868,-131.5 868,-112.5 796,-112.5"/>
<text text-anchor="middle" x="832" y="-119.5" font-family="Helvetica,sans-Serif" font-size="10.00" fill="#000000">Actuator.cpp</text>
</a>
</g>
</g>
<!-- Node5&#45;&gt;Node136 -->
<g id="edge68" class="edge">
<title>Node5&#45;&gt;Node136</title>
<path fill="none" stroke="#191970" d="M1870.2413,-233.056C1656.8284,-228.5473 768.7783,-208.5733 749,-188 727.2459,-165.3715 771.2858,-143.6088 803.1297,-131.5961"/>
<polygon fill="#191970" stroke="#191970" points="1870.3941,-236.5599 1880.4655,-233.271 1870.5413,-229.5614 1870.3941,-236.5599"/>
</g>
<!-- Node146 -->
<g id="node21" class="node">
<title>Node146</title>
<g id="a_node21"><a xlink:href="velocity__bcs_8_h.html" target="_top" xlink:title="velocity_bcs.H">
<polygon fill="#ffffff" stroke="#ff0000" points="1016,-168.5 1016,-187.5 1098,-187.5 1098,-168.5 1016,-168.5"/>
<text text-anchor="middle" x="1057" y="-175.5" font-family="Helvetica,sans-Serif" font-size="10.00" fill="#000000">velocity_bcs.H</text>
</a>
</g>
</g>
<!-- Node5&#45;&gt;Node146 -->
<g id="edge27" class="edge">
<title>Node5&#45;&gt;Node146</title>
<path fill="none" stroke="#191970" d="M1870.1197,-233.6456C1746.4117,-232.2039 1395.8102,-224.9059 1107,-188 1104.1023,-187.6297 1101.1207,-187.1887 1098.1252,-186.7014"/>
<polygon fill="#191970" stroke="#191970" points="1870.3134,-237.1478 1880.351,-233.7573 1870.3899,-230.1482 1870.3134,-237.1478"/>
</g>
<!-- Node147 -->
<g id="node22" class="node">
<title>Node147</title>
<g id="a_node22"><a xlink:href="_godunov_8_h.html" target="_top" xlink:title="Godunov.H">
<polygon fill="#ffffff" stroke="#ff0000" points="1116,-168.5 1116,-187.5 1182,-187.5 1182,-168.5 1116,-168.5"/>
<text text-anchor="middle" x="1149" y="-175.5" font-family="Helvetica,sans-Serif" font-size="10.00" fill="#000000">Godunov.H</text>
</a>
</g>
</g>
<!-- Node5&#45;&gt;Node147 -->
<g id="edge28" class="edge">
<title>Node5&#45;&gt;Node147</title>
<path fill="none" stroke="#191970" d="M1869.8335,-232.102C1731.6755,-226.2589 1322.8981,-207.7393 1191,-188 1188.1831,-187.5784 1185.277,-187.0617 1182.3703,-186.4873"/>
<polygon fill="#191970" stroke="#191970" points="1869.9325,-235.6092 1880.0708,-232.5327 1870.2267,-228.6154 1869.9325,-235.6092"/>
</g>
<!-- Node153 -->
<g id="node23" class="node">
<title>Node153</title>
<g id="a_node23"><a xlink:href="_m_o_l_8_h.html" target="_top" xlink:title="MOL.H">
<polygon fill="#ffffff" stroke="#ff0000" points="1200,-168.5 1200,-187.5 1248,-187.5 1248,-168.5 1200,-168.5"/>
<text text-anchor="middle" x="1224" y="-175.5" font-family="Helvetica,sans-Serif" font-size="10.00" fill="#000000">MOL.H</text>
</a>
</g>
</g>
<!-- Node5&#45;&gt;Node153 -->
<g id="edge29" class="edge">
<title>Node5&#45;&gt;Node153</title>
<path fill="none" stroke="#191970" d="M1870.1144,-232.1395C1740.7885,-226.6824 1375.0759,-209.7256 1257,-188 1254.1739,-187.48 1251.2475,-186.8035 1248.3577,-186.0473"/>
<polygon fill="#191970" stroke="#191970" points="1870.3124,-235.6507 1880.4502,-232.5723 1870.6054,-228.6569 1870.3124,-235.6507"/>
</g>
<!-- Node156 -->
<g id="node24" class="node">
<title>Node156</title>
<g id="a_node24"><a xlink:href="_field_8cpp.html" target="_top" xlink:title="Field.cpp">
<polygon fill="#ffffff" stroke="#000000" points="1266,-168.5 1266,-187.5 1322,-187.5 1322,-168.5 1266,-168.5"/>
<text text-anchor="middle" x="1294" y="-175.5" font-family="Helvetica,sans-Serif" font-size="10.00" fill="#000000">Field.cpp</text>
</a>
</g>
</g>
<!-- Node5&#45;&gt;Node156 -->
<g id="edge30" class="edge">
<title>Node5&#45;&gt;Node156</title>
<path fill="none" stroke="#191970" d="M1870.1809,-233.2799C1771.099,-231.0937 1529.7993,-222.3745 1331,-188 1328.115,-187.5012 1325.1287,-186.8784 1322.1612,-186.189"/>
<polygon fill="#191970" stroke="#191970" points="1870.3655,-236.7844 1880.4364,-233.4938 1870.5116,-229.7859 1870.3655,-236.7844"/>
</g>
<!-- Node157 -->
<g id="node25" class="node">
<title>Node157</title>
<g id="a_node25"><a xlink:href="_field_repo_8cpp.html" target="_top" xlink:title="FieldRepo.cpp">
<polygon fill="#ffffff" stroke="#000000" points="1340,-168.5 1340,-187.5 1420,-187.5 1420,-168.5 1340,-168.5"/>
<text text-anchor="middle" x="1380" y="-175.5" font-family="Helvetica,sans-Serif" font-size="10.00" fill="#000000">FieldRepo.cpp</text>
</a>
</g>
</g>
<!-- Node5&#45;&gt;Node157 -->
<g id="edge31" class="edge">
<title>Node5&#45;&gt;Node157</title>
<path fill="none" stroke="#191970" d="M1870.3995,-231.329C1783.9548,-225.9038 1590.4369,-212.0269 1429,-188 1426.0802,-187.5654 1423.0716,-187.0699 1420.0494,-186.5373"/>
<polygon fill="#191970" stroke="#191970" points="1870.204,-234.8236 1880.4013,-231.9489 1870.637,-227.837 1870.204,-234.8236"/>
</g>
<!-- Node5&#45;&gt;Node158 -->
<g id="edge32" class="edge">
<title>Node5&#45;&gt;Node158</title>
<path fill="none" stroke="#191970" d="M1870.1465,-233.5978C1656.9206,-231.5636 760.9963,-221.166 483,-188 478.5203,-187.4656 473.8381,-186.7238 469.2292,-185.8834"/>
<polygon fill="#191970" stroke="#191970" points="1870.323,-237.0995 1880.3555,-233.6937 1870.3889,-230.0998 1870.323,-237.0995"/>
</g>
<!-- Node159 -->
<g id="node27" class="node">
<title>Node159</title>
<g id="a_node27"><a xlink:href="_scratch_field_8cpp.html" target="_top" xlink:title="ScratchField.cpp">
<polygon fill="#ffffff" stroke="#000000" points="1438,-168.5 1438,-187.5 1528,-187.5 1528,-168.5 1438,-168.5"/>
<text text-anchor="middle" x="1483" y="-175.5" font-family="Helvetica,sans-Serif" font-size="10.00" fill="#000000">ScratchField.cpp</text>
</a>
</g>
</g>
<!-- Node5&#45;&gt;Node159 -->
<g id="edge33" class="edge">
<title>Node5&#45;&gt;Node159</title>
<path fill="none" stroke="#191970" d="M1870.3699,-229.3905C1799.0487,-221.9767 1656.8976,-206.3595 1537,-188 1534.0784,-187.5526 1531.0725,-187.067 1528.0456,-186.5588"/>
<polygon fill="#191970" stroke="#191970" points="1870.0607,-232.8771 1880.3677,-230.4242 1870.7807,-225.9143 1870.0607,-232.8771"/>
</g>
<!-- Node160 -->
<g id="node28" class="node">
<title>Node160</title>
<g id="a_node28"><a xlink:href="_view_field_8cpp.html" target="_top" xlink:title="ViewField.cpp">
<polygon fill="#ffffff" stroke="#000000" points="1546,-168.5 1546,-187.5 1624,-187.5 1624,-168.5 1546,-168.5"/>
<text text-anchor="middle" x="1585" y="-175.5" font-family="Helvetica,sans-Serif" font-size="10.00" fill="#000000">ViewField.cpp</text>
</a>
</g>
</g>
<!-- Node5&#45;&gt;Node160 -->
<g id="edge34" class="edge">
<title>Node5&#45;&gt;Node160</title>
<path fill="none" stroke="#191970" d="M1870.2046,-227.1941C1814.152,-218.7169 1716.3965,-203.4571 1633,-188 1630.0706,-187.4571 1627.045,-186.8756 1624.0042,-186.2764"/>
<polygon fill="#191970" stroke="#191970" points="1869.7627,-230.667 1880.1727,-228.6966 1870.8061,-223.7451 1869.7627,-230.667"/>
</g>
<!-- Node161 -->
<g id="node29" class="node">
<title>Node161</title>
<g id="a_node29"><a xlink:href="field__algebra_8cpp.html" target="_top" xlink:title="field_algebra.cpp">
<polygon fill="#ffffff" stroke="#000000" points="1642,-168.5 1642,-187.5 1732,-187.5 1732,-168.5 1642,-168.5"/>
<text text-anchor="middle" x="1687" y="-175.5" font-family="Helvetica,sans-Serif" font-size="10.00" fill="#000000">field_algebra.cpp</text>
</a>
</g>
</g>
<!-- Node5&#45;&gt;Node161 -->
<g id="edge35" class="edge">
<title>Node5&#45;&gt;Node161</title>
<path fill="none" stroke="#191970" d="M1870.4634,-222.8644C1828.2103,-212.5318 1765.9883,-197.3159 1725.9764,-187.5314"/>
<polygon fill="#191970" stroke="#191970" points="1869.6736,-226.2743 1880.2188,-225.25 1871.3364,-219.4747 1869.6736,-226.2743"/>
</g>
<!-- Node162 -->
<g id="node30" class="node">
<title>Node162</title>
<g id="a_node30"><a xlink:href="diffusion_8_h.html" target="_top" xlink:title="diffusion.H">
<polygon fill="#ffffff" stroke="#ff0000" points="1750,-168.5 1750,-187.5 1814,-187.5 1814,-168.5 1750,-168.5"/>
<text text-anchor="middle" x="1782" y="-175.5" font-family="Helvetica,sans-Serif" font-size="10.00" fill="#000000">diffusion.H</text>
</a>
</g>
</g>
<!-- Node5&#45;&gt;Node162 -->
<g id="edge36" class="edge">
<title>Node5&#45;&gt;Node162</title>
<path fill="none" stroke="#191970" d="M1883.4172,-220.3833C1859.0464,-210.1985 1826.3358,-196.5284 1804.7348,-187.5011"/>
<polygon fill="#191970" stroke="#191970" points="1882.3883,-223.7466 1892.9646,-224.3733 1885.0875,-217.2879 1882.3883,-223.7466"/>
</g>
<!-- Node163 -->
<g id="node31" class="node">
<title>Node163</title>
<g id="a_node31"><a xlink:href="_p_d_e_helpers_8_h.html" target="_top" xlink:title="PDEHelpers.H">
<polygon fill="#ffffff" stroke="#ff0000" points="758,-168.5 758,-187.5 840,-187.5 840,-168.5 758,-168.5"/>
<text text-anchor="middle" x="799" y="-175.5" font-family="Helvetica,sans-Serif" font-size="10.00" fill="#000000">PDEHelpers.H</text>
</a>
</g>
</g>
<!-- Node5&#45;&gt;Node163 -->
<g id="edge37" class="edge">
<title>Node5&#45;&gt;Node163</title>
<path fill="none" stroke="#191970" d="M1870.2637,-232.8521C1693.5869,-228.2883 1055.509,-210.5762 854,-188 849.4669,-187.4921 844.7445,-186.8337 840.055,-186.0971"/>
<polygon fill="#191970" stroke="#191970" points="1870.1791,-236.3509 1880.2657,-233.1091 1870.3589,-229.3533 1870.1791,-236.3509"/>
</g>
<!-- Node164 -->
<g id="node32" class="node">
<title>Node164</title>
<g id="a_node32"><a xlink:href="_density_source_8_h.html" target="_top" xlink:title="DensitySource.H">
<polygon fill="#ffffff" stroke="#ff0000" points="1870,-168.5 1870,-187.5 1962,-187.5 1962,-168.5 1870,-168.5"/>
<text text-anchor="middle" x="1916" y="-175.5" font-family="Helvetica,sans-Serif" font-size="10.00" fill="#000000">DensitySource.H</text>
</a>
</g>
</g>
<!-- Node5&#45;&gt;Node164 -->
<g id="edge40" class="edge">
<title>Node5&#45;&gt;Node164</title>
<path fill="none" stroke="#191970" d="M1916,-214.1575C1916,-205.155 1916,-194.9199 1916,-187.6427"/>
<polygon fill="#191970" stroke="#191970" points="1912.5001,-214.2455 1916,-224.2455 1919.5001,-214.2456 1912.5001,-214.2455"/>
</g>
<!-- Node165 -->
<g id="node33" class="node">
<title>Node165</title>
<g id="a_node33"><a xlink:href="_momentum_source_8_h.html" target="_top" xlink:title="MomentumSource.H">
<polygon fill="#ffffff" stroke="#ff0000" points="2094.5,-168.5 2094.5,-187.5 2201.5,-187.5 2201.5,-168.5 2094.5,-168.5"/>
<text text-anchor="middle" x="2148" y="-175.5" font-family="Helvetica,sans-Serif" font-size="10.00" fill="#000000">MomentumSource.H</text>
</a>
</g>
</g>
<!-- Node5&#45;&gt;Node165 -->
<g id="edge41" class="edge">
<title>Node5&#45;&gt;Node165</title>
<path fill="none" stroke="#191970" d="M1961.6056,-222.9917C2004.356,-212.6727 2067.6192,-197.4023 2108.3289,-187.5758"/>
<polygon fill="#191970" stroke="#191970" points="1960.6411,-219.624 1951.7416,-225.3727 1962.2837,-226.4285 1960.6411,-219.624"/>
</g>
<!-- Node169 -->
<g id="node34" class="node">
<title>Node169</title>
<g id="a_node34"><a xlink:href="_boussinesq_buoyancy_8_h.html" target="_top" xlink:title="BoussinesqBuoyancy.H">
<polygon fill="#ffffff" stroke="#ff0000" points="1884,-112.5 1884,-131.5 2006,-131.5 2006,-112.5 1884,-112.5"/>
<text text-anchor="middle" x="1945" y="-119.5" font-family="Helvetica,sans-Serif" font-size="10.00" fill="#000000">BoussinesqBuoyancy.H</text>
</a>
</g>
</g>
<!-- Node5&#45;&gt;Node169 -->
<g id="edge49" class="edge">
<title>Node5&#45;&gt;Node169</title>
<path fill="none" stroke="#191970" d="M1961.406,-221.26C1977.7672,-214.236 1994.5188,-203.6545 2004,-188 2017.615,-165.5201 1986.7165,-143.6239 1964.6969,-131.5618"/>
<polygon fill="#191970" stroke="#191970" points="1959.9085,-218.0876 1951.8757,-224.9959 1962.4633,-224.6048 1959.9085,-218.0876"/>
</g>
<!-- Node170 -->
<g id="node35" class="node">
<title>Node170</title>
<g id="a_node35"><a xlink:href="_coriolis_forcing_8_h.html" target="_top" xlink:title="CoriolisForcing.H">
<polygon fill="#ffffff" stroke="#ff0000" points="2024,-112.5 2024,-131.5 2116,-131.5 2116,-112.5 2024,-112.5"/>
<text text-anchor="middle" x="2070" y="-119.5" font-family="Helvetica,sans-Serif" font-size="10.00" fill="#000000">CoriolisForcing.H</text>
</a>
</g>
</g>
<!-- Node5&#45;&gt;Node170 -->
<g id="edge50" class="edge">
<title>Node5&#45;&gt;Node170</title>
<path fill="none" stroke="#191970" d="M1957.3886,-220.879C1977.2983,-213.2855 2000.7444,-202.3584 2019,-188 2039.4875,-171.8862 2056.3781,-145.803 2064.6012,-131.7363"/>
<polygon fill="#191970" stroke="#191970" points="1956.1242,-217.6146 1947.9371,-224.3393 1958.5309,-224.1879 1956.1242,-217.6146"/>
</g>
<!-- Node171 -->
<g id="node36" class="node">
<title>Node171</title>
<g id="a_node36"><a xlink:href="_density_buoyancy_8_h.html" target="_top" xlink:title="DensityBuoyancy.H">
<polygon fill="#ffffff" stroke="#ff0000" points="2172,-112.5 2172,-131.5 2276,-131.5 2276,-112.5 2172,-112.5"/>
<text text-anchor="middle" x="2224" y="-119.5" font-family="Helvetica,sans-Serif" font-size="10.00" fill="#000000">DensityBuoyancy.H</text>
</a>
</g>
</g>
<!-- Node5&#45;&gt;Node171 -->
<g id="edge51" class="edge">
<title>Node5&#45;&gt;Node171</title>
<path fill="none" stroke="#191970" d="M1961.9111,-233.0685C2035.7572,-230.5826 2176.1792,-221.4621 2211,-188 2226.3255,-173.2725 2226.4307,-146.1272 2225.2109,-131.6643"/>
<polygon fill="#191970" stroke="#191970" points="1961.4066,-229.5824 1951.5193,-233.3893 1961.6226,-236.579 1961.4066,-229.5824"/>
</g>
<!-- Node173 -->
<g id="node37" class="node">
<title>Node173</title>
<g id="a_node37"><a xlink:href="_gravity_forcing_8_h.html" target="_top" xlink:title="GravityForcing.H">
<polygon fill="#ffffff" stroke="#ff0000" points="2294.5,-112.5 2294.5,-131.5 2385.5,-131.5 2385.5,-112.5 2294.5,-112.5"/>
<text text-anchor="middle" x="2340" y="-119.5" font-family="Helvetica,sans-Serif" font-size="10.00" fill="#000000">GravityForcing.H</text>
</a>
</g>
</g>
<!-- Node5&#45;&gt;Node173 -->
<g id="edge52" class="edge">
<title>Node5&#45;&gt;Node173</title>
<path fill="none" stroke="#191970" d="M1961.6156,-229.546C2036.3694,-221.8749 2181.4964,-205.3182 2230,-188 2268.3827,-174.2955 2308.1003,-146.458 2327.6307,-131.6964"/>
<polygon fill="#191970" stroke="#191970" points="1961.1469,-226.0755 1951.552,-230.5686 1961.8546,-233.0396 1961.1469,-226.0755"/>
</g>
<!-- Node174 -->
<g id="node38" class="node">
<title>Node174</title>
<g id="a_node38"><a xlink:href="_m_m_s_forcing_8_h.html" target="_top" xlink:title="MMSForcing.H">
<polygon fill="#ffffff" stroke="#ff0000" points="2950.5,-112.5 2950.5,-131.5 3033.5,-131.5 3033.5,-112.5 2950.5,-112.5"/>
<text text-anchor="middle" x="2992" y="-119.5" font-family="Helvetica,sans-Serif" font-size="10.00" fill="#000000">MMSForcing.H</text>
</a>
</g>
</g>
<!-- Node5&#45;&gt;Node174 -->
<g id="edge60" class="edge">
<title>Node5&#45;&gt;Node174</title>
<path fill="none" stroke="#191970" d="M1961.9232,-233.5531C2220.8887,-230.9272 3488.1845,-216.6267 3516,-188 3522.1944,-181.6249 3522.0043,-174.5545 3516,-168 3483.6147,-132.6471 3151.7553,-124.3411 3033.539,-122.4976"/>
<polygon fill="#191970" stroke="#191970" points="1961.7058,-230.0551 1951.7415,-233.6556 1961.7763,-237.0547 1961.7058,-230.0551"/>
</g>
<!-- Node175 -->
<g id="node39" class="node">
<title>Node175</title>
<g id="a_node39"><a xlink:href="_source_term_8_h.html" target="_top" xlink:title="SourceTerm.H">
<polygon fill="#ffffff" stroke="#ff0000" points="2296,-168.5 2296,-187.5 2376,-187.5 2376,-168.5 2296,-168.5"/>
<text text-anchor="middle" x="2336" y="-175.5" font-family="Helvetica,sans-Serif" font-size="10.00" fill="#000000">SourceTerm.H</text>
</a>
</g>
</g>
<!-- Node5&#45;&gt;Node175 -->
<g id="edge53" class="edge">
<title>Node5&#45;&gt;Node175</title>
<path fill="none" stroke="#191970" d="M1961.84,-229.1042C2031.2714,-221.4933 2167.1819,-205.8312 2282,-188 2286.5223,-187.2977 2291.2472,-186.5072 2295.9397,-185.6862"/>
<polygon fill="#191970" stroke="#191970" points="1961.2462,-225.6481 1951.6847,-230.2118 1962.0053,-232.6068 1961.2462,-225.6481"/>
</g>
<!-- Node176 -->
<g id="node40" class="node">
<title>Node176</title>
<g id="a_node40"><a xlink:href="_s_d_r_source_8_h.html" target="_top" xlink:title="SDRSource.H">
<polygon fill="#ffffff" stroke="#ff0000" points="2394,-168.5 2394,-187.5 2474,-187.5 2474,-168.5 2394,-168.5"/>
<text text-anchor="middle" x="2434" y="-175.5" font-family="Helvetica,sans-Serif" font-size="10.00" fill="#000000">SDRSource.H</text>
</a>
</g>
</g>
<!-- Node5&#45;&gt;Node176 -->
<g id="edge55" class="edge">
<title>Node5&#45;&gt;Node176</title>
<path fill="none" stroke="#191970" d="M1961.7422,-231.0935C2045.863,-225.3979 2230.6468,-211.256 2385,-188 2387.919,-187.5602 2390.927,-187.0608 2393.9488,-186.5255"/>
<polygon fill="#191970" stroke="#191970" points="1961.4952,-227.6021 1951.7513,-231.7621 1961.9627,-234.5864 1961.4952,-227.6021"/>
</g>
<!-- Node177 -->
<g id="node41" class="node">
<title>Node177</title>
<g id="a_node41"><a xlink:href="_temperature_source_8_h.html" target="_top" xlink:title="TemperatureSource.H">
<polygon fill="#ffffff" stroke="#ff0000" points="2492.5,-168.5 2492.5,-187.5 2605.5,-187.5 2605.5,-168.5 2492.5,-168.5"/>
<text text-anchor="middle" x="2549" y="-175.5" font-family="Helvetica,sans-Serif" font-size="10.00" fill="#000000">TemperatureSource.H</text>
</a>
</g>
</g>
<!-- Node5&#45;&gt;Node177 -->
<g id="edge56" class="edge">
<title>Node5&#45;&gt;Node177</title>
<path fill="none" stroke="#191970" d="M1961.571,-231.3801C2057.9915,-225.6002 2289.6729,-210.4607 2483,-188 2485.993,-187.6523 2489.0589,-187.272 2492.1519,-186.8694"/>
<polygon fill="#191970" stroke="#191970" points="1961.3527,-227.8868 1951.5782,-231.9746 1961.7684,-234.8745 1961.3527,-227.8868"/>
</g>
<!-- Node178 -->
<g id="node42" class="node">
<title>Node178</title>
<g id="a_node42"><a xlink:href="_t_k_e_source_8_h.html" target="_top" xlink:title="TKESource.H">
<polygon fill="#ffffff" stroke="#ff0000" points="2623.5,-168.5 2623.5,-187.5 2700.5,-187.5 2700.5,-168.5 2623.5,-168.5"/>
<text text-anchor="middle" x="2662" y="-175.5" font-family="Helvetica,sans-Serif" font-size="10.00" fill="#000000">TKESource.H</text>
</a>
</g>
</g>
<!-- Node5&#45;&gt;Node178 -->
<g id="edge57" class="edge">
<title>Node5&#45;&gt;Node178</title>
<path fill="none" stroke="#191970" d="M1962.1086,-233.2567C2074.3488,-230.9501 2370.5108,-221.8748 2615,-188 2617.7269,-187.6222 2620.5318,-187.1756 2623.3492,-186.6842"/>
<polygon fill="#191970" stroke="#191970" points="1961.7577,-229.7628 1951.8287,-233.4594 1961.8958,-236.7614 1961.7577,-229.7628"/>
</g>
<!-- Node181 -->
<g id="node43" class="node">
<title>Node181</title>
<g id="a_node43"><a xlink:href="_split_advection_8_h.html" target="_top" xlink:title="SplitAdvection.H">
<polygon fill="#ffffff" stroke="#ff0000" points="2719,-168.5 2719,-187.5 2809,-187.5 2809,-168.5 2719,-168.5"/>
<text text-anchor="middle" x="2764" y="-175.5" font-family="Helvetica,sans-Serif" font-size="10.00" fill="#000000">SplitAdvection.H</text>
</a>
</g>
</g>
<!-- Node5&#45;&gt;Node181 -->
<g id="edge58" class="edge">
<title>Node5&#45;&gt;Node181</title>
<path fill="none" stroke="#191970" d="M1961.8603,-233.3491C2083.9624,-231.1831 2426.9602,-222.2696 2710,-188 2712.9342,-187.6447 2715.9497,-187.2289 2718.9836,-186.7723"/>
<polygon fill="#191970" stroke="#191970" points="1961.6926,-229.8514 1951.7539,-233.5218 1961.8122,-236.8504 1961.6926,-229.8514"/>
</g>
<!-- Node183 -->
<g id="node44" class="node">
<title>Node183</title>
<g id="a_node44"><a xlink:href="fvm__utils_8_h.html" target="_top" xlink:title="fvm_utils.H">
<polygon fill="#ffffff" stroke="#ff0000" points="2827.5,-168.5 2827.5,-187.5 2894.5,-187.5 2894.5,-168.5 2827.5,-168.5"/>
<text text-anchor="middle" x="2861" y="-175.5" font-family="Helvetica,sans-Serif" font-size="10.00" fill="#000000">fvm_utils.H</text>
</a>
</g>
</g>
<!-- Node5&#45;&gt;Node183 -->
<g id="edge59" class="edge">
<title>Node5&#45;&gt;Node183</title>
<path fill="none" stroke="#191970" d="M1962.2768,-232.727C2122.08,-228.1612 2650.0878,-211.6154 2818,-188 2821.0359,-187.573 2824.1729,-187.0353 2827.3053,-186.432"/>
<polygon fill="#191970" stroke="#191970" points="1961.7501,-229.2405 1951.8534,-233.0227 1961.9486,-236.2377 1961.7501,-229.2405"/>
</g>
<!-- Node192 -->
<g id="node45" class="node">
<title>Node192</title>
<g id="a_node45"><a xlink:href="_linear_profile_8cpp.html" target="_top" xlink:title="LinearProfile.cpp">
<polygon fill="#ffffff" stroke="#000000" points="2912.5,-168.5 2912.5,-187.5 3001.5,-187.5 3001.5,-168.5 2912.5,-168.5"/>
<text text-anchor="middle" x="2957" y="-175.5" font-family="Helvetica,sans-Serif" font-size="10.00" fill="#000000">LinearProfile.cpp</text>
</a>
</g>
</g>
<!-- Node5&#45;&gt;Node192 -->
<g id="edge62" class="edge">
<title>Node5&#45;&gt;Node192</title>
<path fill="none" stroke="#191970" d="M1961.5646,-232.7269C2130.0596,-227.8871 2717.7371,-209.7995 2904,-188 2906.6971,-187.6843 2909.4632,-187.3119 2912.2482,-186.8995"/>
<polygon fill="#191970" stroke="#191970" points="1961.4358,-229.2291 1951.5399,-233.0134 1961.6359,-236.2262 1961.4358,-229.2291"/>
</g>
<!-- Node70 -->
<g id="node46" class="node">
<title>Node70</title>
<g id="a_node46"><a xlink:href="_power_law_profile_8cpp.html" target="_top" xlink:title="PowerLawProfile.cpp">
<polygon fill="#ffffff" stroke="#000000" points="3019.5,-168.5 3019.5,-187.5 3128.5,-187.5 3128.5,-168.5 3019.5,-168.5"/>
<text text-anchor="middle" x="3074" y="-175.5" font-family="Helvetica,sans-Serif" font-size="10.00" fill="#000000">PowerLawProfile.cpp</text>
</a>
</g>
</g>
<!-- Node5&#45;&gt;Node70 -->
<g id="edge63" class="edge">
<title>Node5&#45;&gt;Node70</title>
<path fill="none" stroke="#191970" d="M1961.9307,-232.7787C2142.3166,-227.8724 2802.5153,-208.8552 3011,-188 3013.7549,-187.7244 3016.5725,-187.4073 3019.4143,-187.0594"/>
<polygon fill="#191970" stroke="#191970" points="1961.6308,-229.2854 1951.7293,-233.055 1961.8204,-236.2829 1961.6308,-229.2854"/>
</g>
<!-- Node193 -->
<g id="node47" class="node">
<title>Node193</title>
<g id="a_node47"><a xlink:href="_u_d_f_8cpp.html" target="_top" xlink:title="UDF.cpp">
<polygon fill="#ffffff" stroke="#000000" points="3147,-168.5 3147,-187.5 3203,-187.5 3203,-168.5 3147,-168.5"/>
<text text-anchor="middle" x="3175" y="-175.5" font-family="Helvetica,sans-Serif" font-size="10.00" fill="#000000">UDF.cpp</text>
</a>
</g>
</g>
<!-- Node5&#45;&gt;Node193 -->
<g id="edge64" class="edge">
<title>Node5&#45;&gt;Node193</title>
<path fill="none" stroke="#191970" d="M1961.8637,-233.661C2155.2303,-232.0181 2904.7185,-223.4467 3138,-188 3140.8946,-187.5602 3143.8872,-186.9761 3146.8585,-186.3104"/>
<polygon fill="#191970" stroke="#191970" points="1961.7326,-230.1619 1951.762,-233.7448 1961.7907,-237.1617 1961.7326,-230.1619"/>
</g>
<!-- Node194 -->
<g id="node48" class="node">
<title>Node194</title>
<g id="a_node48"><a xlink:href="_transport_model_8_h.html" target="_top" xlink:title="TransportModel.H">
<polygon fill="#ffffff" stroke="#ff0000" points="3221.5,-168.5 3221.5,-187.5 3316.5,-187.5 3316.5,-168.5 3221.5,-168.5"/>
<text text-anchor="middle" x="3269" y="-175.5" font-family="Helvetica,sans-Serif" font-size="10.00" fill="#000000">TransportModel.H</text>
</a>
</g>
</g>
<!-- Node5&#45;&gt;Node194 -->
<g id="edge65" class="edge">
<title>Node5&#45;&gt;Node194</title>
<path fill="none" stroke="#191970" d="M1961.9181,-233.2224C2162.3951,-229.6961 2962.0525,-214.234 3212,-188 3215.0975,-187.6749 3218.2807,-187.2819 3221.4834,-186.8422"/>
<polygon fill="#191970" stroke="#191970" points="1961.6762,-229.726 1951.7389,-233.4002 1961.7986,-236.7249 1961.6762,-229.726"/>
</g>
<!-- Node111 -->
<g id="node49" class="node">
<title>Node111</title>
<g id="a_node49"><a xlink:href="_smagorinsky_8_h.html" target="_top" xlink:title="Smagorinsky.H">
<polygon fill="#ffffff" stroke="#ff0000" points="3335,-168.5 3335,-187.5 3419,-187.5 3419,-168.5 3335,-168.5"/>
<text text-anchor="middle" x="3377" y="-175.5" font-family="Helvetica,sans-Serif" font-size="10.00" fill="#000000">Smagorinsky.H</text>
</a>
</g>
</g>
<!-- Node5&#45;&gt;Node111 -->
<g id="edge66" class="edge">
<title>Node5&#45;&gt;Node111</title>
<path fill="none" stroke="#191970" d="M1961.7996,-233.4984C2172.8023,-231.0351 3052.5809,-219.061 3326,-188 3328.8688,-187.6741 3331.8173,-187.2734 3334.7808,-186.8217"/>
<polygon fill="#191970" stroke="#191970" points="1961.6501,-229.9998 1951.6911,-233.615 1961.7309,-236.9993 1961.6501,-229.9998"/>
</g>
<!-- Node134 -->
<g id="node50" class="node">
<title>Node134</title>
<g id="a_node50"><a xlink:href="_act_src_op_8_h.html" target="_top" xlink:title="ActSrcOp.H">
<polygon fill="#ffffff" stroke="#ff0000" points="3437,-168.5 3437,-187.5 3507,-187.5 3507,-168.5 3437,-168.5"/>
<text text-anchor="middle" x="3472" y="-175.5" font-family="Helvetica,sans-Serif" font-size="10.00" fill="#000000">ActSrcOp.H</text>
</a>
</g>
</g>
<!-- Node5&#45;&gt;Node134 -->
<g id="edge67" class="edge">
<title>Node5&#45;&gt;Node134</title>
<path fill="none" stroke="#191970" d="M1961.8762,-233.7978C2182.2862,-232.6438 3133.8836,-225.5385 3428,-188 3430.7974,-187.643 3433.6782,-187.1886 3436.5636,-186.6713"/>
<polygon fill="#191970" stroke="#191970" points="1961.6236,-230.2989 1951.6415,-233.8498 1961.6592,-237.2988 1961.6236,-230.2989"/>
</g>
<!-- Node7&#45;&gt;Node6 -->
<g id="edge4" class="edge">
<title>Node7&#45;&gt;Node6</title>
<path fill="none" stroke="#191970" d="M1007.9634,-167.9618C1188.4559,-145.2401 1390.9126,-130.6146 1478.7023,-124.8061"/>
<polygon fill="#191970" stroke="#191970" points="1007.5033,-164.492 998.024,-169.2241 1008.3854,-171.4362 1007.5033,-164.492"/>
</g>
<!-- Node8 -->
<g id="node5" class="node">
<title>Node8</title>
<g id="a_node5"><a xlink:href="_fixed_gradient_b_c_8cpp.html" target="_top" xlink:title="FixedGradientBC.cpp">
<polygon fill="#ffffff" stroke="#000000" points="1068,-112.5 1068,-131.5 1178,-131.5 1178,-112.5 1068,-112.5"/>
<text text-anchor="middle" x="1123" y="-119.5" font-family="Helvetica,sans-Serif" font-size="10.00" fill="#000000">FixedGradientBC.cpp</text>
</a>
</g>
</g>
<!-- Node7&#45;&gt;Node8 -->
<g id="edge5" class="edge">
<title>Node7&#45;&gt;Node8</title>
<path fill="none" stroke="#191970" d="M986.8404,-165.3235C1019.1173,-155.0536 1063.8852,-140.8093 1093.1393,-131.5011"/>
<polygon fill="#191970" stroke="#191970" points="985.7235,-162.0059 977.2555,-168.3733 987.846,-168.6764 985.7235,-162.0059"/>
</g>
<!-- Node9&#45;&gt;Node10 -->
<g id="edge7" class="edge">
<title>Node9&#45;&gt;Node10</title>
<path fill="none" stroke="#191970" d="M515.4699,-168.6944C513.9639,-168.4468 512.4705,-168.2141 511,-168 311.577,-138.9691 257.1686,-168.627 59,-132 56.0958,-131.4632 53.0854,-130.7762 50.1107,-130.0141"/>
<polygon fill="#191970" stroke="#191970" points="515.019,-172.1697 525.4828,-170.5083 516.2668,-165.2818 515.019,-172.1697"/>
</g>
<!-- Node29 -->
<g id="node8" class="node">
<title>Node29</title>
<g id="a_node8"><a xlink:href="_a_b_l_wall_function_8_h.html" target="_top" xlink:title="ABLWallFunction.H">
<polygon fill="#ffffff" stroke="#ff0000" points="261.5,-56.5 261.5,-75.5 364.5,-75.5 364.5,-56.5 261.5,-56.5"/>
<text text-anchor="middle" x="313" y="-63.5" font-family="Helvetica,sans-Serif" font-size="10.00" fill="#000000">ABLWallFunction.H</text>
</a>
</g>
</g>
<!-- Node9&#45;&gt;Node29 -->
<g id="edge8" class="edge">
<title>Node9&#45;&gt;Node29</title>
<path fill="none" stroke="#191970" d="M515.4305,-168.9185C513.9357,-168.6073 512.4553,-168.3003 511,-168 431.0995,-151.5105 390.6404,-187.6689 331,-132 315.1982,-117.2505 312.7668,-90.1144 312.6815,-75.6588"/>
<polygon fill="#191970" stroke="#191970" points="514.8892,-172.3811 525.3948,-171.0088 516.3264,-165.5302 514.8892,-172.3811"/>
</g>
<!-- Node34 -->
<g id="node9" class="node">
<title>Node34</title>
<g id="a_node9"><a xlink:href="_a_b_l_stats_8_h.html" target="_top" xlink:title="ABLStats.H">
<polygon fill="#ffffff" stroke="#ff0000" points="278.5,-.5 278.5,-19.5 347.5,-19.5 347.5,-.5 278.5,-.5"/>
<text text-anchor="middle" x="313" y="-7.5" font-family="Helvetica,sans-Serif" font-size="10.00" fill="#000000">ABLStats.H</text>
</a>
</g>
</g>
<!-- Node9&#45;&gt;Node34 -->
<g id="edge16" class="edge">
<title>Node9&#45;&gt;Node34</title>
<path fill="none" stroke="#191970" d="M515.4605,-168.7552C513.9572,-168.4903 512.4669,-168.2375 511,-168 439.9239,-156.4941 237.001,-185.6666 189,-132 149.4375,-87.7679 243.6675,-39.5595 289.6068,-19.5395"/>
<polygon fill="#191970" stroke="#191970" points="514.9861,-172.2274 525.4619,-170.644 516.2851,-165.349 514.9861,-172.2274"/>
</g>
<!-- Node37 -->
<g id="node10" class="node">
<title>Node37</title>
<g id="a_node10"><a xlink:href="_field_plane_averaging_8_h.html" target="_top" xlink:title="FieldPlaneAveraging.H">
<polygon fill="#ffffff" stroke="#ff0000" points="340,-112.5 340,-131.5 456,-131.5 456,-112.5 340,-112.5"/>
<text text-anchor="middle" x="398" y="-119.5" font-family="Helvetica,sans-Serif" font-size="10.00" fill="#000000">FieldPlaneAveraging.H</text>
</a>
</g>
</g>
<!-- Node9&#45;&gt;Node37 -->
<g id="edge10" class="edge">
<title>Node9&#45;&gt;Node37</title>
<path fill="none" stroke="#191970" d="M521.0201,-165.057C491.7382,-154.8084 451.5115,-140.729 425.1461,-131.5011"/>
<polygon fill="#191970" stroke="#191970" points="519.9002,-168.3732 530.495,-168.3733 522.2127,-161.7662 519.9002,-168.3732"/>
</g>
<!-- Node32 -->
<g id="node12" class="node">
<title>Node32</title>
<g id="a_node12"><a xlink:href="_a_b_l_mean_boussinesq_8cpp.html" target="_top" xlink:title="ABLMeanBoussinesq.cpp">
<polygon fill="#ffffff" stroke="#000000" points="836.5,-.5 836.5,-19.5 965.5,-19.5 965.5,-.5 836.5,-.5"/>
<text text-anchor="middle" x="901" y="-7.5" font-family="Helvetica,sans-Serif" font-size="10.00" fill="#000000">ABLMeanBoussinesq.cpp</text>
</a>
</g>
</g>
<!-- Node9&#45;&gt;Node32 -->
<g id="edge22" class="edge">
<title>Node9&#45;&gt;Node32</title>
<path fill="none" stroke="#191970" d="M542.2478,-160.4288C531.6843,-146.4263 521.4671,-126.7855 532,-112 567.2376,-62.5356 740.21,-31.7134 836.3112,-18.1246"/>
<polygon fill="#191970" stroke="#191970" points="539.6549,-162.7874 548.6875,-168.3249 545.0797,-158.3633 539.6549,-162.7874"/>
</g>
<!-- Node43 -->
<g id="node13" class="node">
<title>Node43</title>
<g id="a_node13"><a xlink:href="_a_b_l_boundary_plane_8_h.html" target="_top" xlink:title="ABLBoundaryPlane.H">
<polygon fill="#ffffff" stroke="#ff0000" points="550,-112.5 550,-131.5 662,-131.5 662,-112.5 550,-112.5"/>
<text text-anchor="middle" x="606" y="-119.5" font-family="Helvetica,sans-Serif" font-size="10.00" fill="#000000">ABLBoundaryPlane.H</text>
</a>
</g>
</g>
<!-- Node9&#45;&gt;Node43 -->
<g id="edge15" class="edge">
<title>Node9&#45;&gt;Node43</title>
<path fill="none" stroke="#191970" d="M572.9997,-160.5004C581.1622,-150.9775 590.9489,-139.5596 597.7349,-131.6427"/>
<polygon fill="#191970" stroke="#191970" points="570.2115,-158.3752 566.361,-168.2455 575.5263,-162.9307 570.2115,-158.3752"/>
</g>
<!-- Node47 -->
<g id="node14" class="node">
<title>Node47</title>
<g id="a_node14"><a xlink:href="_c_f_d_sim_8cpp.html" target="_top" xlink:title="CFDSim.cpp">
<polygon fill="#ffffff" stroke="#000000" points="68,-112.5 68,-131.5 142,-131.5 142,-112.5 68,-112.5"/>
<text text-anchor="middle" x="105" y="-119.5" font-family="Helvetica,sans-Serif" font-size="10.00" fill="#000000">CFDSim.cpp</text>
</a>
</g>
</g>
<!-- Node9&#45;&gt;Node47 -->
<g id="edge17" class="edge">
<title>Node9&#45;&gt;Node47</title>
<path fill="none" stroke="#191970" d="M515.4637,-168.7356C513.9594,-168.4763 512.4681,-168.2299 511,-168 354.3229,-143.4623 312.8686,-155.2821 156,-132 151.5375,-131.3377 146.8727,-130.5526 142.2548,-129.718"/>
<polygon fill="#191970" stroke="#191970" points="514.9969,-172.2088 525.4689,-170.6003 516.2794,-165.3273 514.9969,-172.2088"/>
</g>
<!-- Node48 -->
<g id="node15" class="node">
<title>Node48</title>
<g id="a_node15"><a xlink:href="_p_d_e_ops_8_h.html" target="_top" xlink:title="PDEOps.H">
<polygon fill="#ffffff" stroke="#ff0000" points="886,-112.5 886,-131.5 952,-131.5 952,-112.5 886,-112.5"/>
<text text-anchor="middle" x="919" y="-119.5" font-family="Helvetica,sans-Serif" font-size="10.00" fill="#000000">PDEOps.H</text>
</a>
</g>
</g>
<!-- Node9&#45;&gt;Node48 -->
<g id="edge18" class="edge">
<title>Node9&#45;&gt;Node48</title>
<path fill="none" stroke="#191970" d="M600.8616,-173.0706C662.292,-165.7224 778.7994,-150.731 877,-132 879.7978,-131.4663 882.6905,-130.8708 885.5882,-130.2434"/>
<polygon fill="#191970" stroke="#191970" points="600.2852,-169.6144 590.7673,-174.2684 601.1101,-176.5656 600.2852,-169.6144"/>
</g>
<!-- Node65 -->
<g id="node16" class="node">
<title>Node65</title>
<g id="a_node16"><a xlink:href="_p_d_e_8_h.html" target="_top" xlink:title="PDE.H">
<polygon fill="#ffffff" stroke="#ff0000" points="703,-56.5 703,-75.5 751,-75.5 751,-56.5 703,-56.5"/>
<text text-anchor="middle" x="727" y="-63.5" font-family="Helvetica,sans-Serif" font-size="10.00" fill="#000000">PDE.H</text>
</a>
</g>
</g>
<!-- Node9&#45;&gt;Node65 -->
<g id="edge20" class="edge">
<title>Node9&#45;&gt;Node65</title>
<path fill="none" stroke="#191970" d="M545.6557,-159.934C537.5399,-145.6014 530.2306,-125.7573 541,-112 560.8382,-86.6579 656.9528,-73.3451 702.7013,-68.3551"/>
<polygon fill="#191970" stroke="#191970" points="542.6818,-161.7796 550.9235,-168.4374 548.6325,-158.0932 542.6818,-161.7796"/>
</g>
<!-- Node31 -->
<g id="node17" class="node">
<title>Node31</title>
<g id="a_node17"><a xlink:href="_a_b_l_forcing_8cpp.html" target="_top" xlink:title="ABLForcing.cpp">
<polygon fill="#ffffff" stroke="#000000" points="198,-112.5 198,-131.5 284,-131.5 284,-112.5 198,-112.5"/>
<text text-anchor="middle" x="241" y="-119.5" font-family="Helvetica,sans-Serif" font-size="10.00" fill="#000000">ABLForcing.cpp</text>
</a>
</g>
</g>
<!-- Node9&#45;&gt;Node31 -->
<g id="edge21" class="edge">
<title>Node9&#45;&gt;Node31</title>
<path fill="none" stroke="#191970" d="M515.4418,-168.8618C513.9437,-168.5667 512.4597,-168.2785 511,-168 416.6921,-150.0059 392.6163,-148.2953 298,-132 293.5445,-131.2326 288.8941,-130.4261 284.255,-129.6178"/>
<polygon fill="#191970" stroke="#191970" points="514.9242,-172.328 525.4199,-170.8821 516.3134,-165.4672 514.9242,-172.328"/>
</g>
<!-- Node9&#45;&gt;Node89 -->
<g id="edge23" class="edge">
<title>Node9&#45;&gt;Node89</title>
<path fill="none" stroke="#191970" d="M600.7972,-174.3578C674.5873,-167.8009 830.4125,-152.7372 961,-132 964.0869,-131.5098 967.2747,-130.9597 970.4738,-130.3763"/>
<polygon fill="#191970" stroke="#191970" points="600.1725,-170.8992 590.5182,-175.2632 600.7867,-177.8722 600.1725,-170.8992"/>
</g>
<!-- Node9&#45;&gt;Node94 -->
<g id="edge24" class="edge">
<title>Node9&#45;&gt;Node94</title>
<path fill="none" stroke="#191970" d="M597.1148,-165.1905C628.4432,-154.9309 671.6871,-140.7691 699.9876,-131.5011"/>
<polygon fill="#191970" stroke="#191970" points="595.81,-161.9348 587.3959,-168.3733 597.9886,-168.5872 595.81,-161.9348"/>
</g>
<!-- Node9&#45;&gt;Node136 -->
<g id="edge25" class="edge">
<title>Node9&#45;&gt;Node136</title>
<path fill="none" stroke="#191970" d="M600.5758,-169.7178C646.5995,-160.7017 722.0846,-145.7312 787,-132 789.8187,-131.4038 792.7346,-130.7775 795.6645,-130.1414"/>
<polygon fill="#191970" stroke="#191970" points="599.7983,-166.3034 590.6563,-171.6581 601.1422,-173.1732 599.7983,-166.3034"/>
</g>
<!-- Node29&#45;&gt;Node34 -->
<g id="edge9" class="edge">
<title>Node29&#45;&gt;Node34</title>
<path fill="none" stroke="#191970" d="M313,-46.1575C313,-37.155 313,-26.9199 313,-19.6427"/>
<polygon fill="#191970" stroke="#191970" points="309.5001,-46.2455 313,-56.2455 316.5001,-46.2456 309.5001,-46.2455"/>
</g>
<!-- Node37&#45;&gt;Node29 -->
<g id="edge11" class="edge">
<title>Node37&#45;&gt;Node29</title>
<path fill="none" stroke="#191970" d="M374.4581,-106.49C359.461,-96.6096 340.5027,-84.1194 327.6362,-75.6427"/>
<polygon fill="#191970" stroke="#191970" points="372.9179,-109.6666 383.1941,-112.2455 376.7691,-103.8212 372.9179,-109.6666"/>
</g>
<!-- Node37&#45;&gt;Node34 -->
<g id="edge12" class="edge">
<title>Node37&#45;&gt;Node34</title>
<path fill="none" stroke="#191970" d="M393.5946,-102.2407C389.7953,-88.333 383.2691,-69.8098 373,-56 361.5648,-40.6221 343.6575,-27.8228 330.3797,-19.6627"/>
<polygon fill="#191970" stroke="#191970" points="390.2677,-103.366 396.0762,-112.2267 397.061,-101.6777 390.2677,-103.366"/>
</g>
<!-- Node37&#45;&gt;Node42 -->
<g id="edge13" class="edge">
<title>Node37&#45;&gt;Node42</title>
<path fill="none" stroke="#191970" d="M466.3647,-117.07C490.0021,-115.4051 516.6619,-113.5714 541,-112 807.6683,-94.7828 1125.9876,-76.7168 1257.0413,-69.3868"/>
<polygon fill="#191970" stroke="#191970" points="465.815,-113.6 456.0868,-117.7967 466.3087,-120.5826 465.815,-113.6"/>
</g>
<!-- Node42&#45;&gt;Node32 -->
<g id="edge14" class="edge">
<title>Node42&#45;&gt;Node32</title>
<path fill="none" stroke="#191970" d="M1247.0441,-56.4711C1168.231,-45.8871 1042.0785,-28.9458 965.8273,-18.7058"/>
<polygon fill="#191970" stroke="#191970" points="1246.9877,-59.9949 1257.3646,-57.8571 1247.9195,-53.0572 1246.9877,-59.9949"/>
</g>
<!-- Node48&#45;&gt;Node65 -->
<g id="edge19" class="edge">
<title>Node48&#45;&gt;Node65</title>
<path fill="none" stroke="#191970" d="M876.0913,-109.4849C837.5567,-98.2457 782.374,-82.1508 751.0816,-73.0238"/>
<polygon fill="#191970" stroke="#191970" points="875.414,-112.9332 885.994,-112.3733 877.374,-106.2132 875.414,-112.9332"/>
</g>
<!-- Node163&#45;&gt;Node48 -->
<g id="edge38" class="edge">
<title>Node163&#45;&gt;Node48</title>
<path fill="none" stroke="#191970" d="M828.7624,-164.1109C850.5232,-153.9559 879.4682,-140.4482 898.6405,-131.5011"/>
<polygon fill="#191970" stroke="#191970" points="827.2105,-160.9727 819.6287,-168.3733 830.1707,-167.316 827.2105,-160.9727"/>
</g>
<!-- Node163&#45;&gt;Node89 -->
<g id="edge39" class="edge">
<title>Node163&#45;&gt;Node89</title>
<path fill="none" stroke="#191970" d="M845.2697,-165.7199C884.0676,-155.4228 938.6759,-140.9296 974.2011,-131.5011"/>
<polygon fill="#191970" stroke="#191970" points="844.0397,-162.4251 835.2722,-168.3733 845.8354,-169.1909 844.0397,-162.4251"/>
</g>
<!-- Node165&#45;&gt;Node42 -->
<g id="edge42" class="edge">
<title>Node165&#45;&gt;Node42</title>
<path fill="none" stroke="#191970" d="M2146.8313,-158.4647C2144.7892,-143.2006 2139.3437,-122.8185 2125,-112 2095.3102,-89.6069 1561.3608,-72.756 1378.6927,-67.625"/>
<polygon fill="#191970" stroke="#191970" points="2143.3519,-158.847 2147.7954,-168.4649 2150.3196,-158.1752 2143.3519,-158.847"/>
</g>
<!-- Node165&#45;&gt;Node169 -->
<g id="edge43" class="edge">
<title>Node165&#45;&gt;Node169</title>
<path fill="none" stroke="#191970" d="M2103.0073,-165.5882C2065.7109,-155.2996 2013.4744,-140.8895 1979.4416,-131.5011"/>
<polygon fill="#191970" stroke="#191970" points="2102.5324,-169.0879 2113.1031,-168.3733 2104.3939,-162.3399 2102.5324,-169.0879"/>
</g>
<!-- Node165&#45;&gt;Node170 -->
<g id="edge44" class="edge">
<title>Node165&#45;&gt;Node170</title>
<path fill="none" stroke="#191970" d="M2126.0064,-162.2097C2112.3071,-152.3743 2095.1264,-140.0394 2083.4309,-131.6427"/>
<polygon fill="#191970" stroke="#191970" points="2124.2489,-165.2566 2134.4134,-168.2455 2128.3314,-159.5703 2124.2489,-165.2566"/>
</g>
<!-- Node165&#45;&gt;Node171 -->
<g id="edge45" class="edge">
<title>Node165&#45;&gt;Node171</title>
<path fill="none" stroke="#191970" d="M2169.4297,-162.2097C2182.7777,-152.3743 2199.5179,-140.0394 2210.9135,-131.6427"/>
<polygon fill="#191970" stroke="#191970" points="2167.2126,-159.4958 2161.2382,-168.2455 2171.365,-165.1312 2167.2126,-159.4958"/>
</g>
<!-- Node165&#45;&gt;Node173 -->
<g id="edge46" class="edge">
<title>Node165&#45;&gt;Node173</title>
<path fill="none" stroke="#191970" d="M2191.0077,-165.4561C2226.2521,-155.1765 2275.3736,-140.8494 2307.4247,-131.5011"/>
<polygon fill="#191970" stroke="#191970" points="2189.626,-162.2132 2181.006,-168.3733 2191.586,-168.9332 2189.626,-162.2132"/>
</g>
<!-- Node165&#45;&gt;Node174 -->
<g id="edge47" class="edge">
<title>Node165&#45;&gt;Node174</title>
<path fill="none" stroke="#191970" d="M2212.0163,-173.3049C2235.5867,-171.5998 2262.5046,-169.6803 2287,-168 2538.7733,-150.7297 2841.2363,-131.5063 2950.276,-124.625"/>
<polygon fill="#191970" stroke="#191970" points="2211.5116,-169.8322 2201.7909,-174.0463 2212.0179,-176.8139 2211.5116,-169.8322"/>
</g>
</g>
</svg>
