<?xml version="1.0" encoding="UTF-8" standalone="no"?>
<!DOCTYPE svg PUBLIC "-//W3C//DTD SVG 1.1//EN"
 "http://www.w3.org/Graphics/SVG/1.1/DTD/svg11.dtd">
<!-- Generated by graphviz version 2.40.1 (20161225.0304)
 -->
<!-- Title: IntField.cpp Pages: 1 -->
<!--zoomable 252 -->
<svg id="main" version="1.1" xmlns="http://www.w3.org/2000/svg" xmlns:xlink="http://www.w3.org/1999/xlink" xml:space="preserve" onload="init(evt)">
<style type="text/css"><![CDATA[
.edge:hover path { stroke: red; }
.edge:hover polygon { stroke: red; fill: red; }
]]></style>
<script type="text/javascript"><![CDATA[
var edges = document.getElementsByTagName('g');
if (edges && edges.length) {
  for (var i=0;i<edges.length;i++) {
    if (edges[i].id.substr(0,4)=='edge') {
      edges[i].setAttribute('class','edge');
    }
  }
}
]]></script>
        <defs>
                <circle id="rim" cx="0" cy="0" r="7"/>
                <circle id="rim2" cx="0" cy="0" r="3.5"/>
                <g id="zoomPlus">
                        <use xlink:href="#rim" fill="#404040">
                                <set attributeName="fill" to="#808080" begin="zoomplus.mouseover" end="zoomplus.mouseout"/>
                        </use>
                        <path d="M-4,0h8M0,-4v8" fill="none" stroke="white" stroke-width="1.5" pointer-events="none"/>
                </g>
                <g id="zoomMin">
                        <use xlink:href="#rim" fill="#404040">
                                <set attributeName="fill" to="#808080" begin="zoomminus.mouseover" end="zoomminus.mouseout"/>
                        </use>
                        <path d="M-4,0h8" fill="none" stroke="white" stroke-width="1.5" pointer-events="none"/>
                </g>
                <g id="dirArrow">
                        <path fill="none" stroke="white" stroke-width="1.5" d="M0,-3.0v7 M-2.5,-0.5L0,-3.0L2.5,-0.5"/>
                </g>
               <g id="resetDef">
                       <use xlink:href="#rim2" fill="#404040">
                               <set attributeName="fill" to="#808080" begin="reset.mouseover" end="reset.mouseout"/>
                       </use>
               </g>
        </defs>

<script type="text/javascript">
var viewWidth = 1587;
var viewHeight = 252;
var sectionId = 'dynsection-0';
</script>
<script xlink:href="svgpan.js"/>
<svg id="graph" class="graph">
<g id="viewport">
<title>IntField.cpp</title>
<polygon fill="#ffffff" stroke="transparent" points="-4,4 -4,-248 1582.6185,-248 1582.6185,4 -4,4"/>
<!-- Node0 -->
<g id="node1" class="node">
<title>Node0</title>
<polygon fill="#bfbfbf" stroke="#000000" points="139.1185,-224.5 139.1185,-243.5 207.1185,-243.5 207.1185,-224.5 139.1185,-224.5"/>
<text text-anchor="middle" x="173.1185" y="-231.5" font-family="Helvetica,sans-Serif" font-size="10.00" fill="#000000">IntField.cpp</text>
</g>
<!-- Node1 -->
<g id="node2" class="node">
<title>Node1</title>
<g id="a_node2"><a xlink:href="_int_field_8_h.html" target="_top" xlink:title="amr&#45;wind/core/IntField.H">
<polygon fill="#ffffff" stroke="#000000" points="12.1185,-112.5 12.1185,-131.5 136.1185,-131.5 136.1185,-112.5 12.1185,-112.5"/>
<text text-anchor="middle" x="74.1185" y="-119.5" font-family="Helvetica,sans-Serif" font-size="10.00" fill="#000000">amr&#45;wind/core/IntField.H</text>
</a>
</g>
</g>
<!-- Node0&#45;&gt;Node1 -->
<g id="edge1" class="edge">
<title>Node0&#45;&gt;Node1</title>
<path fill="none" stroke="#191970" d="M164.6778,-224.4509C147.9466,-205.5227 110.372,-163.014 89.2584,-139.1279"/>
<polygon fill="#191970" stroke="#191970" points="91.7831,-136.6994 82.5378,-131.5249 86.5383,-141.3354 91.7831,-136.6994"/>
</g>
<!-- Node5 -->
<g id="node6" class="node">
<title>Node5</title>
<g id="a_node6"><a xlink:href="_field_repo_8_h.html" target="_top" xlink:title="amr&#45;wind/core/FieldRepo.H">
<polygon fill="#ffffff" stroke="#000000" points="204.1185,-168.5 204.1185,-187.5 340.1185,-187.5 340.1185,-168.5 204.1185,-168.5"/>
<text text-anchor="middle" x="272.1185" y="-175.5" font-family="Helvetica,sans-Serif" font-size="10.00" fill="#000000">amr&#45;wind/core/FieldRepo.H</text>
</a>
</g>
</g>
<!-- Node0&#45;&gt;Node5 -->
<g id="edge5" class="edge">
<title>Node0&#45;&gt;Node5</title>
<path fill="none" stroke="#191970" d="M190.363,-224.2455C205.6946,-215.5731 228.3384,-202.7645 245.9101,-192.825"/>
<polygon fill="#191970" stroke="#191970" points="248.0909,-195.6126 255.0716,-187.6427 244.6444,-189.5198 248.0909,-195.6126"/>
</g>
<!-- Node2 -->
<g id="node3" class="node">
<title>Node2</title>
<polygon fill="#ffffff" stroke="#bfbfbf" points="321.6185,-.5 321.6185,-19.5 362.6185,-19.5 362.6185,-.5 321.6185,-.5"/>
<text text-anchor="middle" x="342.1185" y="-7.5" font-family="Helvetica,sans-Serif" font-size="10.00" fill="#000000">string</text>
</g>
<!-- Node1&#45;&gt;Node2 -->
<g id="edge2" class="edge">
<title>Node1&#45;&gt;Node2</title>
<path fill="none" stroke="#191970" d="M57.6703,-112.2962C37.4014,-99.1502 7.5586,-75.1278 24.1185,-56 42.7803,-34.4445 234.4506,-17.98 310.893,-12.2227"/>
<polygon fill="#191970" stroke="#191970" points="311.5869,-15.681 321.301,-11.4517 311.0697,-8.7001 311.5869,-15.681"/>
</g>
<!-- Node3 -->
<g id="node4" class="node">
<title>Node3</title>
<g id="a_node4"><a xlink:href="_field_desc_types_8_h.html" target="_top" xlink:title="amr&#45;wind/core/FieldDescTypes.H">
<polygon fill="#ffffff" stroke="#000000" points="877.6185,-.5 877.6185,-19.5 1040.6185,-19.5 1040.6185,-.5 877.6185,-.5"/>
<text text-anchor="middle" x="959.1185" y="-7.5" font-family="Helvetica,sans-Serif" font-size="10.00" fill="#000000">amr&#45;wind/core/FieldDescTypes.H</text>
</a>
</g>
</g>
<!-- Node1&#45;&gt;Node3 -->
<g id="edge3" class="edge">
<title>Node1&#45;&gt;Node3</title>
<path fill="none" stroke="#191970" d="M66.634,-112.0852C56.8118,-97.7962 42.4469,-71.4389 57.1185,-56 84.7107,-26.9648 643.0477,-14.9725 867.1828,-11.3158"/>
<polygon fill="#191970" stroke="#191970" points="867.335,-14.8139 877.2773,-11.1531 867.2221,-7.8148 867.335,-14.8139"/>
</g>
<!-- Node4 -->
<g id="node5" class="node">
<title>Node4</title>
<polygon fill="#ffffff" stroke="#bfbfbf" points="66.6185,-56.5 66.6185,-75.5 173.6185,-75.5 173.6185,-56.5 66.6185,-56.5"/>
<text text-anchor="middle" x="120.1185" y="-63.5" font-family="Helvetica,sans-Serif" font-size="10.00" fill="#000000">AMReX_iMultiFab.H</text>
</g>
<!-- Node1&#45;&gt;Node4 -->
<g id="edge4" class="edge">
<title>Node1&#45;&gt;Node4</title>
<path fill="none" stroke="#191970" d="M82.1311,-112.2455C88.5953,-104.3761 97.857,-93.101 105.6169,-83.6542"/>
<polygon fill="#191970" stroke="#191970" points="108.5549,-85.5916 112.1978,-75.6427 103.1458,-81.1484 108.5549,-85.5916"/>
</g>
<!-- Node5&#45;&gt;Node1 -->
<g id="edge28" class="edge">
<title>Node5&#45;&gt;Node1</title>
<path fill="none" stroke="#191970" d="M238.0811,-168.3733C204.7291,-158.9404 153.7658,-144.5265 117.5183,-134.2747"/>
<polygon fill="#191970" stroke="#191970" points="118.2869,-130.8548 107.7118,-131.5011 116.3818,-137.5906 118.2869,-130.8548"/>
</g>
<!-- Node5&#45;&gt;Node2 -->
<g id="edge6" class="edge">
<title>Node5&#45;&gt;Node2</title>
<path fill="none" stroke="#191970" d="M203.8334,-170.8986C128.4546,-162.3575 15.9871,-147.2559 3.1185,-132 -2.6127,-125.2055 2.1069,-120.8311 3.1185,-112 6.0263,-86.6153 -2.7251,-73.2556 16.1185,-56 37.7584,-36.1838 234.4283,-18.5614 311.4164,-12.363"/>
<polygon fill="#191970" stroke="#191970" points="311.7635,-15.8466 321.4547,-11.5652 311.2088,-8.8686 311.7635,-15.8466"/>
</g>
<!-- Node5&#45;&gt;Node3 -->
<g id="edge8" class="edge">
<title>Node5&#45;&gt;Node3</title>
<path fill="none" stroke="#191970" d="M261.6925,-168.1825C238.9817,-145.6588 189.5216,-89.6277 221.1185,-56 242.9244,-32.7927 674.404,-17.9232 867.3018,-12.4105"/>
<polygon fill="#191970" stroke="#191970" points="867.5266,-15.9056 877.4233,-12.1236 867.3282,-8.9084 867.5266,-15.9056"/>
</g>
<!-- Node5&#45;&gt;Node4 -->
<g id="edge38" class="edge">
<title>Node5&#45;&gt;Node4</title>
<path fill="none" stroke="#191970" d="M251.1617,-168.4882C233.5762,-160.0565 208.1862,-146.8089 188.1185,-132 168.4213,-117.4644 148.6486,-97.5288 135.5427,-83.3813"/>
<polygon fill="#191970" stroke="#191970" points="137.9668,-80.8448 128.6475,-75.8048 132.7898,-85.5564 137.9668,-80.8448"/>
</g>
<!-- Node6 -->
<g id="node7" class="node">
<title>Node6</title>
<polygon fill="#ffffff" stroke="#bfbfbf" points="230.6185,-56.5 230.6185,-75.5 313.6185,-75.5 313.6185,-56.5 230.6185,-56.5"/>
<text text-anchor="middle" x="272.1185" y="-63.5" font-family="Helvetica,sans-Serif" font-size="10.00" fill="#000000">unordered_map</text>
</g>
<!-- Node5&#45;&gt;Node6 -->
<g id="edge7" class="edge">
<title>Node5&#45;&gt;Node6</title>
<path fill="none" stroke="#191970" d="M272.1185,-168.4509C272.1185,-150.184 272.1185,-109.9553 272.1185,-85.6976"/>
<polygon fill="#191970" stroke="#191970" points="275.6186,-85.5249 272.1185,-75.5249 268.6186,-85.5249 275.6186,-85.5249"/>
</g>
<!-- Node7 -->
<g id="node8" class="node">
<title>Node7</title>
<g id="a_node8"><a xlink:href="_field_utils_8_h.html" target="_top" xlink:title="amr&#45;wind/core/FieldUtils.H">
<polygon fill="#ffffff" stroke="#000000" points="1445.6185,-56.5 1445.6185,-75.5 1578.6185,-75.5 1578.6185,-56.5 1445.6185,-56.5"/>
<text text-anchor="middle" x="1512.1185" y="-63.5" font-family="Helvetica,sans-Serif" font-size="10.00" fill="#000000">amr&#45;wind/core/FieldUtils.H</text>
</a>
</g>
</g>
<!-- Node5&#45;&gt;Node7 -->
<g id="edge9" class="edge">
<title>Node5&#45;&gt;Node7</title>
<path fill="none" stroke="#191970" d="M340.3097,-177.8019C573.3526,-176.7799 1329.3534,-170.501 1431.1185,-132 1457.7022,-121.9425 1482.0883,-99.4718 1497.0082,-83.5509"/>
<polygon fill="#191970" stroke="#191970" points="1499.7958,-85.6866 1503.909,-75.9228 1494.6047,-80.9905 1499.7958,-85.6866"/>
</g>
<!-- Node8 -->
<g id="node9" class="node">
<title>Node8</title>
<polygon fill="#ffffff" stroke="#bfbfbf" points="1327.1185,-.5 1327.1185,-19.5 1431.1185,-19.5 1431.1185,-.5 1327.1185,-.5"/>
<text text-anchor="middle" x="1379.1185" y="-7.5" font-family="Helvetica,sans-Serif" font-size="10.00" fill="#000000">AMReX_MultiFab.H</text>
</g>
<!-- Node5&#45;&gt;Node8 -->
<g id="edge37" class="edge">
<title>Node5&#45;&gt;Node8</title>
<path fill="none" stroke="#191970" d="M340.3283,-177.0558C554.6871,-173.7944 1205.9031,-161.5411 1296.1185,-132 1338.7597,-118.0371 1358.9467,-115.5599 1380.1185,-76 1387.7133,-61.8091 1386.6734,-43.323 1384.1874,-29.5263"/>
<polygon fill="#191970" stroke="#191970" points="1387.5803,-28.658 1382.0211,-19.6388 1380.7425,-30.1562 1387.5803,-28.658"/>
</g>
<!-- Node10 -->
<g id="node11" class="node">
<title>Node10</title>
<g id="a_node11"><a xlink:href="_field_8_h.html" target="_top" xlink:title="amr&#45;wind/core/Field.H">
<polygon fill="#ffffff" stroke="#000000" points="598.6185,-112.5 598.6185,-131.5 711.6185,-131.5 711.6185,-112.5 598.6185,-112.5"/>
<text text-anchor="middle" x="655.1185" y="-119.5" font-family="Helvetica,sans-Serif" font-size="10.00" fill="#000000">amr&#45;wind/core/Field.H</text>
</a>
</g>
</g>
<!-- Node5&#45;&gt;Node10 -->
<g id="edge13" class="edge">
<title>Node5&#45;&gt;Node10</title>
<path fill="none" stroke="#191970" d="M337.5234,-168.4369C407.4724,-158.2094 517.8271,-142.0739 588.3108,-131.7682"/>
<polygon fill="#191970" stroke="#191970" points="589.0228,-135.2014 598.4112,-130.2914 588.01,-128.2751 589.0228,-135.2014"/>
</g>
<!-- Node18 -->
<g id="node19" class="node">
<title>Node18</title>
<g id="a_node19"><a xlink:href="_scratch_field_8_h.html" target="_top" xlink:title="amr&#45;wind/core/ScratchField.H">
<polygon fill="#ffffff" stroke="#000000" points="1017.1185,-112.5 1017.1185,-131.5 1163.1185,-131.5 1163.1185,-112.5 1017.1185,-112.5"/>
<text text-anchor="middle" x="1090.1185" y="-119.5" font-family="Helvetica,sans-Serif" font-size="10.00" fill="#000000">amr&#45;wind/core/ScratchField.H</text>
</a>
</g>
</g>
<!-- Node5&#45;&gt;Node18 -->
<g id="edge29" class="edge">
<title>Node5&#45;&gt;Node18</title>
<path fill="none" stroke="#191970" d="M340.4538,-173.3218C489.7128,-163.1036 844.4403,-138.819 1006.6161,-127.7165"/>
<polygon fill="#191970" stroke="#191970" points="1007.2781,-131.1795 1017.0157,-127.0046 1006.8,-124.1959 1007.2781,-131.1795"/>
</g>
<!-- Node20 -->
<g id="node21" class="node">
<title>Node20</title>
<polygon fill="#ffffff" stroke="#bfbfbf" points="1181.1185,-112.5 1181.1185,-131.5 1287.1185,-131.5 1287.1185,-112.5 1181.1185,-112.5"/>
<text text-anchor="middle" x="1234.1185" y="-119.5" font-family="Helvetica,sans-Serif" font-size="10.00" fill="#000000">AMReX_AmrCore.H</text>
</g>
<!-- Node5&#45;&gt;Node20 -->
<g id="edge36" class="edge">
<title>Node5&#45;&gt;Node20</title>
<path fill="none" stroke="#191970" d="M340.3398,-177.0447C489.2575,-174.4112 854.7374,-164.968 1170.7914,-132.0271"/>
<polygon fill="#191970" stroke="#191970" points="1171.4907,-135.4729 1181.0695,-130.9457 1170.7582,-128.5114 1171.4907,-135.4729"/>
</g>
<!-- Node7&#45;&gt;Node3 -->
<g id="edge10" class="edge">
<title>Node7&#45;&gt;Node3</title>
<path fill="none" stroke="#191970" d="M1445.4138,-59.2451C1346.9389,-49.2729 1162.3369,-30.5791 1051.0799,-19.3125"/>
<polygon fill="#191970" stroke="#191970" points="1051.1812,-15.805 1040.8794,-18.2796 1050.4759,-22.7694 1051.1812,-15.805"/>
</g>
<!-- Node7&#45;&gt;Node8 -->
<g id="edge11" class="edge">
<title>Node7&#45;&gt;Node8</title>
<path fill="none" stroke="#191970" d="M1489.255,-56.3733C1467.7136,-47.3032 1435.2348,-33.6279 1411.1229,-23.4755"/>
<polygon fill="#191970" stroke="#191970" points="1412.2583,-20.156 1401.6837,-19.5011 1409.5418,-26.6075 1412.2583,-20.156"/>
</g>
<!-- Node9 -->
<g id="node10" class="node">
<title>Node9</title>
<polygon fill="#ffffff" stroke="#bfbfbf" points="1454.1185,-.5 1454.1185,-19.5 1570.1185,-19.5 1570.1185,-.5 1454.1185,-.5"/>
<text text-anchor="middle" x="1512.1185" y="-7.5" font-family="Helvetica,sans-Serif" font-size="10.00" fill="#000000">AMReX_Interpolater.H</text>
</g>
<!-- Node7&#45;&gt;Node9 -->
<g id="edge12" class="edge">
<title>Node7&#45;&gt;Node9</title>
<path fill="none" stroke="#191970" d="M1512.1185,-56.2455C1512.1185,-48.9382 1512.1185,-38.6944 1512.1185,-29.7046"/>
<polygon fill="#191970" stroke="#191970" points="1515.6186,-29.6426 1512.1185,-19.6427 1508.6186,-29.6427 1515.6186,-29.6426"/>
</g>
<!-- Node10&#45;&gt;Node2 -->
<g id="edge14" class="edge">
<title>Node10&#45;&gt;Node2</title>
<path fill="none" stroke="#191970" d="M598.5201,-120.2178C523.185,-116.6867 395.4545,-106.2886 361.1185,-76 348.15,-64.5602 343.7775,-44.8994 342.4234,-30.004"/>
<polygon fill="#191970" stroke="#191970" points="345.905,-29.5596 341.884,-19.7575 338.9146,-29.9277 345.905,-29.5596"/>
</g>
<!-- Node10&#45;&gt;Node3 -->
<g id="edge22" class="edge">
<title>Node10&#45;&gt;Node3</title>
<path fill="none" stroke="#191970" d="M711.6382,-116.8889C756.7274,-111.2175 820.6363,-99.545 872.1185,-76 898.9863,-63.7122 925.3819,-41.9277 941.9241,-26.7617"/>
<polygon fill="#191970" stroke="#191970" points="944.7388,-28.9194 949.6268,-19.5195 939.9438,-23.8195 944.7388,-28.9194"/>
</g>
<!-- Node10&#45;&gt;Node6 -->
<g id="edge16" class="edge">
<title>Node10&#45;&gt;Node6</title>
<path fill="none" stroke="#191970" d="M598.6051,-114.6951C533.3427,-106.1098 422.8048,-91.1087 328.1185,-76 326.6556,-75.7666 325.1719,-75.5262 323.6748,-75.2804"/>
<polygon fill="#191970" stroke="#191970" points="324.1217,-71.8065 313.6794,-73.5978 322.9597,-78.7093 324.1217,-71.8065"/>
</g>
<!-- Node10&#45;&gt;Node8 -->
<g id="edge18" class="edge">
<title>Node10&#45;&gt;Node8</title>
<path fill="none" stroke="#191970" d="M711.632,-118.5089C796.4497,-112.7398 961.5092,-99.4576 1100.1185,-76 1184.2042,-61.7697 1280.7104,-37.0237 1335.3464,-22.2122"/>
<polygon fill="#191970" stroke="#191970" points="1336.3213,-25.5742 1345.0485,-19.5669 1334.48,-18.8207 1336.3213,-25.5742"/>
</g>
<!-- Node11 -->
<g id="node12" class="node">
<title>Node11</title>
<polygon fill="#ffffff" stroke="#bfbfbf" points="737.1185,-56.5 737.1185,-75.5 789.1185,-75.5 789.1185,-56.5 737.1185,-56.5"/>
<text text-anchor="middle" x="763.1185" y="-63.5" font-family="Helvetica,sans-Serif" font-size="10.00" fill="#000000">memory</text>
</g>
<!-- Node10&#45;&gt;Node11 -->
<g id="edge15" class="edge">
<title>Node10&#45;&gt;Node11</title>
<path fill="none" stroke="#191970" d="M673.9307,-112.2455C690.9658,-103.4125 716.276,-90.2887 735.5867,-80.2758"/>
<polygon fill="#191970" stroke="#191970" points="737.2555,-83.353 744.5219,-75.6427 734.0332,-77.1388 737.2555,-83.353"/>
</g>
<!-- Node12 -->
<g id="node13" class="node">
<title>Node12</title>
<polygon fill="#ffffff" stroke="#bfbfbf" points="807.1185,-56.5 807.1185,-75.5 863.1185,-75.5 863.1185,-56.5 807.1185,-56.5"/>
<text text-anchor="middle" x="835.1185" y="-63.5" font-family="Helvetica,sans-Serif" font-size="10.00" fill="#000000">algorithm</text>
</g>
<!-- Node10&#45;&gt;Node12 -->
<g id="edge17" class="edge">
<title>Node10&#45;&gt;Node12</title>
<path fill="none" stroke="#191970" d="M686.0616,-112.3733C716.8512,-102.7943 764.1509,-88.0788 797.1855,-77.8014"/>
<polygon fill="#191970" stroke="#191970" points="798.4368,-81.0776 806.9456,-74.7649 796.3573,-74.3936 798.4368,-81.0776"/>
</g>
<!-- Node13 -->
<g id="node14" class="node">
<title>Node13</title>
<polygon fill="#ffffff" stroke="#bfbfbf" points="370.6185,-56.5 370.6185,-75.5 469.6185,-75.5 469.6185,-56.5 370.6185,-56.5"/>
<text text-anchor="middle" x="420.1185" y="-63.5" font-family="Helvetica,sans-Serif" font-size="10.00" fill="#000000">AMReX_BCRec.H</text>
</g>
<!-- Node10&#45;&gt;Node13 -->
<g id="edge19" class="edge">
<title>Node10&#45;&gt;Node13</title>
<path fill="none" stroke="#191970" d="M614.9876,-112.4369C574.8537,-102.8731 513.041,-88.1432 469.8252,-77.845"/>
<polygon fill="#191970" stroke="#191970" points="470.6229,-74.4372 460.0839,-75.5237 469.0002,-81.2465 470.6229,-74.4372"/>
</g>
<!-- Node14 -->
<g id="node15" class="node">
<title>Node14</title>
<polygon fill="#ffffff" stroke="#bfbfbf" points="487.6185,-56.5 487.6185,-75.5 572.6185,-75.5 572.6185,-56.5 487.6185,-56.5"/>
<text text-anchor="middle" x="530.1185" y="-63.5" font-family="Helvetica,sans-Serif" font-size="10.00" fill="#000000">AMReX_Gpu.H</text>
</g>
<!-- Node10&#45;&gt;Node14 -->
<g id="edge20" class="edge">
<title>Node10&#45;&gt;Node14</title>
<path fill="none" stroke="#191970" d="M633.6303,-112.3733C613.4745,-103.3435 583.1305,-89.7494 560.5005,-79.6111"/>
<polygon fill="#191970" stroke="#191970" points="561.8834,-76.3955 551.3264,-75.5011 559.0214,-82.7838 561.8834,-76.3955"/>
</g>
<!-- Node15 -->
<g id="node16" class="node">
<title>Node15</title>
<g id="a_node16"><a xlink:href="incflo__enums_8_h.html" target="_top" xlink:title="amr&#45;wind/incflo_enums.H">
<polygon fill="#ffffff" stroke="#000000" points="591.1185,-56.5 591.1185,-75.5 719.1185,-75.5 719.1185,-56.5 591.1185,-56.5"/>
<text text-anchor="middle" x="655.1185" y="-63.5" font-family="Helvetica,sans-Serif" font-size="10.00" fill="#000000">amr&#45;wind/incflo_enums.H</text>
</a>
</g>
</g>
<!-- Node10&#45;&gt;Node15 -->
<g id="edge21" class="edge">
<title>Node10&#45;&gt;Node15</title>
<path fill="none" stroke="#191970" d="M655.1185,-112.2455C655.1185,-104.9382 655.1185,-94.6944 655.1185,-85.7046"/>
<polygon fill="#191970" stroke="#191970" points="658.6186,-85.6426 655.1185,-75.6427 651.6186,-85.6427 658.6186,-85.6426"/>
</g>
<!-- Node16 -->
<g id="node17" class="node">
<title>Node16</title>
<g id="a_node17"><a xlink:href="_view_field_8_h.html" target="_top" xlink:title="amr&#45;wind/core/ViewField.H">
<polygon fill="#ffffff" stroke="#000000" points="957.1185,-56.5 957.1185,-75.5 1091.1185,-75.5 1091.1185,-56.5 957.1185,-56.5"/>
<text text-anchor="middle" x="1024.1185" y="-63.5" font-family="Helvetica,sans-Serif" font-size="10.00" fill="#000000">amr&#45;wind/core/ViewField.H</text>
</a>
</g>
</g>
<!-- Node10&#45;&gt;Node16 -->
<g id="edge23" class="edge">
<title>Node10&#45;&gt;Node16</title>
<path fill="none" stroke="#191970" d="M711.9661,-113.3727C776.2271,-103.6204 881.0118,-87.7181 951.2347,-77.061"/>
<polygon fill="#191970" stroke="#191970" points="951.9741,-80.4889 961.3357,-75.528 950.9238,-73.5681 951.9741,-80.4889"/>
</g>
<!-- Node16&#45;&gt;Node2 -->
<g id="edge24" class="edge">
<title>Node16&#45;&gt;Node2</title>
<path fill="none" stroke="#191970" d="M957.0943,-60.3404C940.1362,-58.9159 921.9578,-57.3955 905.1185,-56 701.9693,-39.1652 457.5478,-19.3422 372.8059,-12.4822"/>
<polygon fill="#191970" stroke="#191970" points="373.0745,-8.9926 362.8247,-11.6744 372.5097,-15.9698 373.0745,-8.9926"/>
</g>
<!-- Node16&#45;&gt;Node3 -->
<g id="edge25" class="edge">
<title>Node16&#45;&gt;Node3</title>
<path fill="none" stroke="#191970" d="M1012.7964,-56.2455C1003.1962,-47.9746 989.2293,-35.9416 977.949,-26.2232"/>
<polygon fill="#191970" stroke="#191970" points="980.1715,-23.5182 970.3109,-19.6427 975.6025,-28.8214 980.1715,-23.5182"/>
</g>
<!-- Node16&#45;&gt;Node8 -->
<g id="edge26" class="edge">
<title>Node16&#45;&gt;Node8</title>
<path fill="none" stroke="#191970" d="M1084.7418,-56.4369C1149.4054,-46.2364 1251.3225,-30.1594 1316.675,-19.8502"/>
<polygon fill="#191970" stroke="#191970" points="1317.506,-23.2625 1326.8384,-18.247 1316.4152,-16.348 1317.506,-23.2625"/>
</g>
<!-- Node17 -->
<g id="node18" class="node">
<title>Node17</title>
<polygon fill="#ffffff" stroke="#bfbfbf" points="1088.6185,-.5 1088.6185,-19.5 1183.6185,-19.5 1183.6185,-.5 1088.6185,-.5"/>
<text text-anchor="middle" x="1136.1185" y="-7.5" font-family="Helvetica,sans-Serif" font-size="10.00" fill="#000000">AMReX_Vector.H</text>
</g>
<!-- Node16&#45;&gt;Node17 -->
<g id="edge27" class="edge">
<title>Node16&#45;&gt;Node17</title>
<path fill="none" stroke="#191970" d="M1043.372,-56.3733C1061.1897,-47.4644 1087.8932,-34.1127 1108.0779,-24.0203"/>
<polygon fill="#191970" stroke="#191970" points="1109.7373,-27.1038 1117.1163,-19.5011 1106.6067,-20.8428 1109.7373,-27.1038"/>
</g>
<!-- Node18&#45;&gt;Node2 -->
<g id="edge30" class="edge">
<title>Node18&#45;&gt;Node2</title>
<path fill="none" stroke="#191970" d="M1061.0781,-112.3876C1010.6853,-95.8461 908.91,-63.0863 872.1185,-56 684.8563,-19.9318 454.8846,-12.1212 372.9205,-10.449"/>
<polygon fill="#191970" stroke="#191970" points="372.8567,-6.9473 362.7928,-10.2589 372.7253,-13.946 372.8567,-6.9473"/>
</g>
<!-- Node18&#45;&gt;Node3 -->
<g id="edge31" class="edge">
<title>Node18&#45;&gt;Node3</title>
<path fill="none" stroke="#191970" d="M1095.4786,-112.4672C1102.4489,-98.6541 1112.3699,-72.8837 1100.1185,-56 1089.9678,-42.0111 1051.6879,-30.0439 1017.5727,-21.8249"/>
<polygon fill="#191970" stroke="#191970" points="1018.1565,-18.3671 1007.6227,-19.5022 1016.5652,-25.1839 1018.1565,-18.3671"/>
</g>
<!-- Node18&#45;&gt;Node8 -->
<g id="edge33" class="edge">
<title>Node18&#45;&gt;Node8</title>
<path fill="none" stroke="#191970" d="M1156.4659,-112.4942C1233.9275,-101.1303 1352.5199,-82.795 1360.1185,-76 1373.0092,-64.4726 1377.3922,-44.8234 1378.7698,-29.9547"/>
<polygon fill="#191970" stroke="#191970" points="1382.2776,-29.9061 1379.3286,-19.7299 1375.288,-29.524 1382.2776,-29.9061"/>
</g>
<!-- Node18&#45;&gt;Node16 -->
<g id="edge32" class="edge">
<title>Node18&#45;&gt;Node16</title>
<path fill="none" stroke="#191970" d="M1078.6222,-112.2455C1068.8743,-103.9746 1054.6926,-91.9416 1043.2387,-82.2232"/>
<polygon fill="#191970" stroke="#191970" points="1045.3726,-79.4437 1035.4831,-75.6427 1040.8438,-84.7813 1045.3726,-79.4437"/>
</g>
<!-- Node18&#45;&gt;Node17 -->
<g id="edge34" class="edge">
<title>Node18&#45;&gt;Node17</title>
<path fill="none" stroke="#191970" d="M1122.8082,-112.4174C1140.4548,-105.3899 1160.7048,-93.8899 1171.1185,-76 1180.7182,-59.5087 1167.7238,-40.1737 1154.9346,-26.7105"/>
<polygon fill="#191970" stroke="#191970" points="1157.194,-24.0243 1147.6006,-19.528 1152.2961,-29.0255 1157.194,-24.0243"/>
</g>
<!-- Node19 -->
<g id="node20" class="node">
<title>Node19</title>
<polygon fill="#ffffff" stroke="#bfbfbf" points="1223.1185,-56.5 1223.1185,-75.5 1351.1185,-75.5 1351.1185,-56.5 1223.1185,-56.5"/>
<text text-anchor="middle" x="1287.1185" y="-63.5" font-family="Helvetica,sans-Serif" font-size="10.00" fill="#000000">AMReX_PhysBCFunct.H</text>
</g>
<!-- Node18&#45;&gt;Node19 -->
<g id="edge35" class="edge">
<title>Node18&#45;&gt;Node19</title>
<path fill="none" stroke="#191970" d="M1123.984,-112.3733C1157.1676,-102.9404 1207.8735,-88.5265 1243.9379,-78.2747"/>
<polygon fill="#191970" stroke="#191970" points="1245.033,-81.6021 1253.6949,-75.5011 1243.119,-74.8689 1245.033,-81.6021"/>
</g>
</g>
</svg>
        <g id="navigator" transform="translate(0 0)" fill="#404254">
                <rect fill="#f2f5e9" fill-opacity="0.5" stroke="#606060" stroke-width=".5" x="0" y="0" width="60" height="60"/>
                <use id="zoomplus" xlink:href="#zoomPlus" x="17" y="9" onmousedown="handleZoom(evt,'in')"/>
                <use id="zoomminus" xlink:href="#zoomMin" x="42" y="9" onmousedown="handleZoom(evt,'out')"/>
                <use id="reset" xlink:href="#resetDef" x="30" y="36" onmousedown="handleReset()"/>
                <g id="arrowUp" xlink:href="#dirArrow" transform="translate(30 24)" onmousedown="handlePan(0,-1)">
                  <use xlink:href="#rim" fill="#404040">
                        <set attributeName="fill" to="#808080" begin="arrowUp.mouseover" end="arrowUp.mouseout"/>
                  </use>
                  <path fill="none" stroke="white" stroke-width="1.5" d="M0,-3.0v7 M-2.5,-0.5L0,-3.0L2.5,-0.5"/>
                </g>
                <g id="arrowRight" xlink:href="#dirArrow" transform="rotate(90) translate(36 -43)" onmousedown="handlePan(1,0)">
                  <use xlink:href="#rim" fill="#404040">
                        <set attributeName="fill" to="#808080" begin="arrowRight.mouseover" end="arrowRight.mouseout"/>
                  </use>
                  <path fill="none" stroke="white" stroke-width="1.5" d="M0,-3.0v7 M-2.5,-0.5L0,-3.0L2.5,-0.5"/>
                </g>
                <g id="arrowDown" xlink:href="#dirArrow" transform="rotate(180) translate(-30 -48)" onmousedown="handlePan(0,1)">
                  <use xlink:href="#rim" fill="#404040">
                        <set attributeName="fill" to="#808080" begin="arrowDown.mouseover" end="arrowDown.mouseout"/>
                  </use>
                  <path fill="none" stroke="white" stroke-width="1.5" d="M0,-3.0v7 M-2.5,-0.5L0,-3.0L2.5,-0.5"/>
                </g>
                <g id="arrowLeft" xlink:href="#dirArrow" transform="rotate(270) translate(-36 17)" onmousedown="handlePan(-1,0)">
                  <use xlink:href="#rim" fill="#404040">
                        <set attributeName="fill" to="#808080" begin="arrowLeft.mouseover" end="arrowLeft.mouseout"/>
                  </use>
                  <path fill="none" stroke="white" stroke-width="1.5" d="M0,-3.0v7 M-2.5,-0.5L0,-3.0L2.5,-0.5"/>
                </g>
        </g>
        <svg viewBox="0 0 15 15" width="100%" height="30px" preserveAspectRatio="xMaxYMin meet">
         <g id="arrow_out" transform="scale(0.3 0.3)">
          <a xlink:href="_int_field_8cpp__incl_org.svg" target="_base">
           <rect id="button" ry="5" rx="5" y="6" x="6" height="38" width="38"
                fill="#f2f5e9" fill-opacity="0.5" stroke="#606060" stroke-width="1.0"/>
           <path id="arrow"
             d="M 11.500037,31.436501 C 11.940474,20.09759 22.043105,11.32322 32.158766,21.979434 L 37.068811,17.246167 C 37.068811,17.246167 37.088388,32 37.088388,32 L 22.160133,31.978069 C 22.160133,31.978069 26.997745,27.140456 26.997745,27.140456 C 18.528582,18.264221 13.291696,25.230495 11.500037,31.436501 z"
             style="fill:#404040;"/>
          </a>
         </g>
        </svg>
</svg>
