<?xml version="1.0" encoding="UTF-8" standalone="no"?>
<!DOCTYPE svg PUBLIC "-//W3C//DTD SVG 1.1//EN"
 "http://www.w3.org/Graphics/SVG/1.1/DTD/svg11.dtd">
<!-- Generated by graphviz version 2.40.1 (20161225.0304)
 -->
<!-- Title: LaminarModel.H Pages: 1 -->
<svg width="2749pt" height="397pt"
 viewBox="0.00 0.00 2748.50 397.00" xmlns="http://www.w3.org/2000/svg" xmlns:xlink="http://www.w3.org/1999/xlink">
<g id="graph0" class="graph" transform="scale(1 1) rotate(0) translate(4 393)">
<title>LaminarModel.H</title>
<polygon fill="#ffffff" stroke="transparent" points="-4,4 -4,-393 2744.5,-393 2744.5,4 -4,4"/>
<!-- Node0 -->
<g id="node1" class="node">
<title>Node0</title>
<polygon fill="#bfbfbf" stroke="#000000" points="2063.5,-369.5 2063.5,-388.5 2151.5,-388.5 2151.5,-369.5 2063.5,-369.5"/>
<text text-anchor="middle" x="2107.5" y="-376.5" font-family="Helvetica,sans-Serif" font-size="10.00" fill="#000000">LaminarModel.H</text>
</g>
<!-- Node1 -->
<g id="node2" class="node">
<title>Node1</title>
<g id="a_node2"><a xlink:href="_turb_model_8_h.html" target="_top" xlink:title="amr&#45;wind/turbulence\l/TurbModel.H">
<polygon fill="#ffffff" stroke="#000000" points="2055.5,-302.5 2055.5,-332.5 2159.5,-332.5 2159.5,-302.5 2055.5,-302.5"/>
<text text-anchor="start" x="2063.5" y="-320.5" font-family="Helvetica,sans-Serif" font-size="10.00" fill="#000000">amr&#45;wind/turbulence</text>
<text text-anchor="middle" x="2107.5" y="-309.5" font-family="Helvetica,sans-Serif" font-size="10.00" fill="#000000">/TurbModel.H</text>
</a>
</g>
</g>
<!-- Node0&#45;&gt;Node1 -->
<g id="edge1" class="edge">
<title>Node0&#45;&gt;Node1</title>
<path fill="none" stroke="#191970" d="M2107.5,-369.3906C2107.5,-362.2234 2107.5,-352.0862 2107.5,-342.671"/>
<polygon fill="#191970" stroke="#191970" points="2111.0001,-342.5446 2107.5,-332.5446 2104.0001,-342.5446 2111.0001,-342.5446"/>
</g>
<!-- Node2 -->
<g id="node3" class="node">
<title>Node2</title>
<g id="a_node3"><a xlink:href="_turbulence_model_8_h.html" target="_top" xlink:title="amr&#45;wind/turbulence\l/TurbulenceModel.H">
<polygon fill="#ffffff" stroke="#000000" points="2454.5,-123.5 2454.5,-153.5 2558.5,-153.5 2558.5,-123.5 2454.5,-123.5"/>
<text text-anchor="start" x="2462.5" y="-141.5" font-family="Helvetica,sans-Serif" font-size="10.00" fill="#000000">amr&#45;wind/turbulence</text>
<text text-anchor="middle" x="2506.5" y="-130.5" font-family="Helvetica,sans-Serif" font-size="10.00" fill="#000000">/TurbulenceModel.H</text>
</a>
</g>
</g>
<!-- Node1&#45;&gt;Node2 -->
<g id="edge2" class="edge">
<title>Node1&#45;&gt;Node2</title>
<path fill="none" stroke="#191970" d="M2141.1746,-302.3928C2213.5708,-269.9143 2383.9228,-193.4908 2463.779,-157.6656"/>
<polygon fill="#191970" stroke="#191970" points="2465.365,-160.7902 2473.0562,-153.5036 2462.4997,-154.4035 2465.365,-160.7902"/>
</g>
<!-- Node10 -->
<g id="node11" class="node">
<title>Node10</title>
<g id="a_node11"><a xlink:href="_c_f_d_sim_8_h.html" target="_top" xlink:title="amr&#45;wind/CFDSim.H">
<polygon fill="#ffffff" stroke="#000000" points="2012.5,-246.5 2012.5,-265.5 2120.5,-265.5 2120.5,-246.5 2012.5,-246.5"/>
<text text-anchor="middle" x="2066.5" y="-253.5" font-family="Helvetica,sans-Serif" font-size="10.00" fill="#000000">amr&#45;wind/CFDSim.H</text>
</a>
</g>
</g>
<!-- Node1&#45;&gt;Node10 -->
<g id="edge11" class="edge">
<title>Node1&#45;&gt;Node10</title>
<path fill="none" stroke="#191970" d="M2097.3652,-302.2977C2091.7332,-293.8498 2084.6849,-283.2773 2078.746,-274.369"/>
<polygon fill="#191970" stroke="#191970" points="2081.5238,-272.226 2073.0646,-265.8469 2075.6995,-276.1089 2081.5238,-272.226"/>
</g>
<!-- Node3 -->
<g id="node4" class="node">
<title>Node3</title>
<polygon fill="#ffffff" stroke="#bfbfbf" points="2184,-.5 2184,-19.5 2267,-19.5 2267,-.5 2184,-.5"/>
<text text-anchor="middle" x="2225.5" y="-7.5" font-family="Helvetica,sans-Serif" font-size="10.00" fill="#000000">unordered_map</text>
</g>
<!-- Node2&#45;&gt;Node3 -->
<g id="edge3" class="edge">
<title>Node2&#45;&gt;Node3</title>
<path fill="none" stroke="#191970" d="M2510.6624,-123.2671C2514.6737,-104.8829 2517.9786,-74.1804 2501.5,-56 2469.2873,-20.4606 2340.9406,-27.9102 2277.2367,-19.8121"/>
<polygon fill="#191970" stroke="#191970" points="2277.636,-16.3328 2267.2263,-18.3049 2276.5937,-23.2548 2277.636,-16.3328"/>
</g>
<!-- Node4 -->
<g id="node5" class="node">
<title>Node4</title>
<g id="a_node5"><a xlink:href="_factory_8_h.html" target="_top" xlink:title="amr&#45;wind/core/Factory.H">
<polygon fill="#ffffff" stroke="#000000" points="2554,-62 2554,-81 2679,-81 2679,-62 2554,-62"/>
<text text-anchor="middle" x="2616.5" y="-69" font-family="Helvetica,sans-Serif" font-size="10.00" fill="#000000">amr&#45;wind/core/Factory.H</text>
</a>
</g>
</g>
<!-- Node2&#45;&gt;Node4 -->
<g id="edge4" class="edge">
<title>Node2&#45;&gt;Node4</title>
<path fill="none" stroke="#191970" d="M2531.1861,-123.4639C2549.3102,-112.4247 2573.8209,-97.4954 2591.92,-86.4715"/>
<polygon fill="#191970" stroke="#191970" points="2594.0126,-89.2951 2600.7324,-81.1039 2590.3712,-83.3167 2594.0126,-89.2951"/>
</g>
<!-- Node9 -->
<g id="node10" class="node">
<title>Node9</title>
<g id="a_node10"><a xlink:href="_field_desc_types_8_h.html" target="_top" xlink:title="amr&#45;wind/core/FieldDescTypes.H">
<polygon fill="#ffffff" stroke="#000000" points="766,-.5 766,-19.5 929,-19.5 929,-.5 766,-.5"/>
<text text-anchor="middle" x="847.5" y="-7.5" font-family="Helvetica,sans-Serif" font-size="10.00" fill="#000000">amr&#45;wind/core/FieldDescTypes.H</text>
</a>
</g>
</g>
<!-- Node2&#45;&gt;Node9 -->
<g id="edge10" class="edge">
<title>Node2&#45;&gt;Node9</title>
<path fill="none" stroke="#191970" d="M2504.358,-123.1692C2500.7422,-103.7705 2491.4262,-71.0751 2468.5,-56 2399.3613,-10.5378 1062.1434,-24.1267 979.5,-20 966.5132,-19.3515 952.8193,-18.5012 939.3652,-17.57"/>
<polygon fill="#191970" stroke="#191970" points="939.3619,-14.0611 929.1391,-16.8441 938.8662,-21.0435 939.3619,-14.0611"/>
</g>
<!-- Node4&#45;&gt;Node3 -->
<g id="edge6" class="edge">
<title>Node4&#45;&gt;Node3</title>
<path fill="none" stroke="#191970" d="M2571.3931,-61.9284C2560.9445,-59.848 2549.8532,-57.7489 2539.5,-56 2426.3501,-36.8867 2394.6006,-39.2108 2277.3114,-20.0499"/>
<polygon fill="#191970" stroke="#191970" points="2277.6497,-16.5585 2267.213,-18.3821 2276.509,-23.4649 2277.6497,-16.5585"/>
</g>
<!-- Node5 -->
<g id="node6" class="node">
<title>Node5</title>
<polygon fill="#ffffff" stroke="#bfbfbf" points="2285.5,-.5 2285.5,-19.5 2337.5,-19.5 2337.5,-.5 2285.5,-.5"/>
<text text-anchor="middle" x="2311.5" y="-7.5" font-family="Helvetica,sans-Serif" font-size="10.00" fill="#000000">memory</text>
</g>
<!-- Node4&#45;&gt;Node5 -->
<g id="edge5" class="edge">
<title>Node4&#45;&gt;Node5</title>
<path fill="none" stroke="#191970" d="M2569.1784,-61.9581C2508.0311,-49.6284 2402.8966,-28.4292 2347.72,-17.3034"/>
<polygon fill="#191970" stroke="#191970" points="2348.194,-13.8286 2337.6994,-15.2828 2346.8103,-20.6905 2348.194,-13.8286"/>
</g>
<!-- Node6 -->
<g id="node7" class="node">
<title>Node6</title>
<polygon fill="#ffffff" stroke="#bfbfbf" points="2500.5,-.5 2500.5,-19.5 2554.5,-19.5 2554.5,-.5 2500.5,-.5"/>
<text text-anchor="middle" x="2527.5" y="-7.5" font-family="Helvetica,sans-Serif" font-size="10.00" fill="#000000">iostream</text>
</g>
<!-- Node4&#45;&gt;Node6 -->
<g id="edge7" class="edge">
<title>Node4&#45;&gt;Node6</title>
<path fill="none" stroke="#191970" d="M2602.5938,-61.8906C2588.4862,-52.1421 2566.4276,-36.8994 2549.8615,-25.4521"/>
<polygon fill="#191970" stroke="#191970" points="2551.5253,-22.3474 2541.3086,-19.5419 2547.5458,-28.1063 2551.5253,-22.3474"/>
</g>
<!-- Node7 -->
<g id="node8" class="node">
<title>Node7</title>
<polygon fill="#ffffff" stroke="#bfbfbf" points="2573,-.5 2573,-19.5 2660,-19.5 2660,-.5 2573,-.5"/>
<text text-anchor="middle" x="2616.5" y="-7.5" font-family="Helvetica,sans-Serif" font-size="10.00" fill="#000000">AMReX_Print.H</text>
</g>
<!-- Node4&#45;&gt;Node7 -->
<g id="edge8" class="edge">
<title>Node4&#45;&gt;Node7</title>
<path fill="none" stroke="#191970" d="M2616.5,-61.8906C2616.5,-53.3657 2616.5,-40.6392 2616.5,-29.9235"/>
<polygon fill="#191970" stroke="#191970" points="2620.0001,-29.7448 2616.5,-19.7449 2613.0001,-29.7449 2620.0001,-29.7448"/>
</g>
<!-- Node8 -->
<g id="node9" class="node">
<title>Node8</title>
<polygon fill="#ffffff" stroke="#bfbfbf" points="2678.5,-.5 2678.5,-19.5 2740.5,-19.5 2740.5,-.5 2678.5,-.5"/>
<text text-anchor="middle" x="2709.5" y="-7.5" font-family="Helvetica,sans-Serif" font-size="10.00" fill="#000000">AMReX.H</text>
</g>
<!-- Node4&#45;&gt;Node8 -->
<g id="edge9" class="edge">
<title>Node4&#45;&gt;Node8</title>
<path fill="none" stroke="#191970" d="M2631.0313,-61.8906C2645.9094,-52.0519 2669.2504,-36.6167 2686.6128,-25.1351"/>
<polygon fill="#191970" stroke="#191970" points="2688.6602,-27.9773 2695.0708,-19.5419 2684.799,-22.1385 2688.6602,-27.9773"/>
</g>
<!-- Node11 -->
<g id="node12" class="node">
<title>Node11</title>
<polygon fill="#ffffff" stroke="#bfbfbf" points="1904.5,-129 1904.5,-148 2010.5,-148 2010.5,-129 1904.5,-129"/>
<text text-anchor="middle" x="1957.5" y="-136" font-family="Helvetica,sans-Serif" font-size="10.00" fill="#000000">AMReX_AmrCore.H</text>
</g>
<!-- Node10&#45;&gt;Node11 -->
<g id="edge12" class="edge">
<title>Node10&#45;&gt;Node11</title>
<path fill="none" stroke="#191970" d="M2057.5801,-246.3845C2039.1366,-226.5028 1996.5921,-180.6406 1973.3545,-155.5908"/>
<polygon fill="#191970" stroke="#191970" points="1975.9101,-153.1993 1966.5432,-148.2484 1970.7782,-157.96 1975.9101,-153.1993"/>
</g>
<!-- Node12 -->
<g id="node13" class="node">
<title>Node12</title>
<g id="a_node13"><a xlink:href="_sim_time_8_h.html" target="_top" xlink:title="amr&#45;wind/core/SimTime.H">
<polygon fill="#ffffff" stroke="#000000" points="177,-190.5 177,-209.5 308,-209.5 308,-190.5 177,-190.5"/>
<text text-anchor="middle" x="242.5" y="-197.5" font-family="Helvetica,sans-Serif" font-size="10.00" fill="#000000">amr&#45;wind/core/SimTime.H</text>
</a>
</g>
</g>
<!-- Node10&#45;&gt;Node12 -->
<g id="edge13" class="edge">
<title>Node10&#45;&gt;Node12</title>
<path fill="none" stroke="#191970" d="M2012.4062,-254.3392C1751.3714,-246.325 622.098,-211.6543 318.106,-202.3212"/>
<polygon fill="#191970" stroke="#191970" points="318.1724,-198.8217 308.0697,-202.0131 317.9575,-205.8184 318.1724,-198.8217"/>
</g>
<!-- Node16 -->
<g id="node17" class="node">
<title>Node16</title>
<g id="a_node17"><a xlink:href="_field_repo_8_h.html" target="_top" xlink:title="amr&#45;wind/core/FieldRepo.H">
<polygon fill="#ffffff" stroke="#000000" points="986.5,-190.5 986.5,-209.5 1122.5,-209.5 1122.5,-190.5 986.5,-190.5"/>
<text text-anchor="middle" x="1054.5" y="-197.5" font-family="Helvetica,sans-Serif" font-size="10.00" fill="#000000">amr&#45;wind/core/FieldRepo.H</text>
</a>
</g>
</g>
<!-- Node10&#45;&gt;Node16 -->
<g id="edge17" class="edge">
<title>Node10&#45;&gt;Node16</title>
<path fill="none" stroke="#191970" d="M2012.4483,-253.009C1844.2655,-243.7024 1329.7229,-215.2297 1132.5325,-204.318"/>
<polygon fill="#191970" stroke="#191970" points="1132.7163,-200.8229 1122.5381,-203.765 1132.3294,-207.8122 1132.7163,-200.8229"/>
</g>
<!-- Node32 -->
<g id="node33" class="node">
<title>Node32</title>
<g id="a_node33"><a xlink:href="_p_d_e_base_8_h.html" target="_top" xlink:title="amr&#45;wind/equation_systems\l/PDEBase.H">
<polygon fill="#ffffff" stroke="#000000" points="2029,-123.5 2029,-153.5 2168,-153.5 2168,-123.5 2029,-123.5"/>
<text text-anchor="start" x="2037" y="-141.5" font-family="Helvetica,sans-Serif" font-size="10.00" fill="#000000">amr&#45;wind/equation_systems</text>
<text text-anchor="middle" x="2098.5" y="-130.5" font-family="Helvetica,sans-Serif" font-size="10.00" fill="#000000">/PDEBase.H</text>
</a>
</g>
</g>
<!-- Node10&#45;&gt;Node32 -->
<g id="edge54" class="edge">
<title>Node10&#45;&gt;Node32</title>
<path fill="none" stroke="#191970" d="M2069.1187,-246.3845C2073.9991,-228.4644 2084.6277,-189.4375 2091.6729,-163.5681"/>
<polygon fill="#191970" stroke="#191970" points="2095.1058,-164.2826 2094.3565,-153.7143 2088.3517,-162.4432 2095.1058,-164.2826"/>
</g>
<!-- Node36 -->
<g id="node37" class="node">
<title>Node36</title>
<g id="a_node37"><a xlink:href="_physics_8_h.html" target="_top" xlink:title="amr&#45;wind/core/Physics.H">
<polygon fill="#ffffff" stroke="#000000" points="2205,-129 2205,-148 2332,-148 2332,-129 2205,-129"/>
<text text-anchor="middle" x="2268.5" y="-136" font-family="Helvetica,sans-Serif" font-size="10.00" fill="#000000">amr&#45;wind/core/Physics.H</text>
</a>
</g>
</g>
<!-- Node10&#45;&gt;Node36 -->
<g id="edge66" class="edge">
<title>Node10&#45;&gt;Node36</title>
<path fill="none" stroke="#191970" d="M2076.9928,-246.3017C2092.29,-232.514 2122.0044,-207.0325 2150.5,-190 2176.4687,-174.4779 2207.9631,-160.973 2231.8809,-151.6913"/>
<polygon fill="#191970" stroke="#191970" points="2233.2032,-154.933 2241.3011,-148.1011 2230.7103,-148.3919 2233.2032,-154.933"/>
</g>
<!-- Node13 -->
<g id="node14" class="node">
<title>Node13</title>
<polygon fill="#ffffff" stroke="#bfbfbf" points="0,-129 0,-148 93,-148 93,-129 0,-129"/>
<text text-anchor="middle" x="46.5" y="-136" font-family="Helvetica,sans-Serif" font-size="10.00" fill="#000000">AMReX_REAL.H</text>
</g>
<!-- Node12&#45;&gt;Node13 -->
<g id="edge14" class="edge">
<title>Node12&#45;&gt;Node13</title>
<path fill="none" stroke="#191970" d="M211.875,-190.3906C178.2176,-179.8298 124.0101,-162.8208 86.8941,-151.1747"/>
<polygon fill="#191970" stroke="#191970" points="87.4991,-147.6963 76.9099,-148.0419 85.4034,-154.3753 87.4991,-147.6963"/>
</g>
<!-- Node14 -->
<g id="node15" class="node">
<title>Node14</title>
<polygon fill="#ffffff" stroke="#bfbfbf" points="111.5,-129 111.5,-148 237.5,-148 237.5,-129 111.5,-129"/>
<text text-anchor="middle" x="174.5" y="-136" font-family="Helvetica,sans-Serif" font-size="10.00" fill="#000000">AMReX_GpuQualifiers.H</text>
</g>
<!-- Node12&#45;&gt;Node14 -->
<g id="edge15" class="edge">
<title>Node12&#45;&gt;Node14</title>
<path fill="none" stroke="#191970" d="M231.875,-190.3906C221.4569,-180.9683 205.3636,-166.4134 192.8696,-155.1137"/>
<polygon fill="#191970" stroke="#191970" points="195.0392,-152.3568 185.2748,-148.2449 190.3438,-157.5484 195.0392,-152.3568"/>
</g>
<!-- Node15 -->
<g id="node16" class="node">
<title>Node15</title>
<polygon fill="#ffffff" stroke="#bfbfbf" points="255.5,-129 255.5,-148 365.5,-148 365.5,-129 255.5,-129"/>
<text text-anchor="middle" x="310.5" y="-136" font-family="Helvetica,sans-Serif" font-size="10.00" fill="#000000">AMReX_Extension.H</text>
</g>
<!-- Node12&#45;&gt;Node15 -->
<g id="edge16" class="edge">
<title>Node12&#45;&gt;Node15</title>
<path fill="none" stroke="#191970" d="M253.125,-190.3906C263.5431,-180.9683 279.6364,-166.4134 292.1304,-155.1137"/>
<polygon fill="#191970" stroke="#191970" points="294.6562,-157.5484 299.7252,-148.2449 289.9608,-152.3568 294.6562,-157.5484"/>
</g>
<!-- Node16&#45;&gt;Node3 -->
<g id="edge19" class="edge">
<title>Node16&#45;&gt;Node3</title>
<path fill="none" stroke="#191970" d="M1122.8649,-195.0009C1213.7148,-187.9547 1379.1161,-173.7242 1519.5,-154 1683.6942,-130.9304 1724.7599,-123.4978 1886.5,-87 1938.1372,-75.3477 1949.9939,-68.2188 2001.5,-56 2060.2166,-42.0707 2128.1782,-28.4652 2173.7052,-19.7099"/>
<polygon fill="#191970" stroke="#191970" points="2174.4727,-23.1266 2183.6362,-17.8086 2173.1564,-16.2515 2174.4727,-23.1266"/>
</g>
<!-- Node16&#45;&gt;Node9 -->
<g id="edge20" class="edge">
<title>Node16&#45;&gt;Node9</title>
<path fill="none" stroke="#191970" d="M986.3813,-196.6015C857.2383,-188.4457 585.4592,-162.4828 538.5,-87 531.2221,-75.3013 529.5034,-66.435 538.5,-56 552.6589,-39.5772 669.708,-25.722 755.5751,-17.6352"/>
<polygon fill="#191970" stroke="#191970" points="755.9863,-21.1122 765.6196,-16.7019 755.3386,-14.1422 755.9863,-21.1122"/>
</g>
<!-- Node16&#45;&gt;Node11 -->
<g id="edge51" class="edge">
<title>Node16&#45;&gt;Node11</title>
<path fill="none" stroke="#191970" d="M1122.6252,-197.7677C1294.5492,-191.8905 1742.8096,-174.987 1890.5,-154 1897.33,-153.0295 1904.4901,-151.7074 1911.4833,-150.2419"/>
<polygon fill="#191970" stroke="#191970" points="1912.5429,-153.5923 1921.5518,-148.0165 1911.0321,-146.7572 1912.5429,-153.5923"/>
</g>
<!-- Node17 -->
<g id="node18" class="node">
<title>Node17</title>
<polygon fill="#ffffff" stroke="#bfbfbf" points="1258,-.5 1258,-19.5 1299,-19.5 1299,-.5 1258,-.5"/>
<text text-anchor="middle" x="1278.5" y="-7.5" font-family="Helvetica,sans-Serif" font-size="10.00" fill="#000000">string</text>
</g>
<!-- Node16&#45;&gt;Node17 -->
<g id="edge18" class="edge">
<title>Node16&#45;&gt;Node17</title>
<path fill="none" stroke="#191970" d="M1076.7385,-190.4481C1113.1558,-173.8952 1186.0923,-136.8164 1232.5,-87 1248.6735,-69.6386 1261.8905,-45.6651 1269.9405,-29.1016"/>
<polygon fill="#191970" stroke="#191970" points="1273.1918,-30.4117 1274.2654,-19.8713 1266.8531,-27.4416 1273.1918,-30.4117"/>
</g>
<!-- Node18 -->
<g id="node19" class="node">
<title>Node18</title>
<g id="a_node19"><a xlink:href="_field_utils_8_h.html" target="_top" xlink:title="amr&#45;wind/core/FieldUtils.H">
<polygon fill="#ffffff" stroke="#000000" points="548,-62 548,-81 681,-81 681,-62 548,-62"/>
<text text-anchor="middle" x="614.5" y="-69" font-family="Helvetica,sans-Serif" font-size="10.00" fill="#000000">amr&#45;wind/core/FieldUtils.H</text>
</a>
</g>
</g>
<!-- Node16&#45;&gt;Node18 -->
<g id="edge21" class="edge">
<title>Node16&#45;&gt;Node18</title>
<path fill="none" stroke="#191970" d="M986.3005,-193.9399C906.102,-186.1676 778.2376,-171.572 733.5,-154 693.6636,-138.3531 654.1817,-107.0299 632.2016,-87.8014"/>
<polygon fill="#191970" stroke="#191970" points="634.4622,-85.1278 624.6702,-81.082 629.802,-90.3511 634.4622,-85.1278"/>
</g>
<!-- Node19 -->
<g id="node20" class="node">
<title>Node19</title>
<polygon fill="#ffffff" stroke="#bfbfbf" points="988.5,-.5 988.5,-19.5 1092.5,-19.5 1092.5,-.5 988.5,-.5"/>
<text text-anchor="middle" x="1040.5" y="-7.5" font-family="Helvetica,sans-Serif" font-size="10.00" fill="#000000">AMReX_MultiFab.H</text>
</g>
<!-- Node16&#45;&gt;Node19 -->
<g id="edge52" class="edge">
<title>Node16&#45;&gt;Node19</title>
<path fill="none" stroke="#191970" d="M999.0016,-190.4437C908.3846,-172.5008 744.463,-128.869 804.5,-56 815.5616,-42.5741 912.2791,-27.1291 978.4139,-17.9869"/>
<polygon fill="#191970" stroke="#191970" points="978.9076,-21.4521 988.3414,-16.6299 977.9595,-14.5166 978.9076,-21.4521"/>
</g>
<!-- Node21 -->
<g id="node22" class="node">
<title>Node21</title>
<g id="a_node22"><a xlink:href="_field_8_h.html" target="_top" xlink:title="amr&#45;wind/core/Field.H">
<polygon fill="#ffffff" stroke="#000000" points="1397,-129 1397,-148 1510,-148 1510,-129 1397,-129"/>
<text text-anchor="middle" x="1453.5" y="-136" font-family="Helvetica,sans-Serif" font-size="10.00" fill="#000000">amr&#45;wind/core/Field.H</text>
</a>
</g>
</g>
<!-- Node16&#45;&gt;Node21 -->
<g id="edge25" class="edge">
<title>Node16&#45;&gt;Node21</title>
<path fill="none" stroke="#191970" d="M1116.406,-190.4581C1189.6805,-179.1639 1311.2389,-160.4275 1386.6202,-148.8085"/>
<polygon fill="#191970" stroke="#191970" points="1387.5905,-152.2004 1396.9405,-147.2178 1386.524,-145.2821 1387.5905,-152.2004"/>
</g>
<!-- Node28 -->
<g id="node29" class="node">
<title>Node28</title>
<g id="a_node29"><a xlink:href="_int_field_8_h.html" target="_top" xlink:title="amr&#45;wind/core/IntField.H">
<polygon fill="#ffffff" stroke="#000000" points="421.5,-129 421.5,-148 545.5,-148 545.5,-129 421.5,-129"/>
<text text-anchor="middle" x="483.5" y="-136" font-family="Helvetica,sans-Serif" font-size="10.00" fill="#000000">amr&#45;wind/core/IntField.H</text>
</a>
</g>
</g>
<!-- Node16&#45;&gt;Node28 -->
<g id="edge40" class="edge">
<title>Node16&#45;&gt;Node28</title>
<path fill="none" stroke="#191970" d="M986.1612,-196.0032C890.41,-189.8688 711.0457,-176.4276 559.5,-154 551.8196,-152.8634 543.7438,-151.4525 535.8402,-149.9486"/>
<polygon fill="#191970" stroke="#191970" points="536.4511,-146.5018 525.9638,-148.0075 535.1011,-153.3704 536.4511,-146.5018"/>
</g>
<!-- Node29 -->
<g id="node30" class="node">
<title>Node29</title>
<polygon fill="#ffffff" stroke="#bfbfbf" points="344,-62 344,-81 451,-81 451,-62 344,-62"/>
<text text-anchor="middle" x="397.5" y="-69" font-family="Helvetica,sans-Serif" font-size="10.00" fill="#000000">AMReX_iMultiFab.H</text>
</g>
<!-- Node16&#45;&gt;Node29 -->
<g id="edge53" class="edge">
<title>Node16&#45;&gt;Node29</title>
<path fill="none" stroke="#191970" d="M986.3531,-197.3484C825.4105,-190.7871 433.6191,-172.9469 412.5,-154 395.1987,-138.4782 393.6438,-110.2266 394.9236,-91.1617"/>
<polygon fill="#191970" stroke="#191970" points="398.4113,-91.4585 395.9071,-81.1639 391.4449,-90.7732 398.4113,-91.4585"/>
</g>
<!-- Node30 -->
<g id="node31" class="node">
<title>Node30</title>
<g id="a_node31"><a xlink:href="_scratch_field_8_h.html" target="_top" xlink:title="amr&#45;wind/core/ScratchField.H">
<polygon fill="#ffffff" stroke="#000000" points="981.5,-129 981.5,-148 1127.5,-148 1127.5,-129 981.5,-129"/>
<text text-anchor="middle" x="1054.5" y="-136" font-family="Helvetica,sans-Serif" font-size="10.00" fill="#000000">amr&#45;wind/core/ScratchField.H</text>
</a>
</g>
</g>
<!-- Node16&#45;&gt;Node30 -->
<g id="edge44" class="edge">
<title>Node16&#45;&gt;Node30</title>
<path fill="none" stroke="#191970" d="M1054.5,-190.3906C1054.5,-181.8657 1054.5,-169.1392 1054.5,-158.4235"/>
<polygon fill="#191970" stroke="#191970" points="1058.0001,-158.2448 1054.5,-148.2449 1051.0001,-158.2449 1058.0001,-158.2448"/>
</g>
<!-- Node18&#45;&gt;Node9 -->
<g id="edge22" class="edge">
<title>Node18&#45;&gt;Node9</title>
<path fill="none" stroke="#191970" d="M650.6506,-61.9581C691.2069,-51.2533 757.0931,-33.8628 801.3407,-22.1837"/>
<polygon fill="#191970" stroke="#191970" points="802.489,-25.5005 811.2646,-19.5643 800.7025,-18.7323 802.489,-25.5005"/>
</g>
<!-- Node18&#45;&gt;Node19 -->
<g id="edge23" class="edge">
<title>Node18&#45;&gt;Node19</title>
<path fill="none" stroke="#191970" d="M680.5951,-61.9581C761.7838,-50.2372 898.4926,-30.5011 978.0001,-19.0229"/>
<polygon fill="#191970" stroke="#191970" points="978.9559,-22.4213 988.3532,-17.5282 977.9556,-15.4931 978.9559,-22.4213"/>
</g>
<!-- Node20 -->
<g id="node21" class="node">
<title>Node20</title>
<polygon fill="#ffffff" stroke="#bfbfbf" points="556.5,-.5 556.5,-19.5 672.5,-19.5 672.5,-.5 556.5,-.5"/>
<text text-anchor="middle" x="614.5" y="-7.5" font-family="Helvetica,sans-Serif" font-size="10.00" fill="#000000">AMReX_Interpolater.H</text>
</g>
<!-- Node18&#45;&gt;Node20 -->
<g id="edge24" class="edge">
<title>Node18&#45;&gt;Node20</title>
<path fill="none" stroke="#191970" d="M614.5,-61.8906C614.5,-53.3657 614.5,-40.6392 614.5,-29.9235"/>
<polygon fill="#191970" stroke="#191970" points="618.0001,-29.7448 614.5,-19.7449 611.0001,-29.7449 618.0001,-29.7448"/>
</g>
<!-- Node21&#45;&gt;Node3 -->
<g id="edge28" class="edge">
<title>Node21&#45;&gt;Node3</title>
<path fill="none" stroke="#191970" d="M1510.1016,-130.7615C1553.7501,-123.3743 1614.8478,-109.8928 1664.5,-87 1685.8952,-77.1355 1685.4224,-64.2245 1707.5,-56 1708.8595,-55.4936 2042.4093,-26.1074 2173.4838,-14.5745"/>
<polygon fill="#191970" stroke="#191970" points="2174.0219,-18.0408 2183.6767,-13.6777 2173.4084,-11.0677 2174.0219,-18.0408"/>
</g>
<!-- Node21&#45;&gt;Node5 -->
<g id="edge27" class="edge">
<title>Node21&#45;&gt;Node5</title>
<path fill="none" stroke="#191970" d="M1510.4078,-133.7381C1561.7361,-127.8071 1638.3335,-114.8217 1699.5,-87 1720.2946,-77.5416 1719.0976,-63.9883 1740.5,-56 1849.5033,-15.3155 2143.4544,-39.2228 2275.2971,-19.7511"/>
<polygon fill="#191970" stroke="#191970" points="2275.9523,-23.1907 2285.2652,-18.1391 2274.8347,-16.2805 2275.9523,-23.1907"/>
</g>
<!-- Node21&#45;&gt;Node9 -->
<g id="edge34" class="edge">
<title>Node21&#45;&gt;Node9</title>
<path fill="none" stroke="#191970" d="M1396.9136,-136.8066C1314.2182,-133.1868 1156.098,-121.9112 1026.5,-87 1011.4426,-82.9438 925.2166,-44.7857 878.1521,-23.7539"/>
<polygon fill="#191970" stroke="#191970" points="879.3006,-20.4335 868.7432,-19.5444 876.4419,-26.8232 879.3006,-20.4335"/>
</g>
<!-- Node21&#45;&gt;Node17 -->
<g id="edge26" class="edge">
<title>Node21&#45;&gt;Node17</title>
<path fill="none" stroke="#191970" d="M1454.0444,-128.9237C1454.4645,-111.9093 1452.7924,-76.2954 1433.5,-56 1416.4573,-38.0713 1349.4116,-23.0256 1309.2929,-15.3913"/>
<polygon fill="#191970" stroke="#191970" points="1309.7084,-11.9087 1299.2377,-13.5255 1308.4313,-18.7913 1309.7084,-11.9087"/>
</g>
<!-- Node21&#45;&gt;Node19 -->
<g id="edge30" class="edge">
<title>Node21&#45;&gt;Node19</title>
<path fill="none" stroke="#191970" d="M1422.7953,-128.9466C1349.3081,-106.0819 1163.3066,-48.2098 1080.8833,-22.5648"/>
<polygon fill="#191970" stroke="#191970" points="1081.7145,-19.158 1071.1262,-19.529 1079.6348,-25.8419 1081.7145,-19.158"/>
</g>
<!-- Node22 -->
<g id="node23" class="node">
<title>Node22</title>
<polygon fill="#ffffff" stroke="#bfbfbf" points="1481.5,-62 1481.5,-81 1537.5,-81 1537.5,-62 1481.5,-62"/>
<text text-anchor="middle" x="1509.5" y="-69" font-family="Helvetica,sans-Serif" font-size="10.00" fill="#000000">algorithm</text>
</g>
<!-- Node21&#45;&gt;Node22 -->
<g id="edge29" class="edge">
<title>Node21&#45;&gt;Node22</title>
<path fill="none" stroke="#191970" d="M1461.5234,-128.9005C1470.2561,-118.4525 1484.3982,-101.5325 1495.0708,-88.7635"/>
<polygon fill="#191970" stroke="#191970" points="1497.7638,-90.9991 1501.4914,-81.0817 1492.3928,-86.5099 1497.7638,-90.9991"/>
</g>
<!-- Node23 -->
<g id="node24" class="node">
<title>Node23</title>
<polygon fill="#ffffff" stroke="#bfbfbf" points="1556,-62 1556,-81 1655,-81 1655,-62 1556,-62"/>
<text text-anchor="middle" x="1605.5" y="-69" font-family="Helvetica,sans-Serif" font-size="10.00" fill="#000000">AMReX_BCRec.H</text>
</g>
<!-- Node21&#45;&gt;Node23 -->
<g id="edge31" class="edge">
<title>Node21&#45;&gt;Node23</title>
<path fill="none" stroke="#191970" d="M1475.2779,-128.9005C1501.2384,-117.4574 1544.8113,-98.2509 1574.3346,-85.2374"/>
<polygon fill="#191970" stroke="#191970" points="1576.0237,-88.3178 1583.7625,-81.0817 1573.2003,-81.9125 1576.0237,-88.3178"/>
</g>
<!-- Node24 -->
<g id="node25" class="node">
<title>Node24</title>
<polygon fill="#ffffff" stroke="#bfbfbf" points="1340,-62 1340,-81 1425,-81 1425,-62 1340,-62"/>
<text text-anchor="middle" x="1382.5" y="-69" font-family="Helvetica,sans-Serif" font-size="10.00" fill="#000000">AMReX_Gpu.H</text>
</g>
<!-- Node21&#45;&gt;Node24 -->
<g id="edge32" class="edge">
<title>Node21&#45;&gt;Node24</title>
<path fill="none" stroke="#191970" d="M1443.3274,-128.9005C1432.0447,-118.2535 1413.6399,-100.8856 1400.0258,-88.0385"/>
<polygon fill="#191970" stroke="#191970" points="1402.3288,-85.3994 1392.6537,-81.0817 1397.5246,-90.4905 1402.3288,-85.3994"/>
</g>
<!-- Node25 -->
<g id="node26" class="node">
<title>Node25</title>
<g id="a_node26"><a xlink:href="incflo__enums_8_h.html" target="_top" xlink:title="amr&#45;wind/incflo_enums.H">
<polygon fill="#ffffff" stroke="#000000" points="1749.5,-62 1749.5,-81 1877.5,-81 1877.5,-62 1749.5,-62"/>
<text text-anchor="middle" x="1813.5" y="-69" font-family="Helvetica,sans-Serif" font-size="10.00" fill="#000000">amr&#45;wind/incflo_enums.H</text>
</a>
</g>
</g>
<!-- Node21&#45;&gt;Node25 -->
<g id="edge33" class="edge">
<title>Node21&#45;&gt;Node25</title>
<path fill="none" stroke="#191970" d="M1507.0828,-128.9699C1563.8445,-118.8147 1656.0579,-102.1464 1735.5,-87 1742.1518,-85.7318 1749.1179,-84.3806 1756.0337,-83.0247"/>
<polygon fill="#191970" stroke="#191970" points="1756.9527,-86.411 1766.0876,-81.044 1755.5996,-79.543 1756.9527,-86.411"/>
</g>
<!-- Node26 -->
<g id="node27" class="node">
<title>Node26</title>
<g id="a_node27"><a xlink:href="_view_field_8_h.html" target="_top" xlink:title="amr&#45;wind/core/ViewField.H">
<polygon fill="#ffffff" stroke="#000000" points="1035.5,-62 1035.5,-81 1169.5,-81 1169.5,-62 1035.5,-62"/>
<text text-anchor="middle" x="1102.5" y="-69" font-family="Helvetica,sans-Serif" font-size="10.00" fill="#000000">amr&#45;wind/core/ViewField.H</text>
</a>
</g>
</g>
<!-- Node21&#45;&gt;Node26 -->
<g id="edge35" class="edge">
<title>Node21&#45;&gt;Node26</title>
<path fill="none" stroke="#191970" d="M1403.583,-128.9717C1340.1239,-116.8584 1230.6617,-95.9639 1162.6613,-82.9838"/>
<polygon fill="#191970" stroke="#191970" points="1163.0075,-79.4868 1152.5286,-81.0496 1161.695,-86.3626 1163.0075,-79.4868"/>
</g>
<!-- Node26&#45;&gt;Node9 -->
<g id="edge37" class="edge">
<title>Node26&#45;&gt;Node9</title>
<path fill="none" stroke="#191970" d="M1062.936,-61.9581C1018.27,-51.1857 945.5313,-33.6428 897.103,-21.9631"/>
<polygon fill="#191970" stroke="#191970" points="897.6987,-18.5065 887.1568,-19.5643 896.0574,-25.3113 897.6987,-18.5065"/>
</g>
<!-- Node26&#45;&gt;Node17 -->
<g id="edge36" class="edge">
<title>Node26&#45;&gt;Node17</title>
<path fill="none" stroke="#191970" d="M1130,-61.8906C1162.0674,-50.6852 1214.909,-32.2207 1248.1506,-20.605"/>
<polygon fill="#191970" stroke="#191970" points="1249.5073,-23.8386 1257.793,-17.2357 1247.1982,-17.2304 1249.5073,-23.8386"/>
</g>
<!-- Node26&#45;&gt;Node19 -->
<g id="edge38" class="edge">
<title>Node26&#45;&gt;Node19</title>
<path fill="none" stroke="#191970" d="M1092.8125,-61.8906C1083.4041,-52.5581 1068.9193,-38.1902 1057.5751,-26.9374"/>
<polygon fill="#191970" stroke="#191970" points="1059.8886,-24.3024 1050.3241,-19.7449 1054.9589,-29.2722 1059.8886,-24.3024"/>
</g>
<!-- Node27 -->
<g id="node28" class="node">
<title>Node27</title>
<polygon fill="#ffffff" stroke="#bfbfbf" points="1145,-.5 1145,-19.5 1240,-19.5 1240,-.5 1145,-.5"/>
<text text-anchor="middle" x="1192.5" y="-7.5" font-family="Helvetica,sans-Serif" font-size="10.00" fill="#000000">AMReX_Vector.H</text>
</g>
<!-- Node26&#45;&gt;Node27 -->
<g id="edge39" class="edge">
<title>Node26&#45;&gt;Node27</title>
<path fill="none" stroke="#191970" d="M1116.5625,-61.8906C1130.8286,-52.1421 1153.135,-36.8994 1169.8872,-25.4521"/>
<polygon fill="#191970" stroke="#191970" points="1172.2545,-28.0736 1178.5362,-19.5419 1168.3051,-22.2941 1172.2545,-28.0736"/>
</g>
<!-- Node28&#45;&gt;Node9 -->
<g id="edge42" class="edge">
<title>Node28&#45;&gt;Node9</title>
<path fill="none" stroke="#191970" d="M482.925,-128.8636C482.4629,-111.4255 484.2507,-74.7104 505.5,-56 524.0461,-39.6698 660.7405,-25.2821 755.5901,-17.1161"/>
<polygon fill="#191970" stroke="#191970" points="756.1167,-20.584 765.7838,-16.2484 755.523,-13.6092 756.1167,-20.584"/>
</g>
<!-- Node28&#45;&gt;Node17 -->
<g id="edge41" class="edge">
<title>Node28&#45;&gt;Node17</title>
<path fill="none" stroke="#191970" d="M522.6626,-128.9358C564.1438,-118.7524 631.5193,-102.061 689.5,-87 740.7352,-73.6912 752.3465,-65.0656 804.5,-56 996.3178,-22.6573 1052.6544,-58.3649 1247.6964,-19.672"/>
<polygon fill="#191970" stroke="#191970" points="1248.5876,-23.0627 1257.6943,-17.6481 1247.1987,-16.2018 1248.5876,-23.0627"/>
</g>
<!-- Node28&#45;&gt;Node29 -->
<g id="edge43" class="edge">
<title>Node28&#45;&gt;Node29</title>
<path fill="none" stroke="#191970" d="M471.1783,-128.9005C457.2565,-118.0544 434.3824,-100.2339 417.81,-87.3229"/>
<polygon fill="#191970" stroke="#191970" points="419.8385,-84.4664 409.7988,-81.0817 415.5364,-89.9885 419.8385,-84.4664"/>
</g>
<!-- Node30&#45;&gt;Node9 -->
<g id="edge46" class="edge">
<title>Node30&#45;&gt;Node9</title>
<path fill="none" stroke="#191970" d="M981.4267,-133.479C915.8099,-127.2681 826.5117,-114.0083 804.5,-87 789.0655,-68.0619 809.5765,-42.8178 827.2202,-26.486"/>
<polygon fill="#191970" stroke="#191970" points="829.7829,-28.8935 834.9855,-19.664 825.1628,-23.6346 829.7829,-28.8935"/>
</g>
<!-- Node30&#45;&gt;Node17 -->
<g id="edge45" class="edge">
<title>Node30&#45;&gt;Node17</title>
<path fill="none" stroke="#191970" d="M1095.677,-128.9727C1125.9175,-120.7997 1167.1849,-107.1219 1199.5,-87 1225.3898,-70.879 1249.6384,-45.0199 1264.2699,-27.7755"/>
<polygon fill="#191970" stroke="#191970" points="1267.3232,-29.5757 1271.0024,-19.6402 1261.9304,-25.1128 1267.3232,-29.5757"/>
</g>
<!-- Node30&#45;&gt;Node19 -->
<g id="edge48" class="edge">
<title>Node30&#45;&gt;Node19</title>
<path fill="none" stroke="#191970" d="M1047.3335,-128.8627C1040.447,-118.953 1030.5126,-102.781 1026.5,-87 1021.5487,-67.5275 1026.9888,-44.8589 1032.4675,-29.1839"/>
<polygon fill="#191970" stroke="#191970" points="1035.8393,-30.1651 1036.1393,-19.5745 1029.3004,-27.6665 1035.8393,-30.1651"/>
</g>
<!-- Node30&#45;&gt;Node26 -->
<g id="edge47" class="edge">
<title>Node30&#45;&gt;Node26</title>
<path fill="none" stroke="#191970" d="M1061.3772,-128.9005C1068.7198,-118.6515 1080.5241,-102.1747 1089.6062,-89.4976"/>
<polygon fill="#191970" stroke="#191970" points="1092.6568,-91.2492 1095.6355,-81.0817 1086.9664,-87.1724 1092.6568,-91.2492"/>
</g>
<!-- Node30&#45;&gt;Node27 -->
<g id="edge49" class="edge">
<title>Node30&#45;&gt;Node27</title>
<path fill="none" stroke="#191970" d="M1106.8119,-128.9593C1132.127,-121.6648 1160.7972,-108.9587 1178.5,-87 1191.3875,-71.0142 1193.9381,-47.0684 1193.865,-30.1316"/>
<polygon fill="#191970" stroke="#191970" points="1197.3474,-29.5775 1193.49,-19.7099 1190.3519,-29.8293 1197.3474,-29.5775"/>
</g>
<!-- Node31 -->
<g id="node32" class="node">
<title>Node31</title>
<polygon fill="#ffffff" stroke="#bfbfbf" points="813.5,-62 813.5,-81 941.5,-81 941.5,-62 813.5,-62"/>
<text text-anchor="middle" x="877.5" y="-69" font-family="Helvetica,sans-Serif" font-size="10.00" fill="#000000">AMReX_PhysBCFunct.H</text>
</g>
<!-- Node30&#45;&gt;Node31 -->
<g id="edge50" class="edge">
<title>Node30&#45;&gt;Node31</title>
<path fill="none" stroke="#191970" d="M1029.1402,-128.9005C998.5156,-117.3082 946.8432,-97.7486 912.4544,-84.7313"/>
<polygon fill="#191970" stroke="#191970" points="913.4042,-81.3486 902.8127,-81.0817 910.9261,-87.8952 913.4042,-81.3486"/>
</g>
<!-- Node32&#45;&gt;Node4 -->
<g id="edge56" class="edge">
<title>Node32&#45;&gt;Node4</title>
<path fill="none" stroke="#191970" d="M2168.0525,-127.1928C2177.6027,-125.7299 2187.2886,-124.2928 2196.5,-123 2318.0163,-105.9455 2459.7634,-89.2215 2543.609,-79.6573"/>
<polygon fill="#191970" stroke="#191970" points="2544.2524,-83.1067 2553.7925,-78.4984 2543.4609,-76.1516 2544.2524,-83.1067"/>
</g>
<!-- Node32&#45;&gt;Node9 -->
<g id="edge64" class="edge">
<title>Node32&#45;&gt;Node9</title>
<path fill="none" stroke="#191970" d="M2034.5846,-123.4829C1991.6052,-112.7496 1939.3164,-98.2713 1919.5,-87 1902.0084,-77.051 1905.0587,-63.7791 1886.5,-56 1793.4837,-17.0112 1080.1896,-25.8104 979.5,-20 966.5186,-19.2509 952.8277,-18.3445 939.375,-17.3868"/>
<polygon fill="#191970" stroke="#191970" points="939.3765,-13.8779 929.1498,-16.6463 938.8708,-20.8596 939.3765,-13.8779"/>
</g>
<!-- Node32&#45;&gt;Node17 -->
<g id="edge55" class="edge">
<title>Node32&#45;&gt;Node17</title>
<path fill="none" stroke="#191970" d="M2069.1336,-123.3923C2026.5539,-101.7612 1949.4913,-63.7142 1919.5,-56 1801.857,-25.7404 1420.587,-13.6768 1309.2764,-10.7473"/>
<polygon fill="#191970" stroke="#191970" points="1309.1611,-7.2433 1299.0743,-10.4847 1308.9809,-14.241 1309.1611,-7.2433"/>
</g>
<!-- Node32&#45;&gt;Node25 -->
<g id="edge65" class="edge">
<title>Node32&#45;&gt;Node25</title>
<path fill="none" stroke="#191970" d="M2034.5404,-123.4639C1982.906,-111.3253 1911.2641,-94.4831 1863.701,-83.3016"/>
<polygon fill="#191970" stroke="#191970" points="1864.4686,-79.8867 1853.9329,-81.0053 1862.8666,-86.701 1864.4686,-79.8867"/>
</g>
<!-- Node33 -->
<g id="node34" class="node">
<title>Node33</title>
<g id="a_node34"><a xlink:href="_coll_mgr_8_h.html" target="_top" xlink:title="amr&#45;wind/core/CollMgr.H">
<polygon fill="#ffffff" stroke="#000000" points="2206,-62 2206,-81 2331,-81 2331,-62 2206,-62"/>
<text text-anchor="middle" x="2268.5" y="-69" font-family="Helvetica,sans-Serif" font-size="10.00" fill="#000000">amr&#45;wind/core/CollMgr.H</text>
</a>
</g>
</g>
<!-- Node32&#45;&gt;Node33 -->
<g id="edge57" class="edge">
<title>Node32&#45;&gt;Node33</title>
<path fill="none" stroke="#191970" d="M2136.6513,-123.4639C2166.0745,-111.8677 2206.3893,-95.9789 2234.6686,-84.8335"/>
<polygon fill="#191970" stroke="#191970" points="2236.1117,-88.0269 2244.1318,-81.1039 2233.545,-81.5144 2236.1117,-88.0269"/>
</g>
<!-- Node34 -->
<g id="node35" class="node">
<title>Node34</title>
<g id="a_node35"><a xlink:href="_p_d_e_fields_8_h.html" target="_top" xlink:title="amr&#45;wind/equation_systems\l/PDEFields.H">
<polygon fill="#ffffff" stroke="#000000" points="2010,-56.5 2010,-86.5 2149,-86.5 2149,-56.5 2010,-56.5"/>
<text text-anchor="start" x="2018" y="-74.5" font-family="Helvetica,sans-Serif" font-size="10.00" fill="#000000">amr&#45;wind/equation_systems</text>
<text text-anchor="middle" x="2079.5" y="-63.5" font-family="Helvetica,sans-Serif" font-size="10.00" fill="#000000">/PDEFields.H</text>
</a>
</g>
</g>
<!-- Node32&#45;&gt;Node34 -->
<g id="edge62" class="edge">
<title>Node32&#45;&gt;Node34</title>
<path fill="none" stroke="#191970" d="M2094.1886,-123.2967C2091.9294,-115.3299 2089.1054,-105.3718 2086.5389,-96.3213"/>
<polygon fill="#191970" stroke="#191970" points="2089.8899,-95.3089 2083.7943,-86.6432 2083.1554,-97.2187 2089.8899,-95.3089"/>
</g>
<!-- Node33&#45;&gt;Node3 -->
<g id="edge60" class="edge">
<title>Node33&#45;&gt;Node3</title>
<path fill="none" stroke="#191970" d="M2261.7813,-61.8906C2255.507,-52.917 2245.9777,-39.2879 2238.2596,-28.2491"/>
<polygon fill="#191970" stroke="#191970" points="2240.9121,-25.9348 2232.3135,-19.7449 2235.1753,-29.9459 2240.9121,-25.9348"/>
</g>
<!-- Node33&#45;&gt;Node5 -->
<g id="edge59" class="edge">
<title>Node33&#45;&gt;Node5</title>
<path fill="none" stroke="#191970" d="M2275.2188,-61.8906C2281.493,-52.917 2291.0223,-39.2879 2298.7404,-28.2491"/>
<polygon fill="#191970" stroke="#191970" points="2301.8247,-29.9459 2304.6865,-19.7449 2296.0879,-25.9348 2301.8247,-29.9459"/>
</g>
<!-- Node33&#45;&gt;Node17 -->
<g id="edge58" class="edge">
<title>Node33&#45;&gt;Node17</title>
<path fill="none" stroke="#191970" d="M2227.125,-61.9989C2215.6443,-59.6832 2203.1364,-57.4562 2191.5,-56 2015.1735,-33.9346 1448.7162,-15.274 1309.5828,-10.9457"/>
<polygon fill="#191970" stroke="#191970" points="1309.3389,-7.4366 1299.2355,-10.6258 1309.1226,-14.4332 1309.3389,-7.4366"/>
</g>
<!-- Node33&#45;&gt;Node27 -->
<g id="edge61" class="edge">
<title>Node33&#45;&gt;Node27</title>
<path fill="none" stroke="#191970" d="M2227.5366,-61.9859C2215.9469,-59.6404 2203.2804,-57.4014 2191.5,-56 1778.3754,-6.8559 1667.283,-64.0367 1250.3151,-20.0535"/>
<polygon fill="#191970" stroke="#191970" points="1250.4096,-16.5438 1240.0943,-18.9617 1249.666,-23.5042 1250.4096,-16.5438"/>
</g>
<!-- Node35 -->
<g id="node36" class="node">
<title>Node35</title>
<polygon fill="#ffffff" stroke="#bfbfbf" points="2057,-.5 2057,-19.5 2102,-19.5 2102,-.5 2057,-.5"/>
<text text-anchor="middle" x="2079.5" y="-7.5" font-family="Helvetica,sans-Serif" font-size="10.00" fill="#000000">iosfwd</text>
</g>
<!-- Node34&#45;&gt;Node35 -->
<g id="edge63" class="edge">
<title>Node34&#45;&gt;Node35</title>
<path fill="none" stroke="#191970" d="M2079.5,-56.2977C2079.5,-48.3834 2079.5,-38.6043 2079.5,-30.0759"/>
<polygon fill="#191970" stroke="#191970" points="2083.0001,-29.8469 2079.5,-19.8469 2076.0001,-29.847 2083.0001,-29.8469"/>
</g>
<!-- Node36&#45;&gt;Node4 -->
<g id="edge67" class="edge">
<title>Node36&#45;&gt;Node4</title>
<path fill="none" stroke="#191970" d="M2317.9903,-128.9717C2380.907,-116.8584 2489.4337,-95.9639 2556.8529,-82.9838"/>
<polygon fill="#191970" stroke="#191970" points="2557.741,-86.3772 2566.899,-81.0496 2556.4176,-79.5034 2557.741,-86.3772"/>
</g>
<!-- Node36&#45;&gt;Node19 -->
<g id="edge69" class="edge">
<title>Node36&#45;&gt;Node19</title>
<path fill="none" stroke="#191970" d="M2255.0234,-128.9922C2240.6454,-118.7865 2217.266,-102.0129 2197.5,-87 2179.8673,-73.6075 2179.2738,-63.663 2158.5,-56 2051.7914,-16.6377 1248.9583,-27.9581 1135.5,-20 1124.969,-19.2613 1113.8013,-18.2717 1102.9648,-17.2016"/>
<polygon fill="#191970" stroke="#191970" points="1103.0114,-13.6883 1092.7081,-16.1566 1102.3018,-20.6523 1103.0114,-13.6883"/>
</g>
<!-- Node36&#45;&gt;Node33 -->
<g id="edge68" class="edge">
<title>Node36&#45;&gt;Node33</title>
<path fill="none" stroke="#191970" d="M2268.5,-128.9005C2268.5,-119.149 2268.5,-103.7597 2268.5,-91.3695"/>
<polygon fill="#191970" stroke="#191970" points="2272.0001,-91.0816 2268.5,-81.0817 2265.0001,-91.0817 2272.0001,-91.0816"/>
</g>
<!-- Node37 -->
<g id="node38" class="node">
<title>Node37</title>
<polygon fill="#ffffff" stroke="#bfbfbf" points="2349.5,-62 2349.5,-81 2459.5,-81 2459.5,-62 2349.5,-62"/>
<text text-anchor="middle" x="2404.5" y="-69" font-family="Helvetica,sans-Serif" font-size="10.00" fill="#000000">AMReX_Geometry.H</text>
</g>
<!-- Node36&#45;&gt;Node37 -->
<g id="edge70" class="edge">
<title>Node36&#45;&gt;Node37</title>
<path fill="none" stroke="#191970" d="M2287.9855,-128.9005C2311.0113,-117.5569 2349.5228,-98.5844 2375.9232,-85.5783"/>
<polygon fill="#191970" stroke="#191970" points="2377.6269,-88.6407 2385.0507,-81.0817 2374.5334,-82.3613 2377.6269,-88.6407"/>
</g>
</g>
</svg>
