<?xml version="1.0" encoding="UTF-8" standalone="no"?>
<!DOCTYPE svg PUBLIC "-//W3C//DTD SVG 1.1//EN"
 "http://www.w3.org/Graphics/SVG/1.1/DTD/svg11.dtd">
<!-- Generated by graphviz version 2.40.1 (20161225.0304)
 -->
<!-- Title: LinearProfile.H Pages: 1 -->
<svg width="271pt" height="196pt"
 viewBox="0.00 0.00 271.00 196.00" xmlns="http://www.w3.org/2000/svg" xmlns:xlink="http://www.w3.org/1999/xlink">
<g id="graph0" class="graph" transform="scale(1 1) rotate(0) translate(4 192)">
<title>LinearProfile.H</title>
<polygon fill="#ffffff" stroke="transparent" points="-4,4 -4,-192 267,-192 267,4 -4,4"/>
<!-- Node3 -->
<g id="node1" class="node">
<title>Node3</title>
<polygon fill="#bfbfbf" stroke="#000000" points="104.5,-168.5 104.5,-187.5 185.5,-187.5 185.5,-168.5 104.5,-168.5"/>
<text text-anchor="middle" x="145" y="-175.5" font-family="Helvetica,sans-Serif" font-size="10.00" fill="#000000">LinearProfile.H</text>
</g>
<!-- Node4 -->
<g id="node2" class="node">
<title>Node4</title>
<g id="a_node2"><a xlink:href="velocity__bcs_8_h.html" target="_top" xlink:title="velocity_bcs.H">
<polygon fill="#ffffff" stroke="#000000" points="0,-112.5 0,-131.5 82,-131.5 82,-112.5 0,-112.5"/>
<text text-anchor="middle" x="41" y="-119.5" font-family="Helvetica,sans-Serif" font-size="10.00" fill="#000000">velocity_bcs.H</text>
</a>
</g>
</g>
<!-- Node3&#45;&gt;Node4 -->
<g id="edge1" class="edge">
<title>Node3&#45;&gt;Node4</title>
<path fill="none" stroke="#191970" d="M117.9971,-163.46C99.3864,-153.4388 75.1701,-140.3993 58.9078,-131.6427"/>
<polygon fill="#191970" stroke="#191970" points="116.4205,-166.5861 126.8846,-168.2455 119.7392,-160.4228 116.4205,-166.5861"/>
</g>
<!-- Node7 -->
<g id="node5" class="node">
<title>Node7</title>
<g id="a_node5"><a xlink:href="_linear_profile_8cpp.html" target="_top" xlink:title="LinearProfile.cpp">
<polygon fill="#ffffff" stroke="#000000" points="100.5,-112.5 100.5,-131.5 189.5,-131.5 189.5,-112.5 100.5,-112.5"/>
<text text-anchor="middle" x="145" y="-119.5" font-family="Helvetica,sans-Serif" font-size="10.00" fill="#000000">LinearProfile.cpp</text>
</a>
</g>
</g>
<!-- Node3&#45;&gt;Node7 -->
<g id="edge4" class="edge">
<title>Node3&#45;&gt;Node7</title>
<path fill="none" stroke="#191970" d="M145,-158.1575C145,-149.155 145,-138.9199 145,-131.6427"/>
<polygon fill="#191970" stroke="#191970" points="141.5001,-158.2455 145,-168.2455 148.5001,-158.2456 141.5001,-158.2455"/>
</g>
<!-- Node8 -->
<g id="node6" class="node">
<title>Node8</title>
<g id="a_node6"><a xlink:href="_u_d_f_8cpp.html" target="_top" xlink:title="UDF.cpp">
<polygon fill="#ffffff" stroke="#000000" points="207,-112.5 207,-131.5 263,-131.5 263,-112.5 207,-112.5"/>
<text text-anchor="middle" x="235" y="-119.5" font-family="Helvetica,sans-Serif" font-size="10.00" fill="#000000">UDF.cpp</text>
</a>
</g>
</g>
<!-- Node3&#45;&gt;Node8 -->
<g id="edge5" class="edge">
<title>Node3&#45;&gt;Node8</title>
<path fill="none" stroke="#191970" d="M169.4784,-162.769C185.4266,-152.8456 205.751,-140.1994 219.5028,-131.6427"/>
<polygon fill="#191970" stroke="#191970" points="167.3183,-159.9908 160.6768,-168.2455 171.0165,-165.9342 167.3183,-159.9908"/>
</g>
<!-- Node5 -->
<g id="node3" class="node">
<title>Node5</title>
<g id="a_node3"><a xlink:href="icns__bcop_8_h.html" target="_top" xlink:title="icns_bcop.H">
<polygon fill="#ffffff" stroke="#000000" points="5.5,-56.5 5.5,-75.5 76.5,-75.5 76.5,-56.5 5.5,-56.5"/>
<text text-anchor="middle" x="41" y="-63.5" font-family="Helvetica,sans-Serif" font-size="10.00" fill="#000000">icns_bcop.H</text>
</a>
</g>
</g>
<!-- Node4&#45;&gt;Node5 -->
<g id="edge2" class="edge">
<title>Node4&#45;&gt;Node5</title>
<path fill="none" stroke="#191970" d="M41,-102.1575C41,-93.155 41,-82.9199 41,-75.6427"/>
<polygon fill="#191970" stroke="#191970" points="37.5001,-102.2455 41,-112.2455 44.5001,-102.2456 37.5001,-102.2455"/>
</g>
<!-- Node6 -->
<g id="node4" class="node">
<title>Node6</title>
<g id="a_node4"><a xlink:href="icns_8cpp.html" target="_top" xlink:title="icns.cpp">
<polygon fill="#ffffff" stroke="#000000" points="14.5,-.5 14.5,-19.5 67.5,-19.5 67.5,-.5 14.5,-.5"/>
<text text-anchor="middle" x="41" y="-7.5" font-family="Helvetica,sans-Serif" font-size="10.00" fill="#000000">icns.cpp</text>
</a>
</g>
</g>
<!-- Node5&#45;&gt;Node6 -->
<g id="edge3" class="edge">
<title>Node5&#45;&gt;Node6</title>
<path fill="none" stroke="#191970" d="M41,-46.1575C41,-37.155 41,-26.9199 41,-19.6427"/>
<polygon fill="#191970" stroke="#191970" points="37.5001,-46.2455 41,-56.2455 44.5001,-46.2456 37.5001,-46.2455"/>
</g>
</g>
</svg>
