<?xml version="1.0" encoding="UTF-8" standalone="no"?>
<!DOCTYPE svg PUBLIC "-//W3C//DTD SVG 1.1//EN"
 "http://www.w3.org/Graphics/SVG/1.1/DTD/svg11.dtd">
<!-- Generated by graphviz version 2.40.1 (20161225.0304)
 -->
<!-- Title: MLMGOptions.H Pages: 1 -->
<svg width="1442pt" height="319pt"
 viewBox="0.00 0.00 1442.00 319.00" xmlns="http://www.w3.org/2000/svg" xmlns:xlink="http://www.w3.org/1999/xlink">
<g id="graph0" class="graph" transform="scale(1 1) rotate(0) translate(4 315)">
<title>MLMGOptions.H</title>
<polygon fill="#ffffff" stroke="transparent" points="-4,4 -4,-315 1438,-315 1438,4 -4,4"/>
<!-- Node5 -->
<g id="node1" class="node">
<title>Node5</title>
<polygon fill="#bfbfbf" stroke="#000000" points="409,-291.5 409,-310.5 499,-310.5 499,-291.5 409,-291.5"/>
<text text-anchor="middle" x="454" y="-298.5" font-family="Helvetica,sans-Serif" font-size="10.00" fill="#000000">MLMGOptions.H</text>
</g>
<!-- Node6 -->
<g id="node2" class="node">
<title>Node6</title>
<g id="a_node2"><a xlink:href="_m_l_m_g_options_8cpp.html" target="_top" xlink:title="MLMGOptions.cpp">
<polygon fill="#ffffff" stroke="#000000" points="184,-230 184,-249 282,-249 282,-230 184,-230"/>
<text text-anchor="middle" x="233" y="-237" font-family="Helvetica,sans-Serif" font-size="10.00" fill="#000000">MLMGOptions.cpp</text>
</a>
</g>
</g>
<!-- Node5&#45;&gt;Node6 -->
<g id="edge1" class="edge">
<title>Node5&#45;&gt;Node6</title>
<path fill="none" stroke="#191970" d="M409.7888,-288.6969C367.8242,-277.0189 305.6255,-259.7103 267.2888,-249.0419"/>
<polygon fill="#191970" stroke="#191970" points="408.8965,-292.0815 419.4688,-291.3906 410.7732,-285.3377 408.8965,-292.0815"/>
</g>
<!-- Node7 -->
<g id="node3" class="node">
<title>Node7</title>
<g id="a_node3"><a xlink:href="_diffusion_ops_8_h.html" target="_top" xlink:title="DiffusionOps.H">
<polygon fill="#ffffff" stroke="#000000" points="300,-230 300,-249 384,-249 384,-230 300,-230"/>
<text text-anchor="middle" x="342" y="-237" font-family="Helvetica,sans-Serif" font-size="10.00" fill="#000000">DiffusionOps.H</text>
</a>
</g>
</g>
<!-- Node5&#45;&gt;Node7 -->
<g id="edge2" class="edge">
<title>Node5&#45;&gt;Node7</title>
<path fill="none" stroke="#191970" d="M427.7227,-286.571C406.6453,-274.9972 377.658,-259.0801 359.3771,-249.0419"/>
<polygon fill="#191970" stroke="#191970" points="426.0499,-289.6453 436.5,-291.3906 429.4192,-283.5095 426.0499,-289.6453"/>
</g>
<!-- Node16 -->
<g id="node12" class="node">
<title>Node16</title>
<g id="a_node12"><a xlink:href="icns__advection_8cpp.html" target="_top" xlink:title="icns_advection.cpp">
<polygon fill="#ffffff" stroke="#000000" points="477.5,-.5 477.5,-19.5 578.5,-19.5 578.5,-.5 477.5,-.5"/>
<text text-anchor="middle" x="528" y="-7.5" font-family="Helvetica,sans-Serif" font-size="10.00" fill="#000000">icns_advection.cpp</text>
</a>
</g>
</g>
<!-- Node5&#45;&gt;Node16 -->
<g id="edge40" class="edge">
<title>Node5&#45;&gt;Node16</title>
<path fill="none" stroke="#191970" d="M481.3158,-286.3619C514.1825,-266.535 565,-227.8235 565,-178 565,-178 565,-178 565,-122 565,-82.2726 543.7516,-38.4377 533.4595,-19.5354"/>
<polygon fill="#191970" stroke="#191970" points="479.4611,-283.3916 472.5789,-291.4468 482.9823,-289.4416 479.4611,-283.3916"/>
</g>
<!-- Node35 -->
<g id="node31" class="node">
<title>Node35</title>
<g id="a_node31"><a xlink:href="incflo__apply__nodal__projection_8cpp.html" target="_top" xlink:title="incflo_apply_nodal\l_projection.cpp">
<polygon fill="#ffffff" stroke="#000000" points="593.5,-224.5 593.5,-254.5 690.5,-254.5 690.5,-224.5 593.5,-224.5"/>
<text text-anchor="start" x="601.5" y="-242.5" font-family="Helvetica,sans-Serif" font-size="10.00" fill="#000000">incflo_apply_nodal</text>
<text text-anchor="middle" x="642" y="-231.5" font-family="Helvetica,sans-Serif" font-size="10.00" fill="#000000">_projection.cpp</text>
</a>
</g>
</g>
<!-- Node5&#45;&gt;Node35 -->
<g id="edge41" class="edge">
<title>Node5&#45;&gt;Node35</title>
<path fill="none" stroke="#191970" d="M493.0643,-288.221C523.0228,-278.4207 564.451,-264.8684 596.01,-254.5446"/>
<polygon fill="#191970" stroke="#191970" points="491.7912,-284.9549 483.375,-291.3906 493.9676,-291.6079 491.7912,-284.9549"/>
</g>
<!-- Node8 -->
<g id="node4" class="node">
<title>Node8</title>
<g id="a_node4"><a xlink:href="_p_d_e_8_h.html" target="_top" xlink:title="PDE.H">
<polygon fill="#ffffff" stroke="#000000" points="732,-168.5 732,-187.5 780,-187.5 780,-168.5 732,-168.5"/>
<text text-anchor="middle" x="756" y="-175.5" font-family="Helvetica,sans-Serif" font-size="10.00" fill="#000000">PDE.H</text>
</a>
</g>
</g>
<!-- Node7&#45;&gt;Node8 -->
<g id="edge3" class="edge">
<title>Node7&#45;&gt;Node8</title>
<path fill="none" stroke="#191970" d="M394.3802,-231.7189C484.6687,-218.3065 666.2204,-191.3368 731.7302,-181.6053"/>
<polygon fill="#191970" stroke="#191970" points="393.7368,-228.276 384.3597,-233.2074 394.7655,-235.2 393.7368,-228.276"/>
</g>
<!-- Node14 -->
<g id="node10" class="node">
<title>Node14</title>
<g id="a_node10"><a xlink:href="icns__ops_8_h.html" target="_top" xlink:title="icns_ops.H">
<polygon fill="#ffffff" stroke="#000000" points="0,-56.5 0,-75.5 66,-75.5 66,-56.5 0,-56.5"/>
<text text-anchor="middle" x="33" y="-63.5" font-family="Helvetica,sans-Serif" font-size="10.00" fill="#000000">icns_ops.H</text>
</a>
</g>
</g>
<!-- Node7&#45;&gt;Node14 -->
<g id="edge38" class="edge">
<title>Node7&#45;&gt;Node14</title>
<path fill="none" stroke="#191970" d="M319.0651,-224.1862C296.479,-209.2975 260.8364,-186.3127 229,-168 165.8225,-131.6595 88.459,-93.076 52.7677,-75.5969"/>
<polygon fill="#191970" stroke="#191970" points="317.3428,-227.2435 327.6131,-229.8458 321.2072,-221.4068 317.3428,-227.2435"/>
</g>
<!-- Node17 -->
<g id="node13" class="node">
<title>Node17</title>
<g id="a_node13"><a xlink:href="icns__diffusion_8_h.html" target="_top" xlink:title="icns_diffusion.H">
<polygon fill="#ffffff" stroke="#000000" points="84.5,-56.5 84.5,-75.5 171.5,-75.5 171.5,-56.5 84.5,-56.5"/>
<text text-anchor="middle" x="128" y="-63.5" font-family="Helvetica,sans-Serif" font-size="10.00" fill="#000000">icns_diffusion.H</text>
</a>
</g>
</g>
<!-- Node7&#45;&gt;Node17 -->
<g id="edge39" class="edge">
<title>Node7&#45;&gt;Node17</title>
<path fill="none" stroke="#191970" d="M334.9455,-220.6C323.675,-192.8963 299.035,-141.3748 262,-112 235.8882,-91.2891 199.8774,-79.6155 171.7619,-73.2146"/>
<polygon fill="#191970" stroke="#191970" points="331.7035,-221.92 338.6084,-229.9558 338.2218,-219.368 331.7035,-221.92"/>
</g>
<!-- Node34 -->
<g id="node30" class="node">
<title>Node34</title>
<g id="a_node30"><a xlink:href="_diffusion_ops_8cpp.html" target="_top" xlink:title="DiffusionOps.cpp">
<polygon fill="#ffffff" stroke="#000000" points="128,-168.5 128,-187.5 220,-187.5 220,-168.5 128,-168.5"/>
<text text-anchor="middle" x="174" y="-175.5" font-family="Helvetica,sans-Serif" font-size="10.00" fill="#000000">DiffusionOps.cpp</text>
</a>
</g>
</g>
<!-- Node7&#45;&gt;Node34 -->
<g id="edge37" class="edge">
<title>Node7&#45;&gt;Node34</title>
<path fill="none" stroke="#191970" d="M306.3523,-226.4504C274.5038,-214.7916 228.5937,-197.9852 200.0657,-187.5419"/>
<polygon fill="#191970" stroke="#191970" points="305.1562,-229.7396 315.75,-229.8906 307.5626,-223.1662 305.1562,-229.7396"/>
</g>
<!-- Node9 -->
<g id="node5" class="node">
<title>Node9</title>
<g id="a_node5"><a xlink:href="density_8_h.html" target="_top" xlink:title="density.H">
<polygon fill="#ffffff" stroke="#000000" points="1072.5,-112.5 1072.5,-131.5 1131.5,-131.5 1131.5,-112.5 1072.5,-112.5"/>
<text text-anchor="middle" x="1102" y="-119.5" font-family="Helvetica,sans-Serif" font-size="10.00" fill="#000000">density.H</text>
</a>
</g>
</g>
<!-- Node8&#45;&gt;Node9 -->
<g id="edge4" class="edge">
<title>Node8&#45;&gt;Node9</title>
<path fill="none" stroke="#191970" d="M790.2019,-172.4644C858.0038,-161.4907 1008.4161,-137.1465 1072.3355,-126.8012"/>
<polygon fill="#191970" stroke="#191970" points="789.3677,-169.0538 780.0553,-174.1066 790.4861,-175.9639 789.3677,-169.0538"/>
</g>
<!-- Node12 -->
<g id="node8" class="node">
<title>Node12</title>
<g id="a_node8"><a xlink:href="icns_8_h.html" target="_top" xlink:title="icns.H">
<polygon fill="#ffffff" stroke="#000000" points="314.5,-112.5 314.5,-131.5 359.5,-131.5 359.5,-112.5 314.5,-112.5"/>
<text text-anchor="middle" x="337" y="-119.5" font-family="Helvetica,sans-Serif" font-size="10.00" fill="#000000">icns.H</text>
</a>
</g>
</g>
<!-- Node8&#45;&gt;Node12 -->
<g id="edge8" class="edge">
<title>Node8&#45;&gt;Node12</title>
<path fill="none" stroke="#191970" d="M721.8255,-173.4325C638.9565,-162.3569 429.0334,-134.3004 359.6488,-125.027"/>
<polygon fill="#191970" stroke="#191970" points="721.5923,-176.9324 731.9678,-174.7881 722.5196,-169.9941 721.5923,-176.9324"/>
</g>
<!-- Node20 -->
<g id="node16" class="node">
<title>Node20</title>
<g id="a_node16"><a xlink:href="levelset_8_h.html" target="_top" xlink:title="levelset.H">
<polygon fill="#ffffff" stroke="#000000" points="769.5,-112.5 769.5,-131.5 830.5,-131.5 830.5,-112.5 769.5,-112.5"/>
<text text-anchor="middle" x="800" y="-119.5" font-family="Helvetica,sans-Serif" font-size="10.00" fill="#000000">levelset.H</text>
</a>
</g>
</g>
<!-- Node8&#45;&gt;Node20 -->
<g id="edge20" class="edge">
<title>Node8&#45;&gt;Node20</title>
<path fill="none" stroke="#191970" d="M769.9769,-160.2112C777.4129,-150.7472 786.266,-139.4797 792.4236,-131.6427"/>
<polygon fill="#191970" stroke="#191970" points="767.0903,-158.22 763.6642,-168.2455 772.5946,-162.5447 767.0903,-158.22"/>
</g>
<!-- Node23 -->
<g id="node19" class="node">
<title>Node23</title>
<g id="a_node19"><a xlink:href="_s_d_r_8_h.html" target="_top" xlink:title="SDR.H">
<polygon fill="#ffffff" stroke="#000000" points="601.5,-112.5 601.5,-131.5 650.5,-131.5 650.5,-112.5 601.5,-112.5"/>
<text text-anchor="middle" x="626" y="-119.5" font-family="Helvetica,sans-Serif" font-size="10.00" fill="#000000">SDR.H</text>
</a>
</g>
</g>
<!-- Node8&#45;&gt;Node23 -->
<g id="edge24" class="edge">
<title>Node8&#45;&gt;Node23</title>
<path fill="none" stroke="#191970" d="M724.3898,-164.3833C700.7465,-154.1985 669.0124,-140.5284 648.0562,-131.5011"/>
<polygon fill="#191970" stroke="#191970" points="723.0834,-167.6314 733.6522,-168.3733 725.8528,-161.2025 723.0834,-167.6314"/>
</g>
<!-- Node25 -->
<g id="node21" class="node">
<title>Node25</title>
<g id="a_node21"><a xlink:href="temperature_8_h.html" target="_top" xlink:title="temperature.H">
<polygon fill="#ffffff" stroke="#000000" points="672.5,-112.5 672.5,-131.5 751.5,-131.5 751.5,-112.5 672.5,-112.5"/>
<text text-anchor="middle" x="712" y="-119.5" font-family="Helvetica,sans-Serif" font-size="10.00" fill="#000000">temperature.H</text>
</a>
</g>
</g>
<!-- Node8&#45;&gt;Node25 -->
<g id="edge26" class="edge">
<title>Node8&#45;&gt;Node25</title>
<path fill="none" stroke="#191970" d="M742.0231,-160.2112C734.5871,-150.7472 725.734,-139.4797 719.5764,-131.6427"/>
<polygon fill="#191970" stroke="#191970" points="739.4054,-162.5447 748.3358,-168.2455 744.9097,-158.22 739.4054,-162.5447"/>
</g>
<!-- Node27 -->
<g id="node23" class="node">
<title>Node27</title>
<g id="a_node23"><a xlink:href="_t_k_e_8_h.html" target="_top" xlink:title="TKE.H">
<polygon fill="#ffffff" stroke="#000000" points="932.5,-112.5 932.5,-131.5 979.5,-131.5 979.5,-112.5 932.5,-112.5"/>
<text text-anchor="middle" x="956" y="-119.5" font-family="Helvetica,sans-Serif" font-size="10.00" fill="#000000">TKE.H</text>
</a>
</g>
</g>
<!-- Node8&#45;&gt;Node27 -->
<g id="edge28" class="edge">
<title>Node8&#45;&gt;Node27</title>
<path fill="none" stroke="#191970" d="M789.8195,-168.5305C830.3178,-157.191 897.0968,-138.4929 932.4108,-128.605"/>
<polygon fill="#191970" stroke="#191970" points="788.8106,-165.1783 780.1247,-171.2451 790.698,-171.9191 788.8106,-165.1783"/>
</g>
<!-- Node30 -->
<g id="node26" class="node">
<title>Node30</title>
<g id="a_node26"><a xlink:href="vof_8_h.html" target="_top" xlink:title="vof.H">
<polygon fill="#ffffff" stroke="#000000" points="1267.5,-112.5 1267.5,-131.5 1308.5,-131.5 1308.5,-112.5 1267.5,-112.5"/>
<text text-anchor="middle" x="1288" y="-119.5" font-family="Helvetica,sans-Serif" font-size="10.00" fill="#000000">vof.H</text>
</a>
</g>
</g>
<!-- Node8&#45;&gt;Node30 -->
<g id="edge31" class="edge">
<title>Node8&#45;&gt;Node30</title>
<path fill="none" stroke="#191970" d="M790.2307,-174.3968C891.3667,-163.7509 1186.7813,-132.6546 1267.4443,-124.1638"/>
<polygon fill="#191970" stroke="#191970" points="789.82,-170.9206 780.2413,-175.4483 790.5528,-177.8821 789.82,-170.9206"/>
</g>
<!-- Node10 -->
<g id="node6" class="node">
<title>Node10</title>
<g id="a_node6"><a xlink:href="density_8cpp.html" target="_top" xlink:title="density.cpp">
<polygon fill="#ffffff" stroke="#000000" points="1102.5,-.5 1102.5,-19.5 1169.5,-19.5 1169.5,-.5 1102.5,-.5"/>
<text text-anchor="middle" x="1136" y="-7.5" font-family="Helvetica,sans-Serif" font-size="10.00" fill="#000000">density.cpp</text>
</a>
</g>
</g>
<!-- Node9&#45;&gt;Node10 -->
<g id="edge5" class="edge">
<title>Node9&#45;&gt;Node10</title>
<path fill="none" stroke="#191970" d="M1107.4796,-102.2906C1111.1822,-89.1445 1116.2447,-71.4955 1121,-56 1124.8444,-43.4726 1129.5735,-29.1315 1132.6815,-19.8389"/>
<polygon fill="#191970" stroke="#191970" points="1104.0511,-101.5549 1104.7259,-112.1282 1110.792,-103.4419 1104.0511,-101.5549"/>
</g>
<!-- Node11 -->
<g id="node7" class="node">
<title>Node11</title>
<g id="a_node7"><a xlink:href="density__ops_8_h.html" target="_top" xlink:title="density_ops.H">
<polygon fill="#ffffff" stroke="#000000" points="1130,-56.5 1130,-75.5 1210,-75.5 1210,-56.5 1130,-56.5"/>
<text text-anchor="middle" x="1170" y="-63.5" font-family="Helvetica,sans-Serif" font-size="10.00" fill="#000000">density_ops.H</text>
</a>
</g>
</g>
<!-- Node9&#45;&gt;Node11 -->
<g id="edge6" class="edge">
<title>Node9&#45;&gt;Node11</title>
<path fill="none" stroke="#191970" d="M1121.8596,-105.645C1133.6858,-95.9058 1148.2892,-83.8795 1158.291,-75.6427"/>
<polygon fill="#191970" stroke="#191970" points="1119.339,-103.1867 1113.8447,-112.2455 1123.789,-108.5902 1119.339,-103.1867"/>
</g>
<!-- Node11&#45;&gt;Node10 -->
<g id="edge7" class="edge">
<title>Node11&#45;&gt;Node10</title>
<path fill="none" stroke="#191970" d="M1158.8465,-47.6296C1153.1753,-38.2887 1146.5155,-27.3197 1141.8545,-19.6427"/>
<polygon fill="#191970" stroke="#191970" points="1155.8961,-49.5141 1164.0777,-56.2455 1161.8796,-45.8812 1155.8961,-49.5141"/>
</g>
<!-- Node13 -->
<g id="node9" class="node">
<title>Node13</title>
<g id="a_node9"><a xlink:href="icns_8cpp.html" target="_top" xlink:title="icns.cpp">
<polygon fill="#ffffff" stroke="#000000" points="173.5,-.5 173.5,-19.5 226.5,-19.5 226.5,-.5 173.5,-.5"/>
<text text-anchor="middle" x="200" y="-7.5" font-family="Helvetica,sans-Serif" font-size="10.00" fill="#000000">icns.cpp</text>
</a>
</g>
</g>
<!-- Node12&#45;&gt;Node13 -->
<g id="edge9" class="edge">
<title>Node12&#45;&gt;Node13</title>
<path fill="none" stroke="#191970" d="M304.6212,-112.9134C273.9443,-103.6994 230.8511,-88.9871 219,-76 204.5329,-60.1461 201.0168,-33.9573 200.2042,-19.8051"/>
<polygon fill="#191970" stroke="#191970" points="303.9043,-116.3508 314.4856,-115.8169 305.8809,-109.6356 303.9043,-116.3508"/>
</g>
<!-- Node12&#45;&gt;Node14 -->
<g id="edge10" class="edge">
<title>Node12&#45;&gt;Node14</title>
<path fill="none" stroke="#191970" d="M304.3433,-116.912C254.6555,-109.0249 157.1627,-92.9781 75,-76 72.2106,-75.4236 69.324,-74.798 66.4303,-74.1505"/>
<polygon fill="#191970" stroke="#191970" points="304.0602,-120.4106 314.4838,-118.5135 305.1522,-113.4963 304.0602,-120.4106"/>
</g>
<!-- Node15 -->
<g id="node11" class="node">
<title>Node15</title>
<g id="a_node11"><a xlink:href="icns__advection_8_h.html" target="_top" xlink:title="icns_advection.H">
<polygon fill="#ffffff" stroke="#000000" points="445,-56.5 445,-75.5 537,-75.5 537,-56.5 445,-56.5"/>
<text text-anchor="middle" x="491" y="-63.5" font-family="Helvetica,sans-Serif" font-size="10.00" fill="#000000">icns_advection.H</text>
</a>
</g>
</g>
<!-- Node12&#45;&gt;Node15 -->
<g id="edge12" class="edge">
<title>Node12&#45;&gt;Node15</title>
<path fill="none" stroke="#191970" d="M369.1991,-110.2912C397.5815,-99.9704 438.4167,-85.1212 464.8297,-75.5165"/>
<polygon fill="#191970" stroke="#191970" points="367.925,-107.0302 359.7232,-113.737 370.3173,-113.6088 367.925,-107.0302"/>
</g>
<!-- Node12&#45;&gt;Node17 -->
<g id="edge15" class="edge">
<title>Node12&#45;&gt;Node17</title>
<path fill="none" stroke="#191970" d="M304.4157,-113.1883C302.9233,-112.7864 301.4458,-112.3887 300,-112 252.9854,-99.3599 198.7165,-84.8614 163.9151,-75.5757"/>
<polygon fill="#191970" stroke="#191970" points="303.7379,-116.6305 314.3044,-115.8559 305.5611,-109.8721 303.7379,-116.6305"/>
</g>
<!-- Node18 -->
<g id="node14" class="node">
<title>Node18</title>
<g id="a_node14"><a xlink:href="icns__bcop_8_h.html" target="_top" xlink:title="icns_bcop.H">
<polygon fill="#ffffff" stroke="#000000" points="355.5,-56.5 355.5,-75.5 426.5,-75.5 426.5,-56.5 355.5,-56.5"/>
<text text-anchor="middle" x="391" y="-63.5" font-family="Helvetica,sans-Serif" font-size="10.00" fill="#000000">icns_bcop.H</text>
</a>
</g>
</g>
<!-- Node12&#45;&gt;Node18 -->
<g id="edge17" class="edge">
<title>Node12&#45;&gt;Node18</title>
<path fill="none" stroke="#191970" d="M353.5969,-104.7884C362.8347,-95.2085 373.9904,-83.6396 381.7017,-75.6427"/>
<polygon fill="#191970" stroke="#191970" points="350.828,-102.6176 346.4061,-112.2455 355.8669,-107.4766 350.828,-102.6176"/>
</g>
<!-- Node19 -->
<g id="node15" class="node">
<title>Node19</title>
<g id="a_node15"><a xlink:href="_power_law_profile_8cpp.html" target="_top" xlink:title="PowerLawProfile.cpp">
<polygon fill="#ffffff" stroke="#000000" points="228.5,-56.5 228.5,-75.5 337.5,-75.5 337.5,-56.5 228.5,-56.5"/>
<text text-anchor="middle" x="283" y="-63.5" font-family="Helvetica,sans-Serif" font-size="10.00" fill="#000000">PowerLawProfile.cpp</text>
</a>
</g>
</g>
<!-- Node12&#45;&gt;Node19 -->
<g id="edge19" class="edge">
<title>Node12&#45;&gt;Node19</title>
<path fill="none" stroke="#191970" d="M320.4031,-104.7884C311.1653,-95.2085 300.0096,-83.6396 292.2983,-75.6427"/>
<polygon fill="#191970" stroke="#191970" points="318.1331,-107.4766 327.5939,-112.2455 323.172,-102.6176 318.1331,-107.4766"/>
</g>
<!-- Node14&#45;&gt;Node13 -->
<g id="edge11" class="edge">
<title>Node14&#45;&gt;Node13</title>
<path fill="none" stroke="#191970" d="M71.3806,-53.1299C102.5789,-42.6681 145.7876,-28.179 173.319,-18.9469"/>
<polygon fill="#191970" stroke="#191970" points="70.0767,-49.8755 61.7083,-56.3733 72.3022,-56.5123 70.0767,-49.8755"/>
</g>
<!-- Node15&#45;&gt;Node13 -->
<g id="edge13" class="edge">
<title>Node15&#45;&gt;Node13</title>
<path fill="none" stroke="#191970" d="M434.7903,-55.183C372.226,-43.1431 273.7512,-24.1927 226.7252,-15.143"/>
<polygon fill="#191970" stroke="#191970" points="434.4089,-58.6738 444.8902,-57.1266 435.7318,-51.7999 434.4089,-58.6738"/>
</g>
<!-- Node15&#45;&gt;Node16 -->
<g id="edge14" class="edge">
<title>Node15&#45;&gt;Node16</title>
<path fill="none" stroke="#191970" d="M503.1376,-47.6296C509.3093,-38.2887 516.5566,-27.3197 521.6289,-19.6427"/>
<polygon fill="#191970" stroke="#191970" points="500.0373,-45.9728 497.4449,-56.2455 505.8777,-49.8316 500.0373,-45.9728"/>
</g>
<!-- Node17&#45;&gt;Node13 -->
<g id="edge16" class="edge">
<title>Node17&#45;&gt;Node13</title>
<path fill="none" stroke="#191970" d="M148.664,-49.928C161.2489,-40.1397 176.9092,-27.9595 187.6023,-19.6427"/>
<polygon fill="#191970" stroke="#191970" points="146.2862,-47.3434 140.5414,-56.2455 150.5838,-52.8688 146.2862,-47.3434"/>
</g>
<!-- Node18&#45;&gt;Node13 -->
<g id="edge18" class="edge">
<title>Node18&#45;&gt;Node13</title>
<path fill="none" stroke="#191970" d="M348.0958,-53.4208C310.8237,-42.4928 258.0183,-27.0106 226.5664,-17.7891"/>
<polygon fill="#191970" stroke="#191970" points="347.5851,-56.9183 358.1659,-56.3733 349.5546,-50.2011 347.5851,-56.9183"/>
</g>
<!-- Node21 -->
<g id="node17" class="node">
<title>Node21</title>
<g id="a_node17"><a xlink:href="levelset_8cpp.html" target="_top" xlink:title="levelset.cpp">
<polygon fill="#ffffff" stroke="#000000" points="783.5,-.5 783.5,-19.5 852.5,-19.5 852.5,-.5 783.5,-.5"/>
<text text-anchor="middle" x="818" y="-7.5" font-family="Helvetica,sans-Serif" font-size="10.00" fill="#000000">levelset.cpp</text>
</a>
</g>
</g>
<!-- Node20&#45;&gt;Node21 -->
<g id="edge21" class="edge">
<title>Node20&#45;&gt;Node21</title>
<path fill="none" stroke="#191970" d="M799.5161,-101.7906C799.5448,-88.6451 800.2316,-71.1861 803,-56 805.3501,-43.1085 810.4061,-28.847 813.9975,-19.6722"/>
<polygon fill="#191970" stroke="#191970" points="796.0191,-102.1043 799.6245,-112.0667 803.0187,-102.0303 796.0191,-102.1043"/>
</g>
<!-- Node22 -->
<g id="node18" class="node">
<title>Node22</title>
<g id="a_node18"><a xlink:href="levelset__ops_8_h.html" target="_top" xlink:title="levelset_ops.H">
<polygon fill="#ffffff" stroke="#000000" points="812,-56.5 812,-75.5 894,-75.5 894,-56.5 812,-56.5"/>
<text text-anchor="middle" x="853" y="-63.5" font-family="Helvetica,sans-Serif" font-size="10.00" fill="#000000">levelset_ops.H</text>
</a>
</g>
</g>
<!-- Node20&#45;&gt;Node22 -->
<g id="edge22" class="edge">
<title>Node20&#45;&gt;Node22</title>
<path fill="none" stroke="#191970" d="M816.2896,-104.7884C825.3562,-95.2085 836.3054,-83.6396 843.8739,-75.6427"/>
<polygon fill="#191970" stroke="#191970" points="813.5637,-102.5767 809.2319,-112.2455 818.6478,-107.3884 813.5637,-102.5767"/>
</g>
<!-- Node22&#45;&gt;Node21 -->
<g id="edge23" class="edge">
<title>Node22&#45;&gt;Node21</title>
<path fill="none" stroke="#191970" d="M841.5185,-47.6296C835.6804,-38.2887 828.8248,-27.3197 824.0267,-19.6427"/>
<polygon fill="#191970" stroke="#191970" points="838.6354,-49.6206 846.9035,-56.2455 844.5714,-45.9105 838.6354,-49.6206"/>
</g>
<!-- Node24 -->
<g id="node20" class="node">
<title>Node24</title>
<g id="a_node20"><a xlink:href="_s_d_r_8cpp.html" target="_top" xlink:title="SDR.cpp">
<polygon fill="#ffffff" stroke="#000000" points="593.5,-56.5 593.5,-75.5 650.5,-75.5 650.5,-56.5 593.5,-56.5"/>
<text text-anchor="middle" x="622" y="-63.5" font-family="Helvetica,sans-Serif" font-size="10.00" fill="#000000">SDR.cpp</text>
</a>
</g>
</g>
<!-- Node23&#45;&gt;Node24 -->
<g id="edge25" class="edge">
<title>Node23&#45;&gt;Node24</title>
<path fill="none" stroke="#191970" d="M624.5827,-102.1575C623.9396,-93.155 623.2086,-82.9199 622.6888,-75.6427"/>
<polygon fill="#191970" stroke="#191970" points="621.0996,-102.5204 625.3033,-112.2455 628.0818,-102.0216 621.0996,-102.5204"/>
</g>
<!-- Node26 -->
<g id="node22" class="node">
<title>Node26</title>
<g id="a_node22"><a xlink:href="temperature_8cpp.html" target="_top" xlink:title="temperature.cpp">
<polygon fill="#ffffff" stroke="#000000" points="668.5,-56.5 668.5,-75.5 755.5,-75.5 755.5,-56.5 668.5,-56.5"/>
<text text-anchor="middle" x="712" y="-63.5" font-family="Helvetica,sans-Serif" font-size="10.00" fill="#000000">temperature.cpp</text>
</a>
</g>
</g>
<!-- Node25&#45;&gt;Node26 -->
<g id="edge27" class="edge">
<title>Node25&#45;&gt;Node26</title>
<path fill="none" stroke="#191970" d="M712,-102.1575C712,-93.155 712,-82.9199 712,-75.6427"/>
<polygon fill="#191970" stroke="#191970" points="708.5001,-102.2455 712,-112.2455 715.5001,-102.2456 708.5001,-102.2455"/>
</g>
<!-- Node28 -->
<g id="node24" class="node">
<title>Node28</title>
<g id="a_node24"><a xlink:href="_t_k_e_8cpp.html" target="_top" xlink:title="TKE.cpp">
<polygon fill="#ffffff" stroke="#000000" points="1018.5,-56.5 1018.5,-75.5 1073.5,-75.5 1073.5,-56.5 1018.5,-56.5"/>
<text text-anchor="middle" x="1046" y="-63.5" font-family="Helvetica,sans-Serif" font-size="10.00" fill="#000000">TKE.cpp</text>
</a>
</g>
</g>
<!-- Node27&#45;&gt;Node28 -->
<g id="edge29" class="edge">
<title>Node27&#45;&gt;Node28</title>
<path fill="none" stroke="#191970" d="M980.4784,-106.769C996.4266,-96.8456 1016.751,-84.1994 1030.5028,-75.6427"/>
<polygon fill="#191970" stroke="#191970" points="978.3183,-103.9908 971.6768,-112.2455 982.0165,-109.9342 978.3183,-103.9908"/>
</g>
<!-- Node29 -->
<g id="node25" class="node">
<title>Node29</title>
<g id="a_node25"><a xlink:href="_one_eq_ksgs_8cpp.html" target="_top" xlink:title="OneEqKsgs.cpp">
<polygon fill="#ffffff" stroke="#000000" points="912,-56.5 912,-75.5 1000,-75.5 1000,-56.5 912,-56.5"/>
<text text-anchor="middle" x="956" y="-63.5" font-family="Helvetica,sans-Serif" font-size="10.00" fill="#000000">OneEqKsgs.cpp</text>
</a>
</g>
</g>
<!-- Node27&#45;&gt;Node29 -->
<g id="edge30" class="edge">
<title>Node27&#45;&gt;Node29</title>
<path fill="none" stroke="#191970" d="M956,-102.1575C956,-93.155 956,-82.9199 956,-75.6427"/>
<polygon fill="#191970" stroke="#191970" points="952.5001,-102.2455 956,-112.2455 959.5001,-102.2456 952.5001,-102.2455"/>
</g>
<!-- Node31 -->
<g id="node27" class="node">
<title>Node31</title>
<g id="a_node27"><a xlink:href="vof_8cpp.html" target="_top" xlink:title="vof.cpp">
<polygon fill="#ffffff" stroke="#000000" points="1293.5,-.5 1293.5,-19.5 1342.5,-19.5 1342.5,-.5 1293.5,-.5"/>
<text text-anchor="middle" x="1318" y="-7.5" font-family="Helvetica,sans-Serif" font-size="10.00" fill="#000000">vof.cpp</text>
</a>
</g>
</g>
<!-- Node30&#45;&gt;Node31 -->
<g id="edge32" class="edge">
<title>Node30&#45;&gt;Node31</title>
<path fill="none" stroke="#191970" d="M1293.1968,-102.5987C1299.6885,-78.363 1310.5388,-37.8551 1315.4487,-19.5249"/>
<polygon fill="#191970" stroke="#191970" points="1289.7644,-101.8859 1290.5578,-112.4509 1296.526,-103.6971 1289.7644,-101.8859"/>
</g>
<!-- Node32 -->
<g id="node28" class="node">
<title>Node32</title>
<g id="a_node28"><a xlink:href="vof__advection_8_h.html" target="_top" xlink:title="vof_advection.H">
<polygon fill="#ffffff" stroke="#000000" points="1346,-56.5 1346,-75.5 1434,-75.5 1434,-56.5 1346,-56.5"/>
<text text-anchor="middle" x="1390" y="-63.5" font-family="Helvetica,sans-Serif" font-size="10.00" fill="#000000">vof_advection.H</text>
</a>
</g>
</g>
<!-- Node30&#45;&gt;Node32 -->
<g id="edge33" class="edge">
<title>Node30&#45;&gt;Node32</title>
<path fill="none" stroke="#191970" d="M1314.734,-107.3225C1332.9532,-97.3198 1356.5598,-84.3593 1372.4366,-75.6427"/>
<polygon fill="#191970" stroke="#191970" points="1312.8484,-104.3649 1305.767,-112.2455 1316.2173,-110.5009 1312.8484,-104.3649"/>
</g>
<!-- Node33 -->
<g id="node29" class="node">
<title>Node33</title>
<g id="a_node29"><a xlink:href="vof__ops_8_h.html" target="_top" xlink:title="vof_ops.H">
<polygon fill="#ffffff" stroke="#000000" points="1228,-56.5 1228,-75.5 1290,-75.5 1290,-56.5 1228,-56.5"/>
<text text-anchor="middle" x="1259" y="-63.5" font-family="Helvetica,sans-Serif" font-size="10.00" fill="#000000">vof_ops.H</text>
</a>
</g>
</g>
<!-- Node30&#45;&gt;Node33 -->
<g id="edge35" class="edge">
<title>Node30&#45;&gt;Node33</title>
<path fill="none" stroke="#191970" d="M1278.3353,-103.3372C1273.5313,-94.0605 1267.9277,-83.2398 1263.9935,-75.6427"/>
<polygon fill="#191970" stroke="#191970" points="1275.242,-104.9751 1282.9486,-112.2455 1281.458,-101.7561 1275.242,-104.9751"/>
</g>
<!-- Node32&#45;&gt;Node31 -->
<g id="edge34" class="edge">
<title>Node32&#45;&gt;Node31</title>
<path fill="none" stroke="#191970" d="M1369.336,-49.928C1356.7511,-40.1397 1341.0908,-27.9595 1330.3977,-19.6427"/>
<polygon fill="#191970" stroke="#191970" points="1367.4162,-52.8688 1377.4586,-56.2455 1371.7138,-47.3434 1367.4162,-52.8688"/>
</g>
<!-- Node33&#45;&gt;Node31 -->
<g id="edge36" class="edge">
<title>Node33&#45;&gt;Node31</title>
<path fill="none" stroke="#191970" d="M1276.5307,-49.3607C1286.7377,-39.6727 1299.2469,-27.7995 1307.8408,-19.6427"/>
<polygon fill="#191970" stroke="#191970" points="1274.1206,-46.8227 1269.277,-56.2455 1278.9396,-51.8998 1274.1206,-46.8227"/>
</g>
</g>
</svg>
