<?xml version="1.0" encoding="UTF-8" standalone="no"?>
<!DOCTYPE svg PUBLIC "-//W3C//DTD SVG 1.1//EN"
 "http://www.w3.org/Graphics/SVG/1.1/DTD/svg11.dtd">
<!-- Generated by graphviz version 2.40.1 (20161225.0304)
 -->
<!-- Title: MMS.cpp Pages: 1 -->
<svg width="2570pt" height="386pt"
 viewBox="0.00 0.00 2569.50 386.00" xmlns="http://www.w3.org/2000/svg" xmlns:xlink="http://www.w3.org/1999/xlink">
<g id="graph0" class="graph" transform="scale(1 1) rotate(0) translate(4 382)">
<title>MMS.cpp</title>
<polygon fill="#ffffff" stroke="transparent" points="-4,4 -4,-382 2565.5,-382 2565.5,4 -4,4"/>
<!-- Node0 -->
<g id="node1" class="node">
<title>Node0</title>
<polygon fill="#bfbfbf" stroke="#000000" points="2226.5,-358.5 2226.5,-377.5 2285.5,-377.5 2285.5,-358.5 2226.5,-358.5"/>
<text text-anchor="middle" x="2256" y="-365.5" font-family="Helvetica,sans-Serif" font-size="10.00" fill="#000000">MMS.cpp</text>
</g>
<!-- Node1 -->
<g id="node2" class="node">
<title>Node1</title>
<g id="a_node2"><a xlink:href="_m_m_s_8_h.html" target="_top" xlink:title="amr&#45;wind/mms/MMS.H">
<polygon fill="#ffffff" stroke="#000000" points="1315,-302.5 1315,-321.5 1433,-321.5 1433,-302.5 1315,-302.5"/>
<text text-anchor="middle" x="1374" y="-309.5" font-family="Helvetica,sans-Serif" font-size="10.00" fill="#000000">amr&#45;wind/mms/MMS.H</text>
</a>
</g>
</g>
<!-- Node0&#45;&gt;Node1 -->
<g id="edge1" class="edge">
<title>Node0&#45;&gt;Node1</title>
<path fill="none" stroke="#191970" d="M2226.4021,-366.1208C2102.5433,-358.2567 1623.9095,-327.8673 1443.4133,-316.4072"/>
<polygon fill="#191970" stroke="#191970" points="1443.4451,-312.9023 1433.2434,-315.7615 1443.0015,-319.8882 1443.4451,-312.9023"/>
</g>
<!-- Node21 -->
<g id="node22" class="node">
<title>Node21</title>
<g id="a_node22"><a xlink:href="_c_f_d_sim_8_h.html" target="_top" xlink:title="amr&#45;wind/CFDSim.H">
<polygon fill="#ffffff" stroke="#000000" points="1184,-246.5 1184,-265.5 1292,-265.5 1292,-246.5 1184,-246.5"/>
<text text-anchor="middle" x="1238" y="-253.5" font-family="Helvetica,sans-Serif" font-size="10.00" fill="#000000">amr&#45;wind/CFDSim.H</text>
</a>
</g>
</g>
<!-- Node0&#45;&gt;Node21 -->
<g id="edge69" class="edge">
<title>Node0&#45;&gt;Node21</title>
<path fill="none" stroke="#191970" d="M2226.0022,-367.8028C2073.9321,-366.6361 1392.0573,-359.3448 1306,-322 1282.7864,-311.9264 1262.9199,-290.1321 1250.7584,-274.3379"/>
<polygon fill="#191970" stroke="#191970" points="1253.2685,-271.8438 1244.5213,-265.8658 1247.6314,-275.9939 1253.2685,-271.8438"/>
</g>
<!-- Node31 -->
<g id="node32" class="node">
<title>Node31</title>
<polygon fill="#ffffff" stroke="#bfbfbf" points="2175.5,-56.5 2175.5,-75.5 2282.5,-75.5 2282.5,-56.5 2175.5,-56.5"/>
<text text-anchor="middle" x="2229" y="-63.5" font-family="Helvetica,sans-Serif" font-size="10.00" fill="#000000">AMReX_iMultiFab.H</text>
</g>
<!-- Node0&#45;&gt;Node31 -->
<g id="edge71" class="edge">
<title>Node0&#45;&gt;Node31</title>
<path fill="none" stroke="#191970" d="M2249.4692,-358.2931C2237.4401,-339.4432 2213,-296.1986 2213,-256 2213,-256 2213,-256 2213,-194.5 2213,-155.704 2220.2706,-110.8207 2225.0096,-85.6865"/>
<polygon fill="#191970" stroke="#191970" points="2228.4937,-86.1061 2226.9736,-75.6209 2221.6232,-84.7655 2228.4937,-86.1061"/>
</g>
<!-- Node37 -->
<g id="node38" class="node">
<title>Node37</title>
<polygon fill="#ffffff" stroke="#bfbfbf" points="2241,-302.5 2241,-321.5 2357,-321.5 2357,-302.5 2241,-302.5"/>
<text text-anchor="middle" x="2299" y="-309.5" font-family="Helvetica,sans-Serif" font-size="10.00" fill="#000000">AMReX_ParmParse.H</text>
</g>
<!-- Node0&#45;&gt;Node37 -->
<g id="edge70" class="edge">
<title>Node0&#45;&gt;Node37</title>
<path fill="none" stroke="#191970" d="M2263.49,-358.2455C2269.5326,-350.3761 2278.1903,-339.101 2285.4441,-329.6542"/>
<polygon fill="#191970" stroke="#191970" points="2288.2815,-331.7058 2291.5958,-321.6427 2282.7295,-327.4426 2288.2815,-331.7058"/>
</g>
<!-- Node38 -->
<g id="node39" class="node">
<title>Node38</title>
<polygon fill="#ffffff" stroke="#bfbfbf" points="2375.5,-302.5 2375.5,-321.5 2494.5,-321.5 2494.5,-302.5 2375.5,-302.5"/>
<text text-anchor="middle" x="2435" y="-309.5" font-family="Helvetica,sans-Serif" font-size="10.00" fill="#000000">AMReX_MultiFabUtil.H</text>
</g>
<!-- Node0&#45;&gt;Node38 -->
<g id="edge72" class="edge">
<title>Node0&#45;&gt;Node38</title>
<path fill="none" stroke="#191970" d="M2285.5582,-358.7527C2315.3448,-349.434 2361.5249,-334.9866 2394.6651,-324.6187"/>
<polygon fill="#191970" stroke="#191970" points="2396,-327.8685 2404.4988,-321.5423 2393.9099,-321.1878 2396,-327.8685"/>
</g>
<!-- Node39 -->
<g id="node40" class="node">
<title>Node39</title>
<polygon fill="#ffffff" stroke="#bfbfbf" points="2512.5,-302.5 2512.5,-321.5 2561.5,-321.5 2561.5,-302.5 2512.5,-302.5"/>
<text text-anchor="middle" x="2537" y="-309.5" font-family="Helvetica,sans-Serif" font-size="10.00" fill="#000000">masa.h</text>
</g>
<!-- Node0&#45;&gt;Node39 -->
<g id="edge73" class="edge">
<title>Node0&#45;&gt;Node39</title>
<path fill="none" stroke="#191970" d="M2285.6201,-363.5951C2330.5766,-356.675 2418.8666,-342.1688 2502.327,-322.2266"/>
<polygon fill="#191970" stroke="#191970" points="2503.3195,-325.5875 2512.2149,-319.8324 2501.6721,-318.7841 2503.3195,-325.5875"/>
</g>
<!-- Node2 -->
<g id="node3" class="node">
<title>Node2</title>
<g id="a_node3"><a xlink:href="_physics_8_h.html" target="_top" xlink:title="amr&#45;wind/core/Physics.H">
<polygon fill="#ffffff" stroke="#000000" points="313.5,-185 313.5,-204 440.5,-204 440.5,-185 313.5,-185"/>
<text text-anchor="middle" x="377" y="-192" font-family="Helvetica,sans-Serif" font-size="10.00" fill="#000000">amr&#45;wind/core/Physics.H</text>
</a>
</g>
</g>
<!-- Node1&#45;&gt;Node2 -->
<g id="edge2" class="edge">
<title>Node1&#45;&gt;Node2</title>
<path fill="none" stroke="#191970" d="M1314.9876,-305.0452C1142.6766,-284.7377 640.4904,-225.5533 450.7528,-203.192"/>
<polygon fill="#191970" stroke="#191970" points="450.9422,-199.6902 440.6013,-201.9956 450.1228,-206.6421 450.9422,-199.6902"/>
</g>
<!-- Node14 -->
<g id="node15" class="node">
<title>Node14</title>
<g id="a_node15"><a xlink:href="_field_8_h.html" target="_top" xlink:title="amr&#45;wind/core/Field.H">
<polygon fill="#ffffff" stroke="#000000" points="1347.5,-118 1347.5,-137 1460.5,-137 1460.5,-118 1347.5,-118"/>
<text text-anchor="middle" x="1404" y="-125" font-family="Helvetica,sans-Serif" font-size="10.00" fill="#000000">amr&#45;wind/core/Field.H</text>
</a>
</g>
</g>
<!-- Node1&#45;&gt;Node14 -->
<g id="edge16" class="edge">
<title>Node1&#45;&gt;Node14</title>
<path fill="none" stroke="#191970" d="M1375.5707,-302.3402C1380.2992,-273.26 1394.4657,-186.136 1400.8359,-146.959"/>
<polygon fill="#191970" stroke="#191970" points="1404.2945,-147.4963 1402.4449,-137.0641 1397.3852,-146.3727 1404.2945,-147.4963"/>
</g>
<!-- Node1&#45;&gt;Node21 -->
<g id="edge31" class="edge">
<title>Node1&#45;&gt;Node21</title>
<path fill="none" stroke="#191970" d="M1350.6208,-302.3733C1328.4955,-293.2629 1295.0866,-279.5062 1270.3981,-269.3404"/>
<polygon fill="#191970" stroke="#191970" points="1271.6536,-266.0723 1261.0742,-265.5011 1268.9883,-272.5451 1271.6536,-266.0723"/>
</g>
<!-- Node3 -->
<g id="node4" class="node">
<title>Node3</title>
<g id="a_node4"><a xlink:href="_factory_8_h.html" target="_top" xlink:title="amr&#45;wind/core/Factory.H">
<polygon fill="#ffffff" stroke="#000000" points="242.5,-118 242.5,-137 367.5,-137 367.5,-118 242.5,-118"/>
<text text-anchor="middle" x="305" y="-125" font-family="Helvetica,sans-Serif" font-size="10.00" fill="#000000">amr&#45;wind/core/Factory.H</text>
</a>
</g>
</g>
<!-- Node2&#45;&gt;Node3 -->
<g id="edge3" class="edge">
<title>Node2&#45;&gt;Node3</title>
<path fill="none" stroke="#191970" d="M366.6842,-184.9005C355.2425,-174.2535 336.5785,-156.8856 322.7727,-144.0385"/>
<polygon fill="#191970" stroke="#191970" points="325.0017,-141.3317 315.2967,-137.0817 320.2331,-146.4562 325.0017,-141.3317"/>
</g>
<!-- Node9 -->
<g id="node10" class="node">
<title>Node9</title>
<g id="a_node10"><a xlink:href="_coll_mgr_8_h.html" target="_top" xlink:title="amr&#45;wind/core/CollMgr.H">
<polygon fill="#ffffff" stroke="#000000" points="385.5,-118 385.5,-137 510.5,-137 510.5,-118 385.5,-118"/>
<text text-anchor="middle" x="448" y="-125" font-family="Helvetica,sans-Serif" font-size="10.00" fill="#000000">amr&#45;wind/core/CollMgr.H</text>
</a>
</g>
</g>
<!-- Node2&#45;&gt;Node9 -->
<g id="edge9" class="edge">
<title>Node2&#45;&gt;Node9</title>
<path fill="none" stroke="#191970" d="M387.1726,-184.9005C398.4553,-174.2535 416.8601,-156.8856 430.4742,-144.0385"/>
<polygon fill="#191970" stroke="#191970" points="432.9754,-146.4905 437.8463,-137.0817 428.1712,-141.3994 432.9754,-146.4905"/>
</g>
<!-- Node12 -->
<g id="node13" class="node">
<title>Node12</title>
<polygon fill="#ffffff" stroke="#bfbfbf" points="1556,-.5 1556,-19.5 1660,-19.5 1660,-.5 1556,-.5"/>
<text text-anchor="middle" x="1608" y="-7.5" font-family="Helvetica,sans-Serif" font-size="10.00" fill="#000000">AMReX_MultiFab.H</text>
</g>
<!-- Node2&#45;&gt;Node12 -->
<g id="edge14" class="edge">
<title>Node2&#45;&gt;Node12</title>
<path fill="none" stroke="#191970" d="M333.1814,-184.9652C252.975,-165.7118 96.1414,-118.6351 157,-56 181.226,-31.0668 1373.2625,-21.3681 1408,-20 1454.1777,-18.1813 1506.3243,-15.5551 1545.7904,-13.4504"/>
<polygon fill="#191970" stroke="#191970" points="1545.9983,-16.9444 1555.7963,-12.9135 1545.6231,-9.9544 1545.9983,-16.9444"/>
</g>
<!-- Node13 -->
<g id="node14" class="node">
<title>Node13</title>
<polygon fill="#ffffff" stroke="#bfbfbf" points="0,-118 0,-137 110,-137 110,-118 0,-118"/>
<text text-anchor="middle" x="55" y="-125" font-family="Helvetica,sans-Serif" font-size="10.00" fill="#000000">AMReX_Geometry.H</text>
</g>
<!-- Node2&#45;&gt;Node13 -->
<g id="edge15" class="edge">
<title>Node2&#45;&gt;Node13</title>
<path fill="none" stroke="#191970" d="M328.4377,-184.9169C277.4598,-174.7863 195.0067,-158.2007 124,-143 118.5224,-141.8274 112.8056,-140.5804 107.1089,-139.3228"/>
<polygon fill="#191970" stroke="#191970" points="107.4535,-135.8141 96.9323,-137.0615 105.935,-142.6474 107.4535,-135.8141"/>
</g>
<!-- Node4 -->
<g id="node5" class="node">
<title>Node4</title>
<polygon fill="#ffffff" stroke="#bfbfbf" points="424,-56.5 424,-75.5 476,-75.5 476,-56.5 424,-56.5"/>
<text text-anchor="middle" x="450" y="-63.5" font-family="Helvetica,sans-Serif" font-size="10.00" fill="#000000">memory</text>
</g>
<!-- Node3&#45;&gt;Node4 -->
<g id="edge4" class="edge">
<title>Node3&#45;&gt;Node4</title>
<path fill="none" stroke="#191970" d="M327.6563,-117.8906C351.9174,-107.6005 390.6118,-91.1888 417.98,-79.5809"/>
<polygon fill="#191970" stroke="#191970" points="419.6633,-82.6688 427.5028,-75.5419 416.93,-76.2245 419.6633,-82.6688"/>
</g>
<!-- Node5 -->
<g id="node6" class="node">
<title>Node5</title>
<polygon fill="#ffffff" stroke="#bfbfbf" points="726.5,-56.5 726.5,-75.5 809.5,-75.5 809.5,-56.5 726.5,-56.5"/>
<text text-anchor="middle" x="768" y="-63.5" font-family="Helvetica,sans-Serif" font-size="10.00" fill="#000000">unordered_map</text>
</g>
<!-- Node3&#45;&gt;Node5 -->
<g id="edge5" class="edge">
<title>Node3&#45;&gt;Node5</title>
<path fill="none" stroke="#191970" d="M345.4171,-117.9581C355.3785,-115.8052 366.0452,-113.6666 376,-112 440.2607,-101.2419 625.3674,-81.0829 716.3168,-71.4266"/>
<polygon fill="#191970" stroke="#191970" points="716.8249,-74.8925 726.4004,-70.3581 716.0872,-67.9315 716.8249,-74.8925"/>
</g>
<!-- Node6 -->
<g id="node7" class="node">
<title>Node6</title>
<polygon fill="#ffffff" stroke="#bfbfbf" points="352,-56.5 352,-75.5 406,-75.5 406,-56.5 352,-56.5"/>
<text text-anchor="middle" x="379" y="-63.5" font-family="Helvetica,sans-Serif" font-size="10.00" fill="#000000">iostream</text>
</g>
<!-- Node3&#45;&gt;Node6 -->
<g id="edge6" class="edge">
<title>Node3&#45;&gt;Node6</title>
<path fill="none" stroke="#191970" d="M316.5625,-117.8906C328.0079,-108.3786 345.7473,-93.6357 359.397,-82.2917"/>
<polygon fill="#191970" stroke="#191970" points="361.8208,-84.8283 367.2745,-75.7449 357.3467,-79.4447 361.8208,-84.8283"/>
</g>
<!-- Node7 -->
<g id="node8" class="node">
<title>Node7</title>
<polygon fill="#ffffff" stroke="#bfbfbf" points="166.5,-56.5 166.5,-75.5 253.5,-75.5 253.5,-56.5 166.5,-56.5"/>
<text text-anchor="middle" x="210" y="-63.5" font-family="Helvetica,sans-Serif" font-size="10.00" fill="#000000">AMReX_Print.H</text>
</g>
<!-- Node3&#45;&gt;Node7 -->
<g id="edge7" class="edge">
<title>Node3&#45;&gt;Node7</title>
<path fill="none" stroke="#191970" d="M290.1563,-117.8906C274.9582,-108.0519 251.1152,-92.6167 233.3794,-81.1351"/>
<polygon fill="#191970" stroke="#191970" points="235.0361,-78.0382 224.7395,-75.5419 231.232,-83.9144 235.0361,-78.0382"/>
</g>
<!-- Node8 -->
<g id="node9" class="node">
<title>Node8</title>
<polygon fill="#ffffff" stroke="#bfbfbf" points="272,-56.5 272,-75.5 334,-75.5 334,-56.5 272,-56.5"/>
<text text-anchor="middle" x="303" y="-63.5" font-family="Helvetica,sans-Serif" font-size="10.00" fill="#000000">AMReX.H</text>
</g>
<!-- Node3&#45;&gt;Node8 -->
<g id="edge8" class="edge">
<title>Node3&#45;&gt;Node8</title>
<path fill="none" stroke="#191970" d="M304.6875,-117.8906C304.4103,-109.3657 303.9964,-96.6392 303.6479,-85.9235"/>
<polygon fill="#191970" stroke="#191970" points="307.1402,-85.6258 303.3169,-75.7449 300.1439,-85.8534 307.1402,-85.6258"/>
</g>
<!-- Node9&#45;&gt;Node4 -->
<g id="edge11" class="edge">
<title>Node9&#45;&gt;Node4</title>
<path fill="none" stroke="#191970" d="M448.3125,-117.8906C448.5897,-109.3657 449.0036,-96.6392 449.3521,-85.9235"/>
<polygon fill="#191970" stroke="#191970" points="452.8561,-85.8534 449.6831,-75.7449 445.8598,-85.6258 452.8561,-85.8534"/>
</g>
<!-- Node9&#45;&gt;Node5 -->
<g id="edge12" class="edge">
<title>Node9&#45;&gt;Node5</title>
<path fill="none" stroke="#191970" d="M497.6489,-117.9581C557.0592,-106.5402 656.0464,-87.5161 716.3354,-75.9293"/>
<polygon fill="#191970" stroke="#191970" points="717.2354,-79.3205 726.3951,-73.9959 715.9142,-72.4463 717.2354,-79.3205"/>
</g>
<!-- Node10 -->
<g id="node11" class="node">
<title>Node10</title>
<polygon fill="#ffffff" stroke="#bfbfbf" points="1358.5,-.5 1358.5,-19.5 1399.5,-19.5 1399.5,-.5 1358.5,-.5"/>
<text text-anchor="middle" x="1379" y="-7.5" font-family="Helvetica,sans-Serif" font-size="10.00" fill="#000000">string</text>
</g>
<!-- Node9&#45;&gt;Node10 -->
<g id="edge10" class="edge">
<title>Node9&#45;&gt;Node10</title>
<path fill="none" stroke="#191970" d="M461.9038,-117.8631C488.0475,-99.9504 543.8858,-62.7284 566,-56 729.6307,-6.2143 1161.7594,-50.1931 1348.1764,-19.5149"/>
<polygon fill="#191970" stroke="#191970" points="1348.9731,-22.9284 1358.2132,-17.7447 1347.7572,-16.0348 1348.9731,-22.9284"/>
</g>
<!-- Node11 -->
<g id="node12" class="node">
<title>Node11</title>
<polygon fill="#ffffff" stroke="#bfbfbf" points="1245.5,-.5 1245.5,-19.5 1340.5,-19.5 1340.5,-.5 1245.5,-.5"/>
<text text-anchor="middle" x="1293" y="-7.5" font-family="Helvetica,sans-Serif" font-size="10.00" fill="#000000">AMReX_Vector.H</text>
</g>
<!-- Node9&#45;&gt;Node11 -->
<g id="edge13" class="edge">
<title>Node9&#45;&gt;Node11</title>
<path fill="none" stroke="#191970" d="M455.0922,-117.8961C467.6816,-101.7145 495.6727,-69.4664 528,-56 592.663,-29.0636 1068.6186,-15.3157 1235.4337,-11.286"/>
<polygon fill="#191970" stroke="#191970" points="1235.5849,-14.7835 1245.4985,-11.0456 1235.4177,-7.7855 1235.5849,-14.7835"/>
</g>
<!-- Node14&#45;&gt;Node4 -->
<g id="edge18" class="edge">
<title>Node14&#45;&gt;Node4</title>
<path fill="none" stroke="#191970" d="M1347.449,-118.0621C1332.0916,-115.7752 1315.4394,-113.5468 1300,-112 992.2376,-81.1671 913.7813,-93.9572 605,-76 564.2464,-73.63 517.489,-70.566 486.08,-68.4576"/>
<polygon fill="#191970" stroke="#191970" points="486.2602,-64.9619 476.0475,-67.7816 485.7895,-71.9461 486.2602,-64.9619"/>
</g>
<!-- Node14&#45;&gt;Node5 -->
<g id="edge19" class="edge">
<title>Node14&#45;&gt;Node5</title>
<path fill="none" stroke="#191970" d="M1365.1233,-117.9486C1354.7412,-115.6903 1343.4907,-113.5044 1333,-112 1109.5248,-79.9532 1047.7597,-105.348 819.6141,-75.911"/>
<polygon fill="#191970" stroke="#191970" points="820.0494,-72.4382 809.6792,-74.6083 819.1393,-79.3788 820.0494,-72.4382"/>
</g>
<!-- Node14&#45;&gt;Node10 -->
<g id="edge17" class="edge">
<title>Node14&#45;&gt;Node10</title>
<path fill="none" stroke="#191970" d="M1384.9087,-117.9981C1369.8804,-109.3453 1350.018,-95.0195 1341,-76 1332.7607,-58.6228 1346.1515,-39.6858 1359.2528,-26.5713"/>
<polygon fill="#191970" stroke="#191970" points="1361.8312,-28.953 1366.7675,-19.5783 1357.0625,-23.8285 1361.8312,-28.953"/>
</g>
<!-- Node14&#45;&gt;Node12 -->
<g id="edge21" class="edge">
<title>Node14&#45;&gt;Node12</title>
<path fill="none" stroke="#191970" d="M1401.9223,-117.7933C1399.2861,-102.6062 1396.7447,-73.1897 1412,-56 1429.5811,-36.1897 1495.0422,-23.7131 1545.5288,-16.8301"/>
<polygon fill="#191970" stroke="#191970" points="1546.2723,-20.2624 1555.7296,-15.4866 1545.3582,-13.3224 1546.2723,-20.2624"/>
</g>
<!-- Node15 -->
<g id="node16" class="node">
<title>Node15</title>
<polygon fill="#ffffff" stroke="#bfbfbf" points="974,-56.5 974,-75.5 1030,-75.5 1030,-56.5 974,-56.5"/>
<text text-anchor="middle" x="1002" y="-63.5" font-family="Helvetica,sans-Serif" font-size="10.00" fill="#000000">algorithm</text>
</g>
<!-- Node14&#45;&gt;Node15 -->
<g id="edge20" class="edge">
<title>Node14&#45;&gt;Node15</title>
<path fill="none" stroke="#191970" d="M1363.5769,-117.9936C1353.6157,-115.8396 1342.9506,-113.6916 1333,-112 1206.3878,-90.4759 1169.9673,-100.7052 1040.1121,-75.9833"/>
<polygon fill="#191970" stroke="#191970" points="1040.6679,-72.5259 1030.1848,-74.0605 1039.3368,-79.3982 1040.6679,-72.5259"/>
</g>
<!-- Node16 -->
<g id="node17" class="node">
<title>Node16</title>
<polygon fill="#ffffff" stroke="#bfbfbf" points="1048.5,-56.5 1048.5,-75.5 1147.5,-75.5 1147.5,-56.5 1048.5,-56.5"/>
<text text-anchor="middle" x="1098" y="-63.5" font-family="Helvetica,sans-Serif" font-size="10.00" fill="#000000">AMReX_BCRec.H</text>
</g>
<!-- Node14&#45;&gt;Node16 -->
<g id="edge22" class="edge">
<title>Node14&#45;&gt;Node16</title>
<path fill="none" stroke="#191970" d="M1360.8535,-117.9243C1351.6676,-115.9295 1342.019,-113.8669 1333,-112 1273.4547,-99.674 1205.2371,-86.4164 1157.6957,-77.3156"/>
<polygon fill="#191970" stroke="#191970" points="1158.0554,-73.8211 1147.5761,-75.3815 1156.7412,-80.6966 1158.0554,-73.8211"/>
</g>
<!-- Node17 -->
<g id="node18" class="node">
<title>Node17</title>
<polygon fill="#ffffff" stroke="#bfbfbf" points="1165.5,-56.5 1165.5,-75.5 1250.5,-75.5 1250.5,-56.5 1165.5,-56.5"/>
<text text-anchor="middle" x="1208" y="-63.5" font-family="Helvetica,sans-Serif" font-size="10.00" fill="#000000">AMReX_Gpu.H</text>
</g>
<!-- Node14&#45;&gt;Node17 -->
<g id="edge23" class="edge">
<title>Node14&#45;&gt;Node17</title>
<path fill="none" stroke="#191970" d="M1373.375,-117.8906C1339.7176,-107.3298 1285.5101,-90.3208 1248.3941,-78.6747"/>
<polygon fill="#191970" stroke="#191970" points="1248.9991,-75.1963 1238.4099,-75.5419 1246.9034,-81.8753 1248.9991,-75.1963"/>
</g>
<!-- Node18 -->
<g id="node19" class="node">
<title>Node18</title>
<g id="a_node19"><a xlink:href="incflo__enums_8_h.html" target="_top" xlink:title="amr&#45;wind/incflo_enums.H">
<polygon fill="#ffffff" stroke="#000000" points="828,-56.5 828,-75.5 956,-75.5 956,-56.5 828,-56.5"/>
<text text-anchor="middle" x="892" y="-63.5" font-family="Helvetica,sans-Serif" font-size="10.00" fill="#000000">amr&#45;wind/incflo_enums.H</text>
</a>
</g>
</g>
<!-- Node14&#45;&gt;Node18 -->
<g id="edge24" class="edge">
<title>Node14&#45;&gt;Node18</title>
<path fill="none" stroke="#191970" d="M1364.3509,-117.9831C1354.177,-115.7785 1343.2197,-113.6097 1333,-112 1173.8357,-86.93 1129.92,-94.8276 966.016,-76.0731"/>
<polygon fill="#191970" stroke="#191970" points="966.413,-72.5957 956.0763,-74.9201 965.6064,-79.5491 966.413,-72.5957"/>
</g>
<!-- Node19 -->
<g id="node20" class="node">
<title>Node19</title>
<g id="a_node20"><a xlink:href="_field_desc_types_8_h.html" target="_top" xlink:title="amr&#45;wind/core/FieldDescTypes.H">
<polygon fill="#ffffff" stroke="#000000" points="1799.5,-.5 1799.5,-19.5 1962.5,-19.5 1962.5,-.5 1799.5,-.5"/>
<text text-anchor="middle" x="1881" y="-7.5" font-family="Helvetica,sans-Serif" font-size="10.00" fill="#000000">amr&#45;wind/core/FieldDescTypes.H</text>
</a>
</g>
</g>
<!-- Node14&#45;&gt;Node19 -->
<g id="edge25" class="edge">
<title>Node14&#45;&gt;Node19</title>
<path fill="none" stroke="#191970" d="M1432.0685,-117.9426C1476.0181,-103.2177 1563.9267,-74.7285 1640,-56 1697.3418,-41.883 1763.2574,-29.5653 1811.6429,-21.2383"/>
<polygon fill="#191970" stroke="#191970" points="1812.424,-24.6557 1821.6924,-19.5227 1811.246,-17.7555 1812.424,-24.6557"/>
</g>
<!-- Node20 -->
<g id="node21" class="node">
<title>Node20</title>
<g id="a_node21"><a xlink:href="_view_field_8_h.html" target="_top" xlink:title="amr&#45;wind/core/ViewField.H">
<polygon fill="#ffffff" stroke="#000000" points="1421,-56.5 1421,-75.5 1555,-75.5 1555,-56.5 1421,-56.5"/>
<text text-anchor="middle" x="1488" y="-63.5" font-family="Helvetica,sans-Serif" font-size="10.00" fill="#000000">amr&#45;wind/core/ViewField.H</text>
</a>
</g>
</g>
<!-- Node14&#45;&gt;Node20 -->
<g id="edge26" class="edge">
<title>Node14&#45;&gt;Node20</title>
<path fill="none" stroke="#191970" d="M1417.125,-117.8906C1430.44,-108.1421 1451.2594,-92.8994 1466.8947,-81.4521"/>
<polygon fill="#191970" stroke="#191970" points="1468.9661,-84.2734 1474.9672,-75.5419 1464.8309,-78.6253 1468.9661,-84.2734"/>
</g>
<!-- Node20&#45;&gt;Node10 -->
<g id="edge27" class="edge">
<title>Node20&#45;&gt;Node10</title>
<path fill="none" stroke="#191970" d="M1469.0136,-56.2455C1451.8208,-47.4125 1426.2762,-34.2887 1406.7868,-24.2758"/>
<polygon fill="#191970" stroke="#191970" points="1408.263,-21.0993 1397.7688,-19.6427 1405.0641,-27.3257 1408.263,-21.0993"/>
</g>
<!-- Node20&#45;&gt;Node11 -->
<g id="edge30" class="edge">
<title>Node20&#45;&gt;Node11</title>
<path fill="none" stroke="#191970" d="M1454.4783,-56.3733C1421.6317,-46.9404 1371.4405,-32.5265 1335.7422,-22.2747"/>
<polygon fill="#191970" stroke="#191970" points="1336.6619,-18.8974 1326.0843,-19.5011 1334.7297,-25.6255 1336.6619,-18.8974"/>
</g>
<!-- Node20&#45;&gt;Node12 -->
<g id="edge29" class="edge">
<title>Node20&#45;&gt;Node12</title>
<path fill="none" stroke="#191970" d="M1508.6287,-56.3733C1527.8919,-47.3838 1556.8486,-33.8706 1578.5419,-23.7471"/>
<polygon fill="#191970" stroke="#191970" points="1580.0587,-26.9017 1587.6405,-19.5011 1577.0985,-20.5584 1580.0587,-26.9017"/>
</g>
<!-- Node20&#45;&gt;Node19 -->
<g id="edge28" class="edge">
<title>Node20&#45;&gt;Node19</title>
<path fill="none" stroke="#191970" d="M1555.1126,-56.4369C1624.2084,-46.5912 1731.727,-31.2705 1804.181,-20.9462"/>
<polygon fill="#191970" stroke="#191970" points="1804.758,-24.3994 1814.1642,-19.5237 1803.7705,-17.4694 1804.758,-24.3994"/>
</g>
<!-- Node21&#45;&gt;Node2 -->
<g id="edge68" class="edge">
<title>Node21&#45;&gt;Node2</title>
<path fill="none" stroke="#191970" d="M1183.7666,-252.6618C1068.5162,-245.4949 790.7144,-227.8341 558,-210 522.6621,-207.2919 483.4715,-203.9746 450.6198,-201.1048"/>
<polygon fill="#191970" stroke="#191970" points="450.9068,-197.6166 440.6393,-200.2297 450.2953,-204.5899 450.9068,-197.6166"/>
</g>
<!-- Node22 -->
<g id="node23" class="node">
<title>Node22</title>
<polygon fill="#ffffff" stroke="#bfbfbf" points="1185,-118 1185,-137 1291,-137 1291,-118 1185,-118"/>
<text text-anchor="middle" x="1238" y="-125" font-family="Helvetica,sans-Serif" font-size="10.00" fill="#000000">AMReX_AmrCore.H</text>
</g>
<!-- Node21&#45;&gt;Node22 -->
<g id="edge32" class="edge">
<title>Node21&#45;&gt;Node22</title>
<path fill="none" stroke="#191970" d="M1238,-246.3416C1238,-225.4114 1238,-175.504 1238,-147.4762"/>
<polygon fill="#191970" stroke="#191970" points="1241.5001,-147.2704 1238,-137.2705 1234.5001,-147.2705 1241.5001,-147.2704"/>
</g>
<!-- Node23 -->
<g id="node24" class="node">
<title>Node23</title>
<g id="a_node24"><a xlink:href="_sim_time_8_h.html" target="_top" xlink:title="amr&#45;wind/core/SimTime.H">
<polygon fill="#ffffff" stroke="#000000" points="994.5,-185 994.5,-204 1125.5,-204 1125.5,-185 994.5,-185"/>
<text text-anchor="middle" x="1060" y="-192" font-family="Helvetica,sans-Serif" font-size="10.00" fill="#000000">amr&#45;wind/core/SimTime.H</text>
</a>
</g>
</g>
<!-- Node21&#45;&gt;Node23 -->
<g id="edge33" class="edge">
<title>Node21&#45;&gt;Node23</title>
<path fill="none" stroke="#191970" d="M1210.1875,-246.3906C1179.7517,-235.8749 1130.8123,-218.966 1097.1174,-207.3243"/>
<polygon fill="#191970" stroke="#191970" points="1098.212,-203.9995 1087.6172,-204.0419 1095.926,-210.6157 1098.212,-203.9995"/>
</g>
<!-- Node27 -->
<g id="node28" class="node">
<title>Node27</title>
<g id="a_node28"><a xlink:href="_field_repo_8_h.html" target="_top" xlink:title="amr&#45;wind/core/FieldRepo.H">
<polygon fill="#ffffff" stroke="#000000" points="1599,-185 1599,-204 1735,-204 1735,-185 1599,-185"/>
<text text-anchor="middle" x="1667" y="-192" font-family="Helvetica,sans-Serif" font-size="10.00" fill="#000000">amr&#45;wind/core/FieldRepo.H</text>
</a>
</g>
</g>
<!-- Node21&#45;&gt;Node27 -->
<g id="edge37" class="edge">
<title>Node21&#45;&gt;Node27</title>
<path fill="none" stroke="#191970" d="M1292.3331,-248.211C1367.8066,-237.3914 1504.7443,-217.7604 1590.5139,-205.4648"/>
<polygon fill="#191970" stroke="#191970" points="1591.052,-208.9235 1600.4541,-204.0398 1590.0586,-201.9944 1591.052,-208.9235"/>
</g>
<!-- Node34 -->
<g id="node35" class="node">
<title>Node34</title>
<g id="a_node35"><a xlink:href="_p_d_e_base_8_h.html" target="_top" xlink:title="amr&#45;wind/equation_systems\l/PDEBase.H">
<polygon fill="#ffffff" stroke="#000000" points="567.5,-179.5 567.5,-209.5 706.5,-209.5 706.5,-179.5 567.5,-179.5"/>
<text text-anchor="start" x="575.5" y="-197.5" font-family="Helvetica,sans-Serif" font-size="10.00" fill="#000000">amr&#45;wind/equation_systems</text>
<text text-anchor="middle" x="637" y="-186.5" font-family="Helvetica,sans-Serif" font-size="10.00" fill="#000000">/PDEBase.H</text>
</a>
</g>
</g>
<!-- Node21&#45;&gt;Node34 -->
<g id="edge60" class="edge">
<title>Node21&#45;&gt;Node34</title>
<path fill="none" stroke="#191970" d="M1183.8711,-250.461C1077.6473,-239.5912 841.4372,-215.4199 717.0927,-202.6958"/>
<polygon fill="#191970" stroke="#191970" points="717.1808,-199.1867 706.8764,-201.6504 716.4681,-206.1503 717.1808,-199.1867"/>
</g>
<!-- Node24 -->
<g id="node25" class="node">
<title>Node24</title>
<polygon fill="#ffffff" stroke="#bfbfbf" points="1073.5,-118 1073.5,-137 1166.5,-137 1166.5,-118 1073.5,-118"/>
<text text-anchor="middle" x="1120" y="-125" font-family="Helvetica,sans-Serif" font-size="10.00" fill="#000000">AMReX_REAL.H</text>
</g>
<!-- Node23&#45;&gt;Node24 -->
<g id="edge34" class="edge">
<title>Node23&#45;&gt;Node24</title>
<path fill="none" stroke="#191970" d="M1068.5965,-184.9005C1077.953,-174.4525 1093.1052,-157.5325 1104.5401,-144.7635"/>
<polygon fill="#191970" stroke="#191970" points="1107.3555,-146.8661 1111.4194,-137.0817 1102.1408,-142.1963 1107.3555,-146.8661"/>
</g>
<!-- Node25 -->
<g id="node26" class="node">
<title>Node25</title>
<polygon fill="#ffffff" stroke="#bfbfbf" points="801,-118 801,-137 927,-137 927,-118 801,-118"/>
<text text-anchor="middle" x="864" y="-125" font-family="Helvetica,sans-Serif" font-size="10.00" fill="#000000">AMReX_GpuQualifiers.H</text>
</g>
<!-- Node23&#45;&gt;Node25 -->
<g id="edge35" class="edge">
<title>Node23&#45;&gt;Node25</title>
<path fill="none" stroke="#191970" d="M1031.918,-184.9005C997.7149,-173.2086 939.8028,-153.4122 901.7303,-140.3976"/>
<polygon fill="#191970" stroke="#191970" points="902.6245,-137.0045 892.0299,-137.0817 900.3602,-143.6282 902.6245,-137.0045"/>
</g>
<!-- Node26 -->
<g id="node27" class="node">
<title>Node26</title>
<polygon fill="#ffffff" stroke="#bfbfbf" points="945,-118 945,-137 1055,-137 1055,-118 945,-118"/>
<text text-anchor="middle" x="1000" y="-125" font-family="Helvetica,sans-Serif" font-size="10.00" fill="#000000">AMReX_Extension.H</text>
</g>
<!-- Node23&#45;&gt;Node26 -->
<g id="edge36" class="edge">
<title>Node23&#45;&gt;Node26</title>
<path fill="none" stroke="#191970" d="M1051.4035,-184.9005C1042.047,-174.4525 1026.8948,-157.5325 1015.4599,-144.7635"/>
<polygon fill="#191970" stroke="#191970" points="1017.8592,-142.1963 1008.5806,-137.0817 1012.6445,-146.8661 1017.8592,-142.1963"/>
</g>
<!-- Node27&#45;&gt;Node5 -->
<g id="edge39" class="edge">
<title>Node27&#45;&gt;Node5</title>
<path fill="none" stroke="#191970" d="M1598.6444,-188.0496C1516.3115,-179.5461 1383.4029,-163.264 1338,-143 1318.0965,-134.1168 1320.2451,-120.0744 1300,-112 1203.2582,-73.4162 940.672,-89.3618 819.8746,-75.8505"/>
<polygon fill="#191970" stroke="#191970" points="820.035,-72.3438 809.6814,-74.5919 819.1771,-79.291 820.035,-72.3438"/>
</g>
<!-- Node27&#45;&gt;Node10 -->
<g id="edge38" class="edge">
<title>Node27&#45;&gt;Node10</title>
<path fill="none" stroke="#191970" d="M1640.7578,-184.8535C1582.9564,-163.2111 1447.0098,-110.0215 1412,-76 1398.8219,-63.1939 1390.0512,-44.0184 1384.8862,-29.6314"/>
<polygon fill="#191970" stroke="#191970" points="1388.0824,-28.1481 1381.6259,-19.7478 1381.4348,-30.3409 1388.0824,-28.1481"/>
</g>
<!-- Node27&#45;&gt;Node12 -->
<g id="edge58" class="edge">
<title>Node27&#45;&gt;Node12</title>
<path fill="none" stroke="#191970" d="M1689.8959,-184.9178C1738.3526,-163.3069 1843.5457,-108.5487 1802,-56 1785.7319,-35.4235 1720.7302,-23.0879 1670.3998,-16.4475"/>
<polygon fill="#191970" stroke="#191970" points="1670.5885,-12.9434 1660.2271,-15.1553 1669.7063,-19.8876 1670.5885,-12.9434"/>
</g>
<!-- Node27&#45;&gt;Node14 -->
<g id="edge45" class="edge">
<title>Node27&#45;&gt;Node14</title>
<path fill="none" stroke="#191970" d="M1629.5978,-184.9717C1582.7986,-173.0495 1502.6086,-152.6208 1451.5119,-139.6038"/>
<polygon fill="#191970" stroke="#191970" points="1452.2535,-136.181 1441.699,-137.1039 1450.5254,-142.9643 1452.2535,-136.181"/>
</g>
<!-- Node27&#45;&gt;Node19 -->
<g id="edge40" class="edge">
<title>Node27&#45;&gt;Node19</title>
<path fill="none" stroke="#191970" d="M1709.4636,-184.9672C1736.7431,-177.195 1771.6796,-163.9973 1797,-143 1835.1945,-111.3266 1861.4851,-57.6197 1873.5301,-29.1082"/>
<polygon fill="#191970" stroke="#191970" points="1876.778,-30.4124 1877.3188,-19.8314 1870.2976,-27.7657 1876.778,-30.4124"/>
</g>
<!-- Node27&#45;&gt;Node22 -->
<g id="edge57" class="edge">
<title>Node27&#45;&gt;Node22</title>
<path fill="none" stroke="#191970" d="M1598.9964,-186.5979C1526.0292,-177.7063 1406.8756,-161.9944 1305,-143 1298.9152,-141.8655 1292.547,-140.5548 1286.2599,-139.1858"/>
<polygon fill="#191970" stroke="#191970" points="1287.022,-135.7699 1276.4992,-137.0035 1285.4946,-142.6012 1287.022,-135.7699"/>
</g>
<!-- Node28 -->
<g id="node29" class="node">
<title>Node28</title>
<g id="a_node29"><a xlink:href="_field_utils_8_h.html" target="_top" xlink:title="amr&#45;wind/core/FieldUtils.H">
<polygon fill="#ffffff" stroke="#000000" points="1985.5,-56.5 1985.5,-75.5 2118.5,-75.5 2118.5,-56.5 1985.5,-56.5"/>
<text text-anchor="middle" x="2052" y="-63.5" font-family="Helvetica,sans-Serif" font-size="10.00" fill="#000000">amr&#45;wind/core/FieldUtils.H</text>
</a>
</g>
</g>
<!-- Node27&#45;&gt;Node28 -->
<g id="edge41" class="edge">
<title>Node27&#45;&gt;Node28</title>
<path fill="none" stroke="#191970" d="M1735.1316,-187.6363C1811.7273,-179.107 1930.6685,-163.181 1971,-143 1999.1827,-128.898 2024.2095,-101.6947 2038.7404,-83.6913"/>
<polygon fill="#191970" stroke="#191970" points="2041.5945,-85.7232 2044.9984,-75.69 2036.0807,-81.4106 2041.5945,-85.7232"/>
</g>
<!-- Node30 -->
<g id="node31" class="node">
<title>Node30</title>
<g id="a_node31"><a xlink:href="_int_field_8_h.html" target="_top" xlink:title="amr&#45;wind/core/IntField.H">
<polygon fill="#ffffff" stroke="#000000" points="2023,-118 2023,-137 2147,-137 2147,-118 2023,-118"/>
<text text-anchor="middle" x="2085" y="-125" font-family="Helvetica,sans-Serif" font-size="10.00" fill="#000000">amr&#45;wind/core/IntField.H</text>
</a>
</g>
</g>
<!-- Node27&#45;&gt;Node30 -->
<g id="edge46" class="edge">
<title>Node27&#45;&gt;Node30</title>
<path fill="none" stroke="#191970" d="M1735.3023,-185.2746C1804.4575,-175.6853 1914.4017,-159.7575 2009,-143 2015.7707,-141.8006 2022.8641,-140.463 2029.882,-139.0901"/>
<polygon fill="#191970" stroke="#191970" points="2030.9386,-142.4486 2040.0639,-137.0652 2029.5732,-135.583 2030.9386,-142.4486"/>
</g>
<!-- Node27&#45;&gt;Node31 -->
<g id="edge59" class="edge">
<title>Node27&#45;&gt;Node31</title>
<path fill="none" stroke="#191970" d="M1735.0873,-193.1007C1851.6013,-189.7596 2083.6614,-178.7045 2156,-143 2182.8487,-129.7482 2205.0318,-102.2837 2217.6505,-83.9964"/>
<polygon fill="#191970" stroke="#191970" points="2220.5918,-85.894 2223.2037,-75.6261 2214.7588,-82.0241 2220.5918,-85.894"/>
</g>
<!-- Node32 -->
<g id="node33" class="node">
<title>Node32</title>
<g id="a_node33"><a xlink:href="_scratch_field_8_h.html" target="_top" xlink:title="amr&#45;wind/core/ScratchField.H">
<polygon fill="#ffffff" stroke="#000000" points="1594,-118 1594,-137 1740,-137 1740,-118 1594,-118"/>
<text text-anchor="middle" x="1667" y="-125" font-family="Helvetica,sans-Serif" font-size="10.00" fill="#000000">amr&#45;wind/core/ScratchField.H</text>
</a>
</g>
</g>
<!-- Node27&#45;&gt;Node32 -->
<g id="edge50" class="edge">
<title>Node27&#45;&gt;Node32</title>
<path fill="none" stroke="#191970" d="M1667,-184.9005C1667,-175.149 1667,-159.7597 1667,-147.3695"/>
<polygon fill="#191970" stroke="#191970" points="1670.5001,-147.0816 1667,-137.0817 1663.5001,-147.0817 1670.5001,-147.0816"/>
</g>
<!-- Node28&#45;&gt;Node12 -->
<g id="edge43" class="edge">
<title>Node28&#45;&gt;Node12</title>
<path fill="none" stroke="#191970" d="M1985.048,-57.5556C1899.6996,-46.7909 1753.2834,-28.324 1670.2511,-17.8515"/>
<polygon fill="#191970" stroke="#191970" points="1670.5607,-14.3629 1660.2013,-16.584 1669.6847,-21.3079 1670.5607,-14.3629"/>
</g>
<!-- Node28&#45;&gt;Node19 -->
<g id="edge42" class="edge">
<title>Node28&#45;&gt;Node19</title>
<path fill="none" stroke="#191970" d="M2022.6041,-56.3733C1994.1693,-47.0613 1950.9123,-32.8953 1919.6919,-22.671"/>
<polygon fill="#191970" stroke="#191970" points="1920.605,-19.2872 1910.0124,-19.5011 1918.4264,-25.9396 1920.605,-19.2872"/>
</g>
<!-- Node29 -->
<g id="node30" class="node">
<title>Node29</title>
<polygon fill="#ffffff" stroke="#bfbfbf" points="1994,-.5 1994,-19.5 2110,-19.5 2110,-.5 1994,-.5"/>
<text text-anchor="middle" x="2052" y="-7.5" font-family="Helvetica,sans-Serif" font-size="10.00" fill="#000000">AMReX_Interpolater.H</text>
</g>
<!-- Node28&#45;&gt;Node29 -->
<g id="edge44" class="edge">
<title>Node28&#45;&gt;Node29</title>
<path fill="none" stroke="#191970" d="M2052,-56.2455C2052,-48.9382 2052,-38.6944 2052,-29.7046"/>
<polygon fill="#191970" stroke="#191970" points="2055.5001,-29.6426 2052,-19.6427 2048.5001,-29.6427 2055.5001,-29.6426"/>
</g>
<!-- Node30&#45;&gt;Node10 -->
<g id="edge47" class="edge">
<title>Node30&#45;&gt;Node10</title>
<path fill="none" stroke="#191970" d="M2051.203,-117.9878C1996.094,-102.8018 1883.2559,-73.0587 1786,-56 1646.7168,-31.5698 1478.232,-17.3371 1409.9598,-12.2007"/>
<polygon fill="#191970" stroke="#191970" points="1410.1141,-8.7026 1399.8828,-11.4543 1409.5969,-15.6835 1410.1141,-8.7026"/>
</g>
<!-- Node30&#45;&gt;Node19 -->
<g id="edge48" class="edge">
<title>Node30&#45;&gt;Node19</title>
<path fill="none" stroke="#191970" d="M2098.2242,-117.8774C2116.3226,-103.5577 2144.7561,-76.1648 2128,-56 2117.6421,-43.535 2036.0625,-30.0394 1969.4476,-20.911"/>
<polygon fill="#191970" stroke="#191970" points="1969.6977,-17.413 1959.3186,-19.5404 1968.759,-24.3498 1969.6977,-17.413"/>
</g>
<!-- Node30&#45;&gt;Node31 -->
<g id="edge49" class="edge">
<title>Node30&#45;&gt;Node31</title>
<path fill="none" stroke="#191970" d="M2107.5,-117.8906C2131.5938,-107.6005 2170.0213,-91.1888 2197.2008,-79.5809"/>
<polygon fill="#191970" stroke="#191970" points="2198.8363,-82.6883 2206.658,-75.5419 2196.0869,-76.2508 2198.8363,-82.6883"/>
</g>
<!-- Node32&#45;&gt;Node10 -->
<g id="edge51" class="edge">
<title>Node32&#45;&gt;Node10</title>
<path fill="none" stroke="#191970" d="M1656.0917,-117.8852C1638.1382,-102.5552 1600.6842,-72.614 1564,-56 1512.5507,-32.699 1447.4852,-20.0223 1409.8201,-14.1596"/>
<polygon fill="#191970" stroke="#191970" points="1409.9139,-10.6349 1399.5065,-12.619 1408.8797,-17.5581 1409.9139,-10.6349"/>
</g>
<!-- Node32&#45;&gt;Node11 -->
<g id="edge55" class="edge">
<title>Node32&#45;&gt;Node11</title>
<path fill="none" stroke="#191970" d="M1593.9258,-118.8192C1542.0361,-111.2036 1471.3354,-97.8498 1412,-76 1376.3804,-62.8834 1338.5966,-40.2331 1315.3963,-25.1832"/>
<polygon fill="#191970" stroke="#191970" points="1317.2439,-22.2091 1306.9674,-19.6317 1313.3936,-28.0551 1317.2439,-22.2091"/>
</g>
<!-- Node32&#45;&gt;Node12 -->
<g id="edge54" class="edge">
<title>Node32&#45;&gt;Node12</title>
<path fill="none" stroke="#191970" d="M1713.8158,-117.9438C1756.5667,-107.0503 1809.7595,-86.6801 1786,-56 1771.7374,-37.583 1715.8741,-25.2135 1670.4847,-17.9824"/>
<polygon fill="#191970" stroke="#191970" points="1670.8044,-14.4905 1660.3885,-16.4296 1669.7402,-21.4092 1670.8044,-14.4905"/>
</g>
<!-- Node32&#45;&gt;Node19 -->
<g id="edge52" class="edge">
<title>Node32&#45;&gt;Node19</title>
<path fill="none" stroke="#191970" d="M1701.1384,-117.9365C1729.3127,-109.247 1769.7552,-94.902 1802,-76 1825.4161,-62.2734 1848.8533,-41.6044 1864.045,-27.0616"/>
<polygon fill="#191970" stroke="#191970" points="1866.8774,-29.1875 1871.584,-19.6954 1861.9853,-24.1806 1866.8774,-29.1875"/>
</g>
<!-- Node32&#45;&gt;Node20 -->
<g id="edge53" class="edge">
<title>Node32&#45;&gt;Node20</title>
<path fill="none" stroke="#191970" d="M1639.0313,-117.8906C1608.4245,-107.3749 1559.2101,-90.466 1525.3259,-78.8243"/>
<polygon fill="#191970" stroke="#191970" points="1526.367,-75.4812 1515.7724,-75.5419 1524.0924,-82.1014 1526.367,-75.4812"/>
</g>
<!-- Node33 -->
<g id="node34" class="node">
<title>Node33</title>
<polygon fill="#ffffff" stroke="#bfbfbf" points="1649,-56.5 1649,-75.5 1777,-75.5 1777,-56.5 1649,-56.5"/>
<text text-anchor="middle" x="1713" y="-63.5" font-family="Helvetica,sans-Serif" font-size="10.00" fill="#000000">AMReX_PhysBCFunct.H</text>
</g>
<!-- Node32&#45;&gt;Node33 -->
<g id="edge56" class="edge">
<title>Node32&#45;&gt;Node33</title>
<path fill="none" stroke="#191970" d="M1674.1875,-117.8906C1680.9666,-108.8273 1691.2978,-95.0149 1699.5973,-83.9188"/>
<polygon fill="#191970" stroke="#191970" points="1702.5243,-85.849 1705.7112,-75.7449 1696.9188,-81.6563 1702.5243,-85.849"/>
</g>
<!-- Node34&#45;&gt;Node3 -->
<g id="edge62" class="edge">
<title>Node34&#45;&gt;Node3</title>
<path fill="none" stroke="#191970" d="M567.408,-181.1631C514.7844,-170.9823 440.778,-156.4604 376,-143 370.2231,-141.7996 364.1875,-140.5205 358.1804,-139.2316"/>
<polygon fill="#191970" stroke="#191970" points="358.6622,-135.755 348.1487,-137.0652 357.1845,-142.5973 358.6622,-135.755"/>
</g>
<!-- Node34&#45;&gt;Node9 -->
<g id="edge63" class="edge">
<title>Node34&#45;&gt;Node9</title>
<path fill="none" stroke="#191970" d="M594.5847,-179.4639C561.4891,-167.7316 515.9988,-151.6054 484.5112,-140.4431"/>
<polygon fill="#191970" stroke="#191970" points="485.4082,-137.0477 474.8134,-137.0053 483.0693,-143.6454 485.4082,-137.0477"/>
</g>
<!-- Node34&#45;&gt;Node10 -->
<g id="edge61" class="edge">
<title>Node34&#45;&gt;Node10</title>
<path fill="none" stroke="#191970" d="M598.8386,-179.471C583.2387,-171.2068 566.8135,-159.2664 558,-143 537.0635,-104.3591 565.6288,-75.5286 605,-56 750.4636,16.1517 1169.9108,-47.9174 1348.1105,-19.4993"/>
<polygon fill="#191970" stroke="#191970" points="1348.9618,-22.9037 1358.2119,-17.738 1347.7594,-16.0077 1348.9618,-22.9037"/>
</g>
<!-- Node34&#45;&gt;Node18 -->
<g id="edge67" class="edge">
<title>Node34&#45;&gt;Node18</title>
<path fill="none" stroke="#191970" d="M674.4766,-179.4276C696.6772,-169.9735 725.0567,-156.9586 749,-143 769.3535,-131.1342 771.6474,-123.8673 792,-112 813.4223,-99.509 838.8213,-87.8619 858.661,-79.4126"/>
<polygon fill="#191970" stroke="#191970" points="860.0445,-82.6278 867.9122,-75.5319 857.3367,-76.1727 860.0445,-82.6278"/>
</g>
<!-- Node34&#45;&gt;Node19 -->
<g id="edge66" class="edge">
<title>Node34&#45;&gt;Node19</title>
<path fill="none" stroke="#191970" d="M674.1102,-179.485C689.6015,-171.172 706.0483,-159.1887 715,-143 733.716,-109.1531 689.8546,-83.5505 717,-56 754.1466,-18.299 1616.121,-22.2469 1669,-20 1708.3701,-18.3271 1751.8441,-16.3067 1789.1224,-14.5212"/>
<polygon fill="#191970" stroke="#191970" points="1789.6435,-18.0003 1799.464,-14.0243 1789.3075,-11.0083 1789.6435,-18.0003"/>
</g>
<!-- Node35 -->
<g id="node36" class="node">
<title>Node35</title>
<g id="a_node36"><a xlink:href="_p_d_e_fields_8_h.html" target="_top" xlink:title="amr&#45;wind/equation_systems\l/PDEFields.H">
<polygon fill="#ffffff" stroke="#000000" points="567.5,-112.5 567.5,-142.5 706.5,-142.5 706.5,-112.5 567.5,-112.5"/>
<text text-anchor="start" x="575.5" y="-130.5" font-family="Helvetica,sans-Serif" font-size="10.00" fill="#000000">amr&#45;wind/equation_systems</text>
<text text-anchor="middle" x="637" y="-119.5" font-family="Helvetica,sans-Serif" font-size="10.00" fill="#000000">/PDEFields.H</text>
</a>
</g>
</g>
<!-- Node34&#45;&gt;Node35 -->
<g id="edge64" class="edge">
<title>Node34&#45;&gt;Node35</title>
<path fill="none" stroke="#191970" d="M637,-179.2967C637,-171.5013 637,-161.7991 637,-152.9064"/>
<polygon fill="#191970" stroke="#191970" points="640.5001,-152.6431 637,-142.6432 633.5001,-152.6432 640.5001,-152.6431"/>
</g>
<!-- Node36 -->
<g id="node37" class="node">
<title>Node36</title>
<polygon fill="#ffffff" stroke="#bfbfbf" points="614.5,-56.5 614.5,-75.5 659.5,-75.5 659.5,-56.5 614.5,-56.5"/>
<text text-anchor="middle" x="637" y="-63.5" font-family="Helvetica,sans-Serif" font-size="10.00" fill="#000000">iosfwd</text>
</g>
<!-- Node35&#45;&gt;Node36 -->
<g id="edge65" class="edge">
<title>Node35&#45;&gt;Node36</title>
<path fill="none" stroke="#191970" d="M637,-112.2977C637,-104.3834 637,-94.6043 637,-86.0759"/>
<polygon fill="#191970" stroke="#191970" points="640.5001,-85.8469 637,-75.8469 633.5001,-85.847 640.5001,-85.8469"/>
</g>
</g>
</svg>
