<?xml version="1.0" encoding="UTF-8" standalone="no"?>
<!DOCTYPE svg PUBLIC "-//W3C//DTD SVG 1.1//EN"
 "http://www.w3.org/Graphics/SVG/1.1/DTD/svg11.dtd">
<!-- Generated by graphviz version 2.40.1 (20161225.0304)
 -->
<!-- Title: MOData.cpp Pages: 1 -->
<svg width="273pt" height="218pt"
 viewBox="0.00 0.00 272.50 218.00" xmlns="http://www.w3.org/2000/svg" xmlns:xlink="http://www.w3.org/1999/xlink">
<g id="graph0" class="graph" transform="scale(1 1) rotate(0) translate(4 214)">
<title>MOData.cpp</title>
<polygon fill="#ffffff" stroke="transparent" points="-4,4 -4,-214 268.5,-214 268.5,4 -4,4"/>
<!-- Node0 -->
<g id="node1" class="node">
<title>Node0</title>
<polygon fill="#bfbfbf" stroke="#000000" points="31,-190.5 31,-209.5 103,-209.5 103,-190.5 31,-190.5"/>
<text text-anchor="middle" x="67" y="-197.5" font-family="Helvetica,sans-Serif" font-size="10.00" fill="#000000">MOData.cpp</text>
</g>
<!-- Node1 -->
<g id="node2" class="node">
<title>Node1</title>
<polygon fill="#ffffff" stroke="#bfbfbf" points="0,-129 0,-148 40,-148 40,-129 0,-129"/>
<text text-anchor="middle" x="20" y="-136" font-family="Helvetica,sans-Serif" font-size="10.00" fill="#000000">limits</text>
</g>
<!-- Node0&#45;&gt;Node1 -->
<g id="edge1" class="edge">
<title>Node0&#45;&gt;Node1</title>
<path fill="none" stroke="#191970" d="M59.6563,-190.3906C52.7298,-181.3273 42.174,-167.5149 33.694,-156.4188"/>
<polygon fill="#191970" stroke="#191970" points="36.3003,-154.065 27.4473,-148.2449 30.7385,-158.3155 36.3003,-154.065"/>
</g>
<!-- Node2 -->
<g id="node3" class="node">
<title>Node2</title>
<g id="a_node3"><a xlink:href="_m_o_data_8_h.html" target="_top" xlink:title="amr&#45;wind/wind_energy\l/MOData.H">
<polygon fill="#ffffff" stroke="#000000" points="58,-123.5 58,-153.5 172,-153.5 172,-123.5 58,-123.5"/>
<text text-anchor="start" x="66" y="-141.5" font-family="Helvetica,sans-Serif" font-size="10.00" fill="#000000">amr&#45;wind/wind_energy</text>
<text text-anchor="middle" x="115" y="-130.5" font-family="Helvetica,sans-Serif" font-size="10.00" fill="#000000">/MOData.H</text>
</a>
</g>
</g>
<!-- Node0&#45;&gt;Node2 -->
<g id="edge2" class="edge">
<title>Node0&#45;&gt;Node2</title>
<path fill="none" stroke="#191970" d="M74.5,-190.3906C80.515,-182.6839 89.2101,-171.5434 97.0028,-161.5589"/>
<polygon fill="#191970" stroke="#191970" points="99.8642,-163.5812 103.2579,-153.5446 94.346,-159.2743 99.8642,-163.5812"/>
</g>
<!-- Node3 -->
<g id="node4" class="node">
<title>Node3</title>
<g id="a_node4"><a xlink:href="trig__ops_8_h.html" target="_top" xlink:title="Trigonometric utilities. ">
<polygon fill="#ffffff" stroke="#000000" points="70,-56.5 70,-86.5 160,-86.5 160,-56.5 70,-56.5"/>
<text text-anchor="start" x="78" y="-74.5" font-family="Helvetica,sans-Serif" font-size="10.00" fill="#000000">amr&#45;wind/utilities</text>
<text text-anchor="middle" x="115" y="-63.5" font-family="Helvetica,sans-Serif" font-size="10.00" fill="#000000">/trig_ops.H</text>
</a>
</g>
</g>
<!-- Node2&#45;&gt;Node3 -->
<g id="edge3" class="edge">
<title>Node2&#45;&gt;Node3</title>
<path fill="none" stroke="#191970" d="M115,-123.2967C115,-115.5013 115,-105.7991 115,-96.9064"/>
<polygon fill="#191970" stroke="#191970" points="118.5001,-96.6431 115,-86.6432 111.5001,-96.6432 118.5001,-96.6431"/>
</g>
<!-- Node4 -->
<g id="node5" class="node">
<title>Node4</title>
<polygon fill="#ffffff" stroke="#bfbfbf" points="6,-.5 6,-19.5 50,-19.5 50,-.5 6,-.5"/>
<text text-anchor="middle" x="28" y="-7.5" font-family="Helvetica,sans-Serif" font-size="10.00" fill="#000000">cmath</text>
</g>
<!-- Node3&#45;&gt;Node4 -->
<g id="edge4" class="edge">
<title>Node3&#45;&gt;Node4</title>
<path fill="none" stroke="#191970" d="M93.4944,-56.2977C80.2032,-46.9022 63.1943,-34.8787 49.8412,-25.4395"/>
<polygon fill="#191970" stroke="#191970" points="51.8561,-22.5776 41.67,-19.6633 47.8154,-28.2937 51.8561,-22.5776"/>
</g>
<!-- Node5 -->
<g id="node6" class="node">
<title>Node5</title>
<polygon fill="#ffffff" stroke="#bfbfbf" points="68.5,-.5 68.5,-19.5 161.5,-19.5 161.5,-.5 68.5,-.5"/>
<text text-anchor="middle" x="115" y="-7.5" font-family="Helvetica,sans-Serif" font-size="10.00" fill="#000000">AMReX_REAL.H</text>
</g>
<!-- Node3&#45;&gt;Node5 -->
<g id="edge5" class="edge">
<title>Node3&#45;&gt;Node5</title>
<path fill="none" stroke="#191970" d="M115,-56.2977C115,-48.3834 115,-38.6043 115,-30.0759"/>
<polygon fill="#191970" stroke="#191970" points="118.5001,-29.8469 115,-19.8469 111.5001,-29.847 118.5001,-29.8469"/>
</g>
<!-- Node6 -->
<g id="node7" class="node">
<title>Node6</title>
<polygon fill="#ffffff" stroke="#bfbfbf" points="179.5,-.5 179.5,-19.5 264.5,-19.5 264.5,-.5 179.5,-.5"/>
<text text-anchor="middle" x="222" y="-7.5" font-family="Helvetica,sans-Serif" font-size="10.00" fill="#000000">AMReX_Gpu.H</text>
</g>
<!-- Node3&#45;&gt;Node6 -->
<g id="edge6" class="edge">
<title>Node3&#45;&gt;Node6</title>
<path fill="none" stroke="#191970" d="M141.1751,-56.4554C158.0887,-46.734 179.9829,-34.15 196.7172,-24.5317"/>
<polygon fill="#191970" stroke="#191970" points="198.493,-27.548 205.4188,-19.5303 195.0047,-21.4791 198.493,-27.548"/>
</g>
</g>
</svg>
