<?xml version="1.0" encoding="UTF-8" standalone="no"?>
<!DOCTYPE svg PUBLIC "-//W3C//DTD SVG 1.1//EN"
 "http://www.w3.org/Graphics/SVG/1.1/DTD/svg11.dtd">
<!-- Generated by graphviz version 2.40.1 (20161225.0304)
 -->
<!-- Title: MomentumSource.H Pages: 1 -->
<!--zoomable 196 -->
<svg id="main" version="1.1" xmlns="http://www.w3.org/2000/svg" xmlns:xlink="http://www.w3.org/1999/xlink" xml:space="preserve" onload="init(evt)">
<style type="text/css"><![CDATA[
.edge:hover path { stroke: red; }
.edge:hover polygon { stroke: red; fill: red; }
]]></style>
<script type="text/javascript"><![CDATA[
var edges = document.getElementsByTagName('g');
if (edges && edges.length) {
  for (var i=0;i<edges.length;i++) {
    if (edges[i].id.substr(0,4)=='edge') {
      edges[i].setAttribute('class','edge');
    }
  }
}
]]></script>
        <defs>
                <circle id="rim" cx="0" cy="0" r="7"/>
                <circle id="rim2" cx="0" cy="0" r="3.5"/>
                <g id="zoomPlus">
                        <use xlink:href="#rim" fill="#404040">
                                <set attributeName="fill" to="#808080" begin="zoomplus.mouseover" end="zoomplus.mouseout"/>
                        </use>
                        <path d="M-4,0h8M0,-4v8" fill="none" stroke="white" stroke-width="1.5" pointer-events="none"/>
                </g>
                <g id="zoomMin">
                        <use xlink:href="#rim" fill="#404040">
                                <set attributeName="fill" to="#808080" begin="zoomminus.mouseover" end="zoomminus.mouseout"/>
                        </use>
                        <path d="M-4,0h8" fill="none" stroke="white" stroke-width="1.5" pointer-events="none"/>
                </g>
                <g id="dirArrow">
                        <path fill="none" stroke="white" stroke-width="1.5" d="M0,-3.0v7 M-2.5,-0.5L0,-3.0L2.5,-0.5"/>
                </g>
               <g id="resetDef">
                       <use xlink:href="#rim2" fill="#404040">
                               <set attributeName="fill" to="#808080" begin="reset.mouseover" end="reset.mouseout"/>
                       </use>
               </g>
        </defs>

<script type="text/javascript">
var viewWidth = 1930;
var viewHeight = 196;
var sectionId = 'dynsection-1';
</script>
<script xlink:href="svgpan.js"/>
<svg id="graph" class="graph">
<g id="viewport">
<title>MomentumSource.H</title>
<polygon fill="#ffffff" stroke="transparent" points="-4,4 -4,-192 1926.4623,-192 1926.4623,4 -4,4"/>
<!-- Node25 -->
<g id="node1" class="node">
<title>Node25</title>
<polygon fill="#bfbfbf" stroke="#000000" points="1188.4623,-168.5 1188.4623,-187.5 1295.4623,-187.5 1295.4623,-168.5 1188.4623,-168.5"/>
<text text-anchor="middle" x="1241.9623" y="-175.5" font-family="Helvetica,sans-Serif" font-size="10.00" fill="#000000">MomentumSource.H</text>
</g>
<!-- Node26 -->
<g id="node2" class="node">
<title>Node26</title>
<g id="a_node2"><a xlink:href="icns_8_h.html" target="_top" xlink:title="icns.H">
<polygon fill="#ffffff" stroke="#000000" points="218.4623,-112.5 218.4623,-131.5 263.4623,-131.5 263.4623,-112.5 218.4623,-112.5"/>
<text text-anchor="middle" x="240.9623" y="-119.5" font-family="Helvetica,sans-Serif" font-size="10.00" fill="#000000">icns.H</text>
</a>
</g>
</g>
<!-- Node25&#45;&gt;Node26 -->
<g id="edge1" class="edge">
<title>Node25&#45;&gt;Node26</title>
<path fill="none" stroke="#191970" d="M1177.9354,-174.4181C980.5762,-163.377 387.4418,-130.1947 263.7279,-123.2736"/>
<polygon fill="#191970" stroke="#191970" points="1177.9643,-177.9251 1188.1442,-174.9892 1178.3553,-170.936 1177.9643,-177.9251"/>
</g>
<!-- Node34 -->
<g id="node10" class="node">
<title>Node34</title>
<g id="a_node10"><a xlink:href="_a_b_l_forcing_8_h.html" target="_top" xlink:title="ABLForcing.H">
<polygon fill="#ffffff" stroke="#000000" points="674.9623,-112.5 674.9623,-131.5 752.9623,-131.5 752.9623,-112.5 674.9623,-112.5"/>
<text text-anchor="middle" x="713.9623" y="-119.5" font-family="Helvetica,sans-Serif" font-size="10.00" fill="#000000">ABLForcing.H</text>
</a>
</g>
</g>
<!-- Node25&#45;&gt;Node34 -->
<g id="edge13" class="edge">
<title>Node25&#45;&gt;Node34</title>
<path fill="none" stroke="#191970" d="M1178.067,-171.5944C1092.1005,-162.9202 934.4483,-146.8166 799.9623,-132 784.7227,-130.321 767.9745,-128.3925 753.3391,-126.6797"/>
<polygon fill="#191970" stroke="#191970" points="1177.8884,-175.094 1188.189,-172.6148 1178.5905,-168.1293 1177.8884,-175.094"/>
</g>
<!-- Node38 -->
<g id="node14" class="node">
<title>Node38</title>
<g id="a_node14"><a xlink:href="_a_b_l_mean_boussinesq_8_h.html" target="_top" xlink:title="ABLMeanBoussinesq.H">
<polygon fill="#ffffff" stroke="#000000" points="809.4623,-112.5 809.4623,-131.5 930.4623,-131.5 930.4623,-112.5 809.4623,-112.5"/>
<text text-anchor="middle" x="869.9623" y="-119.5" font-family="Helvetica,sans-Serif" font-size="10.00" fill="#000000">ABLMeanBoussinesq.H</text>
</a>
</g>
</g>
<!-- Node25&#45;&gt;Node38 -->
<g id="edge17" class="edge">
<title>Node25&#45;&gt;Node38</title>
<path fill="none" stroke="#191970" d="M1178.3459,-168.4233C1109.0272,-157.9883 998.9317,-141.4148 930.7478,-131.1505"/>
<polygon fill="#191970" stroke="#191970" points="1177.858,-171.8892 1188.2676,-169.9169 1178.9,-164.9672 1177.858,-171.8892"/>
</g>
<!-- Node40 -->
<g id="node16" class="node">
<title>Node40</title>
<g id="a_node16"><a xlink:href="_actuator_forcing_8_h.html" target="_top" xlink:title="ActuatorForcing.H">
<polygon fill="#ffffff" stroke="#000000" points="960.9623,-112.5 960.9623,-131.5 1056.9623,-131.5 1056.9623,-112.5 960.9623,-112.5"/>
<text text-anchor="middle" x="1008.9623" y="-119.5" font-family="Helvetica,sans-Serif" font-size="10.00" fill="#000000">ActuatorForcing.H</text>
</a>
</g>
</g>
<!-- Node25&#45;&gt;Node40 -->
<g id="edge20" class="edge">
<title>Node25&#45;&gt;Node40</title>
<path fill="none" stroke="#191970" d="M1192.2305,-166.0473C1149.3451,-155.7401 1088.2371,-141.0532 1048.5876,-131.5237"/>
<polygon fill="#191970" stroke="#191970" points="1191.6318,-169.503 1202.1729,-168.4369 1193.2677,-162.6968 1191.6318,-169.503"/>
</g>
<!-- Node42 -->
<g id="node18" class="node">
<title>Node42</title>
<g id="a_node18"><a xlink:href="_body_force_8_h.html" target="_top" xlink:title="BodyForce.H">
<polygon fill="#ffffff" stroke="#000000" points="1083.9623,-112.5 1083.9623,-131.5 1157.9623,-131.5 1157.9623,-112.5 1083.9623,-112.5"/>
<text text-anchor="middle" x="1120.9623" y="-119.5" font-family="Helvetica,sans-Serif" font-size="10.00" fill="#000000">BodyForce.H</text>
</a>
</g>
</g>
<!-- Node25&#45;&gt;Node42 -->
<g id="edge22" class="edge">
<title>Node25&#45;&gt;Node42</title>
<path fill="none" stroke="#191970" d="M1211.9519,-164.1109C1190.0098,-153.9559 1160.8235,-140.4482 1141.4915,-131.5011"/>
<polygon fill="#191970" stroke="#191970" points="1210.6164,-167.3494 1221.1616,-168.3733 1213.5565,-160.9968 1210.6164,-167.3494"/>
</g>
<!-- Node44 -->
<g id="node20" class="node">
<title>Node44</title>
<g id="a_node20"><a xlink:href="_boussinesq_buoyancy_8_h.html" target="_top" xlink:title="BoussinesqBuoyancy.H">
<polygon fill="#ffffff" stroke="#000000" points="1180.9623,-112.5 1180.9623,-131.5 1302.9623,-131.5 1302.9623,-112.5 1180.9623,-112.5"/>
<text text-anchor="middle" x="1241.9623" y="-119.5" font-family="Helvetica,sans-Serif" font-size="10.00" fill="#000000">BoussinesqBuoyancy.H</text>
</a>
</g>
</g>
<!-- Node25&#45;&gt;Node44 -->
<g id="edge24" class="edge">
<title>Node25&#45;&gt;Node44</title>
<path fill="none" stroke="#191970" d="M1241.9623,-158.1575C1241.9623,-149.155 1241.9623,-138.9199 1241.9623,-131.6427"/>
<polygon fill="#191970" stroke="#191970" points="1238.4624,-158.2455 1241.9623,-168.2455 1245.4624,-158.2456 1238.4624,-158.2455"/>
</g>
<!-- Node46 -->
<g id="node22" class="node">
<title>Node46</title>
<g id="a_node22"><a xlink:href="_coriolis_forcing_8_h.html" target="_top" xlink:title="CoriolisForcing.H">
<polygon fill="#ffffff" stroke="#000000" points="1324.9623,-112.5 1324.9623,-131.5 1416.9623,-131.5 1416.9623,-112.5 1324.9623,-112.5"/>
<text text-anchor="middle" x="1370.9623" y="-119.5" font-family="Helvetica,sans-Serif" font-size="10.00" fill="#000000">CoriolisForcing.H</text>
</a>
</g>
</g>
<!-- Node25&#45;&gt;Node46 -->
<g id="edge26" class="edge">
<title>Node25&#45;&gt;Node46</title>
<path fill="none" stroke="#191970" d="M1273.3293,-164.3833C1296.7907,-154.1985 1328.2808,-140.5284 1349.0758,-131.5011"/>
<polygon fill="#191970" stroke="#191970" points="1271.9174,-161.1806 1264.1382,-168.3733 1274.7049,-167.6017 1271.9174,-161.1806"/>
</g>
<!-- Node48 -->
<g id="node24" class="node">
<title>Node48</title>
<g id="a_node24"><a xlink:href="_density_buoyancy_8_h.html" target="_top" xlink:title="DensityBuoyancy.H">
<polygon fill="#ffffff" stroke="#000000" points="1441.9623,-112.5 1441.9623,-131.5 1545.9623,-131.5 1545.9623,-112.5 1441.9623,-112.5"/>
<text text-anchor="middle" x="1493.9623" y="-119.5" font-family="Helvetica,sans-Serif" font-size="10.00" fill="#000000">DensityBuoyancy.H</text>
</a>
</g>
</g>
<!-- Node25&#45;&gt;Node48 -->
<g id="edge28" class="edge">
<title>Node25&#45;&gt;Node48</title>
<path fill="none" stroke="#191970" d="M1294.8712,-166.2425C1341.2944,-155.9262 1407.9516,-141.1135 1451.1058,-131.5237"/>
<polygon fill="#191970" stroke="#191970" points="1293.9989,-162.8508 1284.9963,-168.4369 1295.5175,-169.6842 1293.9989,-162.8508"/>
</g>
<!-- Node50 -->
<g id="node26" class="node">
<title>Node50</title>
<g id="a_node26"><a xlink:href="_geostrophic_forcing_8_h.html" target="_top" xlink:title="GeostrophicForcing.H">
<polygon fill="#ffffff" stroke="#000000" points="1571.9623,-112.5 1571.9623,-131.5 1683.9623,-131.5 1683.9623,-112.5 1571.9623,-112.5"/>
<text text-anchor="middle" x="1627.9623" y="-119.5" font-family="Helvetica,sans-Serif" font-size="10.00" fill="#000000">GeostrophicForcing.H</text>
</a>
</g>
</g>
<!-- Node25&#45;&gt;Node50 -->
<g id="edge30" class="edge">
<title>Node25&#45;&gt;Node50</title>
<path fill="none" stroke="#191970" d="M1305.7796,-168.7415C1379.9681,-157.9784 1501.2411,-140.3844 1571.9313,-130.1288"/>
<polygon fill="#191970" stroke="#191970" points="1305.0278,-165.3139 1295.6339,-170.2134 1306.0329,-172.2413 1305.0278,-165.3139"/>
</g>
<!-- Node52 -->
<g id="node28" class="node">
<title>Node52</title>
<g id="a_node28"><a xlink:href="_gravity_forcing_8_h.html" target="_top" xlink:title="GravityForcing.H">
<polygon fill="#ffffff" stroke="#000000" points="1710.4623,-112.5 1710.4623,-131.5 1801.4623,-131.5 1801.4623,-112.5 1710.4623,-112.5"/>
<text text-anchor="middle" x="1755.9623" y="-119.5" font-family="Helvetica,sans-Serif" font-size="10.00" fill="#000000">GravityForcing.H</text>
</a>
</g>
</g>
<!-- Node25&#45;&gt;Node52 -->
<g id="edge32" class="edge">
<title>Node25&#45;&gt;Node52</title>
<path fill="none" stroke="#191970" d="M1305.5605,-172.6395C1393.0049,-165.0123 1555.2032,-149.9445 1692.9623,-132 1698.5629,-131.2705 1704.4324,-130.4347 1710.2414,-129.564"/>
<polygon fill="#191970" stroke="#191970" points="1305.1911,-169.1583 1295.5314,-173.5101 1305.7966,-176.132 1305.1911,-169.1583"/>
</g>
<!-- Node54 -->
<g id="node30" class="node">
<title>Node54</title>
<g id="a_node30"><a xlink:href="_m_m_s_forcing_8_h.html" target="_top" xlink:title="MMSForcing.H">
<polygon fill="#ffffff" stroke="#000000" points="1827.4623,-112.5 1827.4623,-131.5 1910.4623,-131.5 1910.4623,-112.5 1827.4623,-112.5"/>
<text text-anchor="middle" x="1868.9623" y="-119.5" font-family="Helvetica,sans-Serif" font-size="10.00" fill="#000000">MMSForcing.H</text>
</a>
</g>
</g>
<!-- Node25&#45;&gt;Node54 -->
<g id="edge34" class="edge">
<title>Node25&#45;&gt;Node54</title>
<path fill="none" stroke="#191970" d="M1305.6226,-174.7291C1411.0146,-168.8939 1628.2621,-155.0875 1810.9623,-132 1816.2337,-131.3339 1821.7567,-130.5257 1827.2116,-129.6608"/>
<polygon fill="#191970" stroke="#191970" points="1305.2649,-171.2433 1295.4715,-175.2855 1305.6481,-178.2329 1305.2649,-171.2433"/>
</g>
<!-- Node27 -->
<g id="node3" class="node">
<title>Node27</title>
<g id="a_node3"><a xlink:href="icns_8cpp.html" target="_top" xlink:title="icns.cpp">
<polygon fill="#ffffff" stroke="#000000" points="117.4623,-.5 117.4623,-19.5 170.4623,-19.5 170.4623,-.5 117.4623,-.5"/>
<text text-anchor="middle" x="143.9623" y="-7.5" font-family="Helvetica,sans-Serif" font-size="10.00" fill="#000000">icns.cpp</text>
</a>
</g>
</g>
<!-- Node26&#45;&gt;Node27 -->
<g id="edge2" class="edge">
<title>Node26&#45;&gt;Node27</title>
<path fill="none" stroke="#191970" d="M208.3205,-120.5208C150.1051,-117.1245 32.094,-106.5531 6.9623,-76 -25.4066,-36.6485 68.8981,-19.119 117.274,-12.8744"/>
<polygon fill="#191970" stroke="#191970" points="208.2828,-124.0239 218.4588,-121.0747 208.6647,-117.0343 208.2828,-124.0239"/>
</g>
<!-- Node28 -->
<g id="node4" class="node">
<title>Node28</title>
<g id="a_node4"><a xlink:href="icns__ops_8_h.html" target="_top" xlink:title="icns_ops.H">
<polygon fill="#ffffff" stroke="#000000" points="15.9623,-56.5 15.9623,-75.5 81.9623,-75.5 81.9623,-56.5 15.9623,-56.5"/>
<text text-anchor="middle" x="48.9623" y="-63.5" font-family="Helvetica,sans-Serif" font-size="10.00" fill="#000000">icns_ops.H</text>
</a>
</g>
</g>
<!-- Node26&#45;&gt;Node28 -->
<g id="edge3" class="edge">
<title>Node26&#45;&gt;Node28</title>
<path fill="none" stroke="#191970" d="M208.3684,-112.4934C173.0453,-102.1909 117.0046,-85.8457 81.6463,-75.5328"/>
<polygon fill="#191970" stroke="#191970" points="207.6034,-115.9161 218.1834,-115.3562 209.5634,-109.1961 207.6034,-115.9161"/>
</g>
<!-- Node29 -->
<g id="node5" class="node">
<title>Node29</title>
<g id="a_node5"><a xlink:href="icns__advection_8_h.html" target="_top" xlink:title="icns_advection.H">
<polygon fill="#ffffff" stroke="#000000" points="294.9623,-56.5 294.9623,-75.5 386.9623,-75.5 386.9623,-56.5 294.9623,-56.5"/>
<text text-anchor="middle" x="340.9623" y="-63.5" font-family="Helvetica,sans-Serif" font-size="10.00" fill="#000000">icns_advection.H</text>
</a>
</g>
</g>
<!-- Node26&#45;&gt;Node29 -->
<g id="edge5" class="edge">
<title>Node26&#45;&gt;Node29</title>
<path fill="none" stroke="#191970" d="M267.172,-107.3225C285.034,-97.3198 308.1778,-84.3593 323.7432,-75.6427"/>
<polygon fill="#191970" stroke="#191970" points="265.3959,-104.3057 258.381,-112.2455 268.8162,-110.4132 265.3959,-104.3057"/>
</g>
<!-- Node31 -->
<g id="node7" class="node">
<title>Node31</title>
<g id="a_node7"><a xlink:href="icns__diffusion_8_h.html" target="_top" xlink:title="icns_diffusion.H">
<polygon fill="#ffffff" stroke="#000000" points="100.4623,-56.5 100.4623,-75.5 187.4623,-75.5 187.4623,-56.5 100.4623,-56.5"/>
<text text-anchor="middle" x="143.9623" y="-63.5" font-family="Helvetica,sans-Serif" font-size="10.00" fill="#000000">icns_diffusion.H</text>
</a>
</g>
</g>
<!-- Node26&#45;&gt;Node31 -->
<g id="edge8" class="edge">
<title>Node26&#45;&gt;Node31</title>
<path fill="none" stroke="#191970" d="M215.0607,-107.0465C197.8014,-97.0824 175.6247,-84.2794 160.6648,-75.6427"/>
<polygon fill="#191970" stroke="#191970" points="213.6558,-110.2768 224.0662,-112.2455 217.1557,-104.2146 213.6558,-110.2768"/>
</g>
<!-- Node32 -->
<g id="node8" class="node">
<title>Node32</title>
<g id="a_node8"><a xlink:href="icns__bcop_8_h.html" target="_top" xlink:title="icns_bcop.H">
<polygon fill="#ffffff" stroke="#000000" points="205.4623,-56.5 205.4623,-75.5 276.4623,-75.5 276.4623,-56.5 205.4623,-56.5"/>
<text text-anchor="middle" x="240.9623" y="-63.5" font-family="Helvetica,sans-Serif" font-size="10.00" fill="#000000">icns_bcop.H</text>
</a>
</g>
</g>
<!-- Node26&#45;&gt;Node32 -->
<g id="edge10" class="edge">
<title>Node26&#45;&gt;Node32</title>
<path fill="none" stroke="#191970" d="M240.9623,-102.1575C240.9623,-93.155 240.9623,-82.9199 240.9623,-75.6427"/>
<polygon fill="#191970" stroke="#191970" points="237.4624,-102.2455 240.9623,-112.2455 244.4624,-102.2456 237.4624,-102.2455"/>
</g>
<!-- Node33 -->
<g id="node9" class="node">
<title>Node33</title>
<g id="a_node9"><a xlink:href="_power_law_profile_8cpp.html" target="_top" xlink:title="PowerLawProfile.cpp">
<polygon fill="#ffffff" stroke="#000000" points="405.4623,-56.5 405.4623,-75.5 514.4623,-75.5 514.4623,-56.5 405.4623,-56.5"/>
<text text-anchor="middle" x="459.9623" y="-63.5" font-family="Helvetica,sans-Serif" font-size="10.00" fill="#000000">PowerLawProfile.cpp</text>
</a>
</g>
</g>
<!-- Node26&#45;&gt;Node33 -->
<g id="edge12" class="edge">
<title>Node26&#45;&gt;Node33</title>
<path fill="none" stroke="#191970" d="M273.3043,-113.7299C313.1042,-103.5528 380.5537,-86.3054 422.5481,-75.5671"/>
<polygon fill="#191970" stroke="#191970" points="272.3954,-110.3496 263.5743,-116.2179 274.1297,-117.1314 272.3954,-110.3496"/>
</g>
<!-- Node28&#45;&gt;Node27 -->
<g id="edge4" class="edge">
<title>Node28&#45;&gt;Node27</title>
<path fill="none" stroke="#191970" d="M74.3299,-51.0465C91.2333,-41.0824 112.9527,-28.2794 127.6042,-19.6427"/>
<polygon fill="#191970" stroke="#191970" points="72.3474,-48.1522 65.51,-56.2455 75.9021,-54.1825 72.3474,-48.1522"/>
</g>
<!-- Node29&#45;&gt;Node27 -->
<g id="edge6" class="edge">
<title>Node29&#45;&gt;Node27</title>
<path fill="none" stroke="#191970" d="M297.1432,-53.5438C258.4369,-42.541 203.2405,-26.8507 170.7557,-17.6164"/>
<polygon fill="#191970" stroke="#191970" points="296.5208,-57.0055 307.0968,-56.3733 298.4349,-50.2723 296.5208,-57.0055"/>
</g>
<!-- Node30 -->
<g id="node6" class="node">
<title>Node30</title>
<g id="a_node6"><a xlink:href="icns__advection_8cpp.html" target="_top" xlink:title="icns_advection.cpp">
<polygon fill="#ffffff" stroke="#000000" points="290.4623,-.5 290.4623,-19.5 391.4623,-19.5 391.4623,-.5 290.4623,-.5"/>
<text text-anchor="middle" x="340.9623" y="-7.5" font-family="Helvetica,sans-Serif" font-size="10.00" fill="#000000">icns_advection.cpp</text>
</a>
</g>
</g>
<!-- Node29&#45;&gt;Node30 -->
<g id="edge7" class="edge">
<title>Node29&#45;&gt;Node30</title>
<path fill="none" stroke="#191970" d="M340.9623,-46.1575C340.9623,-37.155 340.9623,-26.9199 340.9623,-19.6427"/>
<polygon fill="#191970" stroke="#191970" points="337.4624,-46.2455 340.9623,-56.2455 344.4624,-46.2456 337.4624,-46.2455"/>
</g>
<!-- Node31&#45;&gt;Node27 -->
<g id="edge9" class="edge">
<title>Node31&#45;&gt;Node27</title>
<path fill="none" stroke="#191970" d="M143.9623,-46.1575C143.9623,-37.155 143.9623,-26.9199 143.9623,-19.6427"/>
<polygon fill="#191970" stroke="#191970" points="140.4624,-46.2455 143.9623,-56.2455 147.4624,-46.2456 140.4624,-46.2455"/>
</g>
<!-- Node32&#45;&gt;Node27 -->
<g id="edge11" class="edge">
<title>Node32&#45;&gt;Node27</title>
<path fill="none" stroke="#191970" d="M215.0607,-51.0465C197.8014,-41.0824 175.6247,-28.2794 160.6648,-19.6427"/>
<polygon fill="#191970" stroke="#191970" points="213.6558,-54.2768 224.0662,-56.2455 217.1557,-48.2146 213.6558,-54.2768"/>
</g>
<!-- Node35 -->
<g id="node11" class="node">
<title>Node35</title>
<g id="a_node11"><a xlink:href="_a_b_l_forcing_8cpp.html" target="_top" xlink:title="ABLForcing.cpp">
<polygon fill="#ffffff" stroke="#000000" points="532.9623,-56.5 532.9623,-75.5 618.9623,-75.5 618.9623,-56.5 532.9623,-56.5"/>
<text text-anchor="middle" x="575.9623" y="-63.5" font-family="Helvetica,sans-Serif" font-size="10.00" fill="#000000">ABLForcing.cpp</text>
</a>
</g>
</g>
<!-- Node34&#45;&gt;Node35 -->
<g id="edge14" class="edge">
<title>Node34&#45;&gt;Node35</title>
<path fill="none" stroke="#191970" d="M680.741,-108.5189C655.6083,-98.3201 621.7204,-84.5685 599.3758,-75.5011"/>
<polygon fill="#191970" stroke="#191970" points="679.657,-111.8562 690.2392,-112.3733 682.2892,-105.3699 679.657,-111.8562"/>
</g>
<!-- Node36 -->
<g id="node12" class="node">
<title>Node36</title>
<g id="a_node12"><a xlink:href="_a_b_l_8cpp.html" target="_top" xlink:title="ABL.cpp">
<polygon fill="#ffffff" stroke="#000000" points="732.9623,-56.5 732.9623,-75.5 786.9623,-75.5 786.9623,-56.5 732.9623,-56.5"/>
<text text-anchor="middle" x="759.9623" y="-63.5" font-family="Helvetica,sans-Serif" font-size="10.00" fill="#000000">ABL.cpp</text>
</a>
</g>
</g>
<!-- Node34&#45;&gt;Node36 -->
<g id="edge15" class="edge">
<title>Node34&#45;&gt;Node36</title>
<path fill="none" stroke="#191970" d="M728.337,-104.5004C736.1594,-94.9775 745.5383,-83.5596 752.0415,-75.6427"/>
<polygon fill="#191970" stroke="#191970" points="725.6178,-102.2967 721.9749,-112.2455 731.0269,-106.7399 725.6178,-102.2967"/>
</g>
<!-- Node37 -->
<g id="node13" class="node">
<title>Node37</title>
<g id="a_node13"><a xlink:href="_a_b_l_stats_8cpp.html" target="_top" xlink:title="ABLStats.cpp">
<polygon fill="#ffffff" stroke="#000000" points="637.4623,-56.5 637.4623,-75.5 714.4623,-75.5 714.4623,-56.5 637.4623,-56.5"/>
<text text-anchor="middle" x="675.9623" y="-63.5" font-family="Helvetica,sans-Serif" font-size="10.00" fill="#000000">ABLStats.cpp</text>
</a>
</g>
</g>
<!-- Node34&#45;&gt;Node37 -->
<g id="edge16" class="edge">
<title>Node34&#45;&gt;Node37</title>
<path fill="none" stroke="#191970" d="M701.6944,-103.9209C695.3135,-94.5176 687.7692,-83.3997 682.5055,-75.6427"/>
<polygon fill="#191970" stroke="#191970" points="698.832,-105.936 707.3432,-112.2455 704.6243,-102.0055 698.832,-105.936"/>
</g>
<!-- Node38&#45;&gt;Node36 -->
<g id="edge19" class="edge">
<title>Node38&#45;&gt;Node36</title>
<path fill="none" stroke="#191970" d="M841.6708,-107.5971C821.9512,-97.558 796.1823,-84.4393 778.9033,-75.6427"/>
<polygon fill="#191970" stroke="#191970" points="840.3022,-110.8277 850.8017,-112.2455 843.478,-104.5896 840.3022,-110.8277"/>
</g>
<!-- Node39 -->
<g id="node15" class="node">
<title>Node39</title>
<g id="a_node15"><a xlink:href="_a_b_l_mean_boussinesq_8cpp.html" target="_top" xlink:title="ABLMeanBoussinesq.cpp">
<polygon fill="#ffffff" stroke="#000000" points="805.4623,-56.5 805.4623,-75.5 934.4623,-75.5 934.4623,-56.5 805.4623,-56.5"/>
<text text-anchor="middle" x="869.9623" y="-63.5" font-family="Helvetica,sans-Serif" font-size="10.00" fill="#000000">ABLMeanBoussinesq.cpp</text>
</a>
</g>
</g>
<!-- Node38&#45;&gt;Node39 -->
<g id="edge18" class="edge">
<title>Node38&#45;&gt;Node39</title>
<path fill="none" stroke="#191970" d="M869.9623,-102.1575C869.9623,-93.155 869.9623,-82.9199 869.9623,-75.6427"/>
<polygon fill="#191970" stroke="#191970" points="866.4624,-102.2455 869.9623,-112.2455 873.4624,-102.2456 866.4624,-102.2455"/>
</g>
<!-- Node41 -->
<g id="node17" class="node">
<title>Node41</title>
<g id="a_node17"><a xlink:href="_actuator_forcing_8cpp.html" target="_top" xlink:title="ActuatorForcing.cpp">
<polygon fill="#ffffff" stroke="#000000" points="952.9623,-56.5 952.9623,-75.5 1056.9623,-75.5 1056.9623,-56.5 952.9623,-56.5"/>
<text text-anchor="middle" x="1004.9623" y="-63.5" font-family="Helvetica,sans-Serif" font-size="10.00" fill="#000000">ActuatorForcing.cpp</text>
</a>
</g>
</g>
<!-- Node40&#45;&gt;Node41 -->
<g id="edge21" class="edge">
<title>Node40&#45;&gt;Node41</title>
<path fill="none" stroke="#191970" d="M1007.545,-102.1575C1006.9019,-93.155 1006.1708,-82.9199 1005.651,-75.6427"/>
<polygon fill="#191970" stroke="#191970" points="1004.0619,-102.5204 1008.2655,-112.2455 1011.0441,-102.0216 1004.0619,-102.5204"/>
</g>
<!-- Node43 -->
<g id="node19" class="node">
<title>Node43</title>
<g id="a_node19"><a xlink:href="_body_force_8cpp.html" target="_top" xlink:title="BodyForce.cpp">
<polygon fill="#ffffff" stroke="#000000" points="1075.4623,-56.5 1075.4623,-75.5 1158.4623,-75.5 1158.4623,-56.5 1075.4623,-56.5"/>
<text text-anchor="middle" x="1116.9623" y="-63.5" font-family="Helvetica,sans-Serif" font-size="10.00" fill="#000000">BodyForce.cpp</text>
</a>
</g>
</g>
<!-- Node42&#45;&gt;Node43 -->
<g id="edge23" class="edge">
<title>Node42&#45;&gt;Node43</title>
<path fill="none" stroke="#191970" d="M1119.545,-102.1575C1118.9019,-93.155 1118.1708,-82.9199 1117.651,-75.6427"/>
<polygon fill="#191970" stroke="#191970" points="1116.0619,-102.5204 1120.2655,-112.2455 1123.0441,-102.0216 1116.0619,-102.5204"/>
</g>
<!-- Node45 -->
<g id="node21" class="node">
<title>Node45</title>
<g id="a_node21"><a xlink:href="_boussinesq_buoyancy_8cpp.html" target="_top" xlink:title="BoussinesqBuoyancy.cpp">
<polygon fill="#ffffff" stroke="#000000" points="1176.9623,-56.5 1176.9623,-75.5 1306.9623,-75.5 1306.9623,-56.5 1176.9623,-56.5"/>
<text text-anchor="middle" x="1241.9623" y="-63.5" font-family="Helvetica,sans-Serif" font-size="10.00" fill="#000000">BoussinesqBuoyancy.cpp</text>
</a>
</g>
</g>
<!-- Node44&#45;&gt;Node45 -->
<g id="edge25" class="edge">
<title>Node44&#45;&gt;Node45</title>
<path fill="none" stroke="#191970" d="M1241.9623,-102.1575C1241.9623,-93.155 1241.9623,-82.9199 1241.9623,-75.6427"/>
<polygon fill="#191970" stroke="#191970" points="1238.4624,-102.2455 1241.9623,-112.2455 1245.4624,-102.2456 1238.4624,-102.2455"/>
</g>
<!-- Node47 -->
<g id="node23" class="node">
<title>Node47</title>
<g id="a_node23"><a xlink:href="_coriolis_forcing_8cpp.html" target="_top" xlink:title="CoriolisForcing.cpp">
<polygon fill="#ffffff" stroke="#000000" points="1325.4623,-56.5 1325.4623,-75.5 1426.4623,-75.5 1426.4623,-56.5 1325.4623,-56.5"/>
<text text-anchor="middle" x="1375.9623" y="-63.5" font-family="Helvetica,sans-Serif" font-size="10.00" fill="#000000">CoriolisForcing.cpp</text>
</a>
</g>
</g>
<!-- Node46&#45;&gt;Node47 -->
<g id="edge27" class="edge">
<title>Node46&#45;&gt;Node47</title>
<path fill="none" stroke="#191970" d="M1372.7339,-102.1575C1373.5377,-93.155 1374.4516,-82.9199 1375.1013,-75.6427"/>
<polygon fill="#191970" stroke="#191970" points="1369.2365,-101.9739 1371.8332,-112.2455 1376.2088,-102.5965 1369.2365,-101.9739"/>
</g>
<!-- Node49 -->
<g id="node25" class="node">
<title>Node49</title>
<g id="a_node25"><a xlink:href="_density_buoyancy_8cpp.html" target="_top" xlink:title="DensityBuoyancy.cpp">
<polygon fill="#ffffff" stroke="#000000" points="1444.4623,-56.5 1444.4623,-75.5 1557.4623,-75.5 1557.4623,-56.5 1444.4623,-56.5"/>
<text text-anchor="middle" x="1500.9623" y="-63.5" font-family="Helvetica,sans-Serif" font-size="10.00" fill="#000000">DensityBuoyancy.cpp</text>
</a>
</g>
</g>
<!-- Node48&#45;&gt;Node49 -->
<g id="edge29" class="edge">
<title>Node48&#45;&gt;Node49</title>
<path fill="none" stroke="#191970" d="M1496.4426,-102.1575C1497.5679,-93.155 1498.8473,-82.9199 1499.757,-75.6427"/>
<polygon fill="#191970" stroke="#191970" points="1492.9491,-101.8886 1495.1816,-112.2455 1499.895,-102.7569 1492.9491,-101.8886"/>
</g>
<!-- Node51 -->
<g id="node27" class="node">
<title>Node51</title>
<g id="a_node27"><a xlink:href="_geostrophic_forcing_8cpp.html" target="_top" xlink:title="GeostrophicForcing.cpp">
<polygon fill="#ffffff" stroke="#000000" points="1575.9623,-56.5 1575.9623,-75.5 1695.9623,-75.5 1695.9623,-56.5 1575.9623,-56.5"/>
<text text-anchor="middle" x="1635.9623" y="-63.5" font-family="Helvetica,sans-Serif" font-size="10.00" fill="#000000">GeostrophicForcing.cpp</text>
</a>
</g>
</g>
<!-- Node50&#45;&gt;Node51 -->
<g id="edge31" class="edge">
<title>Node50&#45;&gt;Node51</title>
<path fill="none" stroke="#191970" d="M1630.7969,-102.1575C1632.083,-93.155 1633.5452,-82.9199 1634.5848,-75.6427"/>
<polygon fill="#191970" stroke="#191970" points="1627.3053,-101.851 1629.3558,-112.2455 1634.2349,-102.8411 1627.3053,-101.851"/>
</g>
<!-- Node53 -->
<g id="node29" class="node">
<title>Node53</title>
<g id="a_node29"><a xlink:href="_gravity_forcing_8cpp.html" target="_top" xlink:title="GravityForcing.cpp">
<polygon fill="#ffffff" stroke="#000000" points="1714.4623,-56.5 1714.4623,-75.5 1813.4623,-75.5 1813.4623,-56.5 1714.4623,-56.5"/>
<text text-anchor="middle" x="1763.9623" y="-63.5" font-family="Helvetica,sans-Serif" font-size="10.00" fill="#000000">GravityForcing.cpp</text>
</a>
</g>
</g>
<!-- Node52&#45;&gt;Node53 -->
<g id="edge33" class="edge">
<title>Node52&#45;&gt;Node53</title>
<path fill="none" stroke="#191970" d="M1758.7969,-102.1575C1760.083,-93.155 1761.5452,-82.9199 1762.5848,-75.6427"/>
<polygon fill="#191970" stroke="#191970" points="1755.3053,-101.851 1757.3558,-112.2455 1762.2349,-102.8411 1755.3053,-101.851"/>
</g>
<!-- Node55 -->
<g id="node31" class="node">
<title>Node55</title>
<g id="a_node31"><a xlink:href="_m_m_s_forcing_8cpp.html" target="_top" xlink:title="MMSForcing.cpp">
<polygon fill="#ffffff" stroke="#000000" points="1831.4623,-56.5 1831.4623,-75.5 1922.4623,-75.5 1922.4623,-56.5 1831.4623,-56.5"/>
<text text-anchor="middle" x="1876.9623" y="-63.5" font-family="Helvetica,sans-Serif" font-size="10.00" fill="#000000">MMSForcing.cpp</text>
</a>
</g>
</g>
<!-- Node54&#45;&gt;Node55 -->
<g id="edge35" class="edge">
<title>Node54&#45;&gt;Node55</title>
<path fill="none" stroke="#191970" d="M1871.7969,-102.1575C1873.083,-93.155 1874.5452,-82.9199 1875.5848,-75.6427"/>
<polygon fill="#191970" stroke="#191970" points="1868.3053,-101.851 1870.3558,-112.2455 1875.2349,-102.8411 1868.3053,-101.851"/>
</g>
</g>
</svg>
        <g id="navigator" transform="translate(0 0)" fill="#404254">
                <rect fill="#f2f5e9" fill-opacity="0.5" stroke="#606060" stroke-width=".5" x="0" y="0" width="60" height="60"/>
                <use id="zoomplus" xlink:href="#zoomPlus" x="17" y="9" onmousedown="handleZoom(evt,'in')"/>
                <use id="zoomminus" xlink:href="#zoomMin" x="42" y="9" onmousedown="handleZoom(evt,'out')"/>
                <use id="reset" xlink:href="#resetDef" x="30" y="36" onmousedown="handleReset()"/>
                <g id="arrowUp" xlink:href="#dirArrow" transform="translate(30 24)" onmousedown="handlePan(0,-1)">
                  <use xlink:href="#rim" fill="#404040">
                        <set attributeName="fill" to="#808080" begin="arrowUp.mouseover" end="arrowUp.mouseout"/>
                  </use>
                  <path fill="none" stroke="white" stroke-width="1.5" d="M0,-3.0v7 M-2.5,-0.5L0,-3.0L2.5,-0.5"/>
                </g>
                <g id="arrowRight" xlink:href="#dirArrow" transform="rotate(90) translate(36 -43)" onmousedown="handlePan(1,0)">
                  <use xlink:href="#rim" fill="#404040">
                        <set attributeName="fill" to="#808080" begin="arrowRight.mouseover" end="arrowRight.mouseout"/>
                  </use>
                  <path fill="none" stroke="white" stroke-width="1.5" d="M0,-3.0v7 M-2.5,-0.5L0,-3.0L2.5,-0.5"/>
                </g>
                <g id="arrowDown" xlink:href="#dirArrow" transform="rotate(180) translate(-30 -48)" onmousedown="handlePan(0,1)">
                  <use xlink:href="#rim" fill="#404040">
                        <set attributeName="fill" to="#808080" begin="arrowDown.mouseover" end="arrowDown.mouseout"/>
                  </use>
                  <path fill="none" stroke="white" stroke-width="1.5" d="M0,-3.0v7 M-2.5,-0.5L0,-3.0L2.5,-0.5"/>
                </g>
                <g id="arrowLeft" xlink:href="#dirArrow" transform="rotate(270) translate(-36 17)" onmousedown="handlePan(-1,0)">
                  <use xlink:href="#rim" fill="#404040">
                        <set attributeName="fill" to="#808080" begin="arrowLeft.mouseover" end="arrowLeft.mouseout"/>
                  </use>
                  <path fill="none" stroke="white" stroke-width="1.5" d="M0,-3.0v7 M-2.5,-0.5L0,-3.0L2.5,-0.5"/>
                </g>
        </g>
        <svg viewBox="0 0 15 15" width="100%" height="30px" preserveAspectRatio="xMaxYMin meet">
         <g id="arrow_out" transform="scale(0.3 0.3)">
          <a xlink:href="_momentum_source_8_h__dep__incl_org.svg" target="_base">
           <rect id="button" ry="5" rx="5" y="6" x="6" height="38" width="38"
                fill="#f2f5e9" fill-opacity="0.5" stroke="#606060" stroke-width="1.0"/>
           <path id="arrow"
             d="M 11.500037,31.436501 C 11.940474,20.09759 22.043105,11.32322 32.158766,21.979434 L 37.068811,17.246167 C 37.068811,17.246167 37.088388,32 37.088388,32 L 22.160133,31.978069 C 22.160133,31.978069 26.997745,27.140456 26.997745,27.140456 C 18.528582,18.264221 13.291696,25.230495 11.500037,31.436501 z"
             style="fill:#404040;"/>
          </a>
         </g>
        </svg>
</svg>
