<?xml version="1.0" encoding="UTF-8" standalone="no"?>
<!DOCTYPE svg PUBLIC "-//W3C//DTD SVG 1.1//EN"
 "http://www.w3.org/Graphics/SVG/1.1/DTD/svg11.dtd">
<!-- Generated by graphviz version 2.40.1 (20161225.0304)
 -->
<!-- Title: MultiPhase.H Pages: 1 -->
<svg width="321pt" height="196pt"
 viewBox="0.00 0.00 321.00 196.00" xmlns="http://www.w3.org/2000/svg" xmlns:xlink="http://www.w3.org/1999/xlink">
<g id="graph0" class="graph" transform="scale(1 1) rotate(0) translate(4 192)">
<title>MultiPhase.H</title>
<polygon fill="#ffffff" stroke="transparent" points="-4,4 -4,-192 317,-192 317,4 -4,4"/>
<!-- Node20 -->
<g id="node1" class="node">
<title>Node20</title>
<polygon fill="#bfbfbf" stroke="#000000" points="62,-168.5 62,-187.5 138,-187.5 138,-168.5 62,-168.5"/>
<text text-anchor="middle" x="100" y="-175.5" font-family="Helvetica,sans-Serif" font-size="10.00" fill="#000000">MultiPhase.H</text>
</g>
<!-- Node21 -->
<g id="node2" class="node">
<title>Node21</title>
<g id="a_node2"><a xlink:href="_multi_phase_8cpp.html" target="_top" xlink:title="MultiPhase.cpp">
<polygon fill="#ffffff" stroke="#000000" points="0,-112.5 0,-131.5 84,-131.5 84,-112.5 0,-112.5"/>
<text text-anchor="middle" x="42" y="-119.5" font-family="Helvetica,sans-Serif" font-size="10.00" fill="#000000">MultiPhase.cpp</text>
</a>
</g>
</g>
<!-- Node20&#45;&gt;Node21 -->
<g id="edge1" class="edge">
<title>Node20&#45;&gt;Node21</title>
<path fill="none" stroke="#191970" d="M82.4707,-161.0751C72.4917,-151.4402 60.3524,-139.7196 51.9871,-131.6427"/>
<polygon fill="#191970" stroke="#191970" points="80.272,-163.8175 89.8972,-168.2455 85.1342,-158.7817 80.272,-163.8175"/>
</g>
<!-- Node22 -->
<g id="node3" class="node">
<title>Node22</title>
<g id="a_node3"><a xlink:href="_two_phase_transport_8_h.html" target="_top" xlink:title="TwoPhaseTransport.H">
<polygon fill="#ffffff" stroke="#000000" points="101.5,-112.5 101.5,-131.5 216.5,-131.5 216.5,-112.5 101.5,-112.5"/>
<text text-anchor="middle" x="159" y="-119.5" font-family="Helvetica,sans-Serif" font-size="10.00" fill="#000000">TwoPhaseTransport.H</text>
</a>
</g>
</g>
<!-- Node20&#45;&gt;Node22 -->
<g id="edge2" class="edge">
<title>Node20&#45;&gt;Node22</title>
<path fill="none" stroke="#191970" d="M117.5307,-161.3607C127.7377,-151.6727 140.2469,-139.7995 148.8408,-131.6427"/>
<polygon fill="#191970" stroke="#191970" points="115.1206,-158.8227 110.277,-168.2455 119.9396,-163.8998 115.1206,-158.8227"/>
</g>
<!-- Node23 -->
<g id="node4" class="node">
<title>Node23</title>
<g id="a_node4"><a xlink:href="_turb_model_defs_8_h.html" target="_top" xlink:title="TurbModelDefs.H">
<polygon fill="#ffffff" stroke="#000000" points="112,-56.5 112,-75.5 206,-75.5 206,-56.5 112,-56.5"/>
<text text-anchor="middle" x="159" y="-63.5" font-family="Helvetica,sans-Serif" font-size="10.00" fill="#000000">TurbModelDefs.H</text>
</a>
</g>
</g>
<!-- Node22&#45;&gt;Node23 -->
<g id="edge3" class="edge">
<title>Node22&#45;&gt;Node23</title>
<path fill="none" stroke="#191970" d="M159,-102.1575C159,-93.155 159,-82.9199 159,-75.6427"/>
<polygon fill="#191970" stroke="#191970" points="155.5001,-102.2455 159,-112.2455 162.5001,-102.2456 155.5001,-102.2455"/>
</g>
<!-- Node24 -->
<g id="node5" class="node">
<title>Node24</title>
<g id="a_node5"><a xlink:href="_laminar_model_8cpp.html" target="_top" xlink:title="LaminarModel.cpp">
<polygon fill="#ffffff" stroke="#000000" points="1,-.5 1,-19.5 97,-19.5 97,-.5 1,-.5"/>
<text text-anchor="middle" x="49" y="-7.5" font-family="Helvetica,sans-Serif" font-size="10.00" fill="#000000">LaminarModel.cpp</text>
</a>
</g>
</g>
<!-- Node23&#45;&gt;Node24 -->
<g id="edge4" class="edge">
<title>Node23&#45;&gt;Node24</title>
<path fill="none" stroke="#191970" d="M130.7086,-51.5971C110.9889,-41.558 85.22,-28.4393 67.941,-19.6427"/>
<polygon fill="#191970" stroke="#191970" points="129.3399,-54.8277 139.8395,-56.2455 132.5157,-48.5896 129.3399,-54.8277"/>
</g>
<!-- Node25 -->
<g id="node6" class="node">
<title>Node25</title>
<g id="a_node6"><a xlink:href="_one_eq_ksgs_8cpp.html" target="_top" xlink:title="OneEqKsgs.cpp">
<polygon fill="#ffffff" stroke="#000000" points="115,-.5 115,-19.5 203,-19.5 203,-.5 115,-.5"/>
<text text-anchor="middle" x="159" y="-7.5" font-family="Helvetica,sans-Serif" font-size="10.00" fill="#000000">OneEqKsgs.cpp</text>
</a>
</g>
</g>
<!-- Node23&#45;&gt;Node25 -->
<g id="edge5" class="edge">
<title>Node23&#45;&gt;Node25</title>
<path fill="none" stroke="#191970" d="M159,-46.1575C159,-37.155 159,-26.9199 159,-19.6427"/>
<polygon fill="#191970" stroke="#191970" points="155.5001,-46.2455 159,-56.2455 162.5001,-46.2456 155.5001,-46.2455"/>
</g>
<!-- Node26 -->
<g id="node7" class="node">
<title>Node26</title>
<g id="a_node7"><a xlink:href="_smagorinsky_8cpp.html" target="_top" xlink:title="Smagorinsky.cpp">
<polygon fill="#ffffff" stroke="#000000" points="221,-.5 221,-19.5 313,-19.5 313,-.5 221,-.5"/>
<text text-anchor="middle" x="267" y="-7.5" font-family="Helvetica,sans-Serif" font-size="10.00" fill="#000000">Smagorinsky.cpp</text>
</a>
</g>
</g>
<!-- Node23&#45;&gt;Node26 -->
<g id="edge6" class="edge">
<title>Node23&#45;&gt;Node26</title>
<path fill="none" stroke="#191970" d="M186.7771,-51.5971C206.1382,-41.558 231.4385,-28.4393 248.4034,-19.6427"/>
<polygon fill="#191970" stroke="#191970" points="185.0786,-48.5352 177.8122,-56.2455 188.3008,-54.7495 185.0786,-48.5352"/>
</g>
</g>
</svg>
