<?xml version="1.0" encoding="UTF-8" standalone="no"?>
<!DOCTYPE svg PUBLIC "-//W3C//DTD SVG 1.1//EN"
 "http://www.w3.org/Graphics/SVG/1.1/DTD/svg11.dtd">
<!-- Generated by graphviz version 2.40.1 (20161225.0304)
 -->
<!-- Title: PDETraits.H Pages: 1 -->
<svg width="1825pt" height="308pt"
 viewBox="0.00 0.00 1824.71 308.00" xmlns="http://www.w3.org/2000/svg" xmlns:xlink="http://www.w3.org/1999/xlink">
<g id="graph0" class="graph" transform="scale(1 1) rotate(0) translate(4 304)">
<title>PDETraits.H</title>
<polygon fill="#ffffff" stroke="transparent" points="-4,4 -4,-304 1820.713,-304 1820.713,4 -4,4"/>
<!-- Node1 -->
<g id="node1" class="node">
<title>Node1</title>
<polygon fill="#bfbfbf" stroke="#000000" points="724.213,-280.5 724.213,-299.5 797.213,-299.5 797.213,-280.5 724.213,-280.5"/>
<text text-anchor="middle" x="760.713" y="-287.5" font-family="Helvetica,sans-Serif" font-size="10.00" fill="#000000">PDETraits.H</text>
</g>
<!-- Node2 -->
<g id="node2" class="node">
<title>Node2</title>
<g id="a_node2"><a xlink:href="_adv_op___godunov_8_h.html" target="_top" xlink:title="AdvOp_Godunov.H">
<polygon fill="#ffffff" stroke="#000000" points="542.213,-112.5 542.213,-131.5 643.213,-131.5 643.213,-112.5 542.213,-112.5"/>
<text text-anchor="middle" x="592.713" y="-119.5" font-family="Helvetica,sans-Serif" font-size="10.00" fill="#000000">AdvOp_Godunov.H</text>
</a>
</g>
</g>
<!-- Node1&#45;&gt;Node2 -->
<g id="edge1" class="edge">
<title>Node1&#45;&gt;Node2</title>
<path fill="none" stroke="#191970" d="M743.7045,-272.9915C708.8296,-238.1166 630.1783,-159.4652 602.5409,-131.8279"/>
<polygon fill="#191970" stroke="#191970" points="741.6533,-275.89 751.1993,-280.4862 746.603,-270.9403 741.6533,-275.89"/>
</g>
<!-- Node4 -->
<g id="node4" class="node">
<title>Node4</title>
<g id="a_node4"><a xlink:href="icns__ops_8_h.html" target="_top" xlink:title="icns_ops.H">
<polygon fill="#ffffff" stroke="#000000" points="1255.713,-56.5 1255.713,-75.5 1321.713,-75.5 1321.713,-56.5 1255.713,-56.5"/>
<text text-anchor="middle" x="1288.713" y="-63.5" font-family="Helvetica,sans-Serif" font-size="10.00" fill="#000000">icns_ops.H</text>
</a>
</g>
</g>
<!-- Node1&#45;&gt;Node4 -->
<g id="edge68" class="edge">
<title>Node1&#45;&gt;Node4</title>
<path fill="none" stroke="#191970" d="M782.7205,-274.392C818.9971,-249.2228 894.2624,-199.3303 963.713,-168 1038.9242,-134.071 1061.9835,-136.6892 1140.713,-112 1181.1497,-99.3192 1227.8503,-84.8301 1257.8014,-75.5577"/>
<polygon fill="#191970" stroke="#191970" points="780.5563,-271.6345 774.3649,-280.232 784.5664,-277.372 780.5563,-271.6345"/>
</g>
<!-- Node13 -->
<g id="node13" class="node">
<title>Node13</title>
<g id="a_node13"><a xlink:href="_adv_op___m_o_l_8_h.html" target="_top" xlink:title="AdvOp_MOL.H">
<polygon fill="#ffffff" stroke="#000000" points="661.213,-112.5 661.213,-131.5 744.213,-131.5 744.213,-112.5 661.213,-112.5"/>
<text text-anchor="middle" x="702.713" y="-119.5" font-family="Helvetica,sans-Serif" font-size="10.00" fill="#000000">AdvOp_MOL.H</text>
</a>
</g>
</g>
<!-- Node1&#45;&gt;Node13 -->
<g id="edge13" class="edge">
<title>Node1&#45;&gt;Node13</title>
<path fill="none" stroke="#191970" d="M754.0591,-270.7267C741.663,-234.8207 715.4461,-158.8822 706.106,-131.8279"/>
<polygon fill="#191970" stroke="#191970" points="750.8567,-272.1759 757.4285,-280.4862 757.4735,-269.8915 750.8567,-272.1759"/>
</g>
<!-- Node14 -->
<g id="node14" class="node">
<title>Node14</title>
<g id="a_node14"><a xlink:href="_b_c_ops_8_h.html" target="_top" xlink:title="BCOps.H">
<polygon fill="#ffffff" stroke="#000000" points="368.213,-112.5 368.213,-131.5 427.213,-131.5 427.213,-112.5 368.213,-112.5"/>
<text text-anchor="middle" x="397.713" y="-119.5" font-family="Helvetica,sans-Serif" font-size="10.00" fill="#000000">BCOps.H</text>
</a>
</g>
</g>
<!-- Node1&#45;&gt;Node14 -->
<g id="edge22" class="edge">
<title>Node1&#45;&gt;Node14</title>
<path fill="none" stroke="#191970" d="M728.4287,-276.3249C707.3637,-267.3198 679.3112,-255.172 654.713,-244 565.4489,-203.4581 460.0976,-152.4377 417.2752,-131.5637"/>
<polygon fill="#191970" stroke="#191970" points="727.2982,-279.6477 737.8697,-280.3506 730.0439,-273.2087 727.2982,-279.6477"/>
</g>
<!-- Node17 -->
<g id="node17" class="node">
<title>Node17</title>
<g id="a_node17"><a xlink:href="density_8_h.html" target="_top" xlink:title="density.H">
<polygon fill="#ffffff" stroke="#000000" points="128.213,-112.5 128.213,-131.5 187.213,-131.5 187.213,-112.5 128.213,-112.5"/>
<text text-anchor="middle" x="157.713" y="-119.5" font-family="Helvetica,sans-Serif" font-size="10.00" fill="#000000">density.H</text>
</a>
</g>
</g>
<!-- Node1&#45;&gt;Node17 -->
<g id="edge32" class="edge">
<title>Node1&#45;&gt;Node17</title>
<path fill="none" stroke="#191970" d="M714.2041,-280.5503C672.6986,-271.8711 610.3673,-258.2306 556.713,-244 416.6814,-206.8597 251.9189,-153.2882 186.5361,-131.6279"/>
<polygon fill="#191970" stroke="#191970" points="713.5263,-283.9841 724.0295,-282.5935 714.9515,-277.1307 713.5263,-283.9841"/>
</g>
<!-- Node19 -->
<g id="node19" class="node">
<title>Node19</title>
<g id="a_node19"><a xlink:href="_diffusion_ops_8_h.html" target="_top" xlink:title="DiffusionOps.H">
<polygon fill="#ffffff" stroke="#000000" points="976.713,-224.5 976.713,-243.5 1060.713,-243.5 1060.713,-224.5 976.713,-224.5"/>
<text text-anchor="middle" x="1018.713" y="-231.5" font-family="Helvetica,sans-Serif" font-size="10.00" fill="#000000">DiffusionOps.H</text>
</a>
</g>
</g>
<!-- Node1&#45;&gt;Node19 -->
<g id="edge36" class="edge">
<title>Node1&#45;&gt;Node19</title>
<path fill="none" stroke="#191970" d="M807.2677,-279.8951C855.4627,-269.4342 930.0841,-253.2373 976.5809,-243.145"/>
<polygon fill="#191970" stroke="#191970" points="806.4342,-276.4945 797.4041,-282.036 807.919,-283.3352 806.4342,-276.4945"/>
</g>
<!-- Node21 -->
<g id="node21" class="node">
<title>Node21</title>
<g id="a_node21"><a xlink:href="icns_8_h.html" target="_top" xlink:title="icns.H">
<polygon fill="#ffffff" stroke="#000000" points="1177.213,-112.5 1177.213,-131.5 1222.213,-131.5 1222.213,-112.5 1177.213,-112.5"/>
<text text-anchor="middle" x="1199.713" y="-119.5" font-family="Helvetica,sans-Serif" font-size="10.00" fill="#000000">icns.H</text>
</a>
</g>
</g>
<!-- Node1&#45;&gt;Node21 -->
<g id="edge67" class="edge">
<title>Node1&#45;&gt;Node21</title>
<path fill="none" stroke="#191970" d="M807.49,-286.4677C882.1278,-280.2628 1024.3679,-265.9446 1069.713,-244 1126.5484,-216.4947 1175.3536,-155.3548 1192.8358,-131.6516"/>
<polygon fill="#191970" stroke="#191970" points="807.1061,-282.9873 797.4241,-287.2894 807.6757,-289.9641 807.1061,-282.9873"/>
</g>
<!-- Node22 -->
<g id="node22" class="node">
<title>Node22</title>
<g id="a_node22"><a xlink:href="icns__diffusion_8_h.html" target="_top" xlink:title="icns_diffusion.H">
<polygon fill="#ffffff" stroke="#000000" points="1505.213,-56.5 1505.213,-75.5 1592.213,-75.5 1592.213,-56.5 1505.213,-56.5"/>
<text text-anchor="middle" x="1548.713" y="-63.5" font-family="Helvetica,sans-Serif" font-size="10.00" fill="#000000">icns_diffusion.H</text>
</a>
</g>
</g>
<!-- Node1&#45;&gt;Node22 -->
<g id="edge69" class="edge">
<title>Node1&#45;&gt;Node22</title>
<path fill="none" stroke="#191970" d="M807.487,-287.2408C873.524,-282.5403 997.4464,-270.752 1099.713,-244 1230.5792,-209.7666 1256.9746,-181.8772 1382.713,-132 1433.307,-111.9306 1492.5477,-88.3599 1524.8017,-75.5206"/>
<polygon fill="#191970" stroke="#191970" points="807.1336,-283.7568 797.3977,-287.9356 807.6145,-290.7402 807.1336,-283.7568"/>
</g>
<!-- Node24 -->
<g id="node24" class="node">
<title>Node24</title>
<g id="a_node24"><a xlink:href="levelset_8_h.html" target="_top" xlink:title="levelset.H">
<polygon fill="#ffffff" stroke="#000000" points="762.213,-112.5 762.213,-131.5 823.213,-131.5 823.213,-112.5 762.213,-112.5"/>
<text text-anchor="middle" x="792.713" y="-119.5" font-family="Helvetica,sans-Serif" font-size="10.00" fill="#000000">levelset.H</text>
</a>
</g>
</g>
<!-- Node1&#45;&gt;Node24 -->
<g id="edge70" class="edge">
<title>Node1&#45;&gt;Node24</title>
<path fill="none" stroke="#191970" d="M763.0237,-270.3963C766.0481,-246.1806 771.8973,-203.797 779.713,-168 782.4746,-155.3517 786.6979,-141.037 789.576,-131.7836"/>
<polygon fill="#191970" stroke="#191970" points="759.5357,-270.0867 761.8028,-280.4361 766.4845,-270.9318 759.5357,-270.0867"/>
</g>
<!-- Node26 -->
<g id="node26" class="node">
<title>Node26</title>
<g id="a_node26"><a xlink:href="_s_d_r_8_h.html" target="_top" xlink:title="SDR.H">
<polygon fill="#ffffff" stroke="#000000" points="301.213,-112.5 301.213,-131.5 350.213,-131.5 350.213,-112.5 301.213,-112.5"/>
<text text-anchor="middle" x="325.713" y="-119.5" font-family="Helvetica,sans-Serif" font-size="10.00" fill="#000000">SDR.H</text>
</a>
</g>
</g>
<!-- Node1&#45;&gt;Node26 -->
<g id="edge71" class="edge">
<title>Node1&#45;&gt;Node26</title>
<path fill="none" stroke="#191970" d="M716.037,-277.6568C685.991,-269.0249 645.6427,-256.7905 610.713,-244 509.6328,-206.9865 392.5402,-153.3437 346.1491,-131.6461"/>
<polygon fill="#191970" stroke="#191970" points="715.2325,-281.0668 725.8089,-280.4416 717.151,-274.3349 715.2325,-281.0668"/>
</g>
<!-- Node27 -->
<g id="node27" class="node">
<title>Node27</title>
<g id="a_node27"><a xlink:href="temperature_8_h.html" target="_top" xlink:title="temperature.H">
<polygon fill="#ffffff" stroke="#000000" points="445.213,-112.5 445.213,-131.5 524.213,-131.5 524.213,-112.5 445.213,-112.5"/>
<text text-anchor="middle" x="484.713" y="-119.5" font-family="Helvetica,sans-Serif" font-size="10.00" fill="#000000">temperature.H</text>
</a>
</g>
</g>
<!-- Node1&#45;&gt;Node27 -->
<g id="edge72" class="edge">
<title>Node1&#45;&gt;Node27</title>
<path fill="none" stroke="#191970" d="M736.2766,-275.1256C680.7907,-241.3516 546.5468,-159.638 500.5134,-131.6177"/>
<polygon fill="#191970" stroke="#191970" points="734.7214,-278.2764 745.0833,-280.4862 738.3611,-272.297 734.7214,-278.2764"/>
</g>
<!-- Node28 -->
<g id="node28" class="node">
<title>Node28</title>
<g id="a_node28"><a xlink:href="_t_k_e_8_h.html" target="_top" xlink:title="TKE.H">
<polygon fill="#ffffff" stroke="#000000" points="841.213,-112.5 841.213,-131.5 888.213,-131.5 888.213,-112.5 841.213,-112.5"/>
<text text-anchor="middle" x="864.713" y="-119.5" font-family="Helvetica,sans-Serif" font-size="10.00" fill="#000000">TKE.H</text>
</a>
</g>
</g>
<!-- Node1&#45;&gt;Node28 -->
<g id="edge73" class="edge">
<title>Node1&#45;&gt;Node28</title>
<path fill="none" stroke="#191970" d="M778.463,-273.3162C797.6501,-254.3555 827.8711,-221.6509 845.713,-188 855.5435,-169.4592 860.8375,-145.2167 863.1863,-131.8757"/>
<polygon fill="#191970" stroke="#191970" points="775.9649,-270.8633 771.222,-280.3372 780.8377,-275.8888 775.9649,-270.8633"/>
</g>
<!-- Node30 -->
<g id="node30" class="node">
<title>Node30</title>
<g id="a_node30"><a xlink:href="vof_8_h.html" target="_top" xlink:title="vof.H">
<polygon fill="#ffffff" stroke="#000000" points="1600.213,-112.5 1600.213,-131.5 1641.213,-131.5 1641.213,-112.5 1600.213,-112.5"/>
<text text-anchor="middle" x="1620.713" y="-119.5" font-family="Helvetica,sans-Serif" font-size="10.00" fill="#000000">vof.H</text>
</a>
</g>
</g>
<!-- Node1&#45;&gt;Node30 -->
<g id="edge74" class="edge">
<title>Node1&#45;&gt;Node30</title>
<path fill="none" stroke="#191970" d="M807.5449,-289.7201C939.3534,-288.467 1311.3802,-281.6024 1426.713,-244 1504.2587,-218.7175 1582.0127,-155.6939 1609.9152,-131.5864"/>
<polygon fill="#191970" stroke="#191970" points="807.3433,-286.2217 797.3747,-289.8101 807.4053,-293.2214 807.3433,-286.2217"/>
</g>
<!-- Node3 -->
<g id="node3" class="node">
<title>Node3</title>
<g id="a_node3"><a xlink:href="density_8cpp.html" target="_top" xlink:title="density.cpp">
<polygon fill="#ffffff" stroke="#000000" points="89.213,-.5 89.213,-19.5 156.213,-19.5 156.213,-.5 89.213,-.5"/>
<text text-anchor="middle" x="122.713" y="-7.5" font-family="Helvetica,sans-Serif" font-size="10.00" fill="#000000">density.cpp</text>
</a>
</g>
</g>
<!-- Node2&#45;&gt;Node3 -->
<g id="edge2" class="edge">
<title>Node2&#45;&gt;Node3</title>
<path fill="none" stroke="#191970" d="M569.0983,-107.0625C543.6195,-91.688 501.3559,-68.297 461.713,-56 353.3644,-22.3909 217.9859,-13.3267 156.224,-10.8905"/>
<polygon fill="#191970" stroke="#191970" points="567.3349,-110.0868 577.6898,-112.3287 570.9931,-104.1187 567.3349,-110.0868"/>
</g>
<!-- Node2&#45;&gt;Node4 -->
<g id="edge3" class="edge">
<title>Node2&#45;&gt;Node4</title>
<path fill="none" stroke="#191970" d="M653.7524,-111.8756C916.718,-82.6471 987.9726,-114.3342 1246.713,-76 1249.5306,-75.5826 1252.437,-75.0687 1255.344,-74.4963"/>
<polygon fill="#191970" stroke="#191970" points="653.0557,-108.432 643.5124,-113.0336 653.8424,-115.3877 653.0557,-108.432"/>
</g>
<!-- Node6 -->
<g id="node6" class="node">
<title>Node6</title>
<g id="a_node6"><a xlink:href="icns__advection_8_h.html" target="_top" xlink:title="icns_advection.H">
<polygon fill="#ffffff" stroke="#000000" points="963.713,-56.5 963.713,-75.5 1055.713,-75.5 1055.713,-56.5 963.713,-56.5"/>
<text text-anchor="middle" x="1009.713" y="-63.5" font-family="Helvetica,sans-Serif" font-size="10.00" fill="#000000">icns_advection.H</text>
</a>
</g>
</g>
<!-- Node2&#45;&gt;Node6 -->
<g id="edge5" class="edge">
<title>Node2&#45;&gt;Node6</title>
<path fill="none" stroke="#191970" d="M653.4808,-111.8034C787.6929,-92.8186 823.8771,-95.6475 954.713,-76 957.5923,-75.5676 960.552,-75.0993 963.5339,-74.6093"/>
<polygon fill="#191970" stroke="#191970" points="652.6218,-108.3906 643.2176,-113.2704 653.6123,-115.3201 652.6218,-108.3906"/>
</g>
<!-- Node8 -->
<g id="node8" class="node">
<title>Node8</title>
<g id="a_node8"><a xlink:href="levelset_8cpp.html" target="_top" xlink:title="levelset.cpp">
<polygon fill="#ffffff" stroke="#000000" points="635.213,-.5 635.213,-19.5 704.213,-19.5 704.213,-.5 635.213,-.5"/>
<text text-anchor="middle" x="669.713" y="-7.5" font-family="Helvetica,sans-Serif" font-size="10.00" fill="#000000">levelset.cpp</text>
</a>
</g>
</g>
<!-- Node2&#45;&gt;Node8 -->
<g id="edge8" class="edge">
<title>Node2&#45;&gt;Node8</title>
<path fill="none" stroke="#191970" d="M566.3459,-106.9754C546.8662,-93.8958 525.796,-74.226 538.713,-56 550.0723,-39.972 600.0751,-25.7057 634.9061,-17.4557"/>
<polygon fill="#191970" stroke="#191970" points="564.7355,-110.0984 575.0563,-112.4924 568.4811,-104.1848 564.7355,-110.0984"/>
</g>
<!-- Node9 -->
<g id="node9" class="node">
<title>Node9</title>
<g id="a_node9"><a xlink:href="_s_d_r_8cpp.html" target="_top" xlink:title="SDR.cpp">
<polygon fill="#ffffff" stroke="#000000" points="291.213,-56.5 291.213,-75.5 348.213,-75.5 348.213,-56.5 291.213,-56.5"/>
<text text-anchor="middle" x="319.713" y="-63.5" font-family="Helvetica,sans-Serif" font-size="10.00" fill="#000000">SDR.cpp</text>
</a>
</g>
</g>
<!-- Node2&#45;&gt;Node9 -->
<g id="edge9" class="edge">
<title>Node2&#45;&gt;Node9</title>
<path fill="none" stroke="#191970" d="M531.9678,-111.3934C484.1534,-102.7478 415.9316,-89.7553 356.713,-76 353.9908,-75.3677 351.1659,-74.6737 348.3452,-73.9552"/>
<polygon fill="#191970" stroke="#191970" points="531.3888,-114.8454 541.8505,-113.1711 532.6281,-107.956 531.3888,-114.8454"/>
</g>
<!-- Node10 -->
<g id="node10" class="node">
<title>Node10</title>
<g id="a_node10"><a xlink:href="temperature_8cpp.html" target="_top" xlink:title="temperature.cpp">
<polygon fill="#ffffff" stroke="#000000" points="366.213,-56.5 366.213,-75.5 453.213,-75.5 453.213,-56.5 366.213,-56.5"/>
<text text-anchor="middle" x="409.713" y="-63.5" font-family="Helvetica,sans-Serif" font-size="10.00" fill="#000000">temperature.cpp</text>
</a>
</g>
</g>
<!-- Node2&#45;&gt;Node10 -->
<g id="edge10" class="edge">
<title>Node2&#45;&gt;Node10</title>
<path fill="none" stroke="#191970" d="M551.288,-109.3235C517.7274,-99.0536 471.179,-84.8093 440.7613,-75.5011"/>
<polygon fill="#191970" stroke="#191970" points="550.6677,-112.7938 561.2542,-112.3733 552.7161,-106.1002 550.6677,-112.7938"/>
</g>
<!-- Node11 -->
<g id="node11" class="node">
<title>Node11</title>
<g id="a_node11"><a xlink:href="_t_k_e_8cpp.html" target="_top" xlink:title="TKE.cpp">
<polygon fill="#ffffff" stroke="#000000" points="548.213,-56.5 548.213,-75.5 603.213,-75.5 603.213,-56.5 548.213,-56.5"/>
<text text-anchor="middle" x="575.713" y="-63.5" font-family="Helvetica,sans-Serif" font-size="10.00" fill="#000000">TKE.cpp</text>
</a>
</g>
</g>
<!-- Node2&#45;&gt;Node11 -->
<g id="edge11" class="edge">
<title>Node2&#45;&gt;Node11</title>
<path fill="none" stroke="#191970" d="M586.7794,-102.4538C584.0249,-93.3803 580.8737,-82.9998 578.6403,-75.6427"/>
<polygon fill="#191970" stroke="#191970" points="583.4979,-103.6934 589.7518,-112.2455 590.196,-101.66 583.4979,-103.6934"/>
</g>
<!-- Node12 -->
<g id="node12" class="node">
<title>Node12</title>
<g id="a_node12"><a xlink:href="vof_8cpp.html" target="_top" xlink:title="vof.cpp">
<polygon fill="#ffffff" stroke="#000000" points="1464.213,-.5 1464.213,-19.5 1513.213,-19.5 1513.213,-.5 1464.213,-.5"/>
<text text-anchor="middle" x="1488.713" y="-7.5" font-family="Helvetica,sans-Serif" font-size="10.00" fill="#000000">vof.cpp</text>
</a>
</g>
</g>
<!-- Node2&#45;&gt;Node12 -->
<g id="edge12" class="edge">
<title>Node2&#45;&gt;Node12</title>
<path fill="none" stroke="#191970" d="M653.4678,-111.8891C836.4453,-90.1243 892.6576,-132.2366 1064.713,-76 1081.0144,-70.6719 1081.4939,-61.5733 1097.713,-56 1166.2316,-32.4551 1389.4106,-16.3601 1464.1042,-11.5229"/>
<polygon fill="#191970" stroke="#191970" points="653.0173,-108.4181 643.5228,-113.1197 653.877,-115.3651 653.0173,-108.4181"/>
</g>
<!-- Node5 -->
<g id="node5" class="node">
<title>Node5</title>
<g id="a_node5"><a xlink:href="icns_8cpp.html" target="_top" xlink:title="icns.cpp">
<polygon fill="#ffffff" stroke="#000000" points="1262.213,-.5 1262.213,-19.5 1315.213,-19.5 1315.213,-.5 1262.213,-.5"/>
<text text-anchor="middle" x="1288.713" y="-7.5" font-family="Helvetica,sans-Serif" font-size="10.00" fill="#000000">icns.cpp</text>
</a>
</g>
</g>
<!-- Node4&#45;&gt;Node5 -->
<g id="edge4" class="edge">
<title>Node4&#45;&gt;Node5</title>
<path fill="none" stroke="#191970" d="M1288.713,-46.1575C1288.713,-37.155 1288.713,-26.9199 1288.713,-19.6427"/>
<polygon fill="#191970" stroke="#191970" points="1285.2131,-46.2455 1288.713,-56.2455 1292.2131,-46.2456 1285.2131,-46.2455"/>
</g>
<!-- Node6&#45;&gt;Node5 -->
<g id="edge6" class="edge">
<title>Node6&#45;&gt;Node5</title>
<path fill="none" stroke="#191970" d="M1065.786,-54.7452C1125.3594,-42.7878 1217.018,-24.3904 1261.9771,-15.3663"/>
<polygon fill="#191970" stroke="#191970" points="1064.8998,-51.3532 1055.7842,-56.7527 1066.2774,-58.2163 1064.8998,-51.3532"/>
</g>
<!-- Node7 -->
<g id="node7" class="node">
<title>Node7</title>
<g id="a_node7"><a xlink:href="icns__advection_8cpp.html" target="_top" xlink:title="icns_advection.cpp">
<polygon fill="#ffffff" stroke="#000000" points="959.213,-.5 959.213,-19.5 1060.213,-19.5 1060.213,-.5 959.213,-.5"/>
<text text-anchor="middle" x="1009.713" y="-7.5" font-family="Helvetica,sans-Serif" font-size="10.00" fill="#000000">icns_advection.cpp</text>
</a>
</g>
</g>
<!-- Node6&#45;&gt;Node7 -->
<g id="edge7" class="edge">
<title>Node6&#45;&gt;Node7</title>
<path fill="none" stroke="#191970" d="M1009.713,-46.1575C1009.713,-37.155 1009.713,-26.9199 1009.713,-19.6427"/>
<polygon fill="#191970" stroke="#191970" points="1006.2131,-46.2455 1009.713,-56.2455 1013.2131,-46.2456 1006.2131,-46.2455"/>
</g>
<!-- Node13&#45;&gt;Node3 -->
<g id="edge14" class="edge">
<title>Node13&#45;&gt;Node3</title>
<path fill="none" stroke="#191970" d="M685.6414,-105.2101C668.5109,-89.5074 640.5881,-66.8898 611.713,-56 527.9385,-24.4057 252.5523,-13.6918 156.2903,-10.8616"/>
<polygon fill="#191970" stroke="#191970" points="683.464,-107.9676 693.1408,-112.2816 688.2663,-102.8747 683.464,-107.9676"/>
</g>
<!-- Node13&#45;&gt;Node4 -->
<g id="edge15" class="edge">
<title>Node13&#45;&gt;Node4</title>
<path fill="none" stroke="#191970" d="M754.5897,-112.0517C973.2562,-83.6064 1032.882,-109.0435 1246.713,-76 1249.5279,-75.565 1252.4325,-75.0388 1255.3382,-74.4581"/>
<polygon fill="#191970" stroke="#191970" points="753.8476,-108.6193 744.3936,-113.4019 754.7665,-115.5588 753.8476,-108.6193"/>
</g>
<!-- Node13&#45;&gt;Node6 -->
<g id="edge16" class="edge">
<title>Node13&#45;&gt;Node6</title>
<path fill="none" stroke="#191970" d="M754.2864,-111.915C844.5276,-95.0376 868.4535,-91.5665 954.713,-76 957.5783,-75.4829 960.5273,-74.9497 963.5011,-74.4113"/>
<polygon fill="#191970" stroke="#191970" points="753.635,-108.476 744.4509,-113.7583 754.9245,-115.3562 753.635,-108.476"/>
</g>
<!-- Node13&#45;&gt;Node8 -->
<g id="edge17" class="edge">
<title>Node13&#45;&gt;Node8</title>
<path fill="none" stroke="#191970" d="M696.7804,-102.7402C694.264,-94.511 691.3167,-84.7935 688.713,-76 682.8227,-56.1065 676.162,-32.7654 672.4993,-19.8535"/>
<polygon fill="#191970" stroke="#191970" points="693.4951,-103.9649 699.7752,-112.4979 700.187,-101.911 693.4951,-103.9649"/>
</g>
<!-- Node13&#45;&gt;Node9 -->
<g id="edge18" class="edge">
<title>Node13&#45;&gt;Node9</title>
<path fill="none" stroke="#191970" d="M650.9575,-111.9923C519.5035,-91.7471 483.187,-100.6776 356.713,-76 353.97,-75.4648 351.1312,-74.836 348.3017,-74.1588"/>
<polygon fill="#191970" stroke="#191970" points="650.5867,-115.4769 661.0081,-113.5681 651.6709,-108.5613 650.5867,-115.4769"/>
</g>
<!-- Node13&#45;&gt;Node10 -->
<g id="edge19" class="edge">
<title>Node13&#45;&gt;Node10</title>
<path fill="none" stroke="#191970" d="M650.8358,-111.8387C575.5693,-97.324 499.8412,-82.9872 453.4455,-74.2341"/>
<polygon fill="#191970" stroke="#191970" points="650.4862,-115.3358 660.9683,-113.7944 651.8128,-108.4626 650.4862,-115.3358"/>
</g>
<!-- Node13&#45;&gt;Node11 -->
<g id="edge20" class="edge">
<title>Node13&#45;&gt;Node11</title>
<path fill="none" stroke="#191970" d="M671.5238,-108.2473C648.4593,-98.0771 617.6418,-84.4883 597.2602,-75.5011"/>
<polygon fill="#191970" stroke="#191970" points="670.3188,-111.5411 680.8809,-112.3733 673.1431,-105.1361 670.3188,-111.5411"/>
</g>
<!-- Node13&#45;&gt;Node12 -->
<g id="edge21" class="edge">
<title>Node13&#45;&gt;Node12</title>
<path fill="none" stroke="#191970" d="M754.6463,-112.0127C907.6657,-90.3501 952.734,-116.0949 1097.713,-76 1118.0276,-70.3819 1120.4765,-61.8934 1140.713,-56 1258.6136,-21.6643 1406.5132,-12.8816 1464.1425,-10.6983"/>
<polygon fill="#191970" stroke="#191970" points="753.7974,-108.5995 744.4089,-113.5094 754.81,-115.5259 753.7974,-108.5995"/>
</g>
<!-- Node14&#45;&gt;Node3 -->
<g id="edge23" class="edge">
<title>Node14&#45;&gt;Node3</title>
<path fill="none" stroke="#191970" d="M357.9954,-112.1547C259.9114,-94.8907 212.3762,-138.9139 141.713,-76 125.505,-61.5695 122.7396,-34.2988 122.4951,-19.7388"/>
<polygon fill="#191970" stroke="#191970" points="357.4811,-115.6202 367.9648,-114.0895 358.8148,-108.7484 357.4811,-115.6202"/>
</g>
<!-- Node14&#45;&gt;Node8 -->
<g id="edge26" class="edge">
<title>Node14&#45;&gt;Node8</title>
<path fill="none" stroke="#191970" d="M358.1525,-111.4713C328.2061,-102.6079 290.7354,-89.2837 281.713,-76 276.7187,-68.6468 275.8092,-62.6451 281.713,-56 305.028,-29.7575 544.322,-15.8782 635.0725,-11.5264"/>
<polygon fill="#191970" stroke="#191970" points="357.3896,-114.8938 367.9678,-114.2996 359.3279,-108.1675 357.3896,-114.8938"/>
</g>
<!-- Node14&#45;&gt;Node9 -->
<g id="edge27" class="edge">
<title>Node14&#45;&gt;Node9</title>
<path fill="none" stroke="#191970" d="M375.7194,-106.2097C362.0201,-96.3743 344.8394,-84.0394 333.1439,-75.6427"/>
<polygon fill="#191970" stroke="#191970" points="373.962,-109.2566 384.1265,-112.2455 378.0444,-103.5703 373.962,-109.2566"/>
</g>
<!-- Node14&#45;&gt;Node10 -->
<g id="edge28" class="edge">
<title>Node14&#45;&gt;Node10</title>
<path fill="none" stroke="#191970" d="M401.9015,-102.4538C403.8458,-93.3803 406.0702,-82.9998 407.6467,-75.6427"/>
<polygon fill="#191970" stroke="#191970" points="398.4763,-101.7341 399.8033,-112.2455 405.3209,-103.2009 398.4763,-101.7341"/>
</g>
<!-- Node14&#45;&gt;Node11 -->
<g id="edge29" class="edge">
<title>Node14&#45;&gt;Node11</title>
<path fill="none" stroke="#191970" d="M437.0456,-109.6257C470.7409,-99.0249 518.4081,-84.0285 548.1659,-74.6665"/>
<polygon fill="#191970" stroke="#191970" points="435.9949,-106.2871 427.5062,-112.6269 438.0957,-112.9644 435.9949,-106.2871"/>
</g>
<!-- Node14&#45;&gt;Node12 -->
<g id="edge30" class="edge">
<title>Node14&#45;&gt;Node12</title>
<path fill="none" stroke="#191970" d="M437.3878,-111.9222C592.6778,-84.6501 636.6818,-103.3319 788.713,-76 823.5129,-69.7437 830.8292,-61.7697 865.713,-56 925.4995,-46.1115 1355.7505,-18.4275 1464.0304,-11.5578"/>
<polygon fill="#191970" stroke="#191970" points="436.7114,-108.4876 427.4855,-113.6965 437.946,-115.3779 436.7114,-108.4876"/>
</g>
<!-- Node15 -->
<g id="node15" class="node">
<title>Node15</title>
<g id="a_node15"><a xlink:href="icns__bcop_8_h.html" target="_top" xlink:title="icns_bcop.H">
<polygon fill="#ffffff" stroke="#000000" points="874.213,-56.5 874.213,-75.5 945.213,-75.5 945.213,-56.5 874.213,-56.5"/>
<text text-anchor="middle" x="909.713" y="-63.5" font-family="Helvetica,sans-Serif" font-size="10.00" fill="#000000">icns_bcop.H</text>
</a>
</g>
</g>
<!-- Node14&#45;&gt;Node15 -->
<g id="edge24" class="edge">
<title>Node14&#45;&gt;Node15</title>
<path fill="none" stroke="#191970" d="M437.5012,-111.9076C607.1345,-82.4111 653.5911,-93.3905 821.713,-76 838.9958,-74.2123 858.167,-72.0544 874.1921,-70.2014"/>
<polygon fill="#191970" stroke="#191970" points="436.7227,-108.4908 427.481,-113.6717 437.9365,-115.3848 436.7227,-108.4908"/>
</g>
<!-- Node16 -->
<g id="node16" class="node">
<title>Node16</title>
<g id="a_node16"><a xlink:href="_multi_phase_8cpp.html" target="_top" xlink:title="MultiPhase.cpp">
<polygon fill="#ffffff" stroke="#000000" points="150.713,-56.5 150.713,-75.5 234.713,-75.5 234.713,-56.5 150.713,-56.5"/>
<text text-anchor="middle" x="192.713" y="-63.5" font-family="Helvetica,sans-Serif" font-size="10.00" fill="#000000">MultiPhase.cpp</text>
</a>
</g>
</g>
<!-- Node14&#45;&gt;Node16 -->
<g id="edge31" class="edge">
<title>Node14&#45;&gt;Node16</title>
<path fill="none" stroke="#191970" d="M358.2458,-111.2187C320.4439,-100.8923 263.9452,-85.4586 227.7108,-75.5604"/>
<polygon fill="#191970" stroke="#191970" points="357.3354,-114.5982 367.9043,-113.8571 359.18,-107.8456 357.3354,-114.5982"/>
</g>
<!-- Node15&#45;&gt;Node5 -->
<g id="edge25" class="edge">
<title>Node15&#45;&gt;Node5</title>
<path fill="none" stroke="#191970" d="M955.6383,-55.9572C1075.9277,-34.6748 1207.0575,-19.1043 1262.1852,-12.906"/>
<polygon fill="#191970" stroke="#191970" points="954.7492,-52.5605 945.5211,-57.7655 955.9809,-59.4513 954.7492,-52.5605"/>
</g>
<!-- Node17&#45;&gt;Node3 -->
<g id="edge33" class="edge">
<title>Node17&#45;&gt;Node3</title>
<path fill="none" stroke="#191970" d="M117.9628,-115.4462C77.5967,-107.8844 19.1657,-94.1265 5.713,-76 -18.8877,-42.8524 46.4607,-23.9909 89.1357,-15.5065"/>
<polygon fill="#191970" stroke="#191970" points="117.5875,-118.9352 128.0521,-117.2788 118.8386,-112.0479 117.5875,-118.9352"/>
</g>
<!-- Node18 -->
<g id="node18" class="node">
<title>Node18</title>
<g id="a_node18"><a xlink:href="density__ops_8_h.html" target="_top" xlink:title="density_ops.H">
<polygon fill="#ffffff" stroke="#000000" points="14.713,-56.5 14.713,-75.5 94.713,-75.5 94.713,-56.5 14.713,-56.5"/>
<text text-anchor="middle" x="54.713" y="-63.5" font-family="Helvetica,sans-Serif" font-size="10.00" fill="#000000">density_ops.H</text>
</a>
</g>
</g>
<!-- Node17&#45;&gt;Node18 -->
<g id="edge34" class="edge">
<title>Node17&#45;&gt;Node18</title>
<path fill="none" stroke="#191970" d="M130.9698,-107.46C112.538,-97.4388 88.5546,-84.3993 72.4487,-75.6427"/>
<polygon fill="#191970" stroke="#191970" points="129.3145,-110.5438 139.7718,-112.2455 132.6581,-104.394 129.3145,-110.5438"/>
</g>
<!-- Node18&#45;&gt;Node3 -->
<g id="edge35" class="edge">
<title>Node18&#45;&gt;Node3</title>
<path fill="none" stroke="#191970" d="M74.5726,-49.645C86.3988,-39.9058 101.0022,-27.8795 111.0041,-19.6427"/>
<polygon fill="#191970" stroke="#191970" points="72.0521,-47.1867 66.5577,-56.2455 76.502,-52.5902 72.0521,-47.1867"/>
</g>
<!-- Node19&#45;&gt;Node4 -->
<g id="edge65" class="edge">
<title>Node19&#45;&gt;Node4</title>
<path fill="none" stroke="#191970" d="M1038.2988,-217.796C1077.3079,-185.5606 1161.5883,-116.1215 1168.713,-112 1196.4272,-95.9682 1230.7767,-83.4558 1255.6146,-75.5546"/>
<polygon fill="#191970" stroke="#191970" points="1035.7549,-215.3579 1030.2778,-224.4272 1040.2151,-220.7529 1035.7549,-215.3579"/>
</g>
<!-- Node20 -->
<g id="node20" class="node">
<title>Node20</title>
<g id="a_node20"><a xlink:href="_p_d_e_8_h.html" target="_top" xlink:title="PDE.H">
<polygon fill="#ffffff" stroke="#000000" points="788.713,-168.5 788.713,-187.5 836.713,-187.5 836.713,-168.5 788.713,-168.5"/>
<text text-anchor="middle" x="812.713" y="-175.5" font-family="Helvetica,sans-Serif" font-size="10.00" fill="#000000">PDE.H</text>
</a>
</g>
</g>
<!-- Node19&#45;&gt;Node20 -->
<g id="edge37" class="edge">
<title>Node19&#45;&gt;Node20</title>
<path fill="none" stroke="#191970" d="M973.5603,-221.7255C931.4297,-210.2725 870.1903,-193.6249 836.7375,-184.5309"/>
<polygon fill="#191970" stroke="#191970" points="972.7324,-225.1274 983.3004,-224.3733 974.5687,-218.3725 972.7324,-225.1274"/>
</g>
<!-- Node19&#45;&gt;Node22 -->
<g id="edge66" class="edge">
<title>Node19&#45;&gt;Node22</title>
<path fill="none" stroke="#191970" d="M1057.8066,-221.2625C1126.6278,-198.881 1273.952,-151.1556 1398.713,-112 1439.5155,-99.1944 1486.6882,-84.7944 1517.0714,-75.572"/>
<polygon fill="#191970" stroke="#191970" points="1056.6609,-217.9547 1048.2344,-224.3768 1058.8266,-224.6112 1056.6609,-217.9547"/>
</g>
<!-- Node33 -->
<g id="node33" class="node">
<title>Node33</title>
<g id="a_node33"><a xlink:href="_diffusion_ops_8cpp.html" target="_top" xlink:title="DiffusionOps.cpp">
<polygon fill="#ffffff" stroke="#000000" points="972.713,-168.5 972.713,-187.5 1064.713,-187.5 1064.713,-168.5 972.713,-168.5"/>
<text text-anchor="middle" x="1018.713" y="-175.5" font-family="Helvetica,sans-Serif" font-size="10.00" fill="#000000">DiffusionOps.cpp</text>
</a>
</g>
</g>
<!-- Node19&#45;&gt;Node33 -->
<g id="edge64" class="edge">
<title>Node19&#45;&gt;Node33</title>
<path fill="none" stroke="#191970" d="M1018.713,-214.1575C1018.713,-205.155 1018.713,-194.9199 1018.713,-187.6427"/>
<polygon fill="#191970" stroke="#191970" points="1015.2131,-214.2455 1018.713,-224.2455 1022.2131,-214.2456 1015.2131,-214.2455"/>
</g>
<!-- Node20&#45;&gt;Node17 -->
<g id="edge38" class="edge">
<title>Node20&#45;&gt;Node17</title>
<path fill="none" stroke="#191970" d="M778.3312,-175.0605C663.6028,-165.2516 295.103,-133.7463 187.4858,-124.5455"/>
<polygon fill="#191970" stroke="#191970" points="778.3626,-178.5759 788.6244,-175.9405 778.9589,-171.6013 778.3626,-178.5759"/>
</g>
<!-- Node20&#45;&gt;Node21 -->
<g id="edge39" class="edge">
<title>Node20&#45;&gt;Node21</title>
<path fill="none" stroke="#191970" d="M847.1295,-173.0198C924.7931,-161.7817 1111.9423,-134.7007 1176.9826,-125.2892"/>
<polygon fill="#191970" stroke="#191970" points="846.3173,-169.6008 836.9216,-174.4969 847.3198,-176.5287 846.3173,-169.6008"/>
</g>
<!-- Node20&#45;&gt;Node24 -->
<g id="edge47" class="edge">
<title>Node20&#45;&gt;Node24</title>
<path fill="none" stroke="#191970" d="M805.8378,-158.7493C802.5724,-149.6064 798.813,-139.0798 796.1568,-131.6427"/>
<polygon fill="#191970" stroke="#191970" points="802.5698,-160.0053 809.2293,-168.2455 809.162,-157.6509 802.5698,-160.0053"/>
</g>
<!-- Node20&#45;&gt;Node26 -->
<g id="edge51" class="edge">
<title>Node20&#45;&gt;Node26</title>
<path fill="none" stroke="#191970" d="M778.3585,-176.7838C702.1411,-173.5932 513.4027,-162.9718 358.713,-132 356.0128,-131.4594 353.2176,-130.7902 350.4485,-130.056"/>
<polygon fill="#191970" stroke="#191970" points="778.2184,-180.2809 788.3511,-177.186 778.5,-173.2865 778.2184,-180.2809"/>
</g>
<!-- Node20&#45;&gt;Node27 -->
<g id="edge53" class="edge">
<title>Node20&#45;&gt;Node27</title>
<path fill="none" stroke="#191970" d="M778.5216,-172.863C725.6866,-164.8168 621.0649,-148.4531 532.713,-132 529.9514,-131.4857 527.1042,-130.9379 524.2394,-130.3737"/>
<polygon fill="#191970" stroke="#191970" points="778.27,-176.3648 788.682,-174.4049 779.3203,-169.4441 778.27,-176.3648"/>
</g>
<!-- Node20&#45;&gt;Node28 -->
<g id="edge55" class="edge">
<title>Node20&#45;&gt;Node28</title>
<path fill="none" stroke="#191970" d="M828.6953,-160.7884C837.5908,-151.2085 848.3334,-139.6396 855.7591,-131.6427"/>
<polygon fill="#191970" stroke="#191970" points="826.0105,-158.536 821.7707,-168.2455 831.1401,-163.2992 826.0105,-158.536"/>
</g>
<!-- Node20&#45;&gt;Node30 -->
<g id="edge58" class="edge">
<title>Node20&#45;&gt;Node30</title>
<path fill="none" stroke="#191970" d="M847.2397,-175.6071C984.7503,-166.0766 1491.2476,-130.9728 1600.0438,-123.4325"/>
<polygon fill="#191970" stroke="#191970" points="846.6289,-172.1409 836.8949,-176.324 847.1129,-179.1242 846.6289,-172.1409"/>
</g>
<!-- Node21&#45;&gt;Node4 -->
<g id="edge41" class="edge">
<title>Node21&#45;&gt;Node4</title>
<path fill="none" stroke="#191970" d="M1223.9195,-106.769C1239.6905,-96.8456 1259.789,-84.1994 1273.3881,-75.6427"/>
<polygon fill="#191970" stroke="#191970" points="1221.8156,-103.9575 1215.2156,-112.2455 1225.5435,-109.8823 1221.8156,-103.9575"/>
</g>
<!-- Node21&#45;&gt;Node5 -->
<g id="edge40" class="edge">
<title>Node21&#45;&gt;Node5</title>
<path fill="none" stroke="#191970" d="M1232.1161,-112.7468C1268.9546,-101.9039 1324.7889,-84.3589 1330.713,-76 1344.5347,-56.4975 1319.5,-32.6156 1302.5036,-19.594"/>
<polygon fill="#191970" stroke="#191970" points="1230.9064,-109.4537 1222.2867,-115.6141 1232.8668,-116.1736 1230.9064,-109.4537"/>
</g>
<!-- Node21&#45;&gt;Node6 -->
<g id="edge42" class="edge">
<title>Node21&#45;&gt;Node6</title>
<path fill="none" stroke="#191970" d="M1167.4586,-112.4934C1132.5035,-102.1909 1077.0465,-85.8457 1042.0566,-75.5328"/>
<polygon fill="#191970" stroke="#191970" points="1166.5898,-115.8862 1177.1714,-115.3562 1168.5689,-109.1717 1166.5898,-115.8862"/>
</g>
<!-- Node21&#45;&gt;Node15 -->
<g id="edge45" class="edge">
<title>Node21&#45;&gt;Node15</title>
<path fill="none" stroke="#191970" d="M1167.1212,-116.2347C1120.1128,-107.839 1030.5885,-91.5492 954.713,-76 951.7338,-75.3895 948.6475,-74.7398 945.5515,-74.0762"/>
<polygon fill="#191970" stroke="#191970" points="1166.5743,-119.6923 1177.0331,-118.0005 1167.802,-112.8008 1166.5743,-119.6923"/>
</g>
<!-- Node21&#45;&gt;Node22 -->
<g id="edge43" class="edge">
<title>Node21&#45;&gt;Node22</title>
<path fill="none" stroke="#191970" d="M1232.2442,-112.9634C1233.7509,-112.6219 1235.2459,-112.2986 1236.713,-112 1351.0276,-88.735 1381.6163,-95.0218 1496.713,-76 1499.4341,-75.5503 1502.2315,-75.0687 1505.05,-74.5688"/>
<polygon fill="#191970" stroke="#191970" points="1231.1776,-109.6213 1222.3032,-115.4089 1232.8498,-116.4187 1231.1776,-109.6213"/>
</g>
<!-- Node23 -->
<g id="node23" class="node">
<title>Node23</title>
<g id="a_node23"><a xlink:href="_power_law_profile_8cpp.html" target="_top" xlink:title="PowerLawProfile.cpp">
<polygon fill="#ffffff" stroke="#000000" points="1378.213,-56.5 1378.213,-75.5 1487.213,-75.5 1487.213,-56.5 1378.213,-56.5"/>
<text text-anchor="middle" x="1432.713" y="-63.5" font-family="Helvetica,sans-Serif" font-size="10.00" fill="#000000">PowerLawProfile.cpp</text>
</a>
</g>
</g>
<!-- Node21&#45;&gt;Node23 -->
<g id="edge46" class="edge">
<title>Node21&#45;&gt;Node23</title>
<path fill="none" stroke="#191970" d="M1232.2828,-113.1326C1233.7791,-112.7456 1235.2614,-112.3664 1236.713,-112 1289.4112,-98.6986 1350.4057,-84.5841 1390.1743,-75.552"/>
<polygon fill="#191970" stroke="#191970" points="1231.1561,-109.81 1222.3798,-115.7452 1232.9418,-116.5785 1231.1561,-109.81"/>
</g>
<!-- Node22&#45;&gt;Node5 -->
<g id="edge44" class="edge">
<title>Node22&#45;&gt;Node5</title>
<path fill="none" stroke="#191970" d="M1495.3041,-54.4965C1440.4867,-42.6897 1357.4299,-24.8006 1315.2732,-15.7206"/>
<polygon fill="#191970" stroke="#191970" points="1494.6821,-57.9428 1505.1949,-56.6269 1496.156,-51.0997 1494.6821,-57.9428"/>
</g>
<!-- Node24&#45;&gt;Node8 -->
<g id="edge48" class="edge">
<title>Node24&#45;&gt;Node8</title>
<path fill="none" stroke="#191970" d="M796.7615,-102.2306C798.5114,-88.0353 798.3348,-69.1624 788.713,-56 769.1714,-29.2674 731.8703,-18.0699 704.2166,-13.3798"/>
<polygon fill="#191970" stroke="#191970" points="793.2561,-101.9786 795.0889,-112.4137 800.1635,-103.1132 793.2561,-101.9786"/>
</g>
<!-- Node25 -->
<g id="node25" class="node">
<title>Node25</title>
<g id="a_node25"><a xlink:href="levelset__ops_8_h.html" target="_top" xlink:title="levelset_ops.H">
<polygon fill="#ffffff" stroke="#000000" points="697.713,-56.5 697.713,-75.5 779.713,-75.5 779.713,-56.5 697.713,-56.5"/>
<text text-anchor="middle" x="738.713" y="-63.5" font-family="Helvetica,sans-Serif" font-size="10.00" fill="#000000">levelset_ops.H</text>
</a>
</g>
</g>
<!-- Node24&#45;&gt;Node25 -->
<g id="edge49" class="edge">
<title>Node24&#45;&gt;Node25</title>
<path fill="none" stroke="#191970" d="M776.1161,-104.7884C766.8784,-95.2085 755.7226,-83.6396 748.0113,-75.6427"/>
<polygon fill="#191970" stroke="#191970" points="773.8461,-107.4766 783.3069,-112.2455 778.885,-102.6176 773.8461,-107.4766"/>
</g>
<!-- Node25&#45;&gt;Node8 -->
<g id="edge50" class="edge">
<title>Node25&#45;&gt;Node8</title>
<path fill="none" stroke="#191970" d="M718.9101,-49.928C706.8495,-40.1397 691.8417,-27.9595 681.5942,-19.6427"/>
<polygon fill="#191970" stroke="#191970" points="716.7239,-52.6614 726.6941,-56.2455 721.1351,-47.2262 716.7239,-52.6614"/>
</g>
<!-- Node26&#45;&gt;Node9 -->
<g id="edge52" class="edge">
<title>Node26&#45;&gt;Node9</title>
<path fill="none" stroke="#191970" d="M323.587,-102.1575C322.6225,-93.155 321.5259,-82.9199 320.7462,-75.6427"/>
<polygon fill="#191970" stroke="#191970" points="320.1224,-102.6753 324.6679,-112.2455 327.0826,-101.9296 320.1224,-102.6753"/>
</g>
<!-- Node27&#45;&gt;Node10 -->
<g id="edge54" class="edge">
<title>Node27&#45;&gt;Node10</title>
<path fill="none" stroke="#191970" d="M463.5653,-106.2097C450.3929,-96.3743 433.873,-84.0394 422.6273,-75.6427"/>
<polygon fill="#191970" stroke="#191970" points="461.5422,-109.0671 471.649,-112.2455 465.7302,-103.4581 461.5422,-109.0671"/>
</g>
<!-- Node28&#45;&gt;Node11 -->
<g id="edge56" class="edge">
<title>Node28&#45;&gt;Node11</title>
<path fill="none" stroke="#191970" d="M831.1585,-111.8337C743.0388,-90.7047 648.9587,-76.2692 603.3361,-69.7787"/>
<polygon fill="#191970" stroke="#191970" points="830.4967,-115.2747 841.0407,-114.2381 832.1516,-108.4731 830.4967,-115.2747"/>
</g>
<!-- Node29 -->
<g id="node29" class="node">
<title>Node29</title>
<g id="a_node29"><a xlink:href="_one_eq_ksgs_8cpp.html" target="_top" xlink:title="OneEqKsgs.cpp">
<polygon fill="#ffffff" stroke="#000000" points="1149.713,-56.5 1149.713,-75.5 1237.713,-75.5 1237.713,-56.5 1149.713,-56.5"/>
<text text-anchor="middle" x="1193.713" y="-63.5" font-family="Helvetica,sans-Serif" font-size="10.00" fill="#000000">OneEqKsgs.cpp</text>
</a>
</g>
</g>
<!-- Node28&#45;&gt;Node29 -->
<g id="edge57" class="edge">
<title>Node28&#45;&gt;Node29</title>
<path fill="none" stroke="#191970" d="M898.2149,-114.1442C901.7525,-113.387 905.302,-112.6573 908.713,-112 1009.0172,-92.6701 1034.934,-92.6784 1135.713,-76 1140.2494,-75.2493 1144.9831,-74.4534 1149.7046,-73.6516"/>
<polygon fill="#191970" stroke="#191970" points="897.4096,-110.7376 888.401,-116.3139 898.9208,-117.5726 897.4096,-110.7376"/>
</g>
<!-- Node30&#45;&gt;Node12 -->
<g id="edge59" class="edge">
<title>Node30&#45;&gt;Node12</title>
<path fill="none" stroke="#191970" d="M1619.5007,-101.8928C1617.6424,-87.5295 1613.0351,-68.5943 1601.713,-56 1578.6312,-30.3244 1539.1312,-18.6962 1513.4782,-13.636"/>
<polygon fill="#191970" stroke="#191970" points="1616.0516,-102.5972 1620.4775,-112.2233 1623.0206,-101.9382 1616.0516,-102.5972"/>
</g>
<!-- Node31 -->
<g id="node31" class="node">
<title>Node31</title>
<g id="a_node31"><a xlink:href="vof__advection_8_h.html" target="_top" xlink:title="vof_advection.H">
<polygon fill="#ffffff" stroke="#000000" points="1648.713,-56.5 1648.713,-75.5 1736.713,-75.5 1736.713,-56.5 1648.713,-56.5"/>
<text text-anchor="middle" x="1692.713" y="-63.5" font-family="Helvetica,sans-Serif" font-size="10.00" fill="#000000">vof_advection.H</text>
</a>
</g>
</g>
<!-- Node30&#45;&gt;Node31 -->
<g id="edge60" class="edge">
<title>Node30&#45;&gt;Node31</title>
<path fill="none" stroke="#191970" d="M1641.377,-105.928C1653.9619,-96.1397 1669.6223,-83.9595 1680.3153,-75.6427"/>
<polygon fill="#191970" stroke="#191970" points="1638.9992,-103.3434 1633.2545,-112.2455 1643.2968,-108.8688 1638.9992,-103.3434"/>
</g>
<!-- Node32 -->
<g id="node32" class="node">
<title>Node32</title>
<g id="a_node32"><a xlink:href="vof__ops_8_h.html" target="_top" xlink:title="vof_ops.H">
<polygon fill="#ffffff" stroke="#000000" points="1754.713,-56.5 1754.713,-75.5 1816.713,-75.5 1816.713,-56.5 1754.713,-56.5"/>
<text text-anchor="middle" x="1785.713" y="-63.5" font-family="Helvetica,sans-Serif" font-size="10.00" fill="#000000">vof_ops.H</text>
</a>
</g>
</g>
<!-- Node30&#45;&gt;Node32 -->
<g id="edge62" class="edge">
<title>Node30&#45;&gt;Node32</title>
<path fill="none" stroke="#191970" d="M1650.942,-111.7405C1681.4119,-101.3992 1728.0566,-85.5683 1757.7084,-75.5046"/>
<polygon fill="#191970" stroke="#191970" points="1649.6214,-108.4925 1641.2768,-115.0208 1651.8711,-115.1212 1649.6214,-108.4925"/>
</g>
<!-- Node31&#45;&gt;Node12 -->
<g id="edge61" class="edge">
<title>Node31&#45;&gt;Node12</title>
<path fill="none" stroke="#191970" d="M1647.8194,-53.6763C1606.4754,-42.3269 1546.6624,-25.9077 1513.3955,-16.7756"/>
<polygon fill="#191970" stroke="#191970" points="1647.0744,-57.1012 1657.6442,-56.3733 1648.9274,-50.3509 1647.0744,-57.1012"/>
</g>
<!-- Node32&#45;&gt;Node12 -->
<g id="edge63" class="edge">
<title>Node32&#45;&gt;Node12</title>
<path fill="none" stroke="#191970" d="M1744.4302,-55.8279C1653.7554,-36.6527 1557.5208,-20.8412 1513.2716,-13.826"/>
<polygon fill="#191970" stroke="#191970" points="1743.8069,-59.2737 1754.317,-57.9372 1745.2674,-52.4277 1743.8069,-59.2737"/>
</g>
</g>
</svg>
