<?xml version="1.0" encoding="UTF-8" standalone="no"?>
<!DOCTYPE svg PUBLIC "-//W3C//DTD SVG 1.1//EN"
 "http://www.w3.org/Graphics/SVG/1.1/DTD/svg11.dtd">
<!-- Generated by graphviz version 2.40.1 (20161225.0304)
 -->
<!-- Title: PDEOps.H Pages: 1 -->
<!--zoomable 308 -->
<svg id="main" version="1.1" xmlns="http://www.w3.org/2000/svg" xmlns:xlink="http://www.w3.org/1999/xlink" xml:space="preserve" onload="init(evt)">
<style type="text/css"><![CDATA[
.edge:hover path { stroke: red; }
.edge:hover polygon { stroke: red; fill: red; }
]]></style>
<script type="text/javascript"><![CDATA[
var edges = document.getElementsByTagName('g');
if (edges && edges.length) {
  for (var i=0;i<edges.length;i++) {
    if (edges[i].id.substr(0,4)=='edge') {
      edges[i].setAttribute('class','edge');
    }
  }
}
]]></script>
        <defs>
                <circle id="rim" cx="0" cy="0" r="7"/>
                <circle id="rim2" cx="0" cy="0" r="3.5"/>
                <g id="zoomPlus">
                        <use xlink:href="#rim" fill="#404040">
                                <set attributeName="fill" to="#808080" begin="zoomplus.mouseover" end="zoomplus.mouseout"/>
                        </use>
                        <path d="M-4,0h8M0,-4v8" fill="none" stroke="white" stroke-width="1.5" pointer-events="none"/>
                </g>
                <g id="zoomMin">
                        <use xlink:href="#rim" fill="#404040">
                                <set attributeName="fill" to="#808080" begin="zoomminus.mouseover" end="zoomminus.mouseout"/>
                        </use>
                        <path d="M-4,0h8" fill="none" stroke="white" stroke-width="1.5" pointer-events="none"/>
                </g>
                <g id="dirArrow">
                        <path fill="none" stroke="white" stroke-width="1.5" d="M0,-3.0v7 M-2.5,-0.5L0,-3.0L2.5,-0.5"/>
                </g>
               <g id="resetDef">
                       <use xlink:href="#rim2" fill="#404040">
                               <set attributeName="fill" to="#808080" begin="reset.mouseover" end="reset.mouseout"/>
                       </use>
               </g>
        </defs>

<script type="text/javascript">
var viewWidth = 1824;
var viewHeight = 308;
var sectionId = 'dynsection-1';
</script>
<script xlink:href="svgpan.js"/>
<svg id="graph" class="graph">
<g id="viewport">
<title>PDEOps.H</title>
<polygon fill="#ffffff" stroke="transparent" points="-4,4 -4,-304 1819.6367,-304 1819.6367,4 -4,4"/>
<!-- Node45 -->
<g id="node1" class="node">
<title>Node45</title>
<polygon fill="#bfbfbf" stroke="#000000" points="1027.1367,-280.5 1027.1367,-299.5 1093.1367,-299.5 1093.1367,-280.5 1027.1367,-280.5"/>
<text text-anchor="middle" x="1060.1367" y="-287.5" font-family="Helvetica,sans-Serif" font-size="10.00" fill="#000000">PDEOps.H</text>
</g>
<!-- Node46 -->
<g id="node2" class="node">
<title>Node46</title>
<g id="a_node2"><a xlink:href="_adv_op___godunov_8_h.html" target="_top" xlink:title="AdvOp_Godunov.H">
<polygon fill="#ffffff" stroke="#000000" points="907.6367,-112.5 907.6367,-131.5 1008.6367,-131.5 1008.6367,-112.5 907.6367,-112.5"/>
<text text-anchor="middle" x="958.1367" y="-119.5" font-family="Helvetica,sans-Serif" font-size="10.00" fill="#000000">AdvOp_Godunov.H</text>
</a>
</g>
</g>
<!-- Node45&#45;&gt;Node46 -->
<g id="edge1" class="edge">
<title>Node45&#45;&gt;Node46</title>
<path fill="none" stroke="#191970" d="M1048.9933,-271.6463C1027.432,-236.1336 980.671,-159.1154 964.1036,-131.8279"/>
<polygon fill="#191970" stroke="#191970" points="1046.1788,-273.7548 1054.3604,-280.4862 1052.1624,-270.1219 1046.1788,-273.7548"/>
</g>
<!-- Node48 -->
<g id="node4" class="node">
<title>Node48</title>
<g id="a_node4"><a xlink:href="icns__ops_8_h.html" target="_top" xlink:title="icns_ops.H">
<polygon fill="#ffffff" stroke="#000000" points="1644.1367,-56.5 1644.1367,-75.5 1710.1367,-75.5 1710.1367,-56.5 1644.1367,-56.5"/>
<text text-anchor="middle" x="1677.1367" y="-63.5" font-family="Helvetica,sans-Serif" font-size="10.00" fill="#000000">icns_ops.H</text>
</a>
</g>
</g>
<!-- Node45&#45;&gt;Node48 -->
<g id="edge69" class="edge">
<title>Node45&#45;&gt;Node48</title>
<path fill="none" stroke="#191970" d="M1103.2471,-288.7565C1205.9089,-285.3371 1462.2409,-273.9735 1542.1367,-244 1582.0933,-229.0099 1592.8863,-220.8429 1620.1367,-188 1649.9926,-152.0167 1667.9887,-97.7944 1674.4333,-75.794"/>
<polygon fill="#191970" stroke="#191970" points="1103.1084,-285.259 1093.227,-289.0811 1103.3351,-292.2554 1103.1084,-285.259"/>
</g>
<!-- Node57 -->
<g id="node13" class="node">
<title>Node57</title>
<g id="a_node13"><a xlink:href="_adv_op___m_o_l_8_h.html" target="_top" xlink:title="AdvOp_MOL.H">
<polygon fill="#ffffff" stroke="#000000" points="1026.6367,-112.5 1026.6367,-131.5 1109.6367,-131.5 1109.6367,-112.5 1026.6367,-112.5"/>
<text text-anchor="middle" x="1068.1367" y="-119.5" font-family="Helvetica,sans-Serif" font-size="10.00" fill="#000000">AdvOp_MOL.H</text>
</a>
</g>
</g>
<!-- Node45&#45;&gt;Node57 -->
<g id="edge13" class="edge">
<title>Node45&#45;&gt;Node57</title>
<path fill="none" stroke="#191970" d="M1061.0766,-270.2601C1062.7954,-234.1669 1066.3859,-158.7656 1067.6687,-131.8279"/>
<polygon fill="#191970" stroke="#191970" points="1057.5694,-270.331 1060.5897,-280.4862 1064.5615,-270.6641 1057.5694,-270.331"/>
</g>
<!-- Node58 -->
<g id="node14" class="node">
<title>Node58</title>
<g id="a_node14"><a xlink:href="_b_c_ops_8_h.html" target="_top" xlink:title="BCOps.H">
<polygon fill="#ffffff" stroke="#000000" points="657.6367,-112.5 657.6367,-131.5 716.6367,-131.5 716.6367,-112.5 657.6367,-112.5"/>
<text text-anchor="middle" x="687.1367" y="-119.5" font-family="Helvetica,sans-Serif" font-size="10.00" fill="#000000">BCOps.H</text>
</a>
</g>
</g>
<!-- Node45&#45;&gt;Node58 -->
<g id="edge22" class="edge">
<title>Node45&#45;&gt;Node58</title>
<path fill="none" stroke="#191970" d="M1016.579,-284.9579C955.492,-277.37 847.9417,-261.974 813.1367,-244 757.946,-215.4984 710.7042,-154.95 693.7894,-131.5282"/>
<polygon fill="#191970" stroke="#191970" points="1016.3402,-288.4547 1026.6913,-286.1954 1017.1905,-281.5066 1016.3402,-288.4547"/>
</g>
<!-- Node61 -->
<g id="node17" class="node">
<title>Node61</title>
<g id="a_node17"><a xlink:href="_comp_r_h_s_ops_8_h.html" target="_top" xlink:title="CompRHSOps.H">
<polygon fill="#ffffff" stroke="#000000" points="822.6367,-224.5 822.6367,-243.5 915.6367,-243.5 915.6367,-224.5 822.6367,-224.5"/>
<text text-anchor="middle" x="869.1367" y="-231.5" font-family="Helvetica,sans-Serif" font-size="10.00" fill="#000000">CompRHSOps.H</text>
</a>
</g>
</g>
<!-- Node45&#45;&gt;Node61 -->
<g id="edge32" class="edge">
<title>Node45&#45;&gt;Node61</title>
<path fill="none" stroke="#191970" d="M1017.3529,-277.4561C982.2921,-267.1765 933.4265,-252.8494 901.5423,-243.5011"/>
<polygon fill="#191970" stroke="#191970" points="1016.7218,-280.9183 1027.3026,-280.3733 1018.6913,-274.2011 1016.7218,-280.9183"/>
</g>
<!-- Node62 -->
<g id="node18" class="node">
<title>Node62</title>
<g id="a_node18"><a xlink:href="_p_d_e_8_h.html" target="_top" xlink:title="PDE.H">
<polygon fill="#ffffff" stroke="#000000" points="842.1367,-168.5 842.1367,-187.5 890.1367,-187.5 890.1367,-168.5 842.1367,-168.5"/>
<text text-anchor="middle" x="866.1367" y="-175.5" font-family="Helvetica,sans-Serif" font-size="10.00" fill="#000000">PDE.H</text>
</a>
</g>
</g>
<!-- Node45&#45;&gt;Node62 -->
<g id="edge63" class="edge">
<title>Node45&#45;&gt;Node62</title>
<path fill="none" stroke="#191970" d="M1034.8891,-275.4241C994.5362,-252.1276 916.6024,-207.1349 882.6351,-187.5249"/>
<polygon fill="#191970" stroke="#191970" points="1033.186,-278.4822 1043.5963,-280.4509 1036.6859,-272.42 1033.186,-278.4822"/>
</g>
<!-- Node66 -->
<g id="node22" class="node">
<title>Node66</title>
<g id="a_node22"><a xlink:href="icns__diffusion_8_h.html" target="_top" xlink:title="icns_diffusion.H">
<polygon fill="#ffffff" stroke="#000000" points="1728.6367,-56.5 1728.6367,-75.5 1815.6367,-75.5 1815.6367,-56.5 1728.6367,-56.5"/>
<text text-anchor="middle" x="1772.1367" y="-63.5" font-family="Helvetica,sans-Serif" font-size="10.00" fill="#000000">icns_diffusion.H</text>
</a>
</g>
</g>
<!-- Node45&#45;&gt;Node66 -->
<g id="edge70" class="edge">
<title>Node45&#45;&gt;Node66</title>
<path fill="none" stroke="#191970" d="M1103.6675,-289.1746C1211.823,-286.6387 1490.2126,-277.0052 1576.1367,-244 1653.472,-214.2939 1667.3161,-191.3295 1725.1367,-132 1742.6123,-114.0683 1758.5085,-89.1645 1766.5729,-75.6535"/>
<polygon fill="#191970" stroke="#191970" points="1103.3612,-285.6805 1093.4426,-289.4049 1103.5189,-292.6787 1103.3612,-285.6805"/>
</g>
<!-- Node77 -->
<g id="node33" class="node">
<title>Node77</title>
<g id="a_node33"><a xlink:href="_diffusion_ops_8_h.html" target="_top" xlink:title="DiffusionOps.H">
<polygon fill="#ffffff" stroke="#000000" points="1449.1367,-224.5 1449.1367,-243.5 1533.1367,-243.5 1533.1367,-224.5 1449.1367,-224.5"/>
<text text-anchor="middle" x="1491.1367" y="-231.5" font-family="Helvetica,sans-Serif" font-size="10.00" fill="#000000">DiffusionOps.H</text>
</a>
</g>
</g>
<!-- Node45&#45;&gt;Node77 -->
<g id="edge64" class="edge">
<title>Node45&#45;&gt;Node77</title>
<path fill="none" stroke="#191970" d="M1103.3269,-284.3883C1186.2272,-273.617 1366.7051,-250.1674 1448.8726,-239.4914"/>
<polygon fill="#191970" stroke="#191970" points="1102.7065,-280.9394 1093.2408,-285.6988 1103.6085,-287.881 1102.7065,-280.9394"/>
</g>
<!-- Node47 -->
<g id="node3" class="node">
<title>Node47</title>
<g id="a_node3"><a xlink:href="density_8cpp.html" target="_top" xlink:title="density.cpp">
<polygon fill="#ffffff" stroke="#000000" points="418.6367,-.5 418.6367,-19.5 485.6367,-19.5 485.6367,-.5 418.6367,-.5"/>
<text text-anchor="middle" x="452.1367" y="-7.5" font-family="Helvetica,sans-Serif" font-size="10.00" fill="#000000">density.cpp</text>
</a>
</g>
</g>
<!-- Node46&#45;&gt;Node47 -->
<g id="edge2" class="edge">
<title>Node46&#45;&gt;Node47</title>
<path fill="none" stroke="#191970" d="M948.0146,-103.523C938.4075,-87.9643 922.4328,-66.6004 902.1367,-56 827.7355,-17.1412 609.521,-29.6222 526.1367,-20 513.0005,-18.4841 498.5846,-16.5887 485.9941,-14.8568"/>
<polygon fill="#191970" stroke="#191970" points="945.0853,-105.4472 953.1553,-112.3122 951.1277,-101.9131 945.0853,-105.4472"/>
</g>
<!-- Node46&#45;&gt;Node48 -->
<g id="edge3" class="edge">
<title>Node46&#45;&gt;Node48</title>
<path fill="none" stroke="#191970" d="M1018.9254,-111.8941C1275.4198,-82.8201 1343.2477,-99.7241 1597.1367,-76 1612.6059,-74.5545 1629.7007,-72.4825 1644.1031,-70.599"/>
<polygon fill="#191970" stroke="#191970" points="1018.4731,-108.423 1008.9366,-113.0387 1019.2701,-115.3775 1018.4731,-108.423"/>
</g>
<!-- Node50 -->
<g id="node6" class="node">
<title>Node50</title>
<g id="a_node6"><a xlink:href="icns__advection_8_h.html" target="_top" xlink:title="icns_advection.H">
<polygon fill="#ffffff" stroke="#000000" points="1368.1367,-56.5 1368.1367,-75.5 1460.1367,-75.5 1460.1367,-56.5 1368.1367,-56.5"/>
<text text-anchor="middle" x="1414.1367" y="-63.5" font-family="Helvetica,sans-Serif" font-size="10.00" fill="#000000">icns_advection.H</text>
</a>
</g>
</g>
<!-- Node46&#45;&gt;Node50 -->
<g id="edge5" class="edge">
<title>Node46&#45;&gt;Node50</title>
<path fill="none" stroke="#191970" d="M1019.0768,-111.8014C1170.2969,-91.4841 1211.0936,-97.2197 1359.1367,-76 1362.0187,-75.5869 1364.9807,-75.1333 1367.9641,-74.6543"/>
<polygon fill="#191970" stroke="#191970" points="1018.3914,-108.3623 1008.9542,-113.1778 1019.3346,-115.2984 1018.3914,-108.3623"/>
</g>
<!-- Node52 -->
<g id="node8" class="node">
<title>Node52</title>
<g id="a_node8"><a xlink:href="levelset_8cpp.html" target="_top" xlink:title="levelset.cpp">
<polygon fill="#ffffff" stroke="#000000" points="1077.6367,-.5 1077.6367,-19.5 1146.6367,-19.5 1146.6367,-.5 1077.6367,-.5"/>
<text text-anchor="middle" x="1112.1367" y="-7.5" font-family="Helvetica,sans-Serif" font-size="10.00" fill="#000000">levelset.cpp</text>
</a>
</g>
</g>
<!-- Node46&#45;&gt;Node52 -->
<g id="edge8" class="edge">
<title>Node46&#45;&gt;Node52</title>
<path fill="none" stroke="#191970" d="M979.6139,-106.3802C1012.027,-82.807 1072.4736,-38.8459 1099.0399,-19.5249"/>
<polygon fill="#191970" stroke="#191970" points="977.2954,-103.7386 971.2666,-112.4509 981.4126,-109.3998 977.2954,-103.7386"/>
</g>
<!-- Node53 -->
<g id="node9" class="node">
<title>Node53</title>
<g id="a_node9"><a xlink:href="_s_d_r_8cpp.html" target="_top" xlink:title="SDR.cpp">
<polygon fill="#ffffff" stroke="#000000" points="836.6367,-56.5 836.6367,-75.5 893.6367,-75.5 893.6367,-56.5 836.6367,-56.5"/>
<text text-anchor="middle" x="865.1367" y="-63.5" font-family="Helvetica,sans-Serif" font-size="10.00" fill="#000000">SDR.cpp</text>
</a>
</g>
</g>
<!-- Node46&#45;&gt;Node53 -->
<g id="edge9" class="edge">
<title>Node46&#45;&gt;Node53</title>
<path fill="none" stroke="#191970" d="M933.3031,-107.0465C916.7556,-97.0824 895.4934,-84.2794 881.1504,-75.6427"/>
<polygon fill="#191970" stroke="#191970" points="931.565,-110.0854 941.9373,-112.2455 935.176,-104.0886 931.565,-110.0854"/>
</g>
<!-- Node54 -->
<g id="node10" class="node">
<title>Node54</title>
<g id="a_node10"><a xlink:href="temperature_8cpp.html" target="_top" xlink:title="temperature.cpp">
<polygon fill="#ffffff" stroke="#000000" points="731.6367,-56.5 731.6367,-75.5 818.6367,-75.5 818.6367,-56.5 731.6367,-56.5"/>
<text text-anchor="middle" x="775.1367" y="-63.5" font-family="Helvetica,sans-Serif" font-size="10.00" fill="#000000">temperature.cpp</text>
</a>
</g>
</g>
<!-- Node46&#45;&gt;Node54 -->
<g id="edge10" class="edge">
<title>Node46&#45;&gt;Node54</title>
<path fill="none" stroke="#191970" d="M916.7117,-109.3235C883.1511,-99.0536 836.6026,-84.8093 806.185,-75.5011"/>
<polygon fill="#191970" stroke="#191970" points="916.0913,-112.7938 926.6778,-112.3733 918.1397,-106.1002 916.0913,-112.7938"/>
</g>
<!-- Node55 -->
<g id="node11" class="node">
<title>Node55</title>
<g id="a_node11"><a xlink:href="_t_k_e_8cpp.html" target="_top" xlink:title="TKE.cpp">
<polygon fill="#ffffff" stroke="#000000" points="658.6367,-56.5 658.6367,-75.5 713.6367,-75.5 713.6367,-56.5 658.6367,-56.5"/>
<text text-anchor="middle" x="686.1367" y="-63.5" font-family="Helvetica,sans-Serif" font-size="10.00" fill="#000000">TKE.cpp</text>
</a>
</g>
</g>
<!-- Node46&#45;&gt;Node55 -->
<g id="edge11" class="edge">
<title>Node46&#45;&gt;Node55</title>
<path fill="none" stroke="#191970" d="M897.3644,-111.5087C849.5353,-102.926 781.3069,-89.962 722.1367,-76 719.4851,-75.3743 716.7346,-74.6848 713.9889,-73.9692"/>
<polygon fill="#191970" stroke="#191970" points="896.7911,-114.9616 907.2504,-113.2724 898.0206,-108.0704 896.7911,-114.9616"/>
</g>
<!-- Node56 -->
<g id="node12" class="node">
<title>Node56</title>
<g id="a_node12"><a xlink:href="vof_8cpp.html" target="_top" xlink:title="vof.cpp">
<polygon fill="#ffffff" stroke="#000000" points="535.6367,-.5 535.6367,-19.5 584.6367,-19.5 584.6367,-.5 535.6367,-.5"/>
<text text-anchor="middle" x="560.1367" y="-7.5" font-family="Helvetica,sans-Serif" font-size="10.00" fill="#000000">vof.cpp</text>
</a>
</g>
</g>
<!-- Node46&#45;&gt;Node56 -->
<g id="edge12" class="edge">
<title>Node46&#45;&gt;Node56</title>
<path fill="none" stroke="#191970" d="M956.9635,-101.7976C954.9545,-86.7956 949.6979,-67.0879 936.1367,-56 908.8664,-33.7034 663.882,-16.5079 584.7003,-11.4923"/>
<polygon fill="#191970" stroke="#191970" points="953.5155,-102.5099 957.9506,-112.1318 960.4838,-101.8443 953.5155,-102.5099"/>
</g>
<!-- Node49 -->
<g id="node5" class="node">
<title>Node49</title>
<g id="a_node5"><a xlink:href="icns_8cpp.html" target="_top" xlink:title="icns.cpp">
<polygon fill="#ffffff" stroke="#000000" points="1589.6367,-.5 1589.6367,-19.5 1642.6367,-19.5 1642.6367,-.5 1589.6367,-.5"/>
<text text-anchor="middle" x="1616.1367" y="-7.5" font-family="Helvetica,sans-Serif" font-size="10.00" fill="#000000">icns.cpp</text>
</a>
</g>
</g>
<!-- Node48&#45;&gt;Node49 -->
<g id="edge4" class="edge">
<title>Node48&#45;&gt;Node49</title>
<path fill="none" stroke="#191970" d="M1659.0117,-49.3607C1648.4587,-39.6727 1635.5254,-27.7995 1626.6403,-19.6427"/>
<polygon fill="#191970" stroke="#191970" points="1656.7777,-52.0611 1666.5113,-56.2455 1661.5117,-46.9045 1656.7777,-52.0611"/>
</g>
<!-- Node50&#45;&gt;Node49 -->
<g id="edge6" class="edge">
<title>Node50&#45;&gt;Node49</title>
<path fill="none" stroke="#191970" d="M1458.6484,-53.6601C1498.7253,-42.5497 1556.2933,-26.5902 1589.5876,-17.3601"/>
<polygon fill="#191970" stroke="#191970" points="1457.5632,-50.3289 1448.8617,-56.3733 1459.4333,-57.0745 1457.5632,-50.3289"/>
</g>
<!-- Node51 -->
<g id="node7" class="node">
<title>Node51</title>
<g id="a_node7"><a xlink:href="icns__advection_8cpp.html" target="_top" xlink:title="icns_advection.cpp">
<polygon fill="#ffffff" stroke="#000000" points="1363.6367,-.5 1363.6367,-19.5 1464.6367,-19.5 1464.6367,-.5 1363.6367,-.5"/>
<text text-anchor="middle" x="1414.1367" y="-7.5" font-family="Helvetica,sans-Serif" font-size="10.00" fill="#000000">icns_advection.cpp</text>
</a>
</g>
</g>
<!-- Node50&#45;&gt;Node51 -->
<g id="edge7" class="edge">
<title>Node50&#45;&gt;Node51</title>
<path fill="none" stroke="#191970" d="M1414.1367,-46.1575C1414.1367,-37.155 1414.1367,-26.9199 1414.1367,-19.6427"/>
<polygon fill="#191970" stroke="#191970" points="1410.6367,-46.2455 1414.1367,-56.2455 1417.6367,-46.2456 1410.6367,-46.2455"/>
</g>
<!-- Node57&#45;&gt;Node47 -->
<g id="edge14" class="edge">
<title>Node57&#45;&gt;Node47</title>
<path fill="none" stroke="#191970" d="M1039.4618,-107.822C1001.9397,-89.3726 939.5934,-59.1082 928.1367,-56 755.0131,-9.0318 704.398,-40.0163 526.1367,-20 512.996,-18.5245 498.5791,-16.6372 485.9891,-14.9006"/>
<polygon fill="#191970" stroke="#191970" points="1038.3548,-111.1782 1048.8721,-112.4571 1041.4479,-104.8986 1038.3548,-111.1782"/>
</g>
<!-- Node57&#45;&gt;Node48 -->
<g id="edge15" class="edge">
<title>Node57&#45;&gt;Node48</title>
<path fill="none" stroke="#191970" d="M1120.0315,-112.0372C1332.0152,-83.875 1388.4622,-96.8874 1597.1367,-76 1612.596,-74.4526 1629.6895,-72.367 1644.0936,-70.5009"/>
<polygon fill="#191970" stroke="#191970" points="1119.263,-108.6089 1109.8183,-113.4097 1120.1954,-115.5466 1119.263,-108.6089"/>
</g>
<!-- Node57&#45;&gt;Node50 -->
<g id="edge16" class="edge">
<title>Node57&#45;&gt;Node50</title>
<path fill="none" stroke="#191970" d="M1119.7909,-111.9509C1227.087,-93.6051 1255.8478,-93.1323 1359.1367,-76 1362.009,-75.5236 1364.9634,-75.0215 1367.9412,-74.5063"/>
<polygon fill="#191970" stroke="#191970" points="1119.1179,-108.5152 1109.8571,-113.6618 1120.3061,-115.4136 1119.1179,-108.5152"/>
</g>
<!-- Node57&#45;&gt;Node52 -->
<g id="edge17" class="edge">
<title>Node57&#45;&gt;Node52</title>
<path fill="none" stroke="#191970" d="M1076.6804,-103.0654C1080.3278,-94.8026 1084.5592,-84.971 1088.1367,-76 1095.9948,-56.2943 1104.2582,-32.8857 1108.7457,-19.9113"/>
<polygon fill="#191970" stroke="#191970" points="1073.4819,-101.6444 1072.6043,-112.2028 1079.8746,-104.4962 1073.4819,-101.6444"/>
</g>
<!-- Node57&#45;&gt;Node53 -->
<g id="edge18" class="edge">
<title>Node57&#45;&gt;Node53</title>
<path fill="none" stroke="#191970" d="M1023.5779,-109.7079C984.035,-98.7995 927.4469,-83.189 893.6871,-73.876"/>
<polygon fill="#191970" stroke="#191970" points="1022.669,-113.0879 1033.2397,-112.3733 1024.5306,-106.3399 1022.669,-113.0879"/>
</g>
<!-- Node57&#45;&gt;Node54 -->
<g id="edge19" class="edge">
<title>Node57&#45;&gt;Node54</title>
<path fill="none" stroke="#191970" d="M1016.5184,-111.8899C931.1301,-95.4536 908.5087,-91.5331 827.1367,-76 824.4276,-75.4829 821.6394,-74.9496 818.8277,-74.4111"/>
<polygon fill="#191970" stroke="#191970" points="1015.9107,-115.3371 1026.3923,-113.7924 1017.2352,-108.4635 1015.9107,-115.3371"/>
</g>
<!-- Node57&#45;&gt;Node55 -->
<g id="edge20" class="edge">
<title>Node57&#45;&gt;Node55</title>
<path fill="none" stroke="#191970" d="M1016.381,-111.9931C884.9229,-91.7687 848.5237,-101.119 722.1367,-76 719.4645,-75.4689 716.7002,-74.8429 713.9458,-74.1675"/>
<polygon fill="#191970" stroke="#191970" points="1016.0104,-115.4777 1026.4317,-113.5681 1017.0942,-108.5621 1016.0104,-115.4777"/>
</g>
<!-- Node57&#45;&gt;Node56 -->
<g id="edge21" class="edge">
<title>Node57&#45;&gt;Node56</title>
<path fill="none" stroke="#191970" d="M1047.7516,-106.2533C1026.4198,-90.6816 991.333,-67.5565 957.1367,-56 887.3779,-32.4254 660.3918,-16.3214 584.846,-11.5057"/>
<polygon fill="#191970" stroke="#191970" points="1045.8996,-109.2382 1056.009,-112.4087 1050.0833,-103.6259 1045.8996,-109.2382"/>
</g>
<!-- Node58&#45;&gt;Node47 -->
<g id="edge23" class="edge">
<title>Node58&#45;&gt;Node47</title>
<path fill="none" stroke="#191970" d="M647.3282,-112.0874C566.7604,-96.7326 527.8123,-128.3323 471.1367,-76 455.1929,-61.2781 452.316,-34.1304 451.9849,-19.6657"/>
<polygon fill="#191970" stroke="#191970" points="646.8571,-115.5649 657.3638,-114.2015 648.3001,-108.7152 646.8571,-115.5649"/>
</g>
<!-- Node58&#45;&gt;Node52 -->
<g id="edge26" class="edge">
<title>Node58&#45;&gt;Node52</title>
<path fill="none" stroke="#191970" d="M666.8672,-105.6682C651.6627,-91.487 635.6084,-70.9389 649.1367,-56 677.8063,-24.3409 975.1291,-13.5957 1077.6289,-10.8168"/>
<polygon fill="#191970" stroke="#191970" points="664.7559,-108.4721 674.5795,-112.4403 669.3746,-103.2121 664.7559,-108.4721"/>
</g>
<!-- Node58&#45;&gt;Node53 -->
<g id="edge27" class="edge">
<title>Node58&#45;&gt;Node53</title>
<path fill="none" stroke="#191970" d="M726.781,-109.5276C760.0214,-99.07 806.6948,-84.3862 836.4267,-75.0324"/>
<polygon fill="#191970" stroke="#191970" points="725.4185,-106.2871 716.9298,-112.6269 727.5193,-112.9644 725.4185,-106.2871"/>
</g>
<!-- Node58&#45;&gt;Node54 -->
<g id="edge28" class="edge">
<title>Node58&#45;&gt;Node54</title>
<path fill="none" stroke="#191970" d="M711.0711,-106.769C726.6649,-96.8456 746.5376,-84.1994 759.9839,-75.6427"/>
<polygon fill="#191970" stroke="#191970" points="709.0226,-103.9239 702.4651,-112.2455 712.7808,-109.8296 709.0226,-103.9239"/>
</g>
<!-- Node58&#45;&gt;Node55 -->
<g id="edge29" class="edge">
<title>Node58&#45;&gt;Node55</title>
<path fill="none" stroke="#191970" d="M686.7823,-102.1575C686.6216,-93.155 686.4388,-82.9199 686.3088,-75.6427"/>
<polygon fill="#191970" stroke="#191970" points="683.2844,-102.3097 686.9625,-112.2455 690.2833,-102.1846 683.2844,-102.3097"/>
</g>
<!-- Node58&#45;&gt;Node56 -->
<g id="edge30" class="edge">
<title>Node58&#45;&gt;Node56</title>
<path fill="none" stroke="#191970" d="M660.5612,-107.3196C646.6393,-99.0195 629.7112,-87.9307 616.1367,-76 596.0454,-58.3418 576.8198,-33.3312 566.9694,-19.7297"/>
<polygon fill="#191970" stroke="#191970" points="658.8066,-110.348 669.2102,-112.3519 662.327,-104.2976 658.8066,-110.348"/>
</g>
<!-- Node59 -->
<g id="node15" class="node">
<title>Node59</title>
<g id="a_node15"><a xlink:href="icns__bcop_8_h.html" target="_top" xlink:title="icns_bcop.H">
<polygon fill="#ffffff" stroke="#000000" points="1278.6367,-56.5 1278.6367,-75.5 1349.6367,-75.5 1349.6367,-56.5 1278.6367,-56.5"/>
<text text-anchor="middle" x="1314.1367" y="-63.5" font-family="Helvetica,sans-Serif" font-size="10.00" fill="#000000">icns_bcop.H</text>
</a>
</g>
</g>
<!-- Node58&#45;&gt;Node59 -->
<g id="edge24" class="edge">
<title>Node58&#45;&gt;Node59</title>
<path fill="none" stroke="#191970" d="M726.9196,-112.5095C728.0014,-112.3282 729.0753,-112.1578 730.1367,-112 967.6156,-76.6928 1031.487,-110.1399 1269.1367,-76 1272.1469,-75.5676 1275.255,-75.0432 1278.3656,-74.4636"/>
<polygon fill="#191970" stroke="#191970" points="726.2587,-109.0723 717.0904,-114.3819 727.5687,-115.9487 726.2587,-109.0723"/>
</g>
<!-- Node60 -->
<g id="node16" class="node">
<title>Node60</title>
<g id="a_node16"><a xlink:href="_multi_phase_8cpp.html" target="_top" xlink:title="MultiPhase.cpp">
<polygon fill="#ffffff" stroke="#000000" points="480.1367,-56.5 480.1367,-75.5 564.1367,-75.5 564.1367,-56.5 480.1367,-56.5"/>
<text text-anchor="middle" x="522.1367" y="-63.5" font-family="Helvetica,sans-Serif" font-size="10.00" fill="#000000">MultiPhase.cpp</text>
</a>
</g>
</g>
<!-- Node58&#45;&gt;Node60 -->
<g id="edge31" class="edge">
<title>Node58&#45;&gt;Node60</title>
<path fill="none" stroke="#191970" d="M649.0011,-109.057C618.8042,-98.8084 577.3204,-84.729 550.131,-75.5011"/>
<polygon fill="#191970" stroke="#191970" points="648.1778,-112.4736 658.7721,-112.3733 650.4275,-105.845 648.1778,-112.4736"/>
</g>
<!-- Node59&#45;&gt;Node49 -->
<g id="edge25" class="edge">
<title>Node59&#45;&gt;Node49</title>
<path fill="none" stroke="#191970" d="M1359.7946,-55.9313C1449.8585,-38.018 1544.2989,-21.9273 1589.4294,-14.4042"/>
<polygon fill="#191970" stroke="#191970" points="1359.0889,-52.503 1349.9696,-57.8963 1360.4618,-59.367 1359.0889,-52.503"/>
</g>
<!-- Node61&#45;&gt;Node62 -->
<g id="edge33" class="edge">
<title>Node61&#45;&gt;Node62</title>
<path fill="none" stroke="#191970" d="M868.0737,-214.1575C867.5914,-205.155 867.0431,-194.9199 866.6532,-187.6427"/>
<polygon fill="#191970" stroke="#191970" points="864.5841,-214.4471 868.6141,-224.2455 871.574,-214.0726 864.5841,-214.4471"/>
</g>
<!-- Node63 -->
<g id="node19" class="node">
<title>Node63</title>
<g id="a_node19"><a xlink:href="density_8_h.html" target="_top" xlink:title="density.H">
<polygon fill="#ffffff" stroke="#000000" points="24.6367,-112.5 24.6367,-131.5 83.6367,-131.5 83.6367,-112.5 24.6367,-112.5"/>
<text text-anchor="middle" x="54.1367" y="-119.5" font-family="Helvetica,sans-Serif" font-size="10.00" fill="#000000">density.H</text>
</a>
</g>
</g>
<!-- Node62&#45;&gt;Node63 -->
<g id="edge34" class="edge">
<title>Node62&#45;&gt;Node63</title>
<path fill="none" stroke="#191970" d="M831.7085,-175.6256C697.3114,-166.3569 209.2401,-132.6968 83.7278,-124.0408"/>
<polygon fill="#191970" stroke="#191970" points="831.618,-179.1276 841.8351,-176.324 832.0996,-172.1442 831.618,-179.1276"/>
</g>
<!-- Node65 -->
<g id="node21" class="node">
<title>Node65</title>
<g id="a_node21"><a xlink:href="icns_8_h.html" target="_top" xlink:title="icns.H">
<polygon fill="#ffffff" stroke="#000000" points="1417.6367,-112.5 1417.6367,-131.5 1462.6367,-131.5 1462.6367,-112.5 1417.6367,-112.5"/>
<text text-anchor="middle" x="1440.1367" y="-119.5" font-family="Helvetica,sans-Serif" font-size="10.00" fill="#000000">icns.H</text>
</a>
</g>
</g>
<!-- Node62&#45;&gt;Node65 -->
<g id="edge38" class="edge">
<title>Node62&#45;&gt;Node65</title>
<path fill="none" stroke="#191970" d="M900.627,-174.6351C1007.1283,-164.2447 1328.9305,-132.8494 1417.4099,-124.2172"/>
<polygon fill="#191970" stroke="#191970" points="900.047,-171.175 890.4341,-175.6295 900.7267,-178.1419 900.047,-171.175"/>
</g>
<!-- Node68 -->
<g id="node24" class="node">
<title>Node68</title>
<g id="a_node24"><a xlink:href="levelset_8_h.html" target="_top" xlink:title="levelset.H">
<polygon fill="#ffffff" stroke="#000000" points="1127.6367,-112.5 1127.6367,-131.5 1188.6367,-131.5 1188.6367,-112.5 1127.6367,-112.5"/>
<text text-anchor="middle" x="1158.1367" y="-119.5" font-family="Helvetica,sans-Serif" font-size="10.00" fill="#000000">levelset.H</text>
</a>
</g>
</g>
<!-- Node62&#45;&gt;Node68 -->
<g id="edge46" class="edge">
<title>Node62&#45;&gt;Node68</title>
<path fill="none" stroke="#191970" d="M900.3294,-172.5766C949.0932,-164.6624 1041.3292,-149.0261 1119.1367,-132 1121.868,-131.4023 1124.6979,-130.7473 1127.5289,-130.0674"/>
<polygon fill="#191970" stroke="#191970" points="899.6351,-169.1433 890.3203,-174.1916 900.7501,-176.0539 899.6351,-169.1433"/>
</g>
<!-- Node70 -->
<g id="node26" class="node">
<title>Node70</title>
<g id="a_node26"><a xlink:href="_s_d_r_8_h.html" target="_top" xlink:title="SDR.H">
<polygon fill="#ffffff" stroke="#000000" points="840.6367,-112.5 840.6367,-131.5 889.6367,-131.5 889.6367,-112.5 840.6367,-112.5"/>
<text text-anchor="middle" x="865.1367" y="-119.5" font-family="Helvetica,sans-Serif" font-size="10.00" fill="#000000">SDR.H</text>
</a>
</g>
</g>
<!-- Node62&#45;&gt;Node70 -->
<g id="edge50" class="edge">
<title>Node62&#45;&gt;Node70</title>
<path fill="none" stroke="#191970" d="M865.7823,-158.1575C865.6216,-149.155 865.4388,-138.9199 865.3088,-131.6427"/>
<polygon fill="#191970" stroke="#191970" points="862.2844,-158.3097 865.9625,-168.2455 869.2833,-158.1846 862.2844,-158.3097"/>
</g>
<!-- Node71 -->
<g id="node27" class="node">
<title>Node71</title>
<g id="a_node27"><a xlink:href="temperature_8_h.html" target="_top" xlink:title="temperature.H">
<polygon fill="#ffffff" stroke="#000000" points="739.6367,-112.5 739.6367,-131.5 818.6367,-131.5 818.6367,-112.5 739.6367,-112.5"/>
<text text-anchor="middle" x="779.1367" y="-119.5" font-family="Helvetica,sans-Serif" font-size="10.00" fill="#000000">temperature.H</text>
</a>
</g>
</g>
<!-- Node62&#45;&gt;Node71 -->
<g id="edge52" class="edge">
<title>Node62&#45;&gt;Node71</title>
<path fill="none" stroke="#191970" d="M842.4742,-162.769C827.0576,-152.8456 807.4107,-140.1994 794.1172,-131.6427"/>
<polygon fill="#191970" stroke="#191970" points="840.6794,-165.7761 850.9824,-168.2455 844.4681,-159.89 840.6794,-165.7761"/>
</g>
<!-- Node72 -->
<g id="node28" class="node">
<title>Node72</title>
<g id="a_node28"><a xlink:href="_t_k_e_8_h.html" target="_top" xlink:title="TKE.H">
<polygon fill="#ffffff" stroke="#000000" points="592.6367,-112.5 592.6367,-131.5 639.6367,-131.5 639.6367,-112.5 592.6367,-112.5"/>
<text text-anchor="middle" x="616.1367" y="-119.5" font-family="Helvetica,sans-Serif" font-size="10.00" fill="#000000">TKE.H</text>
</a>
</g>
</g>
<!-- Node62&#45;&gt;Node72 -->
<g id="edge54" class="edge">
<title>Node62&#45;&gt;Node72</title>
<path fill="none" stroke="#191970" d="M832.139,-171.8627C789.0504,-163.8474 712.6189,-148.8379 648.1367,-132 645.4334,-131.2941 642.6189,-130.5014 639.8299,-129.6792"/>
<polygon fill="#191970" stroke="#191970" points="831.6226,-175.3264 842.0918,-173.6998 832.8933,-168.4427 831.6226,-175.3264"/>
</g>
<!-- Node74 -->
<g id="node30" class="node">
<title>Node74</title>
<g id="a_node30"><a xlink:href="vof_8_h.html" target="_top" xlink:title="vof.H">
<polygon fill="#ffffff" stroke="#000000" points="258.6367,-112.5 258.6367,-131.5 299.6367,-131.5 299.6367,-112.5 258.6367,-112.5"/>
<text text-anchor="middle" x="279.1367" y="-119.5" font-family="Helvetica,sans-Serif" font-size="10.00" fill="#000000">vof.H</text>
</a>
</g>
</g>
<!-- Node62&#45;&gt;Node74 -->
<g id="edge57" class="edge">
<title>Node62&#45;&gt;Node74</title>
<path fill="none" stroke="#191970" d="M831.9256,-174.7363C723.0097,-164.3456 386.412,-132.2341 299.6871,-123.9605"/>
<polygon fill="#191970" stroke="#191970" points="831.744,-178.2347 842.0312,-175.7003 832.4088,-171.2664 831.744,-178.2347"/>
</g>
<!-- Node63&#45;&gt;Node47 -->
<g id="edge35" class="edge">
<title>Node63&#45;&gt;Node47</title>
<path fill="none" stroke="#191970" d="M29.8001,-106.5504C10.9996,-92.7504 -9.5382,-72.2626 5.1367,-56 32.7388,-25.4115 319.1701,-13.9824 418.4657,-10.9214"/>
<polygon fill="#191970" stroke="#191970" points="27.9752,-109.5445 38.1832,-112.3812 31.9722,-103.7978 27.9752,-109.5445"/>
</g>
<!-- Node64 -->
<g id="node20" class="node">
<title>Node64</title>
<g id="a_node20"><a xlink:href="density__ops_8_h.html" target="_top" xlink:title="density_ops.H">
<polygon fill="#ffffff" stroke="#000000" points="14.1367,-56.5 14.1367,-75.5 94.1367,-75.5 94.1367,-56.5 14.1367,-56.5"/>
<text text-anchor="middle" x="54.1367" y="-63.5" font-family="Helvetica,sans-Serif" font-size="10.00" fill="#000000">density_ops.H</text>
</a>
</g>
</g>
<!-- Node63&#45;&gt;Node64 -->
<g id="edge36" class="edge">
<title>Node63&#45;&gt;Node64</title>
<path fill="none" stroke="#191970" d="M54.1367,-102.1575C54.1367,-93.155 54.1367,-82.9199 54.1367,-75.6427"/>
<polygon fill="#191970" stroke="#191970" points="50.6367,-102.2455 54.1367,-112.2455 57.6367,-102.2456 50.6367,-102.2455"/>
</g>
<!-- Node64&#45;&gt;Node47 -->
<g id="edge37" class="edge">
<title>Node64&#45;&gt;Node47</title>
<path fill="none" stroke="#191970" d="M104.41,-55.8809C225.7263,-35.8171 357.5769,-20.3988 418.3286,-13.6562"/>
<polygon fill="#191970" stroke="#191970" points="103.4927,-52.4855 94.2052,-57.584 104.645,-59.39 103.4927,-52.4855"/>
</g>
<!-- Node65&#45;&gt;Node48 -->
<g id="edge40" class="edge">
<title>Node65&#45;&gt;Node48</title>
<path fill="none" stroke="#191970" d="M1472.7044,-113.1246C1474.2012,-112.7398 1475.6842,-112.3632 1477.1367,-112 1535.7238,-97.3509 1604.4065,-81.9345 1644.1321,-73.1889"/>
<polygon fill="#191970" stroke="#191970" points="1471.5805,-109.801 1462.7994,-115.7292 1473.3608,-116.5709 1471.5805,-109.801"/>
</g>
<!-- Node65&#45;&gt;Node49 -->
<g id="edge39" class="edge">
<title>Node65&#45;&gt;Node49</title>
<path fill="none" stroke="#191970" d="M1472.5651,-112.9197C1517.8733,-100.1736 1594.8781,-78.2693 1597.1367,-76 1612.4454,-60.6189 1615.5902,-33.7493 1616.1292,-19.5005"/>
<polygon fill="#191970" stroke="#191970" points="1471.5557,-109.5677 1462.8751,-115.6421 1473.449,-116.3068 1471.5557,-109.5677"/>
</g>
<!-- Node65&#45;&gt;Node50 -->
<g id="edge41" class="edge">
<title>Node65&#45;&gt;Node50</title>
<path fill="none" stroke="#191970" d="M1431.3355,-103.0437C1427.0592,-93.8331 1422.1037,-83.1598 1418.6136,-75.6427"/>
<polygon fill="#191970" stroke="#191970" points="1428.2221,-104.6494 1435.6078,-112.2455 1434.5712,-101.7015 1428.2221,-104.6494"/>
</g>
<!-- Node65&#45;&gt;Node59 -->
<g id="edge44" class="edge">
<title>Node65&#45;&gt;Node59</title>
<path fill="none" stroke="#191970" d="M1409.193,-108.2473C1386.3101,-98.0771 1355.7353,-84.4883 1335.5142,-75.5011"/>
<polygon fill="#191970" stroke="#191970" points="1407.9168,-111.5102 1418.4765,-112.3733 1410.7599,-105.1135 1407.9168,-111.5102"/>
</g>
<!-- Node65&#45;&gt;Node66 -->
<g id="edge42" class="edge">
<title>Node65&#45;&gt;Node66</title>
<path fill="none" stroke="#191970" d="M1472.963,-116.8394C1525.1595,-108.577 1630.267,-91.708 1719.1367,-76 1722.1795,-75.4622 1725.3186,-74.8968 1728.4785,-74.32"/>
<polygon fill="#191970" stroke="#191970" points="1472.2822,-113.4035 1462.951,-118.4214 1473.3747,-120.3177 1472.2822,-113.4035"/>
</g>
<!-- Node67 -->
<g id="node23" class="node">
<title>Node67</title>
<g id="a_node23"><a xlink:href="_power_law_profile_8cpp.html" target="_top" xlink:title="PowerLawProfile.cpp">
<polygon fill="#ffffff" stroke="#000000" points="1478.6367,-56.5 1478.6367,-75.5 1587.6367,-75.5 1587.6367,-56.5 1478.6367,-56.5"/>
<text text-anchor="middle" x="1533.1367" y="-63.5" font-family="Helvetica,sans-Serif" font-size="10.00" fill="#000000">PowerLawProfile.cpp</text>
</a>
</g>
</g>
<!-- Node65&#45;&gt;Node67 -->
<g id="edge45" class="edge">
<title>Node65&#45;&gt;Node67</title>
<path fill="none" stroke="#191970" d="M1464.9702,-107.0465C1481.5177,-97.0824 1502.7799,-84.2794 1517.1229,-75.6427"/>
<polygon fill="#191970" stroke="#191970" points="1463.0973,-104.0886 1456.336,-112.2455 1466.7083,-110.0854 1463.0973,-104.0886"/>
</g>
<!-- Node66&#45;&gt;Node49 -->
<g id="edge43" class="edge">
<title>Node66&#45;&gt;Node49</title>
<path fill="none" stroke="#191970" d="M1735.7082,-52.9231C1707.1906,-42.686 1668.1986,-28.6889 1642.6041,-19.5011"/>
<polygon fill="#191970" stroke="#191970" points="1734.7248,-56.2887 1745.3193,-56.3733 1737.0899,-49.7004 1734.7248,-56.2887"/>
</g>
<!-- Node68&#45;&gt;Node52 -->
<g id="edge47" class="edge">
<title>Node68&#45;&gt;Node52</title>
<path fill="none" stroke="#191970" d="M1150.3024,-102.9253C1140.3644,-78.7284 1123.611,-37.9376 1116.0487,-19.5249"/>
<polygon fill="#191970" stroke="#191970" points="1147.1779,-104.5305 1154.2147,-112.4509 1153.653,-101.871 1147.1779,-104.5305"/>
</g>
<!-- Node69 -->
<g id="node25" class="node">
<title>Node69</title>
<g id="a_node25"><a xlink:href="levelset__ops_8_h.html" target="_top" xlink:title="levelset_ops.H">
<polygon fill="#ffffff" stroke="#000000" points="1178.1367,-56.5 1178.1367,-75.5 1260.1367,-75.5 1260.1367,-56.5 1178.1367,-56.5"/>
<text text-anchor="middle" x="1219.1367" y="-63.5" font-family="Helvetica,sans-Serif" font-size="10.00" fill="#000000">levelset_ops.H</text>
</a>
</g>
</g>
<!-- Node68&#45;&gt;Node69 -->
<g id="edge48" class="edge">
<title>Node68&#45;&gt;Node69</title>
<path fill="none" stroke="#191970" d="M1176.2616,-105.3607C1186.8146,-95.6727 1199.7479,-83.7995 1208.633,-75.6427"/>
<polygon fill="#191970" stroke="#191970" points="1173.7616,-102.9045 1168.762,-112.2455 1178.4956,-108.0611 1173.7616,-102.9045"/>
</g>
<!-- Node69&#45;&gt;Node52 -->
<g id="edge49" class="edge">
<title>Node69&#45;&gt;Node52</title>
<path fill="none" stroke="#191970" d="M1191.6168,-51.5971C1172.435,-41.558 1147.3689,-28.4393 1130.561,-19.6427"/>
<polygon fill="#191970" stroke="#191970" points="1190.0158,-54.7095 1200.4987,-56.2455 1193.2617,-48.5075 1190.0158,-54.7095"/>
</g>
<!-- Node70&#45;&gt;Node53 -->
<g id="edge51" class="edge">
<title>Node70&#45;&gt;Node53</title>
<path fill="none" stroke="#191970" d="M865.1367,-102.1575C865.1367,-93.155 865.1367,-82.9199 865.1367,-75.6427"/>
<polygon fill="#191970" stroke="#191970" points="861.6367,-102.2455 865.1367,-112.2455 868.6367,-102.2456 861.6367,-102.2455"/>
</g>
<!-- Node71&#45;&gt;Node54 -->
<g id="edge53" class="edge">
<title>Node71&#45;&gt;Node54</title>
<path fill="none" stroke="#191970" d="M777.7193,-102.1575C777.0763,-93.155 776.3452,-82.9199 775.8254,-75.6427"/>
<polygon fill="#191970" stroke="#191970" points="774.2362,-102.5204 778.4399,-112.2455 781.2184,-102.0216 774.2362,-102.5204"/>
</g>
<!-- Node72&#45;&gt;Node55 -->
<g id="edge55" class="edge">
<title>Node72&#45;&gt;Node55</title>
<path fill="none" stroke="#191970" d="M636.2266,-105.928C648.462,-96.1397 663.6873,-83.9595 674.0833,-75.6427"/>
<polygon fill="#191970" stroke="#191970" points="633.952,-103.2655 628.3297,-112.2455 638.3249,-108.7316 633.952,-103.2655"/>
</g>
<!-- Node73 -->
<g id="node29" class="node">
<title>Node73</title>
<g id="a_node29"><a xlink:href="_one_eq_ksgs_8cpp.html" target="_top" xlink:title="OneEqKsgs.cpp">
<polygon fill="#ffffff" stroke="#000000" points="336.1367,-56.5 336.1367,-75.5 424.1367,-75.5 424.1367,-56.5 336.1367,-56.5"/>
<text text-anchor="middle" x="380.1367" y="-63.5" font-family="Helvetica,sans-Serif" font-size="10.00" fill="#000000">OneEqKsgs.cpp</text>
</a>
</g>
</g>
<!-- Node72&#45;&gt;Node73 -->
<g id="edge56" class="edge">
<title>Node72&#45;&gt;Node73</title>
<path fill="none" stroke="#191970" d="M582.2758,-113.9652C539.4434,-103.8016 465.7869,-86.3238 420.2011,-75.5068"/>
<polygon fill="#191970" stroke="#191970" points="581.671,-117.4188 592.209,-116.3222 583.2872,-110.608 581.671,-117.4188"/>
</g>
<!-- Node74&#45;&gt;Node56 -->
<g id="edge58" class="edge">
<title>Node74&#45;&gt;Node56</title>
<path fill="none" stroke="#191970" d="M287.9114,-103.0948C295.9512,-87.94 309.3106,-67.3872 327.1367,-56 344.6408,-44.8184 478.9427,-22.7402 535.3326,-13.8465"/>
<polygon fill="#191970" stroke="#191970" points="284.7391,-101.6134 283.4029,-112.1236 291.0017,-104.7407 284.7391,-101.6134"/>
</g>
<!-- Node75 -->
<g id="node31" class="node">
<title>Node75</title>
<g id="a_node31"><a xlink:href="vof__advection_8_h.html" target="_top" xlink:title="vof_advection.H">
<polygon fill="#ffffff" stroke="#000000" points="112.1367,-56.5 112.1367,-75.5 200.1367,-75.5 200.1367,-56.5 112.1367,-56.5"/>
<text text-anchor="middle" x="156.1367" y="-63.5" font-family="Helvetica,sans-Serif" font-size="10.00" fill="#000000">vof_advection.H</text>
</a>
</g>
</g>
<!-- Node74&#45;&gt;Node75 -->
<g id="edge59" class="edge">
<title>Node74&#45;&gt;Node75</title>
<path fill="none" stroke="#191970" d="M249.2082,-108.3741C226.9147,-98.2242 197.0268,-84.6166 177.2035,-75.5914"/>
<polygon fill="#191970" stroke="#191970" points="247.9978,-111.6686 258.5492,-112.6269 250.8984,-105.2978 247.9978,-111.6686"/>
</g>
<!-- Node76 -->
<g id="node32" class="node">
<title>Node76</title>
<g id="a_node32"><a xlink:href="vof__ops_8_h.html" target="_top" xlink:title="vof_ops.H">
<polygon fill="#ffffff" stroke="#000000" points="218.1367,-56.5 218.1367,-75.5 280.1367,-75.5 280.1367,-56.5 218.1367,-56.5"/>
<text text-anchor="middle" x="249.1367" y="-63.5" font-family="Helvetica,sans-Serif" font-size="10.00" fill="#000000">vof_ops.H</text>
</a>
</g>
</g>
<!-- Node74&#45;&gt;Node76 -->
<g id="edge61" class="edge">
<title>Node74&#45;&gt;Node76</title>
<path fill="none" stroke="#191970" d="M269.1387,-103.3372C264.1691,-94.0605 258.3722,-83.2398 254.3024,-75.6427"/>
<polygon fill="#191970" stroke="#191970" points="266.1036,-105.0835 273.911,-112.2455 272.274,-101.7779 266.1036,-105.0835"/>
</g>
<!-- Node75&#45;&gt;Node56 -->
<g id="edge60" class="edge">
<title>Node75&#45;&gt;Node56</title>
<path fill="none" stroke="#191970" d="M210.4295,-55.8712C336.965,-36.2144 370.8883,-37.1184 494.1367,-20 507.7966,-18.1027 523.0183,-15.8085 535.3982,-13.8964"/>
<polygon fill="#191970" stroke="#191970" points="209.6862,-52.4448 200.3482,-57.45 210.7693,-59.3605 209.6862,-52.4448"/>
</g>
<!-- Node76&#45;&gt;Node56 -->
<g id="edge62" class="edge">
<title>Node76&#45;&gt;Node56</title>
<path fill="none" stroke="#191970" d="M290.3792,-56.7541C291.6453,-56.4962 292.9,-56.2442 294.1367,-56 382.6447,-38.523 488.4502,-21.3198 535.4941,-13.8608"/>
<polygon fill="#191970" stroke="#191970" points="289.6344,-53.3341 280.5679,-58.8159 291.074,-60.1844 289.6344,-53.3341"/>
</g>
<!-- Node77&#45;&gt;Node48 -->
<g id="edge67" class="edge">
<title>Node77&#45;&gt;Node48</title>
<path fill="none" stroke="#191970" d="M1493.049,-213.9402C1495.2515,-199.8891 1499.9829,-181.318 1510.1367,-168 1546.4919,-120.3152 1612.0994,-89.898 1649.3417,-75.6048"/>
<polygon fill="#191970" stroke="#191970" points="1489.5525,-213.6929 1491.7696,-224.0531 1496.4971,-214.5716 1489.5525,-213.6929"/>
</g>
<!-- Node77&#45;&gt;Node62 -->
<g id="edge65" class="edge">
<title>Node77&#45;&gt;Node62</title>
<path fill="none" stroke="#191970" d="M1438.6514,-229.2973C1309.8484,-217.7566 981.9711,-188.3788 890.2843,-180.1636"/>
<polygon fill="#191970" stroke="#191970" points="1438.3967,-232.7884 1448.6692,-230.1949 1439.0215,-225.8164 1438.3967,-232.7884"/>
</g>
<!-- Node77&#45;&gt;Node66 -->
<g id="edge68" class="edge">
<title>Node77&#45;&gt;Node66</title>
<path fill="none" stroke="#191970" d="M1537.5702,-221.5628C1562.8663,-213.7869 1594.2063,-202.4852 1620.1367,-188 1679.8093,-154.6656 1739.9493,-97.9774 1762.6657,-75.5453"/>
<polygon fill="#191970" stroke="#191970" points="1536.4205,-218.2534 1527.8429,-224.4723 1538.4265,-224.9599 1536.4205,-218.2534"/>
</g>
<!-- Node78 -->
<g id="node34" class="node">
<title>Node78</title>
<g id="a_node34"><a xlink:href="_diffusion_ops_8cpp.html" target="_top" xlink:title="DiffusionOps.cpp">
<polygon fill="#ffffff" stroke="#000000" points="1519.1367,-168.5 1519.1367,-187.5 1611.1367,-187.5 1611.1367,-168.5 1519.1367,-168.5"/>
<text text-anchor="middle" x="1565.1367" y="-175.5" font-family="Helvetica,sans-Serif" font-size="10.00" fill="#000000">DiffusionOps.cpp</text>
</a>
</g>
</g>
<!-- Node77&#45;&gt;Node78 -->
<g id="edge66" class="edge">
<title>Node77&#45;&gt;Node78</title>
<path fill="none" stroke="#191970" d="M1512.0024,-218.2097C1524.9992,-208.3743 1541.2988,-196.0394 1552.3945,-187.6427"/>
<polygon fill="#191970" stroke="#191970" points="1509.8885,-215.4201 1504.0265,-224.2455 1514.1126,-221.002 1509.8885,-215.4201"/>
</g>
</g>
</svg>
        <g id="navigator" transform="translate(0 0)" fill="#404254">
                <rect fill="#f2f5e9" fill-opacity="0.5" stroke="#606060" stroke-width=".5" x="0" y="0" width="60" height="60"/>
                <use id="zoomplus" xlink:href="#zoomPlus" x="17" y="9" onmousedown="handleZoom(evt,'in')"/>
                <use id="zoomminus" xlink:href="#zoomMin" x="42" y="9" onmousedown="handleZoom(evt,'out')"/>
                <use id="reset" xlink:href="#resetDef" x="30" y="36" onmousedown="handleReset()"/>
                <g id="arrowUp" xlink:href="#dirArrow" transform="translate(30 24)" onmousedown="handlePan(0,-1)">
                  <use xlink:href="#rim" fill="#404040">
                        <set attributeName="fill" to="#808080" begin="arrowUp.mouseover" end="arrowUp.mouseout"/>
                  </use>
                  <path fill="none" stroke="white" stroke-width="1.5" d="M0,-3.0v7 M-2.5,-0.5L0,-3.0L2.5,-0.5"/>
                </g>
                <g id="arrowRight" xlink:href="#dirArrow" transform="rotate(90) translate(36 -43)" onmousedown="handlePan(1,0)">
                  <use xlink:href="#rim" fill="#404040">
                        <set attributeName="fill" to="#808080" begin="arrowRight.mouseover" end="arrowRight.mouseout"/>
                  </use>
                  <path fill="none" stroke="white" stroke-width="1.5" d="M0,-3.0v7 M-2.5,-0.5L0,-3.0L2.5,-0.5"/>
                </g>
                <g id="arrowDown" xlink:href="#dirArrow" transform="rotate(180) translate(-30 -48)" onmousedown="handlePan(0,1)">
                  <use xlink:href="#rim" fill="#404040">
                        <set attributeName="fill" to="#808080" begin="arrowDown.mouseover" end="arrowDown.mouseout"/>
                  </use>
                  <path fill="none" stroke="white" stroke-width="1.5" d="M0,-3.0v7 M-2.5,-0.5L0,-3.0L2.5,-0.5"/>
                </g>
                <g id="arrowLeft" xlink:href="#dirArrow" transform="rotate(270) translate(-36 17)" onmousedown="handlePan(-1,0)">
                  <use xlink:href="#rim" fill="#404040">
                        <set attributeName="fill" to="#808080" begin="arrowLeft.mouseover" end="arrowLeft.mouseout"/>
                  </use>
                  <path fill="none" stroke="white" stroke-width="1.5" d="M0,-3.0v7 M-2.5,-0.5L0,-3.0L2.5,-0.5"/>
                </g>
        </g>
        <svg viewBox="0 0 15 15" width="100%" height="30px" preserveAspectRatio="xMaxYMin meet">
         <g id="arrow_out" transform="scale(0.3 0.3)">
          <a xlink:href="_p_d_e_ops_8_h__dep__incl_org.svg" target="_base">
           <rect id="button" ry="5" rx="5" y="6" x="6" height="38" width="38"
                fill="#f2f5e9" fill-opacity="0.5" stroke="#606060" stroke-width="1.0"/>
           <path id="arrow"
             d="M 11.500037,31.436501 C 11.940474,20.09759 22.043105,11.32322 32.158766,21.979434 L 37.068811,17.246167 C 37.068811,17.246167 37.088388,32 37.088388,32 L 22.160133,31.978069 C 22.160133,31.978069 26.997745,27.140456 26.997745,27.140456 C 18.528582,18.264221 13.291696,25.230495 11.500037,31.436501 z"
             style="fill:#404040;"/>
          </a>
         </g>
        </svg>
</svg>
