<?xml version="1.0" encoding="UTF-8" standalone="no"?>
<!DOCTYPE svg PUBLIC "-//W3C//DTD SVG 1.1//EN"
 "http://www.w3.org/Graphics/SVG/1.1/DTD/svg11.dtd">
<!-- Generated by graphviz version 2.40.1 (20161225.0304)
 -->
<!-- Title: PDEHelpers.H Pages: 1 -->
<svg width="2263pt" height="263pt"
 viewBox="0.00 0.00 2262.55 263.00" xmlns="http://www.w3.org/2000/svg" xmlns:xlink="http://www.w3.org/1999/xlink">
<g id="graph0" class="graph" transform="scale(1 1) rotate(0) translate(4 259)">
<title>PDEHelpers.H</title>
<polygon fill="#ffffff" stroke="transparent" points="-4,4 -4,-259 2258.5466,-259 2258.5466,4 -4,4"/>
<!-- Node0 -->
<g id="node1" class="node">
<title>Node0</title>
<polygon fill="#bfbfbf" stroke="#000000" points="1531.5466,-235.5 1531.5466,-254.5 1613.5466,-254.5 1613.5466,-235.5 1531.5466,-235.5"/>
<text text-anchor="middle" x="1572.5466" y="-242.5" font-family="Helvetica,sans-Serif" font-size="10.00" fill="#000000">PDEHelpers.H</text>
</g>
<!-- Node1 -->
<g id="node2" class="node">
<title>Node1</title>
<polygon fill="#ffffff" stroke="#bfbfbf" points="133.0466,-.5 133.0466,-19.5 174.0466,-19.5 174.0466,-.5 133.0466,-.5"/>
<text text-anchor="middle" x="153.5466" y="-7.5" font-family="Helvetica,sans-Serif" font-size="10.00" fill="#000000">string</text>
</g>
<!-- Node0&#45;&gt;Node1 -->
<g id="edge1" class="edge">
<title>Node0&#45;&gt;Node1</title>
<path fill="none" stroke="#191970" d="M1531.1003,-244.6722C1386.8877,-243.2272 893.7508,-235.7331 488.5466,-199 273.5863,-179.5131 149.2511,-294.8112 7.5466,-132 -5.6516,-116.8361 -.3846,-78.4694 19.5466,-56 33.4365,-40.3412 88.087,-25.171 123.16,-16.7611"/>
<polygon fill="#191970" stroke="#191970" points="123.9787,-20.1642 132.916,-14.4743 122.3812,-13.3489 123.9787,-20.1642"/>
</g>
<!-- Node2 -->
<g id="node3" class="node">
<title>Node2</title>
<g id="a_node3"><a xlink:href="_p_d_e_fields_8_h.html" target="_top" xlink:title="amr&#45;wind/equation_systems\l/PDEFields.H">
<polygon fill="#ffffff" stroke="#000000" points="2025.0466,-168.5 2025.0466,-198.5 2164.0466,-198.5 2164.0466,-168.5 2025.0466,-168.5"/>
<text text-anchor="start" x="2033.0466" y="-186.5" font-family="Helvetica,sans-Serif" font-size="10.00" fill="#000000">amr&#45;wind/equation_systems</text>
<text text-anchor="middle" x="2094.5466" y="-175.5" font-family="Helvetica,sans-Serif" font-size="10.00" fill="#000000">/PDEFields.H</text>
</a>
</g>
</g>
<!-- Node0&#45;&gt;Node2 -->
<g id="edge2" class="edge">
<title>Node0&#45;&gt;Node2</title>
<path fill="none" stroke="#191970" d="M1613.9433,-240.1228C1700.5515,-229.919 1902.1467,-206.1678 2014.7874,-192.8969"/>
<polygon fill="#191970" stroke="#191970" points="2015.2158,-196.3707 2024.7375,-191.7246 2014.3967,-189.4188 2015.2158,-196.3707"/>
</g>
<!-- Node4 -->
<g id="node5" class="node">
<title>Node4</title>
<g id="a_node5"><a xlink:href="_sim_time_8_h.html" target="_top" xlink:title="amr&#45;wind/core/SimTime.H">
<polygon fill="#ffffff" stroke="#000000" points="2000.0466,-112.5 2000.0466,-131.5 2131.0466,-131.5 2131.0466,-112.5 2000.0466,-112.5"/>
<text text-anchor="middle" x="2065.5466" y="-119.5" font-family="Helvetica,sans-Serif" font-size="10.00" fill="#000000">amr&#45;wind/core/SimTime.H</text>
</a>
</g>
</g>
<!-- Node0&#45;&gt;Node4 -->
<g id="edge4" class="edge">
<title>Node0&#45;&gt;Node4</title>
<path fill="none" stroke="#191970" d="M1610.8212,-235.4507C1699.6426,-213.2904 1919.6223,-158.4071 2017.3872,-134.0154"/>
<polygon fill="#191970" stroke="#191970" points="2018.441,-137.3599 2027.2963,-131.5432 2016.7464,-130.5681 2018.441,-137.3599"/>
</g>
<!-- Node8 -->
<g id="node9" class="node">
<title>Node8</title>
<g id="a_node9"><a xlink:href="_field_repo_8_h.html" target="_top" xlink:title="amr&#45;wind/core/FieldRepo.H">
<polygon fill="#ffffff" stroke="#000000" points="497.5466,-174 497.5466,-193 633.5466,-193 633.5466,-174 497.5466,-174"/>
<text text-anchor="middle" x="565.5466" y="-181" font-family="Helvetica,sans-Serif" font-size="10.00" fill="#000000">amr&#45;wind/core/FieldRepo.H</text>
</a>
</g>
</g>
<!-- Node0&#45;&gt;Node8 -->
<g id="edge8" class="edge">
<title>Node0&#45;&gt;Node8</title>
<path fill="none" stroke="#191970" d="M1531.5092,-242.4937C1379.3469,-233.2008 845.7805,-200.6146 643.8119,-188.2799"/>
<polygon fill="#191970" stroke="#191970" points="643.7763,-184.7713 633.5815,-187.6551 643.3495,-191.7582 643.7763,-184.7713"/>
</g>
<!-- Node27 -->
<g id="node28" class="node">
<title>Node27</title>
<g id="a_node28"><a xlink:href="_field_fill_patch_ops_8_h.html" target="_top" xlink:title="amr&#45;wind/core/FieldFillPatch\lOps.H">
<polygon fill="#ffffff" stroke="#000000" points="1357.5466,-168.5 1357.5466,-198.5 1497.5466,-198.5 1497.5466,-168.5 1357.5466,-168.5"/>
<text text-anchor="start" x="1365.5466" y="-186.5" font-family="Helvetica,sans-Serif" font-size="10.00" fill="#000000">amr&#45;wind/core/FieldFillPatch</text>
<text text-anchor="middle" x="1427.5466" y="-175.5" font-family="Helvetica,sans-Serif" font-size="10.00" fill="#000000">Ops.H</text>
</a>
</g>
</g>
<!-- Node0&#45;&gt;Node27 -->
<g id="edge45" class="edge">
<title>Node0&#45;&gt;Node27</title>
<path fill="none" stroke="#191970" d="M1549.8903,-235.3906C1529.267,-226.6435 1498.2142,-213.4728 1472.5547,-202.5897"/>
<polygon fill="#191970" stroke="#191970" points="1473.5904,-199.2272 1463.0175,-198.5446 1470.8571,-205.6715 1473.5904,-199.2272"/>
</g>
<!-- Node29 -->
<g id="node30" class="node">
<title>Node29</title>
<g id="a_node30"><a xlink:href="_field_b_c_ops_8_h.html" target="_top" xlink:title="amr&#45;wind/core/FieldBCOps.H">
<polygon fill="#ffffff" stroke="#000000" points="1601.0466,-174 1601.0466,-193 1746.0466,-193 1746.0466,-174 1601.0466,-174"/>
<text text-anchor="middle" x="1673.5466" y="-181" font-family="Helvetica,sans-Serif" font-size="10.00" fill="#000000">amr&#45;wind/core/FieldBCOps.H</text>
</a>
</g>
</g>
<!-- Node0&#45;&gt;Node29 -->
<g id="edge55" class="edge">
<title>Node0&#45;&gt;Node29</title>
<path fill="none" stroke="#191970" d="M1588.3278,-235.3906C1604.634,-225.4616 1630.3005,-209.833 1649.2079,-198.3201"/>
<polygon fill="#191970" stroke="#191970" points="1651.1552,-201.2322 1657.8761,-193.0419 1647.5146,-195.2533 1651.1552,-201.2322"/>
</g>
<!-- Node3 -->
<g id="node4" class="node">
<title>Node3</title>
<polygon fill="#ffffff" stroke="#bfbfbf" points="2149.0466,-112.5 2149.0466,-131.5 2194.0466,-131.5 2194.0466,-112.5 2149.0466,-112.5"/>
<text text-anchor="middle" x="2171.5466" y="-119.5" font-family="Helvetica,sans-Serif" font-size="10.00" fill="#000000">iosfwd</text>
</g>
<!-- Node2&#45;&gt;Node3 -->
<g id="edge3" class="edge">
<title>Node2&#45;&gt;Node3</title>
<path fill="none" stroke="#191970" d="M2113.5803,-168.2977C2125.048,-159.1384 2139.6427,-147.4816 2151.3185,-138.1562"/>
<polygon fill="#191970" stroke="#191970" points="2153.5885,-140.8225 2159.2179,-131.8469 2149.2199,-135.3529 2153.5885,-140.8225"/>
</g>
<!-- Node5 -->
<g id="node6" class="node">
<title>Node5</title>
<polygon fill="#ffffff" stroke="#bfbfbf" points="1884.0466,-56.5 1884.0466,-75.5 1977.0466,-75.5 1977.0466,-56.5 1884.0466,-56.5"/>
<text text-anchor="middle" x="1930.5466" y="-63.5" font-family="Helvetica,sans-Serif" font-size="10.00" fill="#000000">AMReX_REAL.H</text>
</g>
<!-- Node4&#45;&gt;Node5 -->
<g id="edge5" class="edge">
<title>Node4&#45;&gt;Node5</title>
<path fill="none" stroke="#191970" d="M2042.3392,-112.3733C2020.3767,-103.2629 1987.2134,-89.5062 1962.7064,-79.3404"/>
<polygon fill="#191970" stroke="#191970" points="1964.029,-76.0999 1953.451,-75.5011 1961.3468,-82.5657 1964.029,-76.0999"/>
</g>
<!-- Node6 -->
<g id="node7" class="node">
<title>Node6</title>
<polygon fill="#ffffff" stroke="#bfbfbf" points="2000.5466,-56.5 2000.5466,-75.5 2126.5466,-75.5 2126.5466,-56.5 2000.5466,-56.5"/>
<text text-anchor="middle" x="2063.5466" y="-63.5" font-family="Helvetica,sans-Serif" font-size="10.00" fill="#000000">AMReX_GpuQualifiers.H</text>
</g>
<!-- Node4&#45;&gt;Node6 -->
<g id="edge6" class="edge">
<title>Node4&#45;&gt;Node6</title>
<path fill="none" stroke="#191970" d="M2065.1982,-112.2455C2064.9372,-104.9382 2064.5714,-94.6944 2064.2503,-85.7046"/>
<polygon fill="#191970" stroke="#191970" points="2067.7457,-85.5113 2063.8909,-75.6427 2060.7502,-85.7613 2067.7457,-85.5113"/>
</g>
<!-- Node7 -->
<g id="node8" class="node">
<title>Node7</title>
<polygon fill="#ffffff" stroke="#bfbfbf" points="2144.5466,-56.5 2144.5466,-75.5 2254.5466,-75.5 2254.5466,-56.5 2144.5466,-56.5"/>
<text text-anchor="middle" x="2199.5466" y="-63.5" font-family="Helvetica,sans-Serif" font-size="10.00" fill="#000000">AMReX_Extension.H</text>
</g>
<!-- Node4&#45;&gt;Node7 -->
<g id="edge7" class="edge">
<title>Node4&#45;&gt;Node7</title>
<path fill="none" stroke="#191970" d="M2088.582,-112.3733C2110.2854,-103.3032 2143.0084,-89.6279 2167.3015,-79.4755"/>
<polygon fill="#191970" stroke="#191970" points="2168.9346,-82.5865 2176.8117,-75.5011 2166.2354,-76.1278 2168.9346,-82.5865"/>
</g>
<!-- Node8&#45;&gt;Node1 -->
<g id="edge9" class="edge">
<title>Node8&#45;&gt;Node1</title>
<path fill="none" stroke="#191970" d="M497.4873,-182.1201C357.8356,-178.5825 49.2899,-166.8664 17.5466,-132 .5062,-113.2831 18.7101,-76.2724 38.5466,-56 61.2812,-32.7657 97.267,-20.9313 122.9262,-15.1351"/>
<polygon fill="#191970" stroke="#191970" points="123.8019,-18.528 132.8822,-13.0691 122.3796,-11.674 123.8019,-18.528"/>
</g>
<!-- Node9 -->
<g id="node10" class="node">
<title>Node9</title>
<polygon fill="#ffffff" stroke="#bfbfbf" points="804.0466,-56.5 804.0466,-75.5 887.0466,-75.5 887.0466,-56.5 804.0466,-56.5"/>
<text text-anchor="middle" x="845.5466" y="-63.5" font-family="Helvetica,sans-Serif" font-size="10.00" fill="#000000">unordered_map</text>
</g>
<!-- Node8&#45;&gt;Node9 -->
<g id="edge10" class="edge">
<title>Node8&#45;&gt;Node9</title>
<path fill="none" stroke="#191970" d="M633.9197,-174.892C675.5143,-167.6398 728.6975,-154.671 771.5466,-132 794.9128,-119.6371 816.8734,-98.3577 830.707,-83.3074"/>
<polygon fill="#191970" stroke="#191970" points="833.4647,-85.4739 837.5135,-75.6832 828.2428,-80.8121 833.4647,-85.4739"/>
</g>
<!-- Node10 -->
<g id="node11" class="node">
<title>Node10</title>
<g id="a_node11"><a xlink:href="_field_desc_types_8_h.html" target="_top" xlink:title="amr&#45;wind/core/FieldDescTypes.H">
<polygon fill="#ffffff" stroke="#000000" points="660.0466,-.5 660.0466,-19.5 823.0466,-19.5 823.0466,-.5 660.0466,-.5"/>
<text text-anchor="middle" x="741.5466" y="-7.5" font-family="Helvetica,sans-Serif" font-size="10.00" fill="#000000">amr&#45;wind/core/FieldDescTypes.H</text>
</a>
</g>
</g>
<!-- Node8&#45;&gt;Node10 -->
<g id="edge11" class="edge">
<title>Node8&#45;&gt;Node10</title>
<path fill="none" stroke="#191970" d="M563.8143,-173.7721C560.24,-150.3533 554.6975,-90.2494 584.5466,-56 597.0517,-41.6513 639.4942,-29.7188 677.1005,-21.6052"/>
<polygon fill="#191970" stroke="#191970" points="677.9717,-24.9987 687.0415,-19.5226 676.5363,-18.1475 677.9717,-24.9987"/>
</g>
<!-- Node11 -->
<g id="node12" class="node">
<title>Node11</title>
<g id="a_node12"><a xlink:href="_field_utils_8_h.html" target="_top" xlink:title="amr&#45;wind/core/FieldUtils.H">
<polygon fill="#ffffff" stroke="#000000" points="630.0466,-112.5 630.0466,-131.5 763.0466,-131.5 763.0466,-112.5 630.0466,-112.5"/>
<text text-anchor="middle" x="696.5466" y="-119.5" font-family="Helvetica,sans-Serif" font-size="10.00" fill="#000000">amr&#45;wind/core/FieldUtils.H</text>
</a>
</g>
</g>
<!-- Node8&#45;&gt;Node11 -->
<g id="edge12" class="edge">
<title>Node8&#45;&gt;Node11</title>
<path fill="none" stroke="#191970" d="M586.0153,-173.8906C607.7417,-163.6908 642.2801,-147.4763 666.9651,-135.8875"/>
<polygon fill="#191970" stroke="#191970" points="668.6568,-138.9598 676.2215,-131.5419 665.682,-132.6234 668.6568,-138.9598"/>
</g>
<!-- Node12 -->
<g id="node13" class="node">
<title>Node12</title>
<polygon fill="#ffffff" stroke="#bfbfbf" points="470.5466,-.5 470.5466,-19.5 574.5466,-19.5 574.5466,-.5 470.5466,-.5"/>
<text text-anchor="middle" x="522.5466" y="-7.5" font-family="Helvetica,sans-Serif" font-size="10.00" fill="#000000">AMReX_MultiFab.H</text>
</g>
<!-- Node8&#45;&gt;Node12 -->
<g id="edge43" class="edge">
<title>Node8&#45;&gt;Node12</title>
<path fill="none" stroke="#191970" d="M506.9691,-173.9153C469.7483,-166.1931 421.4314,-153.0704 382.5466,-132 349.3156,-113.9932 334.1645,-110.4183 318.5466,-76 314.8735,-67.9055 312.9953,-62.9424 318.5466,-56 336.0664,-34.0898 406.7754,-21.8694 460.0714,-15.6244"/>
<polygon fill="#191970" stroke="#191970" points="460.5947,-19.0877 470.1401,-14.4904 459.8112,-12.1317 460.5947,-19.0877"/>
</g>
<!-- Node14 -->
<g id="node15" class="node">
<title>Node14</title>
<g id="a_node15"><a xlink:href="_field_8_h.html" target="_top" xlink:title="amr&#45;wind/core/Field.H">
<polygon fill="#ffffff" stroke="#000000" points="1027.0466,-112.5 1027.0466,-131.5 1140.0466,-131.5 1140.0466,-112.5 1027.0466,-112.5"/>
<text text-anchor="middle" x="1083.5466" y="-119.5" font-family="Helvetica,sans-Serif" font-size="10.00" fill="#000000">amr&#45;wind/core/Field.H</text>
</a>
</g>
</g>
<!-- Node8&#45;&gt;Node14 -->
<g id="edge16" class="edge">
<title>Node8&#45;&gt;Node14</title>
<path fill="none" stroke="#191970" d="M633.7987,-175.3967C733.4321,-163.5676 917.572,-141.7055 1016.5118,-129.9588"/>
<polygon fill="#191970" stroke="#191970" points="1017.1708,-133.4052 1026.6884,-128.7505 1016.3455,-126.454 1017.1708,-133.4052"/>
</g>
<!-- Node22 -->
<g id="node23" class="node">
<title>Node22</title>
<g id="a_node23"><a xlink:href="_int_field_8_h.html" target="_top" xlink:title="amr&#45;wind/core/IntField.H">
<polygon fill="#ffffff" stroke="#000000" points="26.5466,-112.5 26.5466,-131.5 150.5466,-131.5 150.5466,-112.5 26.5466,-112.5"/>
<text text-anchor="middle" x="88.5466" y="-119.5" font-family="Helvetica,sans-Serif" font-size="10.00" fill="#000000">amr&#45;wind/core/IntField.H</text>
</a>
</g>
</g>
<!-- Node8&#45;&gt;Node22 -->
<g id="edge31" class="edge">
<title>Node8&#45;&gt;Node22</title>
<path fill="none" stroke="#191970" d="M497.4576,-174.7212C408.1387,-163.2053 252.0719,-143.0835 160.7543,-131.3098"/>
<polygon fill="#191970" stroke="#191970" points="161.13,-127.8293 150.7645,-130.0218 160.2348,-134.7719 161.13,-127.8293"/>
</g>
<!-- Node23 -->
<g id="node24" class="node">
<title>Node23</title>
<polygon fill="#ffffff" stroke="#bfbfbf" points="88.0466,-56.5 88.0466,-75.5 195.0466,-75.5 195.0466,-56.5 88.0466,-56.5"/>
<text text-anchor="middle" x="141.5466" y="-63.5" font-family="Helvetica,sans-Serif" font-size="10.00" fill="#000000">AMReX_iMultiFab.H</text>
</g>
<!-- Node8&#45;&gt;Node23 -->
<g id="edge44" class="edge">
<title>Node8&#45;&gt;Node23</title>
<path fill="none" stroke="#191970" d="M497.4848,-180.2528C431.7057,-175.3309 330.1563,-162.9747 247.5466,-132 215.1887,-119.8674 182.0275,-97.2531 161.6103,-81.9154"/>
<polygon fill="#191970" stroke="#191970" points="163.4928,-78.9485 153.4272,-75.6418 159.2339,-84.5038 163.4928,-78.9485"/>
</g>
<!-- Node24 -->
<g id="node25" class="node">
<title>Node24</title>
<g id="a_node25"><a xlink:href="_scratch_field_8_h.html" target="_top" xlink:title="amr&#45;wind/core/ScratchField.H">
<polygon fill="#ffffff" stroke="#000000" points="391.5466,-112.5 391.5466,-131.5 537.5466,-131.5 537.5466,-112.5 391.5466,-112.5"/>
<text text-anchor="middle" x="464.5466" y="-119.5" font-family="Helvetica,sans-Serif" font-size="10.00" fill="#000000">amr&#45;wind/core/ScratchField.H</text>
</a>
</g>
</g>
<!-- Node8&#45;&gt;Node24 -->
<g id="edge35" class="edge">
<title>Node8&#45;&gt;Node24</title>
<path fill="none" stroke="#191970" d="M549.7653,-173.8906C533.4591,-163.9616 507.7926,-148.333 488.8852,-136.8201"/>
<polygon fill="#191970" stroke="#191970" points="490.5785,-133.7533 480.217,-131.5419 486.9379,-139.7322 490.5785,-133.7533"/>
</g>
<!-- Node26 -->
<g id="node27" class="node">
<title>Node26</title>
<polygon fill="#ffffff" stroke="#bfbfbf" points="819.5466,-112.5 819.5466,-131.5 925.5466,-131.5 925.5466,-112.5 819.5466,-112.5"/>
<text text-anchor="middle" x="872.5466" y="-119.5" font-family="Helvetica,sans-Serif" font-size="10.00" fill="#000000">AMReX_AmrCore.H</text>
</g>
<!-- Node8&#45;&gt;Node26 -->
<g id="edge42" class="edge">
<title>Node8&#45;&gt;Node26</title>
<path fill="none" stroke="#191970" d="M613.1785,-173.9581C667.5948,-163.0571 756.6202,-145.223 814.9038,-133.5473"/>
<polygon fill="#191970" stroke="#191970" points="815.9378,-136.9098 825.0555,-131.5137 814.5628,-130.0462 815.9378,-136.9098"/>
</g>
<!-- Node11&#45;&gt;Node10 -->
<g id="edge13" class="edge">
<title>Node11&#45;&gt;Node10</title>
<path fill="none" stroke="#191970" d="M714.8298,-112.4509C727.7323,-104.5902 744.0107,-92.1269 751.5466,-76 758.4275,-61.2746 754.7676,-42.8746 750.0512,-29.2459"/>
<polygon fill="#191970" stroke="#191970" points="753.2961,-27.9334 746.3957,-19.8939 746.7765,-30.4819 753.2961,-27.9334"/>
</g>
<!-- Node11&#45;&gt;Node12 -->
<g id="edge14" class="edge">
<title>Node11&#45;&gt;Node12</title>
<path fill="none" stroke="#191970" d="M705.1479,-112.0451C716.0474,-98.1761 731.8995,-72.8496 718.5466,-56 702.0106,-35.1339 635.745,-22.8121 584.7932,-16.2547"/>
<polygon fill="#191970" stroke="#191970" points="585.1809,-12.7761 574.8263,-15.0193 584.3197,-19.7229 585.1809,-12.7761"/>
</g>
<!-- Node13 -->
<g id="node14" class="node">
<title>Node13</title>
<polygon fill="#ffffff" stroke="#bfbfbf" points="593.5466,-56.5 593.5466,-75.5 709.5466,-75.5 709.5466,-56.5 593.5466,-56.5"/>
<text text-anchor="middle" x="651.5466" y="-63.5" font-family="Helvetica,sans-Serif" font-size="10.00" fill="#000000">AMReX_Interpolater.H</text>
</g>
<!-- Node11&#45;&gt;Node13 -->
<g id="edge15" class="edge">
<title>Node11&#45;&gt;Node13</title>
<path fill="none" stroke="#191970" d="M688.7082,-112.2455C682.3845,-104.3761 673.3242,-93.101 665.733,-83.6542"/>
<polygon fill="#191970" stroke="#191970" points="668.2874,-81.2454 659.2951,-75.6427 662.8308,-85.6302 668.2874,-81.2454"/>
</g>
<!-- Node14&#45;&gt;Node1 -->
<g id="edge17" class="edge">
<title>Node14&#45;&gt;Node1</title>
<path fill="none" stroke="#191970" d="M1058.927,-112.3901C1015.7186,-95.6879 927.767,-62.4627 895.5466,-56 626.2222,-1.9794 552.5805,-38.9537 278.5466,-20 246.4298,-17.7786 209.7087,-14.7869 184.4187,-12.656"/>
<polygon fill="#191970" stroke="#191970" points="184.5867,-9.1578 174.3267,-11.8002 183.9952,-16.1327 184.5867,-9.1578"/>
</g>
<!-- Node14&#45;&gt;Node9 -->
<g id="edge19" class="edge">
<title>Node14&#45;&gt;Node9</title>
<path fill="none" stroke="#191970" d="M1042.9033,-112.4369C1002.257,-102.8731 939.6553,-88.1432 895.8878,-77.845"/>
<polygon fill="#191970" stroke="#191970" points="896.558,-74.4072 886.0222,-75.5237 894.9547,-81.2211 896.558,-74.4072"/>
</g>
<!-- Node14&#45;&gt;Node10 -->
<g id="edge25" class="edge">
<title>Node14&#45;&gt;Node10</title>
<path fill="none" stroke="#191970" d="M1075.0931,-112.0718C1061.8779,-97.2643 1034.7922,-69.6749 1005.5466,-56 975.4935,-41.9475 896.9881,-29.2755 833.3445,-20.8073"/>
<polygon fill="#191970" stroke="#191970" points="833.6379,-17.3159 823.2674,-19.4847 832.7269,-24.2564 833.6379,-17.3159"/>
</g>
<!-- Node14&#45;&gt;Node12 -->
<g id="edge21" class="edge">
<title>Node14&#45;&gt;Node12</title>
<path fill="none" stroke="#191970" d="M1067.4074,-112.3239C1038.0921,-94.8222 978.1377,-59.3943 967.5466,-56 931.9984,-44.6072 698.8811,-24.3837 584.9792,-15.0178"/>
<polygon fill="#191970" stroke="#191970" points="584.9224,-11.5015 574.6699,-14.1729 584.3506,-18.4781 584.9224,-11.5015"/>
</g>
<!-- Node15 -->
<g id="node16" class="node">
<title>Node15</title>
<polygon fill="#ffffff" stroke="#bfbfbf" points="1057.5466,-56.5 1057.5466,-75.5 1109.5466,-75.5 1109.5466,-56.5 1057.5466,-56.5"/>
<text text-anchor="middle" x="1083.5466" y="-63.5" font-family="Helvetica,sans-Serif" font-size="10.00" fill="#000000">memory</text>
</g>
<!-- Node14&#45;&gt;Node15 -->
<g id="edge18" class="edge">
<title>Node14&#45;&gt;Node15</title>
<path fill="none" stroke="#191970" d="M1083.5466,-112.2455C1083.5466,-104.9382 1083.5466,-94.6944 1083.5466,-85.7046"/>
<polygon fill="#191970" stroke="#191970" points="1087.0467,-85.6426 1083.5466,-75.6427 1080.0467,-85.6427 1087.0467,-85.6426"/>
</g>
<!-- Node16 -->
<g id="node17" class="node">
<title>Node16</title>
<polygon fill="#ffffff" stroke="#bfbfbf" points="1127.5466,-56.5 1127.5466,-75.5 1183.5466,-75.5 1183.5466,-56.5 1127.5466,-56.5"/>
<text text-anchor="middle" x="1155.5466" y="-63.5" font-family="Helvetica,sans-Serif" font-size="10.00" fill="#000000">algorithm</text>
</g>
<!-- Node14&#45;&gt;Node16 -->
<g id="edge20" class="edge">
<title>Node14&#45;&gt;Node16</title>
<path fill="none" stroke="#191970" d="M1096.088,-112.2455C1106.8253,-103.8943 1122.4939,-91.7076 1135.0512,-81.9408"/>
<polygon fill="#191970" stroke="#191970" points="1137.4041,-84.5449 1143.1488,-75.6427 1133.1065,-79.0194 1137.4041,-84.5449"/>
</g>
<!-- Node17 -->
<g id="node18" class="node">
<title>Node17</title>
<polygon fill="#ffffff" stroke="#bfbfbf" points="1202.0466,-56.5 1202.0466,-75.5 1301.0466,-75.5 1301.0466,-56.5 1202.0466,-56.5"/>
<text text-anchor="middle" x="1251.5466" y="-63.5" font-family="Helvetica,sans-Serif" font-size="10.00" fill="#000000">AMReX_BCRec.H</text>
</g>
<!-- Node14&#45;&gt;Node17 -->
<g id="edge22" class="edge">
<title>Node14&#45;&gt;Node17</title>
<path fill="none" stroke="#191970" d="M1112.4268,-112.3733C1140.3626,-103.0613 1182.8608,-88.8953 1213.5335,-78.671"/>
<polygon fill="#191970" stroke="#191970" points="1214.6632,-81.9839 1223.0432,-75.5011 1212.4495,-75.3431 1214.6632,-81.9839"/>
</g>
<!-- Node18 -->
<g id="node19" class="node">
<title>Node18</title>
<polygon fill="#ffffff" stroke="#bfbfbf" points="1504.0466,-56.5 1504.0466,-75.5 1589.0466,-75.5 1589.0466,-56.5 1504.0466,-56.5"/>
<text text-anchor="middle" x="1546.5466" y="-63.5" font-family="Helvetica,sans-Serif" font-size="10.00" fill="#000000">AMReX_Gpu.H</text>
</g>
<!-- Node14&#45;&gt;Node18 -->
<g id="edge23" class="edge">
<title>Node14&#45;&gt;Node18</title>
<path fill="none" stroke="#191970" d="M1140.3194,-115.1333C1230.675,-104.2048 1405.9321,-83.0074 1493.7338,-72.3877"/>
<polygon fill="#191970" stroke="#191970" points="1494.2337,-75.8529 1503.741,-71.1773 1493.3931,-68.9035 1494.2337,-75.8529"/>
</g>
<!-- Node19 -->
<g id="node20" class="node">
<title>Node19</title>
<g id="a_node20"><a xlink:href="incflo__enums_8_h.html" target="_top" xlink:title="amr&#45;wind/incflo_enums.H">
<polygon fill="#ffffff" stroke="#000000" points="1319.5466,-56.5 1319.5466,-75.5 1447.5466,-75.5 1447.5466,-56.5 1319.5466,-56.5"/>
<text text-anchor="middle" x="1383.5466" y="-63.5" font-family="Helvetica,sans-Serif" font-size="10.00" fill="#000000">amr&#45;wind/incflo_enums.H</text>
</a>
</g>
</g>
<!-- Node14&#45;&gt;Node19 -->
<g id="edge24" class="edge">
<title>Node14&#45;&gt;Node19</title>
<path fill="none" stroke="#191970" d="M1134.7775,-112.4369C1186.7674,-102.7321 1267.2539,-87.708 1322.5146,-77.3926"/>
<polygon fill="#191970" stroke="#191970" points="1323.339,-80.7993 1332.5269,-75.5237 1322.0544,-73.9182 1323.339,-80.7993"/>
</g>
<!-- Node20 -->
<g id="node21" class="node">
<title>Node20</title>
<g id="a_node21"><a xlink:href="_view_field_8_h.html" target="_top" xlink:title="amr&#45;wind/core/ViewField.H">
<polygon fill="#ffffff" stroke="#000000" points="327.5466,-56.5 327.5466,-75.5 461.5466,-75.5 461.5466,-56.5 327.5466,-56.5"/>
<text text-anchor="middle" x="394.5466" y="-63.5" font-family="Helvetica,sans-Serif" font-size="10.00" fill="#000000">amr&#45;wind/core/ViewField.H</text>
</a>
</g>
</g>
<!-- Node14&#45;&gt;Node20 -->
<g id="edge26" class="edge">
<title>Node14&#45;&gt;Node20</title>
<path fill="none" stroke="#191970" d="M1026.87,-117.3935C903.7643,-107.3878 611.7831,-83.6564 471.8856,-72.2859"/>
<polygon fill="#191970" stroke="#191970" points="471.9242,-68.7776 461.6735,-71.4559 471.3571,-75.7546 471.9242,-68.7776"/>
</g>
<!-- Node20&#45;&gt;Node1 -->
<g id="edge27" class="edge">
<title>Node20&#45;&gt;Node1</title>
<path fill="none" stroke="#191970" d="M353.391,-56.4369C305.3264,-45.2683 226.943,-27.0548 184.0194,-17.0808"/>
<polygon fill="#191970" stroke="#191970" points="184.6947,-13.6446 174.162,-14.7903 183.1103,-20.4629 184.6947,-13.6446"/>
</g>
<!-- Node20&#45;&gt;Node10 -->
<g id="edge28" class="edge">
<title>Node20&#45;&gt;Node10</title>
<path fill="none" stroke="#191970" d="M453.8037,-56.4369C514.4377,-46.6516 608.5821,-31.4582 672.5382,-21.1368"/>
<polygon fill="#191970" stroke="#191970" points="673.2192,-24.5723 682.5338,-19.5237 672.1039,-17.6617 673.2192,-24.5723"/>
</g>
<!-- Node20&#45;&gt;Node12 -->
<g id="edge29" class="edge">
<title>Node20&#45;&gt;Node12</title>
<path fill="none" stroke="#191970" d="M416.5505,-56.3733C437.19,-47.3435 468.2623,-33.7494 491.4354,-23.6111"/>
<polygon fill="#191970" stroke="#191970" points="493.071,-26.7159 500.8297,-19.5011 490.2652,-20.3028 493.071,-26.7159"/>
</g>
<!-- Node21 -->
<g id="node22" class="node">
<title>Node21</title>
<polygon fill="#ffffff" stroke="#bfbfbf" points="288.0466,-.5 288.0466,-19.5 383.0466,-19.5 383.0466,-.5 288.0466,-.5"/>
<text text-anchor="middle" x="335.5466" y="-7.5" font-family="Helvetica,sans-Serif" font-size="10.00" fill="#000000">AMReX_Vector.H</text>
</g>
<!-- Node20&#45;&gt;Node21 -->
<g id="edge30" class="edge">
<title>Node20&#45;&gt;Node21</title>
<path fill="none" stroke="#191970" d="M384.2695,-56.2455C375.7247,-48.1352 363.3688,-36.4075 353.238,-26.7919"/>
<polygon fill="#191970" stroke="#191970" points="355.3684,-23.9884 345.7058,-19.6427 350.5494,-29.0655 355.3684,-23.9884"/>
</g>
<!-- Node22&#45;&gt;Node1 -->
<g id="edge32" class="edge">
<title>Node22&#45;&gt;Node1</title>
<path fill="none" stroke="#191970" d="M74.3926,-112.3552C57.2893,-99.4759 32.3496,-75.965 45.5466,-56 62.634,-30.1492 97.523,-18.7789 123.0391,-13.8072"/>
<polygon fill="#191970" stroke="#191970" points="123.7198,-17.2416 132.9809,-12.0955 122.532,-10.3431 123.7198,-17.2416"/>
</g>
<!-- Node22&#45;&gt;Node10 -->
<g id="edge33" class="edge">
<title>Node22&#45;&gt;Node10</title>
<path fill="none" stroke="#191970" d="M82.6631,-112.0359C75.0408,-97.6855 64.3157,-71.2525 78.5466,-56 80.9577,-53.4158 468.4877,-27.8132 649.8778,-15.9624"/>
<polygon fill="#191970" stroke="#191970" points="650.19,-19.4496 659.9406,-15.3053 649.7337,-12.4645 650.19,-19.4496"/>
</g>
<!-- Node22&#45;&gt;Node23 -->
<g id="edge34" class="edge">
<title>Node22&#45;&gt;Node23</title>
<path fill="none" stroke="#191970" d="M97.7785,-112.2455C105.3783,-104.2155 116.3343,-92.6394 125.3833,-83.0781"/>
<polygon fill="#191970" stroke="#191970" points="128.0886,-85.3115 132.4205,-75.6427 123.0045,-80.4998 128.0886,-85.3115"/>
</g>
<!-- Node24&#45;&gt;Node1 -->
<g id="edge36" class="edge">
<title>Node24&#45;&gt;Node1</title>
<path fill="none" stroke="#191970" d="M428.1596,-112.4396C396.5111,-103.8312 349.5755,-90.3567 309.5466,-76 265.0862,-60.0539 215.0071,-38.1368 183.8614,-24.0183"/>
<polygon fill="#191970" stroke="#191970" points="184.9965,-20.6893 174.4456,-19.7259 182.0928,-27.0587 184.9965,-20.6893"/>
</g>
<!-- Node24&#45;&gt;Node10 -->
<g id="edge37" class="edge">
<title>Node24&#45;&gt;Node10</title>
<path fill="none" stroke="#191970" d="M474.3389,-112.3535C489.5538,-97.9141 520.3765,-70.7988 551.5466,-56 586.4272,-39.4395 627.8306,-28.5133 663.07,-21.4842"/>
<polygon fill="#191970" stroke="#191970" points="664.154,-24.84 673.3133,-19.5149 662.8323,-17.9658 664.154,-24.84"/>
</g>
<!-- Node24&#45;&gt;Node12 -->
<g id="edge39" class="edge">
<title>Node24&#45;&gt;Node12</title>
<path fill="none" stroke="#191970" d="M469.4916,-112.4509C479.0797,-93.936 500.3517,-52.8591 512.853,-28.7187"/>
<polygon fill="#191970" stroke="#191970" points="516.1234,-30.0144 517.614,-19.5249 509.9074,-26.7953 516.1234,-30.0144"/>
</g>
<!-- Node24&#45;&gt;Node20 -->
<g id="edge38" class="edge">
<title>Node24&#45;&gt;Node20</title>
<path fill="none" stroke="#191970" d="M452.3535,-112.2455C441.9145,-103.8943 426.6811,-91.7076 414.4726,-81.9408"/>
<polygon fill="#191970" stroke="#191970" points="416.5951,-79.1566 406.5999,-75.6427 412.2222,-84.6227 416.5951,-79.1566"/>
</g>
<!-- Node24&#45;&gt;Node21 -->
<g id="edge40" class="edge">
<title>Node24&#45;&gt;Node21</title>
<path fill="none" stroke="#191970" d="M413.1984,-112.4847C375.8937,-104.4058 330.0197,-91.6439 318.5466,-76 308.4263,-62.2008 315.1665,-42.9286 322.9467,-28.7714"/>
<polygon fill="#191970" stroke="#191970" points="326.1217,-30.285 328.3048,-19.9175 320.1329,-26.6608 326.1217,-30.285"/>
</g>
<!-- Node25 -->
<g id="node26" class="node">
<title>Node25</title>
<polygon fill="#ffffff" stroke="#bfbfbf" points="1607.5466,-56.5 1607.5466,-75.5 1735.5466,-75.5 1735.5466,-56.5 1607.5466,-56.5"/>
<text text-anchor="middle" x="1671.5466" y="-63.5" font-family="Helvetica,sans-Serif" font-size="10.00" fill="#000000">AMReX_PhysBCFunct.H</text>
</g>
<!-- Node24&#45;&gt;Node25 -->
<g id="edge41" class="edge">
<title>Node24&#45;&gt;Node25</title>
<path fill="none" stroke="#191970" d="M537.9302,-116.8836C564.0066,-115.1747 593.5777,-113.361 620.5466,-112 1051.2268,-90.2654 1162.9345,-112.7927 1597.4168,-75.9101"/>
<polygon fill="#191970" stroke="#191970" points="1597.7479,-79.3946 1607.4136,-75.0559 1597.1519,-72.4201 1597.7479,-79.3946"/>
</g>
<!-- Node27&#45;&gt;Node4 -->
<g id="edge47" class="edge">
<title>Node27&#45;&gt;Node4</title>
<path fill="none" stroke="#191970" d="M1497.7702,-176.7969C1526.7963,-174.0435 1560.7904,-170.8409 1591.5466,-168 1765.6423,-151.919 1811.9338,-151.7707 1989.7651,-132.0474"/>
<polygon fill="#191970" stroke="#191970" points="1990.165,-135.5246 1999.7159,-130.9386 1989.3898,-128.5676 1990.165,-135.5246"/>
</g>
<!-- Node27&#45;&gt;Node5 -->
<g id="edge52" class="edge">
<title>Node27&#45;&gt;Node5</title>
<path fill="none" stroke="#191970" d="M1479.2626,-168.4319C1532.6643,-153.1481 1618.5344,-129.3382 1693.5466,-112 1754.9281,-97.8123 1825.9328,-84.4272 1874.0998,-75.7931"/>
<polygon fill="#191970" stroke="#191970" points="1874.7896,-79.2254 1884.0198,-74.0242 1873.5607,-72.3341 1874.7896,-79.2254"/>
</g>
<!-- Node27&#45;&gt;Node10 -->
<g id="edge48" class="edge">
<title>Node27&#45;&gt;Node10</title>
<path fill="none" stroke="#191970" d="M1415.2494,-168.4234C1404.714,-153.5517 1392.6806,-130.4346 1402.5466,-112 1416.157,-86.5686 1442.9361,-101.4314 1456.5466,-76 1460.7408,-68.1629 1462.6268,-62.484 1456.5466,-56 1435.542,-33.6006 1021.4229,-18.385 833.227,-12.6"/>
<polygon fill="#191970" stroke="#191970" points="833.1746,-9.0969 823.0725,-12.2903 832.9611,-16.0936 833.1746,-9.0969"/>
</g>
<!-- Node27&#45;&gt;Node11 -->
<g id="edge49" class="edge">
<title>Node27&#45;&gt;Node11</title>
<path fill="none" stroke="#191970" d="M1357.2145,-177.7267C1242.6657,-168.3018 1008.6796,-148.9589 810.5466,-132 798.5611,-130.9741 785.8682,-129.8741 773.4729,-128.7925"/>
<polygon fill="#191970" stroke="#191970" points="773.4197,-125.2746 763.1528,-127.8902 772.81,-132.248 773.4197,-125.2746"/>
</g>
<!-- Node27&#45;&gt;Node12 -->
<g id="edge51" class="edge">
<title>Node27&#45;&gt;Node12</title>
<path fill="none" stroke="#191970" d="M1357.5185,-178.3545C1257.3621,-170.3756 1078.563,-153.6552 1017.5466,-132 957.3431,-110.6334 955.774,-77.2989 895.5466,-56 866.9918,-45.9019 683.6341,-26.2529 585.0551,-16.2201"/>
<polygon fill="#191970" stroke="#191970" points="585.2205,-12.719 574.9183,-15.1919 584.514,-19.6833 585.2205,-12.719"/>
</g>
<!-- Node27&#45;&gt;Node14 -->
<g id="edge46" class="edge">
<title>Node27&#45;&gt;Node14</title>
<path fill="none" stroke="#191970" d="M1357.5184,-170.9804C1295.7721,-159.9415 1206.5854,-143.9968 1146.9201,-133.3299"/>
<polygon fill="#191970" stroke="#191970" points="1147.3323,-129.8481 1136.8724,-131.5335 1146.1003,-136.7389 1147.3323,-129.8481"/>
</g>
<!-- Node27&#45;&gt;Node25 -->
<g id="edge53" class="edge">
<title>Node27&#45;&gt;Node25</title>
<path fill="none" stroke="#191970" d="M1461.5781,-168.4069C1484.0917,-158.3198 1514.2058,-144.632 1540.5466,-132 1576.5403,-114.7388 1617.5699,-93.8713 1643.9737,-80.2854"/>
<polygon fill="#191970" stroke="#191970" points="1645.7192,-83.3233 1653.0033,-75.6296 1642.5112,-77.1016 1645.7192,-83.3233"/>
</g>
<!-- Node27&#45;&gt;Node26 -->
<g id="edge50" class="edge">
<title>Node27&#45;&gt;Node26</title>
<path fill="none" stroke="#191970" d="M1357.5343,-177.066C1262.6674,-168.1299 1088.0735,-150.9124 939.5466,-132 938.2669,-131.8371 936.9739,-131.6697 935.671,-131.4987"/>
<polygon fill="#191970" stroke="#191970" points="935.9274,-128.0015 925.5477,-130.1256 934.9865,-134.9379 935.9274,-128.0015"/>
</g>
<!-- Node28 -->
<g id="node29" class="node">
<title>Node28</title>
<polygon fill="#ffffff" stroke="#bfbfbf" points="1411.5466,-112.5 1411.5466,-131.5 1531.5466,-131.5 1531.5466,-112.5 1411.5466,-112.5"/>
<text text-anchor="middle" x="1471.5466" y="-119.5" font-family="Helvetica,sans-Serif" font-size="10.00" fill="#000000">AMReX_FillPatchUtil.H</text>
</g>
<!-- Node27&#45;&gt;Node28 -->
<g id="edge54" class="edge">
<title>Node27&#45;&gt;Node28</title>
<path fill="none" stroke="#191970" d="M1438.423,-168.2977C1444.5306,-159.7609 1452.1905,-149.0545 1458.6053,-140.0883"/>
<polygon fill="#191970" stroke="#191970" points="1461.5294,-142.0163 1464.5016,-131.8469 1455.8364,-137.9433 1461.5294,-142.0163"/>
</g>
<!-- Node29&#45;&gt;Node10 -->
<g id="edge56" class="edge">
<title>Node29&#45;&gt;Node10</title>
<path fill="none" stroke="#191970" d="M1674.2037,-173.8359C1675.6192,-159.2201 1680.0223,-131.1684 1693.5466,-112 1712.9537,-84.4937 1767.7986,-80.3429 1744.5466,-56 1713.3513,-23.3413 1075.156,-13.4122 833.3373,-10.8156"/>
<polygon fill="#191970" stroke="#191970" points="833.2019,-7.3141 823.1655,-10.7082 833.128,-14.3137 833.2019,-7.3141"/>
</g>
<!-- Node29&#45;&gt;Node14 -->
<g id="edge57" class="edge">
<title>Node29&#45;&gt;Node14</title>
<path fill="none" stroke="#191970" d="M1600.9053,-175.9281C1485.4632,-163.8947 1261.7994,-140.5806 1150.2186,-128.9497"/>
<polygon fill="#191970" stroke="#191970" points="1150.4118,-125.451 1140.1028,-127.8953 1149.686,-132.4133 1150.4118,-125.451"/>
</g>
<!-- Node29&#45;&gt;Node18 -->
<g id="edge58" class="edge">
<title>Node29&#45;&gt;Node18</title>
<path fill="none" stroke="#191970" d="M1663.1536,-173.8845C1641.5714,-153.9167 1591.6646,-107.743 1564.6688,-82.7667"/>
<polygon fill="#191970" stroke="#191970" points="1566.8003,-79.9705 1557.0831,-75.7484 1562.0465,-85.1087 1566.8003,-79.9705"/>
</g>
<!-- Node29&#45;&gt;Node25 -->
<g id="edge61" class="edge">
<title>Node29&#45;&gt;Node25</title>
<path fill="none" stroke="#191970" d="M1746.1965,-174.2605C1796.4231,-164.7126 1849.9884,-146.216 1824.5466,-112 1813.6543,-97.3513 1773.5156,-85.6056 1737.0846,-77.6502"/>
<polygon fill="#191970" stroke="#191970" points="1737.4423,-74.1486 1726.9349,-75.5076 1735.9964,-80.9977 1737.4423,-74.1486"/>
</g>
<!-- Node30 -->
<g id="node31" class="node">
<title>Node30</title>
<polygon fill="#ffffff" stroke="#bfbfbf" points="1702.0466,-112.5 1702.0466,-131.5 1815.0466,-131.5 1815.0466,-112.5 1702.0466,-112.5"/>
<text text-anchor="middle" x="1758.5466" y="-119.5" font-family="Helvetica,sans-Serif" font-size="10.00" fill="#000000">AMReX_FArrayBox.H</text>
</g>
<!-- Node29&#45;&gt;Node30 -->
<g id="edge59" class="edge">
<title>Node29&#45;&gt;Node30</title>
<path fill="none" stroke="#191970" d="M1686.8278,-173.8906C1700.3013,-164.1421 1721.3685,-148.8994 1737.1901,-137.4521"/>
<polygon fill="#191970" stroke="#191970" points="1739.3085,-140.2394 1745.3586,-131.5419 1735.2051,-134.5682 1739.3085,-140.2394"/>
</g>
<!-- Node31 -->
<g id="node32" class="node">
<title>Node31</title>
<polygon fill="#ffffff" stroke="#bfbfbf" points="1871.5466,-112.5 1871.5466,-131.5 1981.5466,-131.5 1981.5466,-112.5 1871.5466,-112.5"/>
<text text-anchor="middle" x="1926.5466" y="-119.5" font-family="Helvetica,sans-Serif" font-size="10.00" fill="#000000">AMReX_Geometry.H</text>
</g>
<!-- Node29&#45;&gt;Node31 -->
<g id="edge60" class="edge">
<title>Node29&#45;&gt;Node31</title>
<path fill="none" stroke="#191970" d="M1712.8002,-173.9581C1757.1159,-163.1857 1829.2841,-145.6428 1877.3326,-133.9631"/>
<polygon fill="#191970" stroke="#191970" points="1878.3105,-137.3274 1887.2008,-131.5643 1876.657,-130.5254 1878.3105,-137.3274"/>
</g>
</g>
</svg>
