<?xml version="1.0" encoding="UTF-8" standalone="no"?>
<!DOCTYPE svg PUBLIC "-//W3C//DTD SVG 1.1//EN"
 "http://www.w3.org/Graphics/SVG/1.1/DTD/svg11.dtd">
<!-- Generated by graphviz version 2.40.1 (20161225.0304)
 -->
<!-- Title: PostProcessing.H Pages: 1 -->
<svg width="1186pt" height="207pt"
 viewBox="0.00 0.00 1186.00 207.00" xmlns="http://www.w3.org/2000/svg" xmlns:xlink="http://www.w3.org/1999/xlink">
<g id="graph0" class="graph" transform="scale(1 1) rotate(0) translate(4 203)">
<title>PostProcessing.H</title>
<polygon fill="#ffffff" stroke="transparent" points="-4,4 -4,-203 1182,-203 1182,4 -4,4"/>
<!-- Node7 -->
<g id="node1" class="node">
<title>Node7</title>
<polygon fill="#bfbfbf" stroke="#000000" points="765,-179.5 765,-198.5 861,-198.5 861,-179.5 765,-179.5"/>
<text text-anchor="middle" x="813" y="-186.5" font-family="Helvetica,sans-Serif" font-size="10.00" fill="#000000">PostProcessing.H</text>
</g>
<!-- Node8 -->
<g id="node2" class="node">
<title>Node8</title>
<g id="a_node2"><a xlink:href="_a_b_l_stats_8_h.html" target="_top" xlink:title="ABLStats.H">
<polygon fill="#ffffff" stroke="#000000" points="517.5,-123.5 517.5,-142.5 586.5,-142.5 586.5,-123.5 517.5,-123.5"/>
<text text-anchor="middle" x="552" y="-130.5" font-family="Helvetica,sans-Serif" font-size="10.00" fill="#000000">ABLStats.H</text>
</a>
</g>
</g>
<!-- Node7&#45;&gt;Node8 -->
<g id="edge1" class="edge">
<title>Node7&#45;&gt;Node8</title>
<path fill="none" stroke="#191970" d="M758.4341,-177.2924C706.7512,-166.2033 630.7014,-149.8861 586.7837,-140.4632"/>
<polygon fill="#191970" stroke="#191970" points="757.9173,-180.7611 768.4291,-179.4369 759.3859,-173.9168 757.9173,-180.7611"/>
</g>
<!-- Node13 -->
<g id="node7" class="node">
<title>Node13</title>
<g id="a_node7"><a xlink:href="incflo_8cpp.html" target="_top" xlink:title="incflo.cpp">
<polygon fill="#ffffff" stroke="#000000" points="635.5,-6 635.5,-25 694.5,-25 694.5,-6 635.5,-6"/>
<text text-anchor="middle" x="665" y="-13" font-family="Helvetica,sans-Serif" font-size="10.00" fill="#000000">incflo.cpp</text>
</a>
</g>
</g>
<!-- Node7&#45;&gt;Node13 -->
<g id="edge12" class="edge">
<title>Node7&#45;&gt;Node13</title>
<path fill="none" stroke="#191970" d="M754.733,-178.7694C716.8763,-170.8005 672.501,-158.4967 661,-143 634.3393,-107.0768 652.243,-48.4609 660.9824,-25.3307"/>
<polygon fill="#191970" stroke="#191970" points="754.1999,-182.2326 764.6976,-180.801 755.5984,-175.3737 754.1999,-182.2326"/>
</g>
<!-- Node18 -->
<g id="node12" class="node">
<title>Node18</title>
<g id="a_node12"><a xlink:href="_c_f_d_sim_8cpp.html" target="_top" xlink:title="CFDSim.cpp">
<polygon fill="#ffffff" stroke="#000000" points="670,-123.5 670,-142.5 744,-142.5 744,-123.5 670,-123.5"/>
<text text-anchor="middle" x="707" y="-130.5" font-family="Helvetica,sans-Serif" font-size="10.00" fill="#000000">CFDSim.cpp</text>
</a>
</g>
</g>
<!-- Node7&#45;&gt;Node18 -->
<g id="edge11" class="edge">
<title>Node7&#45;&gt;Node18</title>
<path fill="none" stroke="#191970" d="M785.4778,-174.46C766.5092,-164.4388 741.8273,-151.3993 725.2522,-142.6427"/>
<polygon fill="#191970" stroke="#191970" points="784.0593,-177.669 794.5362,-179.2455 787.3292,-171.4796 784.0593,-177.669"/>
</g>
<!-- Node19 -->
<g id="node13" class="node">
<title>Node19</title>
<g id="a_node13"><a xlink:href="incflo__advance_8cpp.html" target="_top" xlink:title="incflo_advance.cpp">
<polygon fill="#ffffff" stroke="#000000" points="762.5,-123.5 762.5,-142.5 863.5,-142.5 863.5,-123.5 762.5,-123.5"/>
<text text-anchor="middle" x="813" y="-130.5" font-family="Helvetica,sans-Serif" font-size="10.00" fill="#000000">incflo_advance.cpp</text>
</a>
</g>
</g>
<!-- Node7&#45;&gt;Node19 -->
<g id="edge13" class="edge">
<title>Node7&#45;&gt;Node19</title>
<path fill="none" stroke="#191970" d="M813,-169.1575C813,-160.155 813,-149.9199 813,-142.6427"/>
<polygon fill="#191970" stroke="#191970" points="809.5001,-169.2455 813,-179.2455 816.5001,-169.2456 809.5001,-169.2455"/>
</g>
<!-- Node20 -->
<g id="node14" class="node">
<title>Node20</title>
<g id="a_node14"><a xlink:href="_post_processing_8cpp.html" target="_top" xlink:title="PostProcessing.cpp">
<polygon fill="#ffffff" stroke="#000000" points="882,-123.5 882,-142.5 986,-142.5 986,-123.5 882,-123.5"/>
<text text-anchor="middle" x="934" y="-130.5" font-family="Helvetica,sans-Serif" font-size="10.00" fill="#000000">PostProcessing.cpp</text>
</a>
</g>
</g>
<!-- Node7&#45;&gt;Node20 -->
<g id="edge14" class="edge">
<title>Node7&#45;&gt;Node20</title>
<path fill="none" stroke="#191970" d="M843.0104,-175.1109C864.9525,-164.9559 894.1388,-151.4482 913.4708,-142.5011"/>
<polygon fill="#191970" stroke="#191970" points="841.4058,-171.9968 833.8006,-179.3733 844.3459,-178.3494 841.4058,-171.9968"/>
</g>
<!-- Node21 -->
<g id="node15" class="node">
<title>Node21</title>
<g id="a_node15"><a xlink:href="_field_norms_8_h.html" target="_top" xlink:title="FieldNorms.H">
<polygon fill="#ffffff" stroke="#000000" points="1004.5,-123.5 1004.5,-142.5 1081.5,-142.5 1081.5,-123.5 1004.5,-123.5"/>
<text text-anchor="middle" x="1043" y="-130.5" font-family="Helvetica,sans-Serif" font-size="10.00" fill="#000000">FieldNorms.H</text>
</a>
</g>
</g>
<!-- Node7&#45;&gt;Node21 -->
<g id="edge15" class="edge">
<title>Node7&#45;&gt;Node21</title>
<path fill="none" stroke="#191970" d="M862.1223,-177.0398C904.5926,-166.6992 965.1505,-151.9547 1004.2686,-142.4303"/>
<polygon fill="#191970" stroke="#191970" points="861.1652,-173.6705 852.2771,-179.4369 862.8212,-180.4718 861.1652,-173.6705"/>
</g>
<!-- Node23 -->
<g id="node17" class="node">
<title>Node23</title>
<g id="a_node17"><a xlink:href="_sampling_8_h.html" target="_top" xlink:title="Sampling.H">
<polygon fill="#ffffff" stroke="#000000" points="1104,-123.5 1104,-142.5 1172,-142.5 1172,-123.5 1104,-123.5"/>
<text text-anchor="middle" x="1138" y="-130.5" font-family="Helvetica,sans-Serif" font-size="10.00" fill="#000000">Sampling.H</text>
</a>
</g>
</g>
<!-- Node7&#45;&gt;Node23 -->
<g id="edge17" class="edge">
<title>Node7&#45;&gt;Node23</title>
<path fill="none" stroke="#191970" d="M871.4796,-180.1184C927.8309,-171.3725 1015.4284,-157.2841 1091,-143 1095.1806,-142.2098 1099.5608,-141.3376 1103.8952,-140.4474"/>
<polygon fill="#191970" stroke="#191970" points="870.6786,-176.7006 861.3311,-181.6882 871.7486,-183.6184 870.6786,-176.7006"/>
</g>
<!-- Node9 -->
<g id="node3" class="node">
<title>Node9</title>
<g id="a_node3"><a xlink:href="_a_b_l_8_h.html" target="_top" xlink:title="ABL.H">
<polygon fill="#ffffff" stroke="#000000" points="403,-67.5 403,-86.5 449,-86.5 449,-67.5 403,-67.5"/>
<text text-anchor="middle" x="426" y="-74.5" font-family="Helvetica,sans-Serif" font-size="10.00" fill="#000000">ABL.H</text>
</a>
</g>
</g>
<!-- Node8&#45;&gt;Node9 -->
<g id="edge2" class="edge">
<title>Node8&#45;&gt;Node9</title>
<path fill="none" stroke="#191970" d="M521.0564,-119.2473C498.1735,-109.0771 467.5986,-95.4883 447.3775,-86.5011"/>
<polygon fill="#191970" stroke="#191970" points="519.7802,-122.5102 530.3398,-123.3733 522.6232,-116.1135 519.7802,-122.5102"/>
</g>
<!-- Node17 -->
<g id="node11" class="node">
<title>Node17</title>
<g id="a_node11"><a xlink:href="_a_b_l_stats_8cpp.html" target="_top" xlink:title="ABLStats.cpp">
<polygon fill="#ffffff" stroke="#000000" points="513.5,-67.5 513.5,-86.5 590.5,-86.5 590.5,-67.5 513.5,-67.5"/>
<text text-anchor="middle" x="552" y="-74.5" font-family="Helvetica,sans-Serif" font-size="10.00" fill="#000000">ABLStats.cpp</text>
</a>
</g>
</g>
<!-- Node8&#45;&gt;Node17 -->
<g id="edge10" class="edge">
<title>Node8&#45;&gt;Node17</title>
<path fill="none" stroke="#191970" d="M552,-113.1575C552,-104.155 552,-93.9199 552,-86.6427"/>
<polygon fill="#191970" stroke="#191970" points="548.5001,-113.2455 552,-123.2455 555.5001,-113.2456 548.5001,-113.2455"/>
</g>
<!-- Node10 -->
<g id="node4" class="node">
<title>Node10</title>
<g id="a_node4"><a xlink:href="incflo__set__velocity__bcs_8cpp.html" target="_top" xlink:title="incflo_set_velocity\l_bcs.cpp">
<polygon fill="#ffffff" stroke="#000000" points="0,-.5 0,-30.5 98,-30.5 98,-.5 0,-.5"/>
<text text-anchor="start" x="8" y="-18.5" font-family="Helvetica,sans-Serif" font-size="10.00" fill="#000000">incflo_set_velocity</text>
<text text-anchor="middle" x="49" y="-7.5" font-family="Helvetica,sans-Serif" font-size="10.00" fill="#000000">_bcs.cpp</text>
</a>
</g>
</g>
<!-- Node9&#45;&gt;Node10 -->
<g id="edge3" class="edge">
<title>Node9&#45;&gt;Node10</title>
<path fill="none" stroke="#191970" d="M392.5095,-73.4874C334.1556,-67.0745 210.2065,-52.1549 107,-31 104.1411,-30.414 101.2137,-29.7707 98.267,-29.0898"/>
<polygon fill="#191970" stroke="#191970" points="392.3029,-76.9854 402.6223,-74.5854 393.0585,-70.0263 392.3029,-76.9854"/>
</g>
<!-- Node11 -->
<g id="node5" class="node">
<title>Node11</title>
<g id="a_node5"><a xlink:href="_a_b_l_forcing_8cpp.html" target="_top" xlink:title="ABLForcing.cpp">
<polygon fill="#ffffff" stroke="#000000" points="116,-6 116,-25 202,-25 202,-6 116,-6"/>
<text text-anchor="middle" x="159" y="-13" font-family="Helvetica,sans-Serif" font-size="10.00" fill="#000000">ABLForcing.cpp</text>
</a>
</g>
</g>
<!-- Node9&#45;&gt;Node11 -->
<g id="edge4" class="edge">
<title>Node9&#45;&gt;Node11</title>
<path fill="none" stroke="#191970" d="M392.9209,-70.765C350.543,-62.5847 274.9245,-47.3385 211,-31 203.9723,-29.2038 196.4678,-27.0858 189.4091,-25.0022"/>
<polygon fill="#191970" stroke="#191970" points="392.4711,-74.2424 402.9514,-72.6888 393.7898,-67.3677 392.4711,-74.2424"/>
</g>
<!-- Node12 -->
<g id="node6" class="node">
<title>Node12</title>
<g id="a_node6"><a xlink:href="_a_b_l_mean_boussinesq_8cpp.html" target="_top" xlink:title="ABLMeanBoussinesq.cpp">
<polygon fill="#ffffff" stroke="#000000" points="220.5,-6 220.5,-25 349.5,-25 349.5,-6 220.5,-6"/>
<text text-anchor="middle" x="285" y="-13" font-family="Helvetica,sans-Serif" font-size="10.00" fill="#000000">ABLMeanBoussinesq.cpp</text>
</a>
</g>
</g>
<!-- Node9&#45;&gt;Node12 -->
<g id="edge5" class="edge">
<title>Node9&#45;&gt;Node12</title>
<path fill="none" stroke="#191970" d="M394.6884,-63.3428C368.0271,-51.7139 330.4069,-35.3051 306.8765,-25.0419"/>
<polygon fill="#191970" stroke="#191970" points="393.4034,-66.6007 403.9688,-67.3906 396.202,-60.1845 393.4034,-66.6007"/>
</g>
<!-- Node9&#45;&gt;Node13 -->
<g id="edge6" class="edge">
<title>Node9&#45;&gt;Node13</title>
<path fill="none" stroke="#191970" d="M459.0946,-70.9931C499.0965,-63.3662 568.2352,-49.0069 626,-31 631.4256,-29.3087 637.1655,-27.2091 642.5245,-25.107"/>
<polygon fill="#191970" stroke="#191970" points="458.2778,-67.5853 449.0976,-72.8743 459.5724,-74.4646 458.2778,-67.5853"/>
</g>
<!-- Node14 -->
<g id="node8" class="node">
<title>Node14</title>
<g id="a_node8"><a xlink:href="init_8cpp.html" target="_top" xlink:title="init.cpp">
<polygon fill="#ffffff" stroke="#000000" points="368,-6 368,-25 416,-25 416,-6 368,-6"/>
<text text-anchor="middle" x="392" y="-13" font-family="Helvetica,sans-Serif" font-size="10.00" fill="#000000">init.cpp</text>
</a>
</g>
</g>
<!-- Node9&#45;&gt;Node14 -->
<g id="edge7" class="edge">
<title>Node9&#45;&gt;Node14</title>
<path fill="none" stroke="#191970" d="M415.8198,-58.5857C409.764,-47.632 402.3243,-34.1748 397.3874,-25.2449"/>
<polygon fill="#191970" stroke="#191970" points="412.7861,-60.3324 420.6875,-67.3906 418.9122,-56.9456 412.7861,-60.3324"/>
</g>
<!-- Node15 -->
<g id="node9" class="node">
<title>Node15</title>
<g id="a_node9"><a xlink:href="_a_b_l_8cpp.html" target="_top" xlink:title="ABL.cpp">
<polygon fill="#ffffff" stroke="#000000" points="434,-6 434,-25 488,-25 488,-6 434,-6"/>
<text text-anchor="middle" x="461" y="-13" font-family="Helvetica,sans-Serif" font-size="10.00" fill="#000000">ABL.cpp</text>
</a>
</g>
</g>
<!-- Node9&#45;&gt;Node15 -->
<g id="edge8" class="edge">
<title>Node9&#45;&gt;Node15</title>
<path fill="none" stroke="#191970" d="M436.4797,-58.5857C442.7135,-47.632 450.3721,-34.1748 455.4541,-25.2449"/>
<polygon fill="#191970" stroke="#191970" points="433.3731,-56.9683 431.4688,-67.3906 439.4569,-60.4307 433.3731,-56.9683"/>
</g>
<!-- Node16 -->
<g id="node10" class="node">
<title>Node16</title>
<g id="a_node10"><a xlink:href="_a_b_l_wall_function_8cpp.html" target="_top" xlink:title="ABLWallFunction.cpp">
<polygon fill="#ffffff" stroke="#000000" points="506.5,-6 506.5,-25 617.5,-25 617.5,-6 506.5,-6"/>
<text text-anchor="middle" x="562" y="-13" font-family="Helvetica,sans-Serif" font-size="10.00" fill="#000000">ABLWallFunction.cpp</text>
</a>
</g>
</g>
<!-- Node9&#45;&gt;Node16 -->
<g id="edge9" class="edge">
<title>Node9&#45;&gt;Node16</title>
<path fill="none" stroke="#191970" d="M456.5402,-63.1895C482.2352,-51.5701 518.3028,-35.2601 540.8992,-25.0419"/>
<polygon fill="#191970" stroke="#191970" points="454.9195,-60.0811 447.25,-67.3906 457.8038,-66.4593 454.9195,-60.0811"/>
</g>
<!-- Node22 -->
<g id="node16" class="node">
<title>Node22</title>
<g id="a_node16"><a xlink:href="_field_norms_8cpp.html" target="_top" xlink:title="FieldNorms.cpp">
<polygon fill="#ffffff" stroke="#000000" points="998,-67.5 998,-86.5 1084,-86.5 1084,-67.5 998,-67.5"/>
<text text-anchor="middle" x="1041" y="-74.5" font-family="Helvetica,sans-Serif" font-size="10.00" fill="#000000">FieldNorms.cpp</text>
</a>
</g>
</g>
<!-- Node21&#45;&gt;Node22 -->
<g id="edge16" class="edge">
<title>Node21&#45;&gt;Node22</title>
<path fill="none" stroke="#191970" d="M1042.2913,-113.1575C1041.9698,-104.155 1041.6043,-93.9199 1041.3444,-86.6427"/>
<polygon fill="#191970" stroke="#191970" points="1038.7968,-113.3769 1042.6516,-123.2455 1045.7924,-113.127 1038.7968,-113.3769"/>
</g>
<!-- Node24 -->
<g id="node18" class="node">
<title>Node24</title>
<g id="a_node18"><a xlink:href="_sampling_8cpp.html" target="_top" xlink:title="Sampling.cpp">
<polygon fill="#ffffff" stroke="#000000" points="1102,-67.5 1102,-86.5 1178,-86.5 1178,-67.5 1102,-67.5"/>
<text text-anchor="middle" x="1140" y="-74.5" font-family="Helvetica,sans-Serif" font-size="10.00" fill="#000000">Sampling.cpp</text>
</a>
</g>
</g>
<!-- Node23&#45;&gt;Node24 -->
<g id="edge18" class="edge">
<title>Node23&#45;&gt;Node24</title>
<path fill="none" stroke="#191970" d="M1138.7087,-113.1575C1139.0302,-104.155 1139.3957,-93.9199 1139.6556,-86.6427"/>
<polygon fill="#191970" stroke="#191970" points="1135.2076,-113.127 1138.3484,-123.2455 1142.2032,-113.3769 1135.2076,-113.127"/>
</g>
</g>
</svg>
