<?xml version="1.0" encoding="UTF-8" standalone="no"?>
<!DOCTYPE svg PUBLIC "-//W3C//DTD SVG 1.1//EN"
 "http://www.w3.org/Graphics/SVG/1.1/DTD/svg11.dtd">
<!-- Generated by graphviz version 2.40.1 (20161225.0304)
 -->
<!-- Title: PostProcessing.cpp Pages: 1 -->
<!--zoomable 330 -->
<svg id="main" version="1.1" xmlns="http://www.w3.org/2000/svg" xmlns:xlink="http://www.w3.org/1999/xlink" xml:space="preserve" onload="init(evt)">
<style type="text/css"><![CDATA[
.edge:hover path { stroke: red; }
.edge:hover polygon { stroke: red; fill: red; }
]]></style>
<script type="text/javascript"><![CDATA[
var edges = document.getElementsByTagName('g');
if (edges && edges.length) {
  for (var i=0;i<edges.length;i++) {
    if (edges[i].id.substr(0,4)=='edge') {
      edges[i].setAttribute('class','edge');
    }
  }
}
]]></script>
        <defs>
                <circle id="rim" cx="0" cy="0" r="7"/>
                <circle id="rim2" cx="0" cy="0" r="3.5"/>
                <g id="zoomPlus">
                        <use xlink:href="#rim" fill="#404040">
                                <set attributeName="fill" to="#808080" begin="zoomplus.mouseover" end="zoomplus.mouseout"/>
                        </use>
                        <path d="M-4,0h8M0,-4v8" fill="none" stroke="white" stroke-width="1.5" pointer-events="none"/>
                </g>
                <g id="zoomMin">
                        <use xlink:href="#rim" fill="#404040">
                                <set attributeName="fill" to="#808080" begin="zoomminus.mouseover" end="zoomminus.mouseout"/>
                        </use>
                        <path d="M-4,0h8" fill="none" stroke="white" stroke-width="1.5" pointer-events="none"/>
                </g>
                <g id="dirArrow">
                        <path fill="none" stroke="white" stroke-width="1.5" d="M0,-3.0v7 M-2.5,-0.5L0,-3.0L2.5,-0.5"/>
                </g>
               <g id="resetDef">
                       <use xlink:href="#rim2" fill="#404040">
                               <set attributeName="fill" to="#808080" begin="reset.mouseover" end="reset.mouseout"/>
                       </use>
               </g>
        </defs>

<script type="text/javascript">
var viewWidth = 2238;
var viewHeight = 330;
var sectionId = 'dynsection-0';
</script>
<script xlink:href="svgpan.js"/>
<svg id="graph" class="graph">
<g id="viewport">
<title>PostProcessing.cpp</title>
<polygon fill="#ffffff" stroke="transparent" points="-4,4 -4,-326 2234,-326 2234,4 -4,4"/>
<!-- Node0 -->
<g id="node1" class="node">
<title>Node0</title>
<polygon fill="#bfbfbf" stroke="#000000" points="719.5,-302.5 719.5,-321.5 823.5,-321.5 823.5,-302.5 719.5,-302.5"/>
<text text-anchor="middle" x="771.5" y="-309.5" font-family="Helvetica,sans-Serif" font-size="10.00" fill="#000000">PostProcessing.cpp</text>
</g>
<!-- Node1 -->
<g id="node2" class="node">
<title>Node1</title>
<g id="a_node2"><a xlink:href="_post_processing_8_h.html" target="_top" xlink:title="amr&#45;wind/utilities\l/PostProcessing.H">
<polygon fill="#ffffff" stroke="#000000" points="241,-179.5 241,-209.5 340,-209.5 340,-179.5 241,-179.5"/>
<text text-anchor="start" x="249" y="-197.5" font-family="Helvetica,sans-Serif" font-size="10.00" fill="#000000">amr&#45;wind/utilities</text>
<text text-anchor="middle" x="290.5" y="-186.5" font-family="Helvetica,sans-Serif" font-size="10.00" fill="#000000">/PostProcessing.H</text>
</a>
</g>
</g>
<!-- Node0&#45;&gt;Node1 -->
<g id="edge1" class="edge">
<title>Node0&#45;&gt;Node1</title>
<path fill="none" stroke="#191970" d="M732.5452,-302.484C648.5416,-281.9634 449.8955,-233.4376 350.0167,-209.0389"/>
<polygon fill="#191970" stroke="#191970" points="350.6293,-205.5857 340.0843,-206.6126 348.9681,-212.3857 350.6293,-205.5857"/>
</g>
<!-- Node8 -->
<g id="node9" class="node">
<title>Node8</title>
<g id="a_node9"><a xlink:href="_c_f_d_sim_8_h.html" target="_top" xlink:title="amr&#45;wind/CFDSim.H">
<polygon fill="#ffffff" stroke="#000000" points="717.5,-246.5 717.5,-265.5 825.5,-265.5 825.5,-246.5 717.5,-246.5"/>
<text text-anchor="middle" x="771.5" y="-253.5" font-family="Helvetica,sans-Serif" font-size="10.00" fill="#000000">amr&#45;wind/CFDSim.H</text>
</a>
</g>
</g>
<!-- Node0&#45;&gt;Node8 -->
<g id="edge9" class="edge">
<title>Node0&#45;&gt;Node8</title>
<path fill="none" stroke="#191970" d="M771.5,-302.2455C771.5,-294.9382 771.5,-284.6944 771.5,-275.7046"/>
<polygon fill="#191970" stroke="#191970" points="775.0001,-275.6426 771.5,-265.6427 768.0001,-275.6427 775.0001,-275.6426"/>
</g>
<!-- Node37 -->
<g id="node38" class="node">
<title>Node37</title>
<polygon fill="#ffffff" stroke="#bfbfbf" points="843.5,-246.5 843.5,-265.5 959.5,-265.5 959.5,-246.5 843.5,-246.5"/>
<text text-anchor="middle" x="901.5" y="-253.5" font-family="Helvetica,sans-Serif" font-size="10.00" fill="#000000">AMReX_ParmParse.H</text>
</g>
<!-- Node0&#45;&gt;Node37 -->
<g id="edge69" class="edge">
<title>Node0&#45;&gt;Node37</title>
<path fill="none" stroke="#191970" d="M793.8478,-302.3733C814.9033,-293.3032 846.6495,-279.6279 870.2175,-269.4755"/>
<polygon fill="#191970" stroke="#191970" points="871.6444,-272.6719 879.4438,-265.5011 868.875,-266.243 871.6444,-272.6719"/>
</g>
<!-- Node2 -->
<g id="node3" class="node">
<title>Node2</title>
<polygon fill="#ffffff" stroke="#bfbfbf" points="335.5,-56.5 335.5,-75.5 387.5,-75.5 387.5,-56.5 335.5,-56.5"/>
<text text-anchor="middle" x="361.5" y="-63.5" font-family="Helvetica,sans-Serif" font-size="10.00" fill="#000000">memory</text>
</g>
<!-- Node1&#45;&gt;Node2 -->
<g id="edge2" class="edge">
<title>Node1&#45;&gt;Node2</title>
<path fill="none" stroke="#191970" d="M256.7667,-179.3642C242.1998,-170.9147 226.6523,-158.8543 218.5,-143 212.1996,-130.7472 210.3853,-123.1346 218.5,-112 221.7814,-107.4974 284.417,-88.5044 325.6933,-76.3757"/>
<polygon fill="#191970" stroke="#191970" points="326.8086,-79.6962 335.4224,-73.5276 324.8419,-72.9781 326.8086,-79.6962"/>
</g>
<!-- Node3 -->
<g id="node4" class="node">
<title>Node3</title>
<g id="a_node4"><a xlink:href="_factory_8_h.html" target="_top" xlink:title="amr&#45;wind/core/Factory.H">
<polygon fill="#ffffff" stroke="#000000" points="228,-118 228,-137 353,-137 353,-118 228,-118"/>
<text text-anchor="middle" x="290.5" y="-125" font-family="Helvetica,sans-Serif" font-size="10.00" fill="#000000">amr&#45;wind/core/Factory.H</text>
</a>
</g>
</g>
<!-- Node1&#45;&gt;Node3 -->
<g id="edge3" class="edge">
<title>Node1&#45;&gt;Node3</title>
<path fill="none" stroke="#191970" d="M290.5,-179.2967C290.5,-169.7699 290.5,-157.3954 290.5,-147.1306"/>
<polygon fill="#191970" stroke="#191970" points="294.0001,-147.0549 290.5,-137.055 287.0001,-147.055 294.0001,-147.0549"/>
</g>
<!-- Node3&#45;&gt;Node2 -->
<g id="edge4" class="edge">
<title>Node3&#45;&gt;Node2</title>
<path fill="none" stroke="#191970" d="M301.5938,-117.8906C312.4715,-108.4683 329.2748,-93.9134 342.32,-82.6137"/>
<polygon fill="#191970" stroke="#191970" points="344.9827,-84.9377 350.2498,-75.7449 340.3996,-79.6466 344.9827,-84.9377"/>
</g>
<!-- Node4 -->
<g id="node5" class="node">
<title>Node4</title>
<polygon fill="#ffffff" stroke="#bfbfbf" points="675,-56.5 675,-75.5 758,-75.5 758,-56.5 675,-56.5"/>
<text text-anchor="middle" x="716.5" y="-63.5" font-family="Helvetica,sans-Serif" font-size="10.00" fill="#000000">unordered_map</text>
</g>
<!-- Node3&#45;&gt;Node4 -->
<g id="edge5" class="edge">
<title>Node3&#45;&gt;Node4</title>
<path fill="none" stroke="#191970" d="M353.3578,-118.4255C437.8595,-106.2263 586.507,-84.7666 664.8454,-73.4572"/>
<polygon fill="#191970" stroke="#191970" points="665.5625,-76.89 674.9598,-71.997 664.5623,-69.9618 665.5625,-76.89"/>
</g>
<!-- Node5 -->
<g id="node6" class="node">
<title>Node5</title>
<polygon fill="#ffffff" stroke="#bfbfbf" points="263.5,-56.5 263.5,-75.5 317.5,-75.5 317.5,-56.5 263.5,-56.5"/>
<text text-anchor="middle" x="290.5" y="-63.5" font-family="Helvetica,sans-Serif" font-size="10.00" fill="#000000">iostream</text>
</g>
<!-- Node3&#45;&gt;Node5 -->
<g id="edge6" class="edge">
<title>Node3&#45;&gt;Node5</title>
<path fill="none" stroke="#191970" d="M290.5,-117.8906C290.5,-109.3657 290.5,-96.6392 290.5,-85.9235"/>
<polygon fill="#191970" stroke="#191970" points="294.0001,-85.7448 290.5,-75.7449 287.0001,-85.7449 294.0001,-85.7448"/>
</g>
<!-- Node6 -->
<g id="node7" class="node">
<title>Node6</title>
<polygon fill="#ffffff" stroke="#bfbfbf" points="78,-56.5 78,-75.5 165,-75.5 165,-56.5 78,-56.5"/>
<text text-anchor="middle" x="121.5" y="-63.5" font-family="Helvetica,sans-Serif" font-size="10.00" fill="#000000">AMReX_Print.H</text>
</g>
<!-- Node3&#45;&gt;Node6 -->
<g id="edge7" class="edge">
<title>Node3&#45;&gt;Node6</title>
<path fill="none" stroke="#191970" d="M264.0938,-117.8906C235.3209,-107.42 189.1304,-90.6111 157.1534,-78.9745"/>
<polygon fill="#191970" stroke="#191970" points="158.3149,-75.6726 147.7208,-75.5419 155.921,-82.2506 158.3149,-75.6726"/>
</g>
<!-- Node7 -->
<g id="node8" class="node">
<title>Node7</title>
<polygon fill="#ffffff" stroke="#bfbfbf" points="183.5,-56.5 183.5,-75.5 245.5,-75.5 245.5,-56.5 183.5,-56.5"/>
<text text-anchor="middle" x="214.5" y="-63.5" font-family="Helvetica,sans-Serif" font-size="10.00" fill="#000000">AMReX.H</text>
</g>
<!-- Node3&#45;&gt;Node7 -->
<g id="edge8" class="edge">
<title>Node3&#45;&gt;Node7</title>
<path fill="none" stroke="#191970" d="M278.625,-117.8906C266.8703,-108.3786 248.6514,-93.6357 234.6328,-82.2917"/>
<polygon fill="#191970" stroke="#191970" points="236.5178,-79.3146 226.5424,-75.7449 232.1144,-84.7562 236.5178,-79.3146"/>
</g>
<!-- Node9 -->
<g id="node10" class="node">
<title>Node9</title>
<polygon fill="#ffffff" stroke="#bfbfbf" points="1179.5,-118 1179.5,-137 1285.5,-137 1285.5,-118 1179.5,-118"/>
<text text-anchor="middle" x="1232.5" y="-125" font-family="Helvetica,sans-Serif" font-size="10.00" fill="#000000">AMReX_AmrCore.H</text>
</g>
<!-- Node8&#45;&gt;Node9 -->
<g id="edge10" class="edge">
<title>Node8&#45;&gt;Node9</title>
<path fill="none" stroke="#191970" d="M825.9309,-247.4162C872.8693,-239.4683 942.2419,-226.4135 1001.5,-210 1073.6116,-190.0263 1155.5578,-158.6051 1199.8662,-140.8607"/>
<polygon fill="#191970" stroke="#191970" points="1201.2845,-144.0627 1209.2529,-137.0802 1198.6694,-137.5695 1201.2845,-144.0627"/>
</g>
<!-- Node10 -->
<g id="node11" class="node">
<title>Node10</title>
<g id="a_node11"><a xlink:href="_sim_time_8_h.html" target="_top" xlink:title="amr&#45;wind/core/SimTime.H">
<polygon fill="#ffffff" stroke="#000000" points="861,-185 861,-204 992,-204 992,-185 861,-185"/>
<text text-anchor="middle" x="926.5" y="-192" font-family="Helvetica,sans-Serif" font-size="10.00" fill="#000000">amr&#45;wind/core/SimTime.H</text>
</a>
</g>
</g>
<!-- Node8&#45;&gt;Node10 -->
<g id="edge11" class="edge">
<title>Node8&#45;&gt;Node10</title>
<path fill="none" stroke="#191970" d="M795.7188,-246.3906C821.8806,-236.0103 863.7429,-219.4004 893.0388,-207.7766"/>
<polygon fill="#191970" stroke="#191970" points="894.4471,-210.9833 902.4513,-204.0419 891.8654,-204.4767 894.4471,-210.9833"/>
</g>
<!-- Node14 -->
<g id="node15" class="node">
<title>Node14</title>
<g id="a_node15"><a xlink:href="_field_repo_8_h.html" target="_top" xlink:title="amr&#45;wind/core/FieldRepo.H">
<polygon fill="#ffffff" stroke="#000000" points="1554.5,-185 1554.5,-204 1690.5,-204 1690.5,-185 1554.5,-185"/>
<text text-anchor="middle" x="1622.5" y="-192" font-family="Helvetica,sans-Serif" font-size="10.00" fill="#000000">amr&#45;wind/core/FieldRepo.H</text>
</a>
</g>
</g>
<!-- Node8&#45;&gt;Node14 -->
<g id="edge15" class="edge">
<title>Node8&#45;&gt;Node14</title>
<path fill="none" stroke="#191970" d="M825.7531,-247.0632C828.7084,-246.678 831.6385,-246.3199 834.5,-246 1093.3659,-217.0583 1402.0296,-202.7089 1543.987,-197.2334"/>
<polygon fill="#191970" stroke="#191970" points="1544.4686,-200.7177 1554.3279,-196.8389 1544.2017,-193.7228 1544.4686,-200.7177"/>
</g>
<!-- Node31 -->
<g id="node32" class="node">
<title>Node31</title>
<g id="a_node32"><a xlink:href="_p_d_e_base_8_h.html" target="_top" xlink:title="amr&#45;wind/equation_systems\l/PDEBase.H">
<polygon fill="#ffffff" stroke="#000000" points="403,-179.5 403,-209.5 542,-209.5 542,-179.5 403,-179.5"/>
<text text-anchor="start" x="411" y="-197.5" font-family="Helvetica,sans-Serif" font-size="10.00" fill="#000000">amr&#45;wind/equation_systems</text>
<text text-anchor="middle" x="472.5" y="-186.5" font-family="Helvetica,sans-Serif" font-size="10.00" fill="#000000">/PDEBase.H</text>
</a>
</g>
</g>
<!-- Node8&#45;&gt;Node31 -->
<g id="edge52" class="edge">
<title>Node8&#45;&gt;Node31</title>
<path fill="none" stroke="#191970" d="M725.1093,-246.4581C679.0152,-236.9772 607.424,-222.2519 552.2088,-210.895"/>
<polygon fill="#191970" stroke="#191970" points="552.5995,-207.4021 542.0993,-208.8156 551.1891,-214.2586 552.5995,-207.4021"/>
</g>
<!-- Node35 -->
<g id="node36" class="node">
<title>Node35</title>
<g id="a_node36"><a xlink:href="_physics_8_h.html" target="_top" xlink:title="amr&#45;wind/core/Physics.H">
<polygon fill="#ffffff" stroke="#000000" points="621,-185 621,-204 748,-204 748,-185 621,-185"/>
<text text-anchor="middle" x="684.5" y="-192" font-family="Helvetica,sans-Serif" font-size="10.00" fill="#000000">amr&#45;wind/core/Physics.H</text>
</a>
</g>
</g>
<!-- Node8&#45;&gt;Node35 -->
<g id="edge64" class="edge">
<title>Node8&#45;&gt;Node35</title>
<path fill="none" stroke="#191970" d="M757.9063,-246.3906C744.1157,-236.6421 722.5528,-221.3994 706.359,-209.9521"/>
<polygon fill="#191970" stroke="#191970" points="708.1844,-206.9563 697.9983,-204.0419 704.1437,-212.6723 708.1844,-206.9563"/>
</g>
<!-- Node11 -->
<g id="node12" class="node">
<title>Node11</title>
<polygon fill="#ffffff" stroke="#bfbfbf" points="1068,-118 1068,-137 1161,-137 1161,-118 1068,-118"/>
<text text-anchor="middle" x="1114.5" y="-125" font-family="Helvetica,sans-Serif" font-size="10.00" fill="#000000">AMReX_REAL.H</text>
</g>
<!-- Node10&#45;&gt;Node11 -->
<g id="edge12" class="edge">
<title>Node10&#45;&gt;Node11</title>
<path fill="none" stroke="#191970" d="M953.4358,-184.9005C986.1033,-173.2584 1041.3188,-153.5805 1077.8425,-140.5641"/>
<polygon fill="#191970" stroke="#191970" points="1079.3694,-143.7356 1087.6142,-137.0817 1077.0195,-137.1418 1079.3694,-143.7356"/>
</g>
<!-- Node12 -->
<g id="node13" class="node">
<title>Node12</title>
<polygon fill="#ffffff" stroke="#bfbfbf" points="795.5,-118 795.5,-137 921.5,-137 921.5,-118 795.5,-118"/>
<text text-anchor="middle" x="858.5" y="-125" font-family="Helvetica,sans-Serif" font-size="10.00" fill="#000000">AMReX_GpuQualifiers.H</text>
</g>
<!-- Node10&#45;&gt;Node12 -->
<g id="edge13" class="edge">
<title>Node10&#45;&gt;Node12</title>
<path fill="none" stroke="#191970" d="M916.7573,-184.9005C906.0523,-174.353 888.653,-157.2096 875.6521,-144.3998"/>
<polygon fill="#191970" stroke="#191970" points="877.8044,-141.607 868.2247,-137.0817 872.8915,-146.5933 877.8044,-141.607"/>
</g>
<!-- Node13 -->
<g id="node14" class="node">
<title>Node13</title>
<polygon fill="#ffffff" stroke="#bfbfbf" points="939.5,-118 939.5,-137 1049.5,-137 1049.5,-118 939.5,-118"/>
<text text-anchor="middle" x="994.5" y="-125" font-family="Helvetica,sans-Serif" font-size="10.00" fill="#000000">AMReX_Extension.H</text>
</g>
<!-- Node10&#45;&gt;Node13 -->
<g id="edge14" class="edge">
<title>Node10&#45;&gt;Node13</title>
<path fill="none" stroke="#191970" d="M936.2427,-184.9005C946.9477,-174.353 964.347,-157.2096 977.3479,-144.3998"/>
<polygon fill="#191970" stroke="#191970" points="980.1085,-146.5933 984.7753,-137.0817 975.1956,-141.607 980.1085,-146.5933"/>
</g>
<!-- Node14&#45;&gt;Node4 -->
<g id="edge17" class="edge">
<title>Node14&#45;&gt;Node4</title>
<path fill="none" stroke="#191970" d="M1554.4363,-190.7023C1495.1269,-185.4347 1407.8425,-172.8817 1337.5,-143 1315.8157,-133.7884 1316.6576,-120.0065 1294.5,-112 1185.1448,-72.485 887.9002,-90.2408 772.5,-76 771.0298,-75.8186 769.5395,-75.6241 768.0367,-75.4186"/>
<polygon fill="#191970" stroke="#191970" points="768.4206,-71.9373 758.0143,-73.9273 767.3903,-78.8611 768.4206,-71.9373"/>
</g>
<!-- Node14&#45;&gt;Node9 -->
<g id="edge49" class="edge">
<title>Node14&#45;&gt;Node9</title>
<path fill="none" stroke="#191970" d="M1554.2035,-185.0124C1488.6616,-175.577 1387.0014,-160.0759 1299.5,-143 1293.7197,-141.872 1287.6793,-140.6032 1281.6938,-139.2897"/>
<polygon fill="#191970" stroke="#191970" points="1282.2515,-135.8279 1271.7279,-137.0541 1280.7192,-142.6582 1282.2515,-135.8279"/>
</g>
<!-- Node15 -->
<g id="node16" class="node">
<title>Node15</title>
<polygon fill="#ffffff" stroke="#bfbfbf" points="1024,-.5 1024,-19.5 1065,-19.5 1065,-.5 1024,-.5"/>
<text text-anchor="middle" x="1044.5" y="-7.5" font-family="Helvetica,sans-Serif" font-size="10.00" fill="#000000">string</text>
</g>
<!-- Node14&#45;&gt;Node15 -->
<g id="edge16" class="edge">
<title>Node14&#45;&gt;Node15</title>
<path fill="none" stroke="#191970" d="M1554.2782,-188.5549C1502.3675,-182.1493 1430.1149,-169.1129 1371.5,-143 1350.3073,-133.5587 1351.2764,-120.0037 1329.5,-112 1274.7232,-91.8672 845.3271,-118.6572 805.5,-76 799.4338,-69.5028 799.8397,-62.8537 805.5,-56 831.5906,-24.4089 955.3054,-14.283 1013.7638,-11.2299"/>
<polygon fill="#191970" stroke="#191970" points="1014.0632,-14.7195 1023.8817,-10.7385 1013.7236,-7.7278 1014.0632,-14.7195"/>
</g>
<!-- Node16 -->
<g id="node17" class="node">
<title>Node16</title>
<g id="a_node17"><a xlink:href="_field_desc_types_8_h.html" target="_top" xlink:title="amr&#45;wind/core/FieldDescTypes.H">
<polygon fill="#ffffff" stroke="#000000" points="1710,-.5 1710,-19.5 1873,-19.5 1873,-.5 1710,-.5"/>
<text text-anchor="middle" x="1791.5" y="-7.5" font-family="Helvetica,sans-Serif" font-size="10.00" fill="#000000">amr&#45;wind/core/FieldDescTypes.H</text>
</a>
</g>
</g>
<!-- Node14&#45;&gt;Node16 -->
<g id="edge18" class="edge">
<title>Node14&#45;&gt;Node16</title>
<path fill="none" stroke="#191970" d="M1669.8264,-184.9229C1695.6081,-177.4705 1726.2836,-164.6269 1746.5,-143 1776.4785,-110.9299 1786.5483,-58.1602 1789.8842,-29.6863"/>
<polygon fill="#191970" stroke="#191970" points="1793.3665,-30.0375 1790.8875,-19.7368 1786.4018,-29.3351 1793.3665,-30.0375"/>
</g>
<!-- Node17 -->
<g id="node18" class="node">
<title>Node17</title>
<g id="a_node18"><a xlink:href="_field_utils_8_h.html" target="_top" xlink:title="amr&#45;wind/core/FieldUtils.H">
<polygon fill="#ffffff" stroke="#000000" points="2097,-56.5 2097,-75.5 2230,-75.5 2230,-56.5 2097,-56.5"/>
<text text-anchor="middle" x="2163.5" y="-63.5" font-family="Helvetica,sans-Serif" font-size="10.00" fill="#000000">amr&#45;wind/core/FieldUtils.H</text>
</a>
</g>
</g>
<!-- Node14&#45;&gt;Node17 -->
<g id="edge19" class="edge">
<title>Node14&#45;&gt;Node17</title>
<path fill="none" stroke="#191970" d="M1690.7293,-190.0234C1793.5056,-182.6384 1982.7985,-166.3588 2046.5,-143 2084.7941,-128.9579 2123.1352,-100.2606 2145.0218,-82.1409"/>
<polygon fill="#191970" stroke="#191970" points="2147.4503,-84.6711 2152.8294,-75.5433 2142.9322,-79.3244 2147.4503,-84.6711"/>
</g>
<!-- Node18 -->
<g id="node19" class="node">
<title>Node18</title>
<polygon fill="#ffffff" stroke="#bfbfbf" points="1545.5,-.5 1545.5,-19.5 1649.5,-19.5 1649.5,-.5 1545.5,-.5"/>
<text text-anchor="middle" x="1597.5" y="-7.5" font-family="Helvetica,sans-Serif" font-size="10.00" fill="#000000">AMReX_MultiFab.H</text>
</g>
<!-- Node14&#45;&gt;Node18 -->
<g id="edge50" class="edge">
<title>Node14&#45;&gt;Node18</title>
<path fill="none" stroke="#191970" d="M1644.1479,-184.8985C1689.969,-163.2486 1789.4752,-108.4166 1750.5,-56 1739.2573,-40.8801 1696.8563,-28.8529 1659.5347,-20.8942"/>
<polygon fill="#191970" stroke="#191970" points="1660.1781,-17.4533 1649.6769,-18.8588 1658.7626,-24.3087 1660.1781,-17.4533"/>
</g>
<!-- Node20 -->
<g id="node21" class="node">
<title>Node20</title>
<g id="a_node21"><a xlink:href="_field_8_h.html" target="_top" xlink:title="amr&#45;wind/core/Field.H">
<polygon fill="#ffffff" stroke="#000000" points="1380,-118 1380,-137 1493,-137 1493,-118 1380,-118"/>
<text text-anchor="middle" x="1436.5" y="-125" font-family="Helvetica,sans-Serif" font-size="10.00" fill="#000000">amr&#45;wind/core/Field.H</text>
</a>
</g>
</g>
<!-- Node14&#45;&gt;Node20 -->
<g id="edge23" class="edge">
<title>Node14&#45;&gt;Node20</title>
<path fill="none" stroke="#191970" d="M1595.8507,-184.9005C1563.5308,-173.2584 1508.9026,-153.5805 1472.7675,-140.5641"/>
<polygon fill="#191970" stroke="#191970" points="1473.6942,-137.1778 1463.0998,-137.0817 1471.3219,-143.7636 1473.6942,-137.1778"/>
</g>
<!-- Node27 -->
<g id="node28" class="node">
<title>Node27</title>
<g id="a_node28"><a xlink:href="_int_field_8_h.html" target="_top" xlink:title="amr&#45;wind/core/IntField.H">
<polygon fill="#ffffff" stroke="#000000" points="1895.5,-118 1895.5,-137 2019.5,-137 2019.5,-118 1895.5,-118"/>
<text text-anchor="middle" x="1957.5" y="-125" font-family="Helvetica,sans-Serif" font-size="10.00" fill="#000000">amr&#45;wind/core/IntField.H</text>
</a>
</g>
</g>
<!-- Node14&#45;&gt;Node27 -->
<g id="edge38" class="edge">
<title>Node14&#45;&gt;Node27</title>
<path fill="none" stroke="#191970" d="M1670.7263,-184.984C1722.7511,-174.7014 1808.0179,-157.7988 1881.5,-143 1887.7375,-141.7438 1894.2615,-140.4233 1900.7537,-139.105"/>
<polygon fill="#191970" stroke="#191970" points="1901.7822,-142.4676 1910.884,-137.0448 1900.3871,-135.608 1901.7822,-142.4676"/>
</g>
<!-- Node28 -->
<g id="node29" class="node">
<title>Node28</title>
<polygon fill="#ffffff" stroke="#bfbfbf" points="1972,-56.5 1972,-75.5 2079,-75.5 2079,-56.5 1972,-56.5"/>
<text text-anchor="middle" x="2025.5" y="-63.5" font-family="Helvetica,sans-Serif" font-size="10.00" fill="#000000">AMReX_iMultiFab.H</text>
</g>
<!-- Node14&#45;&gt;Node28 -->
<g id="edge51" class="edge">
<title>Node14&#45;&gt;Node28</title>
<path fill="none" stroke="#191970" d="M1690.7393,-190.6969C1800.5787,-183.8711 2006.5694,-167.8882 2028.5,-143 2042.1967,-127.4562 2038.2248,-102.5414 2032.9485,-85.281"/>
<polygon fill="#191970" stroke="#191970" points="2036.206,-83.991 2029.641,-75.6753 2029.5874,-86.27 2036.206,-83.991"/>
</g>
<!-- Node29 -->
<g id="node30" class="node">
<title>Node29</title>
<g id="a_node30"><a xlink:href="_scratch_field_8_h.html" target="_top" xlink:title="amr&#45;wind/core/ScratchField.H">
<polygon fill="#ffffff" stroke="#000000" points="1549.5,-118 1549.5,-137 1695.5,-137 1695.5,-118 1549.5,-118"/>
<text text-anchor="middle" x="1622.5" y="-125" font-family="Helvetica,sans-Serif" font-size="10.00" fill="#000000">amr&#45;wind/core/ScratchField.H</text>
</a>
</g>
</g>
<!-- Node14&#45;&gt;Node29 -->
<g id="edge42" class="edge">
<title>Node14&#45;&gt;Node29</title>
<path fill="none" stroke="#191970" d="M1622.5,-184.9005C1622.5,-175.149 1622.5,-159.7597 1622.5,-147.3695"/>
<polygon fill="#191970" stroke="#191970" points="1626.0001,-147.0816 1622.5,-137.0817 1619.0001,-147.0817 1626.0001,-147.0816"/>
</g>
<!-- Node17&#45;&gt;Node16 -->
<g id="edge20" class="edge">
<title>Node17&#45;&gt;Node16</title>
<path fill="none" stroke="#191970" d="M2099.9736,-56.4369C2034.8374,-46.6314 1933.6285,-31.3957 1865.0573,-21.0731"/>
<polygon fill="#191970" stroke="#191970" points="1865.174,-17.5514 1854.7644,-19.5237 1864.1319,-24.4734 1865.174,-17.5514"/>
</g>
<!-- Node17&#45;&gt;Node18 -->
<g id="edge21" class="edge">
<title>Node17&#45;&gt;Node18</title>
<path fill="none" stroke="#191970" d="M2096.8607,-56.9748C2094.0371,-56.6366 2091.2411,-56.3101 2088.5,-56 1916.8524,-36.581 1873.475,-36.2668 1701.5,-20 1688.0452,-18.7273 1673.6127,-17.3484 1659.9114,-16.0329"/>
<polygon fill="#191970" stroke="#191970" points="1659.8938,-12.5151 1649.6047,-15.042 1659.2239,-19.483 1659.8938,-12.5151"/>
</g>
<!-- Node19 -->
<g id="node20" class="node">
<title>Node19</title>
<polygon fill="#ffffff" stroke="#bfbfbf" points="2105.5,-.5 2105.5,-19.5 2221.5,-19.5 2221.5,-.5 2105.5,-.5"/>
<text text-anchor="middle" x="2163.5" y="-7.5" font-family="Helvetica,sans-Serif" font-size="10.00" fill="#000000">AMReX_Interpolater.H</text>
</g>
<!-- Node17&#45;&gt;Node19 -->
<g id="edge22" class="edge">
<title>Node17&#45;&gt;Node19</title>
<path fill="none" stroke="#191970" d="M2163.5,-56.2455C2163.5,-48.9382 2163.5,-38.6944 2163.5,-29.7046"/>
<polygon fill="#191970" stroke="#191970" points="2167.0001,-29.6426 2163.5,-19.6427 2160.0001,-29.6427 2167.0001,-29.6426"/>
</g>
<!-- Node20&#45;&gt;Node2 -->
<g id="edge25" class="edge">
<title>Node20&#45;&gt;Node2</title>
<path fill="none" stroke="#191970" d="M1379.9118,-120.5428C1353.9245,-117.5486 1322.6829,-114.2309 1294.5,-112 945.7566,-84.3939 522.2842,-70.6501 397.6361,-67.0081"/>
<polygon fill="#191970" stroke="#191970" points="397.605,-63.5058 387.508,-66.7153 397.4027,-70.5029 397.605,-63.5058"/>
</g>
<!-- Node20&#45;&gt;Node4 -->
<g id="edge26" class="edge">
<title>Node20&#45;&gt;Node4</title>
<path fill="none" stroke="#191970" d="M1379.7422,-118.6353C1362.9525,-116.228 1344.5127,-113.7939 1327.5,-112 1096.231,-87.6141 1037.1021,-96.9878 805.5,-76 793.4022,-74.9037 780.3996,-73.5452 768.171,-72.1866"/>
<polygon fill="#191970" stroke="#191970" points="768.4476,-68.6957 758.118,-71.0512 767.662,-75.6515 768.4476,-68.6957"/>
</g>
<!-- Node20&#45;&gt;Node15 -->
<g id="edge24" class="edge">
<title>Node20&#45;&gt;Node15</title>
<path fill="none" stroke="#191970" d="M1396.0803,-117.9738C1386.1189,-115.8204 1375.453,-113.6776 1365.5,-112 1299.0715,-100.803 1116.1195,-119.2846 1064.5,-76 1051.1944,-64.8428 1046.5457,-45.1444 1045.0156,-30.1633"/>
<polygon fill="#191970" stroke="#191970" points="1048.4874,-29.605 1044.3618,-19.8464 1041.5014,-30.0478 1048.4874,-29.605"/>
</g>
<!-- Node20&#45;&gt;Node16 -->
<g id="edge32" class="edge">
<title>Node20&#45;&gt;Node16</title>
<path fill="none" stroke="#191970" d="M1453.7658,-117.8555C1481.4342,-102.7537 1537.758,-73.4519 1588.5,-56 1632.7606,-40.7772 1684.1991,-29.183 1724.222,-21.4425"/>
<polygon fill="#191970" stroke="#191970" points="1724.9693,-24.8632 1734.14,-19.5577 1723.6624,-17.9863 1724.9693,-24.8632"/>
</g>
<!-- Node20&#45;&gt;Node18 -->
<g id="edge28" class="edge">
<title>Node20&#45;&gt;Node18</title>
<path fill="none" stroke="#191970" d="M1412.4316,-117.9017C1383.2518,-104.8904 1340.3313,-80.4597 1360.5,-56 1371.628,-42.5045 1469.0156,-27.05 1535.4362,-17.9295"/>
<polygon fill="#191970" stroke="#191970" points="1535.9663,-21.3897 1545.4045,-16.5761 1535.0245,-14.4534 1535.9663,-21.3897"/>
</g>
<!-- Node21 -->
<g id="node22" class="node">
<title>Node21</title>
<polygon fill="#ffffff" stroke="#bfbfbf" points="960.5,-56.5 960.5,-75.5 1016.5,-75.5 1016.5,-56.5 960.5,-56.5"/>
<text text-anchor="middle" x="988.5" y="-63.5" font-family="Helvetica,sans-Serif" font-size="10.00" fill="#000000">algorithm</text>
</g>
<!-- Node20&#45;&gt;Node21 -->
<g id="edge27" class="edge">
<title>Node20&#45;&gt;Node21</title>
<path fill="none" stroke="#191970" d="M1396.4675,-117.9699C1386.3993,-115.7915 1375.5874,-113.6382 1365.5,-112 1217.6903,-87.9957 1178.0774,-101.3931 1030.5,-76 1029.2535,-75.7855 1027.9887,-75.5558 1026.7137,-75.3139"/>
<polygon fill="#191970" stroke="#191970" points="1027.3688,-71.8754 1016.8659,-73.2684 1025.9451,-78.7291 1027.3688,-71.8754"/>
</g>
<!-- Node22 -->
<g id="node23" class="node">
<title>Node22</title>
<polygon fill="#ffffff" stroke="#bfbfbf" points="1073,-56.5 1073,-75.5 1172,-75.5 1172,-56.5 1073,-56.5"/>
<text text-anchor="middle" x="1122.5" y="-63.5" font-family="Helvetica,sans-Serif" font-size="10.00" fill="#000000">AMReX_BCRec.H</text>
</g>
<!-- Node20&#45;&gt;Node22 -->
<g id="edge29" class="edge">
<title>Node20&#45;&gt;Node22</title>
<path fill="none" stroke="#191970" d="M1393.7396,-117.9632C1384.4404,-115.9457 1374.6484,-113.8641 1365.5,-112 1303.1136,-99.2879 1231.4702,-85.8688 1182.2253,-76.8268"/>
<polygon fill="#191970" stroke="#191970" points="1182.8437,-73.3819 1172.3766,-75.022 1181.5819,-80.2672 1182.8437,-73.3819"/>
</g>
<!-- Node23 -->
<g id="node24" class="node">
<title>Node23</title>
<polygon fill="#ffffff" stroke="#bfbfbf" points="1190,-56.5 1190,-75.5 1275,-75.5 1275,-56.5 1190,-56.5"/>
<text text-anchor="middle" x="1232.5" y="-63.5" font-family="Helvetica,sans-Serif" font-size="10.00" fill="#000000">AMReX_Gpu.H</text>
</g>
<!-- Node20&#45;&gt;Node23 -->
<g id="edge30" class="edge">
<title>Node20&#45;&gt;Node23</title>
<path fill="none" stroke="#191970" d="M1404.625,-117.8906C1369.4441,-107.2846 1312.6912,-90.1753 1274.0485,-78.5257"/>
<polygon fill="#191970" stroke="#191970" points="1274.7358,-75.0773 1264.1512,-75.5419 1272.7153,-81.7794 1274.7358,-75.0773"/>
</g>
<!-- Node24 -->
<g id="node25" class="node">
<title>Node24</title>
<g id="a_node25"><a xlink:href="incflo__enums_8_h.html" target="_top" xlink:title="amr&#45;wind/incflo_enums.H">
<polygon fill="#ffffff" stroke="#000000" points="814.5,-56.5 814.5,-75.5 942.5,-75.5 942.5,-56.5 814.5,-56.5"/>
<text text-anchor="middle" x="878.5" y="-63.5" font-family="Helvetica,sans-Serif" font-size="10.00" fill="#000000">amr&#45;wind/incflo_enums.H</text>
</a>
</g>
</g>
<!-- Node20&#45;&gt;Node24 -->
<g id="edge31" class="edge">
<title>Node20&#45;&gt;Node24</title>
<path fill="none" stroke="#191970" d="M1397.2345,-117.9873C1386.956,-115.7561 1375.853,-113.5736 1365.5,-112 1186.1125,-84.7345 1136.7727,-96.1197 952.5894,-76.0663"/>
<polygon fill="#191970" stroke="#191970" points="952.8957,-72.5789 942.5718,-74.9592 952.1268,-79.5365 952.8957,-72.5789"/>
</g>
<!-- Node25 -->
<g id="node26" class="node">
<title>Node25</title>
<g id="a_node26"><a xlink:href="_view_field_8_h.html" target="_top" xlink:title="amr&#45;wind/core/ViewField.H">
<polygon fill="#ffffff" stroke="#000000" points="1369.5,-56.5 1369.5,-75.5 1503.5,-75.5 1503.5,-56.5 1369.5,-56.5"/>
<text text-anchor="middle" x="1436.5" y="-63.5" font-family="Helvetica,sans-Serif" font-size="10.00" fill="#000000">amr&#45;wind/core/ViewField.H</text>
</a>
</g>
</g>
<!-- Node20&#45;&gt;Node25 -->
<g id="edge33" class="edge">
<title>Node20&#45;&gt;Node25</title>
<path fill="none" stroke="#191970" d="M1436.5,-117.8906C1436.5,-109.3657 1436.5,-96.6392 1436.5,-85.9235"/>
<polygon fill="#191970" stroke="#191970" points="1440.0001,-85.7448 1436.5,-75.7449 1433.0001,-85.7449 1440.0001,-85.7448"/>
</g>
<!-- Node25&#45;&gt;Node15 -->
<g id="edge34" class="edge">
<title>Node25&#45;&gt;Node15</title>
<path fill="none" stroke="#191970" d="M1369.5582,-56.4369C1283.7723,-44.1818 1138.6087,-23.4441 1075.4245,-14.4178"/>
<polygon fill="#191970" stroke="#191970" points="1075.7036,-10.9222 1065.3091,-12.9727 1074.7136,-17.8518 1075.7036,-10.9222"/>
</g>
<!-- Node25&#45;&gt;Node16 -->
<g id="edge35" class="edge">
<title>Node25&#45;&gt;Node16</title>
<path fill="none" stroke="#191970" d="M1497.1233,-56.4369C1559.1552,-46.6516 1655.4701,-31.4582 1720.9007,-21.1368"/>
<polygon fill="#191970" stroke="#191970" points="1721.7943,-24.5392 1731.1267,-19.5237 1720.7035,-17.6247 1721.7943,-24.5392"/>
</g>
<!-- Node25&#45;&gt;Node18 -->
<g id="edge36" class="edge">
<title>Node25&#45;&gt;Node18</title>
<path fill="none" stroke="#191970" d="M1464.1769,-56.3733C1490.8328,-47.1016 1531.3238,-33.0178 1560.6884,-22.804"/>
<polygon fill="#191970" stroke="#191970" points="1561.8891,-26.0921 1570.1843,-19.5011 1559.5895,-19.4807 1561.8891,-26.0921"/>
</g>
<!-- Node26 -->
<g id="node27" class="node">
<title>Node26</title>
<polygon fill="#ffffff" stroke="#bfbfbf" points="1389,-.5 1389,-19.5 1484,-19.5 1484,-.5 1389,-.5"/>
<text text-anchor="middle" x="1436.5" y="-7.5" font-family="Helvetica,sans-Serif" font-size="10.00" fill="#000000">AMReX_Vector.H</text>
</g>
<!-- Node25&#45;&gt;Node26 -->
<g id="edge37" class="edge">
<title>Node25&#45;&gt;Node26</title>
<path fill="none" stroke="#191970" d="M1436.5,-56.2455C1436.5,-48.9382 1436.5,-38.6944 1436.5,-29.7046"/>
<polygon fill="#191970" stroke="#191970" points="1440.0001,-29.6426 1436.5,-19.6427 1433.0001,-29.6427 1440.0001,-29.6426"/>
</g>
<!-- Node27&#45;&gt;Node15 -->
<g id="edge39" class="edge">
<title>Node27&#45;&gt;Node15</title>
<path fill="none" stroke="#191970" d="M1934.2296,-117.9488C1894.2001,-101.9969 1809.382,-70.2787 1734.5,-56 1605.2704,-31.3582 1191.614,-15.1948 1075.2292,-11.0528"/>
<polygon fill="#191970" stroke="#191970" points="1075.333,-7.5544 1065.2159,-10.7002 1075.0865,-14.5501 1075.333,-7.5544"/>
</g>
<!-- Node27&#45;&gt;Node16 -->
<g id="edge40" class="edge">
<title>Node27&#45;&gt;Node16</title>
<path fill="none" stroke="#191970" d="M1954.8134,-117.732C1950.1299,-102.461 1939.0539,-72.9315 1919.5,-56 1900.9174,-39.9095 1876.2832,-29.2988 1853.5913,-22.3719"/>
<polygon fill="#191970" stroke="#191970" points="1854.2479,-18.9194 1843.6708,-19.5329 1852.3219,-25.6492 1854.2479,-18.9194"/>
</g>
<!-- Node27&#45;&gt;Node28 -->
<g id="edge41" class="edge">
<title>Node27&#45;&gt;Node28</title>
<path fill="none" stroke="#191970" d="M1968.125,-117.8906C1978.5431,-108.4683 1994.6364,-93.9134 2007.1304,-82.6137"/>
<polygon fill="#191970" stroke="#191970" points="2009.6562,-85.0484 2014.7252,-75.7449 2004.9608,-79.8568 2009.6562,-85.0484"/>
</g>
<!-- Node29&#45;&gt;Node15 -->
<g id="edge43" class="edge">
<title>Node29&#45;&gt;Node15</title>
<path fill="none" stroke="#191970" d="M1568.8498,-117.9807C1515.7446,-108.3169 1432.2244,-92.4693 1360.5,-76 1326.4581,-68.1833 1318.5602,-63.7363 1284.5,-56 1209.6559,-39.0002 1120.7396,-23.0552 1075.0162,-15.1637"/>
<polygon fill="#191970" stroke="#191970" points="1075.5926,-11.7115 1065.1446,-13.4695 1074.4085,-18.6107 1075.5926,-11.7115"/>
</g>
<!-- Node29&#45;&gt;Node16 -->
<g id="edge44" class="edge">
<title>Node29&#45;&gt;Node16</title>
<path fill="none" stroke="#191970" d="M1664.066,-117.9738C1690.9912,-110.1797 1725.5572,-96.9547 1750.5,-76 1765.4598,-63.4321 1776.6163,-43.9577 1783.4843,-29.4154"/>
<polygon fill="#191970" stroke="#191970" points="1786.8643,-30.4275 1787.7204,-19.8673 1780.4657,-27.5887 1786.8643,-30.4275"/>
</g>
<!-- Node29&#45;&gt;Node18 -->
<g id="edge46" class="edge">
<title>Node29&#45;&gt;Node18</title>
<path fill="none" stroke="#191970" d="M1665.5374,-117.9316C1705.6723,-106.9142 1756.3184,-86.3413 1734.5,-56 1724.6436,-42.2933 1687.2893,-30.2854 1654.0721,-21.978"/>
<polygon fill="#191970" stroke="#191970" points="1654.4742,-18.4742 1643.9312,-19.5209 1652.8257,-25.2774 1654.4742,-18.4742"/>
</g>
<!-- Node29&#45;&gt;Node25 -->
<g id="edge45" class="edge">
<title>Node29&#45;&gt;Node25</title>
<path fill="none" stroke="#191970" d="M1593.4375,-117.8906C1561.6338,-107.3749 1510.4949,-90.466 1475.2856,-78.8243"/>
<polygon fill="#191970" stroke="#191970" points="1475.9517,-75.3582 1465.3584,-75.5419 1473.7541,-82.0043 1475.9517,-75.3582"/>
</g>
<!-- Node29&#45;&gt;Node26 -->
<g id="edge47" class="edge">
<title>Node29&#45;&gt;Node26</title>
<path fill="none" stroke="#191970" d="M1608.005,-117.8665C1587.0554,-103.9916 1547.0362,-77.6682 1512.5,-56 1495.514,-45.3429 1476.1784,-33.6457 1461.261,-24.7137"/>
<polygon fill="#191970" stroke="#191970" points="1462.9844,-21.6663 1452.6044,-19.5436 1459.3951,-27.676 1462.9844,-21.6663"/>
</g>
<!-- Node30 -->
<g id="node31" class="node">
<title>Node30</title>
<polygon fill="#ffffff" stroke="#bfbfbf" points="1597.5,-56.5 1597.5,-75.5 1725.5,-75.5 1725.5,-56.5 1597.5,-56.5"/>
<text text-anchor="middle" x="1661.5" y="-63.5" font-family="Helvetica,sans-Serif" font-size="10.00" fill="#000000">AMReX_PhysBCFunct.H</text>
</g>
<!-- Node29&#45;&gt;Node30 -->
<g id="edge48" class="edge">
<title>Node29&#45;&gt;Node30</title>
<path fill="none" stroke="#191970" d="M1628.5938,-117.8906C1634.2843,-108.917 1642.9272,-95.2879 1649.9274,-84.2491"/>
<polygon fill="#191970" stroke="#191970" points="1652.9207,-86.0644 1655.3203,-75.7449 1647.0091,-82.3155 1652.9207,-86.0644"/>
</g>
<!-- Node31&#45;&gt;Node3 -->
<g id="edge54" class="edge">
<title>Node31&#45;&gt;Node3</title>
<path fill="none" stroke="#191970" d="M431.6556,-179.4639C399.9238,-167.7824 356.3593,-151.7449 326.0534,-140.5884"/>
<polygon fill="#191970" stroke="#191970" points="326.9138,-137.1755 316.3203,-137.0053 324.4955,-143.7445 326.9138,-137.1755"/>
</g>
<!-- Node31&#45;&gt;Node15 -->
<g id="edge53" class="edge">
<title>Node31&#45;&gt;Node15</title>
<path fill="none" stroke="#191970" d="M438.7667,-179.3642C424.1998,-170.9147 408.6523,-158.8543 400.5,-143 394.1996,-130.7472 393.2777,-123.7331 400.5,-112 429.4653,-64.9442 458.3453,-71.0933 511.5,-56 606.9836,-28.8874 914.5692,-14.9825 1013.5241,-11.1303"/>
<polygon fill="#191970" stroke="#191970" points="1013.8921,-14.6189 1023.751,-10.7393 1013.6246,-7.624 1013.8921,-14.6189"/>
</g>
<!-- Node31&#45;&gt;Node16 -->
<g id="edge62" class="edge">
<title>Node31&#45;&gt;Node16</title>
<path fill="none" stroke="#191970" d="M494.7253,-179.3379C508.966,-169.3909 527.6774,-155.8845 543.5,-143 559.3569,-130.0875 561.2262,-124.383 577.5,-112 614.6917,-83.7003 621.8385,-69.764 666.5,-56 771.9028,-23.5164 1548.376,-26.1359 1658.5,-20 1671.8949,-19.2537 1686.0391,-18.3329 1699.9072,-17.355"/>
<polygon fill="#191970" stroke="#191970" points="1700.2183,-20.8418 1709.942,-16.6345 1699.7169,-13.8597 1700.2183,-20.8418"/>
</g>
<!-- Node31&#45;&gt;Node24 -->
<g id="edge63" class="edge">
<title>Node31&#45;&gt;Node24</title>
<path fill="none" stroke="#191970" d="M506.8404,-179.4414C527.7307,-169.8471 554.691,-156.6822 577.5,-143 597.7036,-130.8807 598.805,-121.1863 620.5,-112 652.8623,-98.2969 740.1198,-84.3809 804.2335,-75.499"/>
<polygon fill="#191970" stroke="#191970" points="804.8806,-78.9431 814.3126,-74.1176 803.93,-72.008 804.8806,-78.9431"/>
</g>
<!-- Node32 -->
<g id="node33" class="node">
<title>Node32</title>
<g id="a_node33"><a xlink:href="_coll_mgr_8_h.html" target="_top" xlink:title="amr&#45;wind/core/CollMgr.H">
<polygon fill="#ffffff" stroke="#000000" points="410,-118 410,-137 535,-137 535,-118 410,-118"/>
<text text-anchor="middle" x="472.5" y="-125" font-family="Helvetica,sans-Serif" font-size="10.00" fill="#000000">amr&#45;wind/core/CollMgr.H</text>
</a>
</g>
</g>
<!-- Node31&#45;&gt;Node32 -->
<g id="edge55" class="edge">
<title>Node31&#45;&gt;Node32</title>
<path fill="none" stroke="#191970" d="M472.5,-179.2967C472.5,-169.7699 472.5,-157.3954 472.5,-147.1306"/>
<polygon fill="#191970" stroke="#191970" points="476.0001,-147.0549 472.5,-137.055 469.0001,-147.055 476.0001,-147.0549"/>
</g>
<!-- Node33 -->
<g id="node34" class="node">
<title>Node33</title>
<g id="a_node34"><a xlink:href="_p_d_e_fields_8_h.html" target="_top" xlink:title="amr&#45;wind/equation_systems\l/PDEFields.H">
<polygon fill="#ffffff" stroke="#000000" points="0,-112.5 0,-142.5 139,-142.5 139,-112.5 0,-112.5"/>
<text text-anchor="start" x="8" y="-130.5" font-family="Helvetica,sans-Serif" font-size="10.00" fill="#000000">amr&#45;wind/equation_systems</text>
<text text-anchor="middle" x="69.5" y="-119.5" font-family="Helvetica,sans-Serif" font-size="10.00" fill="#000000">/PDEFields.H</text>
</a>
</g>
</g>
<!-- Node31&#45;&gt;Node33 -->
<g id="edge60" class="edge">
<title>Node31&#45;&gt;Node33</title>
<path fill="none" stroke="#191970" d="M402.7628,-182.906C332.1901,-171.173 223.2176,-153.056 149.2543,-140.7594"/>
<polygon fill="#191970" stroke="#191970" points="149.4964,-137.2517 139.0577,-139.0642 148.3483,-144.1569 149.4964,-137.2517"/>
</g>
<!-- Node32&#45;&gt;Node2 -->
<g id="edge57" class="edge">
<title>Node32&#45;&gt;Node2</title>
<path fill="none" stroke="#191970" d="M455.1563,-117.8906C437.0727,-107.8713 408.5141,-92.0483 387.6835,-80.5071"/>
<polygon fill="#191970" stroke="#191970" points="389.1654,-77.3268 378.722,-75.5419 385.7729,-83.4498 389.1654,-77.3268"/>
</g>
<!-- Node32&#45;&gt;Node4 -->
<g id="edge58" class="edge">
<title>Node32&#45;&gt;Node4</title>
<path fill="none" stroke="#191970" d="M510.3573,-117.9581C553.0071,-107.2082 622.4064,-89.7162 668.7456,-78.0365"/>
<polygon fill="#191970" stroke="#191970" points="669.7126,-81.4023 678.5539,-75.5643 668.0017,-74.6146 669.7126,-81.4023"/>
</g>
<!-- Node32&#45;&gt;Node15 -->
<g id="edge56" class="edge">
<title>Node32&#45;&gt;Node15</title>
<path fill="none" stroke="#191970" d="M478.4966,-117.7575C489.0031,-101.6712 512.4133,-69.9499 541.5,-56 584.0736,-35.5818 911.0443,-16.9604 1013.7397,-11.5648"/>
<polygon fill="#191970" stroke="#191970" points="1013.973,-15.0575 1023.7775,-11.0422 1013.609,-8.067 1013.973,-15.0575"/>
</g>
<!-- Node32&#45;&gt;Node26 -->
<g id="edge59" class="edge">
<title>Node32&#45;&gt;Node26</title>
<path fill="none" stroke="#191970" d="M484.3959,-117.8612C505.2256,-101.6268 550.3042,-69.3015 594.5,-56 669.0231,-33.571 1200.6683,-16.6651 1378.6286,-11.5816"/>
<polygon fill="#191970" stroke="#191970" points="1378.9396,-15.0743 1388.8362,-11.292 1378.7409,-8.0771 1378.9396,-15.0743"/>
</g>
<!-- Node34 -->
<g id="node35" class="node">
<title>Node34</title>
<polygon fill="#ffffff" stroke="#bfbfbf" points="15,-56.5 15,-75.5 60,-75.5 60,-56.5 15,-56.5"/>
<text text-anchor="middle" x="37.5" y="-63.5" font-family="Helvetica,sans-Serif" font-size="10.00" fill="#000000">iosfwd</text>
</g>
<!-- Node33&#45;&gt;Node34 -->
<g id="edge61" class="edge">
<title>Node33&#45;&gt;Node34</title>
<path fill="none" stroke="#191970" d="M61.5899,-112.2977C57.2868,-104.0277 51.9242,-93.7215 47.3518,-84.9339"/>
<polygon fill="#191970" stroke="#191970" points="50.3443,-83.1024 42.6236,-75.8469 44.1346,-86.3335 50.3443,-83.1024"/>
</g>
<!-- Node35&#45;&gt;Node3 -->
<g id="edge65" class="edge">
<title>Node35&#45;&gt;Node3</title>
<path fill="none" stroke="#191970" d="M628.4678,-184.9717C556.7958,-172.7838 432.8466,-151.7062 356.6262,-138.7448"/>
<polygon fill="#191970" stroke="#191970" points="357.1027,-135.2757 346.6575,-137.0496 355.9292,-142.1766 357.1027,-135.2757"/>
</g>
<!-- Node35&#45;&gt;Node18 -->
<g id="edge67" class="edge">
<title>Node35&#45;&gt;Node18</title>
<path fill="none" stroke="#191970" d="M704.1935,-184.9007C719.4175,-176.2754 739.3836,-162.0372 748.5,-143 754.4507,-130.5735 756.0339,-123.5355 748.5,-112 726.7357,-78.6756 688.2643,-109.3244 666.5,-76 661.6394,-68.5577 660.3528,-62.4206 666.5,-56 698.3034,-22.782 1447.6236,-23.2019 1493.5,-20 1506.982,-19.059 1521.4259,-17.8187 1535.1297,-16.533"/>
<polygon fill="#191970" stroke="#191970" points="1535.8162,-19.9833 1545.4366,-15.5452 1535.1483,-13.0153 1535.8162,-19.9833"/>
</g>
<!-- Node35&#45;&gt;Node32 -->
<g id="edge66" class="edge">
<title>Node35&#45;&gt;Node32</title>
<path fill="none" stroke="#191970" d="M654.1256,-184.9005C616.8942,-173.134 553.6901,-153.1591 512.5243,-140.1492"/>
<polygon fill="#191970" stroke="#191970" points="513.408,-136.7579 502.8181,-137.0817 511.2985,-143.4325 513.408,-136.7579"/>
</g>
<!-- Node36 -->
<g id="node37" class="node">
<title>Node36</title>
<polygon fill="#ffffff" stroke="#bfbfbf" points="629.5,-118 629.5,-137 739.5,-137 739.5,-118 629.5,-118"/>
<text text-anchor="middle" x="684.5" y="-125" font-family="Helvetica,sans-Serif" font-size="10.00" fill="#000000">AMReX_Geometry.H</text>
</g>
<!-- Node35&#45;&gt;Node36 -->
<g id="edge68" class="edge">
<title>Node35&#45;&gt;Node36</title>
<path fill="none" stroke="#191970" d="M684.5,-184.9005C684.5,-175.149 684.5,-159.7597 684.5,-147.3695"/>
<polygon fill="#191970" stroke="#191970" points="688.0001,-147.0816 684.5,-137.0817 681.0001,-147.0817 688.0001,-147.0816"/>
</g>
</g>
</svg>
        <g id="navigator" transform="translate(0 0)" fill="#404254">
                <rect fill="#f2f5e9" fill-opacity="0.5" stroke="#606060" stroke-width=".5" x="0" y="0" width="60" height="60"/>
                <use id="zoomplus" xlink:href="#zoomPlus" x="17" y="9" onmousedown="handleZoom(evt,'in')"/>
                <use id="zoomminus" xlink:href="#zoomMin" x="42" y="9" onmousedown="handleZoom(evt,'out')"/>
                <use id="reset" xlink:href="#resetDef" x="30" y="36" onmousedown="handleReset()"/>
                <g id="arrowUp" xlink:href="#dirArrow" transform="translate(30 24)" onmousedown="handlePan(0,-1)">
                  <use xlink:href="#rim" fill="#404040">
                        <set attributeName="fill" to="#808080" begin="arrowUp.mouseover" end="arrowUp.mouseout"/>
                  </use>
                  <path fill="none" stroke="white" stroke-width="1.5" d="M0,-3.0v7 M-2.5,-0.5L0,-3.0L2.5,-0.5"/>
                </g>
                <g id="arrowRight" xlink:href="#dirArrow" transform="rotate(90) translate(36 -43)" onmousedown="handlePan(1,0)">
                  <use xlink:href="#rim" fill="#404040">
                        <set attributeName="fill" to="#808080" begin="arrowRight.mouseover" end="arrowRight.mouseout"/>
                  </use>
                  <path fill="none" stroke="white" stroke-width="1.5" d="M0,-3.0v7 M-2.5,-0.5L0,-3.0L2.5,-0.5"/>
                </g>
                <g id="arrowDown" xlink:href="#dirArrow" transform="rotate(180) translate(-30 -48)" onmousedown="handlePan(0,1)">
                  <use xlink:href="#rim" fill="#404040">
                        <set attributeName="fill" to="#808080" begin="arrowDown.mouseover" end="arrowDown.mouseout"/>
                  </use>
                  <path fill="none" stroke="white" stroke-width="1.5" d="M0,-3.0v7 M-2.5,-0.5L0,-3.0L2.5,-0.5"/>
                </g>
                <g id="arrowLeft" xlink:href="#dirArrow" transform="rotate(270) translate(-36 17)" onmousedown="handlePan(-1,0)">
                  <use xlink:href="#rim" fill="#404040">
                        <set attributeName="fill" to="#808080" begin="arrowLeft.mouseover" end="arrowLeft.mouseout"/>
                  </use>
                  <path fill="none" stroke="white" stroke-width="1.5" d="M0,-3.0v7 M-2.5,-0.5L0,-3.0L2.5,-0.5"/>
                </g>
        </g>
        <svg viewBox="0 0 15 15" width="100%" height="30px" preserveAspectRatio="xMaxYMin meet">
         <g id="arrow_out" transform="scale(0.3 0.3)">
          <a xlink:href="_post_processing_8cpp__incl_org.svg" target="_base">
           <rect id="button" ry="5" rx="5" y="6" x="6" height="38" width="38"
                fill="#f2f5e9" fill-opacity="0.5" stroke="#606060" stroke-width="1.0"/>
           <path id="arrow"
             d="M 11.500037,31.436501 C 11.940474,20.09759 22.043105,11.32322 32.158766,21.979434 L 37.068811,17.246167 C 37.068811,17.246167 37.088388,32 37.088388,32 L 22.160133,31.978069 C 22.160133,31.978069 26.997745,27.140456 26.997745,27.140456 C 18.528582,18.264221 13.291696,25.230495 11.500037,31.436501 z"
             style="fill:#404040;"/>
          </a>
         </g>
        </svg>
</svg>
