<?xml version="1.0" encoding="UTF-8" standalone="no"?>
<!DOCTYPE svg PUBLIC "-//W3C//DTD SVG 1.1//EN"
 "http://www.w3.org/Graphics/SVG/1.1/DTD/svg11.dtd">
<!-- Generated by graphviz version 2.40.1 (20161225.0304)
 -->
<!-- Title: PowerLawProfile.H Pages: 1 -->
<svg width="292pt" height="196pt"
 viewBox="0.00 0.00 292.00 196.00" xmlns="http://www.w3.org/2000/svg" xmlns:xlink="http://www.w3.org/1999/xlink">
<g id="graph0" class="graph" transform="scale(1 1) rotate(0) translate(4 192)">
<title>PowerLawProfile.H</title>
<polygon fill="#ffffff" stroke="transparent" points="-4,4 -4,-192 288,-192 288,4 -4,4"/>
<!-- Node3 -->
<g id="node1" class="node">
<title>Node3</title>
<polygon fill="#bfbfbf" stroke="#000000" points="104.5,-168.5 104.5,-187.5 205.5,-187.5 205.5,-168.5 104.5,-168.5"/>
<text text-anchor="middle" x="155" y="-175.5" font-family="Helvetica,sans-Serif" font-size="10.00" fill="#000000">PowerLawProfile.H</text>
</g>
<!-- Node4 -->
<g id="node2" class="node">
<title>Node4</title>
<g id="a_node2"><a xlink:href="velocity__bcs_8_h.html" target="_top" xlink:title="velocity_bcs.H">
<polygon fill="#ffffff" stroke="#000000" points="0,-112.5 0,-131.5 82,-131.5 82,-112.5 0,-112.5"/>
<text text-anchor="middle" x="41" y="-119.5" font-family="Helvetica,sans-Serif" font-size="10.00" fill="#000000">velocity_bcs.H</text>
</a>
</g>
</g>
<!-- Node3&#45;&gt;Node4 -->
<g id="edge1" class="edge">
<title>Node3&#45;&gt;Node4</title>
<path fill="none" stroke="#191970" d="M126.1679,-163.8368C105.5605,-153.7139 78.3918,-140.3679 60.3416,-131.5011"/>
<polygon fill="#191970" stroke="#191970" points="124.884,-167.1056 135.4027,-168.3733 127.9703,-160.8227 124.884,-167.1056"/>
</g>
<!-- Node7 -->
<g id="node5" class="node">
<title>Node7</title>
<g id="a_node5"><a xlink:href="_power_law_profile_8cpp.html" target="_top" xlink:title="PowerLawProfile.cpp">
<polygon fill="#ffffff" stroke="#000000" points="100.5,-112.5 100.5,-131.5 209.5,-131.5 209.5,-112.5 100.5,-112.5"/>
<text text-anchor="middle" x="155" y="-119.5" font-family="Helvetica,sans-Serif" font-size="10.00" fill="#000000">PowerLawProfile.cpp</text>
</a>
</g>
</g>
<!-- Node3&#45;&gt;Node7 -->
<g id="edge4" class="edge">
<title>Node3&#45;&gt;Node7</title>
<path fill="none" stroke="#191970" d="M155,-158.1575C155,-149.155 155,-138.9199 155,-131.6427"/>
<polygon fill="#191970" stroke="#191970" points="151.5001,-158.2455 155,-168.2455 158.5001,-158.2456 151.5001,-158.2455"/>
</g>
<!-- Node8 -->
<g id="node6" class="node">
<title>Node8</title>
<g id="a_node6"><a xlink:href="_u_d_f_8cpp.html" target="_top" xlink:title="UDF.cpp">
<polygon fill="#ffffff" stroke="#000000" points="228,-112.5 228,-131.5 284,-131.5 284,-112.5 228,-112.5"/>
<text text-anchor="middle" x="256" y="-119.5" font-family="Helvetica,sans-Serif" font-size="10.00" fill="#000000">UDF.cpp</text>
</a>
</g>
</g>
<!-- Node3&#45;&gt;Node8 -->
<g id="edge5" class="edge">
<title>Node3&#45;&gt;Node8</title>
<path fill="none" stroke="#191970" d="M181.4719,-163.3225C199.5125,-153.3198 222.8877,-140.3593 238.6087,-131.6427"/>
<polygon fill="#191970" stroke="#191970" points="179.6413,-160.3354 172.5929,-168.2455 183.0357,-166.4574 179.6413,-160.3354"/>
</g>
<!-- Node5 -->
<g id="node3" class="node">
<title>Node5</title>
<g id="a_node3"><a xlink:href="icns__bcop_8_h.html" target="_top" xlink:title="icns_bcop.H">
<polygon fill="#ffffff" stroke="#000000" points="5.5,-56.5 5.5,-75.5 76.5,-75.5 76.5,-56.5 5.5,-56.5"/>
<text text-anchor="middle" x="41" y="-63.5" font-family="Helvetica,sans-Serif" font-size="10.00" fill="#000000">icns_bcop.H</text>
</a>
</g>
</g>
<!-- Node4&#45;&gt;Node5 -->
<g id="edge2" class="edge">
<title>Node4&#45;&gt;Node5</title>
<path fill="none" stroke="#191970" d="M41,-102.1575C41,-93.155 41,-82.9199 41,-75.6427"/>
<polygon fill="#191970" stroke="#191970" points="37.5001,-102.2455 41,-112.2455 44.5001,-102.2456 37.5001,-102.2455"/>
</g>
<!-- Node6 -->
<g id="node4" class="node">
<title>Node6</title>
<g id="a_node4"><a xlink:href="icns_8cpp.html" target="_top" xlink:title="icns.cpp">
<polygon fill="#ffffff" stroke="#000000" points="14.5,-.5 14.5,-19.5 67.5,-19.5 67.5,-.5 14.5,-.5"/>
<text text-anchor="middle" x="41" y="-7.5" font-family="Helvetica,sans-Serif" font-size="10.00" fill="#000000">icns.cpp</text>
</a>
</g>
</g>
<!-- Node5&#45;&gt;Node6 -->
<g id="edge3" class="edge">
<title>Node5&#45;&gt;Node6</title>
<path fill="none" stroke="#191970" d="M41,-46.1575C41,-37.155 41,-26.9199 41,-19.6427"/>
<polygon fill="#191970" stroke="#191970" points="37.5001,-46.2455 41,-56.2455 44.5001,-46.2456 37.5001,-46.2455"/>
</g>
</g>
</svg>
