<?xml version="1.0" encoding="UTF-8" standalone="no"?>
<!DOCTYPE svg PUBLIC "-//W3C//DTD SVG 1.1//EN"
 "http://www.w3.org/Graphics/SVG/1.1/DTD/svg11.dtd">
<!-- Generated by graphviz version 2.40.1 (20161225.0304)
 -->
<!-- Title: ProbeSampler.cpp Pages: 1 -->
<svg width="2522pt" height="341pt"
 viewBox="0.00 0.00 2521.50 341.00" xmlns="http://www.w3.org/2000/svg" xmlns:xlink="http://www.w3.org/1999/xlink">
<g id="graph0" class="graph" transform="scale(1 1) rotate(0) translate(4 337)">
<title>ProbeSampler.cpp</title>
<polygon fill="#ffffff" stroke="transparent" points="-4,4 -4,-337 2517.5,-337 2517.5,4 -4,4"/>
<!-- Node0 -->
<g id="node1" class="node">
<title>Node0</title>
<polygon fill="#bfbfbf" stroke="#000000" points="656.5,-313.5 656.5,-332.5 753.5,-332.5 753.5,-313.5 656.5,-313.5"/>
<text text-anchor="middle" x="705" y="-320.5" font-family="Helvetica,sans-Serif" font-size="10.00" fill="#000000">ProbeSampler.cpp</text>
</g>
<!-- Node1 -->
<g id="node2" class="node">
<title>Node1</title>
<g id="a_node2"><a xlink:href="_probe_sampler_8_h.html" target="_top" xlink:title="amr&#45;wind/utilities\l/sampling/ProbeSampler.H">
<polygon fill="#ffffff" stroke="#000000" points="409,-246.5 409,-276.5 543,-276.5 543,-246.5 409,-246.5"/>
<text text-anchor="start" x="417" y="-264.5" font-family="Helvetica,sans-Serif" font-size="10.00" fill="#000000">amr&#45;wind/utilities</text>
<text text-anchor="middle" x="476" y="-253.5" font-family="Helvetica,sans-Serif" font-size="10.00" fill="#000000">/sampling/ProbeSampler.H</text>
</a>
</g>
</g>
<!-- Node0&#45;&gt;Node1 -->
<g id="edge1" class="edge">
<title>Node0&#45;&gt;Node1</title>
<path fill="none" stroke="#191970" d="M669.2188,-313.3906C635.2132,-304.2581 583.2533,-290.3038 541.778,-279.1653"/>
<polygon fill="#191970" stroke="#191970" points="542.5853,-275.7581 532.0197,-276.5446 540.7697,-282.5186 542.5853,-275.7581"/>
</g>
<!-- Node14 -->
<g id="node15" class="node">
<title>Node14</title>
<g id="a_node15"><a xlink:href="_c_f_d_sim_8_h.html" target="_top" xlink:title="amr&#45;wind/CFDSim.H">
<polygon fill="#ffffff" stroke="#000000" points="651,-252 651,-271 759,-271 759,-252 651,-252"/>
<text text-anchor="middle" x="705" y="-259" font-family="Helvetica,sans-Serif" font-size="10.00" fill="#000000">amr&#45;wind/CFDSim.H</text>
</a>
</g>
</g>
<!-- Node0&#45;&gt;Node14 -->
<g id="edge15" class="edge">
<title>Node0&#45;&gt;Node14</title>
<path fill="none" stroke="#191970" d="M705,-313.3906C705,-304.8657 705,-292.1392 705,-281.4235"/>
<polygon fill="#191970" stroke="#191970" points="708.5001,-281.2448 705,-271.2449 701.5001,-281.2449 708.5001,-281.2448"/>
</g>
<!-- Node42 -->
<g id="node43" class="node">
<title>Node42</title>
<polygon fill="#ffffff" stroke="#bfbfbf" points="777,-252 777,-271 893,-271 893,-252 777,-252"/>
<text text-anchor="middle" x="835" y="-259" font-family="Helvetica,sans-Serif" font-size="10.00" fill="#000000">AMReX_ParmParse.H</text>
</g>
<!-- Node0&#45;&gt;Node42 -->
<g id="edge75" class="edge">
<title>Node0&#45;&gt;Node42</title>
<path fill="none" stroke="#191970" d="M725.3125,-313.3906C746.8731,-303.1908 781.1478,-286.9763 805.6444,-275.3875"/>
<polygon fill="#191970" stroke="#191970" points="807.2874,-278.4822 814.8301,-271.0419 804.2939,-272.1545 807.2874,-278.4822"/>
</g>
<!-- Node2 -->
<g id="node3" class="node">
<title>Node2</title>
<g id="a_node3"><a xlink:href="_sampler_base_8_h.html" target="_top" xlink:title="amr&#45;wind/utilities\l/sampling/SamplerBase.H">
<polygon fill="#ffffff" stroke="#000000" points="52.5,-123.5 52.5,-153.5 183.5,-153.5 183.5,-123.5 52.5,-123.5"/>
<text text-anchor="start" x="60.5" y="-141.5" font-family="Helvetica,sans-Serif" font-size="10.00" fill="#000000">amr&#45;wind/utilities</text>
<text text-anchor="middle" x="118" y="-130.5" font-family="Helvetica,sans-Serif" font-size="10.00" fill="#000000">/sampling/SamplerBase.H</text>
</a>
</g>
</g>
<!-- Node1&#45;&gt;Node2 -->
<g id="edge2" class="edge">
<title>Node1&#45;&gt;Node2</title>
<path fill="none" stroke="#191970" d="M432.1022,-246.4178C366.3006,-223.81 242.265,-181.1944 171.3401,-156.8263"/>
<polygon fill="#191970" stroke="#191970" points="172.291,-153.4523 161.6964,-153.513 170.0165,-160.0725 172.291,-153.4523"/>
</g>
<!-- Node3 -->
<g id="node4" class="node">
<title>Node3</title>
<g id="a_node4"><a xlink:href="_factory_8_h.html" target="_top" xlink:title="amr&#45;wind/core/Factory.H">
<polygon fill="#ffffff" stroke="#000000" points="257.5,-62 257.5,-81 382.5,-81 382.5,-62 257.5,-62"/>
<text text-anchor="middle" x="320" y="-69" font-family="Helvetica,sans-Serif" font-size="10.00" fill="#000000">amr&#45;wind/core/Factory.H</text>
</a>
</g>
</g>
<!-- Node2&#45;&gt;Node3 -->
<g id="edge3" class="edge">
<title>Node2&#45;&gt;Node3</title>
<path fill="none" stroke="#191970" d="M163.3327,-123.4639C199.011,-111.63 248.167,-95.3258 281.8482,-84.1543"/>
<polygon fill="#191970" stroke="#191970" points="282.9526,-87.4756 291.3423,-81.0053 280.7489,-80.8315 282.9526,-87.4756"/>
</g>
<!-- Node9 -->
<g id="node10" class="node">
<title>Node9</title>
<g id="a_node10"><a xlink:href="nc__interface_8_h.html" target="_top" xlink:title="Interface to NetCDF library. ">
<polygon fill="#ffffff" stroke="#000000" points="92.5,-56.5 92.5,-86.5 207.5,-86.5 207.5,-56.5 92.5,-56.5"/>
<text text-anchor="start" x="100.5" y="-74.5" font-family="Helvetica,sans-Serif" font-size="10.00" fill="#000000">amr&#45;wind/utilities</text>
<text text-anchor="middle" x="150" y="-63.5" font-family="Helvetica,sans-Serif" font-size="10.00" fill="#000000">/ncutils/nc_interface.H</text>
</a>
</g>
</g>
<!-- Node2&#45;&gt;Node9 -->
<g id="edge9" class="edge">
<title>Node2&#45;&gt;Node9</title>
<path fill="none" stroke="#191970" d="M125.2613,-123.2967C129.1481,-115.1586 134.0274,-104.9425 138.4233,-95.7386"/>
<polygon fill="#191970" stroke="#191970" points="141.6159,-97.1752 142.7674,-86.6432 135.2993,-94.1584 141.6159,-97.1752"/>
</g>
<!-- Node4 -->
<g id="node5" class="node">
<title>Node4</title>
<polygon fill="#ffffff" stroke="#bfbfbf" points="604,-.5 604,-19.5 656,-19.5 656,-.5 604,-.5"/>
<text text-anchor="middle" x="630" y="-7.5" font-family="Helvetica,sans-Serif" font-size="10.00" fill="#000000">memory</text>
</g>
<!-- Node3&#45;&gt;Node4 -->
<g id="edge4" class="edge">
<title>Node3&#45;&gt;Node4</title>
<path fill="none" stroke="#191970" d="M363.3585,-61.9363C372.7889,-59.9204 382.72,-57.8463 392,-56 479.2945,-38.632 501.9497,-38.5531 589,-20 590.4779,-19.685 591.9839,-19.3559 593.5037,-19.0169"/>
<polygon fill="#191970" stroke="#191970" points="594.6328,-22.3481 603.5858,-16.683 593.0541,-15.5285 594.6328,-22.3481"/>
</g>
<!-- Node5 -->
<g id="node6" class="node">
<title>Node5</title>
<polygon fill="#ffffff" stroke="#bfbfbf" points="497.5,-.5 497.5,-19.5 580.5,-19.5 580.5,-.5 497.5,-.5"/>
<text text-anchor="middle" x="539" y="-7.5" font-family="Helvetica,sans-Serif" font-size="10.00" fill="#000000">unordered_map</text>
</g>
<!-- Node3&#45;&gt;Node5 -->
<g id="edge5" class="edge">
<title>Node3&#45;&gt;Node5</title>
<path fill="none" stroke="#191970" d="M354.2188,-61.8906C392.2275,-51.2169 453.6911,-33.9566 495.1884,-22.3033"/>
<polygon fill="#191970" stroke="#191970" points="496.3402,-25.6153 505.0215,-19.5419 494.4477,-18.8759 496.3402,-25.6153"/>
</g>
<!-- Node6 -->
<g id="node7" class="node">
<title>Node6</title>
<polygon fill="#ffffff" stroke="#bfbfbf" points="222,-.5 222,-19.5 276,-19.5 276,-.5 222,-.5"/>
<text text-anchor="middle" x="249" y="-7.5" font-family="Helvetica,sans-Serif" font-size="10.00" fill="#000000">iostream</text>
</g>
<!-- Node3&#45;&gt;Node6 -->
<g id="edge6" class="edge">
<title>Node3&#45;&gt;Node6</title>
<path fill="none" stroke="#191970" d="M308.9063,-61.8906C298.0285,-52.4683 281.2252,-37.9134 268.18,-26.6137"/>
<polygon fill="#191970" stroke="#191970" points="270.1004,-23.6466 260.2502,-19.7449 265.5173,-28.9377 270.1004,-23.6466"/>
</g>
<!-- Node7 -->
<g id="node8" class="node">
<title>Node7</title>
<polygon fill="#ffffff" stroke="#bfbfbf" points="294.5,-.5 294.5,-19.5 381.5,-19.5 381.5,-.5 294.5,-.5"/>
<text text-anchor="middle" x="338" y="-7.5" font-family="Helvetica,sans-Serif" font-size="10.00" fill="#000000">AMReX_Print.H</text>
</g>
<!-- Node3&#45;&gt;Node7 -->
<g id="edge7" class="edge">
<title>Node3&#45;&gt;Node7</title>
<path fill="none" stroke="#191970" d="M322.8125,-61.8906C325.3339,-53.276 329.111,-40.3708 332.2676,-29.5858"/>
<polygon fill="#191970" stroke="#191970" points="335.6979,-30.3254 335.1478,-19.7449 328.9797,-28.3591 335.6979,-30.3254"/>
</g>
<!-- Node8 -->
<g id="node9" class="node">
<title>Node8</title>
<polygon fill="#ffffff" stroke="#bfbfbf" points="400,-.5 400,-19.5 462,-19.5 462,-.5 400,-.5"/>
<text text-anchor="middle" x="431" y="-7.5" font-family="Helvetica,sans-Serif" font-size="10.00" fill="#000000">AMReX.H</text>
</g>
<!-- Node3&#45;&gt;Node8 -->
<g id="edge8" class="edge">
<title>Node3&#45;&gt;Node8</title>
<path fill="none" stroke="#191970" d="M337.3438,-61.8906C355.4273,-51.8713 383.9859,-36.0483 404.8165,-24.5071"/>
<polygon fill="#191970" stroke="#191970" points="406.7271,-27.4498 413.778,-19.5419 403.3346,-21.3268 406.7271,-27.4498"/>
</g>
<!-- Node9&#45;&gt;Node5 -->
<g id="edge11" class="edge">
<title>Node9&#45;&gt;Node5</title>
<path fill="none" stroke="#191970" d="M207.5203,-62.4016C220.8134,-60.2991 234.8992,-58.0715 248,-56 331.6415,-42.7747 428.8069,-27.4162 487.0215,-18.2152"/>
<polygon fill="#191970" stroke="#191970" points="487.7438,-21.6445 497.0748,-16.6262 486.6509,-14.7304 487.7438,-21.6445"/>
</g>
<!-- Node10 -->
<g id="node11" class="node">
<title>Node10</title>
<polygon fill="#ffffff" stroke="#bfbfbf" points="914.5,-.5 914.5,-19.5 955.5,-19.5 955.5,-.5 914.5,-.5"/>
<text text-anchor="middle" x="935" y="-7.5" font-family="Helvetica,sans-Serif" font-size="10.00" fill="#000000">string</text>
</g>
<!-- Node9&#45;&gt;Node10 -->
<g id="edge10" class="edge">
<title>Node9&#45;&gt;Node10</title>
<path fill="none" stroke="#191970" d="M207.6591,-61.4657C220.8819,-59.4194 234.9027,-57.4513 248,-56 497.2079,-28.3852 560.9193,-38.0781 811,-20 842.8544,-17.6973 879.2826,-14.7182 904.372,-12.6125"/>
<polygon fill="#191970" stroke="#191970" points="904.7135,-16.0962 914.3839,-11.768 904.1251,-9.1209 904.7135,-16.0962"/>
</g>
<!-- Node11 -->
<g id="node12" class="node">
<title>Node11</title>
<polygon fill="#ffffff" stroke="#bfbfbf" points="0,-.5 0,-19.5 44,-19.5 44,-.5 0,-.5"/>
<text text-anchor="middle" x="22" y="-7.5" font-family="Helvetica,sans-Serif" font-size="10.00" fill="#000000">vector</text>
</g>
<!-- Node9&#45;&gt;Node11 -->
<g id="edge12" class="edge">
<title>Node9&#45;&gt;Node11</title>
<path fill="none" stroke="#191970" d="M118.6877,-56.4554C97.9862,-46.509 71.0477,-33.5659 50.8647,-23.8686"/>
<polygon fill="#191970" stroke="#191970" points="52.3648,-20.7064 41.8355,-19.5303 49.3333,-27.0159 52.3648,-20.7064"/>
</g>
<!-- Node12 -->
<g id="node13" class="node">
<title>Node12</title>
<polygon fill="#ffffff" stroke="#bfbfbf" points="62,-.5 62,-19.5 114,-19.5 114,-.5 62,-.5"/>
<text text-anchor="middle" x="88" y="-7.5" font-family="Helvetica,sans-Serif" font-size="10.00" fill="#000000">netcdf.h</text>
</g>
<!-- Node9&#45;&gt;Node12 -->
<g id="edge13" class="edge">
<title>Node9&#45;&gt;Node12</title>
<path fill="none" stroke="#191970" d="M134.6742,-56.2977C125.7093,-47.4052 114.3712,-36.1586 105.1149,-26.9769"/>
<polygon fill="#191970" stroke="#191970" points="107.4915,-24.4045 97.927,-19.8469 102.5618,-29.3742 107.4915,-24.4045"/>
</g>
<!-- Node13 -->
<g id="node14" class="node">
<title>Node13</title>
<polygon fill="#ffffff" stroke="#bfbfbf" points="132.5,-.5 132.5,-19.5 203.5,-19.5 203.5,-.5 132.5,-.5"/>
<text text-anchor="middle" x="168" y="-7.5" font-family="Helvetica,sans-Serif" font-size="10.00" fill="#000000">netcdf_par.h</text>
</g>
<!-- Node9&#45;&gt;Node13 -->
<g id="edge14" class="edge">
<title>Node9&#45;&gt;Node13</title>
<path fill="none" stroke="#191970" d="M154.4494,-56.2977C156.8179,-48.2055 159.7569,-38.1639 162.2918,-29.5029"/>
<polygon fill="#191970" stroke="#191970" points="165.668,-30.4275 165.118,-19.8469 158.9498,-28.4611 165.668,-30.4275"/>
</g>
<!-- Node15 -->
<g id="node16" class="node">
<title>Node15</title>
<polygon fill="#ffffff" stroke="#bfbfbf" points="888,-129 888,-148 994,-148 994,-129 888,-129"/>
<text text-anchor="middle" x="941" y="-136" font-family="Helvetica,sans-Serif" font-size="10.00" fill="#000000">AMReX_AmrCore.H</text>
</g>
<!-- Node14&#45;&gt;Node15 -->
<g id="edge16" class="edge">
<title>Node14&#45;&gt;Node15</title>
<path fill="none" stroke="#191970" d="M723.5185,-251.8484C764.8779,-230.2925 864.9359,-178.1436 913.5609,-152.8009"/>
<polygon fill="#191970" stroke="#191970" points="915.3173,-155.8324 922.5675,-148.1068 912.082,-149.6249 915.3173,-155.8324"/>
</g>
<!-- Node16 -->
<g id="node17" class="node">
<title>Node16</title>
<g id="a_node17"><a xlink:href="_sim_time_8_h.html" target="_top" xlink:title="amr&#45;wind/core/SimTime.H">
<polygon fill="#ffffff" stroke="#000000" points="512.5,-190.5 512.5,-209.5 643.5,-209.5 643.5,-190.5 512.5,-190.5"/>
<text text-anchor="middle" x="578" y="-197.5" font-family="Helvetica,sans-Serif" font-size="10.00" fill="#000000">amr&#45;wind/core/SimTime.H</text>
</a>
</g>
</g>
<!-- Node14&#45;&gt;Node16 -->
<g id="edge17" class="edge">
<title>Node14&#45;&gt;Node16</title>
<path fill="none" stroke="#191970" d="M685.1563,-251.8906C664.1864,-241.7359 630.9056,-225.6196 606.9964,-214.0416"/>
<polygon fill="#191970" stroke="#191970" points="608.2301,-210.7502 597.7044,-209.5419 605.1792,-217.0504 608.2301,-210.7502"/>
</g>
<!-- Node20 -->
<g id="node21" class="node">
<title>Node20</title>
<g id="a_node21"><a xlink:href="_field_repo_8_h.html" target="_top" xlink:title="amr&#45;wind/core/FieldRepo.H">
<polygon fill="#ffffff" stroke="#000000" points="1172,-190.5 1172,-209.5 1308,-209.5 1308,-190.5 1172,-190.5"/>
<text text-anchor="middle" x="1240" y="-197.5" font-family="Helvetica,sans-Serif" font-size="10.00" fill="#000000">amr&#45;wind/core/FieldRepo.H</text>
</a>
</g>
</g>
<!-- Node14&#45;&gt;Node20 -->
<g id="edge21" class="edge">
<title>Node14&#45;&gt;Node20</title>
<path fill="none" stroke="#191970" d="M739.8016,-251.9882C748.9225,-249.757 758.7847,-247.5742 768,-246 905.619,-222.4907 1068.0173,-209.9431 1161.9865,-204.1503"/>
<polygon fill="#191970" stroke="#191970" points="1162.2118,-207.6432 1171.9814,-203.5438 1161.7877,-200.656 1162.2118,-207.6432"/>
</g>
<!-- Node36 -->
<g id="node37" class="node">
<title>Node36</title>
<g id="a_node37"><a xlink:href="_p_d_e_base_8_h.html" target="_top" xlink:title="amr&#45;wind/equation_systems\l/PDEBase.H">
<polygon fill="#ffffff" stroke="#000000" points="730.5,-123.5 730.5,-153.5 869.5,-153.5 869.5,-123.5 730.5,-123.5"/>
<text text-anchor="start" x="738.5" y="-141.5" font-family="Helvetica,sans-Serif" font-size="10.00" fill="#000000">amr&#45;wind/equation_systems</text>
<text text-anchor="middle" x="800" y="-130.5" font-family="Helvetica,sans-Serif" font-size="10.00" fill="#000000">/PDEBase.H</text>
</a>
</g>
</g>
<!-- Node14&#45;&gt;Node36 -->
<g id="edge58" class="edge">
<title>Node14&#45;&gt;Node36</title>
<path fill="none" stroke="#191970" d="M712.4545,-251.8484C727.295,-232.6339 760.9098,-189.1115 781.9003,-161.9344"/>
<polygon fill="#191970" stroke="#191970" points="784.8893,-163.7902 788.232,-153.7365 779.3493,-159.5113 784.8893,-163.7902"/>
</g>
<!-- Node40 -->
<g id="node41" class="node">
<title>Node40</title>
<g id="a_node41"><a xlink:href="_physics_8_h.html" target="_top" xlink:title="amr&#45;wind/core/Physics.H">
<polygon fill="#ffffff" stroke="#000000" points="201.5,-129 201.5,-148 328.5,-148 328.5,-129 201.5,-129"/>
<text text-anchor="middle" x="265" y="-136" font-family="Helvetica,sans-Serif" font-size="10.00" fill="#000000">amr&#45;wind/core/Physics.H</text>
</a>
</g>
</g>
<!-- Node14&#45;&gt;Node40 -->
<g id="edge70" class="edge">
<title>Node14&#45;&gt;Node40</title>
<path fill="none" stroke="#191970" d="M665.3887,-251.9253C624.5661,-241.9352 559.1455,-225.5833 503,-210 433.0917,-190.5968 352.3313,-165.8332 305.1406,-151.1237"/>
<polygon fill="#191970" stroke="#191970" points="305.9012,-147.6946 295.3125,-148.0542 303.8144,-154.3763 305.9012,-147.6946"/>
</g>
<!-- Node17 -->
<g id="node18" class="node">
<title>Node17</title>
<polygon fill="#ffffff" stroke="#bfbfbf" points="619.5,-129 619.5,-148 712.5,-148 712.5,-129 619.5,-129"/>
<text text-anchor="middle" x="666" y="-136" font-family="Helvetica,sans-Serif" font-size="10.00" fill="#000000">AMReX_REAL.H</text>
</g>
<!-- Node16&#45;&gt;Node17 -->
<g id="edge18" class="edge">
<title>Node16&#45;&gt;Node17</title>
<path fill="none" stroke="#191970" d="M591.75,-190.3906C605.6991,-180.6421 627.5098,-165.3994 643.8897,-153.9521"/>
<polygon fill="#191970" stroke="#191970" points="646.1548,-156.6392 652.3466,-148.0419 642.1449,-150.9015 646.1548,-156.6392"/>
</g>
<!-- Node18 -->
<g id="node19" class="node">
<title>Node18</title>
<polygon fill="#ffffff" stroke="#bfbfbf" points="347,-129 347,-148 473,-148 473,-129 347,-129"/>
<text text-anchor="middle" x="410" y="-136" font-family="Helvetica,sans-Serif" font-size="10.00" fill="#000000">AMReX_GpuQualifiers.H</text>
</g>
<!-- Node16&#45;&gt;Node18 -->
<g id="edge19" class="edge">
<title>Node16&#45;&gt;Node18</title>
<path fill="none" stroke="#191970" d="M551.75,-190.3906C523.2707,-179.9652 477.6257,-163.2559 445.8543,-151.6252"/>
<polygon fill="#191970" stroke="#191970" points="446.6594,-148.1929 436.0657,-148.0419 444.2531,-154.7663 446.6594,-148.1929"/>
</g>
<!-- Node19 -->
<g id="node20" class="node">
<title>Node19</title>
<polygon fill="#ffffff" stroke="#bfbfbf" points="491,-129 491,-148 601,-148 601,-129 491,-129"/>
<text text-anchor="middle" x="546" y="-136" font-family="Helvetica,sans-Serif" font-size="10.00" fill="#000000">AMReX_Extension.H</text>
</g>
<!-- Node16&#45;&gt;Node19 -->
<g id="edge20" class="edge">
<title>Node16&#45;&gt;Node19</title>
<path fill="none" stroke="#191970" d="M573,-190.3906C568.4242,-181.5965 561.5219,-168.3312 555.8417,-157.4145"/>
<polygon fill="#191970" stroke="#191970" points="558.7912,-155.5003 551.0705,-148.2449 552.5815,-158.7314 558.7912,-155.5003"/>
</g>
<!-- Node20&#45;&gt;Node5 -->
<g id="edge23" class="edge">
<title>Node20&#45;&gt;Node5</title>
<path fill="none" stroke="#191970" d="M1171.633,-193.7573C1130.4438,-187.8208 1078.0098,-176.2981 1036,-154 1018.2256,-144.5656 1021.3951,-131.1583 1003,-123 912.3074,-82.7773 633.5739,-151.2775 558,-87 541.6614,-73.1036 538.1718,-47.6078 537.9436,-29.7747"/>
<polygon fill="#191970" stroke="#191970" points="541.4464,-29.6662 538.1496,-19.5974 534.4478,-29.5245 541.4464,-29.6662"/>
</g>
<!-- Node20&#45;&gt;Node10 -->
<g id="edge22" class="edge">
<title>Node20&#45;&gt;Node10</title>
<path fill="none" stroke="#191970" d="M1185.6083,-190.4849C1153.3259,-183.3974 1112.3291,-171.8135 1079,-154 1058.6987,-143.1495 1016.2582,-103.2956 1000,-87 980.9214,-67.8775 961.211,-43.8107 948.5715,-27.7204"/>
<polygon fill="#191970" stroke="#191970" points="951.226,-25.4322 942.326,-19.6841 945.6988,-29.7277 951.226,-25.4322"/>
</g>
<!-- Node20&#45;&gt;Node15 -->
<g id="edge55" class="edge">
<title>Node20&#45;&gt;Node15</title>
<path fill="none" stroke="#191970" d="M1189.6713,-190.4966C1142.6147,-181.4985 1070.4279,-167.4066 1008,-154 1002.6012,-152.8406 996.9663,-151.5942 991.3569,-150.3301"/>
<polygon fill="#191970" stroke="#191970" points="991.8712,-146.8577 981.3437,-148.0505 990.3173,-153.6831 991.8712,-146.8577"/>
</g>
<!-- Node21 -->
<g id="node22" class="node">
<title>Node21</title>
<g id="a_node22"><a xlink:href="_field_desc_types_8_h.html" target="_top" xlink:title="amr&#45;wind/core/FieldDescTypes.H">
<polygon fill="#ffffff" stroke="#000000" points="1879.5,-.5 1879.5,-19.5 2042.5,-19.5 2042.5,-.5 1879.5,-.5"/>
<text text-anchor="middle" x="1961" y="-7.5" font-family="Helvetica,sans-Serif" font-size="10.00" fill="#000000">amr&#45;wind/core/FieldDescTypes.H</text>
</a>
</g>
</g>
<!-- Node20&#45;&gt;Node21 -->
<g id="edge24" class="edge">
<title>Node20&#45;&gt;Node21</title>
<path fill="none" stroke="#191970" d="M1308.0925,-198.8797C1482.1699,-195.6041 1940.1953,-184.2879 2089,-154 2174.6913,-136.5583 2223.7845,-158.5934 2274,-87 2281.9116,-75.7202 2283.0063,-66.4266 2274,-56 2259.5815,-39.3076 2140.013,-25.4514 2052.9348,-17.4447"/>
<polygon fill="#191970" stroke="#191970" points="2053.0281,-13.9389 2042.7529,-16.5213 2052.3959,-20.9103 2053.0281,-13.9389"/>
</g>
<!-- Node22 -->
<g id="node23" class="node">
<title>Node22</title>
<g id="a_node23"><a xlink:href="_field_utils_8_h.html" target="_top" xlink:title="amr&#45;wind/core/FieldUtils.H">
<polygon fill="#ffffff" stroke="#000000" points="2380.5,-62 2380.5,-81 2513.5,-81 2513.5,-62 2380.5,-62"/>
<text text-anchor="middle" x="2447" y="-69" font-family="Helvetica,sans-Serif" font-size="10.00" fill="#000000">amr&#45;wind/core/FieldUtils.H</text>
</a>
</g>
</g>
<!-- Node20&#45;&gt;Node22 -->
<g id="edge25" class="edge">
<title>Node20&#45;&gt;Node22</title>
<path fill="none" stroke="#191970" d="M1308.2827,-198.5953C1544.8432,-193.5489 2317.5767,-175.4911 2366,-154 2396.5679,-140.4334 2421.6569,-109.5803 2435.4506,-89.6886"/>
<polygon fill="#191970" stroke="#191970" points="2438.4924,-91.4357 2441.1312,-81.1747 2432.6695,-87.5506 2438.4924,-91.4357"/>
</g>
<!-- Node23 -->
<g id="node24" class="node">
<title>Node23</title>
<polygon fill="#ffffff" stroke="#bfbfbf" points="1757,-.5 1757,-19.5 1861,-19.5 1861,-.5 1757,-.5"/>
<text text-anchor="middle" x="1809" y="-7.5" font-family="Helvetica,sans-Serif" font-size="10.00" fill="#000000">AMReX_MultiFab.H</text>
</g>
<!-- Node20&#45;&gt;Node23 -->
<g id="edge56" class="edge">
<title>Node20&#45;&gt;Node23</title>
<path fill="none" stroke="#191970" d="M1308.2043,-197.7502C1526.2724,-189.844 2195.875,-159.7789 2257,-87 2265.861,-76.4496 2266.279,-66.1847 2257,-56 2227.99,-24.1585 1913.7311,-25.4325 1871,-20 1870.8986,-19.9871 1870.7971,-19.9742 1870.6955,-19.9612"/>
<polygon fill="#191970" stroke="#191970" points="1871.4381,-16.5299 1861.0587,-18.6557 1870.4983,-23.4666 1871.4381,-16.5299"/>
</g>
<!-- Node25 -->
<g id="node26" class="node">
<title>Node25</title>
<g id="a_node26"><a xlink:href="_field_8_h.html" target="_top" xlink:title="amr&#45;wind/core/Field.H">
<polygon fill="#ffffff" stroke="#000000" points="1752.5,-129 1752.5,-148 1865.5,-148 1865.5,-129 1752.5,-129"/>
<text text-anchor="middle" x="1809" y="-136" font-family="Helvetica,sans-Serif" font-size="10.00" fill="#000000">amr&#45;wind/core/Field.H</text>
</a>
</g>
</g>
<!-- Node20&#45;&gt;Node25 -->
<g id="edge29" class="edge">
<title>Node20&#45;&gt;Node25</title>
<path fill="none" stroke="#191970" d="M1308.0695,-192.6427C1417.9458,-180.7668 1633.077,-157.5145 1742.1614,-145.7242"/>
<polygon fill="#191970" stroke="#191970" points="1742.8138,-149.1742 1752.3798,-144.6198 1742.0616,-142.2147 1742.8138,-149.1742"/>
</g>
<!-- Node32 -->
<g id="node33" class="node">
<title>Node32</title>
<g id="a_node33"><a xlink:href="_int_field_8_h.html" target="_top" xlink:title="amr&#45;wind/core/IntField.H">
<polygon fill="#ffffff" stroke="#000000" points="1088,-129 1088,-148 1212,-148 1212,-129 1088,-129"/>
<text text-anchor="middle" x="1150" y="-136" font-family="Helvetica,sans-Serif" font-size="10.00" fill="#000000">amr&#45;wind/core/IntField.H</text>
</a>
</g>
</g>
<!-- Node20&#45;&gt;Node32 -->
<g id="edge44" class="edge">
<title>Node20&#45;&gt;Node32</title>
<path fill="none" stroke="#191970" d="M1225.9375,-190.3906C1211.6714,-180.6421 1189.365,-165.3994 1172.6128,-153.9521"/>
<polygon fill="#191970" stroke="#191970" points="1174.1949,-150.7941 1163.9638,-148.0419 1170.2455,-156.5736 1174.1949,-150.7941"/>
</g>
<!-- Node33 -->
<g id="node34" class="node">
<title>Node33</title>
<polygon fill="#ffffff" stroke="#bfbfbf" points="1096.5,-62 1096.5,-81 1203.5,-81 1203.5,-62 1096.5,-62"/>
<text text-anchor="middle" x="1150" y="-69" font-family="Helvetica,sans-Serif" font-size="10.00" fill="#000000">AMReX_iMultiFab.H</text>
</g>
<!-- Node20&#45;&gt;Node33 -->
<g id="edge57" class="edge">
<title>Node20&#45;&gt;Node33</title>
<path fill="none" stroke="#191970" d="M1239.6944,-190.1407C1238.7747,-174.5994 1235.1499,-144.0153 1221,-123 1210.5059,-107.4142 1193.6333,-94.8885 1178.9691,-86.0939"/>
<polygon fill="#191970" stroke="#191970" points="1180.6234,-83.0083 1170.2007,-81.1062 1177.1623,-89.0928 1180.6234,-83.0083"/>
</g>
<!-- Node34 -->
<g id="node35" class="node">
<title>Node34</title>
<g id="a_node35"><a xlink:href="_scratch_field_8_h.html" target="_top" xlink:title="amr&#45;wind/core/ScratchField.H">
<polygon fill="#ffffff" stroke="#000000" points="1381,-129 1381,-148 1527,-148 1527,-129 1381,-129"/>
<text text-anchor="middle" x="1454" y="-136" font-family="Helvetica,sans-Serif" font-size="10.00" fill="#000000">amr&#45;wind/core/ScratchField.H</text>
</a>
</g>
</g>
<!-- Node20&#45;&gt;Node34 -->
<g id="edge48" class="edge">
<title>Node20&#45;&gt;Node34</title>
<path fill="none" stroke="#191970" d="M1273.4375,-190.3906C1310.5,-179.7395 1370.3849,-162.5296 1410.9312,-150.8772"/>
<polygon fill="#191970" stroke="#191970" points="1412.153,-154.1679 1420.7973,-148.0419 1410.2196,-147.4402 1412.153,-154.1679"/>
</g>
<!-- Node22&#45;&gt;Node21 -->
<g id="edge26" class="edge">
<title>Node22&#45;&gt;Node21</title>
<path fill="none" stroke="#191970" d="M2400.4167,-61.9587C2389.1764,-59.8302 2377.1821,-57.7024 2366,-56 2258.884,-39.6922 2135.0219,-26.4365 2052.7634,-18.4157"/>
<polygon fill="#191970" stroke="#191970" points="2052.9831,-14.9206 2042.692,-17.4395 2052.3077,-21.888 2052.9831,-14.9206"/>
</g>
<!-- Node22&#45;&gt;Node23 -->
<g id="edge27" class="edge">
<title>Node22&#45;&gt;Node23</title>
<path fill="none" stroke="#191970" d="M2380.1714,-64.7134C2352.3018,-61.9323 2319.5917,-58.7319 2290,-56 2103.8831,-38.8179 2056.5006,-42.8967 1871,-20 1870.8986,-19.9875 1870.797,-19.9749 1870.6954,-19.9623"/>
<polygon fill="#191970" stroke="#191970" points="1871.4287,-16.529 1861.0552,-18.6834 1870.508,-23.4682 1871.4287,-16.529"/>
</g>
<!-- Node24 -->
<g id="node25" class="node">
<title>Node24</title>
<polygon fill="#ffffff" stroke="#bfbfbf" points="2389,-.5 2389,-19.5 2505,-19.5 2505,-.5 2389,-.5"/>
<text text-anchor="middle" x="2447" y="-7.5" font-family="Helvetica,sans-Serif" font-size="10.00" fill="#000000">AMReX_Interpolater.H</text>
</g>
<!-- Node22&#45;&gt;Node24 -->
<g id="edge28" class="edge">
<title>Node22&#45;&gt;Node24</title>
<path fill="none" stroke="#191970" d="M2447,-61.8906C2447,-53.3657 2447,-40.6392 2447,-29.9235"/>
<polygon fill="#191970" stroke="#191970" points="2450.5001,-29.7448 2447,-19.7449 2443.5001,-29.7449 2450.5001,-29.7448"/>
</g>
<!-- Node25&#45;&gt;Node4 -->
<g id="edge31" class="edge">
<title>Node25&#45;&gt;Node4</title>
<path fill="none" stroke="#191970" d="M1781.0016,-128.889C1756.1866,-119.796 1719.4283,-104.8958 1690,-87 1671.3772,-75.6752 1672.383,-63.7199 1652,-56 1557.9926,-20.3953 848.3298,-26.2458 748,-20 720.5964,-18.294 689.6718,-15.6466 666.3573,-13.5042"/>
<polygon fill="#191970" stroke="#191970" points="666.5021,-10.0026 656.2207,-12.5606 665.8532,-16.9725 666.5021,-10.0026"/>
</g>
<!-- Node25&#45;&gt;Node5 -->
<g id="edge32" class="edge">
<title>Node25&#45;&gt;Node5</title>
<path fill="none" stroke="#191970" d="M1762.7804,-128.9846C1730.2536,-120.9756 1686.5371,-107.4948 1652,-87 1634.6945,-76.7307 1637.5762,-63.737 1619,-56 1513.9033,-12.2271 708.21,-32.0369 595,-20 593.7018,-19.862 592.3884,-19.7115 591.0648,-19.5503"/>
<polygon fill="#191970" stroke="#191970" points="591.1861,-16.0339 580.801,-18.1313 590.2274,-22.9679 591.1861,-16.0339"/>
</g>
<!-- Node25&#45;&gt;Node10 -->
<g id="edge30" class="edge">
<title>Node25&#45;&gt;Node10</title>
<path fill="none" stroke="#191970" d="M1794.6277,-128.9415C1779.2818,-118.6935 1754.2928,-101.8849 1733,-87 1713.6906,-73.5015 1712.1894,-63.9178 1690,-56 1621.0534,-31.398 1099.4128,-14.7545 965.9987,-10.8705"/>
<polygon fill="#191970" stroke="#191970" points="965.7827,-7.3629 955.686,-10.5733 965.581,-14.36 965.7827,-7.3629"/>
</g>
<!-- Node25&#45;&gt;Node21 -->
<g id="edge38" class="edge">
<title>Node25&#45;&gt;Node21</title>
<path fill="none" stroke="#191970" d="M1865.7671,-136.1199C1980.5141,-130.7246 2231.3721,-115.7427 2257,-87 2266.1692,-76.7164 2265.9632,-66.4637 2257,-56 2243.6841,-40.4549 2134.8006,-26.6325 2052.9289,-18.2931"/>
<polygon fill="#191970" stroke="#191970" points="2053.1343,-14.7962 2042.8343,-17.2785 2052.4342,-21.7611 2053.1343,-14.7962"/>
</g>
<!-- Node25&#45;&gt;Node23 -->
<g id="edge34" class="edge">
<title>Node25&#45;&gt;Node23</title>
<path fill="none" stroke="#191970" d="M1834.4821,-128.8529C1852.1723,-120.6533 1874.3961,-106.9948 1885,-87 1891.4552,-74.828 1891.7651,-68.0025 1885,-56 1876.862,-41.5618 1862.1645,-31.1395 1847.8484,-23.9057"/>
<polygon fill="#191970" stroke="#191970" points="1849.113,-20.6342 1838.5685,-19.6024 1846.1681,-26.9846 1849.113,-20.6342"/>
</g>
<!-- Node26 -->
<g id="node27" class="node">
<title>Node26</title>
<polygon fill="#ffffff" stroke="#bfbfbf" points="2074,-62 2074,-81 2130,-81 2130,-62 2074,-62"/>
<text text-anchor="middle" x="2102" y="-69" font-family="Helvetica,sans-Serif" font-size="10.00" fill="#000000">algorithm</text>
</g>
<!-- Node25&#45;&gt;Node26 -->
<g id="edge33" class="edge">
<title>Node25&#45;&gt;Node26</title>
<path fill="none" stroke="#191970" d="M1865.73,-130.3988C1918.1432,-122.1388 1997.8201,-107.6058 2065,-87 2067.164,-86.3363 2069.3748,-85.5912 2071.5858,-84.7963"/>
<polygon fill="#191970" stroke="#191970" points="2073.0797,-87.9708 2081.1346,-81.0883 2070.5458,-81.4455 2073.0797,-87.9708"/>
</g>
<!-- Node27 -->
<g id="node28" class="node">
<title>Node27</title>
<polygon fill="#ffffff" stroke="#bfbfbf" points="2148.5,-62 2148.5,-81 2247.5,-81 2247.5,-62 2148.5,-62"/>
<text text-anchor="middle" x="2198" y="-69" font-family="Helvetica,sans-Serif" font-size="10.00" fill="#000000">AMReX_BCRec.H</text>
</g>
<!-- Node25&#45;&gt;Node27 -->
<g id="edge35" class="edge">
<title>Node25&#45;&gt;Node27</title>
<path fill="none" stroke="#191970" d="M1865.665,-131.4477C1931.6564,-122.8215 2043.7837,-106.8828 2139,-87 2143.9907,-85.9578 2149.1909,-84.7595 2154.3451,-83.5006"/>
<polygon fill="#191970" stroke="#191970" points="2155.294,-86.871 2164.1334,-81.0302 2153.581,-80.0838 2155.294,-86.871"/>
</g>
<!-- Node28 -->
<g id="node29" class="node">
<title>Node28</title>
<polygon fill="#ffffff" stroke="#bfbfbf" points="1970.5,-62 1970.5,-81 2055.5,-81 2055.5,-62 1970.5,-62"/>
<text text-anchor="middle" x="2013" y="-69" font-family="Helvetica,sans-Serif" font-size="10.00" fill="#000000">AMReX_Gpu.H</text>
</g>
<!-- Node25&#45;&gt;Node28 -->
<g id="edge36" class="edge">
<title>Node25&#45;&gt;Node28</title>
<path fill="none" stroke="#191970" d="M1838.2282,-128.9005C1873.9789,-117.1589 1934.6166,-97.2436 1974.2345,-84.2318"/>
<polygon fill="#191970" stroke="#191970" points="1975.4174,-87.5273 1983.826,-81.0817 1973.2331,-80.8768 1975.4174,-87.5273"/>
</g>
<!-- Node29 -->
<g id="node30" class="node">
<title>Node29</title>
<g id="a_node30"><a xlink:href="incflo__enums_8_h.html" target="_top" xlink:title="amr&#45;wind/incflo_enums.H">
<polygon fill="#ffffff" stroke="#000000" points="1222,-62 1222,-81 1350,-81 1350,-62 1222,-62"/>
<text text-anchor="middle" x="1286" y="-69" font-family="Helvetica,sans-Serif" font-size="10.00" fill="#000000">amr&#45;wind/incflo_enums.H</text>
</a>
</g>
</g>
<!-- Node25&#45;&gt;Node29 -->
<g id="edge37" class="edge">
<title>Node25&#45;&gt;Node29</title>
<path fill="none" stroke="#191970" d="M1752.0342,-131.2023C1656.8827,-119.0127 1465.6765,-94.5178 1360.1561,-80.9999"/>
<polygon fill="#191970" stroke="#191970" points="1360.5818,-77.5259 1350.2181,-79.7268 1359.6922,-84.4692 1360.5818,-77.5259"/>
</g>
<!-- Node30 -->
<g id="node31" class="node">
<title>Node30</title>
<g id="a_node31"><a xlink:href="_view_field_8_h.html" target="_top" xlink:title="amr&#45;wind/core/ViewField.H">
<polygon fill="#ffffff" stroke="#000000" points="1742,-62 1742,-81 1876,-81 1876,-62 1742,-62"/>
<text text-anchor="middle" x="1809" y="-69" font-family="Helvetica,sans-Serif" font-size="10.00" fill="#000000">amr&#45;wind/core/ViewField.H</text>
</a>
</g>
</g>
<!-- Node25&#45;&gt;Node30 -->
<g id="edge39" class="edge">
<title>Node25&#45;&gt;Node30</title>
<path fill="none" stroke="#191970" d="M1809,-128.9005C1809,-119.149 1809,-103.7597 1809,-91.3695"/>
<polygon fill="#191970" stroke="#191970" points="1812.5001,-91.0816 1809,-81.0817 1805.5001,-91.0817 1812.5001,-91.0816"/>
</g>
<!-- Node30&#45;&gt;Node10 -->
<g id="edge40" class="edge">
<title>Node30&#45;&gt;Node10</title>
<path fill="none" stroke="#191970" d="M1765.0255,-61.9985C1753.0643,-59.7117 1740.0773,-57.4993 1728,-56 1432.6166,-19.3313 1071.6193,-11.7957 965.6192,-10.3338"/>
<polygon fill="#191970" stroke="#191970" points="965.658,-6.8341 955.6133,-10.2037 965.5669,-13.8335 965.658,-6.8341"/>
</g>
<!-- Node30&#45;&gt;Node21 -->
<g id="edge41" class="edge">
<title>Node30&#45;&gt;Node21</title>
<path fill="none" stroke="#191970" d="M1832.75,-61.8906C1858.2939,-51.5554 1899.1009,-35.0447 1927.811,-23.4284"/>
<polygon fill="#191970" stroke="#191970" points="1929.4596,-26.5371 1937.4168,-19.5419 1926.834,-20.0481 1929.4596,-26.5371"/>
</g>
<!-- Node30&#45;&gt;Node23 -->
<g id="edge42" class="edge">
<title>Node30&#45;&gt;Node23</title>
<path fill="none" stroke="#191970" d="M1809,-61.8906C1809,-53.3657 1809,-40.6392 1809,-29.9235"/>
<polygon fill="#191970" stroke="#191970" points="1812.5001,-29.7448 1809,-19.7449 1805.5001,-29.7449 1812.5001,-29.7448"/>
</g>
<!-- Node31 -->
<g id="node32" class="node">
<title>Node31</title>
<polygon fill="#ffffff" stroke="#bfbfbf" points="1368.5,-.5 1368.5,-19.5 1463.5,-19.5 1463.5,-.5 1368.5,-.5"/>
<text text-anchor="middle" x="1416" y="-7.5" font-family="Helvetica,sans-Serif" font-size="10.00" fill="#000000">AMReX_Vector.H</text>
</g>
<!-- Node30&#45;&gt;Node31 -->
<g id="edge43" class="edge">
<title>Node30&#45;&gt;Node31</title>
<path fill="none" stroke="#191970" d="M1761.0904,-61.9814C1750.2262,-59.9206 1738.7287,-57.8166 1728,-56 1639.5329,-41.021 1536.4764,-26.3693 1473.7616,-17.7641"/>
<polygon fill="#191970" stroke="#191970" points="1474.0542,-14.2716 1463.6721,-16.3841 1473.1055,-21.207 1474.0542,-14.2716"/>
</g>
<!-- Node32&#45;&gt;Node10 -->
<g id="edge45" class="edge">
<title>Node32&#45;&gt;Node10</title>
<path fill="none" stroke="#191970" d="M1130.9841,-128.8833C1111.4314,-118.8597 1080.2214,-102.4816 1054,-87 1019.6154,-66.6987 981.0088,-41.1965 957.3477,-25.2435"/>
<polygon fill="#191970" stroke="#191970" points="959.2943,-22.3347 949.0511,-19.6277 955.3705,-28.1316 959.2943,-22.3347"/>
</g>
<!-- Node32&#45;&gt;Node21 -->
<g id="edge46" class="edge">
<title>Node32&#45;&gt;Node21</title>
<path fill="none" stroke="#191970" d="M1133.4656,-128.774C1108.1424,-112.7309 1064.9839,-80.1001 1088,-56 1116.7756,-25.8692 1768.3257,-23.5288 1869.1812,-19.7479"/>
<polygon fill="#191970" stroke="#191970" points="1869.3612,-23.2434 1879.1705,-19.24 1869.0056,-16.2524 1869.3612,-23.2434"/>
</g>
<!-- Node32&#45;&gt;Node33 -->
<g id="edge47" class="edge">
<title>Node32&#45;&gt;Node33</title>
<path fill="none" stroke="#191970" d="M1150,-128.9005C1150,-119.149 1150,-103.7597 1150,-91.3695"/>
<polygon fill="#191970" stroke="#191970" points="1153.5001,-91.0816 1150,-81.0817 1146.5001,-91.0817 1153.5001,-91.0816"/>
</g>
<!-- Node34&#45;&gt;Node10 -->
<g id="edge49" class="edge">
<title>Node34&#45;&gt;Node10</title>
<path fill="none" stroke="#191970" d="M1446.3634,-128.7554C1431.6566,-110.7956 1397.4383,-72.7787 1359,-56 1288.1481,-25.0724 1050.7693,-13.9932 965.6775,-10.96"/>
<polygon fill="#191970" stroke="#191970" points="965.7345,-7.4599 955.6201,-10.614 965.4938,-14.4558 965.7345,-7.4599"/>
</g>
<!-- Node34&#45;&gt;Node21 -->
<g id="edge50" class="edge">
<title>Node34&#45;&gt;Node21</title>
<path fill="none" stroke="#191970" d="M1527.0933,-135.5749C1633.1331,-130.3579 1823.6673,-117.0389 1885,-87 1912.2926,-73.6329 1935.4443,-46.4048 1948.7875,-28.176"/>
<polygon fill="#191970" stroke="#191970" points="1951.9421,-29.7755 1954.841,-19.585 1946.2199,-25.7435 1951.9421,-29.7755"/>
</g>
<!-- Node34&#45;&gt;Node23 -->
<g id="edge52" class="edge">
<title>Node34&#45;&gt;Node23</title>
<path fill="none" stroke="#191970" d="M1453.0441,-128.907C1451.8985,-111.5392 1452.2738,-74.9344 1473,-56 1492.8495,-37.8666 1655.4199,-22.1921 1746.9474,-14.6988"/>
<polygon fill="#191970" stroke="#191970" points="1747.245,-18.1863 1756.93,-13.8909 1746.6802,-11.2091 1747.245,-18.1863"/>
</g>
<!-- Node34&#45;&gt;Node30 -->
<g id="edge51" class="edge">
<title>Node34&#45;&gt;Node30</title>
<path fill="none" stroke="#191970" d="M1504.4858,-128.9717C1568.6681,-116.8584 1679.3778,-95.9639 1748.1531,-82.9838"/>
<polygon fill="#191970" stroke="#191970" points="1749.2239,-86.3436 1758.4012,-81.0496 1747.9256,-79.465 1749.2239,-86.3436"/>
</g>
<!-- Node34&#45;&gt;Node31 -->
<g id="edge53" class="edge">
<title>Node34&#45;&gt;Node31</title>
<path fill="none" stroke="#191970" d="M1451.1438,-128.8416C1444.9268,-107.8184 1430.0644,-57.5598 1421.7972,-29.6038"/>
<polygon fill="#191970" stroke="#191970" points="1425.0815,-28.3674 1418.8893,-19.7705 1418.3689,-30.3525 1425.0815,-28.3674"/>
</g>
<!-- Node35 -->
<g id="node36" class="node">
<title>Node35</title>
<polygon fill="#ffffff" stroke="#bfbfbf" points="1482,-62 1482,-81 1610,-81 1610,-62 1482,-62"/>
<text text-anchor="middle" x="1546" y="-69" font-family="Helvetica,sans-Serif" font-size="10.00" fill="#000000">AMReX_PhysBCFunct.H</text>
</g>
<!-- Node34&#45;&gt;Node35 -->
<g id="edge54" class="edge">
<title>Node34&#45;&gt;Node35</title>
<path fill="none" stroke="#191970" d="M1467.1814,-128.9005C1482.2111,-117.9549 1506.9942,-99.9064 1524.7593,-86.9688"/>
<polygon fill="#191970" stroke="#191970" points="1526.82,-89.7979 1532.8431,-81.0817 1522.6991,-84.1394 1526.82,-89.7979"/>
</g>
<!-- Node36&#45;&gt;Node3 -->
<g id="edge60" class="edge">
<title>Node36&#45;&gt;Node3</title>
<path fill="none" stroke="#191970" d="M730.2692,-124.4859C727.1404,-123.9621 724.0397,-123.4637 721,-123 575.5869,-100.8199 537.2041,-110.5097 392,-87 385.1309,-85.8878 377.9284,-84.548 370.8448,-83.1277"/>
<polygon fill="#191970" stroke="#191970" points="371.1063,-79.6076 360.6042,-81.0061 369.6862,-86.462 371.1063,-79.6076"/>
</g>
<!-- Node36&#45;&gt;Node10 -->
<g id="edge59" class="edge">
<title>Node36&#45;&gt;Node10</title>
<path fill="none" stroke="#191970" d="M818.1216,-123.2885C829.9535,-113.2096 845.6298,-99.5756 859,-87 880.2048,-67.0555 903.5899,-43.0382 918.7434,-27.1895"/>
<polygon fill="#191970" stroke="#191970" points="921.5025,-29.3674 925.8622,-19.7111 916.4323,-24.541 921.5025,-29.3674"/>
</g>
<!-- Node36&#45;&gt;Node21 -->
<g id="edge68" class="edge">
<title>Node36&#45;&gt;Node21</title>
<path fill="none" stroke="#191970" d="M869.5004,-124.1618C909.8339,-115.0907 961.3339,-102.2157 1006,-87 1038.593,-75.897 1043.4629,-63.8001 1077,-56 1245.7975,-16.7408 1678.5537,-33.0404 1869.1741,-19.9726"/>
<polygon fill="#191970" stroke="#191970" points="1869.4523,-23.4617 1879.1707,-19.2425 1868.9423,-16.4803 1869.4523,-23.4617"/>
</g>
<!-- Node36&#45;&gt;Node29 -->
<g id="edge69" class="edge">
<title>Node36&#45;&gt;Node29</title>
<path fill="none" stroke="#191970" d="M869.7299,-124.4797C872.8589,-123.9576 875.9599,-123.4612 879,-123 1026.6153,-100.6062 1065.5625,-110.5356 1213,-87 1220.1247,-85.8627 1227.6041,-84.4867 1234.9466,-83.0297"/>
<polygon fill="#191970" stroke="#191970" points="1235.733,-86.4414 1244.8283,-81.0075 1234.3296,-79.5835 1235.733,-86.4414"/>
</g>
<!-- Node37 -->
<g id="node38" class="node">
<title>Node37</title>
<g id="a_node38"><a xlink:href="_coll_mgr_8_h.html" target="_top" xlink:title="amr&#45;wind/core/CollMgr.H">
<polygon fill="#ffffff" stroke="#000000" points="567.5,-62 567.5,-81 692.5,-81 692.5,-62 567.5,-62"/>
<text text-anchor="middle" x="630" y="-69" font-family="Helvetica,sans-Serif" font-size="10.00" fill="#000000">amr&#45;wind/core/CollMgr.H</text>
</a>
</g>
</g>
<!-- Node36&#45;&gt;Node37 -->
<g id="edge61" class="edge">
<title>Node36&#45;&gt;Node37</title>
<path fill="none" stroke="#191970" d="M761.8487,-123.4639C732.4255,-111.8677 692.1107,-95.9789 663.8314,-84.8335"/>
<polygon fill="#191970" stroke="#191970" points="664.955,-81.5144 654.3682,-81.1039 662.3883,-88.0269 664.955,-81.5144"/>
</g>
<!-- Node38 -->
<g id="node39" class="node">
<title>Node38</title>
<g id="a_node39"><a xlink:href="_p_d_e_fields_8_h.html" target="_top" xlink:title="amr&#45;wind/equation_systems\l/PDEFields.H">
<polygon fill="#ffffff" stroke="#000000" points="710.5,-56.5 710.5,-86.5 849.5,-86.5 849.5,-56.5 710.5,-56.5"/>
<text text-anchor="start" x="718.5" y="-74.5" font-family="Helvetica,sans-Serif" font-size="10.00" fill="#000000">amr&#45;wind/equation_systems</text>
<text text-anchor="middle" x="780" y="-63.5" font-family="Helvetica,sans-Serif" font-size="10.00" fill="#000000">/PDEFields.H</text>
</a>
</g>
</g>
<!-- Node36&#45;&gt;Node38 -->
<g id="edge66" class="edge">
<title>Node36&#45;&gt;Node38</title>
<path fill="none" stroke="#191970" d="M795.4617,-123.2967C793.0836,-115.3299 790.111,-105.3718 787.4093,-96.3213"/>
<polygon fill="#191970" stroke="#191970" points="790.7345,-95.2242 784.5203,-86.6432 784.027,-97.2265 790.7345,-95.2242"/>
</g>
<!-- Node37&#45;&gt;Node4 -->
<g id="edge63" class="edge">
<title>Node37&#45;&gt;Node4</title>
<path fill="none" stroke="#191970" d="M630,-61.8906C630,-53.3657 630,-40.6392 630,-29.9235"/>
<polygon fill="#191970" stroke="#191970" points="633.5001,-29.7448 630,-19.7449 626.5001,-29.7449 633.5001,-29.7448"/>
</g>
<!-- Node37&#45;&gt;Node5 -->
<g id="edge64" class="edge">
<title>Node37&#45;&gt;Node5</title>
<path fill="none" stroke="#191970" d="M615.7813,-61.8906C601.3566,-52.1421 578.8024,-36.8994 561.864,-25.4521"/>
<polygon fill="#191970" stroke="#191970" points="563.3641,-22.2415 553.1189,-19.5419 559.4444,-28.0412 563.3641,-22.2415"/>
</g>
<!-- Node37&#45;&gt;Node10 -->
<g id="edge62" class="edge">
<title>Node37&#45;&gt;Node10</title>
<path fill="none" stroke="#191970" d="M673.1477,-61.9299C682.3334,-59.9347 691.9818,-57.8706 701,-56 773.8098,-40.8976 859.6319,-24.3448 904.3714,-15.8101"/>
<polygon fill="#191970" stroke="#191970" points="905.143,-19.2262 914.3115,-13.9169 903.8333,-12.3498 905.143,-19.2262"/>
</g>
<!-- Node37&#45;&gt;Node31 -->
<g id="edge65" class="edge">
<title>Node37&#45;&gt;Node31</title>
<path fill="none" stroke="#191970" d="M668.5005,-61.989C678.9851,-59.7022 690.3801,-57.4922 701,-56 943.6718,-21.9031 1236.2834,-13.0432 1358.2545,-10.7705"/>
<polygon fill="#191970" stroke="#191970" points="1358.543,-14.266 1368.4789,-10.5881 1358.4181,-7.2671 1358.543,-14.266"/>
</g>
<!-- Node39 -->
<g id="node40" class="node">
<title>Node39</title>
<polygon fill="#ffffff" stroke="#bfbfbf" points="757.5,-.5 757.5,-19.5 802.5,-19.5 802.5,-.5 757.5,-.5"/>
<text text-anchor="middle" x="780" y="-7.5" font-family="Helvetica,sans-Serif" font-size="10.00" fill="#000000">iosfwd</text>
</g>
<!-- Node38&#45;&gt;Node39 -->
<g id="edge67" class="edge">
<title>Node38&#45;&gt;Node39</title>
<path fill="none" stroke="#191970" d="M780,-56.2977C780,-48.3834 780,-38.6043 780,-30.0759"/>
<polygon fill="#191970" stroke="#191970" points="783.5001,-29.8469 780,-19.8469 776.5001,-29.847 783.5001,-29.8469"/>
</g>
<!-- Node40&#45;&gt;Node3 -->
<g id="edge71" class="edge">
<title>Node40&#45;&gt;Node3</title>
<path fill="none" stroke="#191970" d="M272.8802,-128.9005C281.3752,-118.552 295.0824,-101.8542 305.528,-89.1295"/>
<polygon fill="#191970" stroke="#191970" points="308.4947,-91.0317 312.1345,-81.0817 303.0842,-86.5902 308.4947,-91.0317"/>
</g>
<!-- Node40&#45;&gt;Node23 -->
<g id="edge73" class="edge">
<title>Node40&#45;&gt;Node23</title>
<path fill="none" stroke="#191970" d="M304.9829,-128.9549C315.6574,-126.6966 327.222,-124.509 338,-123 567.8656,-90.8167 629.1122,-119.0244 859,-87 925.1317,-77.7876 939.8152,-64.8232 1006,-56 1148.8892,-36.9511 1583.6143,-18.7073 1746.4939,-12.3606"/>
<polygon fill="#191970" stroke="#191970" points="1746.9666,-15.8449 1756.8234,-11.9598 1746.6952,-8.8502 1746.9666,-15.8449"/>
</g>
<!-- Node40&#45;&gt;Node37 -->
<g id="edge72" class="edge">
<title>Node40&#45;&gt;Node37</title>
<path fill="none" stroke="#191970" d="M308.5693,-128.9909C318.246,-126.951 328.4613,-124.8533 338,-123 414.7878,-108.081 503.3006,-92.7276 562.5626,-82.7121"/>
<polygon fill="#191970" stroke="#191970" points="563.2673,-86.1428 572.5461,-81.0286 562.1033,-79.2402 563.2673,-86.1428"/>
</g>
<!-- Node41 -->
<g id="node42" class="node">
<title>Node41</title>
<polygon fill="#ffffff" stroke="#bfbfbf" points="401,-62 401,-81 511,-81 511,-62 401,-62"/>
<text text-anchor="middle" x="456" y="-69" font-family="Helvetica,sans-Serif" font-size="10.00" fill="#000000">AMReX_Geometry.H</text>
</g>
<!-- Node40&#45;&gt;Node41 -->
<g id="edge74" class="edge">
<title>Node40&#45;&gt;Node41</title>
<path fill="none" stroke="#191970" d="M292.3656,-128.9005C325.6962,-117.2086 382.1309,-97.4122 419.2323,-84.3976"/>
<polygon fill="#191970" stroke="#191970" points="420.4074,-87.6945 428.6851,-81.0817 418.0903,-81.0891 420.4074,-87.6945"/>
</g>
</g>
</svg>
