<?xml version="1.0" encoding="UTF-8" standalone="no"?>
<!DOCTYPE svg PUBLIC "-//W3C//DTD SVG 1.1//EN"
 "http://www.w3.org/Graphics/SVG/1.1/DTD/svg11.dtd">
<!-- Generated by graphviz version 2.40.1 (20161225.0304)
 -->
<!-- Title: RayleighTaylor.H Pages: 1 -->
<!--zoomable 207 -->
<svg id="main" version="1.1" xmlns="http://www.w3.org/2000/svg" xmlns:xlink="http://www.w3.org/1999/xlink" xml:space="preserve" onload="init(evt)">
<style type="text/css"><![CDATA[
.edge:hover path { stroke: red; }
.edge:hover polygon { stroke: red; fill: red; }
]]></style>
<script type="text/javascript"><![CDATA[
var edges = document.getElementsByTagName('g');
if (edges && edges.length) {
  for (var i=0;i<edges.length;i++) {
    if (edges[i].id.substr(0,4)=='edge') {
      edges[i].setAttribute('class','edge');
    }
  }
}
]]></script>
        <defs>
                <circle id="rim" cx="0" cy="0" r="7"/>
                <circle id="rim2" cx="0" cy="0" r="3.5"/>
                <g id="zoomPlus">
                        <use xlink:href="#rim" fill="#404040">
                                <set attributeName="fill" to="#808080" begin="zoomplus.mouseover" end="zoomplus.mouseout"/>
                        </use>
                        <path d="M-4,0h8M0,-4v8" fill="none" stroke="white" stroke-width="1.5" pointer-events="none"/>
                </g>
                <g id="zoomMin">
                        <use xlink:href="#rim" fill="#404040">
                                <set attributeName="fill" to="#808080" begin="zoomminus.mouseover" end="zoomminus.mouseout"/>
                        </use>
                        <path d="M-4,0h8" fill="none" stroke="white" stroke-width="1.5" pointer-events="none"/>
                </g>
                <g id="dirArrow">
                        <path fill="none" stroke="white" stroke-width="1.5" d="M0,-3.0v7 M-2.5,-0.5L0,-3.0L2.5,-0.5"/>
                </g>
               <g id="resetDef">
                       <use xlink:href="#rim2" fill="#404040">
                               <set attributeName="fill" to="#808080" begin="reset.mouseover" end="reset.mouseout"/>
                       </use>
               </g>
        </defs>

<script type="text/javascript">
var viewWidth = 1920;
var viewHeight = 207;
var sectionId = 'dynsection-0';
</script>
<script xlink:href="svgpan.js"/>
<svg id="graph" class="graph">
<g id="viewport">
<title>RayleighTaylor.H</title>
<polygon fill="#ffffff" stroke="transparent" points="-4,4 -4,-203 1916,-203 1916,4 -4,4"/>
<!-- Node0 -->
<g id="node1" class="node">
<title>Node0</title>
<polygon fill="#bfbfbf" stroke="#000000" points="544.5,-179.5 544.5,-198.5 636.5,-198.5 636.5,-179.5 544.5,-179.5"/>
<text text-anchor="middle" x="590.5" y="-186.5" font-family="Helvetica,sans-Serif" font-size="10.00" fill="#000000">RayleighTaylor.H</text>
</g>
<!-- Node1 -->
<g id="node2" class="node">
<title>Node1</title>
<polygon fill="#ffffff" stroke="#bfbfbf" points="257.5,-.5 257.5,-19.5 309.5,-19.5 309.5,-.5 257.5,-.5"/>
<text text-anchor="middle" x="283.5" y="-7.5" font-family="Helvetica,sans-Serif" font-size="10.00" fill="#000000">memory</text>
</g>
<!-- Node0&#45;&gt;Node1 -->
<g id="edge1" class="edge">
<title>Node0&#45;&gt;Node1</title>
<path fill="none" stroke="#191970" d="M544.379,-185.7173C496.8042,-180.9821 421.3226,-169.6496 361.5,-143 315.9484,-122.7079 293.8807,-120.5626 271.5,-76 264.1693,-61.4037 268.4726,-42.9913 273.8627,-29.325"/>
<polygon fill="#191970" stroke="#191970" points="277.1694,-30.5018 278.0217,-19.9413 270.7698,-27.6654 277.1694,-30.5018"/>
</g>
<!-- Node2 -->
<g id="node3" class="node">
<title>Node2</title>
<g id="a_node3"><a xlink:href="_physics_8_h.html" target="_top" xlink:title="amr&#45;wind/core/Physics.H">
<polygon fill="#ffffff" stroke="#000000" points="371,-118 371,-137 498,-137 498,-118 371,-118"/>
<text text-anchor="middle" x="434.5" y="-125" font-family="Helvetica,sans-Serif" font-size="10.00" fill="#000000">amr&#45;wind/core/Physics.H</text>
</a>
</g>
</g>
<!-- Node0&#45;&gt;Node2 -->
<g id="edge2" class="edge">
<title>Node0&#45;&gt;Node2</title>
<path fill="none" stroke="#191970" d="M566.125,-179.3906C539.7944,-169.0103 497.662,-152.4004 468.1771,-140.7766"/>
<polygon fill="#191970" stroke="#191970" points="469.2907,-137.4534 458.7038,-137.0419 466.7233,-143.9657 469.2907,-137.4534"/>
</g>
<!-- Node13 -->
<g id="node14" class="node">
<title>Node13</title>
<g id="a_node14"><a xlink:href="_rayleigh_taylor_field_init_8_h.html" target="_top" xlink:title="amr&#45;wind/physics/Rayleigh\lTaylorFieldInit.H">
<polygon fill="#ffffff" stroke="#000000" points="732.5,-112.5 732.5,-142.5 866.5,-142.5 866.5,-112.5 732.5,-112.5"/>
<text text-anchor="start" x="740.5" y="-130.5" font-family="Helvetica,sans-Serif" font-size="10.00" fill="#000000">amr&#45;wind/physics/Rayleigh</text>
<text text-anchor="middle" x="799.5" y="-119.5" font-family="Helvetica,sans-Serif" font-size="10.00" fill="#000000">TaylorFieldInit.H</text>
</a>
</g>
</g>
<!-- Node0&#45;&gt;Node13 -->
<g id="edge16" class="edge">
<title>Node0&#45;&gt;Node13</title>
<path fill="none" stroke="#191970" d="M623.1563,-179.3906C653.9299,-170.3352 700.8146,-156.539 738.5065,-145.4479"/>
<polygon fill="#191970" stroke="#191970" points="739.7676,-148.7252 748.3728,-142.5446 737.7915,-142.0099 739.7676,-148.7252"/>
</g>
<!-- Node19 -->
<g id="node20" class="node">
<title>Node19</title>
<g id="a_node20"><a xlink:href="_field_8_h.html" target="_top" xlink:title="amr&#45;wind/core/Field.H">
<polygon fill="#ffffff" stroke="#000000" points="1311,-118 1311,-137 1424,-137 1424,-118 1311,-118"/>
<text text-anchor="middle" x="1367.5" y="-125" font-family="Helvetica,sans-Serif" font-size="10.00" fill="#000000">amr&#45;wind/core/Field.H</text>
</a>
</g>
</g>
<!-- Node0&#45;&gt;Node19 -->
<g id="edge24" class="edge">
<title>Node0&#45;&gt;Node19</title>
<path fill="none" stroke="#191970" d="M636.778,-185.3371C768.5973,-174.9035 1146.4471,-144.9965 1300.6992,-132.7873"/>
<polygon fill="#191970" stroke="#191970" points="1301.2795,-136.2524 1310.9721,-131.9742 1300.7271,-129.2743 1301.2795,-136.2524"/>
</g>
<!-- Node3 -->
<g id="node4" class="node">
<title>Node3</title>
<g id="a_node4"><a xlink:href="_factory_8_h.html" target="_top" xlink:title="amr&#45;wind/core/Factory.H">
<polygon fill="#ffffff" stroke="#000000" points="99,-56.5 99,-75.5 224,-75.5 224,-56.5 99,-56.5"/>
<text text-anchor="middle" x="161.5" y="-63.5" font-family="Helvetica,sans-Serif" font-size="10.00" fill="#000000">amr&#45;wind/core/Factory.H</text>
</a>
</g>
</g>
<!-- Node2&#45;&gt;Node3 -->
<g id="edge3" class="edge">
<title>Node2&#45;&gt;Node3</title>
<path fill="none" stroke="#191970" d="M392.1433,-117.9581C344.1243,-107.1406 265.799,-89.4959 213.955,-77.8168"/>
<polygon fill="#191970" stroke="#191970" points="214.4808,-74.3476 203.9561,-75.5643 212.9424,-81.1765 214.4808,-74.3476"/>
</g>
<!-- Node8 -->
<g id="node9" class="node">
<title>Node8</title>
<g id="a_node9"><a xlink:href="_coll_mgr_8_h.html" target="_top" xlink:title="amr&#45;wind/core/CollMgr.H">
<polygon fill="#ffffff" stroke="#000000" points="281,-56.5 281,-75.5 406,-75.5 406,-56.5 281,-56.5"/>
<text text-anchor="middle" x="343.5" y="-63.5" font-family="Helvetica,sans-Serif" font-size="10.00" fill="#000000">amr&#45;wind/core/CollMgr.H</text>
</a>
</g>
</g>
<!-- Node2&#45;&gt;Node8 -->
<g id="edge9" class="edge">
<title>Node2&#45;&gt;Node8</title>
<path fill="none" stroke="#191970" d="M420.2813,-117.8906C405.8566,-108.1421 383.3024,-92.8994 366.364,-81.4521"/>
<polygon fill="#191970" stroke="#191970" points="367.8641,-78.2415 357.6189,-75.5419 363.9444,-84.0412 367.8641,-78.2415"/>
</g>
<!-- Node11 -->
<g id="node12" class="node">
<title>Node11</title>
<polygon fill="#ffffff" stroke="#bfbfbf" points="1626.5,-.5 1626.5,-19.5 1730.5,-19.5 1730.5,-.5 1626.5,-.5"/>
<text text-anchor="middle" x="1678.5" y="-7.5" font-family="Helvetica,sans-Serif" font-size="10.00" fill="#000000">AMReX_MultiFab.H</text>
</g>
<!-- Node2&#45;&gt;Node11 -->
<g id="edge14" class="edge">
<title>Node2&#45;&gt;Node11</title>
<path fill="none" stroke="#191970" d="M433.7971,-117.9719C433.2216,-102.2016 434.689,-70.9339 453.5,-56 504.1275,-15.8073 1552.1521,-26.1594 1616.5,-20 1616.6018,-19.9903 1616.7036,-19.9805 1616.8055,-19.9706"/>
<polygon fill="#191970" stroke="#191970" points="1616.9179,-23.4799 1626.4676,-18.8915 1616.1409,-16.5232 1616.9179,-23.4799"/>
</g>
<!-- Node12 -->
<g id="node13" class="node">
<title>Node12</title>
<polygon fill="#ffffff" stroke="#bfbfbf" points="462.5,-56.5 462.5,-75.5 572.5,-75.5 572.5,-56.5 462.5,-56.5"/>
<text text-anchor="middle" x="517.5" y="-63.5" font-family="Helvetica,sans-Serif" font-size="10.00" fill="#000000">AMReX_Geometry.H</text>
</g>
<!-- Node2&#45;&gt;Node12 -->
<g id="edge15" class="edge">
<title>Node2&#45;&gt;Node12</title>
<path fill="none" stroke="#191970" d="M447.4688,-117.8906C460.5034,-108.2324 480.8164,-93.1812 496.2155,-81.771"/>
<polygon fill="#191970" stroke="#191970" points="498.6713,-84.3075 504.6223,-75.5419 494.5039,-78.6832 498.6713,-84.3075"/>
</g>
<!-- Node3&#45;&gt;Node1 -->
<g id="edge4" class="edge">
<title>Node3&#45;&gt;Node1</title>
<path fill="none" stroke="#191970" d="M182.4725,-56.3733C202.0567,-47.3838 231.4961,-33.8706 253.551,-23.7471"/>
<polygon fill="#191970" stroke="#191970" points="255.1729,-26.8538 262.8011,-19.5011 252.2527,-20.4919 255.1729,-26.8538"/>
</g>
<!-- Node4 -->
<g id="node5" class="node">
<title>Node4</title>
<polygon fill="#ffffff" stroke="#bfbfbf" points="328,-.5 328,-19.5 411,-19.5 411,-.5 328,-.5"/>
<text text-anchor="middle" x="369.5" y="-7.5" font-family="Helvetica,sans-Serif" font-size="10.00" fill="#000000">unordered_map</text>
</g>
<!-- Node3&#45;&gt;Node4 -->
<g id="edge5" class="edge">
<title>Node3&#45;&gt;Node4</title>
<path fill="none" stroke="#191970" d="M197.2565,-56.3733C232.4426,-46.9001 286.2881,-32.4032 324.3956,-22.1435"/>
<polygon fill="#191970" stroke="#191970" points="325.4639,-25.4806 334.2101,-19.5011 323.644,-18.7213 325.4639,-25.4806"/>
</g>
<!-- Node5 -->
<g id="node6" class="node">
<title>Node5</title>
<polygon fill="#ffffff" stroke="#bfbfbf" points="185.5,-.5 185.5,-19.5 239.5,-19.5 239.5,-.5 185.5,-.5"/>
<text text-anchor="middle" x="212.5" y="-7.5" font-family="Helvetica,sans-Serif" font-size="10.00" fill="#000000">iostream</text>
</g>
<!-- Node3&#45;&gt;Node5 -->
<g id="edge6" class="edge">
<title>Node3&#45;&gt;Node5</title>
<path fill="none" stroke="#191970" d="M170.3835,-56.2455C177.6966,-48.2155 188.2391,-36.6394 196.9467,-27.0781"/>
<polygon fill="#191970" stroke="#191970" points="199.5727,-29.3928 203.7183,-19.6427 194.3972,-24.6795 199.5727,-29.3928"/>
</g>
<!-- Node6 -->
<g id="node7" class="node">
<title>Node6</title>
<polygon fill="#ffffff" stroke="#bfbfbf" points="0,-.5 0,-19.5 87,-19.5 87,-.5 0,-.5"/>
<text text-anchor="middle" x="43.5" y="-7.5" font-family="Helvetica,sans-Serif" font-size="10.00" fill="#000000">AMReX_Print.H</text>
</g>
<!-- Node3&#45;&gt;Node6 -->
<g id="edge7" class="edge">
<title>Node3&#45;&gt;Node6</title>
<path fill="none" stroke="#191970" d="M141.2151,-56.3733C122.3579,-47.4241 94.054,-33.9917 72.7545,-23.8835"/>
<polygon fill="#191970" stroke="#191970" points="74.0551,-20.6266 63.5202,-19.5011 71.0539,-26.9506 74.0551,-20.6266"/>
</g>
<!-- Node7 -->
<g id="node8" class="node">
<title>Node7</title>
<polygon fill="#ffffff" stroke="#bfbfbf" points="105.5,-.5 105.5,-19.5 167.5,-19.5 167.5,-.5 105.5,-.5"/>
<text text-anchor="middle" x="136.5" y="-7.5" font-family="Helvetica,sans-Serif" font-size="10.00" fill="#000000">AMReX.H</text>
</g>
<!-- Node3&#45;&gt;Node7 -->
<g id="edge8" class="edge">
<title>Node3&#45;&gt;Node7</title>
<path fill="none" stroke="#191970" d="M157.1453,-56.2455C153.7756,-48.6973 149.007,-38.0158 144.9017,-28.8197"/>
<polygon fill="#191970" stroke="#191970" points="148.0773,-27.3473 140.8048,-19.6427 141.6853,-30.2009 148.0773,-27.3473"/>
</g>
<!-- Node8&#45;&gt;Node1 -->
<g id="edge11" class="edge">
<title>Node8&#45;&gt;Node1</title>
<path fill="none" stroke="#191970" d="M333.0488,-56.2455C324.2731,-48.0549 311.5446,-36.1749 301.186,-26.5069"/>
<polygon fill="#191970" stroke="#191970" points="303.5301,-23.9072 293.8314,-19.6427 298.7539,-29.0246 303.5301,-23.9072"/>
</g>
<!-- Node8&#45;&gt;Node4 -->
<g id="edge12" class="edge">
<title>Node8&#45;&gt;Node4</title>
<path fill="none" stroke="#191970" d="M348.0289,-56.2455C351.5334,-48.6973 356.4927,-38.0158 360.7623,-28.8197"/>
<polygon fill="#191970" stroke="#191970" points="363.9864,-30.1867 365.023,-19.6427 357.6373,-27.2389 363.9864,-30.1867"/>
</g>
<!-- Node9 -->
<g id="node10" class="node">
<title>Node9</title>
<polygon fill="#ffffff" stroke="#bfbfbf" points="1567,-.5 1567,-19.5 1608,-19.5 1608,-.5 1567,-.5"/>
<text text-anchor="middle" x="1587.5" y="-7.5" font-family="Helvetica,sans-Serif" font-size="10.00" fill="#000000">string</text>
</g>
<!-- Node8&#45;&gt;Node9 -->
<g id="edge10" class="edge">
<title>Node8&#45;&gt;Node9</title>
<path fill="none" stroke="#191970" d="M406.0646,-57.3975C410.9435,-56.8726 415.7986,-56.3971 420.5,-56 650.592,-36.5636 1395.0374,-15.2997 1556.4436,-10.8459"/>
<polygon fill="#191970" stroke="#191970" points="1556.7328,-14.3393 1566.6328,-10.5657 1556.5403,-7.342 1556.7328,-14.3393"/>
</g>
<!-- Node10 -->
<g id="node11" class="node">
<title>Node10</title>
<polygon fill="#ffffff" stroke="#bfbfbf" points="988,-.5 988,-19.5 1083,-19.5 1083,-.5 988,-.5"/>
<text text-anchor="middle" x="1035.5" y="-7.5" font-family="Helvetica,sans-Serif" font-size="10.00" fill="#000000">AMReX_Vector.H</text>
</g>
<!-- Node8&#45;&gt;Node10 -->
<g id="edge13" class="edge">
<title>Node8&#45;&gt;Node10</title>
<path fill="none" stroke="#191970" d="M406.0818,-57.5827C410.9569,-57.0156 415.8064,-56.48 420.5,-56 625.0645,-35.0819 868.8294,-19.6602 977.8443,-13.261"/>
<polygon fill="#191970" stroke="#191970" points="978.1887,-16.747 987.9677,-12.67 977.7806,-9.7589 978.1887,-16.747"/>
</g>
<!-- Node13&#45;&gt;Node10 -->
<g id="edge22" class="edge">
<title>Node13&#45;&gt;Node10</title>
<path fill="none" stroke="#191970" d="M866.7527,-119.0452C922.2198,-110.7524 995.1357,-96.3773 1016.5,-76 1029.0137,-64.0644 1033.4468,-44.4696 1034.9388,-29.7246"/>
<polygon fill="#191970" stroke="#191970" points="1038.4407,-29.8061 1035.5915,-19.6015 1031.4552,-29.3556 1038.4407,-29.8061"/>
</g>
<!-- Node13&#45;&gt;Node12 -->
<g id="edge20" class="edge">
<title>Node13&#45;&gt;Node12</title>
<path fill="none" stroke="#191970" d="M732.3122,-112.8474C683.0893,-102.1126 617.1526,-87.7327 571.3711,-77.7485"/>
<polygon fill="#191970" stroke="#191970" points="571.8616,-74.2733 561.3455,-75.562 570.37,-81.1125 571.8616,-74.2733"/>
</g>
<!-- Node14 -->
<g id="node15" class="node">
<title>Node14</title>
<polygon fill="#ffffff" stroke="#bfbfbf" points="917.5,-56.5 917.5,-75.5 1007.5,-75.5 1007.5,-56.5 917.5,-56.5"/>
<text text-anchor="middle" x="962.5" y="-63.5" font-family="Helvetica,sans-Serif" font-size="10.00" fill="#000000">AMReX_Array.H</text>
</g>
<!-- Node13&#45;&gt;Node14 -->
<g id="edge17" class="edge">
<title>Node13&#45;&gt;Node14</title>
<path fill="none" stroke="#191970" d="M839.3743,-112.4554C866.452,-102.239 901.9094,-88.8609 927.8166,-79.0861"/>
<polygon fill="#191970" stroke="#191970" points="929.1201,-82.3352 937.2408,-75.5303 926.649,-75.7858 929.1201,-82.3352"/>
</g>
<!-- Node15 -->
<g id="node16" class="node">
<title>Node15</title>
<polygon fill="#ffffff" stroke="#bfbfbf" points="591,-56.5 591,-75.5 686,-75.5 686,-56.5 591,-56.5"/>
<text text-anchor="middle" x="638.5" y="-63.5" font-family="Helvetica,sans-Serif" font-size="10.00" fill="#000000">AMReX_Array4.H</text>
</g>
<!-- Node13&#45;&gt;Node15 -->
<g id="edge18" class="edge">
<title>Node13&#45;&gt;Node15</title>
<path fill="none" stroke="#191970" d="M760.115,-112.4554C733.4873,-102.284 698.6556,-88.9787 673.0966,-79.2155"/>
<polygon fill="#191970" stroke="#191970" points="674.0399,-75.8292 663.4493,-75.5303 671.542,-82.3684 674.0399,-75.8292"/>
</g>
<!-- Node16 -->
<g id="node17" class="node">
<title>Node16</title>
<polygon fill="#ffffff" stroke="#bfbfbf" points="704.5,-56.5 704.5,-75.5 788.5,-75.5 788.5,-56.5 704.5,-56.5"/>
<text text-anchor="middle" x="746.5" y="-63.5" font-family="Helvetica,sans-Serif" font-size="10.00" fill="#000000">AMReX_Box.H</text>
</g>
<!-- Node13&#45;&gt;Node16 -->
<g id="edge19" class="edge">
<title>Node13&#45;&gt;Node16</title>
<path fill="none" stroke="#191970" d="M786.3989,-112.2977C778.8887,-103.5831 769.43,-92.6075 761.6073,-83.5302"/>
<polygon fill="#191970" stroke="#191970" points="764.1655,-81.1372 754.986,-75.8469 758.8629,-85.707 764.1655,-81.1372"/>
</g>
<!-- Node17 -->
<g id="node18" class="node">
<title>Node17</title>
<polygon fill="#ffffff" stroke="#bfbfbf" points="806,-56.5 806,-75.5 899,-75.5 899,-56.5 806,-56.5"/>
<text text-anchor="middle" x="852.5" y="-63.5" font-family="Helvetica,sans-Serif" font-size="10.00" fill="#000000">AMReX_REAL.H</text>
</g>
<!-- Node13&#45;&gt;Node17 -->
<g id="edge21" class="edge">
<title>Node13&#45;&gt;Node17</title>
<path fill="none" stroke="#191970" d="M812.6011,-112.2977C820.1113,-103.5831 829.57,-92.6075 837.3927,-83.5302"/>
<polygon fill="#191970" stroke="#191970" points="840.1371,-85.707 844.014,-75.8469 834.8345,-81.1372 840.1371,-85.707"/>
</g>
<!-- Node18 -->
<g id="node19" class="node">
<title>Node18</title>
<polygon fill="#ffffff" stroke="#bfbfbf" points="1064,-56.5 1064,-75.5 1149,-75.5 1149,-56.5 1064,-56.5"/>
<text text-anchor="middle" x="1106.5" y="-63.5" font-family="Helvetica,sans-Serif" font-size="10.00" fill="#000000">AMReX_Gpu.H</text>
</g>
<!-- Node13&#45;&gt;Node18 -->
<g id="edge23" class="edge">
<title>Node13&#45;&gt;Node18</title>
<path fill="none" stroke="#191970" d="M866.8725,-114.0036C923.1334,-102.7331 1002.2175,-86.8905 1053.9017,-76.5368"/>
<polygon fill="#191970" stroke="#191970" points="1054.7407,-79.9383 1063.8583,-74.5422 1053.3656,-73.0747 1054.7407,-79.9383"/>
</g>
<!-- Node19&#45;&gt;Node1 -->
<g id="edge26" class="edge">
<title>Node19&#45;&gt;Node1</title>
<path fill="none" stroke="#191970" d="M1324.1452,-117.9864C1287.8703,-109.2834 1235.1855,-94.8934 1191.5,-76 1175.4088,-69.0408 1174.313,-60.9679 1157.5,-56 981.5916,-4.0229 518.8914,-48.2723 319.8625,-19.763"/>
<polygon fill="#191970" stroke="#191970" points="320.1378,-16.2644 309.723,-18.209 319.0773,-23.1836 320.1378,-16.2644"/>
</g>
<!-- Node19&#45;&gt;Node4 -->
<g id="edge27" class="edge">
<title>Node19&#45;&gt;Node4</title>
<path fill="none" stroke="#191970" d="M1341.301,-117.9372C1314.3286,-107.9566 1271.1808,-91.6121 1234.5,-76 1215.1064,-67.7457 1211.9445,-61.1252 1191.5,-56 1044.7068,-19.2004 578.3225,-11.8061 421.5102,-10.3495"/>
<polygon fill="#191970" stroke="#191970" points="421.2296,-6.847 411.1989,-10.2582 421.1675,-13.8467 421.2296,-6.847"/>
</g>
<!-- Node19&#45;&gt;Node9 -->
<g id="edge25" class="edge">
<title>Node19&#45;&gt;Node9</title>
<path fill="none" stroke="#191970" d="M1424.2061,-119.9841C1477.4982,-111.7684 1552.0421,-96.9266 1572.5,-76 1584.4132,-63.8138 1587.6424,-44.2523 1588.2035,-29.5833"/>
<polygon fill="#191970" stroke="#191970" points="1591.7034,-29.5257 1588.2121,-19.5227 1584.7034,-29.5197 1591.7034,-29.5257"/>
</g>
<!-- Node19&#45;&gt;Node11 -->
<g id="edge29" class="edge">
<title>Node19&#45;&gt;Node11</title>
<path fill="none" stroke="#191970" d="M1424.2997,-124.1822C1528.2596,-117.5265 1740.5402,-101.0088 1762.5,-76 1781.1612,-54.7478 1747.783,-35.3952 1717.7421,-23.2204"/>
<polygon fill="#191970" stroke="#191970" points="1718.7654,-19.8637 1708.176,-19.5264 1716.2438,-26.3938 1718.7654,-19.8637"/>
</g>
<!-- Node19&#45;&gt;Node18 -->
<g id="edge31" class="edge">
<title>Node19&#45;&gt;Node18</title>
<path fill="none" stroke="#191970" d="M1327.0051,-117.9581C1281.1925,-107.1632 1206.5263,-89.5694 1156.9594,-77.8899"/>
<polygon fill="#191970" stroke="#191970" points="1157.6261,-74.4512 1147.0899,-75.5643 1156.0206,-81.2646 1157.6261,-74.4512"/>
</g>
<!-- Node20 -->
<g id="node21" class="node">
<title>Node20</title>
<polygon fill="#ffffff" stroke="#bfbfbf" points="1243.5,-56.5 1243.5,-75.5 1299.5,-75.5 1299.5,-56.5 1243.5,-56.5"/>
<text text-anchor="middle" x="1271.5" y="-63.5" font-family="Helvetica,sans-Serif" font-size="10.00" fill="#000000">algorithm</text>
</g>
<!-- Node19&#45;&gt;Node20 -->
<g id="edge28" class="edge">
<title>Node19&#45;&gt;Node20</title>
<path fill="none" stroke="#191970" d="M1352.5,-117.8906C1337.1419,-108.0519 1313.0479,-92.6167 1295.1255,-81.1351"/>
<polygon fill="#191970" stroke="#191970" points="1296.703,-77.9891 1286.3947,-75.5419 1292.927,-83.8833 1296.703,-77.9891"/>
</g>
<!-- Node21 -->
<g id="node22" class="node">
<title>Node21</title>
<polygon fill="#ffffff" stroke="#bfbfbf" points="1318,-56.5 1318,-75.5 1417,-75.5 1417,-56.5 1318,-56.5"/>
<text text-anchor="middle" x="1367.5" y="-63.5" font-family="Helvetica,sans-Serif" font-size="10.00" fill="#000000">AMReX_BCRec.H</text>
</g>
<!-- Node19&#45;&gt;Node21 -->
<g id="edge30" class="edge">
<title>Node19&#45;&gt;Node21</title>
<path fill="none" stroke="#191970" d="M1367.5,-117.8906C1367.5,-109.3657 1367.5,-96.6392 1367.5,-85.9235"/>
<polygon fill="#191970" stroke="#191970" points="1371.0001,-85.7448 1367.5,-75.7449 1364.0001,-85.7449 1371.0001,-85.7448"/>
</g>
<!-- Node22 -->
<g id="node23" class="node">
<title>Node22</title>
<g id="a_node23"><a xlink:href="incflo__enums_8_h.html" target="_top" xlink:title="amr&#45;wind/incflo_enums.H">
<polygon fill="#ffffff" stroke="#000000" points="1435.5,-56.5 1435.5,-75.5 1563.5,-75.5 1563.5,-56.5 1435.5,-56.5"/>
<text text-anchor="middle" x="1499.5" y="-63.5" font-family="Helvetica,sans-Serif" font-size="10.00" fill="#000000">amr&#45;wind/incflo_enums.H</text>
</a>
</g>
</g>
<!-- Node19&#45;&gt;Node22 -->
<g id="edge32" class="edge">
<title>Node19&#45;&gt;Node22</title>
<path fill="none" stroke="#191970" d="M1388.125,-117.8906C1410.0173,-107.6908 1444.8193,-91.4763 1469.6927,-79.8875"/>
<polygon fill="#191970" stroke="#191970" points="1471.4335,-82.9377 1479.0198,-75.5419 1468.4772,-76.5926 1471.4335,-82.9377"/>
</g>
<!-- Node23 -->
<g id="node24" class="node">
<title>Node23</title>
<g id="a_node24"><a xlink:href="_field_desc_types_8_h.html" target="_top" xlink:title="amr&#45;wind/core/FieldDescTypes.H">
<polygon fill="#ffffff" stroke="#000000" points="1749,-.5 1749,-19.5 1912,-19.5 1912,-.5 1749,-.5"/>
<text text-anchor="middle" x="1830.5" y="-7.5" font-family="Helvetica,sans-Serif" font-size="10.00" fill="#000000">amr&#45;wind/core/FieldDescTypes.H</text>
</a>
</g>
</g>
<!-- Node19&#45;&gt;Node23 -->
<g id="edge33" class="edge">
<title>Node19&#45;&gt;Node23</title>
<path fill="none" stroke="#191970" d="M1424.0622,-125.7491C1522.4074,-121.8399 1720.1033,-109.9004 1779.5,-76 1798.4826,-65.1658 1812.8099,-44.1638 1821.3726,-28.7502"/>
<polygon fill="#191970" stroke="#191970" points="1824.6292,-30.0752 1826.1581,-19.5913 1818.425,-26.8336 1824.6292,-30.0752"/>
</g>
<!-- Node24 -->
<g id="node25" class="node">
<title>Node24</title>
<g id="a_node25"><a xlink:href="_view_field_8_h.html" target="_top" xlink:title="amr&#45;wind/core/ViewField.H">
<polygon fill="#ffffff" stroke="#000000" points="1619.5,-56.5 1619.5,-75.5 1753.5,-75.5 1753.5,-56.5 1619.5,-56.5"/>
<text text-anchor="middle" x="1686.5" y="-63.5" font-family="Helvetica,sans-Serif" font-size="10.00" fill="#000000">amr&#45;wind/core/ViewField.H</text>
</a>
</g>
</g>
<!-- Node19&#45;&gt;Node24 -->
<g id="edge34" class="edge">
<title>Node19&#45;&gt;Node24</title>
<path fill="none" stroke="#191970" d="M1416.9937,-117.9581C1473.6541,-107.0345 1566.4255,-89.1492 1626.9799,-77.4749"/>
<polygon fill="#191970" stroke="#191970" points="1627.996,-80.8435 1637.1526,-75.5137 1626.6708,-73.9701 1627.996,-80.8435"/>
</g>
<!-- Node24&#45;&gt;Node9 -->
<g id="edge35" class="edge">
<title>Node24&#45;&gt;Node9</title>
<path fill="none" stroke="#191970" d="M1669.2555,-56.2455C1653.9239,-47.5731 1631.2801,-34.7645 1613.7084,-24.825"/>
<polygon fill="#191970" stroke="#191970" points="1614.9741,-21.5198 1604.5469,-19.6427 1611.5276,-27.6126 1614.9741,-21.5198"/>
</g>
<!-- Node24&#45;&gt;Node10 -->
<g id="edge38" class="edge">
<title>Node24&#45;&gt;Node10</title>
<path fill="none" stroke="#191970" d="M1619.2892,-60.0813C1603.9143,-58.7338 1587.642,-57.3127 1572.5,-56 1398.0578,-40.8776 1191.7124,-23.2847 1093.311,-14.9132"/>
<polygon fill="#191970" stroke="#191970" points="1093.5364,-11.4198 1083.2757,-14.0596 1092.9431,-18.3946 1093.5364,-11.4198"/>
</g>
<!-- Node24&#45;&gt;Node11 -->
<g id="edge37" class="edge">
<title>Node24&#45;&gt;Node11</title>
<path fill="none" stroke="#191970" d="M1685.1065,-56.2455C1684.0626,-48.9382 1682.5992,-38.6944 1681.3149,-29.7046"/>
<polygon fill="#191970" stroke="#191970" points="1684.7566,-29.0472 1679.8775,-19.6427 1677.827,-30.0372 1684.7566,-29.0472"/>
</g>
<!-- Node24&#45;&gt;Node23 -->
<g id="edge36" class="edge">
<title>Node24&#45;&gt;Node23</title>
<path fill="none" stroke="#191970" d="M1711.2545,-56.3733C1734.7849,-47.2226 1770.3687,-33.3844 1796.5426,-23.2057"/>
<polygon fill="#191970" stroke="#191970" points="1798.0171,-26.3877 1806.0685,-19.5011 1795.4799,-19.8636 1798.0171,-26.3877"/>
</g>
</g>
</svg>
        <g id="navigator" transform="translate(0 0)" fill="#404254">
                <rect fill="#f2f5e9" fill-opacity="0.5" stroke="#606060" stroke-width=".5" x="0" y="0" width="60" height="60"/>
                <use id="zoomplus" xlink:href="#zoomPlus" x="17" y="9" onmousedown="handleZoom(evt,'in')"/>
                <use id="zoomminus" xlink:href="#zoomMin" x="42" y="9" onmousedown="handleZoom(evt,'out')"/>
                <use id="reset" xlink:href="#resetDef" x="30" y="36" onmousedown="handleReset()"/>
                <g id="arrowUp" xlink:href="#dirArrow" transform="translate(30 24)" onmousedown="handlePan(0,-1)">
                  <use xlink:href="#rim" fill="#404040">
                        <set attributeName="fill" to="#808080" begin="arrowUp.mouseover" end="arrowUp.mouseout"/>
                  </use>
                  <path fill="none" stroke="white" stroke-width="1.5" d="M0,-3.0v7 M-2.5,-0.5L0,-3.0L2.5,-0.5"/>
                </g>
                <g id="arrowRight" xlink:href="#dirArrow" transform="rotate(90) translate(36 -43)" onmousedown="handlePan(1,0)">
                  <use xlink:href="#rim" fill="#404040">
                        <set attributeName="fill" to="#808080" begin="arrowRight.mouseover" end="arrowRight.mouseout"/>
                  </use>
                  <path fill="none" stroke="white" stroke-width="1.5" d="M0,-3.0v7 M-2.5,-0.5L0,-3.0L2.5,-0.5"/>
                </g>
                <g id="arrowDown" xlink:href="#dirArrow" transform="rotate(180) translate(-30 -48)" onmousedown="handlePan(0,1)">
                  <use xlink:href="#rim" fill="#404040">
                        <set attributeName="fill" to="#808080" begin="arrowDown.mouseover" end="arrowDown.mouseout"/>
                  </use>
                  <path fill="none" stroke="white" stroke-width="1.5" d="M0,-3.0v7 M-2.5,-0.5L0,-3.0L2.5,-0.5"/>
                </g>
                <g id="arrowLeft" xlink:href="#dirArrow" transform="rotate(270) translate(-36 17)" onmousedown="handlePan(-1,0)">
                  <use xlink:href="#rim" fill="#404040">
                        <set attributeName="fill" to="#808080" begin="arrowLeft.mouseover" end="arrowLeft.mouseout"/>
                  </use>
                  <path fill="none" stroke="white" stroke-width="1.5" d="M0,-3.0v7 M-2.5,-0.5L0,-3.0L2.5,-0.5"/>
                </g>
        </g>
        <svg viewBox="0 0 15 15" width="100%" height="30px" preserveAspectRatio="xMaxYMin meet">
         <g id="arrow_out" transform="scale(0.3 0.3)">
          <a xlink:href="_rayleigh_taylor_8_h__incl_org.svg" target="_base">
           <rect id="button" ry="5" rx="5" y="6" x="6" height="38" width="38"
                fill="#f2f5e9" fill-opacity="0.5" stroke="#606060" stroke-width="1.0"/>
           <path id="arrow"
             d="M 11.500037,31.436501 C 11.940474,20.09759 22.043105,11.32322 32.158766,21.979434 L 37.068811,17.246167 C 37.068811,17.246167 37.088388,32 37.088388,32 L 22.160133,31.978069 C 22.160133,31.978069 26.997745,27.140456 26.997745,27.140456 C 18.528582,18.264221 13.291696,25.230495 11.500037,31.436501 z"
             style="fill:#404040;"/>
          </a>
         </g>
        </svg>
</svg>
