<?xml version="1.0" encoding="UTF-8" standalone="no"?>
<!DOCTYPE svg PUBLIC "-//W3C//DTD SVG 1.1//EN"
 "http://www.w3.org/Graphics/SVG/1.1/DTD/svg11.dtd">
<!-- Generated by graphviz version 2.40.1 (20161225.0304)
 -->
<!-- Title: RefinementCriteria.H Pages: 1 -->
<!--zoomable 196 -->
<svg id="main" version="1.1" xmlns="http://www.w3.org/2000/svg" xmlns:xlink="http://www.w3.org/1999/xlink" xml:space="preserve" onload="init(evt)">
<style type="text/css"><![CDATA[
.edge:hover path { stroke: red; }
.edge:hover polygon { stroke: red; fill: red; }
]]></style>
<script type="text/javascript"><![CDATA[
var edges = document.getElementsByTagName('g');
if (edges && edges.length) {
  for (var i=0;i<edges.length;i++) {
    if (edges[i].id.substr(0,4)=='edge') {
      edges[i].setAttribute('class','edge');
    }
  }
}
]]></script>
        <defs>
                <circle id="rim" cx="0" cy="0" r="7"/>
                <circle id="rim2" cx="0" cy="0" r="3.5"/>
                <g id="zoomPlus">
                        <use xlink:href="#rim" fill="#404040">
                                <set attributeName="fill" to="#808080" begin="zoomplus.mouseover" end="zoomplus.mouseout"/>
                        </use>
                        <path d="M-4,0h8M0,-4v8" fill="none" stroke="white" stroke-width="1.5" pointer-events="none"/>
                </g>
                <g id="zoomMin">
                        <use xlink:href="#rim" fill="#404040">
                                <set attributeName="fill" to="#808080" begin="zoomminus.mouseover" end="zoomminus.mouseout"/>
                        </use>
                        <path d="M-4,0h8" fill="none" stroke="white" stroke-width="1.5" pointer-events="none"/>
                </g>
                <g id="dirArrow">
                        <path fill="none" stroke="white" stroke-width="1.5" d="M0,-3.0v7 M-2.5,-0.5L0,-3.0L2.5,-0.5"/>
                </g>
               <g id="resetDef">
                       <use xlink:href="#rim2" fill="#404040">
                               <set attributeName="fill" to="#808080" begin="reset.mouseover" end="reset.mouseout"/>
                       </use>
               </g>
        </defs>

<script type="text/javascript">
var viewWidth = 1105;
var viewHeight = 196;
var sectionId = 'dynsection-1';
</script>
<script xlink:href="svgpan.js"/>
<svg id="graph" class="graph">
<g id="viewport">
<title>RefinementCriteria.H</title>
<polygon fill="#ffffff" stroke="transparent" points="-4,4 -4,-192 1100.5,-192 1100.5,4 -4,4"/>
<!-- Node9 -->
<g id="node1" class="node">
<title>Node9</title>
<polygon fill="#bfbfbf" stroke="#000000" points="441,-168.5 441,-187.5 550,-187.5 550,-168.5 441,-168.5"/>
<text text-anchor="middle" x="495.5" y="-175.5" font-family="Helvetica,sans-Serif" font-size="10.00" fill="#000000">RefinementCriteria.H</text>
</g>
<!-- Node10 -->
<g id="node2" class="node">
<title>Node10</title>
<g id="a_node2"><a xlink:href="incflo_8cpp.html" target="_top" xlink:title="incflo.cpp">
<polygon fill="#ffffff" stroke="#000000" points="0,-112.5 0,-131.5 59,-131.5 59,-112.5 0,-112.5"/>
<text text-anchor="middle" x="29.5" y="-119.5" font-family="Helvetica,sans-Serif" font-size="10.00" fill="#000000">incflo.cpp</text>
</a>
</g>
</g>
<!-- Node9&#45;&gt;Node10 -->
<g id="edge1" class="edge">
<title>Node9&#45;&gt;Node10</title>
<path fill="none" stroke="#191970" d="M430.8867,-173.2777C347.8129,-166.6756 199.2681,-153.0748 73.5,-132 68.8644,-131.2232 63.9848,-130.2612 59.2301,-129.2435"/>
<polygon fill="#191970" stroke="#191970" points="430.6899,-176.773 440.9334,-174.0674 431.2384,-169.7945 430.6899,-176.773"/>
</g>
<!-- Node11 -->
<g id="node3" class="node">
<title>Node11</title>
<g id="a_node3"><a xlink:href="init_8cpp.html" target="_top" xlink:title="init.cpp">
<polygon fill="#ffffff" stroke="#000000" points="2.5,-56.5 2.5,-75.5 50.5,-75.5 50.5,-56.5 2.5,-56.5"/>
<text text-anchor="middle" x="26.5" y="-63.5" font-family="Helvetica,sans-Serif" font-size="10.00" fill="#000000">init.cpp</text>
</a>
</g>
</g>
<!-- Node9&#45;&gt;Node11 -->
<g id="edge2" class="edge">
<title>Node9&#45;&gt;Node11</title>
<path fill="none" stroke="#191970" d="M430.8465,-174.7743C335.7728,-169.2876 163.3691,-156.2958 106.5,-132 76.0339,-118.9842 48.0347,-90.5829 34.6951,-75.6367"/>
<polygon fill="#191970" stroke="#191970" points="430.74,-178.2737 440.9218,-175.3443 431.1355,-171.2849 430.74,-178.2737"/>
</g>
<!-- Node12 -->
<g id="node4" class="node">
<title>Node12</title>
<g id="a_node4"><a xlink:href="_cart_box_refinement_8_h.html" target="_top" xlink:title="CartBoxRefinement.H">
<polygon fill="#ffffff" stroke="#000000" points="116,-112.5 116,-131.5 229,-131.5 229,-112.5 116,-112.5"/>
<text text-anchor="middle" x="172.5" y="-119.5" font-family="Helvetica,sans-Serif" font-size="10.00" fill="#000000">CartBoxRefinement.H</text>
</a>
</g>
</g>
<!-- Node9&#45;&gt;Node12 -->
<g id="edge3" class="edge">
<title>Node9&#45;&gt;Node12</title>
<path fill="none" stroke="#191970" d="M430.6615,-166.7587C371.1071,-156.4334 283.808,-141.298 227.5613,-131.5462"/>
<polygon fill="#191970" stroke="#191970" points="430.2565,-170.2406 440.7075,-168.5004 431.4524,-163.3435 430.2565,-170.2406"/>
</g>
<!-- Node14 -->
<g id="node6" class="node">
<title>Node14</title>
<g id="a_node6"><a xlink:href="_geometry_refinement_8_h.html" target="_top" xlink:title="GeometryRefinement.H">
<polygon fill="#ffffff" stroke="#000000" points="294.5,-112.5 294.5,-131.5 414.5,-131.5 414.5,-112.5 294.5,-112.5"/>
<text text-anchor="middle" x="354.5" y="-119.5" font-family="Helvetica,sans-Serif" font-size="10.00" fill="#000000">GeometryRefinement.H</text>
</a>
</g>
</g>
<!-- Node9&#45;&gt;Node14 -->
<g id="edge6" class="edge">
<title>Node9&#45;&gt;Node14</title>
<path fill="none" stroke="#191970" d="M461.8968,-164.6541C436.1841,-154.4419 401.3539,-140.6086 378.4225,-131.5011"/>
<polygon fill="#191970" stroke="#191970" points="460.6755,-167.9349 471.2612,-168.3733 463.2593,-161.4292 460.6755,-167.9349"/>
</g>
<!-- Node20 -->
<g id="node12" class="node">
<title>Node20</title>
<g id="a_node12"><a xlink:href="_field_refinement_8_h.html" target="_top" xlink:title="FieldRefinement.H">
<polygon fill="#ffffff" stroke="#000000" points="446.5,-112.5 446.5,-131.5 544.5,-131.5 544.5,-112.5 446.5,-112.5"/>
<text text-anchor="middle" x="495.5" y="-119.5" font-family="Helvetica,sans-Serif" font-size="10.00" fill="#000000">FieldRefinement.H</text>
</a>
</g>
</g>
<!-- Node9&#45;&gt;Node20 -->
<g id="edge12" class="edge">
<title>Node9&#45;&gt;Node20</title>
<path fill="none" stroke="#191970" d="M495.5,-158.1575C495.5,-149.155 495.5,-138.9199 495.5,-131.6427"/>
<polygon fill="#191970" stroke="#191970" points="492.0001,-158.2455 495.5,-168.2455 499.0001,-158.2456 492.0001,-158.2455"/>
</g>
<!-- Node22 -->
<g id="node14" class="node">
<title>Node22</title>
<g id="a_node14"><a xlink:href="_overset_refinement_8_h.html" target="_top" xlink:title="OversetRefinement.H">
<polygon fill="#ffffff" stroke="#000000" points="562.5,-112.5 562.5,-131.5 674.5,-131.5 674.5,-112.5 562.5,-112.5"/>
<text text-anchor="middle" x="618.5" y="-119.5" font-family="Helvetica,sans-Serif" font-size="10.00" fill="#000000">OversetRefinement.H</text>
</a>
</g>
</g>
<!-- Node9&#45;&gt;Node22 -->
<g id="edge14" class="edge">
<title>Node9&#45;&gt;Node22</title>
<path fill="none" stroke="#191970" d="M526.0065,-164.1109C548.3112,-153.9559 577.9799,-140.4482 597.6315,-131.5011"/>
<polygon fill="#191970" stroke="#191970" points="524.2953,-161.0442 516.6445,-168.3733 527.1959,-167.415 524.2953,-161.0442"/>
</g>
<!-- Node24 -->
<g id="node16" class="node">
<title>Node24</title>
<g id="a_node16"><a xlink:href="_q_criterion_refinement_8_h.html" target="_top" xlink:title="QCriterionRefinement.H">
<polygon fill="#ffffff" stroke="#000000" points="692.5,-112.5 692.5,-131.5 814.5,-131.5 814.5,-112.5 692.5,-112.5"/>
<text text-anchor="middle" x="753.5" y="-119.5" font-family="Helvetica,sans-Serif" font-size="10.00" fill="#000000">QCriterionRefinement.H</text>
</a>
</g>
</g>
<!-- Node9&#45;&gt;Node24 -->
<g id="edge16" class="edge">
<title>Node9&#45;&gt;Node24</title>
<path fill="none" stroke="#191970" d="M549.37,-166.3073C596.911,-155.9883 665.3488,-141.1336 709.6231,-131.5237"/>
<polygon fill="#191970" stroke="#191970" points="548.5887,-162.8953 539.5586,-168.4369 550.0735,-169.736 548.5887,-162.8953"/>
</g>
<!-- Node26 -->
<g id="node18" class="node">
<title>Node26</title>
<g id="a_node18"><a xlink:href="_refinement_criteria_8cpp.html" target="_top" xlink:title="RefinementCriteria.cpp">
<polygon fill="#ffffff" stroke="#000000" points="833,-112.5 833,-131.5 950,-131.5 950,-112.5 833,-112.5"/>
<text text-anchor="middle" x="891.5" y="-119.5" font-family="Helvetica,sans-Serif" font-size="10.00" fill="#000000">RefinementCriteria.cpp</text>
</a>
</g>
</g>
<!-- Node9&#45;&gt;Node26 -->
<g id="edge18" class="edge">
<title>Node9&#45;&gt;Node26</title>
<path fill="none" stroke="#191970" d="M560.3439,-169.0361C626.5235,-159.857 732.1942,-145.1161 823.5,-132 826.5709,-131.5589 829.7195,-131.1042 832.8983,-130.6433"/>
<polygon fill="#191970" stroke="#191970" points="559.4944,-165.6203 550.0698,-170.4604 560.4557,-172.554 559.4944,-165.6203"/>
</g>
<!-- Node27 -->
<g id="node19" class="node">
<title>Node27</title>
<g id="a_node19"><a xlink:href="_vorticity_refinement_8_h.html" target="_top" xlink:title="VorticityRefinement.H">
<polygon fill="#ffffff" stroke="#000000" points="975,-112.5 975,-131.5 1088,-131.5 1088,-112.5 975,-112.5"/>
<text text-anchor="middle" x="1031.5" y="-119.5" font-family="Helvetica,sans-Serif" font-size="10.00" fill="#000000">VorticityRefinement.H</text>
</a>
</g>
</g>
<!-- Node9&#45;&gt;Node27 -->
<g id="edge19" class="edge">
<title>Node9&#45;&gt;Node27</title>
<path fill="none" stroke="#191970" d="M560.2458,-172.3883C650.0056,-164.4247 817.2764,-148.9199 959.5,-132 964.5126,-131.4037 969.7167,-130.7495 974.9298,-130.0702"/>
<polygon fill="#191970" stroke="#191970" points="559.8719,-168.9077 550.2191,-173.2751 560.4886,-175.8804 559.8719,-168.9077"/>
</g>
<!-- Node12&#45;&gt;Node11 -->
<g id="edge4" class="edge">
<title>Node12&#45;&gt;Node11</title>
<path fill="none" stroke="#191970" d="M137.997,-108.766C111.1632,-98.4735 74.6082,-84.4525 50.7856,-75.315"/>
<polygon fill="#191970" stroke="#191970" points="136.8115,-112.0598 147.4017,-112.3733 139.3184,-105.5241 136.8115,-112.0598"/>
</g>
<!-- Node13 -->
<g id="node5" class="node">
<title>Node13</title>
<g id="a_node5"><a xlink:href="_cart_box_refinement_8cpp.html" target="_top" xlink:title="CartBoxRefinement.cpp">
<polygon fill="#ffffff" stroke="#000000" points="68.5,-56.5 68.5,-75.5 190.5,-75.5 190.5,-56.5 68.5,-56.5"/>
<text text-anchor="middle" x="129.5" y="-63.5" font-family="Helvetica,sans-Serif" font-size="10.00" fill="#000000">CartBoxRefinement.cpp</text>
</a>
</g>
</g>
<!-- Node12&#45;&gt;Node13 -->
<g id="edge5" class="edge">
<title>Node12&#45;&gt;Node13</title>
<path fill="none" stroke="#191970" d="M158.8408,-104.2112C151.5737,-94.7472 142.9219,-83.4797 136.9042,-75.6427"/>
<polygon fill="#191970" stroke="#191970" points="156.1436,-106.4456 165.01,-112.2455 161.6957,-102.1824 156.1436,-106.4456"/>
</g>
<!-- Node15 -->
<g id="node7" class="node">
<title>Node15</title>
<g id="a_node7"><a xlink:href="_box_refiner_8_h.html" target="_top" xlink:title="BoxRefiner.H">
<polygon fill="#ffffff" stroke="#000000" points="208.5,-56.5 208.5,-75.5 284.5,-75.5 284.5,-56.5 208.5,-56.5"/>
<text text-anchor="middle" x="246.5" y="-63.5" font-family="Helvetica,sans-Serif" font-size="10.00" fill="#000000">BoxRefiner.H</text>
</a>
</g>
</g>
<!-- Node14&#45;&gt;Node15 -->
<g id="edge7" class="edge">
<title>Node14&#45;&gt;Node15</title>
<path fill="none" stroke="#191970" d="M326.7229,-107.5971C307.3618,-97.558 282.0615,-84.4393 265.0966,-75.6427"/>
<polygon fill="#191970" stroke="#191970" points="325.1992,-110.7495 335.6878,-112.2455 328.4214,-104.5352 325.1992,-110.7495"/>
</g>
<!-- Node17 -->
<g id="node9" class="node">
<title>Node17</title>
<g id="a_node9"><a xlink:href="_cylinder_refiner_8_h.html" target="_top" xlink:title="CylinderRefiner.H">
<polygon fill="#ffffff" stroke="#000000" points="303,-56.5 303,-75.5 398,-75.5 398,-56.5 303,-56.5"/>
<text text-anchor="middle" x="350.5" y="-63.5" font-family="Helvetica,sans-Serif" font-size="10.00" fill="#000000">CylinderRefiner.H</text>
</a>
</g>
</g>
<!-- Node14&#45;&gt;Node17 -->
<g id="edge9" class="edge">
<title>Node14&#45;&gt;Node17</title>
<path fill="none" stroke="#191970" d="M353.0827,-102.1575C352.4396,-93.155 351.7086,-82.9199 351.1888,-75.6427"/>
<polygon fill="#191970" stroke="#191970" points="349.5996,-102.5204 353.8033,-112.2455 356.5818,-102.0216 349.5996,-102.5204"/>
</g>
<!-- Node19 -->
<g id="node11" class="node">
<title>Node19</title>
<g id="a_node11"><a xlink:href="_geometry_refinement_8cpp.html" target="_top" xlink:title="GeometryRefinement.cpp">
<polygon fill="#ffffff" stroke="#000000" points="416.5,-56.5 416.5,-75.5 544.5,-75.5 544.5,-56.5 416.5,-56.5"/>
<text text-anchor="middle" x="480.5" y="-63.5" font-family="Helvetica,sans-Serif" font-size="10.00" fill="#000000">GeometryRefinement.cpp</text>
</a>
</g>
</g>
<!-- Node14&#45;&gt;Node19 -->
<g id="edge11" class="edge">
<title>Node14&#45;&gt;Node19</title>
<path fill="none" stroke="#191970" d="M385.4436,-108.2473C408.3265,-98.0771 438.9014,-84.4883 459.1225,-75.5011"/>
<polygon fill="#191970" stroke="#191970" points="383.8768,-105.1135 376.1602,-112.3733 386.7198,-111.5102 383.8768,-105.1135"/>
</g>
<!-- Node16 -->
<g id="node8" class="node">
<title>Node16</title>
<g id="a_node8"><a xlink:href="_box_refiner_8cpp.html" target="_top" xlink:title="BoxRefiner.cpp">
<polygon fill="#ffffff" stroke="#000000" points="200.5,-.5 200.5,-19.5 284.5,-19.5 284.5,-.5 200.5,-.5"/>
<text text-anchor="middle" x="242.5" y="-7.5" font-family="Helvetica,sans-Serif" font-size="10.00" fill="#000000">BoxRefiner.cpp</text>
</a>
</g>
</g>
<!-- Node15&#45;&gt;Node16 -->
<g id="edge8" class="edge">
<title>Node15&#45;&gt;Node16</title>
<path fill="none" stroke="#191970" d="M245.0827,-46.1575C244.4396,-37.155 243.7086,-26.9199 243.1888,-19.6427"/>
<polygon fill="#191970" stroke="#191970" points="241.5996,-46.5204 245.8033,-56.2455 248.5818,-46.0216 241.5996,-46.5204"/>
</g>
<!-- Node18 -->
<g id="node10" class="node">
<title>Node18</title>
<g id="a_node10"><a xlink:href="_cylinder_refiner_8cpp.html" target="_top" xlink:title="CylinderRefiner.cpp">
<polygon fill="#ffffff" stroke="#000000" points="303,-.5 303,-19.5 406,-19.5 406,-.5 303,-.5"/>
<text text-anchor="middle" x="354.5" y="-7.5" font-family="Helvetica,sans-Serif" font-size="10.00" fill="#000000">CylinderRefiner.cpp</text>
</a>
</g>
</g>
<!-- Node17&#45;&gt;Node18 -->
<g id="edge10" class="edge">
<title>Node17&#45;&gt;Node18</title>
<path fill="none" stroke="#191970" d="M351.9173,-46.1575C352.5604,-37.155 353.2914,-26.9199 353.8112,-19.6427"/>
<polygon fill="#191970" stroke="#191970" points="348.4182,-46.0216 351.1967,-56.2455 355.4004,-46.5204 348.4182,-46.0216"/>
</g>
<!-- Node21 -->
<g id="node13" class="node">
<title>Node21</title>
<g id="a_node13"><a xlink:href="_field_refinement_8cpp.html" target="_top" xlink:title="FieldRefinement.cpp">
<polygon fill="#ffffff" stroke="#000000" points="563,-56.5 563,-75.5 670,-75.5 670,-56.5 563,-56.5"/>
<text text-anchor="middle" x="616.5" y="-63.5" font-family="Helvetica,sans-Serif" font-size="10.00" fill="#000000">FieldRefinement.cpp</text>
</a>
</g>
</g>
<!-- Node20&#45;&gt;Node21 -->
<g id="edge13" class="edge">
<title>Node20&#45;&gt;Node21</title>
<path fill="none" stroke="#191970" d="M525.5104,-108.1109C547.4525,-97.9559 576.6388,-84.4482 595.9708,-75.5011"/>
<polygon fill="#191970" stroke="#191970" points="523.9058,-104.9968 516.3006,-112.3733 526.8459,-111.3494 523.9058,-104.9968"/>
</g>
<!-- Node23 -->
<g id="node15" class="node">
<title>Node23</title>
<g id="a_node15"><a xlink:href="_overset_refinement_8cpp.html" target="_top" xlink:title="OversetRefinement.cpp">
<polygon fill="#ffffff" stroke="#000000" points="688.5,-56.5 688.5,-75.5 808.5,-75.5 808.5,-56.5 688.5,-56.5"/>
<text text-anchor="middle" x="748.5" y="-63.5" font-family="Helvetica,sans-Serif" font-size="10.00" fill="#000000">OversetRefinement.cpp</text>
</a>
</g>
</g>
<!-- Node22&#45;&gt;Node23 -->
<g id="edge15" class="edge">
<title>Node22&#45;&gt;Node23</title>
<path fill="none" stroke="#191970" d="M650.1102,-108.3833C673.7535,-98.1985 705.4876,-84.5284 726.4438,-75.5011"/>
<polygon fill="#191970" stroke="#191970" points="648.6472,-105.2025 640.8478,-112.3733 651.4166,-111.6314 648.6472,-105.2025"/>
</g>
<!-- Node25 -->
<g id="node17" class="node">
<title>Node25</title>
<g id="a_node17"><a xlink:href="_q_criterion_refinement_8cpp.html" target="_top" xlink:title="QCriterionRefinement.cpp">
<polygon fill="#ffffff" stroke="#000000" points="826.5,-56.5 826.5,-75.5 956.5,-75.5 956.5,-56.5 826.5,-56.5"/>
<text text-anchor="middle" x="891.5" y="-63.5" font-family="Helvetica,sans-Serif" font-size="10.00" fill="#000000">QCriterionRefinement.cpp</text>
</a>
</g>
</g>
<!-- Node24&#45;&gt;Node25 -->
<g id="edge17" class="edge">
<title>Node24&#45;&gt;Node25</title>
<path fill="none" stroke="#191970" d="M786.7213,-108.5189C811.854,-98.3201 845.7418,-84.5685 868.0865,-75.5011"/>
<polygon fill="#191970" stroke="#191970" points="785.1731,-105.3699 777.223,-112.3733 787.8053,-111.8562 785.1731,-105.3699"/>
</g>
<!-- Node28 -->
<g id="node20" class="node">
<title>Node28</title>
<g id="a_node20"><a xlink:href="_vorticity_refinement_8cpp.html" target="_top" xlink:title="VorticityRefinement.cpp">
<polygon fill="#ffffff" stroke="#000000" points="974.5,-56.5 974.5,-75.5 1096.5,-75.5 1096.5,-56.5 974.5,-56.5"/>
<text text-anchor="middle" x="1035.5" y="-63.5" font-family="Helvetica,sans-Serif" font-size="10.00" fill="#000000">VorticityRefinement.cpp</text>
</a>
</g>
</g>
<!-- Node27&#45;&gt;Node28 -->
<g id="edge20" class="edge">
<title>Node27&#45;&gt;Node28</title>
<path fill="none" stroke="#191970" d="M1032.9173,-102.1575C1033.5604,-93.155 1034.2914,-82.9199 1034.8112,-75.6427"/>
<polygon fill="#191970" stroke="#191970" points="1029.4182,-102.0216 1032.1967,-112.2455 1036.4004,-102.5204 1029.4182,-102.0216"/>
</g>
</g>
</svg>
        <g id="navigator" transform="translate(0 0)" fill="#404254">
                <rect fill="#f2f5e9" fill-opacity="0.5" stroke="#606060" stroke-width=".5" x="0" y="0" width="60" height="60"/>
                <use id="zoomplus" xlink:href="#zoomPlus" x="17" y="9" onmousedown="handleZoom(evt,'in')"/>
                <use id="zoomminus" xlink:href="#zoomMin" x="42" y="9" onmousedown="handleZoom(evt,'out')"/>
                <use id="reset" xlink:href="#resetDef" x="30" y="36" onmousedown="handleReset()"/>
                <g id="arrowUp" xlink:href="#dirArrow" transform="translate(30 24)" onmousedown="handlePan(0,-1)">
                  <use xlink:href="#rim" fill="#404040">
                        <set attributeName="fill" to="#808080" begin="arrowUp.mouseover" end="arrowUp.mouseout"/>
                  </use>
                  <path fill="none" stroke="white" stroke-width="1.5" d="M0,-3.0v7 M-2.5,-0.5L0,-3.0L2.5,-0.5"/>
                </g>
                <g id="arrowRight" xlink:href="#dirArrow" transform="rotate(90) translate(36 -43)" onmousedown="handlePan(1,0)">
                  <use xlink:href="#rim" fill="#404040">
                        <set attributeName="fill" to="#808080" begin="arrowRight.mouseover" end="arrowRight.mouseout"/>
                  </use>
                  <path fill="none" stroke="white" stroke-width="1.5" d="M0,-3.0v7 M-2.5,-0.5L0,-3.0L2.5,-0.5"/>
                </g>
                <g id="arrowDown" xlink:href="#dirArrow" transform="rotate(180) translate(-30 -48)" onmousedown="handlePan(0,1)">
                  <use xlink:href="#rim" fill="#404040">
                        <set attributeName="fill" to="#808080" begin="arrowDown.mouseover" end="arrowDown.mouseout"/>
                  </use>
                  <path fill="none" stroke="white" stroke-width="1.5" d="M0,-3.0v7 M-2.5,-0.5L0,-3.0L2.5,-0.5"/>
                </g>
                <g id="arrowLeft" xlink:href="#dirArrow" transform="rotate(270) translate(-36 17)" onmousedown="handlePan(-1,0)">
                  <use xlink:href="#rim" fill="#404040">
                        <set attributeName="fill" to="#808080" begin="arrowLeft.mouseover" end="arrowLeft.mouseout"/>
                  </use>
                  <path fill="none" stroke="white" stroke-width="1.5" d="M0,-3.0v7 M-2.5,-0.5L0,-3.0L2.5,-0.5"/>
                </g>
        </g>
        <svg viewBox="0 0 15 15" width="100%" height="30px" preserveAspectRatio="xMaxYMin meet">
         <g id="arrow_out" transform="scale(0.3 0.3)">
          <a xlink:href="_refinement_criteria_8_h__dep__incl_org.svg" target="_base">
           <rect id="button" ry="5" rx="5" y="6" x="6" height="38" width="38"
                fill="#f2f5e9" fill-opacity="0.5" stroke="#606060" stroke-width="1.0"/>
           <path id="arrow"
             d="M 11.500037,31.436501 C 11.940474,20.09759 22.043105,11.32322 32.158766,21.979434 L 37.068811,17.246167 C 37.068811,17.246167 37.088388,32 37.088388,32 L 22.160133,31.978069 C 22.160133,31.978069 26.997745,27.140456 26.997745,27.140456 C 18.528582,18.264221 13.291696,25.230495 11.500037,31.436501 z"
             style="fill:#404040;"/>
          </a>
         </g>
        </svg>
</svg>
