<?xml version="1.0" encoding="UTF-8" standalone="no"?>
<!DOCTYPE svg PUBLIC "-//W3C//DTD SVG 1.1//EN"
 "http://www.w3.org/Graphics/SVG/1.1/DTD/svg11.dtd">
<!-- Generated by graphviz version 2.40.1 (20161225.0304)
 -->
<!-- Title: SchemeTraits.H Pages: 1 -->
<svg width="1633pt" height="308pt"
 viewBox="0.00 0.00 1633.00 308.00" xmlns="http://www.w3.org/2000/svg" xmlns:xlink="http://www.w3.org/1999/xlink">
<g id="graph0" class="graph" transform="scale(1 1) rotate(0) translate(4 304)">
<title>SchemeTraits.H</title>
<polygon fill="#ffffff" stroke="transparent" points="-4,4 -4,-304 1629,-304 1629,4 -4,4"/>
<!-- Node2 -->
<g id="node1" class="node">
<title>Node2</title>
<polygon fill="#bfbfbf" stroke="#000000" points="558,-280.5 558,-299.5 646,-299.5 646,-280.5 558,-280.5"/>
<text text-anchor="middle" x="602" y="-287.5" font-family="Helvetica,sans-Serif" font-size="10.00" fill="#000000">SchemeTraits.H</text>
</g>
<!-- Node3 -->
<g id="node2" class="node">
<title>Node3</title>
<g id="a_node2"><a xlink:href="_adv_op___godunov_8_h.html" target="_top" xlink:title="AdvOp_Godunov.H">
<polygon fill="#ffffff" stroke="#000000" points="295.5,-112.5 295.5,-131.5 396.5,-131.5 396.5,-112.5 295.5,-112.5"/>
<text text-anchor="middle" x="346" y="-119.5" font-family="Helvetica,sans-Serif" font-size="10.00" fill="#000000">AdvOp_Godunov.H</text>
</a>
</g>
</g>
<!-- Node2&#45;&gt;Node3 -->
<g id="edge1" class="edge">
<title>Node2&#45;&gt;Node3</title>
<path fill="none" stroke="#191970" d="M579.0144,-274.9157C527.355,-241.0142 403.2649,-159.5801 360.6555,-131.6177"/>
<polygon fill="#191970" stroke="#191970" points="577.222,-277.9258 587.5028,-280.4862 581.0627,-272.0735 577.222,-277.9258"/>
</g>
<!-- Node14 -->
<g id="node13" class="node">
<title>Node14</title>
<g id="a_node13"><a xlink:href="_adv_op___m_o_l_8_h.html" target="_top" xlink:title="AdvOp_MOL.H">
<polygon fill="#ffffff" stroke="#000000" points="511.5,-112.5 511.5,-131.5 594.5,-131.5 594.5,-112.5 511.5,-112.5"/>
<text text-anchor="middle" x="553" y="-119.5" font-family="Helvetica,sans-Serif" font-size="10.00" fill="#000000">AdvOp_MOL.H</text>
</a>
</g>
</g>
<!-- Node2&#45;&gt;Node14 -->
<g id="edge13" class="edge">
<title>Node2&#45;&gt;Node14</title>
<path fill="none" stroke="#191970" d="M591.3638,-271.4269C587.0264,-263.2278 582.2726,-253.3461 579,-244 564.8293,-203.53 557.0256,-152.6809 554.2169,-131.7173"/>
<polygon fill="#191970" stroke="#191970" points="588.4362,-273.3669 596.3204,-280.4444 594.5706,-269.995 588.4362,-273.3669"/>
</g>
<!-- Node15 -->
<g id="node14" class="node">
<title>Node15</title>
<g id="a_node14"><a xlink:href="_comp_r_h_s_ops_8_h.html" target="_top" xlink:title="CompRHSOps.H">
<polygon fill="#ffffff" stroke="#000000" points="593.5,-224.5 593.5,-243.5 686.5,-243.5 686.5,-224.5 593.5,-224.5"/>
<text text-anchor="middle" x="640" y="-231.5" font-family="Helvetica,sans-Serif" font-size="10.00" fill="#000000">CompRHSOps.H</text>
</a>
</g>
</g>
<!-- Node2&#45;&gt;Node15 -->
<g id="edge22" class="edge">
<title>Node2&#45;&gt;Node15</title>
<path fill="none" stroke="#191970" d="M614.2679,-271.9209C620.6488,-262.5176 628.1931,-251.3997 633.4568,-243.6427"/>
<polygon fill="#191970" stroke="#191970" points="611.338,-270.0055 608.6191,-280.2455 617.1303,-273.936 611.338,-270.0055"/>
</g>
<!-- Node17 -->
<g id="node16" class="node">
<title>Node17</title>
<g id="a_node16"><a xlink:href="density_8_h.html" target="_top" xlink:title="density.H">
<polygon fill="#ffffff" stroke="#000000" points="115.5,-112.5 115.5,-131.5 174.5,-131.5 174.5,-112.5 115.5,-112.5"/>
<text text-anchor="middle" x="145" y="-119.5" font-family="Helvetica,sans-Serif" font-size="10.00" fill="#000000">density.H</text>
</a>
</g>
</g>
<!-- Node2&#45;&gt;Node17 -->
<g id="edge54" class="edge">
<title>Node2&#45;&gt;Node17</title>
<path fill="none" stroke="#191970" d="M561.1847,-277.4475C532.6938,-268.5222 493.8568,-256.0295 460,-244 350.0299,-204.927 220.686,-152.8802 168.5394,-131.6402"/>
<polygon fill="#191970" stroke="#191970" points="560.217,-280.8119 570.8057,-280.4491 562.3019,-274.1296 560.217,-280.8119"/>
</g>
<!-- Node19 -->
<g id="node18" class="node">
<title>Node19</title>
<g id="a_node18"><a xlink:href="icns_8_h.html" target="_top" xlink:title="icns.H">
<polygon fill="#ffffff" stroke="#000000" points="1004.5,-112.5 1004.5,-131.5 1049.5,-131.5 1049.5,-112.5 1004.5,-112.5"/>
<text text-anchor="middle" x="1027" y="-119.5" font-family="Helvetica,sans-Serif" font-size="10.00" fill="#000000">icns.H</text>
</a>
</g>
</g>
<!-- Node2&#45;&gt;Node19 -->
<g id="edge60" class="edge">
<title>Node2&#45;&gt;Node19</title>
<path fill="none" stroke="#191970" d="M656.5871,-285.4936C705.9575,-280.0245 779.9055,-268.3162 840,-244 877.3707,-228.8786 977.4632,-157.7904 1013.6841,-131.664"/>
<polygon fill="#191970" stroke="#191970" points="656.0147,-282.0345 646.4388,-286.5682 656.7518,-288.9956 656.0147,-282.0345"/>
</g>
<!-- Node23 -->
<g id="node22" class="node">
<title>Node23</title>
<g id="a_node22"><a xlink:href="levelset_8_h.html" target="_top" xlink:title="levelset.H">
<polygon fill="#ffffff" stroke="#000000" points="612.5,-112.5 612.5,-131.5 673.5,-131.5 673.5,-112.5 612.5,-112.5"/>
<text text-anchor="middle" x="643" y="-119.5" font-family="Helvetica,sans-Serif" font-size="10.00" fill="#000000">levelset.H</text>
</a>
</g>
</g>
<!-- Node2&#45;&gt;Node23 -->
<g id="edge61" class="edge">
<title>Node2&#45;&gt;Node23</title>
<path fill="none" stroke="#191970" d="M592.2407,-270.8373C586.7501,-257.7186 581.6144,-239.8887 585,-224 593.0237,-186.3441 620.8133,-148.6935 634.8099,-131.565"/>
<polygon fill="#191970" stroke="#191970" points="589.2007,-272.6034 596.5641,-280.2212 595.5584,-269.6742 589.2007,-272.6034"/>
</g>
<!-- Node25 -->
<g id="node24" class="node">
<title>Node25</title>
<g id="a_node24"><a xlink:href="_s_d_r_8_h.html" target="_top" xlink:title="SDR.H">
<polygon fill="#ffffff" stroke="#000000" points="228.5,-112.5 228.5,-131.5 277.5,-131.5 277.5,-112.5 228.5,-112.5"/>
<text text-anchor="middle" x="253" y="-119.5" font-family="Helvetica,sans-Serif" font-size="10.00" fill="#000000">SDR.H</text>
</a>
</g>
</g>
<!-- Node2&#45;&gt;Node25 -->
<g id="edge63" class="edge">
<title>Node2&#45;&gt;Node25</title>
<path fill="none" stroke="#191970" d="M571.7353,-276.1187C552.0983,-267.0673 525.9812,-254.9452 503,-244 416.6673,-202.8823 314.3291,-152.3875 272.3886,-131.6176"/>
<polygon fill="#191970" stroke="#191970" points="570.5396,-279.4213 581.087,-280.4229 573.4664,-273.0625 570.5396,-279.4213"/>
</g>
<!-- Node26 -->
<g id="node25" class="node">
<title>Node26</title>
<g id="a_node25"><a xlink:href="temperature_8_h.html" target="_top" xlink:title="temperature.H">
<polygon fill="#ffffff" stroke="#000000" points="414.5,-112.5 414.5,-131.5 493.5,-131.5 493.5,-112.5 414.5,-112.5"/>
<text text-anchor="middle" x="454" y="-119.5" font-family="Helvetica,sans-Serif" font-size="10.00" fill="#000000">temperature.H</text>
</a>
</g>
</g>
<!-- Node2&#45;&gt;Node26 -->
<g id="edge64" class="edge">
<title>Node2&#45;&gt;Node26</title>
<path fill="none" stroke="#191970" d="M586.6254,-272.5477C555.7093,-237.4538 486.9024,-159.3486 462.6579,-131.8279"/>
<polygon fill="#191970" stroke="#191970" points="584.3822,-275.2962 593.6188,-280.4862 589.6348,-270.669 584.3822,-275.2962"/>
</g>
<!-- Node27 -->
<g id="node26" class="node">
<title>Node27</title>
<g id="a_node26"><a xlink:href="_t_k_e_8_h.html" target="_top" xlink:title="TKE.H">
<polygon fill="#ffffff" stroke="#000000" points="691.5,-112.5 691.5,-131.5 738.5,-131.5 738.5,-112.5 691.5,-112.5"/>
<text text-anchor="middle" x="715" y="-119.5" font-family="Helvetica,sans-Serif" font-size="10.00" fill="#000000">TKE.H</text>
</a>
</g>
</g>
<!-- Node2&#45;&gt;Node27 -->
<g id="edge65" class="edge">
<title>Node2&#45;&gt;Node27</title>
<path fill="none" stroke="#191970" d="M649.9023,-276.8212C666.9627,-269.7804 684.7228,-259.3025 696,-244 721.561,-209.315 718.6962,-153.8869 716.2854,-131.6711"/>
<polygon fill="#191970" stroke="#191970" points="648.6402,-273.5565 640.5419,-280.3879 651.1328,-280.0977 648.6402,-273.5565"/>
</g>
<!-- Node29 -->
<g id="node28" class="node">
<title>Node29</title>
<g id="a_node28"><a xlink:href="vof_8_h.html" target="_top" xlink:title="vof.H">
<polygon fill="#ffffff" stroke="#000000" points="1408.5,-112.5 1408.5,-131.5 1449.5,-131.5 1449.5,-112.5 1408.5,-112.5"/>
<text text-anchor="middle" x="1429" y="-119.5" font-family="Helvetica,sans-Serif" font-size="10.00" fill="#000000">vof.H</text>
</a>
</g>
</g>
<!-- Node2&#45;&gt;Node29 -->
<g id="edge66" class="edge">
<title>Node2&#45;&gt;Node29</title>
<path fill="none" stroke="#191970" d="M656.2243,-281.5281C710.8391,-272.8152 797.4568,-258.5053 872,-244 1082.3757,-203.0631 1335.2947,-144.1111 1408.3354,-126.8934"/>
<polygon fill="#191970" stroke="#191970" points="655.4017,-278.1148 646.0753,-283.1415 656.5008,-285.028 655.4017,-278.1148"/>
</g>
<!-- Node32 -->
<g id="node31" class="node">
<title>Node32</title>
<g id="a_node31"><a xlink:href="_diffusion_ops_8_h.html" target="_top" xlink:title="DiffusionOps.H">
<polygon fill="#ffffff" stroke="#000000" points="747,-224.5 747,-243.5 831,-243.5 831,-224.5 747,-224.5"/>
<text text-anchor="middle" x="789" y="-231.5" font-family="Helvetica,sans-Serif" font-size="10.00" fill="#000000">DiffusionOps.H</text>
</a>
</g>
</g>
<!-- Node2&#45;&gt;Node32 -->
<g id="edge55" class="edge">
<title>Node2&#45;&gt;Node32</title>
<path fill="none" stroke="#191970" d="M643.8877,-277.4561C678.2143,-267.1765 726.0565,-252.8494 757.273,-243.5011"/>
<polygon fill="#191970" stroke="#191970" points="642.722,-274.1515 634.1464,-280.3733 644.7302,-280.8573 642.722,-274.1515"/>
</g>
<!-- Node34 -->
<g id="node33" class="node">
<title>Node34</title>
<g id="a_node33"><a xlink:href="_p_d_e_base_8cpp.html" target="_top" xlink:title="PDEBase.cpp">
<polygon fill="#ffffff" stroke="#000000" points="1005.5,-224.5 1005.5,-243.5 1084.5,-243.5 1084.5,-224.5 1005.5,-224.5"/>
<text text-anchor="middle" x="1045" y="-231.5" font-family="Helvetica,sans-Serif" font-size="10.00" fill="#000000">PDEBase.cpp</text>
</a>
</g>
</g>
<!-- Node2&#45;&gt;Node34 -->
<g id="edge62" class="edge">
<title>Node2&#45;&gt;Node34</title>
<path fill="none" stroke="#191970" d="M656.3617,-284.7055C731.7036,-277.1095 872.0379,-262.029 991,-244 995.6191,-243.3 1000.4483,-242.5015 1005.238,-241.6681"/>
<polygon fill="#191970" stroke="#191970" points="655.7719,-281.2469 646.1709,-285.7271 656.4702,-288.212 655.7719,-281.2469"/>
</g>
<!-- Node4 -->
<g id="node3" class="node">
<title>Node4</title>
<g id="a_node3"><a xlink:href="density_8cpp.html" target="_top" xlink:title="density.cpp">
<polygon fill="#ffffff" stroke="#000000" points="93.5,-.5 93.5,-19.5 160.5,-19.5 160.5,-.5 93.5,-.5"/>
<text text-anchor="middle" x="127" y="-7.5" font-family="Helvetica,sans-Serif" font-size="10.00" fill="#000000">density.cpp</text>
</a>
</g>
</g>
<!-- Node3&#45;&gt;Node4 -->
<g id="edge2" class="edge">
<title>Node3&#45;&gt;Node4</title>
<path fill="none" stroke="#191970" d="M285.3033,-111.8134C240.4088,-103.3247 183.9166,-90.3398 165,-76 145.8234,-61.4631 134.7071,-34.2374 129.8828,-19.7121"/>
<polygon fill="#191970" stroke="#191970" points="284.7987,-115.2794 295.2691,-113.6608 286.0746,-108.3966 284.7987,-115.2794"/>
</g>
<!-- Node5 -->
<g id="node4" class="node">
<title>Node5</title>
<g id="a_node4"><a xlink:href="icns__ops_8_h.html" target="_top" xlink:title="icns_ops.H">
<polygon fill="#ffffff" stroke="#000000" points="830,-56.5 830,-75.5 896,-75.5 896,-56.5 830,-56.5"/>
<text text-anchor="middle" x="863" y="-63.5" font-family="Helvetica,sans-Serif" font-size="10.00" fill="#000000">icns_ops.H</text>
</a>
</g>
</g>
<!-- Node3&#45;&gt;Node5 -->
<g id="edge3" class="edge">
<title>Node3&#45;&gt;Node5</title>
<path fill="none" stroke="#191970" d="M406.8174,-111.8564C590.8367,-89.0611 641.0119,-105.0525 821,-76 823.8119,-75.5461 826.7144,-75.0067 829.6187,-74.417"/>
<polygon fill="#191970" stroke="#191970" points="406.2934,-108.3946 396.8096,-113.1177 407.1688,-115.3397 406.2934,-108.3946"/>
</g>
<!-- Node7 -->
<g id="node6" class="node">
<title>Node7</title>
<g id="a_node6"><a xlink:href="icns__advection_8_h.html" target="_top" xlink:title="icns_advection.H">
<polygon fill="#ffffff" stroke="#000000" points="720,-56.5 720,-75.5 812,-75.5 812,-56.5 720,-56.5"/>
<text text-anchor="middle" x="766" y="-63.5" font-family="Helvetica,sans-Serif" font-size="10.00" fill="#000000">icns_advection.H</text>
</a>
</g>
</g>
<!-- Node3&#45;&gt;Node7 -->
<g id="edge5" class="edge">
<title>Node3&#45;&gt;Node7</title>
<path fill="none" stroke="#191970" d="M406.484,-111.8237C525.0414,-94.3913 652.8833,-79.0398 719.7576,-71.2751"/>
<polygon fill="#191970" stroke="#191970" points="405.8892,-108.3735 396.5088,-113.2987 406.9132,-115.2982 405.8892,-108.3735"/>
</g>
<!-- Node9 -->
<g id="node8" class="node">
<title>Node9</title>
<g id="a_node8"><a xlink:href="levelset_8cpp.html" target="_top" xlink:title="levelset.cpp">
<polygon fill="#ffffff" stroke="#000000" points="553.5,-.5 553.5,-19.5 622.5,-19.5 622.5,-.5 553.5,-.5"/>
<text text-anchor="middle" x="588" y="-7.5" font-family="Helvetica,sans-Serif" font-size="10.00" fill="#000000">levelset.cpp</text>
</a>
</g>
</g>
<!-- Node3&#45;&gt;Node9 -->
<g id="edge8" class="edge">
<title>Node3&#45;&gt;Node9</title>
<path fill="none" stroke="#191970" d="M316.6221,-107.5582C293.7263,-94.4087 268.2531,-74.3089 284,-56 301.4032,-35.7653 477.1608,-19.0711 553.222,-12.7357"/>
<polygon fill="#191970" stroke="#191970" points="315.0471,-110.6859 325.5012,-112.4068 318.402,-104.5422 315.0471,-110.6859"/>
</g>
<!-- Node10 -->
<g id="node9" class="node">
<title>Node10</title>
<g id="a_node9"><a xlink:href="_s_d_r_8cpp.html" target="_top" xlink:title="SDR.cpp">
<polygon fill="#ffffff" stroke="#000000" points="174.5,-56.5 174.5,-75.5 231.5,-75.5 231.5,-56.5 174.5,-56.5"/>
<text text-anchor="middle" x="203" y="-63.5" font-family="Helvetica,sans-Serif" font-size="10.00" fill="#000000">SDR.cpp</text>
</a>
</g>
</g>
<!-- Node3&#45;&gt;Node10 -->
<g id="edge9" class="edge">
<title>Node3&#45;&gt;Node10</title>
<path fill="none" stroke="#191970" d="M311.9202,-108.6541C285.8427,-98.4419 250.5185,-84.6086 227.2618,-75.5011"/>
<polygon fill="#191970" stroke="#191970" points="310.8297,-111.9858 321.4174,-112.3733 313.3822,-105.4677 310.8297,-111.9858"/>
</g>
<!-- Node11 -->
<g id="node10" class="node">
<title>Node11</title>
<g id="a_node10"><a xlink:href="temperature_8cpp.html" target="_top" xlink:title="temperature.cpp">
<polygon fill="#ffffff" stroke="#000000" points="326.5,-56.5 326.5,-75.5 413.5,-75.5 413.5,-56.5 326.5,-56.5"/>
<text text-anchor="middle" x="370" y="-63.5" font-family="Helvetica,sans-Serif" font-size="10.00" fill="#000000">temperature.cpp</text>
</a>
</g>
</g>
<!-- Node3&#45;&gt;Node11 -->
<g id="edge10" class="edge">
<title>Node3&#45;&gt;Node11</title>
<path fill="none" stroke="#191970" d="M354.1241,-103.0437C358.0715,-93.8331 362.6458,-83.1598 365.8674,-75.6427"/>
<polygon fill="#191970" stroke="#191970" points="350.9027,-101.6753 350.1805,-112.2455 357.3367,-104.4328 350.9027,-101.6753"/>
</g>
<!-- Node12 -->
<g id="node11" class="node">
<title>Node12</title>
<g id="a_node11"><a xlink:href="_t_k_e_8cpp.html" target="_top" xlink:title="TKE.cpp">
<polygon fill="#ffffff" stroke="#000000" points="470.5,-56.5 470.5,-75.5 525.5,-75.5 525.5,-56.5 470.5,-56.5"/>
<text text-anchor="middle" x="498" y="-63.5" font-family="Helvetica,sans-Serif" font-size="10.00" fill="#000000">TKE.cpp</text>
</a>
</g>
</g>
<!-- Node3&#45;&gt;Node12 -->
<g id="edge11" class="edge">
<title>Node3&#45;&gt;Node12</title>
<path fill="none" stroke="#191970" d="M381.859,-108.7888C409.6123,-98.5639 447.3819,-84.6488 472.2112,-75.5011"/>
<polygon fill="#191970" stroke="#191970" points="380.3032,-105.6319 372.1297,-112.3733 382.7232,-112.2003 380.3032,-105.6319"/>
</g>
<!-- Node13 -->
<g id="node12" class="node">
<title>Node13</title>
<g id="a_node12"><a xlink:href="vof_8cpp.html" target="_top" xlink:title="vof.cpp">
<polygon fill="#ffffff" stroke="#000000" points="1404.5,-.5 1404.5,-19.5 1453.5,-19.5 1453.5,-.5 1404.5,-.5"/>
<text text-anchor="middle" x="1429" y="-7.5" font-family="Helvetica,sans-Serif" font-size="10.00" fill="#000000">vof.cpp</text>
</a>
</g>
</g>
<!-- Node3&#45;&gt;Node13 -->
<g id="edge12" class="edge">
<title>Node3&#45;&gt;Node13</title>
<path fill="none" stroke="#191970" d="M328.6318,-104.5274C316.2691,-90.0046 303.9617,-69.5888 317,-56 321.8754,-50.9187 1241.0078,-16.9094 1404.3307,-10.9049"/>
<polygon fill="#191970" stroke="#191970" points="326.3997,-107.2739 335.7259,-112.3012 331.5704,-102.5553 326.3997,-107.2739"/>
</g>
<!-- Node6 -->
<g id="node5" class="node">
<title>Node6</title>
<g id="a_node5"><a xlink:href="icns_8cpp.html" target="_top" xlink:title="icns.cpp">
<polygon fill="#ffffff" stroke="#000000" points="1075.5,-.5 1075.5,-19.5 1128.5,-19.5 1128.5,-.5 1075.5,-.5"/>
<text text-anchor="middle" x="1102" y="-7.5" font-family="Helvetica,sans-Serif" font-size="10.00" fill="#000000">icns.cpp</text>
</a>
</g>
</g>
<!-- Node5&#45;&gt;Node6 -->
<g id="edge4" class="edge">
<title>Node5&#45;&gt;Node6</title>
<path fill="none" stroke="#191970" d="M906.2613,-55.8635C955.4827,-44.3304 1034.3321,-25.8552 1075.3154,-16.2525"/>
<polygon fill="#191970" stroke="#191970" points="905.1697,-52.5243 896.2319,-58.2134 906.7667,-59.3398 905.1697,-52.5243"/>
</g>
<!-- Node7&#45;&gt;Node6 -->
<g id="edge6" class="edge">
<title>Node7&#45;&gt;Node6</title>
<path fill="none" stroke="#191970" d="M822.0976,-55.8319C921.3732,-38.7519 1026.8581,-21.8842 1075.2399,-14.22"/>
<polygon fill="#191970" stroke="#191970" points="821.4626,-52.3897 812.203,-57.5386 822.6525,-59.2878 821.4626,-52.3897"/>
</g>
<!-- Node8 -->
<g id="node7" class="node">
<title>Node8</title>
<g id="a_node7"><a xlink:href="icns__advection_8cpp.html" target="_top" xlink:title="icns_advection.cpp">
<polygon fill="#ffffff" stroke="#000000" points="715.5,-.5 715.5,-19.5 816.5,-19.5 816.5,-.5 715.5,-.5"/>
<text text-anchor="middle" x="766" y="-7.5" font-family="Helvetica,sans-Serif" font-size="10.00" fill="#000000">icns_advection.cpp</text>
</a>
</g>
</g>
<!-- Node7&#45;&gt;Node8 -->
<g id="edge7" class="edge">
<title>Node7&#45;&gt;Node8</title>
<path fill="none" stroke="#191970" d="M766,-46.1575C766,-37.155 766,-26.9199 766,-19.6427"/>
<polygon fill="#191970" stroke="#191970" points="762.5001,-46.2455 766,-56.2455 769.5001,-46.2456 762.5001,-46.2455"/>
</g>
<!-- Node14&#45;&gt;Node4 -->
<g id="edge14" class="edge">
<title>Node14&#45;&gt;Node4</title>
<path fill="none" stroke="#191970" d="M524.15,-107.6693C506.0012,-98.6308 482.104,-86.6869 461,-76 443.6215,-67.1997 440.5256,-62.0216 422,-56 330.3104,-26.1971 216.1288,-15.4185 160.5412,-11.7522"/>
<polygon fill="#191970" stroke="#191970" points="523.075,-111.0437 533.5871,-112.3653 526.1936,-104.7767 523.075,-111.0437"/>
</g>
<!-- Node14&#45;&gt;Node5 -->
<g id="edge15" class="edge">
<title>Node14&#45;&gt;Node5</title>
<path fill="none" stroke="#191970" d="M604.6809,-111.9265C701.8832,-94.6196 728.2565,-94.7105 821,-76 823.792,-75.4367 826.6806,-74.8203 829.5755,-74.179"/>
<polygon fill="#191970" stroke="#191970" points="603.9531,-108.5011 594.7298,-113.7146 605.1912,-115.3908 603.9531,-108.5011"/>
</g>
<!-- Node14&#45;&gt;Node7 -->
<g id="edge16" class="edge">
<title>Node14&#45;&gt;Node7</title>
<path fill="none" stroke="#191970" d="M599.4585,-109.7856C638.6393,-99.4845 693.9235,-84.9497 729.8618,-75.5011"/>
<polygon fill="#191970" stroke="#191970" points="598.3974,-106.4455 589.616,-112.3733 600.1773,-113.2155 598.3974,-106.4455"/>
</g>
<!-- Node14&#45;&gt;Node9 -->
<g id="edge17" class="edge">
<title>Node14&#45;&gt;Node9</title>
<path fill="none" stroke="#191970" d="M558.8488,-102.3106C562.7803,-89.1729 568.1168,-71.5258 573,-56 576.9316,-43.4997 581.6416,-29.1526 584.7214,-19.8513"/>
<polygon fill="#191970" stroke="#191970" points="555.4213,-101.557 555.9175,-112.1402 562.1294,-103.5574 555.4213,-101.557"/>
</g>
<!-- Node14&#45;&gt;Node10 -->
<g id="edge18" class="edge">
<title>Node14&#45;&gt;Node10</title>
<path fill="none" stroke="#191970" d="M501.412,-111.9542C395.8321,-93.6442 283.1517,-77.3004 231.5099,-69.9892"/>
<polygon fill="#191970" stroke="#191970" points="500.8247,-115.4046 511.2773,-113.6746 502.0273,-108.5086 500.8247,-115.4046"/>
</g>
<!-- Node14&#45;&gt;Node11 -->
<g id="edge19" class="edge">
<title>Node14&#45;&gt;Node11</title>
<path fill="none" stroke="#191970" d="M511.575,-109.3235C478.0144,-99.0536 431.466,-84.8093 401.0483,-75.5011"/>
<polygon fill="#191970" stroke="#191970" points="510.9547,-112.7938 521.5412,-112.3733 513.0031,-106.1002 510.9547,-112.7938"/>
</g>
<!-- Node14&#45;&gt;Node12 -->
<g id="edge20" class="edge">
<title>Node14&#45;&gt;Node12</title>
<path fill="none" stroke="#191970" d="M536.3774,-105.0751C526.9145,-95.4402 515.4031,-83.7196 507.4705,-75.6427"/>
<polygon fill="#191970" stroke="#191970" points="533.9155,-107.5635 543.4197,-112.2455 538.9097,-102.6585 533.9155,-107.5635"/>
</g>
<!-- Node14&#45;&gt;Node13 -->
<g id="edge21" class="edge">
<title>Node14&#45;&gt;Node13</title>
<path fill="none" stroke="#191970" d="M604.9506,-111.9926C739.0589,-92.2061 779.4972,-115.0643 905,-76 923.2229,-70.3279 924.7085,-61.4469 943,-56 1031.0299,-29.786 1318.3907,-14.9859 1404.4378,-11.0638"/>
<polygon fill="#191970" stroke="#191970" points="604.0595,-108.5881 594.7036,-113.5599 605.1178,-115.5077 604.0595,-108.5881"/>
</g>
<!-- Node16 -->
<g id="node15" class="node">
<title>Node16</title>
<g id="a_node15"><a xlink:href="_p_d_e_8_h.html" target="_top" xlink:title="PDE.H">
<polygon fill="#ffffff" stroke="#000000" points="619,-168.5 619,-187.5 667,-187.5 667,-168.5 619,-168.5"/>
<text text-anchor="middle" x="643" y="-175.5" font-family="Helvetica,sans-Serif" font-size="10.00" fill="#000000">PDE.H</text>
</a>
</g>
</g>
<!-- Node15&#45;&gt;Node16 -->
<g id="edge23" class="edge">
<title>Node15&#45;&gt;Node16</title>
<path fill="none" stroke="#191970" d="M641.063,-214.1575C641.5453,-205.155 642.0936,-194.9199 642.4834,-187.6427"/>
<polygon fill="#191970" stroke="#191970" points="637.5626,-214.0726 640.5226,-224.2455 644.5526,-214.4471 637.5626,-214.0726"/>
</g>
<!-- Node16&#45;&gt;Node17 -->
<g id="edge24" class="edge">
<title>Node16&#45;&gt;Node17</title>
<path fill="none" stroke="#191970" d="M608.2477,-174.5418C535.8011,-167.2638 363.3664,-149.5826 219,-132 204.3294,-130.2133 188.0504,-128.0348 174.5047,-126.1678"/>
<polygon fill="#191970" stroke="#191970" points="608.2978,-178.0642 618.597,-175.5789 608.9959,-171.0991 608.2978,-178.0642"/>
</g>
<!-- Node16&#45;&gt;Node19 -->
<g id="edge28" class="edge">
<title>Node16&#45;&gt;Node19</title>
<path fill="none" stroke="#191970" d="M677.1497,-173.0198C754.2113,-161.7817 939.9097,-134.7007 1004.4458,-125.2892"/>
<polygon fill="#191970" stroke="#191970" points="676.4111,-169.5904 667.0209,-174.4969 677.4214,-176.5172 676.4111,-169.5904"/>
</g>
<!-- Node16&#45;&gt;Node23 -->
<g id="edge37" class="edge">
<title>Node16&#45;&gt;Node23</title>
<path fill="none" stroke="#191970" d="M643,-158.1575C643,-149.155 643,-138.9199 643,-131.6427"/>
<polygon fill="#191970" stroke="#191970" points="639.5001,-158.2455 643,-168.2455 646.5001,-158.2456 639.5001,-158.2455"/>
</g>
<!-- Node16&#45;&gt;Node25 -->
<g id="edge41" class="edge">
<title>Node16&#45;&gt;Node25</title>
<path fill="none" stroke="#191970" d="M608.6419,-175.4826C544.6214,-170.3711 402.9671,-157.0762 286,-132 283.3074,-131.4227 280.517,-130.7301 277.7508,-129.9821"/>
<polygon fill="#191970" stroke="#191970" points="608.7113,-178.9986 618.9536,-176.2883 609.2566,-172.0199 608.7113,-178.9986"/>
</g>
<!-- Node16&#45;&gt;Node26 -->
<g id="edge43" class="edge">
<title>Node16&#45;&gt;Node26</title>
<path fill="none" stroke="#191970" d="M608.9416,-167.9086C574.0687,-157.5759 520.274,-141.6368 486.1223,-131.5177"/>
<polygon fill="#191970" stroke="#191970" points="608.0962,-171.3085 618.6785,-170.7936 610.0848,-164.5969 608.0962,-171.3085"/>
</g>
<!-- Node16&#45;&gt;Node27 -->
<g id="edge45" class="edge">
<title>Node16&#45;&gt;Node27</title>
<path fill="none" stroke="#191970" d="M663.664,-161.928C676.2489,-152.1397 691.9092,-139.9595 702.6023,-131.6427"/>
<polygon fill="#191970" stroke="#191970" points="661.2862,-159.3434 655.5414,-168.2455 665.5838,-164.8688 661.2862,-159.3434"/>
</g>
<!-- Node16&#45;&gt;Node29 -->
<g id="edge48" class="edge">
<title>Node16&#45;&gt;Node29</title>
<path fill="none" stroke="#191970" d="M677.3525,-173.8693C694.3752,-171.9132 715.2508,-169.6499 734,-168 999.9116,-144.6006 1324.0103,-127.3518 1408.2223,-123.0453"/>
<polygon fill="#191970" stroke="#191970" points="676.8328,-170.4061 667.3048,-175.0394 677.6425,-177.3591 676.8328,-170.4061"/>
</g>
<!-- Node17&#45;&gt;Node4 -->
<g id="edge25" class="edge">
<title>Node17&#45;&gt;Node4</title>
<path fill="none" stroke="#191970" d="M138.5899,-102.6076C136.1456,-94.4741 133.5719,-84.8634 132,-76 128.5085,-56.3126 127.4534,-32.8974 127.1357,-19.917"/>
<polygon fill="#191970" stroke="#191970" points="135.2887,-103.777 141.6336,-112.2618 141.9648,-101.6721 135.2887,-103.777"/>
</g>
<!-- Node18 -->
<g id="node17" class="node">
<title>Node18</title>
<g id="a_node17"><a xlink:href="density__ops_8_h.html" target="_top" xlink:title="density_ops.H">
<polygon fill="#ffffff" stroke="#000000" points="0,-56.5 0,-75.5 80,-75.5 80,-56.5 0,-56.5"/>
<text text-anchor="middle" x="40" y="-63.5" font-family="Helvetica,sans-Serif" font-size="10.00" fill="#000000">density_ops.H</text>
</a>
</g>
</g>
<!-- Node17&#45;&gt;Node18 -->
<g id="edge26" class="edge">
<title>Node17&#45;&gt;Node18</title>
<path fill="none" stroke="#191970" d="M117.7375,-107.46C98.9478,-97.4388 74.4987,-84.3993 58.08,-75.6427"/>
<polygon fill="#191970" stroke="#191970" points="116.2398,-110.6278 126.7104,-112.2455 119.5339,-104.4514 116.2398,-110.6278"/>
</g>
<!-- Node18&#45;&gt;Node4 -->
<g id="edge27" class="edge">
<title>Node18&#45;&gt;Node4</title>
<path fill="none" stroke="#191970" d="M63.6625,-50.769C79.0791,-40.8456 98.726,-28.1994 112.0194,-19.6427"/>
<polygon fill="#191970" stroke="#191970" points="61.6685,-47.89 55.1542,-56.2455 65.4573,-53.7761 61.6685,-47.89"/>
</g>
<!-- Node19&#45;&gt;Node5 -->
<g id="edge30" class="edge">
<title>Node19&#45;&gt;Node5</title>
<path fill="none" stroke="#191970" d="M994.5491,-110.9192C964.3518,-100.6079 919.8115,-85.399 891.0994,-75.5949"/>
<polygon fill="#191970" stroke="#191970" points="993.602,-114.2942 1004.1965,-114.2134 995.864,-107.6697 993.602,-114.2942"/>
</g>
<!-- Node19&#45;&gt;Node6 -->
<g id="edge29" class="edge">
<title>Node19&#45;&gt;Node6</title>
<path fill="none" stroke="#191970" d="M1059.533,-114.7944C1093.6225,-106.5071 1143.7671,-91.9731 1155,-76 1169.709,-55.0839 1139.9383,-32.1103 1119.3573,-19.5388"/>
<polygon fill="#191970" stroke="#191970" points="1058.4557,-111.4526 1049.5299,-117.1605 1060.067,-118.2646 1058.4557,-111.4526"/>
</g>
<!-- Node19&#45;&gt;Node7 -->
<g id="edge31" class="edge">
<title>Node19&#45;&gt;Node7</title>
<path fill="none" stroke="#191970" d="M994.4591,-115.0181C948.0248,-105.0551 862.6104,-86.7287 810.3998,-75.5264"/>
<polygon fill="#191970" stroke="#191970" points="993.7828,-118.4525 1004.2945,-117.1283 995.2513,-111.6083 993.7828,-118.4525"/>
</g>
<!-- Node20 -->
<g id="node19" class="node">
<title>Node20</title>
<g id="a_node19"><a xlink:href="icns__diffusion_8_h.html" target="_top" xlink:title="icns_diffusion.H">
<polygon fill="#ffffff" stroke="#000000" points="1058.5,-56.5 1058.5,-75.5 1145.5,-75.5 1145.5,-56.5 1058.5,-56.5"/>
<text text-anchor="middle" x="1102" y="-63.5" font-family="Helvetica,sans-Serif" font-size="10.00" fill="#000000">icns_diffusion.H</text>
</a>
</g>
</g>
<!-- Node19&#45;&gt;Node20 -->
<g id="edge32" class="edge">
<title>Node19&#45;&gt;Node20</title>
<path fill="none" stroke="#191970" d="M1048.1477,-106.2097C1061.3201,-96.3743 1077.84,-84.0394 1089.0857,-75.6427"/>
<polygon fill="#191970" stroke="#191970" points="1045.9828,-103.4581 1040.064,-112.2455 1050.1709,-109.0671 1045.9828,-103.4581"/>
</g>
<!-- Node21 -->
<g id="node20" class="node">
<title>Node21</title>
<g id="a_node20"><a xlink:href="icns__bcop_8_h.html" target="_top" xlink:title="icns_bcop.H">
<polygon fill="#ffffff" stroke="#000000" points="1329.5,-56.5 1329.5,-75.5 1400.5,-75.5 1400.5,-56.5 1329.5,-56.5"/>
<text text-anchor="middle" x="1365" y="-63.5" font-family="Helvetica,sans-Serif" font-size="10.00" fill="#000000">icns_bcop.H</text>
</a>
</g>
</g>
<!-- Node19&#45;&gt;Node21 -->
<g id="edge34" class="edge">
<title>Node19&#45;&gt;Node21</title>
<path fill="none" stroke="#191970" d="M1059.6731,-117.6308C1114.0746,-110.1899 1226.5772,-94.0948 1321,-76 1323.6159,-75.4987 1326.313,-74.9542 1329.0237,-74.3867"/>
<polygon fill="#191970" stroke="#191970" points="1059.0274,-114.1863 1049.5901,-119.0017 1059.9704,-121.1225 1059.0274,-114.1863"/>
</g>
<!-- Node22 -->
<g id="node21" class="node">
<title>Node22</title>
<g id="a_node21"><a xlink:href="_power_law_profile_8cpp.html" target="_top" xlink:title="PowerLawProfile.cpp">
<polygon fill="#ffffff" stroke="#000000" points="1202.5,-56.5 1202.5,-75.5 1311.5,-75.5 1311.5,-56.5 1202.5,-56.5"/>
<text text-anchor="middle" x="1257" y="-63.5" font-family="Helvetica,sans-Serif" font-size="10.00" fill="#000000">PowerLawProfile.cpp</text>
</a>
</g>
</g>
<!-- Node19&#45;&gt;Node22 -->
<g id="edge36" class="edge">
<title>Node19&#45;&gt;Node22</title>
<path fill="none" stroke="#191970" d="M1059.8013,-114.0136C1101.4621,-103.8701 1173.2737,-86.3855 1217.7841,-75.5482"/>
<polygon fill="#191970" stroke="#191970" points="1058.7823,-110.6594 1049.8941,-116.4258 1060.4383,-117.4607 1058.7823,-110.6594"/>
</g>
<!-- Node20&#45;&gt;Node6 -->
<g id="edge33" class="edge">
<title>Node20&#45;&gt;Node6</title>
<path fill="none" stroke="#191970" d="M1102,-46.1575C1102,-37.155 1102,-26.9199 1102,-19.6427"/>
<polygon fill="#191970" stroke="#191970" points="1098.5001,-46.2455 1102,-56.2455 1105.5001,-46.2456 1098.5001,-46.2455"/>
</g>
<!-- Node21&#45;&gt;Node6 -->
<g id="edge35" class="edge">
<title>Node21&#45;&gt;Node6</title>
<path fill="none" stroke="#191970" d="M1319.43,-55.6798C1244.7787,-39.4162 1168.1545,-23.5618 1128.6624,-15.4531"/>
<polygon fill="#191970" stroke="#191970" points="1318.9531,-59.1581 1329.4696,-57.8722 1320.4466,-52.3193 1318.9531,-59.1581"/>
</g>
<!-- Node23&#45;&gt;Node9 -->
<g id="edge38" class="edge">
<title>Node23&#45;&gt;Node9</title>
<path fill="none" stroke="#191970" d="M660.1249,-104.5889C671.3639,-90.9673 682.3904,-71.7592 673,-56 662.0919,-37.6938 641.0874,-26.2297 622.6886,-19.3245"/>
<polygon fill="#191970" stroke="#191970" points="657.3215,-102.4738 653.2801,-112.2676 662.5469,-107.1317 657.3215,-102.4738"/>
</g>
<!-- Node24 -->
<g id="node23" class="node">
<title>Node24</title>
<g id="a_node23"><a xlink:href="levelset__ops_8_h.html" target="_top" xlink:title="levelset_ops.H">
<polygon fill="#ffffff" stroke="#000000" points="582,-56.5 582,-75.5 664,-75.5 664,-56.5 582,-56.5"/>
<text text-anchor="middle" x="623" y="-63.5" font-family="Helvetica,sans-Serif" font-size="10.00" fill="#000000">levelset_ops.H</text>
</a>
</g>
</g>
<!-- Node23&#45;&gt;Node24 -->
<g id="edge39" class="edge">
<title>Node23&#45;&gt;Node24</title>
<path fill="none" stroke="#191970" d="M636.1247,-102.7493C632.8594,-93.6064 629.0999,-83.0798 626.4438,-75.6427"/>
<polygon fill="#191970" stroke="#191970" points="632.8567,-104.0053 639.5163,-112.2455 639.4489,-101.6509 632.8567,-104.0053"/>
</g>
<!-- Node24&#45;&gt;Node9 -->
<g id="edge40" class="edge">
<title>Node24&#45;&gt;Node9</title>
<path fill="none" stroke="#191970" d="M611.5185,-47.6296C605.6804,-38.2887 598.8248,-27.3197 594.0267,-19.6427"/>
<polygon fill="#191970" stroke="#191970" points="608.6354,-49.6206 616.9035,-56.2455 614.5714,-45.9105 608.6354,-49.6206"/>
</g>
<!-- Node25&#45;&gt;Node10 -->
<g id="edge42" class="edge">
<title>Node25&#45;&gt;Node10</title>
<path fill="none" stroke="#191970" d="M237.3753,-104.5004C228.8727,-94.9775 218.6782,-83.5596 211.6095,-75.6427"/>
<polygon fill="#191970" stroke="#191970" points="235.0197,-107.1172 244.2907,-112.2455 240.2413,-102.4551 235.0197,-107.1172"/>
</g>
<!-- Node26&#45;&gt;Node11 -->
<g id="edge44" class="edge">
<title>Node26&#45;&gt;Node11</title>
<path fill="none" stroke="#191970" d="M430.7351,-106.49C415.9144,-96.6096 397.1791,-84.1194 384.464,-75.6427"/>
<polygon fill="#191970" stroke="#191970" points="429.1063,-109.6107 439.3683,-112.2455 432.9893,-103.7863 429.1063,-109.6107"/>
</g>
<!-- Node27&#45;&gt;Node12 -->
<g id="edge46" class="edge">
<title>Node27&#45;&gt;Node12</title>
<path fill="none" stroke="#191970" d="M681.562,-111.6987C620.9693,-94.8845 560.1689,-80.3632 525.7159,-72.3511"/>
<polygon fill="#191970" stroke="#191970" points="680.7078,-115.094 691.2809,-114.4163 682.5928,-108.3526 680.7078,-115.094"/>
</g>
<!-- Node28 -->
<g id="node27" class="node">
<title>Node28</title>
<g id="a_node27"><a xlink:href="_one_eq_ksgs_8cpp.html" target="_top" xlink:title="OneEqKsgs.cpp">
<polygon fill="#ffffff" stroke="#000000" points="952,-56.5 952,-75.5 1040,-75.5 1040,-56.5 952,-56.5"/>
<text text-anchor="middle" x="996" y="-63.5" font-family="Helvetica,sans-Serif" font-size="10.00" fill="#000000">OneEqKsgs.cpp</text>
</a>
</g>
</g>
<!-- Node27&#45;&gt;Node28 -->
<g id="edge47" class="edge">
<title>Node27&#45;&gt;Node28</title>
<path fill="none" stroke="#191970" d="M748.7811,-115.2678C799.562,-105.1478 895.5986,-86.0088 951.8596,-74.7967"/>
<polygon fill="#191970" stroke="#191970" points="748.081,-111.8384 738.9579,-117.2255 749.4491,-118.7034 748.081,-111.8384"/>
</g>
<!-- Node29&#45;&gt;Node13 -->
<g id="edge49" class="edge">
<title>Node29&#45;&gt;Node13</title>
<path fill="none" stroke="#191970" d="M1429,-102.2702C1429,-77.9985 1429,-37.7725 1429,-19.5249"/>
<polygon fill="#191970" stroke="#191970" points="1425.5001,-102.4509 1429,-112.4509 1432.5001,-102.451 1425.5001,-102.4509"/>
</g>
<!-- Node30 -->
<g id="node29" class="node">
<title>Node30</title>
<g id="a_node29"><a xlink:href="vof__advection_8_h.html" target="_top" xlink:title="vof_advection.H">
<polygon fill="#ffffff" stroke="#000000" points="1457,-56.5 1457,-75.5 1545,-75.5 1545,-56.5 1457,-56.5"/>
<text text-anchor="middle" x="1501" y="-63.5" font-family="Helvetica,sans-Serif" font-size="10.00" fill="#000000">vof_advection.H</text>
</a>
</g>
</g>
<!-- Node29&#45;&gt;Node30 -->
<g id="edge50" class="edge">
<title>Node29&#45;&gt;Node30</title>
<path fill="none" stroke="#191970" d="M1449.664,-105.928C1462.2489,-96.1397 1477.9092,-83.9595 1488.6023,-75.6427"/>
<polygon fill="#191970" stroke="#191970" points="1447.2862,-103.3434 1441.5414,-112.2455 1451.5838,-108.8688 1447.2862,-103.3434"/>
</g>
<!-- Node31 -->
<g id="node30" class="node">
<title>Node31</title>
<g id="a_node30"><a xlink:href="vof__ops_8_h.html" target="_top" xlink:title="vof_ops.H">
<polygon fill="#ffffff" stroke="#000000" points="1563,-56.5 1563,-75.5 1625,-75.5 1625,-56.5 1563,-56.5"/>
<text text-anchor="middle" x="1594" y="-63.5" font-family="Helvetica,sans-Serif" font-size="10.00" fill="#000000">vof_ops.H</text>
</a>
</g>
</g>
<!-- Node29&#45;&gt;Node31 -->
<g id="edge52" class="edge">
<title>Node29&#45;&gt;Node31</title>
<path fill="none" stroke="#191970" d="M1459.229,-111.7405C1489.6989,-101.3992 1536.3435,-85.5683 1565.9954,-75.5046"/>
<polygon fill="#191970" stroke="#191970" points="1457.9083,-108.4925 1449.5637,-115.0208 1460.1581,-115.1212 1457.9083,-108.4925"/>
</g>
<!-- Node30&#45;&gt;Node13 -->
<g id="edge51" class="edge">
<title>Node30&#45;&gt;Node13</title>
<path fill="none" stroke="#191970" d="M1480.336,-49.928C1467.7511,-40.1397 1452.0908,-27.9595 1441.3977,-19.6427"/>
<polygon fill="#191970" stroke="#191970" points="1478.4162,-52.8688 1488.4586,-56.2455 1482.7138,-47.3434 1478.4162,-52.8688"/>
</g>
<!-- Node31&#45;&gt;Node13 -->
<g id="edge53" class="edge">
<title>Node31&#45;&gt;Node13</title>
<path fill="none" stroke="#191970" d="M1555.8704,-53.059C1524.349,-42.3609 1480.5258,-27.4875 1453.5025,-18.316"/>
<polygon fill="#191970" stroke="#191970" points="1555.0411,-56.4736 1565.6355,-56.3733 1557.2909,-49.845 1555.0411,-56.4736"/>
</g>
<!-- Node32&#45;&gt;Node5 -->
<g id="edge58" class="edge">
<title>Node32&#45;&gt;Node5</title>
<path fill="none" stroke="#191970" d="M814.4316,-218.7303C825.263,-210.9037 836.9928,-200.3993 844,-188 865.0929,-150.676 864.8248,-97.2079 863.6982,-75.6016"/>
<polygon fill="#191970" stroke="#191970" points="812.3568,-215.9084 806.045,-224.4179 816.2858,-221.7017 812.3568,-215.9084"/>
</g>
<!-- Node32&#45;&gt;Node16 -->
<g id="edge56" class="edge">
<title>Node32&#45;&gt;Node16</title>
<path fill="none" stroke="#191970" d="M754.497,-220.766C727.6632,-210.4735 691.1082,-196.4525 667.2856,-187.315"/>
<polygon fill="#191970" stroke="#191970" points="753.3115,-224.0598 763.9017,-224.3733 755.8184,-217.5241 753.3115,-224.0598"/>
</g>
<!-- Node32&#45;&gt;Node20 -->
<g id="edge59" class="edge">
<title>Node32&#45;&gt;Node20</title>
<path fill="none" stroke="#191970" d="M812.4493,-218.8897C850.2759,-194.8121 927.4631,-146.9009 996,-112 1023.3511,-98.072 1055.8716,-84.3615 1077.6127,-75.5834"/>
<polygon fill="#191970" stroke="#191970" points="810.251,-216.1408 803.7097,-224.4752 814.0207,-222.0392 810.251,-216.1408"/>
</g>
<!-- Node33 -->
<g id="node32" class="node">
<title>Node33</title>
<g id="a_node32"><a xlink:href="_diffusion_ops_8cpp.html" target="_top" xlink:title="DiffusionOps.cpp">
<polygon fill="#ffffff" stroke="#000000" points="743,-168.5 743,-187.5 835,-187.5 835,-168.5 743,-168.5"/>
<text text-anchor="middle" x="789" y="-175.5" font-family="Helvetica,sans-Serif" font-size="10.00" fill="#000000">DiffusionOps.cpp</text>
</a>
</g>
</g>
<!-- Node32&#45;&gt;Node33 -->
<g id="edge57" class="edge">
<title>Node32&#45;&gt;Node33</title>
<path fill="none" stroke="#191970" d="M789,-214.1575C789,-205.155 789,-194.9199 789,-187.6427"/>
<polygon fill="#191970" stroke="#191970" points="785.5001,-214.2455 789,-224.2455 792.5001,-214.2456 785.5001,-214.2455"/>
</g>
</g>
</svg>
