<?xml version="1.0" encoding="UTF-8" standalone="no"?>
<!DOCTYPE svg PUBLIC "-//W3C//DTD SVG 1.1//EN"
 "http://www.w3.org/Graphics/SVG/1.1/DTD/svg11.dtd">
<!-- Generated by graphviz version 2.40.1 (20161225.0304)
 -->
<!-- Title: Slice.H Pages: 1 -->
<svg width="927pt" height="308pt"
 viewBox="0.00 0.00 926.50 308.00" xmlns="http://www.w3.org/2000/svg" xmlns:xlink="http://www.w3.org/1999/xlink">
<g id="graph0" class="graph" transform="scale(1 1) rotate(0) translate(4 304)">
<title>Slice.H</title>
<polygon fill="#ffffff" stroke="transparent" points="-4,4 -4,-304 922.5,-304 922.5,4 -4,4"/>
<!-- Node4 -->
<g id="node1" class="node">
<title>Node4</title>
<polygon fill="#bfbfbf" stroke="#000000" points="420,-280.5 420,-299.5 469,-299.5 469,-280.5 420,-280.5"/>
<text text-anchor="middle" x="444.5" y="-287.5" font-family="Helvetica,sans-Serif" font-size="10.00" fill="#000000">Slice.H</text>
</g>
<!-- Node5 -->
<g id="node2" class="node">
<title>Node5</title>
<g id="a_node2"><a xlink:href="actuator__types_8_h.html" target="_top" xlink:title="actuator_types.H">
<polygon fill="#ffffff" stroke="#000000" points="398.5,-224.5 398.5,-243.5 490.5,-243.5 490.5,-224.5 398.5,-224.5"/>
<text text-anchor="middle" x="444.5" y="-231.5" font-family="Helvetica,sans-Serif" font-size="10.00" fill="#000000">actuator_types.H</text>
</a>
</g>
</g>
<!-- Node4&#45;&gt;Node5 -->
<g id="edge1" class="edge">
<title>Node4&#45;&gt;Node5</title>
<path fill="none" stroke="#191970" d="M444.5,-270.1575C444.5,-261.155 444.5,-250.9199 444.5,-243.6427"/>
<polygon fill="#191970" stroke="#191970" points="441.0001,-270.2455 444.5,-280.2455 448.0001,-270.2456 441.0001,-270.2455"/>
</g>
<!-- Node6 -->
<g id="node3" class="node">
<title>Node6</title>
<g id="a_node3"><a xlink:href="_act_src_op_8_h.html" target="_top" xlink:title="ActSrcOp.H">
<polygon fill="#ffffff" stroke="#000000" points="235.5,-112.5 235.5,-131.5 305.5,-131.5 305.5,-112.5 235.5,-112.5"/>
<text text-anchor="middle" x="270.5" y="-119.5" font-family="Helvetica,sans-Serif" font-size="10.00" fill="#000000">ActSrcOp.H</text>
</a>
</g>
</g>
<!-- Node5&#45;&gt;Node6 -->
<g id="edge2" class="edge">
<title>Node5&#45;&gt;Node6</title>
<path fill="none" stroke="#191970" d="M415.5471,-219.6321C398.8322,-211.0186 377.6015,-199.5277 359.5,-188 330.6185,-169.6073 298.8725,-144.8836 282.2084,-131.5251"/>
<polygon fill="#191970" stroke="#191970" points="414.3097,-222.9297 424.809,-224.3497 417.4868,-216.6922 414.3097,-222.9297"/>
</g>
<!-- Node7 -->
<g id="node4" class="node">
<title>Node7</title>
<g id="a_node4"><a xlink:href="_actuator_model_8_h.html" target="_top" xlink:title="ActuatorModel.H">
<polygon fill="#ffffff" stroke="#000000" points="247.5,-56.5 247.5,-75.5 337.5,-75.5 337.5,-56.5 247.5,-56.5"/>
<text text-anchor="middle" x="292.5" y="-63.5" font-family="Helvetica,sans-Serif" font-size="10.00" fill="#000000">ActuatorModel.H</text>
</a>
</g>
</g>
<!-- Node5&#45;&gt;Node7 -->
<g id="edge21" class="edge">
<title>Node5&#45;&gt;Node7</title>
<path fill="none" stroke="#191970" d="M388.6144,-225.7733C335.9243,-214.6553 260.1675,-189.1634 226.5,-132 212.602,-108.4029 245.817,-87.1982 269.9978,-75.5108"/>
<polygon fill="#191970" stroke="#191970" points="388.0049,-229.2206 398.497,-227.7484 389.3769,-222.3564 388.0049,-229.2206"/>
</g>
<!-- Node12 -->
<g id="node9" class="node">
<title>Node12</title>
<g id="a_node9"><a xlink:href="actuator__ops_8_h.html" target="_top" xlink:title="actuator_ops.H">
<polygon fill="#ffffff" stroke="#000000" points="368,-168.5 368,-187.5 451,-187.5 451,-168.5 368,-168.5"/>
<text text-anchor="middle" x="409.5" y="-175.5" font-family="Helvetica,sans-Serif" font-size="10.00" fill="#000000">actuator_ops.H</text>
</a>
</g>
</g>
<!-- Node5&#45;&gt;Node12 -->
<g id="edge8" class="edge">
<title>Node5&#45;&gt;Node12</title>
<path fill="none" stroke="#191970" d="M433.0185,-215.6296C427.1804,-206.2887 420.3248,-195.3197 415.5267,-187.6427"/>
<polygon fill="#191970" stroke="#191970" points="430.1354,-217.6206 438.4035,-224.2455 436.0714,-213.9105 430.1354,-217.6206"/>
</g>
<!-- Node15 -->
<g id="node12" class="node">
<title>Node15</title>
<g id="a_node12"><a xlink:href="wing__ops_8_h.html" target="_top" xlink:title="wing_ops.H">
<polygon fill="#ffffff" stroke="#000000" points="475.5,-112.5 475.5,-131.5 543.5,-131.5 543.5,-112.5 475.5,-112.5"/>
<text text-anchor="middle" x="509.5" y="-119.5" font-family="Helvetica,sans-Serif" font-size="10.00" fill="#000000">wing_ops.H</text>
</a>
</g>
</g>
<!-- Node5&#45;&gt;Node15 -->
<g id="edge45" class="edge">
<title>Node5&#45;&gt;Node15</title>
<path fill="none" stroke="#191970" d="M455.1947,-215.5723C469.1873,-191.4618 493.1904,-150.1028 503.9722,-131.5249"/>
<polygon fill="#191970" stroke="#191970" points="452.0343,-214.0451 450.0419,-224.4509 458.0885,-217.5588 452.0343,-214.0451"/>
</g>
<!-- Node18 -->
<g id="node15" class="node">
<title>Node18</title>
<g id="a_node15"><a xlink:href="actuator__utils_8cpp.html" target="_top" xlink:title="actuator_utils.cpp">
<polygon fill="#ffffff" stroke="#000000" points="733.5,-168.5 733.5,-187.5 827.5,-187.5 827.5,-168.5 733.5,-168.5"/>
<text text-anchor="middle" x="780.5" y="-175.5" font-family="Helvetica,sans-Serif" font-size="10.00" fill="#000000">actuator_utils.cpp</text>
</a>
</g>
</g>
<!-- Node5&#45;&gt;Node18 -->
<g id="edge22" class="edge">
<title>Node5&#45;&gt;Node18</title>
<path fill="none" stroke="#191970" d="M500.7778,-224.9897C557.3448,-215.8776 647.0223,-201.2812 724.5,-188 727.4202,-187.4994 730.425,-186.9788 733.4546,-186.4498"/>
<polygon fill="#191970" stroke="#191970" points="499.9281,-221.5813 490.6112,-226.6257 501.0403,-228.4924 499.9281,-221.5813"/>
</g>
<!-- Node19 -->
<g id="node16" class="node">
<title>Node19</title>
<g id="a_node16"><a xlink:href="_airfoil_table_8_h.html" target="_top" xlink:title="AirfoilTable.H">
<polygon fill="#ffffff" stroke="#000000" points="639.5,-168.5 639.5,-187.5 715.5,-187.5 715.5,-168.5 639.5,-168.5"/>
<text text-anchor="middle" x="677.5" y="-175.5" font-family="Helvetica,sans-Serif" font-size="10.00" fill="#000000">AirfoilTable.H</text>
</a>
</g>
</g>
<!-- Node5&#45;&gt;Node19 -->
<g id="edge23" class="edge">
<title>Node5&#45;&gt;Node19</title>
<path fill="none" stroke="#191970" d="M494.0822,-222.0833C537.5359,-211.6394 599.783,-196.6788 639.421,-187.152"/>
<polygon fill="#191970" stroke="#191970" points="493.1946,-218.6968 484.2894,-224.4369 494.8304,-225.503 493.1946,-218.6968"/>
</g>
<!-- Node24 -->
<g id="node21" class="node">
<title>Node24</title>
<g id="a_node21"><a xlink:href="turbine__types_8_h.html" target="_top" xlink:title="turbine_types.H">
<polygon fill="#ffffff" stroke="#000000" points="93.5,-168.5 93.5,-187.5 179.5,-187.5 179.5,-168.5 93.5,-168.5"/>
<text text-anchor="middle" x="136.5" y="-175.5" font-family="Helvetica,sans-Serif" font-size="10.00" fill="#000000">turbine_types.H</text>
</a>
</g>
</g>
<!-- Node5&#45;&gt;Node24 -->
<g id="edge34" class="edge">
<title>Node5&#45;&gt;Node24</title>
<path fill="none" stroke="#191970" d="M388.3302,-223.7873C328.3334,-212.8788 234.5279,-195.8233 179.9349,-185.8973"/>
<polygon fill="#191970" stroke="#191970" points="387.9245,-227.2708 398.3893,-225.6162 389.1767,-220.3838 387.9245,-227.2708"/>
</g>
<!-- Node28 -->
<g id="node25" class="node">
<title>Node28</title>
<g id="a_node25"><a xlink:href="_actuator_wing_8_h.html" target="_top" xlink:title="ActuatorWing.H">
<polygon fill="#ffffff" stroke="#000000" points="531.5,-168.5 531.5,-187.5 617.5,-187.5 617.5,-168.5 531.5,-168.5"/>
<text text-anchor="middle" x="574.5" y="-175.5" font-family="Helvetica,sans-Serif" font-size="10.00" fill="#000000">ActuatorWing.H</text>
</a>
</g>
</g>
<!-- Node5&#45;&gt;Node28 -->
<g id="edge41" class="edge">
<title>Node5&#45;&gt;Node28</title>
<path fill="none" stroke="#191970" d="M476.1102,-220.3833C499.7535,-210.1985 531.4876,-196.5284 552.4438,-187.5011"/>
<polygon fill="#191970" stroke="#191970" points="474.6472,-217.2025 466.8478,-224.3733 477.4166,-223.6314 474.6472,-217.2025"/>
</g>
<!-- Node6&#45;&gt;Node7 -->
<g id="edge3" class="edge">
<title>Node6&#45;&gt;Node7</title>
<path fill="none" stroke="#191970" d="M278.0628,-102.7493C281.6546,-93.6064 285.7901,-83.0798 288.7118,-75.6427"/>
<polygon fill="#191970" stroke="#191970" points="274.7311,-101.6582 274.3321,-112.2455 281.2463,-104.2178 274.7311,-101.6582"/>
</g>
<!-- Node8 -->
<g id="node5" class="node">
<title>Node8</title>
<g id="a_node5"><a xlink:href="_actuator_8cpp.html" target="_top" xlink:title="Actuator.cpp">
<polygon fill="#ffffff" stroke="#000000" points="256.5,-.5 256.5,-19.5 328.5,-19.5 328.5,-.5 256.5,-.5"/>
<text text-anchor="middle" x="292.5" y="-7.5" font-family="Helvetica,sans-Serif" font-size="10.00" fill="#000000">Actuator.cpp</text>
</a>
</g>
</g>
<!-- Node7&#45;&gt;Node8 -->
<g id="edge4" class="edge">
<title>Node7&#45;&gt;Node8</title>
<path fill="none" stroke="#191970" d="M292.5,-46.1575C292.5,-37.155 292.5,-26.9199 292.5,-19.6427"/>
<polygon fill="#191970" stroke="#191970" points="289.0001,-46.2455 292.5,-56.2455 296.0001,-46.2456 289.0001,-46.2455"/>
</g>
<!-- Node9 -->
<g id="node6" class="node">
<title>Node9</title>
<g id="a_node6"><a xlink:href="_turbine_fast_8cpp.html" target="_top" xlink:title="TurbineFast.cpp">
<polygon fill="#ffffff" stroke="#000000" points="30,-.5 30,-19.5 117,-19.5 117,-.5 30,-.5"/>
<text text-anchor="middle" x="73.5" y="-7.5" font-family="Helvetica,sans-Serif" font-size="10.00" fill="#000000">TurbineFast.cpp</text>
</a>
</g>
</g>
<!-- Node7&#45;&gt;Node9 -->
<g id="edge5" class="edge">
<title>Node7&#45;&gt;Node9</title>
<path fill="none" stroke="#191970" d="M244.9892,-53.8511C204.6898,-43.5462 147.6852,-28.9697 110.6562,-19.5011"/>
<polygon fill="#191970" stroke="#191970" points="244.2972,-57.2867 254.8526,-56.3733 246.0314,-50.5049 244.2972,-57.2867"/>
</g>
<!-- Node10 -->
<g id="node7" class="node">
<title>Node10</title>
<g id="a_node7"><a xlink:href="_fixed_wing_8cpp.html" target="_top" xlink:title="FixedWing.cpp">
<polygon fill="#ffffff" stroke="#000000" points="468.5,-.5 468.5,-19.5 550.5,-19.5 550.5,-.5 468.5,-.5"/>
<text text-anchor="middle" x="509.5" y="-7.5" font-family="Helvetica,sans-Serif" font-size="10.00" fill="#000000">FixedWing.cpp</text>
</a>
</g>
</g>
<!-- Node7&#45;&gt;Node10 -->
<g id="edge6" class="edge">
<title>Node7&#45;&gt;Node10</title>
<path fill="none" stroke="#191970" d="M339.5769,-53.8511C379.5083,-43.5462 435.9923,-28.9697 472.6831,-19.5011"/>
<polygon fill="#191970" stroke="#191970" points="338.6118,-50.4854 329.8036,-56.3733 340.361,-57.2634 338.6118,-50.4854"/>
</g>
<!-- Node11 -->
<g id="node8" class="node">
<title>Node11</title>
<g id="a_node8"><a xlink:href="_flat_plate_8cpp.html" target="_top" xlink:title="FlatPlate.cpp">
<polygon fill="#ffffff" stroke="#000000" points="362.5,-.5 362.5,-19.5 436.5,-19.5 436.5,-.5 362.5,-.5"/>
<text text-anchor="middle" x="399.5" y="-7.5" font-family="Helvetica,sans-Serif" font-size="10.00" fill="#000000">FlatPlate.cpp</text>
</a>
</g>
</g>
<!-- Node7&#45;&gt;Node11 -->
<g id="edge7" class="edge">
<title>Node7&#45;&gt;Node11</title>
<path fill="none" stroke="#191970" d="M320.0199,-51.5971C339.2017,-41.558 364.2678,-28.4393 381.0756,-19.6427"/>
<polygon fill="#191970" stroke="#191970" points="318.375,-48.5075 311.138,-56.2455 321.6209,-54.7095 318.375,-48.5075"/>
</g>
<!-- Node12&#45;&gt;Node6 -->
<g id="edge9" class="edge">
<title>Node12&#45;&gt;Node6</title>
<path fill="none" stroke="#191970" d="M376.0379,-164.5189C350.7231,-154.3201 316.5897,-140.5685 294.0831,-131.5011"/>
<polygon fill="#191970" stroke="#191970" points="375.0216,-167.8827 385.605,-168.3733 377.6374,-161.3899 375.0216,-167.8827"/>
</g>
<!-- Node12&#45;&gt;Node7 -->
<g id="edge10" class="edge">
<title>Node12&#45;&gt;Node7</title>
<path fill="none" stroke="#191970" d="M394.1781,-160.572C381.9487,-146.9411 364.1625,-127.7288 347.5,-112 333.5598,-98.841 316.4882,-84.8675 305.0972,-75.8215"/>
<polygon fill="#191970" stroke="#191970" points="391.7531,-163.1118 401.0149,-168.2568 396.983,-158.4591 391.7531,-163.1118"/>
</g>
<!-- Node13 -->
<g id="node10" class="node">
<title>Node13</title>
<g id="a_node10"><a xlink:href="turbine__fast__ops_8_h.html" target="_top" xlink:title="turbine_fast_ops.H">
<polygon fill="#ffffff" stroke="#000000" points="24,-56.5 24,-75.5 123,-75.5 123,-56.5 24,-56.5"/>
<text text-anchor="middle" x="73.5" y="-63.5" font-family="Helvetica,sans-Serif" font-size="10.00" fill="#000000">turbine_fast_ops.H</text>
</a>
</g>
</g>
<!-- Node12&#45;&gt;Node13 -->
<g id="edge11" class="edge">
<title>Node12&#45;&gt;Node13</title>
<path fill="none" stroke="#191970" d="M388.8854,-162.155C365.9289,-144.789 330.0136,-118.5206 314.5,-112 305.7015,-108.3019 191.0684,-87.23 123.1242,-74.9275"/>
<polygon fill="#191970" stroke="#191970" points="386.9024,-165.0441 396.9797,-168.3151 391.1417,-159.4738 386.9024,-165.0441"/>
</g>
<!-- Node14 -->
<g id="node11" class="node">
<title>Node14</title>
<g id="a_node11"><a xlink:href="fixed__wing__ops_8_h.html" target="_top" xlink:title="fixed_wing_ops.H">
<polygon fill="#ffffff" stroke="#000000" points="462,-56.5 462,-75.5 557,-75.5 557,-56.5 462,-56.5"/>
<text text-anchor="middle" x="509.5" y="-63.5" font-family="Helvetica,sans-Serif" font-size="10.00" fill="#000000">fixed_wing_ops.H</text>
</a>
</g>
</g>
<!-- Node12&#45;&gt;Node14 -->
<g id="edge13" class="edge">
<title>Node12&#45;&gt;Node14</title>
<path fill="none" stroke="#191970" d="M424.2277,-160.5716C435.63,-147.1705 451.8902,-128.2587 466.5,-112 477.8985,-99.315 491.3726,-85.0083 500.16,-75.7668"/>
<polygon fill="#191970" stroke="#191970" points="421.3027,-158.6092 417.5024,-168.4991 426.6406,-163.1377 421.3027,-158.6092"/>
</g>
<!-- Node12&#45;&gt;Node15 -->
<g id="edge15" class="edge">
<title>Node12&#45;&gt;Node15</title>
<path fill="none" stroke="#191970" d="M435.7098,-163.3225C453.5717,-153.3198 476.7155,-140.3593 492.2809,-131.6427"/>
<polygon fill="#191970" stroke="#191970" points="433.9336,-160.3057 426.9187,-168.2455 437.3539,-166.4132 433.9336,-160.3057"/>
</g>
<!-- Node16 -->
<g id="node13" class="node">
<title>Node16</title>
<g id="a_node13"><a xlink:href="flat__plate__ops_8_h.html" target="_top" xlink:title="flat_plate_ops.H">
<polygon fill="#ffffff" stroke="#000000" points="355.5,-56.5 355.5,-75.5 443.5,-75.5 443.5,-56.5 355.5,-56.5"/>
<text text-anchor="middle" x="399.5" y="-63.5" font-family="Helvetica,sans-Serif" font-size="10.00" fill="#000000">flat_plate_ops.H</text>
</a>
</g>
</g>
<!-- Node12&#45;&gt;Node16 -->
<g id="edge20" class="edge">
<title>Node12&#45;&gt;Node16</title>
<path fill="none" stroke="#191970" d="M407.7384,-158.2702C405.5713,-133.9985 401.9797,-93.7725 400.3504,-75.5249"/>
<polygon fill="#191970" stroke="#191970" points="404.2719,-158.8019 408.6474,-168.4509 411.2441,-158.1793 404.2719,-158.8019"/>
</g>
<!-- Node13&#45;&gt;Node9 -->
<g id="edge12" class="edge">
<title>Node13&#45;&gt;Node9</title>
<path fill="none" stroke="#191970" d="M73.5,-46.1575C73.5,-37.155 73.5,-26.9199 73.5,-19.6427"/>
<polygon fill="#191970" stroke="#191970" points="70.0001,-46.2455 73.5,-56.2455 77.0001,-46.2456 70.0001,-46.2455"/>
</g>
<!-- Node14&#45;&gt;Node10 -->
<g id="edge14" class="edge">
<title>Node14&#45;&gt;Node10</title>
<path fill="none" stroke="#191970" d="M509.5,-46.1575C509.5,-37.155 509.5,-26.9199 509.5,-19.6427"/>
<polygon fill="#191970" stroke="#191970" points="506.0001,-46.2455 509.5,-56.2455 513.0001,-46.2456 506.0001,-46.2455"/>
</g>
<!-- Node15&#45;&gt;Node14 -->
<g id="edge16" class="edge">
<title>Node15&#45;&gt;Node14</title>
<path fill="none" stroke="#191970" d="M509.5,-102.1575C509.5,-93.155 509.5,-82.9199 509.5,-75.6427"/>
<polygon fill="#191970" stroke="#191970" points="506.0001,-102.2455 509.5,-112.2455 513.0001,-102.2456 506.0001,-102.2455"/>
</g>
<!-- Node15&#45;&gt;Node16 -->
<g id="edge17" class="edge">
<title>Node15&#45;&gt;Node16</title>
<path fill="none" stroke="#191970" d="M481.2086,-107.5971C461.4889,-97.558 435.72,-84.4393 418.441,-75.6427"/>
<polygon fill="#191970" stroke="#191970" points="479.8399,-110.8277 490.3395,-112.2455 483.0157,-104.5896 479.8399,-110.8277"/>
</g>
<!-- Node17 -->
<g id="node14" class="node">
<title>Node17</title>
<g id="a_node14"><a xlink:href="wing__ops_8cpp.html" target="_top" xlink:title="wing_ops.cpp">
<polygon fill="#ffffff" stroke="#000000" points="575,-56.5 575,-75.5 652,-75.5 652,-56.5 575,-56.5"/>
<text text-anchor="middle" x="613.5" y="-63.5" font-family="Helvetica,sans-Serif" font-size="10.00" fill="#000000">wing_ops.cpp</text>
</a>
</g>
</g>
<!-- Node15&#45;&gt;Node17 -->
<g id="edge19" class="edge">
<title>Node15&#45;&gt;Node17</title>
<path fill="none" stroke="#191970" d="M536.5029,-107.46C555.1136,-97.4388 579.3299,-84.3993 595.5922,-75.6427"/>
<polygon fill="#191970" stroke="#191970" points="534.7608,-104.4228 527.6154,-112.2455 538.0795,-110.5861 534.7608,-104.4228"/>
</g>
<!-- Node16&#45;&gt;Node11 -->
<g id="edge18" class="edge">
<title>Node16&#45;&gt;Node11</title>
<path fill="none" stroke="#191970" d="M399.5,-46.1575C399.5,-37.155 399.5,-26.9199 399.5,-19.6427"/>
<polygon fill="#191970" stroke="#191970" points="396.0001,-46.2455 399.5,-56.2455 403.0001,-46.2456 396.0001,-46.2455"/>
</g>
<!-- Node19&#45;&gt;Node15 -->
<g id="edge30" class="edge">
<title>Node19&#45;&gt;Node15</title>
<path fill="none" stroke="#191970" d="M639.0714,-165.1905C608.2927,-154.9309 565.8074,-140.7691 538.0034,-131.5011"/>
<polygon fill="#191970" stroke="#191970" points="638.0261,-168.5313 648.6198,-168.3733 640.2398,-161.8905 638.0261,-168.5313"/>
</g>
<!-- Node20 -->
<g id="node17" class="node">
<title>Node20</title>
<g id="a_node17"><a xlink:href="_airfoil_table_8cpp.html" target="_top" xlink:title="AirfoilTable.cpp">
<polygon fill="#ffffff" stroke="#000000" points="834.5,-112.5 834.5,-131.5 918.5,-131.5 918.5,-112.5 834.5,-112.5"/>
<text text-anchor="middle" x="876.5" y="-119.5" font-family="Helvetica,sans-Serif" font-size="10.00" fill="#000000">AirfoilTable.cpp</text>
</a>
</g>
</g>
<!-- Node19&#45;&gt;Node20 -->
<g id="edge24" class="edge">
<title>Node19&#45;&gt;Node20</title>
<path fill="none" stroke="#191970" d="M721.6062,-165.5882C758.1677,-155.2996 809.3748,-140.8895 842.7371,-131.5011"/>
<polygon fill="#191970" stroke="#191970" points="720.3873,-162.2952 711.7093,-168.3733 722.2836,-169.0335 720.3873,-162.2952"/>
</g>
<!-- Node21 -->
<g id="node18" class="node">
<title>Node21</title>
<g id="a_node18"><a xlink:href="_airfoil_table_i_8_h.html" target="_top" xlink:title="AirfoilTableI.H">
<polygon fill="#ffffff" stroke="#000000" points="738,-112.5 738,-131.5 817,-131.5 817,-112.5 738,-112.5"/>
<text text-anchor="middle" x="777.5" y="-119.5" font-family="Helvetica,sans-Serif" font-size="10.00" fill="#000000">AirfoilTableI.H</text>
</a>
</g>
</g>
<!-- Node19&#45;&gt;Node21 -->
<g id="edge25" class="edge">
<title>Node19&#45;&gt;Node21</title>
<path fill="none" stroke="#191970" d="M698.6154,-162.769C715.2229,-152.8456 738.0847,-140.1994 755.0358,-131.6427"/>
<polygon fill="#191970" stroke="#191970" points="696.3603,-160.0451 689.6518,-168.2455 700.01,-166.0185 696.3603,-160.0451"/>
</g>
<!-- Node22 -->
<g id="node19" class="node">
<title>Node22</title>
<g id="a_node19"><a xlink:href="_fixed_wing_8_h.html" target="_top" xlink:title="FixedWing.H">
<polygon fill="#ffffff" stroke="#000000" points="645.5,-112.5 645.5,-131.5 719.5,-131.5 719.5,-112.5 645.5,-112.5"/>
<text text-anchor="middle" x="682.5" y="-119.5" font-family="Helvetica,sans-Serif" font-size="10.00" fill="#000000">FixedWing.H</text>
</a>
</g>
</g>
<!-- Node19&#45;&gt;Node22 -->
<g id="edge27" class="edge">
<title>Node19&#45;&gt;Node22</title>
<path fill="none" stroke="#191970" d="M679.2717,-158.1575C680.0754,-149.155 680.9893,-138.9199 681.639,-131.6427"/>
<polygon fill="#191970" stroke="#191970" points="675.7742,-157.9739 678.3709,-168.2455 682.7465,-158.5965 675.7742,-157.9739"/>
</g>
<!-- Node23 -->
<g id="node20" class="node">
<title>Node23</title>
<g id="a_node20"><a xlink:href="_flat_plate_8_h.html" target="_top" xlink:title="FlatPlate.H">
<polygon fill="#ffffff" stroke="#000000" points="561.5,-112.5 561.5,-131.5 627.5,-131.5 627.5,-112.5 561.5,-112.5"/>
<text text-anchor="middle" x="594.5" y="-119.5" font-family="Helvetica,sans-Serif" font-size="10.00" fill="#000000">FlatPlate.H</text>
</a>
</g>
</g>
<!-- Node19&#45;&gt;Node23 -->
<g id="edge31" class="edge">
<title>Node19&#45;&gt;Node23</title>
<path fill="none" stroke="#191970" d="M654.512,-162.49C639.8678,-152.6096 621.3556,-140.1194 608.7918,-131.6427"/>
<polygon fill="#191970" stroke="#191970" points="652.7953,-165.5539 663.0425,-168.2455 656.7104,-159.7511 652.7953,-165.5539"/>
</g>
<!-- Node21&#45;&gt;Node19 -->
<g id="edge26" class="edge">
<title>Node21&#45;&gt;Node19</title>
<path fill="none" stroke="#191970" d="M756.7895,-136.9889C740.14,-146.954 717.025,-159.7466 699.9326,-168.3733"/>
<polygon fill="#191970" stroke="#191970" points="759.0508,-139.7083 765.751,-131.5011 755.3951,-133.7387 759.0508,-139.7083"/>
</g>
<!-- Node22&#45;&gt;Node10 -->
<g id="edge29" class="edge">
<title>Node22&#45;&gt;Node10</title>
<path fill="none" stroke="#191970" d="M693.0098,-103.4085C699.5784,-89.0458 704.9906,-69.4185 694.5,-56 676.9695,-33.5768 599.4837,-20.5196 550.521,-14.3651"/>
<polygon fill="#191970" stroke="#191970" points="689.8662,-101.8688 688.4587,-112.3697 696.1075,-105.0385 689.8662,-101.8688"/>
</g>
<!-- Node22&#45;&gt;Node14 -->
<g id="edge28" class="edge">
<title>Node22&#45;&gt;Node14</title>
<path fill="none" stroke="#191970" d="M642.9277,-109.1905C611.2329,-98.9309 567.4832,-84.7691 538.8517,-75.5011"/>
<polygon fill="#191970" stroke="#191970" points="642.1684,-112.6234 652.7602,-112.3733 644.3242,-105.9636 642.1684,-112.6234"/>
</g>
<!-- Node23&#45;&gt;Node11 -->
<g id="edge33" class="edge">
<title>Node23&#45;&gt;Node11</title>
<path fill="none" stroke="#191970" d="M626.3437,-107.7134C650.6662,-94.8436 677.5139,-75.0705 661.5,-56 659.6903,-53.8449 508.6211,-28.283 436.73,-16.2236"/>
<polygon fill="#191970" stroke="#191970" points="624.6013,-104.672 617.2402,-112.2921 627.7466,-110.9256 624.6013,-104.672"/>
</g>
<!-- Node23&#45;&gt;Node16 -->
<g id="edge32" class="edge">
<title>Node23&#45;&gt;Node16</title>
<path fill="none" stroke="#191970" d="M551.7367,-109.7193C515.9381,-99.4386 465.5758,-84.9756 432.7414,-75.5462"/>
<polygon fill="#191970" stroke="#191970" points="550.8433,-113.1041 561.4209,-112.5004 552.7755,-106.376 550.8433,-113.1041"/>
</g>
<!-- Node25 -->
<g id="node22" class="node">
<title>Node25</title>
<g id="a_node22"><a xlink:href="_turbine_fast_8_h.html" target="_top" xlink:title="TurbineFast.H">
<polygon fill="#ffffff" stroke="#000000" points="0,-112.5 0,-131.5 79,-131.5 79,-112.5 0,-112.5"/>
<text text-anchor="middle" x="39.5" y="-119.5" font-family="Helvetica,sans-Serif" font-size="10.00" fill="#000000">TurbineFast.H</text>
</a>
</g>
</g>
<!-- Node24&#45;&gt;Node25 -->
<g id="edge35" class="edge">
<title>Node24&#45;&gt;Node25</title>
<path fill="none" stroke="#191970" d="M110.5984,-163.0465C93.3391,-153.0824 71.1624,-140.2794 56.2025,-131.6427"/>
<polygon fill="#191970" stroke="#191970" points="109.1936,-166.2768 119.6039,-168.2455 112.6935,-160.2146 109.1936,-166.2768"/>
</g>
<!-- Node26 -->
<g id="node23" class="node">
<title>Node26</title>
<g id="a_node23"><a xlink:href="turbine__utils_8_h.html" target="_top" xlink:title="turbine_utils.H">
<polygon fill="#ffffff" stroke="#000000" points="97.5,-112.5 97.5,-131.5 177.5,-131.5 177.5,-112.5 97.5,-112.5"/>
<text text-anchor="middle" x="137.5" y="-119.5" font-family="Helvetica,sans-Serif" font-size="10.00" fill="#000000">turbine_utils.H</text>
</a>
</g>
</g>
<!-- Node24&#45;&gt;Node26 -->
<g id="edge38" class="edge">
<title>Node24&#45;&gt;Node26</title>
<path fill="none" stroke="#191970" d="M136.8543,-158.1575C137.0151,-149.155 137.1979,-138.9199 137.3278,-131.6427"/>
<polygon fill="#191970" stroke="#191970" points="133.3534,-158.1846 136.6742,-168.2455 140.3523,-158.3097 133.3534,-158.1846"/>
</g>
<!-- Node25&#45;&gt;Node9 -->
<g id="edge37" class="edge">
<title>Node25&#45;&gt;Node9</title>
<path fill="none" stroke="#191970" d="M24.6929,-103.9771C15.5128,-90.4931 6.8111,-71.7444 14.5,-56 22.5365,-39.5439 39.6185,-27.2606 53.3439,-19.5457"/>
<polygon fill="#191970" stroke="#191970" points="22.1554,-106.4305 30.9292,-112.3694 27.774,-102.2553 22.1554,-106.4305"/>
</g>
<!-- Node25&#45;&gt;Node13 -->
<g id="edge36" class="edge">
<title>Node25&#45;&gt;Node13</title>
<path fill="none" stroke="#191970" d="M50.6535,-103.6296C56.3247,-94.2887 62.9845,-83.3197 67.6455,-75.6427"/>
<polygon fill="#191970" stroke="#191970" points="47.6204,-101.8812 45.4223,-112.2455 53.6039,-105.5141 47.6204,-101.8812"/>
</g>
<!-- Node26&#45;&gt;Node13 -->
<g id="edge39" class="edge">
<title>Node26&#45;&gt;Node13</title>
<path fill="none" stroke="#191970" d="M118.8086,-105.645C107.6781,-95.9058 93.9337,-83.8795 84.5202,-75.6427"/>
<polygon fill="#191970" stroke="#191970" points="116.5215,-108.2945 126.3521,-112.2455 121.131,-103.0264 116.5215,-108.2945"/>
</g>
<!-- Node27 -->
<g id="node24" class="node">
<title>Node27</title>
<g id="a_node24"><a xlink:href="turbine__utils_8cpp.html" target="_top" xlink:title="turbine_utils.cpp">
<polygon fill="#ffffff" stroke="#000000" points="141.5,-56.5 141.5,-75.5 229.5,-75.5 229.5,-56.5 141.5,-56.5"/>
<text text-anchor="middle" x="185.5" y="-63.5" font-family="Helvetica,sans-Serif" font-size="10.00" fill="#000000">turbine_utils.cpp</text>
</a>
</g>
</g>
<!-- Node26&#45;&gt;Node27 -->
<g id="edge40" class="edge">
<title>Node26&#45;&gt;Node27</title>
<path fill="none" stroke="#191970" d="M152.4997,-104.5004C160.6622,-94.9775 170.4489,-83.5596 177.2349,-75.6427"/>
<polygon fill="#191970" stroke="#191970" points="149.7115,-102.3752 145.861,-112.2455 155.0263,-106.9307 149.7115,-102.3752"/>
</g>
<!-- Node28&#45;&gt;Node15 -->
<g id="edge43" class="edge">
<title>Node28&#45;&gt;Node15</title>
<path fill="none" stroke="#191970" d="M555.5165,-161.645C544.2121,-151.9058 530.253,-139.8795 520.6924,-131.6427"/>
<polygon fill="#191970" stroke="#191970" points="553.3173,-164.3701 563.1779,-168.2455 557.8862,-159.0668 553.3173,-164.3701"/>
</g>
<!-- Node28&#45;&gt;Node22 -->
<g id="edge42" class="edge">
<title>Node28&#45;&gt;Node22</title>
<path fill="none" stroke="#191970" d="M602.2771,-163.5971C621.6382,-153.558 646.9385,-140.4393 663.9034,-131.6427"/>
<polygon fill="#191970" stroke="#191970" points="600.5786,-160.5352 593.3122,-168.2455 603.8008,-166.7495 600.5786,-160.5352"/>
</g>
<!-- Node28&#45;&gt;Node23 -->
<g id="edge44" class="edge">
<title>Node28&#45;&gt;Node23</title>
<path fill="none" stroke="#191970" d="M581.3753,-158.7493C584.6406,-149.6064 588.4001,-139.0798 591.0562,-131.6427"/>
<polygon fill="#191970" stroke="#191970" points="578.0511,-157.6509 577.9837,-168.2455 584.6433,-160.0053 578.0511,-157.6509"/>
</g>
</g>
</svg>
