<?xml version="1.0" encoding="UTF-8" standalone="no"?>
<!DOCTYPE svg PUBLIC "-//W3C//DTD SVG 1.1//EN"
 "http://www.w3.org/Graphics/SVG/1.1/DTD/svg11.dtd">
<!-- Generated by graphviz version 2.40.1 (20161225.0304)
 -->
<!-- Title: SourceTerm.H Pages: 1 -->
<svg width="343pt" height="196pt"
 viewBox="0.00 0.00 342.50 196.00" xmlns="http://www.w3.org/2000/svg" xmlns:xlink="http://www.w3.org/1999/xlink">
<g id="graph0" class="graph" transform="scale(1 1) rotate(0) translate(4 192)">
<title>SourceTerm.H</title>
<polygon fill="#ffffff" stroke="transparent" points="-4,4 -4,-192 338.5,-192 338.5,4 -4,4"/>
<!-- Node25 -->
<g id="node1" class="node">
<title>Node25</title>
<polygon fill="#bfbfbf" stroke="#000000" points="63.5,-168.5 63.5,-187.5 143.5,-187.5 143.5,-168.5 63.5,-168.5"/>
<text text-anchor="middle" x="103.5" y="-175.5" font-family="Helvetica,sans-Serif" font-size="10.00" fill="#000000">SourceTerm.H</text>
</g>
<!-- Node26 -->
<g id="node2" class="node">
<title>Node26</title>
<g id="a_node2"><a xlink:href="levelset_8_h.html" target="_top" xlink:title="levelset.H">
<polygon fill="#ffffff" stroke="#000000" points="39,-112.5 39,-131.5 100,-131.5 100,-112.5 39,-112.5"/>
<text text-anchor="middle" x="69.5" y="-119.5" font-family="Helvetica,sans-Serif" font-size="10.00" fill="#000000">levelset.H</text>
</a>
</g>
</g>
<!-- Node25&#45;&gt;Node26 -->
<g id="edge1" class="edge">
<title>Node25&#45;&gt;Node26</title>
<path fill="none" stroke="#191970" d="M92.3465,-159.6296C86.6753,-150.2887 80.0155,-139.3197 75.3545,-131.6427"/>
<polygon fill="#191970" stroke="#191970" points="89.3961,-161.5141 97.5777,-168.2455 95.3796,-157.8812 89.3961,-161.5141"/>
</g>
<!-- Node29 -->
<g id="node5" class="node">
<title>Node29</title>
<g id="a_node5"><a xlink:href="vof_8_h.html" target="_top" xlink:title="vof.H">
<polygon fill="#ffffff" stroke="#000000" points="154,-112.5 154,-131.5 195,-131.5 195,-112.5 154,-112.5"/>
<text text-anchor="middle" x="174.5" y="-119.5" font-family="Helvetica,sans-Serif" font-size="10.00" fill="#000000">vof.H</text>
</a>
</g>
</g>
<!-- Node25&#45;&gt;Node29 -->
<g id="edge5" class="edge">
<title>Node25&#45;&gt;Node29</title>
<path fill="none" stroke="#191970" d="M123.877,-161.928C136.2871,-152.1397 151.73,-139.9595 162.2745,-131.6427"/>
<polygon fill="#191970" stroke="#191970" points="121.5514,-159.3046 115.8673,-168.2455 125.8864,-164.8007 121.5514,-159.3046"/>
</g>
<!-- Node27 -->
<g id="node3" class="node">
<title>Node27</title>
<g id="a_node3"><a xlink:href="levelset_8cpp.html" target="_top" xlink:title="levelset.cpp">
<polygon fill="#ffffff" stroke="#000000" points="0,-.5 0,-19.5 69,-19.5 69,-.5 0,-.5"/>
<text text-anchor="middle" x="34.5" y="-7.5" font-family="Helvetica,sans-Serif" font-size="10.00" fill="#000000">levelset.cpp</text>
</a>
</g>
</g>
<!-- Node26&#45;&gt;Node27 -->
<g id="edge2" class="edge">
<title>Node26&#45;&gt;Node27</title>
<path fill="none" stroke="#191970" d="M45.0076,-106.2969C35.1339,-98.5062 24.8323,-88.1513 19.5,-76 11.1897,-57.0622 21.3959,-32.9686 28.5863,-19.7594"/>
<polygon fill="#191970" stroke="#191970" points="42.9491,-109.1277 53.0823,-112.2212 47.09,-103.4838 42.9491,-109.1277"/>
</g>
<!-- Node28 -->
<g id="node4" class="node">
<title>Node28</title>
<g id="a_node4"><a xlink:href="levelset__ops_8_h.html" target="_top" xlink:title="levelset_ops.H">
<polygon fill="#ffffff" stroke="#000000" points="28.5,-56.5 28.5,-75.5 110.5,-75.5 110.5,-56.5 28.5,-56.5"/>
<text text-anchor="middle" x="69.5" y="-63.5" font-family="Helvetica,sans-Serif" font-size="10.00" fill="#000000">levelset_ops.H</text>
</a>
</g>
</g>
<!-- Node26&#45;&gt;Node28 -->
<g id="edge3" class="edge">
<title>Node26&#45;&gt;Node28</title>
<path fill="none" stroke="#191970" d="M69.5,-102.1575C69.5,-93.155 69.5,-82.9199 69.5,-75.6427"/>
<polygon fill="#191970" stroke="#191970" points="66.0001,-102.2455 69.5,-112.2455 73.0001,-102.2456 66.0001,-102.2455"/>
</g>
<!-- Node28&#45;&gt;Node27 -->
<g id="edge4" class="edge">
<title>Node28&#45;&gt;Node27</title>
<path fill="none" stroke="#191970" d="M58.0185,-47.6296C52.1804,-38.2887 45.3248,-27.3197 40.5267,-19.6427"/>
<polygon fill="#191970" stroke="#191970" points="55.1354,-49.6206 63.4035,-56.2455 61.0714,-45.9105 55.1354,-49.6206"/>
</g>
<!-- Node30 -->
<g id="node6" class="node">
<title>Node30</title>
<g id="a_node6"><a xlink:href="vof_8cpp.html" target="_top" xlink:title="vof.cpp">
<polygon fill="#ffffff" stroke="#000000" points="186,-.5 186,-19.5 235,-19.5 235,-.5 186,-.5"/>
<text text-anchor="middle" x="210.5" y="-7.5" font-family="Helvetica,sans-Serif" font-size="10.00" fill="#000000">vof.cpp</text>
</a>
</g>
</g>
<!-- Node29&#45;&gt;Node30 -->
<g id="edge6" class="edge">
<title>Node29&#45;&gt;Node30</title>
<path fill="none" stroke="#191970" d="M163.1871,-103.3789C156.4881,-89.8228 150.5448,-71.246 157.5,-56 164.7818,-40.0379 180.6411,-27.4785 193.1242,-19.5442"/>
<polygon fill="#191970" stroke="#191970" points="160.162,-105.1421 168.0249,-112.2431 166.3064,-101.7886 160.162,-105.1421"/>
</g>
<!-- Node31 -->
<g id="node7" class="node">
<title>Node31</title>
<g id="a_node7"><a xlink:href="vof__advection_8_h.html" target="_top" xlink:title="vof_advection.H">
<polygon fill="#ffffff" stroke="#000000" points="166.5,-56.5 166.5,-75.5 254.5,-75.5 254.5,-56.5 166.5,-56.5"/>
<text text-anchor="middle" x="210.5" y="-63.5" font-family="Helvetica,sans-Serif" font-size="10.00" fill="#000000">vof_advection.H</text>
</a>
</g>
</g>
<!-- Node29&#45;&gt;Node31 -->
<g id="edge7" class="edge">
<title>Node29&#45;&gt;Node31</title>
<path fill="none" stroke="#191970" d="M186.3096,-103.6296C192.3144,-94.2887 199.3659,-83.3197 204.3011,-75.6427"/>
<polygon fill="#191970" stroke="#191970" points="183.2342,-101.9411 180.7707,-112.2455 189.1225,-105.7264 183.2342,-101.9411"/>
</g>
<!-- Node32 -->
<g id="node8" class="node">
<title>Node32</title>
<g id="a_node8"><a xlink:href="vof__ops_8_h.html" target="_top" xlink:title="vof_ops.H">
<polygon fill="#ffffff" stroke="#000000" points="272.5,-56.5 272.5,-75.5 334.5,-75.5 334.5,-56.5 272.5,-56.5"/>
<text text-anchor="middle" x="303.5" y="-63.5" font-family="Helvetica,sans-Serif" font-size="10.00" fill="#000000">vof_ops.H</text>
</a>
</g>
</g>
<!-- Node29&#45;&gt;Node32 -->
<g id="edge9" class="edge">
<title>Node29&#45;&gt;Node32</title>
<path fill="none" stroke="#191970" d="M204.4179,-109.0124C227.9868,-98.7809 260.3026,-84.7524 281.5301,-75.5373"/>
<polygon fill="#191970" stroke="#191970" points="203.0053,-105.81 195.2261,-113.0026 205.7928,-112.231 203.0053,-105.81"/>
</g>
<!-- Node31&#45;&gt;Node30 -->
<g id="edge8" class="edge">
<title>Node31&#45;&gt;Node30</title>
<path fill="none" stroke="#191970" d="M210.5,-46.1575C210.5,-37.155 210.5,-26.9199 210.5,-19.6427"/>
<polygon fill="#191970" stroke="#191970" points="207.0001,-46.2455 210.5,-56.2455 214.0001,-46.2456 207.0001,-46.2455"/>
</g>
<!-- Node32&#45;&gt;Node30 -->
<g id="edge10" class="edge">
<title>Node32&#45;&gt;Node30</title>
<path fill="none" stroke="#191970" d="M278.6665,-51.0465C262.1189,-41.0824 240.8568,-28.2794 226.5137,-19.6427"/>
<polygon fill="#191970" stroke="#191970" points="276.9283,-54.0854 287.3006,-56.2455 280.5393,-48.0886 276.9283,-54.0854"/>
</g>
</g>
</svg>
