<?xml version="1.0" encoding="UTF-8" standalone="no"?>
<!DOCTYPE svg PUBLIC "-//W3C//DTD SVG 1.1//EN"
 "http://www.w3.org/Graphics/SVG/1.1/DTD/svg11.dtd">
<!-- Generated by graphviz version 2.40.1 (20161225.0304)
 -->
<!-- Title: SplitAdvection.H Pages: 1 -->
<svg width="212pt" height="140pt"
 viewBox="0.00 0.00 212.00 140.00" xmlns="http://www.w3.org/2000/svg" xmlns:xlink="http://www.w3.org/1999/xlink">
<g id="graph0" class="graph" transform="scale(1 1) rotate(0) translate(4 136)">
<title>SplitAdvection.H</title>
<polygon fill="#ffffff" stroke="transparent" points="-4,4 -4,-136 208,-136 208,4 -4,4"/>
<!-- Node21 -->
<g id="node1" class="node">
<title>Node21</title>
<polygon fill="#bfbfbf" stroke="#000000" points="59,-112.5 59,-131.5 149,-131.5 149,-112.5 59,-112.5"/>
<text text-anchor="middle" x="104" y="-119.5" font-family="Helvetica,sans-Serif" font-size="10.00" fill="#000000">SplitAdvection.H</text>
</g>
<!-- Node22 -->
<g id="node2" class="node">
<title>Node22</title>
<g id="a_node2"><a xlink:href="_split_advection_8cpp.html" target="_top" xlink:title="SplitAdvection.cpp">
<polygon fill="#ffffff" stroke="#000000" points="0,-56.5 0,-75.5 98,-75.5 98,-56.5 0,-56.5"/>
<text text-anchor="middle" x="49" y="-63.5" font-family="Helvetica,sans-Serif" font-size="10.00" fill="#000000">SplitAdvection.cpp</text>
</a>
</g>
</g>
<!-- Node21&#45;&gt;Node22 -->
<g id="edge1" class="edge">
<title>Node21&#45;&gt;Node22</title>
<path fill="none" stroke="#191970" d="M87.3774,-105.0751C77.9145,-95.4402 66.4031,-83.7196 58.4705,-75.6427"/>
<polygon fill="#191970" stroke="#191970" points="84.9155,-107.5635 94.4197,-112.2455 89.9097,-102.6585 84.9155,-107.5635"/>
</g>
<!-- Node23 -->
<g id="node3" class="node">
<title>Node23</title>
<g id="a_node3"><a xlink:href="vof__advection_8_h.html" target="_top" xlink:title="vof_advection.H">
<polygon fill="#ffffff" stroke="#000000" points="116,-56.5 116,-75.5 204,-75.5 204,-56.5 116,-56.5"/>
<text text-anchor="middle" x="160" y="-63.5" font-family="Helvetica,sans-Serif" font-size="10.00" fill="#000000">vof_advection.H</text>
</a>
</g>
</g>
<!-- Node21&#45;&gt;Node23 -->
<g id="edge2" class="edge">
<title>Node21&#45;&gt;Node23</title>
<path fill="none" stroke="#191970" d="M120.9249,-105.0751C130.5598,-95.4402 142.2804,-83.7196 150.3573,-75.6427"/>
<polygon fill="#191970" stroke="#191970" points="118.3507,-102.6996 113.7545,-112.2455 123.3004,-107.6493 118.3507,-102.6996"/>
</g>
<!-- Node24 -->
<g id="node4" class="node">
<title>Node24</title>
<g id="a_node4"><a xlink:href="vof_8cpp.html" target="_top" xlink:title="vof.cpp">
<polygon fill="#ffffff" stroke="#000000" points="135.5,-.5 135.5,-19.5 184.5,-19.5 184.5,-.5 135.5,-.5"/>
<text text-anchor="middle" x="160" y="-7.5" font-family="Helvetica,sans-Serif" font-size="10.00" fill="#000000">vof.cpp</text>
</a>
</g>
</g>
<!-- Node23&#45;&gt;Node24 -->
<g id="edge3" class="edge">
<title>Node23&#45;&gt;Node24</title>
<path fill="none" stroke="#191970" d="M160,-46.1575C160,-37.155 160,-26.9199 160,-19.6427"/>
<polygon fill="#191970" stroke="#191970" points="156.5001,-46.2455 160,-56.2455 163.5001,-46.2456 156.5001,-46.2455"/>
</g>
</g>
</svg>
