<?xml version="1.0" encoding="UTF-8" standalone="no"?>
<!DOCTYPE svg PUBLIC "-//W3C//DTD SVG 1.1//EN"
 "http://www.w3.org/Graphics/SVG/1.1/DTD/svg11.dtd">
<!-- Generated by graphviz version 2.40.1 (20161225.0304)
 -->
<!-- Title: SplitAdvection.cpp Pages: 1 -->
<svg width="1894pt" height="330pt"
 viewBox="0.00 0.00 1894.31 330.00" xmlns="http://www.w3.org/2000/svg" xmlns:xlink="http://www.w3.org/1999/xlink">
<g id="graph0" class="graph" transform="scale(1 1) rotate(0) translate(4 326)">
<title>SplitAdvection.cpp</title>
<polygon fill="#ffffff" stroke="transparent" points="-4,4 -4,-326 1890.3102,-326 1890.3102,4 -4,4"/>
<!-- Node0 -->
<g id="node1" class="node">
<title>Node0</title>
<polygon fill="#bfbfbf" stroke="#000000" points="1619.3102,-302.5 1619.3102,-321.5 1717.3102,-321.5 1717.3102,-302.5 1619.3102,-302.5"/>
<text text-anchor="middle" x="1668.3102" y="-309.5" font-family="Helvetica,sans-Serif" font-size="10.00" fill="#000000">SplitAdvection.cpp</text>
</g>
<!-- Node1 -->
<g id="node2" class="node">
<title>Node1</title>
<g id="a_node2"><a xlink:href="_split_advection_8_h.html" target="_top" xlink:title="amr&#45;wind/equation_systems\l/vof/SplitAdvection.H">
<polygon fill="#ffffff" stroke="#000000" points="1080.8102,-235.5 1080.8102,-265.5 1219.8102,-265.5 1219.8102,-235.5 1080.8102,-235.5"/>
<text text-anchor="start" x="1088.8102" y="-253.5" font-family="Helvetica,sans-Serif" font-size="10.00" fill="#000000">amr&#45;wind/equation_systems</text>
<text text-anchor="middle" x="1150.3102" y="-242.5" font-family="Helvetica,sans-Serif" font-size="10.00" fill="#000000">/vof/SplitAdvection.H</text>
</a>
</g>
</g>
<!-- Node0&#45;&gt;Node1 -->
<g id="edge1" class="edge">
<title>Node0&#45;&gt;Node1</title>
<path fill="none" stroke="#191970" d="M1619.111,-306.1588C1529.4468,-295.5133 1338.7038,-272.8672 1230.1856,-259.9833"/>
<polygon fill="#191970" stroke="#191970" points="1230.2896,-256.4711 1219.9467,-258.7677 1229.4643,-263.4223 1230.2896,-256.4711"/>
</g>
<!-- Node22 -->
<g id="node23" class="node">
<title>Node22</title>
<g id="a_node23"><a xlink:href="lagrangian__advection_8_h.html" target="_top" xlink:title="amr&#45;wind/equation_systems\l/vof/lagrangian_advection.H">
<polygon fill="#ffffff" stroke="#000000" points="1598.8102,-235.5 1598.8102,-265.5 1737.8102,-265.5 1737.8102,-235.5 1598.8102,-235.5"/>
<text text-anchor="start" x="1606.8102" y="-253.5" font-family="Helvetica,sans-Serif" font-size="10.00" fill="#000000">amr&#45;wind/equation_systems</text>
<text text-anchor="middle" x="1668.3102" y="-242.5" font-family="Helvetica,sans-Serif" font-size="10.00" fill="#000000">/vof/lagrangian_advection.H</text>
</a>
</g>
</g>
<!-- Node0&#45;&gt;Node22 -->
<g id="edge39" class="edge">
<title>Node0&#45;&gt;Node22</title>
<path fill="none" stroke="#191970" d="M1668.3102,-302.3906C1668.3102,-295.2234 1668.3102,-285.0862 1668.3102,-275.671"/>
<polygon fill="#191970" stroke="#191970" points="1671.8103,-275.5446 1668.3102,-265.5446 1664.8103,-275.5446 1671.8103,-275.5446"/>
</g>
<!-- Node26 -->
<g id="node27" class="node">
<title>Node26</title>
<polygon fill="#ffffff" stroke="#bfbfbf" points="1756.3102,-241 1756.3102,-260 1866.3102,-260 1866.3102,-241 1756.3102,-241"/>
<text text-anchor="middle" x="1811.3102" y="-248" font-family="Helvetica,sans-Serif" font-size="10.00" fill="#000000">AMReX_Geometry.H</text>
</g>
<!-- Node0&#45;&gt;Node26 -->
<g id="edge46" class="edge">
<title>Node0&#45;&gt;Node26</title>
<path fill="none" stroke="#191970" d="M1690.654,-302.3906C1714.5805,-292.1005 1752.7411,-275.6888 1779.7318,-264.0809"/>
<polygon fill="#191970" stroke="#191970" points="1781.3197,-267.208 1789.1234,-260.0419 1778.5541,-260.7775 1781.3197,-267.208"/>
</g>
<!-- Node2 -->
<g id="node3" class="node">
<title>Node2</title>
<g id="a_node3"><a xlink:href="_field_repo_8_h.html" target="_top" xlink:title="amr&#45;wind/core/FieldRepo.H">
<polygon fill="#ffffff" stroke="#000000" points="721.3102,-174 721.3102,-193 857.3102,-193 857.3102,-174 721.3102,-174"/>
<text text-anchor="middle" x="789.3102" y="-181" font-family="Helvetica,sans-Serif" font-size="10.00" fill="#000000">amr&#45;wind/core/FieldRepo.H</text>
</a>
</g>
</g>
<!-- Node1&#45;&gt;Node2 -->
<g id="edge2" class="edge">
<title>Node1&#45;&gt;Node2</title>
<path fill="none" stroke="#191970" d="M1080.7058,-237.5817C1013.9981,-225.2011 914.2974,-206.6971 850.5391,-194.8638"/>
<polygon fill="#191970" stroke="#191970" points="851.0962,-191.4075 840.6254,-193.0239 849.8188,-198.29 851.0962,-191.4075"/>
</g>
<!-- Node3 -->
<g id="node4" class="node">
<title>Node3</title>
<polygon fill="#ffffff" stroke="#bfbfbf" points="882.8102,-.5 882.8102,-19.5 923.8102,-19.5 923.8102,-.5 882.8102,-.5"/>
<text text-anchor="middle" x="903.3102" y="-7.5" font-family="Helvetica,sans-Serif" font-size="10.00" fill="#000000">string</text>
</g>
<!-- Node2&#45;&gt;Node3 -->
<g id="edge3" class="edge">
<title>Node2&#45;&gt;Node3</title>
<path fill="none" stroke="#191970" d="M857.3382,-179.2589C1039.2058,-167.2256 1526.0342,-130.196 1572.3102,-76 1578.0822,-69.2401 1578.3762,-62.4974 1572.3102,-56 1550.2606,-32.3822 1063.2302,-15.1302 934.3606,-10.9674"/>
<polygon fill="#191970" stroke="#191970" points="934.1325,-7.4584 924.0258,-10.637 933.9088,-14.4549 934.1325,-7.4584"/>
</g>
<!-- Node4 -->
<g id="node5" class="node">
<title>Node4</title>
<polygon fill="#ffffff" stroke="#bfbfbf" points="1363.8102,-56.5 1363.8102,-75.5 1446.8102,-75.5 1446.8102,-56.5 1363.8102,-56.5"/>
<text text-anchor="middle" x="1405.3102" y="-63.5" font-family="Helvetica,sans-Serif" font-size="10.00" fill="#000000">unordered_map</text>
</g>
<!-- Node2&#45;&gt;Node4 -->
<g id="edge4" class="edge">
<title>Node2&#45;&gt;Node4</title>
<path fill="none" stroke="#191970" d="M857.5075,-176.8462C933.0062,-168.8519 1058.0824,-153.7428 1164.3102,-132 1236.3249,-117.26 1318.5921,-93.1172 1365.9886,-78.477"/>
<polygon fill="#191970" stroke="#191970" points="1367.0459,-81.8136 1375.557,-75.504 1364.9688,-75.1289 1367.0459,-81.8136"/>
</g>
<!-- Node5 -->
<g id="node6" class="node">
<title>Node5</title>
<g id="a_node6"><a xlink:href="_field_desc_types_8_h.html" target="_top" xlink:title="amr&#45;wind/core/FieldDescTypes.H">
<polygon fill="#ffffff" stroke="#000000" points="294.8102,-.5 294.8102,-19.5 457.8102,-19.5 457.8102,-.5 294.8102,-.5"/>
<text text-anchor="middle" x="376.3102" y="-7.5" font-family="Helvetica,sans-Serif" font-size="10.00" fill="#000000">amr&#45;wind/core/FieldDescTypes.H</text>
</a>
</g>
</g>
<!-- Node2&#45;&gt;Node5 -->
<g id="edge5" class="edge">
<title>Node2&#45;&gt;Node5</title>
<path fill="none" stroke="#191970" d="M721.1767,-179.5075C538.4396,-168.075 48.2741,-132.3692 4.3102,-76 -1.1564,-68.9908 -1.5769,-62.6599 4.3102,-56 22.6106,-35.2973 180.3718,-21.8173 284.4868,-15.0889"/>
<polygon fill="#191970" stroke="#191970" points="284.9445,-18.5669 294.7022,-14.4391 284.5002,-11.581 284.9445,-18.5669"/>
</g>
<!-- Node6 -->
<g id="node7" class="node">
<title>Node6</title>
<g id="a_node7"><a xlink:href="_field_utils_8_h.html" target="_top" xlink:title="amr&#45;wind/core/FieldUtils.H">
<polygon fill="#ffffff" stroke="#000000" points="13.8102,-56.5 13.8102,-75.5 146.8102,-75.5 146.8102,-56.5 13.8102,-56.5"/>
<text text-anchor="middle" x="80.3102" y="-63.5" font-family="Helvetica,sans-Serif" font-size="10.00" fill="#000000">amr&#45;wind/core/FieldUtils.H</text>
</a>
</g>
</g>
<!-- Node2&#45;&gt;Node6 -->
<g id="edge6" class="edge">
<title>Node2&#45;&gt;Node6</title>
<path fill="none" stroke="#191970" d="M721.2788,-179.6586C628.7468,-173.6285 458.3463,-159.6587 315.3102,-132 244.5692,-118.3209 164.1347,-93.699 118.0871,-78.7037"/>
<polygon fill="#191970" stroke="#191970" points="119.1164,-75.3579 108.5236,-75.5665 116.9344,-82.0092 119.1164,-75.3579"/>
</g>
<!-- Node7 -->
<g id="node8" class="node">
<title>Node7</title>
<polygon fill="#ffffff" stroke="#bfbfbf" points="642.3102,-.5 642.3102,-19.5 746.3102,-19.5 746.3102,-.5 642.3102,-.5"/>
<text text-anchor="middle" x="694.3102" y="-7.5" font-family="Helvetica,sans-Serif" font-size="10.00" fill="#000000">AMReX_MultiFab.H</text>
</g>
<!-- Node2&#45;&gt;Node7 -->
<g id="edge37" class="edge">
<title>Node2&#45;&gt;Node7</title>
<path fill="none" stroke="#191970" d="M790.4741,-173.8977C792.7068,-151.261 795.3574,-93.6343 770.3102,-56 760.9172,-41.8866 745.5785,-31.4124 731.1319,-24.0541"/>
<polygon fill="#191970" stroke="#191970" points="732.3753,-20.7706 721.8386,-19.6617 729.384,-27.0993 732.3753,-20.7706"/>
</g>
<!-- Node9 -->
<g id="node10" class="node">
<title>Node9</title>
<g id="a_node10"><a xlink:href="_field_8_h.html" target="_top" xlink:title="amr&#45;wind/core/Field.H">
<polygon fill="#ffffff" stroke="#000000" points="1042.8102,-112.5 1042.8102,-131.5 1155.8102,-131.5 1155.8102,-112.5 1042.8102,-112.5"/>
<text text-anchor="middle" x="1099.3102" y="-119.5" font-family="Helvetica,sans-Serif" font-size="10.00" fill="#000000">amr&#45;wind/core/Field.H</text>
</a>
</g>
</g>
<!-- Node2&#45;&gt;Node9 -->
<g id="edge10" class="edge">
<title>Node2&#45;&gt;Node9</title>
<path fill="none" stroke="#191970" d="M837.4076,-173.9581C892.4694,-163.0345 982.6234,-145.1492 1041.4693,-133.4749"/>
<polygon fill="#191970" stroke="#191970" points="1042.2273,-136.8928 1051.3551,-131.5137 1040.8651,-130.0266 1042.2273,-136.8928"/>
</g>
<!-- Node17 -->
<g id="node18" class="node">
<title>Node17</title>
<g id="a_node18"><a xlink:href="_int_field_8_h.html" target="_top" xlink:title="amr&#45;wind/core/IntField.H">
<polygon fill="#ffffff" stroke="#000000" points="516.3102,-112.5 516.3102,-131.5 640.3102,-131.5 640.3102,-112.5 516.3102,-112.5"/>
<text text-anchor="middle" x="578.3102" y="-119.5" font-family="Helvetica,sans-Serif" font-size="10.00" fill="#000000">amr&#45;wind/core/IntField.H</text>
</a>
</g>
</g>
<!-- Node2&#45;&gt;Node17 -->
<g id="edge25" class="edge">
<title>Node2&#45;&gt;Node17</title>
<path fill="none" stroke="#191970" d="M756.3415,-173.8906C719.7985,-163.2395 660.7531,-146.0296 620.7752,-134.3772"/>
<polygon fill="#191970" stroke="#191970" points="621.6274,-130.98 611.0474,-131.5419 619.6685,-137.7004 621.6274,-130.98"/>
</g>
<!-- Node18 -->
<g id="node19" class="node">
<title>Node18</title>
<polygon fill="#ffffff" stroke="#bfbfbf" points="463.8102,-56.5 463.8102,-75.5 570.8102,-75.5 570.8102,-56.5 463.8102,-56.5"/>
<text text-anchor="middle" x="517.3102" y="-63.5" font-family="Helvetica,sans-Serif" font-size="10.00" fill="#000000">AMReX_iMultiFab.H</text>
</g>
<!-- Node2&#45;&gt;Node18 -->
<g id="edge38" class="edge">
<title>Node2&#45;&gt;Node18</title>
<path fill="none" stroke="#191970" d="M772.4291,-173.9226C746.4779,-159.4202 694.9875,-131.5145 649.3102,-112 619.33,-99.1917 584.4656,-87.1589 558.0987,-78.6147"/>
<polygon fill="#191970" stroke="#191970" points="559.0284,-75.2373 548.4373,-75.5165 556.8909,-81.903 559.0284,-75.2373"/>
</g>
<!-- Node19 -->
<g id="node20" class="node">
<title>Node19</title>
<g id="a_node20"><a xlink:href="_scratch_field_8_h.html" target="_top" xlink:title="amr&#45;wind/core/ScratchField.H">
<polygon fill="#ffffff" stroke="#000000" points="324.3102,-112.5 324.3102,-131.5 470.3102,-131.5 470.3102,-112.5 324.3102,-112.5"/>
<text text-anchor="middle" x="397.3102" y="-119.5" font-family="Helvetica,sans-Serif" font-size="10.00" fill="#000000">amr&#45;wind/core/ScratchField.H</text>
</a>
</g>
</g>
<!-- Node2&#45;&gt;Node19 -->
<g id="edge29" class="edge">
<title>Node2&#45;&gt;Node19</title>
<path fill="none" stroke="#191970" d="M728.4903,-173.9581C658.1444,-162.9217 542.5025,-144.7789 468.1575,-133.1151"/>
<polygon fill="#191970" stroke="#191970" points="468.3719,-129.606 457.9503,-131.5137 467.2869,-136.5214 468.3719,-129.606"/>
</g>
<!-- Node21 -->
<g id="node22" class="node">
<title>Node21</title>
<polygon fill="#ffffff" stroke="#bfbfbf" points="817.3102,-112.5 817.3102,-131.5 923.3102,-131.5 923.3102,-112.5 817.3102,-112.5"/>
<text text-anchor="middle" x="870.3102" y="-119.5" font-family="Helvetica,sans-Serif" font-size="10.00" fill="#000000">AMReX_AmrCore.H</text>
</g>
<!-- Node2&#45;&gt;Node21 -->
<g id="edge36" class="edge">
<title>Node2&#45;&gt;Node21</title>
<path fill="none" stroke="#191970" d="M801.9665,-173.8906C814.6871,-164.2324 834.5106,-149.1812 849.5386,-137.771"/>
<polygon fill="#191970" stroke="#191970" points="851.8948,-140.3766 857.7428,-131.5419 847.6619,-134.8015 851.8948,-140.3766"/>
</g>
<!-- Node6&#45;&gt;Node5 -->
<g id="edge7" class="edge">
<title>Node6&#45;&gt;Node5</title>
<path fill="none" stroke="#191970" d="M130.8581,-56.4369C182.1548,-46.7321 261.5681,-31.708 316.092,-21.3926"/>
<polygon fill="#191970" stroke="#191970" points="316.7958,-24.8217 325.9708,-19.5237 315.4945,-17.9437 316.7958,-24.8217"/>
</g>
<!-- Node6&#45;&gt;Node7 -->
<g id="edge8" class="edge">
<title>Node6&#45;&gt;Node7</title>
<path fill="none" stroke="#191970" d="M146.9353,-60.1246C276.4996,-48.6911 553.582,-24.1992 597.3102,-20 608.5846,-18.9173 620.591,-17.7176 632.1767,-16.5359"/>
<polygon fill="#191970" stroke="#191970" points="632.6304,-20.0078 642.2209,-15.5054 631.9159,-13.0443 632.6304,-20.0078"/>
</g>
<!-- Node8 -->
<g id="node9" class="node">
<title>Node8</title>
<polygon fill="#ffffff" stroke="#bfbfbf" points="22.3102,-.5 22.3102,-19.5 138.3102,-19.5 138.3102,-.5 22.3102,-.5"/>
<text text-anchor="middle" x="80.3102" y="-7.5" font-family="Helvetica,sans-Serif" font-size="10.00" fill="#000000">AMReX_Interpolater.H</text>
</g>
<!-- Node6&#45;&gt;Node8 -->
<g id="edge9" class="edge">
<title>Node6&#45;&gt;Node8</title>
<path fill="none" stroke="#191970" d="M80.3102,-56.2455C80.3102,-48.9382 80.3102,-38.6944 80.3102,-29.7046"/>
<polygon fill="#191970" stroke="#191970" points="83.8103,-29.6426 80.3102,-19.6427 76.8103,-29.6427 83.8103,-29.6426"/>
</g>
<!-- Node9&#45;&gt;Node3 -->
<g id="edge11" class="edge">
<title>Node9&#45;&gt;Node3</title>
<path fill="none" stroke="#191970" d="M1124.3397,-112.3894C1152.2482,-100.2781 1191.1478,-78.3323 1172.3102,-56 1157.0142,-37.8663 1000.9992,-19.9506 933.8147,-13.0113"/>
<polygon fill="#191970" stroke="#191970" points="934.1333,-9.5257 923.8299,-11.9935 933.4233,-16.4897 934.1333,-9.5257"/>
</g>
<!-- Node9&#45;&gt;Node4 -->
<g id="edge13" class="edge">
<title>Node9&#45;&gt;Node4</title>
<path fill="none" stroke="#191970" d="M1153.5754,-112.4566C1203.0094,-103.7072 1278.3092,-90.2414 1353.4534,-76.1403"/>
<polygon fill="#191970" stroke="#191970" points="1354.3907,-79.5254 1363.5716,-74.2375 1353.0969,-72.646 1354.3907,-79.5254"/>
</g>
<!-- Node9&#45;&gt;Node5 -->
<g id="edge19" class="edge">
<title>Node9&#45;&gt;Node5</title>
<path fill="none" stroke="#191970" d="M1042.5651,-117.7817C924.106,-108.8004 658.1644,-87.6589 618.3102,-76 599.6141,-70.5307 597.6199,-62.6492 579.3102,-56 536.2554,-40.3645 486.0678,-28.9349 446.3668,-21.3795"/>
<polygon fill="#191970" stroke="#191970" points="446.9821,-17.9339 436.51,-19.5419 445.6992,-24.8154 446.9821,-17.9339"/>
</g>
<!-- Node9&#45;&gt;Node7 -->
<g id="edge15" class="edge">
<title>Node9&#45;&gt;Node7</title>
<path fill="none" stroke="#191970" d="M1061.2496,-112.4308C1025.3508,-103.3288 970.0718,-89.1165 922.3102,-76 857.1055,-58.0932 781.8163,-36.0259 736.1597,-22.4887"/>
<polygon fill="#191970" stroke="#191970" points="736.909,-19.0603 726.3264,-19.5691 734.9165,-25.7707 736.909,-19.0603"/>
</g>
<!-- Node10 -->
<g id="node11" class="node">
<title>Node10</title>
<polygon fill="#ffffff" stroke="#bfbfbf" points="1219.3102,-56.5 1219.3102,-75.5 1271.3102,-75.5 1271.3102,-56.5 1219.3102,-56.5"/>
<text text-anchor="middle" x="1245.3102" y="-63.5" font-family="Helvetica,sans-Serif" font-size="10.00" fill="#000000">memory</text>
</g>
<!-- Node9&#45;&gt;Node10 -->
<g id="edge12" class="edge">
<title>Node9&#45;&gt;Node10</title>
<path fill="none" stroke="#191970" d="M1124.4085,-112.3733C1148.2657,-103.2226 1184.3437,-89.3844 1210.8812,-79.2057"/>
<polygon fill="#191970" stroke="#191970" points="1212.4561,-82.3503 1220.5394,-75.5011 1209.9492,-75.8145 1212.4561,-82.3503"/>
</g>
<!-- Node11 -->
<g id="node12" class="node">
<title>Node11</title>
<polygon fill="#ffffff" stroke="#bfbfbf" points="1289.3102,-56.5 1289.3102,-75.5 1345.3102,-75.5 1345.3102,-56.5 1289.3102,-56.5"/>
<text text-anchor="middle" x="1317.3102" y="-63.5" font-family="Helvetica,sans-Serif" font-size="10.00" fill="#000000">algorithm</text>
</g>
<!-- Node9&#45;&gt;Node11 -->
<g id="edge14" class="edge">
<title>Node9&#45;&gt;Node11</title>
<path fill="none" stroke="#191970" d="M1137.4893,-112.4748C1172.0737,-103.8068 1224.6881,-90.522 1279.2035,-76.2653"/>
<polygon fill="#191970" stroke="#191970" points="1280.254,-79.6083 1289.0402,-73.6876 1278.4795,-72.8369 1280.254,-79.6083"/>
</g>
<!-- Node12 -->
<g id="node13" class="node">
<title>Node12</title>
<polygon fill="#ffffff" stroke="#bfbfbf" points="1464.8102,-56.5 1464.8102,-75.5 1563.8102,-75.5 1563.8102,-56.5 1464.8102,-56.5"/>
<text text-anchor="middle" x="1514.3102" y="-63.5" font-family="Helvetica,sans-Serif" font-size="10.00" fill="#000000">AMReX_BCRec.H</text>
</g>
<!-- Node9&#45;&gt;Node12 -->
<g id="edge16" class="edge">
<title>Node9&#45;&gt;Node12</title>
<path fill="none" stroke="#191970" d="M1155.8221,-115.3948C1224.0581,-107.2635 1342.5593,-92.6464 1454.6302,-76.052"/>
<polygon fill="#191970" stroke="#191970" points="1455.3827,-79.4786 1464.7583,-74.5442 1454.3519,-72.5549 1455.3827,-79.4786"/>
</g>
<!-- Node13 -->
<g id="node14" class="node">
<title>Node13</title>
<polygon fill="#ffffff" stroke="#bfbfbf" points="931.8102,-56.5 931.8102,-75.5 1016.8102,-75.5 1016.8102,-56.5 931.8102,-56.5"/>
<text text-anchor="middle" x="974.3102" y="-63.5" font-family="Helvetica,sans-Serif" font-size="10.00" fill="#000000">AMReX_Gpu.H</text>
</g>
<!-- Node9&#45;&gt;Node13 -->
<g id="edge17" class="edge">
<title>Node9&#45;&gt;Node13</title>
<path fill="none" stroke="#191970" d="M1077.8219,-112.3733C1057.6662,-103.3435 1027.3222,-89.7494 1004.6922,-79.6111"/>
<polygon fill="#191970" stroke="#191970" points="1006.0751,-76.3955 995.5181,-75.5011 1003.2131,-82.7838 1006.0751,-76.3955"/>
</g>
<!-- Node14 -->
<g id="node15" class="node">
<title>Node14</title>
<g id="a_node15"><a xlink:href="incflo__enums_8_h.html" target="_top" xlink:title="amr&#45;wind/incflo_enums.H">
<polygon fill="#ffffff" stroke="#000000" points="1035.3102,-56.5 1035.3102,-75.5 1163.3102,-75.5 1163.3102,-56.5 1035.3102,-56.5"/>
<text text-anchor="middle" x="1099.3102" y="-63.5" font-family="Helvetica,sans-Serif" font-size="10.00" fill="#000000">amr&#45;wind/incflo_enums.H</text>
</a>
</g>
</g>
<!-- Node9&#45;&gt;Node14 -->
<g id="edge18" class="edge">
<title>Node9&#45;&gt;Node14</title>
<path fill="none" stroke="#191970" d="M1099.3102,-112.2455C1099.3102,-104.9382 1099.3102,-94.6944 1099.3102,-85.7046"/>
<polygon fill="#191970" stroke="#191970" points="1102.8103,-85.6426 1099.3102,-75.6427 1095.8103,-85.6427 1102.8103,-85.6426"/>
</g>
<!-- Node15 -->
<g id="node16" class="node">
<title>Node15</title>
<g id="a_node16"><a xlink:href="_view_field_8_h.html" target="_top" xlink:title="amr&#45;wind/core/ViewField.H">
<polygon fill="#ffffff" stroke="#000000" points="627.3102,-56.5 627.3102,-75.5 761.3102,-75.5 761.3102,-56.5 627.3102,-56.5"/>
<text text-anchor="middle" x="694.3102" y="-63.5" font-family="Helvetica,sans-Serif" font-size="10.00" fill="#000000">amr&#45;wind/core/ViewField.H</text>
</a>
</g>
</g>
<!-- Node9&#45;&gt;Node15 -->
<g id="edge20" class="edge">
<title>Node9&#45;&gt;Node15</title>
<path fill="none" stroke="#191970" d="M1042.5703,-114.1545C971.7974,-104.3686 850.4931,-87.5957 771.3607,-76.6539"/>
<polygon fill="#191970" stroke="#191970" points="771.8312,-73.1857 761.446,-75.283 770.8723,-80.1198 771.8312,-73.1857"/>
</g>
<!-- Node15&#45;&gt;Node3 -->
<g id="edge21" class="edge">
<title>Node15&#45;&gt;Node3</title>
<path fill="none" stroke="#191970" d="M730.2386,-56.3733C770.4575,-45.5969 834.9385,-28.3197 872.8034,-18.1741"/>
<polygon fill="#191970" stroke="#191970" points="873.9818,-21.4819 882.7352,-15.5129 872.17,-14.7204 873.9818,-21.4819"/>
</g>
<!-- Node15&#45;&gt;Node5 -->
<g id="edge22" class="edge">
<title>Node15&#45;&gt;Node5</title>
<path fill="none" stroke="#191970" d="M640.0054,-56.4369C584.6675,-46.6918 498.8719,-31.5832 440.2763,-21.2645"/>
<polygon fill="#191970" stroke="#191970" points="440.8466,-17.8111 430.3911,-19.5237 439.6325,-24.705 440.8466,-17.8111"/>
</g>
<!-- Node15&#45;&gt;Node7 -->
<g id="edge23" class="edge">
<title>Node15&#45;&gt;Node7</title>
<path fill="none" stroke="#191970" d="M694.3102,-56.2455C694.3102,-48.9382 694.3102,-38.6944 694.3102,-29.7046"/>
<polygon fill="#191970" stroke="#191970" points="697.8103,-29.6426 694.3102,-19.6427 690.8103,-29.6427 697.8103,-29.6426"/>
</g>
<!-- Node16 -->
<g id="node17" class="node">
<title>Node16</title>
<polygon fill="#ffffff" stroke="#bfbfbf" points="493.8102,-.5 493.8102,-19.5 588.8102,-19.5 588.8102,-.5 493.8102,-.5"/>
<text text-anchor="middle" x="541.3102" y="-7.5" font-family="Helvetica,sans-Serif" font-size="10.00" fill="#000000">AMReX_Vector.H</text>
</g>
<!-- Node15&#45;&gt;Node16 -->
<g id="edge24" class="edge">
<title>Node15&#45;&gt;Node16</title>
<path fill="none" stroke="#191970" d="M668.0086,-56.3733C642.8974,-47.1822 604.8664,-33.2624 577.023,-23.0713"/>
<polygon fill="#191970" stroke="#191970" points="577.8624,-19.6516 567.2686,-19.5011 575.4564,-26.2251 577.8624,-19.6516"/>
</g>
<!-- Node17&#45;&gt;Node3 -->
<g id="edge26" class="edge">
<title>Node17&#45;&gt;Node3</title>
<path fill="none" stroke="#191970" d="M640.5608,-119.8242C717.8358,-115.9024 843.7982,-105.121 879.3102,-76 892.9835,-64.7874 898.8671,-45.0964 901.3986,-30.1321"/>
<polygon fill="#191970" stroke="#191970" points="904.9198,-30.2002 902.7546,-19.829 897.9796,-29.2867 904.9198,-30.2002"/>
</g>
<!-- Node17&#45;&gt;Node5 -->
<g id="edge27" class="edge">
<title>Node17&#45;&gt;Node5</title>
<path fill="none" stroke="#191970" d="M542.9184,-112.4613C517.2888,-104.7148 482.3637,-92.3897 454.3102,-76 431.0482,-62.4096 407.9343,-41.7152 392.98,-27.1292"/>
<polygon fill="#191970" stroke="#191970" points="395.1166,-24.3172 385.5624,-19.7381 390.1757,-29.2758 395.1166,-24.3172"/>
</g>
<!-- Node17&#45;&gt;Node18 -->
<g id="edge28" class="edge">
<title>Node17&#45;&gt;Node18</title>
<path fill="none" stroke="#191970" d="M567.6848,-112.2455C558.7629,-104.0549 545.8222,-92.1749 535.291,-82.5069"/>
<polygon fill="#191970" stroke="#191970" points="537.5473,-79.8271 527.8138,-75.6427 532.8134,-84.9837 537.5473,-79.8271"/>
</g>
<!-- Node19&#45;&gt;Node3 -->
<g id="edge30" class="edge">
<title>Node19&#45;&gt;Node3</title>
<path fill="none" stroke="#191970" d="M470.6557,-114.2974C571.1252,-103.5405 742.3451,-84.396 770.3102,-76 810.5483,-63.9192 853.4599,-40.4691 879.331,-25.0231"/>
<polygon fill="#191970" stroke="#191970" points="881.3207,-27.9098 888.0549,-19.7305 877.6898,-21.9251 881.3207,-27.9098"/>
</g>
<!-- Node19&#45;&gt;Node5 -->
<g id="edge31" class="edge">
<title>Node19&#45;&gt;Node5</title>
<path fill="none" stroke="#191970" d="M393.758,-112.2683C390.5357,-103.0515 385.9044,-88.7615 383.3102,-76 380.2211,-60.8039 378.4453,-43.3454 377.4558,-30.2026"/>
<polygon fill="#191970" stroke="#191970" points="380.9287,-29.6761 376.7753,-19.9293 373.944,-30.1387 380.9287,-29.6761"/>
</g>
<!-- Node19&#45;&gt;Node7 -->
<g id="edge33" class="edge">
<title>Node19&#45;&gt;Node7</title>
<path fill="none" stroke="#191970" d="M402.8642,-112.0994C411.7071,-97.3278 430.4512,-69.7847 454.3102,-56 483.8705,-38.9213 571.1177,-25.1359 631.8367,-17.253"/>
<polygon fill="#191970" stroke="#191970" points="632.6154,-20.6821 642.092,-15.9447 631.7295,-13.7384 632.6154,-20.6821"/>
</g>
<!-- Node19&#45;&gt;Node15 -->
<g id="edge32" class="edge">
<title>Node19&#45;&gt;Node15</title>
<path fill="none" stroke="#191970" d="M448.0289,-112.4369C499.4988,-102.7321 579.1805,-87.708 633.8886,-77.3926"/>
<polygon fill="#191970" stroke="#191970" points="634.6224,-80.816 643.8007,-75.5237 633.3254,-73.9372 634.6224,-80.816"/>
</g>
<!-- Node19&#45;&gt;Node16 -->
<g id="edge34" class="edge">
<title>Node19&#45;&gt;Node16</title>
<path fill="none" stroke="#191970" d="M324.0665,-114.9635C272.749,-108.3428 210.5482,-96.3293 194.3102,-76 188.7627,-69.0547 188.4517,-62.685 194.3102,-56 234.4958,-10.1453 405.8696,-28.0291 466.3102,-20 471.8444,-19.2648 477.6082,-18.4981 483.3728,-17.7307"/>
<polygon fill="#191970" stroke="#191970" points="484.2502,-21.1448 493.7005,-16.355 483.3259,-14.2061 484.2502,-21.1448"/>
</g>
<!-- Node20 -->
<g id="node21" class="node">
<title>Node20</title>
<polygon fill="#ffffff" stroke="#bfbfbf" points="203.3102,-56.5 203.3102,-75.5 331.3102,-75.5 331.3102,-56.5 203.3102,-56.5"/>
<text text-anchor="middle" x="267.3102" y="-63.5" font-family="Helvetica,sans-Serif" font-size="10.00" fill="#000000">AMReX_PhysBCFunct.H</text>
</g>
<!-- Node19&#45;&gt;Node20 -->
<g id="edge35" class="edge">
<title>Node19&#45;&gt;Node20</title>
<path fill="none" stroke="#191970" d="M374.9624,-112.3733C353.9069,-103.3032 322.1607,-89.6279 298.5927,-79.4755"/>
<polygon fill="#191970" stroke="#191970" points="299.9352,-76.243 289.3664,-75.5011 297.1658,-82.6719 299.9352,-76.243"/>
</g>
<!-- Node22&#45;&gt;Node12 -->
<g id="edge44" class="edge">
<title>Node22&#45;&gt;Node12</title>
<path fill="none" stroke="#191970" d="M1655.7077,-235.4016C1627.3771,-201.46 1558.7961,-119.2964 1528.7822,-83.3382"/>
<polygon fill="#191970" stroke="#191970" points="1531.4429,-81.0638 1522.3478,-75.6295 1526.0689,-85.5494 1531.4429,-81.0638"/>
</g>
<!-- Node23 -->
<g id="node24" class="node">
<title>Node23</title>
<g id="a_node24"><a xlink:href="volume__fractions_8_h.html" target="_top" xlink:title="amr&#45;wind/equation_systems\l/vof/volume_fractions.H">
<polygon fill="#ffffff" stroke="#000000" points="1696.8102,-168.5 1696.8102,-198.5 1835.8102,-198.5 1835.8102,-168.5 1696.8102,-168.5"/>
<text text-anchor="start" x="1704.8102" y="-186.5" font-family="Helvetica,sans-Serif" font-size="10.00" fill="#000000">amr&#45;wind/equation_systems</text>
<text text-anchor="middle" x="1766.3102" y="-175.5" font-family="Helvetica,sans-Serif" font-size="10.00" fill="#000000">/vof/volume_fractions.H</text>
</a>
</g>
</g>
<!-- Node22&#45;&gt;Node23 -->
<g id="edge40" class="edge">
<title>Node22&#45;&gt;Node23</title>
<path fill="none" stroke="#191970" d="M1690.5479,-235.2967C1703.9549,-226.1306 1721.2178,-214.3285 1735.8782,-204.3055"/>
<polygon fill="#191970" stroke="#191970" points="1737.8807,-207.1763 1744.1605,-198.6432 1733.93,-201.3977 1737.8807,-207.1763"/>
</g>
<!-- Node24 -->
<g id="node25" class="node">
<title>Node24</title>
<polygon fill="#ffffff" stroke="#bfbfbf" points="1684.8102,-112.5 1684.8102,-131.5 1797.8102,-131.5 1797.8102,-112.5 1684.8102,-112.5"/>
<text text-anchor="middle" x="1741.3102" y="-119.5" font-family="Helvetica,sans-Serif" font-size="10.00" fill="#000000">AMReX_FArrayBox.H</text>
</g>
<!-- Node22&#45;&gt;Node24 -->
<g id="edge43" class="edge">
<title>Node22&#45;&gt;Node24</title>
<path fill="none" stroke="#191970" d="M1669.2108,-235.4533C1670.8445,-218.069 1675.434,-189.1479 1688.3102,-168 1695.5374,-156.13 1706.846,-145.7056 1717.1642,-137.795"/>
<polygon fill="#191970" stroke="#191970" points="1719.4427,-140.4662 1725.4872,-131.7648 1715.3357,-134.7977 1719.4427,-140.4662"/>
</g>
<!-- Node25 -->
<g id="node26" class="node">
<title>Node25</title>
<polygon fill="#ffffff" stroke="#bfbfbf" points="1842.3102,-112.5 1842.3102,-131.5 1886.3102,-131.5 1886.3102,-112.5 1842.3102,-112.5"/>
<text text-anchor="middle" x="1864.3102" y="-119.5" font-family="Helvetica,sans-Serif" font-size="10.00" fill="#000000">cmath</text>
</g>
<!-- Node22&#45;&gt;Node25 -->
<g id="edge45" class="edge">
<title>Node22&#45;&gt;Node25</title>
<path fill="none" stroke="#191970" d="M1731.3794,-235.4181C1778.8425,-223.529 1837.0838,-207.5727 1845.3102,-199 1859.9343,-183.7602 1863.8546,-159.1369 1864.6479,-141.8474"/>
<polygon fill="#191970" stroke="#191970" points="1868.1494,-141.7682 1864.7987,-131.7171 1861.1502,-141.6639 1868.1494,-141.7682"/>
</g>
<!-- Node23&#45;&gt;Node24 -->
<g id="edge41" class="edge">
<title>Node23&#45;&gt;Node24</title>
<path fill="none" stroke="#191970" d="M1760.1304,-168.2977C1756.8048,-160.1166 1752.6691,-149.943 1749.1223,-141.2179"/>
<polygon fill="#191970" stroke="#191970" points="1752.3212,-139.7927 1745.313,-131.8469 1745.8365,-142.4288 1752.3212,-139.7927"/>
</g>
<!-- Node23&#45;&gt;Node25 -->
<g id="edge42" class="edge">
<title>Node23&#45;&gt;Node25</title>
<path fill="none" stroke="#191970" d="M1790.2837,-168.4554C1805.4878,-158.9141 1825.0861,-146.6151 1840.2977,-137.0691"/>
<polygon fill="#191970" stroke="#191970" points="1842.5139,-139.8105 1849.1237,-131.5303 1838.793,-133.8813 1842.5139,-139.8105"/>
</g>
</g>
</svg>
