<?xml version="1.0" encoding="UTF-8" standalone="no"?>
<!DOCTYPE svg PUBLIC "-//W3C//DTD SVG 1.1//EN"
 "http://www.w3.org/Graphics/SVG/1.1/DTD/svg11.dtd">
<!-- Generated by graphviz version 2.40.1 (20161225.0304)
 -->
<!-- Title: TKESource.H Pages: 1 -->
<!--zoomable 252 -->
<svg id="main" version="1.1" xmlns="http://www.w3.org/2000/svg" xmlns:xlink="http://www.w3.org/1999/xlink" xml:space="preserve" onload="init(evt)">
<style type="text/css"><![CDATA[
.edge:hover path { stroke: red; }
.edge:hover polygon { stroke: red; fill: red; }
]]></style>
<script type="text/javascript"><![CDATA[
var edges = document.getElementsByTagName('g');
if (edges && edges.length) {
  for (var i=0;i<edges.length;i++) {
    if (edges[i].id.substr(0,4)=='edge') {
      edges[i].setAttribute('class','edge');
    }
  }
}
]]></script>
        <defs>
                <circle id="rim" cx="0" cy="0" r="7"/>
                <circle id="rim2" cx="0" cy="0" r="3.5"/>
                <g id="zoomPlus">
                        <use xlink:href="#rim" fill="#404040">
                                <set attributeName="fill" to="#808080" begin="zoomplus.mouseover" end="zoomplus.mouseout"/>
                        </use>
                        <path d="M-4,0h8M0,-4v8" fill="none" stroke="white" stroke-width="1.5" pointer-events="none"/>
                </g>
                <g id="zoomMin">
                        <use xlink:href="#rim" fill="#404040">
                                <set attributeName="fill" to="#808080" begin="zoomminus.mouseover" end="zoomminus.mouseout"/>
                        </use>
                        <path d="M-4,0h8" fill="none" stroke="white" stroke-width="1.5" pointer-events="none"/>
                </g>
                <g id="dirArrow">
                        <path fill="none" stroke="white" stroke-width="1.5" d="M0,-3.0v7 M-2.5,-0.5L0,-3.0L2.5,-0.5"/>
                </g>
               <g id="resetDef">
                       <use xlink:href="#rim2" fill="#404040">
                               <set attributeName="fill" to="#808080" begin="reset.mouseover" end="reset.mouseout"/>
                       </use>
               </g>
        </defs>

<script type="text/javascript">
var viewWidth = 1981;
var viewHeight = 252;
var sectionId = 'dynsection-0';
</script>
<script xlink:href="svgpan.js"/>
<svg id="graph" class="graph">
<g id="viewport">
<title>TKESource.H</title>
<polygon fill="#ffffff" stroke="transparent" points="-4,4 -4,-248 1977.1721,-248 1977.1721,4 -4,4"/>
<!-- Node0 -->
<g id="node1" class="node">
<title>Node0</title>
<polygon fill="#bfbfbf" stroke="#000000" points="452.5,-224.5 452.5,-243.5 529.5,-243.5 529.5,-224.5 452.5,-224.5"/>
<text text-anchor="middle" x="491" y="-231.5" font-family="Helvetica,sans-Serif" font-size="10.00" fill="#000000">TKESource.H</text>
</g>
<!-- Node1 -->
<g id="node2" class="node">
<title>Node1</title>
<g id="a_node2"><a xlink:href="_factory_8_h.html" target="_top" xlink:title="amr&#45;wind/core/Factory.H">
<polygon fill="#ffffff" stroke="#000000" points="159.5,-112.5 159.5,-131.5 284.5,-131.5 284.5,-112.5 159.5,-112.5"/>
<text text-anchor="middle" x="222" y="-119.5" font-family="Helvetica,sans-Serif" font-size="10.00" fill="#000000">amr&#45;wind/core/Factory.H</text>
</a>
</g>
</g>
<!-- Node0&#45;&gt;Node1 -->
<g id="edge1" class="edge">
<title>Node0&#45;&gt;Node1</title>
<path fill="none" stroke="#191970" d="M452.3795,-226.8661C417.7712,-219.6636 366.1207,-206.888 324,-188 293.6557,-174.3928 261.9982,-152.5115 242.1553,-137.7095"/>
<polygon fill="#191970" stroke="#191970" points="244.2485,-134.9043 234.1648,-131.653 240.0201,-140.4829 244.2485,-134.9043"/>
</g>
<!-- Node7 -->
<g id="node8" class="node">
<title>Node7</title>
<g id="a_node8"><a xlink:href="_field_desc_types_8_h.html" target="_top" xlink:title="amr&#45;wind/core/FieldDescTypes.H">
<polygon fill="#ffffff" stroke="#000000" points="1325.5,-.5 1325.5,-19.5 1488.5,-19.5 1488.5,-.5 1325.5,-.5"/>
<text text-anchor="middle" x="1407" y="-7.5" font-family="Helvetica,sans-Serif" font-size="10.00" fill="#000000">amr&#45;wind/core/FieldDescTypes.H</text>
</a>
</g>
</g>
<!-- Node0&#45;&gt;Node7 -->
<g id="edge7" class="edge">
<title>Node0&#45;&gt;Node7</title>
<path fill="none" stroke="#191970" d="M529.5658,-230.3056C640.5746,-218.7028 969.031,-177.542 1221,-76 1240.1764,-68.272 1243.7755,-63.6075 1263,-56 1295.9626,-42.9561 1334.2301,-30.8707 1363.0276,-22.3638"/>
<polygon fill="#191970" stroke="#191970" points="1364.1785,-25.6739 1372.7945,-19.5083 1362.2142,-18.9552 1364.1785,-25.6739"/>
</g>
<!-- Node8 -->
<g id="node9" class="node">
<title>Node8</title>
<g id="a_node9"><a xlink:href="_field_utils_8_h.html" target="_top" xlink:title="amr&#45;wind/core/FieldUtils.H">
<polygon fill="#ffffff" stroke="#000000" points="424.5,-112.5 424.5,-131.5 557.5,-131.5 557.5,-112.5 424.5,-112.5"/>
<text text-anchor="middle" x="491" y="-119.5" font-family="Helvetica,sans-Serif" font-size="10.00" fill="#000000">amr&#45;wind/core/FieldUtils.H</text>
</a>
</g>
</g>
<!-- Node0&#45;&gt;Node8 -->
<g id="edge8" class="edge">
<title>Node0&#45;&gt;Node8</title>
<path fill="none" stroke="#191970" d="M491,-224.4509C491,-206.184 491,-165.9553 491,-141.6976"/>
<polygon fill="#191970" stroke="#191970" points="494.5001,-141.5249 491,-131.5249 487.5001,-141.5249 494.5001,-141.5249"/>
</g>
<!-- Node9 -->
<g id="node10" class="node">
<title>Node9</title>
<polygon fill="#ffffff" stroke="#bfbfbf" points="604,-.5 604,-19.5 708,-19.5 708,-.5 604,-.5"/>
<text text-anchor="middle" x="656" y="-7.5" font-family="Helvetica,sans-Serif" font-size="10.00" fill="#000000">AMReX_MultiFab.H</text>
</g>
<!-- Node0&#45;&gt;Node9 -->
<g id="edge46" class="edge">
<title>Node0&#45;&gt;Node9</title>
<path fill="none" stroke="#191970" d="M473.7855,-224.4081C426.9852,-197.1698 304.361,-117.3567 357,-56 372.2037,-38.2784 510.5675,-22.9804 593.6462,-15.2904"/>
<polygon fill="#191970" stroke="#191970" points="594.1001,-18.7636 603.7402,-14.3683 593.4632,-11.7926 594.1001,-18.7636"/>
</g>
<!-- Node11 -->
<g id="node12" class="node">
<title>Node11</title>
<g id="a_node12"><a xlink:href="_field_repo_8_h.html" target="_top" xlink:title="amr&#45;wind/core/FieldRepo.H">
<polygon fill="#ffffff" stroke="#000000" points="1131,-168.5 1131,-187.5 1267,-187.5 1267,-168.5 1131,-168.5"/>
<text text-anchor="middle" x="1199" y="-175.5" font-family="Helvetica,sans-Serif" font-size="10.00" fill="#000000">amr&#45;wind/core/FieldRepo.H</text>
</a>
</g>
</g>
<!-- Node0&#45;&gt;Node11 -->
<g id="edge12" class="edge">
<title>Node0&#45;&gt;Node11</title>
<path fill="none" stroke="#191970" d="M529.5213,-231.8149C627.6421,-226.1089 894.9331,-209.6871 1117,-188 1118.1062,-187.892 1119.2206,-187.7813 1120.3416,-187.6683"/>
<polygon fill="#191970" stroke="#191970" points="1120.9905,-191.1195 1130.5703,-186.5942 1120.2594,-184.1578 1120.9905,-191.1195"/>
</g>
<!-- Node2 -->
<g id="node3" class="node">
<title>Node2</title>
<polygon fill="#ffffff" stroke="#bfbfbf" points="258,-56.5 258,-75.5 310,-75.5 310,-56.5 258,-56.5"/>
<text text-anchor="middle" x="284" y="-63.5" font-family="Helvetica,sans-Serif" font-size="10.00" fill="#000000">memory</text>
</g>
<!-- Node1&#45;&gt;Node2 -->
<g id="edge2" class="edge">
<title>Node1&#45;&gt;Node2</title>
<path fill="none" stroke="#191970" d="M232.7996,-112.2455C241.8678,-104.0549 255.0206,-92.1749 265.7245,-82.5069"/>
<polygon fill="#191970" stroke="#191970" points="268.2491,-84.9429 273.3242,-75.6427 263.5571,-79.7482 268.2491,-84.9429"/>
</g>
<!-- Node3 -->
<g id="node4" class="node">
<title>Node3</title>
<polygon fill="#ffffff" stroke="#bfbfbf" points="614.5,-56.5 614.5,-75.5 697.5,-75.5 697.5,-56.5 614.5,-56.5"/>
<text text-anchor="middle" x="656" y="-63.5" font-family="Helvetica,sans-Serif" font-size="10.00" fill="#000000">unordered_map</text>
</g>
<!-- Node1&#45;&gt;Node3 -->
<g id="edge3" class="edge">
<title>Node1&#45;&gt;Node3</title>
<path fill="none" stroke="#191970" d="M284.6438,-113.9169C370.6869,-102.8146 523.8598,-83.0503 603.9468,-72.7165"/>
<polygon fill="#191970" stroke="#191970" points="604.8095,-76.1343 614.2793,-71.3833 603.9136,-69.1919 604.8095,-76.1343"/>
</g>
<!-- Node4 -->
<g id="node5" class="node">
<title>Node4</title>
<polygon fill="#ffffff" stroke="#bfbfbf" points="80,-56.5 80,-75.5 134,-75.5 134,-56.5 80,-56.5"/>
<text text-anchor="middle" x="107" y="-63.5" font-family="Helvetica,sans-Serif" font-size="10.00" fill="#000000">iostream</text>
</g>
<!-- Node1&#45;&gt;Node4 -->
<g id="edge4" class="edge">
<title>Node1&#45;&gt;Node4</title>
<path fill="none" stroke="#191970" d="M202.2308,-112.3733C183.8531,-103.4241 156.2688,-89.9917 135.5107,-79.8835"/>
<polygon fill="#191970" stroke="#191970" points="137.0343,-76.7325 126.5112,-75.5011 133.9696,-83.026 137.0343,-76.7325"/>
</g>
<!-- Node5 -->
<g id="node6" class="node">
<title>Node5</title>
<polygon fill="#ffffff" stroke="#bfbfbf" points="152.5,-56.5 152.5,-75.5 239.5,-75.5 239.5,-56.5 152.5,-56.5"/>
<text text-anchor="middle" x="196" y="-63.5" font-family="Helvetica,sans-Serif" font-size="10.00" fill="#000000">AMReX_Print.H</text>
</g>
<!-- Node1&#45;&gt;Node5 -->
<g id="edge5" class="edge">
<title>Node1&#45;&gt;Node5</title>
<path fill="none" stroke="#191970" d="M217.4711,-112.2455C213.9666,-104.6973 209.0073,-94.0158 204.7377,-84.8197"/>
<polygon fill="#191970" stroke="#191970" points="207.8627,-83.2389 200.477,-75.6427 201.5136,-86.1867 207.8627,-83.2389"/>
</g>
<!-- Node6 -->
<g id="node7" class="node">
<title>Node6</title>
<polygon fill="#ffffff" stroke="#bfbfbf" points="0,-56.5 0,-75.5 62,-75.5 62,-56.5 0,-56.5"/>
<text text-anchor="middle" x="31" y="-63.5" font-family="Helvetica,sans-Serif" font-size="10.00" fill="#000000">AMReX.H</text>
</g>
<!-- Node1&#45;&gt;Node6 -->
<g id="edge6" class="edge">
<title>Node1&#45;&gt;Node6</title>
<path fill="none" stroke="#191970" d="M189.1659,-112.3733C156.7422,-102.8668 107.0639,-88.3015 72.0503,-78.0357"/>
<polygon fill="#191970" stroke="#191970" points="72.7217,-74.5853 62.1408,-75.1303 70.7522,-81.3025 72.7217,-74.5853"/>
</g>
<!-- Node8&#45;&gt;Node7 -->
<g id="edge9" class="edge">
<title>Node8&#45;&gt;Node7</title>
<path fill="none" stroke="#191970" d="M503.0901,-112.3874C522.9847,-97.2015 564.4711,-68.1405 605,-56 671.446,-36.096 1118.9492,-19.3478 1315.1353,-12.8706"/>
<polygon fill="#191970" stroke="#191970" points="1315.5414,-16.3592 1325.4211,-12.5328 1315.3116,-9.363 1315.5414,-16.3592"/>
</g>
<!-- Node8&#45;&gt;Node9 -->
<g id="edge10" class="edge">
<title>Node8&#45;&gt;Node9</title>
<path fill="none" stroke="#191970" d="M495.0459,-112.0803C501.3487,-97.7852 514.8122,-71.4203 534,-56 553.5198,-40.3129 578.9522,-29.5936 601.5417,-22.478"/>
<polygon fill="#191970" stroke="#191970" points="602.7724,-25.7633 611.3551,-19.5513 600.7719,-19.0553 602.7724,-25.7633"/>
</g>
<!-- Node10 -->
<g id="node11" class="node">
<title>Node10</title>
<polygon fill="#ffffff" stroke="#bfbfbf" points="366,-56.5 366,-75.5 482,-75.5 482,-56.5 366,-56.5"/>
<text text-anchor="middle" x="424" y="-63.5" font-family="Helvetica,sans-Serif" font-size="10.00" fill="#000000">AMReX_Interpolater.H</text>
</g>
<!-- Node8&#45;&gt;Node10 -->
<g id="edge11" class="edge">
<title>Node8&#45;&gt;Node10</title>
<path fill="none" stroke="#191970" d="M479.3295,-112.2455C469.4339,-103.9746 455.0373,-91.9416 443.4099,-82.2232"/>
<polygon fill="#191970" stroke="#191970" points="445.4542,-79.3703 435.5368,-75.6427 440.965,-84.7413 445.4542,-79.3703"/>
</g>
<!-- Node11&#45;&gt;Node3 -->
<g id="edge14" class="edge">
<title>Node11&#45;&gt;Node3</title>
<path fill="none" stroke="#191970" d="M1132.6869,-168.4865C1076.4014,-160.0539 993.6087,-146.8057 922,-132 843.4255,-115.754 752.9479,-92.273 700.3431,-78.138"/>
<polygon fill="#191970" stroke="#191970" points="701.2238,-74.7505 690.6573,-75.5259 699.401,-81.5091 701.2238,-74.7505"/>
</g>
<!-- Node11&#45;&gt;Node7 -->
<g id="edge15" class="edge">
<title>Node11&#45;&gt;Node7</title>
<path fill="none" stroke="#191970" d="M1267.0494,-173.5148C1326.4516,-168.013 1406.178,-156.2417 1426,-132 1450.3045,-102.2764 1431.297,-54.4218 1417.6881,-28.359"/>
<polygon fill="#191970" stroke="#191970" points="1420.7173,-26.6037 1412.8383,-19.5204 1414.5804,-29.9711 1420.7173,-26.6037"/>
</g>
<!-- Node11&#45;&gt;Node8 -->
<g id="edge16" class="edge">
<title>Node11&#45;&gt;Node8</title>
<path fill="none" stroke="#191970" d="M1130.7118,-174.1026C1015.4101,-167.2729 774.8528,-151.9506 572,-132 570.6912,-131.8713 569.3709,-131.7388 568.0415,-131.6029"/>
<polygon fill="#191970" stroke="#191970" points="568.0307,-128.082 557.716,-130.5025 567.2888,-135.0426 568.0307,-128.082"/>
</g>
<!-- Node11&#45;&gt;Node9 -->
<g id="edge44" class="edge">
<title>Node11&#45;&gt;Node9</title>
<path fill="none" stroke="#191970" d="M1130.789,-171.4101C981.6443,-156.2895 637.2182,-117.2198 605,-76 591.4669,-58.6858 611.901,-38.706 630.7863,-25.3054"/>
<polygon fill="#191970" stroke="#191970" points="632.8712,-28.1214 639.2267,-19.6446 628.9721,-22.3079 632.8712,-28.1214"/>
</g>
<!-- Node12 -->
<g id="node13" class="node">
<title>Node12</title>
<polygon fill="#ffffff" stroke="#bfbfbf" points="1766.5,-.5 1766.5,-19.5 1807.5,-19.5 1807.5,-.5 1766.5,-.5"/>
<text text-anchor="middle" x="1787" y="-7.5" font-family="Helvetica,sans-Serif" font-size="10.00" fill="#000000">string</text>
</g>
<!-- Node11&#45;&gt;Node12 -->
<g id="edge13" class="edge">
<title>Node11&#45;&gt;Node12</title>
<path fill="none" stroke="#191970" d="M1267.008,-174.225C1446.9582,-163.5237 1924.8502,-130.2058 1969,-76 1974.6135,-69.1079 1974.4613,-63.0133 1969,-56 1950.6092,-32.3826 1864.9045,-18.9743 1817.9562,-13.284"/>
<polygon fill="#191970" stroke="#191970" points="1818.0786,-9.7746 1807.7407,-12.0935 1817.2683,-16.7276 1818.0786,-9.7746"/>
</g>
<!-- Node13 -->
<g id="node14" class="node">
<title>Node13</title>
<g id="a_node14"><a xlink:href="_field_8_h.html" target="_top" xlink:title="amr&#45;wind/core/Field.H">
<polygon fill="#ffffff" stroke="#000000" points="931.5,-112.5 931.5,-131.5 1044.5,-131.5 1044.5,-112.5 931.5,-112.5"/>
<text text-anchor="middle" x="988" y="-119.5" font-family="Helvetica,sans-Serif" font-size="10.00" fill="#000000">amr&#45;wind/core/Field.H</text>
</a>
</g>
</g>
<!-- Node11&#45;&gt;Node13 -->
<g id="edge17" class="edge">
<title>Node11&#45;&gt;Node13</title>
<path fill="none" stroke="#191970" d="M1162.7278,-168.3733C1127.0342,-158.9001 1072.4121,-144.4032 1033.7549,-134.1435"/>
<polygon fill="#191970" stroke="#191970" points="1034.3621,-130.6835 1023.7989,-131.5011 1032.5664,-137.4493 1034.3621,-130.6835"/>
</g>
<!-- Node20 -->
<g id="node21" class="node">
<title>Node20</title>
<g id="a_node21"><a xlink:href="_int_field_8_h.html" target="_top" xlink:title="amr&#45;wind/core/IntField.H">
<polygon fill="#ffffff" stroke="#000000" points="1293,-112.5 1293,-131.5 1417,-131.5 1417,-112.5 1293,-112.5"/>
<text text-anchor="middle" x="1355" y="-119.5" font-family="Helvetica,sans-Serif" font-size="10.00" fill="#000000">amr&#45;wind/core/IntField.H</text>
</a>
</g>
</g>
<!-- Node11&#45;&gt;Node20 -->
<g id="edge32" class="edge">
<title>Node11&#45;&gt;Node20</title>
<path fill="none" stroke="#191970" d="M1225.8174,-168.3733C1251.5332,-159.1419 1290.538,-145.1402 1318.9599,-134.9375"/>
<polygon fill="#191970" stroke="#191970" points="1320.3032,-138.174 1328.5326,-131.5011 1317.9381,-131.5857 1320.3032,-138.174"/>
</g>
<!-- Node21 -->
<g id="node22" class="node">
<title>Node21</title>
<polygon fill="#ffffff" stroke="#bfbfbf" points="1271.5,-56.5 1271.5,-75.5 1378.5,-75.5 1378.5,-56.5 1271.5,-56.5"/>
<text text-anchor="middle" x="1325" y="-63.5" font-family="Helvetica,sans-Serif" font-size="10.00" fill="#000000">AMReX_iMultiFab.H</text>
</g>
<!-- Node11&#45;&gt;Node21 -->
<g id="edge45" class="edge">
<title>Node11&#45;&gt;Node21</title>
<path fill="none" stroke="#191970" d="M1186.0802,-168.3835C1169.8509,-155.1302 1145.7535,-130.7615 1160,-112 1172.5439,-95.4807 1220.4108,-83.3058 1261.38,-75.6457"/>
<polygon fill="#191970" stroke="#191970" points="1262.132,-79.0665 1271.3497,-73.8431 1260.8865,-72.1782 1262.132,-79.0665"/>
</g>
<!-- Node22 -->
<g id="node23" class="node">
<title>Node22</title>
<g id="a_node23"><a xlink:href="_scratch_field_8_h.html" target="_top" xlink:title="amr&#45;wind/core/ScratchField.H">
<polygon fill="#ffffff" stroke="#000000" points="1543,-112.5 1543,-131.5 1689,-131.5 1689,-112.5 1543,-112.5"/>
<text text-anchor="middle" x="1616" y="-119.5" font-family="Helvetica,sans-Serif" font-size="10.00" fill="#000000">amr&#45;wind/core/ScratchField.H</text>
</a>
</g>
</g>
<!-- Node11&#45;&gt;Node22 -->
<g id="edge36" class="edge">
<title>Node11&#45;&gt;Node22</title>
<path fill="none" stroke="#191970" d="M1267.3921,-168.8154C1340.6967,-158.9712 1457.0058,-143.3517 1534.8791,-132.8939"/>
<polygon fill="#191970" stroke="#191970" points="1535.6832,-136.3175 1545.1283,-131.5175 1534.7514,-129.3797 1535.6832,-136.3175"/>
</g>
<!-- Node24 -->
<g id="node25" class="node">
<title>Node24</title>
<polygon fill="#ffffff" stroke="#bfbfbf" points="1169,-112.5 1169,-131.5 1275,-131.5 1275,-112.5 1169,-112.5"/>
<text text-anchor="middle" x="1222" y="-119.5" font-family="Helvetica,sans-Serif" font-size="10.00" fill="#000000">AMReX_AmrCore.H</text>
</g>
<!-- Node11&#45;&gt;Node24 -->
<g id="edge43" class="edge">
<title>Node11&#45;&gt;Node24</title>
<path fill="none" stroke="#191970" d="M1203.0063,-168.2455C1206.0735,-160.7776 1210.4003,-150.2427 1214.1497,-141.1137"/>
<polygon fill="#191970" stroke="#191970" points="1217.4779,-142.2226 1218.0396,-131.6427 1211.0028,-139.5631 1217.4779,-142.2226"/>
</g>
<!-- Node13&#45;&gt;Node2 -->
<g id="edge19" class="edge">
<title>Node13&#45;&gt;Node2</title>
<path fill="none" stroke="#191970" d="M931.3307,-119.0759C820.7183,-113.1014 568.3806,-98.1605 357,-76 345.1166,-74.7542 332.1866,-73.0862 320.5557,-71.47"/>
<polygon fill="#191970" stroke="#191970" points="320.6997,-67.9554 310.3068,-70.0138 319.715,-74.8858 320.6997,-67.9554"/>
</g>
<!-- Node13&#45;&gt;Node3 -->
<g id="edge20" class="edge">
<title>Node13&#45;&gt;Node3</title>
<path fill="none" stroke="#191970" d="M931.4079,-112.7643C875.5947,-103.6095 787.8735,-89.0968 712,-76 710.5402,-75.748 709.0592,-75.4912 707.5645,-75.2311"/>
<polygon fill="#191970" stroke="#191970" points="708.0347,-71.7602 697.5805,-73.4802 706.8256,-78.655 708.0347,-71.7602"/>
</g>
<!-- Node13&#45;&gt;Node7 -->
<g id="edge26" class="edge">
<title>Node13&#45;&gt;Node7</title>
<path fill="none" stroke="#191970" d="M1042.6363,-112.47C1082.8828,-104.6923 1138.621,-92.3246 1186,-76 1205.9275,-69.1339 1209.1586,-63.1108 1229,-56 1268.7902,-41.7399 1315.0457,-29.9238 1350.4299,-21.8391"/>
<polygon fill="#191970" stroke="#191970" points="1351.587,-25.1663 1360.574,-19.5552 1350.0494,-18.3372 1351.587,-25.1663"/>
</g>
<!-- Node13&#45;&gt;Node9 -->
<g id="edge22" class="edge">
<title>Node13&#45;&gt;Node9</title>
<path fill="none" stroke="#191970" d="M931.365,-118.4922C880.7152,-113.7013 805.3773,-102.4277 745,-76 717.2863,-63.8695 690.0352,-41.7354 673.1371,-26.4664"/>
<polygon fill="#191970" stroke="#191970" points="675.4324,-23.8217 665.7167,-19.5961 670.6767,-28.9582 675.4324,-23.8217"/>
</g>
<!-- Node13&#45;&gt;Node12 -->
<g id="edge18" class="edge">
<title>Node13&#45;&gt;Node12</title>
<path fill="none" stroke="#191970" d="M1044.7827,-118.6954C1209.4957,-109.0571 1676.77,-81.3227 1692,-76 1700.1402,-73.1551 1740.1179,-44.4206 1765.5496,-25.8155"/>
<polygon fill="#191970" stroke="#191970" points="1767.8704,-28.4538 1773.8625,-19.7162 1763.7294,-22.81 1767.8704,-28.4538"/>
</g>
<!-- Node14 -->
<g id="node15" class="node">
<title>Node14</title>
<polygon fill="#ffffff" stroke="#bfbfbf" points="754,-56.5 754,-75.5 810,-75.5 810,-56.5 754,-56.5"/>
<text text-anchor="middle" x="782" y="-63.5" font-family="Helvetica,sans-Serif" font-size="10.00" fill="#000000">algorithm</text>
</g>
<!-- Node13&#45;&gt;Node14 -->
<g id="edge21" class="edge">
<title>Node13&#45;&gt;Node14</title>
<path fill="none" stroke="#191970" d="M952.5873,-112.3733C915.6796,-102.3401 858.0428,-86.6718 820.1484,-76.3704"/>
<polygon fill="#191970" stroke="#191970" points="820.5854,-72.8623 810.0174,-73.6164 818.7491,-79.6171 820.5854,-72.8623"/>
</g>
<!-- Node15 -->
<g id="node16" class="node">
<title>Node15</title>
<polygon fill="#ffffff" stroke="#bfbfbf" points="828.5,-56.5 828.5,-75.5 927.5,-75.5 927.5,-56.5 828.5,-56.5"/>
<text text-anchor="middle" x="878" y="-63.5" font-family="Helvetica,sans-Serif" font-size="10.00" fill="#000000">AMReX_BCRec.H</text>
</g>
<!-- Node13&#45;&gt;Node15 -->
<g id="edge23" class="edge">
<title>Node13&#45;&gt;Node15</title>
<path fill="none" stroke="#191970" d="M968.8395,-112.2455C951.4889,-103.4125 925.7099,-90.2887 906.0417,-80.2758"/>
<polygon fill="#191970" stroke="#191970" points="907.4405,-77.0605 896.941,-75.6427 904.2647,-83.2986 907.4405,-77.0605"/>
</g>
<!-- Node16 -->
<g id="node17" class="node">
<title>Node16</title>
<polygon fill="#ffffff" stroke="#bfbfbf" points="945.5,-56.5 945.5,-75.5 1030.5,-75.5 1030.5,-56.5 945.5,-56.5"/>
<text text-anchor="middle" x="988" y="-63.5" font-family="Helvetica,sans-Serif" font-size="10.00" fill="#000000">AMReX_Gpu.H</text>
</g>
<!-- Node13&#45;&gt;Node16 -->
<g id="edge24" class="edge">
<title>Node13&#45;&gt;Node16</title>
<path fill="none" stroke="#191970" d="M988,-112.2455C988,-104.9382 988,-94.6944 988,-85.7046"/>
<polygon fill="#191970" stroke="#191970" points="991.5001,-85.6426 988,-75.6427 984.5001,-85.6427 991.5001,-85.6426"/>
</g>
<!-- Node17 -->
<g id="node18" class="node">
<title>Node17</title>
<g id="a_node18"><a xlink:href="incflo__enums_8_h.html" target="_top" xlink:title="amr&#45;wind/incflo_enums.H">
<polygon fill="#ffffff" stroke="#000000" points="1049,-56.5 1049,-75.5 1177,-75.5 1177,-56.5 1049,-56.5"/>
<text text-anchor="middle" x="1113" y="-63.5" font-family="Helvetica,sans-Serif" font-size="10.00" fill="#000000">amr&#45;wind/incflo_enums.H</text>
</a>
</g>
</g>
<!-- Node13&#45;&gt;Node17 -->
<g id="edge25" class="edge">
<title>Node13&#45;&gt;Node17</title>
<path fill="none" stroke="#191970" d="M1009.4883,-112.3733C1029.644,-103.3435 1059.988,-89.7494 1082.618,-79.6111"/>
<polygon fill="#191970" stroke="#191970" points="1084.0971,-82.7838 1091.7921,-75.5011 1081.2351,-76.3955 1084.0971,-82.7838"/>
</g>
<!-- Node18 -->
<g id="node19" class="node">
<title>Node18</title>
<g id="a_node19"><a xlink:href="_view_field_8_h.html" target="_top" xlink:title="amr&#45;wind/core/ViewField.H">
<polygon fill="#ffffff" stroke="#000000" points="1549,-56.5 1549,-75.5 1683,-75.5 1683,-56.5 1549,-56.5"/>
<text text-anchor="middle" x="1616" y="-63.5" font-family="Helvetica,sans-Serif" font-size="10.00" fill="#000000">amr&#45;wind/core/ViewField.H</text>
</a>
</g>
</g>
<!-- Node13&#45;&gt;Node18 -->
<g id="edge27" class="edge">
<title>Node13&#45;&gt;Node18</title>
<path fill="none" stroke="#191970" d="M1044.5607,-116.9564C1157.4293,-106.8917 1410.7459,-84.3029 1538.7847,-72.8854"/>
<polygon fill="#191970" stroke="#191970" points="1539.2565,-76.3573 1548.9061,-71.9829 1538.6347,-69.385 1539.2565,-76.3573"/>
</g>
<!-- Node18&#45;&gt;Node7 -->
<g id="edge29" class="edge">
<title>Node18&#45;&gt;Node7</title>
<path fill="none" stroke="#191970" d="M1580.0716,-56.3733C1544.7163,-46.9001 1490.612,-32.4032 1452.3212,-22.1435"/>
<polygon fill="#191970" stroke="#191970" points="1453.0247,-18.7086 1442.4595,-19.5011 1451.213,-25.4701 1453.0247,-18.7086"/>
</g>
<!-- Node18&#45;&gt;Node9 -->
<g id="edge30" class="edge">
<title>Node18&#45;&gt;Node9</title>
<path fill="none" stroke="#191970" d="M1548.9998,-60.0247C1532.0412,-58.6072 1513.8565,-57.169 1497,-56 1205.9691,-35.8169 857.7739,-19.1542 718.2708,-12.783"/>
<polygon fill="#191970" stroke="#191970" points="718.3427,-9.2827 708.1938,-12.3241 718.0242,-16.2755 718.3427,-9.2827"/>
</g>
<!-- Node18&#45;&gt;Node12 -->
<g id="edge28" class="edge">
<title>Node18&#45;&gt;Node12</title>
<path fill="none" stroke="#191970" d="M1645.3959,-56.3733C1676.4156,-46.2148 1725.0751,-30.2795 1756.5042,-19.9869"/>
<polygon fill="#191970" stroke="#191970" points="1757.6447,-23.2964 1766.0588,-16.8579 1755.4661,-16.644 1757.6447,-23.2964"/>
</g>
<!-- Node19 -->
<g id="node20" class="node">
<title>Node19</title>
<polygon fill="#ffffff" stroke="#bfbfbf" points="1610.5,-.5 1610.5,-19.5 1705.5,-19.5 1705.5,-.5 1610.5,-.5"/>
<text text-anchor="middle" x="1658" y="-7.5" font-family="Helvetica,sans-Serif" font-size="10.00" fill="#000000">AMReX_Vector.H</text>
</g>
<!-- Node18&#45;&gt;Node19 -->
<g id="edge31" class="edge">
<title>Node18&#45;&gt;Node19</title>
<path fill="none" stroke="#191970" d="M1623.3158,-56.2455C1629.2179,-48.3761 1637.6742,-37.101 1644.7594,-27.6542"/>
<polygon fill="#191970" stroke="#191970" points="1647.568,-29.7427 1650.768,-19.6427 1641.9679,-25.5427 1647.568,-29.7427"/>
</g>
<!-- Node20&#45;&gt;Node7 -->
<g id="edge34" class="edge">
<title>Node20&#45;&gt;Node7</title>
<path fill="none" stroke="#191970" d="M1363.3978,-112.3984C1370.7976,-103.5003 1381.3986,-89.6206 1388,-76 1395.1505,-61.2464 1400.101,-43.3013 1403.152,-29.8493"/>
<polygon fill="#191970" stroke="#191970" points="1406.6377,-30.2818 1405.2747,-19.775 1399.7881,-28.8385 1406.6377,-30.2818"/>
</g>
<!-- Node20&#45;&gt;Node12 -->
<g id="edge33" class="edge">
<title>Node20&#45;&gt;Node12</title>
<path fill="none" stroke="#191970" d="M1417.0865,-119.3612C1508.0835,-114.6446 1672.5588,-102.6492 1725,-76 1746.5573,-65.0452 1764.5919,-43.4285 1775.5547,-27.9166"/>
<polygon fill="#191970" stroke="#191970" points="1778.4652,-29.8606 1781.1654,-19.6156 1772.6657,-25.9406 1778.4652,-29.8606"/>
</g>
<!-- Node20&#45;&gt;Node21 -->
<g id="edge35" class="edge">
<title>Node20&#45;&gt;Node21</title>
<path fill="none" stroke="#191970" d="M1349.7744,-112.2455C1345.6877,-104.617 1339.8865,-93.7881 1334.925,-84.5267"/>
<polygon fill="#191970" stroke="#191970" points="1337.9732,-82.8047 1330.1657,-75.6427 1331.8028,-86.1103 1337.9732,-82.8047"/>
</g>
<!-- Node22&#45;&gt;Node7 -->
<g id="edge38" class="edge">
<title>Node22&#45;&gt;Node7</title>
<path fill="none" stroke="#191970" d="M1599.1511,-112.4192C1576.1821,-99.4126 1533.6976,-75.5477 1497,-56 1476.484,-45.0717 1453.1018,-33.1363 1435.313,-24.1621"/>
<polygon fill="#191970" stroke="#191970" points="1436.5657,-20.8744 1426.0595,-19.5064 1433.4195,-27.1275 1436.5657,-20.8744"/>
</g>
<!-- Node22&#45;&gt;Node9 -->
<g id="edge40" class="edge">
<title>Node22&#45;&gt;Node9</title>
<path fill="none" stroke="#191970" d="M1590.1074,-112.4804C1548.2672,-97.5612 1462.9042,-69.0326 1388,-56 1260.0032,-33.7299 870.9561,-17.7354 718.3607,-12.162"/>
<polygon fill="#191970" stroke="#191970" points="718.343,-8.6592 708.2227,-11.7944 718.0892,-15.6546 718.343,-8.6592"/>
</g>
<!-- Node22&#45;&gt;Node12 -->
<g id="edge37" class="edge">
<title>Node22&#45;&gt;Node12</title>
<path fill="none" stroke="#191970" d="M1689.3394,-117.0198C1782.976,-109.902 1934.9934,-95.4935 1952,-76 1991.4294,-30.8047 1875.8276,-16.1908 1817.9116,-11.7747"/>
<polygon fill="#191970" stroke="#191970" points="1818.0404,-8.2752 1807.8191,-11.0638 1817.5484,-15.2579 1818.0404,-8.2752"/>
</g>
<!-- Node22&#45;&gt;Node18 -->
<g id="edge39" class="edge">
<title>Node22&#45;&gt;Node18</title>
<path fill="none" stroke="#191970" d="M1616,-112.2455C1616,-104.9382 1616,-94.6944 1616,-85.7046"/>
<polygon fill="#191970" stroke="#191970" points="1619.5001,-85.6426 1616,-75.6427 1612.5001,-85.6427 1619.5001,-85.6426"/>
</g>
<!-- Node22&#45;&gt;Node19 -->
<g id="edge41" class="edge">
<title>Node22&#45;&gt;Node19</title>
<path fill="none" stroke="#191970" d="M1645.5685,-112.3976C1662.4108,-105.2338 1682.0794,-93.6009 1692,-76 1701.3114,-59.48 1688.6904,-40.1493 1676.2709,-26.6949"/>
<polygon fill="#191970" stroke="#191970" points="1678.6772,-24.1509 1669.1491,-19.5179 1673.7084,-29.0815 1678.6772,-24.1509"/>
</g>
<!-- Node23 -->
<g id="node24" class="node">
<title>Node23</title>
<polygon fill="#ffffff" stroke="#bfbfbf" points="1815,-56.5 1815,-75.5 1943,-75.5 1943,-56.5 1815,-56.5"/>
<text text-anchor="middle" x="1879" y="-63.5" font-family="Helvetica,sans-Serif" font-size="10.00" fill="#000000">AMReX_PhysBCFunct.H</text>
</g>
<!-- Node22&#45;&gt;Node23 -->
<g id="edge42" class="edge">
<title>Node22&#45;&gt;Node23</title>
<path fill="none" stroke="#191970" d="M1660.9125,-112.4369C1706.112,-102.8127 1775.8807,-87.957 1824.2847,-77.6504"/>
<polygon fill="#191970" stroke="#191970" points="1825.221,-81.0296 1834.2728,-75.5237 1823.7631,-74.1831 1825.221,-81.0296"/>
</g>
</g>
</svg>
        <g id="navigator" transform="translate(0 0)" fill="#404254">
                <rect fill="#f2f5e9" fill-opacity="0.5" stroke="#606060" stroke-width=".5" x="0" y="0" width="60" height="60"/>
                <use id="zoomplus" xlink:href="#zoomPlus" x="17" y="9" onmousedown="handleZoom(evt,'in')"/>
                <use id="zoomminus" xlink:href="#zoomMin" x="42" y="9" onmousedown="handleZoom(evt,'out')"/>
                <use id="reset" xlink:href="#resetDef" x="30" y="36" onmousedown="handleReset()"/>
                <g id="arrowUp" xlink:href="#dirArrow" transform="translate(30 24)" onmousedown="handlePan(0,-1)">
                  <use xlink:href="#rim" fill="#404040">
                        <set attributeName="fill" to="#808080" begin="arrowUp.mouseover" end="arrowUp.mouseout"/>
                  </use>
                  <path fill="none" stroke="white" stroke-width="1.5" d="M0,-3.0v7 M-2.5,-0.5L0,-3.0L2.5,-0.5"/>
                </g>
                <g id="arrowRight" xlink:href="#dirArrow" transform="rotate(90) translate(36 -43)" onmousedown="handlePan(1,0)">
                  <use xlink:href="#rim" fill="#404040">
                        <set attributeName="fill" to="#808080" begin="arrowRight.mouseover" end="arrowRight.mouseout"/>
                  </use>
                  <path fill="none" stroke="white" stroke-width="1.5" d="M0,-3.0v7 M-2.5,-0.5L0,-3.0L2.5,-0.5"/>
                </g>
                <g id="arrowDown" xlink:href="#dirArrow" transform="rotate(180) translate(-30 -48)" onmousedown="handlePan(0,1)">
                  <use xlink:href="#rim" fill="#404040">
                        <set attributeName="fill" to="#808080" begin="arrowDown.mouseover" end="arrowDown.mouseout"/>
                  </use>
                  <path fill="none" stroke="white" stroke-width="1.5" d="M0,-3.0v7 M-2.5,-0.5L0,-3.0L2.5,-0.5"/>
                </g>
                <g id="arrowLeft" xlink:href="#dirArrow" transform="rotate(270) translate(-36 17)" onmousedown="handlePan(-1,0)">
                  <use xlink:href="#rim" fill="#404040">
                        <set attributeName="fill" to="#808080" begin="arrowLeft.mouseover" end="arrowLeft.mouseout"/>
                  </use>
                  <path fill="none" stroke="white" stroke-width="1.5" d="M0,-3.0v7 M-2.5,-0.5L0,-3.0L2.5,-0.5"/>
                </g>
        </g>
        <svg viewBox="0 0 15 15" width="100%" height="30px" preserveAspectRatio="xMaxYMin meet">
         <g id="arrow_out" transform="scale(0.3 0.3)">
          <a xlink:href="_t_k_e_source_8_h__incl_org.svg" target="_base">
           <rect id="button" ry="5" rx="5" y="6" x="6" height="38" width="38"
                fill="#f2f5e9" fill-opacity="0.5" stroke="#606060" stroke-width="1.0"/>
           <path id="arrow"
             d="M 11.500037,31.436501 C 11.940474,20.09759 22.043105,11.32322 32.158766,21.979434 L 37.068811,17.246167 C 37.068811,17.246167 37.088388,32 37.088388,32 L 22.160133,31.978069 C 22.160133,31.978069 26.997745,27.140456 26.997745,27.140456 C 18.528582,18.264221 13.291696,25.230495 11.500037,31.436501 z"
             style="fill:#404040;"/>
          </a>
         </g>
        </svg>
</svg>
