<?xml version="1.0" encoding="UTF-8" standalone="no"?>
<!DOCTYPE svg PUBLIC "-//W3C//DTD SVG 1.1//EN"
 "http://www.w3.org/Graphics/SVG/1.1/DTD/svg11.dtd">
<!-- Generated by graphviz version 2.40.1 (20161225.0304)
 -->
<!-- Title: TKE.H Pages: 1 -->
<svg width="2979pt" height="486pt"
 viewBox="0.00 0.00 2979.14 486.00" xmlns="http://www.w3.org/2000/svg" xmlns:xlink="http://www.w3.org/1999/xlink">
<g id="graph0" class="graph" transform="scale(1 1) rotate(0) translate(4 482)">
<title>TKE.H</title>
<polygon fill="#ffffff" stroke="transparent" points="-4,4 -4,-482 2975.1366,-482 2975.1366,4 -4,4"/>
<!-- Node0 -->
<g id="node1" class="node">
<title>Node0</title>
<polygon fill="#bfbfbf" stroke="#000000" points="1285.1366,-458.5 1285.1366,-477.5 1332.1366,-477.5 1332.1366,-458.5 1285.1366,-458.5"/>
<text text-anchor="middle" x="1308.6366" y="-465.5" font-family="Helvetica,sans-Serif" font-size="10.00" fill="#000000">TKE.H</text>
</g>
<!-- Node1 -->
<g id="node2" class="node">
<title>Node1</title>
<g id="a_node2"><a xlink:href="_p_d_e_traits_8_h.html" target="_top" xlink:title="amr&#45;wind/equation_systems\l/PDETraits.H">
<polygon fill="#ffffff" stroke="#000000" points="1166.1366,-257.5 1166.1366,-287.5 1305.1366,-287.5 1305.1366,-257.5 1166.1366,-257.5"/>
<text text-anchor="start" x="1174.1366" y="-275.5" font-family="Helvetica,sans-Serif" font-size="10.00" fill="#000000">amr&#45;wind/equation_systems</text>
<text text-anchor="middle" x="1235.6366" y="-264.5" font-family="Helvetica,sans-Serif" font-size="10.00" fill="#000000">/PDETraits.H</text>
</a>
</g>
</g>
<!-- Node0&#45;&gt;Node1 -->
<g id="edge1" class="edge">
<title>Node0&#45;&gt;Node1</title>
<path fill="none" stroke="#191970" d="M1305.0165,-458.3051C1294.0699,-428.9892 1261.0761,-340.6292 1244.8498,-297.1737"/>
<polygon fill="#191970" stroke="#191970" points="1248.0676,-295.7856 1241.2906,-287.6418 1241.5099,-298.2343 1248.0676,-295.7856"/>
</g>
<!-- Node2 -->
<g id="node3" class="node">
<title>Node2</title>
<g id="a_node3"><a xlink:href="_scheme_traits_8_h.html" target="_top" xlink:title="amr&#45;wind/equation_systems\l/SchemeTraits.H">
<polygon fill="#ffffff" stroke="#000000" points="29.1366,-257.5 29.1366,-287.5 168.1366,-287.5 168.1366,-257.5 29.1366,-257.5"/>
<text text-anchor="start" x="37.1366" y="-275.5" font-family="Helvetica,sans-Serif" font-size="10.00" fill="#000000">amr&#45;wind/equation_systems</text>
<text text-anchor="middle" x="98.6366" y="-264.5" font-family="Helvetica,sans-Serif" font-size="10.00" fill="#000000">/SchemeTraits.H</text>
</a>
</g>
</g>
<!-- Node0&#45;&gt;Node2 -->
<g id="edge2" class="edge">
<title>Node0&#45;&gt;Node2</title>
<path fill="none" stroke="#191970" d="M1285.0143,-467.8232C1117.0314,-466.3257 107.4333,-453.2564 19.6366,-355 .1427,-333.1837 29.3553,-309.1128 57.6095,-292.6316"/>
<polygon fill="#191970" stroke="#191970" points="59.664,-295.493 66.6863,-287.5597 56.2494,-289.3823 59.664,-295.493"/>
</g>
<!-- Node4 -->
<g id="node5" class="node">
<title>Node4</title>
<g id="a_node5"><a xlink:href="_p_d_e_helpers_8_h.html" target="_top" xlink:title="amr&#45;wind/equation_systems\l/PDEHelpers.H">
<polygon fill="#ffffff" stroke="#000000" points="1251.1366,-190.5 1251.1366,-220.5 1390.1366,-220.5 1390.1366,-190.5 1251.1366,-190.5"/>
<text text-anchor="start" x="1259.1366" y="-208.5" font-family="Helvetica,sans-Serif" font-size="10.00" fill="#000000">amr&#45;wind/equation_systems</text>
<text text-anchor="middle" x="1320.6366" y="-197.5" font-family="Helvetica,sans-Serif" font-size="10.00" fill="#000000">/PDEHelpers.H</text>
</a>
</g>
</g>
<!-- Node0&#45;&gt;Node4 -->
<g id="edge4" class="edge">
<title>Node0&#45;&gt;Node4</title>
<path fill="none" stroke="#191970" d="M1309.0779,-458.3462C1310.7706,-421.3184 1316.8823,-287.6255 1319.4681,-231.0599"/>
<polygon fill="#191970" stroke="#191970" points="1322.9755,-230.9761 1319.936,-220.8267 1315.9828,-230.6564 1322.9755,-230.9761"/>
</g>
<!-- Node35 -->
<g id="node32" class="node">
<title>Node35</title>
<g id="a_node32"><a xlink:href="_p_d_e_8_h.html" target="_top" xlink:title="amr&#45;wind/equation_systems\l/PDE.H">
<polygon fill="#ffffff" stroke="#000000" points="623.1366,-391.5 623.1366,-421.5 762.1366,-421.5 762.1366,-391.5 623.1366,-391.5"/>
<text text-anchor="start" x="631.1366" y="-409.5" font-family="Helvetica,sans-Serif" font-size="10.00" fill="#000000">amr&#45;wind/equation_systems</text>
<text text-anchor="middle" x="692.6366" y="-398.5" font-family="Helvetica,sans-Serif" font-size="10.00" fill="#000000">/PDE.H</text>
</a>
</g>
</g>
<!-- Node0&#45;&gt;Node35 -->
<g id="edge57" class="edge">
<title>Node0&#45;&gt;Node35</title>
<path fill="none" stroke="#191970" d="M1284.8661,-465.6268C1200.6319,-457.2171 913.8645,-428.5869 772.5997,-414.4833"/>
<polygon fill="#191970" stroke="#191970" points="772.5713,-410.9632 762.273,-413.4523 771.8758,-417.9285 772.5713,-410.9632"/>
</g>
<!-- Node57 -->
<g id="node49" class="node">
<title>Node57</title>
<g id="a_node49"><a xlink:href="field__ops_8_h.html" target="_top" xlink:title="amr&#45;wind/core/field\l_ops.H">
<polygon fill="#ffffff" stroke="#000000" points="2651.1366,-123.5 2651.1366,-153.5 2750.1366,-153.5 2750.1366,-123.5 2651.1366,-123.5"/>
<text text-anchor="start" x="2659.1366" y="-141.5" font-family="Helvetica,sans-Serif" font-size="10.00" fill="#000000">amr&#45;wind/core/field</text>
<text text-anchor="middle" x="2700.6366" y="-130.5" font-family="Helvetica,sans-Serif" font-size="10.00" fill="#000000">_ops.H</text>
</a>
</g>
</g>
<!-- Node0&#45;&gt;Node57 -->
<g id="edge113" class="edge">
<title>Node0&#45;&gt;Node57</title>
<path fill="none" stroke="#191970" d="M1332.1855,-466.8251C1502.786,-458.1632 2542.6366,-402.7721 2542.6366,-339.5 2542.6366,-339.5 2542.6366,-339.5 2542.6366,-272.5 2542.6366,-215.8013 2602.5478,-178.1197 2648.586,-157.5337"/>
<polygon fill="#191970" stroke="#191970" points="2650.0857,-160.6986 2657.8795,-153.5218 2647.3113,-154.2719 2650.0857,-160.6986"/>
</g>
<!-- Node58 -->
<g id="node50" class="node">
<title>Node58</title>
<g id="a_node50"><a xlink:href="_t_k_e_source_8_h.html" target="_top" xlink:title="amr&#45;wind/equation_systems\l/tke/TKESource.H">
<polygon fill="#ffffff" stroke="#000000" points="1933.1366,-190.5 1933.1366,-220.5 2072.1366,-220.5 2072.1366,-190.5 1933.1366,-190.5"/>
<text text-anchor="start" x="1941.1366" y="-208.5" font-family="Helvetica,sans-Serif" font-size="10.00" fill="#000000">amr&#45;wind/equation_systems</text>
<text text-anchor="middle" x="2002.6366" y="-197.5" font-family="Helvetica,sans-Serif" font-size="10.00" fill="#000000">/tke/TKESource.H</text>
</a>
</g>
</g>
<!-- Node0&#45;&gt;Node58 -->
<g id="edge116" class="edge">
<title>Node0&#45;&gt;Node58</title>
<path fill="none" stroke="#191970" d="M1332.5257,-458.9642C1432.1467,-421.2833 1815.6924,-276.2102 1953.2123,-224.1943"/>
<polygon fill="#191970" stroke="#191970" points="1954.5663,-227.4243 1962.6813,-220.6128 1952.0897,-220.877 1954.5663,-227.4243"/>
</g>
<!-- Node3 -->
<g id="node4" class="node">
<title>Node3</title>
<polygon fill="#ffffff" stroke="#bfbfbf" points="594.1366,-.5 594.1366,-19.5 635.1366,-19.5 635.1366,-.5 594.1366,-.5"/>
<text text-anchor="middle" x="614.6366" y="-7.5" font-family="Helvetica,sans-Serif" font-size="10.00" fill="#000000">string</text>
</g>
<!-- Node2&#45;&gt;Node3 -->
<g id="edge3" class="edge">
<title>Node2&#45;&gt;Node3</title>
<path fill="none" stroke="#191970" d="M99.4076,-257.3168C102.3478,-216.9732 116.3701,-106.7308 182.6366,-56 190.6369,-49.8753 486.4161,-21.9122 583.857,-12.8463"/>
<polygon fill="#191970" stroke="#191970" points="584.3202,-16.3185 593.9536,-11.9086 583.6728,-9.3485 584.3202,-16.3185"/>
</g>
<!-- Node4&#45;&gt;Node3 -->
<g id="edge5" class="edge">
<title>Node4&#45;&gt;Node3</title>
<path fill="none" stroke="#191970" d="M1250.8835,-196.1009C1234.4188,-193.9903 1216.9186,-191.8347 1200.6366,-190 1034.6963,-171.3016 989.7807,-189.6347 826.6366,-154 815.5481,-151.578 641.2838,-95.387 633.6366,-87 619.4057,-71.3924 615.4074,-46.842 614.4884,-29.6702"/>
<polygon fill="#191970" stroke="#191970" points="617.9863,-29.5345 614.2525,-19.6194 610.9882,-29.6988 617.9863,-29.5345"/>
</g>
<!-- Node5 -->
<g id="node6" class="node">
<title>Node5</title>
<g id="a_node6"><a xlink:href="_p_d_e_fields_8_h.html" target="_top" xlink:title="amr&#45;wind/equation_systems\l/PDEFields.H">
<polygon fill="#ffffff" stroke="#000000" points="263.1366,-56.5 263.1366,-86.5 402.1366,-86.5 402.1366,-56.5 263.1366,-56.5"/>
<text text-anchor="start" x="271.1366" y="-74.5" font-family="Helvetica,sans-Serif" font-size="10.00" fill="#000000">amr&#45;wind/equation_systems</text>
<text text-anchor="middle" x="332.6366" y="-63.5" font-family="Helvetica,sans-Serif" font-size="10.00" fill="#000000">/PDEFields.H</text>
</a>
</g>
</g>
<!-- Node4&#45;&gt;Node5 -->
<g id="edge6" class="edge">
<title>Node4&#45;&gt;Node5</title>
<path fill="none" stroke="#191970" d="M1250.9404,-195.535C1234.4734,-193.4477 1216.9578,-191.4445 1200.6366,-190 1034.8699,-175.3291 610.3295,-207.1675 452.6366,-154 415.2976,-141.4108 378.9442,-113.5707 356.2167,-93.7164"/>
<polygon fill="#191970" stroke="#191970" points="358.2722,-90.8593 348.4834,-86.806 353.608,-96.079 358.2722,-90.8593"/>
</g>
<!-- Node7 -->
<g id="node8" class="node">
<title>Node7</title>
<g id="a_node8"><a xlink:href="_sim_time_8_h.html" target="_top" xlink:title="amr&#45;wind/core/SimTime.H">
<polygon fill="#ffffff" stroke="#000000" points="2765.1366,-62 2765.1366,-81 2896.1366,-81 2896.1366,-62 2765.1366,-62"/>
<text text-anchor="middle" x="2830.6366" y="-69" font-family="Helvetica,sans-Serif" font-size="10.00" fill="#000000">amr&#45;wind/core/SimTime.H</text>
</a>
</g>
</g>
<!-- Node4&#45;&gt;Node7 -->
<g id="edge8" class="edge">
<title>Node4&#45;&gt;Node7</title>
<path fill="none" stroke="#191970" d="M1390.2712,-203.598C1681.3387,-195.5838 2786.1914,-164.497 2800.6366,-154 2820.4247,-139.6205 2827.1925,-110.8432 2829.4881,-91.3738"/>
<polygon fill="#191970" stroke="#191970" points="2832.9963,-91.4339 2830.3876,-81.1653 2826.0233,-90.8195 2832.9963,-91.4339"/>
</g>
<!-- Node11 -->
<g id="node12" class="node">
<title>Node11</title>
<g id="a_node12"><a xlink:href="_field_repo_8_h.html" target="_top" xlink:title="amr&#45;wind/core/FieldRepo.H">
<polygon fill="#ffffff" stroke="#000000" points="1252.6366,-129 1252.6366,-148 1388.6366,-148 1388.6366,-129 1252.6366,-129"/>
<text text-anchor="middle" x="1320.6366" y="-136" font-family="Helvetica,sans-Serif" font-size="10.00" fill="#000000">amr&#45;wind/core/FieldRepo.H</text>
</a>
</g>
</g>
<!-- Node4&#45;&gt;Node11 -->
<g id="edge12" class="edge">
<title>Node4&#45;&gt;Node11</title>
<path fill="none" stroke="#191970" d="M1320.6366,-190.2967C1320.6366,-180.7699 1320.6366,-168.3954 1320.6366,-158.1306"/>
<polygon fill="#191970" stroke="#191970" points="1324.1367,-158.0549 1320.6366,-148.055 1317.1367,-158.055 1324.1367,-158.0549"/>
</g>
<!-- Node30 -->
<g id="node27" class="node">
<title>Node30</title>
<g id="a_node27"><a xlink:href="_field_fill_patch_ops_8_h.html" target="_top" xlink:title="amr&#45;wind/core/FieldFillPatch\lOps.H">
<polygon fill="#ffffff" stroke="#000000" points="2376.6366,-123.5 2376.6366,-153.5 2516.6366,-153.5 2516.6366,-123.5 2376.6366,-123.5"/>
<text text-anchor="start" x="2384.6366" y="-141.5" font-family="Helvetica,sans-Serif" font-size="10.00" fill="#000000">amr&#45;wind/core/FieldFillPatch</text>
<text text-anchor="middle" x="2446.6366" y="-130.5" font-family="Helvetica,sans-Serif" font-size="10.00" fill="#000000">Ops.H</text>
</a>
</g>
</g>
<!-- Node4&#45;&gt;Node30 -->
<g id="edge40" class="edge">
<title>Node4&#45;&gt;Node30</title>
<path fill="none" stroke="#191970" d="M1390.2232,-201.3594C1588.4775,-189.5628 2155.4903,-155.824 2366.3643,-143.2764"/>
<polygon fill="#191970" stroke="#191970" points="2366.6607,-146.7651 2376.4351,-142.6772 2366.2449,-139.7774 2366.6607,-146.7651"/>
</g>
<!-- Node32 -->
<g id="node29" class="node">
<title>Node32</title>
<g id="a_node29"><a xlink:href="_field_b_c_ops_8_h.html" target="_top" xlink:title="amr&#45;wind/core/FieldBCOps.H">
<polygon fill="#ffffff" stroke="#000000" points="1660.1366,-129 1660.1366,-148 1805.1366,-148 1805.1366,-129 1660.1366,-129"/>
<text text-anchor="middle" x="1732.6366" y="-136" font-family="Helvetica,sans-Serif" font-size="10.00" fill="#000000">amr&#45;wind/core/FieldBCOps.H</text>
</a>
</g>
</g>
<!-- Node4&#45;&gt;Node32 -->
<g id="edge50" class="edge">
<title>Node4&#45;&gt;Node32</title>
<path fill="none" stroke="#191970" d="M1390.5268,-194.1344C1466.8781,-181.718 1588.3821,-161.9589 1664.1675,-149.6345"/>
<polygon fill="#191970" stroke="#191970" points="1664.7822,-153.0806 1674.0907,-148.0208 1663.6585,-146.1714 1664.7822,-153.0806"/>
</g>
<!-- Node6 -->
<g id="node7" class="node">
<title>Node6</title>
<polygon fill="#ffffff" stroke="#bfbfbf" points="306.1366,-.5 306.1366,-19.5 351.1366,-19.5 351.1366,-.5 306.1366,-.5"/>
<text text-anchor="middle" x="328.6366" y="-7.5" font-family="Helvetica,sans-Serif" font-size="10.00" fill="#000000">iosfwd</text>
</g>
<!-- Node5&#45;&gt;Node6 -->
<g id="edge7" class="edge">
<title>Node5&#45;&gt;Node6</title>
<path fill="none" stroke="#191970" d="M331.6478,-56.2977C331.1331,-48.3834 330.497,-38.6043 329.9424,-30.0759"/>
<polygon fill="#191970" stroke="#191970" points="333.4188,-29.5986 329.2771,-19.8469 326.4336,-30.053 333.4188,-29.5986"/>
</g>
<!-- Node8 -->
<g id="node9" class="node">
<title>Node8</title>
<polygon fill="#ffffff" stroke="#bfbfbf" points="2878.1366,-.5 2878.1366,-19.5 2971.1366,-19.5 2971.1366,-.5 2878.1366,-.5"/>
<text text-anchor="middle" x="2924.6366" y="-7.5" font-family="Helvetica,sans-Serif" font-size="10.00" fill="#000000">AMReX_REAL.H</text>
</g>
<!-- Node7&#45;&gt;Node8 -->
<g id="edge9" class="edge">
<title>Node7&#45;&gt;Node8</title>
<path fill="none" stroke="#191970" d="M2845.3241,-61.8906C2860.3622,-52.0519 2883.9542,-36.6167 2901.5033,-25.1351"/>
<polygon fill="#191970" stroke="#191970" points="2903.6003,-27.9457 2910.0522,-19.5419 2899.7679,-22.088 2903.6003,-27.9457"/>
</g>
<!-- Node9 -->
<g id="node10" class="node">
<title>Node9</title>
<polygon fill="#ffffff" stroke="#bfbfbf" points="2733.6366,-.5 2733.6366,-19.5 2859.6366,-19.5 2859.6366,-.5 2733.6366,-.5"/>
<text text-anchor="middle" x="2796.6366" y="-7.5" font-family="Helvetica,sans-Serif" font-size="10.00" fill="#000000">AMReX_GpuQualifiers.H</text>
</g>
<!-- Node7&#45;&gt;Node9 -->
<g id="edge10" class="edge">
<title>Node7&#45;&gt;Node9</title>
<path fill="none" stroke="#191970" d="M2825.3241,-61.8906C2820.4127,-53.0068 2812.9787,-39.5601 2806.9091,-28.5811"/>
<polygon fill="#191970" stroke="#191970" points="2809.9254,-26.8031 2802.024,-19.7449 2803.7993,-30.1899 2809.9254,-26.8031"/>
</g>
<!-- Node10 -->
<g id="node11" class="node">
<title>Node10</title>
<polygon fill="#ffffff" stroke="#bfbfbf" points="2605.6366,-.5 2605.6366,-19.5 2715.6366,-19.5 2715.6366,-.5 2605.6366,-.5"/>
<text text-anchor="middle" x="2660.6366" y="-7.5" font-family="Helvetica,sans-Serif" font-size="10.00" fill="#000000">AMReX_Extension.H</text>
</g>
<!-- Node7&#45;&gt;Node10 -->
<g id="edge11" class="edge">
<title>Node7&#45;&gt;Node10</title>
<path fill="none" stroke="#191970" d="M2804.0741,-61.8906C2775.131,-51.42 2728.6672,-34.6111 2696.501,-22.9745"/>
<polygon fill="#191970" stroke="#191970" points="2697.6068,-19.6526 2687.0126,-19.5419 2695.2255,-26.2351 2697.6068,-19.6526"/>
</g>
<!-- Node11&#45;&gt;Node3 -->
<g id="edge13" class="edge">
<title>Node11&#45;&gt;Node3</title>
<path fill="none" stroke="#191970" d="M1252.2462,-130.0856C1211.0484,-122.9187 1158.6136,-109.9715 1116.6366,-87 1098.9839,-77.3397 1101.9615,-64.3148 1083.6366,-56 1063.6213,-46.9182 746.6589,-20.6642 645.4465,-12.4719"/>
<polygon fill="#191970" stroke="#191970" points="645.5162,-8.9662 635.267,-11.6501 644.9529,-15.9435 645.5162,-8.9662"/>
</g>
<!-- Node12 -->
<g id="node13" class="node">
<title>Node12</title>
<polygon fill="#ffffff" stroke="#bfbfbf" points="757.1366,-.5 757.1366,-19.5 840.1366,-19.5 840.1366,-.5 757.1366,-.5"/>
<text text-anchor="middle" x="798.6366" y="-7.5" font-family="Helvetica,sans-Serif" font-size="10.00" fill="#000000">unordered_map</text>
</g>
<!-- Node11&#45;&gt;Node12 -->
<g id="edge14" class="edge">
<title>Node11&#45;&gt;Node12</title>
<path fill="none" stroke="#191970" d="M1278.5367,-128.9198C1245.201,-120.4276 1198.0236,-106.3601 1159.6366,-87 1138.6008,-76.3908 1138.515,-64.7406 1116.6366,-56 1006.6684,-12.0669 969.5561,-38.7868 852.6366,-20 851.8776,-19.878 851.1129,-19.7539 850.3435,-19.6277"/>
<polygon fill="#191970" stroke="#191970" points="850.6164,-16.1239 840.1711,-17.8976 849.4427,-23.0248 850.6164,-16.1239"/>
</g>
<!-- Node13 -->
<g id="node14" class="node">
<title>Node13</title>
<g id="a_node14"><a xlink:href="_field_desc_types_8_h.html" target="_top" xlink:title="amr&#45;wind/core/FieldDescTypes.H">
<polygon fill="#ffffff" stroke="#000000" points="1703.1366,-.5 1703.1366,-19.5 1866.1366,-19.5 1866.1366,-.5 1703.1366,-.5"/>
<text text-anchor="middle" x="1784.6366" y="-7.5" font-family="Helvetica,sans-Serif" font-size="10.00" fill="#000000">amr&#45;wind/core/FieldDescTypes.H</text>
</a>
</g>
</g>
<!-- Node11&#45;&gt;Node13 -->
<g id="edge15" class="edge">
<title>Node11&#45;&gt;Node13</title>
<path fill="none" stroke="#191970" d="M1388.9487,-129.8275C1434.0514,-122.3938 1493.6436,-109.2498 1542.6366,-87 1564.0879,-77.2581 1564.1815,-65.7335 1585.6366,-56 1622.385,-39.3284 1665.7861,-28.3889 1702.6633,-21.3797"/>
<polygon fill="#191970" stroke="#191970" points="1703.6763,-24.7524 1712.8806,-19.5055 1702.4132,-17.8673 1703.6763,-24.7524"/>
</g>
<!-- Node14 -->
<g id="node15" class="node">
<title>Node14</title>
<g id="a_node15"><a xlink:href="_field_utils_8_h.html" target="_top" xlink:title="amr&#45;wind/core/FieldUtils.H">
<polygon fill="#ffffff" stroke="#ff0000" points="2247.1366,-62 2247.1366,-81 2380.1366,-81 2380.1366,-62 2247.1366,-62"/>
<text text-anchor="middle" x="2313.6366" y="-69" font-family="Helvetica,sans-Serif" font-size="10.00" fill="#000000">amr&#45;wind/core/FieldUtils.H</text>
</a>
</g>
</g>
<!-- Node11&#45;&gt;Node14 -->
<g id="edge16" class="edge">
<title>Node11&#45;&gt;Node14</title>
<path fill="none" stroke="#191970" d="M1388.8352,-135.2611C1532.0958,-128.2511 1874.7826,-110.3991 2161.6366,-87 2186.1578,-84.9998 2212.8629,-82.4143 2236.9507,-79.9303"/>
<polygon fill="#191970" stroke="#191970" points="2237.5159,-83.3904 2247.0998,-78.8739 2236.7912,-76.4281 2237.5159,-83.3904"/>
</g>
<!-- Node15 -->
<g id="node16" class="node">
<title>Node15</title>
<polygon fill="#ffffff" stroke="#bfbfbf" points="2261.6366,-.5 2261.6366,-19.5 2365.6366,-19.5 2365.6366,-.5 2261.6366,-.5"/>
<text text-anchor="middle" x="2313.6366" y="-7.5" font-family="Helvetica,sans-Serif" font-size="10.00" fill="#000000">AMReX_MultiFab.H</text>
</g>
<!-- Node11&#45;&gt;Node15 -->
<g id="edge38" class="edge">
<title>Node11&#45;&gt;Node15</title>
<path fill="none" stroke="#191970" d="M1388.8475,-135.3157C1528.6961,-128.3927 1843.5861,-110.6714 1948.6366,-87 1986.6454,-78.4353 1992.9953,-66.0578 2030.6366,-56 2124.0922,-31.0285 2152.1853,-35.7386 2251.2559,-20.1927"/>
<polygon fill="#191970" stroke="#191970" points="2252.0728,-23.6066 2261.3942,-18.5704 2250.9667,-16.6945 2252.0728,-23.6066"/>
</g>
<!-- Node17 -->
<g id="node17" class="node">
<title>Node17</title>
<g id="a_node17"><a xlink:href="_field_8_h.html" target="_top" xlink:title="amr&#45;wind/core/Field.H">
<polygon fill="#ffffff" stroke="#ff0000" points="1349.1366,-62 1349.1366,-81 1462.1366,-81 1462.1366,-62 1349.1366,-62"/>
<text text-anchor="middle" x="1405.6366" y="-69" font-family="Helvetica,sans-Serif" font-size="10.00" fill="#000000">amr&#45;wind/core/Field.H</text>
</a>
</g>
</g>
<!-- Node11&#45;&gt;Node17 -->
<g id="edge19" class="edge">
<title>Node11&#45;&gt;Node17</title>
<path fill="none" stroke="#191970" d="M1332.815,-128.9005C1346.575,-118.0544 1369.1831,-100.2339 1385.5628,-87.3229"/>
<polygon fill="#191970" stroke="#191970" points="1387.7939,-90.0209 1393.4808,-81.0817 1383.4605,-84.5234 1387.7939,-90.0209"/>
</g>
<!-- Node25 -->
<g id="node22" class="node">
<title>Node25</title>
<g id="a_node22"><a xlink:href="_int_field_8_h.html" target="_top" xlink:title="amr&#45;wind/core/IntField.H">
<polygon fill="#ffffff" stroke="#000000" points="1168.6366,-62 1168.6366,-81 1292.6366,-81 1292.6366,-62 1168.6366,-62"/>
<text text-anchor="middle" x="1230.6366" y="-69" font-family="Helvetica,sans-Serif" font-size="10.00" fill="#000000">amr&#45;wind/core/IntField.H</text>
</a>
</g>
</g>
<!-- Node11&#45;&gt;Node25 -->
<g id="edge28" class="edge">
<title>Node11&#45;&gt;Node25</title>
<path fill="none" stroke="#191970" d="M1307.7418,-128.9005C1293.1724,-118.0544 1269.2344,-100.2339 1251.8912,-87.3229"/>
<polygon fill="#191970" stroke="#191970" points="1253.6189,-84.2457 1243.5075,-81.0817 1249.4388,-89.8606 1253.6189,-84.2457"/>
</g>
<!-- Node26 -->
<g id="node23" class="node">
<title>Node26</title>
<polygon fill="#ffffff" stroke="#bfbfbf" points="1214.1366,-.5 1214.1366,-19.5 1321.1366,-19.5 1321.1366,-.5 1214.1366,-.5"/>
<text text-anchor="middle" x="1267.6366" y="-7.5" font-family="Helvetica,sans-Serif" font-size="10.00" fill="#000000">AMReX_iMultiFab.H</text>
</g>
<!-- Node11&#45;&gt;Node26 -->
<g id="edge39" class="edge">
<title>Node11&#45;&gt;Node26</title>
<path fill="none" stroke="#191970" d="M1319.716,-128.9384C1317.9184,-113.1317 1313.0686,-80.833 1301.6366,-56 1296.9517,-45.8234 1289.7933,-35.683 1283.2511,-27.5232"/>
<polygon fill="#191970" stroke="#191970" points="1285.8951,-25.229 1276.7861,-19.8182 1280.5327,-29.7285 1285.8951,-25.229"/>
</g>
<!-- Node27 -->
<g id="node24" class="node">
<title>Node27</title>
<g id="a_node24"><a xlink:href="_scratch_field_8_h.html" target="_top" xlink:title="amr&#45;wind/core/ScratchField.H">
<polygon fill="#ffffff" stroke="#ff0000" points="1760.6366,-62 1760.6366,-81 1906.6366,-81 1906.6366,-62 1760.6366,-62"/>
<text text-anchor="middle" x="1833.6366" y="-69" font-family="Helvetica,sans-Serif" font-size="10.00" fill="#000000">amr&#45;wind/core/ScratchField.H</text>
</a>
</g>
</g>
<!-- Node11&#45;&gt;Node27 -->
<g id="edge32" class="edge">
<title>Node11&#45;&gt;Node27</title>
<path fill="none" stroke="#191970" d="M1388.759,-129.6029C1482.1703,-117.403 1649.8679,-95.501 1750.5419,-82.3525"/>
<polygon fill="#191970" stroke="#191970" points="1751.209,-85.7952 1760.6715,-81.0296 1750.3024,-78.8542 1751.209,-85.7952"/>
</g>
<!-- Node29 -->
<g id="node26" class="node">
<title>Node29</title>
<polygon fill="#ffffff" stroke="#bfbfbf" points="968.6366,-62 968.6366,-81 1074.6366,-81 1074.6366,-62 968.6366,-62"/>
<text text-anchor="middle" x="1021.6366" y="-69" font-family="Helvetica,sans-Serif" font-size="10.00" fill="#000000">AMReX_AmrCore.H</text>
</g>
<!-- Node11&#45;&gt;Node29 -->
<g id="edge37" class="edge">
<title>Node11&#45;&gt;Node29</title>
<path fill="none" stroke="#191970" d="M1276.9962,-128.934C1230.3451,-118.6797 1154.2239,-101.8659 1088.6366,-87 1083.3969,-85.8124 1077.929,-84.5633 1072.4751,-83.3112"/>
<polygon fill="#191970" stroke="#191970" points="1073.2558,-79.8994 1062.7255,-81.0665 1071.6852,-86.721 1073.2558,-79.8994"/>
</g>
<!-- Node14&#45;&gt;Node13 -->
<g id="edge17" class="edge">
<title>Node14&#45;&gt;Node13</title>
<path fill="none" stroke="#191970" d="M2267.4927,-61.9529C2256.1293,-59.8002 2243.9694,-57.6629 2232.6366,-56 2109.7938,-37.9746 1966.9715,-24.6119 1876.223,-17.0631"/>
<polygon fill="#191970" stroke="#191970" points="1876.4947,-13.5738 1866.2406,-16.2388 1875.9185,-20.55 1876.4947,-13.5738"/>
</g>
<!-- Node14&#45;&gt;Node15 -->
<g id="edge18" class="edge">
<title>Node14&#45;&gt;Node15</title>
<path fill="none" stroke="#191970" d="M2313.6366,-61.8906C2313.6366,-53.3657 2313.6366,-40.6392 2313.6366,-29.9235"/>
<polygon fill="#191970" stroke="#191970" points="2317.1367,-29.7448 2313.6366,-19.7449 2310.1367,-29.7449 2317.1367,-29.7448"/>
</g>
<!-- Node17&#45;&gt;Node3 -->
<g id="edge20" class="edge">
<title>Node17&#45;&gt;Node3</title>
<path fill="none" stroke="#191970" d="M1349.0716,-62.1978C1333.7142,-59.9107 1317.0656,-57.6482 1301.6366,-56 1056.291,-29.7913 993.7744,-37.2501 747.6366,-20 712.5625,-17.5419 672.3048,-14.4816 645.3522,-12.3984"/>
<polygon fill="#191970" stroke="#191970" points="645.6061,-8.9076 635.3654,-11.6241 645.0649,-15.8867 645.6061,-8.9076"/>
</g>
<!-- Node17&#45;&gt;Node12 -->
<g id="edge22" class="edge">
<title>Node17&#45;&gt;Node12</title>
<path fill="none" stroke="#191970" d="M1349.0543,-62.3538C1333.6969,-60.0664 1317.0527,-57.7647 1301.6366,-56 1102.7396,-33.2314 1051.1026,-46.2617 852.6366,-20 851.8745,-19.8992 851.1069,-19.7948 850.3348,-19.6871"/>
<polygon fill="#191970" stroke="#191970" points="850.5503,-16.1796 840.1368,-18.1314 849.4946,-23.0995 850.5503,-16.1796"/>
</g>
<!-- Node17&#45;&gt;Node13 -->
<g id="edge27" class="edge">
<title>Node17&#45;&gt;Node13</title>
<path fill="none" stroke="#191970" d="M1447.216,-61.9366C1456.851,-59.8558 1467.0815,-57.7545 1476.6366,-56 1552.4466,-42.0798 1639.3396,-29.3979 1701.4611,-20.8921"/>
<polygon fill="#191970" stroke="#191970" points="1702.1635,-24.3288 1711.5995,-19.5108 1701.2185,-17.3928 1702.1635,-24.3288"/>
</g>
<!-- Node17&#45;&gt;Node15 -->
<g id="edge24" class="edge">
<title>Node17&#45;&gt;Node15</title>
<path fill="none" stroke="#191970" d="M1462.3488,-66.1488C1497.7693,-62.9227 1544.3351,-58.8921 1585.6366,-56 1878.4614,-35.4952 1955.7686,-51.6882 2251.2895,-20.0357"/>
<polygon fill="#191970" stroke="#191970" points="2251.878,-23.4926 2261.4441,-18.9386 2251.126,-16.5331 2251.878,-23.4926"/>
</g>
<!-- Node18 -->
<g id="node18" class="node">
<title>Node18</title>
<polygon fill="#ffffff" stroke="#bfbfbf" points="861.6366,-.5 861.6366,-19.5 913.6366,-19.5 913.6366,-.5 861.6366,-.5"/>
<text text-anchor="middle" x="887.6366" y="-7.5" font-family="Helvetica,sans-Serif" font-size="10.00" fill="#000000">memory</text>
</g>
<!-- Node17&#45;&gt;Node18 -->
<g id="edge21" class="edge">
<title>Node17&#45;&gt;Node18</title>
<path fill="none" stroke="#191970" d="M1349.0157,-62.6698C1333.6584,-60.3817 1317.0238,-58.0008 1301.6366,-56 1162.4842,-37.9062 996.4295,-20.8138 924.1992,-13.5999"/>
<polygon fill="#191970" stroke="#191970" points="924.131,-10.0759 913.8335,-12.5682 923.4376,-17.0415 924.131,-10.0759"/>
</g>
<!-- Node19 -->
<g id="node19" class="node">
<title>Node19</title>
<polygon fill="#ffffff" stroke="#bfbfbf" points="1377.6366,-.5 1377.6366,-19.5 1433.6366,-19.5 1433.6366,-.5 1377.6366,-.5"/>
<text text-anchor="middle" x="1405.6366" y="-7.5" font-family="Helvetica,sans-Serif" font-size="10.00" fill="#000000">algorithm</text>
</g>
<!-- Node17&#45;&gt;Node19 -->
<g id="edge23" class="edge">
<title>Node17&#45;&gt;Node19</title>
<path fill="none" stroke="#191970" d="M1405.6366,-61.8906C1405.6366,-53.3657 1405.6366,-40.6392 1405.6366,-29.9235"/>
<polygon fill="#191970" stroke="#191970" points="1409.1367,-29.7448 1405.6366,-19.7449 1402.1367,-29.7449 1409.1367,-29.7448"/>
</g>
<!-- Node21 -->
<g id="node20" class="node">
<title>Node21</title>
<polygon fill="#ffffff" stroke="#bfbfbf" points="1502.1366,-.5 1502.1366,-19.5 1587.1366,-19.5 1587.1366,-.5 1502.1366,-.5"/>
<text text-anchor="middle" x="1544.6366" y="-7.5" font-family="Helvetica,sans-Serif" font-size="10.00" fill="#000000">AMReX_Gpu.H</text>
</g>
<!-- Node17&#45;&gt;Node21 -->
<g id="edge25" class="edge">
<title>Node17&#45;&gt;Node21</title>
<path fill="none" stroke="#191970" d="M1427.3554,-61.8906C1450.5106,-51.6457 1487.3807,-35.3326 1513.5957,-23.7339"/>
<polygon fill="#191970" stroke="#191970" points="1515.3416,-26.7888 1523.0704,-19.5419 1512.5093,-20.3874 1515.3416,-26.7888"/>
</g>
<!-- Node22 -->
<g id="node21" class="node">
<title>Node22</title>
<g id="a_node21"><a xlink:href="incflo__enums_8_h.html" target="_top" xlink:title="amr&#45;wind/incflo_enums.H">
<polygon fill="#ffffff" stroke="#000000" points="369.6366,-.5 369.6366,-19.5 497.6366,-19.5 497.6366,-.5 369.6366,-.5"/>
<text text-anchor="middle" x="433.6366" y="-7.5" font-family="Helvetica,sans-Serif" font-size="10.00" fill="#000000">amr&#45;wind/incflo_enums.H</text>
</a>
</g>
</g>
<!-- Node17&#45;&gt;Node22 -->
<g id="edge26" class="edge">
<title>Node17&#45;&gt;Node22</title>
<path fill="none" stroke="#191970" d="M1349.0872,-62.0457C1333.7298,-59.7589 1317.0773,-57.5345 1301.6366,-56 984.1327,-24.4453 903.1654,-38.5427 584.6366,-20 559.7361,-18.5505 532.5374,-16.8007 508.1695,-15.1729"/>
<polygon fill="#191970" stroke="#191970" points="508.1266,-11.6622 497.9144,-14.4839 507.6573,-18.6464 508.1266,-11.6622"/>
</g>
<!-- Node25&#45;&gt;Node3 -->
<g id="edge29" class="edge">
<title>Node25&#45;&gt;Node3</title>
<path fill="none" stroke="#191970" d="M1168.5743,-62.56C1151.7403,-60.2721 1133.5055,-57.9187 1116.6366,-56 938.4924,-35.7372 723.9867,-18.4466 645.4,-12.3475"/>
<polygon fill="#191970" stroke="#191970" points="645.471,-8.8426 635.2311,-11.562 644.9318,-15.8218 645.471,-8.8426"/>
</g>
<!-- Node25&#45;&gt;Node13 -->
<g id="edge30" class="edge">
<title>Node25&#45;&gt;Node13</title>
<path fill="none" stroke="#191970" d="M1292.83,-62.33C1308.4243,-60.1427 1325.1304,-57.8951 1340.6366,-56 1462.2949,-41.1316 1603.0943,-27.0777 1692.9514,-18.5066"/>
<polygon fill="#191970" stroke="#191970" points="1693.486,-21.9717 1703.1096,-17.5404 1692.8231,-15.0031 1693.486,-21.9717"/>
</g>
<!-- Node25&#45;&gt;Node26 -->
<g id="edge31" class="edge">
<title>Node25&#45;&gt;Node26</title>
<path fill="none" stroke="#191970" d="M1236.4179,-61.8906C1241.7626,-53.0068 1249.8525,-39.5601 1256.4577,-28.5811"/>
<polygon fill="#191970" stroke="#191970" points="1259.6177,-30.118 1261.7738,-19.7449 1253.6195,-26.5093 1259.6177,-30.118"/>
</g>
<!-- Node27&#45;&gt;Node3 -->
<g id="edge33" class="edge">
<title>Node27&#45;&gt;Node3</title>
<path fill="none" stroke="#191970" d="M1768.3579,-61.9696C1750.6379,-59.6829 1731.4308,-57.4777 1713.6366,-56 1285.479,-20.4446 1176.5909,-44.1104 747.6366,-20 712.5319,-18.0269 672.2798,-14.8763 645.337,-12.6392"/>
<polygon fill="#191970" stroke="#191970" points="645.6119,-9.15 635.3542,-11.8015 645.0265,-16.1255 645.6119,-9.15"/>
</g>
<!-- Node27&#45;&gt;Node13 -->
<g id="edge34" class="edge">
<title>Node27&#45;&gt;Node13</title>
<path fill="none" stroke="#191970" d="M1825.9804,-61.8906C1818.6877,-52.7376 1807.5359,-38.7409 1798.6514,-27.59"/>
<polygon fill="#191970" stroke="#191970" points="1801.3697,-25.3849 1792.4008,-19.7449 1795.8949,-29.747 1801.3697,-25.3849"/>
</g>
<!-- Node27&#45;&gt;Node15 -->
<g id="edge35" class="edge">
<title>Node27&#45;&gt;Node15</title>
<path fill="none" stroke="#191970" d="M1883.6884,-61.9799C1895.7607,-59.8507 1908.6387,-57.7172 1920.6366,-56 2064.2598,-35.4437 2103.809,-39.7995 2251.0955,-20.1453"/>
<polygon fill="#191970" stroke="#191970" points="2251.9792,-23.5578 2261.4213,-18.7519 2251.043,-16.6207 2251.9792,-23.5578"/>
</g>
<!-- Node28 -->
<g id="node25" class="node">
<title>Node28</title>
<polygon fill="#ffffff" stroke="#bfbfbf" points="2115.6366,-.5 2115.6366,-19.5 2243.6366,-19.5 2243.6366,-.5 2115.6366,-.5"/>
<text text-anchor="middle" x="2179.6366" y="-7.5" font-family="Helvetica,sans-Serif" font-size="10.00" fill="#000000">AMReX_PhysBCFunct.H</text>
</g>
<!-- Node27&#45;&gt;Node28 -->
<g id="edge36" class="edge">
<title>Node27&#45;&gt;Node28</title>
<path fill="none" stroke="#191970" d="M1887.0072,-61.9868C1898.1212,-60.007 1909.7611,-57.9346 1920.6366,-56 1987.2382,-44.1527 2063.4782,-30.6149 2115.9049,-21.3093"/>
<polygon fill="#191970" stroke="#191970" points="2116.8284,-24.7002 2126.0628,-19.5064 2115.605,-17.8079 2116.8284,-24.7002"/>
</g>
<!-- Node30&#45;&gt;Node7 -->
<g id="edge42" class="edge">
<title>Node30&#45;&gt;Node7</title>
<path fill="none" stroke="#191970" d="M2516.7502,-127.1036C2578.4188,-116.965 2670.5801,-101.5345 2750.6366,-87 2757.7182,-85.7143 2765.1447,-84.3275 2772.4992,-82.9305"/>
<polygon fill="#191970" stroke="#191970" points="2773.2803,-86.3446 2782.4444,-81.0277 2771.9649,-79.4693 2773.2803,-86.3446"/>
</g>
<!-- Node30&#45;&gt;Node8 -->
<g id="edge47" class="edge">
<title>Node30&#45;&gt;Node8</title>
<path fill="none" stroke="#191970" d="M2502.8749,-123.3816C2598.6613,-97.6314 2791.5964,-45.765 2879.3432,-22.1761"/>
<polygon fill="#191970" stroke="#191970" points="2880.5102,-25.4868 2889.2587,-19.5106 2878.6929,-18.7268 2880.5102,-25.4868"/>
</g>
<!-- Node30&#45;&gt;Node13 -->
<g id="edge43" class="edge">
<title>Node30&#45;&gt;Node13</title>
<path fill="none" stroke="#191970" d="M2440.925,-123.1703C2432.7997,-103.7728 2415.9086,-71.0787 2389.6366,-56 2346.3071,-31.1312 2034.9545,-17.8592 1876.6126,-12.6533"/>
<polygon fill="#191970" stroke="#191970" points="1876.517,-9.1485 1866.4087,-12.322 1876.2898,-16.1448 1876.517,-9.1485"/>
</g>
<!-- Node30&#45;&gt;Node14 -->
<g id="edge44" class="edge">
<title>Node30&#45;&gt;Node14</title>
<path fill="none" stroke="#191970" d="M2416.7888,-123.4639C2394.3726,-112.1715 2363.876,-96.8086 2341.8628,-85.7192"/>
<polygon fill="#191970" stroke="#191970" points="2343.2066,-82.4772 2332.7011,-81.1039 2340.0573,-88.7287 2343.2066,-82.4772"/>
</g>
<!-- Node30&#45;&gt;Node15 -->
<g id="edge46" class="edge">
<title>Node30&#45;&gt;Node15</title>
<path fill="none" stroke="#191970" d="M2516.7496,-126.7002C2571.7674,-114.4442 2634.3281,-91.9435 2603.6366,-56 2589.0341,-38.8987 2456.7847,-23.5179 2376.0069,-15.6106"/>
<polygon fill="#191970" stroke="#191970" points="2376.2284,-12.1158 2365.9381,-14.6375 2375.555,-19.0833 2376.2284,-12.1158"/>
</g>
<!-- Node30&#45;&gt;Node17 -->
<g id="edge41" class="edge">
<title>Node30&#45;&gt;Node17</title>
<path fill="none" stroke="#191970" d="M2376.5637,-134.9312C2229.7814,-127.3183 1879.295,-108.4224 1585.6366,-87 1548.2149,-84.2701 1506.4624,-80.707 1472.5978,-77.6854"/>
<polygon fill="#191970" stroke="#191970" points="1472.6276,-74.1741 1462.3549,-76.7666 1472.0022,-81.1461 1472.6276,-74.1741"/>
</g>
<!-- Node30&#45;&gt;Node28 -->
<g id="edge48" class="edge">
<title>Node30&#45;&gt;Node28</title>
<path fill="none" stroke="#191970" d="M2446.7147,-123.2537C2445.9339,-104.5625 2441.6283,-73.2505 2422.6366,-56 2416.1047,-50.0669 2317.7314,-32.7809 2248.1799,-21.1719"/>
<polygon fill="#191970" stroke="#191970" points="2248.5804,-17.6905 2238.1416,-19.5023 2247.4319,-24.5957 2248.5804,-17.6905"/>
</g>
<!-- Node30&#45;&gt;Node29 -->
<g id="edge45" class="edge">
<title>Node30&#45;&gt;Node29</title>
<path fill="none" stroke="#191970" d="M2376.4307,-137.4623C2182.5032,-134.2134 1623.14,-122.2579 1159.6366,-87 1135.2407,-85.1442 1108.5006,-82.324 1085.1085,-79.5956"/>
<polygon fill="#191970" stroke="#191970" points="1085.3044,-76.0945 1074.9621,-78.3938 1084.4809,-83.0459 1085.3044,-76.0945"/>
</g>
<!-- Node31 -->
<g id="node28" class="node">
<title>Node31</title>
<polygon fill="#ffffff" stroke="#bfbfbf" points="2474.6366,-62 2474.6366,-81 2594.6366,-81 2594.6366,-62 2474.6366,-62"/>
<text text-anchor="middle" x="2534.6366" y="-69" font-family="Helvetica,sans-Serif" font-size="10.00" fill="#000000">AMReX_FillPatchUtil.H</text>
</g>
<!-- Node30&#45;&gt;Node31 -->
<g id="edge49" class="edge">
<title>Node30&#45;&gt;Node31</title>
<path fill="none" stroke="#191970" d="M2466.6052,-123.2967C2480.7153,-112.5537 2499.5817,-98.1895 2513.8674,-87.3129"/>
<polygon fill="#191970" stroke="#191970" points="2516.2506,-89.8975 2522.0868,-81.055 2512.0102,-84.328 2516.2506,-89.8975"/>
</g>
<!-- Node32&#45;&gt;Node13 -->
<g id="edge51" class="edge">
<title>Node32&#45;&gt;Node13</title>
<path fill="none" stroke="#191970" d="M1795.9472,-128.9585C1842.8238,-120.4483 1900.9897,-106.3378 1915.6366,-87 1939.8249,-55.0651 1889.2205,-33.9227 1844.0451,-22.0059"/>
<polygon fill="#191970" stroke="#191970" points="1844.7723,-18.5798 1834.2202,-19.5311 1843.0624,-25.3678 1844.7723,-18.5798"/>
</g>
<!-- Node32&#45;&gt;Node17 -->
<g id="edge52" class="edge">
<title>Node32&#45;&gt;Node17</title>
<path fill="none" stroke="#191970" d="M1686.1327,-128.9717C1627.1342,-116.8833 1525.4537,-96.0497 1462.0751,-83.0638"/>
<polygon fill="#191970" stroke="#191970" points="1462.7435,-79.6282 1452.2445,-81.0496 1461.3384,-86.4857 1462.7435,-79.6282"/>
</g>
<!-- Node32&#45;&gt;Node21 -->
<g id="edge53" class="edge">
<title>Node32&#45;&gt;Node21</title>
<path fill="none" stroke="#191970" d="M1733.3583,-128.8911C1734.0819,-111.8249 1732.9904,-76.1317 1713.6366,-56 1697.556,-39.2731 1640.5879,-26.1417 1597.1967,-18.2634"/>
<polygon fill="#191970" stroke="#191970" points="1597.7864,-14.8135 1587.3297,-16.5188 1596.5676,-21.7065 1597.7864,-14.8135"/>
</g>
<!-- Node32&#45;&gt;Node28 -->
<g id="edge56" class="edge">
<title>Node32&#45;&gt;Node28</title>
<path fill="none" stroke="#191970" d="M1805.4932,-134.2736C1920.9597,-126.912 2135.6511,-110.2696 2161.6366,-87 2177.5683,-72.7334 2180.776,-47.318 2180.8457,-29.6045"/>
<polygon fill="#191970" stroke="#191970" points="2184.3414,-29.4003 2180.5552,-19.5051 2177.3443,-29.6017 2184.3414,-29.4003"/>
</g>
<!-- Node33 -->
<g id="node30" class="node">
<title>Node33</title>
<polygon fill="#ffffff" stroke="#bfbfbf" points="2039.1366,-62 2039.1366,-81 2152.1366,-81 2152.1366,-62 2039.1366,-62"/>
<text text-anchor="middle" x="2095.6366" y="-69" font-family="Helvetica,sans-Serif" font-size="10.00" fill="#000000">AMReX_FArrayBox.H</text>
</g>
<!-- Node32&#45;&gt;Node33 -->
<g id="edge54" class="edge">
<title>Node32&#45;&gt;Node33</title>
<path fill="none" stroke="#191970" d="M1790.6608,-128.9757C1849.6763,-119.1222 1943.7044,-102.9644 2024.6366,-87 2030.729,-85.7982 2037.1032,-84.4856 2043.4256,-83.1492"/>
<polygon fill="#191970" stroke="#191970" points="2044.2244,-86.5576 2053.2703,-81.0421 2042.7592,-79.7127 2044.2244,-86.5576"/>
</g>
<!-- Node34 -->
<g id="node31" class="node">
<title>Node34</title>
<polygon fill="#ffffff" stroke="#bfbfbf" points="1594.6366,-62 1594.6366,-81 1704.6366,-81 1704.6366,-62 1594.6366,-62"/>
<text text-anchor="middle" x="1649.6366" y="-69" font-family="Helvetica,sans-Serif" font-size="10.00" fill="#000000">AMReX_Geometry.H</text>
</g>
<!-- Node32&#45;&gt;Node34 -->
<g id="edge55" class="edge">
<title>Node32&#45;&gt;Node34</title>
<path fill="none" stroke="#191970" d="M1720.7447,-128.9005C1707.4318,-118.1539 1685.6367,-100.5603 1669.6798,-87.6794"/>
<polygon fill="#191970" stroke="#191970" points="1671.486,-84.6395 1661.5064,-81.0817 1667.0892,-90.0863 1671.486,-84.6395"/>
</g>
<!-- Node35&#45;&gt;Node3 -->
<g id="edge58" class="edge">
<title>Node35&#45;&gt;Node3</title>
<path fill="none" stroke="#191970" d="M622.886,-402.2142C486.2712,-391.9007 196.6366,-359.7471 196.6366,-272.5 196.6366,-272.5 196.6366,-272.5 196.6366,-138.5 196.6366,-96.3006 208.5282,-79.4135 243.6366,-56 257.794,-46.5585 497.8119,-21.7079 584.0723,-13.0371"/>
<polygon fill="#191970" stroke="#191970" points="584.4346,-16.5184 594.0358,-12.0389 583.7367,-9.5533 584.4346,-16.5184"/>
</g>
<!-- Node36 -->
<g id="node33" class="node">
<title>Node36</title>
<g id="a_node33"><a xlink:href="_c_f_d_sim_8_h.html" target="_top" xlink:title="amr&#45;wind/CFDSim.H">
<polygon fill="#ffffff" stroke="#000000" points="1083.6366,-196 1083.6366,-215 1191.6366,-215 1191.6366,-196 1083.6366,-196"/>
<text text-anchor="middle" x="1137.6366" y="-203" font-family="Helvetica,sans-Serif" font-size="10.00" fill="#000000">amr&#45;wind/CFDSim.H</text>
</a>
</g>
</g>
<!-- Node35&#45;&gt;Node36 -->
<g id="edge59" class="edge">
<title>Node35&#45;&gt;Node36</title>
<path fill="none" stroke="#191970" d="M762.2257,-399.2478C845.0163,-387.666 984.1382,-358.5871 1080.6366,-288 1103.2665,-271.4465 1119.9827,-243.0685 1129.2693,-224.2957"/>
<polygon fill="#191970" stroke="#191970" points="1132.4454,-225.7665 1133.5477,-215.2292 1126.1148,-222.7792 1132.4454,-225.7665"/>
</g>
<!-- Node37 -->
<g id="node34" class="node">
<title>Node37</title>
<g id="a_node34"><a xlink:href="_p_d_e_base_8_h.html" target="_top" xlink:title="amr&#45;wind/equation_systems\l/PDEBase.H">
<polygon fill="#ffffff" stroke="#000000" points="462.1366,-123.5 462.1366,-153.5 601.1366,-153.5 601.1366,-123.5 462.1366,-123.5"/>
<text text-anchor="start" x="470.1366" y="-141.5" font-family="Helvetica,sans-Serif" font-size="10.00" fill="#000000">amr&#45;wind/equation_systems</text>
<text text-anchor="middle" x="531.6366" y="-130.5" font-family="Helvetica,sans-Serif" font-size="10.00" fill="#000000">/PDEBase.H</text>
</a>
</g>
</g>
<!-- Node35&#45;&gt;Node37 -->
<g id="edge80" class="edge">
<title>Node35&#45;&gt;Node37</title>
<path fill="none" stroke="#191970" d="M622.7241,-394.0533C518.9794,-374.3428 331.0687,-333.4871 280.6366,-288 256.7964,-266.4974 259.7484,-252.5177 253.6366,-221 251.0137,-207.4742 244.8261,-200.5926 253.6366,-190 278.4813,-160.1301 378.9033,-147.5088 451.9319,-142.2258"/>
<polygon fill="#191970" stroke="#191970" points="452.3088,-145.7083 462.0441,-141.5281 451.8268,-138.7249 452.3088,-145.7083"/>
</g>
<!-- Node44 -->
<g id="node38" class="node">
<title>Node44</title>
<g id="a_node38"><a xlink:href="_p_d_e_ops_8_h.html" target="_top" xlink:title="amr&#45;wind/equation_systems\l/PDEOps.H">
<polygon fill="#ffffff" stroke="#000000" points="932.1366,-257.5 932.1366,-287.5 1071.1366,-287.5 1071.1366,-257.5 932.1366,-257.5"/>
<text text-anchor="start" x="940.1366" y="-275.5" font-family="Helvetica,sans-Serif" font-size="10.00" fill="#000000">amr&#45;wind/equation_systems</text>
<text text-anchor="middle" x="1001.6366" y="-264.5" font-family="Helvetica,sans-Serif" font-size="10.00" fill="#000000">/PDEOps.H</text>
</a>
</g>
</g>
<!-- Node35&#45;&gt;Node44 -->
<g id="edge81" class="edge">
<title>Node35&#45;&gt;Node44</title>
<path fill="none" stroke="#191970" d="M727.4822,-391.389C783.9642,-366.8952 895.4193,-318.5619 957.41,-291.6792"/>
<polygon fill="#191970" stroke="#191970" points="959.1364,-294.7455 966.9184,-287.5558 956.3514,-288.3234 959.1364,-294.7455"/>
</g>
<!-- Node49 -->
<g id="node42" class="node">
<title>Node49</title>
<g id="a_node42"><a xlink:href="_comp_r_h_s_ops_8_h.html" target="_top" xlink:title="amr&#45;wind/equation_systems\l/CompRHSOps.H">
<polygon fill="#ffffff" stroke="#000000" points="29.1366,-324.5 29.1366,-354.5 168.1366,-354.5 168.1366,-324.5 29.1366,-324.5"/>
<text text-anchor="start" x="37.1366" y="-342.5" font-family="Helvetica,sans-Serif" font-size="10.00" fill="#000000">amr&#45;wind/equation_systems</text>
<text text-anchor="middle" x="98.6366" y="-331.5" font-family="Helvetica,sans-Serif" font-size="10.00" fill="#000000">/CompRHSOps.H</text>
</a>
</g>
</g>
<!-- Node35&#45;&gt;Node49 -->
<g id="edge93" class="edge">
<title>Node35&#45;&gt;Node49</title>
<path fill="none" stroke="#191970" d="M623.1263,-401.2946C524.7639,-393.5167 339.4579,-377.3483 182.6366,-355 181.1685,-354.7908 179.6869,-354.5743 178.1951,-354.3513"/>
<polygon fill="#191970" stroke="#191970" points="178.6568,-350.8811 168.2365,-352.7962 177.5768,-357.7973 178.6568,-350.8811"/>
</g>
<!-- Node50 -->
<g id="node43" class="node">
<title>Node50</title>
<g id="a_node43"><a xlink:href="_diffusion_ops_8_h.html" target="_top" xlink:title="amr&#45;wind/equation_systems\l/DiffusionOps.H">
<polygon fill="#ffffff" stroke="#000000" points="623.1366,-324.5 623.1366,-354.5 762.1366,-354.5 762.1366,-324.5 623.1366,-324.5"/>
<text text-anchor="start" x="631.1366" y="-342.5" font-family="Helvetica,sans-Serif" font-size="10.00" fill="#000000">amr&#45;wind/equation_systems</text>
<text text-anchor="middle" x="692.6366" y="-331.5" font-family="Helvetica,sans-Serif" font-size="10.00" fill="#000000">/DiffusionOps.H</text>
</a>
</g>
</g>
<!-- Node35&#45;&gt;Node50 -->
<g id="edge97" class="edge">
<title>Node35&#45;&gt;Node50</title>
<path fill="none" stroke="#191970" d="M692.6366,-391.2967C692.6366,-383.5013 692.6366,-373.7991 692.6366,-364.9064"/>
<polygon fill="#191970" stroke="#191970" points="696.1367,-364.6431 692.6366,-354.6432 689.1367,-364.6432 696.1367,-364.6431"/>
</g>
<!-- Node36&#45;&gt;Node7 -->
<g id="edge61" class="edge">
<title>Node36&#45;&gt;Node7</title>
<path fill="none" stroke="#191970" d="M1191.7145,-196.2198C1208.0307,-193.7707 1226.0208,-191.4182 1242.6366,-190 1326.6327,-182.8309 2683.4349,-190.0561 2759.6366,-154 2787.9672,-140.5949 2809.3906,-109.9297 2820.9649,-89.9965"/>
<polygon fill="#191970" stroke="#191970" points="2824.0562,-91.639 2825.8428,-81.1959 2817.9337,-88.2455 2824.0562,-91.639"/>
</g>
<!-- Node36&#45;&gt;Node11 -->
<g id="edge62" class="edge">
<title>Node36&#45;&gt;Node11</title>
<path fill="none" stroke="#191970" d="M1163.856,-195.9005C1195.6547,-184.2584 1249.4017,-164.5805 1284.9541,-151.5641"/>
<polygon fill="#191970" stroke="#191970" points="1286.2787,-154.8064 1294.4658,-148.0817 1283.872,-148.2331 1286.2787,-154.8064"/>
</g>
<!-- Node36&#45;&gt;Node29 -->
<g id="edge60" class="edge">
<title>Node36&#45;&gt;Node29</title>
<path fill="none" stroke="#191970" d="M1139.9826,-195.8473C1143.407,-179.3333 1147.8344,-145.2881 1132.6366,-123 1119.7151,-104.0502 1097.9498,-91.9241 1077.0985,-84.2367"/>
<polygon fill="#191970" stroke="#191970" points="1078.212,-80.9185 1067.6175,-81.0083 1075.9556,-87.5449 1078.212,-80.9185"/>
</g>
<!-- Node36&#45;&gt;Node37 -->
<g id="edge63" class="edge">
<title>Node36&#45;&gt;Node37</title>
<path fill="none" stroke="#191970" d="M1083.5918,-199.5247C976.5118,-187.6859 736.9451,-161.1991 611.5784,-147.3385"/>
<polygon fill="#191970" stroke="#191970" points="611.6056,-143.8202 601.2815,-146.2 610.8363,-150.7778 611.6056,-143.8202"/>
</g>
<!-- Node43 -->
<g id="node37" class="node">
<title>Node43</title>
<g id="a_node37"><a xlink:href="_physics_8_h.html" target="_top" xlink:title="amr&#45;wind/core/Physics.H">
<polygon fill="#ffffff" stroke="#000000" points="996.1366,-129 996.1366,-148 1123.1366,-148 1123.1366,-129 996.1366,-129"/>
<text text-anchor="middle" x="1059.6366" y="-136" font-family="Helvetica,sans-Serif" font-size="10.00" fill="#000000">amr&#45;wind/core/Physics.H</text>
</a>
</g>
</g>
<!-- Node36&#45;&gt;Node43 -->
<g id="edge75" class="edge">
<title>Node36&#45;&gt;Node43</title>
<path fill="none" stroke="#191970" d="M1126.4611,-195.9005C1113.9502,-185.1539 1093.468,-167.5603 1078.4724,-154.6794"/>
<polygon fill="#191970" stroke="#191970" points="1080.6577,-151.9426 1070.7914,-148.0817 1076.0965,-157.2526 1080.6577,-151.9426"/>
</g>
<!-- Node37&#45;&gt;Node3 -->
<g id="edge64" class="edge">
<title>Node37&#45;&gt;Node3</title>
<path fill="none" stroke="#191970" d="M513.4085,-123.2594C495.2579,-106.2005 472.1637,-78.061 487.6366,-56 498.955,-39.8624 550.1739,-25.0828 584.009,-16.8367"/>
<polygon fill="#191970" stroke="#191970" points="584.9661,-20.2069 593.8881,-14.493 583.3502,-13.3959 584.9661,-20.2069"/>
</g>
<!-- Node37&#45;&gt;Node5 -->
<g id="edge72" class="edge">
<title>Node37&#45;&gt;Node5</title>
<path fill="none" stroke="#191970" d="M486.9771,-123.4639C457.3798,-113.499 418.3677,-100.3642 386.9712,-89.7936"/>
<polygon fill="#191970" stroke="#191970" points="388.085,-86.4755 377.4909,-86.6017 385.8513,-93.1096 388.085,-86.4755"/>
</g>
<!-- Node37&#45;&gt;Node13 -->
<g id="edge73" class="edge">
<title>Node37&#45;&gt;Node13</title>
<path fill="none" stroke="#191970" d="M601.4839,-134.8304C818.4572,-123.4115 1466.6331,-89.1417 1471.6366,-87 1490.1362,-79.0814 1486.5918,-64.9065 1504.6366,-56 1537.0568,-39.9982 1624.3489,-27.2238 1692.9317,-19.2363"/>
<polygon fill="#191970" stroke="#191970" points="1693.3697,-22.7091 1702.9059,-18.0928 1692.5723,-15.7547 1693.3697,-22.7091"/>
</g>
<!-- Node37&#45;&gt;Node22 -->
<g id="edge74" class="edge">
<title>Node37&#45;&gt;Node22</title>
<path fill="none" stroke="#191970" d="M513.7274,-123.3418C502.8425,-113.6095 489.0777,-100.334 478.6366,-87 464.091,-68.4243 450.9183,-44.682 442.6374,-28.5047"/>
<polygon fill="#191970" stroke="#191970" points="445.7488,-26.9012 438.1449,-19.5234 439.4883,-30.0327 445.7488,-26.9012"/>
</g>
<!-- Node38 -->
<g id="node35" class="node">
<title>Node38</title>
<g id="a_node35"><a xlink:href="_factory_8_h.html" target="_top" xlink:title="amr&#45;wind/core/Factory.H">
<polygon fill="#ffffff" stroke="#ff0000" points="825.1366,-62 825.1366,-81 950.1366,-81 950.1366,-62 825.1366,-62"/>
<text text-anchor="middle" x="887.6366" y="-69" font-family="Helvetica,sans-Serif" font-size="10.00" fill="#000000">amr&#45;wind/core/Factory.H</text>
</a>
</g>
</g>
<!-- Node37&#45;&gt;Node38 -->
<g id="edge65" class="edge">
<title>Node37&#45;&gt;Node38</title>
<path fill="none" stroke="#191970" d="M601.546,-125.3429C667.2427,-112.9786 764.5552,-94.6642 827.0361,-82.9052"/>
<polygon fill="#191970" stroke="#191970" points="827.9556,-86.2936 837.1357,-81.0044 826.6608,-79.4144 827.9556,-86.2936"/>
</g>
<!-- Node42 -->
<g id="node36" class="node">
<title>Node42</title>
<g id="a_node36"><a xlink:href="_coll_mgr_8_h.html" target="_top" xlink:title="amr&#45;wind/core/CollMgr.H">
<polygon fill="#ffffff" stroke="#ff0000" points="643.1366,-62 643.1366,-81 768.1366,-81 768.1366,-62 643.1366,-62"/>
<text text-anchor="middle" x="705.6366" y="-69" font-family="Helvetica,sans-Serif" font-size="10.00" fill="#000000">amr&#45;wind/core/CollMgr.H</text>
</a>
</g>
</g>
<!-- Node37&#45;&gt;Node42 -->
<g id="edge68" class="edge">
<title>Node37&#45;&gt;Node42</title>
<path fill="none" stroke="#191970" d="M570.6856,-123.4639C600.8908,-111.8332 642.3102,-95.8843 671.2673,-84.7342"/>
<polygon fill="#191970" stroke="#191970" points="672.8769,-87.865 680.9512,-81.0053 670.3614,-81.3325 672.8769,-87.865"/>
</g>
<!-- Node38&#45;&gt;Node12 -->
<g id="edge67" class="edge">
<title>Node38&#45;&gt;Node12</title>
<path fill="none" stroke="#191970" d="M873.7304,-61.8906C859.6228,-52.1421 837.5642,-36.8994 820.9981,-25.4521"/>
<polygon fill="#191970" stroke="#191970" points="822.6619,-22.3474 812.4452,-19.5419 818.6824,-28.1063 822.6619,-22.3474"/>
</g>
<!-- Node38&#45;&gt;Node18 -->
<g id="edge66" class="edge">
<title>Node38&#45;&gt;Node18</title>
<path fill="none" stroke="#191970" d="M887.6366,-61.8906C887.6366,-53.3657 887.6366,-40.6392 887.6366,-29.9235"/>
<polygon fill="#191970" stroke="#191970" points="891.1367,-29.7448 887.6366,-19.7449 884.1367,-29.7449 891.1367,-29.7448"/>
</g>
<!-- Node42&#45;&gt;Node3 -->
<g id="edge69" class="edge">
<title>Node42&#45;&gt;Node3</title>
<path fill="none" stroke="#191970" d="M691.4179,-61.8906C676.9933,-52.1421 654.439,-36.8994 637.5006,-25.4521"/>
<polygon fill="#191970" stroke="#191970" points="639.0007,-22.2415 628.7555,-19.5419 635.081,-28.0412 639.0007,-22.2415"/>
</g>
<!-- Node42&#45;&gt;Node12 -->
<g id="edge71" class="edge">
<title>Node42&#45;&gt;Node12</title>
<path fill="none" stroke="#191970" d="M720.1679,-61.8906C735.046,-52.0519 758.387,-36.6167 775.7494,-25.1351"/>
<polygon fill="#191970" stroke="#191970" points="777.7968,-27.9773 784.2074,-19.5419 773.9356,-22.1385 777.7968,-27.9773"/>
</g>
<!-- Node42&#45;&gt;Node18 -->
<g id="edge70" class="edge">
<title>Node42&#45;&gt;Node18</title>
<path fill="none" stroke="#191970" d="M734.0741,-61.8906C765.8308,-51.1597 817.2893,-33.7712 851.7807,-22.1161"/>
<polygon fill="#191970" stroke="#191970" points="853.1103,-25.3613 861.4636,-18.8442 850.8694,-18.7297 853.1103,-25.3613"/>
</g>
<!-- Node43&#45;&gt;Node15 -->
<g id="edge78" class="edge">
<title>Node43&#45;&gt;Node15</title>
<path fill="none" stroke="#191970" d="M1123.4655,-132.641C1158.8534,-129.514 1203.6594,-125.754 1243.6366,-123 1318.2335,-117.8611 1846.8777,-116.3825 1915.6366,-87 1934.141,-79.0926 1930.3962,-64.4986 1948.6366,-56 2069.0722,.1136 2115.7195,-37.1666 2251.4852,-20.0466"/>
<polygon fill="#191970" stroke="#191970" points="2251.9691,-23.5131 2261.4166,-18.7179 2251.0408,-16.5749 2251.9691,-23.5131"/>
</g>
<!-- Node43&#45;&gt;Node34 -->
<g id="edge79" class="edge">
<title>Node43&#45;&gt;Node34</title>
<path fill="none" stroke="#191970" d="M1123.4038,-132.4721C1215.9049,-123.553 1392.6562,-105.8521 1542.6366,-87 1556.1992,-85.2952 1570.7042,-83.306 1584.518,-81.3322"/>
<polygon fill="#191970" stroke="#191970" points="1585.0334,-84.7942 1594.4311,-79.902 1584.0338,-77.866 1585.0334,-84.7942"/>
</g>
<!-- Node43&#45;&gt;Node38 -->
<g id="edge76" class="edge">
<title>Node43&#45;&gt;Node38</title>
<path fill="none" stroke="#191970" d="M1034.9932,-128.9005C1005.2337,-117.3082 955.021,-97.7486 921.6036,-84.7313"/>
<polygon fill="#191970" stroke="#191970" points="922.8227,-81.4501 912.2343,-81.0817 920.2819,-87.9727 922.8227,-81.4501"/>
</g>
<!-- Node43&#45;&gt;Node42 -->
<g id="edge77" class="edge">
<title>Node43&#45;&gt;Node42</title>
<path fill="none" stroke="#191970" d="M1009.293,-128.9717C945.2915,-116.8584 834.8937,-95.9639 766.3121,-82.9838"/>
<polygon fill="#191970" stroke="#191970" points="766.5693,-79.4704 756.0928,-81.0496 765.2675,-86.3483 766.5693,-79.4704"/>
</g>
<!-- Node44&#45;&gt;Node4 -->
<g id="edge83" class="edge">
<title>Node44&#45;&gt;Node4</title>
<path fill="none" stroke="#191970" d="M1071.2483,-257.8794C1121.2797,-247.3712 1188.831,-233.1833 1241.01,-222.2241"/>
<polygon fill="#191970" stroke="#191970" points="1241.8313,-225.628 1250.8983,-220.1472 1240.3924,-218.7775 1241.8313,-225.628"/>
</g>
<!-- Node44&#45;&gt;Node14 -->
<g id="edge82" class="edge">
<title>Node44&#45;&gt;Node14</title>
<path fill="none" stroke="#191970" d="M1071.452,-264.6594C1098.3579,-261.8751 1129.3986,-258.9512 1157.6366,-257 1362.6369,-242.835 1880.0401,-260.8073 2081.6366,-221 2166.609,-204.2213 2197.997,-209.3262 2264.6366,-154 2285.089,-137.0198 2299.0825,-109.1542 2306.7227,-90.5706"/>
<polygon fill="#191970" stroke="#191970" points="2310.0462,-91.6805 2310.4012,-81.0916 2303.5204,-89.148 2310.0462,-91.6805"/>
</g>
<!-- Node44&#45;&gt;Node36 -->
<g id="edge91" class="edge">
<title>Node44&#45;&gt;Node36</title>
<path fill="none" stroke="#191970" d="M1032.1577,-257.4639C1055.1823,-246.1209 1086.5438,-230.6707 1109.076,-219.5703"/>
<polygon fill="#191970" stroke="#191970" points="1110.7183,-222.6629 1118.1421,-215.1039 1107.6248,-216.3836 1110.7183,-222.6629"/>
</g>
<!-- Node45 -->
<g id="node39" class="node">
<title>Node45</title>
<g id="a_node39"><a xlink:href="_turbulence_model_8_h.html" target="_top" xlink:title="amr&#45;wind/turbulence\l/TurbulenceModel.H">
<polygon fill="#ffffff" stroke="#000000" points="835.6366,-123.5 835.6366,-153.5 939.6366,-153.5 939.6366,-123.5 835.6366,-123.5"/>
<text text-anchor="start" x="843.6366" y="-141.5" font-family="Helvetica,sans-Serif" font-size="10.00" fill="#000000">amr&#45;wind/turbulence</text>
<text text-anchor="middle" x="887.6366" y="-130.5" font-family="Helvetica,sans-Serif" font-size="10.00" fill="#000000">/TurbulenceModel.H</text>
</a>
</g>
</g>
<!-- Node44&#45;&gt;Node45 -->
<g id="edge84" class="edge">
<title>Node44&#45;&gt;Node45</title>
<path fill="none" stroke="#191970" d="M988.781,-257.389C968.939,-234.066 930.7082,-189.1281 907.3537,-161.6763"/>
<polygon fill="#191970" stroke="#191970" points="909.7658,-159.1101 900.6202,-153.7614 904.4342,-163.6459 909.7658,-159.1101"/>
</g>
<!-- Node46 -->
<g id="node40" class="node">
<title>Node46</title>
<g id="a_node40"><a xlink:href="_i_o_manager_8_h.html" target="_top" xlink:title="amr&#45;wind/utilities\l/IOManager.H">
<polygon fill="#ffffff" stroke="#ff0000" points="496.6366,-56.5 496.6366,-86.5 586.6366,-86.5 586.6366,-56.5 496.6366,-56.5"/>
<text text-anchor="start" x="504.6366" y="-74.5" font-family="Helvetica,sans-Serif" font-size="10.00" fill="#000000">amr&#45;wind/utilities</text>
<text text-anchor="middle" x="541.6366" y="-63.5" font-family="Helvetica,sans-Serif" font-size="10.00" fill="#000000">/IOManager.H</text>
</a>
</g>
</g>
<!-- Node44&#45;&gt;Node46 -->
<g id="edge88" class="edge">
<title>Node44&#45;&gt;Node46</title>
<path fill="none" stroke="#191970" d="M980.3839,-257.3642C947.8392,-234.2265 888.8495,-192.4615 883.6366,-190 829.8114,-164.5844 811.1232,-172.7716 754.6366,-154 695.8594,-134.4671 629.5178,-108.0595 586.7207,-90.4365"/>
<polygon fill="#191970" stroke="#191970" points="588.0065,-87.1809 577.4279,-86.5956 585.3326,-93.6501 588.0065,-87.1809"/>
</g>
<!-- Node48 -->
<g id="node41" class="node">
<title>Node48</title>
<polygon fill="#ffffff" stroke="#bfbfbf" points="758.6366,-196 758.6366,-215 874.6366,-215 874.6366,-196 758.6366,-196"/>
<text text-anchor="middle" x="816.6366" y="-203" font-family="Helvetica,sans-Serif" font-size="10.00" fill="#000000">AMReX_ParmParse.H</text>
</g>
<!-- Node44&#45;&gt;Node48 -->
<g id="edge92" class="edge">
<title>Node44&#45;&gt;Node48</title>
<path fill="none" stroke="#191970" d="M960.119,-257.4639C927.7238,-245.7316 883.1962,-229.6054 852.3751,-218.4431"/>
<polygon fill="#191970" stroke="#191970" points="853.4768,-215.1197 842.8825,-215.0053 851.0931,-221.7014 853.4768,-215.1197"/>
</g>
<!-- Node45&#45;&gt;Node12 -->
<g id="edge85" class="edge">
<title>Node45&#45;&gt;Node12</title>
<path fill="none" stroke="#191970" d="M857.7343,-123.4432C843.2527,-114.6913 826.8334,-102.3467 816.6366,-87 805.2784,-69.9053 801.0476,-46.5168 799.4931,-30.0153"/>
<polygon fill="#191970" stroke="#191970" points="802.972,-29.588 798.7898,-19.8536 795.9887,-30.0714 802.972,-29.588"/>
</g>
<!-- Node45&#45;&gt;Node13 -->
<g id="edge87" class="edge">
<title>Node45&#45;&gt;Node13</title>
<path fill="none" stroke="#191970" d="M939.6853,-129.582C955.0881,-127.1733 972.0108,-124.7519 987.6366,-123 1102.0866,-110.1685 1397.5534,-129.3869 1504.6366,-87 1524.9026,-78.9781 1522.8804,-65.2061 1542.6366,-56 1570.8068,-42.8731 1644.9942,-29.8244 1703.8669,-20.9962"/>
<polygon fill="#191970" stroke="#191970" points="1704.5396,-24.4349 1713.9188,-19.5073 1703.5139,-17.5104 1704.5396,-24.4349"/>
</g>
<!-- Node45&#45;&gt;Node38 -->
<g id="edge86" class="edge">
<title>Node45&#45;&gt;Node38</title>
<path fill="none" stroke="#191970" d="M887.6366,-123.2967C887.6366,-113.7699 887.6366,-101.3954 887.6366,-91.1306"/>
<polygon fill="#191970" stroke="#191970" points="891.1367,-91.0549 887.6366,-81.055 884.1367,-91.055 891.1367,-91.0549"/>
</g>
<!-- Node46&#45;&gt;Node3 -->
<g id="edge89" class="edge">
<title>Node46&#45;&gt;Node3</title>
<path fill="none" stroke="#191970" d="M559.6816,-56.2977C570.448,-47.2274 584.1217,-35.7077 595.1361,-26.4285"/>
<polygon fill="#191970" stroke="#191970" points="597.5557,-28.9667 602.9484,-19.8469 593.0456,-23.6132 597.5557,-28.9667"/>
</g>
<!-- Node46&#45;&gt;Node12 -->
<g id="edge90" class="edge">
<title>Node46&#45;&gt;Node12</title>
<path fill="none" stroke="#191970" d="M586.6967,-60.7171C632.0283,-49.8693 701.7678,-33.1807 748.745,-21.939"/>
<polygon fill="#191970" stroke="#191970" points="749.7888,-25.2882 758.6996,-19.5569 748.1596,-18.4804 749.7888,-25.2882"/>
</g>
<!-- Node49&#45;&gt;Node2 -->
<g id="edge96" class="edge">
<title>Node49&#45;&gt;Node2</title>
<path fill="none" stroke="#191970" d="M98.6366,-324.2967C98.6366,-316.5013 98.6366,-306.7991 98.6366,-297.9064"/>
<polygon fill="#191970" stroke="#191970" points="102.1367,-297.6431 98.6366,-287.6432 95.1367,-297.6432 102.1367,-297.6431"/>
</g>
<!-- Node49&#45;&gt;Node22 -->
<g id="edge94" class="edge">
<title>Node49&#45;&gt;Node22</title>
<path fill="none" stroke="#191970" d="M63.759,-324.328C48.0498,-315.8106 30.6058,-303.7038 19.6366,-288 -1.9098,-257.1535 .6366,-243.1265 .6366,-205.5 .6366,-205.5 .6366,-205.5 .6366,-138.5 .6366,-62.4153 78.7064,-80.7979 150.6366,-56 170.0587,-49.3043 282.1204,-32.1146 359.263,-20.7501"/>
<polygon fill="#191970" stroke="#191970" points="360.046,-24.1727 369.4309,-19.2561 359.0283,-17.2471 360.046,-24.1727"/>
</g>
<!-- Node49&#45;&gt;Node44 -->
<g id="edge95" class="edge">
<title>Node49&#45;&gt;Node44</title>
<path fill="none" stroke="#191970" d="M168.1998,-338.2957C308.9035,-335.1777 637.4235,-324.4409 921.872,-288.1262"/>
<polygon fill="#191970" stroke="#191970" points="922.5017,-291.5741 931.9718,-286.8235 921.6062,-284.6316 922.5017,-291.5741"/>
</g>
<!-- Node50&#45;&gt;Node1 -->
<g id="edge102" class="edge">
<title>Node50&#45;&gt;Node1</title>
<path fill="none" stroke="#191970" d="M762.3005,-331.0787C845.8037,-320.9612 989.9668,-303.4201 1113.6366,-288 1127.2756,-286.2994 1141.7697,-284.4739 1155.8265,-282.6939"/>
<polygon fill="#191970" stroke="#191970" points="1156.4859,-286.1384 1165.9662,-281.4083 1155.6054,-279.194 1156.4859,-286.1384"/>
</g>
<!-- Node50&#45;&gt;Node2 -->
<g id="edge103" class="edge">
<title>Node50&#45;&gt;Node2</title>
<path fill="none" stroke="#191970" d="M623.0429,-331.6502C512.0076,-319.126 295.3927,-294.693 178.3142,-281.4872"/>
<polygon fill="#191970" stroke="#191970" points="178.6652,-278.0047 168.3359,-280.3617 177.8806,-284.9606 178.6652,-278.0047"/>
</g>
<!-- Node50&#45;&gt;Node4 -->
<g id="edge105" class="edge">
<title>Node50&#45;&gt;Node4</title>
<path fill="none" stroke="#191970" d="M762.3364,-335.5253C840.7932,-329.841 971.5513,-316.71 1080.6366,-288 1116.3132,-278.6103 1122.9112,-269.4552 1157.6366,-257 1191.1618,-244.9753 1229.0765,-232.9067 1259.8973,-223.4781"/>
<polygon fill="#191970" stroke="#191970" points="1261.0925,-226.7729 1269.6402,-220.513 1259.0544,-220.0761 1261.0925,-226.7729"/>
</g>
<!-- Node50&#45;&gt;Node29 -->
<g id="edge112" class="edge">
<title>Node50&#45;&gt;Node29</title>
<path fill="none" stroke="#191970" d="M698.2793,-324.4114C712.2736,-287.0297 747.5993,-192.9181 749.6366,-190 775.6053,-152.8045 786.5496,-144.2347 826.6366,-123 833.2452,-119.4993 917.9006,-97.7295 973.4752,-83.6372"/>
<polygon fill="#191970" stroke="#191970" points="974.6538,-86.9493 983.4885,-81.1013 972.9352,-80.1635 974.6538,-86.9493"/>
</g>
<!-- Node50&#45;&gt;Node44 -->
<g id="edge104" class="edge">
<title>Node50&#45;&gt;Node44</title>
<path fill="none" stroke="#191970" d="M761.9822,-324.4639C809.5088,-314.1588 872.6696,-300.4637 922.2183,-289.7202"/>
<polygon fill="#191970" stroke="#191970" points="923.2244,-293.0834 932.2556,-287.5438 921.741,-286.2424 923.2244,-293.0834"/>
</g>
<!-- Node51 -->
<g id="node44" class="node">
<title>Node51</title>
<g id="a_node44"><a xlink:href="_m_l_m_g_options_8_h.html" target="_top" xlink:title="amr&#45;wind/core/MLMGOptions.H">
<polygon fill="#ffffff" stroke="#ff0000" points="759.1366,-263 759.1366,-282 914.1366,-282 914.1366,-263 759.1366,-263"/>
<text text-anchor="middle" x="836.6366" y="-270" font-family="Helvetica,sans-Serif" font-size="10.00" fill="#000000">amr&#45;wind/core/MLMGOptions.H</text>
</a>
</g>
</g>
<!-- Node50&#45;&gt;Node51 -->
<g id="edge98" class="edge">
<title>Node50&#45;&gt;Node51</title>
<path fill="none" stroke="#191970" d="M724.953,-324.4639C749.4409,-313.0702 782.8351,-297.5327 806.715,-286.4219"/>
<polygon fill="#191970" stroke="#191970" points="808.4052,-289.4958 815.9953,-282.1039 805.4522,-283.1492 808.4052,-289.4958"/>
</g>
<!-- Node53 -->
<g id="node45" class="node">
<title>Node53</title>
<g id="a_node45"><a xlink:href="diffusion_8_h.html" target="_top" xlink:title="amr&#45;wind/diffusion\l/diffusion.H">
<polygon fill="#ffffff" stroke="#000000" points="606.6366,-257.5 606.6366,-287.5 702.6366,-287.5 702.6366,-257.5 606.6366,-257.5"/>
<text text-anchor="start" x="614.6366" y="-275.5" font-family="Helvetica,sans-Serif" font-size="10.00" fill="#000000">amr&#45;wind/diffusion</text>
<text text-anchor="middle" x="654.6366" y="-264.5" font-family="Helvetica,sans-Serif" font-size="10.00" fill="#000000">/diffusion.H</text>
</a>
</g>
</g>
<!-- Node50&#45;&gt;Node53 -->
<g id="edge106" class="edge">
<title>Node50&#45;&gt;Node53</title>
<path fill="none" stroke="#191970" d="M684.0138,-324.2967C679.3496,-316.0729 673.4819,-305.7272 668.2192,-296.4483"/>
<polygon fill="#191970" stroke="#191970" points="671.2032,-294.6148 663.2253,-287.6432 665.1143,-298.0683 671.2032,-294.6148"/>
</g>
<!-- Node54 -->
<g id="node46" class="node">
<title>Node54</title>
<polygon fill="#ffffff" stroke="#bfbfbf" points="262.6366,-196 262.6366,-215 358.6366,-215 358.6366,-196 262.6366,-196"/>
<text text-anchor="middle" x="310.6366" y="-203" font-family="Helvetica,sans-Serif" font-size="10.00" fill="#000000">AMReX_MLMG.H</text>
</g>
<!-- Node50&#45;&gt;Node54 -->
<g id="edge111" class="edge">
<title>Node50&#45;&gt;Node54</title>
<path fill="none" stroke="#191970" d="M623.0432,-335.4942C514.0274,-328.5009 313.1374,-312.4387 291.6366,-288 276.0113,-270.2396 287.5428,-242.2024 298.2606,-223.8301"/>
<polygon fill="#191970" stroke="#191970" points="301.3158,-225.5454 303.643,-215.2092 295.3781,-221.8381 301.3158,-225.5454"/>
</g>
<!-- Node55 -->
<g id="node47" class="node">
<title>Node55</title>
<polygon fill="#ffffff" stroke="#bfbfbf" points="300.6366,-263 300.6366,-282 446.6366,-282 446.6366,-263 300.6366,-263"/>
<text text-anchor="middle" x="373.6366" y="-270" font-family="Helvetica,sans-Serif" font-size="10.00" fill="#000000">AMReX_MLABecLaplacian.H</text>
</g>
<!-- Node50&#45;&gt;Node55 -->
<g id="edge109" class="edge">
<title>Node50&#45;&gt;Node55</title>
<path fill="none" stroke="#191970" d="M623.0249,-324.8794C564.8128,-312.653 482.883,-295.4452 429.0444,-284.1374"/>
<polygon fill="#191970" stroke="#191970" points="429.5047,-280.6578 418.9988,-282.0275 428.0658,-287.5083 429.5047,-280.6578"/>
</g>
<!-- Node56 -->
<g id="node48" class="node">
<title>Node56</title>
<polygon fill="#ffffff" stroke="#bfbfbf" points="465.1366,-263 465.1366,-282 588.1366,-282 588.1366,-263 465.1366,-263"/>
<text text-anchor="middle" x="526.6366" y="-270" font-family="Helvetica,sans-Serif" font-size="10.00" fill="#000000">AMReX_MLTensorOp.H</text>
</g>
<!-- Node50&#45;&gt;Node56 -->
<g id="edge110" class="edge">
<title>Node50&#45;&gt;Node56</title>
<path fill="none" stroke="#191970" d="M655.383,-324.4639C626.7775,-312.9183 587.6294,-297.1176 560.0344,-285.9798"/>
<polygon fill="#191970" stroke="#191970" points="561.0146,-282.6012 550.4314,-282.1039 558.3946,-289.0924 561.0146,-282.6012"/>
</g>
<!-- Node51&#45;&gt;Node3 -->
<g id="edge99" class="edge">
<title>Node51&#45;&gt;Node3</title>
<path fill="none" stroke="#191970" d="M775.074,-262.967C637.0283,-240.1187 310.3776,-177.3386 253.6366,-87 246.3085,-75.3327 244.5308,-66.3398 253.6366,-56 264.5485,-43.6094 498.3867,-20.7789 583.7752,-12.8229"/>
<polygon fill="#191970" stroke="#191970" points="584.2533,-16.2937 593.8876,-11.8857 583.6073,-9.3236 584.2533,-16.2937"/>
</g>
<!-- Node51&#45;&gt;Node8 -->
<g id="edge100" class="edge">
<title>Node51&#45;&gt;Node8</title>
<path fill="none" stroke="#191970" d="M882.9651,-262.96C896.0604,-260.6143 910.3608,-258.3816 923.6366,-257 1344.4282,-213.2091 2433.4226,-315.0428 2824.6366,-154 2867.8389,-136.2158 2880.7875,-126.5631 2905.6366,-87 2916.5851,-69.5685 2921.2258,-46.2365 2923.1922,-29.8405"/>
<polygon fill="#191970" stroke="#191970" points="2926.6886,-30.0465 2924.1709,-19.7552 2919.7213,-29.3703 2926.6886,-30.0465"/>
</g>
<!-- Node51&#45;&gt;Node48 -->
<g id="edge101" class="edge">
<title>Node51&#45;&gt;Node48</title>
<path fill="none" stroke="#191970" d="M833.7711,-262.9005C830.8305,-253.0495 826.1724,-237.4451 822.4549,-224.9912"/>
<polygon fill="#191970" stroke="#191970" points="825.711,-223.6627 819.4968,-215.0817 819.0035,-225.665 825.711,-223.6627"/>
</g>
<!-- Node53&#45;&gt;Node11 -->
<g id="edge108" class="edge">
<title>Node53&#45;&gt;Node11</title>
<path fill="none" stroke="#191970" d="M666.5868,-257.4463C682.9858,-238.0287 714.4646,-204.9751 749.6366,-190 760.8339,-185.2326 1088.3649,-157.677 1242.2192,-144.9458"/>
<polygon fill="#191970" stroke="#191970" points="1242.8659,-148.4044 1252.5435,-144.0922 1242.289,-141.4282 1242.8659,-148.4044"/>
</g>
<!-- Node53&#45;&gt;Node54 -->
<g id="edge107" class="edge">
<title>Node53&#45;&gt;Node54</title>
<path fill="none" stroke="#191970" d="M606.6209,-259.2648C603.2511,-258.4603 599.8985,-257.6961 596.6366,-257 498.0239,-235.9562 471.4161,-241.2464 372.6366,-221 367.3379,-219.9139 361.8089,-218.6794 356.3295,-217.3924"/>
<polygon fill="#191970" stroke="#191970" points="357.1226,-213.9834 346.5805,-215.0397 355.4804,-220.7881 357.1226,-213.9834"/>
</g>
<!-- Node57&#45;&gt;Node15 -->
<g id="edge115" class="edge">
<title>Node57&#45;&gt;Node15</title>
<path fill="none" stroke="#191970" d="M2700.4963,-123.3604C2699.4372,-104.4788 2694.572,-72.6596 2674.6366,-56 2652.1613,-37.2179 2472.8282,-21.5096 2375.6748,-14.277"/>
<polygon fill="#191970" stroke="#191970" points="2375.9096,-10.7849 2365.6796,-13.5412 2375.3956,-17.766 2375.9096,-10.7849"/>
</g>
<!-- Node57&#45;&gt;Node17 -->
<g id="edge114" class="edge">
<title>Node57&#45;&gt;Node17</title>
<path fill="none" stroke="#191970" d="M2650.9018,-133.4274C2615.9044,-130.0214 2567.9479,-125.6823 2525.6366,-123 2108.3901,-96.5488 2002.915,-112.9418 1585.6366,-87 1548.1877,-84.6718 1506.4335,-81.135 1472.5747,-78.0274"/>
<polygon fill="#191970" stroke="#191970" points="1472.6141,-74.5162 1462.3338,-77.0786 1471.9682,-81.4863 1472.6141,-74.5162"/>
</g>
<!-- Node58&#45;&gt;Node11 -->
<g id="edge120" class="edge">
<title>Node58&#45;&gt;Node11</title>
<path fill="none" stroke="#191970" d="M1932.8557,-198.6447C1804.809,-186.0653 1533.1794,-159.3803 1399.001,-146.1986"/>
<polygon fill="#191970" stroke="#191970" points="1399.0933,-142.6909 1388.7989,-145.1963 1398.4088,-149.6573 1399.0933,-142.6909"/>
</g>
<!-- Node58&#45;&gt;Node13 -->
<g id="edge118" class="edge">
<title>Node58&#45;&gt;Node13</title>
<path fill="none" stroke="#191970" d="M2041.2992,-190.3339C2102.1161,-164.3675 2208.6061,-109.0488 2161.6366,-56 2143.0053,-34.9572 1981.963,-21.5396 1876.4701,-14.9242"/>
<polygon fill="#191970" stroke="#191970" points="1876.6378,-11.428 1866.4411,-14.3052 1876.2065,-18.4147 1876.6378,-11.428"/>
</g>
<!-- Node58&#45;&gt;Node14 -->
<g id="edge119" class="edge">
<title>Node58&#45;&gt;Node14</title>
<path fill="none" stroke="#191970" d="M2072.2135,-200.3161C2119.847,-194.3541 2183.1043,-181.5392 2232.6366,-154 2261.563,-137.9174 2286.83,-108.3269 2301.1513,-89.3009"/>
<polygon fill="#191970" stroke="#191970" points="2304.0314,-91.2918 2307.1031,-81.152 2298.3786,-87.1631 2304.0314,-91.2918"/>
</g>
<!-- Node58&#45;&gt;Node15 -->
<g id="edge121" class="edge">
<title>Node58&#45;&gt;Node15</title>
<path fill="none" stroke="#191970" d="M2072.302,-203.0031C2194.9662,-197.8865 2444.2204,-184.0648 2525.6366,-154 2574.4455,-135.9762 2597.5761,-133.133 2621.6366,-87 2628.0079,-74.7839 2630.6307,-66.4371 2621.6366,-56 2605.8237,-37.6501 2461.2057,-22.4484 2375.8743,-14.9801"/>
<polygon fill="#191970" stroke="#191970" points="2376.0386,-11.4813 2365.7745,-14.1079 2375.4363,-18.4554 2376.0386,-11.4813"/>
</g>
<!-- Node58&#45;&gt;Node38 -->
<g id="edge117" class="edge">
<title>Node58&#45;&gt;Node38</title>
<path fill="none" stroke="#191970" d="M1932.8041,-203.162C1710.5536,-195.563 1031.6109,-171.0685 987.6366,-154 985.2376,-153.0688 935.1999,-111.3379 906.8352,-87.5949"/>
<polygon fill="#191970" stroke="#191970" points="909.0493,-84.8839 899.1356,-81.1461 904.5546,-90.2503 909.0493,-84.8839"/>
</g>
</g>
</svg>
