<?xml version="1.0" encoding="UTF-8" standalone="no"?>
<!DOCTYPE svg PUBLIC "-//W3C//DTD SVG 1.1//EN"
 "http://www.w3.org/Graphics/SVG/1.1/DTD/svg11.dtd">
<!-- Generated by graphviz version 2.40.1 (20161225.0304)
 -->
<!-- Title: ThirdMomentAveraging.cpp Pages: 1 -->
<svg width="2266pt" height="464pt"
 viewBox="0.00 0.00 2266.00 464.00" xmlns="http://www.w3.org/2000/svg" xmlns:xlink="http://www.w3.org/1999/xlink">
<g id="graph0" class="graph" transform="scale(1 1) rotate(0) translate(4 460)">
<title>ThirdMomentAveraging.cpp</title>
<polygon fill="#ffffff" stroke="transparent" points="-4,4 -4,-460 2262,-460 2262,4 -4,4"/>
<!-- Node0 -->
<g id="node1" class="node">
<title>Node0</title>
<polygon fill="#bfbfbf" stroke="#000000" points="741.5,-436.5 741.5,-455.5 877.5,-455.5 877.5,-436.5 741.5,-436.5"/>
<text text-anchor="middle" x="809.5" y="-443.5" font-family="Helvetica,sans-Serif" font-size="10.00" fill="#000000">ThirdMomentAveraging.cpp</text>
</g>
<!-- Node1 -->
<g id="node2" class="node">
<title>Node1</title>
<g id="a_node2"><a xlink:href="_third_moment_averaging_8_h.html" target="_top" xlink:title="ThirdMomentAveraging.H">
<polygon fill="#ffffff" stroke="#000000" points="745.5,-380.5 745.5,-399.5 873.5,-399.5 873.5,-380.5 745.5,-380.5"/>
<text text-anchor="middle" x="809.5" y="-387.5" font-family="Helvetica,sans-Serif" font-size="10.00" fill="#000000">ThirdMomentAveraging.H</text>
</a>
</g>
</g>
<!-- Node0&#45;&gt;Node1 -->
<g id="edge1" class="edge">
<title>Node0&#45;&gt;Node1</title>
<path fill="none" stroke="#191970" d="M809.5,-436.2455C809.5,-428.9382 809.5,-418.6944 809.5,-409.7046"/>
<polygon fill="#191970" stroke="#191970" points="813.0001,-409.6426 809.5,-399.6427 806.0001,-409.6427 813.0001,-409.6426"/>
</g>
<!-- Node2 -->
<g id="node3" class="node">
<title>Node2</title>
<polygon fill="#ffffff" stroke="#bfbfbf" points="831.5,-129 831.5,-148 937.5,-148 937.5,-129 831.5,-129"/>
<text text-anchor="middle" x="884.5" y="-136" font-family="Helvetica,sans-Serif" font-size="10.00" fill="#000000">AMReX_AmrCore.H</text>
</g>
<!-- Node1&#45;&gt;Node2 -->
<g id="edge2" class="edge">
<title>Node1&#45;&gt;Node2</title>
<path fill="none" stroke="#191970" d="M812.3485,-380.448C823.4166,-343.3332 863.695,-208.2662 878.761,-157.7449"/>
<polygon fill="#191970" stroke="#191970" points="882.1449,-158.6447 881.6487,-148.0615 875.4368,-156.6443 882.1449,-158.6447"/>
</g>
<!-- Node3 -->
<g id="node4" class="node">
<title>Node3</title>
<g id="a_node4"><a xlink:href="_direction_selector_8_h.html" target="_top" xlink:title="amr&#45;wind/utilities\l/DirectionSelector.H">
<polygon fill="#ffffff" stroke="#000000" points="342,-246.5 342,-276.5 447,-276.5 447,-246.5 342,-246.5"/>
<text text-anchor="start" x="350" y="-264.5" font-family="Helvetica,sans-Serif" font-size="10.00" fill="#000000">amr&#45;wind/utilities</text>
<text text-anchor="middle" x="394.5" y="-253.5" font-family="Helvetica,sans-Serif" font-size="10.00" fill="#000000">/DirectionSelector.H</text>
</a>
</g>
</g>
<!-- Node1&#45;&gt;Node3 -->
<g id="edge3" class="edge">
<title>Node1&#45;&gt;Node3</title>
<path fill="none" stroke="#191970" d="M778.6466,-380.4466C709.6632,-359.0867 542.0121,-307.1754 452.7212,-279.5275"/>
<polygon fill="#191970" stroke="#191970" points="453.6069,-276.1379 443.0191,-276.5234 451.5364,-282.8247 453.6069,-276.1379"/>
</g>
<!-- Node6 -->
<g id="node7" class="node">
<title>Node6</title>
<g id="a_node7"><a xlink:href="_field_8_h.html" target="_top" xlink:title="amr&#45;wind/core/Field.H">
<polygon fill="#ffffff" stroke="#000000" points="1044,-129 1044,-148 1157,-148 1157,-129 1044,-129"/>
<text text-anchor="middle" x="1100.5" y="-136" font-family="Helvetica,sans-Serif" font-size="10.00" fill="#000000">amr&#45;wind/core/Field.H</text>
</a>
</g>
</g>
<!-- Node1&#45;&gt;Node6 -->
<g id="edge6" class="edge">
<title>Node1&#45;&gt;Node6</title>
<path fill="none" stroke="#191970" d="M820.5522,-380.448C864.3965,-342.5551 1026.3789,-202.56 1081.7781,-154.6806"/>
<polygon fill="#191970" stroke="#191970" points="1084.1595,-157.2485 1089.4368,-148.0615 1079.5822,-151.9524 1084.1595,-157.2485"/>
</g>
<!-- Node17 -->
<g id="node18" class="node">
<title>Node17</title>
<g id="a_node18"><a xlink:href="_field_plane_averaging_8_h.html" target="_top" xlink:title="amr&#45;wind/utilities\l/FieldPlaneAveraging.H">
<polygon fill="#ffffff" stroke="#000000" points="690,-313.5 690,-343.5 809,-343.5 809,-313.5 690,-313.5"/>
<text text-anchor="start" x="698" y="-331.5" font-family="Helvetica,sans-Serif" font-size="10.00" fill="#000000">amr&#45;wind/utilities</text>
<text text-anchor="middle" x="749.5" y="-320.5" font-family="Helvetica,sans-Serif" font-size="10.00" fill="#000000">/FieldPlaneAveraging.H</text>
</a>
</g>
</g>
<!-- Node1&#45;&gt;Node17 -->
<g id="edge21" class="edge">
<title>Node1&#45;&gt;Node17</title>
<path fill="none" stroke="#191970" d="M800.125,-380.3906C792.4559,-372.5298 781.3013,-361.0964 771.4134,-350.9612"/>
<polygon fill="#191970" stroke="#191970" points="773.6662,-348.2583 764.1777,-343.5446 768.6557,-353.1466 773.6662,-348.2583"/>
</g>
<!-- Node4 -->
<g id="node5" class="node">
<title>Node4</title>
<polygon fill="#ffffff" stroke="#bfbfbf" points="311.5,-190.5 311.5,-209.5 395.5,-209.5 395.5,-190.5 311.5,-190.5"/>
<text text-anchor="middle" x="353.5" y="-197.5" font-family="Helvetica,sans-Serif" font-size="10.00" fill="#000000">AMReX_Box.H</text>
</g>
<!-- Node3&#45;&gt;Node4 -->
<g id="edge4" class="edge">
<title>Node3&#45;&gt;Node4</title>
<path fill="none" stroke="#191970" d="M384.3652,-246.2977C378.7332,-237.8498 371.6849,-227.2773 365.746,-218.369"/>
<polygon fill="#191970" stroke="#191970" points="368.5238,-216.226 360.0646,-209.8469 362.6995,-220.1089 368.5238,-216.226"/>
</g>
<!-- Node5 -->
<g id="node6" class="node">
<title>Node5</title>
<polygon fill="#ffffff" stroke="#bfbfbf" points="485,-62 485,-81 570,-81 570,-62 485,-62"/>
<text text-anchor="middle" x="527.5" y="-69" font-family="Helvetica,sans-Serif" font-size="10.00" fill="#000000">AMReX_Gpu.H</text>
</g>
<!-- Node3&#45;&gt;Node5 -->
<g id="edge5" class="edge">
<title>Node3&#45;&gt;Node5</title>
<path fill="none" stroke="#191970" d="M341.8462,-253.5886C248.6941,-237.5175 70.5132,-196.2224 135.5,-123 180.2169,-72.6162 369.8304,-96.6587 436.5,-87 449.015,-85.1869 462.4604,-83.0189 475.0738,-80.8871"/>
<polygon fill="#191970" stroke="#191970" points="475.7109,-84.329 484.9773,-79.1926 474.5303,-77.4293 475.7109,-84.329"/>
</g>
<!-- Node6&#45;&gt;Node5 -->
<g id="edge13" class="edge">
<title>Node6&#45;&gt;Node5</title>
<path fill="none" stroke="#191970" d="M1043.7228,-132.654C925.1673,-120.4168 658.844,-92.7583 617.5,-87 605.477,-85.3255 592.5956,-83.2662 580.4445,-81.202"/>
<polygon fill="#191970" stroke="#191970" points="580.894,-77.7279 570.4442,-79.4753 579.7029,-84.6259 580.894,-77.7279"/>
</g>
<!-- Node7 -->
<g id="node8" class="node">
<title>Node7</title>
<polygon fill="#ffffff" stroke="#bfbfbf" points="1272,-.5 1272,-19.5 1313,-19.5 1313,-.5 1272,-.5"/>
<text text-anchor="middle" x="1292.5" y="-7.5" font-family="Helvetica,sans-Serif" font-size="10.00" fill="#000000">string</text>
</g>
<!-- Node6&#45;&gt;Node7 -->
<g id="edge7" class="edge">
<title>Node6&#45;&gt;Node7</title>
<path fill="none" stroke="#191970" d="M1119.6528,-128.8254C1138.6012,-119.0133 1168.2075,-103.0288 1192.5,-87 1221.8138,-67.658 1253.6209,-42.352 1273.3082,-26.1322"/>
<polygon fill="#191970" stroke="#191970" points="1275.7459,-28.6575 1281.2047,-19.5772 1271.2748,-23.2714 1275.7459,-28.6575"/>
</g>
<!-- Node8 -->
<g id="node9" class="node">
<title>Node8</title>
<polygon fill="#ffffff" stroke="#bfbfbf" points="364.5,-.5 364.5,-19.5 416.5,-19.5 416.5,-.5 364.5,-.5"/>
<text text-anchor="middle" x="390.5" y="-7.5" font-family="Helvetica,sans-Serif" font-size="10.00" fill="#000000">memory</text>
</g>
<!-- Node6&#45;&gt;Node8 -->
<g id="edge8" class="edge">
<title>Node6&#45;&gt;Node8</title>
<path fill="none" stroke="#191970" d="M1089.3398,-128.6854C1064.9407,-107.273 1008.6122,-58.1005 1003.5,-56 950.2047,-34.1023 550.6021,-16.4147 426.8923,-11.4171"/>
<polygon fill="#191970" stroke="#191970" points="426.926,-7.9157 416.794,-11.0127 426.6458,-14.9101 426.926,-7.9157"/>
</g>
<!-- Node9 -->
<g id="node10" class="node">
<title>Node9</title>
<polygon fill="#ffffff" stroke="#bfbfbf" points="786,-.5 786,-19.5 869,-19.5 869,-.5 786,-.5"/>
<text text-anchor="middle" x="827.5" y="-7.5" font-family="Helvetica,sans-Serif" font-size="10.00" fill="#000000">unordered_map</text>
</g>
<!-- Node6&#45;&gt;Node9 -->
<g id="edge9" class="edge">
<title>Node6&#45;&gt;Node9</title>
<path fill="none" stroke="#191970" d="M1116.1466,-128.908C1140.1184,-113.0576 1181.0114,-80.6974 1159.5,-56 1141.3943,-35.2127 968.1803,-19.9951 879.4082,-13.4915"/>
<polygon fill="#191970" stroke="#191970" points="879.5017,-9.9893 869.2757,-12.7602 878.9977,-16.9711 879.5017,-9.9893"/>
</g>
<!-- Node10 -->
<g id="node11" class="node">
<title>Node10</title>
<polygon fill="#ffffff" stroke="#bfbfbf" points="938.5,-62 938.5,-81 994.5,-81 994.5,-62 938.5,-62"/>
<text text-anchor="middle" x="966.5" y="-69" font-family="Helvetica,sans-Serif" font-size="10.00" fill="#000000">algorithm</text>
</g>
<!-- Node6&#45;&gt;Node10 -->
<g id="edge10" class="edge">
<title>Node6&#45;&gt;Node10</title>
<path fill="none" stroke="#191970" d="M1081.3011,-128.9005C1058.6138,-117.5569 1020.6687,-98.5844 994.6565,-85.5783"/>
<polygon fill="#191970" stroke="#191970" points="996.1729,-82.4234 985.6633,-81.0817 993.0423,-88.6843 996.1729,-82.4234"/>
</g>
<!-- Node11 -->
<g id="node12" class="node">
<title>Node11</title>
<polygon fill="#ffffff" stroke="#bfbfbf" points="1536.5,-.5 1536.5,-19.5 1640.5,-19.5 1640.5,-.5 1536.5,-.5"/>
<text text-anchor="middle" x="1588.5" y="-7.5" font-family="Helvetica,sans-Serif" font-size="10.00" fill="#000000">AMReX_MultiFab.H</text>
</g>
<!-- Node6&#45;&gt;Node11 -->
<g id="edge11" class="edge">
<title>Node6&#45;&gt;Node11</title>
<path fill="none" stroke="#191970" d="M1136.7806,-128.9466C1224.143,-105.9424 1446.0799,-47.502 1542.5528,-22.0988"/>
<polygon fill="#191970" stroke="#191970" points="1543.5331,-25.4601 1552.3122,-19.529 1541.7505,-18.6908 1543.5331,-25.4601"/>
</g>
<!-- Node12 -->
<g id="node13" class="node">
<title>Node12</title>
<polygon fill="#ffffff" stroke="#bfbfbf" points="1051,-62 1051,-81 1150,-81 1150,-62 1051,-62"/>
<text text-anchor="middle" x="1100.5" y="-69" font-family="Helvetica,sans-Serif" font-size="10.00" fill="#000000">AMReX_BCRec.H</text>
</g>
<!-- Node6&#45;&gt;Node12 -->
<g id="edge12" class="edge">
<title>Node6&#45;&gt;Node12</title>
<path fill="none" stroke="#191970" d="M1100.5,-128.9005C1100.5,-119.149 1100.5,-103.7597 1100.5,-91.3695"/>
<polygon fill="#191970" stroke="#191970" points="1104.0001,-91.0816 1100.5,-81.0817 1097.0001,-91.0817 1104.0001,-91.0816"/>
</g>
<!-- Node13 -->
<g id="node14" class="node">
<title>Node13</title>
<g id="a_node14"><a xlink:href="incflo__enums_8_h.html" target="_top" xlink:title="amr&#45;wind/incflo_enums.H">
<polygon fill="#ffffff" stroke="#000000" points="754.5,-62 754.5,-81 882.5,-81 882.5,-62 754.5,-62"/>
<text text-anchor="middle" x="818.5" y="-69" font-family="Helvetica,sans-Serif" font-size="10.00" fill="#000000">amr&#45;wind/incflo_enums.H</text>
</a>
</g>
</g>
<!-- Node6&#45;&gt;Node13 -->
<g id="edge14" class="edge">
<title>Node6&#45;&gt;Node13</title>
<path fill="none" stroke="#191970" d="M1060.3958,-128.9717C1010.0066,-116.9998 923.5152,-96.4504 868.7611,-83.4415"/>
<polygon fill="#191970" stroke="#191970" points="869.4607,-80.0103 858.9225,-81.1039 867.8426,-86.8207 869.4607,-80.0103"/>
</g>
<!-- Node14 -->
<g id="node15" class="node">
<title>Node14</title>
<g id="a_node15"><a xlink:href="_field_desc_types_8_h.html" target="_top" xlink:title="amr&#45;wind/core/FieldDescTypes.H">
<polygon fill="#ffffff" stroke="#000000" points="1659,-.5 1659,-19.5 1822,-19.5 1822,-.5 1659,-.5"/>
<text text-anchor="middle" x="1740.5" y="-7.5" font-family="Helvetica,sans-Serif" font-size="10.00" fill="#000000">amr&#45;wind/core/FieldDescTypes.H</text>
</a>
</g>
</g>
<!-- Node6&#45;&gt;Node14 -->
<g id="edge15" class="edge">
<title>Node6&#45;&gt;Node14</title>
<path fill="none" stroke="#191970" d="M1157.198,-134.7538C1265.898,-127.1811 1499.7285,-108.8956 1577.5,-87 1629.3733,-72.3957 1685.2072,-42.6025 1716.2063,-24.6597"/>
<polygon fill="#191970" stroke="#191970" points="1718.1437,-27.581 1724.9975,-19.5016 1714.6013,-21.5434 1718.1437,-27.581"/>
</g>
<!-- Node15 -->
<g id="node16" class="node">
<title>Node15</title>
<g id="a_node16"><a xlink:href="_view_field_8_h.html" target="_top" xlink:title="amr&#45;wind/core/ViewField.H">
<polygon fill="#ffffff" stroke="#000000" points="1434.5,-62 1434.5,-81 1568.5,-81 1568.5,-62 1434.5,-62"/>
<text text-anchor="middle" x="1501.5" y="-69" font-family="Helvetica,sans-Serif" font-size="10.00" fill="#000000">amr&#45;wind/core/ViewField.H</text>
</a>
</g>
</g>
<!-- Node6&#45;&gt;Node15 -->
<g id="edge16" class="edge">
<title>Node6&#45;&gt;Node15</title>
<path fill="none" stroke="#191970" d="M1157.103,-129.0426C1230.0377,-116.8565 1356.6649,-95.6994 1434.3751,-82.7154"/>
<polygon fill="#191970" stroke="#191970" points="1435.2507,-86.1177 1444.5371,-81.0175 1434.097,-79.2134 1435.2507,-86.1177"/>
</g>
<!-- Node15&#45;&gt;Node7 -->
<g id="edge17" class="edge">
<title>Node15&#45;&gt;Node7</title>
<path fill="none" stroke="#191970" d="M1468.8438,-61.8906C1428.9012,-50.1372 1361.8172,-30.3972 1322.9205,-18.9515"/>
<polygon fill="#191970" stroke="#191970" points="1323.789,-15.5587 1313.2077,-16.0934 1321.8129,-22.274 1323.789,-15.5587"/>
</g>
<!-- Node15&#45;&gt;Node11 -->
<g id="edge19" class="edge">
<title>Node15&#45;&gt;Node11</title>
<path fill="none" stroke="#191970" d="M1515.0938,-61.8906C1528.8843,-52.1421 1550.4472,-36.8994 1566.641,-25.4521"/>
<polygon fill="#191970" stroke="#191970" points="1568.8563,-28.1723 1575.0017,-19.5419 1564.8156,-22.4563 1568.8563,-28.1723"/>
</g>
<!-- Node15&#45;&gt;Node14 -->
<g id="edge18" class="edge">
<title>Node15&#45;&gt;Node14</title>
<path fill="none" stroke="#191970" d="M1538.5815,-61.9581C1580.2698,-51.2308 1648.0497,-33.7895 1693.4384,-22.11"/>
<polygon fill="#191970" stroke="#191970" points="1694.5192,-25.446 1703.3315,-19.5643 1692.7747,-18.6668 1694.5192,-25.446"/>
</g>
<!-- Node16 -->
<g id="node17" class="node">
<title>Node16</title>
<polygon fill="#ffffff" stroke="#bfbfbf" points="1423,-.5 1423,-19.5 1518,-19.5 1518,-.5 1423,-.5"/>
<text text-anchor="middle" x="1470.5" y="-7.5" font-family="Helvetica,sans-Serif" font-size="10.00" fill="#000000">AMReX_Vector.H</text>
</g>
<!-- Node15&#45;&gt;Node16 -->
<g id="edge20" class="edge">
<title>Node15&#45;&gt;Node16</title>
<path fill="none" stroke="#191970" d="M1496.6563,-61.8906C1492.2234,-53.0965 1485.5369,-39.8312 1480.0341,-28.9145"/>
<polygon fill="#191970" stroke="#191970" points="1483.0386,-27.0992 1475.412,-19.7449 1476.7878,-30.25 1483.0386,-27.0992"/>
</g>
<!-- Node17&#45;&gt;Node3 -->
<g id="edge22" class="edge">
<title>Node17&#45;&gt;Node3</title>
<path fill="none" stroke="#191970" d="M689.6805,-317.2101C625.1573,-305.0325 522.8745,-285.7284 457.2388,-273.3408"/>
<polygon fill="#191970" stroke="#191970" points="457.5063,-269.8296 447.0307,-271.4142 456.2081,-276.7082 457.5063,-269.8296"/>
</g>
<!-- Node17&#45;&gt;Node6 -->
<g id="edge74" class="edge">
<title>Node17&#45;&gt;Node6</title>
<path fill="none" stroke="#191970" d="M776.1092,-313.4894C821.7867,-287.7958 918.157,-233.9099 1000.5,-190 1024.747,-177.0702 1052.5518,-162.7946 1072.6774,-152.5593"/>
<polygon fill="#191970" stroke="#191970" points="1074.284,-155.669 1081.6169,-148.0218 1071.1157,-149.427 1074.284,-155.669"/>
</g>
<!-- Node18 -->
<g id="node19" class="node">
<title>Node18</title>
<g id="a_node19"><a xlink:href="_c_f_d_sim_8_h.html" target="_top" xlink:title="amr&#45;wind/CFDSim.H">
<polygon fill="#ffffff" stroke="#000000" points="695.5,-252 695.5,-271 803.5,-271 803.5,-252 695.5,-252"/>
<text text-anchor="middle" x="749.5" y="-259" font-family="Helvetica,sans-Serif" font-size="10.00" fill="#000000">amr&#45;wind/CFDSim.H</text>
</a>
</g>
</g>
<!-- Node17&#45;&gt;Node18 -->
<g id="edge23" class="edge">
<title>Node17&#45;&gt;Node18</title>
<path fill="none" stroke="#191970" d="M749.5,-313.2967C749.5,-303.7699 749.5,-291.3954 749.5,-281.1306"/>
<polygon fill="#191970" stroke="#191970" points="753.0001,-281.0549 749.5,-271.055 746.0001,-281.055 753.0001,-281.0549"/>
</g>
<!-- Node19 -->
<g id="node20" class="node">
<title>Node19</title>
<g id="a_node20"><a xlink:href="_sim_time_8_h.html" target="_top" xlink:title="amr&#45;wind/core/SimTime.H">
<polygon fill="#ffffff" stroke="#000000" points="414,-190.5 414,-209.5 545,-209.5 545,-190.5 414,-190.5"/>
<text text-anchor="middle" x="479.5" y="-197.5" font-family="Helvetica,sans-Serif" font-size="10.00" fill="#000000">amr&#45;wind/core/SimTime.H</text>
</a>
</g>
</g>
<!-- Node17&#45;&gt;Node19 -->
<g id="edge75" class="edge">
<title>Node17&#45;&gt;Node19</title>
<path fill="none" stroke="#191970" d="M717.7336,-313.3816C664.9572,-288.2639 559.9684,-238.297 508.8419,-213.9646"/>
<polygon fill="#191970" stroke="#191970" points="510.19,-210.73 499.6563,-209.5929 507.1818,-217.0507 510.19,-210.73"/>
</g>
<!-- Node18&#45;&gt;Node2 -->
<g id="edge24" class="edge">
<title>Node18&#45;&gt;Node2</title>
<path fill="none" stroke="#191970" d="M758.5419,-251.9503C771.9199,-237.9545 797.9473,-211.2312 821.5,-190 835.3114,-177.55 851.575,-164.288 864.1179,-154.3403"/>
<polygon fill="#191970" stroke="#191970" points="866.4376,-156.9686 872.1312,-148.0336 862.1084,-151.4679 866.4376,-156.9686"/>
</g>
<!-- Node18&#45;&gt;Node19 -->
<g id="edge25" class="edge">
<title>Node18&#45;&gt;Node19</title>
<path fill="none" stroke="#191970" d="M707.6087,-251.9581C660.1174,-241.1406 582.6528,-223.4959 531.3785,-211.8168"/>
<polygon fill="#191970" stroke="#191970" points="532.0171,-208.3727 521.4895,-209.5643 530.4625,-215.1978 532.0171,-208.3727"/>
</g>
<!-- Node23 -->
<g id="node24" class="node">
<title>Node23</title>
<g id="a_node24"><a xlink:href="_field_repo_8_h.html" target="_top" xlink:title="amr&#45;wind/core/FieldRepo.H">
<polygon fill="#ffffff" stroke="#000000" points="1585.5,-190.5 1585.5,-209.5 1721.5,-209.5 1721.5,-190.5 1585.5,-190.5"/>
<text text-anchor="middle" x="1653.5" y="-197.5" font-family="Helvetica,sans-Serif" font-size="10.00" fill="#000000">amr&#45;wind/core/FieldRepo.H</text>
</a>
</g>
</g>
<!-- Node18&#45;&gt;Node23 -->
<g id="edge29" class="edge">
<title>Node18&#45;&gt;Node23</title>
<path fill="none" stroke="#191970" d="M803.6773,-257.8143C957.1605,-247.3727 1395.383,-217.56 1575.1276,-205.3318"/>
<polygon fill="#191970" stroke="#191970" points="1575.56,-208.8105 1585.2993,-204.6398 1575.0848,-201.8267 1575.56,-208.8105"/>
</g>
<!-- Node30 -->
<g id="node31" class="node">
<title>Node30</title>
<g id="a_node31"><a xlink:href="_p_d_e_base_8_h.html" target="_top" xlink:title="amr&#45;wind/equation_systems\l/PDEBase.H">
<polygon fill="#ffffff" stroke="#000000" points="529,-123.5 529,-153.5 668,-153.5 668,-123.5 529,-123.5"/>
<text text-anchor="start" x="537" y="-141.5" font-family="Helvetica,sans-Serif" font-size="10.00" fill="#000000">amr&#45;wind/equation_systems</text>
<text text-anchor="middle" x="598.5" y="-130.5" font-family="Helvetica,sans-Serif" font-size="10.00" fill="#000000">/PDEBase.H</text>
</a>
</g>
</g>
<!-- Node18&#45;&gt;Node30 -->
<g id="edge52" class="edge">
<title>Node18&#45;&gt;Node30</title>
<path fill="none" stroke="#191970" d="M737.6513,-251.8484C713.5522,-232.218 658.3059,-187.2161 625.1312,-160.193"/>
<polygon fill="#191970" stroke="#191970" points="627.1687,-157.3384 617.2049,-153.7365 622.7478,-162.7658 627.1687,-157.3384"/>
</g>
<!-- Node38 -->
<g id="node39" class="node">
<title>Node38</title>
<g id="a_node39"><a xlink:href="_physics_8_h.html" target="_top" xlink:title="amr&#45;wind/core/Physics.H">
<polygon fill="#ffffff" stroke="#000000" points="686,-129 686,-148 813,-148 813,-129 686,-129"/>
<text text-anchor="middle" x="749.5" y="-136" font-family="Helvetica,sans-Serif" font-size="10.00" fill="#000000">amr&#45;wind/core/Physics.H</text>
</a>
</g>
</g>
<!-- Node18&#45;&gt;Node38 -->
<g id="edge69" class="edge">
<title>Node18&#45;&gt;Node38</title>
<path fill="none" stroke="#191970" d="M749.5,-251.8484C749.5,-231.7295 749.5,-184.9608 749.5,-158.2098"/>
<polygon fill="#191970" stroke="#191970" points="753.0001,-158.1067 749.5,-148.1068 746.0001,-158.1068 753.0001,-158.1067"/>
</g>
<!-- Node20 -->
<g id="node21" class="node">
<title>Node20</title>
<polygon fill="#ffffff" stroke="#bfbfbf" points="145,-129 145,-148 238,-148 238,-129 145,-129"/>
<text text-anchor="middle" x="191.5" y="-136" font-family="Helvetica,sans-Serif" font-size="10.00" fill="#000000">AMReX_REAL.H</text>
</g>
<!-- Node19&#45;&gt;Node20 -->
<g id="edge26" class="edge">
<title>Node19&#45;&gt;Node20</title>
<path fill="none" stroke="#191970" d="M425.3444,-190.4396C378.1685,-181.8312 308.0294,-168.3567 247.5,-154 243.1306,-152.9636 238.5875,-151.819 234.0632,-150.6351"/>
<polygon fill="#191970" stroke="#191970" points="234.8288,-147.2169 224.2635,-148.0075 233.0158,-153.978 234.8288,-147.2169"/>
</g>
<!-- Node21 -->
<g id="node22" class="node">
<title>Node21</title>
<polygon fill="#ffffff" stroke="#bfbfbf" points="256.5,-129 256.5,-148 382.5,-148 382.5,-129 256.5,-129"/>
<text text-anchor="middle" x="319.5" y="-136" font-family="Helvetica,sans-Serif" font-size="10.00" fill="#000000">AMReX_GpuQualifiers.H</text>
</g>
<!-- Node19&#45;&gt;Node21 -->
<g id="edge27" class="edge">
<title>Node19&#45;&gt;Node21</title>
<path fill="none" stroke="#191970" d="M454.5,-190.3906C427.4942,-180.0103 384.2815,-163.4004 354.0406,-151.7766"/>
<polygon fill="#191970" stroke="#191970" points="354.9144,-148.3628 344.3244,-148.0419 352.4029,-154.8968 354.9144,-148.3628"/>
</g>
<!-- Node22 -->
<g id="node23" class="node">
<title>Node22</title>
<polygon fill="#ffffff" stroke="#bfbfbf" points="400.5,-129 400.5,-148 510.5,-148 510.5,-129 400.5,-129"/>
<text text-anchor="middle" x="455.5" y="-136" font-family="Helvetica,sans-Serif" font-size="10.00" fill="#000000">AMReX_Extension.H</text>
</g>
<!-- Node19&#45;&gt;Node22 -->
<g id="edge28" class="edge">
<title>Node19&#45;&gt;Node22</title>
<path fill="none" stroke="#191970" d="M475.75,-190.3906C472.3532,-181.6862 467.2469,-168.6015 463.012,-157.7494"/>
<polygon fill="#191970" stroke="#191970" points="466.1989,-156.2882 459.3029,-148.2449 459.6778,-158.8331 466.1989,-156.2882"/>
</g>
<!-- Node23&#45;&gt;Node2 -->
<g id="edge49" class="edge">
<title>Node23&#45;&gt;Node2</title>
<path fill="none" stroke="#191970" d="M1585.3204,-195.5515C1471.3835,-187.977 1235.103,-171.6696 1035.5,-154 1006.6369,-151.4449 974.7119,-148.2253 947.6796,-145.3834"/>
<polygon fill="#191970" stroke="#191970" points="947.8881,-141.886 937.5754,-144.3149 947.1519,-148.8472 947.8881,-141.886"/>
</g>
<!-- Node23&#45;&gt;Node6 -->
<g id="edge37" class="edge">
<title>Node23&#45;&gt;Node6</title>
<path fill="none" stroke="#191970" d="M1585.4142,-192.4281C1478.6869,-180.5588 1273.2716,-157.7142 1167.3265,-145.9319"/>
<polygon fill="#191970" stroke="#191970" points="1167.4065,-142.4193 1157.0809,-144.7924 1166.6327,-149.3764 1167.4065,-142.4193"/>
</g>
<!-- Node23&#45;&gt;Node7 -->
<g id="edge30" class="edge">
<title>Node23&#45;&gt;Node7</title>
<path fill="none" stroke="#191970" d="M1590.7647,-190.4611C1522.3237,-177.3275 1412.6474,-147.9924 1338.5,-87 1319.8766,-71.6808 1306.9519,-46.7189 1299.6461,-29.3862"/>
<polygon fill="#191970" stroke="#191970" points="1302.7597,-27.7425 1295.8227,-19.7344 1296.2517,-30.3206 1302.7597,-27.7425"/>
</g>
<!-- Node23&#45;&gt;Node9 -->
<g id="edge31" class="edge">
<title>Node23&#45;&gt;Node9</title>
<path fill="none" stroke="#191970" d="M1585.3794,-193.2308C1530.9361,-186.6328 1453.1423,-174.5233 1387.5,-154 1288.812,-123.1449 1275.7881,-84.8659 1176.5,-56 1073.7929,-26.1401 948.4012,-15.6083 879.3455,-11.9331"/>
<polygon fill="#191970" stroke="#191970" points="879.3303,-8.428 869.1667,-11.4196 878.9776,-15.4191 879.3303,-8.428"/>
</g>
<!-- Node23&#45;&gt;Node11 -->
<g id="edge50" class="edge">
<title>Node23&#45;&gt;Node11</title>
<path fill="none" stroke="#191970" d="M1703.0906,-190.4961C1756.2669,-177.3701 1838.09,-148.0194 1875.5,-87 1882.7013,-75.254 1884.4397,-66.4838 1875.5,-56 1842.6449,-17.4702 1700.495,-28.0314 1650.5,-20 1650.3991,-19.9838 1650.2981,-19.9676 1650.197,-19.9513"/>
<polygon fill="#191970" stroke="#191970" points="1651.0233,-16.5393 1640.5944,-18.4072 1649.9119,-23.4505 1651.0233,-16.5393"/>
</g>
<!-- Node23&#45;&gt;Node14 -->
<g id="edge32" class="edge">
<title>Node23&#45;&gt;Node14</title>
<path fill="none" stroke="#191970" d="M1721.5969,-197.5965C1813.948,-193.3177 1973.1664,-182.0263 2023.5,-154 2056.9147,-135.3943 2064.775,-123.0665 2077.5,-87 2082.0841,-74.0072 2086.5596,-66.3803 2077.5,-56 2061.5079,-37.6767 1926.5312,-23.8863 1832.3364,-16.3831"/>
<polygon fill="#191970" stroke="#191970" points="1832.4533,-12.8816 1822.21,-15.588 1831.9053,-19.8601 1832.4533,-12.8816"/>
</g>
<!-- Node24 -->
<g id="node25" class="node">
<title>Node24</title>
<g id="a_node25"><a xlink:href="_field_utils_8_h.html" target="_top" xlink:title="amr&#45;wind/core/FieldUtils.H">
<polygon fill="#ffffff" stroke="#000000" points="2125,-62 2125,-81 2258,-81 2258,-62 2125,-62"/>
<text text-anchor="middle" x="2191.5" y="-69" font-family="Helvetica,sans-Serif" font-size="10.00" fill="#000000">amr&#45;wind/core/FieldUtils.H</text>
</a>
</g>
</g>
<!-- Node23&#45;&gt;Node24 -->
<g id="edge33" class="edge">
<title>Node23&#45;&gt;Node24</title>
<path fill="none" stroke="#191970" d="M1721.8797,-198.7717C1832.1222,-195.8563 2043.5514,-186.1292 2110.5,-154 2140.4947,-139.6053 2165.6043,-109.2661 2179.5806,-89.6637"/>
<polygon fill="#191970" stroke="#191970" points="2182.5747,-91.4868 2185.3584,-81.2642 2176.8074,-87.5196 2182.5747,-91.4868"/>
</g>
<!-- Node26 -->
<g id="node27" class="node">
<title>Node26</title>
<g id="a_node27"><a xlink:href="_int_field_8_h.html" target="_top" xlink:title="amr&#45;wind/core/IntField.H">
<polygon fill="#ffffff" stroke="#000000" points="1870.5,-129 1870.5,-148 1994.5,-148 1994.5,-129 1870.5,-129"/>
<text text-anchor="middle" x="1932.5" y="-136" font-family="Helvetica,sans-Serif" font-size="10.00" fill="#000000">amr&#45;wind/core/IntField.H</text>
</a>
</g>
</g>
<!-- Node23&#45;&gt;Node26 -->
<g id="edge38" class="edge">
<title>Node23&#45;&gt;Node26</title>
<path fill="none" stroke="#191970" d="M1696.7876,-190.4581C1745.9642,-179.6181 1826.2424,-161.9224 1879.223,-150.2439"/>
<polygon fill="#191970" stroke="#191970" points="1880.0987,-153.6349 1889.1108,-148.0643 1878.5918,-146.799 1880.0987,-153.6349"/>
</g>
<!-- Node27 -->
<g id="node28" class="node">
<title>Node27</title>
<polygon fill="#ffffff" stroke="#bfbfbf" points="1961,-62 1961,-81 2068,-81 2068,-62 1961,-62"/>
<text text-anchor="middle" x="2014.5" y="-69" font-family="Helvetica,sans-Serif" font-size="10.00" fill="#000000">AMReX_iMultiFab.H</text>
</g>
<!-- Node23&#45;&gt;Node27 -->
<g id="edge51" class="edge">
<title>Node23&#45;&gt;Node27</title>
<path fill="none" stroke="#191970" d="M1721.764,-195.4548C1817.9573,-188.392 1983.9263,-173.5371 2003.5,-154 2019.6675,-137.8628 2020.0621,-110.1956 2017.9988,-91.3923"/>
<polygon fill="#191970" stroke="#191970" points="2021.4305,-90.6638 2016.5582,-81.2558 2014.5001,-91.6488 2021.4305,-90.6638"/>
</g>
<!-- Node28 -->
<g id="node29" class="node">
<title>Node28</title>
<g id="a_node29"><a xlink:href="_scratch_field_8_h.html" target="_top" xlink:title="amr&#45;wind/core/ScratchField.H">
<polygon fill="#ffffff" stroke="#000000" points="1580.5,-129 1580.5,-148 1726.5,-148 1726.5,-129 1580.5,-129"/>
<text text-anchor="middle" x="1653.5" y="-136" font-family="Helvetica,sans-Serif" font-size="10.00" fill="#000000">amr&#45;wind/core/ScratchField.H</text>
</a>
</g>
</g>
<!-- Node23&#45;&gt;Node28 -->
<g id="edge42" class="edge">
<title>Node23&#45;&gt;Node28</title>
<path fill="none" stroke="#191970" d="M1653.5,-190.3906C1653.5,-181.8657 1653.5,-169.1392 1653.5,-158.4235"/>
<polygon fill="#191970" stroke="#191970" points="1657.0001,-158.2448 1653.5,-148.2449 1650.0001,-158.2449 1657.0001,-158.2448"/>
</g>
<!-- Node24&#45;&gt;Node11 -->
<g id="edge35" class="edge">
<title>Node24&#45;&gt;Node11</title>
<path fill="none" stroke="#191970" d="M2125.862,-61.9929C2110.045,-59.8632 2093.1846,-57.7263 2077.5,-56 1888.1921,-35.1639 1839.5352,-43.1796 1650.5,-20 1650.3985,-19.9876 1650.297,-19.9751 1650.1954,-19.9625"/>
<polygon fill="#191970" stroke="#191970" points="1650.9267,-16.5288 1640.5545,-18.6894 1650.0102,-23.4686 1650.9267,-16.5288"/>
</g>
<!-- Node24&#45;&gt;Node14 -->
<g id="edge34" class="edge">
<title>Node24&#45;&gt;Node14</title>
<path fill="none" stroke="#191970" d="M2144.4764,-61.9626C2133.3603,-59.8577 2121.5315,-57.7393 2110.5,-56 2016.1493,-41.1239 1907.6373,-28.1139 1832.6366,-19.7613"/>
<polygon fill="#191970" stroke="#191970" points="1832.6057,-16.2366 1822.281,-18.6139 1831.8348,-23.194 1832.6057,-16.2366"/>
</g>
<!-- Node25 -->
<g id="node26" class="node">
<title>Node25</title>
<polygon fill="#ffffff" stroke="#bfbfbf" points="2133.5,-.5 2133.5,-19.5 2249.5,-19.5 2249.5,-.5 2133.5,-.5"/>
<text text-anchor="middle" x="2191.5" y="-7.5" font-family="Helvetica,sans-Serif" font-size="10.00" fill="#000000">AMReX_Interpolater.H</text>
</g>
<!-- Node24&#45;&gt;Node25 -->
<g id="edge36" class="edge">
<title>Node24&#45;&gt;Node25</title>
<path fill="none" stroke="#191970" d="M2191.5,-61.8906C2191.5,-53.3657 2191.5,-40.6392 2191.5,-29.9235"/>
<polygon fill="#191970" stroke="#191970" points="2195.0001,-29.7448 2191.5,-19.7449 2188.0001,-29.7449 2195.0001,-29.7448"/>
</g>
<!-- Node26&#45;&gt;Node7 -->
<g id="edge39" class="edge">
<title>Node26&#45;&gt;Node7</title>
<path fill="none" stroke="#191970" d="M1870.369,-133.0354C1739.5619,-121.4142 1446.0646,-94.6819 1425.5,-87 1403.0908,-78.629 1401.9511,-68.4097 1381.5,-56 1362.3041,-44.3519 1339.8362,-32.7541 1322.2777,-24.1178"/>
<polygon fill="#191970" stroke="#191970" points="1323.6035,-20.8706 1313.08,-19.643 1320.5411,-27.1652 1323.6035,-20.8706"/>
</g>
<!-- Node26&#45;&gt;Node14 -->
<g id="edge40" class="edge">
<title>Node26&#45;&gt;Node14</title>
<path fill="none" stroke="#191970" d="M1932.5645,-128.8412C1932.1351,-111.6958 1928.6986,-75.8813 1908.5,-56 1893.9159,-41.645 1847.7967,-29.6114 1807.5623,-21.4568"/>
<polygon fill="#191970" stroke="#191970" points="1808.2396,-18.0231 1797.7511,-19.5197 1806.8837,-24.8905 1808.2396,-18.0231"/>
</g>
<!-- Node26&#45;&gt;Node27 -->
<g id="edge41" class="edge">
<title>Node26&#45;&gt;Node27</title>
<path fill="none" stroke="#191970" d="M1944.2486,-128.9005C1957.4011,-118.1539 1978.9336,-100.5603 1994.6983,-87.6794"/>
<polygon fill="#191970" stroke="#191970" points="1997.2439,-90.1193 2002.7732,-81.0817 1992.8148,-84.6986 1997.2439,-90.1193"/>
</g>
<!-- Node28&#45;&gt;Node7 -->
<g id="edge43" class="edge">
<title>Node28&#45;&gt;Node7</title>
<path fill="none" stroke="#191970" d="M1580.4307,-133.1271C1526.5265,-127.0465 1452.4468,-114.1668 1392.5,-87 1359.6423,-72.1095 1327.6876,-44.5248 1309.0642,-26.7322"/>
<polygon fill="#191970" stroke="#191970" points="1311.3113,-24.0343 1301.7125,-19.5493 1306.4193,-29.0413 1311.3113,-24.0343"/>
</g>
<!-- Node28&#45;&gt;Node11 -->
<g id="edge46" class="edge">
<title>Node28&#45;&gt;Node11</title>
<path fill="none" stroke="#191970" d="M1655.3512,-128.9143C1657.9578,-112.7927 1661.0957,-79.693 1648.5,-56 1641.5771,-42.9778 1629.173,-32.5253 1617.4327,-24.8954"/>
<polygon fill="#191970" stroke="#191970" points="1619.0559,-21.787 1608.686,-19.6151 1615.4381,-27.7796 1619.0559,-21.787"/>
</g>
<!-- Node28&#45;&gt;Node14 -->
<g id="edge44" class="edge">
<title>Node28&#45;&gt;Node14</title>
<path fill="none" stroke="#191970" d="M1660.0391,-128.8416C1674.5247,-107.4463 1709.5107,-55.7715 1728.218,-28.1407"/>
<polygon fill="#191970" stroke="#191970" points="1731.1768,-30.0133 1733.885,-19.7705 1725.3804,-26.0889 1731.1768,-30.0133"/>
</g>
<!-- Node28&#45;&gt;Node15 -->
<g id="edge45" class="edge">
<title>Node28&#45;&gt;Node15</title>
<path fill="none" stroke="#191970" d="M1631.7221,-128.9005C1605.7616,-117.4574 1562.1887,-98.2509 1532.6654,-85.2374"/>
<polygon fill="#191970" stroke="#191970" points="1533.7997,-81.9125 1523.2375,-81.0817 1530.9763,-88.3178 1533.7997,-81.9125"/>
</g>
<!-- Node28&#45;&gt;Node16 -->
<g id="edge47" class="edge">
<title>Node28&#45;&gt;Node16</title>
<path fill="none" stroke="#191970" d="M1646.7799,-128.8761C1634.6468,-112.1018 1607.5366,-77.2716 1577.5,-56 1557.4141,-41.7754 1532.2385,-30.6781 1511.3542,-22.95"/>
<polygon fill="#191970" stroke="#191970" points="1512.3866,-19.6023 1501.792,-19.5328 1510.0309,-26.194 1512.3866,-19.6023"/>
</g>
<!-- Node29 -->
<g id="node30" class="node">
<title>Node29</title>
<polygon fill="#ffffff" stroke="#bfbfbf" points="1738.5,-62 1738.5,-81 1866.5,-81 1866.5,-62 1738.5,-62"/>
<text text-anchor="middle" x="1802.5" y="-69" font-family="Helvetica,sans-Serif" font-size="10.00" fill="#000000">AMReX_PhysBCFunct.H</text>
</g>
<!-- Node28&#45;&gt;Node29 -->
<g id="edge48" class="edge">
<title>Node28&#45;&gt;Node29</title>
<path fill="none" stroke="#191970" d="M1674.8481,-128.9005C1700.2962,-117.4574 1743.0091,-98.2509 1771.9497,-85.2374"/>
<polygon fill="#191970" stroke="#191970" points="1773.5066,-88.3749 1781.1915,-81.0817 1770.6358,-81.9907 1773.5066,-88.3749"/>
</g>
<!-- Node30&#45;&gt;Node7 -->
<g id="edge53" class="edge">
<title>Node30&#45;&gt;Node7</title>
<path fill="none" stroke="#191970" d="M542.9559,-123.4919C498.6605,-108.9416 448.2103,-84.8694 475.5,-56 503.0211,-26.8858 1116.5427,-13.3613 1261.8458,-10.5602"/>
<polygon fill="#191970" stroke="#191970" points="1261.9265,-14.0593 1271.8582,-10.3699 1261.7935,-7.0606 1261.9265,-14.0593"/>
</g>
<!-- Node30&#45;&gt;Node13 -->
<g id="edge68" class="edge">
<title>Node30&#45;&gt;Node13</title>
<path fill="none" stroke="#191970" d="M647.8723,-123.4639C686.8966,-111.5792 740.7258,-95.1858 777.4199,-84.0108"/>
<polygon fill="#191970" stroke="#191970" points="778.7421,-87.2669 787.2886,-81.0053 776.7027,-80.5705 778.7421,-87.2669"/>
</g>
<!-- Node30&#45;&gt;Node14 -->
<g id="edge67" class="edge">
<title>Node30&#45;&gt;Node14</title>
<path fill="none" stroke="#191970" d="M597.0106,-123.2087C596.1031,-104.167 597.8837,-72.1786 617.5,-56 660.2017,-20.7815 1527.949,-23.8609 1648.5434,-19.762"/>
<polygon fill="#191970" stroke="#191970" points="1648.8502,-23.2515 1658.6737,-19.2831 1648.5196,-16.2593 1648.8502,-23.2515"/>
</g>
<!-- Node31 -->
<g id="node32" class="node">
<title>Node31</title>
<g id="a_node32"><a xlink:href="_factory_8_h.html" target="_top" xlink:title="amr&#45;wind/core/Factory.H">
<polygon fill="#ffffff" stroke="#000000" points="160,-62 160,-81 285,-81 285,-62 160,-62"/>
<text text-anchor="middle" x="222.5" y="-69" font-family="Helvetica,sans-Serif" font-size="10.00" fill="#000000">amr&#45;wind/core/Factory.H</text>
</a>
</g>
</g>
<!-- Node30&#45;&gt;Node31 -->
<g id="edge54" class="edge">
<title>Node30&#45;&gt;Node31</title>
<path fill="none" stroke="#191970" d="M528.7385,-124.6721C525.618,-124.0979 522.5275,-123.5379 519.5,-123 419.3578,-105.2059 393.448,-105.8544 293.5,-87 287.3165,-85.8335 280.8475,-84.5332 274.4389,-83.1956"/>
<polygon fill="#191970" stroke="#191970" points="274.9768,-79.7318 264.4677,-81.0766 273.5217,-86.5789 274.9768,-79.7318"/>
</g>
<!-- Node35 -->
<g id="node36" class="node">
<title>Node35</title>
<g id="a_node36"><a xlink:href="_coll_mgr_8_h.html" target="_top" xlink:title="amr&#45;wind/core/CollMgr.H">
<polygon fill="#ffffff" stroke="#000000" points="303,-62 303,-81 428,-81 428,-62 303,-62"/>
<text text-anchor="middle" x="365.5" y="-69" font-family="Helvetica,sans-Serif" font-size="10.00" fill="#000000">amr&#45;wind/core/CollMgr.H</text>
</a>
</g>
</g>
<!-- Node30&#45;&gt;Node35 -->
<g id="edge60" class="edge">
<title>Node30&#45;&gt;Node35</title>
<path fill="none" stroke="#191970" d="M546.2103,-123.4639C504.7034,-111.5284 447.3824,-95.0456 408.5103,-83.8678"/>
<polygon fill="#191970" stroke="#191970" points="409.1335,-80.4052 398.5557,-81.0053 407.199,-87.1326 409.1335,-80.4052"/>
</g>
<!-- Node36 -->
<g id="node37" class="node">
<title>Node36</title>
<g id="a_node37"><a xlink:href="_p_d_e_fields_8_h.html" target="_top" xlink:title="amr&#45;wind/equation_systems\l/PDEFields.H">
<polygon fill="#ffffff" stroke="#000000" points="0,-56.5 0,-86.5 139,-86.5 139,-56.5 0,-56.5"/>
<text text-anchor="start" x="8" y="-74.5" font-family="Helvetica,sans-Serif" font-size="10.00" fill="#000000">amr&#45;wind/equation_systems</text>
<text text-anchor="middle" x="69.5" y="-63.5" font-family="Helvetica,sans-Serif" font-size="10.00" fill="#000000">/PDEFields.H</text>
</a>
</g>
</g>
<!-- Node30&#45;&gt;Node36 -->
<g id="edge65" class="edge">
<title>Node30&#45;&gt;Node36</title>
<path fill="none" stroke="#191970" d="M528.7759,-124.4412C525.6453,-123.9295 522.5424,-123.4458 519.5,-123 356.4624,-99.1096 313.5929,-110.5097 150.5,-87 150.1546,-86.9502 149.8084,-86.9 149.4615,-86.8493"/>
<polygon fill="#191970" stroke="#191970" points="149.6587,-83.3382 139.2409,-85.2667 148.5875,-90.2557 149.6587,-83.3382"/>
</g>
<!-- Node31&#45;&gt;Node8 -->
<g id="edge55" class="edge">
<title>Node31&#45;&gt;Node8</title>
<path fill="none" stroke="#191970" d="M248.75,-61.8906C277.2293,-51.4652 322.8743,-34.7559 354.6457,-23.1252"/>
<polygon fill="#191970" stroke="#191970" points="356.2469,-26.2663 364.4343,-19.5419 353.8406,-19.6929 356.2469,-26.2663"/>
</g>
<!-- Node31&#45;&gt;Node9 -->
<g id="edge56" class="edge">
<title>Node31&#45;&gt;Node9</title>
<path fill="none" stroke="#191970" d="M261.7646,-61.9816C272.0431,-59.7505 283.1464,-57.5694 293.5,-56 469.2574,-29.3589 680.074,-16.8628 775.7478,-12.2364"/>
<polygon fill="#191970" stroke="#191970" points="775.9176,-15.7324 785.7402,-11.7617 775.5853,-8.7402 775.9176,-15.7324"/>
</g>
<!-- Node32 -->
<g id="node33" class="node">
<title>Node32</title>
<polygon fill="#ffffff" stroke="#bfbfbf" points="106.5,-.5 106.5,-19.5 160.5,-19.5 160.5,-.5 106.5,-.5"/>
<text text-anchor="middle" x="133.5" y="-7.5" font-family="Helvetica,sans-Serif" font-size="10.00" fill="#000000">iostream</text>
</g>
<!-- Node31&#45;&gt;Node32 -->
<g id="edge57" class="edge">
<title>Node31&#45;&gt;Node32</title>
<path fill="none" stroke="#191970" d="M208.5938,-61.8906C194.4862,-52.1421 172.4276,-36.8994 155.8615,-25.4521"/>
<polygon fill="#191970" stroke="#191970" points="157.5253,-22.3474 147.3086,-19.5419 153.5458,-28.1063 157.5253,-22.3474"/>
</g>
<!-- Node33 -->
<g id="node34" class="node">
<title>Node33</title>
<polygon fill="#ffffff" stroke="#bfbfbf" points="179,-.5 179,-19.5 266,-19.5 266,-.5 179,-.5"/>
<text text-anchor="middle" x="222.5" y="-7.5" font-family="Helvetica,sans-Serif" font-size="10.00" fill="#000000">AMReX_Print.H</text>
</g>
<!-- Node31&#45;&gt;Node33 -->
<g id="edge58" class="edge">
<title>Node31&#45;&gt;Node33</title>
<path fill="none" stroke="#191970" d="M222.5,-61.8906C222.5,-53.3657 222.5,-40.6392 222.5,-29.9235"/>
<polygon fill="#191970" stroke="#191970" points="226.0001,-29.7448 222.5,-19.7449 219.0001,-29.7449 226.0001,-29.7448"/>
</g>
<!-- Node34 -->
<g id="node35" class="node">
<title>Node34</title>
<polygon fill="#ffffff" stroke="#bfbfbf" points="284.5,-.5 284.5,-19.5 346.5,-19.5 346.5,-.5 284.5,-.5"/>
<text text-anchor="middle" x="315.5" y="-7.5" font-family="Helvetica,sans-Serif" font-size="10.00" fill="#000000">AMReX.H</text>
</g>
<!-- Node31&#45;&gt;Node34 -->
<g id="edge59" class="edge">
<title>Node31&#45;&gt;Node34</title>
<path fill="none" stroke="#191970" d="M237.0313,-61.8906C251.9094,-52.0519 275.2504,-36.6167 292.6128,-25.1351"/>
<polygon fill="#191970" stroke="#191970" points="294.6602,-27.9773 301.0708,-19.5419 290.799,-22.1385 294.6602,-27.9773"/>
</g>
<!-- Node35&#45;&gt;Node7 -->
<g id="edge61" class="edge">
<title>Node35&#45;&gt;Node7</title>
<path fill="none" stroke="#191970" d="M407.2795,-61.9468C418.65,-59.6601 431.0016,-57.4607 442.5,-56 605.7752,-35.259 1128.3989,-15.7872 1261.45,-11.0774"/>
<polygon fill="#191970" stroke="#191970" points="1261.8603,-14.5653 1271.7309,-10.7155 1261.614,-7.5696 1261.8603,-14.5653"/>
</g>
<!-- Node35&#45;&gt;Node8 -->
<g id="edge62" class="edge">
<title>Node35&#45;&gt;Node8</title>
<path fill="none" stroke="#191970" d="M369.4063,-61.8906C372.9446,-53.1862 378.2636,-40.1015 382.675,-29.2494"/>
<polygon fill="#191970" stroke="#191970" points="386.0152,-30.3268 386.5387,-19.7449 379.5305,-27.6907 386.0152,-30.3268"/>
</g>
<!-- Node35&#45;&gt;Node9 -->
<g id="edge63" class="edge">
<title>Node35&#45;&gt;Node9</title>
<path fill="none" stroke="#191970" d="M409.7726,-61.9599C420.4582,-59.8314 431.8629,-57.7033 442.5,-56 561.2132,-36.9907 701.6728,-22.116 775.7554,-14.8591"/>
<polygon fill="#191970" stroke="#191970" points="776.145,-18.3379 785.7591,-13.8861 775.4672,-11.3708 776.145,-18.3379"/>
</g>
<!-- Node35&#45;&gt;Node16 -->
<g id="edge64" class="edge">
<title>Node35&#45;&gt;Node16</title>
<path fill="none" stroke="#191970" d="M425.3207,-61.9908C441.5641,-59.704 459.1752,-57.4935 475.5,-56 850.7173,-21.6727 946.2848,-40.7019 1322.5,-20 1352.2556,-18.3627 1385.3505,-16.1623 1412.6862,-14.2425"/>
<polygon fill="#191970" stroke="#191970" points="1413.134,-17.7197 1422.8619,-13.5222 1412.6397,-10.7371 1413.134,-17.7197"/>
</g>
<!-- Node37 -->
<g id="node38" class="node">
<title>Node37</title>
<polygon fill="#ffffff" stroke="#bfbfbf" points="43,-.5 43,-19.5 88,-19.5 88,-.5 43,-.5"/>
<text text-anchor="middle" x="65.5" y="-7.5" font-family="Helvetica,sans-Serif" font-size="10.00" fill="#000000">iosfwd</text>
</g>
<!-- Node36&#45;&gt;Node37 -->
<g id="edge66" class="edge">
<title>Node36&#45;&gt;Node37</title>
<path fill="none" stroke="#191970" d="M68.5112,-56.2977C67.9965,-48.3834 67.3604,-38.6043 66.8057,-30.0759"/>
<polygon fill="#191970" stroke="#191970" points="70.2822,-29.5986 66.1405,-19.8469 63.297,-30.053 70.2822,-29.5986"/>
</g>
<!-- Node38&#45;&gt;Node11 -->
<g id="edge72" class="edge">
<title>Node38&#45;&gt;Node11</title>
<path fill="none" stroke="#191970" d="M785.9711,-128.9628C815.5577,-120.3735 857.7438,-106.1535 891.5,-87 910.4569,-76.2437 909.1966,-63.9267 929.5,-56 1050.6069,-8.7187 1379.2977,-33.5542 1526.0582,-19.9636"/>
<polygon fill="#191970" stroke="#191970" points="1526.7125,-23.415 1536.3052,-18.9171 1526.0013,-16.4513 1526.7125,-23.415"/>
</g>
<!-- Node38&#45;&gt;Node31 -->
<g id="edge70" class="edge">
<title>Node38&#45;&gt;Node31</title>
<path fill="none" stroke="#191970" d="M709.2912,-128.9633C698.974,-126.7591 687.8627,-124.5954 677.5,-123 508.0811,-96.9165 462.8809,-113.3288 293.5,-87 286.6315,-85.9323 279.4309,-84.6063 272.3593,-83.1826"/>
<polygon fill="#191970" stroke="#191970" points="272.6495,-79.6676 262.1447,-81.0456 271.216,-86.5193 272.6495,-79.6676"/>
</g>
<!-- Node38&#45;&gt;Node35 -->
<g id="edge71" class="edge">
<title>Node38&#45;&gt;Node35</title>
<path fill="none" stroke="#191970" d="M706.9287,-128.9782C697.2708,-126.9176 687.0468,-124.8144 677.5,-123 595.7154,-107.4564 501.3501,-92.2575 438.003,-82.4486"/>
<polygon fill="#191970" stroke="#191970" points="438.5261,-78.988 428.1092,-80.9214 437.4582,-85.9061 438.5261,-78.988"/>
</g>
<!-- Node39 -->
<g id="node40" class="node">
<title>Node39</title>
<polygon fill="#ffffff" stroke="#bfbfbf" points="626.5,-62 626.5,-81 736.5,-81 736.5,-62 626.5,-62"/>
<text text-anchor="middle" x="681.5" y="-69" font-family="Helvetica,sans-Serif" font-size="10.00" fill="#000000">AMReX_Geometry.H</text>
</g>
<!-- Node38&#45;&gt;Node39 -->
<g id="edge73" class="edge">
<title>Node38&#45;&gt;Node39</title>
<path fill="none" stroke="#191970" d="M739.7573,-128.9005C729.0523,-118.353 711.653,-101.2096 698.6521,-88.3998"/>
<polygon fill="#191970" stroke="#191970" points="700.8044,-85.607 691.2247,-81.0817 695.8915,-90.5933 700.8044,-85.607"/>
</g>
</g>
</svg>
