<?xml version="1.0" encoding="UTF-8" standalone="no"?>
<!DOCTYPE svg PUBLIC "-//W3C//DTD SVG 1.1//EN"
 "http://www.w3.org/Graphics/SVG/1.1/DTD/svg11.dtd">
<!-- Generated by graphviz version 2.40.1 (20161225.0304)
 -->
<!-- Title: TransportModel.H Pages: 1 -->
<svg width="332pt" height="196pt"
 viewBox="0.00 0.00 331.50 196.00" xmlns="http://www.w3.org/2000/svg" xmlns:xlink="http://www.w3.org/1999/xlink">
<g id="graph0" class="graph" transform="scale(1 1) rotate(0) translate(4 192)">
<title>TransportModel.H</title>
<polygon fill="#ffffff" stroke="transparent" points="-4,4 -4,-192 327.5,-192 327.5,4 -4,4"/>
<!-- Node25 -->
<g id="node1" class="node">
<title>Node25</title>
<polygon fill="#bfbfbf" stroke="#000000" points="166.5,-168.5 166.5,-187.5 261.5,-187.5 261.5,-168.5 166.5,-168.5"/>
<text text-anchor="middle" x="214" y="-175.5" font-family="Helvetica,sans-Serif" font-size="10.00" fill="#000000">TransportModel.H</text>
</g>
<!-- Node26 -->
<g id="node2" class="node">
<title>Node26</title>
<g id="a_node2"><a xlink:href="_const_transport_8_h.html" target="_top" xlink:title="ConstTransport.H">
<polygon fill="#ffffff" stroke="#000000" points="228.5,-112.5 228.5,-131.5 323.5,-131.5 323.5,-112.5 228.5,-112.5"/>
<text text-anchor="middle" x="276" y="-119.5" font-family="Helvetica,sans-Serif" font-size="10.00" fill="#000000">ConstTransport.H</text>
</a>
</g>
</g>
<!-- Node25&#45;&gt;Node26 -->
<g id="edge1" class="edge">
<title>Node25&#45;&gt;Node26</title>
<path fill="none" stroke="#191970" d="M232.4221,-161.3607C243.1481,-151.6727 256.2934,-139.7995 265.3242,-131.6427"/>
<polygon fill="#191970" stroke="#191970" points="229.8746,-158.9453 224.7996,-168.2455 234.5666,-164.14 229.8746,-158.9453"/>
</g>
<!-- Node32 -->
<g id="node8" class="node">
<title>Node32</title>
<g id="a_node8"><a xlink:href="_two_phase_transport_8_h.html" target="_top" xlink:title="TwoPhaseTransport.H">
<polygon fill="#ffffff" stroke="#000000" points="95.5,-112.5 95.5,-131.5 210.5,-131.5 210.5,-112.5 95.5,-112.5"/>
<text text-anchor="middle" x="153" y="-119.5" font-family="Helvetica,sans-Serif" font-size="10.00" fill="#000000">TwoPhaseTransport.H</text>
</a>
</g>
</g>
<!-- Node25&#45;&gt;Node32 -->
<g id="edge7" class="edge">
<title>Node25&#45;&gt;Node32</title>
<path fill="none" stroke="#191970" d="M195.8751,-161.3607C185.322,-151.6727 172.3888,-139.7995 163.5036,-131.6427"/>
<polygon fill="#191970" stroke="#191970" points="193.6411,-164.0611 203.3746,-168.2455 198.375,-158.9045 193.6411,-164.0611"/>
</g>
<!-- Node27 -->
<g id="node3" class="node">
<title>Node27</title>
<g id="a_node3"><a xlink:href="_turb_model_defs_8_h.html" target="_top" xlink:title="TurbModelDefs.H">
<polygon fill="#ffffff" stroke="#000000" points="111,-56.5 111,-75.5 205,-75.5 205,-56.5 111,-56.5"/>
<text text-anchor="middle" x="158" y="-63.5" font-family="Helvetica,sans-Serif" font-size="10.00" fill="#000000">TurbModelDefs.H</text>
</a>
</g>
</g>
<!-- Node26&#45;&gt;Node27 -->
<g id="edge2" class="edge">
<title>Node26&#45;&gt;Node27</title>
<path fill="none" stroke="#191970" d="M246.4453,-107.9741C225.0805,-97.8348 196.7884,-84.408 178.0202,-75.5011"/>
<polygon fill="#191970" stroke="#191970" points="245.1802,-111.2478 255.7151,-112.3733 248.1814,-104.9238 245.1802,-111.2478"/>
</g>
<!-- Node31 -->
<g id="node7" class="node">
<title>Node31</title>
<g id="a_node7"><a xlink:href="turbulence__utils_8_h.html" target="_top" xlink:title="turbulence_utils.H">
<polygon fill="#ffffff" stroke="#000000" points="228.5,-56.5 228.5,-75.5 323.5,-75.5 323.5,-56.5 228.5,-56.5"/>
<text text-anchor="middle" x="276" y="-63.5" font-family="Helvetica,sans-Serif" font-size="10.00" fill="#000000">turbulence_utils.H</text>
</a>
</g>
</g>
<!-- Node26&#45;&gt;Node31 -->
<g id="edge6" class="edge">
<title>Node26&#45;&gt;Node31</title>
<path fill="none" stroke="#191970" d="M276,-102.1575C276,-93.155 276,-82.9199 276,-75.6427"/>
<polygon fill="#191970" stroke="#191970" points="272.5001,-102.2455 276,-112.2455 279.5001,-102.2456 272.5001,-102.2455"/>
</g>
<!-- Node28 -->
<g id="node4" class="node">
<title>Node28</title>
<g id="a_node4"><a xlink:href="_laminar_model_8cpp.html" target="_top" xlink:title="LaminarModel.cpp">
<polygon fill="#ffffff" stroke="#000000" points="0,-.5 0,-19.5 96,-19.5 96,-.5 0,-.5"/>
<text text-anchor="middle" x="48" y="-7.5" font-family="Helvetica,sans-Serif" font-size="10.00" fill="#000000">LaminarModel.cpp</text>
</a>
</g>
</g>
<!-- Node27&#45;&gt;Node28 -->
<g id="edge3" class="edge">
<title>Node27&#45;&gt;Node28</title>
<path fill="none" stroke="#191970" d="M129.7086,-51.5971C109.9889,-41.558 84.22,-28.4393 66.941,-19.6427"/>
<polygon fill="#191970" stroke="#191970" points="128.3399,-54.8277 138.8395,-56.2455 131.5157,-48.5896 128.3399,-54.8277"/>
</g>
<!-- Node29 -->
<g id="node5" class="node">
<title>Node29</title>
<g id="a_node5"><a xlink:href="_one_eq_ksgs_8cpp.html" target="_top" xlink:title="OneEqKsgs.cpp">
<polygon fill="#ffffff" stroke="#000000" points="114,-.5 114,-19.5 202,-19.5 202,-.5 114,-.5"/>
<text text-anchor="middle" x="158" y="-7.5" font-family="Helvetica,sans-Serif" font-size="10.00" fill="#000000">OneEqKsgs.cpp</text>
</a>
</g>
</g>
<!-- Node27&#45;&gt;Node29 -->
<g id="edge4" class="edge">
<title>Node27&#45;&gt;Node29</title>
<path fill="none" stroke="#191970" d="M158,-46.1575C158,-37.155 158,-26.9199 158,-19.6427"/>
<polygon fill="#191970" stroke="#191970" points="154.5001,-46.2455 158,-56.2455 161.5001,-46.2456 154.5001,-46.2455"/>
</g>
<!-- Node30 -->
<g id="node6" class="node">
<title>Node30</title>
<g id="a_node6"><a xlink:href="_smagorinsky_8cpp.html" target="_top" xlink:title="Smagorinsky.cpp">
<polygon fill="#ffffff" stroke="#000000" points="220,-.5 220,-19.5 312,-19.5 312,-.5 220,-.5"/>
<text text-anchor="middle" x="266" y="-7.5" font-family="Helvetica,sans-Serif" font-size="10.00" fill="#000000">Smagorinsky.cpp</text>
</a>
</g>
</g>
<!-- Node27&#45;&gt;Node30 -->
<g id="edge5" class="edge">
<title>Node27&#45;&gt;Node30</title>
<path fill="none" stroke="#191970" d="M185.7771,-51.5971C205.1382,-41.558 230.4385,-28.4393 247.4034,-19.6427"/>
<polygon fill="#191970" stroke="#191970" points="184.0786,-48.5352 176.8122,-56.2455 187.3008,-54.7495 184.0786,-48.5352"/>
</g>
<!-- Node32&#45;&gt;Node27 -->
<g id="edge8" class="edge">
<title>Node32&#45;&gt;Node27</title>
<path fill="none" stroke="#191970" d="M154.7717,-102.1575C155.5754,-93.155 156.4893,-82.9199 157.139,-75.6427"/>
<polygon fill="#191970" stroke="#191970" points="151.2742,-101.9739 153.8709,-112.2455 158.2465,-102.5965 151.2742,-101.9739"/>
</g>
</g>
</svg>
