<?xml version="1.0" encoding="UTF-8" standalone="no"?>
<!DOCTYPE svg PUBLIC "-//W3C//DTD SVG 1.1//EN"
 "http://www.w3.org/Graphics/SVG/1.1/DTD/svg11.dtd">
<!-- Generated by graphviz version 2.40.1 (20161225.0304)
 -->
<!-- Title: TurbModelDefs.H Pages: 1 -->
<svg width="2032pt" height="397pt"
 viewBox="0.00 0.00 2032.29 397.00" xmlns="http://www.w3.org/2000/svg" xmlns:xlink="http://www.w3.org/1999/xlink">
<g id="graph0" class="graph" transform="scale(1 1) rotate(0) translate(4 393)">
<title>TurbModelDefs.H</title>
<polygon fill="#ffffff" stroke="transparent" points="-4,4 -4,-393 2028.2886,-393 2028.2886,4 -4,4"/>
<!-- Node0 -->
<g id="node1" class="node">
<title>Node0</title>
<polygon fill="#bfbfbf" stroke="#000000" points="1446.7419,-369.5 1446.7419,-388.5 1540.7419,-388.5 1540.7419,-369.5 1446.7419,-369.5"/>
<text text-anchor="middle" x="1493.7419" y="-376.5" font-family="Helvetica,sans-Serif" font-size="10.00" fill="#000000">TurbModelDefs.H</text>
</g>
<!-- Node1 -->
<g id="node2" class="node">
<title>Node1</title>
<g id="a_node2"><a xlink:href="_turbulence_model_8_h.html" target="_top" xlink:title="amr&#45;wind/turbulence\l/TurbulenceModel.H">
<polygon fill="#ffffff" stroke="#000000" points="1613.7419,-168.5 1613.7419,-198.5 1717.7419,-198.5 1717.7419,-168.5 1613.7419,-168.5"/>
<text text-anchor="start" x="1621.7419" y="-186.5" font-family="Helvetica,sans-Serif" font-size="10.00" fill="#000000">amr&#45;wind/turbulence</text>
<text text-anchor="middle" x="1665.7419" y="-175.5" font-family="Helvetica,sans-Serif" font-size="10.00" fill="#000000">/TurbulenceModel.H</text>
</a>
</g>
</g>
<!-- Node0&#45;&gt;Node1 -->
<g id="edge1" class="edge">
<title>Node0&#45;&gt;Node1</title>
<path fill="none" stroke="#191970" d="M1517.1633,-369.468C1552.3304,-353.7617 1617.7375,-318.8259 1646.7419,-266 1656.4325,-248.3504 1661.1925,-225.9657 1663.524,-208.9677"/>
<polygon fill="#191970" stroke="#191970" points="1667.0419,-209.0195 1664.7328,-198.6794 1660.0897,-208.2026 1667.0419,-209.0195"/>
</g>
<!-- Node9 -->
<g id="node10" class="node">
<title>Node9</title>
<g id="a_node10"><a xlink:href="_const_transport_8_h.html" target="_top" xlink:title="amr&#45;wind/transport\l_models/ConstTransport.H">
<polygon fill="#ffffff" stroke="#000000" points="1263.7419,-302.5 1263.7419,-332.5 1397.7419,-332.5 1397.7419,-302.5 1263.7419,-302.5"/>
<text text-anchor="start" x="1271.7419" y="-320.5" font-family="Helvetica,sans-Serif" font-size="10.00" fill="#000000">amr&#45;wind/transport</text>
<text text-anchor="middle" x="1330.7419" y="-309.5" font-family="Helvetica,sans-Serif" font-size="10.00" fill="#000000">_models/ConstTransport.H</text>
</a>
</g>
</g>
<!-- Node0&#45;&gt;Node9 -->
<g id="edge10" class="edge">
<title>Node0&#45;&gt;Node9</title>
<path fill="none" stroke="#191970" d="M1468.2731,-369.3906C1444.7832,-360.5279 1409.2574,-347.1239 1380.1969,-336.1594"/>
<polygon fill="#191970" stroke="#191970" points="1381.2079,-332.8001 1370.6162,-332.5446 1378.7368,-339.3494 1381.2079,-332.8001"/>
</g>
<!-- Node29 -->
<g id="node30" class="node">
<title>Node29</title>
<g id="a_node30"><a xlink:href="_two_phase_transport_8_h.html" target="_top" xlink:title="amr&#45;wind/transport\l_models/TwoPhaseTransport.H">
<polygon fill="#ffffff" stroke="#000000" points="1416.2419,-302.5 1416.2419,-332.5 1571.2419,-332.5 1571.2419,-302.5 1416.2419,-302.5"/>
<text text-anchor="start" x="1424.2419" y="-320.5" font-family="Helvetica,sans-Serif" font-size="10.00" fill="#000000">amr&#45;wind/transport</text>
<text text-anchor="middle" x="1493.7419" y="-309.5" font-family="Helvetica,sans-Serif" font-size="10.00" fill="#000000">_models/TwoPhaseTransport.H</text>
</a>
</g>
</g>
<!-- Node0&#45;&gt;Node29 -->
<g id="edge51" class="edge">
<title>Node0&#45;&gt;Node29</title>
<path fill="none" stroke="#191970" d="M1493.7419,-369.3906C1493.7419,-362.2234 1493.7419,-352.0862 1493.7419,-342.671"/>
<polygon fill="#191970" stroke="#191970" points="1497.242,-342.5446 1493.7419,-332.5446 1490.242,-342.5446 1497.242,-342.5446"/>
</g>
<!-- Node2 -->
<g id="node3" class="node">
<title>Node2</title>
<polygon fill="#ffffff" stroke="#bfbfbf" points="1661.2419,-56.5 1661.2419,-75.5 1744.2419,-75.5 1744.2419,-56.5 1661.2419,-56.5"/>
<text text-anchor="middle" x="1702.7419" y="-63.5" font-family="Helvetica,sans-Serif" font-size="10.00" fill="#000000">unordered_map</text>
</g>
<!-- Node1&#45;&gt;Node2 -->
<g id="edge2" class="edge">
<title>Node1&#45;&gt;Node2</title>
<path fill="none" stroke="#191970" d="M1670.899,-168.2083C1674.3215,-157.9798 1678.8779,-144.2082 1682.7419,-132 1687.6532,-116.4831 1692.988,-98.8355 1696.9117,-85.6952"/>
<polygon fill="#191970" stroke="#191970" points="1700.3398,-86.4462 1699.8354,-75.8633 1693.6302,-84.4508 1700.3398,-86.4462"/>
</g>
<!-- Node3 -->
<g id="node4" class="node">
<title>Node3</title>
<g id="a_node4"><a xlink:href="_factory_8_h.html" target="_top" xlink:title="amr&#45;wind/core/Factory.H">
<polygon fill="#ffffff" stroke="#000000" points="1735.2419,-112.5 1735.2419,-131.5 1860.2419,-131.5 1860.2419,-112.5 1735.2419,-112.5"/>
<text text-anchor="middle" x="1797.7419" y="-119.5" font-family="Helvetica,sans-Serif" font-size="10.00" fill="#000000">amr&#45;wind/core/Factory.H</text>
</a>
</g>
</g>
<!-- Node1&#45;&gt;Node3 -->
<g id="edge3" class="edge">
<title>Node1&#45;&gt;Node3</title>
<path fill="none" stroke="#191970" d="M1698.0327,-168.4554C1719.3811,-158.509 1747.1615,-145.5659 1767.9751,-135.8686"/>
<polygon fill="#191970" stroke="#191970" points="1769.7002,-138.9262 1777.2866,-131.5303 1766.744,-132.581 1769.7002,-138.9262"/>
</g>
<!-- Node8 -->
<g id="node9" class="node">
<title>Node8</title>
<g id="a_node9"><a xlink:href="_field_desc_types_8_h.html" target="_top" xlink:title="amr&#45;wind/core/FieldDescTypes.H">
<polygon fill="#ffffff" stroke="#000000" points="211.2419,-.5 211.2419,-19.5 374.2419,-19.5 374.2419,-.5 211.2419,-.5"/>
<text text-anchor="middle" x="292.7419" y="-7.5" font-family="Helvetica,sans-Serif" font-size="10.00" fill="#000000">amr&#45;wind/core/FieldDescTypes.H</text>
</a>
</g>
</g>
<!-- Node1&#45;&gt;Node8 -->
<g id="edge9" class="edge">
<title>Node1&#45;&gt;Node8</title>
<path fill="none" stroke="#191970" d="M1613.4053,-182.9972C1416.2147,-180.8224 718.251,-170.5152 499.7419,-132 418.0671,-117.6037 383.4978,-131.3555 321.7419,-76 308.2254,-63.8844 300.7162,-44.3135 296.7459,-29.6231"/>
<polygon fill="#191970" stroke="#191970" points="300.0694,-28.4689 294.3586,-19.5449 293.2579,-30.0824 300.0694,-28.4689"/>
</g>
<!-- Node3&#45;&gt;Node2 -->
<g id="edge5" class="edge">
<title>Node3&#45;&gt;Node2</title>
<path fill="none" stroke="#191970" d="M1781.1941,-112.2455C1766.482,-103.5731 1744.7531,-90.7645 1727.8914,-80.825"/>
<polygon fill="#191970" stroke="#191970" points="1729.492,-77.7057 1719.1,-75.6427 1725.9373,-83.736 1729.492,-77.7057"/>
</g>
<!-- Node4 -->
<g id="node5" class="node">
<title>Node4</title>
<polygon fill="#ffffff" stroke="#bfbfbf" points="1514.7419,-56.5 1514.7419,-75.5 1566.7419,-75.5 1566.7419,-56.5 1514.7419,-56.5"/>
<text text-anchor="middle" x="1540.7419" y="-63.5" font-family="Helvetica,sans-Serif" font-size="10.00" fill="#000000">memory</text>
</g>
<!-- Node3&#45;&gt;Node4 -->
<g id="edge4" class="edge">
<title>Node3&#45;&gt;Node4</title>
<path fill="none" stroke="#191970" d="M1753.854,-112.4369C1703.8727,-101.546 1623.1474,-83.9561 1576.7209,-73.8398"/>
<polygon fill="#191970" stroke="#191970" points="1577.3198,-70.3882 1566.8038,-71.6789 1575.8294,-77.2277 1577.3198,-70.3882"/>
</g>
<!-- Node5 -->
<g id="node6" class="node">
<title>Node5</title>
<polygon fill="#ffffff" stroke="#bfbfbf" points="1842.7419,-56.5 1842.7419,-75.5 1896.7419,-75.5 1896.7419,-56.5 1842.7419,-56.5"/>
<text text-anchor="middle" x="1869.7419" y="-63.5" font-family="Helvetica,sans-Serif" font-size="10.00" fill="#000000">iostream</text>
</g>
<!-- Node3&#45;&gt;Node5 -->
<g id="edge6" class="edge">
<title>Node3&#45;&gt;Node5</title>
<path fill="none" stroke="#191970" d="M1810.2833,-112.2455C1821.0206,-103.8943 1836.6892,-91.7076 1849.2465,-81.9408"/>
<polygon fill="#191970" stroke="#191970" points="1851.5994,-84.5449 1857.3442,-75.6427 1847.3018,-79.0194 1851.5994,-84.5449"/>
</g>
<!-- Node6 -->
<g id="node7" class="node">
<title>Node6</title>
<polygon fill="#ffffff" stroke="#bfbfbf" points="1915.2419,-56.5 1915.2419,-75.5 2002.2419,-75.5 2002.2419,-56.5 1915.2419,-56.5"/>
<text text-anchor="middle" x="1958.7419" y="-63.5" font-family="Helvetica,sans-Serif" font-size="10.00" fill="#000000">AMReX_Print.H</text>
</g>
<!-- Node3&#45;&gt;Node6 -->
<g id="edge7" class="edge">
<title>Node3&#45;&gt;Node6</title>
<path fill="none" stroke="#191970" d="M1825.4188,-112.3733C1852.0747,-103.1016 1892.5656,-89.0178 1921.9303,-78.804"/>
<polygon fill="#191970" stroke="#191970" points="1923.131,-82.0921 1931.4262,-75.5011 1920.8313,-75.4807 1923.131,-82.0921"/>
</g>
<!-- Node7 -->
<g id="node8" class="node">
<title>Node7</title>
<polygon fill="#ffffff" stroke="#bfbfbf" points="1762.7419,-56.5 1762.7419,-75.5 1824.7419,-75.5 1824.7419,-56.5 1762.7419,-56.5"/>
<text text-anchor="middle" x="1793.7419" y="-63.5" font-family="Helvetica,sans-Serif" font-size="10.00" fill="#000000">AMReX.H</text>
</g>
<!-- Node3&#45;&gt;Node7 -->
<g id="edge8" class="edge">
<title>Node3&#45;&gt;Node7</title>
<path fill="none" stroke="#191970" d="M1797.0451,-112.2455C1796.5232,-104.9382 1795.7915,-94.6944 1795.1494,-85.7046"/>
<polygon fill="#191970" stroke="#191970" points="1798.6343,-85.3679 1794.4306,-75.6427 1791.6521,-85.8667 1798.6343,-85.3679"/>
</g>
<!-- Node10 -->
<g id="node11" class="node">
<title>Node10</title>
<g id="a_node11"><a xlink:href="_transport_model_8_h.html" target="_top" xlink:title="amr&#45;wind/transport\l_models/TransportModel.H">
<polygon fill="#ffffff" stroke="#000000" points="1341.7419,-235.5 1341.7419,-265.5 1475.7419,-265.5 1475.7419,-235.5 1341.7419,-235.5"/>
<text text-anchor="start" x="1349.7419" y="-253.5" font-family="Helvetica,sans-Serif" font-size="10.00" fill="#000000">amr&#45;wind/transport</text>
<text text-anchor="middle" x="1408.7419" y="-242.5" font-family="Helvetica,sans-Serif" font-size="10.00" fill="#000000">_models/TransportModel.H</text>
</a>
</g>
</g>
<!-- Node9&#45;&gt;Node10 -->
<g id="edge11" class="edge">
<title>Node9&#45;&gt;Node10</title>
<path fill="none" stroke="#191970" d="M1348.4413,-302.2967C1358.7133,-293.4733 1371.829,-282.2072 1383.2035,-272.4368"/>
<polygon fill="#191970" stroke="#191970" points="1385.8074,-274.8141 1391.1125,-265.6432 1381.2462,-269.5041 1385.8074,-274.8141"/>
</g>
<!-- Node28 -->
<g id="node29" class="node">
<title>Node28</title>
<polygon fill="#ffffff" stroke="#bfbfbf" points="1207.7419,-241 1207.7419,-260 1323.7419,-260 1323.7419,-241 1207.7419,-241"/>
<text text-anchor="middle" x="1265.7419" y="-248" font-family="Helvetica,sans-Serif" font-size="10.00" fill="#000000">AMReX_ParmParse.H</text>
</g>
<!-- Node9&#45;&gt;Node28 -->
<g id="edge50" class="edge">
<title>Node9&#45;&gt;Node28</title>
<path fill="none" stroke="#191970" d="M1315.9924,-302.2967C1305.8651,-291.8578 1292.4207,-277.9997 1281.9867,-267.2446"/>
<polygon fill="#191970" stroke="#191970" points="1284.4869,-264.7953 1275.0116,-260.055 1279.4627,-269.6695 1284.4869,-264.7953"/>
</g>
<!-- Node10&#45;&gt;Node3 -->
<g id="edge12" class="edge">
<title>Node10&#45;&gt;Node3</title>
<path fill="none" stroke="#191970" d="M1475.896,-236.7749C1479.2224,-236.16 1482.5183,-235.5648 1485.7419,-235 1592.4162,-216.3081 1631.0382,-249.6911 1726.7419,-199 1752.6038,-185.3018 1774.0104,-158.3929 1786.3417,-140.2985"/>
<polygon fill="#191970" stroke="#191970" points="1789.3856,-142.0392 1791.9384,-131.7565 1783.5304,-138.2029 1789.3856,-142.0392"/>
</g>
<!-- Node11 -->
<g id="node12" class="node">
<title>Node11</title>
<g id="a_node12"><a xlink:href="_field_repo_8_h.html" target="_top" xlink:title="amr&#45;wind/core/FieldRepo.H">
<polygon fill="#ffffff" stroke="#000000" points="513.7419,-174 513.7419,-193 649.7419,-193 649.7419,-174 513.7419,-174"/>
<text text-anchor="middle" x="581.7419" y="-181" font-family="Helvetica,sans-Serif" font-size="10.00" fill="#000000">amr&#45;wind/core/FieldRepo.H</text>
</a>
</g>
</g>
<!-- Node10&#45;&gt;Node11 -->
<g id="edge13" class="edge">
<title>Node10&#45;&gt;Node11</title>
<path fill="none" stroke="#191970" d="M1341.6875,-236.3219C1338.6699,-235.8425 1335.6775,-235.3982 1332.7419,-235 1088.8334,-201.9135 797.32,-189.6357 660.2712,-185.457"/>
<polygon fill="#191970" stroke="#191970" points="659.9781,-181.9468 649.8781,-185.1467 659.7692,-188.9437 659.9781,-181.9468"/>
</g>
<!-- Node11&#45;&gt;Node2 -->
<g id="edge15" class="edge">
<title>Node11&#45;&gt;Node2</title>
<path fill="none" stroke="#191970" d="M650.1293,-181.7454C878.836,-175.6764 1605.1865,-154.6998 1649.7419,-132 1669.694,-121.8349 1684.6714,-100.3881 1693.5275,-84.691"/>
<polygon fill="#191970" stroke="#191970" points="1696.6432,-86.2864 1698.2404,-75.8126 1690.4602,-83.0043 1696.6432,-86.2864"/>
</g>
<!-- Node11&#45;&gt;Node8 -->
<g id="edge16" class="edge">
<title>Node11&#45;&gt;Node8</title>
<path fill="none" stroke="#191970" d="M513.4944,-182.43C368.7219,-179.4516 41.2875,-168.6901 7.7419,-132 -12.4643,-109.8997 11.7923,-73.4098 34.7419,-56 60.5904,-36.3911 137.7138,-24.3537 200.958,-17.5376"/>
<polygon fill="#191970" stroke="#191970" points="201.3981,-21.0107 210.9791,-16.4881 200.6689,-14.0488 201.3981,-21.0107"/>
</g>
<!-- Node12 -->
<g id="node13" class="node">
<title>Node12</title>
<polygon fill="#ffffff" stroke="#bfbfbf" points="561.2419,-.5 561.2419,-19.5 602.2419,-19.5 602.2419,-.5 561.2419,-.5"/>
<text text-anchor="middle" x="581.7419" y="-7.5" font-family="Helvetica,sans-Serif" font-size="10.00" fill="#000000">string</text>
</g>
<!-- Node11&#45;&gt;Node12 -->
<g id="edge14" class="edge">
<title>Node11&#45;&gt;Node12</title>
<path fill="none" stroke="#191970" d="M521.8372,-173.9689C436.6967,-157.9165 296.5845,-120.732 349.7419,-56 374.8352,-25.4428 493.4737,-14.828 550.7084,-11.4443"/>
<polygon fill="#191970" stroke="#191970" points="551.1765,-14.9239 560.9679,-10.8768 550.7898,-7.9346 551.1765,-14.9239"/>
</g>
<!-- Node13 -->
<g id="node14" class="node">
<title>Node13</title>
<g id="a_node14"><a xlink:href="_field_utils_8_h.html" target="_top" xlink:title="amr&#45;wind/core/FieldUtils.H">
<polygon fill="#ffffff" stroke="#000000" points="1249.2419,-56.5 1249.2419,-75.5 1382.2419,-75.5 1382.2419,-56.5 1249.2419,-56.5"/>
<text text-anchor="middle" x="1315.7419" y="-63.5" font-family="Helvetica,sans-Serif" font-size="10.00" fill="#000000">amr&#45;wind/core/FieldUtils.H</text>
</a>
</g>
</g>
<!-- Node11&#45;&gt;Node13 -->
<g id="edge17" class="edge">
<title>Node11&#45;&gt;Node13</title>
<path fill="none" stroke="#191970" d="M649.8422,-180.8749C748.999,-176.1106 938.5451,-163.4412 1096.7419,-132 1162.727,-118.8856 1237.2899,-94.2235 1280.1781,-79.0416"/>
<polygon fill="#191970" stroke="#191970" points="1281.6209,-82.2429 1289.8615,-75.5839 1279.2669,-75.6506 1281.6209,-82.2429"/>
</g>
<!-- Node14 -->
<g id="node15" class="node">
<title>Node14</title>
<polygon fill="#ffffff" stroke="#bfbfbf" points="1393.7419,-.5 1393.7419,-19.5 1497.7419,-19.5 1497.7419,-.5 1393.7419,-.5"/>
<text text-anchor="middle" x="1445.7419" y="-7.5" font-family="Helvetica,sans-Serif" font-size="10.00" fill="#000000">AMReX_MultiFab.H</text>
</g>
<!-- Node11&#45;&gt;Node14 -->
<g id="edge48" class="edge">
<title>Node11&#45;&gt;Node14</title>
<path fill="none" stroke="#191970" d="M650.0309,-180.2291C845.0322,-170.1808 1393.6966,-136.7048 1444.7419,-76 1455.3208,-63.4192 1454.3588,-44.2165 1451.4677,-29.7621"/>
<polygon fill="#191970" stroke="#191970" points="1454.8128,-28.7065 1449.0399,-19.8226 1448.0127,-30.3675 1454.8128,-28.7065"/>
</g>
<!-- Node16 -->
<g id="node17" class="node">
<title>Node16</title>
<g id="a_node17"><a xlink:href="_field_8_h.html" target="_top" xlink:title="amr&#45;wind/core/Field.H">
<polygon fill="#ffffff" stroke="#000000" points="974.2419,-112.5 974.2419,-131.5 1087.2419,-131.5 1087.2419,-112.5 974.2419,-112.5"/>
<text text-anchor="middle" x="1030.7419" y="-119.5" font-family="Helvetica,sans-Serif" font-size="10.00" fill="#000000">amr&#45;wind/core/Field.H</text>
</a>
</g>
</g>
<!-- Node11&#45;&gt;Node16 -->
<g id="edge21" class="edge">
<title>Node11&#45;&gt;Node16</title>
<path fill="none" stroke="#191970" d="M649.9353,-174.1595C735.0381,-162.5029 879.6317,-142.6977 964.0349,-131.1369"/>
<polygon fill="#191970" stroke="#191970" points="964.589,-134.5938 974.0215,-129.769 963.639,-127.6586 964.589,-134.5938"/>
</g>
<!-- Node23 -->
<g id="node24" class="node">
<title>Node23</title>
<g id="a_node24"><a xlink:href="_int_field_8_h.html" target="_top" xlink:title="amr&#45;wind/core/IntField.H">
<polygon fill="#ffffff" stroke="#000000" points="178.7419,-112.5 178.7419,-131.5 302.7419,-131.5 302.7419,-112.5 178.7419,-112.5"/>
<text text-anchor="middle" x="240.7419" y="-119.5" font-family="Helvetica,sans-Serif" font-size="10.00" fill="#000000">amr&#45;wind/core/IntField.H</text>
</a>
</g>
</g>
<!-- Node11&#45;&gt;Node23 -->
<g id="edge36" class="edge">
<title>Node11&#45;&gt;Node23</title>
<path fill="none" stroke="#191970" d="M528.8348,-173.9581C468.0165,-162.9894 368.2772,-145.0012 303.5662,-133.3305"/>
<polygon fill="#191970" stroke="#191970" points="303.955,-129.8442 293.4925,-131.5137 302.7125,-136.7331 303.955,-129.8442"/>
</g>
<!-- Node24 -->
<g id="node25" class="node">
<title>Node24</title>
<polygon fill="#ffffff" stroke="#bfbfbf" points="43.2419,-56.5 43.2419,-75.5 150.2419,-75.5 150.2419,-56.5 43.2419,-56.5"/>
<text text-anchor="middle" x="96.7419" y="-63.5" font-family="Helvetica,sans-Serif" font-size="10.00" fill="#000000">AMReX_iMultiFab.H</text>
</g>
<!-- Node11&#45;&gt;Node24 -->
<g id="edge49" class="edge">
<title>Node11&#45;&gt;Node24</title>
<path fill="none" stroke="#191970" d="M513.731,-179.9538C412.9584,-173.8689 229.4568,-159.3661 169.7419,-132 145.6283,-120.9492 123.9142,-99.0286 110.5577,-83.4863"/>
<polygon fill="#191970" stroke="#191970" points="113.1115,-81.0828 104.0351,-75.6174 107.7222,-85.55 113.1115,-81.0828"/>
</g>
<!-- Node25 -->
<g id="node26" class="node">
<title>Node25</title>
<g id="a_node26"><a xlink:href="_scratch_field_8_h.html" target="_top" xlink:title="amr&#45;wind/core/ScratchField.H">
<polygon fill="#ffffff" stroke="#000000" points="508.7419,-112.5 508.7419,-131.5 654.7419,-131.5 654.7419,-112.5 508.7419,-112.5"/>
<text text-anchor="middle" x="581.7419" y="-119.5" font-family="Helvetica,sans-Serif" font-size="10.00" fill="#000000">amr&#45;wind/core/ScratchField.H</text>
</a>
</g>
</g>
<!-- Node11&#45;&gt;Node25 -->
<g id="edge40" class="edge">
<title>Node11&#45;&gt;Node25</title>
<path fill="none" stroke="#191970" d="M581.7419,-173.8906C581.7419,-165.3657 581.7419,-152.6392 581.7419,-141.9235"/>
<polygon fill="#191970" stroke="#191970" points="585.242,-141.7448 581.7419,-131.7449 578.242,-141.7449 585.242,-141.7448"/>
</g>
<!-- Node27 -->
<g id="node28" class="node">
<title>Node27</title>
<polygon fill="#ffffff" stroke="#bfbfbf" points="16.7419,-112.5 16.7419,-131.5 122.7419,-131.5 122.7419,-112.5 16.7419,-112.5"/>
<text text-anchor="middle" x="69.7419" y="-119.5" font-family="Helvetica,sans-Serif" font-size="10.00" fill="#000000">AMReX_AmrCore.H</text>
</g>
<!-- Node11&#45;&gt;Node27 -->
<g id="edge47" class="edge">
<title>Node11&#45;&gt;Node27</title>
<path fill="none" stroke="#191970" d="M513.4251,-176.3004C426.0025,-166.925 269.9308,-149.6416 136.7419,-132 135.463,-131.8306 134.1708,-131.6574 132.8686,-131.4809"/>
<polygon fill="#191970" stroke="#191970" points="133.1357,-127.9845 122.7494,-130.0762 132.1731,-134.918 133.1357,-127.9845"/>
</g>
<!-- Node13&#45;&gt;Node8 -->
<g id="edge18" class="edge">
<title>Node13&#45;&gt;Node8</title>
<path fill="none" stroke="#191970" d="M1249.1183,-56.8212C1246.2904,-56.5251 1243.4892,-56.2494 1240.7419,-56 1076.4389,-41.0868 589.1443,-21.3591 384.6774,-13.4733"/>
<polygon fill="#191970" stroke="#191970" points="384.694,-9.9715 374.5668,-13.0841 384.4247,-16.9663 384.694,-9.9715"/>
</g>
<!-- Node13&#45;&gt;Node14 -->
<g id="edge19" class="edge">
<title>Node13&#45;&gt;Node14</title>
<path fill="none" stroke="#191970" d="M1338.0897,-56.3733C1359.1452,-47.3032 1390.8914,-33.6279 1414.4594,-23.4755"/>
<polygon fill="#191970" stroke="#191970" points="1415.8863,-26.6719 1423.6857,-19.5011 1413.1169,-20.243 1415.8863,-26.6719"/>
</g>
<!-- Node15 -->
<g id="node16" class="node">
<title>Node15</title>
<polygon fill="#ffffff" stroke="#bfbfbf" points="1257.7419,-.5 1257.7419,-19.5 1373.7419,-19.5 1373.7419,-.5 1257.7419,-.5"/>
<text text-anchor="middle" x="1315.7419" y="-7.5" font-family="Helvetica,sans-Serif" font-size="10.00" fill="#000000">AMReX_Interpolater.H</text>
</g>
<!-- Node13&#45;&gt;Node15 -->
<g id="edge20" class="edge">
<title>Node13&#45;&gt;Node15</title>
<path fill="none" stroke="#191970" d="M1315.7419,-56.2455C1315.7419,-48.9382 1315.7419,-38.6944 1315.7419,-29.7046"/>
<polygon fill="#191970" stroke="#191970" points="1319.242,-29.6426 1315.7419,-19.6427 1312.242,-29.6427 1319.242,-29.6426"/>
</g>
<!-- Node16&#45;&gt;Node2 -->
<g id="edge24" class="edge">
<title>Node16&#45;&gt;Node2</title>
<path fill="none" stroke="#191970" d="M1087.4571,-117.2737C1215.8237,-106.5765 1527.0452,-80.6414 1650.7682,-70.3311"/>
<polygon fill="#191970" stroke="#191970" points="1651.4245,-73.7887 1661.0992,-69.4702 1650.8431,-66.8129 1651.4245,-73.7887"/>
</g>
<!-- Node16&#45;&gt;Node4 -->
<g id="edge23" class="edge">
<title>Node16&#45;&gt;Node4</title>
<path fill="none" stroke="#191970" d="M1087.3946,-116.3583C1169.9895,-108.0445 1328.2782,-91.7766 1462.7419,-76 1476.33,-74.4057 1491.2321,-72.5273 1504.3374,-70.8314"/>
<polygon fill="#191970" stroke="#191970" points="1504.9391,-74.2827 1514.4029,-69.5195 1504.0343,-67.3414 1504.9391,-74.2827"/>
</g>
<!-- Node16&#45;&gt;Node8 -->
<g id="edge30" class="edge">
<title>Node16&#45;&gt;Node8</title>
<path fill="none" stroke="#191970" d="M974.1711,-119.2027C887.1321,-114.2541 715.378,-101.9303 571.7419,-76 537.3697,-69.7949 529.6679,-64.3052 495.7419,-56 445.3187,-43.6563 387.5625,-30.6809 346.5811,-21.6698"/>
<polygon fill="#191970" stroke="#191970" points="347.3174,-18.2481 336.7997,-19.5242 345.8175,-25.0856 347.3174,-18.2481"/>
</g>
<!-- Node16&#45;&gt;Node12 -->
<g id="edge22" class="edge">
<title>Node16&#45;&gt;Node12</title>
<path fill="none" stroke="#191970" d="M974.8595,-112.4477C927.8638,-104.0386 859.0452,-90.8443 799.7419,-76 731.8776,-59.0128 653.6999,-33.9844 611.8734,-20.1414"/>
<polygon fill="#191970" stroke="#191970" points="612.8884,-16.7905 602.2949,-16.9561 610.6795,-23.4329 612.8884,-16.7905"/>
</g>
<!-- Node16&#45;&gt;Node14 -->
<g id="edge26" class="edge">
<title>Node16&#45;&gt;Node14</title>
<path fill="none" stroke="#191970" d="M1087.5221,-118.7553C1190.3642,-112.3892 1399.2365,-97.0284 1424.7419,-76 1438.1974,-64.9063 1443.1471,-45.1994 1444.91,-30.1991"/>
<polygon fill="#191970" stroke="#191970" points="1448.4277,-30.1106 1445.7249,-19.8664 1441.4494,-29.5602 1448.4277,-30.1106"/>
</g>
<!-- Node17 -->
<g id="node18" class="node">
<title>Node17</title>
<polygon fill="#ffffff" stroke="#bfbfbf" points="954.7419,-56.5 954.7419,-75.5 1010.7419,-75.5 1010.7419,-56.5 954.7419,-56.5"/>
<text text-anchor="middle" x="982.7419" y="-63.5" font-family="Helvetica,sans-Serif" font-size="10.00" fill="#000000">algorithm</text>
</g>
<!-- Node16&#45;&gt;Node17 -->
<g id="edge25" class="edge">
<title>Node16&#45;&gt;Node17</title>
<path fill="none" stroke="#191970" d="M1022.3809,-112.2455C1015.5669,-104.2958 1005.7738,-92.8706 997.6267,-83.3656"/>
<polygon fill="#191970" stroke="#191970" points="1000.1724,-80.9575 991.007,-75.6427 994.8576,-85.513 1000.1724,-80.9575"/>
</g>
<!-- Node18 -->
<g id="node19" class="node">
<title>Node18</title>
<polygon fill="#ffffff" stroke="#bfbfbf" points="1029.2419,-56.5 1029.2419,-75.5 1128.2419,-75.5 1128.2419,-56.5 1029.2419,-56.5"/>
<text text-anchor="middle" x="1078.7419" y="-63.5" font-family="Helvetica,sans-Serif" font-size="10.00" fill="#000000">AMReX_BCRec.H</text>
</g>
<!-- Node16&#45;&gt;Node18 -->
<g id="edge27" class="edge">
<title>Node16&#45;&gt;Node18</title>
<path fill="none" stroke="#191970" d="M1039.1028,-112.2455C1045.9169,-104.2958 1055.71,-92.8706 1063.8571,-83.3656"/>
<polygon fill="#191970" stroke="#191970" points="1066.6262,-85.513 1070.4767,-75.6427 1061.3114,-80.9575 1066.6262,-85.513"/>
</g>
<!-- Node19 -->
<g id="node20" class="node">
<title>Node19</title>
<polygon fill="#ffffff" stroke="#bfbfbf" points="1146.2419,-56.5 1146.2419,-75.5 1231.2419,-75.5 1231.2419,-56.5 1146.2419,-56.5"/>
<text text-anchor="middle" x="1188.7419" y="-63.5" font-family="Helvetica,sans-Serif" font-size="10.00" fill="#000000">AMReX_Gpu.H</text>
</g>
<!-- Node16&#45;&gt;Node19 -->
<g id="edge28" class="edge">
<title>Node16&#45;&gt;Node19</title>
<path fill="none" stroke="#191970" d="M1057.903,-112.3733C1083.9486,-103.1419 1123.4535,-89.1402 1152.2397,-78.9375"/>
<polygon fill="#191970" stroke="#191970" points="1153.6789,-82.1408 1161.9351,-75.5011 1151.3404,-75.5429 1153.6789,-82.1408"/>
</g>
<!-- Node20 -->
<g id="node21" class="node">
<title>Node20</title>
<g id="a_node21"><a xlink:href="incflo__enums_8_h.html" target="_top" xlink:title="amr&#45;wind/incflo_enums.H">
<polygon fill="#ffffff" stroke="#000000" points="808.7419,-56.5 808.7419,-75.5 936.7419,-75.5 936.7419,-56.5 808.7419,-56.5"/>
<text text-anchor="middle" x="872.7419" y="-63.5" font-family="Helvetica,sans-Serif" font-size="10.00" fill="#000000">amr&#45;wind/incflo_enums.H</text>
</a>
</g>
</g>
<!-- Node16&#45;&gt;Node20 -->
<g id="edge29" class="edge">
<title>Node16&#45;&gt;Node20</title>
<path fill="none" stroke="#191970" d="M1003.5807,-112.3733C977.5352,-103.1419 938.0303,-89.1402 909.244,-78.9375"/>
<polygon fill="#191970" stroke="#191970" points="910.1434,-75.5429 899.5486,-75.5011 907.8049,-82.1408 910.1434,-75.5429"/>
</g>
<!-- Node21 -->
<g id="node22" class="node">
<title>Node21</title>
<g id="a_node22"><a xlink:href="_view_field_8_h.html" target="_top" xlink:title="amr&#45;wind/core/ViewField.H">
<polygon fill="#ffffff" stroke="#000000" points="580.7419,-56.5 580.7419,-75.5 714.7419,-75.5 714.7419,-56.5 580.7419,-56.5"/>
<text text-anchor="middle" x="647.7419" y="-63.5" font-family="Helvetica,sans-Serif" font-size="10.00" fill="#000000">amr&#45;wind/core/ViewField.H</text>
</a>
</g>
</g>
<!-- Node16&#45;&gt;Node21 -->
<g id="edge31" class="edge">
<title>Node16&#45;&gt;Node21</title>
<path fill="none" stroke="#191970" d="M974.2289,-113.737C907.6529,-104.0027 796.7891,-87.7928 722.9872,-77.0019"/>
<polygon fill="#191970" stroke="#191970" points="723.229,-73.5001 712.8278,-75.5165 722.2162,-80.4265 723.229,-73.5001"/>
</g>
<!-- Node21&#45;&gt;Node8 -->
<g id="edge33" class="edge">
<title>Node21&#45;&gt;Node8</title>
<path fill="none" stroke="#191970" d="M587.1186,-56.4369C525.0867,-46.6516 428.7718,-31.4582 363.3412,-21.1368"/>
<polygon fill="#191970" stroke="#191970" points="363.5384,-17.6247 353.1152,-19.5237 362.4476,-24.5392 363.5384,-17.6247"/>
</g>
<!-- Node21&#45;&gt;Node12 -->
<g id="edge32" class="edge">
<title>Node21&#45;&gt;Node12</title>
<path fill="none" stroke="#191970" d="M636.2456,-56.2455C626.4977,-47.9746 612.3159,-35.9416 600.8621,-26.2232"/>
<polygon fill="#191970" stroke="#191970" points="602.996,-23.4437 593.1065,-19.6427 598.4671,-28.7813 602.996,-23.4437"/>
</g>
<!-- Node21&#45;&gt;Node14 -->
<g id="edge34" class="edge">
<title>Node21&#45;&gt;Node14</title>
<path fill="none" stroke="#191970" d="M715.0815,-61.5113C741.4798,-59.767 772.0299,-57.7672 799.7419,-56 1058.8203,-39.4788 1124.6933,-48.3813 1382.7419,-20 1382.962,-19.9758 1383.1826,-19.9513 1383.4036,-19.9267"/>
<polygon fill="#191970" stroke="#191970" points="1384.0417,-23.3747 1393.5398,-18.6804 1383.1874,-16.427 1384.0417,-23.3747"/>
</g>
<!-- Node22 -->
<g id="node23" class="node">
<title>Node22</title>
<polygon fill="#ffffff" stroke="#bfbfbf" points="733.2419,-.5 733.2419,-19.5 828.2419,-19.5 828.2419,-.5 733.2419,-.5"/>
<text text-anchor="middle" x="780.7419" y="-7.5" font-family="Helvetica,sans-Serif" font-size="10.00" fill="#000000">AMReX_Vector.H</text>
</g>
<!-- Node21&#45;&gt;Node22 -->
<g id="edge35" class="edge">
<title>Node21&#45;&gt;Node22</title>
<path fill="none" stroke="#191970" d="M670.6054,-56.3733C692.1468,-47.3032 724.6256,-33.6279 748.7375,-23.4755"/>
<polygon fill="#191970" stroke="#191970" points="750.3186,-26.6075 758.1767,-19.5011 747.6021,-20.156 750.3186,-26.6075"/>
</g>
<!-- Node23&#45;&gt;Node8 -->
<g id="edge38" class="edge">
<title>Node23&#45;&gt;Node8</title>
<path fill="none" stroke="#191970" d="M228.1091,-112.2865C212.8567,-99.3311 190.6646,-75.7362 202.7419,-56 212.0828,-40.7354 228.2647,-30.3326 244.3545,-23.3404"/>
<polygon fill="#191970" stroke="#191970" points="245.7606,-26.548 253.7649,-19.6067 243.179,-20.0414 245.7606,-26.548"/>
</g>
<!-- Node23&#45;&gt;Node12 -->
<g id="edge37" class="edge">
<title>Node23&#45;&gt;Node12</title>
<path fill="none" stroke="#191970" d="M248.9202,-112.0649C261.7205,-97.2483 288.0135,-69.6472 316.7419,-56 357.9233,-36.4371 490.4705,-19.9538 551.0352,-13.2347"/>
<polygon fill="#191970" stroke="#191970" points="551.57,-16.6972 561.1305,-12.1314 550.8095,-9.7386 551.57,-16.6972"/>
</g>
<!-- Node23&#45;&gt;Node24 -->
<g id="edge39" class="edge">
<title>Node23&#45;&gt;Node24</title>
<path fill="none" stroke="#191970" d="M215.9874,-112.3733C192.457,-103.2226 156.8732,-89.3844 130.6993,-79.2057"/>
<polygon fill="#191970" stroke="#191970" points="131.762,-75.8636 121.1733,-75.5011 129.2248,-82.3877 131.762,-75.8636"/>
</g>
<!-- Node25&#45;&gt;Node8 -->
<g id="edge42" class="edge">
<title>Node25&#45;&gt;Node8</title>
<path fill="none" stroke="#191970" d="M508.467,-112.7567C450.9346,-104.5339 376.2697,-91.4395 349.7419,-76 330.0201,-64.5217 313.7631,-43.682 303.7272,-28.4825"/>
<polygon fill="#191970" stroke="#191970" points="306.5996,-26.4757 298.3069,-19.8816 300.6775,-30.2079 306.5996,-26.4757"/>
</g>
<!-- Node25&#45;&gt;Node12 -->
<g id="edge41" class="edge">
<title>Node25&#45;&gt;Node12</title>
<path fill="none" stroke="#191970" d="M578.6581,-112.1945C574.9816,-99.3347 569.5877,-76.0497 571.7419,-56 572.6782,-47.285 574.5852,-37.7985 576.4851,-29.7166"/>
<polygon fill="#191970" stroke="#191970" points="579.9417,-30.3218 578.9798,-19.7707 573.152,-28.6187 579.9417,-30.3218"/>
</g>
<!-- Node25&#45;&gt;Node14 -->
<g id="edge44" class="edge">
<title>Node25&#45;&gt;Node14</title>
<path fill="none" stroke="#191970" d="M654.7878,-119.4446C847.8635,-112.4776 1359.2044,-92.5647 1391.7419,-76 1411.8455,-65.7653 1427.1483,-44.3318 1436.2431,-28.6568"/>
<polygon fill="#191970" stroke="#191970" points="1439.3633,-30.2457 1441.091,-19.7926 1433.2218,-26.8868 1439.3633,-30.2457"/>
</g>
<!-- Node25&#45;&gt;Node21 -->
<g id="edge43" class="edge">
<title>Node25&#45;&gt;Node21</title>
<path fill="none" stroke="#191970" d="M593.2382,-112.2455C602.9861,-103.9746 617.1678,-91.9416 628.6217,-82.2232"/>
<polygon fill="#191970" stroke="#191970" points="631.0166,-84.7813 636.3773,-75.6427 626.4878,-79.4437 631.0166,-84.7813"/>
</g>
<!-- Node25&#45;&gt;Node22 -->
<g id="edge45" class="edge">
<title>Node25&#45;&gt;Node22</title>
<path fill="none" stroke="#191970" d="M633.3582,-112.4276C661.7108,-105.4791 696.5352,-94.0536 723.7419,-76 742.7554,-63.3831 759.1381,-42.7455 769.3972,-27.9048"/>
<polygon fill="#191970" stroke="#191970" points="772.3389,-29.8019 774.9624,-19.537 766.5103,-25.9254 772.3389,-29.8019"/>
</g>
<!-- Node26 -->
<g id="node27" class="node">
<title>Node26</title>
<polygon fill="#ffffff" stroke="#bfbfbf" points="358.7419,-56.5 358.7419,-75.5 486.7419,-75.5 486.7419,-56.5 358.7419,-56.5"/>
<text text-anchor="middle" x="422.7419" y="-63.5" font-family="Helvetica,sans-Serif" font-size="10.00" fill="#000000">AMReX_PhysBCFunct.H</text>
</g>
<!-- Node25&#45;&gt;Node26 -->
<g id="edge46" class="edge">
<title>Node25&#45;&gt;Node26</title>
<path fill="none" stroke="#191970" d="M554.4088,-112.3733C528.1984,-103.1419 488.4435,-89.1402 459.4751,-78.9375"/>
<polygon fill="#191970" stroke="#191970" points="460.3131,-75.5219 449.7183,-75.5011 457.9877,-82.1244 460.3131,-75.5219"/>
</g>
<!-- Node29&#45;&gt;Node10 -->
<g id="edge63" class="edge">
<title>Node29&#45;&gt;Node10</title>
<path fill="none" stroke="#191970" d="M1474.4541,-302.2967C1463.0429,-293.302 1448.4112,-281.7687 1435.8523,-271.8694"/>
<polygon fill="#191970" stroke="#191970" points="1437.9736,-269.0849 1427.9534,-265.6432 1433.6403,-274.5824 1437.9736,-269.0849"/>
</g>
<!-- Node29&#45;&gt;Node28 -->
<g id="edge64" class="edge">
<title>Node29&#45;&gt;Node28</title>
<path fill="none" stroke="#191970" d="M1442.5742,-302.4639C1401.958,-290.5284 1345.8671,-274.0456 1307.8292,-262.8678"/>
<polygon fill="#191970" stroke="#191970" points="1308.6694,-259.4667 1298.0882,-260.0053 1306.6957,-266.1828 1308.6694,-259.4667"/>
</g>
<!-- Node30 -->
<g id="node31" class="node">
<title>Node30</title>
<g id="a_node31"><a xlink:href="_multi_phase_8_h.html" target="_top" xlink:title="amr&#45;wind/physics/multiphase\l/MultiPhase.H">
<polygon fill="#ffffff" stroke="#000000" points="1494.2419,-235.5 1494.2419,-265.5 1637.2419,-265.5 1637.2419,-235.5 1494.2419,-235.5"/>
<text text-anchor="start" x="1502.2419" y="-253.5" font-family="Helvetica,sans-Serif" font-size="10.00" fill="#000000">amr&#45;wind/physics/multiphase</text>
<text text-anchor="middle" x="1565.7419" y="-242.5" font-family="Helvetica,sans-Serif" font-size="10.00" fill="#000000">/MultiPhase.H</text>
</a>
</g>
</g>
<!-- Node29&#45;&gt;Node30 -->
<g id="edge52" class="edge">
<title>Node29&#45;&gt;Node30</title>
<path fill="none" stroke="#191970" d="M1510.0798,-302.2967C1519.4696,-293.559 1531.4336,-282.4257 1541.8617,-272.7218"/>
<polygon fill="#191970" stroke="#191970" points="1544.5322,-275.0178 1549.4686,-265.6432 1539.7636,-269.8933 1544.5322,-275.0178"/>
</g>
<!-- Node30&#45;&gt;Node16 -->
<g id="edge62" class="edge">
<title>Node30&#45;&gt;Node16</title>
<path fill="none" stroke="#191970" d="M1503.0607,-235.4448C1395.529,-209.6171 1178.0555,-157.3828 1080.3028,-133.9039"/>
<polygon fill="#191970" stroke="#191970" points="1080.9255,-130.454 1070.3846,-131.5217 1079.2907,-137.2604 1080.9255,-130.454"/>
</g>
<!-- Node31 -->
<g id="node32" class="node">
<title>Node31</title>
<g id="a_node32"><a xlink:href="_physics_8_h.html" target="_top" xlink:title="amr&#45;wind/core/Physics.H">
<polygon fill="#ffffff" stroke="#000000" points="1774.2419,-174 1774.2419,-193 1901.2419,-193 1901.2419,-174 1774.2419,-174"/>
<text text-anchor="middle" x="1837.7419" y="-181" font-family="Helvetica,sans-Serif" font-size="10.00" fill="#000000">amr&#45;wind/core/Physics.H</text>
</a>
</g>
</g>
<!-- Node30&#45;&gt;Node31 -->
<g id="edge53" class="edge">
<title>Node30&#45;&gt;Node31</title>
<path fill="none" stroke="#191970" d="M1626.784,-235.4639C1675.857,-223.3761 1743.8653,-206.624 1789.2597,-195.4423"/>
<polygon fill="#191970" stroke="#191970" points="1790.2806,-198.7955 1799.1533,-193.0053 1788.6064,-191.9987 1790.2806,-198.7955"/>
</g>
<!-- Node31&#45;&gt;Node3 -->
<g id="edge54" class="edge">
<title>Node31&#45;&gt;Node3</title>
<path fill="none" stroke="#191970" d="M1831.4919,-173.8906C1825.6554,-164.917 1816.7909,-151.2879 1809.6112,-140.2491"/>
<polygon fill="#191970" stroke="#191970" points="1812.4663,-138.2194 1804.08,-131.7449 1806.5983,-142.0361 1812.4663,-138.2194"/>
</g>
<!-- Node31&#45;&gt;Node14 -->
<g id="edge60" class="edge">
<title>Node31&#45;&gt;Node14</title>
<path fill="none" stroke="#191970" d="M1883.602,-173.9469C1925.0974,-164.4063 1982.0409,-148.7801 1997.7419,-132 2021.2084,-106.9206 2035.0238,-81.2509 2011.7419,-56 1994.872,-37.7035 1652.4025,-19.6482 1508.5316,-12.8393"/>
<polygon fill="#191970" stroke="#191970" points="1508.2652,-9.323 1498.1118,-12.3494 1507.9364,-16.3153 1508.2652,-9.323"/>
</g>
<!-- Node32 -->
<g id="node33" class="node">
<title>Node32</title>
<g id="a_node33"><a xlink:href="_coll_mgr_8_h.html" target="_top" xlink:title="amr&#45;wind/core/CollMgr.H">
<polygon fill="#ffffff" stroke="#000000" points="1515.2419,-112.5 1515.2419,-131.5 1640.2419,-131.5 1640.2419,-112.5 1515.2419,-112.5"/>
<text text-anchor="middle" x="1577.7419" y="-119.5" font-family="Helvetica,sans-Serif" font-size="10.00" fill="#000000">amr&#45;wind/core/CollMgr.H</text>
</a>
</g>
</g>
<!-- Node31&#45;&gt;Node32 -->
<g id="edge55" class="edge">
<title>Node31&#45;&gt;Node32</title>
<path fill="none" stroke="#191970" d="M1797.4022,-173.9581C1751.7651,-163.1632 1677.3849,-145.5694 1628.0079,-133.8899"/>
<polygon fill="#191970" stroke="#191970" points="1628.7134,-130.4602 1618.1762,-131.5643 1627.102,-137.2722 1628.7134,-130.4602"/>
</g>
<!-- Node33 -->
<g id="node34" class="node">
<title>Node33</title>
<polygon fill="#ffffff" stroke="#bfbfbf" points="1878.7419,-112.5 1878.7419,-131.5 1988.7419,-131.5 1988.7419,-112.5 1878.7419,-112.5"/>
<text text-anchor="middle" x="1933.7419" y="-119.5" font-family="Helvetica,sans-Serif" font-size="10.00" fill="#000000">AMReX_Geometry.H</text>
</g>
<!-- Node31&#45;&gt;Node33 -->
<g id="edge61" class="edge">
<title>Node31&#45;&gt;Node33</title>
<path fill="none" stroke="#191970" d="M1852.7419,-173.8906C1868.0999,-164.0519 1892.1939,-148.6167 1910.1164,-137.1351"/>
<polygon fill="#191970" stroke="#191970" points="1912.3149,-139.8833 1918.8472,-131.5419 1908.5389,-133.9891 1912.3149,-139.8833"/>
</g>
<!-- Node32&#45;&gt;Node2 -->
<g id="edge58" class="edge">
<title>Node32&#45;&gt;Node2</title>
<path fill="none" stroke="#191970" d="M1599.2301,-112.3733C1619.3859,-103.3435 1649.7299,-89.7494 1672.3599,-79.6111"/>
<polygon fill="#191970" stroke="#191970" points="1673.839,-82.7838 1681.534,-75.5011 1670.977,-76.3955 1673.839,-82.7838"/>
</g>
<!-- Node32&#45;&gt;Node4 -->
<g id="edge57" class="edge">
<title>Node32&#45;&gt;Node4</title>
<path fill="none" stroke="#191970" d="M1571.297,-112.2455C1566.2036,-104.5367 1558.951,-93.5598 1552.7899,-84.2348"/>
<polygon fill="#191970" stroke="#191970" points="1555.5457,-82.0566 1547.1129,-75.6427 1549.7054,-85.9155 1555.5457,-82.0566"/>
</g>
<!-- Node32&#45;&gt;Node12 -->
<g id="edge56" class="edge">
<title>Node32&#45;&gt;Node12</title>
<path fill="none" stroke="#191970" d="M1581.0131,-112.3641C1585.2305,-97.9385 1590.4061,-70.841 1575.7419,-56 1542.4826,-22.3398 771.9876,-22.6508 724.7419,-20 686.1839,-17.8367 641.8285,-14.6217 612.8711,-12.4249"/>
<polygon fill="#191970" stroke="#191970" points="612.8088,-8.91 602.571,-11.6371 612.2749,-15.8896 612.8088,-8.91"/>
</g>
<!-- Node32&#45;&gt;Node22 -->
<g id="edge59" class="edge">
<title>Node32&#45;&gt;Node22</title>
<path fill="none" stroke="#191970" d="M1588.4566,-112.3799C1602.7137,-98.4581 1624.4013,-72.5536 1608.7419,-56 1582.2943,-28.0423 1022.2513,-14.6944 838.542,-11.0567"/>
<polygon fill="#191970" stroke="#191970" points="838.3419,-7.5523 828.2753,-10.8558 838.2048,-14.5509 838.3419,-7.5523"/>
</g>
</g>
</svg>
