<?xml version="1.0" encoding="UTF-8" standalone="no"?>
<!DOCTYPE svg PUBLIC "-//W3C//DTD SVG 1.1//EN"
 "http://www.w3.org/Graphics/SVG/1.1/DTD/svg11.dtd">
<!-- Generated by graphviz version 2.40.1 (20161225.0304)
 -->
<!-- Title: TurbineFast.H Pages: 1 -->
<!--zoomable 497 -->
<svg id="main" version="1.1" xmlns="http://www.w3.org/2000/svg" xmlns:xlink="http://www.w3.org/1999/xlink" xml:space="preserve" onload="init(evt)">
<style type="text/css"><![CDATA[
.edge:hover path { stroke: red; }
.edge:hover polygon { stroke: red; fill: red; }
]]></style>
<script type="text/javascript"><![CDATA[
var edges = document.getElementsByTagName('g');
if (edges && edges.length) {
  for (var i=0;i<edges.length;i++) {
    if (edges[i].id.substr(0,4)=='edge') {
      edges[i].setAttribute('class','edge');
    }
  }
}
]]></script>
        <defs>
                <circle id="rim" cx="0" cy="0" r="7"/>
                <circle id="rim2" cx="0" cy="0" r="3.5"/>
                <g id="zoomPlus">
                        <use xlink:href="#rim" fill="#404040">
                                <set attributeName="fill" to="#808080" begin="zoomplus.mouseover" end="zoomplus.mouseout"/>
                        </use>
                        <path d="M-4,0h8M0,-4v8" fill="none" stroke="white" stroke-width="1.5" pointer-events="none"/>
                </g>
                <g id="zoomMin">
                        <use xlink:href="#rim" fill="#404040">
                                <set attributeName="fill" to="#808080" begin="zoomminus.mouseover" end="zoomminus.mouseout"/>
                        </use>
                        <path d="M-4,0h8" fill="none" stroke="white" stroke-width="1.5" pointer-events="none"/>
                </g>
                <g id="dirArrow">
                        <path fill="none" stroke="white" stroke-width="1.5" d="M0,-3.0v7 M-2.5,-0.5L0,-3.0L2.5,-0.5"/>
                </g>
               <g id="resetDef">
                       <use xlink:href="#rim2" fill="#404040">
                               <set attributeName="fill" to="#808080" begin="reset.mouseover" end="reset.mouseout"/>
                       </use>
               </g>
        </defs>

<script type="text/javascript">
var viewWidth = 1299;
var viewHeight = 497;
var sectionId = 'dynsection-0';
</script>
<script xlink:href="svgpan.js"/>
<svg id="graph" class="graph">
<g id="viewport">
<title>TurbineFast.H</title>
<polygon fill="#ffffff" stroke="transparent" points="-4,4 -4,-493 1294.5,-493 1294.5,4 -4,4"/>
<!-- Node0 -->
<g id="node1" class="node">
<title>Node0</title>
<polygon fill="#bfbfbf" stroke="#000000" points="725,-469.5 725,-488.5 804,-488.5 804,-469.5 725,-469.5"/>
<text text-anchor="middle" x="764.5" y="-476.5" font-family="Helvetica,sans-Serif" font-size="10.00" fill="#000000">TurbineFast.H</text>
</g>
<!-- Node1 -->
<g id="node2" class="node">
<title>Node1</title>
<g id="a_node2"><a xlink:href="turbine__types_8_h.html" target="_top" xlink:title="amr&#45;wind/wind_energy\l/actuator/turbine/turbine\l_types.H">
<polygon fill="#ffffff" stroke="#000000" points="534,-391.5 534,-432.5 653,-432.5 653,-391.5 534,-391.5"/>
<text text-anchor="start" x="542" y="-420.5" font-family="Helvetica,sans-Serif" font-size="10.00" fill="#000000">amr&#45;wind/wind_energy</text>
<text text-anchor="start" x="542" y="-409.5" font-family="Helvetica,sans-Serif" font-size="10.00" fill="#000000">/actuator/turbine/turbine</text>
<text text-anchor="middle" x="593.5" y="-398.5" font-family="Helvetica,sans-Serif" font-size="10.00" fill="#000000">_types.H</text>
</a>
</g>
</g>
<!-- Node0&#45;&gt;Node1 -->
<g id="edge1" class="edge">
<title>Node0&#45;&gt;Node1</title>
<path fill="none" stroke="#191970" d="M739.9999,-469.4005C718.0004,-460.7809 684.7585,-447.7563 655.4981,-436.2917"/>
<polygon fill="#191970" stroke="#191970" points="656.7449,-433.0211 646.1572,-432.6318 654.1912,-439.5387 656.7449,-433.0211"/>
</g>
<!-- Node20 -->
<g id="node21" class="node">
<title>Node20</title>
<g id="a_node21"><a xlink:href="fast__types_8_h.html" target="_top" xlink:title="amr&#45;wind/wind_energy\l/actuator/turbine/fast\l/fast_types.H">
<polygon fill="#ffffff" stroke="#000000" points="654.5,-313.5 654.5,-354.5 768.5,-354.5 768.5,-313.5 654.5,-313.5"/>
<text text-anchor="start" x="662.5" y="-342.5" font-family="Helvetica,sans-Serif" font-size="10.00" fill="#000000">amr&#45;wind/wind_energy</text>
<text text-anchor="start" x="662.5" y="-331.5" font-family="Helvetica,sans-Serif" font-size="10.00" fill="#000000">/actuator/turbine/fast</text>
<text text-anchor="middle" x="711.5" y="-320.5" font-family="Helvetica,sans-Serif" font-size="10.00" fill="#000000">/fast_types.H</text>
</a>
</g>
</g>
<!-- Node0&#45;&gt;Node20 -->
<g id="edge31" class="edge">
<title>Node0&#45;&gt;Node20</title>
<path fill="none" stroke="#191970" d="M761.0225,-469.4861C753.3422,-448.4739 734.6559,-397.3511 722.5601,-364.2588"/>
<polygon fill="#191970" stroke="#191970" points="725.7577,-362.8116 719.0373,-354.621 719.1831,-365.2148 725.7577,-362.8116"/>
</g>
<!-- Node23 -->
<g id="node24" class="node">
<title>Node23</title>
<g id="a_node24"><a xlink:href="_fast_iface_8_h.html" target="_top" xlink:title="amr&#45;wind/wind_energy\l/actuator/turbine/fast\l/FastIface.H">
<polygon fill="#ffffff" stroke="#000000" points="773.5,-391.5 773.5,-432.5 887.5,-432.5 887.5,-391.5 773.5,-391.5"/>
<text text-anchor="start" x="781.5" y="-420.5" font-family="Helvetica,sans-Serif" font-size="10.00" fill="#000000">amr&#45;wind/wind_energy</text>
<text text-anchor="start" x="781.5" y="-409.5" font-family="Helvetica,sans-Serif" font-size="10.00" fill="#000000">/actuator/turbine/fast</text>
<text text-anchor="middle" x="830.5" y="-398.5" font-family="Helvetica,sans-Serif" font-size="10.00" fill="#000000">/FastIface.H</text>
</a>
</g>
</g>
<!-- Node0&#45;&gt;Node23 -->
<g id="edge34" class="edge">
<title>Node0&#45;&gt;Node23</title>
<path fill="none" stroke="#191970" d="M773.9562,-469.4005C781.6018,-461.6391 792.7655,-450.3062 803.1576,-439.7567"/>
<polygon fill="#191970" stroke="#191970" points="805.6519,-442.212 810.1762,-432.6318 800.665,-437.2996 805.6519,-442.212"/>
</g>
<!-- Node24 -->
<g id="node25" class="node">
<title>Node24</title>
<g id="a_node25"><a xlink:href="_ext_solver_8_h.html" target="_top" xlink:title="amr&#45;wind/core/ExtSolver.H">
<polygon fill="#ffffff" stroke="#000000" points="940.5,-324.5 940.5,-343.5 1074.5,-343.5 1074.5,-324.5 940.5,-324.5"/>
<text text-anchor="middle" x="1007.5" y="-331.5" font-family="Helvetica,sans-Serif" font-size="10.00" fill="#000000">amr&#45;wind/core/ExtSolver.H</text>
</a>
</g>
</g>
<!-- Node0&#45;&gt;Node24 -->
<g id="edge51" class="edge">
<title>Node0&#45;&gt;Node24</title>
<path fill="none" stroke="#191970" d="M804.0885,-469.5959C831.2709,-462.1105 867.5306,-450.0446 896.5,-433 935.1795,-410.2423 972.5,-372.7559 992.4795,-351.0282"/>
<polygon fill="#191970" stroke="#191970" points="995.1433,-353.3008 999.2544,-343.5361 989.9513,-348.6058 995.1433,-353.3008"/>
</g>
<!-- Node2 -->
<g id="node3" class="node">
<title>Node2</title>
<g id="a_node3"><a xlink:href="actuator__types_8_h.html" target="_top" xlink:title="amr&#45;wind/wind_energy\l/actuator/actuator_types.H">
<polygon fill="#ffffff" stroke="#000000" points="454,-319 454,-349 587,-349 587,-319 454,-319"/>
<text text-anchor="start" x="462" y="-337" font-family="Helvetica,sans-Serif" font-size="10.00" fill="#000000">amr&#45;wind/wind_energy</text>
<text text-anchor="middle" x="520.5" y="-326" font-family="Helvetica,sans-Serif" font-size="10.00" fill="#000000">/actuator/actuator_types.H</text>
</a>
</g>
</g>
<!-- Node1&#45;&gt;Node2 -->
<g id="edge2" class="edge">
<title>Node1&#45;&gt;Node2</title>
<path fill="none" stroke="#191970" d="M573.9373,-391.0974C564.0138,-380.4942 551.9441,-367.5978 541.7881,-356.7461"/>
<polygon fill="#191970" stroke="#191970" points="544.1778,-354.1775 534.7892,-349.2679 539.0669,-358.9607 544.1778,-354.1775"/>
</g>
<!-- Node3 -->
<g id="node4" class="node">
<title>Node3</title>
<g id="a_node4"><a xlink:href="_slice_8_h.html" target="_top" xlink:title="amr&#45;wind/core/Slice.H">
<polygon fill="#ffffff" stroke="#000000" points="570,-246.5 570,-265.5 683,-265.5 683,-246.5 570,-246.5"/>
<text text-anchor="middle" x="626.5" y="-253.5" font-family="Helvetica,sans-Serif" font-size="10.00" fill="#000000">amr&#45;wind/core/Slice.H</text>
</a>
</g>
</g>
<!-- Node2&#45;&gt;Node3 -->
<g id="edge3" class="edge">
<title>Node2&#45;&gt;Node3</title>
<path fill="none" stroke="#191970" d="M540.9379,-318.9608C559.427,-305.3556 586.548,-285.3987 605.2766,-271.6172"/>
<polygon fill="#191970" stroke="#191970" points="607.4958,-274.3297 613.4758,-265.5839 603.347,-268.6917 607.4958,-274.3297"/>
</g>
<!-- Node6 -->
<g id="node7" class="node">
<title>Node6</title>
<polygon fill="#ffffff" stroke="#bfbfbf" points="461,-.5 461,-19.5 546,-19.5 546,-.5 461,-.5"/>
<text text-anchor="middle" x="503.5" y="-7.5" font-family="Helvetica,sans-Serif" font-size="10.00" fill="#000000">AMReX_Gpu.H</text>
</g>
<!-- Node2&#45;&gt;Node6 -->
<g id="edge28" class="edge">
<title>Node2&#45;&gt;Node6</title>
<path fill="none" stroke="#191970" d="M524.1579,-318.865C530.1746,-292.6039 541.5,-236.8201 541.5,-189 541.5,-189 541.5,-189 541.5,-133 541.5,-94.6461 524.4248,-52.4423 513.1666,-28.7843"/>
<polygon fill="#191970" stroke="#191970" points="516.1861,-26.9938 508.6248,-19.5723 509.9077,-30.0892 516.1861,-26.9938"/>
</g>
<!-- Node7 -->
<g id="node8" class="node">
<title>Node7</title>
<g id="a_node8"><a xlink:href="vector__space_8_h.html" target="_top" xlink:title="amr&#45;wind/core/vs/vector\l_space.H">
<polygon fill="#ffffff" stroke="#000000" points="221.5,-241 221.5,-271 343.5,-271 343.5,-241 221.5,-241"/>
<text text-anchor="start" x="229.5" y="-259" font-family="Helvetica,sans-Serif" font-size="10.00" fill="#000000">amr&#45;wind/core/vs/vector</text>
<text text-anchor="middle" x="282.5" y="-248" font-family="Helvetica,sans-Serif" font-size="10.00" fill="#000000">_space.H</text>
</a>
</g>
</g>
<!-- Node2&#45;&gt;Node7 -->
<g id="edge7" class="edge">
<title>Node2&#45;&gt;Node7</title>
<path fill="none" stroke="#191970" d="M474.6112,-318.9608C435.7198,-306.2149 379.8182,-287.8942 338.3359,-274.2992"/>
<polygon fill="#191970" stroke="#191970" points="339.2461,-270.9143 328.6533,-271.1259 337.066,-277.5662 339.2461,-270.9143"/>
</g>
<!-- Node18 -->
<g id="node19" class="node">
<title>Node18</title>
<polygon fill="#ffffff" stroke="#bfbfbf" points="361.5,-246.5 361.5,-265.5 465.5,-265.5 465.5,-246.5 361.5,-246.5"/>
<text text-anchor="middle" x="413.5" y="-253.5" font-family="Helvetica,sans-Serif" font-size="10.00" fill="#000000">AMReX_RealBox.H</text>
</g>
<!-- Node2&#45;&gt;Node18 -->
<g id="edge29" class="edge">
<title>Node2&#45;&gt;Node18</title>
<path fill="none" stroke="#191970" d="M499.8693,-318.9608C481.2058,-305.3556 453.8289,-285.3987 434.9236,-271.6172"/>
<polygon fill="#191970" stroke="#191970" points="436.7897,-268.6463 426.6471,-265.5839 432.6662,-274.3029 436.7897,-268.6463"/>
</g>
<!-- Node19 -->
<g id="node20" class="node">
<title>Node19</title>
<polygon fill="#ffffff" stroke="#bfbfbf" points="483.5,-246.5 483.5,-265.5 513.5,-265.5 513.5,-246.5 483.5,-246.5"/>
<text text-anchor="middle" x="498.5" y="-253.5" font-family="Helvetica,sans-Serif" font-size="10.00" fill="#000000">set</text>
</g>
<!-- Node2&#45;&gt;Node19 -->
<g id="edge30" class="edge">
<title>Node2&#45;&gt;Node19</title>
<path fill="none" stroke="#191970" d="M516.2582,-318.9608C512.7507,-306.5253 507.7465,-288.7832 503.9438,-275.3007"/>
<polygon fill="#191970" stroke="#191970" points="507.2864,-274.2582 501.2031,-265.5839 500.5492,-276.1585 507.2864,-274.2582"/>
</g>
<!-- Node4 -->
<g id="node5" class="node">
<title>Node4</title>
<polygon fill="#ffffff" stroke="#bfbfbf" points="570,-179.5 570,-198.5 617,-198.5 617,-179.5 570,-179.5"/>
<text text-anchor="middle" x="593.5" y="-186.5" font-family="Helvetica,sans-Serif" font-size="10.00" fill="#000000">iterator</text>
</g>
<!-- Node3&#45;&gt;Node4 -->
<g id="edge4" class="edge">
<title>Node3&#45;&gt;Node4</title>
<path fill="none" stroke="#191970" d="M621.7719,-246.4005C616.8219,-236.3505 608.9224,-220.3122 602.7303,-207.7403"/>
<polygon fill="#191970" stroke="#191970" points="605.7777,-206.0061 598.2193,-198.5817 599.4981,-209.0991 605.7777,-206.0061"/>
</g>
<!-- Node5 -->
<g id="node6" class="node">
<title>Node5</title>
<polygon fill="#ffffff" stroke="#bfbfbf" points="682,-179.5 682,-198.5 777,-198.5 777,-179.5 682,-179.5"/>
<text text-anchor="middle" x="729.5" y="-186.5" font-family="Helvetica,sans-Serif" font-size="10.00" fill="#000000">AMReX_Vector.H</text>
</g>
<!-- Node3&#45;&gt;Node5 -->
<g id="edge5" class="edge">
<title>Node3&#45;&gt;Node5</title>
<path fill="none" stroke="#191970" d="M641.2574,-246.4005C658.2372,-235.3554 686.3359,-217.0776 706.2601,-204.1172"/>
<polygon fill="#191970" stroke="#191970" points="708.2959,-206.9684 714.77,-198.5817 704.4789,-201.1005 708.2959,-206.9684"/>
</g>
<!-- Node3&#45;&gt;Node6 -->
<g id="edge6" class="edge">
<title>Node3&#45;&gt;Node6</title>
<path fill="none" stroke="#191970" d="M628.0782,-246.309C630.1399,-231.5049 632.796,-202.5011 626.5,-179 610.1658,-118.0296 595.4361,-104.8805 555.5,-56 546.4441,-44.9159 534.6007,-34.217 524.5044,-25.9308"/>
<polygon fill="#191970" stroke="#191970" points="526.5367,-23.075 516.534,-19.5825 522.1756,-28.5505 526.5367,-23.075"/>
</g>
<!-- Node8 -->
<g id="node9" class="node">
<title>Node8</title>
<g id="a_node9"><a xlink:href="vector_8_h.html" target="_top" xlink:title="amr&#45;wind/core/vs/vector.H">
<polygon fill="#ffffff" stroke="#000000" points="303.5,-123.5 303.5,-142.5 435.5,-142.5 435.5,-123.5 303.5,-123.5"/>
<text text-anchor="middle" x="369.5" y="-130.5" font-family="Helvetica,sans-Serif" font-size="10.00" fill="#000000">amr&#45;wind/core/vs/vector.H</text>
</a>
</g>
</g>
<!-- Node7&#45;&gt;Node8 -->
<g id="edge8" class="edge">
<title>Node7&#45;&gt;Node8</title>
<path fill="none" stroke="#191970" d="M293.1679,-240.9178C309.2615,-218.1648 339.6893,-175.1461 356.868,-150.8591"/>
<polygon fill="#191970" stroke="#191970" points="359.8284,-152.7346 362.7456,-142.5493 354.1135,-148.6923 359.8284,-152.7346"/>
</g>
<!-- Node15 -->
<g id="node16" class="node">
<title>Node15</title>
<g id="a_node16"><a xlink:href="tensor_8_h.html" target="_top" xlink:title="amr&#45;wind/core/vs/tensor.H">
<polygon fill="#ffffff" stroke="#000000" points="165.5,-179.5 165.5,-198.5 297.5,-198.5 297.5,-179.5 165.5,-179.5"/>
<text text-anchor="middle" x="231.5" y="-186.5" font-family="Helvetica,sans-Serif" font-size="10.00" fill="#000000">amr&#45;wind/core/vs/tensor.H</text>
</a>
</g>
</g>
<!-- Node7&#45;&gt;Node15 -->
<g id="edge17" class="edge">
<title>Node7&#45;&gt;Node15</title>
<path fill="none" stroke="#191970" d="M270.9273,-240.7967C263.2127,-230.6618 253.0449,-217.304 244.9671,-206.6921"/>
<polygon fill="#191970" stroke="#191970" points="247.6151,-204.3921 238.7732,-198.555 242.0451,-208.6319 247.6151,-204.3921"/>
</g>
<!-- Node8&#45;&gt;Node6 -->
<g id="edge9" class="edge">
<title>Node8&#45;&gt;Node6</title>
<path fill="none" stroke="#191970" d="M390.2639,-123.4415C406.6642,-115.254 429.5349,-102.3677 446.5,-87 465.4602,-69.8251 482.2135,-45.4918 492.5673,-28.8022"/>
<polygon fill="#191970" stroke="#191970" points="495.7259,-30.3418 497.8922,-19.9708 489.7313,-26.7273 495.7259,-30.3418"/>
</g>
<!-- Node9 -->
<g id="node10" class="node">
<title>Node9</title>
<g id="a_node10"><a xlink:href="vstraits_8_h.html" target="_top" xlink:title="amr&#45;wind/core/vs/vstraits.H">
<polygon fill="#ffffff" stroke="#000000" points="0,-62 0,-81 137,-81 137,-62 0,-62"/>
<text text-anchor="middle" x="68.5" y="-69" font-family="Helvetica,sans-Serif" font-size="10.00" fill="#000000">amr&#45;wind/core/vs/vstraits.H</text>
</a>
</g>
</g>
<!-- Node8&#45;&gt;Node9 -->
<g id="edge10" class="edge">
<title>Node8&#45;&gt;Node9</title>
<path fill="none" stroke="#191970" d="M322.799,-123.4581C269.5241,-112.573 182.4155,-94.7751 125.2666,-83.0985"/>
<polygon fill="#191970" stroke="#191970" points="125.8088,-79.637 115.3106,-81.0643 124.4075,-86.4953 125.8088,-79.637"/>
</g>
<!-- Node12 -->
<g id="node13" class="node">
<title>Node12</title>
<g id="a_node13"><a xlink:href="vector_i_8_h.html" target="_top" xlink:title="amr&#45;wind/core/vs/vectorI.H">
<polygon fill="#ffffff" stroke="#000000" points="302,-62 302,-81 437,-81 437,-62 302,-62"/>
<text text-anchor="middle" x="369.5" y="-69" font-family="Helvetica,sans-Serif" font-size="10.00" fill="#000000">amr&#45;wind/core/vs/vectorI.H</text>
</a>
</g>
</g>
<!-- Node8&#45;&gt;Node12 -->
<g id="edge13" class="edge">
<title>Node8&#45;&gt;Node12</title>
<path fill="none" stroke="#191970" d="M364.4375,-123.3906C362.7741,-114.8657 362.3404,-102.1392 363.1365,-91.4235"/>
<polygon fill="#191970" stroke="#191970" points="366.6414,-91.6023 364.4112,-81.2449 359.6956,-90.7324 366.6414,-91.6023"/>
</g>
<!-- Node10 -->
<g id="node11" class="node">
<title>Node10</title>
<polygon fill="#ffffff" stroke="#bfbfbf" points="47.5,-.5 47.5,-19.5 87.5,-19.5 87.5,-.5 47.5,-.5"/>
<text text-anchor="middle" x="67.5" y="-7.5" font-family="Helvetica,sans-Serif" font-size="10.00" fill="#000000">limits</text>
</g>
<!-- Node9&#45;&gt;Node10 -->
<g id="edge11" class="edge">
<title>Node9&#45;&gt;Node10</title>
<path fill="none" stroke="#191970" d="M68.3438,-61.8906C68.2051,-53.3657 67.9982,-40.6392 67.824,-29.9235"/>
<polygon fill="#191970" stroke="#191970" points="71.3207,-29.6866 67.6585,-19.7449 64.3216,-29.8005 71.3207,-29.6866"/>
</g>
<!-- Node11 -->
<g id="node12" class="node">
<title>Node11</title>
<polygon fill="#ffffff" stroke="#bfbfbf" points="106,-.5 106,-19.5 199,-19.5 199,-.5 106,-.5"/>
<text text-anchor="middle" x="152.5" y="-7.5" font-family="Helvetica,sans-Serif" font-size="10.00" fill="#000000">AMReX_REAL.H</text>
</g>
<!-- Node9&#45;&gt;Node11 -->
<g id="edge12" class="edge">
<title>Node9&#45;&gt;Node11</title>
<path fill="none" stroke="#191970" d="M81.625,-61.8906C94.94,-52.1421 115.7594,-36.8994 131.3947,-25.4521"/>
<polygon fill="#191970" stroke="#191970" points="133.4661,-28.2734 139.4672,-19.5419 129.3309,-22.6253 133.4661,-28.2734"/>
</g>
<!-- Node12&#45;&gt;Node8 -->
<g id="edge16" class="edge">
<title>Node12&#45;&gt;Node8</title>
<path fill="none" stroke="#191970" d="M374.5888,-81.2449C376.2392,-89.814 376.6598,-102.5519 375.8508,-113.2462"/>
<polygon fill="#191970" stroke="#191970" points="372.3503,-113.0293 374.5625,-123.3906 379.2945,-113.9113 372.3503,-113.0293"/>
</g>
<!-- Node13 -->
<g id="node14" class="node">
<title>Node13</title>
<polygon fill="#ffffff" stroke="#bfbfbf" points="343.5,-.5 343.5,-19.5 395.5,-19.5 395.5,-.5 343.5,-.5"/>
<text text-anchor="middle" x="369.5" y="-7.5" font-family="Helvetica,sans-Serif" font-size="10.00" fill="#000000">ostream</text>
</g>
<!-- Node12&#45;&gt;Node13 -->
<g id="edge14" class="edge">
<title>Node12&#45;&gt;Node13</title>
<path fill="none" stroke="#191970" d="M369.5,-61.8906C369.5,-53.3657 369.5,-40.6392 369.5,-29.9235"/>
<polygon fill="#191970" stroke="#191970" points="373.0001,-29.7448 369.5,-19.7449 366.0001,-29.7449 373.0001,-29.7448"/>
</g>
<!-- Node14 -->
<g id="node15" class="node">
<title>Node14</title>
<polygon fill="#ffffff" stroke="#bfbfbf" points="217.5,-.5 217.5,-19.5 261.5,-19.5 261.5,-.5 217.5,-.5"/>
<text text-anchor="middle" x="239.5" y="-7.5" font-family="Helvetica,sans-Serif" font-size="10.00" fill="#000000">cmath</text>
</g>
<!-- Node12&#45;&gt;Node14 -->
<g id="edge15" class="edge">
<title>Node12&#45;&gt;Node14</title>
<path fill="none" stroke="#191970" d="M349.1875,-61.8906C327.6269,-51.6908 293.3522,-35.4763 268.8556,-23.8875"/>
<polygon fill="#191970" stroke="#191970" points="270.2061,-20.6545 259.6699,-19.5419 267.2126,-26.9822 270.2061,-20.6545"/>
</g>
<!-- Node15&#45;&gt;Node6 -->
<g id="edge18" class="edge">
<title>Node15&#45;&gt;Node6</title>
<path fill="none" stroke="#191970" d="M297.6206,-180.9647C351.3172,-173.322 421.7354,-160.4076 444.5,-143 481.1533,-114.972 495.5385,-59.2278 500.7724,-29.59"/>
<polygon fill="#191970" stroke="#191970" points="504.2436,-30.0471 502.3577,-19.6215 497.3305,-28.9477 504.2436,-30.0471"/>
</g>
<!-- Node15&#45;&gt;Node8 -->
<g id="edge20" class="edge">
<title>Node15&#45;&gt;Node8</title>
<path fill="none" stroke="#191970" d="M255.223,-179.3733C277.6737,-170.2629 311.5739,-156.5062 336.6255,-146.3404"/>
<polygon fill="#191970" stroke="#191970" points="338.1365,-149.5045 346.0865,-142.5011 335.5043,-143.0182 338.1365,-149.5045"/>
</g>
<!-- Node15&#45;&gt;Node9 -->
<g id="edge19" class="edge">
<title>Node15&#45;&gt;Node9</title>
<path fill="none" stroke="#191970" d="M207.5341,-179.364C188.4763,-171.1326 161.6037,-158.2251 140.5,-143 118.5613,-127.1724 97.0352,-104.6059 83.3209,-89.0803"/>
<polygon fill="#191970" stroke="#191970" points="85.7455,-86.5337 76.5525,-81.2668 80.4546,-91.1169 85.7455,-86.5337"/>
</g>
<!-- Node16 -->
<g id="node17" class="node">
<title>Node16</title>
<g id="a_node17"><a xlink:href="tensor_i_8_h.html" target="_top" xlink:title="amr&#45;wind/core/vs/tensorI.H">
<polygon fill="#ffffff" stroke="#000000" points="150,-123.5 150,-142.5 285,-142.5 285,-123.5 150,-123.5"/>
<text text-anchor="middle" x="217.5" y="-130.5" font-family="Helvetica,sans-Serif" font-size="10.00" fill="#000000">amr&#45;wind/core/vs/tensorI.H</text>
</a>
</g>
</g>
<!-- Node15&#45;&gt;Node16 -->
<g id="edge21" class="edge">
<title>Node15&#45;&gt;Node16</title>
<path fill="none" stroke="#191970" d="M223.7945,-179.2455C220.5567,-171.9382 217.5915,-161.6944 215.9466,-152.7046"/>
<polygon fill="#191970" stroke="#191970" points="219.4006,-152.1205 214.6655,-142.6427 212.4567,-153.0047 219.4006,-152.1205"/>
</g>
<!-- Node16&#45;&gt;Node14 -->
<g id="edge22" class="edge">
<title>Node16&#45;&gt;Node14</title>
<path fill="none" stroke="#191970" d="M208.0129,-123.4293C194.7008,-108.7823 173.294,-79.9811 184.5,-56 190.4463,-43.2749 201.8358,-32.8307 212.715,-25.129"/>
<polygon fill="#191970" stroke="#191970" points="214.777,-27.9622 221.2167,-19.5491 210.936,-22.1101 214.777,-27.9622"/>
</g>
<!-- Node16&#45;&gt;Node15 -->
<g id="edge23" class="edge">
<title>Node16&#45;&gt;Node15</title>
<path fill="none" stroke="#191970" d="M225.1558,-142.6427C228.3964,-149.9199 231.3697,-160.155 233.028,-169.1575"/>
<polygon fill="#191970" stroke="#191970" points="229.5786,-169.775 234.3282,-179.2455 236.5212,-168.8802 229.5786,-169.775"/>
</g>
<!-- Node17 -->
<g id="node18" class="node">
<title>Node17</title>
<g id="a_node18"><a xlink:href="trig__ops_8_h.html" target="_top" xlink:title="Trigonometric utilities. ">
<polygon fill="#ffffff" stroke="#000000" points="193.5,-56.5 193.5,-86.5 283.5,-86.5 283.5,-56.5 193.5,-56.5"/>
<text text-anchor="start" x="201.5" y="-74.5" font-family="Helvetica,sans-Serif" font-size="10.00" fill="#000000">amr&#45;wind/utilities</text>
<text text-anchor="middle" x="238.5" y="-63.5" font-family="Helvetica,sans-Serif" font-size="10.00" fill="#000000">/trig_ops.H</text>
</a>
</g>
</g>
<!-- Node16&#45;&gt;Node17 -->
<g id="edge24" class="edge">
<title>Node16&#45;&gt;Node17</title>
<path fill="none" stroke="#191970" d="M220.7813,-123.3906C223.2812,-116.0692 226.8394,-105.6488 230.1121,-96.0647"/>
<polygon fill="#191970" stroke="#191970" points="233.4435,-97.1391 233.3628,-86.5446 226.8191,-94.8771 233.4435,-97.1391"/>
</g>
<!-- Node17&#45;&gt;Node6 -->
<g id="edge27" class="edge">
<title>Node17&#45;&gt;Node6</title>
<path fill="none" stroke="#191970" d="M283.7642,-58.5151C287.0531,-57.6419 290.3241,-56.7946 293.5,-56 346.7959,-42.6653 408.2324,-29.4568 450.827,-20.6382"/>
<polygon fill="#191970" stroke="#191970" points="451.6068,-24.0511 460.6941,-18.6041 450.1934,-17.1953 451.6068,-24.0511"/>
</g>
<!-- Node17&#45;&gt;Node11 -->
<g id="edge26" class="edge">
<title>Node17&#45;&gt;Node11</title>
<path fill="none" stroke="#191970" d="M217.2416,-56.2977C204.2282,-46.9917 187.6097,-35.1075 174.4683,-25.7099"/>
<polygon fill="#191970" stroke="#191970" points="176.1829,-22.6332 166.0129,-19.6633 172.1111,-28.3271 176.1829,-22.6332"/>
</g>
<!-- Node17&#45;&gt;Node14 -->
<g id="edge25" class="edge">
<title>Node17&#45;&gt;Node14</title>
<path fill="none" stroke="#191970" d="M238.7472,-56.2977C238.8759,-48.3834 239.0349,-38.6043 239.1736,-30.0759"/>
<polygon fill="#191970" stroke="#191970" points="242.6767,-29.9025 239.3399,-19.8469 235.6777,-29.7887 242.6767,-29.9025"/>
</g>
<!-- Node21 -->
<g id="node22" class="node">
<title>Node21</title>
<g id="a_node22"><a xlink:href="fast__wrapper_8_h.html" target="_top" xlink:title="amr&#45;wind/wind_energy\l/actuator/turbine/fast\l/fast_wrapper.H">
<polygon fill="#ffffff" stroke="#000000" points="739.5,-235.5 739.5,-276.5 853.5,-276.5 853.5,-235.5 739.5,-235.5"/>
<text text-anchor="start" x="747.5" y="-264.5" font-family="Helvetica,sans-Serif" font-size="10.00" fill="#000000">amr&#45;wind/wind_energy</text>
<text text-anchor="start" x="747.5" y="-253.5" font-family="Helvetica,sans-Serif" font-size="10.00" fill="#000000">/actuator/turbine/fast</text>
<text text-anchor="middle" x="796.5" y="-242.5" font-family="Helvetica,sans-Serif" font-size="10.00" fill="#000000">/fast_wrapper.H</text>
</a>
</g>
</g>
<!-- Node20&#45;&gt;Node21 -->
<g id="edge32" class="edge">
<title>Node20&#45;&gt;Node21</title>
<path fill="none" stroke="#191970" d="M734.2784,-313.0974C744.1712,-304.0193 755.8958,-293.2603 766.4855,-283.5427"/>
<polygon fill="#191970" stroke="#191970" points="768.9519,-286.0298 773.9534,-276.6898 764.219,-280.8722 768.9519,-286.0298"/>
</g>
<!-- Node22 -->
<g id="node23" class="node">
<title>Node22</title>
<polygon fill="#ffffff" stroke="#bfbfbf" points="811,-179.5 811,-198.5 852,-198.5 852,-179.5 811,-179.5"/>
<text text-anchor="middle" x="831.5" y="-186.5" font-family="Helvetica,sans-Serif" font-size="10.00" fill="#000000">string</text>
</g>
<!-- Node20&#45;&gt;Node22 -->
<g id="edge33" class="edge">
<title>Node20&#45;&gt;Node22</title>
<path fill="none" stroke="#191970" d="M710.2178,-313.1739C709.9829,-291.4263 712.8631,-257.4216 730.5,-235 747.8548,-212.9371 778.167,-201.088 801.0682,-194.973"/>
<polygon fill="#191970" stroke="#191970" points="802.1103,-198.3214 810.9957,-192.5507 800.451,-191.5209 802.1103,-198.3214"/>
</g>
<!-- Node23&#45;&gt;Node20 -->
<g id="edge48" class="edge">
<title>Node23&#45;&gt;Node20</title>
<path fill="none" stroke="#191970" d="M798.9226,-391.3022C784.2821,-381.7059 766.7246,-370.1976 751.1977,-360.0204"/>
<polygon fill="#191970" stroke="#191970" points="753.0943,-357.0786 742.812,-354.5239 749.2569,-362.9331 753.0943,-357.0786"/>
</g>
<!-- Node23&#45;&gt;Node21 -->
<g id="edge47" class="edge">
<title>Node23&#45;&gt;Node21</title>
<path fill="none" stroke="#191970" d="M825.239,-391.4695C822.5209,-380.6459 819.2141,-367.1319 816.5,-355 811.3729,-332.0823 806.1365,-306.0477 802.3083,-286.4301"/>
<polygon fill="#191970" stroke="#191970" points="805.7284,-285.6814 800.3896,-276.5301 798.8563,-287.0133 805.7284,-285.6814"/>
</g>
<!-- Node23&#45;&gt;Node24 -->
<g id="edge35" class="edge">
<title>Node23&#45;&gt;Node24</title>
<path fill="none" stroke="#191970" d="M877.4681,-391.3022C908.6634,-377.5551 948.7625,-359.8843 976.1309,-347.8237"/>
<polygon fill="#191970" stroke="#191970" points="977.8585,-350.8872 985.598,-343.6517 975.0357,-344.4816 977.8585,-350.8872"/>
</g>
<!-- Node32 -->
<g id="node33" class="node">
<title>Node32</title>
<polygon fill="#ffffff" stroke="#bfbfbf" points="825,-324.5 825,-343.5 860,-343.5 860,-324.5 825,-324.5"/>
<text text-anchor="middle" x="842.5" y="-331.5" font-family="Helvetica,sans-Serif" font-size="10.00" fill="#000000">map</text>
</g>
<!-- Node23&#45;&gt;Node32 -->
<g id="edge49" class="edge">
<title>Node23&#45;&gt;Node32</title>
<path fill="none" stroke="#191970" d="M833.7158,-391.0974C835.4861,-379.5903 837.672,-365.3823 839.4203,-354.0181"/>
<polygon fill="#191970" stroke="#191970" points="842.9299,-354.2231 840.9912,-343.8072 836.0112,-353.1587 842.9299,-354.2231"/>
</g>
<!-- Node33 -->
<g id="node34" class="node">
<title>Node33</title>
<polygon fill="#ffffff" stroke="#bfbfbf" points="878.5,-324.5 878.5,-343.5 922.5,-343.5 922.5,-324.5 878.5,-324.5"/>
<text text-anchor="middle" x="900.5" y="-331.5" font-family="Helvetica,sans-Serif" font-size="10.00" fill="#000000">vector</text>
</g>
<!-- Node23&#45;&gt;Node33 -->
<g id="edge50" class="edge">
<title>Node23&#45;&gt;Node33</title>
<path fill="none" stroke="#191970" d="M849.2587,-391.0974C860.3386,-378.7512 874.2088,-363.2959 884.7234,-351.5797"/>
<polygon fill="#191970" stroke="#191970" points="887.6244,-353.5873 891.6987,-343.8072 882.4147,-348.9119 887.6244,-353.5873"/>
</g>
<!-- Node25 -->
<g id="node26" class="node">
<title>Node25</title>
<g id="a_node26"><a xlink:href="_factory_8_h.html" target="_top" xlink:title="amr&#45;wind/core/Factory.H">
<polygon fill="#ffffff" stroke="#000000" points="1015,-246.5 1015,-265.5 1140,-265.5 1140,-246.5 1015,-246.5"/>
<text text-anchor="middle" x="1077.5" y="-253.5" font-family="Helvetica,sans-Serif" font-size="10.00" fill="#000000">amr&#45;wind/core/Factory.H</text>
</a>
</g>
</g>
<!-- Node24&#45;&gt;Node25 -->
<g id="edge36" class="edge">
<title>Node24&#45;&gt;Node25</title>
<path fill="none" stroke="#191970" d="M1016.0834,-324.4357C1027.524,-311.6875 1047.9677,-288.9074 1062.1078,-273.1514"/>
<polygon fill="#191970" stroke="#191970" points="1064.7721,-275.4227 1068.8464,-265.6426 1059.5624,-270.7473 1064.7721,-275.4227"/>
</g>
<!-- Node31 -->
<g id="node32" class="node">
<title>Node31</title>
<g id="a_node32"><a xlink:href="_coll_mgr_8_h.html" target="_top" xlink:title="amr&#45;wind/core/CollMgr.H">
<polygon fill="#ffffff" stroke="#000000" points="872,-246.5 872,-265.5 997,-265.5 997,-246.5 872,-246.5"/>
<text text-anchor="middle" x="934.5" y="-253.5" font-family="Helvetica,sans-Serif" font-size="10.00" fill="#000000">amr&#45;wind/core/CollMgr.H</text>
</a>
</g>
</g>
<!-- Node24&#45;&gt;Node31 -->
<g id="edge42" class="edge">
<title>Node24&#45;&gt;Node31</title>
<path fill="none" stroke="#191970" d="M998.5488,-324.4357C986.6178,-311.6875 965.298,-288.9074 950.5519,-273.1514"/>
<polygon fill="#191970" stroke="#191970" points="952.9131,-270.5522 943.5244,-265.6426 947.8022,-275.3354 952.9131,-270.5522"/>
</g>
<!-- Node26 -->
<g id="node27" class="node">
<title>Node26</title>
<polygon fill="#ffffff" stroke="#bfbfbf" points="878.5,-179.5 878.5,-198.5 930.5,-198.5 930.5,-179.5 878.5,-179.5"/>
<text text-anchor="middle" x="904.5" y="-186.5" font-family="Helvetica,sans-Serif" font-size="10.00" fill="#000000">memory</text>
</g>
<!-- Node25&#45;&gt;Node26 -->
<g id="edge37" class="edge">
<title>Node25&#45;&gt;Node26</title>
<path fill="none" stroke="#191970" d="M1052.7133,-246.4005C1022.7808,-234.8082 972.2761,-215.2486 938.6645,-202.2313"/>
<polygon fill="#191970" stroke="#191970" points="939.8298,-198.9294 929.2407,-198.5817 937.3018,-205.457 939.8298,-198.9294"/>
</g>
<!-- Node27 -->
<g id="node28" class="node">
<title>Node27</title>
<polygon fill="#ffffff" stroke="#bfbfbf" points="949,-179.5 949,-198.5 1032,-198.5 1032,-179.5 949,-179.5"/>
<text text-anchor="middle" x="990.5" y="-186.5" font-family="Helvetica,sans-Serif" font-size="10.00" fill="#000000">unordered_map</text>
</g>
<!-- Node25&#45;&gt;Node27 -->
<g id="edge38" class="edge">
<title>Node25&#45;&gt;Node27</title>
<path fill="none" stroke="#191970" d="M1065.035,-246.4005C1050.9513,-235.5544 1027.8112,-217.7339 1011.0461,-204.8229"/>
<polygon fill="#191970" stroke="#191970" points="1013.0003,-201.9102 1002.9419,-198.5817 1008.7292,-207.4562 1013.0003,-201.9102"/>
</g>
<!-- Node28 -->
<g id="node29" class="node">
<title>Node28</title>
<polygon fill="#ffffff" stroke="#bfbfbf" points="1050.5,-179.5 1050.5,-198.5 1104.5,-198.5 1104.5,-179.5 1050.5,-179.5"/>
<text text-anchor="middle" x="1077.5" y="-186.5" font-family="Helvetica,sans-Serif" font-size="10.00" fill="#000000">iostream</text>
</g>
<!-- Node25&#45;&gt;Node28 -->
<g id="edge39" class="edge">
<title>Node25&#45;&gt;Node28</title>
<path fill="none" stroke="#191970" d="M1077.5,-246.4005C1077.5,-236.649 1077.5,-221.2597 1077.5,-208.8695"/>
<polygon fill="#191970" stroke="#191970" points="1081.0001,-208.5816 1077.5,-198.5817 1074.0001,-208.5817 1081.0001,-208.5816"/>
</g>
<!-- Node29 -->
<g id="node30" class="node">
<title>Node29</title>
<polygon fill="#ffffff" stroke="#bfbfbf" points="1123,-179.5 1123,-198.5 1210,-198.5 1210,-179.5 1123,-179.5"/>
<text text-anchor="middle" x="1166.5" y="-186.5" font-family="Helvetica,sans-Serif" font-size="10.00" fill="#000000">AMReX_Print.H</text>
</g>
<!-- Node25&#45;&gt;Node29 -->
<g id="edge40" class="edge">
<title>Node25&#45;&gt;Node29</title>
<path fill="none" stroke="#191970" d="M1090.2515,-246.4005C1104.659,-235.5544 1128.331,-217.7339 1145.4816,-204.8229"/>
<polygon fill="#191970" stroke="#191970" points="1147.8879,-207.3923 1153.7721,-198.5817 1143.6779,-201.7998 1147.8879,-207.3923"/>
</g>
<!-- Node30 -->
<g id="node31" class="node">
<title>Node30</title>
<polygon fill="#ffffff" stroke="#bfbfbf" points="1228.5,-179.5 1228.5,-198.5 1290.5,-198.5 1290.5,-179.5 1228.5,-179.5"/>
<text text-anchor="middle" x="1259.5" y="-186.5" font-family="Helvetica,sans-Serif" font-size="10.00" fill="#000000">AMReX.H</text>
</g>
<!-- Node25&#45;&gt;Node30 -->
<g id="edge41" class="edge">
<title>Node25&#45;&gt;Node30</title>
<path fill="none" stroke="#191970" d="M1103.5762,-246.4005C1135.2011,-234.7584 1188.6544,-215.0805 1224.0124,-202.0641"/>
<polygon fill="#191970" stroke="#191970" points="1225.297,-205.3209 1233.4722,-198.5817 1222.8787,-198.7519 1225.297,-205.3209"/>
</g>
<!-- Node31&#45;&gt;Node5 -->
<g id="edge46" class="edge">
<title>Node31&#45;&gt;Node5</title>
<path fill="none" stroke="#191970" d="M905.1285,-246.4005C869.2026,-234.6589 808.2676,-214.7436 768.4555,-201.7318"/>
<polygon fill="#191970" stroke="#191970" points="769.4096,-198.3615 758.817,-198.5817 767.2349,-205.0151 769.4096,-198.3615"/>
</g>
<!-- Node31&#45;&gt;Node22 -->
<g id="edge43" class="edge">
<title>Node31&#45;&gt;Node22</title>
<path fill="none" stroke="#191970" d="M919.7426,-246.4005C902.7628,-235.3554 874.6641,-217.0776 854.7399,-204.1172"/>
<polygon fill="#191970" stroke="#191970" points="856.5211,-201.1005 846.23,-198.5817 852.7041,-206.9684 856.5211,-201.1005"/>
</g>
<!-- Node31&#45;&gt;Node26 -->
<g id="edge44" class="edge">
<title>Node31&#45;&gt;Node26</title>
<path fill="none" stroke="#191970" d="M930.2017,-246.4005C925.7017,-236.3505 918.5204,-220.3122 912.8912,-207.7403"/>
<polygon fill="#191970" stroke="#191970" points="916.0714,-206.2782 908.7903,-198.5817 909.6826,-209.1389 916.0714,-206.2782"/>
</g>
<!-- Node31&#45;&gt;Node27 -->
<g id="edge45" class="edge">
<title>Node31&#45;&gt;Node27</title>
<path fill="none" stroke="#191970" d="M942.5234,-246.4005C951.2561,-235.9525 965.3982,-219.0325 976.0708,-206.2635"/>
<polygon fill="#191970" stroke="#191970" points="978.7638,-208.4991 982.4914,-198.5817 973.3928,-204.0099 978.7638,-208.4991"/>
</g>
</g>
</svg>
        <g id="navigator" transform="translate(0 0)" fill="#404254">
                <rect fill="#f2f5e9" fill-opacity="0.5" stroke="#606060" stroke-width=".5" x="0" y="0" width="60" height="60"/>
                <use id="zoomplus" xlink:href="#zoomPlus" x="17" y="9" onmousedown="handleZoom(evt,'in')"/>
                <use id="zoomminus" xlink:href="#zoomMin" x="42" y="9" onmousedown="handleZoom(evt,'out')"/>
                <use id="reset" xlink:href="#resetDef" x="30" y="36" onmousedown="handleReset()"/>
                <g id="arrowUp" xlink:href="#dirArrow" transform="translate(30 24)" onmousedown="handlePan(0,-1)">
                  <use xlink:href="#rim" fill="#404040">
                        <set attributeName="fill" to="#808080" begin="arrowUp.mouseover" end="arrowUp.mouseout"/>
                  </use>
                  <path fill="none" stroke="white" stroke-width="1.5" d="M0,-3.0v7 M-2.5,-0.5L0,-3.0L2.5,-0.5"/>
                </g>
                <g id="arrowRight" xlink:href="#dirArrow" transform="rotate(90) translate(36 -43)" onmousedown="handlePan(1,0)">
                  <use xlink:href="#rim" fill="#404040">
                        <set attributeName="fill" to="#808080" begin="arrowRight.mouseover" end="arrowRight.mouseout"/>
                  </use>
                  <path fill="none" stroke="white" stroke-width="1.5" d="M0,-3.0v7 M-2.5,-0.5L0,-3.0L2.5,-0.5"/>
                </g>
                <g id="arrowDown" xlink:href="#dirArrow" transform="rotate(180) translate(-30 -48)" onmousedown="handlePan(0,1)">
                  <use xlink:href="#rim" fill="#404040">
                        <set attributeName="fill" to="#808080" begin="arrowDown.mouseover" end="arrowDown.mouseout"/>
                  </use>
                  <path fill="none" stroke="white" stroke-width="1.5" d="M0,-3.0v7 M-2.5,-0.5L0,-3.0L2.5,-0.5"/>
                </g>
                <g id="arrowLeft" xlink:href="#dirArrow" transform="rotate(270) translate(-36 17)" onmousedown="handlePan(-1,0)">
                  <use xlink:href="#rim" fill="#404040">
                        <set attributeName="fill" to="#808080" begin="arrowLeft.mouseover" end="arrowLeft.mouseout"/>
                  </use>
                  <path fill="none" stroke="white" stroke-width="1.5" d="M0,-3.0v7 M-2.5,-0.5L0,-3.0L2.5,-0.5"/>
                </g>
        </g>
        <svg viewBox="0 0 15 15" width="100%" height="30px" preserveAspectRatio="xMaxYMin meet">
         <g id="arrow_out" transform="scale(0.3 0.3)">
          <a xlink:href="_turbine_fast_8_h__incl_org.svg" target="_base">
           <rect id="button" ry="5" rx="5" y="6" x="6" height="38" width="38"
                fill="#f2f5e9" fill-opacity="0.5" stroke="#606060" stroke-width="1.0"/>
           <path id="arrow"
             d="M 11.500037,31.436501 C 11.940474,20.09759 22.043105,11.32322 32.158766,21.979434 L 37.068811,17.246167 C 37.068811,17.246167 37.088388,32 37.088388,32 L 22.160133,31.978069 C 22.160133,31.978069 26.997745,27.140456 26.997745,27.140456 C 18.528582,18.264221 13.291696,25.230495 11.500037,31.436501 z"
             style="fill:#404040;"/>
          </a>
         </g>
        </svg>
</svg>
