<?xml version="1.0" encoding="UTF-8" standalone="no"?>
<!DOCTYPE svg PUBLIC "-//W3C//DTD SVG 1.1//EN"
 "http://www.w3.org/Graphics/SVG/1.1/DTD/svg11.dtd">
<!-- Generated by graphviz version 2.40.1 (20161225.0304)
 -->
<!-- Title: TurbineFast.H Pages: 1 -->
<svg width="140pt" height="140pt"
 viewBox="0.00 0.00 140.00 140.00" xmlns="http://www.w3.org/2000/svg" xmlns:xlink="http://www.w3.org/1999/xlink">
<g id="graph0" class="graph" transform="scale(1 1) rotate(0) translate(4 136)">
<title>TurbineFast.H</title>
<polygon fill="#ffffff" stroke="transparent" points="-4,4 -4,-136 136,-136 136,4 -4,4"/>
<!-- Node34 -->
<g id="node1" class="node">
<title>Node34</title>
<polygon fill="#bfbfbf" stroke="#000000" points="49,-112.5 49,-131.5 128,-131.5 128,-112.5 49,-112.5"/>
<text text-anchor="middle" x="88.5" y="-119.5" font-family="Helvetica,sans-Serif" font-size="10.00" fill="#000000">TurbineFast.H</text>
</g>
<!-- Node35 -->
<g id="node2" class="node">
<title>Node35</title>
<g id="a_node2"><a xlink:href="turbine__fast__ops_8_h.html" target="_top" xlink:title="turbine_fast_ops.H">
<polygon fill="#ffffff" stroke="#000000" points="0,-56.5 0,-75.5 99,-75.5 99,-56.5 0,-56.5"/>
<text text-anchor="middle" x="49.5" y="-63.5" font-family="Helvetica,sans-Serif" font-size="10.00" fill="#000000">turbine_fast_ops.H</text>
</a>
</g>
</g>
<!-- Node34&#45;&gt;Node35 -->
<g id="edge1" class="edge">
<title>Node34&#45;&gt;Node35</title>
<path fill="none" stroke="#191970" d="M75.9092,-103.9209C69.3605,-94.5176 61.6176,-83.3997 56.2154,-75.6427"/>
<polygon fill="#191970" stroke="#191970" points="73.1196,-106.0397 81.7067,-112.2455 78.8639,-102.0392 73.1196,-106.0397"/>
</g>
<!-- Node36 -->
<g id="node3" class="node">
<title>Node36</title>
<g id="a_node3"><a xlink:href="_turbine_fast_8cpp.html" target="_top" xlink:title="TurbineFast.cpp">
<polygon fill="#ffffff" stroke="#000000" points="45,-.5 45,-19.5 132,-19.5 132,-.5 45,-.5"/>
<text text-anchor="middle" x="88.5" y="-7.5" font-family="Helvetica,sans-Serif" font-size="10.00" fill="#000000">TurbineFast.cpp</text>
</a>
</g>
</g>
<!-- Node34&#45;&gt;Node36 -->
<g id="edge3" class="edge">
<title>Node34&#45;&gt;Node36</title>
<path fill="none" stroke="#191970" d="M98.7469,-103.217C102.6196,-95.0983 106.5586,-85.3345 108.5,-76 112.7422,-55.6037 101.9781,-32.4433 94.6472,-19.6988"/>
<polygon fill="#191970" stroke="#191970" points="95.6097,-101.6647 94.1945,-112.1646 101.8486,-104.839 95.6097,-101.6647"/>
</g>
<!-- Node35&#45;&gt;Node36 -->
<g id="edge2" class="edge">
<title>Node35&#45;&gt;Node36</title>
<path fill="none" stroke="#191970" d="M62.0908,-47.9209C68.6395,-38.5176 76.3824,-27.3997 81.7846,-19.6427"/>
<polygon fill="#191970" stroke="#191970" points="59.1361,-46.0392 56.2933,-56.2455 64.8804,-50.0397 59.1361,-46.0392"/>
</g>
</g>
</svg>
