<?xml version="1.0" encoding="UTF-8" standalone="no"?>
<!DOCTYPE svg PUBLIC "-//W3C//DTD SVG 1.1//EN"
 "http://www.w3.org/Graphics/SVG/1.1/DTD/svg11.dtd">
<!-- Generated by graphviz version 2.40.1 (20161225.0304)
 -->
<!-- Title: TwoPhaseTransport.H Pages: 1 -->
<svg width="2135pt" height="319pt"
 viewBox="0.00 0.00 2134.50 319.00" xmlns="http://www.w3.org/2000/svg" xmlns:xlink="http://www.w3.org/1999/xlink">
<g id="graph0" class="graph" transform="scale(1 1) rotate(0) translate(4 315)">
<title>TwoPhaseTransport.H</title>
<polygon fill="#ffffff" stroke="transparent" points="-4,4 -4,-315 2130.5,-315 2130.5,4 -4,4"/>
<!-- Node0 -->
<g id="node1" class="node">
<title>Node0</title>
<polygon fill="#bfbfbf" stroke="#000000" points="658.5,-291.5 658.5,-310.5 773.5,-310.5 773.5,-291.5 658.5,-291.5"/>
<text text-anchor="middle" x="716" y="-298.5" font-family="Helvetica,sans-Serif" font-size="10.00" fill="#000000">TwoPhaseTransport.H</text>
</g>
<!-- Node1 -->
<g id="node2" class="node">
<title>Node1</title>
<g id="a_node2"><a xlink:href="_multi_phase_8_h.html" target="_top" xlink:title="amr&#45;wind/physics/multiphase\l/MultiPhase.H">
<polygon fill="#ffffff" stroke="#000000" points="644.5,-224.5 644.5,-254.5 787.5,-254.5 787.5,-224.5 644.5,-224.5"/>
<text text-anchor="start" x="652.5" y="-242.5" font-family="Helvetica,sans-Serif" font-size="10.00" fill="#000000">amr&#45;wind/physics/multiphase</text>
<text text-anchor="middle" x="716" y="-231.5" font-family="Helvetica,sans-Serif" font-size="10.00" fill="#000000">/MultiPhase.H</text>
</a>
</g>
</g>
<!-- Node0&#45;&gt;Node1 -->
<g id="edge1" class="edge">
<title>Node0&#45;&gt;Node1</title>
<path fill="none" stroke="#191970" d="M716,-291.3906C716,-284.2234 716,-274.0862 716,-264.671"/>
<polygon fill="#191970" stroke="#191970" points="719.5001,-264.5446 716,-254.5446 712.5001,-264.5446 719.5001,-264.5446"/>
</g>
<!-- Node21 -->
<g id="node22" class="node">
<title>Node21</title>
<g id="a_node22"><a xlink:href="_transport_model_8_h.html" target="_top" xlink:title="amr&#45;wind/transport\l_models/TransportModel.H">
<polygon fill="#ffffff" stroke="#000000" points="492,-224.5 492,-254.5 626,-254.5 626,-224.5 492,-224.5"/>
<text text-anchor="start" x="500" y="-242.5" font-family="Helvetica,sans-Serif" font-size="10.00" fill="#000000">amr&#45;wind/transport</text>
<text text-anchor="middle" x="559" y="-231.5" font-family="Helvetica,sans-Serif" font-size="10.00" fill="#000000">_models/TransportModel.H</text>
</a>
</g>
</g>
<!-- Node0&#45;&gt;Node21 -->
<g id="edge31" class="edge">
<title>Node0&#45;&gt;Node21</title>
<path fill="none" stroke="#191970" d="M691.4688,-291.3906C668.9419,-282.5664 634.9227,-269.2404 607,-258.3026"/>
<polygon fill="#191970" stroke="#191970" points="607.9942,-254.9331 597.4065,-254.5446 605.441,-261.4509 607.9942,-254.9331"/>
</g>
<!-- Node30 -->
<g id="node31" class="node">
<title>Node30</title>
<polygon fill="#ffffff" stroke="#bfbfbf" points="806,-230 806,-249 922,-249 922,-230 806,-230"/>
<text text-anchor="middle" x="864" y="-237" font-family="Helvetica,sans-Serif" font-size="10.00" fill="#000000">AMReX_ParmParse.H</text>
</g>
<!-- Node0&#45;&gt;Node30 -->
<g id="edge56" class="edge">
<title>Node0&#45;&gt;Node30</title>
<path fill="none" stroke="#191970" d="M739.125,-291.3906C763.9967,-281.0554 803.7298,-264.5447 831.6844,-252.9284"/>
<polygon fill="#191970" stroke="#191970" points="833.146,-256.1113 841.0374,-249.0419 830.4598,-249.6472 833.146,-256.1113"/>
</g>
<!-- Node2 -->
<g id="node3" class="node">
<title>Node2</title>
<g id="a_node3"><a xlink:href="_physics_8_h.html" target="_top" xlink:title="amr&#45;wind/core/Physics.H">
<polygon fill="#ffffff" stroke="#000000" points="542.5,-168.5 542.5,-187.5 669.5,-187.5 669.5,-168.5 542.5,-168.5"/>
<text text-anchor="middle" x="606" y="-175.5" font-family="Helvetica,sans-Serif" font-size="10.00" fill="#000000">amr&#45;wind/core/Physics.H</text>
</a>
</g>
</g>
<!-- Node1&#45;&gt;Node2 -->
<g id="edge2" class="edge">
<title>Node1&#45;&gt;Node2</title>
<path fill="none" stroke="#191970" d="M689.091,-224.4554C671.7032,-214.734 649.1951,-202.15 631.9916,-192.5317"/>
<polygon fill="#191970" stroke="#191970" points="633.4826,-189.3554 623.0461,-187.5303 630.0665,-195.4653 633.4826,-189.3554"/>
</g>
<!-- Node14 -->
<g id="node15" class="node">
<title>Node14</title>
<g id="a_node15"><a xlink:href="_field_8_h.html" target="_top" xlink:title="amr&#45;wind/core/Field.H">
<polygon fill="#ffffff" stroke="#000000" points="794.5,-112.5 794.5,-131.5 907.5,-131.5 907.5,-112.5 794.5,-112.5"/>
<text text-anchor="middle" x="851" y="-119.5" font-family="Helvetica,sans-Serif" font-size="10.00" fill="#000000">amr&#45;wind/core/Field.H</text>
</a>
</g>
</g>
<!-- Node1&#45;&gt;Node14 -->
<g id="edge16" class="edge">
<title>Node1&#45;&gt;Node14</title>
<path fill="none" stroke="#191970" d="M733.3725,-224.3795C758.8191,-202.2315 806.0403,-161.1316 832.2484,-138.3209"/>
<polygon fill="#191970" stroke="#191970" points="834.7197,-140.81 839.9649,-131.6046 830.124,-135.5298 834.7197,-140.81"/>
</g>
<!-- Node3 -->
<g id="node4" class="node">
<title>Node3</title>
<g id="a_node4"><a xlink:href="_factory_8_h.html" target="_top" xlink:title="amr&#45;wind/core/Factory.H">
<polygon fill="#ffffff" stroke="#000000" points="361.5,-112.5 361.5,-131.5 486.5,-131.5 486.5,-112.5 361.5,-112.5"/>
<text text-anchor="middle" x="424" y="-119.5" font-family="Helvetica,sans-Serif" font-size="10.00" fill="#000000">amr&#45;wind/core/Factory.H</text>
</a>
</g>
</g>
<!-- Node2&#45;&gt;Node3 -->
<g id="edge3" class="edge">
<title>Node2&#45;&gt;Node3</title>
<path fill="none" stroke="#191970" d="M574.7131,-168.3733C544.3182,-159.021 498.0107,-144.7725 464.75,-134.5385"/>
<polygon fill="#191970" stroke="#191970" points="465.4658,-131.0968 454.8786,-131.5011 463.4071,-137.7873 465.4658,-131.0968"/>
</g>
<!-- Node9 -->
<g id="node10" class="node">
<title>Node9</title>
<g id="a_node10"><a xlink:href="_coll_mgr_8_h.html" target="_top" xlink:title="amr&#45;wind/core/CollMgr.H">
<polygon fill="#ffffff" stroke="#000000" points="543.5,-112.5 543.5,-131.5 668.5,-131.5 668.5,-112.5 543.5,-112.5"/>
<text text-anchor="middle" x="606" y="-119.5" font-family="Helvetica,sans-Serif" font-size="10.00" fill="#000000">amr&#45;wind/core/CollMgr.H</text>
</a>
</g>
</g>
<!-- Node2&#45;&gt;Node9 -->
<g id="edge9" class="edge">
<title>Node2&#45;&gt;Node9</title>
<path fill="none" stroke="#191970" d="M606,-168.2455C606,-160.9382 606,-150.6944 606,-141.7046"/>
<polygon fill="#191970" stroke="#191970" points="609.5001,-141.6426 606,-131.6427 602.5001,-141.6427 609.5001,-141.6426"/>
</g>
<!-- Node12 -->
<g id="node13" class="node">
<title>Node12</title>
<polygon fill="#ffffff" stroke="#bfbfbf" points="1552,-.5 1552,-19.5 1656,-19.5 1656,-.5 1552,-.5"/>
<text text-anchor="middle" x="1604" y="-7.5" font-family="Helvetica,sans-Serif" font-size="10.00" fill="#000000">AMReX_MultiFab.H</text>
</g>
<!-- Node2&#45;&gt;Node12 -->
<g id="edge14" class="edge">
<title>Node2&#45;&gt;Node12</title>
<path fill="none" stroke="#191970" d="M669.5279,-176.64C907.9763,-171.3872 1737.0407,-151.7328 1756,-132 1779.4023,-107.6429 1776.1303,-83.124 1756,-56 1744.9234,-41.0751 1703.354,-29.1119 1666.4827,-21.1305"/>
<polygon fill="#191970" stroke="#191970" points="1666.7419,-17.609 1656.2369,-18.9858 1665.3076,-24.4605 1666.7419,-17.609"/>
</g>
<!-- Node13 -->
<g id="node14" class="node">
<title>Node13</title>
<polygon fill="#ffffff" stroke="#bfbfbf" points="0,-112.5 0,-131.5 110,-131.5 110,-112.5 0,-112.5"/>
<text text-anchor="middle" x="55" y="-119.5" font-family="Helvetica,sans-Serif" font-size="10.00" fill="#000000">AMReX_Geometry.H</text>
</g>
<!-- Node2&#45;&gt;Node13 -->
<g id="edge15" class="edge">
<title>Node2&#45;&gt;Node13</title>
<path fill="none" stroke="#191970" d="M542.347,-172.9206C450.0156,-165.3268 273.6037,-149.9688 124,-132 122.8883,-131.8665 121.7669,-131.7296 120.6379,-131.5896"/>
<polygon fill="#191970" stroke="#191970" points="120.6954,-128.0682 110.3301,-130.2611 119.8006,-135.0108 120.6954,-128.0682"/>
</g>
<!-- Node4 -->
<g id="node5" class="node">
<title>Node4</title>
<polygon fill="#ffffff" stroke="#bfbfbf" points="526,-56.5 526,-75.5 578,-75.5 578,-56.5 526,-56.5"/>
<text text-anchor="middle" x="552" y="-63.5" font-family="Helvetica,sans-Serif" font-size="10.00" fill="#000000">memory</text>
</g>
<!-- Node3&#45;&gt;Node4 -->
<g id="edge4" class="edge">
<title>Node3&#45;&gt;Node4</title>
<path fill="none" stroke="#191970" d="M446.004,-112.3733C466.6435,-103.3435 497.7158,-89.7494 520.8889,-79.6111"/>
<polygon fill="#191970" stroke="#191970" points="522.5245,-82.7159 530.2831,-75.5011 519.7187,-76.3028 522.5245,-82.7159"/>
</g>
<!-- Node5 -->
<g id="node6" class="node">
<title>Node5</title>
<polygon fill="#ffffff" stroke="#bfbfbf" points="424.5,-56.5 424.5,-75.5 507.5,-75.5 507.5,-56.5 424.5,-56.5"/>
<text text-anchor="middle" x="466" y="-63.5" font-family="Helvetica,sans-Serif" font-size="10.00" fill="#000000">unordered_map</text>
</g>
<!-- Node3&#45;&gt;Node5 -->
<g id="edge5" class="edge">
<title>Node3&#45;&gt;Node5</title>
<path fill="none" stroke="#191970" d="M431.3158,-112.2455C437.2179,-104.3761 445.6742,-93.101 452.7594,-83.6542"/>
<polygon fill="#191970" stroke="#191970" points="455.568,-85.7427 458.768,-75.6427 449.9679,-81.5427 455.568,-85.7427"/>
</g>
<!-- Node6 -->
<g id="node7" class="node">
<title>Node6</title>
<polygon fill="#ffffff" stroke="#bfbfbf" points="166,-56.5 166,-75.5 220,-75.5 220,-56.5 166,-56.5"/>
<text text-anchor="middle" x="193" y="-63.5" font-family="Helvetica,sans-Serif" font-size="10.00" fill="#000000">iostream</text>
</g>
<!-- Node3&#45;&gt;Node6 -->
<g id="edge6" class="edge">
<title>Node3&#45;&gt;Node6</title>
<path fill="none" stroke="#191970" d="M381.2773,-112.4299C343.8558,-103.9335 287.7722,-90.9267 230.1153,-76.2187"/>
<polygon fill="#191970" stroke="#191970" points="230.6522,-72.7432 220.0962,-73.6495 228.9134,-79.5238 230.6522,-72.7432"/>
</g>
<!-- Node7 -->
<g id="node8" class="node">
<title>Node7</title>
<polygon fill="#ffffff" stroke="#bfbfbf" points="238.5,-56.5 238.5,-75.5 325.5,-75.5 325.5,-56.5 238.5,-56.5"/>
<text text-anchor="middle" x="282" y="-63.5" font-family="Helvetica,sans-Serif" font-size="10.00" fill="#000000">AMReX_Print.H</text>
</g>
<!-- Node3&#45;&gt;Node7 -->
<g id="edge7" class="edge">
<title>Node3&#45;&gt;Node7</title>
<path fill="none" stroke="#191970" d="M399.5893,-112.3733C376.3858,-103.2226 341.2962,-89.3844 315.4858,-79.2057"/>
<polygon fill="#191970" stroke="#191970" points="316.6789,-75.9139 306.0921,-75.5011 314.1108,-82.4258 316.6789,-75.9139"/>
</g>
<!-- Node8 -->
<g id="node9" class="node">
<title>Node8</title>
<polygon fill="#ffffff" stroke="#bfbfbf" points="344,-56.5 344,-75.5 406,-75.5 406,-56.5 344,-56.5"/>
<text text-anchor="middle" x="375" y="-63.5" font-family="Helvetica,sans-Serif" font-size="10.00" fill="#000000">AMReX.H</text>
</g>
<!-- Node3&#45;&gt;Node8 -->
<g id="edge8" class="edge">
<title>Node3&#45;&gt;Node8</title>
<path fill="none" stroke="#191970" d="M415.4649,-112.2455C408.5088,-104.2958 398.5117,-92.8706 390.1949,-83.3656"/>
<polygon fill="#191970" stroke="#191970" points="392.6564,-80.8637 383.4373,-75.6427 387.3884,-85.4732 392.6564,-80.8637"/>
</g>
<!-- Node9&#45;&gt;Node4 -->
<g id="edge11" class="edge">
<title>Node9&#45;&gt;Node4</title>
<path fill="none" stroke="#191970" d="M596.5939,-112.2455C588.8507,-104.2155 577.688,-92.6394 568.4682,-83.0781"/>
<polygon fill="#191970" stroke="#191970" points="570.7591,-80.4117 561.2983,-75.6427 565.7202,-85.2706 570.7591,-80.4117"/>
</g>
<!-- Node9&#45;&gt;Node5 -->
<g id="edge12" class="edge">
<title>Node9&#45;&gt;Node5</title>
<path fill="none" stroke="#191970" d="M581.9331,-112.3733C559.1572,-103.2629 524.7656,-89.5062 499.351,-79.3404"/>
<polygon fill="#191970" stroke="#191970" points="500.3375,-75.9654 489.7528,-75.5011 497.7377,-82.4648 500.3375,-75.9654"/>
</g>
<!-- Node10 -->
<g id="node11" class="node">
<title>Node10</title>
<polygon fill="#ffffff" stroke="#bfbfbf" points="863.5,-.5 863.5,-19.5 904.5,-19.5 904.5,-.5 863.5,-.5"/>
<text text-anchor="middle" x="884" y="-7.5" font-family="Helvetica,sans-Serif" font-size="10.00" fill="#000000">string</text>
</g>
<!-- Node9&#45;&gt;Node10 -->
<g id="edge10" class="edge">
<title>Node9&#45;&gt;Node10</title>
<path fill="none" stroke="#191970" d="M610.2705,-112.1304C617.1861,-97.3993 632.2864,-69.9085 654,-56 686.7094,-35.0482 798.4039,-19.7771 853.1917,-13.3559"/>
<polygon fill="#191970" stroke="#191970" points="853.8143,-16.8075 863.3503,-12.1906 853.0165,-9.8532 853.8143,-16.8075"/>
</g>
<!-- Node11 -->
<g id="node12" class="node">
<title>Node11</title>
<polygon fill="#ffffff" stroke="#bfbfbf" points="1189.5,-.5 1189.5,-19.5 1284.5,-19.5 1284.5,-.5 1189.5,-.5"/>
<text text-anchor="middle" x="1237" y="-7.5" font-family="Helvetica,sans-Serif" font-size="10.00" fill="#000000">AMReX_Vector.H</text>
</g>
<!-- Node9&#45;&gt;Node11 -->
<g id="edge13" class="edge">
<title>Node9&#45;&gt;Node11</title>
<path fill="none" stroke="#191970" d="M668.9764,-117.4821C793.5843,-108.3531 1063.1218,-87.5943 1104,-76 1144.6391,-64.4735 1187.7491,-40.6589 1213.5137,-25.0116"/>
<polygon fill="#191970" stroke="#191970" points="1215.517,-27.8881 1222.1844,-19.6543 1211.8376,-21.9331 1215.517,-27.8881"/>
</g>
<!-- Node14&#45;&gt;Node4 -->
<g id="edge18" class="edge">
<title>Node14&#45;&gt;Node4</title>
<path fill="none" stroke="#191970" d="M799.9398,-112.4369C739.738,-101.1616 641.1985,-82.7061 588.2922,-72.7972"/>
<polygon fill="#191970" stroke="#191970" points="588.8177,-69.3348 578.3443,-70.934 587.529,-76.2152 588.8177,-69.3348"/>
</g>
<!-- Node14&#45;&gt;Node5 -->
<g id="edge19" class="edge">
<title>Node14&#45;&gt;Node5</title>
<path fill="none" stroke="#191970" d="M794.4146,-115.2011C729.9447,-107.2322 621.2028,-93.1166 517.7108,-76.0409"/>
<polygon fill="#191970" stroke="#191970" points="518.152,-72.5663 507.7135,-74.3792 517.0043,-79.4715 518.152,-72.5663"/>
</g>
<!-- Node14&#45;&gt;Node10 -->
<g id="edge17" class="edge">
<title>Node14&#45;&gt;Node10</title>
<path fill="none" stroke="#191970" d="M794.2844,-115.8002C745.0288,-109.1086 679.1294,-96.5518 663,-76 657.5121,-69.0075 657.3915,-62.8961 663,-56 686.6458,-26.9257 798.3046,-15.6193 853.2756,-11.7598"/>
<polygon fill="#191970" stroke="#191970" points="853.7245,-15.2378 863.4711,-11.0841 853.2615,-8.2531 853.7245,-15.2378"/>
</g>
<!-- Node14&#45;&gt;Node12 -->
<g id="edge21" class="edge">
<title>Node14&#45;&gt;Node12</title>
<path fill="none" stroke="#191970" d="M907.8047,-120.3453C1030.2865,-116.2855 1315.6181,-104.0464 1408,-76 1425.514,-70.6829 1427.0957,-63.0183 1444,-56 1478.6852,-41.5994 1519.3803,-29.9666 1551.0486,-22.0019"/>
<polygon fill="#191970" stroke="#191970" points="1552.125,-25.3413 1560.9943,-19.5459 1550.4468,-18.5454 1552.125,-25.3413"/>
</g>
<!-- Node15 -->
<g id="node16" class="node">
<title>Node15</title>
<polygon fill="#ffffff" stroke="#bfbfbf" points="672,-56.5 672,-75.5 728,-75.5 728,-56.5 672,-56.5"/>
<text text-anchor="middle" x="700" y="-63.5" font-family="Helvetica,sans-Serif" font-size="10.00" fill="#000000">algorithm</text>
</g>
<!-- Node14&#45;&gt;Node15 -->
<g id="edge20" class="edge">
<title>Node14&#45;&gt;Node15</title>
<path fill="none" stroke="#191970" d="M825.0422,-112.3733C800.2593,-103.1822 762.7254,-89.2624 735.246,-79.0713"/>
<polygon fill="#191970" stroke="#191970" points="736.2121,-75.6968 725.6191,-75.5011 733.7781,-82.26 736.2121,-75.6968"/>
</g>
<!-- Node16 -->
<g id="node17" class="node">
<title>Node16</title>
<polygon fill="#ffffff" stroke="#bfbfbf" points="746.5,-56.5 746.5,-75.5 845.5,-75.5 845.5,-56.5 746.5,-56.5"/>
<text text-anchor="middle" x="796" y="-63.5" font-family="Helvetica,sans-Serif" font-size="10.00" fill="#000000">AMReX_BCRec.H</text>
</g>
<!-- Node14&#45;&gt;Node16 -->
<g id="edge22" class="edge">
<title>Node14&#45;&gt;Node16</title>
<path fill="none" stroke="#191970" d="M841.4197,-112.2455C833.4542,-104.1352 821.9359,-92.4075 812.4921,-82.7919"/>
<polygon fill="#191970" stroke="#191970" points="814.9747,-80.3247 805.4705,-75.6427 809.9805,-85.2297 814.9747,-80.3247"/>
</g>
<!-- Node17 -->
<g id="node18" class="node">
<title>Node17</title>
<polygon fill="#ffffff" stroke="#bfbfbf" points="863.5,-56.5 863.5,-75.5 948.5,-75.5 948.5,-56.5 863.5,-56.5"/>
<text text-anchor="middle" x="906" y="-63.5" font-family="Helvetica,sans-Serif" font-size="10.00" fill="#000000">AMReX_Gpu.H</text>
</g>
<!-- Node14&#45;&gt;Node17 -->
<g id="edge23" class="edge">
<title>Node14&#45;&gt;Node17</title>
<path fill="none" stroke="#191970" d="M860.5803,-112.2455C868.5458,-104.1352 880.0641,-92.4075 889.5079,-82.7919"/>
<polygon fill="#191970" stroke="#191970" points="892.0195,-85.2297 896.5295,-75.6427 887.0253,-80.3247 892.0195,-85.2297"/>
</g>
<!-- Node18 -->
<g id="node19" class="node">
<title>Node18</title>
<g id="a_node19"><a xlink:href="incflo__enums_8_h.html" target="_top" xlink:title="amr&#45;wind/incflo_enums.H">
<polygon fill="#ffffff" stroke="#000000" points="967,-56.5 967,-75.5 1095,-75.5 1095,-56.5 967,-56.5"/>
<text text-anchor="middle" x="1031" y="-63.5" font-family="Helvetica,sans-Serif" font-size="10.00" fill="#000000">amr&#45;wind/incflo_enums.H</text>
</a>
</g>
</g>
<!-- Node14&#45;&gt;Node18 -->
<g id="edge24" class="edge">
<title>Node14&#45;&gt;Node18</title>
<path fill="none" stroke="#191970" d="M881.9431,-112.3733C912.0039,-103.021 957.8026,-88.7725 990.6978,-78.5385"/>
<polygon fill="#191970" stroke="#191970" points="991.9519,-81.8139 1000.4607,-75.5011 989.8723,-75.1299 991.9519,-81.8139"/>
</g>
<!-- Node19 -->
<g id="node20" class="node">
<title>Node19</title>
<g id="a_node20"><a xlink:href="_field_desc_types_8_h.html" target="_top" xlink:title="amr&#45;wind/core/FieldDescTypes.H">
<polygon fill="#ffffff" stroke="#000000" points="1813.5,-.5 1813.5,-19.5 1976.5,-19.5 1976.5,-.5 1813.5,-.5"/>
<text text-anchor="middle" x="1895" y="-7.5" font-family="Helvetica,sans-Serif" font-size="10.00" fill="#000000">amr&#45;wind/core/FieldDescTypes.H</text>
</a>
</g>
</g>
<!-- Node14&#45;&gt;Node19 -->
<g id="edge25" class="edge">
<title>Node14&#45;&gt;Node19</title>
<path fill="none" stroke="#191970" d="M907.5402,-120.4107C1092.7605,-115.0262 1674.1026,-96.6541 1756,-76 1798.8665,-65.1893 1844.3976,-40.7752 1871.2351,-24.8629"/>
<polygon fill="#191970" stroke="#191970" points="1873.1603,-27.7891 1879.9133,-19.6253 1869.5432,-21.796 1873.1603,-27.7891"/>
</g>
<!-- Node20 -->
<g id="node21" class="node">
<title>Node20</title>
<g id="a_node21"><a xlink:href="_view_field_8_h.html" target="_top" xlink:title="amr&#45;wind/core/ViewField.H">
<polygon fill="#ffffff" stroke="#000000" points="1265,-56.5 1265,-75.5 1399,-75.5 1399,-56.5 1265,-56.5"/>
<text text-anchor="middle" x="1332" y="-63.5" font-family="Helvetica,sans-Serif" font-size="10.00" fill="#000000">amr&#45;wind/core/ViewField.H</text>
</a>
</g>
</g>
<!-- Node14&#45;&gt;Node20 -->
<g id="edge26" class="edge">
<title>Node14&#45;&gt;Node20</title>
<path fill="none" stroke="#191970" d="M907.5912,-115.4114C993.6969,-105.3866 1157.8173,-86.2791 1254.7996,-74.988"/>
<polygon fill="#191970" stroke="#191970" points="1255.3091,-78.4524 1264.8373,-73.8194 1254.4996,-71.4994 1255.3091,-78.4524"/>
</g>
<!-- Node20&#45;&gt;Node10 -->
<g id="edge27" class="edge">
<title>Node20&#45;&gt;Node10</title>
<path fill="none" stroke="#191970" d="M1264.9299,-57.6162C1166.4868,-45.3109 986.7793,-22.8474 914.909,-13.8636"/>
<polygon fill="#191970" stroke="#191970" points="915.0757,-10.3573 904.7187,-12.5898 914.2074,-17.3032 915.0757,-10.3573"/>
</g>
<!-- Node20&#45;&gt;Node11 -->
<g id="edge30" class="edge">
<title>Node20&#45;&gt;Node11</title>
<path fill="none" stroke="#191970" d="M1315.4523,-56.2455C1300.7401,-47.5731 1279.0112,-34.7645 1262.1495,-24.825"/>
<polygon fill="#191970" stroke="#191970" points="1263.7502,-21.7057 1253.3581,-19.6427 1260.1954,-27.736 1263.7502,-21.7057"/>
</g>
<!-- Node20&#45;&gt;Node12 -->
<g id="edge29" class="edge">
<title>Node20&#45;&gt;Node12</title>
<path fill="none" stroke="#191970" d="M1378.4494,-56.4369C1425.2935,-46.7925 1497.6539,-31.8948 1547.7262,-21.5858"/>
<polygon fill="#191970" stroke="#191970" points="1548.6534,-24.9684 1557.7422,-19.5237 1547.2418,-18.1122 1548.6534,-24.9684"/>
</g>
<!-- Node20&#45;&gt;Node19 -->
<g id="edge28" class="edge">
<title>Node20&#45;&gt;Node19</title>
<path fill="none" stroke="#191970" d="M1399.0728,-59.3285C1499.6906,-49.3203 1689.9607,-30.3947 1803.3254,-19.1186"/>
<polygon fill="#191970" stroke="#191970" points="1803.7706,-22.5917 1813.375,-18.119 1803.0777,-15.6261 1803.7706,-22.5917"/>
</g>
<!-- Node21&#45;&gt;Node3 -->
<g id="edge32" class="edge">
<title>Node21&#45;&gt;Node3</title>
<path fill="none" stroke="#191970" d="M541.6275,-224.3795C516.1809,-202.2315 468.9597,-161.1316 442.7516,-138.3209"/>
<polygon fill="#191970" stroke="#191970" points="444.876,-135.5298 435.0351,-131.6046 440.2803,-140.81 444.876,-135.5298"/>
</g>
<!-- Node22 -->
<g id="node23" class="node">
<title>Node22</title>
<g id="a_node23"><a xlink:href="_field_repo_8_h.html" target="_top" xlink:title="amr&#45;wind/core/FieldRepo.H">
<polygon fill="#ffffff" stroke="#000000" points="1403,-168.5 1403,-187.5 1539,-187.5 1539,-168.5 1403,-168.5"/>
<text text-anchor="middle" x="1471" y="-175.5" font-family="Helvetica,sans-Serif" font-size="10.00" fill="#000000">amr&#45;wind/core/FieldRepo.H</text>
</a>
</g>
</g>
<!-- Node21&#45;&gt;Node22 -->
<g id="edge33" class="edge">
<title>Node21&#45;&gt;Node22</title>
<path fill="none" stroke="#191970" d="M626.0979,-225.4032C629.4391,-224.8866 632.7536,-224.414 636,-224 780.9847,-205.511 1214.4144,-187.6508 1392.8882,-180.8669"/>
<polygon fill="#191970" stroke="#191970" points="1393.1295,-184.3604 1402.9899,-180.4845 1392.8646,-177.3654 1393.1295,-184.3604"/>
</g>
<!-- Node22&#45;&gt;Node5 -->
<g id="edge35" class="edge">
<title>Node22&#45;&gt;Node5</title>
<path fill="none" stroke="#191970" d="M1402.7068,-177.4197C1200.3245,-175.3146 612.9414,-166.2882 534,-132 510.7898,-121.9187 490.9226,-100.1259 478.7601,-84.3342"/>
<polygon fill="#191970" stroke="#191970" points="481.2703,-81.8404 472.5222,-75.8636 475.6337,-85.9912 481.2703,-81.8404"/>
</g>
<!-- Node22&#45;&gt;Node10 -->
<g id="edge34" class="edge">
<title>Node22&#45;&gt;Node10</title>
<path fill="none" stroke="#191970" d="M1402.717,-177.3243C1192.3307,-174.9063 555.9362,-164.9884 352,-132 262.9874,-117.6015 211.251,-148.0236 157,-76 151.652,-68.8999 150.9163,-62.4808 157,-56 181.2025,-30.2177 718.1893,-14.3704 853.342,-10.7811"/>
<polygon fill="#191970" stroke="#191970" points="853.5154,-14.2779 863.4201,-10.5165 853.3316,-7.2803 853.5154,-14.2779"/>
</g>
<!-- Node22&#45;&gt;Node12 -->
<g id="edge54" class="edge">
<title>Node22&#45;&gt;Node12</title>
<path fill="none" stroke="#191970" d="M1539.2944,-172.8306C1627.8337,-165.4239 1772.8891,-150.6091 1789,-132 1811.1088,-106.463 1809.8042,-82.6106 1789,-56 1773.8231,-36.5872 1713.7087,-24.1944 1666.0696,-17.2231"/>
<polygon fill="#191970" stroke="#191970" points="1666.5052,-13.75 1656.114,-15.8172 1665.5263,-20.6812 1666.5052,-13.75"/>
</g>
<!-- Node22&#45;&gt;Node14 -->
<g id="edge41" class="edge">
<title>Node22&#45;&gt;Node14</title>
<path fill="none" stroke="#191970" d="M1402.8756,-171.8468C1283.2097,-161.0383 1036.7088,-138.7737 917.9083,-128.0433"/>
<polygon fill="#191970" stroke="#191970" points="918.1268,-124.5489 907.8525,-127.1351 917.497,-131.5205 918.1268,-124.5489"/>
</g>
<!-- Node22&#45;&gt;Node19 -->
<g id="edge36" class="edge">
<title>Node22&#45;&gt;Node19</title>
<path fill="none" stroke="#191970" d="M1539.1222,-175.3461C1608.4194,-171.1235 1718.2301,-160.2032 1809,-132 1861.7676,-115.6045 1891.0347,-123.0558 1920,-76 1929.2731,-60.9353 1920.1354,-41.8708 1910.4036,-28.1094"/>
<polygon fill="#191970" stroke="#191970" points="1912.9813,-25.7199 1904.1102,-19.9274 1907.4328,-29.9877 1912.9813,-25.7199"/>
</g>
<!-- Node23 -->
<g id="node24" class="node">
<title>Node23</title>
<g id="a_node24"><a xlink:href="_field_utils_8_h.html" target="_top" xlink:title="amr&#45;wind/core/FieldUtils.H">
<polygon fill="#ffffff" stroke="#000000" points="1993.5,-56.5 1993.5,-75.5 2126.5,-75.5 2126.5,-56.5 1993.5,-56.5"/>
<text text-anchor="middle" x="2060" y="-63.5" font-family="Helvetica,sans-Serif" font-size="10.00" fill="#000000">amr&#45;wind/core/FieldUtils.H</text>
</a>
</g>
</g>
<!-- Node22&#45;&gt;Node23 -->
<g id="edge37" class="edge">
<title>Node22&#45;&gt;Node23</title>
<path fill="none" stroke="#191970" d="M1539.3513,-176.7353C1659.002,-173.7105 1901.0943,-163.7513 1979,-132 2005.3205,-121.2728 2029.7656,-98.9522 2044.7709,-83.2485"/>
<polygon fill="#191970" stroke="#191970" points="2047.4979,-85.4546 2051.7171,-75.7361 2042.3583,-80.7023 2047.4979,-85.4546"/>
</g>
<!-- Node25 -->
<g id="node26" class="node">
<title>Node25</title>
<g id="a_node26"><a xlink:href="_int_field_8_h.html" target="_top" xlink:title="amr&#45;wind/core/IntField.H">
<polygon fill="#ffffff" stroke="#000000" points="1623,-112.5 1623,-131.5 1747,-131.5 1747,-112.5 1623,-112.5"/>
<text text-anchor="middle" x="1685" y="-119.5" font-family="Helvetica,sans-Serif" font-size="10.00" fill="#000000">amr&#45;wind/core/IntField.H</text>
</a>
</g>
</g>
<!-- Node22&#45;&gt;Node25 -->
<g id="edge42" class="edge">
<title>Node22&#45;&gt;Node25</title>
<path fill="none" stroke="#191970" d="M1507.7879,-168.3733C1544.0661,-158.8799 1599.6236,-144.3415 1638.8446,-134.0781"/>
<polygon fill="#191970" stroke="#191970" points="1639.904,-137.4188 1648.6921,-131.5011 1638.1318,-130.6468 1639.904,-137.4188"/>
</g>
<!-- Node26 -->
<g id="node27" class="node">
<title>Node26</title>
<polygon fill="#ffffff" stroke="#bfbfbf" points="1639.5,-56.5 1639.5,-75.5 1746.5,-75.5 1746.5,-56.5 1639.5,-56.5"/>
<text text-anchor="middle" x="1693" y="-63.5" font-family="Helvetica,sans-Serif" font-size="10.00" fill="#000000">AMReX_iMultiFab.H</text>
</g>
<!-- Node22&#45;&gt;Node26 -->
<g id="edge55" class="edge">
<title>Node22&#45;&gt;Node26</title>
<path fill="none" stroke="#191970" d="M1470.8895,-168.3784C1471.2743,-153.9713 1474.2205,-126.8978 1490,-112 1500.2656,-102.308 1573.6441,-87.3073 1629.2565,-77.0909"/>
<polygon fill="#191970" stroke="#191970" points="1630.2034,-80.4762 1639.4146,-75.2414 1628.9494,-73.5894 1630.2034,-80.4762"/>
</g>
<!-- Node27 -->
<g id="node28" class="node">
<title>Node27</title>
<g id="a_node28"><a xlink:href="_scratch_field_8_h.html" target="_top" xlink:title="amr&#45;wind/core/ScratchField.H">
<polygon fill="#ffffff" stroke="#000000" points="1297,-112.5 1297,-131.5 1443,-131.5 1443,-112.5 1297,-112.5"/>
<text text-anchor="middle" x="1370" y="-119.5" font-family="Helvetica,sans-Serif" font-size="10.00" fill="#000000">amr&#45;wind/core/ScratchField.H</text>
</a>
</g>
</g>
<!-- Node22&#45;&gt;Node27 -->
<g id="edge46" class="edge">
<title>Node22&#45;&gt;Node27</title>
<path fill="none" stroke="#191970" d="M1453.4071,-168.2455C1437.621,-159.4928 1414.2361,-146.527 1396.2413,-136.5496"/>
<polygon fill="#191970" stroke="#191970" points="1397.8341,-133.4308 1387.3913,-131.6427 1394.4397,-139.5528 1397.8341,-133.4308"/>
</g>
<!-- Node29 -->
<g id="node30" class="node">
<title>Node29</title>
<polygon fill="#ffffff" stroke="#bfbfbf" points="1499,-112.5 1499,-131.5 1605,-131.5 1605,-112.5 1499,-112.5"/>
<text text-anchor="middle" x="1552" y="-119.5" font-family="Helvetica,sans-Serif" font-size="10.00" fill="#000000">AMReX_AmrCore.H</text>
</g>
<!-- Node22&#45;&gt;Node29 -->
<g id="edge53" class="edge">
<title>Node22&#45;&gt;Node29</title>
<path fill="none" stroke="#191970" d="M1485.1091,-168.2455C1497.4209,-159.7337 1515.4958,-147.2375 1529.7538,-137.3801"/>
<polygon fill="#191970" stroke="#191970" points="1531.8174,-140.2085 1538.0526,-131.6427 1527.8366,-134.4506 1531.8174,-140.2085"/>
</g>
<!-- Node23&#45;&gt;Node12 -->
<g id="edge39" class="edge">
<title>Node23&#45;&gt;Node12</title>
<path fill="none" stroke="#191970" d="M1993.2053,-57.7971C1905.2503,-46.9956 1751.7657,-28.1467 1666.1772,-17.6358"/>
<polygon fill="#191970" stroke="#191970" points="1666.4372,-14.1415 1656.0851,-16.3964 1665.5839,-21.0893 1666.4372,-14.1415"/>
</g>
<!-- Node23&#45;&gt;Node19 -->
<g id="edge38" class="edge">
<title>Node23&#45;&gt;Node19</title>
<path fill="none" stroke="#191970" d="M2031.6355,-56.3733C2004.3173,-47.1016 1962.8204,-33.0178 1932.7262,-22.804"/>
<polygon fill="#191970" stroke="#191970" points="1933.5887,-19.4008 1922.9944,-19.5011 1931.339,-26.0294 1933.5887,-19.4008"/>
</g>
<!-- Node24 -->
<g id="node25" class="node">
<title>Node24</title>
<polygon fill="#ffffff" stroke="#bfbfbf" points="2002,-.5 2002,-19.5 2118,-19.5 2118,-.5 2002,-.5"/>
<text text-anchor="middle" x="2060" y="-7.5" font-family="Helvetica,sans-Serif" font-size="10.00" fill="#000000">AMReX_Interpolater.H</text>
</g>
<!-- Node23&#45;&gt;Node24 -->
<g id="edge40" class="edge">
<title>Node23&#45;&gt;Node24</title>
<path fill="none" stroke="#191970" d="M2060,-56.2455C2060,-48.9382 2060,-38.6944 2060,-29.7046"/>
<polygon fill="#191970" stroke="#191970" points="2063.5001,-29.6426 2060,-19.6427 2056.5001,-29.6427 2063.5001,-29.6426"/>
</g>
<!-- Node25&#45;&gt;Node10 -->
<g id="edge43" class="edge">
<title>Node25&#45;&gt;Node10</title>
<path fill="none" stroke="#191970" d="M1622.6802,-113.0799C1619.7472,-112.705 1616.8424,-112.343 1614,-112 1455.2378,-92.8448 1414.3953,-97.9834 1256,-76 1222.1954,-71.3083 997.4783,-30.6217 914.6148,-15.5687"/>
<polygon fill="#191970" stroke="#191970" points="915.0288,-12.0866 904.5641,-13.7422 913.7771,-18.9738 915.0288,-12.0866"/>
</g>
<!-- Node25&#45;&gt;Node19 -->
<g id="edge44" class="edge">
<title>Node25&#45;&gt;Node19</title>
<path fill="none" stroke="#191970" d="M1747.1046,-117.4524C1804.4756,-111.8066 1883.6605,-99.8462 1903,-76 1913.5307,-63.0153 1909.5839,-43.5958 1904.1712,-29.1797"/>
<polygon fill="#191970" stroke="#191970" points="1907.2883,-27.5657 1900.1568,-19.7304 1900.8456,-30.3028 1907.2883,-27.5657"/>
</g>
<!-- Node25&#45;&gt;Node26 -->
<g id="edge45" class="edge">
<title>Node25&#45;&gt;Node26</title>
<path fill="none" stroke="#191970" d="M1686.3935,-112.2455C1687.4374,-104.9382 1688.9008,-94.6944 1690.1851,-85.7046"/>
<polygon fill="#191970" stroke="#191970" points="1693.673,-86.0372 1691.6225,-75.6427 1686.7434,-85.0472 1693.673,-86.0372"/>
</g>
<!-- Node27&#45;&gt;Node10 -->
<g id="edge47" class="edge">
<title>Node27&#45;&gt;Node10</title>
<path fill="none" stroke="#191970" d="M1303.5714,-112.4447C1258.6679,-104.9829 1198.4178,-93.0044 1147,-76 1126.9888,-69.3821 1124.0023,-62.6449 1104,-56 1038.2853,-34.1691 957.9605,-20.5002 914.8595,-14.1679"/>
<polygon fill="#191970" stroke="#191970" points="915.1309,-10.6711 904.7352,-12.7156 914.1368,-17.6002 915.1309,-10.6711"/>
</g>
<!-- Node27&#45;&gt;Node11 -->
<g id="edge51" class="edge">
<title>Node27&#45;&gt;Node11</title>
<path fill="none" stroke="#191970" d="M1320.4603,-112.4437C1297.9714,-105.7461 1272.7223,-94.5441 1256,-76 1244.6586,-63.423 1240.0534,-44.486 1238.2008,-30.1175"/>
<polygon fill="#191970" stroke="#191970" points="1241.6499,-29.411 1237.2291,-19.7825 1234.6806,-30.0663 1241.6499,-29.411"/>
</g>
<!-- Node27&#45;&gt;Node12 -->
<g id="edge50" class="edge">
<title>Node27&#45;&gt;Node12</title>
<path fill="none" stroke="#191970" d="M1384.71,-112.4658C1406.0418,-98.8776 1447.0582,-73.637 1484,-56 1510.7215,-43.2424 1541.9881,-31.3495 1565.9056,-22.8535"/>
<polygon fill="#191970" stroke="#191970" points="1567.0651,-26.1559 1575.3418,-19.5419 1564.747,-19.5509 1567.0651,-26.1559"/>
</g>
<!-- Node27&#45;&gt;Node19 -->
<g id="edge48" class="edge">
<title>Node27&#45;&gt;Node19</title>
<path fill="none" stroke="#191970" d="M1443.0812,-115.6774C1579.7559,-103.7902 1860.7449,-79.0276 1865,-76 1880.1845,-65.1959 1887.8398,-44.8116 1891.5959,-29.543"/>
<polygon fill="#191970" stroke="#191970" points="1895.0667,-30.0448 1893.6936,-19.5393 1888.2157,-28.6081 1895.0667,-30.0448"/>
</g>
<!-- Node27&#45;&gt;Node20 -->
<g id="edge49" class="edge">
<title>Node27&#45;&gt;Node20</title>
<path fill="none" stroke="#191970" d="M1363.3809,-112.2455C1358.0954,-104.4564 1350.5459,-93.3308 1344.1762,-83.9439"/>
<polygon fill="#191970" stroke="#191970" points="1347.0545,-81.9522 1338.5432,-75.6427 1341.2621,-85.8827 1347.0545,-81.9522"/>
</g>
<!-- Node28 -->
<g id="node29" class="node">
<title>Node28</title>
<polygon fill="#ffffff" stroke="#bfbfbf" points="1493,-56.5 1493,-75.5 1621,-75.5 1621,-56.5 1493,-56.5"/>
<text text-anchor="middle" x="1557" y="-63.5" font-family="Helvetica,sans-Serif" font-size="10.00" fill="#000000">AMReX_PhysBCFunct.H</text>
</g>
<!-- Node27&#45;&gt;Node28 -->
<g id="edge52" class="edge">
<title>Node27&#45;&gt;Node28</title>
<path fill="none" stroke="#191970" d="M1402.1464,-112.3733C1433.5109,-102.9807 1481.3665,-88.6496 1515.5716,-78.4064"/>
<polygon fill="#191970" stroke="#191970" points="1516.6975,-81.7229 1525.273,-75.5011 1514.6893,-75.0171 1516.6975,-81.7229"/>
</g>
</g>
</svg>
