<?xml version="1.0" encoding="UTF-8" standalone="no"?>
<!DOCTYPE svg PUBLIC "-//W3C//DTD SVG 1.1//EN"
 "http://www.w3.org/Graphics/SVG/1.1/DTD/svg11.dtd">
<!-- Generated by graphviz version 2.40.1 (20161225.0304)
 -->
<!-- Title: TwoPhaseTransport.H Pages: 1 -->
<svg width="320pt" height="140pt"
 viewBox="0.00 0.00 320.00 140.00" xmlns="http://www.w3.org/2000/svg" xmlns:xlink="http://www.w3.org/1999/xlink">
<g id="graph0" class="graph" transform="scale(1 1) rotate(0) translate(4 136)">
<title>TwoPhaseTransport.H</title>
<polygon fill="#ffffff" stroke="transparent" points="-4,4 -4,-136 316,-136 316,4 -4,4"/>
<!-- Node31 -->
<g id="node1" class="node">
<title>Node31</title>
<polygon fill="#bfbfbf" stroke="#000000" points="100.5,-112.5 100.5,-131.5 215.5,-131.5 215.5,-112.5 100.5,-112.5"/>
<text text-anchor="middle" x="158" y="-119.5" font-family="Helvetica,sans-Serif" font-size="10.00" fill="#000000">TwoPhaseTransport.H</text>
</g>
<!-- Node32 -->
<g id="node2" class="node">
<title>Node32</title>
<g id="a_node2"><a xlink:href="_turb_model_defs_8_h.html" target="_top" xlink:title="TurbModelDefs.H">
<polygon fill="#ffffff" stroke="#000000" points="111,-56.5 111,-75.5 205,-75.5 205,-56.5 111,-56.5"/>
<text text-anchor="middle" x="158" y="-63.5" font-family="Helvetica,sans-Serif" font-size="10.00" fill="#000000">TurbModelDefs.H</text>
</a>
</g>
</g>
<!-- Node31&#45;&gt;Node32 -->
<g id="edge1" class="edge">
<title>Node31&#45;&gt;Node32</title>
<path fill="none" stroke="#191970" d="M158,-102.1575C158,-93.155 158,-82.9199 158,-75.6427"/>
<polygon fill="#191970" stroke="#191970" points="154.5001,-102.2455 158,-112.2455 161.5001,-102.2456 154.5001,-102.2455"/>
</g>
<!-- Node33 -->
<g id="node3" class="node">
<title>Node33</title>
<g id="a_node3"><a xlink:href="_laminar_model_8cpp.html" target="_top" xlink:title="LaminarModel.cpp">
<polygon fill="#ffffff" stroke="#000000" points="0,-.5 0,-19.5 96,-19.5 96,-.5 0,-.5"/>
<text text-anchor="middle" x="48" y="-7.5" font-family="Helvetica,sans-Serif" font-size="10.00" fill="#000000">LaminarModel.cpp</text>
</a>
</g>
</g>
<!-- Node32&#45;&gt;Node33 -->
<g id="edge2" class="edge">
<title>Node32&#45;&gt;Node33</title>
<path fill="none" stroke="#191970" d="M129.7086,-51.5971C109.9889,-41.558 84.22,-28.4393 66.941,-19.6427"/>
<polygon fill="#191970" stroke="#191970" points="128.3399,-54.8277 138.8395,-56.2455 131.5157,-48.5896 128.3399,-54.8277"/>
</g>
<!-- Node34 -->
<g id="node4" class="node">
<title>Node34</title>
<g id="a_node4"><a xlink:href="_one_eq_ksgs_8cpp.html" target="_top" xlink:title="OneEqKsgs.cpp">
<polygon fill="#ffffff" stroke="#000000" points="114,-.5 114,-19.5 202,-19.5 202,-.5 114,-.5"/>
<text text-anchor="middle" x="158" y="-7.5" font-family="Helvetica,sans-Serif" font-size="10.00" fill="#000000">OneEqKsgs.cpp</text>
</a>
</g>
</g>
<!-- Node32&#45;&gt;Node34 -->
<g id="edge3" class="edge">
<title>Node32&#45;&gt;Node34</title>
<path fill="none" stroke="#191970" d="M158,-46.1575C158,-37.155 158,-26.9199 158,-19.6427"/>
<polygon fill="#191970" stroke="#191970" points="154.5001,-46.2455 158,-56.2455 161.5001,-46.2456 154.5001,-46.2455"/>
</g>
<!-- Node35 -->
<g id="node5" class="node">
<title>Node35</title>
<g id="a_node5"><a xlink:href="_smagorinsky_8cpp.html" target="_top" xlink:title="Smagorinsky.cpp">
<polygon fill="#ffffff" stroke="#000000" points="220,-.5 220,-19.5 312,-19.5 312,-.5 220,-.5"/>
<text text-anchor="middle" x="266" y="-7.5" font-family="Helvetica,sans-Serif" font-size="10.00" fill="#000000">Smagorinsky.cpp</text>
</a>
</g>
</g>
<!-- Node32&#45;&gt;Node35 -->
<g id="edge4" class="edge">
<title>Node32&#45;&gt;Node35</title>
<path fill="none" stroke="#191970" d="M185.7771,-51.5971C205.1382,-41.558 230.4385,-28.4393 247.4034,-19.6427"/>
<polygon fill="#191970" stroke="#191970" points="184.0786,-48.5352 176.8122,-56.2455 187.3008,-54.7495 184.0786,-48.5352"/>
</g>
</g>
</svg>
