<?xml version="1.0" encoding="UTF-8" standalone="no"?>
<!DOCTYPE svg PUBLIC "-//W3C//DTD SVG 1.1//EN"
 "http://www.w3.org/Graphics/SVG/1.1/DTD/svg11.dtd">
<!-- Generated by graphviz version 2.40.1 (20161225.0304)
 -->
<!-- Title: UDF.H Pages: 1 -->
<svg width="198pt" height="140pt"
 viewBox="0.00 0.00 198.00 140.00" xmlns="http://www.w3.org/2000/svg" xmlns:xlink="http://www.w3.org/1999/xlink">
<g id="graph0" class="graph" transform="scale(1 1) rotate(0) translate(4 136)">
<title>UDF.H</title>
<polygon fill="#ffffff" stroke="transparent" points="-4,4 -4,-136 194,-136 194,4 -4,4"/>
<!-- Node8 -->
<g id="node1" class="node">
<title>Node8</title>
<polygon fill="#bfbfbf" stroke="#000000" points="82,-112.5 82,-131.5 130,-131.5 130,-112.5 82,-112.5"/>
<text text-anchor="middle" x="106" y="-119.5" font-family="Helvetica,sans-Serif" font-size="10.00" fill="#000000">UDF.H</text>
</g>
<!-- Node9 -->
<g id="node2" class="node">
<title>Node9</title>
<g id="a_node2"><a xlink:href="_free_stream_8_h.html" target="_top" xlink:title="FreeStream.H">
<polygon fill="#ffffff" stroke="#000000" points="0,-56.5 0,-75.5 78,-75.5 78,-56.5 0,-56.5"/>
<text text-anchor="middle" x="39" y="-63.5" font-family="Helvetica,sans-Serif" font-size="10.00" fill="#000000">FreeStream.H</text>
</a>
</g>
</g>
<!-- Node8&#45;&gt;Node9 -->
<g id="edge1" class="edge">
<title>Node8&#45;&gt;Node9</title>
<path fill="none" stroke="#191970" d="M86.4324,-105.645C74.7802,-95.9058 60.3916,-83.8795 50.5368,-75.6427"/>
<polygon fill="#191970" stroke="#191970" points="84.4121,-108.5179 94.3295,-112.2455 88.9012,-103.1469 84.4121,-108.5179"/>
</g>
<!-- Node10 -->
<g id="node3" class="node">
<title>Node10</title>
<g id="a_node3"><a xlink:href="_free_stream_8cpp.html" target="_top" xlink:title="FreeStream.cpp">
<polygon fill="#ffffff" stroke="#000000" points="29,-.5 29,-19.5 115,-19.5 115,-.5 29,-.5"/>
<text text-anchor="middle" x="72" y="-7.5" font-family="Helvetica,sans-Serif" font-size="10.00" fill="#000000">FreeStream.cpp</text>
</a>
</g>
</g>
<!-- Node8&#45;&gt;Node10 -->
<g id="edge3" class="edge">
<title>Node8&#45;&gt;Node10</title>
<path fill="none" stroke="#191970" d="M100.5204,-102.2906C96.8178,-89.1445 91.7553,-71.4955 87,-56 83.1556,-43.4726 78.4265,-29.1315 75.3185,-19.8389"/>
<polygon fill="#191970" stroke="#191970" points="97.208,-103.4419 103.2741,-112.1282 103.9489,-101.5549 97.208,-103.4419"/>
</g>
<!-- Node11 -->
<g id="node4" class="node">
<title>Node11</title>
<g id="a_node4"><a xlink:href="_u_d_f_8cpp.html" target="_top" xlink:title="UDF.cpp">
<polygon fill="#ffffff" stroke="#000000" points="134,-56.5 134,-75.5 190,-75.5 190,-56.5 134,-56.5"/>
<text text-anchor="middle" x="162" y="-63.5" font-family="Helvetica,sans-Serif" font-size="10.00" fill="#000000">UDF.cpp</text>
</a>
</g>
</g>
<!-- Node8&#45;&gt;Node11 -->
<g id="edge4" class="edge">
<title>Node8&#45;&gt;Node11</title>
<path fill="none" stroke="#191970" d="M122.9249,-105.0751C132.5598,-95.4402 144.2804,-83.7196 152.3573,-75.6427"/>
<polygon fill="#191970" stroke="#191970" points="120.3507,-102.6996 115.7545,-112.2455 125.3004,-107.6493 120.3507,-102.6996"/>
</g>
<!-- Node9&#45;&gt;Node10 -->
<g id="edge2" class="edge">
<title>Node9&#45;&gt;Node10</title>
<path fill="none" stroke="#191970" d="M49.8254,-47.6296C55.3299,-38.2887 61.7937,-27.3197 66.3177,-19.6427"/>
<polygon fill="#191970" stroke="#191970" points="46.8097,-45.8532 44.7482,-56.2455 52.8405,-49.4071 46.8097,-45.8532"/>
</g>
</g>
</svg>
