<?xml version="1.0" encoding="UTF-8" standalone="no"?>
<!DOCTYPE svg PUBLIC "-//W3C//DTD SVG 1.1//EN"
 "http://www.w3.org/Graphics/SVG/1.1/DTD/svg11.dtd">
<!-- Generated by graphviz version 2.40.1 (20161225.0304)
 -->
<!-- Title: ViewField.cpp Pages: 1 -->
<svg width="1613pt" height="252pt"
 viewBox="0.00 0.00 1612.70 252.00" xmlns="http://www.w3.org/2000/svg" xmlns:xlink="http://www.w3.org/1999/xlink">
<g id="graph0" class="graph" transform="scale(1 1) rotate(0) translate(4 248)">
<title>ViewField.cpp</title>
<polygon fill="#ffffff" stroke="transparent" points="-4,4 -4,-248 1608.7011,-248 1608.7011,4 -4,4"/>
<!-- Node0 -->
<g id="node1" class="node">
<title>Node0</title>
<polygon fill="#bfbfbf" stroke="#000000" points="389.7011,-224.5 389.7011,-243.5 467.7011,-243.5 467.7011,-224.5 389.7011,-224.5"/>
<text text-anchor="middle" x="428.7011" y="-231.5" font-family="Helvetica,sans-Serif" font-size="10.00" fill="#000000">ViewField.cpp</text>
</g>
<!-- Node1 -->
<g id="node2" class="node">
<title>Node1</title>
<g id="a_node2"><a xlink:href="_view_field_8_h.html" target="_top" xlink:title="amr&#45;wind/core/ViewField.H">
<polygon fill="#ffffff" stroke="#000000" points="274.7011,-56.5 274.7011,-75.5 408.7011,-75.5 408.7011,-56.5 274.7011,-56.5"/>
<text text-anchor="middle" x="341.7011" y="-63.5" font-family="Helvetica,sans-Serif" font-size="10.00" fill="#000000">amr&#45;wind/core/ViewField.H</text>
</a>
</g>
</g>
<!-- Node0&#45;&gt;Node1 -->
<g id="edge1" class="edge">
<title>Node0&#45;&gt;Node1</title>
<path fill="none" stroke="#191970" d="M417.0398,-224.4906C397.8235,-208.0092 360.1007,-172.039 344.7011,-132 339.0394,-117.2798 338.5942,-99.3322 339.3951,-85.8707"/>
<polygon fill="#191970" stroke="#191970" points="342.8923,-86.0537 340.2738,-75.7875 335.9187,-85.4459 342.8923,-86.0537"/>
</g>
<!-- Node6 -->
<g id="node7" class="node">
<title>Node6</title>
<g id="a_node7"><a xlink:href="_field_8_h.html" target="_top" xlink:title="amr&#45;wind/core/Field.H">
<polygon fill="#ffffff" stroke="#000000" points="1016.2011,-112.5 1016.2011,-131.5 1129.2011,-131.5 1129.2011,-112.5 1016.2011,-112.5"/>
<text text-anchor="middle" x="1072.7011" y="-119.5" font-family="Helvetica,sans-Serif" font-size="10.00" fill="#000000">amr&#45;wind/core/Field.H</text>
</a>
</g>
</g>
<!-- Node0&#45;&gt;Node6 -->
<g id="edge6" class="edge">
<title>Node0&#45;&gt;Node6</title>
<path fill="none" stroke="#191970" d="M468.0167,-227.1625C575.5436,-208.4622 875.3007,-156.3305 1008.0355,-133.2462"/>
<polygon fill="#191970" stroke="#191970" points="1008.8107,-136.664 1018.0631,-131.5023 1007.6113,-129.7675 1008.8107,-136.664"/>
</g>
<!-- Node13 -->
<g id="node14" class="node">
<title>Node13</title>
<g id="a_node14"><a xlink:href="_scratch_field_8_h.html" target="_top" xlink:title="amr&#45;wind/core/ScratchField.H">
<polygon fill="#ffffff" stroke="#000000" points="97.7011,-112.5 97.7011,-131.5 243.7011,-131.5 243.7011,-112.5 97.7011,-112.5"/>
<text text-anchor="middle" x="170.7011" y="-119.5" font-family="Helvetica,sans-Serif" font-size="10.00" fill="#000000">amr&#45;wind/core/ScratchField.H</text>
</a>
</g>
</g>
<!-- Node0&#45;&gt;Node13 -->
<g id="edge17" class="edge">
<title>Node0&#45;&gt;Node13</title>
<path fill="none" stroke="#191970" d="M402.9484,-224.4113C379.1146,-215.4106 342.7787,-201.3669 311.7011,-188 272.3889,-171.0913 227.7689,-149.8516 199.4445,-136.1062"/>
<polygon fill="#191970" stroke="#191970" points="200.664,-132.8071 190.1409,-131.5762 197.5995,-139.1008 200.664,-132.8071"/>
</g>
<!-- Node15 -->
<g id="node16" class="node">
<title>Node15</title>
<g id="a_node16"><a xlink:href="_field_repo_8_h.html" target="_top" xlink:title="amr&#45;wind/core/FieldRepo.H">
<polygon fill="#ffffff" stroke="#000000" points="480.7011,-168.5 480.7011,-187.5 616.7011,-187.5 616.7011,-168.5 480.7011,-168.5"/>
<text text-anchor="middle" x="548.7011" y="-175.5" font-family="Helvetica,sans-Serif" font-size="10.00" fill="#000000">amr&#45;wind/core/FieldRepo.H</text>
</a>
</g>
</g>
<!-- Node0&#45;&gt;Node15 -->
<g id="edge24" class="edge">
<title>Node0&#45;&gt;Node15</title>
<path fill="none" stroke="#191970" d="M449.3298,-224.3733C468.5929,-215.3838 497.5497,-201.8706 519.243,-191.7471"/>
<polygon fill="#191970" stroke="#191970" points="520.7598,-194.9017 528.3415,-187.5011 517.7996,-188.5584 520.7598,-194.9017"/>
</g>
<!-- Node2 -->
<g id="node3" class="node">
<title>Node2</title>
<polygon fill="#ffffff" stroke="#bfbfbf" points="321.2011,-.5 321.2011,-19.5 362.2011,-19.5 362.2011,-.5 321.2011,-.5"/>
<text text-anchor="middle" x="341.7011" y="-7.5" font-family="Helvetica,sans-Serif" font-size="10.00" fill="#000000">string</text>
</g>
<!-- Node1&#45;&gt;Node2 -->
<g id="edge2" class="edge">
<title>Node1&#45;&gt;Node2</title>
<path fill="none" stroke="#191970" d="M341.7011,-56.2455C341.7011,-48.9382 341.7011,-38.6944 341.7011,-29.7046"/>
<polygon fill="#191970" stroke="#191970" points="345.2012,-29.6426 341.7011,-19.6427 338.2012,-29.6427 345.2012,-29.6426"/>
</g>
<!-- Node3 -->
<g id="node4" class="node">
<title>Node3</title>
<g id="a_node4"><a xlink:href="_field_desc_types_8_h.html" target="_top" xlink:title="amr&#45;wind/core/FieldDescTypes.H">
<polygon fill="#ffffff" stroke="#000000" points="459.2011,-.5 459.2011,-19.5 622.2011,-19.5 622.2011,-.5 459.2011,-.5"/>
<text text-anchor="middle" x="540.7011" y="-7.5" font-family="Helvetica,sans-Serif" font-size="10.00" fill="#000000">amr&#45;wind/core/FieldDescTypes.H</text>
</a>
</g>
</g>
<!-- Node1&#45;&gt;Node3 -->
<g id="edge3" class="edge">
<title>Node1&#45;&gt;Node3</title>
<path fill="none" stroke="#191970" d="M375.9104,-56.3733C409.4308,-46.9404 460.6516,-32.5265 497.0821,-22.2747"/>
<polygon fill="#191970" stroke="#191970" points="498.2602,-25.5792 506.9381,-19.5011 496.3639,-18.8409 498.2602,-25.5792"/>
</g>
<!-- Node4 -->
<g id="node5" class="node">
<title>Node4</title>
<polygon fill="#ffffff" stroke="#bfbfbf" points="655.7011,-.5 655.7011,-19.5 759.7011,-19.5 759.7011,-.5 655.7011,-.5"/>
<text text-anchor="middle" x="707.7011" y="-7.5" font-family="Helvetica,sans-Serif" font-size="10.00" fill="#000000">AMReX_MultiFab.H</text>
</g>
<!-- Node1&#45;&gt;Node4 -->
<g id="edge4" class="edge">
<title>Node1&#45;&gt;Node4</title>
<path fill="none" stroke="#191970" d="M404.2028,-56.4369C471.5898,-46.1263 578.2185,-29.8115 645.4917,-19.5184"/>
<polygon fill="#191970" stroke="#191970" points="646.1747,-22.9547 655.5303,-17.9824 645.1159,-16.0352 646.1747,-22.9547"/>
</g>
<!-- Node5 -->
<g id="node6" class="node">
<title>Node5</title>
<polygon fill="#ffffff" stroke="#bfbfbf" points="74.2011,-.5 74.2011,-19.5 169.2011,-19.5 169.2011,-.5 74.2011,-.5"/>
<text text-anchor="middle" x="121.7011" y="-7.5" font-family="Helvetica,sans-Serif" font-size="10.00" fill="#000000">AMReX_Vector.H</text>
</g>
<!-- Node1&#45;&gt;Node5 -->
<g id="edge5" class="edge">
<title>Node1&#45;&gt;Node5</title>
<path fill="none" stroke="#191970" d="M303.8817,-56.3733C266.5072,-46.8598 209.2286,-32.2797 168.894,-22.0127"/>
<polygon fill="#191970" stroke="#191970" points="169.5813,-18.5761 159.0269,-19.5011 167.8545,-25.3598 169.5813,-18.5761"/>
</g>
<!-- Node6&#45;&gt;Node1 -->
<g id="edge16" class="edge">
<title>Node6&#45;&gt;Node1</title>
<path fill="none" stroke="#191970" d="M1015.949,-117.6524C886.0594,-107.7019 567.0055,-83.26 419.1919,-71.9364"/>
<polygon fill="#191970" stroke="#191970" points="419.0884,-68.4183 408.8502,-71.1441 418.5536,-75.3978 419.0884,-68.4183"/>
</g>
<!-- Node6&#45;&gt;Node2 -->
<g id="edge7" class="edge">
<title>Node6&#45;&gt;Node2</title>
<path fill="none" stroke="#191970" d="M1061.9729,-112.3599C1043.0764,-95.6097 1004.2902,-62.311 987.7011,-56 875.7085,-13.3948 569.1448,-29.5245 449.7011,-20 423.6876,-17.9257 394.1884,-15.1666 372.601,-13.0721"/>
<polygon fill="#191970" stroke="#191970" points="372.685,-9.5637 362.3919,-12.0739 372.0038,-16.5305 372.685,-9.5637"/>
</g>
<!-- Node6&#45;&gt;Node3 -->
<g id="edge15" class="edge">
<title>Node6&#45;&gt;Node3</title>
<path fill="none" stroke="#191970" d="M1068.2662,-112.3255C1060.8176,-97.3277 1044.2624,-68.8568 1020.7011,-56 1019.6439,-55.4231 771.7564,-31.8758 632.6776,-18.702"/>
<polygon fill="#191970" stroke="#191970" points="632.7318,-15.1916 622.4463,-17.733 632.0717,-22.1604 632.7318,-15.1916"/>
</g>
<!-- Node6&#45;&gt;Node4 -->
<g id="edge11" class="edge">
<title>Node6&#45;&gt;Node4</title>
<path fill="none" stroke="#191970" d="M1129.3102,-119.2767C1196.7803,-114.0749 1295.6943,-99.0588 1255.7011,-56 1220.3983,-17.9913 856.7095,-25.5994 770.0383,-19.7653"/>
<polygon fill="#191970" stroke="#191970" points="770.1705,-16.2635 759.9013,-18.8699 769.5545,-23.2363 770.1705,-16.2635"/>
</g>
<!-- Node7 -->
<g id="node8" class="node">
<title>Node7</title>
<polygon fill="#ffffff" stroke="#bfbfbf" points="1552.7011,-56.5 1552.7011,-75.5 1604.7011,-75.5 1604.7011,-56.5 1552.7011,-56.5"/>
<text text-anchor="middle" x="1578.7011" y="-63.5" font-family="Helvetica,sans-Serif" font-size="10.00" fill="#000000">memory</text>
</g>
<!-- Node6&#45;&gt;Node7 -->
<g id="edge8" class="edge">
<title>Node6&#45;&gt;Node7</title>
<path fill="none" stroke="#191970" d="M1129.3587,-119.7778C1216.3845,-115.6395 1388.2052,-104.601 1542.3254,-75.9635"/>
<polygon fill="#191970" stroke="#191970" points="1543.2735,-79.3464 1552.4504,-74.0516 1541.9746,-72.468 1543.2735,-79.3464"/>
</g>
<!-- Node8 -->
<g id="node9" class="node">
<title>Node8</title>
<polygon fill="#ffffff" stroke="#bfbfbf" points="895.2011,-56.5 895.2011,-75.5 978.2011,-75.5 978.2011,-56.5 895.2011,-56.5"/>
<text text-anchor="middle" x="936.7011" y="-63.5" font-family="Helvetica,sans-Serif" font-size="10.00" fill="#000000">unordered_map</text>
</g>
<!-- Node6&#45;&gt;Node8 -->
<g id="edge9" class="edge">
<title>Node6&#45;&gt;Node8</title>
<path fill="none" stroke="#191970" d="M1049.3218,-112.3733C1027.1966,-103.2629 993.7876,-89.5062 969.0991,-79.3404"/>
<polygon fill="#191970" stroke="#191970" points="970.3547,-76.0723 959.7752,-75.5011 967.6894,-82.5451 970.3547,-76.0723"/>
</g>
<!-- Node9 -->
<g id="node10" class="node">
<title>Node9</title>
<polygon fill="#ffffff" stroke="#bfbfbf" points="1072.7011,-56.5 1072.7011,-75.5 1128.7011,-75.5 1128.7011,-56.5 1072.7011,-56.5"/>
<text text-anchor="middle" x="1100.7011" y="-63.5" font-family="Helvetica,sans-Serif" font-size="10.00" fill="#000000">algorithm</text>
</g>
<!-- Node6&#45;&gt;Node9 -->
<g id="edge10" class="edge">
<title>Node6&#45;&gt;Node9</title>
<path fill="none" stroke="#191970" d="M1077.5783,-112.2455C1081.3524,-104.6973 1086.6932,-94.0158 1091.2912,-84.8197"/>
<polygon fill="#191970" stroke="#191970" points="1094.538,-86.1522 1095.8797,-75.6427 1088.277,-83.0217 1094.538,-86.1522"/>
</g>
<!-- Node10 -->
<g id="node11" class="node">
<title>Node10</title>
<polygon fill="#ffffff" stroke="#bfbfbf" points="1147.2011,-56.5 1147.2011,-75.5 1246.2011,-75.5 1246.2011,-56.5 1147.2011,-56.5"/>
<text text-anchor="middle" x="1196.7011" y="-63.5" font-family="Helvetica,sans-Serif" font-size="10.00" fill="#000000">AMReX_BCRec.H</text>
</g>
<!-- Node6&#45;&gt;Node10 -->
<g id="edge12" class="edge">
<title>Node6&#45;&gt;Node10</title>
<path fill="none" stroke="#191970" d="M1094.0174,-112.3733C1113.9227,-103.3838 1143.8446,-89.8706 1166.2611,-79.7471"/>
<polygon fill="#191970" stroke="#191970" points="1167.9897,-82.8068 1175.6629,-75.5011 1165.1086,-76.4272 1167.9897,-82.8068"/>
</g>
<!-- Node11 -->
<g id="node12" class="node">
<title>Node11</title>
<polygon fill="#ffffff" stroke="#bfbfbf" points="1303.2011,-56.5 1303.2011,-75.5 1388.2011,-75.5 1388.2011,-56.5 1303.2011,-56.5"/>
<text text-anchor="middle" x="1345.7011" y="-63.5" font-family="Helvetica,sans-Serif" font-size="10.00" fill="#000000">AMReX_Gpu.H</text>
</g>
<!-- Node6&#45;&gt;Node11 -->
<g id="edge13" class="edge">
<title>Node6&#45;&gt;Node11</title>
<path fill="none" stroke="#191970" d="M1119.3212,-112.4369C1167.4773,-102.5587 1242.5003,-87.1694 1292.8353,-76.8443"/>
<polygon fill="#191970" stroke="#191970" points="1293.7774,-80.224 1302.8701,-74.7858 1292.3708,-73.3667 1293.7774,-80.224"/>
</g>
<!-- Node12 -->
<g id="node13" class="node">
<title>Node12</title>
<g id="a_node13"><a xlink:href="incflo__enums_8_h.html" target="_top" xlink:title="amr&#45;wind/incflo_enums.H">
<polygon fill="#ffffff" stroke="#000000" points="1406.7011,-56.5 1406.7011,-75.5 1534.7011,-75.5 1534.7011,-56.5 1406.7011,-56.5"/>
<text text-anchor="middle" x="1470.7011" y="-63.5" font-family="Helvetica,sans-Serif" font-size="10.00" fill="#000000">amr&#45;wind/incflo_enums.H</text>
</a>
</g>
</g>
<!-- Node6&#45;&gt;Node12 -->
<g id="edge14" class="edge">
<title>Node6&#45;&gt;Node12</title>
<path fill="none" stroke="#191970" d="M1129.3021,-114.036C1199.3398,-104.1815 1318.7959,-87.3736 1396.2175,-76.4801"/>
<polygon fill="#191970" stroke="#191970" points="1396.9684,-79.909 1406.3832,-75.0498 1395.993,-72.9773 1396.9684,-79.909"/>
</g>
<!-- Node13&#45;&gt;Node1 -->
<g id="edge20" class="edge">
<title>Node13&#45;&gt;Node1</title>
<path fill="none" stroke="#191970" d="M200.097,-112.3733C228.5317,-103.0613 271.7887,-88.8953 303.0092,-78.671"/>
<polygon fill="#191970" stroke="#191970" points="304.2746,-81.9396 312.6887,-75.5011 302.096,-75.2872 304.2746,-81.9396"/>
</g>
<!-- Node13&#45;&gt;Node2 -->
<g id="edge18" class="edge">
<title>Node13&#45;&gt;Node2</title>
<path fill="none" stroke="#191970" d="M171.5361,-112.4867C173.2954,-98.2211 178.6574,-71.3298 194.7011,-56 211.49,-39.9581 273.154,-24.5112 311.0792,-16.2351"/>
<polygon fill="#191970" stroke="#191970" points="312.0415,-19.6086 321.0895,-14.0964 310.5789,-12.7631 312.0415,-19.6086"/>
</g>
<!-- Node13&#45;&gt;Node3 -->
<g id="edge19" class="edge">
<title>Node13&#45;&gt;Node3</title>
<path fill="none" stroke="#191970" d="M181.166,-112.3396C197.742,-97.6261 231.6602,-69.8521 265.7011,-56 298.3794,-42.7024 383.0038,-29.6341 449.8229,-20.8453"/>
<polygon fill="#191970" stroke="#191970" points="450.4982,-24.287 459.9631,-19.5261 449.5951,-17.3455 450.4982,-24.287"/>
</g>
<!-- Node13&#45;&gt;Node4 -->
<g id="edge21" class="edge">
<title>Node13&#45;&gt;Node4</title>
<path fill="none" stroke="#191970" d="M228.3396,-112.4952C278.554,-103.9221 353.2211,-90.468 417.7011,-76 451.7815,-68.353 459.7294,-64.1166 493.7011,-56 546.5677,-43.3689 607.1635,-30.4925 650.348,-21.5879"/>
<polygon fill="#191970" stroke="#191970" points="651.2948,-24.9666 660.3855,-19.5251 649.8856,-18.1099 651.2948,-24.9666"/>
</g>
<!-- Node13&#45;&gt;Node5 -->
<g id="edge22" class="edge">
<title>Node13&#45;&gt;Node5</title>
<path fill="none" stroke="#191970" d="M107.523,-112.4368C66.4568,-104.7818 18.2901,-92.5787 5.7011,-76 -14.7089,-49.1217 25.6588,-31.4634 64.25,-21.2344"/>
<polygon fill="#191970" stroke="#191970" points="65.1369,-24.6204 73.985,-18.7928 63.4339,-17.8307 65.1369,-24.6204"/>
</g>
<!-- Node14 -->
<g id="node15" class="node">
<title>Node14</title>
<polygon fill="#ffffff" stroke="#bfbfbf" points="14.7011,-56.5 14.7011,-75.5 142.7011,-75.5 142.7011,-56.5 14.7011,-56.5"/>
<text text-anchor="middle" x="78.7011" y="-63.5" font-family="Helvetica,sans-Serif" font-size="10.00" fill="#000000">AMReX_PhysBCFunct.H</text>
</g>
<!-- Node13&#45;&gt;Node14 -->
<g id="edge23" class="edge">
<title>Node13&#45;&gt;Node14</title>
<path fill="none" stroke="#191970" d="M154.6759,-112.2455C140.5603,-103.6534 119.7747,-91.0014 103.5112,-81.1018"/>
<polygon fill="#191970" stroke="#191970" points="104.9044,-77.8525 94.5426,-75.6427 101.2648,-83.8319 104.9044,-77.8525"/>
</g>
<!-- Node15&#45;&gt;Node2 -->
<g id="edge25" class="edge">
<title>Node15&#45;&gt;Node2</title>
<path fill="none" stroke="#191970" d="M480.4221,-169.5009C439.7444,-162.7735 387.8118,-151.2115 344.7011,-132 305.39,-114.4818 285.4632,-114.2322 265.7011,-76 252.98,-51.3895 285.1592,-31.9496 311.507,-20.7142"/>
<polygon fill="#191970" stroke="#191970" points="312.886,-23.9321 320.8562,-16.9517 310.2726,-17.4383 312.886,-23.9321"/>
</g>
<!-- Node15&#45;&gt;Node3 -->
<g id="edge27" class="edge">
<title>Node15&#45;&gt;Node3</title>
<path fill="none" stroke="#191970" d="M541.2835,-168.2731C528.5507,-150.894 503.0075,-112.8678 493.7011,-76 491.5255,-67.3815 490.2553,-64.1939 493.7011,-56 498.6989,-44.1153 508.4324,-33.765 517.7514,-25.908"/>
<polygon fill="#191970" stroke="#191970" points="519.9967,-28.5951 525.7046,-19.6692 515.6763,-23.0874 519.9967,-28.5951"/>
</g>
<!-- Node15&#45;&gt;Node4 -->
<g id="edge39" class="edge">
<title>Node15&#45;&gt;Node4</title>
<path fill="none" stroke="#191970" d="M600.3572,-168.444C678.6603,-152.719 821.1331,-118.8179 847.7011,-76 852.3876,-68.447 852.914,-63.1999 847.7011,-56 837.63,-42.0901 799.6213,-30.119 765.7459,-21.8785"/>
<polygon fill="#191970" stroke="#191970" points="766.4021,-18.4373 755.8658,-19.549 764.7956,-25.2505 766.4021,-18.4373"/>
</g>
<!-- Node15&#45;&gt;Node6 -->
<g id="edge32" class="edge">
<title>Node15&#45;&gt;Node6</title>
<path fill="none" stroke="#191970" d="M616.9361,-170.7077C717.9585,-159.9114 906.1186,-139.8027 1006.1578,-129.1115"/>
<polygon fill="#191970" stroke="#191970" points="1006.5746,-132.587 1016.146,-128.0441 1005.8306,-125.6266 1006.5746,-132.587"/>
</g>
<!-- Node15&#45;&gt;Node8 -->
<g id="edge26" class="edge">
<title>Node15&#45;&gt;Node8</title>
<path fill="none" stroke="#191970" d="M616.8572,-174.2729C700.4784,-168.7245 836.5877,-156.2386 880.7011,-132 900.7689,-120.9735 916.7871,-99.6907 926.4668,-84.2676"/>
<polygon fill="#191970" stroke="#191970" points="929.54,-85.9475 931.6543,-75.5657 923.5274,-82.3631 929.54,-85.9475"/>
</g>
<!-- Node15&#45;&gt;Node13 -->
<g id="edge37" class="edge">
<title>Node15&#45;&gt;Node13</title>
<path fill="none" stroke="#191970" d="M484.15,-168.4369C417.8274,-158.6113 314.6995,-143.3331 245.016,-133.0096"/>
<polygon fill="#191970" stroke="#191970" points="245.3908,-129.527 234.9858,-131.5237 244.3649,-136.4515 245.3908,-129.527"/>
</g>
<!-- Node16 -->
<g id="node17" class="node">
<title>Node16</title>
<g id="a_node17"><a xlink:href="_field_utils_8_h.html" target="_top" xlink:title="amr&#45;wind/core/FieldUtils.H">
<polygon fill="#ffffff" stroke="#000000" points="705.2011,-56.5 705.2011,-75.5 838.2011,-75.5 838.2011,-56.5 705.2011,-56.5"/>
<text text-anchor="middle" x="771.7011" y="-63.5" font-family="Helvetica,sans-Serif" font-size="10.00" fill="#000000">amr&#45;wind/core/FieldUtils.H</text>
</a>
</g>
</g>
<!-- Node15&#45;&gt;Node16 -->
<g id="edge28" class="edge">
<title>Node15&#45;&gt;Node16</title>
<path fill="none" stroke="#191970" d="M610.3538,-168.4743C641.746,-161.6803 679.5433,-150.385 709.7011,-132 729.9327,-119.6662 747.8323,-98.9784 759.133,-84.0484"/>
<polygon fill="#191970" stroke="#191970" points="762.2135,-85.7645 765.2785,-75.6227 756.5579,-81.6395 762.2135,-85.7645"/>
</g>
<!-- Node18 -->
<g id="node19" class="node">
<title>Node18</title>
<g id="a_node19"><a xlink:href="_int_field_8_h.html" target="_top" xlink:title="amr&#45;wind/core/IntField.H">
<polygon fill="#ffffff" stroke="#000000" points="576.7011,-112.5 576.7011,-131.5 700.7011,-131.5 700.7011,-112.5 576.7011,-112.5"/>
<text text-anchor="middle" x="638.7011" y="-119.5" font-family="Helvetica,sans-Serif" font-size="10.00" fill="#000000">amr&#45;wind/core/IntField.H</text>
</a>
</g>
</g>
<!-- Node15&#45;&gt;Node18 -->
<g id="edge33" class="edge">
<title>Node15&#45;&gt;Node18</title>
<path fill="none" stroke="#191970" d="M564.3779,-168.2455C578.1866,-159.6534 598.5203,-147.0014 614.4303,-137.1018"/>
<polygon fill="#191970" stroke="#191970" points="616.5624,-139.8974 623.2039,-131.6427 612.8643,-133.954 616.5624,-139.8974"/>
</g>
<!-- Node19 -->
<g id="node20" class="node">
<title>Node19</title>
<polygon fill="#ffffff" stroke="#bfbfbf" points="503.2011,-56.5 503.2011,-75.5 610.2011,-75.5 610.2011,-56.5 503.2011,-56.5"/>
<text text-anchor="middle" x="556.7011" y="-63.5" font-family="Helvetica,sans-Serif" font-size="10.00" fill="#000000">AMReX_iMultiFab.H</text>
</g>
<!-- Node15&#45;&gt;Node19 -->
<g id="edge40" class="edge">
<title>Node15&#45;&gt;Node19</title>
<path fill="none" stroke="#191970" d="M549.3831,-168.4509C550.6879,-150.184 553.5614,-109.9553 555.2941,-85.6976"/>
<polygon fill="#191970" stroke="#191970" points="558.7993,-85.7489 556.0207,-75.5249 551.817,-85.2501 558.7993,-85.7489"/>
</g>
<!-- Node20 -->
<g id="node21" class="node">
<title>Node20</title>
<polygon fill="#ffffff" stroke="#bfbfbf" points="353.7011,-112.5 353.7011,-131.5 459.7011,-131.5 459.7011,-112.5 353.7011,-112.5"/>
<text text-anchor="middle" x="406.7011" y="-119.5" font-family="Helvetica,sans-Serif" font-size="10.00" fill="#000000">AMReX_AmrCore.H</text>
</g>
<!-- Node15&#45;&gt;Node20 -->
<g id="edge38" class="edge">
<title>Node15&#45;&gt;Node20</title>
<path fill="none" stroke="#191970" d="M524.2904,-168.3733C501.0868,-159.2226 465.9972,-145.3844 440.1868,-135.2057"/>
<polygon fill="#191970" stroke="#191970" points="441.38,-131.9139 430.7932,-131.5011 438.8119,-138.4258 441.38,-131.9139"/>
</g>
<!-- Node16&#45;&gt;Node3 -->
<g id="edge29" class="edge">
<title>Node16&#45;&gt;Node3</title>
<path fill="none" stroke="#191970" d="M732.2532,-56.4369C692.8855,-46.8932 632.2976,-32.2052 589.8302,-21.9101"/>
<polygon fill="#191970" stroke="#191970" points="590.5293,-18.4783 579.9862,-19.5237 588.8801,-25.2812 590.5293,-18.4783"/>
</g>
<!-- Node16&#45;&gt;Node4 -->
<g id="edge30" class="edge">
<title>Node16&#45;&gt;Node4</title>
<path fill="none" stroke="#191970" d="M760.5531,-56.2455C751.1924,-48.0549 737.6153,-36.1749 726.5661,-26.5069"/>
<polygon fill="#191970" stroke="#191970" points="728.5518,-23.5937 718.7213,-19.6427 723.9423,-28.8618 728.5518,-23.5937"/>
</g>
<!-- Node17 -->
<g id="node18" class="node">
<title>Node17</title>
<polygon fill="#ffffff" stroke="#bfbfbf" points="777.7011,-.5 777.7011,-19.5 893.7011,-19.5 893.7011,-.5 777.7011,-.5"/>
<text text-anchor="middle" x="835.7011" y="-7.5" font-family="Helvetica,sans-Serif" font-size="10.00" fill="#000000">AMReX_Interpolater.H</text>
</g>
<!-- Node16&#45;&gt;Node17 -->
<g id="edge31" class="edge">
<title>Node16&#45;&gt;Node17</title>
<path fill="none" stroke="#191970" d="M782.849,-56.2455C792.2097,-48.0549 805.7869,-36.1749 816.836,-26.5069"/>
<polygon fill="#191970" stroke="#191970" points="819.4599,-28.8618 824.6809,-19.6427 814.8503,-23.5937 819.4599,-28.8618"/>
</g>
<!-- Node18&#45;&gt;Node2 -->
<g id="edge34" class="edge">
<title>Node18&#45;&gt;Node2</title>
<path fill="none" stroke="#191970" d="M638.7583,-112.248C638.2761,-97.6706 635.0753,-70.3776 618.7011,-56 600.3592,-39.8946 441.1675,-20.8335 372.7446,-13.2995"/>
<polygon fill="#191970" stroke="#191970" points="372.8983,-9.7957 362.5779,-12.1916 372.1399,-16.7545 372.8983,-9.7957"/>
</g>
<!-- Node18&#45;&gt;Node3 -->
<g id="edge35" class="edge">
<title>Node18&#45;&gt;Node3</title>
<path fill="none" stroke="#191970" d="M645.0414,-112.1757C653.0071,-98.4618 664.3104,-73.3185 652.7011,-56 642.0847,-40.1628 624.9314,-29.7735 607.206,-22.9598"/>
<polygon fill="#191970" stroke="#191970" points="607.9324,-19.507 597.3376,-19.5303 605.6346,-26.1191 607.9324,-19.507"/>
</g>
<!-- Node18&#45;&gt;Node19 -->
<g id="edge36" class="edge">
<title>Node18&#45;&gt;Node19</title>
<path fill="none" stroke="#191970" d="M624.4178,-112.2455C611.954,-103.7337 593.656,-91.2375 579.2219,-81.3801"/>
<polygon fill="#191970" stroke="#191970" points="581.0526,-78.392 570.8207,-75.6427 577.1048,-84.1726 581.0526,-78.392"/>
</g>
</g>
</svg>
