<?xml version="1.0" encoding="UTF-8" standalone="no"?>
<!DOCTYPE svg PUBLIC "-//W3C//DTD SVG 1.1//EN"
 "http://www.w3.org/Graphics/SVG/1.1/DTD/svg11.dtd">
<!-- Generated by graphviz version 2.40.1 (20161225.0304)
 -->
<!-- Title: VorticityRefinement.cpp Pages: 1 -->
<!--zoomable 341 -->
<svg id="main" version="1.1" xmlns="http://www.w3.org/2000/svg" xmlns:xlink="http://www.w3.org/1999/xlink" xml:space="preserve" onload="init(evt)">
<style type="text/css"><![CDATA[
.edge:hover path { stroke: red; }
.edge:hover polygon { stroke: red; fill: red; }
]]></style>
<script type="text/javascript"><![CDATA[
var edges = document.getElementsByTagName('g');
if (edges && edges.length) {
  for (var i=0;i<edges.length;i++) {
    if (edges[i].id.substr(0,4)=='edge') {
      edges[i].setAttribute('class','edge');
    }
  }
}
]]></script>
        <defs>
                <circle id="rim" cx="0" cy="0" r="7"/>
                <circle id="rim2" cx="0" cy="0" r="3.5"/>
                <g id="zoomPlus">
                        <use xlink:href="#rim" fill="#404040">
                                <set attributeName="fill" to="#808080" begin="zoomplus.mouseover" end="zoomplus.mouseout"/>
                        </use>
                        <path d="M-4,0h8M0,-4v8" fill="none" stroke="white" stroke-width="1.5" pointer-events="none"/>
                </g>
                <g id="zoomMin">
                        <use xlink:href="#rim" fill="#404040">
                                <set attributeName="fill" to="#808080" begin="zoomminus.mouseover" end="zoomminus.mouseout"/>
                        </use>
                        <path d="M-4,0h8" fill="none" stroke="white" stroke-width="1.5" pointer-events="none"/>
                </g>
                <g id="dirArrow">
                        <path fill="none" stroke="white" stroke-width="1.5" d="M0,-3.0v7 M-2.5,-0.5L0,-3.0L2.5,-0.5"/>
                </g>
               <g id="resetDef">
                       <use xlink:href="#rim2" fill="#404040">
                               <set attributeName="fill" to="#808080" begin="reset.mouseover" end="reset.mouseout"/>
                       </use>
               </g>
        </defs>

<script type="text/javascript">
var viewWidth = 2916;
var viewHeight = 341;
var sectionId = 'dynsection-0';
</script>
<script xlink:href="svgpan.js"/>
<svg id="graph" class="graph">
<g id="viewport">
<title>VorticityRefinement.cpp</title>
<polygon fill="#ffffff" stroke="transparent" points="-4,4 -4,-337 2912.142,-337 2912.142,4 -4,4"/>
<!-- Node0 -->
<g id="node1" class="node">
<title>Node0</title>
<polygon fill="#bfbfbf" stroke="#000000" points="2674.142,-313.5 2674.142,-332.5 2796.142,-332.5 2796.142,-313.5 2674.142,-313.5"/>
<text text-anchor="middle" x="2735.142" y="-320.5" font-family="Helvetica,sans-Serif" font-size="10.00" fill="#000000">VorticityRefinement.cpp</text>
</g>
<!-- Node1 -->
<g id="node2" class="node">
<title>Node1</title>
<g id="a_node2"><a xlink:href="_vorticity_refinement_8_h.html" target="_top" xlink:title="amr&#45;wind/utilities\l/tagging/VorticityRefinement.H">
<polygon fill="#ffffff" stroke="#000000" points="2559.642,-246.5 2559.642,-276.5 2710.642,-276.5 2710.642,-246.5 2559.642,-246.5"/>
<text text-anchor="start" x="2567.642" y="-264.5" font-family="Helvetica,sans-Serif" font-size="10.00" fill="#000000">amr&#45;wind/utilities</text>
<text text-anchor="middle" x="2635.142" y="-253.5" font-family="Helvetica,sans-Serif" font-size="10.00" fill="#000000">/tagging/VorticityRefinement.H</text>
</a>
</g>
</g>
<!-- Node0&#45;&gt;Node1 -->
<g id="edge1" class="edge">
<title>Node0&#45;&gt;Node1</title>
<path fill="none" stroke="#191970" d="M2719.517,-313.3906C2705.8579,-304.9903 2685.5652,-292.5103 2668.3038,-281.8945"/>
<polygon fill="#191970" stroke="#191970" points="2669.9563,-278.8019 2659.6047,-276.5446 2666.2893,-284.7646 2669.9563,-278.8019"/>
</g>
<!-- Node10 -->
<g id="node11" class="node">
<title>Node10</title>
<polygon fill="#ffffff" stroke="#bfbfbf" points="2392.142,-56.5 2392.142,-75.5 2454.142,-75.5 2454.142,-56.5 2392.142,-56.5"/>
<text text-anchor="middle" x="2423.142" y="-63.5" font-family="Helvetica,sans-Serif" font-size="10.00" fill="#000000">AMReX.H</text>
</g>
<!-- Node0&#45;&gt;Node10 -->
<g id="edge71" class="edge">
<title>Node0&#45;&gt;Node10</title>
<path fill="none" stroke="#191970" d="M2739.7341,-313.0806C2754.3339,-279.9053 2795.7788,-171.5639 2744.142,-112 2726.0395,-91.1185 2546.8654,-75.2079 2464.3531,-68.9272"/>
<polygon fill="#191970" stroke="#191970" points="2464.5503,-65.4323 2454.3166,-68.1746 2464.0268,-72.4127 2464.5503,-65.4323"/>
</g>
<!-- Node11 -->
<g id="node12" class="node">
<title>Node11</title>
<g id="a_node12"><a xlink:href="_c_f_d_sim_8_h.html" target="_top" xlink:title="amr&#45;wind/CFDSim.H">
<polygon fill="#ffffff" stroke="#000000" points="1991.142,-252 1991.142,-271 2099.142,-271 2099.142,-252 1991.142,-252"/>
<text text-anchor="middle" x="2045.142" y="-259" font-family="Helvetica,sans-Serif" font-size="10.00" fill="#000000">amr&#45;wind/CFDSim.H</text>
</a>
</g>
</g>
<!-- Node0&#45;&gt;Node11 -->
<g id="edge11" class="edge">
<title>Node0&#45;&gt;Node11</title>
<path fill="none" stroke="#191970" d="M2673.9091,-317.5423C2544.0443,-305.9674 2242.0636,-279.0517 2109.4933,-267.2357"/>
<polygon fill="#191970" stroke="#191970" points="2109.7544,-263.7451 2099.4831,-266.3434 2109.1329,-270.7175 2109.7544,-263.7451"/>
</g>
<!-- Node39 -->
<g id="node40" class="node">
<title>Node39</title>
<polygon fill="#ffffff" stroke="#bfbfbf" points="2792.142,-252 2792.142,-271 2908.142,-271 2908.142,-252 2792.142,-252"/>
<text text-anchor="middle" x="2850.142" y="-259" font-family="Helvetica,sans-Serif" font-size="10.00" fill="#000000">AMReX_ParmParse.H</text>
</g>
<!-- Node0&#45;&gt;Node39 -->
<g id="edge72" class="edge">
<title>Node0&#45;&gt;Node39</title>
<path fill="none" stroke="#191970" d="M2753.1107,-313.3906C2771.9304,-303.3262 2801.7005,-287.4057 2823.306,-275.8514"/>
<polygon fill="#191970" stroke="#191970" points="2825.1318,-278.8442 2832.2994,-271.0419 2821.8306,-272.6714 2825.1318,-278.8442"/>
</g>
<!-- Node2 -->
<g id="node3" class="node">
<title>Node2</title>
<g id="a_node3"><a xlink:href="_refinement_criteria_8_h.html" target="_top" xlink:title="amr&#45;wind/utilities\l/tagging/RefinementCriteria.H">
<polygon fill="#ffffff" stroke="#000000" points="2514.142,-179.5 2514.142,-209.5 2660.142,-209.5 2660.142,-179.5 2514.142,-179.5"/>
<text text-anchor="start" x="2522.142" y="-197.5" font-family="Helvetica,sans-Serif" font-size="10.00" fill="#000000">amr&#45;wind/utilities</text>
<text text-anchor="middle" x="2587.142" y="-186.5" font-family="Helvetica,sans-Serif" font-size="10.00" fill="#000000">/tagging/RefinementCriteria.H</text>
</a>
</g>
</g>
<!-- Node1&#45;&gt;Node2 -->
<g id="edge2" class="edge">
<title>Node1&#45;&gt;Node2</title>
<path fill="none" stroke="#191970" d="M2624.2501,-246.2967C2618.2357,-237.9016 2610.6371,-227.2952 2603.8846,-217.8698"/>
<polygon fill="#191970" stroke="#191970" points="2606.6599,-215.734 2597.9908,-209.6432 2600.9695,-219.8107 2606.6599,-215.734"/>
</g>
<!-- Node3 -->
<g id="node4" class="node">
<title>Node3</title>
<polygon fill="#ffffff" stroke="#bfbfbf" points="2510.142,-118 2510.142,-137 2616.142,-137 2616.142,-118 2510.142,-118"/>
<text text-anchor="middle" x="2563.142" y="-125" font-family="Helvetica,sans-Serif" font-size="10.00" fill="#000000">AMReX_AmrCore.H</text>
</g>
<!-- Node2&#45;&gt;Node3 -->
<g id="edge3" class="edge">
<title>Node2&#45;&gt;Node3</title>
<path fill="none" stroke="#191970" d="M2581.696,-179.2967C2578.2108,-169.5672 2573.6617,-156.8675 2569.9402,-146.4784"/>
<polygon fill="#191970" stroke="#191970" points="2573.232,-145.2889 2566.5647,-137.055 2566.642,-147.6495 2573.232,-145.2889"/>
</g>
<!-- Node4 -->
<g id="node5" class="node">
<title>Node4</title>
<polygon fill="#ffffff" stroke="#bfbfbf" points="2634.642,-118 2634.642,-137 2735.642,-137 2735.642,-118 2634.642,-118"/>
<text text-anchor="middle" x="2685.142" y="-125" font-family="Helvetica,sans-Serif" font-size="10.00" fill="#000000">AMReX_TagBox.H</text>
</g>
<!-- Node2&#45;&gt;Node4 -->
<g id="edge4" class="edge">
<title>Node2&#45;&gt;Node4</title>
<path fill="none" stroke="#191970" d="M2609.3797,-179.2967C2625.3898,-168.351 2646.8983,-153.6462 2662.9076,-142.701"/>
<polygon fill="#191970" stroke="#191970" points="2664.8863,-145.5881 2671.1661,-137.055 2660.9356,-139.8095 2664.8863,-145.5881"/>
</g>
<!-- Node5 -->
<g id="node6" class="node">
<title>Node5</title>
<g id="a_node6"><a xlink:href="_factory_8_h.html" target="_top" xlink:title="amr&#45;wind/core/Factory.H">
<polygon fill="#ffffff" stroke="#000000" points="1854.642,-118 1854.642,-137 1979.642,-137 1979.642,-118 1854.642,-118"/>
<text text-anchor="middle" x="1917.142" y="-125" font-family="Helvetica,sans-Serif" font-size="10.00" fill="#000000">amr&#45;wind/core/Factory.H</text>
</a>
</g>
</g>
<!-- Node2&#45;&gt;Node5 -->
<g id="edge5" class="edge">
<title>Node2&#45;&gt;Node5</title>
<path fill="none" stroke="#191970" d="M2514.0727,-191.1822C2401.0441,-185.381 2177.2074,-171.2262 1989.142,-143 1981.9266,-141.9171 1974.3505,-140.5468 1966.9331,-139.0711"/>
<polygon fill="#191970" stroke="#191970" points="1967.467,-135.6075 1956.9655,-137.0105 1966.0498,-142.4626 1967.467,-135.6075"/>
</g>
<!-- Node6 -->
<g id="node7" class="node">
<title>Node6</title>
<polygon fill="#ffffff" stroke="#bfbfbf" points="1803.142,-56.5 1803.142,-75.5 1855.142,-75.5 1855.142,-56.5 1803.142,-56.5"/>
<text text-anchor="middle" x="1829.142" y="-63.5" font-family="Helvetica,sans-Serif" font-size="10.00" fill="#000000">memory</text>
</g>
<!-- Node5&#45;&gt;Node6 -->
<g id="edge6" class="edge">
<title>Node5&#45;&gt;Node6</title>
<path fill="none" stroke="#191970" d="M1903.392,-117.8906C1889.4429,-108.1421 1867.6322,-92.8994 1851.2523,-81.4521"/>
<polygon fill="#191970" stroke="#191970" points="1852.9971,-78.4015 1842.7954,-75.5419 1848.9872,-84.1392 1852.9971,-78.4015"/>
</g>
<!-- Node7 -->
<g id="node8" class="node">
<title>Node7</title>
<polygon fill="#ffffff" stroke="#bfbfbf" points="1625.642,-56.5 1625.642,-75.5 1708.642,-75.5 1708.642,-56.5 1625.642,-56.5"/>
<text text-anchor="middle" x="1667.142" y="-63.5" font-family="Helvetica,sans-Serif" font-size="10.00" fill="#000000">unordered_map</text>
</g>
<!-- Node5&#45;&gt;Node7 -->
<g id="edge7" class="edge">
<title>Node5&#45;&gt;Node7</title>
<path fill="none" stroke="#191970" d="M1878.3538,-117.9581C1834.5636,-107.1857 1763.2511,-89.6428 1715.7724,-77.9631"/>
<polygon fill="#191970" stroke="#191970" points="1716.5678,-74.5545 1706.0212,-75.5643 1714.8956,-81.3518 1716.5678,-74.5545"/>
</g>
<!-- Node8 -->
<g id="node9" class="node">
<title>Node8</title>
<polygon fill="#ffffff" stroke="#bfbfbf" points="1979.142,-56.5 1979.142,-75.5 2033.142,-75.5 2033.142,-56.5 1979.142,-56.5"/>
<text text-anchor="middle" x="2006.142" y="-63.5" font-family="Helvetica,sans-Serif" font-size="10.00" fill="#000000">iostream</text>
</g>
<!-- Node5&#45;&gt;Node8 -->
<g id="edge8" class="edge">
<title>Node5&#45;&gt;Node8</title>
<path fill="none" stroke="#191970" d="M1931.0482,-117.8906C1945.1558,-108.1421 1967.2144,-92.8994 1983.7805,-81.4521"/>
<polygon fill="#191970" stroke="#191970" points="1986.0962,-84.1063 1992.3334,-75.5419 1982.1167,-78.3474 1986.0962,-84.1063"/>
</g>
<!-- Node9 -->
<g id="node10" class="node">
<title>Node9</title>
<polygon fill="#ffffff" stroke="#bfbfbf" points="1873.642,-56.5 1873.642,-75.5 1960.642,-75.5 1960.642,-56.5 1873.642,-56.5"/>
<text text-anchor="middle" x="1917.142" y="-63.5" font-family="Helvetica,sans-Serif" font-size="10.00" fill="#000000">AMReX_Print.H</text>
</g>
<!-- Node5&#45;&gt;Node9 -->
<g id="edge9" class="edge">
<title>Node5&#45;&gt;Node9</title>
<path fill="none" stroke="#191970" d="M1917.142,-117.8906C1917.142,-109.3657 1917.142,-96.6392 1917.142,-85.9235"/>
<polygon fill="#191970" stroke="#191970" points="1920.6421,-85.7448 1917.142,-75.7449 1913.6421,-85.7449 1920.6421,-85.7448"/>
</g>
<!-- Node5&#45;&gt;Node10 -->
<g id="edge10" class="edge">
<title>Node5&#45;&gt;Node10</title>
<path fill="none" stroke="#191970" d="M1957.7423,-117.9696C1967.9522,-115.7912 1978.9154,-113.638 1989.142,-112 2064.243,-99.9712 2288.4679,-78.5184 2381.7338,-69.8206"/>
<polygon fill="#191970" stroke="#191970" points="2382.2848,-73.2845 2391.9175,-68.8731 2381.6363,-66.3146 2382.2848,-73.2845"/>
</g>
<!-- Node11&#45;&gt;Node3 -->
<g id="edge12" class="edge">
<title>Node11&#45;&gt;Node3</title>
<path fill="none" stroke="#191970" d="M2099.3344,-253.0522C2153.4015,-244.1462 2238.6337,-228.8092 2311.142,-210 2389.7678,-189.6039 2479.7253,-158.1305 2528.0408,-140.5397"/>
<polygon fill="#191970" stroke="#191970" points="2529.5112,-143.7287 2537.6997,-137.0057 2527.1059,-137.1549 2529.5112,-143.7287"/>
</g>
<!-- Node12 -->
<g id="node13" class="node">
<title>Node12</title>
<g id="a_node13"><a xlink:href="_sim_time_8_h.html" target="_top" xlink:title="amr&#45;wind/core/SimTime.H">
<polygon fill="#ffffff" stroke="#000000" points="2171.642,-185 2171.642,-204 2302.642,-204 2302.642,-185 2171.642,-185"/>
<text text-anchor="middle" x="2237.142" y="-192" font-family="Helvetica,sans-Serif" font-size="10.00" fill="#000000">amr&#45;wind/core/SimTime.H</text>
</a>
</g>
</g>
<!-- Node11&#45;&gt;Node12 -->
<g id="edge13" class="edge">
<title>Node11&#45;&gt;Node12</title>
<path fill="none" stroke="#191970" d="M2072.6509,-251.9005C2106.156,-240.2086 2162.8862,-220.4122 2200.1817,-207.3976"/>
<polygon fill="#191970" stroke="#191970" points="2201.3956,-210.681 2209.6841,-204.0817 2199.0893,-204.0719 2201.3956,-210.681"/>
</g>
<!-- Node16 -->
<g id="node17" class="node">
<title>Node16</title>
<g id="a_node17"><a xlink:href="_field_repo_8_h.html" target="_top" xlink:title="amr&#45;wind/core/FieldRepo.H">
<polygon fill="#ffffff" stroke="#000000" points="737.142,-185 737.142,-204 873.142,-204 873.142,-185 737.142,-185"/>
<text text-anchor="middle" x="805.142" y="-192" font-family="Helvetica,sans-Serif" font-size="10.00" fill="#000000">amr&#45;wind/core/FieldRepo.H</text>
</a>
</g>
</g>
<!-- Node11&#45;&gt;Node16 -->
<g id="edge17" class="edge">
<title>Node11&#45;&gt;Node16</title>
<path fill="none" stroke="#191970" d="M1991.0634,-258.578C1794.1329,-247.9374 1114.7579,-211.2292 883.1826,-198.7167"/>
<polygon fill="#191970" stroke="#191970" points="883.3289,-195.2196 873.1546,-198.1749 882.9512,-202.2094 883.3289,-195.2196"/>
</g>
<!-- Node33 -->
<g id="node34" class="node">
<title>Node33</title>
<g id="a_node34"><a xlink:href="_p_d_e_base_8_h.html" target="_top" xlink:title="amr&#45;wind/equation_systems\l/PDEBase.H">
<polygon fill="#ffffff" stroke="#000000" points="1554.642,-179.5 1554.642,-209.5 1693.642,-209.5 1693.642,-179.5 1554.642,-179.5"/>
<text text-anchor="start" x="1562.642" y="-197.5" font-family="Helvetica,sans-Serif" font-size="10.00" fill="#000000">amr&#45;wind/equation_systems</text>
<text text-anchor="middle" x="1624.142" y="-186.5" font-family="Helvetica,sans-Serif" font-size="10.00" fill="#000000">/PDEBase.H</text>
</a>
</g>
</g>
<!-- Node11&#45;&gt;Node33 -->
<g id="edge54" class="edge">
<title>Node11&#45;&gt;Node33</title>
<path fill="none" stroke="#191970" d="M1990.9655,-252.8781C1918.0874,-241.2799 1787.9384,-220.5674 1703.8711,-207.1885"/>
<polygon fill="#191970" stroke="#191970" points="1704.2802,-203.7096 1693.8544,-205.5944 1703.18,-210.6226 1704.2802,-203.7096"/>
</g>
<!-- Node37 -->
<g id="node38" class="node">
<title>Node37</title>
<g id="a_node38"><a xlink:href="_physics_8_h.html" target="_top" xlink:title="amr&#45;wind/core/Physics.H">
<polygon fill="#ffffff" stroke="#000000" points="1853.642,-185 1853.642,-204 1980.642,-204 1980.642,-185 1853.642,-185"/>
<text text-anchor="middle" x="1917.142" y="-192" font-family="Helvetica,sans-Serif" font-size="10.00" fill="#000000">amr&#45;wind/core/Physics.H</text>
</a>
</g>
</g>
<!-- Node11&#45;&gt;Node37 -->
<g id="edge66" class="edge">
<title>Node11&#45;&gt;Node37</title>
<path fill="none" stroke="#191970" d="M2026.8027,-251.9005C2005.2264,-240.6067 1969.2029,-221.7506 1944.3654,-208.7497"/>
<polygon fill="#191970" stroke="#191970" points="1945.9301,-205.6183 1935.4473,-204.0817 1942.6838,-211.8201 1945.9301,-205.6183"/>
</g>
<!-- Node13 -->
<g id="node14" class="node">
<title>Node13</title>
<polygon fill="#ffffff" stroke="#bfbfbf" points="2126.642,-118 2126.642,-137 2219.642,-137 2219.642,-118 2126.642,-118"/>
<text text-anchor="middle" x="2173.142" y="-125" font-family="Helvetica,sans-Serif" font-size="10.00" fill="#000000">AMReX_REAL.H</text>
</g>
<!-- Node12&#45;&gt;Node13 -->
<g id="edge14" class="edge">
<title>Node12&#45;&gt;Node13</title>
<path fill="none" stroke="#191970" d="M2227.9724,-184.9005C2217.8971,-174.353 2201.5213,-157.2096 2189.2851,-144.3998"/>
<polygon fill="#191970" stroke="#191970" points="2191.7329,-141.8952 2182.2946,-137.0817 2186.6711,-146.7304 2191.7329,-141.8952"/>
</g>
<!-- Node14 -->
<g id="node15" class="node">
<title>Node14</title>
<polygon fill="#ffffff" stroke="#bfbfbf" points="2238.142,-118 2238.142,-137 2364.142,-137 2364.142,-118 2238.142,-118"/>
<text text-anchor="middle" x="2301.142" y="-125" font-family="Helvetica,sans-Serif" font-size="10.00" fill="#000000">AMReX_GpuQualifiers.H</text>
</g>
<!-- Node12&#45;&gt;Node14 -->
<g id="edge15" class="edge">
<title>Node12&#45;&gt;Node14</title>
<path fill="none" stroke="#191970" d="M2246.3116,-184.9005C2256.3869,-174.353 2272.7627,-157.2096 2284.9989,-144.3998"/>
<polygon fill="#191970" stroke="#191970" points="2287.6129,-146.7304 2291.9894,-137.0817 2282.5511,-141.8952 2287.6129,-146.7304"/>
</g>
<!-- Node15 -->
<g id="node16" class="node">
<title>Node15</title>
<polygon fill="#ffffff" stroke="#bfbfbf" points="2382.142,-118 2382.142,-137 2492.142,-137 2492.142,-118 2382.142,-118"/>
<text text-anchor="middle" x="2437.142" y="-125" font-family="Helvetica,sans-Serif" font-size="10.00" fill="#000000">AMReX_Extension.H</text>
</g>
<!-- Node12&#45;&gt;Node15 -->
<g id="edge16" class="edge">
<title>Node12&#45;&gt;Node15</title>
<path fill="none" stroke="#191970" d="M2265.7971,-184.9005C2300.6983,-173.2086 2359.7922,-153.4122 2398.6417,-140.3976"/>
<polygon fill="#191970" stroke="#191970" points="2400.1697,-143.577 2408.54,-137.0817 2397.9461,-136.9395 2400.1697,-143.577"/>
</g>
<!-- Node16&#45;&gt;Node3 -->
<g id="edge51" class="edge">
<title>Node16&#45;&gt;Node3</title>
<path fill="none" stroke="#191970" d="M873.1593,-192.8429C1179.4534,-185.3286 2419.3488,-154.3319 2501.142,-143 2507.4888,-142.1207 2514.1273,-140.8493 2520.6028,-139.4075"/>
<polygon fill="#191970" stroke="#191970" points="2521.6611,-142.7535 2530.5791,-137.0334 2520.0405,-135.9437 2521.6611,-142.7535"/>
</g>
<!-- Node16&#45;&gt;Node7 -->
<g id="edge19" class="edge">
<title>Node16&#45;&gt;Node7</title>
<path fill="none" stroke="#191970" d="M873.4034,-191.6519C1018.4407,-185.1951 1353.1031,-168.0351 1464.142,-143 1501.7445,-134.5221 1509.108,-125.6886 1545.142,-112 1574.3413,-100.9078 1607.5085,-88.4085 1631.8826,-79.2418"/>
<polygon fill="#191970" stroke="#191970" points="1633.2944,-82.4503 1641.4231,-75.6551 1630.831,-75.898 1633.2944,-82.4503"/>
</g>
<!-- Node17 -->
<g id="node18" class="node">
<title>Node17</title>
<polygon fill="#ffffff" stroke="#bfbfbf" points="1394.642,-.5 1394.642,-19.5 1435.642,-19.5 1435.642,-.5 1394.642,-.5"/>
<text text-anchor="middle" x="1415.142" y="-7.5" font-family="Helvetica,sans-Serif" font-size="10.00" fill="#000000">string</text>
</g>
<!-- Node16&#45;&gt;Node17 -->
<g id="edge18" class="edge">
<title>Node16&#45;&gt;Node17</title>
<path fill="none" stroke="#191970" d="M873.4557,-192.8073C963.6013,-189.2155 1126.5965,-178.0027 1261.142,-143 1335.7526,-123.5897 1378.4348,-140.1841 1421.142,-76 1430.1826,-62.413 1427.3628,-43.6204 1423.0503,-29.562"/>
<polygon fill="#191970" stroke="#191970" points="1426.267,-28.1599 1419.6332,-19.8989 1419.6675,-30.4937 1426.267,-28.1599"/>
</g>
<!-- Node18 -->
<g id="node19" class="node">
<title>Node18</title>
<g id="a_node19"><a xlink:href="_field_desc_types_8_h.html" target="_top" xlink:title="amr&#45;wind/core/FieldDescTypes.H">
<polygon fill="#ffffff" stroke="#000000" points="704.642,-.5 704.642,-19.5 867.642,-19.5 867.642,-.5 704.642,-.5"/>
<text text-anchor="middle" x="786.142" y="-7.5" font-family="Helvetica,sans-Serif" font-size="10.00" fill="#000000">amr&#45;wind/core/FieldDescTypes.H</text>
</a>
</g>
</g>
<!-- Node16&#45;&gt;Node18 -->
<g id="edge20" class="edge">
<title>Node16&#45;&gt;Node18</title>
<path fill="none" stroke="#191970" d="M744.079,-184.9353C618.4642,-163.9857 346.8313,-111.4686 396.142,-56 415.6342,-34.0736 585.2257,-20.8368 694.2603,-14.5168"/>
<polygon fill="#191970" stroke="#191970" points="694.504,-18.0087 704.2885,-13.9451 694.1055,-11.02 694.504,-18.0087"/>
</g>
<!-- Node19 -->
<g id="node20" class="node">
<title>Node19</title>
<g id="a_node20"><a xlink:href="_field_utils_8_h.html" target="_top" xlink:title="amr&#45;wind/core/FieldUtils.H">
<polygon fill="#ffffff" stroke="#000000" points="13.642,-56.5 13.642,-75.5 146.642,-75.5 146.642,-56.5 13.642,-56.5"/>
<text text-anchor="middle" x="80.142" y="-63.5" font-family="Helvetica,sans-Serif" font-size="10.00" fill="#000000">amr&#45;wind/core/FieldUtils.H</text>
</a>
</g>
</g>
<!-- Node16&#45;&gt;Node19 -->
<g id="edge21" class="edge">
<title>Node16&#45;&gt;Node19</title>
<path fill="none" stroke="#191970" d="M737.0927,-192.5705C601.6762,-188.091 303.1436,-174.8396 206.142,-143 165.1049,-129.5301 123.5098,-100.4401 99.8648,-82.1234"/>
<polygon fill="#191970" stroke="#191970" points="101.7358,-79.141 91.7201,-75.6859 97.3951,-84.6327 101.7358,-79.141"/>
</g>
<!-- Node20 -->
<g id="node21" class="node">
<title>Node20</title>
<polygon fill="#ffffff" stroke="#bfbfbf" points="369.142,-.5 369.142,-19.5 473.142,-19.5 473.142,-.5 369.142,-.5"/>
<text text-anchor="middle" x="421.142" y="-7.5" font-family="Helvetica,sans-Serif" font-size="10.00" fill="#000000">AMReX_MultiFab.H</text>
</g>
<!-- Node16&#45;&gt;Node20 -->
<g id="edge52" class="edge">
<title>Node16&#45;&gt;Node20</title>
<path fill="none" stroke="#191970" d="M737.0038,-192.459C590.9476,-187.5572 251.9984,-173.2188 141.142,-143 75.7478,-125.1739 40.0295,-133.5001 4.142,-76 -.5644,-68.4593 -1.7888,-62.621 4.142,-56 27.3807,-30.0568 248.6954,-17.2013 359.1148,-12.3592"/>
<polygon fill="#191970" stroke="#191970" points="359.2821,-15.8554 369.1226,-11.929 358.9814,-8.8618 359.2821,-15.8554"/>
</g>
<!-- Node22 -->
<g id="node23" class="node">
<title>Node22</title>
<g id="a_node23"><a xlink:href="_field_8_h.html" target="_top" xlink:title="amr&#45;wind/core/Field.H">
<polygon fill="#ffffff" stroke="#000000" points="748.642,-118 748.642,-137 861.642,-137 861.642,-118 748.642,-118"/>
<text text-anchor="middle" x="805.142" y="-125" font-family="Helvetica,sans-Serif" font-size="10.00" fill="#000000">amr&#45;wind/core/Field.H</text>
</a>
</g>
</g>
<!-- Node16&#45;&gt;Node22 -->
<g id="edge25" class="edge">
<title>Node16&#45;&gt;Node22</title>
<path fill="none" stroke="#191970" d="M805.142,-184.9005C805.142,-175.149 805.142,-159.7597 805.142,-147.3695"/>
<polygon fill="#191970" stroke="#191970" points="808.6421,-147.0816 805.142,-137.0817 801.6421,-147.0817 808.6421,-147.0816"/>
</g>
<!-- Node29 -->
<g id="node30" class="node">
<title>Node29</title>
<g id="a_node30"><a xlink:href="_int_field_8_h.html" target="_top" xlink:title="amr&#45;wind/core/IntField.H">
<polygon fill="#ffffff" stroke="#000000" points="225.142,-118 225.142,-137 349.142,-137 349.142,-118 225.142,-118"/>
<text text-anchor="middle" x="287.142" y="-125" font-family="Helvetica,sans-Serif" font-size="10.00" fill="#000000">amr&#45;wind/core/IntField.H</text>
</a>
</g>
</g>
<!-- Node16&#45;&gt;Node29 -->
<g id="edge40" class="edge">
<title>Node16&#45;&gt;Node29</title>
<path fill="none" stroke="#191970" d="M737.1248,-188.3902C650.1226,-180.1592 494.9256,-164.0766 363.142,-143 355.92,-141.845 348.3416,-140.4824 340.8831,-139.0522"/>
<polygon fill="#191970" stroke="#191970" points="341.3191,-135.571 330.8314,-137.0734 339.967,-142.4392 341.3191,-135.571"/>
</g>
<!-- Node30 -->
<g id="node31" class="node">
<title>Node30</title>
<polygon fill="#ffffff" stroke="#bfbfbf" points="203.642,-56.5 203.642,-75.5 310.642,-75.5 310.642,-56.5 203.642,-56.5"/>
<text text-anchor="middle" x="257.142" y="-63.5" font-family="Helvetica,sans-Serif" font-size="10.00" fill="#000000">AMReX_iMultiFab.H</text>
</g>
<!-- Node16&#45;&gt;Node30 -->
<g id="edge53" class="edge">
<title>Node16&#45;&gt;Node30</title>
<path fill="none" stroke="#191970" d="M737.0673,-193.6022C589.5353,-190.9494 250.7516,-180.7678 216.142,-143 199.7266,-125.0867 219.9873,-99.3853 237.4027,-82.692"/>
<polygon fill="#191970" stroke="#191970" points="240.0254,-85.0375 245.0621,-75.7164 235.312,-79.8621 240.0254,-85.0375"/>
</g>
<!-- Node31 -->
<g id="node32" class="node">
<title>Node31</title>
<g id="a_node32"><a xlink:href="_scratch_field_8_h.html" target="_top" xlink:title="amr&#45;wind/core/ScratchField.H">
<polygon fill="#ffffff" stroke="#000000" points="1106.142,-118 1106.142,-137 1252.142,-137 1252.142,-118 1106.142,-118"/>
<text text-anchor="middle" x="1179.142" y="-125" font-family="Helvetica,sans-Serif" font-size="10.00" fill="#000000">amr&#45;wind/core/ScratchField.H</text>
</a>
</g>
</g>
<!-- Node16&#45;&gt;Node31 -->
<g id="edge44" class="edge">
<title>Node16&#45;&gt;Node31</title>
<path fill="none" stroke="#191970" d="M858.3299,-184.9717C926.2249,-172.8087 1043.5411,-151.7921 1115.9289,-138.8243"/>
<polygon fill="#191970" stroke="#191970" points="1116.6091,-142.2582 1125.8351,-137.0496 1115.3746,-135.3679 1116.6091,-142.2582"/>
</g>
<!-- Node19&#45;&gt;Node18 -->
<g id="edge22" class="edge">
<title>Node19&#45;&gt;Node18</title>
<path fill="none" stroke="#191970" d="M146.7429,-60.0457C162.295,-58.6864 178.797,-57.2692 194.142,-56 370.908,-41.3799 577.4816,-25.6331 693.9475,-16.8783"/>
<polygon fill="#191970" stroke="#191970" points="694.5335,-20.3443 704.2432,-16.105 694.0091,-13.3639 694.5335,-20.3443"/>
</g>
<!-- Node19&#45;&gt;Node20 -->
<g id="edge23" class="edge">
<title>Node19&#45;&gt;Node20</title>
<path fill="none" stroke="#191970" d="M138.3745,-56.4369C199.7295,-46.361 296.0003,-30.5511 358.8458,-20.2305"/>
<polygon fill="#191970" stroke="#191970" points="359.7185,-23.6341 369.0191,-18.5598 358.584,-16.7266 359.7185,-23.6341"/>
</g>
<!-- Node21 -->
<g id="node22" class="node">
<title>Node21</title>
<polygon fill="#ffffff" stroke="#bfbfbf" points="22.142,-.5 22.142,-19.5 138.142,-19.5 138.142,-.5 22.142,-.5"/>
<text text-anchor="middle" x="80.142" y="-7.5" font-family="Helvetica,sans-Serif" font-size="10.00" fill="#000000">AMReX_Interpolater.H</text>
</g>
<!-- Node19&#45;&gt;Node21 -->
<g id="edge24" class="edge">
<title>Node19&#45;&gt;Node21</title>
<path fill="none" stroke="#191970" d="M80.142,-56.2455C80.142,-48.9382 80.142,-38.6944 80.142,-29.7046"/>
<polygon fill="#191970" stroke="#191970" points="83.6421,-29.6426 80.142,-19.6427 76.6421,-29.6427 83.6421,-29.6426"/>
</g>
<!-- Node22&#45;&gt;Node6 -->
<g id="edge27" class="edge">
<title>Node22&#45;&gt;Node6</title>
<path fill="none" stroke="#191970" d="M861.9338,-124.4014C1048.0039,-114.2342 1632.2264,-82.1868 1717.142,-76 1742.4076,-74.1592 1770.8369,-71.6151 1792.7307,-69.5538"/>
<polygon fill="#191970" stroke="#191970" points="1793.2872,-73.0167 1802.911,-68.5858 1792.6246,-66.0482 1793.2872,-73.0167"/>
</g>
<!-- Node22&#45;&gt;Node7 -->
<g id="edge28" class="edge">
<title>Node22&#45;&gt;Node7</title>
<path fill="none" stroke="#191970" d="M861.9034,-124.3253C1027.9975,-114.9776 1507.6029,-87.5528 1615.4437,-75.8163"/>
<polygon fill="#191970" stroke="#191970" points="1615.9462,-79.2813 1625.4657,-74.6306 1615.1237,-72.3298 1615.9462,-79.2813"/>
</g>
<!-- Node22&#45;&gt;Node17 -->
<g id="edge26" class="edge">
<title>Node22&#45;&gt;Node17</title>
<path fill="none" stroke="#191970" d="M807.1474,-117.863C811.0225,-101.9321 821.1719,-70.434 843.142,-56 888.5191,-26.188 1271.3729,-13.7929 1384.0594,-10.7694"/>
<polygon fill="#191970" stroke="#191970" points="1384.4907,-14.2594 1394.3955,-10.4983 1384.3071,-7.2618 1384.4907,-14.2594"/>
</g>
<!-- Node22&#45;&gt;Node18 -->
<g id="edge34" class="edge">
<title>Node22&#45;&gt;Node18</title>
<path fill="none" stroke="#191970" d="M803.5871,-117.8845C800.4836,-98.6913 793.4648,-55.286 789.3383,-29.7663"/>
<polygon fill="#191970" stroke="#191970" points="792.7698,-29.0614 787.7183,-19.7484 785.8596,-30.1789 792.7698,-29.0614"/>
</g>
<!-- Node22&#45;&gt;Node20 -->
<g id="edge30" class="edge">
<title>Node22&#45;&gt;Node20</title>
<path fill="none" stroke="#191970" d="M793.2191,-117.8668C773.2067,-102.2313 731.0233,-71.519 690.142,-56 622.1715,-30.1976 539.0356,-18.8002 483.3362,-13.8094"/>
<polygon fill="#191970" stroke="#191970" points="483.5265,-10.313 473.2651,-12.95 482.9313,-17.2876 483.5265,-10.313"/>
</g>
<!-- Node23 -->
<g id="node24" class="node">
<title>Node23</title>
<polygon fill="#ffffff" stroke="#bfbfbf" points="405.142,-56.5 405.142,-75.5 461.142,-75.5 461.142,-56.5 405.142,-56.5"/>
<text text-anchor="middle" x="433.142" y="-63.5" font-family="Helvetica,sans-Serif" font-size="10.00" fill="#000000">algorithm</text>
</g>
<!-- Node22&#45;&gt;Node23 -->
<g id="edge29" class="edge">
<title>Node22&#45;&gt;Node23</title>
<path fill="none" stroke="#191970" d="M748.4851,-120.7478C683.6792,-112.5878 574.2561,-97.481 471.288,-76.0624"/>
<polygon fill="#191970" stroke="#191970" points="471.8517,-72.6044 461.3452,-73.97 470.4101,-79.4544 471.8517,-72.6044"/>
</g>
<!-- Node24 -->
<g id="node25" class="node">
<title>Node24</title>
<polygon fill="#ffffff" stroke="#bfbfbf" points="479.642,-56.5 479.642,-75.5 578.642,-75.5 578.642,-56.5 479.642,-56.5"/>
<text text-anchor="middle" x="529.142" y="-63.5" font-family="Helvetica,sans-Serif" font-size="10.00" fill="#000000">AMReX_BCRec.H</text>
</g>
<!-- Node22&#45;&gt;Node24 -->
<g id="edge31" class="edge">
<title>Node22&#45;&gt;Node24</title>
<path fill="none" stroke="#191970" d="M762.3198,-117.9581C713.672,-107.1181 634.257,-89.4224 581.8462,-77.7439"/>
<polygon fill="#191970" stroke="#191970" points="582.5865,-74.3231 572.0646,-75.5643 581.064,-81.1555 582.5865,-74.3231"/>
</g>
<!-- Node25 -->
<g id="node26" class="node">
<title>Node25</title>
<polygon fill="#ffffff" stroke="#bfbfbf" points="596.642,-56.5 596.642,-75.5 681.642,-75.5 681.642,-56.5 596.642,-56.5"/>
<text text-anchor="middle" x="639.142" y="-63.5" font-family="Helvetica,sans-Serif" font-size="10.00" fill="#000000">AMReX_Gpu.H</text>
</g>
<!-- Node22&#45;&gt;Node25 -->
<g id="edge32" class="edge">
<title>Node22&#45;&gt;Node25</title>
<path fill="none" stroke="#191970" d="M779.2045,-117.8906C751.0642,-107.4652 705.9627,-90.7559 674.5694,-79.1252"/>
<polygon fill="#191970" stroke="#191970" points="675.4905,-75.734 664.8974,-75.5419 673.0586,-82.298 675.4905,-75.734"/>
</g>
<!-- Node26 -->
<g id="node27" class="node">
<title>Node26</title>
<g id="a_node27"><a xlink:href="incflo__enums_8_h.html" target="_top" xlink:title="amr&#45;wind/incflo_enums.H">
<polygon fill="#ffffff" stroke="#000000" points="852.142,-56.5 852.142,-75.5 980.142,-75.5 980.142,-56.5 852.142,-56.5"/>
<text text-anchor="middle" x="916.142" y="-63.5" font-family="Helvetica,sans-Serif" font-size="10.00" fill="#000000">amr&#45;wind/incflo_enums.H</text>
</a>
</g>
</g>
<!-- Node22&#45;&gt;Node26 -->
<g id="edge33" class="edge">
<title>Node22&#45;&gt;Node26</title>
<path fill="none" stroke="#191970" d="M822.4857,-117.8906C840.5693,-107.8713 869.1279,-92.0483 889.9585,-80.5071"/>
<polygon fill="#191970" stroke="#191970" points="891.8691,-83.4498 898.92,-75.5419 888.4766,-77.3268 891.8691,-83.4498"/>
</g>
<!-- Node27 -->
<g id="node28" class="node">
<title>Node27</title>
<g id="a_node28"><a xlink:href="_view_field_8_h.html" target="_top" xlink:title="amr&#45;wind/core/ViewField.H">
<polygon fill="#ffffff" stroke="#000000" points="1112.142,-56.5 1112.142,-75.5 1246.142,-75.5 1246.142,-56.5 1112.142,-56.5"/>
<text text-anchor="middle" x="1179.142" y="-63.5" font-family="Helvetica,sans-Serif" font-size="10.00" fill="#000000">amr&#45;wind/core/ViewField.H</text>
</a>
</g>
</g>
<!-- Node22&#45;&gt;Node27 -->
<g id="edge35" class="edge">
<title>Node22&#45;&gt;Node27</title>
<path fill="none" stroke="#191970" d="M861.9445,-118.1595C928.7498,-107.1741 1039.5658,-88.9517 1110.9521,-77.213"/>
<polygon fill="#191970" stroke="#191970" points="1111.8889,-80.6061 1121.1885,-75.5298 1110.7531,-73.6988 1111.8889,-80.6061"/>
</g>
<!-- Node27&#45;&gt;Node17 -->
<g id="edge36" class="edge">
<title>Node27&#45;&gt;Node17</title>
<path fill="none" stroke="#191970" d="M1219.4437,-56.4369C1266.1689,-45.3496 1342.1536,-27.3193 1384.379,-17.2997"/>
<polygon fill="#191970" stroke="#191970" points="1385.4268,-20.6483 1394.3485,-14.934 1383.8106,-13.8374 1385.4268,-20.6483"/>
</g>
<!-- Node27&#45;&gt;Node18 -->
<g id="edge37" class="edge">
<title>Node27&#45;&gt;Node18</title>
<path fill="none" stroke="#191970" d="M1112.0294,-56.4369C1042.9336,-46.5912 935.415,-31.2705 862.961,-20.9462"/>
<polygon fill="#191970" stroke="#191970" points="863.3715,-17.4694 852.9778,-19.5237 862.384,-24.3994 863.3715,-17.4694"/>
</g>
<!-- Node27&#45;&gt;Node20 -->
<g id="edge38" class="edge">
<title>Node27&#45;&gt;Node20</title>
<path fill="none" stroke="#191970" d="M1111.8746,-61.0304C966.4174,-50.2842 624.4036,-25.0167 483.4954,-14.6066"/>
<polygon fill="#191970" stroke="#191970" points="483.5315,-11.0998 473.3008,-13.8534 483.0157,-18.0808 483.5315,-11.0998"/>
</g>
<!-- Node28 -->
<g id="node29" class="node">
<title>Node28</title>
<polygon fill="#ffffff" stroke="#bfbfbf" points="1453.642,-.5 1453.642,-19.5 1548.642,-19.5 1548.642,-.5 1453.642,-.5"/>
<text text-anchor="middle" x="1501.142" y="-7.5" font-family="Helvetica,sans-Serif" font-size="10.00" fill="#000000">AMReX_Vector.H</text>
</g>
<!-- Node27&#45;&gt;Node28 -->
<g id="edge39" class="edge">
<title>Node27&#45;&gt;Node28</title>
<path fill="none" stroke="#191970" d="M1234.2149,-56.4699C1285.6197,-47.5678 1364.7573,-33.8459 1443.4632,-20.1161"/>
<polygon fill="#191970" stroke="#191970" points="1444.3079,-23.5217 1453.5574,-18.3548 1443.1046,-16.6259 1444.3079,-23.5217"/>
</g>
<!-- Node29&#45;&gt;Node17 -->
<g id="edge41" class="edge">
<title>Node29&#45;&gt;Node17</title>
<path fill="none" stroke="#191970" d="M349.3393,-120.0293C428.5593,-110.4042 569.649,-92.8944 690.142,-76 748.4683,-67.822 762.6301,-62.7228 821.142,-56 1036.1846,-31.2925 1296.5885,-16.2405 1384.4883,-11.5688"/>
<polygon fill="#191970" stroke="#191970" points="1384.7686,-15.059 1394.5709,-11.0384 1384.4008,-8.0686 1384.7686,-15.059"/>
</g>
<!-- Node29&#45;&gt;Node18 -->
<g id="edge42" class="edge">
<title>Node29&#45;&gt;Node18</title>
<path fill="none" stroke="#191970" d="M294.0233,-117.8058C306.0027,-101.7907 332.3722,-70.1717 363.142,-56 420.1789,-29.7304 588.0251,-18.0646 694.3418,-13.1916"/>
<polygon fill="#191970" stroke="#191970" points="694.5988,-16.6837 704.4326,-12.7409 694.2864,-9.6906 694.5988,-16.6837"/>
</g>
<!-- Node29&#45;&gt;Node30 -->
<g id="edge43" class="edge">
<title>Node29&#45;&gt;Node30</title>
<path fill="none" stroke="#191970" d="M282.4545,-117.8906C278.1647,-109.0965 271.6938,-95.8312 266.3686,-84.9145"/>
<polygon fill="#191970" stroke="#191970" points="269.4256,-83.1981 261.8956,-75.7449 263.1342,-86.2671 269.4256,-83.1981"/>
</g>
<!-- Node31&#45;&gt;Node17 -->
<g id="edge45" class="edge">
<title>Node31&#45;&gt;Node17</title>
<path fill="none" stroke="#191970" d="M1252.251,-119.0565C1308.6797,-111.0335 1380.4975,-97.039 1401.142,-76 1413.0401,-63.8746 1415.9503,-44.305 1416.2377,-29.6176"/>
<polygon fill="#191970" stroke="#191970" points="1419.7358,-29.4755 1416.0516,-19.5418 1412.737,-29.6048 1419.7358,-29.4755"/>
</g>
<!-- Node31&#45;&gt;Node18 -->
<g id="edge46" class="edge">
<title>Node31&#45;&gt;Node18</title>
<path fill="none" stroke="#191970" d="M1166.7487,-117.8686C1145.9601,-102.2358 1102.1971,-71.5271 1060.142,-56 1001.5695,-34.3745 932.1764,-22.8575 877.8806,-16.7555"/>
<polygon fill="#191970" stroke="#191970" points="878.2426,-13.2744 867.924,-15.678 877.4894,-20.2337 878.2426,-13.2744"/>
</g>
<!-- Node31&#45;&gt;Node20 -->
<g id="edge48" class="edge">
<title>Node31&#45;&gt;Node20</title>
<path fill="none" stroke="#191970" d="M1156.315,-117.9914C1113.4681,-100.2979 1022.3304,-63.4344 989.142,-56 894.3013,-34.7553 610.4663,-19.025 483.6027,-12.8585"/>
<polygon fill="#191970" stroke="#191970" points="483.4401,-9.3467 473.2832,-12.3612 483.1031,-16.3386 483.4401,-9.3467"/>
</g>
<!-- Node31&#45;&gt;Node27 -->
<g id="edge47" class="edge">
<title>Node31&#45;&gt;Node27</title>
<path fill="none" stroke="#191970" d="M1179.142,-117.8906C1179.142,-109.3657 1179.142,-96.6392 1179.142,-85.9235"/>
<polygon fill="#191970" stroke="#191970" points="1182.6421,-85.7448 1179.142,-75.7449 1175.6421,-85.7449 1182.6421,-85.7448"/>
</g>
<!-- Node31&#45;&gt;Node28 -->
<g id="edge49" class="edge">
<title>Node31&#45;&gt;Node28</title>
<path fill="none" stroke="#191970" d="M1252.2354,-121.1517C1301.8469,-114.6749 1367.8558,-101.7232 1421.142,-76 1446.2726,-63.8685 1470.2962,-42.2358 1485.3423,-27.0525"/>
<polygon fill="#191970" stroke="#191970" points="1487.9284,-29.4129 1492.3504,-19.785 1482.8895,-24.5539 1487.9284,-29.4129"/>
</g>
<!-- Node32 -->
<g id="node33" class="node">
<title>Node32</title>
<polygon fill="#ffffff" stroke="#bfbfbf" points="1264.142,-56.5 1264.142,-75.5 1392.142,-75.5 1392.142,-56.5 1264.142,-56.5"/>
<text text-anchor="middle" x="1328.142" y="-63.5" font-family="Helvetica,sans-Serif" font-size="10.00" fill="#000000">AMReX_PhysBCFunct.H</text>
</g>
<!-- Node31&#45;&gt;Node32 -->
<g id="edge50" class="edge">
<title>Node31&#45;&gt;Node32</title>
<path fill="none" stroke="#191970" d="M1202.4232,-117.8906C1227.463,-107.5554 1267.4645,-91.0447 1295.608,-79.4284"/>
<polygon fill="#191970" stroke="#191970" points="1297.116,-82.5925 1305.0242,-75.5419 1294.4453,-76.122 1297.116,-82.5925"/>
</g>
<!-- Node33&#45;&gt;Node5 -->
<g id="edge56" class="edge">
<title>Node33&#45;&gt;Node5</title>
<path fill="none" stroke="#191970" d="M1689.8969,-179.4639C1742.9807,-167.3253 1816.6336,-150.4831 1865.5318,-139.3016"/>
<polygon fill="#191970" stroke="#191970" points="1866.606,-142.6464 1875.5741,-137.0053 1865.0455,-135.8226 1866.606,-142.6464"/>
</g>
<!-- Node33&#45;&gt;Node17 -->
<g id="edge55" class="edge">
<title>Node33&#45;&gt;Node17</title>
<path fill="none" stroke="#191970" d="M1596.7747,-179.3947C1580.8841,-169.9761 1560.9477,-157.0086 1545.142,-143 1507.3677,-109.5208 1508.1729,-91.3487 1472.142,-56 1461.1116,-45.1785 1447.71,-34.2659 1436.6736,-25.787"/>
<polygon fill="#191970" stroke="#191970" points="1438.5103,-22.7882 1428.4202,-19.557 1434.293,-28.3752 1438.5103,-22.7882"/>
</g>
<!-- Node33&#45;&gt;Node18 -->
<g id="edge64" class="edge">
<title>Node33&#45;&gt;Node18</title>
<path fill="none" stroke="#191970" d="M1554.2172,-192.6134C1430.4463,-188.4605 1178.2033,-176.1092 1097.142,-143 1040.0812,-119.6937 1044.63,-82.8365 989.142,-56 954.0537,-39.0297 912.497,-28.1937 876.1512,-21.3355"/>
<polygon fill="#191970" stroke="#191970" points="876.5115,-17.8439 866.0477,-19.5048 875.2634,-24.7317 876.5115,-17.8439"/>
</g>
<!-- Node33&#45;&gt;Node26 -->
<g id="edge65" class="edge">
<title>Node33&#45;&gt;Node26</title>
<path fill="none" stroke="#191970" d="M1554.4572,-192.7453C1419.3734,-188.6397 1126.8476,-176.117 1032.142,-143 993.8699,-129.6169 955.9513,-100.715 934.3534,-82.3759"/>
<polygon fill="#191970" stroke="#191970" points="936.4989,-79.6036 926.6525,-75.6921 931.9105,-84.8902 936.4989,-79.6036"/>
</g>
<!-- Node34 -->
<g id="node35" class="node">
<title>Node34</title>
<g id="a_node35"><a xlink:href="_coll_mgr_8_h.html" target="_top" xlink:title="amr&#45;wind/core/CollMgr.H">
<polygon fill="#ffffff" stroke="#000000" points="1711.642,-118 1711.642,-137 1836.642,-137 1836.642,-118 1711.642,-118"/>
<text text-anchor="middle" x="1774.142" y="-125" font-family="Helvetica,sans-Serif" font-size="10.00" fill="#000000">amr&#45;wind/core/CollMgr.H</text>
</a>
</g>
</g>
<!-- Node33&#45;&gt;Node34 -->
<g id="edge57" class="edge">
<title>Node33&#45;&gt;Node34</title>
<path fill="none" stroke="#191970" d="M1657.8049,-179.4639C1683.4265,-168.0196 1718.4081,-152.3945 1743.3047,-141.274"/>
<polygon fill="#191970" stroke="#191970" points="1744.9375,-144.378 1752.6407,-137.1039 1742.0827,-137.9866 1744.9375,-144.378"/>
</g>
<!-- Node35 -->
<g id="node36" class="node">
<title>Node35</title>
<g id="a_node36"><a xlink:href="_p_d_e_fields_8_h.html" target="_top" xlink:title="amr&#45;wind/equation_systems\l/PDEFields.H">
<polygon fill="#ffffff" stroke="#000000" points="1554.642,-112.5 1554.642,-142.5 1693.642,-142.5 1693.642,-112.5 1554.642,-112.5"/>
<text text-anchor="start" x="1562.642" y="-130.5" font-family="Helvetica,sans-Serif" font-size="10.00" fill="#000000">amr&#45;wind/equation_systems</text>
<text text-anchor="middle" x="1624.142" y="-119.5" font-family="Helvetica,sans-Serif" font-size="10.00" fill="#000000">/PDEFields.H</text>
</a>
</g>
</g>
<!-- Node33&#45;&gt;Node35 -->
<g id="edge62" class="edge">
<title>Node33&#45;&gt;Node35</title>
<path fill="none" stroke="#191970" d="M1624.142,-179.2967C1624.142,-171.5013 1624.142,-161.7991 1624.142,-152.9064"/>
<polygon fill="#191970" stroke="#191970" points="1627.6421,-152.6431 1624.142,-142.6432 1620.6421,-152.6432 1627.6421,-152.6431"/>
</g>
<!-- Node34&#45;&gt;Node6 -->
<g id="edge59" class="edge">
<title>Node34&#45;&gt;Node6</title>
<path fill="none" stroke="#191970" d="M1782.7357,-117.8906C1791.0017,-108.6478 1803.6846,-94.466 1813.7037,-83.2628"/>
<polygon fill="#191970" stroke="#191970" points="1816.3698,-85.5321 1820.4271,-75.7449 1811.152,-80.8657 1816.3698,-85.5321"/>
</g>
<!-- Node34&#45;&gt;Node7 -->
<g id="edge60" class="edge">
<title>Node34&#45;&gt;Node7</title>
<path fill="none" stroke="#191970" d="M1757.4232,-117.8906C1740.0698,-107.9165 1712.7097,-92.1908 1692.6538,-80.6633"/>
<polygon fill="#191970" stroke="#191970" points="1694.1574,-77.4907 1683.7433,-75.5419 1690.6692,-83.5596 1694.1574,-77.4907"/>
</g>
<!-- Node34&#45;&gt;Node17 -->
<g id="edge58" class="edge">
<title>Node34&#45;&gt;Node17</title>
<path fill="none" stroke="#191970" d="M1769.584,-117.9007C1761.4878,-102.0254 1742.9859,-70.607 1717.142,-56 1613.4077,2.6305 1565.7961,-45.4094 1445.8133,-19.9525"/>
<polygon fill="#191970" stroke="#191970" points="1446.4285,-16.5034 1435.9037,-17.7189 1444.8894,-23.3321 1446.4285,-16.5034"/>
</g>
<!-- Node34&#45;&gt;Node28 -->
<g id="edge61" class="edge">
<title>Node34&#45;&gt;Node28</title>
<path fill="none" stroke="#191970" d="M1774.0107,-117.9761C1773.2486,-102.4979 1769.3638,-72.0065 1751.142,-56 1723.1711,-31.4296 1623.4746,-19.2652 1558.7479,-13.8267"/>
<polygon fill="#191970" stroke="#191970" points="1558.9263,-10.3298 1548.6763,-13.0107 1558.361,-17.3069 1558.9263,-10.3298"/>
</g>
<!-- Node36 -->
<g id="node37" class="node">
<title>Node36</title>
<polygon fill="#ffffff" stroke="#bfbfbf" points="1562.642,-56.5 1562.642,-75.5 1607.642,-75.5 1607.642,-56.5 1562.642,-56.5"/>
<text text-anchor="middle" x="1585.142" y="-63.5" font-family="Helvetica,sans-Serif" font-size="10.00" fill="#000000">iosfwd</text>
</g>
<!-- Node35&#45;&gt;Node36 -->
<g id="edge63" class="edge">
<title>Node35&#45;&gt;Node36</title>
<path fill="none" stroke="#191970" d="M1614.5015,-112.2977C1609.1443,-103.8498 1602.4398,-93.2773 1596.7907,-84.369"/>
<polygon fill="#191970" stroke="#191970" points="1599.6976,-82.4176 1591.3864,-75.8469 1593.7861,-86.1664 1599.6976,-82.4176"/>
</g>
<!-- Node37&#45;&gt;Node5 -->
<g id="edge67" class="edge">
<title>Node37&#45;&gt;Node5</title>
<path fill="none" stroke="#191970" d="M1917.142,-184.9005C1917.142,-175.149 1917.142,-159.7597 1917.142,-147.3695"/>
<polygon fill="#191970" stroke="#191970" points="1920.6421,-147.0816 1917.142,-137.0817 1913.6421,-147.0817 1920.6421,-147.0816"/>
</g>
<!-- Node37&#45;&gt;Node20 -->
<g id="edge69" class="edge">
<title>Node37&#45;&gt;Node20</title>
<path fill="none" stroke="#191970" d="M1853.2176,-189.0885C1810.4802,-185.6685 1752.9788,-181.4469 1702.142,-179 1619.6577,-175.0299 282.4343,-192.2418 216.142,-143 184.1246,-119.2176 168.8953,-86.8759 194.142,-56 214.6245,-30.9506 299.0697,-19.2164 358.9597,-13.9559"/>
<polygon fill="#191970" stroke="#191970" points="359.4175,-17.4298 369.0901,-13.1065 358.8326,-10.4543 359.4175,-17.4298"/>
</g>
<!-- Node37&#45;&gt;Node34 -->
<g id="edge68" class="edge">
<title>Node37&#45;&gt;Node34</title>
<path fill="none" stroke="#191970" d="M1896.6536,-184.9005C1872.3364,-173.5072 1831.5934,-154.4178 1803.8251,-141.4075"/>
<polygon fill="#191970" stroke="#191970" points="1805.1327,-138.1551 1794.5924,-137.0817 1802.1628,-144.4938 1805.1327,-138.1551"/>
</g>
<!-- Node38 -->
<g id="node39" class="node">
<title>Node38</title>
<polygon fill="#ffffff" stroke="#bfbfbf" points="1998.142,-118 1998.142,-137 2108.142,-137 2108.142,-118 1998.142,-118"/>
<text text-anchor="middle" x="2053.142" y="-125" font-family="Helvetica,sans-Serif" font-size="10.00" fill="#000000">AMReX_Geometry.H</text>
</g>
<!-- Node37&#45;&gt;Node38 -->
<g id="edge70" class="edge">
<title>Node37&#45;&gt;Node38</title>
<path fill="none" stroke="#191970" d="M1936.6275,-184.9005C1959.6533,-173.5569 1998.1648,-154.5844 2024.5652,-141.5783"/>
<polygon fill="#191970" stroke="#191970" points="2026.2689,-144.6407 2033.6927,-137.0817 2023.1754,-138.3613 2026.2689,-144.6407"/>
</g>
</g>
</svg>
        <g id="navigator" transform="translate(0 0)" fill="#404254">
                <rect fill="#f2f5e9" fill-opacity="0.5" stroke="#606060" stroke-width=".5" x="0" y="0" width="60" height="60"/>
                <use id="zoomplus" xlink:href="#zoomPlus" x="17" y="9" onmousedown="handleZoom(evt,'in')"/>
                <use id="zoomminus" xlink:href="#zoomMin" x="42" y="9" onmousedown="handleZoom(evt,'out')"/>
                <use id="reset" xlink:href="#resetDef" x="30" y="36" onmousedown="handleReset()"/>
                <g id="arrowUp" xlink:href="#dirArrow" transform="translate(30 24)" onmousedown="handlePan(0,-1)">
                  <use xlink:href="#rim" fill="#404040">
                        <set attributeName="fill" to="#808080" begin="arrowUp.mouseover" end="arrowUp.mouseout"/>
                  </use>
                  <path fill="none" stroke="white" stroke-width="1.5" d="M0,-3.0v7 M-2.5,-0.5L0,-3.0L2.5,-0.5"/>
                </g>
                <g id="arrowRight" xlink:href="#dirArrow" transform="rotate(90) translate(36 -43)" onmousedown="handlePan(1,0)">
                  <use xlink:href="#rim" fill="#404040">
                        <set attributeName="fill" to="#808080" begin="arrowRight.mouseover" end="arrowRight.mouseout"/>
                  </use>
                  <path fill="none" stroke="white" stroke-width="1.5" d="M0,-3.0v7 M-2.5,-0.5L0,-3.0L2.5,-0.5"/>
                </g>
                <g id="arrowDown" xlink:href="#dirArrow" transform="rotate(180) translate(-30 -48)" onmousedown="handlePan(0,1)">
                  <use xlink:href="#rim" fill="#404040">
                        <set attributeName="fill" to="#808080" begin="arrowDown.mouseover" end="arrowDown.mouseout"/>
                  </use>
                  <path fill="none" stroke="white" stroke-width="1.5" d="M0,-3.0v7 M-2.5,-0.5L0,-3.0L2.5,-0.5"/>
                </g>
                <g id="arrowLeft" xlink:href="#dirArrow" transform="rotate(270) translate(-36 17)" onmousedown="handlePan(-1,0)">
                  <use xlink:href="#rim" fill="#404040">
                        <set attributeName="fill" to="#808080" begin="arrowLeft.mouseover" end="arrowLeft.mouseout"/>
                  </use>
                  <path fill="none" stroke="white" stroke-width="1.5" d="M0,-3.0v7 M-2.5,-0.5L0,-3.0L2.5,-0.5"/>
                </g>
        </g>
        <svg viewBox="0 0 15 15" width="100%" height="30px" preserveAspectRatio="xMaxYMin meet">
         <g id="arrow_out" transform="scale(0.3 0.3)">
          <a xlink:href="_vorticity_refinement_8cpp__incl_org.svg" target="_base">
           <rect id="button" ry="5" rx="5" y="6" x="6" height="38" width="38"
                fill="#f2f5e9" fill-opacity="0.5" stroke="#606060" stroke-width="1.0"/>
           <path id="arrow"
             d="M 11.500037,31.436501 C 11.940474,20.09759 22.043105,11.32322 32.158766,21.979434 L 37.068811,17.246167 C 37.068811,17.246167 37.088388,32 37.088388,32 L 22.160133,31.978069 C 22.160133,31.978069 26.997745,27.140456 26.997745,27.140456 C 18.528582,18.264221 13.291696,25.230495 11.500037,31.436501 z"
             style="fill:#404040;"/>
          </a>
         </g>
        </svg>
</svg>
