<?xml version="1.0" encoding="UTF-8" standalone="no"?>
<!DOCTYPE svg PUBLIC "-//W3C//DTD SVG 1.1//EN"
 "http://www.w3.org/Graphics/SVG/1.1/DTD/svg11.dtd">
<!-- Generated by graphviz version 2.40.1 (20161225.0304)
 -->
<!-- Title: VorticityRefinement.H Pages: 1 -->
<svg width="527pt" height="207pt"
 viewBox="0.00 0.00 527.00 207.00" xmlns="http://www.w3.org/2000/svg" xmlns:xlink="http://www.w3.org/1999/xlink">
<g id="graph0" class="graph" transform="scale(1 1) rotate(0) translate(4 203)">
<title>VorticityRefinement.H</title>
<polygon fill="#ffffff" stroke="transparent" points="-4,4 -4,-203 523,-203 523,4 -4,4"/>
<!-- Node0 -->
<g id="node1" class="node">
<title>Node0</title>
<polygon fill="#bfbfbf" stroke="#000000" points="118.5,-179.5 118.5,-198.5 231.5,-198.5 231.5,-179.5 118.5,-179.5"/>
<text text-anchor="middle" x="175" y="-186.5" font-family="Helvetica,sans-Serif" font-size="10.00" fill="#000000">VorticityRefinement.H</text>
</g>
<!-- Node1 -->
<g id="node2" class="node">
<title>Node1</title>
<g id="a_node2"><a xlink:href="_refinement_criteria_8_h.html" target="_top" xlink:title="amr&#45;wind/utilities\l/tagging/RefinementCriteria.H">
<polygon fill="#ffffff" stroke="#000000" points="102,-112.5 102,-142.5 248,-142.5 248,-112.5 102,-112.5"/>
<text text-anchor="start" x="110" y="-130.5" font-family="Helvetica,sans-Serif" font-size="10.00" fill="#000000">amr&#45;wind/utilities</text>
<text text-anchor="middle" x="175" y="-119.5" font-family="Helvetica,sans-Serif" font-size="10.00" fill="#000000">/tagging/RefinementCriteria.H</text>
</a>
</g>
</g>
<!-- Node0&#45;&gt;Node1 -->
<g id="edge1" class="edge">
<title>Node0&#45;&gt;Node1</title>
<path fill="none" stroke="#191970" d="M175,-179.3906C175,-172.2234 175,-162.0862 175,-152.671"/>
<polygon fill="#191970" stroke="#191970" points="178.5001,-152.5446 175,-142.5446 171.5001,-152.5446 178.5001,-152.5446"/>
</g>
<!-- Node2 -->
<g id="node3" class="node">
<title>Node2</title>
<polygon fill="#ffffff" stroke="#bfbfbf" points="0,-56.5 0,-75.5 106,-75.5 106,-56.5 0,-56.5"/>
<text text-anchor="middle" x="53" y="-63.5" font-family="Helvetica,sans-Serif" font-size="10.00" fill="#000000">AMReX_AmrCore.H</text>
</g>
<!-- Node1&#45;&gt;Node2 -->
<g id="edge2" class="edge">
<title>Node1&#45;&gt;Node2</title>
<path fill="none" stroke="#191970" d="M145.1554,-112.4554C125.603,-102.599 100.2128,-89.7999 81.0355,-80.1327"/>
<polygon fill="#191970" stroke="#191970" points="82.4108,-76.9064 71.9057,-75.5303 79.2598,-83.1571 82.4108,-76.9064"/>
</g>
<!-- Node3 -->
<g id="node4" class="node">
<title>Node3</title>
<polygon fill="#ffffff" stroke="#bfbfbf" points="124.5,-56.5 124.5,-75.5 225.5,-75.5 225.5,-56.5 124.5,-56.5"/>
<text text-anchor="middle" x="175" y="-63.5" font-family="Helvetica,sans-Serif" font-size="10.00" fill="#000000">AMReX_TagBox.H</text>
</g>
<!-- Node1&#45;&gt;Node3 -->
<g id="edge3" class="edge">
<title>Node1&#45;&gt;Node3</title>
<path fill="none" stroke="#191970" d="M175,-112.2977C175,-104.3834 175,-94.6043 175,-86.0759"/>
<polygon fill="#191970" stroke="#191970" points="178.5001,-85.8469 175,-75.8469 171.5001,-85.847 178.5001,-85.8469"/>
</g>
<!-- Node4 -->
<g id="node5" class="node">
<title>Node4</title>
<g id="a_node5"><a xlink:href="_factory_8_h.html" target="_top" xlink:title="amr&#45;wind/core/Factory.H">
<polygon fill="#ffffff" stroke="#000000" points="243.5,-56.5 243.5,-75.5 368.5,-75.5 368.5,-56.5 243.5,-56.5"/>
<text text-anchor="middle" x="306" y="-63.5" font-family="Helvetica,sans-Serif" font-size="10.00" fill="#000000">amr&#45;wind/core/Factory.H</text>
</a>
</g>
</g>
<!-- Node1&#45;&gt;Node4 -->
<g id="edge4" class="edge">
<title>Node1&#45;&gt;Node4</title>
<path fill="none" stroke="#191970" d="M207.0462,-112.4554C228.2328,-102.509 255.8028,-89.5659 276.4588,-79.8686"/>
<polygon fill="#191970" stroke="#191970" points="278.1349,-82.9483 285.6996,-75.5303 275.1601,-76.6118 278.1349,-82.9483"/>
</g>
<!-- Node5 -->
<g id="node6" class="node">
<title>Node5</title>
<polygon fill="#ffffff" stroke="#bfbfbf" points="107,-.5 107,-19.5 159,-19.5 159,-.5 107,-.5"/>
<text text-anchor="middle" x="133" y="-7.5" font-family="Helvetica,sans-Serif" font-size="10.00" fill="#000000">memory</text>
</g>
<!-- Node4&#45;&gt;Node5 -->
<g id="edge5" class="edge">
<title>Node4&#45;&gt;Node5</title>
<path fill="none" stroke="#191970" d="M276.2602,-56.3733C246.5341,-46.7509 200.7958,-31.9455 169.0275,-21.6621"/>
<polygon fill="#191970" stroke="#191970" points="169.8338,-18.2443 159.2419,-18.4945 167.678,-24.9041 169.8338,-18.2443"/>
</g>
<!-- Node6 -->
<g id="node7" class="node">
<title>Node6</title>
<polygon fill="#ffffff" stroke="#bfbfbf" points="177.5,-.5 177.5,-19.5 260.5,-19.5 260.5,-.5 177.5,-.5"/>
<text text-anchor="middle" x="219" y="-7.5" font-family="Helvetica,sans-Serif" font-size="10.00" fill="#000000">unordered_map</text>
</g>
<!-- Node4&#45;&gt;Node6 -->
<g id="edge6" class="edge">
<title>Node4&#45;&gt;Node6</title>
<path fill="none" stroke="#191970" d="M290.8458,-56.2455C277.4973,-47.6534 257.8414,-35.0014 242.4617,-25.1018"/>
<polygon fill="#191970" stroke="#191970" points="244.2836,-22.1121 233.9806,-19.6427 240.4949,-27.9982 244.2836,-22.1121"/>
</g>
<!-- Node7 -->
<g id="node8" class="node">
<title>Node7</title>
<polygon fill="#ffffff" stroke="#bfbfbf" points="279,-.5 279,-19.5 333,-19.5 333,-.5 279,-.5"/>
<text text-anchor="middle" x="306" y="-7.5" font-family="Helvetica,sans-Serif" font-size="10.00" fill="#000000">iostream</text>
</g>
<!-- Node4&#45;&gt;Node7 -->
<g id="edge7" class="edge">
<title>Node4&#45;&gt;Node7</title>
<path fill="none" stroke="#191970" d="M306,-56.2455C306,-48.9382 306,-38.6944 306,-29.7046"/>
<polygon fill="#191970" stroke="#191970" points="309.5001,-29.6426 306,-19.6427 302.5001,-29.6427 309.5001,-29.6426"/>
</g>
<!-- Node8 -->
<g id="node9" class="node">
<title>Node8</title>
<polygon fill="#ffffff" stroke="#bfbfbf" points="351.5,-.5 351.5,-19.5 438.5,-19.5 438.5,-.5 351.5,-.5"/>
<text text-anchor="middle" x="395" y="-7.5" font-family="Helvetica,sans-Serif" font-size="10.00" fill="#000000">AMReX_Print.H</text>
</g>
<!-- Node4&#45;&gt;Node8 -->
<g id="edge8" class="edge">
<title>Node4&#45;&gt;Node8</title>
<path fill="none" stroke="#191970" d="M321.5026,-56.2455C335.158,-47.6534 355.2657,-35.0014 370.9989,-25.1018"/>
<polygon fill="#191970" stroke="#191970" points="373.0751,-27.9307 379.675,-19.6427 369.3471,-22.006 373.0751,-27.9307"/>
</g>
<!-- Node9 -->
<g id="node10" class="node">
<title>Node9</title>
<polygon fill="#ffffff" stroke="#bfbfbf" points="457,-.5 457,-19.5 519,-19.5 519,-.5 457,-.5"/>
<text text-anchor="middle" x="488" y="-7.5" font-family="Helvetica,sans-Serif" font-size="10.00" fill="#000000">AMReX.H</text>
</g>
<!-- Node4&#45;&gt;Node9 -->
<g id="edge9" class="edge">
<title>Node4&#45;&gt;Node9</title>
<path fill="none" stroke="#191970" d="M337.2869,-56.3733C367.6818,-47.021 413.9893,-32.7725 447.25,-22.5385"/>
<polygon fill="#191970" stroke="#191970" points="448.5929,-25.7873 457.1214,-19.5011 446.5342,-19.0968 448.5929,-25.7873"/>
</g>
</g>
</svg>
