<?xml version="1.0" encoding="UTF-8" standalone="no"?>
<!DOCTYPE svg PUBLIC "-//W3C//DTD SVG 1.1//EN"
 "http://www.w3.org/Graphics/SVG/1.1/DTD/svg11.dtd">
<!-- Generated by graphviz version 2.40.1 (20161225.0304)
 -->
<!-- Title: VortexPatch.cpp Pages: 1 -->
<svg width="2641pt" height="341pt"
 viewBox="0.00 0.00 2640.50 341.00" xmlns="http://www.w3.org/2000/svg" xmlns:xlink="http://www.w3.org/1999/xlink">
<g id="graph0" class="graph" transform="scale(1 1) rotate(0) translate(4 337)">
<title>VortexPatch.cpp</title>
<polygon fill="#ffffff" stroke="transparent" points="-4,4 -4,-337 2636.5,-337 2636.5,4 -4,4"/>
<!-- Node0 -->
<g id="node1" class="node">
<title>Node0</title>
<polygon fill="#bfbfbf" stroke="#000000" points="1344,-313.5 1344,-332.5 1433,-332.5 1433,-313.5 1344,-313.5"/>
<text text-anchor="middle" x="1388.5" y="-320.5" font-family="Helvetica,sans-Serif" font-size="10.00" fill="#000000">VortexPatch.cpp</text>
</g>
<!-- Node1 -->
<g id="node2" class="node">
<title>Node1</title>
<g id="a_node2"><a xlink:href="_vortex_patch_8_h.html" target="_top" xlink:title="amr&#45;wind/physics/multiphase\l/VortexPatch.H">
<polygon fill="#ffffff" stroke="#000000" points="1090,-190.5 1090,-220.5 1233,-220.5 1233,-190.5 1090,-190.5"/>
<text text-anchor="start" x="1098" y="-208.5" font-family="Helvetica,sans-Serif" font-size="10.00" fill="#000000">amr&#45;wind/physics/multiphase</text>
<text text-anchor="middle" x="1161.5" y="-197.5" font-family="Helvetica,sans-Serif" font-size="10.00" fill="#000000">/VortexPatch.H</text>
</a>
</g>
</g>
<!-- Node0&#45;&gt;Node1 -->
<g id="edge1" class="edge">
<title>Node0&#45;&gt;Node1</title>
<path fill="none" stroke="#191970" d="M1369.9236,-313.3845C1332.8191,-294.1784 1248.8756,-250.7274 1199.5871,-225.2147"/>
<polygon fill="#191970" stroke="#191970" points="1201.0007,-222.0053 1190.511,-220.5167 1197.7828,-228.2219 1201.0007,-222.0053"/>
</g>
<!-- Node21 -->
<g id="node22" class="node">
<title>Node21</title>
<g id="a_node22"><a xlink:href="_c_f_d_sim_8_h.html" target="_top" xlink:title="amr&#45;wind/CFDSim.H">
<polygon fill="#ffffff" stroke="#000000" points="1334.5,-257.5 1334.5,-276.5 1442.5,-276.5 1442.5,-257.5 1334.5,-257.5"/>
<text text-anchor="middle" x="1388.5" y="-264.5" font-family="Helvetica,sans-Serif" font-size="10.00" fill="#000000">amr&#45;wind/CFDSim.H</text>
</a>
</g>
</g>
<!-- Node0&#45;&gt;Node21 -->
<g id="edge31" class="edge">
<title>Node0&#45;&gt;Node21</title>
<path fill="none" stroke="#191970" d="M1388.5,-313.2455C1388.5,-305.9382 1388.5,-295.6944 1388.5,-286.7046"/>
<polygon fill="#191970" stroke="#191970" points="1392.0001,-286.6426 1388.5,-276.6427 1385.0001,-286.6427 1392.0001,-286.6426"/>
</g>
<!-- Node37 -->
<g id="node38" class="node">
<title>Node37</title>
<polygon fill="#ffffff" stroke="#bfbfbf" points="1460.5,-257.5 1460.5,-276.5 1576.5,-276.5 1576.5,-257.5 1460.5,-257.5"/>
<text text-anchor="middle" x="1518.5" y="-264.5" font-family="Helvetica,sans-Serif" font-size="10.00" fill="#000000">AMReX_ParmParse.H</text>
</g>
<!-- Node0&#45;&gt;Node37 -->
<g id="edge69" class="edge">
<title>Node0&#45;&gt;Node37</title>
<path fill="none" stroke="#191970" d="M1410.8478,-313.3733C1431.9033,-304.3032 1463.6495,-290.6279 1487.2175,-280.4755"/>
<polygon fill="#191970" stroke="#191970" points="1488.6444,-283.6719 1496.4438,-276.5011 1485.875,-277.243 1488.6444,-283.6719"/>
</g>
<!-- Node2 -->
<g id="node3" class="node">
<title>Node2</title>
<g id="a_node3"><a xlink:href="_physics_8_h.html" target="_top" xlink:title="amr&#45;wind/core/Physics.H">
<polygon fill="#ffffff" stroke="#000000" points="1098,-129 1098,-148 1225,-148 1225,-129 1098,-129"/>
<text text-anchor="middle" x="1161.5" y="-136" font-family="Helvetica,sans-Serif" font-size="10.00" fill="#000000">amr&#45;wind/core/Physics.H</text>
</a>
</g>
</g>
<!-- Node1&#45;&gt;Node2 -->
<g id="edge2" class="edge">
<title>Node1&#45;&gt;Node2</title>
<path fill="none" stroke="#191970" d="M1161.5,-190.2967C1161.5,-180.7699 1161.5,-168.3954 1161.5,-158.1306"/>
<polygon fill="#191970" stroke="#191970" points="1165.0001,-158.0549 1161.5,-148.055 1158.0001,-158.055 1165.0001,-158.0549"/>
</g>
<!-- Node14 -->
<g id="node15" class="node">
<title>Node14</title>
<g id="a_node15"><a xlink:href="_field_8_h.html" target="_top" xlink:title="amr&#45;wind/core/Field.H">
<polygon fill="#ffffff" stroke="#000000" points="945,-129 945,-148 1058,-148 1058,-129 945,-129"/>
<text text-anchor="middle" x="1001.5" y="-136" font-family="Helvetica,sans-Serif" font-size="10.00" fill="#000000">amr&#45;wind/core/Field.H</text>
</a>
</g>
</g>
<!-- Node1&#45;&gt;Node14 -->
<g id="edge16" class="edge">
<title>Node1&#45;&gt;Node14</title>
<path fill="none" stroke="#191970" d="M1125.5929,-190.4639C1098.0214,-178.9183 1060.2883,-163.1176 1033.6906,-151.9798"/>
<polygon fill="#191970" stroke="#191970" points="1035.0106,-148.7381 1024.4347,-148.1039 1032.3068,-155.1949 1035.0106,-148.7381"/>
</g>
<!-- Node3 -->
<g id="node4" class="node">
<title>Node3</title>
<g id="a_node4"><a xlink:href="_factory_8_h.html" target="_top" xlink:title="amr&#45;wind/core/Factory.H">
<polygon fill="#ffffff" stroke="#000000" points="304,-62 304,-81 429,-81 429,-62 304,-62"/>
<text text-anchor="middle" x="366.5" y="-69" font-family="Helvetica,sans-Serif" font-size="10.00" fill="#000000">amr&#45;wind/core/Factory.H</text>
</a>
</g>
</g>
<!-- Node2&#45;&gt;Node3 -->
<g id="edge3" class="edge">
<title>Node2&#45;&gt;Node3</title>
<path fill="none" stroke="#191970" d="M1108.8638,-128.9823C1095.1122,-126.7512 1080.2811,-124.5699 1066.5,-123 822.2254,-95.1727 759.4724,-107.8081 514.5,-87 489.9483,-84.9146 463.1481,-82.2316 439.1826,-79.6858"/>
<polygon fill="#191970" stroke="#191970" points="439.4161,-76.1909 429.1,-78.6053 438.6701,-83.1511 439.4161,-76.1909"/>
</g>
<!-- Node9 -->
<g id="node10" class="node">
<title>Node9</title>
<g id="a_node10"><a xlink:href="_coll_mgr_8_h.html" target="_top" xlink:title="amr&#45;wind/core/CollMgr.H">
<polygon fill="#ffffff" stroke="#000000" points="754,-62 754,-81 879,-81 879,-62 754,-62"/>
<text text-anchor="middle" x="816.5" y="-69" font-family="Helvetica,sans-Serif" font-size="10.00" fill="#000000">amr&#45;wind/core/CollMgr.H</text>
</a>
</g>
</g>
<!-- Node2&#45;&gt;Node9 -->
<g id="edge9" class="edge">
<title>Node2&#45;&gt;Node9</title>
<path fill="none" stroke="#191970" d="M1112.4363,-128.9717C1050.062,-116.8584 942.4709,-95.9639 875.6329,-82.9838"/>
<polygon fill="#191970" stroke="#191970" points="876.1573,-79.5203 865.6734,-81.0496 874.8228,-86.3919 876.1573,-79.5203"/>
</g>
<!-- Node12 -->
<g id="node13" class="node">
<title>Node12</title>
<polygon fill="#ffffff" stroke="#bfbfbf" points="1913.5,-.5 1913.5,-19.5 2017.5,-19.5 2017.5,-.5 1913.5,-.5"/>
<text text-anchor="middle" x="1965.5" y="-7.5" font-family="Helvetica,sans-Serif" font-size="10.00" fill="#000000">AMReX_MultiFab.H</text>
</g>
<!-- Node2&#45;&gt;Node12 -->
<g id="edge14" class="edge">
<title>Node2&#45;&gt;Node12</title>
<path fill="none" stroke="#191970" d="M1225.221,-133.9061C1386.267,-122.236 1797.8349,-92.0168 1811.5,-87 1833.6164,-78.8805 1833.924,-67.4757 1854.5,-56 1877.8819,-42.9594 1905.7184,-31.4325 1927.666,-23.1793"/>
<polygon fill="#191970" stroke="#191970" points="1929.129,-26.3702 1937.2984,-19.624 1926.7051,-19.8032 1929.129,-26.3702"/>
</g>
<!-- Node13 -->
<g id="node14" class="node">
<title>Node13</title>
<polygon fill="#ffffff" stroke="#bfbfbf" points="1115.5,-62 1115.5,-81 1225.5,-81 1225.5,-62 1115.5,-62"/>
<text text-anchor="middle" x="1170.5" y="-69" font-family="Helvetica,sans-Serif" font-size="10.00" fill="#000000">AMReX_Geometry.H</text>
</g>
<!-- Node2&#45;&gt;Node13 -->
<g id="edge15" class="edge">
<title>Node2&#45;&gt;Node13</title>
<path fill="none" stroke="#191970" d="M1162.7895,-128.9005C1164.0994,-119.149 1166.1666,-103.7597 1167.831,-91.3695"/>
<polygon fill="#191970" stroke="#191970" points="1171.3503,-91.4586 1169.2129,-81.0817 1164.4127,-90.5266 1171.3503,-91.4586"/>
</g>
<!-- Node4 -->
<g id="node5" class="node">
<title>Node4</title>
<polygon fill="#ffffff" stroke="#bfbfbf" points="474.5,-.5 474.5,-19.5 526.5,-19.5 526.5,-.5 474.5,-.5"/>
<text text-anchor="middle" x="500.5" y="-7.5" font-family="Helvetica,sans-Serif" font-size="10.00" fill="#000000">memory</text>
</g>
<!-- Node3&#45;&gt;Node4 -->
<g id="edge4" class="edge">
<title>Node3&#45;&gt;Node4</title>
<path fill="none" stroke="#191970" d="M387.4375,-61.8906C409.7598,-51.6457 445.3037,-35.3326 470.5757,-23.7339"/>
<polygon fill="#191970" stroke="#191970" points="472.081,-26.8942 479.7095,-19.5419 469.1611,-20.5322 472.081,-26.8942"/>
</g>
<!-- Node5 -->
<g id="node6" class="node">
<title>Node5</title>
<polygon fill="#ffffff" stroke="#bfbfbf" points="729,-.5 729,-19.5 812,-19.5 812,-.5 729,-.5"/>
<text text-anchor="middle" x="770.5" y="-7.5" font-family="Helvetica,sans-Serif" font-size="10.00" fill="#000000">unordered_map</text>
</g>
<!-- Node3&#45;&gt;Node5 -->
<g id="edge5" class="edge">
<title>Node3&#45;&gt;Node5</title>
<path fill="none" stroke="#191970" d="M429.1817,-61.9581C508.8781,-49.8261 644.9855,-29.1068 718.9567,-17.8463"/>
<polygon fill="#191970" stroke="#191970" points="719.6103,-21.2872 728.9697,-16.3221 718.5568,-14.367 719.6103,-21.2872"/>
</g>
<!-- Node6 -->
<g id="node7" class="node">
<title>Node6</title>
<polygon fill="#ffffff" stroke="#bfbfbf" points="296.5,-.5 296.5,-19.5 350.5,-19.5 350.5,-.5 296.5,-.5"/>
<text text-anchor="middle" x="323.5" y="-7.5" font-family="Helvetica,sans-Serif" font-size="10.00" fill="#000000">iostream</text>
</g>
<!-- Node3&#45;&gt;Node6 -->
<g id="edge6" class="edge">
<title>Node3&#45;&gt;Node6</title>
<path fill="none" stroke="#191970" d="M359.7813,-61.8906C353.507,-52.917 343.9777,-39.2879 336.2596,-28.2491"/>
<polygon fill="#191970" stroke="#191970" points="338.9121,-25.9348 330.3135,-19.7449 333.1753,-29.9459 338.9121,-25.9348"/>
</g>
<!-- Node7 -->
<g id="node8" class="node">
<title>Node7</title>
<polygon fill="#ffffff" stroke="#bfbfbf" points="369,-.5 369,-19.5 456,-19.5 456,-.5 369,-.5"/>
<text text-anchor="middle" x="412.5" y="-7.5" font-family="Helvetica,sans-Serif" font-size="10.00" fill="#000000">AMReX_Print.H</text>
</g>
<!-- Node3&#45;&gt;Node7 -->
<g id="edge7" class="edge">
<title>Node3&#45;&gt;Node7</title>
<path fill="none" stroke="#191970" d="M373.6875,-61.8906C380.4666,-52.8273 390.7978,-39.0149 399.0973,-27.9188"/>
<polygon fill="#191970" stroke="#191970" points="402.0243,-29.849 405.2112,-19.7449 396.4188,-25.6563 402.0243,-29.849"/>
</g>
<!-- Node8 -->
<g id="node9" class="node">
<title>Node8</title>
<polygon fill="#ffffff" stroke="#bfbfbf" points="216.5,-.5 216.5,-19.5 278.5,-19.5 278.5,-.5 216.5,-.5"/>
<text text-anchor="middle" x="247.5" y="-7.5" font-family="Helvetica,sans-Serif" font-size="10.00" fill="#000000">AMReX.H</text>
</g>
<!-- Node3&#45;&gt;Node8 -->
<g id="edge8" class="edge">
<title>Node3&#45;&gt;Node8</title>
<path fill="none" stroke="#191970" d="M347.9063,-61.8906C328.3447,-51.7811 297.3499,-35.7628 274.9691,-24.1962"/>
<polygon fill="#191970" stroke="#191970" points="276.4539,-21.0238 265.9632,-19.5419 273.24,-27.2425 276.4539,-21.0238"/>
</g>
<!-- Node9&#45;&gt;Node4 -->
<g id="edge11" class="edge">
<title>Node9&#45;&gt;Node4</title>
<path fill="none" stroke="#191970" d="M767.4717,-61.9581C703.661,-49.5392 593.6152,-28.1221 536.7943,-17.0636"/>
<polygon fill="#191970" stroke="#191970" points="537.3116,-13.5987 526.8272,-15.1238 535.9743,-20.4698 537.3116,-13.5987"/>
</g>
<!-- Node9&#45;&gt;Node5 -->
<g id="edge12" class="edge">
<title>Node9&#45;&gt;Node5</title>
<path fill="none" stroke="#191970" d="M809.3125,-61.8906C802.5334,-52.8273 792.2022,-39.0149 783.9027,-27.9188"/>
<polygon fill="#191970" stroke="#191970" points="786.5812,-25.6563 777.7888,-19.7449 780.9757,-29.849 786.5812,-25.6563"/>
</g>
<!-- Node10 -->
<g id="node11" class="node">
<title>Node10</title>
<polygon fill="#ffffff" stroke="#bfbfbf" points="1271,-.5 1271,-19.5 1312,-19.5 1312,-.5 1271,-.5"/>
<text text-anchor="middle" x="1291.5" y="-7.5" font-family="Helvetica,sans-Serif" font-size="10.00" fill="#000000">string</text>
</g>
<!-- Node9&#45;&gt;Node10 -->
<g id="edge10" class="edge">
<title>Node9&#45;&gt;Node10</title>
<path fill="none" stroke="#191970" d="M860.7679,-61.9306C871.4537,-59.8031 882.8596,-57.6828 893.5,-56 1029.5177,-34.4881 1193.19,-18.7373 1260.3944,-12.7027"/>
<polygon fill="#191970" stroke="#191970" points="1261.0495,-16.1583 1270.7,-11.7858 1260.4291,-9.1858 1261.0495,-16.1583"/>
</g>
<!-- Node11 -->
<g id="node12" class="node">
<title>Node11</title>
<polygon fill="#ffffff" stroke="#bfbfbf" points="1484,-.5 1484,-19.5 1579,-19.5 1579,-.5 1484,-.5"/>
<text text-anchor="middle" x="1531.5" y="-7.5" font-family="Helvetica,sans-Serif" font-size="10.00" fill="#000000">AMReX_Vector.H</text>
</g>
<!-- Node9&#45;&gt;Node11 -->
<g id="edge13" class="edge">
<title>Node9&#45;&gt;Node11</title>
<path fill="none" stroke="#191970" d="M859.1018,-61.9232C870.2487,-59.6929 882.2854,-57.5268 893.5,-56 1004.7641,-40.8523 1338.3805,-20.9308 1473.6133,-13.2306"/>
<polygon fill="#191970" stroke="#191970" points="1473.9857,-16.7152 1483.7713,-12.654 1473.5889,-9.7265 1473.9857,-16.7152"/>
</g>
<!-- Node14&#45;&gt;Node4 -->
<g id="edge18" class="edge">
<title>Node14&#45;&gt;Node4</title>
<path fill="none" stroke="#191970" d="M944.8904,-136.277C823.2783,-130.9712 545.5408,-115.8105 514.5,-87 499.0686,-72.6774 497.1888,-47.4828 498.1091,-29.8249"/>
<polygon fill="#191970" stroke="#191970" points="501.6071,-29.997 498.9756,-19.7342 494.6328,-29.398 501.6071,-29.997"/>
</g>
<!-- Node14&#45;&gt;Node5 -->
<g id="edge19" class="edge">
<title>Node14&#45;&gt;Node5</title>
<path fill="none" stroke="#191970" d="M944.9557,-135.3037C877.1049,-130.1492 769.3411,-117.3129 744.5,-87 730.3347,-69.7145 743.6509,-44.3425 755.8648,-27.5074"/>
<polygon fill="#191970" stroke="#191970" points="758.6536,-29.6224 762,-19.5699 753.1152,-25.3415 758.6536,-29.6224"/>
</g>
<!-- Node14&#45;&gt;Node10 -->
<g id="edge17" class="edge">
<title>Node14&#45;&gt;Node10</title>
<path fill="none" stroke="#191970" d="M1007.0111,-128.7987C1017.5175,-111.2551 1042.1827,-74.3749 1073.5,-56 1105.0239,-37.5039 1208.8039,-21.2481 1260.9816,-14.0044"/>
<polygon fill="#191970" stroke="#191970" points="1261.5559,-17.4585 1270.9905,-12.6378 1260.6089,-10.5229 1261.5559,-17.4585"/>
</g>
<!-- Node14&#45;&gt;Node12 -->
<g id="edge21" class="edge">
<title>Node14&#45;&gt;Node12</title>
<path fill="none" stroke="#191970" d="M1049.2139,-128.9562C1061.935,-126.6979 1075.7015,-124.51 1088.5,-123 1359.9747,-90.9712 1433.1615,-133.7026 1702.5,-87 1713.6001,-85.0753 1852.2817,-43.8367 1923.6525,-22.5207"/>
<polygon fill="#191970" stroke="#191970" points="1925.0916,-25.7437 1933.671,-19.5273 1923.0876,-19.0367 1925.0916,-25.7437"/>
</g>
<!-- Node15 -->
<g id="node16" class="node">
<title>Node15</title>
<polygon fill="#ffffff" stroke="#bfbfbf" points="523.5,-62 523.5,-81 579.5,-81 579.5,-62 523.5,-62"/>
<text text-anchor="middle" x="551.5" y="-69" font-family="Helvetica,sans-Serif" font-size="10.00" fill="#000000">algorithm</text>
</g>
<!-- Node14&#45;&gt;Node15 -->
<g id="edge20" class="edge">
<title>Node14&#45;&gt;Node15</title>
<path fill="none" stroke="#191970" d="M944.7937,-136.3101C864.3273,-132.1096 712.956,-120.159 588.5,-87 586.0268,-86.3411 583.5012,-85.5519 580.9892,-84.6835"/>
<polygon fill="#191970" stroke="#191970" points="582.0981,-81.3602 571.5078,-81.049 579.5925,-87.8965 582.0981,-81.3602"/>
</g>
<!-- Node16 -->
<g id="node17" class="node">
<title>Node16</title>
<polygon fill="#ffffff" stroke="#bfbfbf" points="598,-62 598,-81 697,-81 697,-62 598,-62"/>
<text text-anchor="middle" x="647.5" y="-69" font-family="Helvetica,sans-Serif" font-size="10.00" fill="#000000">AMReX_BCRec.H</text>
</g>
<!-- Node14&#45;&gt;Node16 -->
<g id="edge22" class="edge">
<title>Node14&#45;&gt;Node16</title>
<path fill="none" stroke="#191970" d="M944.8928,-129.5116C886.2953,-119.9583 792.2002,-103.921 711.5,-87 706.1852,-85.8856 700.6394,-84.6511 695.1311,-83.3795"/>
<polygon fill="#191970" stroke="#191970" points="695.851,-79.9534 685.315,-81.0684 694.2467,-86.7671 695.851,-79.9534"/>
</g>
<!-- Node17 -->
<g id="node18" class="node">
<title>Node17</title>
<polygon fill="#ffffff" stroke="#bfbfbf" points="936,-62 936,-81 1021,-81 1021,-62 936,-62"/>
<text text-anchor="middle" x="978.5" y="-69" font-family="Helvetica,sans-Serif" font-size="10.00" fill="#000000">AMReX_Gpu.H</text>
</g>
<!-- Node14&#45;&gt;Node17 -->
<g id="edge23" class="edge">
<title>Node14&#45;&gt;Node17</title>
<path fill="none" stroke="#191970" d="M998.2047,-128.9005C994.7888,-118.95 989.3578,-103.1292 985.0618,-90.6147"/>
<polygon fill="#191970" stroke="#191970" points="988.3465,-89.4035 981.7892,-81.0817 981.7258,-91.6763 988.3465,-89.4035"/>
</g>
<!-- Node18 -->
<g id="node19" class="node">
<title>Node18</title>
<g id="a_node19"><a xlink:href="incflo__enums_8_h.html" target="_top" xlink:title="amr&#45;wind/incflo_enums.H">
<polygon fill="#ffffff" stroke="#000000" points="157.5,-62 157.5,-81 285.5,-81 285.5,-62 157.5,-62"/>
<text text-anchor="middle" x="221.5" y="-69" font-family="Helvetica,sans-Serif" font-size="10.00" fill="#000000">amr&#45;wind/incflo_enums.H</text>
</a>
</g>
</g>
<!-- Node14&#45;&gt;Node18 -->
<g id="edge24" class="edge">
<title>Node14&#45;&gt;Node18</title>
<path fill="none" stroke="#191970" d="M944.8588,-136.9968C824.5476,-133.2293 534.8442,-121.1071 294.5,-87 287.0079,-85.9368 279.1346,-84.5519 271.444,-83.0475"/>
<polygon fill="#191970" stroke="#191970" points="271.9843,-79.5857 261.4867,-81.0179 270.5862,-86.4447 271.9843,-79.5857"/>
</g>
<!-- Node19 -->
<g id="node20" class="node">
<title>Node19</title>
<g id="a_node20"><a xlink:href="_field_desc_types_8_h.html" target="_top" xlink:title="amr&#45;wind/core/FieldDescTypes.H">
<polygon fill="#ffffff" stroke="#000000" points="1640,-.5 1640,-19.5 1803,-19.5 1803,-.5 1640,-.5"/>
<text text-anchor="middle" x="1721.5" y="-7.5" font-family="Helvetica,sans-Serif" font-size="10.00" fill="#000000">amr&#45;wind/core/FieldDescTypes.H</text>
</a>
</g>
</g>
<!-- Node14&#45;&gt;Node19 -->
<g id="edge25" class="edge">
<title>Node14&#45;&gt;Node19</title>
<path fill="none" stroke="#191970" d="M1014.6825,-128.8156C1028.4903,-118.6025 1050.7371,-101.9504 1069.5,-87 1086.2784,-73.6309 1086.6253,-64.0774 1106.5,-56 1106.5,-56 1458.3819,-29.6804 1629.8072,-16.8583"/>
<polygon fill="#191970" stroke="#191970" points="1630.1217,-20.3447 1639.8327,-16.1084 1629.5995,-13.3642 1630.1217,-20.3447"/>
</g>
<!-- Node20 -->
<g id="node21" class="node">
<title>Node20</title>
<g id="a_node21"><a xlink:href="_view_field_8_h.html" target="_top" xlink:title="amr&#45;wind/core/ViewField.H">
<polygon fill="#ffffff" stroke="#000000" points="1559.5,-62 1559.5,-81 1693.5,-81 1693.5,-62 1559.5,-62"/>
<text text-anchor="middle" x="1626.5" y="-69" font-family="Helvetica,sans-Serif" font-size="10.00" fill="#000000">amr&#45;wind/core/ViewField.H</text>
</a>
</g>
</g>
<!-- Node14&#45;&gt;Node20 -->
<g id="edge26" class="edge">
<title>Node14&#45;&gt;Node20</title>
<path fill="none" stroke="#191970" d="M1051.0786,-128.9524C1063.2832,-126.7996 1076.3395,-124.6625 1088.5,-123 1175.3932,-111.1204 1422.2599,-89.1291 1549.1331,-78.1283"/>
<polygon fill="#191970" stroke="#191970" points="1549.5104,-81.6088 1559.1712,-77.2591 1548.9065,-74.6349 1549.5104,-81.6088"/>
</g>
<!-- Node20&#45;&gt;Node10 -->
<g id="edge27" class="edge">
<title>Node20&#45;&gt;Node10</title>
<path fill="none" stroke="#191970" d="M1574.5238,-61.9581C1503.7621,-48.9675 1379.3687,-26.1311 1322.0264,-15.6041"/>
<polygon fill="#191970" stroke="#191970" points="1322.5953,-12.1501 1312.1277,-13.7869 1321.3313,-19.0351 1322.5953,-12.1501"/>
</g>
<!-- Node20&#45;&gt;Node11 -->
<g id="edge30" class="edge">
<title>Node20&#45;&gt;Node11</title>
<path fill="none" stroke="#191970" d="M1611.6563,-61.8906C1596.4582,-52.0519 1572.6152,-36.6167 1554.8794,-25.1351"/>
<polygon fill="#191970" stroke="#191970" points="1556.5361,-22.0382 1546.2395,-19.5419 1552.732,-27.9144 1556.5361,-22.0382"/>
</g>
<!-- Node20&#45;&gt;Node12 -->
<g id="edge29" class="edge">
<title>Node20&#45;&gt;Node12</title>
<path fill="none" stroke="#191970" d="M1679.0968,-61.9581C1739.6467,-50.9734 1839.0023,-32.9487 1903.3257,-21.2794"/>
<polygon fill="#191970" stroke="#191970" points="1904.1225,-24.6921 1913.3371,-19.4632 1902.8729,-17.8045 1904.1225,-24.6921"/>
</g>
<!-- Node20&#45;&gt;Node19 -->
<g id="edge28" class="edge">
<title>Node20&#45;&gt;Node19</title>
<path fill="none" stroke="#191970" d="M1641.3438,-61.8906C1656.5418,-52.0519 1680.3848,-36.6167 1698.1206,-25.1351"/>
<polygon fill="#191970" stroke="#191970" points="1700.268,-27.9144 1706.7605,-19.5419 1696.4639,-22.0382 1700.268,-27.9144"/>
</g>
<!-- Node21&#45;&gt;Node2 -->
<g id="edge68" class="edge">
<title>Node21&#45;&gt;Node2</title>
<path fill="none" stroke="#191970" d="M1371.4381,-257.3416C1331.9849,-235.008 1234.2473,-179.6807 1187.3773,-153.1486"/>
<polygon fill="#191970" stroke="#191970" points="1188.8769,-149.9756 1178.4502,-148.0952 1185.4284,-156.0673 1188.8769,-149.9756"/>
</g>
<!-- Node22 -->
<g id="node23" class="node">
<title>Node22</title>
<polygon fill="#ffffff" stroke="#bfbfbf" points="2142.5,-129 2142.5,-148 2248.5,-148 2248.5,-129 2142.5,-129"/>
<text text-anchor="middle" x="2195.5" y="-136" font-family="Helvetica,sans-Serif" font-size="10.00" fill="#000000">AMReX_AmrCore.H</text>
</g>
<!-- Node21&#45;&gt;Node22 -->
<g id="edge32" class="edge">
<title>Node21&#45;&gt;Node22</title>
<path fill="none" stroke="#191970" d="M1442.7931,-258.3625C1445.7381,-257.9001 1448.655,-257.4435 1451.5,-257 1750.4829,-210.3925 1826.981,-209.1859 2124.5,-154 2130.7685,-152.8373 2137.3286,-151.5297 2143.821,-150.1797"/>
<polygon fill="#191970" stroke="#191970" points="2144.86,-153.5372 2153.916,-148.0381 2143.4073,-146.6896 2144.86,-153.5372"/>
</g>
<!-- Node23 -->
<g id="node24" class="node">
<title>Node23</title>
<g id="a_node24"><a xlink:href="_sim_time_8_h.html" target="_top" xlink:title="amr&#45;wind/core/SimTime.H">
<polygon fill="#ffffff" stroke="#000000" points="2312,-196 2312,-215 2443,-215 2443,-196 2312,-196"/>
<text text-anchor="middle" x="2377.5" y="-203" font-family="Helvetica,sans-Serif" font-size="10.00" fill="#000000">amr&#45;wind/core/SimTime.H</text>
</a>
</g>
</g>
<!-- Node21&#45;&gt;Node23 -->
<g id="edge33" class="edge">
<title>Node21&#45;&gt;Node23</title>
<path fill="none" stroke="#191970" d="M1442.7494,-258.0296C1445.7056,-257.6531 1448.637,-257.306 1451.5,-257 1766.192,-223.362 2143.5434,-211.0183 2301.8122,-207.0996"/>
<polygon fill="#191970" stroke="#191970" points="2302.0054,-210.596 2311.9172,-206.8535 2301.835,-203.5981 2302.0054,-210.596"/>
</g>
<!-- Node27 -->
<g id="node28" class="node">
<title>Node27</title>
<g id="a_node28"><a xlink:href="_field_repo_8_h.html" target="_top" xlink:title="amr&#45;wind/core/FieldRepo.H">
<polygon fill="#ffffff" stroke="#000000" points="1395.5,-196 1395.5,-215 1531.5,-215 1531.5,-196 1395.5,-196"/>
<text text-anchor="middle" x="1463.5" y="-203" font-family="Helvetica,sans-Serif" font-size="10.00" fill="#000000">amr&#45;wind/core/FieldRepo.H</text>
</a>
</g>
</g>
<!-- Node21&#45;&gt;Node27 -->
<g id="edge37" class="edge">
<title>Node21&#45;&gt;Node27</title>
<path fill="none" stroke="#191970" d="M1400.2188,-257.3906C1411.8188,-247.8786 1429.7979,-233.1357 1443.6321,-221.7917"/>
<polygon fill="#191970" stroke="#191970" points="1446.1026,-224.2921 1451.616,-215.2449 1441.664,-218.8792 1446.1026,-224.2921"/>
</g>
<!-- Node34 -->
<g id="node35" class="node">
<title>Node34</title>
<g id="a_node35"><a xlink:href="_p_d_e_base_8_h.html" target="_top" xlink:title="amr&#45;wind/equation_systems\l/PDEBase.H">
<polygon fill="#ffffff" stroke="#000000" points="426,-123.5 426,-153.5 565,-153.5 565,-123.5 426,-123.5"/>
<text text-anchor="start" x="434" y="-141.5" font-family="Helvetica,sans-Serif" font-size="10.00" fill="#000000">amr&#45;wind/equation_systems</text>
<text text-anchor="middle" x="495.5" y="-130.5" font-family="Helvetica,sans-Serif" font-size="10.00" fill="#000000">/PDEBase.H</text>
</a>
</g>
</g>
<!-- Node21&#45;&gt;Node34 -->
<g id="edge60" class="edge">
<title>Node21&#45;&gt;Node34</title>
<path fill="none" stroke="#191970" d="M1334.3169,-259.2032C1182.7986,-237.4002 754.15,-175.719 575.3599,-149.9916"/>
<polygon fill="#191970" stroke="#191970" points="575.6304,-146.4946 565.2338,-148.5345 574.6333,-153.4232 575.6304,-146.4946"/>
</g>
<!-- Node24 -->
<g id="node25" class="node">
<title>Node24</title>
<polygon fill="#ffffff" stroke="#bfbfbf" points="2267,-129 2267,-148 2360,-148 2360,-129 2267,-129"/>
<text text-anchor="middle" x="2313.5" y="-136" font-family="Helvetica,sans-Serif" font-size="10.00" fill="#000000">AMReX_REAL.H</text>
</g>
<!-- Node23&#45;&gt;Node24 -->
<g id="edge34" class="edge">
<title>Node23&#45;&gt;Node24</title>
<path fill="none" stroke="#191970" d="M2368.3304,-195.9005C2358.2551,-185.353 2341.8793,-168.2096 2329.6431,-155.3998"/>
<polygon fill="#191970" stroke="#191970" points="2332.0909,-152.8952 2322.6526,-148.0817 2327.0291,-157.7304 2332.0909,-152.8952"/>
</g>
<!-- Node25 -->
<g id="node26" class="node">
<title>Node25</title>
<polygon fill="#ffffff" stroke="#bfbfbf" points="2378.5,-129 2378.5,-148 2504.5,-148 2504.5,-129 2378.5,-129"/>
<text text-anchor="middle" x="2441.5" y="-136" font-family="Helvetica,sans-Serif" font-size="10.00" fill="#000000">AMReX_GpuQualifiers.H</text>
</g>
<!-- Node23&#45;&gt;Node25 -->
<g id="edge35" class="edge">
<title>Node23&#45;&gt;Node25</title>
<path fill="none" stroke="#191970" d="M2386.6696,-195.9005C2396.7449,-185.353 2413.1207,-168.2096 2425.3569,-155.3998"/>
<polygon fill="#191970" stroke="#191970" points="2427.9709,-157.7304 2432.3474,-148.0817 2422.9091,-152.8952 2427.9709,-157.7304"/>
</g>
<!-- Node26 -->
<g id="node27" class="node">
<title>Node26</title>
<polygon fill="#ffffff" stroke="#bfbfbf" points="2522.5,-129 2522.5,-148 2632.5,-148 2632.5,-129 2522.5,-129"/>
<text text-anchor="middle" x="2577.5" y="-136" font-family="Helvetica,sans-Serif" font-size="10.00" fill="#000000">AMReX_Extension.H</text>
</g>
<!-- Node23&#45;&gt;Node26 -->
<g id="edge36" class="edge">
<title>Node23&#45;&gt;Node26</title>
<path fill="none" stroke="#191970" d="M2406.1551,-195.9005C2441.0563,-184.2086 2500.1502,-164.4122 2538.9997,-151.3976"/>
<polygon fill="#191970" stroke="#191970" points="2540.5277,-154.577 2548.898,-148.0817 2538.3041,-147.9395 2540.5277,-154.577"/>
</g>
<!-- Node27&#45;&gt;Node5 -->
<g id="edge39" class="edge">
<title>Node27&#45;&gt;Node5</title>
<path fill="none" stroke="#191970" d="M1430.5364,-195.966C1403.8749,-187.3787 1366.0442,-173.1596 1336.5,-154 1283.754,-119.7939 1291.5881,-82.3276 1234.5,-56 1162.292,-22.6995 927.6499,-13.419 822.4073,-10.9034"/>
<polygon fill="#191970" stroke="#191970" points="822.412,-7.4027 812.3349,-10.674 822.2525,-14.4009 822.412,-7.4027"/>
</g>
<!-- Node27&#45;&gt;Node10 -->
<g id="edge38" class="edge">
<title>Node27&#45;&gt;Node10</title>
<path fill="none" stroke="#191970" d="M1442.2791,-195.9994C1407.9482,-179.3833 1341.0017,-141.5425 1310.5,-87 1300.4528,-69.0338 1295.6607,-45.7917 1293.4124,-29.5629"/>
<polygon fill="#191970" stroke="#191970" points="1296.8841,-29.1164 1292.2289,-19.599 1289.9329,-29.9421 1296.8841,-29.1164"/>
</g>
<!-- Node27&#45;&gt;Node12 -->
<g id="edge58" class="edge">
<title>Node27&#45;&gt;Node12</title>
<path fill="none" stroke="#191970" d="M1531.8379,-201.7735C1640.9424,-195.1542 1849.2407,-179.5831 1918.5,-154 1968.3379,-135.5908 1992.5937,-133.9297 2017.5,-87 2023.9588,-74.8299 2023.1592,-68.5619 2017.5,-56 2011.9303,-43.6369 2001.2137,-33.2563 1990.9494,-25.5033"/>
<polygon fill="#191970" stroke="#191970" points="1992.7549,-22.4948 1982.5567,-19.623 1988.7382,-28.2277 1992.7549,-22.4948"/>
</g>
<!-- Node27&#45;&gt;Node14 -->
<g id="edge45" class="edge">
<title>Node27&#45;&gt;Node14</title>
<path fill="none" stroke="#191970" d="M1395.2937,-196.9625C1320.0507,-187.3511 1195.4445,-170.8633 1088.5,-154 1080.2217,-152.6947 1071.5151,-151.2407 1062.9398,-149.7609"/>
<polygon fill="#191970" stroke="#191970" points="1063.4202,-146.2919 1052.9671,-148.0192 1062.2159,-153.1875 1063.4202,-146.2919"/>
</g>
<!-- Node27&#45;&gt;Node19 -->
<g id="edge40" class="edge">
<title>Node27&#45;&gt;Node19</title>
<path fill="none" stroke="#191970" d="M1531.5689,-200.843C1662.7263,-190.2968 1942.6528,-159.6236 2000.5,-87 2009.0841,-76.2232 2009.4148,-66.5049 2000.5,-56 1988.2833,-41.6041 1889.9921,-27.8982 1813.4909,-19.2519"/>
<polygon fill="#191970" stroke="#191970" points="1813.6546,-15.7486 1803.3282,-18.1183 1812.8785,-22.7054 1813.6546,-15.7486"/>
</g>
<!-- Node27&#45;&gt;Node22 -->
<g id="edge57" class="edge">
<title>Node27&#45;&gt;Node22</title>
<path fill="none" stroke="#191970" d="M1531.856,-203.5874C1652.8043,-199.4522 1912.1774,-187.2067 2128.5,-154 2135.1601,-152.9776 2142.1401,-151.6527 2148.9751,-150.2083"/>
<polygon fill="#191970" stroke="#191970" points="2149.8233,-153.6054 2158.8313,-148.028 2148.3113,-146.7706 2149.8233,-153.6054"/>
</g>
<!-- Node28 -->
<g id="node29" class="node">
<title>Node28</title>
<g id="a_node29"><a xlink:href="_field_utils_8_h.html" target="_top" xlink:title="amr&#45;wind/core/FieldUtils.H">
<polygon fill="#ffffff" stroke="#000000" points="2124,-62 2124,-81 2257,-81 2257,-62 2124,-62"/>
<text text-anchor="middle" x="2190.5" y="-69" font-family="Helvetica,sans-Serif" font-size="10.00" fill="#000000">amr&#45;wind/core/FieldUtils.H</text>
</a>
</g>
</g>
<!-- Node27&#45;&gt;Node28 -->
<g id="edge41" class="edge">
<title>Node27&#45;&gt;Node28</title>
<path fill="none" stroke="#191970" d="M1531.6951,-202.2076C1683.4574,-194.5496 2039.7471,-174.618 2090.5,-154 2099.9078,-150.1782 2145.7477,-110.7453 2171.9784,-87.8092"/>
<polygon fill="#191970" stroke="#191970" points="2174.5233,-90.2326 2179.7347,-81.0081 2169.9083,-84.9694 2174.5233,-90.2326"/>
</g>
<!-- Node30 -->
<g id="node31" class="node">
<title>Node30</title>
<g id="a_node31"><a xlink:href="_int_field_8_h.html" target="_top" xlink:title="amr&#45;wind/core/IntField.H">
<polygon fill="#ffffff" stroke="#000000" points="1401.5,-129 1401.5,-148 1525.5,-148 1525.5,-129 1401.5,-129"/>
<text text-anchor="middle" x="1463.5" y="-136" font-family="Helvetica,sans-Serif" font-size="10.00" fill="#000000">amr&#45;wind/core/IntField.H</text>
</a>
</g>
</g>
<!-- Node27&#45;&gt;Node30 -->
<g id="edge46" class="edge">
<title>Node27&#45;&gt;Node30</title>
<path fill="none" stroke="#191970" d="M1463.5,-195.9005C1463.5,-186.149 1463.5,-170.7597 1463.5,-158.3695"/>
<polygon fill="#191970" stroke="#191970" points="1467.0001,-158.0816 1463.5,-148.0817 1460.0001,-158.0817 1467.0001,-158.0816"/>
</g>
<!-- Node31 -->
<g id="node32" class="node">
<title>Node31</title>
<polygon fill="#ffffff" stroke="#bfbfbf" points="1320,-62 1320,-81 1427,-81 1427,-62 1320,-62"/>
<text text-anchor="middle" x="1373.5" y="-69" font-family="Helvetica,sans-Serif" font-size="10.00" fill="#000000">AMReX_iMultiFab.H</text>
</g>
<!-- Node27&#45;&gt;Node31 -->
<g id="edge59" class="edge">
<title>Node27&#45;&gt;Node31</title>
<path fill="none" stroke="#191970" d="M1443.2224,-195.9452C1427.0223,-187.261 1405.0253,-172.9187 1392.5,-154 1379.9943,-135.111 1375.6599,-109.0619 1374.1906,-91.3215"/>
<polygon fill="#191970" stroke="#191970" points="1377.6795,-91.0285 1373.59,-81.2547 1370.6919,-91.4454 1377.6795,-91.0285"/>
</g>
<!-- Node32 -->
<g id="node33" class="node">
<title>Node32</title>
<g id="a_node33"><a xlink:href="_scratch_field_8_h.html" target="_top" xlink:title="amr&#45;wind/core/ScratchField.H">
<polygon fill="#ffffff" stroke="#000000" points="1553.5,-129 1553.5,-148 1699.5,-148 1699.5,-129 1553.5,-129"/>
<text text-anchor="middle" x="1626.5" y="-136" font-family="Helvetica,sans-Serif" font-size="10.00" fill="#000000">amr&#45;wind/core/ScratchField.H</text>
</a>
</g>
</g>
<!-- Node27&#45;&gt;Node32 -->
<g id="edge50" class="edge">
<title>Node27&#45;&gt;Node32</title>
<path fill="none" stroke="#191970" d="M1486.8539,-195.9005C1514.9352,-184.3579 1562.2335,-164.9163 1593.9017,-151.8993"/>
<polygon fill="#191970" stroke="#191970" points="1595.2709,-155.1207 1603.1894,-148.0817 1592.6096,-148.6463 1595.2709,-155.1207"/>
</g>
<!-- Node28&#45;&gt;Node12 -->
<g id="edge43" class="edge">
<title>Node28&#45;&gt;Node12</title>
<path fill="none" stroke="#191970" d="M2155.3438,-61.8906C2116.2111,-51.1944 2052.879,-33.8836 2010.2418,-22.2294"/>
<polygon fill="#191970" stroke="#191970" points="2010.9784,-18.8024 2000.4094,-19.5419 2009.1327,-25.5547 2010.9784,-18.8024"/>
</g>
<!-- Node28&#45;&gt;Node19 -->
<g id="edge42" class="edge">
<title>Node28&#45;&gt;Node19</title>
<path fill="none" stroke="#191970" d="M2123.8018,-62.7539C2039.7054,-51.7263 1895.1459,-32.7702 1804.1365,-20.8361"/>
<polygon fill="#191970" stroke="#191970" points="1804.5034,-17.3544 1794.1332,-19.5244 1803.5932,-24.2949 1804.5034,-17.3544"/>
</g>
<!-- Node29 -->
<g id="node30" class="node">
<title>Node29</title>
<polygon fill="#ffffff" stroke="#bfbfbf" points="2132.5,-.5 2132.5,-19.5 2248.5,-19.5 2248.5,-.5 2132.5,-.5"/>
<text text-anchor="middle" x="2190.5" y="-7.5" font-family="Helvetica,sans-Serif" font-size="10.00" fill="#000000">AMReX_Interpolater.H</text>
</g>
<!-- Node28&#45;&gt;Node29 -->
<g id="edge44" class="edge">
<title>Node28&#45;&gt;Node29</title>
<path fill="none" stroke="#191970" d="M2190.5,-61.8906C2190.5,-53.3657 2190.5,-40.6392 2190.5,-29.9235"/>
<polygon fill="#191970" stroke="#191970" points="2194.0001,-29.7448 2190.5,-19.7449 2187.0001,-29.7449 2194.0001,-29.7448"/>
</g>
<!-- Node30&#45;&gt;Node10 -->
<g id="edge47" class="edge">
<title>Node30&#45;&gt;Node10</title>
<path fill="none" stroke="#191970" d="M1462.9647,-128.8922C1461.4954,-111.8278 1456.003,-76.1373 1435.5,-56 1419.2837,-40.0729 1359.0865,-24.6395 1321.8493,-16.3234"/>
<polygon fill="#191970" stroke="#191970" points="1322.5279,-12.8891 1312.011,-14.172 1321.0324,-19.7275 1322.5279,-12.8891"/>
</g>
<!-- Node30&#45;&gt;Node19 -->
<g id="edge48" class="edge">
<title>Node30&#45;&gt;Node19</title>
<path fill="none" stroke="#191970" d="M1510.714,-128.9786C1579.3708,-115.0416 1699.0309,-90.3676 1702.5,-87 1717.7362,-72.2095 1721.5105,-47.2953 1722.1033,-29.8224"/>
<polygon fill="#191970" stroke="#191970" points="1725.6036,-29.6023 1722.1219,-19.5959 1718.6036,-29.5895 1725.6036,-29.6023"/>
</g>
<!-- Node30&#45;&gt;Node31 -->
<g id="edge49" class="edge">
<title>Node30&#45;&gt;Node31</title>
<path fill="none" stroke="#191970" d="M1450.6052,-128.9005C1436.0358,-118.0544 1412.0978,-100.2339 1394.7546,-87.3229"/>
<polygon fill="#191970" stroke="#191970" points="1396.4823,-84.2457 1386.3709,-81.0817 1392.3022,-89.8606 1396.4823,-84.2457"/>
</g>
<!-- Node32&#45;&gt;Node10 -->
<g id="edge51" class="edge">
<title>Node32&#45;&gt;Node10</title>
<path fill="none" stroke="#191970" d="M1609.9114,-128.9652C1580.4314,-112.3286 1516.6348,-77.7051 1459.5,-56 1412.6175,-38.1897 1355.9722,-24.1501 1321.8891,-16.4703"/>
<polygon fill="#191970" stroke="#191970" points="1322.5922,-13.0413 1312.0717,-14.294 1321.0771,-19.8754 1322.5922,-13.0413"/>
</g>
<!-- Node32&#45;&gt;Node11 -->
<g id="edge55" class="edge">
<title>Node32&#45;&gt;Node11</title>
<path fill="none" stroke="#191970" d="M1604.1838,-128.8961C1586.9657,-120.3505 1563.8947,-106.223 1550.5,-87 1538.7317,-70.1111 1534.2287,-46.688 1532.5188,-30.1222"/>
<polygon fill="#191970" stroke="#191970" points="1535.9898,-29.6127 1531.7262,-19.9137 1529.0108,-30.1546 1535.9898,-29.6127"/>
</g>
<!-- Node32&#45;&gt;Node12 -->
<g id="edge54" class="edge">
<title>Node32&#45;&gt;Node12</title>
<path fill="none" stroke="#191970" d="M1699.8314,-133.5214C1803.1079,-125.7528 1981.0651,-109.2945 2000.5,-87 2015.9236,-69.307 1998.4413,-43.6893 1983.1323,-26.9409"/>
<polygon fill="#191970" stroke="#191970" points="1985.4116,-24.2629 1975.9452,-19.505 1980.3784,-29.1278 1985.4116,-24.2629"/>
</g>
<!-- Node32&#45;&gt;Node19 -->
<g id="edge52" class="edge">
<title>Node32&#45;&gt;Node19</title>
<path fill="none" stroke="#191970" d="M1672.7558,-128.9406C1695.8131,-121.5882 1721.6671,-108.835 1735.5,-87 1746.5798,-69.5108 1739.51,-45.5616 1731.971,-29.0387"/>
<polygon fill="#191970" stroke="#191970" points="1734.9736,-27.2173 1727.3743,-19.8347 1728.7111,-30.3449 1734.9736,-27.2173"/>
</g>
<!-- Node32&#45;&gt;Node20 -->
<g id="edge53" class="edge">
<title>Node32&#45;&gt;Node20</title>
<path fill="none" stroke="#191970" d="M1626.5,-128.9005C1626.5,-119.149 1626.5,-103.7597 1626.5,-91.3695"/>
<polygon fill="#191970" stroke="#191970" points="1630.0001,-91.0816 1626.5,-81.0817 1623.0001,-91.0817 1630.0001,-91.0816"/>
</g>
<!-- Node33 -->
<g id="node34" class="node">
<title>Node33</title>
<polygon fill="#ffffff" stroke="#bfbfbf" points="1863.5,-62 1863.5,-81 1991.5,-81 1991.5,-62 1863.5,-62"/>
<text text-anchor="middle" x="1927.5" y="-69" font-family="Helvetica,sans-Serif" font-size="10.00" fill="#000000">AMReX_PhysBCFunct.H</text>
</g>
<!-- Node32&#45;&gt;Node33 -->
<g id="edge56" class="edge">
<title>Node32&#45;&gt;Node33</title>
<path fill="none" stroke="#191970" d="M1669.3063,-128.9717C1723.3137,-116.9501 1816.1761,-96.2797 1874.5783,-83.2799"/>
<polygon fill="#191970" stroke="#191970" points="1875.3534,-86.6931 1884.354,-81.1039 1873.8324,-79.8603 1875.3534,-86.6931"/>
</g>
<!-- Node34&#45;&gt;Node3 -->
<g id="edge62" class="edge">
<title>Node34&#45;&gt;Node3</title>
<path fill="none" stroke="#191970" d="M466.5499,-123.4639C444.8078,-112.1715 415.2284,-96.8086 393.8773,-85.7192"/>
<polygon fill="#191970" stroke="#191970" points="395.4788,-82.6071 384.9911,-81.1039 392.2523,-88.8192 395.4788,-82.6071"/>
</g>
<!-- Node34&#45;&gt;Node9 -->
<g id="edge63" class="edge">
<title>Node34&#45;&gt;Node9</title>
<path fill="none" stroke="#191970" d="M565.1522,-123.962C623.8249,-111.7157 706.6487,-94.4285 760.9438,-83.0958"/>
<polygon fill="#191970" stroke="#191970" points="761.6638,-86.5211 770.7377,-81.0516 760.2335,-79.6687 761.6638,-86.5211"/>
</g>
<!-- Node34&#45;&gt;Node10 -->
<g id="edge61" class="edge">
<title>Node34&#45;&gt;Node10</title>
<path fill="none" stroke="#191970" d="M494.0729,-123.2834C493.2314,-104.3205 495.0814,-72.4154 514.5,-56 543.4792,-31.5025 1119.9328,-14.5769 1260.6957,-10.7986"/>
<polygon fill="#191970" stroke="#191970" points="1260.8893,-14.2947 1270.7927,-10.5301 1260.7032,-7.2972 1260.8893,-14.2947"/>
</g>
<!-- Node34&#45;&gt;Node18 -->
<g id="edge67" class="edge">
<title>Node34&#45;&gt;Node18</title>
<path fill="none" stroke="#191970" d="M434.0091,-123.4639C384.5753,-111.3761 316.0668,-94.624 270.3387,-83.4423"/>
<polygon fill="#191970" stroke="#191970" points="270.9175,-79.9808 260.3724,-81.0053 269.2548,-86.7805 270.9175,-79.9808"/>
</g>
<!-- Node34&#45;&gt;Node19 -->
<g id="edge66" class="edge">
<title>Node34&#45;&gt;Node19</title>
<path fill="none" stroke="#191970" d="M565.2082,-133.8354C661.826,-126.608 830.9431,-110.9864 887.5,-87 907.8846,-78.3547 905.8009,-63.8624 926.5,-56 1064.0201,-3.7643 1440.6988,-29.4743 1587.5,-20 1601.0816,-19.1235 1615.4321,-18.1271 1629.4957,-17.111"/>
<polygon fill="#191970" stroke="#191970" points="1629.9515,-20.5872 1639.6705,-16.3691 1629.4424,-13.6057 1629.9515,-20.5872"/>
</g>
<!-- Node35 -->
<g id="node36" class="node">
<title>Node35</title>
<g id="a_node36"><a xlink:href="_p_d_e_fields_8_h.html" target="_top" xlink:title="amr&#45;wind/equation_systems\l/PDEFields.H">
<polygon fill="#ffffff" stroke="#000000" points="0,-56.5 0,-86.5 139,-86.5 139,-56.5 0,-56.5"/>
<text text-anchor="start" x="8" y="-74.5" font-family="Helvetica,sans-Serif" font-size="10.00" fill="#000000">amr&#45;wind/equation_systems</text>
<text text-anchor="middle" x="69.5" y="-63.5" font-family="Helvetica,sans-Serif" font-size="10.00" fill="#000000">/PDEFields.H</text>
</a>
</g>
</g>
<!-- Node34&#45;&gt;Node35 -->
<g id="edge64" class="edge">
<title>Node34&#45;&gt;Node35</title>
<path fill="none" stroke="#191970" d="M425.891,-129.1366C357.9145,-119.7727 251.2996,-104.5033 149.1268,-87.0627"/>
<polygon fill="#191970" stroke="#191970" points="149.7025,-83.6104 139.2545,-85.3682 148.5183,-90.5095 149.7025,-83.6104"/>
</g>
<!-- Node36 -->
<g id="node37" class="node">
<title>Node36</title>
<polygon fill="#ffffff" stroke="#bfbfbf" points="47,-.5 47,-19.5 92,-19.5 92,-.5 47,-.5"/>
<text text-anchor="middle" x="69.5" y="-7.5" font-family="Helvetica,sans-Serif" font-size="10.00" fill="#000000">iosfwd</text>
</g>
<!-- Node35&#45;&gt;Node36 -->
<g id="edge65" class="edge">
<title>Node35&#45;&gt;Node36</title>
<path fill="none" stroke="#191970" d="M69.5,-56.2977C69.5,-48.3834 69.5,-38.6043 69.5,-30.0759"/>
<polygon fill="#191970" stroke="#191970" points="73.0001,-29.8469 69.5,-19.8469 66.0001,-29.847 73.0001,-29.8469"/>
</g>
</g>
</svg>
