<?xml version="1.0" encoding="UTF-8" standalone="no"?>
<!DOCTYPE svg PUBLIC "-//W3C//DTD SVG 1.1//EN"
 "http://www.w3.org/Graphics/SVG/1.1/DTD/svg11.dtd">
<!-- Generated by graphviz version 2.40.1 (20161225.0304)
 -->
<!-- Title: VortexPatch.H Pages: 1 -->
<svg width="1281pt" height="196pt"
 viewBox="0.00 0.00 1281.00 196.00" xmlns="http://www.w3.org/2000/svg" xmlns:xlink="http://www.w3.org/1999/xlink">
<g id="graph0" class="graph" transform="scale(1 1) rotate(0) translate(4 192)">
<title>VortexPatch.H</title>
<polygon fill="#ffffff" stroke="transparent" points="-4,4 -4,-192 1277,-192 1277,4 -4,4"/>
<!-- Node0 -->
<g id="node1" class="node">
<title>Node0</title>
<polygon fill="#bfbfbf" stroke="#000000" points="572.5,-168.5 572.5,-187.5 653.5,-187.5 653.5,-168.5 572.5,-168.5"/>
<text text-anchor="middle" x="613" y="-175.5" font-family="Helvetica,sans-Serif" font-size="10.00" fill="#000000">VortexPatch.H</text>
</g>
<!-- Node1 -->
<g id="node2" class="node">
<title>Node1</title>
<g id="a_node2"><a xlink:href="_physics_8_h.html" target="_top" xlink:title="amr&#45;wind/core/Physics.H">
<polygon fill="#ffffff" stroke="#000000" points="362.5,-112.5 362.5,-131.5 489.5,-131.5 489.5,-112.5 362.5,-112.5"/>
<text text-anchor="middle" x="426" y="-119.5" font-family="Helvetica,sans-Serif" font-size="10.00" fill="#000000">amr&#45;wind/core/Physics.H</text>
</a>
</g>
</g>
<!-- Node0&#45;&gt;Node1 -->
<g id="edge1" class="edge">
<title>Node0&#45;&gt;Node1</title>
<path fill="none" stroke="#191970" d="M580.8536,-168.3733C549.4891,-158.9807 501.6335,-144.6496 467.4284,-134.4064"/>
<polygon fill="#191970" stroke="#191970" points="468.3107,-131.0171 457.727,-131.5011 466.3025,-137.7229 468.3107,-131.0171"/>
</g>
<!-- Node13 -->
<g id="node14" class="node">
<title>Node13</title>
<g id="a_node14"><a xlink:href="_field_8_h.html" target="_top" xlink:title="amr&#45;wind/core/Field.H">
<polygon fill="#ffffff" stroke="#000000" points="744.5,-112.5 744.5,-131.5 857.5,-131.5 857.5,-112.5 744.5,-112.5"/>
<text text-anchor="middle" x="801" y="-119.5" font-family="Helvetica,sans-Serif" font-size="10.00" fill="#000000">amr&#45;wind/core/Field.H</text>
</a>
</g>
</g>
<!-- Node0&#45;&gt;Node13 -->
<g id="edge15" class="edge">
<title>Node0&#45;&gt;Node13</title>
<path fill="none" stroke="#191970" d="M645.3184,-168.3733C676.8506,-158.9807 724.9621,-144.6496 759.3501,-134.4064"/>
<polygon fill="#191970" stroke="#191970" points="760.5187,-137.7103 769.1034,-131.5011 758.5203,-131.0016 760.5187,-137.7103"/>
</g>
<!-- Node2 -->
<g id="node3" class="node">
<title>Node2</title>
<g id="a_node3"><a xlink:href="_factory_8_h.html" target="_top" xlink:title="amr&#45;wind/core/Factory.H">
<polygon fill="#ffffff" stroke="#000000" points="53.5,-56.5 53.5,-75.5 178.5,-75.5 178.5,-56.5 53.5,-56.5"/>
<text text-anchor="middle" x="116" y="-63.5" font-family="Helvetica,sans-Serif" font-size="10.00" fill="#000000">amr&#45;wind/core/Factory.H</text>
</a>
</g>
</g>
<!-- Node1&#45;&gt;Node2 -->
<g id="edge2" class="edge">
<title>Node1&#45;&gt;Node2</title>
<path fill="none" stroke="#191970" d="M373.0613,-112.4369C319.227,-102.712 235.8239,-87.6456 178.7113,-77.3285"/>
<polygon fill="#191970" stroke="#191970" points="179.1833,-73.8572 168.7203,-75.5237 177.9388,-80.7457 179.1833,-73.8572"/>
</g>
<!-- Node8 -->
<g id="node9" class="node">
<title>Node8</title>
<g id="a_node9"><a xlink:href="_coll_mgr_8_h.html" target="_top" xlink:title="amr&#45;wind/core/CollMgr.H">
<polygon fill="#ffffff" stroke="#000000" points="363.5,-56.5 363.5,-75.5 488.5,-75.5 488.5,-56.5 363.5,-56.5"/>
<text text-anchor="middle" x="426" y="-63.5" font-family="Helvetica,sans-Serif" font-size="10.00" fill="#000000">amr&#45;wind/core/CollMgr.H</text>
</a>
</g>
</g>
<!-- Node1&#45;&gt;Node8 -->
<g id="edge8" class="edge">
<title>Node1&#45;&gt;Node8</title>
<path fill="none" stroke="#191970" d="M426,-112.2455C426,-104.9382 426,-94.6944 426,-85.7046"/>
<polygon fill="#191970" stroke="#191970" points="429.5001,-85.6426 426,-75.6427 422.5001,-85.6427 429.5001,-85.6426"/>
</g>
<!-- Node11 -->
<g id="node12" class="node">
<title>Node11</title>
<polygon fill="#ffffff" stroke="#bfbfbf" points="562,-.5 562,-19.5 666,-19.5 666,-.5 562,-.5"/>
<text text-anchor="middle" x="614" y="-7.5" font-family="Helvetica,sans-Serif" font-size="10.00" fill="#000000">AMReX_MultiFab.H</text>
</g>
<!-- Node1&#45;&gt;Node11 -->
<g id="edge13" class="edge">
<title>Node1&#45;&gt;Node11</title>
<path fill="none" stroke="#191970" d="M442.0288,-112.4509C474.9111,-92.8615 550.1887,-48.0152 589.3342,-24.6945"/>
<polygon fill="#191970" stroke="#191970" points="591.2121,-27.6498 598.0118,-19.5249 587.6294,-21.6361 591.2121,-27.6498"/>
</g>
<!-- Node12 -->
<g id="node13" class="node">
<title>Node12</title>
<polygon fill="#ffffff" stroke="#bfbfbf" points="197,-56.5 197,-75.5 307,-75.5 307,-56.5 197,-56.5"/>
<text text-anchor="middle" x="252" y="-63.5" font-family="Helvetica,sans-Serif" font-size="10.00" fill="#000000">AMReX_Geometry.H</text>
</g>
<!-- Node1&#45;&gt;Node12 -->
<g id="edge14" class="edge">
<title>Node1&#45;&gt;Node12</title>
<path fill="none" stroke="#191970" d="M396.0883,-112.3733C367.1548,-103.0613 323.1389,-88.8953 291.3707,-78.671"/>
<polygon fill="#191970" stroke="#191970" points="292.1128,-75.2331 281.5213,-75.5011 289.9682,-81.8965 292.1128,-75.2331"/>
</g>
<!-- Node3 -->
<g id="node4" class="node">
<title>Node3</title>
<polygon fill="#ffffff" stroke="#bfbfbf" points="378,-.5 378,-19.5 430,-19.5 430,-.5 378,-.5"/>
<text text-anchor="middle" x="404" y="-7.5" font-family="Helvetica,sans-Serif" font-size="10.00" fill="#000000">memory</text>
</g>
<!-- Node2&#45;&gt;Node3 -->
<g id="edge3" class="edge">
<title>Node2&#45;&gt;Node3</title>
<path fill="none" stroke="#191970" d="M176.9078,-56.4674C228.1428,-48.0702 303.2,-34.8822 368,-20 368.0988,-19.9773 368.1977,-19.9545 368.2967,-19.9317"/>
<polygon fill="#191970" stroke="#191970" points="368.8601,-23.398 377.7239,-17.5943 367.1755,-16.6037 368.8601,-23.398"/>
</g>
<!-- Node4 -->
<g id="node5" class="node">
<title>Node4</title>
<polygon fill="#ffffff" stroke="#bfbfbf" points="276.5,-.5 276.5,-19.5 359.5,-19.5 359.5,-.5 276.5,-.5"/>
<text text-anchor="middle" x="318" y="-7.5" font-family="Helvetica,sans-Serif" font-size="10.00" fill="#000000">unordered_map</text>
</g>
<!-- Node2&#45;&gt;Node4 -->
<g id="edge4" class="edge">
<title>Node2&#45;&gt;Node4</title>
<path fill="none" stroke="#191970" d="M150.725,-56.3733C184.7508,-46.9404 236.7437,-32.5265 273.7234,-22.2747"/>
<polygon fill="#191970" stroke="#191970" points="275.0266,-25.5455 283.7281,-19.5011 273.1565,-18.7999 275.0266,-25.5455"/>
</g>
<!-- Node5 -->
<g id="node6" class="node">
<title>Node5</title>
<polygon fill="#ffffff" stroke="#bfbfbf" points="0,-.5 0,-19.5 54,-19.5 54,-.5 0,-.5"/>
<text text-anchor="middle" x="27" y="-7.5" font-family="Helvetica,sans-Serif" font-size="10.00" fill="#000000">iostream</text>
</g>
<!-- Node2&#45;&gt;Node5 -->
<g id="edge5" class="edge">
<title>Node2&#45;&gt;Node5</title>
<path fill="none" stroke="#191970" d="M100.4974,-56.2455C86.842,-47.6534 66.7343,-35.0014 51.0011,-25.1018"/>
<polygon fill="#191970" stroke="#191970" points="52.6529,-22.006 42.325,-19.6427 48.9249,-27.9307 52.6529,-22.006"/>
</g>
<!-- Node6 -->
<g id="node7" class="node">
<title>Node6</title>
<polygon fill="#ffffff" stroke="#bfbfbf" points="72.5,-.5 72.5,-19.5 159.5,-19.5 159.5,-.5 72.5,-.5"/>
<text text-anchor="middle" x="116" y="-7.5" font-family="Helvetica,sans-Serif" font-size="10.00" fill="#000000">AMReX_Print.H</text>
</g>
<!-- Node2&#45;&gt;Node6 -->
<g id="edge6" class="edge">
<title>Node2&#45;&gt;Node6</title>
<path fill="none" stroke="#191970" d="M116,-56.2455C116,-48.9382 116,-38.6944 116,-29.7046"/>
<polygon fill="#191970" stroke="#191970" points="119.5001,-29.6426 116,-19.6427 112.5001,-29.6427 119.5001,-29.6426"/>
</g>
<!-- Node7 -->
<g id="node8" class="node">
<title>Node7</title>
<polygon fill="#ffffff" stroke="#bfbfbf" points="178,-.5 178,-19.5 240,-19.5 240,-.5 178,-.5"/>
<text text-anchor="middle" x="209" y="-7.5" font-family="Helvetica,sans-Serif" font-size="10.00" fill="#000000">AMReX.H</text>
</g>
<!-- Node2&#45;&gt;Node7 -->
<g id="edge7" class="edge">
<title>Node2&#45;&gt;Node7</title>
<path fill="none" stroke="#191970" d="M132.1994,-56.2455C146.6018,-47.5731 167.8732,-34.7645 184.3799,-24.825"/>
<polygon fill="#191970" stroke="#191970" points="186.225,-27.7996 192.9863,-19.6427 182.614,-21.8028 186.225,-27.7996"/>
</g>
<!-- Node8&#45;&gt;Node3 -->
<g id="edge10" class="edge">
<title>Node8&#45;&gt;Node3</title>
<path fill="none" stroke="#191970" d="M422.1679,-56.2455C419.2341,-48.7776 415.0953,-38.2427 411.509,-29.1137"/>
<polygon fill="#191970" stroke="#191970" points="414.7024,-27.6704 407.7882,-19.6427 408.1871,-30.23 414.7024,-27.6704"/>
</g>
<!-- Node8&#45;&gt;Node4 -->
<g id="edge11" class="edge">
<title>Node8&#45;&gt;Node4</title>
<path fill="none" stroke="#191970" d="M407.1878,-56.2455C390.1527,-47.4125 364.8425,-34.2887 345.5319,-24.2758"/>
<polygon fill="#191970" stroke="#191970" points="347.0853,-21.1388 336.5966,-19.6427 343.863,-27.353 347.0853,-21.1388"/>
</g>
<!-- Node9 -->
<g id="node10" class="node">
<title>Node9</title>
<polygon fill="#ffffff" stroke="#bfbfbf" points="684.5,-.5 684.5,-19.5 725.5,-19.5 725.5,-.5 684.5,-.5"/>
<text text-anchor="middle" x="705" y="-7.5" font-family="Helvetica,sans-Serif" font-size="10.00" fill="#000000">string</text>
</g>
<!-- Node8&#45;&gt;Node9 -->
<g id="edge9" class="edge">
<title>Node8&#45;&gt;Node9</title>
<path fill="none" stroke="#191970" d="M488.6906,-56.8947C537.0852,-49.3007 605.8064,-37.2932 674.7309,-19.7752"/>
<polygon fill="#191970" stroke="#191970" points="675.6469,-23.1535 684.4557,-17.2666 673.8984,-16.3754 675.6469,-23.1535"/>
</g>
<!-- Node10 -->
<g id="node11" class="node">
<title>Node10</title>
<polygon fill="#ffffff" stroke="#bfbfbf" points="448.5,-.5 448.5,-19.5 543.5,-19.5 543.5,-.5 448.5,-.5"/>
<text text-anchor="middle" x="496" y="-7.5" font-family="Helvetica,sans-Serif" font-size="10.00" fill="#000000">AMReX_Vector.H</text>
</g>
<!-- Node8&#45;&gt;Node10 -->
<g id="edge12" class="edge">
<title>Node8&#45;&gt;Node10</title>
<path fill="none" stroke="#191970" d="M438.1931,-56.2455C448.6321,-47.8943 463.8655,-35.7076 476.074,-25.9408"/>
<polygon fill="#191970" stroke="#191970" points="478.3244,-28.6227 483.9467,-19.6427 473.9515,-23.1566 478.3244,-28.6227"/>
</g>
<!-- Node13&#45;&gt;Node3 -->
<g id="edge17" class="edge">
<title>Node13&#45;&gt;Node3</title>
<path fill="none" stroke="#191970" d="M753.797,-112.4969C713.0612,-103.9741 652.7828,-90.592 601,-76 543.8318,-59.8904 478.7009,-37.1982 439.5038,-23.0568"/>
<polygon fill="#191970" stroke="#191970" points="440.4737,-19.6855 429.8795,-19.5681 438.0882,-26.2665 440.4737,-19.6855"/>
</g>
<!-- Node13&#45;&gt;Node4 -->
<g id="edge18" class="edge">
<title>Node13&#45;&gt;Node4</title>
<path fill="none" stroke="#191970" d="M744.0916,-119.093C630.9425,-112.889 385.8279,-97.1725 354,-76 337.7535,-65.1925 328.205,-44.4994 323.0722,-29.1524"/>
<polygon fill="#191970" stroke="#191970" points="326.4229,-28.1409 320.1961,-19.569 319.7183,-30.153 326.4229,-28.1409"/>
</g>
<!-- Node13&#45;&gt;Node9 -->
<g id="edge16" class="edge">
<title>Node13&#45;&gt;Node9</title>
<path fill="none" stroke="#191970" d="M857.5442,-116.9632C913.5747,-109.7739 986.8956,-93.0723 956,-56 941.991,-39.1903 800.1065,-20.9285 736.0686,-13.468"/>
<polygon fill="#191970" stroke="#191970" points="736.1105,-9.9499 725.776,-12.2841 735.3105,-16.904 736.1105,-9.9499"/>
</g>
<!-- Node13&#45;&gt;Node11 -->
<g id="edge20" class="edge">
<title>Node13&#45;&gt;Node11</title>
<path fill="none" stroke="#191970" d="M744.4634,-115.9074C694.8978,-109.2623 628.2751,-96.7114 612,-76 601.8404,-63.0711 603.6936,-43.9104 607.2874,-29.5602"/>
<polygon fill="#191970" stroke="#191970" points="610.7217,-30.2893 610.2049,-19.7071 604.0097,-28.3019 610.7217,-30.2893"/>
</g>
<!-- Node14 -->
<g id="node15" class="node">
<title>Node14</title>
<polygon fill="#ffffff" stroke="#bfbfbf" points="773,-56.5 773,-75.5 829,-75.5 829,-56.5 773,-56.5"/>
<text text-anchor="middle" x="801" y="-63.5" font-family="Helvetica,sans-Serif" font-size="10.00" fill="#000000">algorithm</text>
</g>
<!-- Node13&#45;&gt;Node14 -->
<g id="edge19" class="edge">
<title>Node13&#45;&gt;Node14</title>
<path fill="none" stroke="#191970" d="M801,-112.2455C801,-104.9382 801,-94.6944 801,-85.7046"/>
<polygon fill="#191970" stroke="#191970" points="804.5001,-85.6426 801,-75.6427 797.5001,-85.6427 804.5001,-85.6426"/>
</g>
<!-- Node15 -->
<g id="node16" class="node">
<title>Node15</title>
<polygon fill="#ffffff" stroke="#bfbfbf" points="847.5,-56.5 847.5,-75.5 946.5,-75.5 946.5,-56.5 847.5,-56.5"/>
<text text-anchor="middle" x="897" y="-63.5" font-family="Helvetica,sans-Serif" font-size="10.00" fill="#000000">AMReX_BCRec.H</text>
</g>
<!-- Node13&#45;&gt;Node15 -->
<g id="edge21" class="edge">
<title>Node13&#45;&gt;Node15</title>
<path fill="none" stroke="#191970" d="M817.7219,-112.2455C832.5889,-103.5731 854.5466,-90.7645 871.5858,-80.825"/>
<polygon fill="#191970" stroke="#191970" points="873.5955,-83.7047 880.4697,-75.6427 870.0683,-77.6582 873.5955,-83.7047"/>
</g>
<!-- Node16 -->
<g id="node17" class="node">
<title>Node16</title>
<polygon fill="#ffffff" stroke="#bfbfbf" points="1041.5,-56.5 1041.5,-75.5 1126.5,-75.5 1126.5,-56.5 1041.5,-56.5"/>
<text text-anchor="middle" x="1084" y="-63.5" font-family="Helvetica,sans-Serif" font-size="10.00" fill="#000000">AMReX_Gpu.H</text>
</g>
<!-- Node13&#45;&gt;Node16 -->
<g id="edge22" class="edge">
<title>Node13&#45;&gt;Node16</title>
<path fill="none" stroke="#191970" d="M849.3279,-112.4369C899.9442,-102.4209 979.1937,-86.739 1031.3658,-76.4152"/>
<polygon fill="#191970" stroke="#191970" points="1032.2923,-79.7999 1041.4227,-74.4252 1030.9334,-72.933 1032.2923,-79.7999"/>
</g>
<!-- Node17 -->
<g id="node18" class="node">
<title>Node17</title>
<g id="a_node18"><a xlink:href="incflo__enums_8_h.html" target="_top" xlink:title="amr&#45;wind/incflo_enums.H">
<polygon fill="#ffffff" stroke="#000000" points="1145,-56.5 1145,-75.5 1273,-75.5 1273,-56.5 1145,-56.5"/>
<text text-anchor="middle" x="1209" y="-63.5" font-family="Helvetica,sans-Serif" font-size="10.00" fill="#000000">amr&#45;wind/incflo_enums.H</text>
</a>
</g>
</g>
<!-- Node13&#45;&gt;Node17 -->
<g id="edge23" class="edge">
<title>Node13&#45;&gt;Node17</title>
<path fill="none" stroke="#191970" d="M857.7307,-114.2134C929.9633,-104.2992 1054.9422,-87.1452 1134.7096,-76.1967"/>
<polygon fill="#191970" stroke="#191970" points="1135.2576,-79.6544 1144.6888,-74.827 1134.3057,-72.7194 1135.2576,-79.6544"/>
</g>
<!-- Node18 -->
<g id="node19" class="node">
<title>Node18</title>
<g id="a_node19"><a xlink:href="_field_desc_types_8_h.html" target="_top" xlink:title="amr&#45;wind/core/FieldDescTypes.H">
<polygon fill="#ffffff" stroke="#000000" points="828.5,-.5 828.5,-19.5 991.5,-19.5 991.5,-.5 828.5,-.5"/>
<text text-anchor="middle" x="910" y="-7.5" font-family="Helvetica,sans-Serif" font-size="10.00" fill="#000000">amr&#45;wind/core/FieldDescTypes.H</text>
</a>
</g>
</g>
<!-- Node13&#45;&gt;Node18 -->
<g id="edge24" class="edge">
<title>Node13&#45;&gt;Node18</title>
<path fill="none" stroke="#191970" d="M857.7853,-114.3295C902.2577,-107.0212 958.8828,-94.3889 973,-76 987.647,-56.9211 962.7542,-37.2553 940.0739,-24.4111"/>
<polygon fill="#191970" stroke="#191970" points="941.7222,-21.3235 931.2565,-19.6741 938.4093,-27.49 941.7222,-21.3235"/>
</g>
<!-- Node19 -->
<g id="node20" class="node">
<title>Node19</title>
<g id="a_node20"><a xlink:href="_view_field_8_h.html" target="_top" xlink:title="amr&#45;wind/core/ViewField.H">
<polygon fill="#ffffff" stroke="#000000" points="621,-56.5 621,-75.5 755,-75.5 755,-56.5 621,-56.5"/>
<text text-anchor="middle" x="688" y="-63.5" font-family="Helvetica,sans-Serif" font-size="10.00" fill="#000000">amr&#45;wind/core/ViewField.H</text>
</a>
</g>
</g>
<!-- Node13&#45;&gt;Node19 -->
<g id="edge25" class="edge">
<title>Node13&#45;&gt;Node19</title>
<path fill="none" stroke="#191970" d="M781.5746,-112.3733C763.5979,-103.4644 736.6559,-90.1127 716.291,-80.0203"/>
<polygon fill="#191970" stroke="#191970" points="717.6861,-76.8055 707.1719,-75.5011 714.5778,-83.0776 717.6861,-76.8055"/>
</g>
<!-- Node19&#45;&gt;Node9 -->
<g id="edge26" class="edge">
<title>Node19&#45;&gt;Node9</title>
<path fill="none" stroke="#191970" d="M690.9612,-56.2455C693.2038,-48.8579 696.3577,-38.4689 699.1081,-29.4087"/>
<polygon fill="#191970" stroke="#191970" points="702.517,-30.2282 702.0728,-19.6427 695.8188,-28.1948 702.517,-30.2282"/>
</g>
<!-- Node19&#45;&gt;Node10 -->
<g id="edge29" class="edge">
<title>Node19&#45;&gt;Node10</title>
<path fill="none" stroke="#191970" d="M654.994,-56.3733C622.7909,-46.9807 573.6558,-32.6496 538.5361,-22.4064"/>
<polygon fill="#191970" stroke="#191970" points="539.1553,-18.9412 528.5753,-19.5011 537.1953,-25.6612 539.1553,-18.9412"/>
</g>
<!-- Node19&#45;&gt;Node11 -->
<g id="edge28" class="edge">
<title>Node19&#45;&gt;Node11</title>
<path fill="none" stroke="#191970" d="M675.1102,-56.2455C664.0746,-47.8943 647.9708,-35.7076 635.0647,-25.9408"/>
<polygon fill="#191970" stroke="#191970" points="636.8283,-22.8862 626.7421,-19.6427 632.6041,-28.4681 636.8283,-22.8862"/>
</g>
<!-- Node19&#45;&gt;Node18 -->
<g id="edge27" class="edge">
<title>Node19&#45;&gt;Node18</title>
<path fill="none" stroke="#191970" d="M725.9109,-56.4369C763.665,-46.9133 821.7265,-32.2672 862.5264,-21.9753"/>
<polygon fill="#191970" stroke="#191970" points="863.4053,-25.3633 872.2454,-19.5237 861.6931,-18.576 863.4053,-25.3633"/>
</g>
</g>
</svg>
