<?xml version="1.0" encoding="UTF-8" standalone="no"?>
<!DOCTYPE svg PUBLIC "-//W3C//DTD SVG 1.1//EN"
 "http://www.w3.org/Graphics/SVG/1.1/DTD/svg11.dtd">
<!-- Generated by graphviz version 2.40.1 (20161225.0304)
 -->
<!-- Title: actuator_ops.H Pages: 1 -->
<svg width="498pt" height="196pt"
 viewBox="0.00 0.00 497.50 196.00" xmlns="http://www.w3.org/2000/svg" xmlns:xlink="http://www.w3.org/1999/xlink">
<g id="graph0" class="graph" transform="scale(1 1) rotate(0) translate(4 192)">
<title>actuator_ops.H</title>
<polygon fill="#ffffff" stroke="transparent" points="-4,4 -4,-192 493.5,-192 493.5,4 -4,4"/>
<!-- Node55 -->
<g id="node1" class="node">
<title>Node55</title>
<polygon fill="#bfbfbf" stroke="#000000" points="182,-168.5 182,-187.5 265,-187.5 265,-168.5 182,-168.5"/>
<text text-anchor="middle" x="223.5" y="-175.5" font-family="Helvetica,sans-Serif" font-size="10.00" fill="#000000">actuator_ops.H</text>
</g>
<!-- Node56 -->
<g id="node2" class="node">
<title>Node56</title>
<g id="a_node2"><a xlink:href="_act_src_op_8_h.html" target="_top" xlink:title="ActSrcOp.H">
<polygon fill="#ffffff" stroke="#000000" points="157.5,-112.5 157.5,-131.5 227.5,-131.5 227.5,-112.5 157.5,-112.5"/>
<text text-anchor="middle" x="192.5" y="-119.5" font-family="Helvetica,sans-Serif" font-size="10.00" fill="#000000">ActSrcOp.H</text>
</a>
</g>
</g>
<!-- Node55&#45;&gt;Node56 -->
<g id="edge1" class="edge">
<title>Node55&#45;&gt;Node56</title>
<path fill="none" stroke="#191970" d="M213.1688,-159.3372C208.0335,-150.0605 202.0434,-139.2398 197.8379,-131.6427"/>
<polygon fill="#191970" stroke="#191970" points="210.1949,-161.1917 218.1002,-168.2455 216.3191,-157.8015 210.1949,-161.1917"/>
</g>
<!-- Node57 -->
<g id="node3" class="node">
<title>Node57</title>
<g id="a_node3"><a xlink:href="_actuator_model_8_h.html" target="_top" xlink:title="ActuatorModel.H">
<polygon fill="#ffffff" stroke="#000000" points="84.5,-56.5 84.5,-75.5 174.5,-75.5 174.5,-56.5 84.5,-56.5"/>
<text text-anchor="middle" x="129.5" y="-63.5" font-family="Helvetica,sans-Serif" font-size="10.00" fill="#000000">ActuatorModel.H</text>
</a>
</g>
</g>
<!-- Node55&#45;&gt;Node57 -->
<g id="edge7" class="edge">
<title>Node55&#45;&gt;Node57</title>
<path fill="none" stroke="#191970" d="M189.3003,-163.8741C174.847,-156.3463 158.971,-145.7607 148.5,-132 135.6476,-115.1098 131.4823,-89.7992 130.1373,-75.9436"/>
<polygon fill="#191970" stroke="#191970" points="188.0005,-167.1345 198.5217,-168.382 191.0749,-160.8457 188.0005,-167.1345"/>
</g>
<!-- Node62 -->
<g id="node8" class="node">
<title>Node62</title>
<g id="a_node8"><a xlink:href="turbine__fast__ops_8_h.html" target="_top" xlink:title="turbine_fast_ops.H">
<polygon fill="#ffffff" stroke="#000000" points="0,-112.5 0,-131.5 99,-131.5 99,-112.5 0,-112.5"/>
<text text-anchor="middle" x="49.5" y="-119.5" font-family="Helvetica,sans-Serif" font-size="10.00" fill="#000000">turbine_fast_ops.H</text>
</a>
</g>
</g>
<!-- Node55&#45;&gt;Node62 -->
<g id="edge8" class="edge">
<title>Node55&#45;&gt;Node62</title>
<path fill="none" stroke="#191970" d="M183.699,-165.1905C151.821,-154.9309 107.8184,-140.7691 79.0213,-131.5011"/>
<polygon fill="#191970" stroke="#191970" points="182.9969,-168.6413 193.5883,-168.3733 185.1415,-161.9779 182.9969,-168.6413"/>
</g>
<!-- Node63 -->
<g id="node9" class="node">
<title>Node63</title>
<g id="a_node9"><a xlink:href="fixed__wing__ops_8_h.html" target="_top" xlink:title="fixed_wing_ops.H">
<polygon fill="#ffffff" stroke="#000000" points="193,-56.5 193,-75.5 288,-75.5 288,-56.5 193,-56.5"/>
<text text-anchor="middle" x="240.5" y="-63.5" font-family="Helvetica,sans-Serif" font-size="10.00" fill="#000000">fixed_wing_ops.H</text>
</a>
</g>
</g>
<!-- Node55&#45;&gt;Node63 -->
<g id="edge10" class="edge">
<title>Node55&#45;&gt;Node63</title>
<path fill="none" stroke="#191970" d="M229.9767,-158.6191C232.4315,-150.4875 234.995,-140.875 236.5,-132 239.8395,-112.3071 240.4872,-88.8939 240.5596,-75.9153"/>
<polygon fill="#191970" stroke="#191970" points="226.603,-157.679 226.9104,-168.2694 233.2744,-159.7989 226.603,-157.679"/>
</g>
<!-- Node64 -->
<g id="node10" class="node">
<title>Node64</title>
<g id="a_node10"><a xlink:href="wing__ops_8_h.html" target="_top" xlink:title="wing_ops.H">
<polygon fill="#ffffff" stroke="#000000" points="296.5,-112.5 296.5,-131.5 364.5,-131.5 364.5,-112.5 296.5,-112.5"/>
<text text-anchor="middle" x="330.5" y="-119.5" font-family="Helvetica,sans-Serif" font-size="10.00" fill="#000000">wing_ops.H</text>
</a>
</g>
</g>
<!-- Node55&#45;&gt;Node64 -->
<g id="edge12" class="edge">
<title>Node55&#45;&gt;Node64</title>
<path fill="none" stroke="#191970" d="M251.0199,-163.5971C270.2017,-153.558 295.2678,-140.4393 312.0756,-131.6427"/>
<polygon fill="#191970" stroke="#191970" points="249.375,-160.5075 242.138,-168.2455 252.6209,-166.7095 249.375,-160.5075"/>
</g>
<!-- Node65 -->
<g id="node11" class="node">
<title>Node65</title>
<g id="a_node11"><a xlink:href="flat__plate__ops_8_h.html" target="_top" xlink:title="flat_plate_ops.H">
<polygon fill="#ffffff" stroke="#000000" points="401.5,-56.5 401.5,-75.5 489.5,-75.5 489.5,-56.5 401.5,-56.5"/>
<text text-anchor="middle" x="445.5" y="-63.5" font-family="Helvetica,sans-Serif" font-size="10.00" fill="#000000">flat_plate_ops.H</text>
</a>
</g>
</g>
<!-- Node55&#45;&gt;Node65 -->
<g id="edge17" class="edge">
<title>Node55&#45;&gt;Node65</title>
<path fill="none" stroke="#191970" d="M275.1558,-168.1423C305.1959,-160.9826 343.0199,-149.4418 373.5,-132 400.2863,-116.6719 425.377,-89.7799 437.6443,-75.5138"/>
<polygon fill="#191970" stroke="#191970" points="274.2534,-164.7583 265.2885,-170.4047 275.8178,-171.5813 274.2534,-164.7583"/>
</g>
<!-- Node56&#45;&gt;Node57 -->
<g id="edge2" class="edge">
<title>Node56&#45;&gt;Node57</title>
<path fill="none" stroke="#191970" d="M173.7808,-105.3607C162.8818,-95.6727 149.5245,-83.7995 140.348,-75.6427"/>
<polygon fill="#191970" stroke="#191970" points="171.7268,-108.2178 181.5262,-112.2455 176.3774,-102.9859 171.7268,-108.2178"/>
</g>
<!-- Node58 -->
<g id="node4" class="node">
<title>Node58</title>
<g id="a_node4"><a xlink:href="_actuator_8cpp.html" target="_top" xlink:title="Actuator.cpp">
<polygon fill="#ffffff" stroke="#000000" points="109.5,-.5 109.5,-19.5 181.5,-19.5 181.5,-.5 109.5,-.5"/>
<text text-anchor="middle" x="145.5" y="-7.5" font-family="Helvetica,sans-Serif" font-size="10.00" fill="#000000">Actuator.cpp</text>
</a>
</g>
</g>
<!-- Node57&#45;&gt;Node58 -->
<g id="edge3" class="edge">
<title>Node57&#45;&gt;Node58</title>
<path fill="none" stroke="#191970" d="M135.0846,-46.4538C137.677,-37.3803 140.6429,-26.9998 142.745,-19.6427"/>
<polygon fill="#191970" stroke="#191970" points="131.6689,-45.6688 132.287,-56.2455 138.3996,-47.5919 131.6689,-45.6688"/>
</g>
<!-- Node59 -->
<g id="node5" class="node">
<title>Node59</title>
<g id="a_node5"><a xlink:href="_turbine_fast_8cpp.html" target="_top" xlink:title="TurbineFast.cpp">
<polygon fill="#ffffff" stroke="#000000" points="4,-.5 4,-19.5 91,-19.5 91,-.5 4,-.5"/>
<text text-anchor="middle" x="47.5" y="-7.5" font-family="Helvetica,sans-Serif" font-size="10.00" fill="#000000">TurbineFast.cpp</text>
</a>
</g>
</g>
<!-- Node57&#45;&gt;Node59 -->
<g id="edge4" class="edge">
<title>Node57&#45;&gt;Node59</title>
<path fill="none" stroke="#191970" d="M106.789,-50.49C92.3212,-40.6096 74.032,-28.1194 61.6196,-19.6427"/>
<polygon fill="#191970" stroke="#191970" points="104.9848,-53.4962 115.2167,-56.2455 108.9325,-47.7156 104.9848,-53.4962"/>
</g>
<!-- Node60 -->
<g id="node6" class="node">
<title>Node60</title>
<g id="a_node6"><a xlink:href="_fixed_wing_8cpp.html" target="_top" xlink:title="FixedWing.cpp">
<polygon fill="#ffffff" stroke="#000000" points="199.5,-.5 199.5,-19.5 281.5,-19.5 281.5,-.5 199.5,-.5"/>
<text text-anchor="middle" x="240.5" y="-7.5" font-family="Helvetica,sans-Serif" font-size="10.00" fill="#000000">FixedWing.cpp</text>
</a>
</g>
</g>
<!-- Node57&#45;&gt;Node60 -->
<g id="edge5" class="edge">
<title>Node57&#45;&gt;Node60</title>
<path fill="none" stroke="#191970" d="M157.5734,-51.8368C177.6385,-41.7139 204.0922,-28.3679 221.6674,-19.5011"/>
<polygon fill="#191970" stroke="#191970" points="155.9332,-48.7441 148.5816,-56.3733 159.0862,-54.9938 155.9332,-48.7441"/>
</g>
<!-- Node61 -->
<g id="node7" class="node">
<title>Node61</title>
<g id="a_node7"><a xlink:href="_flat_plate_8cpp.html" target="_top" xlink:title="FlatPlate.cpp">
<polygon fill="#ffffff" stroke="#000000" points="353.5,-.5 353.5,-19.5 427.5,-19.5 427.5,-.5 353.5,-.5"/>
<text text-anchor="middle" x="390.5" y="-7.5" font-family="Helvetica,sans-Serif" font-size="10.00" fill="#000000">FlatPlate.cpp</text>
</a>
</g>
</g>
<!-- Node57&#45;&gt;Node61 -->
<g id="edge6" class="edge">
<title>Node57&#45;&gt;Node61</title>
<path fill="none" stroke="#191970" d="M183.8903,-54.3301C234.6404,-43.4411 308.9979,-27.487 353.2963,-17.9824"/>
<polygon fill="#191970" stroke="#191970" points="183.1141,-50.9168 174.0709,-56.4369 184.5827,-57.7611 183.1141,-50.9168"/>
</g>
<!-- Node62&#45;&gt;Node59 -->
<g id="edge9" class="edge">
<title>Node62&#45;&gt;Node59</title>
<path fill="none" stroke="#191970" d="M49.1477,-102.2702C48.7143,-77.9985 47.9959,-37.7725 47.6701,-19.5249"/>
<polygon fill="#191970" stroke="#191970" points="45.6514,-102.5151 49.3295,-112.4509 52.6503,-102.39 45.6514,-102.5151"/>
</g>
<!-- Node63&#45;&gt;Node60 -->
<g id="edge11" class="edge">
<title>Node63&#45;&gt;Node60</title>
<path fill="none" stroke="#191970" d="M240.5,-46.1575C240.5,-37.155 240.5,-26.9199 240.5,-19.6427"/>
<polygon fill="#191970" stroke="#191970" points="237.0001,-46.2455 240.5,-56.2455 244.0001,-46.2456 237.0001,-46.2455"/>
</g>
<!-- Node64&#45;&gt;Node63 -->
<g id="edge13" class="edge">
<title>Node64&#45;&gt;Node63</title>
<path fill="none" stroke="#191970" d="M306.0216,-106.769C290.0734,-96.8456 269.749,-84.1994 255.9972,-75.6427"/>
<polygon fill="#191970" stroke="#191970" points="304.4835,-109.9342 314.8232,-112.2455 308.1817,-103.9908 304.4835,-109.9342"/>
</g>
<!-- Node64&#45;&gt;Node65 -->
<g id="edge14" class="edge">
<title>Node64&#45;&gt;Node65</title>
<path fill="none" stroke="#191970" d="M359.3033,-107.9741C380.125,-97.8348 407.6978,-84.408 425.9888,-75.5011"/>
<polygon fill="#191970" stroke="#191970" points="357.7276,-104.8484 350.2692,-112.3733 360.7922,-111.1419 357.7276,-104.8484"/>
</g>
<!-- Node66 -->
<g id="node12" class="node">
<title>Node66</title>
<g id="a_node12"><a xlink:href="wing__ops_8cpp.html" target="_top" xlink:title="wing_ops.cpp">
<polygon fill="#ffffff" stroke="#000000" points="306,-56.5 306,-75.5 383,-75.5 383,-56.5 306,-56.5"/>
<text text-anchor="middle" x="344.5" y="-63.5" font-family="Helvetica,sans-Serif" font-size="10.00" fill="#000000">wing_ops.cpp</text>
</a>
</g>
</g>
<!-- Node64&#45;&gt;Node66 -->
<g id="edge16" class="edge">
<title>Node64&#45;&gt;Node66</title>
<path fill="none" stroke="#191970" d="M335.3865,-102.4538C337.6549,-93.3803 340.25,-82.9998 342.0893,-75.6427"/>
<polygon fill="#191970" stroke="#191970" points="331.9685,-101.6952 332.9386,-112.2455 338.7595,-103.393 331.9685,-101.6952"/>
</g>
<!-- Node65&#45;&gt;Node61 -->
<g id="edge15" class="edge">
<title>Node65&#45;&gt;Node61</title>
<path fill="none" stroke="#191970" d="M428.8774,-49.0751C419.4145,-39.4402 407.9031,-27.7196 399.9705,-19.6427"/>
<polygon fill="#191970" stroke="#191970" points="426.4155,-51.5635 435.9197,-56.2455 431.4097,-46.6585 426.4155,-51.5635"/>
</g>
</g>
</svg>
