<?xml version="1.0" encoding="UTF-8" standalone="no"?>
<!DOCTYPE svg PUBLIC "-//W3C//DTD SVG 1.1//EN"
 "http://www.w3.org/Graphics/SVG/1.1/DTD/svg11.dtd">
<!-- Generated by graphviz version 2.40.1 (20161225.0304)
 -->
<!-- Title: actuator_utils.H Pages: 1 -->
<svg width="462pt" height="308pt"
 viewBox="0.00 0.00 461.50 308.00" xmlns="http://www.w3.org/2000/svg" xmlns:xlink="http://www.w3.org/1999/xlink">
<g id="graph0" class="graph" transform="scale(1 1) rotate(0) translate(4 304)">
<title>actuator_utils.H</title>
<polygon fill="#ffffff" stroke="transparent" points="-4,4 -4,-304 457.5,-304 457.5,4 -4,4"/>
<!-- Node12 -->
<g id="node1" class="node">
<title>Node12</title>
<polygon fill="#bfbfbf" stroke="#000000" points="200,-280.5 200,-299.5 286,-299.5 286,-280.5 200,-280.5"/>
<text text-anchor="middle" x="243" y="-287.5" font-family="Helvetica,sans-Serif" font-size="10.00" fill="#000000">actuator_utils.H</text>
</g>
<!-- Node13 -->
<g id="node2" class="node">
<title>Node13</title>
<g id="a_node2"><a xlink:href="actuator__ops_i_8_h.html" target="_top" xlink:title="actuator_opsI.H">
<polygon fill="#ffffff" stroke="#000000" points="165,-224.5 165,-243.5 251,-243.5 251,-224.5 165,-224.5"/>
<text text-anchor="middle" x="208" y="-231.5" font-family="Helvetica,sans-Serif" font-size="10.00" fill="#000000">actuator_opsI.H</text>
</a>
</g>
</g>
<!-- Node12&#45;&gt;Node13 -->
<g id="edge1" class="edge">
<title>Node12&#45;&gt;Node13</title>
<path fill="none" stroke="#191970" d="M231.5185,-271.6296C225.6804,-262.2887 218.8248,-251.3197 214.0267,-243.6427"/>
<polygon fill="#191970" stroke="#191970" points="228.6354,-273.6206 236.9035,-280.2455 234.5714,-269.9105 228.6354,-273.6206"/>
</g>
<!-- Node15 -->
<g id="node4" class="node">
<title>Node15</title>
<g id="a_node4"><a xlink:href="_act_src_op_8_h.html" target="_top" xlink:title="ActSrcOp.H">
<polygon fill="#ffffff" stroke="#000000" points="41,-112.5 41,-131.5 111,-131.5 111,-112.5 41,-112.5"/>
<text text-anchor="middle" x="76" y="-119.5" font-family="Helvetica,sans-Serif" font-size="10.00" fill="#000000">ActSrcOp.H</text>
</a>
</g>
</g>
<!-- Node12&#45;&gt;Node15 -->
<g id="edge20" class="edge">
<title>Node12&#45;&gt;Node15</title>
<path fill="none" stroke="#191970" d="M207.7118,-276.2781C190.7936,-268.5327 170.999,-257.651 156,-244 118.3494,-209.733 90.5044,-154.0665 80.2776,-131.729"/>
<polygon fill="#191970" stroke="#191970" points="206.7186,-279.6642 217.2825,-280.4734 209.5289,-273.2531 206.7186,-279.6642"/>
</g>
<!-- Node21 -->
<g id="node10" class="node">
<title>Node21</title>
<g id="a_node10"><a xlink:href="turbine__fast__ops_8_h.html" target="_top" xlink:title="turbine_fast_ops.H">
<polygon fill="#ffffff" stroke="#000000" points="329.5,-112.5 329.5,-131.5 428.5,-131.5 428.5,-112.5 329.5,-112.5"/>
<text text-anchor="middle" x="379" y="-119.5" font-family="Helvetica,sans-Serif" font-size="10.00" fill="#000000">turbine_fast_ops.H</text>
</a>
</g>
</g>
<!-- Node12&#45;&gt;Node21 -->
<g id="edge22" class="edge">
<title>Node12&#45;&gt;Node21</title>
<path fill="none" stroke="#191970" d="M257.128,-272.5477C285.5374,-237.4538 348.7654,-159.3486 371.0441,-131.8279"/>
<polygon fill="#191970" stroke="#191970" points="254.2733,-270.5116 250.7016,-280.4862 259.714,-274.916 254.2733,-270.5116"/>
</g>
<!-- Node26 -->
<g id="node15" class="node">
<title>Node26</title>
<g id="a_node15"><a xlink:href="actuator__utils_8cpp.html" target="_top" xlink:title="actuator_utils.cpp">
<polygon fill="#ffffff" stroke="#000000" points="307,-224.5 307,-243.5 401,-243.5 401,-224.5 307,-224.5"/>
<text text-anchor="middle" x="354" y="-231.5" font-family="Helvetica,sans-Serif" font-size="10.00" fill="#000000">actuator_utils.cpp</text>
</a>
</g>
</g>
<!-- Node12&#45;&gt;Node26 -->
<g id="edge21" class="edge">
<title>Node12&#45;&gt;Node26</title>
<path fill="none" stroke="#191970" d="M271.0734,-275.8368C291.1385,-265.7139 317.5922,-252.3679 335.1674,-243.5011"/>
<polygon fill="#191970" stroke="#191970" points="269.4332,-272.7441 262.0816,-280.3733 272.5862,-278.9938 269.4332,-272.7441"/>
</g>
<!-- Node14 -->
<g id="node3" class="node">
<title>Node14</title>
<g id="a_node3"><a xlink:href="actuator__ops_8_h.html" target="_top" xlink:title="actuator_ops.H">
<polygon fill="#ffffff" stroke="#000000" points="166.5,-168.5 166.5,-187.5 249.5,-187.5 249.5,-168.5 166.5,-168.5"/>
<text text-anchor="middle" x="208" y="-175.5" font-family="Helvetica,sans-Serif" font-size="10.00" fill="#000000">actuator_ops.H</text>
</a>
</g>
</g>
<!-- Node13&#45;&gt;Node14 -->
<g id="edge2" class="edge">
<title>Node13&#45;&gt;Node14</title>
<path fill="none" stroke="#191970" d="M208,-214.1575C208,-205.155 208,-194.9199 208,-187.6427"/>
<polygon fill="#191970" stroke="#191970" points="204.5001,-214.2455 208,-224.2455 211.5001,-214.2456 204.5001,-214.2455"/>
</g>
<!-- Node14&#45;&gt;Node15 -->
<g id="edge3" class="edge">
<title>Node14&#45;&gt;Node15</title>
<path fill="none" stroke="#191970" d="M175.9035,-164.3833C151.8965,-154.1985 119.6741,-140.5284 98.3955,-131.5011"/>
<polygon fill="#191970" stroke="#191970" points="174.7356,-167.6897 185.3084,-168.3733 177.4695,-161.2457 174.7356,-167.6897"/>
</g>
<!-- Node16 -->
<g id="node5" class="node">
<title>Node16</title>
<g id="a_node5"><a xlink:href="_actuator_model_8_h.html" target="_top" xlink:title="ActuatorModel.H">
<polygon fill="#ffffff" stroke="#000000" points="0,-56.5 0,-75.5 90,-75.5 90,-56.5 0,-56.5"/>
<text text-anchor="middle" x="45" y="-63.5" font-family="Helvetica,sans-Serif" font-size="10.00" fill="#000000">ActuatorModel.H</text>
</a>
</g>
</g>
<!-- Node14&#45;&gt;Node16 -->
<g id="edge9" class="edge">
<title>Node14&#45;&gt;Node16</title>
<path fill="none" stroke="#191970" d="M187.6736,-161.9036C170.0869,-148.1847 143.8083,-128.1777 120,-112 100.4171,-98.6935 77.0535,-84.6371 61.6662,-75.6169"/>
<polygon fill="#191970" stroke="#191970" points="185.9908,-165.0321 196.0189,-168.451 190.3117,-159.5247 185.9908,-165.0321"/>
</g>
<!-- Node14&#45;&gt;Node21 -->
<g id="edge10" class="edge">
<title>Node14&#45;&gt;Node21</title>
<path fill="none" stroke="#191970" d="M247.1148,-165.1905C278.4432,-154.9309 321.6871,-140.7691 349.9876,-131.5011"/>
<polygon fill="#191970" stroke="#191970" points="245.81,-161.9348 237.3959,-168.3733 247.9886,-168.5872 245.81,-161.9348"/>
</g>
<!-- Node22 -->
<g id="node11" class="node">
<title>Node22</title>
<g id="a_node11"><a xlink:href="fixed__wing__ops_8_h.html" target="_top" xlink:title="fixed_wing_ops.H">
<polygon fill="#ffffff" stroke="#000000" points="108.5,-56.5 108.5,-75.5 203.5,-75.5 203.5,-56.5 108.5,-56.5"/>
<text text-anchor="middle" x="156" y="-63.5" font-family="Helvetica,sans-Serif" font-size="10.00" fill="#000000">fixed_wing_ops.H</text>
</a>
</g>
</g>
<!-- Node14&#45;&gt;Node22 -->
<g id="edge12" class="edge">
<title>Node14&#45;&gt;Node22</title>
<path fill="none" stroke="#191970" d="M199.2945,-159.2498C188.0797,-135.0946 169.0094,-94.0202 160.4223,-75.5249"/>
<polygon fill="#191970" stroke="#191970" points="196.1808,-160.8548 203.5665,-168.4509 202.5299,-157.9069 196.1808,-160.8548"/>
</g>
<!-- Node23 -->
<g id="node12" class="node">
<title>Node23</title>
<g id="a_node12"><a xlink:href="wing__ops_8_h.html" target="_top" xlink:title="wing_ops.H">
<polygon fill="#ffffff" stroke="#000000" points="205,-112.5 205,-131.5 273,-131.5 273,-112.5 205,-112.5"/>
<text text-anchor="middle" x="239" y="-119.5" font-family="Helvetica,sans-Serif" font-size="10.00" fill="#000000">wing_ops.H</text>
</a>
</g>
</g>
<!-- Node14&#45;&gt;Node23 -->
<g id="edge14" class="edge">
<title>Node14&#45;&gt;Node23</title>
<path fill="none" stroke="#191970" d="M218.3312,-159.3372C223.4665,-150.0605 229.4566,-139.2398 233.6621,-131.6427"/>
<polygon fill="#191970" stroke="#191970" points="215.1809,-157.8015 213.3998,-168.2455 221.3051,-161.1917 215.1809,-157.8015"/>
</g>
<!-- Node24 -->
<g id="node13" class="node">
<title>Node24</title>
<g id="a_node13"><a xlink:href="flat__plate__ops_8_h.html" target="_top" xlink:title="flat_plate_ops.H">
<polygon fill="#ffffff" stroke="#000000" points="317,-56.5 317,-75.5 405,-75.5 405,-56.5 317,-56.5"/>
<text text-anchor="middle" x="361" y="-63.5" font-family="Helvetica,sans-Serif" font-size="10.00" fill="#000000">flat_plate_ops.H</text>
</a>
</g>
</g>
<!-- Node14&#45;&gt;Node24 -->
<g id="edge19" class="edge">
<title>Node14&#45;&gt;Node24</title>
<path fill="none" stroke="#191970" d="M233.8055,-163.1685C248.2926,-154.5455 266.5147,-143.1977 282,-132 307.4886,-113.5687 335.2702,-89.2851 350.1446,-75.9078"/>
<polygon fill="#191970" stroke="#191970" points="231.7357,-160.3254 224.8911,-168.4126 235.285,-166.3588 231.7357,-160.3254"/>
</g>
<!-- Node15&#45;&gt;Node16 -->
<g id="edge4" class="edge">
<title>Node15&#45;&gt;Node16</title>
<path fill="none" stroke="#191970" d="M65.6688,-103.3372C60.5335,-94.0605 54.5434,-83.2398 50.3379,-75.6427"/>
<polygon fill="#191970" stroke="#191970" points="62.6949,-105.1917 70.6002,-112.2455 68.8191,-101.8015 62.6949,-105.1917"/>
</g>
<!-- Node17 -->
<g id="node6" class="node">
<title>Node17</title>
<g id="a_node6"><a xlink:href="_actuator_8cpp.html" target="_top" xlink:title="Actuator.cpp">
<polygon fill="#ffffff" stroke="#000000" points="9,-.5 9,-19.5 81,-19.5 81,-.5 9,-.5"/>
<text text-anchor="middle" x="45" y="-7.5" font-family="Helvetica,sans-Serif" font-size="10.00" fill="#000000">Actuator.cpp</text>
</a>
</g>
</g>
<!-- Node16&#45;&gt;Node17 -->
<g id="edge5" class="edge">
<title>Node16&#45;&gt;Node17</title>
<path fill="none" stroke="#191970" d="M45,-46.1575C45,-37.155 45,-26.9199 45,-19.6427"/>
<polygon fill="#191970" stroke="#191970" points="41.5001,-46.2455 45,-56.2455 48.5001,-46.2456 41.5001,-46.2455"/>
</g>
<!-- Node18 -->
<g id="node7" class="node">
<title>Node18</title>
<g id="a_node7"><a xlink:href="_turbine_fast_8cpp.html" target="_top" xlink:title="TurbineFast.cpp">
<polygon fill="#ffffff" stroke="#000000" points="366.5,-.5 366.5,-19.5 453.5,-19.5 453.5,-.5 366.5,-.5"/>
<text text-anchor="middle" x="410" y="-7.5" font-family="Helvetica,sans-Serif" font-size="10.00" fill="#000000">TurbineFast.cpp</text>
</a>
</g>
</g>
<!-- Node16&#45;&gt;Node18 -->
<g id="edge6" class="edge">
<title>Node16&#45;&gt;Node18</title>
<path fill="none" stroke="#191970" d="M100.1468,-55.8545C201.3266,-39.14 308.1107,-23.9946 366.3991,-15.9406"/>
<polygon fill="#191970" stroke="#191970" points="99.3514,-52.4386 90.0597,-57.5293 100.498,-59.3441 99.3514,-52.4386"/>
</g>
<!-- Node19 -->
<g id="node8" class="node">
<title>Node19</title>
<g id="a_node8"><a xlink:href="_fixed_wing_8cpp.html" target="_top" xlink:title="FixedWing.cpp">
<polygon fill="#ffffff" stroke="#000000" points="107,-.5 107,-19.5 189,-19.5 189,-.5 107,-.5"/>
<text text-anchor="middle" x="148" y="-7.5" font-family="Helvetica,sans-Serif" font-size="10.00" fill="#000000">FixedWing.cpp</text>
</a>
</g>
</g>
<!-- Node16&#45;&gt;Node19 -->
<g id="edge7" class="edge">
<title>Node16&#45;&gt;Node19</title>
<path fill="none" stroke="#191970" d="M71.7432,-51.46C90.175,-41.4388 114.1584,-28.3993 130.2644,-19.6427"/>
<polygon fill="#191970" stroke="#191970" points="70.0549,-48.394 62.9412,-56.2455 73.3985,-54.5438 70.0549,-48.394"/>
</g>
<!-- Node20 -->
<g id="node9" class="node">
<title>Node20</title>
<g id="a_node9"><a xlink:href="_flat_plate_8cpp.html" target="_top" xlink:title="FlatPlate.cpp">
<polygon fill="#ffffff" stroke="#000000" points="252,-.5 252,-19.5 326,-19.5 326,-.5 252,-.5"/>
<text text-anchor="middle" x="289" y="-7.5" font-family="Helvetica,sans-Serif" font-size="10.00" fill="#000000">FlatPlate.cpp</text>
</a>
</g>
</g>
<!-- Node16&#45;&gt;Node20 -->
<g id="edge8" class="edge">
<title>Node16&#45;&gt;Node20</title>
<path fill="none" stroke="#191970" d="M96.5594,-54.1667C143.106,-43.4839 210.4615,-28.0252 251.8997,-18.5148"/>
<polygon fill="#191970" stroke="#191970" points="95.6315,-50.7886 86.6679,-56.4369 97.1974,-57.6112 95.6315,-50.7886"/>
</g>
<!-- Node21&#45;&gt;Node18 -->
<g id="edge11" class="edge">
<title>Node21&#45;&gt;Node18</title>
<path fill="none" stroke="#191970" d="M396.4798,-104.6744C403.3465,-96.6644 410.4305,-86.5862 414,-76 420.4552,-56.8553 416.1439,-32.8393 412.8189,-19.6988"/>
<polygon fill="#191970" stroke="#191970" points="393.747,-102.4756 389.559,-112.2076 398.9019,-107.2114 393.747,-102.4756"/>
</g>
<!-- Node22&#45;&gt;Node19 -->
<g id="edge13" class="edge">
<title>Node22&#45;&gt;Node19</title>
<path fill="none" stroke="#191970" d="M153.1654,-46.1575C151.8793,-37.155 150.4171,-26.9199 149.3775,-19.6427"/>
<polygon fill="#191970" stroke="#191970" points="149.7274,-46.8411 154.6065,-56.2455 156.657,-45.851 149.7274,-46.8411"/>
</g>
<!-- Node23&#45;&gt;Node22 -->
<g id="edge15" class="edge">
<title>Node23&#45;&gt;Node22</title>
<path fill="none" stroke="#191970" d="M216.012,-106.49C201.3678,-96.6096 182.8556,-84.1194 170.2918,-75.6427"/>
<polygon fill="#191970" stroke="#191970" points="214.2953,-109.5539 224.5425,-112.2455 218.2104,-103.7511 214.2953,-109.5539"/>
</g>
<!-- Node23&#45;&gt;Node24 -->
<g id="edge16" class="edge">
<title>Node23&#45;&gt;Node24</title>
<path fill="none" stroke="#191970" d="M269.2584,-108.1109C291.3819,-97.9559 320.8094,-84.4482 340.3011,-75.5011"/>
<polygon fill="#191970" stroke="#191970" points="267.6007,-105.0206 259.9725,-112.3733 270.521,-111.3824 267.6007,-105.0206"/>
</g>
<!-- Node25 -->
<g id="node14" class="node">
<title>Node25</title>
<g id="a_node14"><a xlink:href="wing__ops_8cpp.html" target="_top" xlink:title="wing_ops.cpp">
<polygon fill="#ffffff" stroke="#000000" points="221.5,-56.5 221.5,-75.5 298.5,-75.5 298.5,-56.5 221.5,-56.5"/>
<text text-anchor="middle" x="260" y="-63.5" font-family="Helvetica,sans-Serif" font-size="10.00" fill="#000000">wing_ops.cpp</text>
</a>
</g>
</g>
<!-- Node23&#45;&gt;Node25 -->
<g id="edge18" class="edge">
<title>Node23&#45;&gt;Node25</title>
<path fill="none" stroke="#191970" d="M246.219,-102.7493C249.6476,-93.6064 253.5951,-83.0798 256.384,-75.6427"/>
<polygon fill="#191970" stroke="#191970" points="242.8921,-101.6533 242.6579,-112.2455 249.4464,-104.1112 242.8921,-101.6533"/>
</g>
<!-- Node24&#45;&gt;Node20 -->
<g id="edge17" class="edge">
<title>Node24&#45;&gt;Node20</title>
<path fill="none" stroke="#191970" d="M340.336,-49.928C327.7511,-40.1397 312.0908,-27.9595 301.3977,-19.6427"/>
<polygon fill="#191970" stroke="#191970" points="338.4162,-52.8688 348.4586,-56.2455 342.7138,-47.3434 338.4162,-52.8688"/>
</g>
</g>
</svg>
