<?xml version="1.0" encoding="UTF-8" standalone="no"?>
<!DOCTYPE svg PUBLIC "-//W3C//DTD SVG 1.1//EN"
 "http://www.w3.org/Graphics/SVG/1.1/DTD/svg11.dtd">
<!-- Generated by graphviz version 2.40.1 (20161225.0304)
 -->
<!-- Title: actuator_opsI.H Pages: 1 -->
<svg width="2938pt" height="341pt"
 viewBox="0.00 0.00 2937.50 341.00" xmlns="http://www.w3.org/2000/svg" xmlns:xlink="http://www.w3.org/1999/xlink">
<g id="graph0" class="graph" transform="scale(1 1) rotate(0) translate(4 337)">
<title>actuator_opsI.H</title>
<polygon fill="#ffffff" stroke="transparent" points="-4,4 -4,-337 2933.5,-337 2933.5,4 -4,4"/>
<!-- Node0 -->
<g id="node1" class="node">
<title>Node0</title>
<polygon fill="#bfbfbf" stroke="#000000" points="1067.5,-313.5 1067.5,-332.5 1153.5,-332.5 1153.5,-313.5 1067.5,-313.5"/>
<text text-anchor="middle" x="1110.5" y="-320.5" font-family="Helvetica,sans-Serif" font-size="10.00" fill="#000000">actuator_opsI.H</text>
</g>
<!-- Node1 -->
<g id="node2" class="node">
<title>Node1</title>
<g id="a_node2"><a xlink:href="actuator__utils_8_h.html" target="_top" xlink:title="amr&#45;wind/wind_energy\l/actuator/actuator_utils.H">
<polygon fill="#ffffff" stroke="#000000" points="435,-246.5 435,-276.5 562,-276.5 562,-246.5 435,-246.5"/>
<text text-anchor="start" x="443" y="-264.5" font-family="Helvetica,sans-Serif" font-size="10.00" fill="#000000">amr&#45;wind/wind_energy</text>
<text text-anchor="middle" x="498.5" y="-253.5" font-family="Helvetica,sans-Serif" font-size="10.00" fill="#000000">/actuator/actuator_utils.H</text>
</a>
</g>
</g>
<!-- Node0&#45;&gt;Node1 -->
<g id="edge1" class="edge">
<title>Node0&#45;&gt;Node1</title>
<path fill="none" stroke="#191970" d="M1067.4653,-318.6754C964.285,-308.3068 701.8113,-281.9308 572.6222,-268.9486"/>
<polygon fill="#191970" stroke="#191970" points="572.7254,-265.4414 562.4255,-267.9239 572.0254,-272.4063 572.7254,-265.4414"/>
</g>
<!-- Node13 -->
<g id="node14" class="node">
<title>Node13</title>
<g id="a_node14"><a xlink:href="_c_f_d_sim_8_h.html" target="_top" xlink:title="amr&#45;wind/CFDSim.H">
<polygon fill="#ffffff" stroke="#000000" points="1056.5,-252 1056.5,-271 1164.5,-271 1164.5,-252 1056.5,-252"/>
<text text-anchor="middle" x="1110.5" y="-259" font-family="Helvetica,sans-Serif" font-size="10.00" fill="#000000">amr&#45;wind/CFDSim.H</text>
</a>
</g>
</g>
<!-- Node0&#45;&gt;Node13 -->
<g id="edge17" class="edge">
<title>Node0&#45;&gt;Node13</title>
<path fill="none" stroke="#191970" d="M1110.5,-313.3906C1110.5,-304.8657 1110.5,-292.1392 1110.5,-281.4235"/>
<polygon fill="#191970" stroke="#191970" points="1114.0001,-281.2448 1110.5,-271.2449 1107.0001,-281.2449 1114.0001,-281.2448"/>
</g>
<!-- Node26 -->
<g id="node27" class="node">
<title>Node26</title>
<polygon fill="#ffffff" stroke="#bfbfbf" points="1437.5,-62 1437.5,-81 1493.5,-81 1493.5,-62 1437.5,-62"/>
<text text-anchor="middle" x="1465.5" y="-69" font-family="Helvetica,sans-Serif" font-size="10.00" fill="#000000">algorithm</text>
</g>
<!-- Node0&#45;&gt;Node26 -->
<g id="edge82" class="edge">
<title>Node0&#45;&gt;Node26</title>
<path fill="none" stroke="#191970" d="M1153.5579,-313.86C1225.797,-296.1944 1370.8986,-250.3003 1446.5,-154 1460.6383,-135.9908 1464.6054,-109.351 1465.5447,-91.2525"/>
<polygon fill="#191970" stroke="#191970" points="1469.0498,-91.0897 1465.8018,-81.005 1462.052,-90.9141 1469.0498,-91.0897"/>
</g>
<!-- Node2 -->
<g id="node3" class="node">
<title>Node2</title>
<g id="a_node3"><a xlink:href="vector_8_h.html" target="_top" xlink:title="amr&#45;wind/core/vs/vector.H">
<polygon fill="#ffffff" stroke="#000000" points="303.5,-190.5 303.5,-209.5 435.5,-209.5 435.5,-190.5 303.5,-190.5"/>
<text text-anchor="middle" x="369.5" y="-197.5" font-family="Helvetica,sans-Serif" font-size="10.00" fill="#000000">amr&#45;wind/core/vs/vector.H</text>
</a>
</g>
</g>
<!-- Node1&#45;&gt;Node2 -->
<g id="edge2" class="edge">
<title>Node1&#45;&gt;Node2</title>
<path fill="none" stroke="#191970" d="M466.943,-246.4554C446.0799,-236.509 418.9309,-223.5659 398.5902,-213.8686"/>
<polygon fill="#191970" stroke="#191970" points="400.0233,-210.6744 389.4904,-209.5303 397.0109,-216.9931 400.0233,-210.6744"/>
</g>
<!-- Node10 -->
<g id="node11" class="node">
<title>Node10</title>
<g id="a_node11"><a xlink:href="trig__ops_8_h.html" target="_top" xlink:title="Trigonometric utilities. ">
<polygon fill="#ffffff" stroke="#000000" points="193.5,-123.5 193.5,-153.5 283.5,-153.5 283.5,-123.5 193.5,-123.5"/>
<text text-anchor="start" x="201.5" y="-141.5" font-family="Helvetica,sans-Serif" font-size="10.00" fill="#000000">amr&#45;wind/utilities</text>
<text text-anchor="middle" x="238.5" y="-130.5" font-family="Helvetica,sans-Serif" font-size="10.00" fill="#000000">/trig_ops.H</text>
</a>
</g>
</g>
<!-- Node1&#45;&gt;Node10 -->
<g id="edge11" class="edge">
<title>Node1&#45;&gt;Node10</title>
<path fill="none" stroke="#191970" d="M434.896,-256.2188C392.3257,-250.2156 336.599,-237.3915 294.5,-210 276.1606,-198.0675 261.249,-178.0629 251.4377,-162.2432"/>
<polygon fill="#191970" stroke="#191970" points="254.37,-160.326 246.2629,-153.505 248.347,-163.8929 254.37,-160.326"/>
</g>
<!-- Node11 -->
<g id="node12" class="node">
<title>Node11</title>
<polygon fill="#ffffff" stroke="#bfbfbf" points="765.5,-129 765.5,-148 871.5,-148 871.5,-129 765.5,-129"/>
<text text-anchor="middle" x="818.5" y="-136" font-family="Helvetica,sans-Serif" font-size="10.00" fill="#000000">AMReX_AmrCore.H</text>
</g>
<!-- Node1&#45;&gt;Node11 -->
<g id="edge15" class="edge">
<title>Node1&#45;&gt;Node11</title>
<path fill="none" stroke="#191970" d="M562.1498,-255.4036C610.2923,-248.9245 677.0126,-235.8624 730.5,-210 758.8276,-196.303 786.0881,-171.8354 802.5703,-155.3872"/>
<polygon fill="#191970" stroke="#191970" points="805.2658,-157.6368 809.7532,-148.0392 800.26,-152.7436 805.2658,-157.6368"/>
</g>
<!-- Node12 -->
<g id="node13" class="node">
<title>Node12</title>
<polygon fill="#ffffff" stroke="#bfbfbf" points="483.5,-190.5 483.5,-209.5 513.5,-209.5 513.5,-190.5 483.5,-190.5"/>
<text text-anchor="middle" x="498.5" y="-197.5" font-family="Helvetica,sans-Serif" font-size="10.00" fill="#000000">set</text>
</g>
<!-- Node1&#45;&gt;Node12 -->
<g id="edge16" class="edge">
<title>Node1&#45;&gt;Node12</title>
<path fill="none" stroke="#191970" d="M498.5,-246.2977C498.5,-238.3834 498.5,-228.6043 498.5,-220.0759"/>
<polygon fill="#191970" stroke="#191970" points="502.0001,-219.8469 498.5,-209.8469 495.0001,-219.847 502.0001,-219.8469"/>
</g>
<!-- Node3 -->
<g id="node4" class="node">
<title>Node3</title>
<polygon fill="#ffffff" stroke="#bfbfbf" points="423,-62 423,-81 508,-81 508,-62 423,-62"/>
<text text-anchor="middle" x="465.5" y="-69" font-family="Helvetica,sans-Serif" font-size="10.00" fill="#000000">AMReX_Gpu.H</text>
</g>
<!-- Node2&#45;&gt;Node3 -->
<g id="edge3" class="edge">
<title>Node2&#45;&gt;Node3</title>
<path fill="none" stroke="#191970" d="M395.4052,-190.4718C412.1266,-183.0217 433.0145,-171.0462 445.5,-154 458.9942,-135.5767 463.4801,-109.2305 464.9191,-91.3024"/>
<polygon fill="#191970" stroke="#191970" points="468.4235,-91.3173 465.4818,-81.1391 461.4342,-90.9303 468.4235,-91.3173"/>
</g>
<!-- Node4 -->
<g id="node5" class="node">
<title>Node4</title>
<g id="a_node5"><a xlink:href="vstraits_8_h.html" target="_top" xlink:title="amr&#45;wind/core/vs/vstraits.H">
<polygon fill="#ffffff" stroke="#000000" points="0,-129 0,-148 137,-148 137,-129 0,-129"/>
<text text-anchor="middle" x="68.5" y="-136" font-family="Helvetica,sans-Serif" font-size="10.00" fill="#000000">amr&#45;wind/core/vs/vstraits.H</text>
</a>
</g>
</g>
<!-- Node2&#45;&gt;Node4 -->
<g id="edge4" class="edge">
<title>Node2&#45;&gt;Node4</title>
<path fill="none" stroke="#191970" d="M322.799,-190.4581C269.5241,-179.573 182.4155,-161.7751 125.2666,-150.0985"/>
<polygon fill="#191970" stroke="#191970" points="125.8088,-146.637 115.3106,-148.0643 124.4075,-153.4953 125.8088,-146.637"/>
</g>
<!-- Node7 -->
<g id="node8" class="node">
<title>Node7</title>
<g id="a_node8"><a xlink:href="vector_i_8_h.html" target="_top" xlink:title="amr&#45;wind/core/vs/vectorI.H">
<polygon fill="#ffffff" stroke="#000000" points="302,-129 302,-148 437,-148 437,-129 302,-129"/>
<text text-anchor="middle" x="369.5" y="-136" font-family="Helvetica,sans-Serif" font-size="10.00" fill="#000000">amr&#45;wind/core/vs/vectorI.H</text>
</a>
</g>
</g>
<!-- Node2&#45;&gt;Node7 -->
<g id="edge7" class="edge">
<title>Node2&#45;&gt;Node7</title>
<path fill="none" stroke="#191970" d="M364.4375,-190.3906C362.7741,-181.8657 362.3404,-169.1392 363.1365,-158.4235"/>
<polygon fill="#191970" stroke="#191970" points="366.6414,-158.6023 364.4112,-148.2449 359.6956,-157.7324 366.6414,-158.6023"/>
</g>
<!-- Node5 -->
<g id="node6" class="node">
<title>Node5</title>
<polygon fill="#ffffff" stroke="#bfbfbf" points="48.5,-62 48.5,-81 88.5,-81 88.5,-62 48.5,-62"/>
<text text-anchor="middle" x="68.5" y="-69" font-family="Helvetica,sans-Serif" font-size="10.00" fill="#000000">limits</text>
</g>
<!-- Node4&#45;&gt;Node5 -->
<g id="edge5" class="edge">
<title>Node4&#45;&gt;Node5</title>
<path fill="none" stroke="#191970" d="M68.5,-128.9005C68.5,-119.149 68.5,-103.7597 68.5,-91.3695"/>
<polygon fill="#191970" stroke="#191970" points="72.0001,-91.0816 68.5,-81.0817 65.0001,-91.0817 72.0001,-91.0816"/>
</g>
<!-- Node6 -->
<g id="node7" class="node">
<title>Node6</title>
<polygon fill="#ffffff" stroke="#bfbfbf" points="119,-62 119,-81 212,-81 212,-62 119,-62"/>
<text text-anchor="middle" x="165.5" y="-69" font-family="Helvetica,sans-Serif" font-size="10.00" fill="#000000">AMReX_REAL.H</text>
</g>
<!-- Node4&#45;&gt;Node6 -->
<g id="edge6" class="edge">
<title>Node4&#45;&gt;Node6</title>
<path fill="none" stroke="#191970" d="M82.3977,-128.9005C98.3164,-117.9052 124.6121,-99.7422 143.3599,-86.7927"/>
<polygon fill="#191970" stroke="#191970" points="145.3892,-89.6448 151.628,-81.0817 141.4108,-83.8852 145.3892,-89.6448"/>
</g>
<!-- Node7&#45;&gt;Node2 -->
<g id="edge10" class="edge">
<title>Node7&#45;&gt;Node2</title>
<path fill="none" stroke="#191970" d="M374.5888,-148.2449C376.2392,-156.814 376.6598,-169.5519 375.8508,-180.2462"/>
<polygon fill="#191970" stroke="#191970" points="372.3503,-180.0293 374.5625,-190.3906 379.2945,-180.9113 372.3503,-180.0293"/>
</g>
<!-- Node8 -->
<g id="node9" class="node">
<title>Node8</title>
<polygon fill="#ffffff" stroke="#bfbfbf" points="343.5,-62 343.5,-81 395.5,-81 395.5,-62 343.5,-62"/>
<text text-anchor="middle" x="369.5" y="-69" font-family="Helvetica,sans-Serif" font-size="10.00" fill="#000000">ostream</text>
</g>
<!-- Node7&#45;&gt;Node8 -->
<g id="edge8" class="edge">
<title>Node7&#45;&gt;Node8</title>
<path fill="none" stroke="#191970" d="M369.5,-128.9005C369.5,-119.149 369.5,-103.7597 369.5,-91.3695"/>
<polygon fill="#191970" stroke="#191970" points="373.0001,-91.0816 369.5,-81.0817 366.0001,-91.0817 373.0001,-91.0816"/>
</g>
<!-- Node9 -->
<g id="node10" class="node">
<title>Node9</title>
<polygon fill="#ffffff" stroke="#bfbfbf" points="256.5,-62 256.5,-81 300.5,-81 300.5,-62 256.5,-62"/>
<text text-anchor="middle" x="278.5" y="-69" font-family="Helvetica,sans-Serif" font-size="10.00" fill="#000000">cmath</text>
</g>
<!-- Node7&#45;&gt;Node9 -->
<g id="edge9" class="edge">
<title>Node7&#45;&gt;Node9</title>
<path fill="none" stroke="#191970" d="M356.4619,-128.9005C341.7307,-118.0544 317.5267,-100.2339 299.9908,-87.3229"/>
<polygon fill="#191970" stroke="#191970" points="301.6418,-84.1922 291.5139,-81.0817 297.4915,-89.8291 301.6418,-84.1922"/>
</g>
<!-- Node10&#45;&gt;Node3 -->
<g id="edge14" class="edge">
<title>Node10&#45;&gt;Node3</title>
<path fill="none" stroke="#191970" d="M283.6193,-125.1828C324.3842,-113.1509 383.9117,-95.5811 423.6367,-83.8561"/>
<polygon fill="#191970" stroke="#191970" points="424.686,-87.1958 433.2861,-81.0081 422.7044,-80.4821 424.686,-87.1958"/>
</g>
<!-- Node10&#45;&gt;Node6 -->
<g id="edge13" class="edge">
<title>Node10&#45;&gt;Node6</title>
<path fill="none" stroke="#191970" d="M221.9352,-123.2967C210.451,-112.7564 195.1688,-98.7303 183.4038,-87.9323"/>
<polygon fill="#191970" stroke="#191970" points="185.6447,-85.2382 175.9106,-81.055 180.9114,-90.3954 185.6447,-85.2382"/>
</g>
<!-- Node10&#45;&gt;Node9 -->
<g id="edge12" class="edge">
<title>Node10&#45;&gt;Node9</title>
<path fill="none" stroke="#191970" d="M247.5766,-123.2967C253.5063,-113.3645 261.2838,-100.3371 267.5555,-89.8321"/>
<polygon fill="#191970" stroke="#191970" points="270.6746,-91.4354 272.7955,-81.055 264.6642,-87.8471 270.6746,-91.4354"/>
</g>
<!-- Node13&#45;&gt;Node11 -->
<g id="edge18" class="edge">
<title>Node13&#45;&gt;Node11</title>
<path fill="none" stroke="#191970" d="M1087.5872,-251.8484C1035.8807,-230.0679 910.0262,-177.0538 850.5908,-152.0177"/>
<polygon fill="#191970" stroke="#191970" points="851.8808,-148.7633 841.3063,-148.1068 849.1634,-155.2143 851.8808,-148.7633"/>
</g>
<!-- Node14 -->
<g id="node15" class="node">
<title>Node14</title>
<g id="a_node15"><a xlink:href="_sim_time_8_h.html" target="_top" xlink:title="amr&#45;wind/core/SimTime.H">
<polygon fill="#ffffff" stroke="#000000" points="590,-190.5 590,-209.5 721,-209.5 721,-190.5 590,-190.5"/>
<text text-anchor="middle" x="655.5" y="-197.5" font-family="Helvetica,sans-Serif" font-size="10.00" fill="#000000">amr&#45;wind/core/SimTime.H</text>
</a>
</g>
</g>
<!-- Node13&#45;&gt;Node14 -->
<g id="edge19" class="edge">
<title>Node13&#45;&gt;Node14</title>
<path fill="none" stroke="#191970" d="M1056.0683,-254.1427C975.1285,-243.2025 822.7621,-222.608 731.0621,-210.2133"/>
<polygon fill="#191970" stroke="#191970" points="731.3908,-206.726 721.012,-208.8549 730.4531,-213.6629 731.3908,-206.726"/>
</g>
<!-- Node17 -->
<g id="node18" class="node">
<title>Node17</title>
<g id="a_node18"><a xlink:href="_field_repo_8_h.html" target="_top" xlink:title="amr&#45;wind/core/FieldRepo.H">
<polygon fill="#ffffff" stroke="#000000" points="1042.5,-190.5 1042.5,-209.5 1178.5,-209.5 1178.5,-190.5 1042.5,-190.5"/>
<text text-anchor="middle" x="1110.5" y="-197.5" font-family="Helvetica,sans-Serif" font-size="10.00" fill="#000000">amr&#45;wind/core/FieldRepo.H</text>
</a>
</g>
</g>
<!-- Node13&#45;&gt;Node17 -->
<g id="edge23" class="edge">
<title>Node13&#45;&gt;Node17</title>
<path fill="none" stroke="#191970" d="M1110.5,-251.8906C1110.5,-243.3657 1110.5,-230.6392 1110.5,-219.9235"/>
<polygon fill="#191970" stroke="#191970" points="1114.0001,-219.7448 1110.5,-209.7449 1107.0001,-219.7449 1114.0001,-219.7448"/>
</g>
<!-- Node35 -->
<g id="node36" class="node">
<title>Node35</title>
<g id="a_node36"><a xlink:href="_p_d_e_base_8_h.html" target="_top" xlink:title="amr&#45;wind/equation_systems\l/PDEBase.H">
<polygon fill="#ffffff" stroke="#000000" points="2200,-123.5 2200,-153.5 2339,-153.5 2339,-123.5 2200,-123.5"/>
<text text-anchor="start" x="2208" y="-141.5" font-family="Helvetica,sans-Serif" font-size="10.00" fill="#000000">amr&#45;wind/equation_systems</text>
<text text-anchor="middle" x="2269.5" y="-130.5" font-family="Helvetica,sans-Serif" font-size="10.00" fill="#000000">/PDEBase.H</text>
</a>
</g>
</g>
<!-- Node13&#45;&gt;Node35 -->
<g id="edge60" class="edge">
<title>Node13&#45;&gt;Node35</title>
<path fill="none" stroke="#191970" d="M1164.6172,-257.0196C1320.7703,-243.8737 1785.4872,-203.2171 2169.5,-154 2176.115,-153.1522 2182.9671,-152.215 2189.8404,-151.2335"/>
<polygon fill="#191970" stroke="#191970" points="2190.5092,-154.6732 2199.9007,-149.7692 2189.5008,-147.7462 2190.5092,-154.6732"/>
</g>
<!-- Node43 -->
<g id="node44" class="node">
<title>Node43</title>
<g id="a_node44"><a xlink:href="_physics_8_h.html" target="_top" xlink:title="amr&#45;wind/core/Physics.H">
<polygon fill="#ffffff" stroke="#000000" points="2675,-129 2675,-148 2802,-148 2802,-129 2675,-129"/>
<text text-anchor="middle" x="2738.5" y="-136" font-family="Helvetica,sans-Serif" font-size="10.00" fill="#000000">amr&#45;wind/core/Physics.H</text>
</a>
</g>
</g>
<!-- Node13&#45;&gt;Node43 -->
<g id="edge77" class="edge">
<title>Node13&#45;&gt;Node43</title>
<path fill="none" stroke="#191970" d="M1164.6325,-260.2314C1364.2832,-255.0266 2077.9632,-231.7615 2660.5,-154 2668.6725,-152.9091 2677.2768,-151.4836 2685.6665,-149.9391"/>
<polygon fill="#191970" stroke="#191970" points="2686.5859,-153.3268 2695.7504,-148.0106 2685.2709,-146.4514 2686.5859,-153.3268"/>
</g>
<!-- Node14&#45;&gt;Node6 -->
<g id="edge20" class="edge">
<title>Node14&#45;&gt;Node6</title>
<path fill="none" stroke="#191970" d="M589.7898,-194.5762C462.0573,-183.8993 192.0317,-160.6178 184.5,-154 166.8711,-138.5103 163.8413,-110.2507 164.0575,-91.1753"/>
<polygon fill="#191970" stroke="#191970" points="167.5549,-91.3083 164.474,-81.1713 160.5609,-91.017 167.5549,-91.3083"/>
</g>
<!-- Node15 -->
<g id="node16" class="node">
<title>Node15</title>
<polygon fill="#ffffff" stroke="#bfbfbf" points="621.5,-129 621.5,-148 747.5,-148 747.5,-129 621.5,-129"/>
<text text-anchor="middle" x="684.5" y="-136" font-family="Helvetica,sans-Serif" font-size="10.00" fill="#000000">AMReX_GpuQualifiers.H</text>
</g>
<!-- Node14&#45;&gt;Node15 -->
<g id="edge21" class="edge">
<title>Node14&#45;&gt;Node15</title>
<path fill="none" stroke="#191970" d="M660.0313,-190.3906C664.1781,-181.5965 670.4332,-168.3312 675.581,-157.4145"/>
<polygon fill="#191970" stroke="#191970" points="678.8055,-158.7825 679.9049,-148.2449 672.4741,-155.7969 678.8055,-158.7825"/>
</g>
<!-- Node16 -->
<g id="node17" class="node">
<title>Node16</title>
<polygon fill="#ffffff" stroke="#bfbfbf" points="493.5,-129 493.5,-148 603.5,-148 603.5,-129 493.5,-129"/>
<text text-anchor="middle" x="548.5" y="-136" font-family="Helvetica,sans-Serif" font-size="10.00" fill="#000000">AMReX_Extension.H</text>
</g>
<!-- Node14&#45;&gt;Node16 -->
<g id="edge22" class="edge">
<title>Node14&#45;&gt;Node16</title>
<path fill="none" stroke="#191970" d="M638.7813,-190.3906C621.4278,-180.4165 594.0677,-164.6908 574.0118,-153.1633"/>
<polygon fill="#191970" stroke="#191970" points="575.5154,-149.9907 565.1013,-148.0419 572.0272,-156.0596 575.5154,-149.9907"/>
</g>
<!-- Node17&#45;&gt;Node11 -->
<g id="edge57" class="edge">
<title>Node17&#45;&gt;Node11</title>
<path fill="none" stroke="#191970" d="M1062.1447,-190.4871C1016.5296,-181.425 946.2725,-167.2397 885.5,-154 880.1047,-152.8246 874.472,-151.568 868.8638,-150.2979"/>
<polygon fill="#191970" stroke="#191970" points="869.3804,-146.8258 858.8521,-148.0117 867.822,-153.6502 869.3804,-146.8258"/>
</g>
<!-- Node18 -->
<g id="node19" class="node">
<title>Node18</title>
<polygon fill="#ffffff" stroke="#bfbfbf" points="1767,-.5 1767,-19.5 1808,-19.5 1808,-.5 1767,-.5"/>
<text text-anchor="middle" x="1787.5" y="-7.5" font-family="Helvetica,sans-Serif" font-size="10.00" fill="#000000">string</text>
</g>
<!-- Node17&#45;&gt;Node18 -->
<g id="edge24" class="edge">
<title>Node17&#45;&gt;Node18</title>
<path fill="none" stroke="#191970" d="M1178.5668,-197.8517C1397.8415,-190.2162 2075.1142,-160.7898 2136.5,-87 2145.3114,-76.4082 2145.5835,-66.3594 2136.5,-56 2115.629,-32.1976 1899.9228,-16.7916 1818.4388,-11.7827"/>
<polygon fill="#191970" stroke="#191970" points="1818.4976,-8.28 1808.3048,-11.1711 1818.0758,-15.2673 1818.4976,-8.28"/>
</g>
<!-- Node19 -->
<g id="node20" class="node">
<title>Node19</title>
<polygon fill="#ffffff" stroke="#bfbfbf" points="2418,-.5 2418,-19.5 2501,-19.5 2501,-.5 2418,-.5"/>
<text text-anchor="middle" x="2459.5" y="-7.5" font-family="Helvetica,sans-Serif" font-size="10.00" fill="#000000">unordered_map</text>
</g>
<!-- Node17&#45;&gt;Node19 -->
<g id="edge25" class="edge">
<title>Node17&#45;&gt;Node19</title>
<path fill="none" stroke="#191970" d="M1178.7487,-199.2408C1403.5846,-196.461 2119.6917,-185.3123 2348.5,-154 2475.2759,-136.6508 2549.2446,-187.4575 2628.5,-87 2637.0338,-76.1833 2636.8658,-66.9472 2628.5,-56 2621.1895,-46.4337 2558.2398,-31.0976 2511.2934,-20.7924"/>
<polygon fill="#191970" stroke="#191970" points="2511.7612,-17.3125 2501.2461,-18.6095 2510.275,-24.1529 2511.7612,-17.3125"/>
</g>
<!-- Node20 -->
<g id="node21" class="node">
<title>Node20</title>
<g id="a_node21"><a xlink:href="_field_desc_types_8_h.html" target="_top" xlink:title="amr&#45;wind/core/FieldDescTypes.H">
<polygon fill="#ffffff" stroke="#000000" points="1134,-.5 1134,-19.5 1297,-19.5 1297,-.5 1134,-.5"/>
<text text-anchor="middle" x="1215.5" y="-7.5" font-family="Helvetica,sans-Serif" font-size="10.00" fill="#000000">amr&#45;wind/core/FieldDescTypes.H</text>
</a>
</g>
</g>
<!-- Node17&#45;&gt;Node20 -->
<g id="edge26" class="edge">
<title>Node17&#45;&gt;Node20</title>
<path fill="none" stroke="#191970" d="M1057.3272,-190.463C1019.4073,-182.4538 973.1534,-169.7939 961.5,-154 935.6401,-118.9522 933.5803,-89.4302 961.5,-56 982.1555,-31.2678 1059.7562,-19.8063 1123.8069,-14.5105"/>
<polygon fill="#191970" stroke="#191970" points="1124.2646,-17.9854 1133.9595,-13.7124 1123.7159,-11.0069 1124.2646,-17.9854"/>
</g>
<!-- Node21 -->
<g id="node22" class="node">
<title>Node21</title>
<g id="a_node22"><a xlink:href="_field_utils_8_h.html" target="_top" xlink:title="amr&#45;wind/core/FieldUtils.H">
<polygon fill="#ffffff" stroke="#000000" points="776,-62 776,-81 909,-81 909,-62 776,-62"/>
<text text-anchor="middle" x="842.5" y="-69" font-family="Helvetica,sans-Serif" font-size="10.00" fill="#000000">amr&#45;wind/core/FieldUtils.H</text>
</a>
</g>
</g>
<!-- Node17&#45;&gt;Node21 -->
<g id="edge27" class="edge">
<title>Node17&#45;&gt;Node21</title>
<path fill="none" stroke="#191970" d="M1042.2384,-192.4439C1005.2465,-186.1407 959.8112,-174.6886 923.5,-154 894.7434,-137.6157 869.4275,-108.1121 855.0498,-89.1863"/>
<polygon fill="#191970" stroke="#191970" points="857.8253,-87.0529 849.0716,-81.0844 852.1927,-91.2091 857.8253,-87.0529"/>
</g>
<!-- Node22 -->
<g id="node23" class="node">
<title>Node22</title>
<polygon fill="#ffffff" stroke="#bfbfbf" points="1413.5,-.5 1413.5,-19.5 1517.5,-19.5 1517.5,-.5 1413.5,-.5"/>
<text text-anchor="middle" x="1465.5" y="-7.5" font-family="Helvetica,sans-Serif" font-size="10.00" fill="#000000">AMReX_MultiFab.H</text>
</g>
<!-- Node17&#45;&gt;Node22 -->
<g id="edge58" class="edge">
<title>Node17&#45;&gt;Node22</title>
<path fill="none" stroke="#191970" d="M1050.0716,-190.4142C1028.8846,-183.8314 1007.2202,-172.7281 994.5,-154 962.8949,-107.4675 1051.997,-57.2902 1054.5,-56 1084.7556,-40.4036 1295.7093,-22.6725 1403.054,-14.5272"/>
<polygon fill="#191970" stroke="#191970" points="1403.4006,-18.0111 1413.1092,-13.7693 1402.8744,-11.0309 1403.4006,-18.0111"/>
</g>
<!-- Node24 -->
<g id="node25" class="node">
<title>Node24</title>
<g id="a_node25"><a xlink:href="_field_8_h.html" target="_top" xlink:title="amr&#45;wind/core/Field.H">
<polygon fill="#ffffff" stroke="#000000" points="1324,-129 1324,-148 1437,-148 1437,-129 1324,-129"/>
<text text-anchor="middle" x="1380.5" y="-136" font-family="Helvetica,sans-Serif" font-size="10.00" fill="#000000">amr&#45;wind/core/Field.H</text>
</a>
</g>
</g>
<!-- Node17&#45;&gt;Node24 -->
<g id="edge31" class="edge">
<title>Node17&#45;&gt;Node24</title>
<path fill="none" stroke="#191970" d="M1152.3913,-190.4581C1199.8826,-179.6406 1277.3472,-161.9959 1328.6215,-150.3168"/>
<polygon fill="#191970" stroke="#191970" points="1329.5375,-153.6978 1338.5105,-148.0643 1327.9829,-146.8727 1329.5375,-153.6978"/>
</g>
<!-- Node31 -->
<g id="node32" class="node">
<title>Node31</title>
<g id="a_node32"><a xlink:href="_int_field_8_h.html" target="_top" xlink:title="amr&#45;wind/core/IntField.H">
<polygon fill="#ffffff" stroke="#000000" points="1003.5,-129 1003.5,-148 1127.5,-148 1127.5,-129 1003.5,-129"/>
<text text-anchor="middle" x="1065.5" y="-136" font-family="Helvetica,sans-Serif" font-size="10.00" fill="#000000">amr&#45;wind/core/IntField.H</text>
</a>
</g>
</g>
<!-- Node17&#45;&gt;Node31 -->
<g id="edge46" class="edge">
<title>Node17&#45;&gt;Node31</title>
<path fill="none" stroke="#191970" d="M1103.4688,-190.3906C1096.837,-181.3273 1086.7304,-167.5149 1078.6113,-156.4188"/>
<polygon fill="#191970" stroke="#191970" points="1081.3601,-154.2484 1072.6304,-148.2449 1075.7109,-158.382 1081.3601,-154.2484"/>
</g>
<!-- Node32 -->
<g id="node33" class="node">
<title>Node32</title>
<polygon fill="#ffffff" stroke="#bfbfbf" points="1080,-62 1080,-81 1187,-81 1187,-62 1080,-62"/>
<text text-anchor="middle" x="1133.5" y="-69" font-family="Helvetica,sans-Serif" font-size="10.00" fill="#000000">AMReX_iMultiFab.H</text>
</g>
<!-- Node17&#45;&gt;Node32 -->
<g id="edge59" class="edge">
<title>Node17&#45;&gt;Node32</title>
<path fill="none" stroke="#191970" d="M1117.8819,-190.4183C1124.2273,-181.5336 1132.9061,-167.6624 1136.5,-154 1142.0034,-133.0788 1139.9743,-108.1486 1137.3819,-91.2096"/>
<polygon fill="#191970" stroke="#191970" points="1140.83,-90.6083 1135.6705,-81.3546 1133.9332,-91.806 1140.83,-90.6083"/>
</g>
<!-- Node33 -->
<g id="node34" class="node">
<title>Node33</title>
<g id="a_node34"><a xlink:href="_scratch_field_8_h.html" target="_top" xlink:title="amr&#45;wind/core/ScratchField.H">
<polygon fill="#ffffff" stroke="#000000" points="1619.5,-129 1619.5,-148 1765.5,-148 1765.5,-129 1619.5,-129"/>
<text text-anchor="middle" x="1692.5" y="-136" font-family="Helvetica,sans-Serif" font-size="10.00" fill="#000000">amr&#45;wind/core/ScratchField.H</text>
</a>
</g>
</g>
<!-- Node17&#45;&gt;Node33 -->
<g id="edge50" class="edge">
<title>Node17&#45;&gt;Node33</title>
<path fill="none" stroke="#191970" d="M1178.6878,-192.7946C1285.7681,-181.4794 1493.065,-159.5743 1608.9452,-147.3292"/>
<polygon fill="#191970" stroke="#191970" points="1609.6055,-150.779 1619.1823,-146.2475 1608.8698,-143.8178 1609.6055,-150.779"/>
</g>
<!-- Node21&#45;&gt;Node20 -->
<g id="edge28" class="edge">
<title>Node21&#45;&gt;Node20</title>
<path fill="none" stroke="#191970" d="M890.8523,-61.9783C901.5889,-59.9392 912.9214,-57.8449 923.5,-56 997.3383,-43.1228 1081.9664,-29.9665 1141.0398,-21.041"/>
<polygon fill="#191970" stroke="#191970" points="1141.6621,-24.4868 1151.0287,-19.5353 1140.6186,-17.565 1141.6621,-24.4868"/>
</g>
<!-- Node21&#45;&gt;Node22 -->
<g id="edge29" class="edge">
<title>Node21&#45;&gt;Node22</title>
<path fill="none" stroke="#191970" d="M909.16,-62.3577C926.208,-60.146 944.5197,-57.8801 961.5,-56 1120.3298,-38.4145 1307.8635,-22.5985 1403.1506,-14.9136"/>
<polygon fill="#191970" stroke="#191970" points="1403.5059,-18.3964 1413.1933,-14.1062 1402.9449,-11.4189 1403.5059,-18.3964"/>
</g>
<!-- Node23 -->
<g id="node24" class="node">
<title>Node23</title>
<polygon fill="#ffffff" stroke="#bfbfbf" points="784.5,-.5 784.5,-19.5 900.5,-19.5 900.5,-.5 784.5,-.5"/>
<text text-anchor="middle" x="842.5" y="-7.5" font-family="Helvetica,sans-Serif" font-size="10.00" fill="#000000">AMReX_Interpolater.H</text>
</g>
<!-- Node21&#45;&gt;Node23 -->
<g id="edge30" class="edge">
<title>Node21&#45;&gt;Node23</title>
<path fill="none" stroke="#191970" d="M842.5,-61.8906C842.5,-53.3657 842.5,-40.6392 842.5,-29.9235"/>
<polygon fill="#191970" stroke="#191970" points="846.0001,-29.7448 842.5,-19.7449 839.0001,-29.7449 846.0001,-29.7448"/>
</g>
<!-- Node24&#45;&gt;Node3 -->
<g id="edge38" class="edge">
<title>Node24&#45;&gt;Node3</title>
<path fill="none" stroke="#191970" d="M1323.9532,-134.3594C1158.7726,-122.2642 678.5767,-87.1023 518.2865,-75.3652"/>
<polygon fill="#191970" stroke="#191970" points="518.4267,-71.8662 508.1978,-74.6265 517.9155,-78.8475 518.4267,-71.8662"/>
</g>
<!-- Node24&#45;&gt;Node18 -->
<g id="edge32" class="edge">
<title>Node24&#45;&gt;Node18</title>
<path fill="none" stroke="#191970" d="M1383.0286,-128.9067C1388.243,-111.1992 1401.9861,-73.5858 1428.5,-56 1482.1382,-20.4235 1679.8326,-12.3288 1756.6709,-10.5144"/>
<polygon fill="#191970" stroke="#191970" points="1756.7615,-14.0134 1766.6835,-10.2979 1756.6101,-7.015 1756.7615,-14.0134"/>
</g>
<!-- Node24&#45;&gt;Node19 -->
<g id="edge34" class="edge">
<title>Node24&#45;&gt;Node19</title>
<path fill="none" stroke="#191970" d="M1437.1893,-134.3069C1483.7281,-130.9542 1551.36,-126.2873 1610.5,-123 1656.14,-120.4631 2395.7992,-114.2487 2432.5,-87 2450.3961,-73.7129 2456.4931,-47.6712 2458.5345,-29.5729"/>
<polygon fill="#191970" stroke="#191970" points="2462.0302,-29.766 2459.3507,-19.5156 2455.0531,-29.1997 2462.0302,-29.766"/>
</g>
<!-- Node24&#45;&gt;Node20 -->
<g id="edge40" class="edge">
<title>Node24&#45;&gt;Node20</title>
<path fill="none" stroke="#191970" d="M1323.8944,-131.3442C1293.7232,-124.679 1258.2418,-111.8154 1235.5,-87 1221.1855,-71.3803 1216.8447,-46.8323 1215.6646,-29.6643"/>
<polygon fill="#191970" stroke="#191970" points="1219.1599,-29.4721 1215.2725,-19.6162 1212.1652,-29.7451 1219.1599,-29.4721"/>
</g>
<!-- Node24&#45;&gt;Node22 -->
<g id="edge36" class="edge">
<title>Node24&#45;&gt;Node22</title>
<path fill="none" stroke="#191970" d="M1379.9156,-128.9605C1379.3861,-112.6175 1380.3954,-78.823 1395.5,-56 1404.4987,-42.4029 1419.0431,-31.8922 1432.5491,-24.3727"/>
<polygon fill="#191970" stroke="#191970" points="1434.392,-27.3594 1441.6525,-19.6435 1431.165,-21.1476 1434.392,-27.3594"/>
</g>
<!-- Node25 -->
<g id="node26" class="node">
<title>Node25</title>
<polygon fill="#ffffff" stroke="#bfbfbf" points="2334.5,-.5 2334.5,-19.5 2386.5,-19.5 2386.5,-.5 2334.5,-.5"/>
<text text-anchor="middle" x="2360.5" y="-7.5" font-family="Helvetica,sans-Serif" font-size="10.00" fill="#000000">memory</text>
</g>
<!-- Node24&#45;&gt;Node25 -->
<g id="edge33" class="edge">
<title>Node24&#45;&gt;Node25</title>
<path fill="none" stroke="#191970" d="M1437.2781,-135.5073C1513.6629,-130.4578 1653.2412,-117.6153 1768.5,-87 1803.7571,-77.6349 1809.0154,-64.4621 1844.5,-56 2037.0807,-10.0751 2091.7038,-41.6268 2288.5,-20 2300.1213,-18.7229 2312.7604,-17.0605 2324.1588,-15.459"/>
<polygon fill="#191970" stroke="#191970" points="2324.8108,-18.9014 2334.2131,-14.0181 2323.8177,-11.9722 2324.8108,-18.9014"/>
</g>
<!-- Node24&#45;&gt;Node26 -->
<g id="edge35" class="edge">
<title>Node24&#45;&gt;Node26</title>
<path fill="none" stroke="#191970" d="M1392.6784,-128.9005C1406.4384,-118.0544 1429.0465,-100.2339 1445.4262,-87.3229"/>
<polygon fill="#191970" stroke="#191970" points="1447.6573,-90.0209 1453.3442,-81.0817 1443.3239,-84.5234 1447.6573,-90.0209"/>
</g>
<!-- Node27 -->
<g id="node28" class="node">
<title>Node27</title>
<polygon fill="#ffffff" stroke="#bfbfbf" points="1244,-62 1244,-81 1343,-81 1343,-62 1244,-62"/>
<text text-anchor="middle" x="1293.5" y="-69" font-family="Helvetica,sans-Serif" font-size="10.00" fill="#000000">AMReX_BCRec.H</text>
</g>
<!-- Node24&#45;&gt;Node27 -->
<g id="edge37" class="edge">
<title>Node24&#45;&gt;Node27</title>
<path fill="none" stroke="#191970" d="M1368.035,-128.9005C1353.9513,-118.0544 1330.8112,-100.2339 1314.0461,-87.3229"/>
<polygon fill="#191970" stroke="#191970" points="1316.0003,-84.4102 1305.9419,-81.0817 1311.7292,-89.9562 1316.0003,-84.4102"/>
</g>
<!-- Node28 -->
<g id="node29" class="node">
<title>Node28</title>
<g id="a_node29"><a xlink:href="incflo__enums_8_h.html" target="_top" xlink:title="amr&#45;wind/incflo_enums.H">
<polygon fill="#ffffff" stroke="#000000" points="1999.5,-62 1999.5,-81 2127.5,-81 2127.5,-62 1999.5,-62"/>
<text text-anchor="middle" x="2063.5" y="-69" font-family="Helvetica,sans-Serif" font-size="10.00" fill="#000000">amr&#45;wind/incflo_enums.H</text>
</a>
</g>
</g>
<!-- Node24&#45;&gt;Node28 -->
<g id="edge39" class="edge">
<title>Node24&#45;&gt;Node28</title>
<path fill="none" stroke="#191970" d="M1437.2661,-134.62C1567.4785,-125.5717 1884.5739,-102.6544 1990.5,-87 1997.8968,-85.9069 2005.6685,-84.5189 2013.2701,-83.0245"/>
<polygon fill="#191970" stroke="#191970" points="2014.0213,-86.4434 2023.1195,-81.0146 2012.6216,-79.5848 2014.0213,-86.4434"/>
</g>
<!-- Node29 -->
<g id="node30" class="node">
<title>Node29</title>
<g id="a_node30"><a xlink:href="_view_field_8_h.html" target="_top" xlink:title="amr&#45;wind/core/ViewField.H">
<polygon fill="#ffffff" stroke="#000000" points="1625.5,-62 1625.5,-81 1759.5,-81 1759.5,-62 1625.5,-62"/>
<text text-anchor="middle" x="1692.5" y="-69" font-family="Helvetica,sans-Serif" font-size="10.00" fill="#000000">amr&#45;wind/core/ViewField.H</text>
</a>
</g>
</g>
<!-- Node24&#45;&gt;Node29 -->
<g id="edge41" class="edge">
<title>Node24&#45;&gt;Node29</title>
<path fill="none" stroke="#191970" d="M1424.8707,-128.9717C1480.9312,-116.933 1577.3813,-96.221 1637.902,-83.2246"/>
<polygon fill="#191970" stroke="#191970" points="1638.9879,-86.5713 1648.0301,-81.0496 1637.5181,-79.7273 1638.9879,-86.5713"/>
</g>
<!-- Node29&#45;&gt;Node18 -->
<g id="edge42" class="edge">
<title>Node29&#45;&gt;Node18</title>
<path fill="none" stroke="#191970" d="M1707.3438,-61.8906C1722.5418,-52.0519 1746.3848,-36.6167 1764.1206,-25.1351"/>
<polygon fill="#191970" stroke="#191970" points="1766.268,-27.9144 1772.7605,-19.5419 1762.4639,-22.0382 1766.268,-27.9144"/>
</g>
<!-- Node29&#45;&gt;Node20 -->
<g id="edge43" class="edge">
<title>Node29&#45;&gt;Node20</title>
<path fill="none" stroke="#191970" d="M1645.9136,-61.9791C1634.6734,-59.8499 1622.6799,-57.7167 1611.5,-56 1507.6807,-40.0588 1387.7879,-26.8523 1307.3632,-18.7403"/>
<polygon fill="#191970" stroke="#191970" points="1307.5643,-15.243 1297.2649,-17.7276 1306.8657,-22.2081 1307.5643,-15.243"/>
</g>
<!-- Node29&#45;&gt;Node22 -->
<g id="edge44" class="edge">
<title>Node29&#45;&gt;Node22</title>
<path fill="none" stroke="#191970" d="M1657.0313,-61.8906C1617.5507,-51.1944 1553.6557,-33.8836 1510.6395,-22.2294"/>
<polygon fill="#191970" stroke="#191970" points="1511.287,-18.7787 1500.7197,-19.5419 1509.4565,-25.5352 1511.287,-18.7787"/>
</g>
<!-- Node30 -->
<g id="node31" class="node">
<title>Node30</title>
<polygon fill="#ffffff" stroke="#bfbfbf" points="2184,-.5 2184,-19.5 2279,-19.5 2279,-.5 2184,-.5"/>
<text text-anchor="middle" x="2231.5" y="-7.5" font-family="Helvetica,sans-Serif" font-size="10.00" fill="#000000">AMReX_Vector.H</text>
</g>
<!-- Node29&#45;&gt;Node30 -->
<g id="edge45" class="edge">
<title>Node29&#45;&gt;Node30</title>
<path fill="none" stroke="#191970" d="M1759.8087,-62.4891C1776.6783,-60.2979 1794.7442,-58.0086 1811.5,-56 1940.8861,-40.4898 2092.956,-24.3541 2173.9183,-15.9302"/>
<polygon fill="#191970" stroke="#191970" points="2174.3242,-19.407 2183.909,-14.8923 2173.6008,-12.4445 2174.3242,-19.407"/>
</g>
<!-- Node31&#45;&gt;Node18 -->
<g id="edge47" class="edge">
<title>Node31&#45;&gt;Node18</title>
<path fill="none" stroke="#191970" d="M1062.6971,-128.9802C1058.2694,-111.7316 1052.0231,-75.3132 1071.5,-56 1083.8659,-43.738 1621.3029,-17.783 1756.7578,-11.4271"/>
<polygon fill="#191970" stroke="#191970" points="1757.0344,-14.9181 1766.8599,-10.9545 1756.7072,-7.9258 1757.0344,-14.9181"/>
</g>
<!-- Node31&#45;&gt;Node20 -->
<g id="edge48" class="edge">
<title>Node31&#45;&gt;Node20</title>
<path fill="none" stroke="#191970" d="M1056.9374,-128.8884C1043.3511,-112.4365 1020.0892,-78.4822 1037.5,-56 1049.777,-40.147 1092.8779,-28.7748 1133.5898,-21.3037"/>
<polygon fill="#191970" stroke="#191970" points="1134.3551,-24.7228 1143.5929,-19.5349 1133.1362,-17.8297 1134.3551,-24.7228"/>
</g>
<!-- Node31&#45;&gt;Node32 -->
<g id="edge49" class="edge">
<title>Node31&#45;&gt;Node32</title>
<path fill="none" stroke="#191970" d="M1075.2427,-128.9005C1085.9477,-118.353 1103.347,-101.2096 1116.3479,-88.3998"/>
<polygon fill="#191970" stroke="#191970" points="1119.1085,-90.5933 1123.7753,-81.0817 1114.1956,-85.607 1119.1085,-90.5933"/>
</g>
<!-- Node33&#45;&gt;Node18 -->
<g id="edge51" class="edge">
<title>Node33&#45;&gt;Node18</title>
<path fill="none" stroke="#191970" d="M1714.8162,-128.8961C1732.0343,-120.3505 1755.1053,-106.223 1768.5,-87 1780.2683,-70.1111 1784.7713,-46.688 1786.4812,-30.1222"/>
<polygon fill="#191970" stroke="#191970" points="1789.9892,-30.1546 1787.2738,-19.9137 1783.0102,-29.6127 1789.9892,-30.1546"/>
</g>
<!-- Node33&#45;&gt;Node20 -->
<g id="edge52" class="edge">
<title>Node33&#45;&gt;Node20</title>
<path fill="none" stroke="#191970" d="M1657.7586,-128.9648C1627.7075,-120.067 1583.5423,-105.4105 1547.5,-87 1525.8719,-75.9523 1525.0442,-65.0326 1502.5,-56 1467.8989,-42.1366 1377.6539,-28.9546 1307.511,-20.2845"/>
<polygon fill="#191970" stroke="#191970" points="1307.6678,-16.7777 1297.317,-19.0385 1306.8184,-23.726 1307.6678,-16.7777"/>
</g>
<!-- Node33&#45;&gt;Node22 -->
<g id="edge54" class="edge">
<title>Node33&#45;&gt;Node22</title>
<path fill="none" stroke="#191970" d="M1675.4381,-128.8416C1635.9849,-106.508 1538.2473,-51.1807 1491.3773,-24.6486"/>
<polygon fill="#191970" stroke="#191970" points="1492.8769,-21.4756 1482.4502,-19.5952 1489.4284,-27.5673 1492.8769,-21.4756"/>
</g>
<!-- Node33&#45;&gt;Node29 -->
<g id="edge53" class="edge">
<title>Node33&#45;&gt;Node29</title>
<path fill="none" stroke="#191970" d="M1692.5,-128.9005C1692.5,-119.149 1692.5,-103.7597 1692.5,-91.3695"/>
<polygon fill="#191970" stroke="#191970" points="1696.0001,-91.0816 1692.5,-81.0817 1689.0001,-91.0817 1696.0001,-91.0816"/>
</g>
<!-- Node33&#45;&gt;Node30 -->
<g id="edge55" class="edge">
<title>Node33&#45;&gt;Node30</title>
<path fill="none" stroke="#191970" d="M1765.5879,-134.9688C1873.9176,-128.9036 2071.3222,-114.4263 2136.5,-87 2168.742,-73.4328 2198.834,-45.4332 2216.1876,-27.1991"/>
<polygon fill="#191970" stroke="#191970" points="2219.0016,-29.3114 2223.2264,-19.5953 2213.8647,-24.5561 2219.0016,-29.3114"/>
</g>
<!-- Node34 -->
<g id="node35" class="node">
<title>Node34</title>
<polygon fill="#ffffff" stroke="#bfbfbf" points="1853.5,-62 1853.5,-81 1981.5,-81 1981.5,-62 1853.5,-62"/>
<text text-anchor="middle" x="1917.5" y="-69" font-family="Helvetica,sans-Serif" font-size="10.00" fill="#000000">AMReX_PhysBCFunct.H</text>
</g>
<!-- Node33&#45;&gt;Node34 -->
<g id="edge56" class="edge">
<title>Node33&#45;&gt;Node34</title>
<path fill="none" stroke="#191970" d="M1724.737,-128.9005C1764.4185,-117.0843 1831.899,-96.9901 1875.5743,-83.9845"/>
<polygon fill="#191970" stroke="#191970" points="1876.7376,-87.2901 1885.3228,-81.0817 1874.7398,-80.5812 1876.7376,-87.2901"/>
</g>
<!-- Node35&#45;&gt;Node18 -->
<g id="edge61" class="edge">
<title>Node35&#45;&gt;Node18</title>
<path fill="none" stroke="#191970" d="M2256.3725,-123.2766C2238.7577,-103.994 2205.4964,-71.424 2169.5,-56 2106.3141,-28.9256 1897.8091,-15.6521 1818.4953,-11.4886"/>
<polygon fill="#191970" stroke="#191970" points="1818.3557,-7.977 1808.1898,-10.9611 1817.9978,-14.9678 1818.3557,-7.977"/>
</g>
<!-- Node35&#45;&gt;Node20 -->
<g id="edge75" class="edge">
<title>Node35&#45;&gt;Node20</title>
<path fill="none" stroke="#191970" d="M2199.9219,-135.6462C2055.1478,-129.2779 1725.8797,-112.4374 1616.5,-87 1580.1654,-78.55 1574.5516,-65.5858 1538.5,-56 1461.9882,-35.6562 1372.7386,-23.8146 1307.4687,-17.2556"/>
<polygon fill="#191970" stroke="#191970" points="1307.499,-13.7418 1297.2048,-16.2477 1306.8149,-20.7083 1307.499,-13.7418"/>
</g>
<!-- Node35&#45;&gt;Node28 -->
<g id="edge76" class="edge">
<title>Node35&#45;&gt;Node28</title>
<path fill="none" stroke="#191970" d="M2223.2696,-123.4639C2186.8848,-111.63 2136.7555,-95.3258 2102.4073,-84.1543"/>
<polygon fill="#191970" stroke="#191970" points="2103.3174,-80.7699 2092.7252,-81.0053 2101.1523,-87.4267 2103.3174,-80.7699"/>
</g>
<!-- Node36 -->
<g id="node37" class="node">
<title>Node36</title>
<g id="a_node37"><a xlink:href="_factory_8_h.html" target="_top" xlink:title="amr&#45;wind/core/Factory.H">
<polygon fill="#ffffff" stroke="#000000" points="2676,-62 2676,-81 2801,-81 2801,-62 2676,-62"/>
<text text-anchor="middle" x="2738.5" y="-69" font-family="Helvetica,sans-Serif" font-size="10.00" fill="#000000">amr&#45;wind/core/Factory.H</text>
</a>
</g>
</g>
<!-- Node35&#45;&gt;Node36 -->
<g id="edge62" class="edge">
<title>Node35&#45;&gt;Node36</title>
<path fill="none" stroke="#191970" d="M2339.2076,-128.5418C2426.924,-116.0109 2576.8436,-94.5938 2665.9017,-81.8712"/>
<polygon fill="#191970" stroke="#191970" points="2666.5157,-85.3191 2675.9202,-80.44 2665.5257,-78.3894 2666.5157,-85.3191"/>
</g>
<!-- Node40 -->
<g id="node41" class="node">
<title>Node40</title>
<g id="a_node41"><a xlink:href="_coll_mgr_8_h.html" target="_top" xlink:title="amr&#45;wind/core/CollMgr.H">
<polygon fill="#ffffff" stroke="#000000" points="2298,-62 2298,-81 2423,-81 2423,-62 2298,-62"/>
<text text-anchor="middle" x="2360.5" y="-69" font-family="Helvetica,sans-Serif" font-size="10.00" fill="#000000">amr&#45;wind/core/CollMgr.H</text>
</a>
</g>
</g>
<!-- Node35&#45;&gt;Node40 -->
<g id="edge68" class="edge">
<title>Node35&#45;&gt;Node40</title>
<path fill="none" stroke="#191970" d="M2290.1493,-123.2967C2304.8781,-112.4524 2324.6186,-97.9182 2339.4396,-87.006"/>
<polygon fill="#191970" stroke="#191970" points="2341.5447,-89.8025 2347.5224,-81.055 2337.3944,-84.1655 2341.5447,-89.8025"/>
</g>
<!-- Node41 -->
<g id="node42" class="node">
<title>Node41</title>
<g id="a_node42"><a xlink:href="_p_d_e_fields_8_h.html" target="_top" xlink:title="amr&#45;wind/equation_systems\l/PDEFields.H">
<polygon fill="#ffffff" stroke="#000000" points="2480,-56.5 2480,-86.5 2619,-86.5 2619,-56.5 2480,-56.5"/>
<text text-anchor="start" x="2488" y="-74.5" font-family="Helvetica,sans-Serif" font-size="10.00" fill="#000000">amr&#45;wind/equation_systems</text>
<text text-anchor="middle" x="2549.5" y="-63.5" font-family="Helvetica,sans-Serif" font-size="10.00" fill="#000000">/PDEFields.H</text>
</a>
</g>
</g>
<!-- Node35&#45;&gt;Node41 -->
<g id="edge73" class="edge">
<title>Node35&#45;&gt;Node41</title>
<path fill="none" stroke="#191970" d="M2332.3375,-123.4639C2375.059,-113.2412 2431.7214,-99.6827 2476.4548,-88.9787"/>
<polygon fill="#191970" stroke="#191970" points="2477.4776,-92.3328 2486.3885,-86.6017 2475.8485,-85.525 2477.4776,-92.3328"/>
</g>
<!-- Node36&#45;&gt;Node19 -->
<g id="edge64" class="edge">
<title>Node36&#45;&gt;Node19</title>
<path fill="none" stroke="#191970" d="M2695.2124,-61.9581C2645.4606,-50.9913 2563.8755,-33.0075 2510.9294,-21.3366"/>
<polygon fill="#191970" stroke="#191970" points="2511.5845,-17.897 2501.0654,-19.1623 2510.0776,-24.7329 2511.5845,-17.897"/>
</g>
<!-- Node36&#45;&gt;Node25 -->
<g id="edge63" class="edge">
<title>Node36&#45;&gt;Node25</title>
<path fill="none" stroke="#191970" d="M2675.8969,-62.5764C2609.6006,-52.9217 2501.9578,-36.6618 2409.5,-20 2405.3185,-19.2464 2400.945,-18.4156 2396.6059,-17.5645"/>
<polygon fill="#191970" stroke="#191970" points="2397.1426,-14.1025 2386.6497,-15.5687 2395.7668,-20.966 2397.1426,-14.1025"/>
</g>
<!-- Node37 -->
<g id="node38" class="node">
<title>Node37</title>
<polygon fill="#ffffff" stroke="#bfbfbf" points="2711.5,-.5 2711.5,-19.5 2765.5,-19.5 2765.5,-.5 2711.5,-.5"/>
<text text-anchor="middle" x="2738.5" y="-7.5" font-family="Helvetica,sans-Serif" font-size="10.00" fill="#000000">iostream</text>
</g>
<!-- Node36&#45;&gt;Node37 -->
<g id="edge65" class="edge">
<title>Node36&#45;&gt;Node37</title>
<path fill="none" stroke="#191970" d="M2738.5,-61.8906C2738.5,-53.3657 2738.5,-40.6392 2738.5,-29.9235"/>
<polygon fill="#191970" stroke="#191970" points="2742.0001,-29.7448 2738.5,-19.7449 2735.0001,-29.7449 2742.0001,-29.7448"/>
</g>
<!-- Node38 -->
<g id="node39" class="node">
<title>Node38</title>
<polygon fill="#ffffff" stroke="#bfbfbf" points="2784,-.5 2784,-19.5 2871,-19.5 2871,-.5 2784,-.5"/>
<text text-anchor="middle" x="2827.5" y="-7.5" font-family="Helvetica,sans-Serif" font-size="10.00" fill="#000000">AMReX_Print.H</text>
</g>
<!-- Node36&#45;&gt;Node38 -->
<g id="edge66" class="edge">
<title>Node36&#45;&gt;Node38</title>
<path fill="none" stroke="#191970" d="M2752.4063,-61.8906C2766.5138,-52.1421 2788.5724,-36.8994 2805.1385,-25.4521"/>
<polygon fill="#191970" stroke="#191970" points="2807.4542,-28.1063 2813.6914,-19.5419 2803.4747,-22.3474 2807.4542,-28.1063"/>
</g>
<!-- Node39 -->
<g id="node40" class="node">
<title>Node39</title>
<polygon fill="#ffffff" stroke="#bfbfbf" points="2631.5,-.5 2631.5,-19.5 2693.5,-19.5 2693.5,-.5 2631.5,-.5"/>
<text text-anchor="middle" x="2662.5" y="-7.5" font-family="Helvetica,sans-Serif" font-size="10.00" fill="#000000">AMReX.H</text>
</g>
<!-- Node36&#45;&gt;Node39 -->
<g id="edge67" class="edge">
<title>Node36&#45;&gt;Node39</title>
<path fill="none" stroke="#191970" d="M2726.625,-61.8906C2714.8703,-52.3786 2696.6514,-37.6357 2682.6328,-26.2917"/>
<polygon fill="#191970" stroke="#191970" points="2684.5178,-23.3146 2674.5424,-19.7449 2680.1144,-28.7562 2684.5178,-23.3146"/>
</g>
<!-- Node40&#45;&gt;Node18 -->
<g id="edge69" class="edge">
<title>Node40&#45;&gt;Node18</title>
<path fill="none" stroke="#191970" d="M2317.4727,-61.9999C2306.4396,-59.795 2294.5634,-57.6219 2283.5,-56 2108.6143,-30.3622 1896.8209,-16.3408 1818.5286,-11.7291"/>
<polygon fill="#191970" stroke="#191970" points="1818.5709,-8.2258 1808.3849,-11.1406 1818.1654,-15.214 1818.5709,-8.2258"/>
</g>
<!-- Node40&#45;&gt;Node19 -->
<g id="edge71" class="edge">
<title>Node40&#45;&gt;Node19</title>
<path fill="none" stroke="#191970" d="M2375.9688,-61.8906C2391.9521,-51.9616 2417.1103,-36.333 2435.6433,-24.8201"/>
<polygon fill="#191970" stroke="#191970" points="2437.4924,-27.7918 2444.1399,-19.5419 2433.7985,-21.8457 2437.4924,-27.7918"/>
</g>
<!-- Node40&#45;&gt;Node25 -->
<g id="edge70" class="edge">
<title>Node40&#45;&gt;Node25</title>
<path fill="none" stroke="#191970" d="M2360.5,-61.8906C2360.5,-53.3657 2360.5,-40.6392 2360.5,-29.9235"/>
<polygon fill="#191970" stroke="#191970" points="2364.0001,-29.7448 2360.5,-19.7449 2357.0001,-29.7449 2364.0001,-29.7448"/>
</g>
<!-- Node40&#45;&gt;Node30 -->
<g id="edge72" class="edge">
<title>Node40&#45;&gt;Node30</title>
<path fill="none" stroke="#191970" d="M2340.3438,-61.8906C2318.949,-51.6908 2284.938,-35.4763 2260.6298,-23.8875"/>
<polygon fill="#191970" stroke="#191970" points="2262.0476,-20.686 2251.5147,-19.5419 2259.0352,-27.0047 2262.0476,-20.686"/>
</g>
<!-- Node42 -->
<g id="node43" class="node">
<title>Node42</title>
<polygon fill="#ffffff" stroke="#bfbfbf" points="2527,-.5 2527,-19.5 2572,-19.5 2572,-.5 2527,-.5"/>
<text text-anchor="middle" x="2549.5" y="-7.5" font-family="Helvetica,sans-Serif" font-size="10.00" fill="#000000">iosfwd</text>
</g>
<!-- Node41&#45;&gt;Node42 -->
<g id="edge74" class="edge">
<title>Node41&#45;&gt;Node42</title>
<path fill="none" stroke="#191970" d="M2549.5,-56.2977C2549.5,-48.3834 2549.5,-38.6043 2549.5,-30.0759"/>
<polygon fill="#191970" stroke="#191970" points="2553.0001,-29.8469 2549.5,-19.8469 2546.0001,-29.847 2553.0001,-29.8469"/>
</g>
<!-- Node43&#45;&gt;Node22 -->
<g id="edge80" class="edge">
<title>Node43&#45;&gt;Node22</title>
<path fill="none" stroke="#191970" d="M2674.6929,-132.9175C2587.4268,-124.8874 2426.0881,-108.6299 2289.5,-87 2220.9722,-76.148 2205.2581,-65.2816 2136.5,-56 1913.8121,-25.9396 1646.748,-15.0794 1527.8644,-11.5396"/>
<polygon fill="#191970" stroke="#191970" points="1527.6079,-8.0308 1517.5105,-11.2388 1527.4046,-15.0278 1527.6079,-8.0308"/>
</g>
<!-- Node43&#45;&gt;Node36 -->
<g id="edge78" class="edge">
<title>Node43&#45;&gt;Node36</title>
<path fill="none" stroke="#191970" d="M2738.5,-128.9005C2738.5,-119.149 2738.5,-103.7597 2738.5,-91.3695"/>
<polygon fill="#191970" stroke="#191970" points="2742.0001,-91.0816 2738.5,-81.0817 2735.0001,-91.0817 2742.0001,-91.0816"/>
</g>
<!-- Node43&#45;&gt;Node40 -->
<g id="edge79" class="edge">
<title>Node43&#45;&gt;Node40</title>
<path fill="none" stroke="#191970" d="M2684.7433,-128.9717C2616.122,-116.8087 2497.5512,-95.7921 2424.3892,-82.8243"/>
<polygon fill="#191970" stroke="#191970" points="2424.8344,-79.3487 2414.377,-81.0496 2423.6126,-86.2413 2424.8344,-79.3487"/>
</g>
<!-- Node44 -->
<g id="node45" class="node">
<title>Node44</title>
<polygon fill="#ffffff" stroke="#bfbfbf" points="2819.5,-62 2819.5,-81 2929.5,-81 2929.5,-62 2819.5,-62"/>
<text text-anchor="middle" x="2874.5" y="-69" font-family="Helvetica,sans-Serif" font-size="10.00" fill="#000000">AMReX_Geometry.H</text>
</g>
<!-- Node43&#45;&gt;Node44 -->
<g id="edge81" class="edge">
<title>Node43&#45;&gt;Node44</title>
<path fill="none" stroke="#191970" d="M2757.9855,-128.9005C2781.0113,-117.5569 2819.5228,-98.5844 2845.9232,-85.5783"/>
<polygon fill="#191970" stroke="#191970" points="2847.6269,-88.6407 2855.0507,-81.0817 2844.5334,-82.3613 2847.6269,-88.6407"/>
</g>
</g>
</svg>
