<?xml version="1.0" encoding="UTF-8" standalone="no"?>
<!DOCTYPE svg PUBLIC "-//W3C//DTD SVG 1.1//EN"
 "http://www.w3.org/Graphics/SVG/1.1/DTD/svg11.dtd">
<!-- Generated by graphviz version 2.40.1 (20161225.0304)
 -->
<!-- Title: amr_wind::FieldFillPatchOps&lt; BCOpCreator &gt; Pages: 1 -->
<!--zoomable 176 -->
<svg id="main" version="1.1" xmlns="http://www.w3.org/2000/svg" xmlns:xlink="http://www.w3.org/1999/xlink" xml:space="preserve" onload="init(evt)">
<style type="text/css"><![CDATA[
.edge:hover path { stroke: red; }
.edge:hover polygon { stroke: red; fill: red; }
]]></style>
<script type="text/javascript"><![CDATA[
var edges = document.getElementsByTagName('g');
if (edges && edges.length) {
  for (var i=0;i<edges.length;i++) {
    if (edges[i].id.substr(0,4)=='edge') {
      edges[i].setAttribute('class','edge');
    }
  }
}
]]></script>
        <defs>
                <circle id="rim" cx="0" cy="0" r="7"/>
                <circle id="rim2" cx="0" cy="0" r="3.5"/>
                <g id="zoomPlus">
                        <use xlink:href="#rim" fill="#404040">
                                <set attributeName="fill" to="#808080" begin="zoomplus.mouseover" end="zoomplus.mouseout"/>
                        </use>
                        <path d="M-4,0h8M0,-4v8" fill="none" stroke="white" stroke-width="1.5" pointer-events="none"/>
                </g>
                <g id="zoomMin">
                        <use xlink:href="#rim" fill="#404040">
                                <set attributeName="fill" to="#808080" begin="zoomminus.mouseover" end="zoomminus.mouseout"/>
                        </use>
                        <path d="M-4,0h8" fill="none" stroke="white" stroke-width="1.5" pointer-events="none"/>
                </g>
                <g id="dirArrow">
                        <path fill="none" stroke="white" stroke-width="1.5" d="M0,-3.0v7 M-2.5,-0.5L0,-3.0L2.5,-0.5"/>
                </g>
               <g id="resetDef">
                       <use xlink:href="#rim2" fill="#404040">
                               <set attributeName="fill" to="#808080" begin="reset.mouseover" end="reset.mouseout"/>
                       </use>
               </g>
        </defs>

<script type="text/javascript">
var viewWidth = 1286;
var viewHeight = 176;
var sectionId = 'dynsection-1';
</script>
<script xlink:href="svgpan.js"/>
<svg id="graph" class="graph">
<g id="viewport">
<title>amr_wind::FieldFillPatchOps&lt; BCOpCreator &gt;</title>
<polygon fill="#ffffff" stroke="transparent" points="-4,4 -4,-172 1282,-172 1282,4 -4,4"/>
<!-- Node4 -->
<g id="node1" class="node">
<title>Node4</title>
<polygon fill="#bfbfbf" stroke="#000000" points="1154,-78 1154,-108 1278,-108 1278,-78 1154,-78"/>
<text text-anchor="start" x="1162" y="-96" font-family="Helvetica,sans-Serif" font-size="10.00" fill="#000000">amr_wind::FieldFillPatch</text>
<text text-anchor="middle" x="1216" y="-85" font-family="Helvetica,sans-Serif" font-size="10.00" fill="#000000">Ops&lt; BCOpCreator &gt;</text>
</g>
<!-- Node5 -->
<g id="node2" class="node">
<title>Node5</title>
<g id="a_node2"><a xlink:href="classamr__wind_1_1_field_fill_patch_ops_base.html" target="_top" xlink:title="Abstract interface for classes that handle fill patch and physical boundary condition operations for ...">
<polygon fill="#ffffff" stroke="#000000" points="958,-136 958,-166 1082,-166 1082,-136 958,-136"/>
<text text-anchor="start" x="966" y="-154" font-family="Helvetica,sans-Serif" font-size="10.00" fill="#000000">amr_wind::FieldFillPatch</text>
<text text-anchor="middle" x="1020" y="-143" font-family="Helvetica,sans-Serif" font-size="10.00" fill="#000000">OpsBase</text>
</a>
</g>
</g>
<!-- Node5&#45;&gt;Node4 -->
<g id="edge1" class="edge">
<title>Node5&#45;&gt;Node4</title>
<path fill="none" stroke="#191970" d="M1089.2319,-133.28C1104.6781,-129.1094 1120.94,-124.5486 1136,-120 1148.068,-116.3551 1161.0561,-112.1121 1172.9842,-108.0841"/>
<polygon fill="#191970" stroke="#191970" points="1087.9748,-129.9932 1079.2201,-135.9603 1089.7851,-136.7551 1087.9748,-129.9932"/>
</g>
<!-- Node6 -->
<g id="node3" class="node">
<title>Node6</title>
<g id="a_node3"><a xlink:href="classamr__wind_1_1_field.html" target="_top" xlink:title="Computational fieldThis is an abstraction of a collection of MultiFabs over multiple levels...">
<polygon fill="#ffffff" stroke="#000000" points="801,-70.5 801,-89.5 887,-89.5 887,-70.5 801,-70.5"/>
<text text-anchor="middle" x="844" y="-77.5" font-family="Helvetica,sans-Serif" font-size="10.00" fill="#000000">amr_wind::Field</text>
</a>
</g>
</g>
<!-- Node6&#45;&gt;Node4 -->
<g id="edge2" class="edge">
<title>Node6&#45;&gt;Node4</title>
<path fill="none" stroke="#9a32cd" stroke-dasharray="5,2" d="M897.342,-84.5311C899.9304,-84.7011 902.4936,-84.8588 905,-85 991.2807,-89.8603 1091.1949,-91.7702 1153.9973,-92.5192"/>
<polygon fill="#9a32cd" stroke="#9a32cd" points="897.5232,-81.0353 887.3018,-83.8237 897.0311,-88.018 897.5232,-81.0353"/>
<text text-anchor="middle" x="1020" y="-94" font-family="Helvetica,sans-Serif" font-size="10.00" fill="#000000"> m_field</text>
</g>
<!-- Node15 -->
<g id="node12" class="node">
<title>Node15</title>
<g id="a_node12"><a xlink:href="structamr__wind_1_1_b_c_op_creator.html" target="_top" xlink:title="amr_wind::BCOpCreator\l\&lt; InflowOp, WallOp \&gt;">
<polygon fill="#ffffff" stroke="#000000" points="958,-39 958,-69 1082,-69 1082,-39 958,-39"/>
<text text-anchor="start" x="966" y="-57" font-family="Helvetica,sans-Serif" font-size="10.00" fill="#000000">amr_wind::BCOpCreator</text>
<text text-anchor="middle" x="1020" y="-46" font-family="Helvetica,sans-Serif" font-size="10.00" fill="#000000">&lt; InflowOp, WallOp &gt;</text>
</a>
</g>
</g>
<!-- Node6&#45;&gt;Node15 -->
<g id="edge13" class="edge">
<title>Node6&#45;&gt;Node15</title>
<path fill="none" stroke="#9a32cd" stroke-dasharray="5,2" d="M897.0822,-72.1583C916.2013,-69.3339 937.945,-66.1218 957.7739,-63.1925"/>
<polygon fill="#9a32cd" stroke="#9a32cd" points="896.4356,-68.7158 887.0544,-73.6397 897.4586,-75.6406 896.4356,-68.7158"/>
<text text-anchor="middle" x="922.5" y="-73" font-family="Helvetica,sans-Serif" font-size="10.00" fill="#000000"> m_field</text>
</g>
<!-- Node7 -->
<g id="node4" class="node">
<title>Node7</title>
<g id="a_node4"><a xlink:title="STL class. ">
<polygon fill="#ffffff" stroke="#bfbfbf" points="195.5,-66.5 195.5,-85.5 255.5,-85.5 255.5,-66.5 195.5,-66.5"/>
<text text-anchor="middle" x="225.5" y="-73.5" font-family="Helvetica,sans-Serif" font-size="10.00" fill="#000000">std::string</text>
</a>
</g>
</g>
<!-- Node7&#45;&gt;Node6 -->
<g id="edge3" class="edge">
<title>Node7&#45;&gt;Node6</title>
<path fill="none" stroke="#9a32cd" stroke-dasharray="5,2" d="M265.8661,-76.2611C376.9327,-76.9794 686.394,-78.9807 800.7805,-79.7205"/>
<polygon fill="#9a32cd" stroke="#9a32cd" points="265.7727,-72.7605 255.7502,-76.1956 265.7274,-79.7603 265.7727,-72.7605"/>
<text text-anchor="middle" x="570" y="-81" font-family="Helvetica,sans-Serif" font-size="10.00" fill="#000000"> m_name</text>
</g>
<!-- Node10 -->
<g id="node7" class="node">
<title>Node10</title>
<polygon fill="#ffffff" stroke="#bfbfbf" points="410,-93 410,-123 520,-123 520,-93 410,-93"/>
<text text-anchor="start" x="418" y="-111" font-family="Helvetica,sans-Serif" font-size="10.00" fill="#000000">std::unordered_map</text>
<text text-anchor="middle" x="465" y="-100" font-family="Helvetica,sans-Serif" font-size="10.00" fill="#000000">&lt; std::string, size_t &gt;</text>
</g>
<!-- Node7&#45;&gt;Node10 -->
<g id="edge7" class="edge">
<title>Node7&#45;&gt;Node10</title>
<path fill="none" stroke="#9a32cd" stroke-dasharray="5,2" d="M265.8984,-81.3977C305.418,-86.678 365.9053,-94.7598 409.8401,-100.63"/>
<polygon fill="#9a32cd" stroke="#9a32cd" points="266.2083,-77.9081 255.8328,-80.0528 265.2812,-84.8464 266.2083,-77.9081"/>
<text text-anchor="middle" x="343.5" y="-100" font-family="Helvetica,sans-Serif" font-size="10.00" fill="#000000"> keys</text>
</g>
<!-- Node8 -->
<g id="node5" class="node">
<title>Node8</title>
<g id="a_node5"><a xlink:title="STL class. ">
<polygon fill="#ffffff" stroke="#bfbfbf" points="0,-61 0,-91 95,-91 95,-61 0,-61"/>
<text text-anchor="start" x="8" y="-79" font-family="Helvetica,sans-Serif" font-size="10.00" fill="#000000">std::basic_string&lt;</text>
<text text-anchor="middle" x="47.5" y="-68" font-family="Helvetica,sans-Serif" font-size="10.00" fill="#000000"> char &gt;</text>
</a>
</g>
</g>
<!-- Node8&#45;&gt;Node7 -->
<g id="edge4" class="edge">
<title>Node8&#45;&gt;Node7</title>
<path fill="none" stroke="#191970" d="M105.5446,-76C135.493,-76 170.7833,-76 195.3,-76"/>
<polygon fill="#191970" stroke="#191970" points="105.2008,-72.5001 95.2007,-76 105.2007,-79.5001 105.2008,-72.5001"/>
</g>
<!-- Node9 -->
<g id="node6" class="node">
<title>Node9</title>
<g id="a_node6"><a xlink:href="classamr__wind_1_1_field_repo.html" target="_top" xlink:title="Field RepositoryFieldRepo is a database that manages handling of fields used during a simulation...">
<polygon fill="#ffffff" stroke="#000000" points="620,-95.5 620,-114.5 729,-114.5 729,-95.5 620,-95.5"/>
<text text-anchor="middle" x="674.5" y="-102.5" font-family="Helvetica,sans-Serif" font-size="10.00" fill="#000000">amr_wind::FieldRepo</text>
</a>
</g>
</g>
<!-- Node9&#45;&gt;Node6 -->
<g id="edge5" class="edge">
<title>Node9&#45;&gt;Node6</title>
<path fill="none" stroke="#9a32cd" stroke-dasharray="5,2" d="M739.0458,-95.48C759.705,-92.4329 782.0652,-89.1349 800.8169,-86.3692"/>
<polygon fill="#9a32cd" stroke="#9a32cd" points="738.4461,-92.0305 729.0639,-96.9522 739.4676,-98.9555 738.4461,-92.0305"/>
<text text-anchor="middle" x="765" y="-96" font-family="Helvetica,sans-Serif" font-size="10.00" fill="#000000"> m_repo</text>
</g>
<!-- Node10&#45;&gt;Node9 -->
<g id="edge6" class="edge">
<title>Node10&#45;&gt;Node9</title>
<path fill="none" stroke="#9a32cd" stroke-dasharray="5,2" d="M530.3958,-107.0635C559.1148,-106.6523 592.452,-106.1749 619.824,-105.783"/>
<polygon fill="#9a32cd" stroke="#9a32cd" points="529.9925,-103.5689 520.0437,-107.2118 530.0928,-110.5681 529.9925,-103.5689"/>
<text text-anchor="middle" x="570" y="-120" font-family="Helvetica,sans-Serif" font-size="10.00" fill="#000000"> m_fid_map</text>
<text text-anchor="middle" x="570" y="-109" font-family="Helvetica,sans-Serif" font-size="10.00" fill="#000000">m_int_fid_map</text>
</g>
<!-- Node11 -->
<g id="node8" class="node">
<title>Node11</title>
<g id="a_node8"><a xlink:title="STL class. ">
<polygon fill="#ffffff" stroke="#bfbfbf" points="174,-116 174,-146 277,-146 277,-116 174,-116"/>
<text text-anchor="start" x="182" y="-134" font-family="Helvetica,sans-Serif" font-size="10.00" fill="#000000">std::unordered_map</text>
<text text-anchor="middle" x="225.5" y="-123" font-family="Helvetica,sans-Serif" font-size="10.00" fill="#000000">&lt; K, T &gt;</text>
</a>
</g>
</g>
<!-- Node11&#45;&gt;Node10 -->
<g id="edge8" class="edge">
<title>Node11&#45;&gt;Node10</title>
<path fill="none" stroke="#ffa500" stroke-dasharray="5,2" d="M287.5442,-125.0417C325.3248,-121.4135 373.1761,-116.8182 409.6661,-113.3139"/>
<polygon fill="#ffa500" stroke="#ffa500" points="286.7927,-121.5977 277.1731,-126.0377 287.4619,-128.5656 286.7927,-121.5977"/>
<text text-anchor="middle" x="343.5" y="-127" font-family="Helvetica,sans-Serif" font-size="10.00" fill="#000000"> &lt; std::string, size_t &gt;</text>
</g>
<!-- Node12 -->
<g id="node9" class="node">
<title>Node12</title>
<polygon fill="#ffffff" stroke="#bfbfbf" points="33,-148.5 33,-167.5 62,-167.5 62,-148.5 33,-148.5"/>
<text text-anchor="middle" x="47.5" y="-155.5" font-family="Helvetica,sans-Serif" font-size="10.00" fill="#000000">K</text>
</g>
<!-- Node12&#45;&gt;Node11 -->
<g id="edge9" class="edge">
<title>Node12&#45;&gt;Node11</title>
<path fill="none" stroke="#9a32cd" stroke-dasharray="5,2" d="M72.243,-154.2468C98.425,-150.2754 140.4972,-143.8937 173.9422,-138.8206"/>
<polygon fill="#9a32cd" stroke="#9a32cd" points="71.4285,-150.8303 62.0665,-155.7905 72.4783,-157.7511 71.4285,-150.8303"/>
<text text-anchor="middle" x="134.5" y="-150" font-family="Helvetica,sans-Serif" font-size="10.00" fill="#000000"> keys</text>
</g>
<!-- Node13 -->
<g id="node10" class="node">
<title>Node13</title>
<polygon fill="#ffffff" stroke="#bfbfbf" points="33,-110.5 33,-129.5 62,-129.5 62,-110.5 33,-110.5"/>
<text text-anchor="middle" x="47.5" y="-117.5" font-family="Helvetica,sans-Serif" font-size="10.00" fill="#000000">T</text>
</g>
<!-- Node13&#45;&gt;Node11 -->
<g id="edge10" class="edge">
<title>Node13&#45;&gt;Node11</title>
<path fill="none" stroke="#9a32cd" stroke-dasharray="5,2" d="M72.3921,-120.8635C94.3939,-121.6944 127.3488,-123.1039 156,-125 161.8005,-125.3839 167.8692,-125.8347 173.9016,-126.314"/>
<polygon fill="#9a32cd" stroke="#9a32cd" points="72.3734,-117.3606 62.2521,-120.4924 72.1173,-124.3559 72.3734,-117.3606"/>
<text text-anchor="middle" x="134.5" y="-128" font-family="Helvetica,sans-Serif" font-size="10.00" fill="#000000"> elements</text>
</g>
<!-- Node14 -->
<g id="node11" class="node">
<title>Node14</title>
<g id="a_node11"><a xlink:href="classamr__wind_1_1_sim_time.html" target="_top" xlink:title="Time manager for simulations. ">
<polygon fill="#ffffff" stroke="#000000" points="968,-.5 968,-19.5 1072,-19.5 1072,-.5 968,-.5"/>
<text text-anchor="middle" x="1020" y="-7.5" font-family="Helvetica,sans-Serif" font-size="10.00" fill="#000000">amr_wind::SimTime</text>
</a>
</g>
</g>
<!-- Node14&#45;&gt;Node4 -->
<g id="edge11" class="edge">
<title>Node14&#45;&gt;Node4</title>
<path fill="none" stroke="#9a32cd" stroke-dasharray="5,2" d="M1064.3695,-22.7192C1070.3437,-24.6869 1076.355,-26.801 1082,-29 1119.3553,-43.552 1160.7705,-64.0391 1187.5309,-77.882"/>
<polygon fill="#9a32cd" stroke="#9a32cd" points="1065.012,-19.2509 1054.4216,-19.5568 1062.8912,-25.922 1065.012,-19.2509"/>
<text text-anchor="middle" x="1118" y="-55" font-family="Helvetica,sans-Serif" font-size="10.00" fill="#000000"> m_time</text>
</g>
<!-- Node15&#45;&gt;Node4 -->
<g id="edge12" class="edge">
<title>Node15&#45;&gt;Node4</title>
<path fill="none" stroke="#9a32cd" stroke-dasharray="5,2" d="M1091.8312,-68.2929C1112.1244,-72.3309 1134.033,-76.6902 1153.7151,-80.6066"/>
<polygon fill="#9a32cd" stroke="#9a32cd" points="1092.5064,-64.8588 1082.0156,-66.3398 1091.1403,-71.7242 1092.5064,-64.8588"/>
<text text-anchor="middle" x="1118" y="-79" font-family="Helvetica,sans-Serif" font-size="10.00" fill="#000000"> m_op</text>
</g>
</g>
</svg>
        <g id="navigator" transform="translate(0 0)" fill="#404254">
                <rect fill="#f2f5e9" fill-opacity="0.5" stroke="#606060" stroke-width=".5" x="0" y="0" width="60" height="60"/>
                <use id="zoomplus" xlink:href="#zoomPlus" x="17" y="9" onmousedown="handleZoom(evt,'in')"/>
                <use id="zoomminus" xlink:href="#zoomMin" x="42" y="9" onmousedown="handleZoom(evt,'out')"/>
                <use id="reset" xlink:href="#resetDef" x="30" y="36" onmousedown="handleReset()"/>
                <g id="arrowUp" xlink:href="#dirArrow" transform="translate(30 24)" onmousedown="handlePan(0,-1)">
                  <use xlink:href="#rim" fill="#404040">
                        <set attributeName="fill" to="#808080" begin="arrowUp.mouseover" end="arrowUp.mouseout"/>
                  </use>
                  <path fill="none" stroke="white" stroke-width="1.5" d="M0,-3.0v7 M-2.5,-0.5L0,-3.0L2.5,-0.5"/>
                </g>
                <g id="arrowRight" xlink:href="#dirArrow" transform="rotate(90) translate(36 -43)" onmousedown="handlePan(1,0)">
                  <use xlink:href="#rim" fill="#404040">
                        <set attributeName="fill" to="#808080" begin="arrowRight.mouseover" end="arrowRight.mouseout"/>
                  </use>
                  <path fill="none" stroke="white" stroke-width="1.5" d="M0,-3.0v7 M-2.5,-0.5L0,-3.0L2.5,-0.5"/>
                </g>
                <g id="arrowDown" xlink:href="#dirArrow" transform="rotate(180) translate(-30 -48)" onmousedown="handlePan(0,1)">
                  <use xlink:href="#rim" fill="#404040">
                        <set attributeName="fill" to="#808080" begin="arrowDown.mouseover" end="arrowDown.mouseout"/>
                  </use>
                  <path fill="none" stroke="white" stroke-width="1.5" d="M0,-3.0v7 M-2.5,-0.5L0,-3.0L2.5,-0.5"/>
                </g>
                <g id="arrowLeft" xlink:href="#dirArrow" transform="rotate(270) translate(-36 17)" onmousedown="handlePan(-1,0)">
                  <use xlink:href="#rim" fill="#404040">
                        <set attributeName="fill" to="#808080" begin="arrowLeft.mouseover" end="arrowLeft.mouseout"/>
                  </use>
                  <path fill="none" stroke="white" stroke-width="1.5" d="M0,-3.0v7 M-2.5,-0.5L0,-3.0L2.5,-0.5"/>
                </g>
        </g>
        <svg viewBox="0 0 15 15" width="100%" height="30px" preserveAspectRatio="xMaxYMin meet">
         <g id="arrow_out" transform="scale(0.3 0.3)">
          <a xlink:href="classamr__wind_1_1_field_fill_patch_ops__coll__graph_org.svg" target="_base">
           <rect id="button" ry="5" rx="5" y="6" x="6" height="38" width="38"
                fill="#f2f5e9" fill-opacity="0.5" stroke="#606060" stroke-width="1.0"/>
           <path id="arrow"
             d="M 11.500037,31.436501 C 11.940474,20.09759 22.043105,11.32322 32.158766,21.979434 L 37.068811,17.246167 C 37.068811,17.246167 37.088388,32 37.088388,32 L 22.160133,31.978069 C 22.160133,31.978069 26.997745,27.140456 26.997745,27.140456 C 18.528582,18.264221 13.291696,25.230495 11.500037,31.436501 z"
             style="fill:#404040;"/>
          </a>
         </g>
        </svg>
</svg>
