<?xml version="1.0" encoding="UTF-8" standalone="no"?>
<!DOCTYPE svg PUBLIC "-//W3C//DTD SVG 1.1//EN"
 "http://www.w3.org/Graphics/SVG/1.1/DTD/svg11.dtd">
<!-- Generated by graphviz version 2.40.1 (20161225.0304)
 -->
<!-- Title: amr_wind::actuator::ActModel&lt; ActTrait, SrcTrait &gt; Pages: 1 -->
<svg width="625pt" height="170pt"
 viewBox="0.00 0.00 625.00 170.00" xmlns="http://www.w3.org/2000/svg" xmlns:xlink="http://www.w3.org/1999/xlink">
<g id="graph0" class="graph" transform="scale(1 1) rotate(0) translate(4 166)">
<title>amr_wind::actuator::ActModel&lt; ActTrait, SrcTrait &gt;</title>
<polygon fill="#ffffff" stroke="transparent" points="-4,4 -4,-166 621,-166 621,4 -4,4"/>
<!-- Node2 -->
<g id="node1" class="node">
<title>Node2</title>
<polygon fill="#bfbfbf" stroke="#000000" points="507,-60.5 507,-101.5 617,-101.5 617,-60.5 507,-60.5"/>
<text text-anchor="start" x="515" y="-89.5" font-family="Helvetica,sans-Serif" font-size="10.00" fill="#000000">amr_wind::actuator</text>
<text text-anchor="start" x="515" y="-78.5" font-family="Helvetica,sans-Serif" font-size="10.00" fill="#000000">::ActModel&lt; ActTrait,</text>
<text text-anchor="middle" x="562" y="-67.5" font-family="Helvetica,sans-Serif" font-size="10.00" fill="#000000"> SrcTrait &gt;</text>
</g>
<!-- Node3 -->
<g id="node2" class="node">
<title>Node3</title>
<polygon fill="#ffffff" stroke="#bfbfbf" points="297,-120.5 297,-161.5 419,-161.5 419,-120.5 297,-120.5"/>
<text text-anchor="start" x="305" y="-149.5" font-family="Helvetica,sans-Serif" font-size="10.00" fill="#000000">ActuatorModel::Register</text>
<text text-anchor="start" x="305" y="-138.5" font-family="Helvetica,sans-Serif" font-size="10.00" fill="#000000">&lt; ActModel&lt; ActTrait,</text>
<text text-anchor="middle" x="358" y="-127.5" font-family="Helvetica,sans-Serif" font-size="10.00" fill="#000000"> SrcTrait &gt; &gt;</text>
</g>
<!-- Node3&#45;&gt;Node2 -->
<g id="edge1" class="edge">
<title>Node3&#45;&gt;Node2</title>
<path fill="none" stroke="#191970" d="M428.8308,-120.1674C454.3493,-112.662 482.7474,-104.3096 506.7421,-97.2523"/>
<polygon fill="#191970" stroke="#191970" points="427.8128,-116.8185 419.2067,-122.998 429.788,-123.5341 427.8128,-116.8185"/>
</g>
<!-- Node4 -->
<g id="node3" class="node">
<title>Node4</title>
<g id="a_node3"><a xlink:href="structamr__wind_1_1actuator_1_1ops_1_1_process_outputs_op.html" target="_top" xlink:title="amr_wind::actuator\l::ops::ProcessOutputsOp\l\&lt; ActTrait, SrcTrait \&gt;">
<polygon fill="#ffffff" stroke="#000000" points="294,-60.5 294,-101.5 422,-101.5 422,-60.5 294,-60.5"/>
<text text-anchor="start" x="302" y="-89.5" font-family="Helvetica,sans-Serif" font-size="10.00" fill="#000000">amr_wind::actuator</text>
<text text-anchor="start" x="302" y="-78.5" font-family="Helvetica,sans-Serif" font-size="10.00" fill="#000000">::ops::ProcessOutputsOp</text>
<text text-anchor="middle" x="358" y="-67.5" font-family="Helvetica,sans-Serif" font-size="10.00" fill="#000000">&lt; ActTrait, SrcTrait &gt;</text>
</a>
</g>
</g>
<!-- Node4&#45;&gt;Node2 -->
<g id="edge2" class="edge">
<title>Node4&#45;&gt;Node2</title>
<path fill="none" stroke="#9a32cd" stroke-dasharray="5,2" d="M432.3192,-81C457.0023,-81 484.0252,-81 506.9842,-81"/>
<polygon fill="#9a32cd" stroke="#9a32cd" points="432.2669,-77.5001 422.2669,-81 432.2668,-84.5001 432.2669,-77.5001"/>
<text text-anchor="middle" x="466" y="-84" font-family="Helvetica,sans-Serif" font-size="10.00" fill="#000000"> m_out_op</text>
</g>
<!-- Node5 -->
<g id="node4" class="node">
<title>Node5</title>
<g id="a_node4"><a xlink:href="structamr__wind_1_1actuator_1_1ops_1_1_process_outputs_op.html" target="_top" xlink:title="amr_wind::actuator\l::ops::ProcessOutputsOp\l\&lt; ActTrait, SrcTrait, typename \&gt;">
<polygon fill="#ffffff" stroke="#000000" points="0,-60.5 0,-101.5 158,-101.5 158,-60.5 0,-60.5"/>
<text text-anchor="start" x="8" y="-89.5" font-family="Helvetica,sans-Serif" font-size="10.00" fill="#000000">amr_wind::actuator</text>
<text text-anchor="start" x="8" y="-78.5" font-family="Helvetica,sans-Serif" font-size="10.00" fill="#000000">::ops::ProcessOutputsOp</text>
<text text-anchor="middle" x="79" y="-67.5" font-family="Helvetica,sans-Serif" font-size="10.00" fill="#000000">&lt; ActTrait, SrcTrait, typename &gt;</text>
</a>
</g>
</g>
<!-- Node5&#45;&gt;Node4 -->
<g id="edge3" class="edge">
<title>Node5&#45;&gt;Node4</title>
<path fill="none" stroke="#ffa500" stroke-dasharray="5,2" d="M168.4096,-81C209.149,-81 256.4608,-81 293.6305,-81"/>
<polygon fill="#ffa500" stroke="#ffa500" points="168.2039,-77.5001 158.2039,-81 168.2039,-84.5001 168.2039,-77.5001"/>
<text text-anchor="middle" x="224.5" y="-84" font-family="Helvetica,sans-Serif" font-size="10.00" fill="#000000"> &lt; ActTrait, SrcTrait &gt;</text>
</g>
<!-- Node6 -->
<g id="node5" class="node">
<title>Node6</title>
<g id="a_node5"><a xlink:href="classamr__wind_1_1actuator_1_1ops_1_1_act_src_op.html" target="_top" xlink:title="amr_wind::actuator\l::ops::ActSrcOp\&lt; ActTrait,\l SrcTrait \&gt;">
<polygon fill="#ffffff" stroke="#000000" points="291,-.5 291,-41.5 425,-41.5 425,-.5 291,-.5"/>
<text text-anchor="start" x="299" y="-29.5" font-family="Helvetica,sans-Serif" font-size="10.00" fill="#000000">amr_wind::actuator</text>
<text text-anchor="start" x="299" y="-18.5" font-family="Helvetica,sans-Serif" font-size="10.00" fill="#000000">::ops::ActSrcOp&lt; ActTrait,</text>
<text text-anchor="middle" x="358" y="-7.5" font-family="Helvetica,sans-Serif" font-size="10.00" fill="#000000"> SrcTrait &gt;</text>
</a>
</g>
</g>
<!-- Node6&#45;&gt;Node2 -->
<g id="edge4" class="edge">
<title>Node6&#45;&gt;Node2</title>
<path fill="none" stroke="#9a32cd" stroke-dasharray="5,2" d="M434.8406,-43.6002C458.7632,-50.6362 484.655,-58.2515 506.7926,-64.7625"/>
<polygon fill="#9a32cd" stroke="#9a32cd" points="435.661,-40.1933 425.0798,-40.7293 433.6858,-46.9089 435.661,-40.1933"/>
<text text-anchor="middle" x="466" y="-61" font-family="Helvetica,sans-Serif" font-size="10.00" fill="#000000"> m_src_op</text>
</g>
<!-- Node7 -->
<g id="node6" class="node">
<title>Node7</title>
<g id="a_node6"><a xlink:href="classamr__wind_1_1actuator_1_1ops_1_1_act_src_op.html" target="_top" xlink:title="Compute source term for the momentum equation. ">
<polygon fill="#ffffff" stroke="#000000" points="12,-.5 12,-41.5 146,-41.5 146,-.5 12,-.5"/>
<text text-anchor="start" x="20" y="-29.5" font-family="Helvetica,sans-Serif" font-size="10.00" fill="#000000">amr_wind::actuator</text>
<text text-anchor="start" x="20" y="-18.5" font-family="Helvetica,sans-Serif" font-size="10.00" fill="#000000">::ops::ActSrcOp&lt; ActTrait,</text>
<text text-anchor="middle" x="79" y="-7.5" font-family="Helvetica,sans-Serif" font-size="10.00" fill="#000000"> SrcTrait, typename &gt;</text>
</a>
</g>
</g>
<!-- Node7&#45;&gt;Node6 -->
<g id="edge5" class="edge">
<title>Node7&#45;&gt;Node6</title>
<path fill="none" stroke="#ffa500" stroke-dasharray="5,2" d="M156.4225,-21C198.6533,-21 250.4189,-21 290.9174,-21"/>
<polygon fill="#ffa500" stroke="#ffa500" points="156.1825,-17.5001 146.1825,-21 156.1825,-24.5001 156.1825,-17.5001"/>
<text text-anchor="middle" x="224.5" y="-24" font-family="Helvetica,sans-Serif" font-size="10.00" fill="#000000"> &lt; ActTrait, SrcTrait &gt;</text>
</g>
</g>
</svg>
