<?xml version="1.0" encoding="UTF-8" standalone="no"?>
<!DOCTYPE svg PUBLIC "-//W3C//DTD SVG 1.1//EN"
 "http://www.w3.org/Graphics/SVG/1.1/DTD/svg11.dtd">
<!-- Generated by graphviz version 2.40.1 (20161225.0304)
 -->
<!-- Title: exw_fast::FastIface Pages: 1 -->
<!--zoomable 312 -->
<svg id="main" version="1.1" xmlns="http://www.w3.org/2000/svg" xmlns:xlink="http://www.w3.org/1999/xlink" xml:space="preserve" onload="init(evt)">
<style type="text/css"><![CDATA[
.edge:hover path { stroke: red; }
.edge:hover polygon { stroke: red; fill: red; }
]]></style>
<script type="text/javascript"><![CDATA[
var edges = document.getElementsByTagName('g');
if (edges && edges.length) {
  for (var i=0;i<edges.length;i++) {
    if (edges[i].id.substr(0,4)=='edge') {
      edges[i].setAttribute('class','edge');
    }
  }
}
]]></script>
        <defs>
                <circle id="rim" cx="0" cy="0" r="7"/>
                <circle id="rim2" cx="0" cy="0" r="3.5"/>
                <g id="zoomPlus">
                        <use xlink:href="#rim" fill="#404040">
                                <set attributeName="fill" to="#808080" begin="zoomplus.mouseover" end="zoomplus.mouseout"/>
                        </use>
                        <path d="M-4,0h8M0,-4v8" fill="none" stroke="white" stroke-width="1.5" pointer-events="none"/>
                </g>
                <g id="zoomMin">
                        <use xlink:href="#rim" fill="#404040">
                                <set attributeName="fill" to="#808080" begin="zoomminus.mouseover" end="zoomminus.mouseout"/>
                        </use>
                        <path d="M-4,0h8" fill="none" stroke="white" stroke-width="1.5" pointer-events="none"/>
                </g>
                <g id="dirArrow">
                        <path fill="none" stroke="white" stroke-width="1.5" d="M0,-3.0v7 M-2.5,-0.5L0,-3.0L2.5,-0.5"/>
                </g>
               <g id="resetDef">
                       <use xlink:href="#rim2" fill="#404040">
                               <set attributeName="fill" to="#808080" begin="reset.mouseover" end="reset.mouseout"/>
                       </use>
               </g>
        </defs>

<script type="text/javascript">
var viewWidth = 990;
var viewHeight = 312;
var sectionId = 'dynsection-1';
</script>
<script xlink:href="svgpan.js"/>
<svg id="graph" class="graph">
<g id="viewport">
<title>exw_fast::FastIface</title>
<polygon fill="#ffffff" stroke="transparent" points="-4,4 -4,-307.5 986,-307.5 986,4 -4,4"/>
<!-- Node2 -->
<g id="node1" class="node">
<title>Node2</title>
<polygon fill="#bfbfbf" stroke="#000000" points="878,-161 878,-180 982,-180 982,-161 878,-161"/>
<text text-anchor="middle" x="930" y="-168" font-family="Helvetica,sans-Serif" font-size="10.00" fill="#000000">exw_fast::FastIface</text>
</g>
<!-- Node3 -->
<g id="node2" class="node">
<title>Node3</title>
<polygon fill="#ffffff" stroke="#bfbfbf" points="653,-219.5 653,-249.5 772,-249.5 772,-219.5 653,-219.5"/>
<text text-anchor="start" x="661" y="-237.5" font-family="Helvetica,sans-Serif" font-size="10.00" fill="#000000">amr_wind::ExtSolver</text>
<text text-anchor="middle" x="712.5" y="-226.5" font-family="Helvetica,sans-Serif" font-size="10.00" fill="#000000">::Register&lt; FastIface &gt;</text>
</g>
<!-- Node3&#45;&gt;Node2 -->
<g id="edge1" class="edge">
<title>Node3&#45;&gt;Node2</title>
<path fill="none" stroke="#191970" d="M782.2085,-218.8689C806.9578,-212.8319 834.8944,-205.4577 860,-197.5 876.0175,-192.4229 893.6668,-185.6067 907.2363,-180.0933"/>
<polygon fill="#191970" stroke="#191970" points="781.078,-215.5411 772.1761,-221.2861 782.7177,-222.3463 781.078,-215.5411"/>
</g>
<!-- Node4 -->
<g id="node3" class="node">
<title>Node4</title>
<polygon fill="#ffffff" stroke="#bfbfbf" points="662.5,-181 662.5,-200 762.5,-200 762.5,-181 662.5,-181"/>
<text text-anchor="middle" x="712.5" y="-188" font-family="Helvetica,sans-Serif" font-size="10.00" fill="#000000">std::map&lt; int, int &gt;</text>
</g>
<!-- Node4&#45;&gt;Node2 -->
<g id="edge2" class="edge">
<title>Node4&#45;&gt;Node2</title>
<path fill="none" stroke="#9a32cd" stroke-dasharray="5,2" d="M772.6526,-184.9687C805.6482,-181.9346 846.1578,-178.2096 877.8099,-175.2991"/>
<polygon fill="#9a32cd" stroke="#9a32cd" points="772.3095,-181.4854 762.672,-185.8865 772.9505,-188.456 772.3095,-181.4854"/>
<text text-anchor="middle" x="825" y="-185.5" font-family="Helvetica,sans-Serif" font-size="10.00" fill="#000000"> m_turbine_map</text>
</g>
<!-- Node5 -->
<g id="node4" class="node">
<title>Node5</title>
<g id="a_node4"><a xlink:title="STL class. ">
<polygon fill="#ffffff" stroke="#bfbfbf" points="391,-250 391,-269 483,-269 483,-250 391,-250"/>
<text text-anchor="middle" x="437" y="-257" font-family="Helvetica,sans-Serif" font-size="10.00" fill="#000000">std::map&lt; K, T &gt;</text>
</a>
</g>
</g>
<!-- Node5&#45;&gt;Node4 -->
<g id="edge3" class="edge">
<title>Node5&#45;&gt;Node4</title>
<path fill="none" stroke="#ffa500" stroke-dasharray="5,2" d="M485.0035,-247.4774C538.8319,-233.9958 625.0366,-212.4055 674.4302,-200.0347"/>
<polygon fill="#ffa500" stroke="#ffa500" points="483.8679,-244.1536 475.0178,-249.9783 485.5686,-250.9439 483.8679,-244.1536"/>
<text text-anchor="middle" x="573.5" y="-241.5" font-family="Helvetica,sans-Serif" font-size="10.00" fill="#000000"> &lt; int, int &gt;</text>
</g>
<!-- Node6 -->
<g id="node5" class="node">
<title>Node6</title>
<polygon fill="#ffffff" stroke="#bfbfbf" points="190.5,-284 190.5,-303 219.5,-303 219.5,-284 190.5,-284"/>
<text text-anchor="middle" x="205" y="-291" font-family="Helvetica,sans-Serif" font-size="10.00" fill="#000000">K</text>
</g>
<!-- Node6&#45;&gt;Node5 -->
<g id="edge4" class="edge">
<title>Node6&#45;&gt;Node5</title>
<path fill="none" stroke="#9a32cd" stroke-dasharray="5,2" d="M229.7476,-289.8732C268.0625,-284.2581 342.3643,-273.369 390.8066,-266.2697"/>
<polygon fill="#9a32cd" stroke="#9a32cd" points="228.8994,-286.46 219.5126,-291.3731 229.9145,-293.386 228.8994,-286.46"/>
<text text-anchor="middle" x="329" y="-282.5" font-family="Helvetica,sans-Serif" font-size="10.00" fill="#000000"> keys</text>
</g>
<!-- Node7 -->
<g id="node6" class="node">
<title>Node7</title>
<polygon fill="#ffffff" stroke="#bfbfbf" points="190.5,-235 190.5,-254 219.5,-254 219.5,-235 190.5,-235"/>
<text text-anchor="middle" x="205" y="-242" font-family="Helvetica,sans-Serif" font-size="10.00" fill="#000000">T</text>
</g>
<!-- Node7&#45;&gt;Node5 -->
<g id="edge5" class="edge">
<title>Node7&#45;&gt;Node5</title>
<path fill="none" stroke="#9a32cd" stroke-dasharray="5,2" d="M229.7476,-246.1001C268.0625,-248.5773 342.3643,-253.3813 390.8066,-256.5134"/>
<polygon fill="#9a32cd" stroke="#9a32cd" points="229.7177,-242.5909 219.5126,-245.4383 229.2659,-249.5763 229.7177,-242.5909"/>
<text text-anchor="middle" x="329" y="-257.5" font-family="Helvetica,sans-Serif" font-size="10.00" fill="#000000"> elements</text>
</g>
<!-- Node16 -->
<g id="node15" class="node">
<title>Node16</title>
<g id="a_node15"><a xlink:title="STL class. ">
<polygon fill="#ffffff" stroke="#bfbfbf" points="393.5,-196 393.5,-215 480.5,-215 480.5,-196 393.5,-196"/>
<text text-anchor="middle" x="437" y="-203" font-family="Helvetica,sans-Serif" font-size="10.00" fill="#000000">std::vector&lt; T &gt;</text>
</a>
</g>
</g>
<!-- Node7&#45;&gt;Node16 -->
<g id="edge16" class="edge">
<title>Node7&#45;&gt;Node16</title>
<path fill="none" stroke="#9a32cd" stroke-dasharray="5,2" d="M229.4153,-240.3957C268.2489,-233.8676 344.6439,-221.0254 393.141,-212.8728"/>
<polygon fill="#9a32cd" stroke="#9a32cd" points="228.794,-236.9509 219.5126,-242.0604 229.9545,-243.8541 228.794,-236.9509"/>
<text text-anchor="middle" x="329" y="-230.5" font-family="Helvetica,sans-Serif" font-size="10.00" fill="#000000"> elements</text>
</g>
<!-- Node8 -->
<g id="node7" class="node">
<title>Node8</title>
<g id="a_node7"><a xlink:title="STL class. ">
<polygon fill="#ffffff" stroke="#bfbfbf" points="175,-6 175,-25 235,-25 235,-6 175,-6"/>
<text text-anchor="middle" x="205" y="-13" font-family="Helvetica,sans-Serif" font-size="10.00" fill="#000000">std::string</text>
</a>
</g>
</g>
<!-- Node8&#45;&gt;Node2 -->
<g id="edge6" class="edge">
<title>Node8&#45;&gt;Node2</title>
<path fill="none" stroke="#9a32cd" stroke-dasharray="5,2" d="M245.4804,-17.9657C277.2904,-20.2407 322.6441,-24.2298 362,-30.5 546.4274,-59.8832 591.4199,-74.8801 772,-122.5 817.3235,-134.452 869.2018,-150.7165 900.7746,-160.9097"/>
<polygon fill="#9a32cd" stroke="#9a32cd" points="245.4573,-14.4559 235.2401,-17.2591 244.9754,-21.4393 245.4573,-14.4559"/>
<text text-anchor="middle" x="573.5" y="-88.5" font-family="Helvetica,sans-Serif" font-size="10.00" fill="#000000"> m_output_dir</text>
</g>
<!-- Node11 -->
<g id="node10" class="node">
<title>Node11</title>
<g id="a_node10"><a xlink:href="structexw__fast_1_1_fast_turbine.html" target="_top" xlink:title="Representation of a turbine for exchanging data with FAST. ">
<polygon fill="#ffffff" stroke="#000000" points="380,-116 380,-135 494,-135 494,-116 380,-116"/>
<text text-anchor="middle" x="437" y="-123" font-family="Helvetica,sans-Serif" font-size="10.00" fill="#000000">exw_fast::FastTurbine</text>
</a>
</g>
</g>
<!-- Node8&#45;&gt;Node11 -->
<g id="edge13" class="edge">
<title>Node8&#45;&gt;Node11</title>
<path fill="none" stroke="#9a32cd" stroke-dasharray="5,2" d="M245.3438,-21.2778C278.2505,-27.1978 325.1506,-38.454 362,-58.5 389.9138,-73.6851 416.0451,-101.1428 428.8198,-115.748"/>
<polygon fill="#9a32cd" stroke="#9a32cd" points="245.6291,-17.7758 235.182,-19.5388 244.4483,-24.6755 245.6291,-17.7758"/>
<text text-anchor="middle" x="329" y="-83.5" font-family="Helvetica,sans-Serif" font-size="10.00" fill="#000000"> tlabel</text>
<text text-anchor="middle" x="329" y="-72.5" font-family="Helvetica,sans-Serif" font-size="10.00" fill="#000000">input_file</text>
<text text-anchor="middle" x="329" y="-61.5" font-family="Helvetica,sans-Serif" font-size="10.00" fill="#000000">checkpoint_file</text>
</g>
<!-- Node9 -->
<g id="node8" class="node">
<title>Node9</title>
<g id="a_node8"><a xlink:title="STL class. ">
<polygon fill="#ffffff" stroke="#bfbfbf" points="0,-.5 0,-30.5 95,-30.5 95,-.5 0,-.5"/>
<text text-anchor="start" x="8" y="-18.5" font-family="Helvetica,sans-Serif" font-size="10.00" fill="#000000">std::basic_string&lt;</text>
<text text-anchor="middle" x="47.5" y="-7.5" font-family="Helvetica,sans-Serif" font-size="10.00" fill="#000000"> char &gt;</text>
</a>
</g>
</g>
<!-- Node9&#45;&gt;Node8 -->
<g id="edge7" class="edge">
<title>Node9&#45;&gt;Node8</title>
<path fill="none" stroke="#191970" d="M105.4324,-15.5C128.9842,-15.5 155.2122,-15.5 174.8348,-15.5"/>
<polygon fill="#191970" stroke="#191970" points="105.1826,-12.0001 95.1826,-15.5 105.1826,-19.0001 105.1826,-12.0001"/>
</g>
<!-- Node10 -->
<g id="node9" class="node">
<title>Node10</title>
<polygon fill="#ffffff" stroke="#bfbfbf" points="656.5,-131.5 656.5,-161.5 768.5,-161.5 768.5,-131.5 656.5,-131.5"/>
<text text-anchor="start" x="664.5" y="-149.5" font-family="Helvetica,sans-Serif" font-size="10.00" fill="#000000">std::vector&lt; exw_fast</text>
<text text-anchor="middle" x="712.5" y="-138.5" font-family="Helvetica,sans-Serif" font-size="10.00" fill="#000000">::FastTurbine *&gt;</text>
</g>
<!-- Node10&#45;&gt;Node2 -->
<g id="edge8" class="edge">
<title>Node10&#45;&gt;Node2</title>
<path fill="none" stroke="#9a32cd" stroke-dasharray="5,2" d="M778.8355,-152.8682C804.2398,-155.4061 833.4802,-158.4472 860,-161.5 865.721,-162.1586 871.7009,-162.8787 877.6516,-163.6155"/>
<polygon fill="#9a32cd" stroke="#9a32cd" points="778.8676,-149.3543 768.5707,-151.8492 778.176,-156.32 778.8676,-149.3543"/>
<text text-anchor="middle" x="825" y="-164.5" font-family="Helvetica,sans-Serif" font-size="10.00" fill="#000000"> m_turbine_data</text>
</g>
<!-- Node11&#45;&gt;Node10 -->
<g id="edge9" class="edge">
<title>Node11&#45;&gt;Node10</title>
<path fill="none" stroke="#9a32cd" stroke-dasharray="5,2" d="M504.1104,-130.6155C550.8076,-134.175 612.3536,-138.8663 656.432,-142.2262"/>
<polygon fill="#9a32cd" stroke="#9a32cd" points="504.3209,-127.1215 494.0838,-129.8512 503.7888,-134.1012 504.3209,-127.1215"/>
<text text-anchor="middle" x="573.5" y="-142.5" font-family="Helvetica,sans-Serif" font-size="10.00" fill="#000000"> elements</text>
</g>
<!-- Node12 -->
<g id="node11" class="node">
<title>Node12</title>
<g id="a_node11"><a xlink:href="structexw__fast_1_1_op_f_m___output_type.html" target="_top" xlink:title="exw_fast::OpFM_OutputType">
<polygon fill="#ffffff" stroke="#000000" points="132,-187 132,-206 278,-206 278,-187 132,-187"/>
<text text-anchor="middle" x="205" y="-194" font-family="Helvetica,sans-Serif" font-size="10.00" fill="#000000">exw_fast::OpFM_OutputType</text>
</a>
</g>
</g>
<!-- Node12&#45;&gt;Node11 -->
<g id="edge10" class="edge">
<title>Node12&#45;&gt;Node11</title>
<path fill="none" stroke="#9a32cd" stroke-dasharray="5,2" d="M266.7018,-184.8567C295.96,-178.6035 331.1765,-170.0073 362,-159.5 381.8916,-152.7192 403.6685,-142.515 418.6067,-135.0548"/>
<polygon fill="#9a32cd" stroke="#9a32cd" points="265.6877,-181.4931 256.6183,-186.9701 267.1237,-188.3442 265.6877,-181.4931"/>
<text text-anchor="middle" x="329" y="-180.5" font-family="Helvetica,sans-Serif" font-size="10.00" fill="#000000"> from_cfd</text>
</g>
<!-- Node13 -->
<g id="node12" class="node">
<title>Node13</title>
<g id="a_node12"><a xlink:href="structexw__fast_1_1_s_c___output_type.html" target="_top" xlink:title="exw_fast::SC_OutputType">
<polygon fill="#ffffff" stroke="#000000" points="138.5,-149 138.5,-168 271.5,-168 271.5,-149 138.5,-149"/>
<text text-anchor="middle" x="205" y="-156" font-family="Helvetica,sans-Serif" font-size="10.00" fill="#000000">exw_fast::SC_OutputType</text>
</a>
</g>
</g>
<!-- Node13&#45;&gt;Node11 -->
<g id="edge11" class="edge">
<title>Node13&#45;&gt;Node11</title>
<path fill="none" stroke="#9a32cd" stroke-dasharray="5,2" d="M281.9785,-147.5505C313.877,-143.0132 350.2314,-137.8421 379.7139,-133.6485"/>
<polygon fill="#9a32cd" stroke="#9a32cd" points="281.2002,-144.1259 271.7928,-148.9993 282.186,-151.0561 281.2002,-144.1259"/>
<text text-anchor="middle" x="329" y="-147.5" font-family="Helvetica,sans-Serif" font-size="10.00" fill="#000000"> from_sc</text>
</g>
<!-- Node14 -->
<g id="node13" class="node">
<title>Node14</title>
<g id="a_node13"><a xlink:href="structexw__fast_1_1_op_f_m___input_type.html" target="_top" xlink:title="exw_fast::OpFM_InputType">
<polygon fill="#ffffff" stroke="#000000" points="136,-111 136,-130 274,-130 274,-111 136,-111"/>
<text text-anchor="middle" x="205" y="-118" font-family="Helvetica,sans-Serif" font-size="10.00" fill="#000000">exw_fast::OpFM_InputType</text>
</a>
</g>
</g>
<!-- Node14&#45;&gt;Node11 -->
<g id="edge12" class="edge">
<title>Node14&#45;&gt;Node11</title>
<path fill="none" stroke="#9a32cd" stroke-dasharray="5,2" d="M284.3177,-122.2094C315.6648,-122.885 350.9959,-123.6465 379.7703,-124.2666"/>
<polygon fill="#9a32cd" stroke="#9a32cd" points="284.3665,-118.7098 274.2934,-121.9934 284.2156,-125.7081 284.3665,-118.7098"/>
<text text-anchor="middle" x="329" y="-126.5" font-family="Helvetica,sans-Serif" font-size="10.00" fill="#000000"> to_cfd</text>
</g>
<!-- Node15 -->
<g id="node14" class="node">
<title>Node15</title>
<g id="a_node14"><a xlink:href="structexw__fast_1_1_s_c___input_type.html" target="_top" xlink:title="exw_fast::SC_InputType">
<polygon fill="#ffffff" stroke="#000000" points="142.5,-73 142.5,-92 267.5,-92 267.5,-73 142.5,-73"/>
<text text-anchor="middle" x="205" y="-80" font-family="Helvetica,sans-Serif" font-size="10.00" fill="#000000">exw_fast::SC_InputType</text>
</a>
</g>
</g>
<!-- Node15&#45;&gt;Node11 -->
<g id="edge14" class="edge">
<title>Node15&#45;&gt;Node11</title>
<path fill="none" stroke="#9a32cd" stroke-dasharray="5,2" d="M277.8353,-92.8935C304.4054,-97.002 334.6381,-102.0466 362,-107.5 374.3444,-109.9603 387.7353,-113.0407 399.74,-115.9541"/>
<polygon fill="#9a32cd" stroke="#9a32cd" points="278.2592,-89.4178 267.845,-91.3659 277.201,-96.3373 278.2592,-89.4178"/>
<text text-anchor="middle" x="329" y="-110.5" font-family="Helvetica,sans-Serif" font-size="10.00" fill="#000000"> to_sc</text>
</g>
<!-- Node16&#45;&gt;Node10 -->
<g id="edge15" class="edge">
<title>Node16&#45;&gt;Node10</title>
<path fill="none" stroke="#ffa500" stroke-dasharray="5,2" d="M490.4774,-194.0475C538.1409,-183.8401 607.6665,-168.9507 656.176,-158.5621"/>
<polygon fill="#ffa500" stroke="#ffa500" points="489.6991,-190.6347 480.6538,-196.1513 491.165,-197.4795 489.6991,-190.6347"/>
<text text-anchor="middle" x="573.5" y="-190.5" font-family="Helvetica,sans-Serif" font-size="10.00" fill="#000000"> &lt; exw_fast::FastTurbine *&gt;</text>
</g>
</g>
</svg>
        <g id="navigator" transform="translate(0 0)" fill="#404254">
                <rect fill="#f2f5e9" fill-opacity="0.5" stroke="#606060" stroke-width=".5" x="0" y="0" width="60" height="60"/>
                <use id="zoomplus" xlink:href="#zoomPlus" x="17" y="9" onmousedown="handleZoom(evt,'in')"/>
                <use id="zoomminus" xlink:href="#zoomMin" x="42" y="9" onmousedown="handleZoom(evt,'out')"/>
                <use id="reset" xlink:href="#resetDef" x="30" y="36" onmousedown="handleReset()"/>
                <g id="arrowUp" xlink:href="#dirArrow" transform="translate(30 24)" onmousedown="handlePan(0,-1)">
                  <use xlink:href="#rim" fill="#404040">
                        <set attributeName="fill" to="#808080" begin="arrowUp.mouseover" end="arrowUp.mouseout"/>
                  </use>
                  <path fill="none" stroke="white" stroke-width="1.5" d="M0,-3.0v7 M-2.5,-0.5L0,-3.0L2.5,-0.5"/>
                </g>
                <g id="arrowRight" xlink:href="#dirArrow" transform="rotate(90) translate(36 -43)" onmousedown="handlePan(1,0)">
                  <use xlink:href="#rim" fill="#404040">
                        <set attributeName="fill" to="#808080" begin="arrowRight.mouseover" end="arrowRight.mouseout"/>
                  </use>
                  <path fill="none" stroke="white" stroke-width="1.5" d="M0,-3.0v7 M-2.5,-0.5L0,-3.0L2.5,-0.5"/>
                </g>
                <g id="arrowDown" xlink:href="#dirArrow" transform="rotate(180) translate(-30 -48)" onmousedown="handlePan(0,1)">
                  <use xlink:href="#rim" fill="#404040">
                        <set attributeName="fill" to="#808080" begin="arrowDown.mouseover" end="arrowDown.mouseout"/>
                  </use>
                  <path fill="none" stroke="white" stroke-width="1.5" d="M0,-3.0v7 M-2.5,-0.5L0,-3.0L2.5,-0.5"/>
                </g>
                <g id="arrowLeft" xlink:href="#dirArrow" transform="rotate(270) translate(-36 17)" onmousedown="handlePan(-1,0)">
                  <use xlink:href="#rim" fill="#404040">
                        <set attributeName="fill" to="#808080" begin="arrowLeft.mouseover" end="arrowLeft.mouseout"/>
                  </use>
                  <path fill="none" stroke="white" stroke-width="1.5" d="M0,-3.0v7 M-2.5,-0.5L0,-3.0L2.5,-0.5"/>
                </g>
        </g>
        <svg viewBox="0 0 15 15" width="100%" height="30px" preserveAspectRatio="xMaxYMin meet">
         <g id="arrow_out" transform="scale(0.3 0.3)">
          <a xlink:href="classexw__fast_1_1_fast_iface__coll__graph_org.svg" target="_base">
           <rect id="button" ry="5" rx="5" y="6" x="6" height="38" width="38"
                fill="#f2f5e9" fill-opacity="0.5" stroke="#606060" stroke-width="1.0"/>
           <path id="arrow"
             d="M 11.500037,31.436501 C 11.940474,20.09759 22.043105,11.32322 32.158766,21.979434 L 37.068811,17.246167 C 37.068811,17.246167 37.088388,32 37.088388,32 L 22.160133,31.978069 C 22.160133,31.978069 26.997745,27.140456 26.997745,27.140456 C 18.528582,18.264221 13.291696,25.230495 11.500037,31.436501 z"
             style="fill:#404040;"/>
          </a>
         </g>
        </svg>
</svg>
