<?xml version="1.0" encoding="UTF-8" standalone="no"?>
<!DOCTYPE svg PUBLIC "-//W3C//DTD SVG 1.1//EN"
 "http://www.w3.org/Graphics/SVG/1.1/DTD/svg11.dtd">
<!-- Generated by graphviz version 2.40.1 (20161225.0304)
 -->
<!-- Title: amr_wind::ExtSolverMgr Pages: 1 -->
<svg width="1179pt" height="116pt"
 viewBox="0.00 0.00 1179.00 115.50" xmlns="http://www.w3.org/2000/svg" xmlns:xlink="http://www.w3.org/1999/xlink">
<g id="graph0" class="graph" transform="scale(1 1) rotate(0) translate(4 111.5)">
<title>amr_wind::ExtSolverMgr</title>
<polygon fill="#ffffff" stroke="transparent" points="-4,4 -4,-111.5 1175,-111.5 1175,4 -4,4"/>
<!-- Node3 -->
<g id="node1" class="node">
<title>Node3</title>
<polygon fill="#bfbfbf" stroke="#000000" points="1047,-60.5 1047,-79.5 1171,-79.5 1171,-60.5 1047,-60.5"/>
<text text-anchor="middle" x="1109" y="-67.5" font-family="Helvetica,sans-Serif" font-size="10.00" fill="#000000">amr_wind::ExtSolverMgr</text>
</g>
<!-- Node4 -->
<g id="node2" class="node">
<title>Node4</title>
<g id="a_node2"><a xlink:href="classamr__wind_1_1_coll_mgr.html" target="_top" xlink:title="amr_wind::CollMgr\&lt;\l ExtSolverMgr, ExtSolver \&gt;">
<polygon fill="#ffffff" stroke="#000000" points="873,-55 873,-85 1010,-85 1010,-55 873,-55"/>
<text text-anchor="start" x="881" y="-73" font-family="Helvetica,sans-Serif" font-size="10.00" fill="#000000">amr_wind::CollMgr&lt;</text>
<text text-anchor="middle" x="941.5" y="-62" font-family="Helvetica,sans-Serif" font-size="10.00" fill="#000000"> ExtSolverMgr, ExtSolver &gt;</text>
</a>
</g>
</g>
<!-- Node4&#45;&gt;Node3 -->
<g id="edge1" class="edge">
<title>Node4&#45;&gt;Node3</title>
<path fill="none" stroke="#191970" d="M1020.1944,-70C1029.1734,-70 1038.2302,-70 1046.9499,-70"/>
<polygon fill="#191970" stroke="#191970" points="1020.112,-66.5001 1010.112,-70 1020.1119,-73.5001 1020.112,-66.5001"/>
</g>
<!-- Node5 -->
<g id="node3" class="node">
<title>Node5</title>
<polygon fill="#ffffff" stroke="#bfbfbf" points="395,-55 395,-85 498,-85 498,-55 395,-55"/>
<text text-anchor="start" x="403" y="-73" font-family="Helvetica,sans-Serif" font-size="10.00" fill="#000000">std::unordered_map</text>
<text text-anchor="middle" x="446.5" y="-62" font-family="Helvetica,sans-Serif" font-size="10.00" fill="#000000">&lt; std::string, int &gt;</text>
</g>
<!-- Node5&#45;&gt;Node4 -->
<g id="edge2" class="edge">
<title>Node5&#45;&gt;Node4</title>
<path fill="none" stroke="#9a32cd" stroke-dasharray="5,2" d="M508.2611,-73.7086C510.8752,-73.8169 513.4634,-73.9149 516,-74 666.5846,-79.051 704.421,-81.2161 855,-76 860.7169,-75.802 866.6425,-75.5305 872.5889,-75.2118"/>
<polygon fill="#9a32cd" stroke="#9a32cd" points="508.2524,-70.2046 498.1034,-73.2457 507.9337,-77.1974 508.2524,-70.2046"/>
<text text-anchor="middle" x="647.5" y="-81" font-family="Helvetica,sans-Serif" font-size="10.00" fill="#000000"> m_obj_map</text>
</g>
<!-- Node11 -->
<g id="node9" class="node">
<title>Node11</title>
<g id="a_node9"><a xlink:href="classamr__wind_1_1_coll_mgr.html" target="_top" xlink:title="Interface to manage objects of sub&#45;classes based on factory registrationProvides boiler&#45;plate code to...">
<polygon fill="#ffffff" stroke="#000000" points="588,-20.5 588,-61.5 707,-61.5 707,-20.5 588,-20.5"/>
<text text-anchor="start" x="596" y="-49.5" font-family="Helvetica,sans-Serif" font-size="10.00" fill="#000000">amr_wind::CollMgr&lt;</text>
<text text-anchor="start" x="596" y="-38.5" font-family="Helvetica,sans-Serif" font-size="10.00" fill="#000000"> Collection, Type, allow</text>
<text text-anchor="middle" x="647.5" y="-27.5" font-family="Helvetica,sans-Serif" font-size="10.00" fill="#000000">_duplicates &gt;</text>
</a>
</g>
</g>
<!-- Node5&#45;&gt;Node11 -->
<g id="edge9" class="edge">
<title>Node5&#45;&gt;Node11</title>
<path fill="none" stroke="#9a32cd" stroke-dasharray="5,2" d="M507.8991,-61.1414C533.3258,-57.4729 562.7086,-53.2336 587.9392,-49.5933"/>
<polygon fill="#9a32cd" stroke="#9a32cd" points="507.3992,-57.6772 498.0015,-62.5694 508.3988,-64.6055 507.3992,-57.6772"/>
<text text-anchor="middle" x="543" y="-62" font-family="Helvetica,sans-Serif" font-size="10.00" fill="#000000"> m_obj_map</text>
</g>
<!-- Node6 -->
<g id="node4" class="node">
<title>Node6</title>
<g id="a_node4"><a xlink:title="STL class. ">
<polygon fill="#ffffff" stroke="#bfbfbf" points="195.5,-82.5 195.5,-101.5 255.5,-101.5 255.5,-82.5 195.5,-82.5"/>
<text text-anchor="middle" x="225.5" y="-89.5" font-family="Helvetica,sans-Serif" font-size="10.00" fill="#000000">std::string</text>
</a>
</g>
</g>
<!-- Node6&#45;&gt;Node5 -->
<g id="edge3" class="edge">
<title>Node6&#45;&gt;Node5</title>
<path fill="none" stroke="#9a32cd" stroke-dasharray="5,2" d="M265.9456,-87.9737C302.1026,-84.3744 355.2895,-79.0798 394.5784,-75.1687"/>
<polygon fill="#9a32cd" stroke="#9a32cd" points="265.3698,-84.5137 255.7657,-88.9871 266.0633,-91.4792 265.3698,-84.5137"/>
<text text-anchor="middle" x="336" y="-87" font-family="Helvetica,sans-Serif" font-size="10.00" fill="#000000"> keys</text>
</g>
<!-- Node7 -->
<g id="node5" class="node">
<title>Node7</title>
<g id="a_node5"><a xlink:title="STL class. ">
<polygon fill="#ffffff" stroke="#bfbfbf" points="0,-77 0,-107 95,-107 95,-77 0,-77"/>
<text text-anchor="start" x="8" y="-95" font-family="Helvetica,sans-Serif" font-size="10.00" fill="#000000">std::basic_string&lt;</text>
<text text-anchor="middle" x="47.5" y="-84" font-family="Helvetica,sans-Serif" font-size="10.00" fill="#000000"> char &gt;</text>
</a>
</g>
</g>
<!-- Node7&#45;&gt;Node6 -->
<g id="edge4" class="edge">
<title>Node7&#45;&gt;Node6</title>
<path fill="none" stroke="#191970" d="M105.5446,-92C135.493,-92 170.7833,-92 195.3,-92"/>
<polygon fill="#191970" stroke="#191970" points="105.2008,-88.5001 95.2007,-92 105.2007,-95.5001 105.2008,-88.5001"/>
</g>
<!-- Node8 -->
<g id="node6" class="node">
<title>Node8</title>
<g id="a_node6"><a xlink:title="STL class. ">
<polygon fill="#ffffff" stroke="#bfbfbf" points="174,-33 174,-63 277,-63 277,-33 174,-33"/>
<text text-anchor="start" x="182" y="-51" font-family="Helvetica,sans-Serif" font-size="10.00" fill="#000000">std::unordered_map</text>
<text text-anchor="middle" x="225.5" y="-40" font-family="Helvetica,sans-Serif" font-size="10.00" fill="#000000">&lt; K, T &gt;</text>
</a>
</g>
</g>
<!-- Node8&#45;&gt;Node5 -->
<g id="edge5" class="edge">
<title>Node8&#45;&gt;Node5</title>
<path fill="none" stroke="#ffa500" stroke-dasharray="5,2" d="M287.3226,-53.3966C314.7986,-55.8766 347.5294,-58.9426 377,-62 382.7988,-62.6016 388.8664,-63.2588 394.8981,-63.9297"/>
<polygon fill="#ffa500" stroke="#ffa500" points="287.3401,-49.8842 277.0672,-52.4761 286.7142,-56.8562 287.3401,-49.8842"/>
<text text-anchor="middle" x="336" y="-65" font-family="Helvetica,sans-Serif" font-size="10.00" fill="#000000"> &lt; std::string, int &gt;</text>
</g>
<!-- Node9 -->
<g id="node7" class="node">
<title>Node9</title>
<polygon fill="#ffffff" stroke="#bfbfbf" points="33,-38.5 33,-57.5 62,-57.5 62,-38.5 33,-38.5"/>
<text text-anchor="middle" x="47.5" y="-45.5" font-family="Helvetica,sans-Serif" font-size="10.00" fill="#000000">K</text>
</g>
<!-- Node9&#45;&gt;Node8 -->
<g id="edge6" class="edge">
<title>Node9&#45;&gt;Node8</title>
<path fill="none" stroke="#9a32cd" stroke-dasharray="5,2" d="M72.243,-48C98.425,-48 140.4972,-48 173.9422,-48"/>
<polygon fill="#9a32cd" stroke="#9a32cd" points="72.0665,-44.5001 62.0665,-48 72.0665,-51.5001 72.0665,-44.5001"/>
<text text-anchor="middle" x="134.5" y="-51" font-family="Helvetica,sans-Serif" font-size="10.00" fill="#000000"> keys</text>
</g>
<!-- Node10 -->
<g id="node8" class="node">
<title>Node10</title>
<polygon fill="#ffffff" stroke="#bfbfbf" points="33,-.5 33,-19.5 62,-19.5 62,-.5 33,-.5"/>
<text text-anchor="middle" x="47.5" y="-7.5" font-family="Helvetica,sans-Serif" font-size="10.00" fill="#000000">T</text>
</g>
<!-- Node10&#45;&gt;Node8 -->
<g id="edge7" class="edge">
<title>Node10&#45;&gt;Node8</title>
<path fill="none" stroke="#9a32cd" stroke-dasharray="5,2" d="M72.0812,-15.1838C94.0758,-19.8287 127.1969,-26.8389 156,-33 161.794,-34.2393 167.8585,-35.5413 173.8886,-36.8388"/>
<polygon fill="#9a32cd" stroke="#9a32cd" points="72.7525,-11.7485 62.2452,-13.1078 71.3068,-18.5976 72.7525,-11.7485"/>
<text text-anchor="middle" x="134.5" y="-36" font-family="Helvetica,sans-Serif" font-size="10.00" fill="#000000"> elements</text>
</g>
<!-- Node11&#45;&gt;Node4 -->
<g id="edge8" class="edge">
<title>Node11&#45;&gt;Node4</title>
<path fill="none" stroke="#ffa500" stroke-dasharray="5,2" d="M717.4575,-47.9006C764.5059,-52.5414 826.2313,-58.63 872.9773,-63.241"/>
<polygon fill="#ffa500" stroke="#ffa500" points="717.645,-44.4022 707.3497,-46.9035 716.9578,-51.3684 717.645,-44.4022"/>
<text text-anchor="middle" x="790" y="-64" font-family="Helvetica,sans-Serif" font-size="10.00" fill="#000000"> &lt; ExtSolverMgr, ExtSolver &gt;</text>
</g>
</g>
</svg>
