<?xml version="1.0" encoding="UTF-8" standalone="no"?>
<!DOCTYPE svg PUBLIC "-//W3C//DTD SVG 1.1//EN"
 "http://www.w3.org/Graphics/SVG/1.1/DTD/svg11.dtd">
<!-- Generated by graphviz version 2.40.1 (20161225.0304)
 -->
<!-- Title: amr_wind::actuator::ActuatorModel Pages: 1 -->
<svg width="192pt" height="229pt"
 viewBox="0.00 0.00 191.50 229.00" xmlns="http://www.w3.org/2000/svg" xmlns:xlink="http://www.w3.org/1999/xlink">
<g id="graph0" class="graph" transform="scale(1 1) rotate(0) translate(4 225)">
<title>amr_wind::actuator::ActuatorModel</title>
<polygon fill="#ffffff" stroke="transparent" points="-4,4 -4,-225 187.5,-225 187.5,4 -4,4"/>
<!-- Node0 -->
<g id="node1" class="node">
<title>Node0</title>
<polygon fill="#bfbfbf" stroke="#000000" points="13.5,-.5 13.5,-30.5 113.5,-30.5 113.5,-.5 13.5,-.5"/>
<text text-anchor="start" x="21.5" y="-18.5" font-family="Helvetica,sans-Serif" font-size="10.00" fill="#000000">amr_wind::actuator</text>
<text text-anchor="middle" x="63.5" y="-7.5" font-family="Helvetica,sans-Serif" font-size="10.00" fill="#000000">::ActuatorModel</text>
</g>
<!-- Node1 -->
<g id="node2" class="node">
<title>Node1</title>
<g id="a_node2"><a xlink:href="structamr__wind_1_1_factory.html" target="_top" xlink:title="amr_wind::Factory\&lt;\l ActuatorModel, CFDSim\l &amp;, const std::string\l &amp;, const int \&gt;">
<polygon fill="#ffffff" stroke="#000000" points="0,-68.5 0,-120.5 127,-120.5 127,-68.5 0,-68.5"/>
<text text-anchor="start" x="8" y="-108.5" font-family="Helvetica,sans-Serif" font-size="10.00" fill="#000000">amr_wind::Factory&lt;</text>
<text text-anchor="start" x="8" y="-97.5" font-family="Helvetica,sans-Serif" font-size="10.00" fill="#000000"> ActuatorModel, CFDSim</text>
<text text-anchor="start" x="8" y="-86.5" font-family="Helvetica,sans-Serif" font-size="10.00" fill="#000000"> &amp;, const std::string</text>
<text text-anchor="middle" x="63.5" y="-75.5" font-family="Helvetica,sans-Serif" font-size="10.00" fill="#000000"> &amp;, const int &gt;</text>
</a>
</g>
</g>
<!-- Node1&#45;&gt;Node0 -->
<g id="edge1" class="edge">
<title>Node1&#45;&gt;Node0</title>
<path fill="none" stroke="#191970" d="M63.5,-58.0152C63.5,-48.4501 63.5,-38.648 63.5,-30.8696"/>
<polygon fill="#191970" stroke="#191970" points="60.0001,-58.1941 63.5,-68.1941 67.0001,-58.1942 60.0001,-58.1941"/>
</g>
<!-- Node2 -->
<g id="node3" class="node">
<title>Node2</title>
<g id="a_node3"><a xlink:href="structamr__wind_1_1_factory.html" target="_top" xlink:title="Runtime selection of options based on string keyword lookupFactory provides an automated way to regis...">
<polygon fill="#ffffff" stroke="#000000" points="11.5,-190.5 11.5,-220.5 115.5,-220.5 115.5,-190.5 11.5,-190.5"/>
<text text-anchor="start" x="19.5" y="-208.5" font-family="Helvetica,sans-Serif" font-size="10.00" fill="#000000">amr_wind::Factory&lt;</text>
<text text-anchor="middle" x="63.5" y="-197.5" font-family="Helvetica,sans-Serif" font-size="10.00" fill="#000000"> Base, Args &gt;</text>
</a>
</g>
</g>
<!-- Node2&#45;&gt;Node1 -->
<g id="edge2" class="edge">
<title>Node2&#45;&gt;Node1</title>
<path fill="none" stroke="#ffa500" stroke-dasharray="5,2" d="M63.5,-179.9013C63.5,-162.2139 63.5,-138.7504 63.5,-120.8934"/>
<polygon fill="#ffa500" stroke="#ffa500" points="60.0001,-180.0659 63.5,-190.0659 67.0001,-180.066 60.0001,-180.0659"/>
<text text-anchor="start" x="63.5" y="-164" font-family="Helvetica,sans-Serif" font-size="10.00" fill="#000000"> &lt; ActuatorModel, CFDSim</text>
<text text-anchor="start" x="63.5" y="-153" font-family="Helvetica,sans-Serif" font-size="10.00" fill="#000000"> &amp;, const std::string</text>
<text text-anchor="middle" x="123.5" y="-142" font-family="Helvetica,sans-Serif" font-size="10.00" fill="#000000"> &amp;, const int &gt;</text>
</g>
</g>
</svg>
