<?xml version="1.0" encoding="UTF-8" standalone="no"?>
<!DOCTYPE svg PUBLIC "-//W3C//DTD SVG 1.1//EN"
 "http://www.w3.org/Graphics/SVG/1.1/DTD/svg11.dtd">
<!-- Generated by graphviz version 2.40.1 (20161225.0304)
 -->
<!-- Title: amr_wind::actuator::ActuatorContainer Pages: 1 -->
<svg width="355pt" height="100pt"
 viewBox="0.00 0.00 355.00 99.50" xmlns="http://www.w3.org/2000/svg" xmlns:xlink="http://www.w3.org/1999/xlink">
<g id="graph0" class="graph" transform="scale(1 1) rotate(0) translate(4 95.5)">
<title>amr_wind::actuator::ActuatorContainer</title>
<polygon fill="#ffffff" stroke="transparent" points="-4,4 -4,-95.5 351,-95.5 351,4 -4,4"/>
<!-- Node2 -->
<g id="node1" class="node">
<title>Node2</title>
<polygon fill="#bfbfbf" stroke="#000000" points="246,-27.5 246,-57.5 347,-57.5 347,-27.5 246,-27.5"/>
<text text-anchor="start" x="254" y="-45.5" font-family="Helvetica,sans-Serif" font-size="10.00" fill="#000000">amr_wind::actuator</text>
<text text-anchor="middle" x="296.5" y="-34.5" font-family="Helvetica,sans-Serif" font-size="10.00" fill="#000000">::ActuatorContainer</text>
</g>
<!-- Node3 -->
<g id="node2" class="node">
<title>Node3</title>
<polygon fill="#ffffff" stroke="#bfbfbf" points="0,-50 0,-91 174,-91 174,-50 0,-50"/>
<text text-anchor="start" x="8" y="-79" font-family="Helvetica,sans-Serif" font-size="10.00" fill="#000000">amrex::AmrParticleContainer</text>
<text text-anchor="start" x="8" y="-68" font-family="Helvetica,sans-Serif" font-size="10.00" fill="#000000">&lt; NumPStructReal, NumPStructInt,</text>
<text text-anchor="middle" x="87" y="-57" font-family="Helvetica,sans-Serif" font-size="10.00" fill="#000000"> NumPArrayReal, NumPArrayInt &gt;</text>
</g>
<!-- Node3&#45;&gt;Node2 -->
<g id="edge1" class="edge">
<title>Node3&#45;&gt;Node2</title>
<path fill="none" stroke="#191970" d="M184.1394,-57.5172C205.5213,-54.6594 227.3283,-51.7449 245.9716,-49.2532"/>
<polygon fill="#191970" stroke="#191970" points="183.475,-54.0748 174.0268,-58.8687 184.4024,-61.0131 183.475,-54.0748"/>
</g>
<!-- Node4 -->
<g id="node3" class="node">
<title>Node4</title>
<g id="a_node3"><a xlink:href="structamr__wind_1_1actuator_1_1_actuator_cloud.html" target="_top" xlink:title="Cloud of actuator points. ">
<polygon fill="#ffffff" stroke="#000000" points="37,-.5 37,-30.5 137,-30.5 137,-.5 37,-.5"/>
<text text-anchor="start" x="45" y="-18.5" font-family="Helvetica,sans-Serif" font-size="10.00" fill="#000000">amr_wind::actuator</text>
<text text-anchor="middle" x="87" y="-7.5" font-family="Helvetica,sans-Serif" font-size="10.00" fill="#000000">::ActuatorCloud</text>
</a>
</g>
</g>
<!-- Node4&#45;&gt;Node2 -->
<g id="edge2" class="edge">
<title>Node4&#45;&gt;Node2</title>
<path fill="none" stroke="#9a32cd" stroke-dasharray="5,2" d="M147.4617,-23.2922C178.5607,-27.3002 216.0432,-32.1309 245.6386,-35.9451"/>
<polygon fill="#9a32cd" stroke="#9a32cd" points="147.5458,-19.7742 137.1805,-21.9672 146.651,-26.7168 147.5458,-19.7742"/>
<text text-anchor="middle" x="210" y="-36.5" font-family="Helvetica,sans-Serif" font-size="10.00" fill="#000000"> m_data</text>
</g>
</g>
</svg>
