<?xml version="1.0" encoding="UTF-8" standalone="no"?>
<!DOCTYPE svg PUBLIC "-//W3C//DTD SVG 1.1//EN"
 "http://www.w3.org/Graphics/SVG/1.1/DTD/svg11.dtd">
<!-- Generated by graphviz version 2.40.1 (20161225.0304)
 -->
<!-- Title: amr_wind::actuator::ops::ActSrcOp&lt; ActTrait, SrcTrait, typename &gt; Pages: 1 -->
<svg width="172pt" height="139pt"
 viewBox="0.00 0.00 172.00 139.00" xmlns="http://www.w3.org/2000/svg" xmlns:xlink="http://www.w3.org/1999/xlink">
<g id="graph0" class="graph" transform="scale(1 1) rotate(0) translate(4 135)">
<title>amr_wind::actuator::ops::ActSrcOp&lt; ActTrait, SrcTrait, typename &gt;</title>
<polygon fill="#ffffff" stroke="transparent" points="-4,4 -4,-135 168,-135 168,4 -4,4"/>
<!-- Node0 -->
<g id="node1" class="node">
<title>Node0</title>
<polygon fill="#bfbfbf" stroke="#000000" points="0,-89.5 0,-130.5 134,-130.5 134,-89.5 0,-89.5"/>
<text text-anchor="start" x="8" y="-118.5" font-family="Helvetica,sans-Serif" font-size="10.00" fill="#000000">amr_wind::actuator</text>
<text text-anchor="start" x="8" y="-107.5" font-family="Helvetica,sans-Serif" font-size="10.00" fill="#000000">::ops::ActSrcOp&lt; ActTrait,</text>
<text text-anchor="middle" x="67" y="-96.5" font-family="Helvetica,sans-Serif" font-size="10.00" fill="#000000"> SrcTrait, typename &gt;</text>
</g>
<!-- Node1 -->
<g id="node2" class="node">
<title>Node1</title>
<g id="a_node2"><a xlink:href="classamr__wind_1_1actuator_1_1ops_1_1_act_src_op.html" target="_top" xlink:title="amr_wind::actuator\l::ops::ActSrcOp\&lt; ActTrait,\l SrcTrait \&gt;">
<polygon fill="#ffffff" stroke="#000000" points="0,-.5 0,-41.5 134,-41.5 134,-.5 0,-.5"/>
<text text-anchor="start" x="8" y="-29.5" font-family="Helvetica,sans-Serif" font-size="10.00" fill="#000000">amr_wind::actuator</text>
<text text-anchor="start" x="8" y="-18.5" font-family="Helvetica,sans-Serif" font-size="10.00" fill="#000000">::ops::ActSrcOp&lt; ActTrait,</text>
<text text-anchor="middle" x="67" y="-7.5" font-family="Helvetica,sans-Serif" font-size="10.00" fill="#000000"> SrcTrait &gt;</text>
</a>
</g>
</g>
<!-- Node0&#45;&gt;Node1 -->
<g id="edge1" class="edge">
<title>Node0&#45;&gt;Node1</title>
<path fill="none" stroke="#ffa500" stroke-dasharray="5,2" d="M67,-79.344C67,-66.8522 67,-52.7439 67,-41.5301"/>
<polygon fill="#ffa500" stroke="#ffa500" points="63.5001,-79.3579 67,-89.3579 70.5001,-79.3579 63.5001,-79.3579"/>
<text text-anchor="middle" x="115.5" y="-63" font-family="Helvetica,sans-Serif" font-size="10.00" fill="#000000"> &lt; ActTrait, SrcTrait &gt;</text>
</g>
</g>
</svg>
