<?xml version="1.0" encoding="UTF-8" standalone="no"?>
<!DOCTYPE svg PUBLIC "-//W3C//DTD SVG 1.1//EN"
 "http://www.w3.org/Graphics/SVG/1.1/DTD/svg11.dtd">
<!-- Generated by graphviz version 2.40.1 (20161225.0304)
 -->
<!-- Title: amr_wind::CollMgr&lt; Collection, Type, allow_duplicates &gt; Pages: 1 -->
<svg width="591pt" height="137pt"
 viewBox="0.00 0.00 591.00 137.00" xmlns="http://www.w3.org/2000/svg" xmlns:xlink="http://www.w3.org/1999/xlink">
<g id="graph0" class="graph" transform="scale(1 1) rotate(0) translate(4 133)">
<title>amr_wind::CollMgr&lt; Collection, Type, allow_duplicates &gt;</title>
<polygon fill="#ffffff" stroke="transparent" points="-4,4 -4,-133 587,-133 587,4 -4,4"/>
<!-- Node0 -->
<g id="node1" class="node">
<title>Node0</title>
<polygon fill="#bfbfbf" stroke="#000000" points="0,-44 0,-85 119,-85 119,-44 0,-44"/>
<text text-anchor="start" x="8" y="-73" font-family="Helvetica,sans-Serif" font-size="10.00" fill="#000000">amr_wind::CollMgr&lt;</text>
<text text-anchor="start" x="8" y="-62" font-family="Helvetica,sans-Serif" font-size="10.00" fill="#000000"> Collection, Type, allow</text>
<text text-anchor="middle" x="59.5" y="-51" font-family="Helvetica,sans-Serif" font-size="10.00" fill="#000000">_duplicates &gt;</text>
</g>
<!-- Node1 -->
<g id="node2" class="node">
<title>Node1</title>
<g id="a_node2"><a xlink:href="classamr__wind_1_1_coll_mgr.html" target="_top" xlink:title="amr_wind::CollMgr\&lt;\l ExtSolverMgr, ExtSolver \&gt;">
<polygon fill="#ffffff" stroke="#000000" points="285,-98.5 285,-128.5 422,-128.5 422,-98.5 285,-98.5"/>
<text text-anchor="start" x="293" y="-116.5" font-family="Helvetica,sans-Serif" font-size="10.00" fill="#000000">amr_wind::CollMgr&lt;</text>
<text text-anchor="middle" x="353.5" y="-105.5" font-family="Helvetica,sans-Serif" font-size="10.00" fill="#000000"> ExtSolverMgr, ExtSolver &gt;</text>
</a>
</g>
</g>
<!-- Node0&#45;&gt;Node1 -->
<g id="edge1" class="edge">
<title>Node0&#45;&gt;Node1</title>
<path fill="none" stroke="#ffa500" stroke-dasharray="5,2" d="M128.9864,-78.0723C131.6911,-78.5614 134.3698,-79.0391 137,-79.5 186.2815,-88.1361 242.0594,-96.8711 284.6563,-103.3248"/>
<polygon fill="#ffa500" stroke="#ffa500" points="129.5877,-74.6243 119.1199,-76.2601 128.3231,-81.5091 129.5877,-74.6243"/>
<text text-anchor="middle" x="202" y="-102.5" font-family="Helvetica,sans-Serif" font-size="10.00" fill="#000000"> &lt; ExtSolverMgr, ExtSolver &gt;</text>
</g>
<!-- Node3 -->
<g id="node4" class="node">
<title>Node3</title>
<g id="a_node4"><a xlink:href="classamr__wind_1_1_coll_mgr.html" target="_top" xlink:title="amr_wind::CollMgr\&lt;\l PhysicsMgr, Physics \&gt;">
<polygon fill="#ffffff" stroke="#000000" points="292.5,-49.5 292.5,-79.5 414.5,-79.5 414.5,-49.5 292.5,-49.5"/>
<text text-anchor="start" x="300.5" y="-67.5" font-family="Helvetica,sans-Serif" font-size="10.00" fill="#000000">amr_wind::CollMgr&lt;</text>
<text text-anchor="middle" x="353.5" y="-56.5" font-family="Helvetica,sans-Serif" font-size="10.00" fill="#000000"> PhysicsMgr, Physics &gt;</text>
</a>
</g>
</g>
<!-- Node0&#45;&gt;Node3 -->
<g id="edge3" class="edge">
<title>Node0&#45;&gt;Node3</title>
<path fill="none" stroke="#ffa500" stroke-dasharray="5,2" d="M129.3608,-64.5C178.9806,-64.5 244.962,-64.5 292.4711,-64.5"/>
<polygon fill="#ffa500" stroke="#ffa500" points="129.3497,-61.0001 119.3497,-64.5 129.3496,-68.0001 129.3497,-61.0001"/>
<text text-anchor="middle" x="202" y="-67.5" font-family="Helvetica,sans-Serif" font-size="10.00" fill="#000000"> &lt; PhysicsMgr, Physics &gt;</text>
</g>
<!-- Node5 -->
<g id="node6" class="node">
<title>Node5</title>
<g id="a_node6"><a xlink:href="classamr__wind_1_1_coll_mgr.html" target="_top" xlink:title="amr_wind::CollMgr\&lt;\l PDEMgr, PDEBase \&gt;">
<polygon fill="#ffffff" stroke="#000000" points="295.5,-.5 295.5,-30.5 411.5,-30.5 411.5,-.5 295.5,-.5"/>
<text text-anchor="start" x="303.5" y="-18.5" font-family="Helvetica,sans-Serif" font-size="10.00" fill="#000000">amr_wind::CollMgr&lt;</text>
<text text-anchor="middle" x="353.5" y="-7.5" font-family="Helvetica,sans-Serif" font-size="10.00" fill="#000000"> PDEMgr, PDEBase &gt;</text>
</a>
</g>
</g>
<!-- Node0&#45;&gt;Node5 -->
<g id="edge5" class="edge">
<title>Node0&#45;&gt;Node5</title>
<path fill="none" stroke="#ffa500" stroke-dasharray="5,2" d="M128.9864,-50.9277C131.6911,-50.4386 134.3698,-49.9609 137,-49.5 190.4039,-40.1415 251.4365,-30.6668 295.0578,-24.105"/>
<polygon fill="#ffa500" stroke="#ffa500" points="128.3231,-47.4909 119.1199,-52.7399 129.5877,-54.3757 128.3231,-47.4909"/>
<text text-anchor="middle" x="202" y="-52.5" font-family="Helvetica,sans-Serif" font-size="10.00" fill="#000000"> &lt; PDEMgr, PDEBase &gt;</text>
</g>
<!-- Node2 -->
<g id="node3" class="node">
<title>Node2</title>
<g id="a_node3"><a xlink:href="classamr__wind_1_1_ext_solver_mgr.html" target="_top" xlink:title="amr_wind::ExtSolverMgr">
<polygon fill="#ffffff" stroke="#000000" points="459,-104 459,-123 583,-123 583,-104 459,-104"/>
<text text-anchor="middle" x="521" y="-111" font-family="Helvetica,sans-Serif" font-size="10.00" fill="#000000">amr_wind::ExtSolverMgr</text>
</a>
</g>
</g>
<!-- Node1&#45;&gt;Node2 -->
<g id="edge2" class="edge">
<title>Node1&#45;&gt;Node2</title>
<path fill="none" stroke="#191970" d="M432.1944,-113.5C441.1734,-113.5 450.2302,-113.5 458.9499,-113.5"/>
<polygon fill="#191970" stroke="#191970" points="432.112,-110.0001 422.112,-113.5 432.1119,-117.0001 432.112,-110.0001"/>
</g>
<!-- Node4 -->
<g id="node5" class="node">
<title>Node4</title>
<g id="a_node5"><a xlink:href="classamr__wind_1_1_physics_mgr.html" target="_top" xlink:title="A collection of Physics models instances that are active during a simulation. ">
<polygon fill="#ffffff" stroke="#000000" points="463,-55 463,-74 579,-74 579,-55 463,-55"/>
<text text-anchor="middle" x="521" y="-62" font-family="Helvetica,sans-Serif" font-size="10.00" fill="#000000">amr_wind::PhysicsMgr</text>
</a>
</g>
</g>
<!-- Node3&#45;&gt;Node4 -->
<g id="edge4" class="edge">
<title>Node3&#45;&gt;Node4</title>
<path fill="none" stroke="#191970" d="M424.9736,-64.5C437.6407,-64.5 450.6908,-64.5 462.9307,-64.5"/>
<polygon fill="#191970" stroke="#191970" points="424.9197,-61.0001 414.9197,-64.5 424.9197,-68.0001 424.9197,-61.0001"/>
</g>
<!-- Node6 -->
<g id="node7" class="node">
<title>Node6</title>
<g id="a_node7"><a xlink:href="classamr__wind_1_1pde_1_1_p_d_e_mgr.html" target="_top" xlink:title="PDE systems manager. ">
<polygon fill="#ffffff" stroke="#000000" points="459,-6 459,-25 583,-25 583,-6 459,-6"/>
<text text-anchor="middle" x="521" y="-13" font-family="Helvetica,sans-Serif" font-size="10.00" fill="#000000">amr_wind::pde::PDEMgr</text>
</a>
</g>
</g>
<!-- Node5&#45;&gt;Node6 -->
<g id="edge6" class="edge">
<title>Node5&#45;&gt;Node6</title>
<path fill="none" stroke="#191970" d="M421.8157,-15.5C434.1194,-15.5 446.8834,-15.5 458.9955,-15.5"/>
<polygon fill="#191970" stroke="#191970" points="421.6133,-12.0001 411.6133,-15.5 421.6133,-19.0001 421.6133,-12.0001"/>
</g>
</g>
</svg>
