<?xml version="1.0" encoding="UTF-8" standalone="no"?>
<!DOCTYPE svg PUBLIC "-//W3C//DTD SVG 1.1//EN"
 "http://www.w3.org/Graphics/SVG/1.1/DTD/svg11.dtd">
<!-- Generated by graphviz version 2.40.1 (20161225.0304)
 -->
<!-- Title: amr_wind::ABLFillInflow Pages: 1 -->
<!--zoomable 382 -->
<svg id="main" version="1.1" xmlns="http://www.w3.org/2000/svg" xmlns:xlink="http://www.w3.org/1999/xlink" xml:space="preserve" onload="init(evt)">
<style type="text/css"><![CDATA[
.edge:hover path { stroke: red; }
.edge:hover polygon { stroke: red; fill: red; }
]]></style>
<script type="text/javascript"><![CDATA[
var edges = document.getElementsByTagName('g');
if (edges && edges.length) {
  for (var i=0;i<edges.length;i++) {
    if (edges[i].id.substr(0,4)=='edge') {
      edges[i].setAttribute('class','edge');
    }
  }
}
]]></script>
        <defs>
                <circle id="rim" cx="0" cy="0" r="7"/>
                <circle id="rim2" cx="0" cy="0" r="3.5"/>
                <g id="zoomPlus">
                        <use xlink:href="#rim" fill="#404040">
                                <set attributeName="fill" to="#808080" begin="zoomplus.mouseover" end="zoomplus.mouseout"/>
                        </use>
                        <path d="M-4,0h8M0,-4v8" fill="none" stroke="white" stroke-width="1.5" pointer-events="none"/>
                </g>
                <g id="zoomMin">
                        <use xlink:href="#rim" fill="#404040">
                                <set attributeName="fill" to="#808080" begin="zoomminus.mouseover" end="zoomminus.mouseout"/>
                        </use>
                        <path d="M-4,0h8" fill="none" stroke="white" stroke-width="1.5" pointer-events="none"/>
                </g>
                <g id="dirArrow">
                        <path fill="none" stroke="white" stroke-width="1.5" d="M0,-3.0v7 M-2.5,-0.5L0,-3.0L2.5,-0.5"/>
                </g>
               <g id="resetDef">
                       <use xlink:href="#rim2" fill="#404040">
                               <set attributeName="fill" to="#808080" begin="reset.mouseover" end="reset.mouseout"/>
                       </use>
               </g>
        </defs>

<script type="text/javascript">
var viewWidth = 1770;
var viewHeight = 382;
var sectionId = 'dynsection-1';
</script>
<script xlink:href="svgpan.js"/>
<svg id="graph" class="graph">
<g id="viewport">
<title>amr_wind::ABLFillInflow</title>
<polygon fill="#ffffff" stroke="transparent" points="-4,4 -4,-378 1766,-378 1766,4 -4,4"/>
<!-- Node4 -->
<g id="node1" class="node">
<title>Node4</title>
<polygon fill="#bfbfbf" stroke="#000000" points="1640,-114.5 1640,-133.5 1762,-133.5 1762,-114.5 1640,-114.5"/>
<text text-anchor="middle" x="1701" y="-121.5" font-family="Helvetica,sans-Serif" font-size="10.00" fill="#000000">amr_wind::ABLFillInflow</text>
</g>
<!-- Node5 -->
<g id="node2" class="node">
<title>Node5</title>
<g id="a_node2"><a xlink:href="classamr__wind_1_1_field_fill_patch_ops.html" target="_top" xlink:title="amr_wind::FieldFillPatch\lOps\&lt; FieldBCNoOp \&gt;">
<polygon fill="#ffffff" stroke="#000000" points="1479,-204 1479,-234 1603,-234 1603,-204 1479,-204"/>
<text text-anchor="start" x="1487" y="-222" font-family="Helvetica,sans-Serif" font-size="10.00" fill="#000000">amr_wind::FieldFillPatch</text>
<text text-anchor="middle" x="1541" y="-211" font-family="Helvetica,sans-Serif" font-size="10.00" fill="#000000">Ops&lt; FieldBCNoOp &gt;</text>
</a>
</g>
</g>
<!-- Node5&#45;&gt;Node4 -->
<g id="edge1" class="edge">
<title>Node5&#45;&gt;Node4</title>
<path fill="none" stroke="#191970" d="M1574.9603,-198.8361C1608.6541,-178.8304 1658.866,-149.017 1684.5592,-133.7617"/>
<polygon fill="#191970" stroke="#191970" points="1573.1641,-195.832 1566.3525,-203.947 1576.7379,-201.851 1573.1641,-195.832"/>
</g>
<!-- Node6 -->
<g id="node3" class="node">
<title>Node6</title>
<g id="a_node3"><a xlink:href="classamr__wind_1_1_field_fill_patch_ops_base.html" target="_top" xlink:title="Abstract interface for classes that handle fill patch and physical boundary condition operations for ...">
<polygon fill="#ffffff" stroke="#000000" points="1041,-191 1041,-221 1165,-221 1165,-191 1041,-191"/>
<text text-anchor="start" x="1049" y="-209" font-family="Helvetica,sans-Serif" font-size="10.00" fill="#000000">amr_wind::FieldFillPatch</text>
<text text-anchor="middle" x="1103" y="-198" font-family="Helvetica,sans-Serif" font-size="10.00" fill="#000000">OpsBase</text>
</a>
</g>
</g>
<!-- Node6&#45;&gt;Node5 -->
<g id="edge2" class="edge">
<title>Node6&#45;&gt;Node5</title>
<path fill="none" stroke="#191970" d="M1175.3433,-208.1472C1260.0483,-210.6613 1398.9158,-214.7829 1478.9253,-217.1576"/>
<polygon fill="#191970" stroke="#191970" points="1175.389,-204.6471 1165.2896,-207.8488 1175.1813,-211.644 1175.389,-204.6471"/>
</g>
<!-- Node17 -->
<g id="node14" class="node">
<title>Node17</title>
<g id="a_node14"><a xlink:href="classamr__wind_1_1_field_fill_patch_ops.html" target="_top" xlink:title="Concrete implementation of filling patches and boundary conditions on multi&#45;level AMR meshes...">
<polygon fill="#ffffff" stroke="#000000" points="1236.5,-267 1236.5,-297 1360.5,-297 1360.5,-267 1236.5,-267"/>
<text text-anchor="start" x="1244.5" y="-285" font-family="Helvetica,sans-Serif" font-size="10.00" fill="#000000">amr_wind::FieldFillPatch</text>
<text text-anchor="middle" x="1298.5" y="-274" font-family="Helvetica,sans-Serif" font-size="10.00" fill="#000000">Ops&lt; BCOpCreator &gt;</text>
</a>
</g>
</g>
<!-- Node6&#45;&gt;Node17 -->
<g id="edge15" class="edge">
<title>Node6&#45;&gt;Node17</title>
<path fill="none" stroke="#191970" d="M1174.7517,-220.5236C1189.6317,-225.1766 1204.7878,-231.2157 1218,-239 1227.7477,-244.7431 1226.5549,-250.7719 1236,-257 1241.6587,-260.7313 1247.9615,-264.0552 1254.326,-266.9646"/>
<polygon fill="#191970" stroke="#191970" points="1175.618,-217.1302 1165.0365,-217.6617 1173.6399,-223.8449 1175.618,-217.1302"/>
</g>
<!-- Node7 -->
<g id="node4" class="node">
<title>Node7</title>
<g id="a_node4"><a xlink:href="classamr__wind_1_1_field.html" target="_top" xlink:title="Computational fieldThis is an abstraction of a collection of MultiFabs over multiple levels...">
<polygon fill="#ffffff" stroke="#000000" points="851.5,-299.5 851.5,-318.5 937.5,-318.5 937.5,-299.5 851.5,-299.5"/>
<text text-anchor="middle" x="894.5" y="-306.5" font-family="Helvetica,sans-Serif" font-size="10.00" fill="#000000">amr_wind::Field</text>
</a>
</g>
</g>
<!-- Node7&#45;&gt;Node5 -->
<g id="edge3" class="edge">
<title>Node7&#45;&gt;Node5</title>
<path fill="none" stroke="#9a32cd" stroke-dasharray="5,2" d="M921.8248,-323.1862C950.5865,-337.2567 997.6222,-357.8586 1041,-366 1095.1653,-376.1661 1110.4387,-373.7656 1165,-366 1300.6288,-346.6963 1338.6799,-341.6895 1461,-280 1485.3279,-267.7307 1509.7132,-247.763 1525.0521,-234.0354"/>
<polygon fill="#9a32cd" stroke="#9a32cd" points="923.3146,-320.0182 912.8031,-318.6923 920.1935,-326.2839 923.3146,-320.0182"/>
<text text-anchor="middle" x="1200.5" y="-366" font-family="Helvetica,sans-Serif" font-size="10.00" fill="#000000"> m_field</text>
</g>
<!-- Node7&#45;&gt;Node17 -->
<g id="edge16" class="edge">
<title>Node7&#45;&gt;Node17</title>
<path fill="none" stroke="#9a32cd" stroke-dasharray="5,2" d="M947.83,-305.4359C1022.2987,-300.459 1157.1598,-291.446 1236.1707,-286.1656"/>
<polygon fill="#9a32cd" stroke="#9a32cd" points="947.4794,-301.9514 937.7351,-306.1105 947.9462,-308.9358 947.4794,-301.9514"/>
<text text-anchor="middle" x="1103" y="-302" font-family="Helvetica,sans-Serif" font-size="10.00" fill="#000000"> m_field</text>
</g>
<!-- Node18 -->
<g id="node15" class="node">
<title>Node18</title>
<g id="a_node15"><a xlink:href="structamr__wind_1_1_b_c_op_creator.html" target="_top" xlink:title="amr_wind::BCOpCreator\l\&lt; InflowOp, WallOp \&gt;">
<polygon fill="#ffffff" stroke="#000000" points="1041,-326 1041,-356 1165,-356 1165,-326 1041,-326"/>
<text text-anchor="start" x="1049" y="-344" font-family="Helvetica,sans-Serif" font-size="10.00" fill="#000000">amr_wind::BCOpCreator</text>
<text text-anchor="middle" x="1103" y="-333" font-family="Helvetica,sans-Serif" font-size="10.00" fill="#000000">&lt; InflowOp, WallOp &gt;</text>
</a>
</g>
</g>
<!-- Node7&#45;&gt;Node18 -->
<g id="edge19" class="edge">
<title>Node7&#45;&gt;Node18</title>
<path fill="none" stroke="#9a32cd" stroke-dasharray="5,2" d="M947.8328,-317.1854C976.2128,-321.5411 1011.266,-326.9209 1040.871,-331.4646"/>
<polygon fill="#9a32cd" stroke="#9a32cd" points="948.1166,-313.688 937.7013,-315.6304 947.0546,-320.607 948.1166,-313.688"/>
<text text-anchor="middle" x="1005" y="-330" font-family="Helvetica,sans-Serif" font-size="10.00" fill="#000000"> m_field</text>
</g>
<!-- Node8 -->
<g id="node5" class="node">
<title>Node8</title>
<g id="a_node5"><a xlink:title="STL class. ">
<polygon fill="#ffffff" stroke="#bfbfbf" points="195.5,-121.5 195.5,-140.5 255.5,-140.5 255.5,-121.5 195.5,-121.5"/>
<text text-anchor="middle" x="225.5" y="-128.5" font-family="Helvetica,sans-Serif" font-size="10.00" fill="#000000">std::string</text>
</a>
</g>
</g>
<!-- Node8&#45;&gt;Node7 -->
<g id="edge4" class="edge">
<title>Node8&#45;&gt;Node7</title>
<path fill="none" stroke="#9a32cd" stroke-dasharray="5,2" d="M259.435,-144.2044C342.3081,-175.8616 562.1987,-256.3181 753,-295 785.6615,-301.6216 823.2253,-305.1528 851.4381,-307.0115"/>
<polygon fill="#9a32cd" stroke="#9a32cd" points="260.6091,-140.9062 250.0189,-140.5918 258.1016,-147.4417 260.6091,-140.9062"/>
<text text-anchor="middle" x="573" y="-262" font-family="Helvetica,sans-Serif" font-size="10.00" fill="#000000"> m_name</text>
</g>
<!-- Node11 -->
<g id="node8" class="node">
<title>Node11</title>
<polygon fill="#ffffff" stroke="#bfbfbf" points="410,-116 410,-146 520,-146 520,-116 410,-116"/>
<text text-anchor="start" x="418" y="-134" font-family="Helvetica,sans-Serif" font-size="10.00" fill="#000000">std::unordered_map</text>
<text text-anchor="middle" x="465" y="-123" font-family="Helvetica,sans-Serif" font-size="10.00" fill="#000000">&lt; std::string, size_t &gt;</text>
</g>
<!-- Node8&#45;&gt;Node11 -->
<g id="edge8" class="edge">
<title>Node8&#45;&gt;Node11</title>
<path fill="none" stroke="#9a32cd" stroke-dasharray="5,2" d="M265.8984,-131C305.418,-131 365.9053,-131 409.8401,-131"/>
<polygon fill="#9a32cd" stroke="#9a32cd" points="265.8329,-127.5001 255.8328,-131 265.8328,-134.5001 265.8329,-127.5001"/>
<text text-anchor="middle" x="343.5" y="-134" font-family="Helvetica,sans-Serif" font-size="10.00" fill="#000000"> keys</text>
</g>
<!-- Node19 -->
<g id="node16" class="node">
<title>Node19</title>
<g id="a_node16"><a xlink:href="classamr__wind_1_1_a_b_l_boundary_plane.html" target="_top" xlink:title="Interface for ABL boundary plane I/OThis class performs the necessary file operations to read and wri...">
<polygon fill="#ffffff" stroke="#000000" points="820,-95.5 820,-114.5 969,-114.5 969,-95.5 820,-95.5"/>
<text text-anchor="middle" x="894.5" y="-102.5" font-family="Helvetica,sans-Serif" font-size="10.00" fill="#000000">amr_wind::ABLBoundaryPlane</text>
</a>
</g>
</g>
<!-- Node8&#45;&gt;Node19 -->
<g id="edge25" class="edge">
<title>Node8&#45;&gt;Node19</title>
<path fill="none" stroke="#9a32cd" stroke-dasharray="5,2" d="M265.7221,-124.2691C303.0068,-118.335 360.0813,-110.025 410,-106 562.0036,-93.7438 600.5162,-99.0002 753,-97 774.7759,-96.7144 780.2425,-96.0609 802,-97 807.7974,-97.2502 813.7936,-97.5883 819.8179,-97.9845"/>
<polygon fill="#9a32cd" stroke="#9a32cd" points="265.0695,-120.829 255.7531,-125.8743 266.1824,-127.74 265.0695,-120.829"/>
<text text-anchor="middle" x="573" y="-113" font-family="Helvetica,sans-Serif" font-size="10.00" fill="#000000"> m_title</text>
<text text-anchor="middle" x="573" y="-102" font-family="Helvetica,sans-Serif" font-size="10.00" fill="#000000">m_filename</text>
</g>
<!-- Node9 -->
<g id="node6" class="node">
<title>Node9</title>
<g id="a_node6"><a xlink:title="STL class. ">
<polygon fill="#ffffff" stroke="#bfbfbf" points="0,-116 0,-146 95,-146 95,-116 0,-116"/>
<text text-anchor="start" x="8" y="-134" font-family="Helvetica,sans-Serif" font-size="10.00" fill="#000000">std::basic_string&lt;</text>
<text text-anchor="middle" x="47.5" y="-123" font-family="Helvetica,sans-Serif" font-size="10.00" fill="#000000"> char &gt;</text>
</a>
</g>
</g>
<!-- Node9&#45;&gt;Node8 -->
<g id="edge5" class="edge">
<title>Node9&#45;&gt;Node8</title>
<path fill="none" stroke="#191970" d="M105.5446,-131C135.493,-131 170.7833,-131 195.3,-131"/>
<polygon fill="#191970" stroke="#191970" points="105.2008,-127.5001 95.2007,-131 105.2007,-134.5001 105.2008,-127.5001"/>
</g>
<!-- Node10 -->
<g id="node7" class="node">
<title>Node10</title>
<g id="a_node7"><a xlink:href="classamr__wind_1_1_field_repo.html" target="_top" xlink:title="Field RepositoryFieldRepo is a database that manages handling of fields used during a simulation...">
<polygon fill="#ffffff" stroke="#000000" points="626,-166.5 626,-185.5 735,-185.5 735,-166.5 626,-166.5"/>
<text text-anchor="middle" x="680.5" y="-173.5" font-family="Helvetica,sans-Serif" font-size="10.00" fill="#000000">amr_wind::FieldRepo</text>
</a>
</g>
</g>
<!-- Node10&#45;&gt;Node7 -->
<g id="edge6" class="edge">
<title>Node10&#45;&gt;Node7</title>
<path fill="none" stroke="#9a32cd" stroke-dasharray="5,2" d="M691.6269,-194.0775C704.2844,-213.2345 726.6494,-243.1339 753,-261 770.6062,-272.9373 823.7261,-289.2792 859.6322,-299.4832"/>
<polygon fill="#9a32cd" stroke="#9a32cd" points="694.56,-192.1676 686.2181,-185.6359 688.6661,-195.9441 694.56,-192.1676"/>
<text text-anchor="middle" x="777.5" y="-283" font-family="Helvetica,sans-Serif" font-size="10.00" fill="#000000"> m_repo</text>
</g>
<!-- Node10&#45;&gt;Node19 -->
<g id="edge26" class="edge">
<title>Node10&#45;&gt;Node19</title>
<path fill="none" stroke="#9a32cd" stroke-dasharray="5,2" d="M719.0079,-163.224C761.1981,-149.2263 827.8967,-127.0974 865.7553,-114.5368"/>
<polygon fill="#9a32cd" stroke="#9a32cd" points="717.7501,-159.9536 709.361,-166.4246 719.9544,-166.5975 717.7501,-159.9536"/>
<text text-anchor="middle" x="777.5" y="-155" font-family="Helvetica,sans-Serif" font-size="10.00" fill="#000000"> m_repo</text>
</g>
<!-- Node11&#45;&gt;Node10 -->
<g id="edge7" class="edge">
<title>Node11&#45;&gt;Node10</title>
<path fill="none" stroke="#9a32cd" stroke-dasharray="5,2" d="M530.0246,-144.5782C563.8604,-151.6437 604.4035,-160.1098 634.8767,-166.4731"/>
<polygon fill="#9a32cd" stroke="#9a32cd" points="530.7211,-141.1482 520.2168,-142.5302 529.2902,-148.0004 530.7211,-141.1482"/>
<text text-anchor="middle" x="573" y="-175" font-family="Helvetica,sans-Serif" font-size="10.00" fill="#000000"> m_fid_map</text>
<text text-anchor="middle" x="573" y="-164" font-family="Helvetica,sans-Serif" font-size="10.00" fill="#000000">m_int_fid_map</text>
</g>
<!-- Node12 -->
<g id="node9" class="node">
<title>Node12</title>
<g id="a_node9"><a xlink:title="STL class. ">
<polygon fill="#ffffff" stroke="#bfbfbf" points="174,-14 174,-44 277,-44 277,-14 174,-14"/>
<text text-anchor="start" x="182" y="-32" font-family="Helvetica,sans-Serif" font-size="10.00" fill="#000000">std::unordered_map</text>
<text text-anchor="middle" x="225.5" y="-21" font-family="Helvetica,sans-Serif" font-size="10.00" fill="#000000">&lt; K, T &gt;</text>
</a>
</g>
</g>
<!-- Node12&#45;&gt;Node11 -->
<g id="edge9" class="edge">
<title>Node12&#45;&gt;Node11</title>
<path fill="none" stroke="#ffa500" stroke-dasharray="5,2" d="M270.2742,-48.0688C316.3416,-67.6883 387.1763,-97.8559 429.516,-115.8878"/>
<polygon fill="#ffa500" stroke="#ffa500" points="271.4109,-44.7487 260.839,-44.0505 268.668,-51.189 271.4109,-44.7487"/>
<text text-anchor="middle" x="343.5" y="-102" font-family="Helvetica,sans-Serif" font-size="10.00" fill="#000000"> &lt; std::string, size_t &gt;</text>
</g>
<!-- Node21 -->
<g id="node18" class="node">
<title>Node21</title>
<polygon fill="#ffffff" stroke="#bfbfbf" points="413.5,-5 413.5,-35 516.5,-35 516.5,-5 413.5,-5"/>
<text text-anchor="start" x="421.5" y="-23" font-family="Helvetica,sans-Serif" font-size="10.00" fill="#000000">std::unordered_map</text>
<text text-anchor="middle" x="465" y="-12" font-family="Helvetica,sans-Serif" font-size="10.00" fill="#000000">&lt; int, int &gt;</text>
</g>
<!-- Node12&#45;&gt;Node21 -->
<g id="edge23" class="edge">
<title>Node12&#45;&gt;Node21</title>
<path fill="none" stroke="#ffa500" stroke-dasharray="5,2" d="M287.308,-14.0224C289.8986,-13.6319 292.4703,-13.2874 295,-13 334.4758,-8.5147 379.3972,-10.6747 413.1453,-13.7354"/>
<polygon fill="#ffa500" stroke="#ffa500" points="286.5402,-10.6027 277.2706,-15.7336 287.7166,-17.5032 286.5402,-10.6027"/>
<text text-anchor="middle" x="343.5" y="-16" font-family="Helvetica,sans-Serif" font-size="10.00" fill="#000000"> &lt; int, int &gt;</text>
</g>
<!-- Node13 -->
<g id="node10" class="node">
<title>Node13</title>
<polygon fill="#ffffff" stroke="#bfbfbf" points="33,-38.5 33,-57.5 62,-57.5 62,-38.5 33,-38.5"/>
<text text-anchor="middle" x="47.5" y="-45.5" font-family="Helvetica,sans-Serif" font-size="10.00" fill="#000000">K</text>
</g>
<!-- Node13&#45;&gt;Node12 -->
<g id="edge10" class="edge">
<title>Node13&#45;&gt;Node12</title>
<path fill="none" stroke="#9a32cd" stroke-dasharray="5,2" d="M72.243,-45.3589C98.425,-42.5642 140.4972,-38.0733 173.9422,-34.5034"/>
<polygon fill="#9a32cd" stroke="#9a32cd" points="71.6385,-41.9034 62.0665,-46.4452 72.3815,-48.8639 71.6385,-41.9034"/>
<text text-anchor="middle" x="134.5" y="-44" font-family="Helvetica,sans-Serif" font-size="10.00" fill="#000000"> keys</text>
</g>
<!-- Node14 -->
<g id="node11" class="node">
<title>Node14</title>
<polygon fill="#ffffff" stroke="#bfbfbf" points="33,-.5 33,-19.5 62,-19.5 62,-.5 33,-.5"/>
<text text-anchor="middle" x="47.5" y="-7.5" font-family="Helvetica,sans-Serif" font-size="10.00" fill="#000000">T</text>
</g>
<!-- Node14&#45;&gt;Node12 -->
<g id="edge11" class="edge">
<title>Node14&#45;&gt;Node12</title>
<path fill="none" stroke="#9a32cd" stroke-dasharray="5,2" d="M72.243,-12.6411C98.425,-15.4358 140.4972,-19.9267 173.9422,-23.4966"/>
<polygon fill="#9a32cd" stroke="#9a32cd" points="72.3815,-9.1361 62.0665,-11.5548 71.6385,-16.0966 72.3815,-9.1361"/>
<text text-anchor="middle" x="134.5" y="-25" font-family="Helvetica,sans-Serif" font-size="10.00" fill="#000000"> elements</text>
</g>
<!-- Node15 -->
<g id="node12" class="node">
<title>Node15</title>
<g id="a_node12"><a xlink:href="structamr__wind_1_1_field_b_c_no_op.html" target="_top" xlink:title="A no&#45;op BC. ">
<polygon fill="#ffffff" stroke="#000000" points="1236,-228.5 1236,-247.5 1361,-247.5 1361,-228.5 1236,-228.5"/>
<text text-anchor="middle" x="1298.5" y="-235.5" font-family="Helvetica,sans-Serif" font-size="10.00" fill="#000000">amr_wind::FieldBCNoOp</text>
</a>
</g>
</g>
<!-- Node15&#45;&gt;Node5 -->
<g id="edge12" class="edge">
<title>Node15&#45;&gt;Node5</title>
<path fill="none" stroke="#9a32cd" stroke-dasharray="5,2" d="M1371.6743,-232.2668C1405.8945,-229.5856 1446.2109,-226.4268 1478.918,-223.8642"/>
<polygon fill="#9a32cd" stroke="#9a32cd" points="1370.9612,-228.8118 1361.2651,-233.0823 1371.508,-235.7904 1370.9612,-228.8118"/>
<text text-anchor="middle" x="1420" y="-234" font-family="Helvetica,sans-Serif" font-size="10.00" fill="#000000"> m_op</text>
</g>
<!-- Node16 -->
<g id="node13" class="node">
<title>Node16</title>
<g id="a_node13"><a xlink:href="classamr__wind_1_1_sim_time.html" target="_top" xlink:title="Time manager for simulations. ">
<polygon fill="#ffffff" stroke="#000000" points="628.5,-128.5 628.5,-147.5 732.5,-147.5 732.5,-128.5 628.5,-128.5"/>
<text text-anchor="middle" x="680.5" y="-135.5" font-family="Helvetica,sans-Serif" font-size="10.00" fill="#000000">amr_wind::SimTime</text>
</a>
</g>
</g>
<!-- Node16&#45;&gt;Node5 -->
<g id="edge13" class="edge">
<title>Node16&#45;&gt;Node5</title>
<path fill="none" stroke="#9a32cd" stroke-dasharray="5,2" d="M738.6455,-149.1163C743.4901,-149.8322 748.3219,-150.475 753,-151 935.1623,-171.4426 982.4009,-153.9198 1165,-170 1275.9873,-179.7739 1404.5682,-198.0418 1478.9672,-209.3003"/>
<polygon fill="#9a32cd" stroke="#9a32cd" points="739.1504,-145.6528 728.7284,-147.5585 738.0641,-152.568 739.1504,-145.6528"/>
<text text-anchor="middle" x="1103" y="-173" font-family="Helvetica,sans-Serif" font-size="10.00" fill="#000000"> m_time</text>
</g>
<!-- Node16&#45;&gt;Node17 -->
<g id="edge17" class="edge">
<title>Node16&#45;&gt;Node17</title>
<path fill="none" stroke="#9a32cd" stroke-dasharray="5,2" d="M726.3479,-151.8204C729.3733,-153.3828 732.2902,-155.105 735,-157 745.3531,-164.24 742.1372,-172.5498 753,-179 834.2123,-227.2234 1110.8304,-261.9814 1236.0339,-275.6253"/>
<polygon fill="#9a32cd" stroke="#9a32cd" points="727.5969,-148.5438 717.0443,-147.5995 724.7048,-154.9184 727.5969,-148.5438"/>
<text text-anchor="middle" x="1005" y="-250" font-family="Helvetica,sans-Serif" font-size="10.00" fill="#000000"> m_time</text>
</g>
<!-- Node16&#45;&gt;Node19 -->
<g id="edge24" class="edge">
<title>Node16&#45;&gt;Node19</title>
<path fill="none" stroke="#9a32cd" stroke-dasharray="5,2" d="M705.9714,-123.6878C719.4925,-116.8942 736.6546,-109.5072 753,-106 774.3777,-101.413 797.9936,-99.8945 819.7076,-99.8654"/>
<polygon fill="#9a32cd" stroke="#9a32cd" points="704.0732,-120.7306 696.8331,-128.4658 707.3166,-126.9339 704.0732,-120.7306"/>
<text text-anchor="middle" x="777.5" y="-109" font-family="Helvetica,sans-Serif" font-size="10.00" fill="#000000"> m_time</text>
</g>
<!-- Node17&#45;&gt;Node5 -->
<g id="edge14" class="edge">
<title>Node17&#45;&gt;Node5</title>
<path fill="none" stroke="#ffa500" stroke-dasharray="5,2" d="M1370.4602,-267.7966C1398.8396,-261.7432 1431.6185,-254.1872 1461,-246 1473.5674,-242.4981 1487.0657,-238.1678 1499.3287,-234.0083"/>
<polygon fill="#ffa500" stroke="#ffa500" points="1369.6801,-264.3841 1360.6183,-269.8737 1371.1256,-271.2332 1369.6801,-264.3841"/>
<text text-anchor="middle" x="1420" y="-268" font-family="Helvetica,sans-Serif" font-size="10.00" fill="#000000"> &lt; FieldBCNoOp &gt;</text>
</g>
<!-- Node18&#45;&gt;Node17 -->
<g id="edge18" class="edge">
<title>Node18&#45;&gt;Node17</title>
<path fill="none" stroke="#9a32cd" stroke-dasharray="5,2" d="M1171.9106,-323.2843C1187.1477,-319.1281 1203.1681,-314.5721 1218,-310 1230.7263,-306.0769 1244.4539,-301.4516 1256.9059,-297.1026"/>
<polygon fill="#9a32cd" stroke="#9a32cd" points="1170.7718,-319.9664 1162.0311,-325.954 1172.5979,-326.7241 1170.7718,-319.9664"/>
<text text-anchor="middle" x="1200.5" y="-323" font-family="Helvetica,sans-Serif" font-size="10.00" fill="#000000"> m_op</text>
</g>
<!-- Node19&#45;&gt;Node4 -->
<g id="edge20" class="edge">
<title>Node19&#45;&gt;Node4</title>
<path fill="none" stroke="#9a32cd" stroke-dasharray="5,2" d="M979.7181,-109.1539C1017.4787,-110.6608 1062.4454,-112 1103,-112 1103,-112 1103,-112 1541,-112 1573.7306,-112 1610.1222,-114.528 1639.9188,-117.2634"/>
<polygon fill="#9a32cd" stroke="#9a32cd" points="979.4035,-105.6382 969.2685,-108.7254 979.1166,-112.6323 979.4035,-105.6382"/>
<text text-anchor="middle" x="1298.5" y="-115" font-family="Helvetica,sans-Serif" font-size="10.00" fill="#000000"> m_bndry_plane</text>
</g>
<!-- Node20 -->
<g id="node17" class="node">
<title>Node20</title>
<g id="a_node17"><a xlink:href="classamr__wind_1_1_inlet_data.html" target="_top" xlink:title="Collection of data structures and operations for reading dataThis class contains the inlet data struc...">
<polygon fill="#ffffff" stroke="#000000" points="628.5,-20.5 628.5,-39.5 732.5,-39.5 732.5,-20.5 628.5,-20.5"/>
<text text-anchor="middle" x="680.5" y="-27.5" font-family="Helvetica,sans-Serif" font-size="10.00" fill="#000000">amr_wind::InletData</text>
</a>
</g>
</g>
<!-- Node20&#45;&gt;Node19 -->
<g id="edge21" class="edge">
<title>Node20&#45;&gt;Node19</title>
<path fill="none" stroke="#9a32cd" stroke-dasharray="5,2" d="M742.4921,-33.5958C761.9606,-36.0589 783.255,-40.1674 802,-47 833.6995,-58.5545 866.0369,-82.0817 882.7997,-95.3459"/>
<polygon fill="#9a32cd" stroke="#9a32cd" points="742.8342,-30.1122 732.5009,-32.452 742.0379,-37.0667 742.8342,-30.1122"/>
<text text-anchor="middle" x="777.5" y="-50" font-family="Helvetica,sans-Serif" font-size="10.00" fill="#000000"> m_in_data</text>
</g>
<!-- Node21&#45;&gt;Node20 -->
<g id="edge22" class="edge">
<title>Node21&#45;&gt;Node20</title>
<path fill="none" stroke="#9a32cd" stroke-dasharray="5,2" d="M526.7765,-22.8667C558.8475,-24.3549 597.6066,-26.1534 628.182,-27.5722"/>
<polygon fill="#9a32cd" stroke="#9a32cd" points="526.7691,-19.3626 516.6176,-22.3952 526.4446,-26.3551 526.7691,-19.3626"/>
<text text-anchor="middle" x="573" y="-30" font-family="Helvetica,sans-Serif" font-size="10.00" fill="#000000"> m_components</text>
</g>
</g>
</svg>
        <g id="navigator" transform="translate(0 0)" fill="#404254">
                <rect fill="#f2f5e9" fill-opacity="0.5" stroke="#606060" stroke-width=".5" x="0" y="0" width="60" height="60"/>
                <use id="zoomplus" xlink:href="#zoomPlus" x="17" y="9" onmousedown="handleZoom(evt,'in')"/>
                <use id="zoomminus" xlink:href="#zoomMin" x="42" y="9" onmousedown="handleZoom(evt,'out')"/>
                <use id="reset" xlink:href="#resetDef" x="30" y="36" onmousedown="handleReset()"/>
                <g id="arrowUp" xlink:href="#dirArrow" transform="translate(30 24)" onmousedown="handlePan(0,-1)">
                  <use xlink:href="#rim" fill="#404040">
                        <set attributeName="fill" to="#808080" begin="arrowUp.mouseover" end="arrowUp.mouseout"/>
                  </use>
                  <path fill="none" stroke="white" stroke-width="1.5" d="M0,-3.0v7 M-2.5,-0.5L0,-3.0L2.5,-0.5"/>
                </g>
                <g id="arrowRight" xlink:href="#dirArrow" transform="rotate(90) translate(36 -43)" onmousedown="handlePan(1,0)">
                  <use xlink:href="#rim" fill="#404040">
                        <set attributeName="fill" to="#808080" begin="arrowRight.mouseover" end="arrowRight.mouseout"/>
                  </use>
                  <path fill="none" stroke="white" stroke-width="1.5" d="M0,-3.0v7 M-2.5,-0.5L0,-3.0L2.5,-0.5"/>
                </g>
                <g id="arrowDown" xlink:href="#dirArrow" transform="rotate(180) translate(-30 -48)" onmousedown="handlePan(0,1)">
                  <use xlink:href="#rim" fill="#404040">
                        <set attributeName="fill" to="#808080" begin="arrowDown.mouseover" end="arrowDown.mouseout"/>
                  </use>
                  <path fill="none" stroke="white" stroke-width="1.5" d="M0,-3.0v7 M-2.5,-0.5L0,-3.0L2.5,-0.5"/>
                </g>
                <g id="arrowLeft" xlink:href="#dirArrow" transform="rotate(270) translate(-36 17)" onmousedown="handlePan(-1,0)">
                  <use xlink:href="#rim" fill="#404040">
                        <set attributeName="fill" to="#808080" begin="arrowLeft.mouseover" end="arrowLeft.mouseout"/>
                  </use>
                  <path fill="none" stroke="white" stroke-width="1.5" d="M0,-3.0v7 M-2.5,-0.5L0,-3.0L2.5,-0.5"/>
                </g>
        </g>
        <svg viewBox="0 0 15 15" width="100%" height="30px" preserveAspectRatio="xMaxYMin meet">
         <g id="arrow_out" transform="scale(0.3 0.3)">
          <a xlink:href="classamr__wind_1_1_a_b_l_fill_inflow__coll__graph_org.svg" target="_base">
           <rect id="button" ry="5" rx="5" y="6" x="6" height="38" width="38"
                fill="#f2f5e9" fill-opacity="0.5" stroke="#606060" stroke-width="1.0"/>
           <path id="arrow"
             d="M 11.500037,31.436501 C 11.940474,20.09759 22.043105,11.32322 32.158766,21.979434 L 37.068811,17.246167 C 37.068811,17.246167 37.088388,32 37.088388,32 L 22.160133,31.978069 C 22.160133,31.978069 26.997745,27.140456 26.997745,27.140456 C 18.528582,18.264221 13.291696,25.230495 11.500037,31.436501 z"
             style="fill:#404040;"/>
          </a>
         </g>
        </svg>
</svg>
