<?xml version="1.0" encoding="UTF-8" standalone="no"?>
<!DOCTYPE svg PUBLIC "-//W3C//DTD SVG 1.1//EN"
 "http://www.w3.org/Graphics/SVG/1.1/DTD/svg11.dtd">
<!-- Generated by graphviz version 2.40.1 (20161225.0304)
 -->
<!-- Title: amr_wind::transport::TransportModel Pages: 1 -->
<svg width="240pt" height="106pt"
 viewBox="0.00 0.00 239.50 106.00" xmlns="http://www.w3.org/2000/svg" xmlns:xlink="http://www.w3.org/1999/xlink">
<g id="graph0" class="graph" transform="scale(1 1) rotate(0) translate(4 102)">
<title>amr_wind::transport::TransportModel</title>
<polygon fill="#ffffff" stroke="transparent" points="-4,4 -4,-102 235.5,-102 235.5,4 -4,4"/>
<!-- Node0 -->
<g id="node1" class="node">
<title>Node0</title>
<polygon fill="#bfbfbf" stroke="#000000" points="62,-67.5 62,-97.5 165,-97.5 165,-67.5 62,-67.5"/>
<text text-anchor="start" x="70" y="-85.5" font-family="Helvetica,sans-Serif" font-size="10.00" fill="#000000">amr_wind::transport</text>
<text text-anchor="middle" x="113.5" y="-74.5" font-family="Helvetica,sans-Serif" font-size="10.00" fill="#000000">::TransportModel</text>
</g>
<!-- Node1 -->
<g id="node2" class="node">
<title>Node1</title>
<g id="a_node2"><a xlink:href="classamr__wind_1_1transport_1_1_const_transport.html" target="_top" xlink:title="Fluid transport model with constant properties. ">
<polygon fill="#ffffff" stroke="#000000" points="0,-.5 0,-30.5 103,-30.5 103,-.5 0,-.5"/>
<text text-anchor="start" x="8" y="-18.5" font-family="Helvetica,sans-Serif" font-size="10.00" fill="#000000">amr_wind::transport</text>
<text text-anchor="middle" x="51.5" y="-7.5" font-family="Helvetica,sans-Serif" font-size="10.00" fill="#000000">::ConstTransport</text>
</a>
</g>
</g>
<!-- Node0&#45;&gt;Node1 -->
<g id="edge1" class="edge">
<title>Node0&#45;&gt;Node1</title>
<path fill="none" stroke="#191970" d="M92.61,-59.9253C83.6871,-50.2828 73.5093,-39.2843 65.5131,-30.6432"/>
<polygon fill="#191970" stroke="#191970" points="90.0704,-62.3342 99.4312,-67.2967 95.2082,-57.5798 90.0704,-62.3342"/>
</g>
<!-- Node2 -->
<g id="node3" class="node">
<title>Node2</title>
<g id="a_node3"><a xlink:href="classamr__wind_1_1transport_1_1_two_phase_transport.html" target="_top" xlink:title="Two&#45;phase fluid transport model with piece&#45;wise constant properties. ">
<polygon fill="#ffffff" stroke="#000000" points="121.5,-.5 121.5,-30.5 231.5,-30.5 231.5,-.5 121.5,-.5"/>
<text text-anchor="start" x="129.5" y="-18.5" font-family="Helvetica,sans-Serif" font-size="10.00" fill="#000000">amr_wind::transport</text>
<text text-anchor="middle" x="176.5" y="-7.5" font-family="Helvetica,sans-Serif" font-size="10.00" fill="#000000">::TwoPhaseTransport</text>
</a>
</g>
</g>
<!-- Node0&#45;&gt;Node2 -->
<g id="edge2" class="edge">
<title>Node0&#45;&gt;Node2</title>
<path fill="none" stroke="#191970" d="M134.727,-59.9253C143.7938,-50.2828 154.1357,-39.2843 162.2609,-30.6432"/>
<polygon fill="#191970" stroke="#191970" points="132.0961,-57.6138 127.7957,-67.2967 137.1958,-62.409 132.0961,-57.6138"/>
</g>
</g>
</svg>
