<?xml version="1.0" encoding="UTF-8" standalone="no"?>
<!DOCTYPE svg PUBLIC "-//W3C//DTD SVG 1.1//EN"
 "http://www.w3.org/Graphics/SVG/1.1/DTD/svg11.dtd">
<!-- Generated by graphviz version 2.40.1 (20161225.0304)
 -->
<!-- Title: amr_wind::pde::MacProjOp Pages: 1 -->
<svg width="407pt" height="371pt"
 viewBox="0.00 0.00 406.50 371.00" xmlns="http://www.w3.org/2000/svg" xmlns:xlink="http://www.w3.org/1999/xlink">
<g id="graph0" class="graph" transform="scale(1 1) rotate(0) translate(4 367)">
<title>amr_wind::pde::MacProjOp</title>
<polygon fill="#ffffff" stroke="transparent" points="-4,4 -4,-367 402.5,-367 402.5,4 -4,4"/>
<!-- Node1 -->
<g id="node1" class="node">
<title>Node1</title>
<polygon fill="#bfbfbf" stroke="#000000" points="126,-.5 126,-19.5 261,-19.5 261,-.5 126,-.5"/>
<text text-anchor="middle" x="193.5" y="-7.5" font-family="Helvetica,sans-Serif" font-size="10.00" fill="#000000">amr_wind::pde::MacProjOp</text>
</g>
<!-- Node2 -->
<g id="node2" class="node">
<title>Node2</title>
<polygon fill="#ffffff" stroke="#bfbfbf" points="0,-105.5 0,-135.5 117,-135.5 117,-105.5 0,-105.5"/>
<text text-anchor="start" x="8" y="-123.5" font-family="Helvetica,sans-Serif" font-size="10.00" fill="#000000">std::unique_ptr&lt; amrex</text>
<text text-anchor="middle" x="58.5" y="-112.5" font-family="Helvetica,sans-Serif" font-size="10.00" fill="#000000">::MacProjector &gt;</text>
</g>
<!-- Node2&#45;&gt;Node1 -->
<g id="edge1" class="edge">
<title>Node2&#45;&gt;Node1</title>
<path fill="none" stroke="#9a32cd" stroke-dasharray="5,2" d="M60.524,-95.316C62.3979,-85.588 65.9217,-74.9179 72.5,-67 92.9039,-42.4411 126.2964,-27.8201 152.8387,-19.5464"/>
<polygon fill="#9a32cd" stroke="#9a32cd" points="57.0436,-94.9284 59.0716,-105.3274 63.9711,-95.9335 57.0436,-94.9284"/>
<text text-anchor="middle" x="101" y="-74.5" font-family="Helvetica,sans-Serif" font-size="10.00" fill="#000000"> m_mac_proj</text>
</g>
<!-- Node3 -->
<g id="node3" class="node">
<title>Node3</title>
<g id="a_node3"><a xlink:title="STL class. ">
<polygon fill="#ffffff" stroke="#bfbfbf" points="4,-210 4,-229 109,-229 109,-210 4,-210"/>
<text text-anchor="middle" x="56.5" y="-217" font-family="Helvetica,sans-Serif" font-size="10.00" fill="#000000">std::unique_ptr&lt; T &gt;</text>
</a>
</g>
</g>
<!-- Node3&#45;&gt;Node2 -->
<g id="edge2" class="edge">
<title>Node3&#45;&gt;Node2</title>
<path fill="none" stroke="#ffa500" stroke-dasharray="5,2" d="M56.904,-199.5022C57.2843,-180.6778 57.8456,-152.8907 58.1913,-135.7822"/>
<polygon fill="#ffa500" stroke="#ffa500" points="53.4019,-199.5769 56.6991,-209.6456 60.4004,-199.7183 53.4019,-199.5769"/>
<text text-anchor="middle" x="114.5" y="-167" font-family="Helvetica,sans-Serif" font-size="10.00" fill="#000000"> &lt; amrex::MacProjector &gt;</text>
</g>
<!-- Node4 -->
<g id="node4" class="node">
<title>Node4</title>
<polygon fill="#ffffff" stroke="#bfbfbf" points="61,-338 61,-357 90,-357 90,-338 61,-338"/>
<text text-anchor="middle" x="75.5" y="-345" font-family="Helvetica,sans-Serif" font-size="10.00" fill="#000000">T</text>
</g>
<!-- Node4&#45;&gt;Node3 -->
<g id="edge3" class="edge">
<title>Node4&#45;&gt;Node3</title>
<path fill="none" stroke="#9a32cd" stroke-dasharray="5,2" d="M72.5684,-327.7504C68.4358,-299.9095 61.0546,-250.1838 57.9447,-229.2324"/>
<polygon fill="#9a32cd" stroke="#9a32cd" points="69.1415,-328.5015 74.0719,-337.8792 76.0656,-327.4736 69.1415,-328.5015"/>
<text text-anchor="middle" x="78" y="-306" font-family="Helvetica,sans-Serif" font-size="10.00" fill="#000000"> ptr</text>
</g>
<!-- Node10 -->
<g id="node10" class="node">
<title>Node10</title>
<g id="a_node10"><a xlink:title="STL class. ">
<polygon fill="#ffffff" stroke="#bfbfbf" points="107,-254.5 107,-284.5 210,-284.5 210,-254.5 107,-254.5"/>
<text text-anchor="start" x="115" y="-272.5" font-family="Helvetica,sans-Serif" font-size="10.00" fill="#000000">std::unordered_map</text>
<text text-anchor="middle" x="158.5" y="-261.5" font-family="Helvetica,sans-Serif" font-size="10.00" fill="#000000">&lt; K, T &gt;</text>
</a>
</g>
</g>
<!-- Node4&#45;&gt;Node10 -->
<g id="edge12" class="edge">
<title>Node4&#45;&gt;Node10</title>
<path fill="none" stroke="#9a32cd" stroke-dasharray="5,2" d="M88.7496,-329.5587C95.4214,-321.0728 103.9058,-311.0596 112.5,-303 119.4181,-296.5123 127.6164,-290.1794 135.1619,-284.7976"/>
<polygon fill="#9a32cd" stroke="#9a32cd" points="85.8164,-327.6327 82.5244,-337.7031 91.3779,-331.8837 85.8164,-327.6327"/>
<text text-anchor="middle" x="134" y="-306" font-family="Helvetica,sans-Serif" font-size="10.00" fill="#000000"> elements</text>
</g>
<!-- Node5 -->
<g id="node5" class="node">
<title>Node5</title>
<g id="a_node5"><a xlink:href="structamr__wind_1_1_m_l_m_g_options.html" target="_top" xlink:title="Interface to control the behavior of AMReX LinearSolvers. ">
<polygon fill="#ffffff" stroke="#000000" points="262.5,-111 262.5,-130 390.5,-130 390.5,-111 262.5,-111"/>
<text text-anchor="middle" x="326.5" y="-118" font-family="Helvetica,sans-Serif" font-size="10.00" fill="#000000">amr_wind::MLMGOptions</text>
</a>
</g>
</g>
<!-- Node5&#45;&gt;Node1 -->
<g id="edge4" class="edge">
<title>Node5&#45;&gt;Node1</title>
<path fill="none" stroke="#9a32cd" stroke-dasharray="5,2" d="M308.9539,-103.8377C290.6374,-86.7092 260.8264,-59.5688 233.5,-38 225.3823,-31.5927 215.9173,-24.9332 208.2328,-19.7171"/>
<polygon fill="#9a32cd" stroke="#9a32cd" points="306.8289,-106.644 316.5105,-110.9471 311.6255,-101.5457 306.8289,-106.644"/>
<text text-anchor="middle" x="314" y="-74.5" font-family="Helvetica,sans-Serif" font-size="10.00" fill="#000000"> m_options</text>
</g>
<!-- Node6 -->
<g id="node6" class="node">
<title>Node6</title>
<g id="a_node6"><a xlink:title="STL class. ">
<polygon fill="#ffffff" stroke="#bfbfbf" points="272.5,-260 272.5,-279 332.5,-279 332.5,-260 272.5,-260"/>
<text text-anchor="middle" x="302.5" y="-267" font-family="Helvetica,sans-Serif" font-size="10.00" fill="#000000">std::string</text>
</a>
</g>
</g>
<!-- Node6&#45;&gt;Node5 -->
<g id="edge5" class="edge">
<title>Node6&#45;&gt;Node5</title>
<path fill="none" stroke="#9a32cd" stroke-dasharray="5,2" d="M305.6968,-249.6531C310.9174,-217.2423 321.0787,-154.1571 324.9507,-130.1186"/>
<polygon fill="#9a32cd" stroke="#9a32cd" points="302.2096,-249.2943 304.0747,-259.7237 309.1205,-250.4076 302.2096,-249.2943"/>
<text text-anchor="middle" x="355.5" y="-228" font-family="Helvetica,sans-Serif" font-size="10.00" fill="#000000"> hypre_namespace</text>
<text text-anchor="middle" x="355.5" y="-217" font-family="Helvetica,sans-Serif" font-size="10.00" fill="#000000">bottom_solver_type</text>
<text text-anchor="middle" x="355.5" y="-206" font-family="Helvetica,sans-Serif" font-size="10.00" fill="#000000">hypre_interface</text>
</g>
<!-- Node9 -->
<g id="node9" class="node">
<title>Node9</title>
<polygon fill="#ffffff" stroke="#bfbfbf" points="186.5,-154.5 186.5,-184.5 296.5,-184.5 296.5,-154.5 186.5,-154.5"/>
<text text-anchor="start" x="194.5" y="-172.5" font-family="Helvetica,sans-Serif" font-size="10.00" fill="#000000">std::unordered_map</text>
<text text-anchor="middle" x="241.5" y="-161.5" font-family="Helvetica,sans-Serif" font-size="10.00" fill="#000000">&lt; std::string, size_t &gt;</text>
</g>
<!-- Node6&#45;&gt;Node9 -->
<g id="edge9" class="edge">
<title>Node6&#45;&gt;Node9</title>
<path fill="none" stroke="#9a32cd" stroke-dasharray="5,2" d="M289.8391,-251.644C286.3999,-246.6378 282.7342,-241.154 279.5,-236 268.6863,-218.7673 257.225,-198.3797 249.7528,-184.7637"/>
<polygon fill="#9a32cd" stroke="#9a32cd" points="287.0516,-253.7656 295.6432,-259.9651 292.7929,-249.7609 287.0516,-253.7656"/>
<text text-anchor="middle" x="292" y="-217" font-family="Helvetica,sans-Serif" font-size="10.00" fill="#000000"> keys</text>
</g>
<!-- Node7 -->
<g id="node7" class="node">
<title>Node7</title>
<g id="a_node7"><a xlink:title="STL class. ">
<polygon fill="#ffffff" stroke="#bfbfbf" points="255,-332.5 255,-362.5 350,-362.5 350,-332.5 255,-332.5"/>
<text text-anchor="start" x="263" y="-350.5" font-family="Helvetica,sans-Serif" font-size="10.00" fill="#000000">std::basic_string&lt;</text>
<text text-anchor="middle" x="302.5" y="-339.5" font-family="Helvetica,sans-Serif" font-size="10.00" fill="#000000"> char &gt;</text>
</a>
</g>
</g>
<!-- Node7&#45;&gt;Node6 -->
<g id="edge6" class="edge">
<title>Node7&#45;&gt;Node6</title>
<path fill="none" stroke="#191970" d="M302.5,-322.3962C302.5,-307.6331 302.5,-289.8138 302.5,-279.0839"/>
<polygon fill="#191970" stroke="#191970" points="299.0001,-322.4608 302.5,-332.4608 306.0001,-322.4609 299.0001,-322.4608"/>
</g>
<!-- Node8 -->
<g id="node8" class="node">
<title>Node8</title>
<g id="a_node8"><a xlink:href="classamr__wind_1_1_field_repo.html" target="_top" xlink:title="Field RepositoryFieldRepo is a database that manages handling of fields used during a simulation...">
<polygon fill="#ffffff" stroke="#000000" points="139,-67.5 139,-86.5 248,-86.5 248,-67.5 139,-67.5"/>
<text text-anchor="middle" x="193.5" y="-74.5" font-family="Helvetica,sans-Serif" font-size="10.00" fill="#000000">amr_wind::FieldRepo</text>
</a>
</g>
</g>
<!-- Node8&#45;&gt;Node1 -->
<g id="edge7" class="edge">
<title>Node8&#45;&gt;Node1</title>
<path fill="none" stroke="#9a32cd" stroke-dasharray="5,2" d="M193.5,-57.1079C193.5,-44.714 193.5,-29.3263 193.5,-19.5817"/>
<polygon fill="#9a32cd" stroke="#9a32cd" points="190.0001,-57.4005 193.5,-67.4005 197.0001,-57.4006 190.0001,-57.4005"/>
<text text-anchor="middle" x="211.5" y="-41" font-family="Helvetica,sans-Serif" font-size="10.00" fill="#000000"> m_repo</text>
</g>
<!-- Node9&#45;&gt;Node8 -->
<g id="edge8" class="edge">
<title>Node9&#45;&gt;Node8</title>
<path fill="none" stroke="#9a32cd" stroke-dasharray="5,2" d="M199.3671,-148.2191C195.444,-144.6568 192.0064,-140.5963 189.5,-136 181.0458,-120.4968 185.7576,-99.1925 189.7599,-86.8807"/>
<polygon fill="#9a32cd" stroke="#9a32cd" points="197.3515,-151.0854 207.3929,-154.465 201.6506,-145.5611 197.3515,-151.0854"/>
<text text-anchor="middle" x="221.5" y="-123.5" font-family="Helvetica,sans-Serif" font-size="10.00" fill="#000000"> m_fid_map</text>
<text text-anchor="middle" x="221.5" y="-112.5" font-family="Helvetica,sans-Serif" font-size="10.00" fill="#000000">m_int_fid_map</text>
</g>
<!-- Node10&#45;&gt;Node9 -->
<g id="edge10" class="edge">
<title>Node10&#45;&gt;Node9</title>
<path fill="none" stroke="#ffa500" stroke-dasharray="5,2" d="M152.1438,-244.3734C150.2398,-231.0133 150.4491,-214.9314 158.5,-203 165.1926,-193.0816 175.3681,-186.099 186.3259,-181.1835"/>
<polygon fill="#ffa500" stroke="#ffa500" points="148.7352,-245.1872 154.0144,-254.3731 155.6158,-243.9 148.7352,-245.1872"/>
<text text-anchor="middle" x="207" y="-217" font-family="Helvetica,sans-Serif" font-size="10.00" fill="#000000"> &lt; std::string, size_t &gt;</text>
</g>
<!-- Node11 -->
<g id="node11" class="node">
<title>Node11</title>
<polygon fill="#ffffff" stroke="#bfbfbf" points="146,-338 146,-357 175,-357 175,-338 146,-338"/>
<text text-anchor="middle" x="160.5" y="-345" font-family="Helvetica,sans-Serif" font-size="10.00" fill="#000000">K</text>
</g>
<!-- Node11&#45;&gt;Node10 -->
<g id="edge11" class="edge">
<title>Node11&#45;&gt;Node10</title>
<path fill="none" stroke="#9a32cd" stroke-dasharray="5,2" d="M159.9968,-327.8751C159.6544,-314.5215 159.2078,-297.1052 158.8919,-284.7824"/>
<polygon fill="#9a32cd" stroke="#9a32cd" points="156.4995,-328.0287 160.2548,-337.9357 163.4972,-327.8492 156.4995,-328.0287"/>
<text text-anchor="middle" x="173" y="-306" font-family="Helvetica,sans-Serif" font-size="10.00" fill="#000000"> keys</text>
</g>
</g>
</svg>
