<?xml version="1.0" encoding="UTF-8" standalone="no"?>
<!DOCTYPE svg PUBLIC "-//W3C//DTD SVG 1.1//EN"
 "http://www.w3.org/Graphics/SVG/1.1/DTD/svg11.dtd">
<!-- Generated by graphviz version 2.40.1 (20161225.0304)
 -->
<!-- Title: amr_wind::actuator::Actuator Pages: 1 -->
<svg width="109pt" height="106pt"
 viewBox="0.00 0.00 109.00 106.00" xmlns="http://www.w3.org/2000/svg" xmlns:xlink="http://www.w3.org/1999/xlink">
<g id="graph0" class="graph" transform="scale(1 1) rotate(0) translate(4 102)">
<title>amr_wind::actuator::Actuator</title>
<polygon fill="#ffffff" stroke="transparent" points="-4,4 -4,-102 105,-102 105,4 -4,4"/>
<!-- Node0 -->
<g id="node1" class="node">
<title>Node0</title>
<polygon fill="#bfbfbf" stroke="#000000" points=".5,-.5 .5,-30.5 100.5,-30.5 100.5,-.5 .5,-.5"/>
<text text-anchor="start" x="8.5" y="-18.5" font-family="Helvetica,sans-Serif" font-size="10.00" fill="#000000">amr_wind::actuator</text>
<text text-anchor="middle" x="50.5" y="-7.5" font-family="Helvetica,sans-Serif" font-size="10.00" fill="#000000">::Actuator</text>
</g>
<!-- Node1 -->
<g id="node2" class="node">
<title>Node1</title>
<polygon fill="#ffffff" stroke="#bfbfbf" points="0,-67.5 0,-97.5 101,-97.5 101,-67.5 0,-67.5"/>
<text text-anchor="start" x="8" y="-85.5" font-family="Helvetica,sans-Serif" font-size="10.00" fill="#000000">Physics::Register&lt;</text>
<text text-anchor="middle" x="50.5" y="-74.5" font-family="Helvetica,sans-Serif" font-size="10.00" fill="#000000"> Actuator &gt;</text>
</g>
<!-- Node1&#45;&gt;Node0 -->
<g id="edge1" class="edge">
<title>Node1&#45;&gt;Node0</title>
<path fill="none" stroke="#191970" d="M50.5,-57.0249C50.5,-48.128 50.5,-38.4287 50.5,-30.6432"/>
<polygon fill="#191970" stroke="#191970" points="47.0001,-57.2966 50.5,-67.2967 54.0001,-57.2967 47.0001,-57.2966"/>
</g>
</g>
</svg>
