<?xml version="1.0" encoding="UTF-8" standalone="no"?>
<!DOCTYPE svg PUBLIC "-//W3C//DTD SVG 1.1//EN"
 "http://www.w3.org/Graphics/SVG/1.1/DTD/svg11.dtd">
<!-- Generated by graphviz version 2.40.1 (20161225.0304)
 -->
<!-- Title: amr_wind::udf::UDF Pages: 1 -->
<svg width="137pt" height="174pt"
 viewBox="0.00 0.00 136.50 174.00" xmlns="http://www.w3.org/2000/svg" xmlns:xlink="http://www.w3.org/1999/xlink">
<g id="graph0" class="graph" transform="scale(1 1) rotate(0) translate(4 170)">
<title>amr_wind::udf::UDF</title>
<polygon fill="#ffffff" stroke="transparent" points="-4,4 -4,-170 132.5,-170 132.5,4 -4,4"/>
<!-- Node3 -->
<g id="node1" class="node">
<title>Node3</title>
<polygon fill="#bfbfbf" stroke="#000000" points="0,-.5 0,-19.5 105,-19.5 105,-.5 0,-.5"/>
<text text-anchor="middle" x="52.5" y="-7.5" font-family="Helvetica,sans-Serif" font-size="10.00" fill="#000000">amr_wind::udf::UDF</text>
</g>
<!-- Node4 -->
<g id="node2" class="node">
<title>Node4</title>
<g id="a_node2"><a xlink:href="structamr__wind_1_1_factory.html" target="_top" xlink:title="amr_wind::Factory\&lt;\l UDF, Field &amp;\&gt;">
<polygon fill="#ffffff" stroke="#000000" points=".5,-57.5 .5,-87.5 104.5,-87.5 104.5,-57.5 .5,-57.5"/>
<text text-anchor="start" x="8.5" y="-75.5" font-family="Helvetica,sans-Serif" font-size="10.00" fill="#000000">amr_wind::Factory&lt;</text>
<text text-anchor="middle" x="52.5" y="-64.5" font-family="Helvetica,sans-Serif" font-size="10.00" fill="#000000"> UDF, Field &amp;&gt;</text>
</a>
</g>
</g>
<!-- Node4&#45;&gt;Node3 -->
<g id="edge1" class="edge">
<title>Node4&#45;&gt;Node3</title>
<path fill="none" stroke="#191970" d="M52.5,-47.3498C52.5,-37.6481 52.5,-27.1303 52.5,-19.7356"/>
<polygon fill="#191970" stroke="#191970" points="49.0001,-47.3705 52.5,-57.3705 56.0001,-47.3705 49.0001,-47.3705"/>
</g>
<!-- Node5 -->
<g id="node3" class="node">
<title>Node5</title>
<g id="a_node3"><a xlink:href="structamr__wind_1_1_factory.html" target="_top" xlink:title="Runtime selection of options based on string keyword lookupFactory provides an automated way to regis...">
<polygon fill="#ffffff" stroke="#000000" points=".5,-135.5 .5,-165.5 104.5,-165.5 104.5,-135.5 .5,-135.5"/>
<text text-anchor="start" x="8.5" y="-153.5" font-family="Helvetica,sans-Serif" font-size="10.00" fill="#000000">amr_wind::Factory&lt;</text>
<text text-anchor="middle" x="52.5" y="-142.5" font-family="Helvetica,sans-Serif" font-size="10.00" fill="#000000"> Base, Args &gt;</text>
</a>
</g>
</g>
<!-- Node5&#45;&gt;Node4 -->
<g id="edge2" class="edge">
<title>Node5&#45;&gt;Node4</title>
<path fill="none" stroke="#ffa500" stroke-dasharray="5,2" d="M52.5,-125.2875C52.5,-112.9187 52.5,-98.4264 52.5,-87.7592"/>
<polygon fill="#ffa500" stroke="#ffa500" points="49.0001,-125.4608 52.5,-135.4608 56.0001,-125.4608 49.0001,-125.4608"/>
<text text-anchor="middle" x="90.5" y="-109" font-family="Helvetica,sans-Serif" font-size="10.00" fill="#000000"> &lt; UDF, Field &amp;&gt;</text>
</g>
</g>
</svg>
