<?xml version="1.0" encoding="UTF-8" standalone="no"?>
<!DOCTYPE svg PUBLIC "-//W3C//DTD SVG 1.1//EN"
 "http://www.w3.org/Graphics/SVG/1.1/DTD/svg11.dtd">
<!-- Generated by graphviz version 2.40.1 (20161225.0304)
 -->
<!-- Title: amr_wind::DerivedQty Pages: 1 -->
<svg width="196pt" height="207pt"
 viewBox="0.00 0.00 196.00 207.00" xmlns="http://www.w3.org/2000/svg" xmlns:xlink="http://www.w3.org/1999/xlink">
<g id="graph0" class="graph" transform="scale(1 1) rotate(0) translate(4 203)">
<title>amr_wind::DerivedQty</title>
<polygon fill="#ffffff" stroke="transparent" points="-4,4 -4,-203 192,-203 192,4 -4,4"/>
<!-- Node3 -->
<g id="node1" class="node">
<title>Node3</title>
<polygon fill="#bfbfbf" stroke="#000000" points="21,-.5 21,-19.5 135,-19.5 135,-.5 21,-.5"/>
<text text-anchor="middle" x="78" y="-7.5" font-family="Helvetica,sans-Serif" font-size="10.00" fill="#000000">amr_wind::DerivedQty</text>
</g>
<!-- Node4 -->
<g id="node2" class="node">
<title>Node4</title>
<g id="a_node2"><a xlink:href="structamr__wind_1_1_factory.html" target="_top" xlink:title="amr_wind::Factory\&lt;\l DerivedQty, const FieldRepo\l &amp;, std::vector\&lt; std::string \&gt; &amp;\&gt;">
<polygon fill="#ffffff" stroke="#000000" points="0,-57.5 0,-98.5 156,-98.5 156,-57.5 0,-57.5"/>
<text text-anchor="start" x="8" y="-86.5" font-family="Helvetica,sans-Serif" font-size="10.00" fill="#000000">amr_wind::Factory&lt;</text>
<text text-anchor="start" x="8" y="-75.5" font-family="Helvetica,sans-Serif" font-size="10.00" fill="#000000"> DerivedQty, const FieldRepo</text>
<text text-anchor="middle" x="78" y="-64.5" font-family="Helvetica,sans-Serif" font-size="10.00" fill="#000000"> &amp;, std::vector&lt; std::string &gt; &amp;&gt;</text>
</a>
</g>
</g>
<!-- Node4&#45;&gt;Node3 -->
<g id="edge1" class="edge">
<title>Node4&#45;&gt;Node3</title>
<path fill="none" stroke="#191970" d="M78,-47.1423C78,-37.1999 78,-26.896 78,-19.6705"/>
<polygon fill="#191970" stroke="#191970" points="74.5001,-47.2282 78,-57.2283 81.5001,-47.2283 74.5001,-47.2282"/>
</g>
<!-- Node5 -->
<g id="node3" class="node">
<title>Node5</title>
<g id="a_node3"><a xlink:href="structamr__wind_1_1_factory.html" target="_top" xlink:title="Runtime selection of options based on string keyword lookupFactory provides an automated way to regis...">
<polygon fill="#ffffff" stroke="#000000" points="26,-168.5 26,-198.5 130,-198.5 130,-168.5 26,-168.5"/>
<text text-anchor="start" x="34" y="-186.5" font-family="Helvetica,sans-Serif" font-size="10.00" fill="#000000">amr_wind::Factory&lt;</text>
<text text-anchor="middle" x="78" y="-175.5" font-family="Helvetica,sans-Serif" font-size="10.00" fill="#000000"> Base, Args &gt;</text>
</a>
</g>
</g>
<!-- Node5&#45;&gt;Node4 -->
<g id="edge2" class="edge">
<title>Node5&#45;&gt;Node4</title>
<path fill="none" stroke="#ffa500" stroke-dasharray="5,2" d="M78,-158.1769C78,-139.9145 78,-115.5763 78,-98.5233"/>
<polygon fill="#ffa500" stroke="#ffa500" points="74.5001,-158.3844 78,-168.3844 81.5001,-158.3845 74.5001,-158.3844"/>
<text text-anchor="start" x="78" y="-142" font-family="Helvetica,sans-Serif" font-size="10.00" fill="#000000"> &lt; DerivedQty, const</text>
<text text-anchor="start" x="78" y="-131" font-family="Helvetica,sans-Serif" font-size="10.00" fill="#000000"> FieldRepo &amp;, std::vector</text>
<text text-anchor="middle" x="133" y="-120" font-family="Helvetica,sans-Serif" font-size="10.00" fill="#000000">&lt; std::string &gt; &amp;&gt;</text>
</g>
</g>
</svg>
