<?xml version="1.0" encoding="UTF-8" standalone="no"?>
<!DOCTYPE svg PUBLIC "-//W3C//DTD SVG 1.1//EN"
 "http://www.w3.org/Graphics/SVG/1.1/DTD/svg11.dtd">
<!-- Generated by graphviz version 2.40.1 (20161225.0304)
 -->
<!-- Title: amr_wind::udf::ConstValue Pages: 1 -->
<svg width="276pt" height="407pt"
 viewBox="0.00 0.00 275.50 407.00" xmlns="http://www.w3.org/2000/svg" xmlns:xlink="http://www.w3.org/1999/xlink">
<g id="graph0" class="graph" transform="scale(1 1) rotate(0) translate(4 403)">
<title>amr_wind::udf::ConstValue</title>
<polygon fill="#ffffff" stroke="transparent" points="-4,4 -4,-403 271.5,-403 271.5,4 -4,4"/>
<!-- Node2 -->
<g id="node1" class="node">
<title>Node2</title>
<polygon fill="#bfbfbf" stroke="#000000" points="23,-.5 23,-19.5 158,-19.5 158,-.5 23,-.5"/>
<text text-anchor="middle" x="90.5" y="-7.5" font-family="Helvetica,sans-Serif" font-size="10.00" fill="#000000">amr_wind::udf::ConstValue</text>
</g>
<!-- Node3 -->
<g id="node2" class="node">
<title>Node3</title>
<polygon fill="#ffffff" stroke="#bfbfbf" points="0,-67.5 0,-86.5 149,-86.5 149,-67.5 0,-67.5"/>
<text text-anchor="middle" x="74.5" y="-74.5" font-family="Helvetica,sans-Serif" font-size="10.00" fill="#000000">UDF::Register&lt; ConstValue &gt;</text>
</g>
<!-- Node3&#45;&gt;Node2 -->
<g id="edge1" class="edge">
<title>Node3&#45;&gt;Node2</title>
<path fill="none" stroke="#191970" d="M79.16,-57.4863C82.135,-45.0286 85.861,-29.4258 88.2118,-19.5817"/>
<polygon fill="#191970" stroke="#191970" points="75.711,-56.861 76.7924,-67.4005 82.5195,-58.487 75.711,-56.861"/>
</g>
<!-- Node4 -->
<g id="node3" class="node">
<title>Node4</title>
<g id="a_node3"><a xlink:href="classamr__wind_1_1_field.html" target="_top" xlink:title="Computational fieldThis is an abstraction of a collection of MultiFabs over multiple levels...">
<polygon fill="#ffffff" stroke="#000000" points="167.5,-67.5 167.5,-86.5 253.5,-86.5 253.5,-67.5 167.5,-67.5"/>
<text text-anchor="middle" x="210.5" y="-74.5" font-family="Helvetica,sans-Serif" font-size="10.00" fill="#000000">amr_wind::Field</text>
</a>
</g>
</g>
<!-- Node4&#45;&gt;Node2 -->
<g id="edge2" class="edge">
<title>Node4&#45;&gt;Node2</title>
<path fill="none" stroke="#9a32cd" stroke-dasharray="5,2" d="M184.3232,-62.3846C161.0511,-49.391 127.6967,-30.7681 107.6612,-19.5817"/>
<polygon fill="#9a32cd" stroke="#9a32cd" points="182.8694,-65.5815 193.3069,-67.4005 186.2819,-59.4696 182.8694,-65.5815"/>
<text text-anchor="middle" x="176" y="-41" font-family="Helvetica,sans-Serif" font-size="10.00" fill="#000000"> m_field</text>
</g>
<!-- Node5 -->
<g id="node4" class="node">
<title>Node5</title>
<g id="a_node4"><a xlink:title="STL class. ">
<polygon fill="#ffffff" stroke="#bfbfbf" points="188.5,-296 188.5,-315 248.5,-315 248.5,-296 188.5,-296"/>
<text text-anchor="middle" x="218.5" y="-303" font-family="Helvetica,sans-Serif" font-size="10.00" fill="#000000">std::string</text>
</a>
</g>
</g>
<!-- Node5&#45;&gt;Node4 -->
<g id="edge3" class="edge">
<title>Node5&#45;&gt;Node4</title>
<path fill="none" stroke="#9a32cd" stroke-dasharray="5,2" d="M220.4309,-285.5774C220.8227,-281.1128 221.2046,-276.3969 221.5,-272 226.1519,-202.753 226.9441,-185.3857 228.5,-116 228.6096,-111.1123 229.8777,-109.6908 228.5,-105 226.5458,-98.3463 222.4686,-91.7781 218.6881,-86.6773"/>
<polygon fill="#9a32cd" stroke="#9a32cd" points="216.9182,-285.5532 219.4803,-295.8335 223.8883,-286.1993 216.9182,-285.5532"/>
<text text-anchor="middle" x="247" y="-180.5" font-family="Helvetica,sans-Serif" font-size="10.00" fill="#000000"> m_name</text>
</g>
<!-- Node8 -->
<g id="node7" class="node">
<title>Node8</title>
<polygon fill="#ffffff" stroke="#bfbfbf" points="102.5,-212.5 102.5,-242.5 212.5,-242.5 212.5,-212.5 102.5,-212.5"/>
<text text-anchor="start" x="110.5" y="-230.5" font-family="Helvetica,sans-Serif" font-size="10.00" fill="#000000">std::unordered_map</text>
<text text-anchor="middle" x="157.5" y="-219.5" font-family="Helvetica,sans-Serif" font-size="10.00" fill="#000000">&lt; std::string, size_t &gt;</text>
</g>
<!-- Node5&#45;&gt;Node8 -->
<g id="edge7" class="edge">
<title>Node5&#45;&gt;Node8</title>
<path fill="none" stroke="#9a32cd" stroke-dasharray="5,2" d="M204.6941,-287.8466C194.0811,-274.2759 179.5706,-255.7214 169.4516,-242.7824"/>
<polygon fill="#9a32cd" stroke="#9a32cd" points="202.1028,-290.2146 211.0202,-295.9357 207.6168,-285.9023 202.1028,-290.2146"/>
<text text-anchor="middle" x="205" y="-264" font-family="Helvetica,sans-Serif" font-size="10.00" fill="#000000"> keys</text>
</g>
<!-- Node6 -->
<g id="node5" class="node">
<title>Node6</title>
<g id="a_node5"><a xlink:title="STL class. ">
<polygon fill="#ffffff" stroke="#bfbfbf" points="171,-368.5 171,-398.5 266,-398.5 266,-368.5 171,-368.5"/>
<text text-anchor="start" x="179" y="-386.5" font-family="Helvetica,sans-Serif" font-size="10.00" fill="#000000">std::basic_string&lt;</text>
<text text-anchor="middle" x="218.5" y="-375.5" font-family="Helvetica,sans-Serif" font-size="10.00" fill="#000000"> char &gt;</text>
</a>
</g>
</g>
<!-- Node6&#45;&gt;Node5 -->
<g id="edge4" class="edge">
<title>Node6&#45;&gt;Node5</title>
<path fill="none" stroke="#191970" d="M218.5,-358.3962C218.5,-343.6331 218.5,-325.8138 218.5,-315.0839"/>
<polygon fill="#191970" stroke="#191970" points="215.0001,-358.4608 218.5,-368.4608 222.0001,-358.4609 215.0001,-358.4608"/>
</g>
<!-- Node7 -->
<g id="node6" class="node">
<title>Node7</title>
<g id="a_node6"><a xlink:href="classamr__wind_1_1_field_repo.html" target="_top" xlink:title="Field RepositoryFieldRepo is a database that manages handling of fields used during a simulation...">
<polygon fill="#ffffff" stroke="#000000" points="105,-134.5 105,-153.5 214,-153.5 214,-134.5 105,-134.5"/>
<text text-anchor="middle" x="159.5" y="-141.5" font-family="Helvetica,sans-Serif" font-size="10.00" fill="#000000">amr_wind::FieldRepo</text>
</a>
</g>
</g>
<!-- Node7&#45;&gt;Node4 -->
<g id="edge5" class="edge">
<title>Node7&#45;&gt;Node4</title>
<path fill="none" stroke="#9a32cd" stroke-dasharray="5,2" d="M172.9361,-126.3486C182.6256,-113.6194 195.3348,-96.9229 203.2065,-86.5817"/>
<polygon fill="#9a32cd" stroke="#9a32cd" points="170.079,-124.3236 166.8071,-134.4005 175.6489,-128.5634 170.079,-124.3236"/>
<text text-anchor="middle" x="206.5" y="-108" font-family="Helvetica,sans-Serif" font-size="10.00" fill="#000000"> m_repo</text>
</g>
<!-- Node8&#45;&gt;Node7 -->
<g id="edge6" class="edge">
<title>Node8&#45;&gt;Node7</title>
<path fill="none" stroke="#9a32cd" stroke-dasharray="5,2" d="M157.8582,-202.4039C158.0188,-192.8813 158.233,-181.9391 158.5,-172 158.6646,-165.8733 158.9094,-158.9946 159.1156,-153.5884"/>
<polygon fill="#9a32cd" stroke="#9a32cd" points="154.3584,-202.3685 157.6997,-212.4227 161.3575,-202.4793 154.3584,-202.3685"/>
<text text-anchor="middle" x="190.5" y="-186" font-family="Helvetica,sans-Serif" font-size="10.00" fill="#000000"> m_fid_map</text>
<text text-anchor="middle" x="190.5" y="-175" font-family="Helvetica,sans-Serif" font-size="10.00" fill="#000000">m_int_fid_map</text>
</g>
<!-- Node9 -->
<g id="node8" class="node">
<title>Node9</title>
<g id="a_node8"><a xlink:title="STL class. ">
<polygon fill="#ffffff" stroke="#bfbfbf" points="33,-290.5 33,-320.5 136,-320.5 136,-290.5 33,-290.5"/>
<text text-anchor="start" x="41" y="-308.5" font-family="Helvetica,sans-Serif" font-size="10.00" fill="#000000">std::unordered_map</text>
<text text-anchor="middle" x="84.5" y="-297.5" font-family="Helvetica,sans-Serif" font-size="10.00" fill="#000000">&lt; K, T &gt;</text>
</a>
</g>
</g>
<!-- Node9&#45;&gt;Node8 -->
<g id="edge8" class="edge">
<title>Node9&#45;&gt;Node8</title>
<path fill="none" stroke="#ffa500" stroke-dasharray="5,2" d="M79.0011,-280.225C78.8133,-273.5391 79.8716,-266.6254 83.5,-261 88.545,-253.1783 95.9072,-247.163 104.0565,-242.5426"/>
<polygon fill="#ffa500" stroke="#ffa500" points="75.541,-280.7776 80.1318,-290.3262 82.4976,-279.9988 75.541,-280.7776"/>
<text text-anchor="middle" x="132" y="-264" font-family="Helvetica,sans-Serif" font-size="10.00" fill="#000000"> &lt; std::string, size_t &gt;</text>
</g>
<!-- Node10 -->
<g id="node9" class="node">
<title>Node10</title>
<polygon fill="#ffffff" stroke="#bfbfbf" points="56,-374 56,-393 85,-393 85,-374 56,-374"/>
<text text-anchor="middle" x="70.5" y="-381" font-family="Helvetica,sans-Serif" font-size="10.00" fill="#000000">K</text>
</g>
<!-- Node10&#45;&gt;Node9 -->
<g id="edge9" class="edge">
<title>Node10&#45;&gt;Node9</title>
<path fill="none" stroke="#9a32cd" stroke-dasharray="5,2" d="M69.4813,-363.5823C69.4663,-355.8425 69.9201,-346.944 71.5,-339 72.7412,-332.7589 75.0571,-326.173 77.3943,-320.5078"/>
<polygon fill="#9a32cd" stroke="#9a32cd" points="65.9898,-363.9462 69.7621,-373.8467 72.9872,-363.7547 65.9898,-363.9462"/>
<text text-anchor="middle" x="84" y="-342" font-family="Helvetica,sans-Serif" font-size="10.00" fill="#000000"> keys</text>
</g>
<!-- Node11 -->
<g id="node10" class="node">
<title>Node11</title>
<polygon fill="#ffffff" stroke="#bfbfbf" points="104,-374 104,-393 133,-393 133,-374 104,-374"/>
<text text-anchor="middle" x="118.5" y="-381" font-family="Helvetica,sans-Serif" font-size="10.00" fill="#000000">T</text>
</g>
<!-- Node11&#45;&gt;Node9 -->
<g id="edge10" class="edge">
<title>Node11&#45;&gt;Node9</title>
<path fill="none" stroke="#9a32cd" stroke-dasharray="5,2" d="M110.2927,-364.6714C104.4293,-351.2202 96.6405,-333.3517 91.1615,-320.7824"/>
<polygon fill="#9a32cd" stroke="#9a32cd" points="107.1266,-366.1673 114.3309,-373.9357 113.5435,-363.3701 107.1266,-366.1673"/>
<text text-anchor="middle" x="126" y="-342" font-family="Helvetica,sans-Serif" font-size="10.00" fill="#000000"> elements</text>
</g>
</g>
</svg>
