<?xml version="1.0" encoding="UTF-8" standalone="no"?>
<!DOCTYPE svg PUBLIC "-//W3C//DTD SVG 1.1//EN"
 "http://www.w3.org/Graphics/SVG/1.1/DTD/svg11.dtd">
<!-- Generated by graphviz version 2.40.1 (20161225.0304)
 -->
<!-- Title: amr_wind::RefinementCriteria Pages: 1 -->
<svg width="178pt" height="196pt"
 viewBox="0.00 0.00 178.00 196.00" xmlns="http://www.w3.org/2000/svg" xmlns:xlink="http://www.w3.org/1999/xlink">
<g id="graph0" class="graph" transform="scale(1 1) rotate(0) translate(4 192)">
<title>amr_wind::RefinementCriteria</title>
<polygon fill="#ffffff" stroke="transparent" points="-4,4 -4,-192 174,-192 174,4 -4,4"/>
<!-- Node0 -->
<g id="node1" class="node">
<title>Node0</title>
<polygon fill="#bfbfbf" stroke="#000000" points="0,-.5 0,-19.5 146,-19.5 146,-.5 0,-.5"/>
<text text-anchor="middle" x="73" y="-7.5" font-family="Helvetica,sans-Serif" font-size="10.00" fill="#000000">amr_wind::RefinementCriteria</text>
</g>
<!-- Node1 -->
<g id="node2" class="node">
<title>Node1</title>
<g id="a_node2"><a xlink:href="structamr__wind_1_1_factory.html" target="_top" xlink:title="amr_wind::Factory\&lt;\l RefinementCriteria,\l CFDSim &amp;\&gt;">
<polygon fill="#ffffff" stroke="#000000" points="21,-57.5 21,-98.5 125,-98.5 125,-57.5 21,-57.5"/>
<text text-anchor="start" x="29" y="-86.5" font-family="Helvetica,sans-Serif" font-size="10.00" fill="#000000">amr_wind::Factory&lt;</text>
<text text-anchor="start" x="29" y="-75.5" font-family="Helvetica,sans-Serif" font-size="10.00" fill="#000000"> RefinementCriteria,</text>
<text text-anchor="middle" x="73" y="-64.5" font-family="Helvetica,sans-Serif" font-size="10.00" fill="#000000"> CFDSim &amp;&gt;</text>
</a>
</g>
</g>
<!-- Node1&#45;&gt;Node0 -->
<g id="edge1" class="edge">
<title>Node1&#45;&gt;Node0</title>
<path fill="none" stroke="#191970" d="M73,-47.1423C73,-37.1999 73,-26.896 73,-19.6705"/>
<polygon fill="#191970" stroke="#191970" points="69.5001,-47.2282 73,-57.2283 76.5001,-47.2283 69.5001,-47.2282"/>
</g>
<!-- Node2 -->
<g id="node3" class="node">
<title>Node2</title>
<g id="a_node3"><a xlink:href="structamr__wind_1_1_factory.html" target="_top" xlink:title="Runtime selection of options based on string keyword lookupFactory provides an automated way to regis...">
<polygon fill="#ffffff" stroke="#000000" points="21,-157.5 21,-187.5 125,-187.5 125,-157.5 21,-157.5"/>
<text text-anchor="start" x="29" y="-175.5" font-family="Helvetica,sans-Serif" font-size="10.00" fill="#000000">amr_wind::Factory&lt;</text>
<text text-anchor="middle" x="73" y="-164.5" font-family="Helvetica,sans-Serif" font-size="10.00" fill="#000000"> Base, Args &gt;</text>
</a>
</g>
</g>
<!-- Node2&#45;&gt;Node1 -->
<g id="edge2" class="edge">
<title>Node2&#45;&gt;Node1</title>
<path fill="none" stroke="#ffa500" stroke-dasharray="5,2" d="M73,-147.1013C73,-131.9736 73,-113.0135 73,-98.7823"/>
<polygon fill="#ffa500" stroke="#ffa500" points="69.5001,-147.3169 73,-157.3169 76.5001,-147.317 69.5001,-147.3169"/>
<text text-anchor="start" x="73" y="-131" font-family="Helvetica,sans-Serif" font-size="10.00" fill="#000000"> &lt; RefinementCriteria,</text>
<text text-anchor="middle" x="121.5" y="-120" font-family="Helvetica,sans-Serif" font-size="10.00" fill="#000000"> CFDSim &amp;&gt;</text>
</g>
</g>
</svg>
