<?xml version="1.0" encoding="UTF-8" standalone="no"?>
<!DOCTYPE svg PUBLIC "-//W3C//DTD SVG 1.1//EN"
 "http://www.w3.org/Graphics/SVG/1.1/DTD/svg11.dtd">
<!-- Generated by graphviz version 2.40.1 (20161225.0304)
 -->
<!-- Title: amr_wind::udf::UDFImpl&lt; T &gt; Pages: 1 -->
<svg width="255pt" height="418pt"
 viewBox="0.00 0.00 254.50 418.00" xmlns="http://www.w3.org/2000/svg" xmlns:xlink="http://www.w3.org/1999/xlink">
<g id="graph0" class="graph" transform="scale(1 1) rotate(0) translate(4 414)">
<title>amr_wind::udf::UDFImpl&lt; T &gt;</title>
<polygon fill="#ffffff" stroke="transparent" points="-4,4 -4,-414 250.5,-414 250.5,4 -4,4"/>
<!-- Node2 -->
<g id="node1" class="node">
<title>Node2</title>
<polygon fill="#bfbfbf" stroke="#000000" points="6.5,-.5 6.5,-19.5 154.5,-19.5 154.5,-.5 6.5,-.5"/>
<text text-anchor="middle" x="80.5" y="-7.5" font-family="Helvetica,sans-Serif" font-size="10.00" fill="#000000">amr_wind::udf::UDFImpl&lt; T &gt;</text>
</g>
<!-- Node3 -->
<g id="node2" class="node">
<title>Node3</title>
<polygon fill="#ffffff" stroke="#bfbfbf" points="0,-67.5 0,-97.5 129,-97.5 129,-67.5 0,-67.5"/>
<text text-anchor="start" x="8" y="-85.5" font-family="Helvetica,sans-Serif" font-size="10.00" fill="#000000">UDF::Register&lt; UDFImpl</text>
<text text-anchor="middle" x="64.5" y="-74.5" font-family="Helvetica,sans-Serif" font-size="10.00" fill="#000000">&lt; T &gt; &gt;</text>
</g>
<!-- Node3&#45;&gt;Node2 -->
<g id="edge1" class="edge">
<title>Node3&#45;&gt;Node2</title>
<path fill="none" stroke="#191970" d="M69.9751,-57.6908C72.8369,-44.7233 76.179,-29.5795 78.3161,-19.8957"/>
<polygon fill="#191970" stroke="#191970" points="66.5526,-56.9586 67.8152,-67.478 73.3881,-58.4672 66.5526,-56.9586"/>
</g>
<!-- Node4 -->
<g id="node3" class="node">
<title>Node4</title>
<g id="a_node3"><a xlink:href="classamr__wind_1_1_field.html" target="_top" xlink:title="Computational fieldThis is an abstraction of a collection of MultiFabs over multiple levels...">
<polygon fill="#ffffff" stroke="#000000" points="147.5,-73 147.5,-92 233.5,-92 233.5,-73 147.5,-73"/>
<text text-anchor="middle" x="190.5" y="-80" font-family="Helvetica,sans-Serif" font-size="10.00" fill="#000000">amr_wind::Field</text>
</a>
</g>
</g>
<!-- Node4&#45;&gt;Node2 -->
<g id="edge2" class="edge">
<title>Node4&#45;&gt;Node2</title>
<path fill="none" stroke="#9a32cd" stroke-dasharray="5,2" d="M167.2937,-67.2049C145.4925,-52.836 113.5411,-31.7771 95.1,-19.6228"/>
<polygon fill="#9a32cd" stroke="#9a32cd" points="165.3892,-70.1415 175.6649,-72.7223 169.2414,-64.2968 165.3892,-70.1415"/>
<text text-anchor="middle" x="157" y="-41" font-family="Helvetica,sans-Serif" font-size="10.00" fill="#000000"> m_field</text>
</g>
<!-- Node5 -->
<g id="node4" class="node">
<title>Node5</title>
<g id="a_node4"><a xlink:title="STL class. ">
<polygon fill="#ffffff" stroke="#bfbfbf" points="168.5,-307 168.5,-326 228.5,-326 228.5,-307 168.5,-307"/>
<text text-anchor="middle" x="198.5" y="-314" font-family="Helvetica,sans-Serif" font-size="10.00" fill="#000000">std::string</text>
</a>
</g>
</g>
<!-- Node5&#45;&gt;Node4 -->
<g id="edge3" class="edge">
<title>Node5&#45;&gt;Node4</title>
<path fill="none" stroke="#9a32cd" stroke-dasharray="5,2" d="M200.4519,-296.5788C200.8425,-292.1141 201.2187,-287.3978 201.5,-283 205.9292,-213.7569 206.1664,-196.3718 207.5,-127 207.594,-122.112 208.6374,-120.7547 207.5,-116 205.4668,-107.5003 200.9043,-98.7202 197.0175,-92.282"/>
<polygon fill="#9a32cd" stroke="#9a32cd" points="196.9392,-296.5531 199.4967,-306.8346 203.909,-297.2023 196.9392,-296.5531"/>
<text text-anchor="middle" x="226" y="-191.5" font-family="Helvetica,sans-Serif" font-size="10.00" fill="#000000"> m_name</text>
</g>
<!-- Node8 -->
<g id="node7" class="node">
<title>Node8</title>
<polygon fill="#ffffff" stroke="#bfbfbf" points="82.5,-223.5 82.5,-253.5 192.5,-253.5 192.5,-223.5 82.5,-223.5"/>
<text text-anchor="start" x="90.5" y="-241.5" font-family="Helvetica,sans-Serif" font-size="10.00" fill="#000000">std::unordered_map</text>
<text text-anchor="middle" x="137.5" y="-230.5" font-family="Helvetica,sans-Serif" font-size="10.00" fill="#000000">&lt; std::string, size_t &gt;</text>
</g>
<!-- Node5&#45;&gt;Node8 -->
<g id="edge7" class="edge">
<title>Node5&#45;&gt;Node8</title>
<path fill="none" stroke="#9a32cd" stroke-dasharray="5,2" d="M184.6941,-298.8466C174.0811,-285.2759 159.5706,-266.7214 149.4516,-253.7824"/>
<polygon fill="#9a32cd" stroke="#9a32cd" points="182.1028,-301.2146 191.0202,-306.9357 187.6168,-296.9023 182.1028,-301.2146"/>
<text text-anchor="middle" x="185" y="-275" font-family="Helvetica,sans-Serif" font-size="10.00" fill="#000000"> keys</text>
</g>
<!-- Node6 -->
<g id="node5" class="node">
<title>Node6</title>
<g id="a_node5"><a xlink:title="STL class. ">
<polygon fill="#ffffff" stroke="#bfbfbf" points="151,-379.5 151,-409.5 246,-409.5 246,-379.5 151,-379.5"/>
<text text-anchor="start" x="159" y="-397.5" font-family="Helvetica,sans-Serif" font-size="10.00" fill="#000000">std::basic_string&lt;</text>
<text text-anchor="middle" x="198.5" y="-386.5" font-family="Helvetica,sans-Serif" font-size="10.00" fill="#000000"> char &gt;</text>
</a>
</g>
</g>
<!-- Node6&#45;&gt;Node5 -->
<g id="edge4" class="edge">
<title>Node6&#45;&gt;Node5</title>
<path fill="none" stroke="#191970" d="M198.5,-369.3962C198.5,-354.6331 198.5,-336.8138 198.5,-326.0839"/>
<polygon fill="#191970" stroke="#191970" points="195.0001,-369.4608 198.5,-379.4608 202.0001,-369.4609 195.0001,-369.4608"/>
</g>
<!-- Node7 -->
<g id="node6" class="node">
<title>Node7</title>
<g id="a_node6"><a xlink:href="classamr__wind_1_1_field_repo.html" target="_top" xlink:title="Field RepositoryFieldRepo is a database that manages handling of fields used during a simulation...">
<polygon fill="#ffffff" stroke="#000000" points="85,-145.5 85,-164.5 194,-164.5 194,-145.5 85,-145.5"/>
<text text-anchor="middle" x="139.5" y="-152.5" font-family="Helvetica,sans-Serif" font-size="10.00" fill="#000000">amr_wind::FieldRepo</text>
</a>
</g>
</g>
<!-- Node7&#45;&gt;Node4 -->
<g id="edge5" class="edge">
<title>Node7&#45;&gt;Node4</title>
<path fill="none" stroke="#9a32cd" stroke-dasharray="5,2" d="M152.3404,-136.7466C162.3144,-122.5677 175.7509,-103.4668 183.7309,-92.1228"/>
<polygon fill="#9a32cd" stroke="#9a32cd" points="149.269,-135.0295 146.3781,-145.2223 154.9943,-139.057 149.269,-135.0295"/>
<text text-anchor="middle" x="185.5" y="-119" font-family="Helvetica,sans-Serif" font-size="10.00" fill="#000000"> m_repo</text>
</g>
<!-- Node8&#45;&gt;Node7 -->
<g id="edge6" class="edge">
<title>Node8&#45;&gt;Node7</title>
<path fill="none" stroke="#9a32cd" stroke-dasharray="5,2" d="M137.8582,-213.4039C138.0188,-203.8813 138.233,-192.9391 138.5,-183 138.6646,-176.8733 138.9094,-169.9946 139.1156,-164.5884"/>
<polygon fill="#9a32cd" stroke="#9a32cd" points="134.3584,-213.3685 137.6997,-223.4227 141.3575,-213.4793 134.3584,-213.3685"/>
<text text-anchor="middle" x="170.5" y="-197" font-family="Helvetica,sans-Serif" font-size="10.00" fill="#000000"> m_fid_map</text>
<text text-anchor="middle" x="170.5" y="-186" font-family="Helvetica,sans-Serif" font-size="10.00" fill="#000000">m_int_fid_map</text>
</g>
<!-- Node9 -->
<g id="node8" class="node">
<title>Node9</title>
<g id="a_node8"><a xlink:title="STL class. ">
<polygon fill="#ffffff" stroke="#bfbfbf" points="13,-301.5 13,-331.5 116,-331.5 116,-301.5 13,-301.5"/>
<text text-anchor="start" x="21" y="-319.5" font-family="Helvetica,sans-Serif" font-size="10.00" fill="#000000">std::unordered_map</text>
<text text-anchor="middle" x="64.5" y="-308.5" font-family="Helvetica,sans-Serif" font-size="10.00" fill="#000000">&lt; K, T &gt;</text>
</a>
</g>
</g>
<!-- Node9&#45;&gt;Node8 -->
<g id="edge8" class="edge">
<title>Node9&#45;&gt;Node8</title>
<path fill="none" stroke="#ffa500" stroke-dasharray="5,2" d="M59.0011,-291.225C58.8133,-284.5391 59.8716,-277.6254 63.5,-272 68.545,-264.1783 75.9072,-258.163 84.0565,-253.5426"/>
<polygon fill="#ffa500" stroke="#ffa500" points="55.541,-291.7776 60.1318,-301.3262 62.4976,-290.9988 55.541,-291.7776"/>
<text text-anchor="middle" x="112" y="-275" font-family="Helvetica,sans-Serif" font-size="10.00" fill="#000000"> &lt; std::string, size_t &gt;</text>
</g>
<!-- Node10 -->
<g id="node9" class="node">
<title>Node10</title>
<polygon fill="#ffffff" stroke="#bfbfbf" points="36,-385 36,-404 65,-404 65,-385 36,-385"/>
<text text-anchor="middle" x="50.5" y="-392" font-family="Helvetica,sans-Serif" font-size="10.00" fill="#000000">K</text>
</g>
<!-- Node10&#45;&gt;Node9 -->
<g id="edge9" class="edge">
<title>Node10&#45;&gt;Node9</title>
<path fill="none" stroke="#9a32cd" stroke-dasharray="5,2" d="M49.4813,-374.5823C49.4663,-366.8425 49.9201,-357.944 51.5,-350 52.7412,-343.7589 55.0571,-337.173 57.3943,-331.5078"/>
<polygon fill="#9a32cd" stroke="#9a32cd" points="45.9898,-374.9462 49.7621,-384.8467 52.9872,-374.7547 45.9898,-374.9462"/>
<text text-anchor="middle" x="64" y="-353" font-family="Helvetica,sans-Serif" font-size="10.00" fill="#000000"> keys</text>
</g>
<!-- Node11 -->
<g id="node10" class="node">
<title>Node11</title>
<polygon fill="#ffffff" stroke="#bfbfbf" points="84,-385 84,-404 113,-404 113,-385 84,-385"/>
<text text-anchor="middle" x="98.5" y="-392" font-family="Helvetica,sans-Serif" font-size="10.00" fill="#000000">T</text>
</g>
<!-- Node11&#45;&gt;Node9 -->
<g id="edge10" class="edge">
<title>Node11&#45;&gt;Node9</title>
<path fill="none" stroke="#9a32cd" stroke-dasharray="5,2" d="M90.2927,-375.6714C84.4293,-362.2202 76.6405,-344.3517 71.1615,-331.7824"/>
<polygon fill="#9a32cd" stroke="#9a32cd" points="87.1266,-377.1673 94.3309,-384.9357 93.5435,-374.3701 87.1266,-377.1673"/>
<text text-anchor="middle" x="106" y="-353" font-family="Helvetica,sans-Serif" font-size="10.00" fill="#000000"> elements</text>
</g>
</g>
</svg>
