<?xml version="1.0" encoding="UTF-8" standalone="no"?>
<!DOCTYPE svg PUBLIC "-//W3C//DTD SVG 1.1//EN"
 "http://www.w3.org/Graphics/SVG/1.1/DTD/svg11.dtd">
<!-- Generated by graphviz version 2.40.1 (20161225.0304)
 -->
<!-- Title: console_io.H Pages: 1 -->
<svg width="792pt" height="95pt"
 viewBox="0.00 0.00 791.50 95.00" xmlns="http://www.w3.org/2000/svg" xmlns:xlink="http://www.w3.org/1999/xlink">
<g id="graph0" class="graph" transform="scale(1 1) rotate(0) translate(4 91)">
<title>console_io.H</title>
<polygon fill="#ffffff" stroke="transparent" points="-4,4 -4,-91 787.5,-91 787.5,4 -4,4"/>
<!-- Node3 -->
<g id="node1" class="node">
<title>Node3</title>
<polygon fill="#bfbfbf" stroke="#000000" points="387,-67.5 387,-86.5 461,-86.5 461,-67.5 387,-67.5"/>
<text text-anchor="middle" x="424" y="-74.5" font-family="Helvetica,sans-Serif" font-size="10.00" fill="#000000">console_io.H</text>
</g>
<!-- Node4 -->
<g id="node2" class="node">
<title>Node4</title>
<g id="a_node2"><a xlink:href="_diffusion_ops_8cpp.html" target="_top" xlink:title="DiffusionOps.cpp">
<polygon fill="#ffffff" stroke="#000000" points="0,-6 0,-25 92,-25 92,-6 0,-6"/>
<text text-anchor="middle" x="46" y="-13" font-family="Helvetica,sans-Serif" font-size="10.00" fill="#000000">DiffusionOps.cpp</text>
</a>
</g>
</g>
<!-- Node3&#45;&gt;Node4 -->
<g id="edge1" class="edge">
<title>Node3&#45;&gt;Node4</title>
<path fill="none" stroke="#191970" d="M376.8466,-72.2771C313.6336,-65.4929 198.121,-51.5056 101,-31 93.2348,-29.3605 84.9517,-27.232 77.2328,-25.0803"/>
<polygon fill="#191970" stroke="#191970" points="376.5922,-75.7696 386.9053,-73.343 377.3299,-68.8086 376.5922,-75.7696"/>
</g>
<!-- Node5 -->
<g id="node3" class="node">
<title>Node5</title>
<g id="a_node3"><a xlink:href="icns__advection_8cpp.html" target="_top" xlink:title="icns_advection.cpp">
<polygon fill="#ffffff" stroke="#000000" points="110.5,-6 110.5,-25 211.5,-25 211.5,-6 110.5,-6"/>
<text text-anchor="middle" x="161" y="-13" font-family="Helvetica,sans-Serif" font-size="10.00" fill="#000000">icns_advection.cpp</text>
</a>
</g>
</g>
<!-- Node3&#45;&gt;Node5 -->
<g id="edge2" class="edge">
<title>Node3&#45;&gt;Node5</title>
<path fill="none" stroke="#191970" d="M376.8707,-66.8649C335.453,-57.8408 273.6012,-44.0798 220,-31 212.3863,-29.1421 204.2445,-27.0632 196.5159,-25.0462"/>
<polygon fill="#191970" stroke="#191970" points="376.1676,-70.2937 386.6829,-68.9974 377.6543,-63.4534 376.1676,-70.2937"/>
</g>
<!-- Node6 -->
<g id="node4" class="node">
<title>Node6</title>
<g id="a_node4"><a xlink:href="incflo__advance_8cpp.html" target="_top" xlink:title="incflo_advance.cpp">
<polygon fill="#ffffff" stroke="#000000" points="229.5,-6 229.5,-25 330.5,-25 330.5,-6 229.5,-6"/>
<text text-anchor="middle" x="280" y="-13" font-family="Helvetica,sans-Serif" font-size="10.00" fill="#000000">incflo_advance.cpp</text>
</a>
</g>
</g>
<!-- Node3&#45;&gt;Node6 -->
<g id="edge3" class="edge">
<title>Node3&#45;&gt;Node6</title>
<path fill="none" stroke="#191970" d="M392.0222,-63.3428C364.7936,-51.7139 326.373,-35.3051 302.342,-25.0419"/>
<polygon fill="#191970" stroke="#191970" points="390.9289,-66.6817 401.5,-67.3906 393.6783,-60.2442 390.9289,-66.6817"/>
</g>
<!-- Node7 -->
<g id="node5" class="node">
<title>Node7</title>
<g id="a_node5"><a xlink:href="main_8cpp.html" target="_top" xlink:title="main.cpp">
<polygon fill="#ffffff" stroke="#000000" points="349,-6 349,-25 405,-25 405,-6 349,-6"/>
<text text-anchor="middle" x="377" y="-13" font-family="Helvetica,sans-Serif" font-size="10.00" fill="#000000">main.cpp</text>
</a>
</g>
</g>
<!-- Node3&#45;&gt;Node7 -->
<g id="edge4" class="edge">
<title>Node3&#45;&gt;Node7</title>
<path fill="none" stroke="#191970" d="M410.4323,-59.2465C401.9731,-48.1775 391.4097,-34.3552 384.4473,-25.2449"/>
<polygon fill="#191970" stroke="#191970" points="407.8032,-61.5704 416.6563,-67.3906 413.365,-57.3199 407.8032,-61.5704"/>
</g>
<!-- Node8 -->
<g id="node6" class="node">
<title>Node8</title>
<g id="a_node6"><a xlink:href="incflo__apply__nodal__projection_8cpp.html" target="_top" xlink:title="incflo_apply_nodal\l_projection.cpp">
<polygon fill="#ffffff" stroke="#000000" points="423.5,-.5 423.5,-30.5 520.5,-30.5 520.5,-.5 423.5,-.5"/>
<text text-anchor="start" x="431.5" y="-18.5" font-family="Helvetica,sans-Serif" font-size="10.00" fill="#000000">incflo_apply_nodal</text>
<text text-anchor="middle" x="472" y="-7.5" font-family="Helvetica,sans-Serif" font-size="10.00" fill="#000000">_projection.cpp</text>
</a>
</g>
</g>
<!-- Node3&#45;&gt;Node8 -->
<g id="edge5" class="edge">
<title>Node3&#45;&gt;Node8</title>
<path fill="none" stroke="#191970" d="M437.7599,-59.3701C444.8723,-50.2574 453.4615,-39.2525 460.2579,-30.5446"/>
<polygon fill="#191970" stroke="#191970" points="434.8936,-57.354 431.5,-67.3906 440.4119,-61.6609 434.8936,-57.354"/>
</g>
<!-- Node9 -->
<g id="node7" class="node">
<title>Node9</title>
<g id="a_node7"><a xlink:href="console__io_8cpp.html" target="_top" xlink:title="console_io.cpp">
<polygon fill="#ffffff" stroke="#000000" points="539,-6 539,-25 621,-25 621,-6 539,-6"/>
<text text-anchor="middle" x="580" y="-13" font-family="Helvetica,sans-Serif" font-size="10.00" fill="#000000">console_io.cpp</text>
</a>
</g>
</g>
<!-- Node3&#45;&gt;Node9 -->
<g id="edge6" class="edge">
<title>Node3&#45;&gt;Node9</title>
<path fill="none" stroke="#191970" d="M457.8692,-63.6477C487.4088,-52.0023 529.5342,-35.3952 555.7962,-25.0419"/>
<polygon fill="#191970" stroke="#191970" points="456.3945,-60.4669 448.375,-67.3906 458.9618,-66.9791 456.3945,-60.4669"/>
</g>
<!-- Node10 -->
<g id="node8" class="node">
<title>Node10</title>
<g id="a_node8"><a xlink:href="io_8cpp.html" target="_top" xlink:title="io.cpp">
<polygon fill="#ffffff" stroke="#000000" points="639.5,-6 639.5,-25 682.5,-25 682.5,-6 639.5,-6"/>
<text text-anchor="middle" x="661" y="-13" font-family="Helvetica,sans-Serif" font-size="10.00" fill="#000000">io.cpp</text>
</a>
</g>
</g>
<!-- Node3&#45;&gt;Node10 -->
<g id="edge7" class="edge">
<title>Node3&#45;&gt;Node10</title>
<path fill="none" stroke="#191970" d="M471.2588,-69.826C513.6162,-62.6068 577.0518,-49.8294 630,-31 634.5355,-29.3871 639.2637,-27.2686 643.6211,-25.118"/>
<polygon fill="#191970" stroke="#191970" points="470.517,-66.4013 461.229,-71.4987 471.6685,-73.306 470.517,-66.4013"/>
</g>
<!-- Node11 -->
<g id="node9" class="node">
<title>Node11</title>
<g id="a_node9"><a xlink:href="_i_o_manager_8cpp.html" target="_top" xlink:title="IOManager.cpp">
<polygon fill="#ffffff" stroke="#000000" points="700.5,-6 700.5,-25 783.5,-25 783.5,-6 700.5,-6"/>
<text text-anchor="middle" x="742" y="-13" font-family="Helvetica,sans-Serif" font-size="10.00" fill="#000000">IOManager.cpp</text>
</a>
</g>
</g>
<!-- Node3&#45;&gt;Node11 -->
<g id="edge8" class="edge">
<title>Node3&#45;&gt;Node11</title>
<path fill="none" stroke="#191970" d="M471.0935,-70.8174C524.9139,-63.3135 615.4481,-49.3523 692,-31 699.0701,-29.305 706.6043,-27.1557 713.6219,-25.0016"/>
<polygon fill="#191970" stroke="#191970" points="470.5867,-67.3541 461.1585,-72.1873 471.5429,-74.2885 470.5867,-67.3541"/>
</g>
</g>
</svg>
