<?xml version="1.0" encoding="UTF-8" standalone="no"?>
<!DOCTYPE svg PUBLIC "-//W3C//DTD SVG 1.1//EN"
 "http://www.w3.org/Graphics/SVG/1.1/DTD/svg11.dtd">
<!-- Generated by graphviz version 2.40.1 (20161225.0304)
 -->
<!-- Title: diffusion.H Pages: 1 -->
<svg width="1721pt" height="252pt"
 viewBox="0.00 0.00 1720.50 252.00" xmlns="http://www.w3.org/2000/svg" xmlns:xlink="http://www.w3.org/1999/xlink">
<g id="graph0" class="graph" transform="scale(1 1) rotate(0) translate(4 248)">
<title>diffusion.H</title>
<polygon fill="#ffffff" stroke="transparent" points="-4,4 -4,-248 1716.5,-248 1716.5,4 -4,4"/>
<!-- Node0 -->
<g id="node1" class="node">
<title>Node0</title>
<polygon fill="#bfbfbf" stroke="#000000" points="876.5,-224.5 876.5,-243.5 940.5,-243.5 940.5,-224.5 876.5,-224.5"/>
<text text-anchor="middle" x="908.5" y="-231.5" font-family="Helvetica,sans-Serif" font-size="10.00" fill="#000000">diffusion.H</text>
</g>
<!-- Node1 -->
<g id="node2" class="node">
<title>Node1</title>
<polygon fill="#ffffff" stroke="#bfbfbf" points="793.5,-168.5 793.5,-187.5 889.5,-187.5 889.5,-168.5 793.5,-168.5"/>
<text text-anchor="middle" x="841.5" y="-175.5" font-family="Helvetica,sans-Serif" font-size="10.00" fill="#000000">AMReX_MLMG.H</text>
</g>
<!-- Node0&#45;&gt;Node1 -->
<g id="edge1" class="edge">
<title>Node0&#45;&gt;Node1</title>
<path fill="none" stroke="#191970" d="M896.8295,-224.2455C886.9339,-215.9746 872.5373,-203.9416 860.9099,-194.2232"/>
<polygon fill="#191970" stroke="#191970" points="862.9542,-191.3703 853.0368,-187.6427 858.465,-196.7413 862.9542,-191.3703"/>
</g>
<!-- Node2 -->
<g id="node3" class="node">
<title>Node2</title>
<g id="a_node3"><a xlink:href="_field_repo_8_h.html" target="_top" xlink:title="amr&#45;wind/core/FieldRepo.H">
<polygon fill="#ffffff" stroke="#000000" points="907.5,-168.5 907.5,-187.5 1043.5,-187.5 1043.5,-168.5 907.5,-168.5"/>
<text text-anchor="middle" x="975.5" y="-175.5" font-family="Helvetica,sans-Serif" font-size="10.00" fill="#000000">amr&#45;wind/core/FieldRepo.H</text>
</a>
</g>
</g>
<!-- Node0&#45;&gt;Node2 -->
<g id="edge2" class="edge">
<title>Node0&#45;&gt;Node2</title>
<path fill="none" stroke="#191970" d="M920.1705,-224.2455C930.0661,-215.9746 944.4627,-203.9416 956.0901,-194.2232"/>
<polygon fill="#191970" stroke="#191970" points="958.535,-196.7413 963.9632,-187.6427 954.0458,-191.3703 958.535,-196.7413"/>
</g>
<!-- Node3 -->
<g id="node4" class="node">
<title>Node3</title>
<polygon fill="#ffffff" stroke="#bfbfbf" points="1134,-.5 1134,-19.5 1175,-19.5 1175,-.5 1134,-.5"/>
<text text-anchor="middle" x="1154.5" y="-7.5" font-family="Helvetica,sans-Serif" font-size="10.00" fill="#000000">string</text>
</g>
<!-- Node2&#45;&gt;Node3 -->
<g id="edge3" class="edge">
<title>Node2&#45;&gt;Node3</title>
<path fill="none" stroke="#191970" d="M1043.7204,-174.0242C1153.881,-167.1335 1365.9262,-151.792 1438.5,-132 1495.6701,-116.4088 1527.5889,-125.9318 1559.5,-76 1564.2868,-68.5101 1565.4201,-62.6306 1559.5,-56 1534.6193,-28.1334 1275.2207,-14.9406 1185.1255,-11.1743"/>
<polygon fill="#191970" stroke="#191970" points="1185.1391,-7.6721 1175.0047,-10.7614 1184.8537,-14.6663 1185.1391,-7.6721"/>
</g>
<!-- Node4 -->
<g id="node5" class="node">
<title>Node4</title>
<polygon fill="#ffffff" stroke="#bfbfbf" points="190,-56.5 190,-75.5 273,-75.5 273,-56.5 190,-56.5"/>
<text text-anchor="middle" x="231.5" y="-63.5" font-family="Helvetica,sans-Serif" font-size="10.00" fill="#000000">unordered_map</text>
</g>
<!-- Node2&#45;&gt;Node4 -->
<g id="edge4" class="edge">
<title>Node2&#45;&gt;Node4</title>
<path fill="none" stroke="#191970" d="M907.6237,-168.499C761.3793,-147.9529 419.417,-99.4854 283.416,-76.2645"/>
<polygon fill="#191970" stroke="#191970" points="283.663,-72.7554 273.2131,-74.502 282.4713,-79.6533 283.663,-72.7554"/>
</g>
<!-- Node5 -->
<g id="node6" class="node">
<title>Node5</title>
<g id="a_node6"><a xlink:href="_field_desc_types_8_h.html" target="_top" xlink:title="amr&#45;wind/core/FieldDescTypes.H">
<polygon fill="#ffffff" stroke="#000000" points="496,-.5 496,-19.5 659,-19.5 659,-.5 496,-.5"/>
<text text-anchor="middle" x="577.5" y="-7.5" font-family="Helvetica,sans-Serif" font-size="10.00" fill="#000000">amr&#45;wind/core/FieldDescTypes.H</text>
</a>
</g>
</g>
<!-- Node2&#45;&gt;Node5 -->
<g id="edge5" class="edge">
<title>Node2&#45;&gt;Node5</title>
<path fill="none" stroke="#191970" d="M907.4959,-169.0337C904.4568,-168.6754 901.4474,-168.3291 898.5,-168 738.6333,-150.1506 284.3862,-198.8153 180.5,-76 174.7594,-69.2134 174.5874,-62.6373 180.5,-56 200.4441,-33.6115 374.451,-20.4851 485.3785,-14.3202"/>
<polygon fill="#191970" stroke="#191970" points="485.7823,-17.8034 495.5764,-13.7631 485.4004,-10.8138 485.7823,-17.8034"/>
</g>
<!-- Node6 -->
<g id="node7" class="node">
<title>Node6</title>
<g id="a_node7"><a xlink:href="_field_utils_8_h.html" target="_top" xlink:title="amr&#45;wind/core/FieldUtils.H">
<polygon fill="#ffffff" stroke="#000000" points="0,-56.5 0,-75.5 133,-75.5 133,-56.5 0,-56.5"/>
<text text-anchor="middle" x="66.5" y="-63.5" font-family="Helvetica,sans-Serif" font-size="10.00" fill="#000000">amr&#45;wind/core/FieldUtils.H</text>
</a>
</g>
</g>
<!-- Node2&#45;&gt;Node6 -->
<g id="edge6" class="edge">
<title>Node2&#45;&gt;Node6</title>
<path fill="none" stroke="#191970" d="M907.0978,-168.8235C904.1951,-168.5268 901.3198,-168.2503 898.5,-168 732.0737,-153.2288 303.5259,-191.7648 147.5,-132 120.958,-121.8332 96.5625,-99.387 81.6291,-83.5016"/>
<polygon fill="#191970" stroke="#191970" points="84.0342,-80.9438 74.7212,-75.8923 78.8514,-85.6489 84.0342,-80.9438"/>
</g>
<!-- Node7 -->
<g id="node8" class="node">
<title>Node7</title>
<polygon fill="#ffffff" stroke="#bfbfbf" points="836.5,-.5 836.5,-19.5 940.5,-19.5 940.5,-.5 836.5,-.5"/>
<text text-anchor="middle" x="888.5" y="-7.5" font-family="Helvetica,sans-Serif" font-size="10.00" fill="#000000">AMReX_MultiFab.H</text>
</g>
<!-- Node2&#45;&gt;Node7 -->
<g id="edge37" class="edge">
<title>Node2&#45;&gt;Node7</title>
<path fill="none" stroke="#191970" d="M969.7751,-168.2095C964.4071,-158.9512 956.223,-144.6332 949.5,-132 930.2262,-95.7825 909.1017,-52.7098 897.4589,-28.6482"/>
<polygon fill="#191970" stroke="#191970" points="900.5797,-27.0618 893.0827,-19.5754 894.2748,-30.103 900.5797,-27.0618"/>
</g>
<!-- Node9 -->
<g id="node10" class="node">
<title>Node9</title>
<g id="a_node10"><a xlink:href="_field_8_h.html" target="_top" xlink:title="amr&#45;wind/core/Field.H">
<polygon fill="#ffffff" stroke="#000000" points="666,-112.5 666,-131.5 779,-131.5 779,-112.5 666,-112.5"/>
<text text-anchor="middle" x="722.5" y="-119.5" font-family="Helvetica,sans-Serif" font-size="10.00" fill="#000000">amr&#45;wind/core/Field.H</text>
</a>
</g>
</g>
<!-- Node2&#45;&gt;Node9 -->
<g id="edge10" class="edge">
<title>Node2&#45;&gt;Node9</title>
<path fill="none" stroke="#191970" d="M932.2952,-168.4369C888.9053,-158.8328 821.9791,-144.0191 775.4274,-133.7152"/>
<polygon fill="#191970" stroke="#191970" points="776.0467,-130.2676 765.5266,-131.5237 774.5338,-137.1022 776.0467,-130.2676"/>
</g>
<!-- Node17 -->
<g id="node18" class="node">
<title>Node17</title>
<g id="a_node18"><a xlink:href="_int_field_8_h.html" target="_top" xlink:title="amr&#45;wind/core/IntField.H">
<polygon fill="#ffffff" stroke="#000000" points="958.5,-112.5 958.5,-131.5 1082.5,-131.5 1082.5,-112.5 958.5,-112.5"/>
<text text-anchor="middle" x="1020.5" y="-119.5" font-family="Helvetica,sans-Serif" font-size="10.00" fill="#000000">amr&#45;wind/core/IntField.H</text>
</a>
</g>
</g>
<!-- Node2&#45;&gt;Node17 -->
<g id="edge25" class="edge">
<title>Node2&#45;&gt;Node17</title>
<path fill="none" stroke="#191970" d="M983.3384,-168.2455C989.662,-160.3761 998.7224,-149.101 1006.3136,-139.6542"/>
<polygon fill="#191970" stroke="#191970" points="1009.2158,-141.6302 1012.7514,-131.6427 1003.7592,-137.2454 1009.2158,-141.6302"/>
</g>
<!-- Node18 -->
<g id="node19" class="node">
<title>Node18</title>
<polygon fill="#ffffff" stroke="#bfbfbf" points="1183,-56.5 1183,-75.5 1290,-75.5 1290,-56.5 1183,-56.5"/>
<text text-anchor="middle" x="1236.5" y="-63.5" font-family="Helvetica,sans-Serif" font-size="10.00" fill="#000000">AMReX_iMultiFab.H</text>
</g>
<!-- Node2&#45;&gt;Node18 -->
<g id="edge38" class="edge">
<title>Node2&#45;&gt;Node18</title>
<path fill="none" stroke="#191970" d="M1000.5368,-168.4845C1024.1295,-159.4205 1060.402,-145.2338 1091.5,-132 1131.743,-114.8745 1177.5926,-93.7245 1206.7691,-80.0554"/>
<polygon fill="#191970" stroke="#191970" points="1208.4291,-83.1426 1215.9923,-75.7232 1205.453,-76.8067 1208.4291,-83.1426"/>
</g>
<!-- Node19 -->
<g id="node20" class="node">
<title>Node19</title>
<g id="a_node20"><a xlink:href="_scratch_field_8_h.html" target="_top" xlink:title="amr&#45;wind/core/ScratchField.H">
<polygon fill="#ffffff" stroke="#000000" points="1283.5,-112.5 1283.5,-131.5 1429.5,-131.5 1429.5,-112.5 1283.5,-112.5"/>
<text text-anchor="middle" x="1356.5" y="-119.5" font-family="Helvetica,sans-Serif" font-size="10.00" fill="#000000">amr&#45;wind/core/ScratchField.H</text>
</a>
</g>
</g>
<!-- Node2&#45;&gt;Node19 -->
<g id="edge29" class="edge">
<title>Node2&#45;&gt;Node19</title>
<path fill="none" stroke="#191970" d="M1040.5633,-168.4369C1107.4124,-158.6113 1211.3587,-143.3331 1281.5953,-133.0096"/>
<polygon fill="#191970" stroke="#191970" points="1282.3203,-136.4407 1291.705,-131.5237 1281.3023,-129.5152 1282.3203,-136.4407"/>
</g>
<!-- Node21 -->
<g id="node22" class="node">
<title>Node21</title>
<polygon fill="#ffffff" stroke="#bfbfbf" points="1606.5,-112.5 1606.5,-131.5 1712.5,-131.5 1712.5,-112.5 1606.5,-112.5"/>
<text text-anchor="middle" x="1659.5" y="-119.5" font-family="Helvetica,sans-Serif" font-size="10.00" fill="#000000">AMReX_AmrCore.H</text>
</g>
<!-- Node2&#45;&gt;Node21 -->
<g id="edge36" class="edge">
<title>Node2&#45;&gt;Node21</title>
<path fill="none" stroke="#191970" d="M1043.6709,-174.5646C1157.5706,-168.4558 1393.6765,-154.2185 1592.5,-132 1593.6104,-131.8759 1594.7306,-131.7473 1595.8584,-131.6146"/>
<polygon fill="#191970" stroke="#191970" points="1596.6656,-135.0409 1606.1528,-130.3246 1595.7952,-128.0952 1596.6656,-135.0409"/>
</g>
<!-- Node6&#45;&gt;Node5 -->
<g id="edge7" class="edge">
<title>Node6&#45;&gt;Node5</title>
<path fill="none" stroke="#191970" d="M133.2349,-57.6739C138.0613,-57.0985 142.8549,-56.5352 147.5,-56 264.0852,-42.5683 398.6115,-28.3894 485.7043,-19.3834"/>
<polygon fill="#191970" stroke="#191970" points="486.2348,-22.8473 495.8222,-18.3383 485.5155,-15.8844 486.2348,-22.8473"/>
</g>
<!-- Node6&#45;&gt;Node7 -->
<g id="edge8" class="edge">
<title>Node6&#45;&gt;Node7</title>
<path fill="none" stroke="#191970" d="M133.0896,-59.9039C148.6422,-58.5508 165.1472,-57.172 180.5,-56 418.8231,-37.8074 702.6325,-20.7653 826.0446,-13.582"/>
<polygon fill="#191970" stroke="#191970" points="826.2878,-17.0738 836.0679,-12.9997 825.8818,-10.0856 826.2878,-17.0738"/>
</g>
<!-- Node8 -->
<g id="node9" class="node">
<title>Node8</title>
<polygon fill="#ffffff" stroke="#bfbfbf" points="8.5,-.5 8.5,-19.5 124.5,-19.5 124.5,-.5 8.5,-.5"/>
<text text-anchor="middle" x="66.5" y="-7.5" font-family="Helvetica,sans-Serif" font-size="10.00" fill="#000000">AMReX_Interpolater.H</text>
</g>
<!-- Node6&#45;&gt;Node8 -->
<g id="edge9" class="edge">
<title>Node6&#45;&gt;Node8</title>
<path fill="none" stroke="#191970" d="M66.5,-56.2455C66.5,-48.9382 66.5,-38.6944 66.5,-29.7046"/>
<polygon fill="#191970" stroke="#191970" points="70.0001,-29.6426 66.5,-19.6427 63.0001,-29.6427 70.0001,-29.6426"/>
</g>
<!-- Node9&#45;&gt;Node3 -->
<g id="edge11" class="edge">
<title>Node9&#45;&gt;Node3</title>
<path fill="none" stroke="#191970" d="M779.2097,-120.0053C870.1096,-115.9903 1043.6842,-104.7218 1097.5,-76 1117.8524,-65.1378 1134.1707,-43.8237 1144.0468,-28.3483"/>
<polygon fill="#191970" stroke="#191970" points="1147.1513,-29.9787 1149.3419,-19.6128 1141.1651,-26.3501 1147.1513,-29.9787"/>
</g>
<!-- Node9&#45;&gt;Node4 -->
<g id="edge13" class="edge">
<title>Node9&#45;&gt;Node4</title>
<path fill="none" stroke="#191970" d="M665.8971,-117.7987C583.7359,-111.3247 426.4634,-97.5217 283.4607,-76.19"/>
<polygon fill="#191970" stroke="#191970" points="283.6006,-72.6715 273.1904,-74.6411 282.5566,-79.5933 283.6006,-72.6715"/>
</g>
<!-- Node9&#45;&gt;Node5 -->
<g id="edge19" class="edge">
<title>Node9&#45;&gt;Node5</title>
<path fill="none" stroke="#191970" d="M665.925,-116.7848C587.0816,-108.9373 452.1223,-93.1716 437.5,-76 413.8534,-48.2307 454.6397,-31.3544 498.1804,-21.6265"/>
<polygon fill="#191970" stroke="#191970" points="499.0166,-25.0273 508.08,-19.5404 497.5731,-18.1777 499.0166,-25.0273"/>
</g>
<!-- Node9&#45;&gt;Node7 -->
<g id="edge15" class="edge">
<title>Node9&#45;&gt;Node7</title>
<path fill="none" stroke="#191970" d="M755.5242,-112.4816C778.2613,-104.9128 808.412,-92.7946 831.5,-76 849.7504,-62.7243 866.0728,-42.5319 876.5248,-27.9787"/>
<polygon fill="#191970" stroke="#191970" points="879.4051,-29.9671 882.2388,-19.7582 873.6573,-25.9718 879.4051,-29.9671"/>
</g>
<!-- Node10 -->
<g id="node11" class="node">
<title>Node10</title>
<polygon fill="#ffffff" stroke="#bfbfbf" points="696.5,-56.5 696.5,-75.5 748.5,-75.5 748.5,-56.5 696.5,-56.5"/>
<text text-anchor="middle" x="722.5" y="-63.5" font-family="Helvetica,sans-Serif" font-size="10.00" fill="#000000">memory</text>
</g>
<!-- Node9&#45;&gt;Node10 -->
<g id="edge12" class="edge">
<title>Node9&#45;&gt;Node10</title>
<path fill="none" stroke="#191970" d="M722.5,-112.2455C722.5,-104.9382 722.5,-94.6944 722.5,-85.7046"/>
<polygon fill="#191970" stroke="#191970" points="726.0001,-85.6426 722.5,-75.6427 719.0001,-85.6427 726.0001,-85.6426"/>
</g>
<!-- Node11 -->
<g id="node12" class="node">
<title>Node11</title>
<polygon fill="#ffffff" stroke="#bfbfbf" points="766.5,-56.5 766.5,-75.5 822.5,-75.5 822.5,-56.5 766.5,-56.5"/>
<text text-anchor="middle" x="794.5" y="-63.5" font-family="Helvetica,sans-Serif" font-size="10.00" fill="#000000">algorithm</text>
</g>
<!-- Node9&#45;&gt;Node11 -->
<g id="edge14" class="edge">
<title>Node9&#45;&gt;Node11</title>
<path fill="none" stroke="#191970" d="M735.0414,-112.2455C745.7787,-103.8943 761.4473,-91.7076 774.0047,-81.9408"/>
<polygon fill="#191970" stroke="#191970" points="776.3575,-84.5449 782.1023,-75.6427 772.0599,-79.0194 776.3575,-84.5449"/>
</g>
<!-- Node12 -->
<g id="node13" class="node">
<title>Node12</title>
<polygon fill="#ffffff" stroke="#bfbfbf" points="291,-56.5 291,-75.5 390,-75.5 390,-56.5 291,-56.5"/>
<text text-anchor="middle" x="340.5" y="-63.5" font-family="Helvetica,sans-Serif" font-size="10.00" fill="#000000">AMReX_BCRec.H</text>
</g>
<!-- Node9&#45;&gt;Node12 -->
<g id="edge16" class="edge">
<title>Node9&#45;&gt;Node12</title>
<path fill="none" stroke="#191970" d="M665.8898,-114.0086C602.2736,-104.9822 495.9313,-89.7556 404.5,-76 403.0404,-75.7804 401.5622,-75.557 400.0712,-75.3309"/>
<polygon fill="#191970" stroke="#191970" points="400.5197,-71.8589 390.1057,-73.8077 399.4621,-78.7785 400.5197,-71.8589"/>
</g>
<!-- Node13 -->
<g id="node14" class="node">
<title>Node13</title>
<polygon fill="#ffffff" stroke="#bfbfbf" points="447,-56.5 447,-75.5 532,-75.5 532,-56.5 447,-56.5"/>
<text text-anchor="middle" x="489.5" y="-63.5" font-family="Helvetica,sans-Serif" font-size="10.00" fill="#000000">AMReX_Gpu.H</text>
</g>
<!-- Node9&#45;&gt;Node13 -->
<g id="edge17" class="edge">
<title>Node9&#45;&gt;Node13</title>
<path fill="none" stroke="#191970" d="M682.7106,-112.4369C643.002,-102.8932 581.8896,-88.2052 539.0545,-77.9101"/>
<polygon fill="#191970" stroke="#191970" points="539.6663,-74.4575 529.1253,-75.5237 538.0305,-81.2637 539.6663,-74.4575"/>
</g>
<!-- Node14 -->
<g id="node15" class="node">
<title>Node14</title>
<g id="a_node15"><a xlink:href="incflo__enums_8_h.html" target="_top" xlink:title="amr&#45;wind/incflo_enums.H">
<polygon fill="#ffffff" stroke="#000000" points="550.5,-56.5 550.5,-75.5 678.5,-75.5 678.5,-56.5 550.5,-56.5"/>
<text text-anchor="middle" x="614.5" y="-63.5" font-family="Helvetica,sans-Serif" font-size="10.00" fill="#000000">amr&#45;wind/incflo_enums.H</text>
</a>
</g>
</g>
<!-- Node9&#45;&gt;Node14 -->
<g id="edge18" class="edge">
<title>Node9&#45;&gt;Node14</title>
<path fill="none" stroke="#191970" d="M703.6878,-112.2455C686.6527,-103.4125 661.3425,-90.2887 642.0319,-80.2758"/>
<polygon fill="#191970" stroke="#191970" points="643.5853,-77.1388 633.0966,-75.6427 640.363,-83.353 643.5853,-77.1388"/>
</g>
<!-- Node15 -->
<g id="node16" class="node">
<title>Node15</title>
<g id="a_node16"><a xlink:href="_view_field_8_h.html" target="_top" xlink:title="amr&#45;wind/core/ViewField.H">
<polygon fill="#ffffff" stroke="#000000" points="954.5,-56.5 954.5,-75.5 1088.5,-75.5 1088.5,-56.5 954.5,-56.5"/>
<text text-anchor="middle" x="1021.5" y="-63.5" font-family="Helvetica,sans-Serif" font-size="10.00" fill="#000000">amr&#45;wind/core/ViewField.H</text>
</a>
</g>
</g>
<!-- Node9&#45;&gt;Node15 -->
<g id="edge20" class="edge">
<title>Node9&#45;&gt;Node15</title>
<path fill="none" stroke="#191970" d="M773.5602,-112.4369C825.3768,-102.7321 905.595,-87.708 960.6715,-77.3926"/>
<polygon fill="#191970" stroke="#191970" points="961.4656,-80.8048 970.6504,-75.5237 960.177,-73.9245 961.4656,-80.8048"/>
</g>
<!-- Node15&#45;&gt;Node3 -->
<g id="edge21" class="edge">
<title>Node15&#45;&gt;Node3</title>
<path fill="none" stroke="#191970" d="M1044.3635,-56.3733C1066.4272,-47.0833 1099.9649,-32.9621 1124.2341,-22.7435"/>
<polygon fill="#191970" stroke="#191970" points="1125.8252,-25.8713 1133.6834,-18.7649 1123.1088,-19.4198 1125.8252,-25.8713"/>
</g>
<!-- Node15&#45;&gt;Node5 -->
<g id="edge22" class="edge">
<title>Node15&#45;&gt;Node5</title>
<path fill="none" stroke="#191970" d="M954.066,-57.4948C876.205,-47.6745 747.9865,-31.5028 663.1407,-20.8015"/>
<polygon fill="#191970" stroke="#191970" points="663.3744,-17.3034 653.015,-19.5244 662.4984,-24.2483 663.3744,-17.3034"/>
</g>
<!-- Node15&#45;&gt;Node7 -->
<g id="edge23" class="edge">
<title>Node15&#45;&gt;Node7</title>
<path fill="none" stroke="#191970" d="M998.6365,-56.3733C977.095,-47.3032 944.6162,-33.6279 920.5044,-23.4755"/>
<polygon fill="#191970" stroke="#191970" points="921.6397,-20.156 911.0652,-19.5011 918.9233,-26.6075 921.6397,-20.156"/>
</g>
<!-- Node16 -->
<g id="node17" class="node">
<title>Node16</title>
<polygon fill="#ffffff" stroke="#bfbfbf" points="1381,-.5 1381,-19.5 1476,-19.5 1476,-.5 1381,-.5"/>
<text text-anchor="middle" x="1428.5" y="-7.5" font-family="Helvetica,sans-Serif" font-size="10.00" fill="#000000">AMReX_Vector.H</text>
</g>
<!-- Node15&#45;&gt;Node16 -->
<g id="edge24" class="edge">
<title>Node15&#45;&gt;Node16</title>
<path fill="none" stroke="#191970" d="M1088.7078,-56.7527C1167.4155,-45.9232 1296.4649,-28.167 1370.8168,-17.9368"/>
<polygon fill="#191970" stroke="#191970" points="1371.5046,-21.3752 1380.9342,-16.5447 1370.5504,-14.4405 1371.5046,-21.3752"/>
</g>
<!-- Node17&#45;&gt;Node3 -->
<g id="edge26" class="edge">
<title>Node17&#45;&gt;Node3</title>
<path fill="none" stroke="#191970" d="M1064.7646,-112.4886C1087.0593,-105.6708 1112.9988,-94.3494 1130.5,-76 1142.5703,-63.3447 1148.6491,-44.1511 1151.6611,-29.7189"/>
<polygon fill="#191970" stroke="#191970" points="1155.1206,-30.2545 1153.4151,-19.7979 1148.2275,-29.0358 1155.1206,-30.2545"/>
</g>
<!-- Node17&#45;&gt;Node5 -->
<g id="edge27" class="edge">
<title>Node17&#45;&gt;Node5</title>
<path fill="none" stroke="#191970" d="M997.003,-112.4509C961.6239,-98.3821 892.3326,-72.0242 831.5,-56 773.7261,-40.7815 707.2418,-28.9385 656.7873,-21.0825"/>
<polygon fill="#191970" stroke="#191970" points="657.0114,-17.576 646.5956,-19.5158 655.9477,-24.4947 657.0114,-17.576"/>
</g>
<!-- Node17&#45;&gt;Node18 -->
<g id="edge28" class="edge">
<title>Node17&#45;&gt;Node18</title>
<path fill="none" stroke="#191970" d="M1057.6317,-112.3733C1094.3267,-102.8598 1150.5639,-88.2797 1190.1651,-78.0127"/>
<polygon fill="#191970" stroke="#191970" points="1191.0512,-81.3988 1199.8528,-75.5011 1189.2944,-74.6228 1191.0512,-81.3988"/>
</g>
<!-- Node19&#45;&gt;Node3 -->
<g id="edge30" class="edge">
<title>Node19&#45;&gt;Node3</title>
<path fill="none" stroke="#191970" d="M1362.9765,-112.3361C1371.4549,-98.3597 1383.7653,-72.3879 1370.5,-56 1347.5455,-27.6423 1239.3465,-16.0251 1185.3318,-11.9304"/>
<polygon fill="#191970" stroke="#191970" points="1185.5178,-8.4349 1175.2927,-11.2091 1185.0161,-15.4169 1185.5178,-8.4349"/>
</g>
<!-- Node19&#45;&gt;Node5 -->
<g id="edge31" class="edge">
<title>Node19&#45;&gt;Node5</title>
<path fill="none" stroke="#191970" d="M1351.4304,-112.2155C1342.9802,-97.0668 1324.4492,-68.3931 1299.5,-56 1271.748,-42.2146 857.6336,-22.3433 669.4011,-13.9641"/>
<polygon fill="#191970" stroke="#191970" points="669.3899,-10.4603 659.2445,-13.5134 669.0795,-17.4534 669.3899,-10.4603"/>
</g>
<!-- Node19&#45;&gt;Node7 -->
<g id="edge33" class="edge">
<title>Node19&#45;&gt;Node7</title>
<path fill="none" stroke="#191970" d="M1356.0285,-112.0659C1354.7442,-97.2506 1349.9942,-69.6512 1332.5,-56 1303.0323,-33.0055 1065.8115,-18.5438 950.7083,-12.8135"/>
<polygon fill="#191970" stroke="#191970" points="950.7889,-9.3134 940.6293,-12.3186 950.4455,-16.3049 950.7889,-9.3134"/>
</g>
<!-- Node19&#45;&gt;Node15 -->
<g id="edge32" class="edge">
<title>Node19&#45;&gt;Node15</title>
<path fill="none" stroke="#191970" d="M1299.2921,-112.4369C1240.8754,-102.6717 1150.2401,-87.5207 1088.5034,-77.2006"/>
<polygon fill="#191970" stroke="#191970" points="1088.9122,-73.7204 1078.472,-75.5237 1087.758,-80.6246 1088.9122,-73.7204"/>
</g>
<!-- Node19&#45;&gt;Node16 -->
<g id="edge34" class="edge">
<title>Node19&#45;&gt;Node16</title>
<path fill="none" stroke="#191970" d="M1429.7437,-114.9635C1481.0612,-108.3428 1543.262,-96.3293 1559.5,-76 1583.9318,-45.4126 1531.7882,-27.7615 1486.2227,-18.5398"/>
<polygon fill="#191970" stroke="#191970" points="1486.8117,-15.0891 1476.3316,-16.6442 1485.4941,-21.964 1486.8117,-15.0891"/>
</g>
<!-- Node20 -->
<g id="node21" class="node">
<title>Node20</title>
<polygon fill="#ffffff" stroke="#bfbfbf" points="1422.5,-56.5 1422.5,-75.5 1550.5,-75.5 1550.5,-56.5 1422.5,-56.5"/>
<text text-anchor="middle" x="1486.5" y="-63.5" font-family="Helvetica,sans-Serif" font-size="10.00" fill="#000000">AMReX_PhysBCFunct.H</text>
</g>
<!-- Node19&#45;&gt;Node20 -->
<g id="edge35" class="edge">
<title>Node19&#45;&gt;Node20</title>
<path fill="none" stroke="#191970" d="M1378.8478,-112.3733C1399.9033,-103.3032 1431.6495,-89.6279 1455.2175,-79.4755"/>
<polygon fill="#191970" stroke="#191970" points="1456.6444,-82.6719 1464.4438,-75.5011 1453.875,-76.243 1456.6444,-82.6719"/>
</g>
</g>
</svg>
