<?xml version="1.0" encoding="UTF-8" standalone="no"?>
<!DOCTYPE svg PUBLIC "-//W3C//DTD SVG 1.1//EN"
 "http://www.w3.org/Graphics/SVG/1.1/DTD/svg11.dtd">
<!-- Generated by graphviz version 2.40.1 (20161225.0304)
 -->
<!-- Title: turbulence Pages: 1 -->
<svg width="306pt" height="303pt"
 viewBox="0.00 0.00 306.00 303.00" xmlns="http://www.w3.org/2000/svg" xmlns:xlink="http://www.w3.org/1999/xlink">
<g id="graph0" class="graph" transform="scale(1 1) rotate(0) translate(4 299)">
<title>turbulence</title>
<polygon fill="#ffffff" stroke="transparent" points="-4,4 -4,-299 302,-299 302,4 -4,4"/>
<g id="clust1" class="cluster">
<title>clusterdir_d85575251dd712327fe3cf057fa568b4</title>
<g id="a_clust1"><a xlink:href="dir_d85575251dd712327fe3cf057fa568b4.html" target="_top" xlink:title="amr&#45;wind">
<polygon fill="#ddddee" stroke="#000000" points="100,-128 100,-287 194,-287 194,-128 100,-128"/>
<text text-anchor="middle" x="147" y="-275" font-family="Helvetica,sans-Serif" font-size="10.00" fill="#000000">amr&#45;wind</text>
</a>
</g>
</g>
<g id="clust2" class="cluster">
<title>clusterdir_9ff815a534beac751fa88e427dbab695</title>
<g id="a_clust2"><a xlink:href="dir_9ff815a534beac751fa88e427dbab695.html" target="_top">
<polygon fill="#eeeeff" stroke="#000000" points="108,-136 108,-260 186,-260 186,-136 108,-136"/>
</a>
</g>
</g>
<!-- dir_9ff815a534beac751fa88e427dbab695 -->
<g id="node1" class="node">
<title>dir_9ff815a534beac751fa88e427dbab695</title>
<text text-anchor="middle" x="147" y="-231.5" font-family="Helvetica,sans-Serif" font-size="10.00" fill="#000000">turbulence</text>
</g>
<!-- dir_d4759c65d88ac8462151b54b86eeee49 -->
<g id="node2" class="node">
<title>dir_d4759c65d88ac8462151b54b86eeee49</title>
<g id="a_node2"><a xlink:href="dir_d4759c65d88ac8462151b54b86eeee49.html" target="_top" xlink:title="LES">
<polygon fill="#ffffff" stroke="#000000" points="176,-180 122,-180 122,-144 176,-144 176,-180"/>
<text text-anchor="middle" x="149" y="-159.5" font-family="Helvetica,sans-Serif" font-size="10.00" fill="#000000">LES</text>
</a>
</g>
</g>
<!-- dir_9ff815a534beac751fa88e427dbab695&#45;&gt;dir_d4759c65d88ac8462151b54b86eeee49 -->
<g id="edge2" class="edge">
<title>dir_9ff815a534beac751fa88e427dbab695&#45;&gt;dir_d4759c65d88ac8462151b54b86eeee49</title>
<path fill="none" stroke="#000000" d="M147.5047,-215.8314C147.7186,-208.131 147.9729,-198.9743 148.2106,-190.4166"/>
<polygon fill="#000000" stroke="#000000" points="151.7094,-190.5066 148.4885,-180.4133 144.7121,-190.3122 151.7094,-190.5066"/>
<g id="a_edge2&#45;headlabel"><a xlink:href="dir_000029_000034.html" target="_top" xlink:title="1">
<text text-anchor="middle" x="154.4479" y="-191.6787" font-family="Helvetica,sans-Serif" font-size="10.00" fill="#000000">1</text>
</a>
</g>
</g>
<!-- dir_e4cd57caa88bf1f4e1bf9521bc47c3c0 -->
<g id="node3" class="node">
<title>dir_e4cd57caa88bf1f4e1bf9521bc47c3c0</title>
<g id="a_node3"><a xlink:href="dir_e4cd57caa88bf1f4e1bf9521bc47c3c0.html" target="_top" xlink:title="utilities">
<polygon fill="#ffffff" stroke="#ff0000" points="256,-180 202,-180 202,-144 256,-144 256,-180"/>
<text text-anchor="middle" x="229" y="-159.5" font-family="Helvetica,sans-Serif" font-size="10.00" fill="#000000">utilities</text>
</a>
</g>
</g>
<!-- dir_9ff815a534beac751fa88e427dbab695&#45;&gt;dir_e4cd57caa88bf1f4e1bf9521bc47c3c0 -->
<g id="edge1" class="edge">
<title>dir_9ff815a534beac751fa88e427dbab695&#45;&gt;dir_e4cd57caa88bf1f4e1bf9521bc47c3c0</title>
<path fill="none" stroke="#000000" d="M167.6921,-215.8314C177.6948,-207.0485 189.855,-196.3712 200.6999,-186.8489"/>
<polygon fill="#000000" stroke="#000000" points="203.1094,-189.3909 208.3146,-180.1628 198.4908,-184.1308 203.1094,-189.3909"/>
<g id="a_edge1&#45;headlabel"><a xlink:href="dir_000029_000008.html" target="_top" xlink:title="1">
<text text-anchor="middle" x="202.2817" y="-191.3962" font-family="Helvetica,sans-Serif" font-size="10.00" fill="#000000">1</text>
</a>
</g>
</g>
<!-- dir_7b7e55eaa727ae9c717abfc097345a8f -->
<g id="node7" class="node">
<title>dir_7b7e55eaa727ae9c717abfc097345a8f</title>
<g id="a_node7"><a xlink:href="dir_7b7e55eaa727ae9c717abfc097345a8f.html" target="_top" xlink:title="transport_models">
<polygon fill="none" stroke="#000000" points="92,-180 0,-180 0,-144 92,-144 92,-180"/>
<text text-anchor="middle" x="46" y="-159.5" font-family="Helvetica,sans-Serif" font-size="10.00" fill="#000000">transport_models</text>
</a>
</g>
</g>
<!-- dir_9ff815a534beac751fa88e427dbab695&#45;&gt;dir_7b7e55eaa727ae9c717abfc097345a8f -->
<g id="edge3" class="edge">
<title>dir_9ff815a534beac751fa88e427dbab695&#45;&gt;dir_7b7e55eaa727ae9c717abfc097345a8f</title>
<path fill="none" stroke="#000000" d="M121.5134,-215.8314C108.8341,-206.7927 93.3404,-195.7476 79.6945,-186.0198"/>
<polygon fill="#000000" stroke="#000000" points="81.6529,-183.1176 71.4784,-180.1628 77.5895,-188.8176 81.6529,-183.1176"/>
<g id="a_edge3&#45;headlabel"><a xlink:href="dir_000029_000013.html" target="_top" xlink:title="3">
<text text-anchor="middle" x="86.228" y="-180.3922" font-family="Helvetica,sans-Serif" font-size="10.00" fill="#000000">3</text>
</a>
</g>
</g>
<!-- dir_7f7a014517bfe31ea45620a6a947e37b -->
<g id="node4" class="node">
<title>dir_7f7a014517bfe31ea45620a6a947e37b</title>
<g id="a_node4"><a xlink:href="dir_7f7a014517bfe31ea45620a6a947e37b.html" target="_top" xlink:title="fvm">
<polygon fill="none" stroke="#000000" points="192,-108 138,-108 138,-72 192,-72 192,-108"/>
<text text-anchor="middle" x="165" y="-87.5" font-family="Helvetica,sans-Serif" font-size="10.00" fill="#000000">fvm</text>
</a>
</g>
</g>
<!-- dir_d4759c65d88ac8462151b54b86eeee49&#45;&gt;dir_7f7a014517bfe31ea45620a6a947e37b -->
<g id="edge6" class="edge">
<title>dir_d4759c65d88ac8462151b54b86eeee49&#45;&gt;dir_7f7a014517bfe31ea45620a6a947e37b</title>
<path fill="none" stroke="#000000" d="M153.0375,-143.8314C154.7487,-136.131 156.7835,-126.9743 158.6852,-118.4166"/>
<polygon fill="#000000" stroke="#000000" points="162.1554,-118.9344 160.9082,-108.4133 155.3221,-117.4159 162.1554,-118.9344"/>
<g id="a_edge6&#45;headlabel"><a xlink:href="dir_000034_000014.html" target="_top" xlink:title="3">
<text text-anchor="middle" x="164.1474" y="-120.5593" font-family="Helvetica,sans-Serif" font-size="10.00" fill="#000000">3</text>
</a>
</g>
</g>
<!-- dir_3d3615e9a999cab4f3407307569d6ced -->
<g id="node5" class="node">
<title>dir_3d3615e9a999cab4f3407307569d6ced</title>
<g id="a_node5"><a xlink:href="dir_3d3615e9a999cab4f3407307569d6ced.html" target="_top" xlink:title="core">
<polygon fill="#ffffff" stroke="#ff0000" points="224,-36 170,-36 170,0 224,0 224,-36"/>
<text text-anchor="middle" x="197" y="-15.5" font-family="Helvetica,sans-Serif" font-size="10.00" fill="#000000">core</text>
</a>
</g>
</g>
<!-- dir_d4759c65d88ac8462151b54b86eeee49&#45;&gt;dir_3d3615e9a999cab4f3407307569d6ced -->
<g id="edge7" class="edge">
<title>dir_d4759c65d88ac8462151b54b86eeee49&#45;&gt;dir_3d3615e9a999cab4f3407307569d6ced</title>
<path fill="none" stroke="#000000" d="M138.3303,-143.9528C128.7293,-125.1887 117.7254,-95.3505 129,-72 135.9235,-57.6608 148.7099,-45.9615 161.3425,-37.1646"/>
<polygon fill="#000000" stroke="#000000" points="163.5144,-39.9273 169.9896,-31.5415 159.6982,-34.059 163.5144,-39.9273"/>
<g id="a_edge7&#45;headlabel"><a xlink:href="dir_000034_000012.html" target="_top" xlink:title="1">
<text text-anchor="middle" x="162.0488" y="-41.7671" font-family="Helvetica,sans-Serif" font-size="10.00" fill="#000000">1</text>
</a>
</g>
</g>
<!-- dir_4bb30ed846ea1df1fc4d16874a455d91 -->
<g id="node6" class="node">
<title>dir_4bb30ed846ea1df1fc4d16874a455d91</title>
<g id="a_node6"><a xlink:href="dir_4bb30ed846ea1df1fc4d16874a455d91.html" target="_top" xlink:title="equation_systems">
<polygon fill="#ffffff" stroke="#ff0000" points="298,-252 202,-252 202,-216 298,-216 298,-252"/>
<text text-anchor="middle" x="250" y="-231.5" font-family="Helvetica,sans-Serif" font-size="10.00" fill="#000000">equation_systems</text>
</a>
</g>
</g>
<!-- dir_d4759c65d88ac8462151b54b86eeee49&#45;&gt;dir_4bb30ed846ea1df1fc4d16874a455d91 -->
<g id="edge8" class="edge">
<title>dir_d4759c65d88ac8462151b54b86eeee49&#45;&gt;dir_4bb30ed846ea1df1fc4d16874a455d91</title>
<path fill="none" stroke="#000000" d="M174.4784,-180.1628C187.1565,-189.2007 202.65,-200.2456 216.2968,-209.9739"/>
<polygon fill="#000000" stroke="#000000" points="214.339,-212.8765 224.5134,-215.8314 218.4023,-207.1766 214.339,-212.8765"/>
<g id="a_edge8&#45;headlabel"><a xlink:href="dir_000034_000002.html" target="_top" xlink:title="2">
<text text-anchor="middle" x="209.7638" y="-210.602" font-family="Helvetica,sans-Serif" font-size="10.00" fill="#000000">2</text>
</a>
</g>
</g>
<!-- dir_e4cd57caa88bf1f4e1bf9521bc47c3c0&#45;&gt;dir_7f7a014517bfe31ea45620a6a947e37b -->
<g id="edge4" class="edge">
<title>dir_e4cd57caa88bf1f4e1bf9521bc47c3c0&#45;&gt;dir_7f7a014517bfe31ea45620a6a947e37b</title>
<path fill="none" stroke="#000000" d="M212.8501,-143.8314C205.3283,-135.3694 196.2435,-125.1489 188.0196,-115.8971"/>
<polygon fill="#000000" stroke="#000000" points="190.627,-113.5621 181.3673,-108.4133 185.3951,-118.2127 190.627,-113.5621"/>
<g id="a_edge4&#45;headlabel"><a xlink:href="dir_000008_000014.html" target="_top" xlink:title="1">
<text text-anchor="middle" x="195.1372" y="-111.8624" font-family="Helvetica,sans-Serif" font-size="10.00" fill="#000000">1</text>
</a>
</g>
</g>
<!-- dir_e4cd57caa88bf1f4e1bf9521bc47c3c0&#45;&gt;dir_3d3615e9a999cab4f3407307569d6ced -->
<g id="edge5" class="edge">
<title>dir_e4cd57caa88bf1f4e1bf9521bc47c3c0&#45;&gt;dir_3d3615e9a999cab4f3407307569d6ced</title>
<path fill="none" stroke="#000000" d="M220.274,-143.7623C212.3561,-119.201 202.3139,-75.2474 197.8035,-46.3541"/>
<polygon fill="#000000" stroke="#000000" points="201.2187,-45.5055 196.3616,-36.0896 194.2868,-46.4793 201.2187,-45.5055"/>
<g id="a_edge5&#45;headlabel"><a xlink:href="dir_000008_000012.html" target="_top" xlink:title="14">
<text text-anchor="middle" x="204.5303" y="-46.1702" font-family="Helvetica,sans-Serif" font-size="10.00" fill="#000000">14</text>
</a>
</g>
</g>
<!-- dir_7f7a014517bfe31ea45620a6a947e37b&#45;&gt;dir_3d3615e9a999cab4f3407307569d6ced -->
<g id="edge9" class="edge">
<title>dir_7f7a014517bfe31ea45620a6a947e37b&#45;&gt;dir_3d3615e9a999cab4f3407307569d6ced</title>
<path fill="none" stroke="#000000" d="M173.075,-71.8314C176.6102,-63.8771 180.836,-54.369 184.7456,-45.5723"/>
<polygon fill="#000000" stroke="#000000" points="187.9532,-46.9729 188.8163,-36.4133 181.5565,-44.1299 187.9532,-46.9729"/>
<g id="a_edge9&#45;headlabel"><a xlink:href="dir_000014_000012.html" target="_top" xlink:title="1">
<text text-anchor="middle" x="189.0879" y="-48.9108" font-family="Helvetica,sans-Serif" font-size="10.00" fill="#000000">1</text>
</a>
</g>
</g>
<!-- dir_3d3615e9a999cab4f3407307569d6ced&#45;&gt;dir_e4cd57caa88bf1f4e1bf9521bc47c3c0 -->
<g id="edge13" class="edge">
<title>dir_3d3615e9a999cab4f3407307569d6ced&#45;&gt;dir_e4cd57caa88bf1f4e1bf9521bc47c3c0</title>
<path fill="none" stroke="#000000" d="M205.6782,-36.0896C213.6223,-60.6805 223.7251,-104.905 228.2288,-133.8531"/>
<polygon fill="#000000" stroke="#000000" points="224.7636,-134.3462 229.6203,-143.7623 231.6956,-133.3727 224.7636,-134.3462"/>
<g id="a_edge13&#45;headlabel"><a xlink:href="dir_000012_000008.html" target="_top" xlink:title="1">
<text text-anchor="middle" x="221.4521" y="-128.6814" font-family="Helvetica,sans-Serif" font-size="10.00" fill="#000000">1</text>
</a>
</g>
</g>
<!-- dir_4bb30ed846ea1df1fc4d16874a455d91&#45;&gt;dir_9ff815a534beac751fa88e427dbab695 -->
<g id="edge10" class="edge">
<title>dir_4bb30ed846ea1df1fc4d16874a455d91&#45;&gt;dir_9ff815a534beac751fa88e427dbab695</title>
<path fill="none" stroke="#000000" d="M201.8822,-234C197.4761,-234 193.0699,-234 188.6638,-234"/>
<polygon fill="#000000" stroke="#000000" points="188.3828,-230.5001 178.3828,-234 188.3828,-237.5001 188.3828,-230.5001"/>
<g id="a_edge10&#45;headlabel"><a xlink:href="dir_000002_000029.html" target="_top" xlink:title="2">
<text text-anchor="middle" x="191.9774" y="-225.1607" font-family="Helvetica,sans-Serif" font-size="10.00" fill="#000000">2</text>
</a>
</g>
</g>
<!-- dir_4bb30ed846ea1df1fc4d16874a455d91&#45;&gt;dir_e4cd57caa88bf1f4e1bf9521bc47c3c0 -->
<g id="edge11" class="edge">
<title>dir_4bb30ed846ea1df1fc4d16874a455d91&#45;&gt;dir_e4cd57caa88bf1f4e1bf9521bc47c3c0</title>
<path fill="none" stroke="#000000" d="M244.7008,-215.8314C242.4302,-208.0463 239.7254,-198.7729 237.206,-190.1347"/>
<polygon fill="#000000" stroke="#000000" points="240.5306,-189.0332 234.3705,-180.4133 233.8106,-190.9933 240.5306,-189.0332"/>
<g id="a_edge11&#45;headlabel"><a xlink:href="dir_000002_000008.html" target="_top" xlink:title="10">
<text text-anchor="middle" x="244.2627" y="-189.1891" font-family="Helvetica,sans-Serif" font-size="10.00" fill="#000000">10</text>
</a>
</g>
</g>
<!-- dir_4bb30ed846ea1df1fc4d16874a455d91&#45;&gt;dir_3d3615e9a999cab4f3407307569d6ced -->
<g id="edge12" class="edge">
<title>dir_4bb30ed846ea1df1fc4d16874a455d91&#45;&gt;dir_3d3615e9a999cab4f3407307569d6ced</title>
<path fill="none" stroke="#000000" d="M256.7183,-215.7895C263.6202,-194.5076 272.3893,-158.3378 265,-128 257.2606,-96.225 236.3129,-64.9962 219.6936,-43.9796"/>
<polygon fill="#000000" stroke="#000000" points="222.3698,-41.723 213.3452,-36.1726 216.9388,-46.1394 222.3698,-41.723"/>
<g id="a_edge12&#45;headlabel"><a xlink:href="dir_000002_000012.html" target="_top" xlink:title="51">
<text text-anchor="middle" x="226.8405" y="-40.2206" font-family="Helvetica,sans-Serif" font-size="10.00" fill="#000000">51</text>
</a>
</g>
</g>
<!-- dir_7b7e55eaa727ae9c717abfc097345a8f&#45;&gt;dir_3d3615e9a999cab4f3407307569d6ced -->
<g id="edge14" class="edge">
<title>dir_7b7e55eaa727ae9c717abfc097345a8f&#45;&gt;dir_3d3615e9a999cab4f3407307569d6ced</title>
<path fill="none" stroke="#000000" d="M58.6251,-143.8679C72.424,-124.7662 95.8099,-94.4058 120,-72 132.5777,-60.35 147.7914,-49.1723 161.3627,-40.0394"/>
<polygon fill="#000000" stroke="#000000" points="163.575,-42.7732 169.9996,-34.3486 159.7236,-36.928 163.575,-42.7732"/>
<g id="a_edge14&#45;headlabel"><a xlink:href="dir_000013_000012.html" target="_top" xlink:title="2">
<text text-anchor="middle" x="162.1355" y="-44.6218" font-family="Helvetica,sans-Serif" font-size="10.00" fill="#000000">2</text>
</a>
</g>
</g>
</g>
</svg>
