<?xml version="1.0" encoding="UTF-8" standalone="no"?>
<!DOCTYPE svg PUBLIC "-//W3C//DTD SVG 1.1//EN"
 "http://www.w3.org/Graphics/SVG/1.1/DTD/svg11.dtd">
<!-- Generated by graphviz version 2.40.1 (20161225.0304)
 -->
<!-- Title: core Pages: 1 -->
<svg width="197pt" height="159pt"
 viewBox="0.00 0.00 197.00 159.00" xmlns="http://www.w3.org/2000/svg" xmlns:xlink="http://www.w3.org/1999/xlink">
<g id="graph0" class="graph" transform="scale(1 1) rotate(0) translate(4 155)">
<title>core</title>
<polygon fill="#ffffff" stroke="transparent" points="-4,4 -4,-155 193,-155 193,4 -4,4"/>
<g id="clust1" class="cluster">
<title>clusterdir_d85575251dd712327fe3cf057fa568b4</title>
<g id="a_clust1"><a xlink:href="dir_d85575251dd712327fe3cf057fa568b4.html" target="_top" xlink:title="amr&#45;wind">
<polygon fill="#ddddee" stroke="#000000" points="23,-56 23,-143 181,-143 181,-56 23,-56"/>
<text text-anchor="middle" x="102" y="-131" font-family="Helvetica,sans-Serif" font-size="10.00" fill="#000000">amr&#45;wind</text>
</a>
</g>
</g>
<g id="clust2" class="cluster">
<title>clusterdir_3d3615e9a999cab4f3407307569d6ced</title>
<g id="a_clust2"><a xlink:href="dir_3d3615e9a999cab4f3407307569d6ced.html" target="_top">
<polygon fill="#eeeeff" stroke="#000000" points="31,-64 31,-116 173,-116 173,-64 31,-64"/>
</a>
</g>
</g>
<!-- dir_3d3615e9a999cab4f3407307569d6ced -->
<g id="node1" class="node">
<title>dir_3d3615e9a999cab4f3407307569d6ced</title>
<text text-anchor="middle" x="66" y="-87.5" font-family="Helvetica,sans-Serif" font-size="10.00" fill="#000000">core</text>
</g>
<!-- dir_ebb19deee3cd40f4ac122fef25c04ca8 -->
<g id="node3" class="node">
<title>dir_ebb19deee3cd40f4ac122fef25c04ca8</title>
<g id="a_node3"><a xlink:href="dir_ebb19deee3cd40f4ac122fef25c04ca8.html" target="_top" xlink:title="boundary_conditions">
<polygon fill="none" stroke="#000000" points="106,-36 0,-36 0,0 106,0 106,-36"/>
<text text-anchor="middle" x="53" y="-15.5" font-family="Helvetica,sans-Serif" font-size="10.00" fill="#000000">boundary_conditions</text>
</a>
</g>
</g>
<!-- dir_3d3615e9a999cab4f3407307569d6ced&#45;&gt;dir_ebb19deee3cd40f4ac122fef25c04ca8 -->
<g id="edge4" class="edge">
<title>dir_3d3615e9a999cab4f3407307569d6ced&#45;&gt;dir_ebb19deee3cd40f4ac122fef25c04ca8</title>
<path fill="none" stroke="#000000" d="M56.7672,-71.8314C54.6264,-64.131 52.7522,-54.9743 51.5157,-46.4166"/>
<polygon fill="#000000" stroke="#000000" points="54.9839,-45.9403 50.3486,-36.4133 48.0311,-46.7515 54.9839,-45.9403"/>
<g id="a_edge4&#45;headlabel"><a xlink:href="dir_000012_000009.html" target="_top" xlink:title="1">
<text text-anchor="middle" x="58.2206" y="-46.6817" font-family="Helvetica,sans-Serif" font-size="10.00" fill="#000000">1</text>
</a>
</g>
</g>
<!-- dir_746f6964e321f098213c94f0f6cc69fe -->
<g id="node2" class="node">
<title>dir_746f6964e321f098213c94f0f6cc69fe</title>
<g id="a_node2"><a xlink:href="dir_746f6964e321f098213c94f0f6cc69fe.html" target="_top" xlink:title="vs">
<polygon fill="#ffffff" stroke="#000000" points="165,-108 111,-108 111,-72 165,-72 165,-108"/>
<text text-anchor="middle" x="138" y="-87.5" font-family="Helvetica,sans-Serif" font-size="10.00" fill="#000000">vs</text>
</a>
</g>
</g>
<!-- dir_e4cd57caa88bf1f4e1bf9521bc47c3c0 -->
<g id="node4" class="node">
<title>dir_e4cd57caa88bf1f4e1bf9521bc47c3c0</title>
<g id="a_node4"><a xlink:href="dir_e4cd57caa88bf1f4e1bf9521bc47c3c0.html" target="_top" xlink:title="utilities">
<polygon fill="#ffffff" stroke="#ff0000" points="178,-36 124,-36 124,0 178,0 178,-36"/>
<text text-anchor="middle" x="151" y="-15.5" font-family="Helvetica,sans-Serif" font-size="10.00" fill="#000000">utilities</text>
</a>
</g>
</g>
<!-- dir_746f6964e321f098213c94f0f6cc69fe&#45;&gt;dir_e4cd57caa88bf1f4e1bf9521bc47c3c0 -->
<g id="edge2" class="edge">
<title>dir_746f6964e321f098213c94f0f6cc69fe&#45;&gt;dir_e4cd57caa88bf1f4e1bf9521bc47c3c0</title>
<path fill="none" stroke="#000000" d="M135.3281,-71.8314C135.975,-64.0463 137.4319,-54.7729 139.3154,-46.1347"/>
<polygon fill="#000000" stroke="#000000" points="142.7169,-46.9591 141.6994,-36.4133 135.9183,-45.2919 142.7169,-46.9591"/>
<g id="a_edge2&#45;headlabel"><a xlink:href="dir_000038_000008.html" target="_top" xlink:title="1">
<text text-anchor="middle" x="144.6184" y="-48.6265" font-family="Helvetica,sans-Serif" font-size="10.00" fill="#000000">1</text>
</a>
</g>
</g>
<!-- dir_ebb19deee3cd40f4ac122fef25c04ca8&#45;&gt;dir_3d3615e9a999cab4f3407307569d6ced -->
<g id="edge1" class="edge">
<title>dir_ebb19deee3cd40f4ac122fef25c04ca8&#45;&gt;dir_3d3615e9a999cab4f3407307569d6ced</title>
<path fill="none" stroke="#000000" d="M62.3006,-36.4133C64.4357,-44.1442 66.3003,-53.3097 67.5233,-61.8545"/>
<polygon fill="#000000" stroke="#000000" points="64.0511,-62.2973 68.6719,-71.8314 71.0051,-61.4966 64.0511,-62.2973"/>
<g id="a_edge1&#45;headlabel"><a xlink:href="dir_000009_000012.html" target="_top" xlink:title="8">
<text text-anchor="middle" x="60.8194" y="-56.551" font-family="Helvetica,sans-Serif" font-size="10.00" fill="#000000">8</text>
</a>
</g>
</g>
<!-- dir_e4cd57caa88bf1f4e1bf9521bc47c3c0&#45;&gt;dir_746f6964e321f098213c94f0f6cc69fe -->
<g id="edge3" class="edge">
<title>dir_e4cd57caa88bf1f4e1bf9521bc47c3c0&#45;&gt;dir_746f6964e321f098213c94f0f6cc69fe</title>
<path fill="none" stroke="#000000" d="M153.6514,-36.4133C152.9948,-44.1442 151.5496,-53.3097 149.687,-61.8545"/>
<polygon fill="#000000" stroke="#000000" points="146.2228,-61.2848 147.2328,-71.8314 153.0202,-62.9569 146.2228,-61.2848"/>
<g id="a_edge3&#45;headlabel"><a xlink:href="dir_000008_000038.html" target="_top" xlink:title="2">
<text text-anchor="middle" x="144.3243" y="-54.6161" font-family="Helvetica,sans-Serif" font-size="10.00" fill="#000000">2</text>
</a>
</g>
</g>
</g>
</svg>
