<?xml version="1.0" encoding="UTF-8" standalone="no"?>
<!DOCTYPE svg PUBLIC "-//W3C//DTD SVG 1.1//EN"
 "http://www.w3.org/Graphics/SVG/1.1/DTD/svg11.dtd">
<!-- Generated by graphviz version 2.40.1 (20161225.0304)
 -->
<!-- Title: amr&#45;wind Pages: 1 -->
<svg width="686pt" height="796pt"
 viewBox="0.00 0.00 686.00 796.00" xmlns="http://www.w3.org/2000/svg" xmlns:xlink="http://www.w3.org/1999/xlink">
<g id="graph0" class="graph" transform="scale(1 1) rotate(0) translate(4 792)">
<title>amr&#45;wind</title>
<polygon fill="#ffffff" stroke="transparent" points="-4,4 -4,-792 682,-792 682,4 -4,4"/>
<g id="clust1" class="cluster">
<title>clusterdir_d85575251dd712327fe3cf057fa568b4</title>
<g id="a_clust1"><a xlink:href="dir_d85575251dd712327fe3cf057fa568b4.html" target="_top">
<polygon fill="#eeeeff" stroke="#000000" points="8,-8 8,-780 670,-780 670,-8 8,-8"/>
</a>
</g>
</g>
<!-- dir_d85575251dd712327fe3cf057fa568b4 -->
<g id="node1" class="node">
<title>dir_d85575251dd712327fe3cf057fa568b4</title>
<text text-anchor="middle" x="444" y="-751.5" font-family="Helvetica,sans-Serif" font-size="10.00" fill="#000000">amr&#45;wind</text>
</g>
<!-- dir_4bb30ed846ea1df1fc4d16874a455d91 -->
<g id="node7" class="node">
<title>dir_4bb30ed846ea1df1fc4d16874a455d91</title>
<g id="a_node7"><a xlink:href="dir_4bb30ed846ea1df1fc4d16874a455d91.html" target="_top" xlink:title="equation_systems">
<polygon fill="#ffffff" stroke="#ff0000" points="469,-628 373,-628 373,-592 469,-592 469,-628"/>
<text text-anchor="middle" x="421" y="-607.5" font-family="Helvetica,sans-Serif" font-size="10.00" fill="#000000">equation_systems</text>
</a>
</g>
</g>
<!-- dir_d85575251dd712327fe3cf057fa568b4&#45;&gt;dir_4bb30ed846ea1df1fc4d16874a455d91 -->
<g id="edge12" class="edge">
<title>dir_d85575251dd712327fe3cf057fa568b4&#45;&gt;dir_4bb30ed846ea1df1fc4d16874a455d91</title>
<path fill="none" stroke="#000000" d="M442.6673,-735.976C441.1621,-717.7386 438.3411,-688.7764 434,-664 432.5256,-655.5852 430.5148,-646.5274 428.5154,-638.2794"/>
<polygon fill="#000000" stroke="#000000" points="431.8586,-637.2219 426.0301,-628.3743 425.0691,-638.9255 431.8586,-637.2219"/>
<g id="a_edge12&#45;headlabel"><a xlink:href="dir_000000_000002.html" target="_top" xlink:title="14">
<text text-anchor="middle" x="435.4873" y="-637.5175" font-family="Helvetica,sans-Serif" font-size="10.00" fill="#000000">14</text>
</a>
</g>
</g>
<!-- dir_629222d9fcf2f4ceefae477297f2ec84 -->
<g id="node10" class="node">
<title>dir_629222d9fcf2f4ceefae477297f2ec84</title>
<g id="a_node10"><a xlink:href="dir_629222d9fcf2f4ceefae477297f2ec84.html" target="_top" xlink:title="overset">
<polygon fill="#ffffff" stroke="#000000" points="658,-700 604,-700 604,-664 658,-664 658,-700"/>
<text text-anchor="middle" x="631" y="-679.5" font-family="Helvetica,sans-Serif" font-size="10.00" fill="#000000">overset</text>
</a>
</g>
</g>
<!-- dir_d85575251dd712327fe3cf057fa568b4&#45;&gt;dir_629222d9fcf2f4ceefae477297f2ec84 -->
<g id="edge9" class="edge">
<title>dir_d85575251dd712327fe3cf057fa568b4&#45;&gt;dir_629222d9fcf2f4ceefae477297f2ec84</title>
<path fill="none" stroke="#000000" d="M472.179,-744.1386C501.7235,-733.6687 549.4069,-716.4008 590,-700 591.3965,-699.4358 592.8165,-698.8538 594.2483,-698.2601"/>
<polygon fill="#000000" stroke="#000000" points="595.9075,-701.3584 603.7487,-694.2334 593.1757,-694.9134 595.9075,-701.3584"/>
<g id="a_edge9&#45;headlabel"><a xlink:href="dir_000000_000035.html" target="_top" xlink:title="2">
<text text-anchor="middle" x="593.7059" y="-702.8753" font-family="Helvetica,sans-Serif" font-size="10.00" fill="#000000">2</text>
</a>
</g>
</g>
<!-- dir_363965ad9f416a72819c4d9abdf3e48c -->
<g id="node12" class="node">
<title>dir_363965ad9f416a72819c4d9abdf3e48c</title>
<g id="a_node12"><a xlink:href="dir_363965ad9f416a72819c4d9abdf3e48c.html" target="_top" xlink:title="prob">
<polygon fill="#ffffff" stroke="#000000" points="353,-700 299,-700 299,-664 353,-664 353,-700"/>
<text text-anchor="middle" x="326" y="-679.5" font-family="Helvetica,sans-Serif" font-size="10.00" fill="#000000">prob</text>
</a>
</g>
</g>
<!-- dir_d85575251dd712327fe3cf057fa568b4&#45;&gt;dir_363965ad9f416a72819c4d9abdf3e48c -->
<g id="edge10" class="edge">
<title>dir_d85575251dd712327fe3cf057fa568b4&#45;&gt;dir_363965ad9f416a72819c4d9abdf3e48c</title>
<path fill="none" stroke="#000000" d="M415.7361,-736.7542C399.595,-726.9054 379.1958,-714.4585 361.9269,-703.9215"/>
<polygon fill="#000000" stroke="#000000" points="363.5804,-700.8303 353.2209,-698.6094 359.9343,-706.8058 363.5804,-700.8303"/>
<g id="a_edge10&#45;headlabel"><a xlink:href="dir_000000_000024.html" target="_top" xlink:title="1">
<text text-anchor="middle" x="368.1277" y="-697.7789" font-family="Helvetica,sans-Serif" font-size="10.00" fill="#000000">1</text>
</a>
</g>
</g>
<!-- dir_9ff815a534beac751fa88e427dbab695 -->
<g id="node16" class="node">
<title>dir_9ff815a534beac751fa88e427dbab695</title>
<g id="a_node16"><a xlink:href="dir_9ff815a534beac751fa88e427dbab695.html" target="_top" xlink:title="turbulence">
<polygon fill="#ffffff" stroke="#ff0000" points="220,-556 158,-556 158,-520 220,-520 220,-556"/>
<text text-anchor="middle" x="189" y="-535.5" font-family="Helvetica,sans-Serif" font-size="10.00" fill="#000000">turbulence</text>
</a>
</g>
</g>
<!-- dir_d85575251dd712327fe3cf057fa568b4&#45;&gt;dir_9ff815a534beac751fa88e427dbab695 -->
<g id="edge8" class="edge">
<title>dir_d85575251dd712327fe3cf057fa568b4&#45;&gt;dir_9ff815a534beac751fa88e427dbab695</title>
<path fill="none" stroke="#000000" d="M415.9736,-749.9529C382.8425,-743.9599 327.4835,-730.0199 290,-700 244.7174,-663.7338 214.1393,-601.3226 199.3279,-565.4759"/>
<polygon fill="#000000" stroke="#000000" points="202.5429,-564.0896 195.5693,-556.1135 196.0469,-566.6975 202.5429,-564.0896"/>
<g id="a_edge8&#45;headlabel"><a xlink:href="dir_000000_000029.html" target="_top" xlink:title="5">
<text text-anchor="middle" x="206.517" y="-563.8677" font-family="Helvetica,sans-Serif" font-size="10.00" fill="#000000">5</text>
</a>
</g>
</g>
<!-- dir_0c368f76a33d967d5b838b5681461de6 -->
<g id="node18" class="node">
<title>dir_0c368f76a33d967d5b838b5681461de6</title>
<g id="a_node18"><a xlink:href="dir_0c368f76a33d967d5b838b5681461de6.html" target="_top" xlink:title="wind_energy">
<polygon fill="#ffffff" stroke="#ff0000" points="542.5,-340 471.5,-340 471.5,-304 542.5,-304 542.5,-340"/>
<text text-anchor="middle" x="507" y="-319.5" font-family="Helvetica,sans-Serif" font-size="10.00" fill="#000000">wind_energy</text>
</a>
</g>
</g>
<!-- dir_d85575251dd712327fe3cf057fa568b4&#45;&gt;dir_0c368f76a33d967d5b838b5681461de6 -->
<g id="edge11" class="edge">
<title>dir_d85575251dd712327fe3cf057fa568b4&#45;&gt;dir_0c368f76a33d967d5b838b5681461de6</title>
<path fill="none" stroke="#000000" d="M472.1946,-740.9966C513.342,-719.8494 585,-673.8549 585,-610 585,-610 585,-610 585,-466 585,-420.3933 554.3763,-375.4038 531.5058,-348.1636"/>
<polygon fill="#000000" stroke="#000000" points="533.8898,-345.5699 524.6994,-340.2986 528.5967,-350.1506 533.8898,-345.5699"/>
<g id="a_edge11&#45;headlabel"><a xlink:href="dir_000000_000001.html" target="_top" xlink:title="10">
<text text-anchor="middle" x="538.389" y="-343.93" font-family="Helvetica,sans-Serif" font-size="10.00" fill="#000000">10</text>
</a>
</g>
</g>
<!-- dir_ebb19deee3cd40f4ac122fef25c04ca8 -->
<g id="node2" class="node">
<title>dir_ebb19deee3cd40f4ac122fef25c04ca8</title>
<g id="a_node2"><a xlink:href="dir_ebb19deee3cd40f4ac122fef25c04ca8.html" target="_top" xlink:title="boundary_conditions">
<polygon fill="#ffffff" stroke="#000000" points="566,-484 460,-484 460,-448 566,-448 566,-484"/>
<text text-anchor="middle" x="513" y="-463.5" font-family="Helvetica,sans-Serif" font-size="10.00" fill="#000000">boundary_conditions</text>
</a>
</g>
</g>
<!-- dir_3d3615e9a999cab4f3407307569d6ced -->
<g id="node4" class="node">
<title>dir_3d3615e9a999cab4f3407307569d6ced</title>
<g id="a_node4"><a xlink:href="dir_3d3615e9a999cab4f3407307569d6ced.html" target="_top" xlink:title="core">
<polygon fill="#ffffff" stroke="#ff0000" points="374,-196 320,-196 320,-160 374,-160 374,-196"/>
<text text-anchor="middle" x="347" y="-175.5" font-family="Helvetica,sans-Serif" font-size="10.00" fill="#000000">core</text>
</a>
</g>
</g>
<!-- dir_ebb19deee3cd40f4ac122fef25c04ca8&#45;&gt;dir_3d3615e9a999cab4f3407307569d6ced -->
<g id="edge32" class="edge">
<title>dir_ebb19deee3cd40f4ac122fef25c04ca8&#45;&gt;dir_3d3615e9a999cab4f3407307569d6ced</title>
<path fill="none" stroke="#000000" d="M514.433,-447.6251C521.1664,-423.447 537.0424,-379.3962 543,-340 550.4855,-290.5001 548.3866,-265.2943 511,-232 475.1784,-200.0994 420.6693,-187.0429 384.3344,-181.6998"/>
<polygon fill="#000000" stroke="#000000" points="384.5176,-178.1931 374.141,-180.3323 383.5867,-185.131 384.5176,-178.1931"/>
<g id="a_edge32&#45;headlabel"><a xlink:href="dir_000009_000012.html" target="_top" xlink:title="8">
<text text-anchor="middle" x="388.4578" y="-173.3569" font-family="Helvetica,sans-Serif" font-size="10.00" fill="#000000">8</text>
</a>
</g>
</g>
<!-- dir_f2c65bfcbdc19ebacbfc0bbbfb0d01b6 -->
<g id="node11" class="node">
<title>dir_f2c65bfcbdc19ebacbfc0bbbfb0d01b6</title>
<g id="a_node11"><a xlink:href="dir_f2c65bfcbdc19ebacbfc0bbbfb0d01b6.html" target="_top" xlink:title="physics">
<polygon fill="#ffffff" stroke="#ff0000" points="410,-412 356,-412 356,-376 410,-376 410,-412"/>
<text text-anchor="middle" x="383" y="-391.5" font-family="Helvetica,sans-Serif" font-size="10.00" fill="#000000">physics</text>
</a>
</g>
</g>
<!-- dir_ebb19deee3cd40f4ac122fef25c04ca8&#45;&gt;dir_f2c65bfcbdc19ebacbfc0bbbfb0d01b6 -->
<g id="edge30" class="edge">
<title>dir_ebb19deee3cd40f4ac122fef25c04ca8&#45;&gt;dir_f2c65bfcbdc19ebacbfc0bbbfb0d01b6</title>
<path fill="none" stroke="#000000" d="M480.1955,-447.8314C461.4945,-437.4739 438.0368,-424.4819 418.8517,-413.8563"/>
<polygon fill="#000000" stroke="#000000" points="420.5377,-410.7892 410.094,-409.0059 417.1462,-416.9127 420.5377,-410.7892"/>
<g id="a_edge30&#45;headlabel"><a xlink:href="dir_000009_000010.html" target="_top" xlink:title="2">
<text text-anchor="middle" x="425.0578" y="-407.547" font-family="Helvetica,sans-Serif" font-size="10.00" fill="#000000">2</text>
</a>
</g>
</g>
<!-- dir_ebb19deee3cd40f4ac122fef25c04ca8&#45;&gt;dir_0c368f76a33d967d5b838b5681461de6 -->
<g id="edge31" class="edge">
<title>dir_ebb19deee3cd40f4ac122fef25c04ca8&#45;&gt;dir_0c368f76a33d967d5b838b5681461de6</title>
<path fill="none" stroke="#000000" d="M512.2401,-447.7623C511.2167,-423.201 509.3853,-379.2474 508.1814,-350.3541"/>
<polygon fill="#000000" stroke="#000000" points="511.6671,-349.9352 507.7537,-340.0896 504.6732,-350.2267 511.6671,-349.9352"/>
<g id="a_edge31&#45;headlabel"><a xlink:href="dir_000009_000001.html" target="_top" xlink:title="1">
<text text-anchor="middle" x="514.6535" y="-350.9085" font-family="Helvetica,sans-Serif" font-size="10.00" fill="#000000">1</text>
</a>
</g>
</g>
<!-- dir_35ffb1505af3943bdf99903da87524fe -->
<g id="node3" class="node">
<title>dir_35ffb1505af3943bdf99903da87524fe</title>
<g id="a_node3"><a xlink:href="dir_35ffb1505af3943bdf99903da87524fe.html" target="_top" xlink:title="convection">
<polygon fill="#ffffff" stroke="#000000" points="140,-268 76,-268 76,-232 140,-232 140,-268"/>
<text text-anchor="middle" x="108" y="-247.5" font-family="Helvetica,sans-Serif" font-size="10.00" fill="#000000">convection</text>
</a>
</g>
</g>
<!-- dir_35ffb1505af3943bdf99903da87524fe&#45;&gt;dir_3d3615e9a999cab4f3407307569d6ced -->
<g id="edge22" class="edge">
<title>dir_35ffb1505af3943bdf99903da87524fe&#45;&gt;dir_3d3615e9a999cab4f3407307569d6ced</title>
<path fill="none" stroke="#000000" d="M140.2326,-240.2898C184.3911,-226.9868 263.5064,-203.1529 310.0214,-189.14"/>
<polygon fill="#000000" stroke="#000000" points="311.142,-192.4579 319.7074,-186.222 309.1228,-185.7554 311.142,-192.4579"/>
<g id="a_edge22&#45;headlabel"><a xlink:href="dir_000022_000012.html" target="_top" xlink:title="2">
<text text-anchor="middle" x="308.5192" y="-193.7132" font-family="Helvetica,sans-Serif" font-size="10.00" fill="#000000">2</text>
</a>
</g>
</g>
<!-- dir_e4cd57caa88bf1f4e1bf9521bc47c3c0 -->
<g id="node17" class="node">
<title>dir_e4cd57caa88bf1f4e1bf9521bc47c3c0</title>
<g id="a_node17"><a xlink:href="dir_e4cd57caa88bf1f4e1bf9521bc47c3c0.html" target="_top" xlink:title="utilities">
<polygon fill="#ffffff" stroke="#ff0000" points="255,-124 201,-124 201,-88 255,-88 255,-124"/>
<text text-anchor="middle" x="228" y="-103.5" font-family="Helvetica,sans-Serif" font-size="10.00" fill="#000000">utilities</text>
</a>
</g>
</g>
<!-- dir_35ffb1505af3943bdf99903da87524fe&#45;&gt;dir_e4cd57caa88bf1f4e1bf9521bc47c3c0 -->
<g id="edge21" class="edge">
<title>dir_35ffb1505af3943bdf99903da87524fe&#45;&gt;dir_e4cd57caa88bf1f4e1bf9521bc47c3c0</title>
<path fill="none" stroke="#000000" d="M114.3148,-231.9654C121.6947,-212.67 135.3192,-181.8907 154,-160 164.8401,-147.2972 179.2368,-135.9304 192.449,-126.9406"/>
<polygon fill="#000000" stroke="#000000" points="194.4717,-129.7996 200.911,-121.3861 190.6304,-123.9476 194.4717,-129.7996"/>
<g id="a_edge21&#45;headlabel"><a xlink:href="dir_000022_000008.html" target="_top" xlink:title="3">
<text text-anchor="middle" x="193.0247" y="-131.6456" font-family="Helvetica,sans-Serif" font-size="10.00" fill="#000000">3</text>
</a>
</g>
</g>
<!-- dir_3d3615e9a999cab4f3407307569d6ced&#45;&gt;dir_ebb19deee3cd40f4ac122fef25c04ca8 -->
<g id="edge49" class="edge">
<title>dir_3d3615e9a999cab4f3407307569d6ced&#45;&gt;dir_ebb19deee3cd40f4ac122fef25c04ca8</title>
<path fill="none" stroke="#000000" d="M374.1596,-179.15C413.3888,-182.1508 485.1779,-192.9747 529,-232 566.3866,-265.2943 568.4855,-290.5001 561,-340 555.7406,-374.7794 542.7511,-413.1865 531.2575,-438.3457"/>
<polygon fill="#000000" stroke="#000000" points="527.9737,-437.0976 526.7811,-447.6251 534.2784,-440.1391 527.9737,-437.0976"/>
<g id="a_edge49&#45;headlabel"><a xlink:href="dir_000012_000009.html" target="_top" xlink:title="1">
<text text-anchor="middle" x="526.9782" y="-430.1264" font-family="Helvetica,sans-Serif" font-size="10.00" fill="#000000">1</text>
</a>
</g>
</g>
<!-- dir_3d3615e9a999cab4f3407307569d6ced&#45;&gt;dir_e4cd57caa88bf1f4e1bf9521bc47c3c0 -->
<g id="edge50" class="edge">
<title>dir_3d3615e9a999cab4f3407307569d6ced&#45;&gt;dir_e4cd57caa88bf1f4e1bf9521bc47c3c0</title>
<path fill="none" stroke="#000000" d="M319.8095,-164.7941C302.0659,-154.9109 278.961,-141.134 260.3077,-129.4006"/>
<polygon fill="#000000" stroke="#000000" points="262.1357,-126.4153 251.8191,-124.0032 258.3798,-132.3224 262.1357,-126.4153"/>
<g id="a_edge50&#45;headlabel"><a xlink:href="dir_000012_000008.html" target="_top" xlink:title="1">
<text text-anchor="middle" x="266.6925" y="-123.4481" font-family="Helvetica,sans-Serif" font-size="10.00" fill="#000000">1</text>
</a>
</g>
</g>
<!-- dir_63a0b6c750cdf58b4c6ba486311e48e1 -->
<g id="node5" class="node">
<title>dir_63a0b6c750cdf58b4c6ba486311e48e1</title>
<g id="a_node5"><a xlink:href="dir_63a0b6c750cdf58b4c6ba486311e48e1.html" target="_top" xlink:title="derive">
<polygon fill="#ffffff" stroke="#000000" points="502,-268 448,-268 448,-232 502,-232 502,-268"/>
<text text-anchor="middle" x="475" y="-247.5" font-family="Helvetica,sans-Serif" font-size="10.00" fill="#000000">derive</text>
</a>
</g>
</g>
<!-- dir_63a0b6c750cdf58b4c6ba486311e48e1&#45;&gt;dir_3d3615e9a999cab4f3407307569d6ced -->
<g id="edge33" class="edge">
<title>dir_63a0b6c750cdf58b4c6ba486311e48e1&#45;&gt;dir_3d3615e9a999cab4f3407307569d6ced</title>
<path fill="none" stroke="#000000" d="M447.8545,-234.7307C428.9326,-224.0871 403.4907,-209.776 382.8947,-198.1908"/>
<polygon fill="#000000" stroke="#000000" points="384.5381,-195.0995 374.1064,-193.2473 381.1062,-201.2005 384.5381,-195.0995"/>
<g id="a_edge33&#45;headlabel"><a xlink:href="dir_000017_000012.html" target="_top" xlink:title="1">
<text text-anchor="middle" x="389.063" y="-191.8871" font-family="Helvetica,sans-Serif" font-size="10.00" fill="#000000">1</text>
</a>
</g>
</g>
<!-- dir_a816a247b59c90f95e41afe29b966a18 -->
<g id="node6" class="node">
<title>dir_a816a247b59c90f95e41afe29b966a18</title>
<g id="a_node6"><a xlink:href="dir_a816a247b59c90f95e41afe29b966a18.html" target="_top" xlink:title="diffusion">
<polygon fill="#ffffff" stroke="#000000" points="430,-268 376,-268 376,-232 430,-232 430,-268"/>
<text text-anchor="middle" x="403" y="-247.5" font-family="Helvetica,sans-Serif" font-size="10.00" fill="#000000">diffusion</text>
</a>
</g>
</g>
<!-- dir_a816a247b59c90f95e41afe29b966a18&#45;&gt;dir_3d3615e9a999cab4f3407307569d6ced -->
<g id="edge41" class="edge">
<title>dir_a816a247b59c90f95e41afe29b966a18&#45;&gt;dir_3d3615e9a999cab4f3407307569d6ced</title>
<path fill="none" stroke="#000000" d="M388.8688,-231.8314C382.4189,-223.5386 374.6555,-213.557 367.5748,-204.4533"/>
<polygon fill="#000000" stroke="#000000" points="370.2236,-202.158 361.3214,-196.4133 364.6981,-206.4556 370.2236,-202.158"/>
<g id="a_edge41&#45;headlabel"><a xlink:href="dir_000018_000012.html" target="_top" xlink:title="1">
<text text-anchor="middle" x="374.6716" y="-200.7523" font-family="Helvetica,sans-Serif" font-size="10.00" fill="#000000">1</text>
</a>
</g>
</g>
<!-- dir_4bb30ed846ea1df1fc4d16874a455d91&#45;&gt;dir_ebb19deee3cd40f4ac122fef25c04ca8 -->
<g id="edge45" class="edge">
<title>dir_4bb30ed846ea1df1fc4d16874a455d91&#45;&gt;dir_ebb19deee3cd40f4ac122fef25c04ca8</title>
<path fill="none" stroke="#000000" d="M432.6519,-591.7623C448.6203,-566.7682 477.4188,-521.6924 495.8517,-492.8409"/>
<polygon fill="#000000" stroke="#000000" points="499.0082,-494.401 501.4427,-484.0896 493.1094,-490.6322 499.0082,-494.401"/>
<g id="a_edge45&#45;headlabel"><a xlink:href="dir_000002_000009.html" target="_top" xlink:title="2">
<text text-anchor="middle" x="499.4656" y="-496.4587" font-family="Helvetica,sans-Serif" font-size="10.00" fill="#000000">2</text>
</a>
</g>
</g>
<!-- dir_4bb30ed846ea1df1fc4d16874a455d91&#45;&gt;dir_35ffb1505af3943bdf99903da87524fe -->
<g id="edge43" class="edge">
<title>dir_4bb30ed846ea1df1fc4d16874a455d91&#45;&gt;dir_35ffb1505af3943bdf99903da87524fe</title>
<path fill="none" stroke="#000000" d="M373.0003,-591.8411C325.7297,-571.8113 254.2229,-535.4567 209,-484 154.2807,-421.7379 125.5612,-325.2958 114.0912,-278.0373"/>
<polygon fill="#000000" stroke="#000000" points="117.4735,-277.1305 111.7809,-268.1949 110.6587,-278.7301 117.4735,-277.1305"/>
<g id="a_edge43&#45;headlabel"><a xlink:href="dir_000002_000022.html" target="_top" xlink:title="2">
<text text-anchor="middle" x="121.059" y="-277.4812" font-family="Helvetica,sans-Serif" font-size="10.00" fill="#000000">2</text>
</a>
</g>
</g>
<!-- dir_4bb30ed846ea1df1fc4d16874a455d91&#45;&gt;dir_3d3615e9a999cab4f3407307569d6ced -->
<g id="edge48" class="edge">
<title>dir_4bb30ed846ea1df1fc4d16874a455d91&#45;&gt;dir_3d3615e9a999cab4f3407307569d6ced</title>
<path fill="none" stroke="#000000" d="M458.3486,-591.9664C495.7313,-571.5954 551.0352,-534.5715 575,-484 587.5994,-457.4123 584.2049,-441.9222 558,-304 551.8225,-271.4862 562.2122,-255.5903 539,-232 517.4603,-210.1094 433.5888,-192.6288 384.1065,-183.9567"/>
<polygon fill="#000000" stroke="#000000" points="384.5521,-180.4821 374.1043,-182.2415 383.3689,-187.3814 384.5521,-180.4821"/>
<g id="a_edge48&#45;headlabel"><a xlink:href="dir_000002_000012.html" target="_top" xlink:title="51">
<text text-anchor="middle" x="388.5748" y="-175.7912" font-family="Helvetica,sans-Serif" font-size="10.00" fill="#000000">51</text>
</a>
</g>
</g>
<!-- dir_4bb30ed846ea1df1fc4d16874a455d91&#45;&gt;dir_a816a247b59c90f95e41afe29b966a18 -->
<g id="edge47" class="edge">
<title>dir_4bb30ed846ea1df1fc4d16874a455d91&#45;&gt;dir_a816a247b59c90f95e41afe29b966a18</title>
<path fill="none" stroke="#000000" d="M421.5731,-591.7676C422.6523,-552.3468 424.4198,-456.2576 419,-376 416.725,-342.3117 411.4472,-303.8444 407.5726,-278.3681"/>
<polygon fill="#000000" stroke="#000000" points="411.002,-277.6424 406.0109,-268.2969 404.0847,-278.7152 411.002,-277.6424"/>
<g id="a_edge47&#45;headlabel"><a xlink:href="dir_000002_000018.html" target="_top" xlink:title="1">
<text text-anchor="middle" x="414.3585" y="-278.2595" font-family="Helvetica,sans-Serif" font-size="10.00" fill="#000000">1</text>
</a>
</g>
</g>
<!-- dir_4bb30ed846ea1df1fc4d16874a455d91&#45;&gt;dir_9ff815a534beac751fa88e427dbab695 -->
<g id="edge42" class="edge">
<title>dir_4bb30ed846ea1df1fc4d16874a455d91&#45;&gt;dir_9ff815a534beac751fa88e427dbab695</title>
<path fill="none" stroke="#000000" d="M372.775,-599.3607C334.9924,-589.8144 281.2846,-574.8913 229.757,-557.5578"/>
<polygon fill="#000000" stroke="#000000" points="230.7598,-554.202 220.1653,-554.2939 228.5047,-560.8288 230.7598,-554.202"/>
<g id="a_edge42&#45;headlabel"><a xlink:href="dir_000002_000029.html" target="_top" xlink:title="2">
<text text-anchor="middle" x="235.0774" y="-550.172" font-family="Helvetica,sans-Serif" font-size="10.00" fill="#000000">2</text>
</a>
</g>
</g>
<!-- dir_4bb30ed846ea1df1fc4d16874a455d91&#45;&gt;dir_e4cd57caa88bf1f4e1bf9521bc47c3c0 -->
<g id="edge46" class="edge">
<title>dir_4bb30ed846ea1df1fc4d16874a455d91&#45;&gt;dir_e4cd57caa88bf1f4e1bf9521bc47c3c0</title>
<path fill="none" stroke="#000000" d="M372.9605,-599.972C327.7028,-589.7072 264.0764,-572.9054 245,-556 231.896,-544.3873 240.107,-533.5352 229,-520 211.3998,-498.5521 196.1987,-504.9424 178,-484 107.2027,-402.529 92.3781,-372.9082 67,-268 54.0892,-214.6294 84.4253,-194.6772 127,-160 146.5643,-144.0648 171.5509,-130.6587 191.7764,-121.1901"/>
<polygon fill="#000000" stroke="#000000" points="193.3384,-124.3246 200.9871,-116.9932 190.436,-117.9547 193.3384,-124.3246"/>
<g id="a_edge46&#45;headlabel"><a xlink:href="dir_000002_000008.html" target="_top" xlink:title="10">
<text text-anchor="middle" x="191.2446" y="-125.8987" font-family="Helvetica,sans-Serif" font-size="10.00" fill="#000000">10</text>
</a>
</g>
</g>
<!-- dir_4bb30ed846ea1df1fc4d16874a455d91&#45;&gt;dir_0c368f76a33d967d5b838b5681461de6 -->
<g id="edge44" class="edge">
<title>dir_4bb30ed846ea1df1fc4d16874a455d91&#45;&gt;dir_0c368f76a33d967d5b838b5681461de6</title>
<path fill="none" stroke="#000000" d="M417.4202,-591.6848C417.5466,-561.3083 426.2438,-498.8152 442,-448 452.9865,-412.5675 471.1926,-373.8609 485.8481,-348.8281"/>
<polygon fill="#000000" stroke="#000000" points="488.8564,-350.6173 491.0669,-340.2556 482.8772,-346.9772 488.8564,-350.6173"/>
<g id="a_edge44&#45;headlabel"><a xlink:href="dir_000002_000001.html" target="_top" xlink:title="3">
<text text-anchor="middle" x="489.4125" y="-352.6641" font-family="Helvetica,sans-Serif" font-size="10.00" fill="#000000">3</text>
</a>
</g>
</g>
<!-- dir_7f7a014517bfe31ea45620a6a947e37b -->
<g id="node8" class="node">
<title>dir_7f7a014517bfe31ea45620a6a947e37b</title>
<g id="a_node8"><a xlink:href="dir_7f7a014517bfe31ea45620a6a947e37b.html" target="_top" xlink:title="fvm">
<polygon fill="#ffffff" stroke="#000000" points="374,-52 320,-52 320,-16 374,-16 374,-52"/>
<text text-anchor="middle" x="347" y="-31.5" font-family="Helvetica,sans-Serif" font-size="10.00" fill="#000000">fvm</text>
</a>
</g>
</g>
<!-- dir_7f7a014517bfe31ea45620a6a947e37b&#45;&gt;dir_3d3615e9a999cab4f3407307569d6ced -->
<g id="edge40" class="edge">
<title>dir_7f7a014517bfe31ea45620a6a947e37b&#45;&gt;dir_3d3615e9a999cab4f3407307569d6ced</title>
<path fill="none" stroke="#000000" d="M347,-52.0896C347,-76.5727 347,-120.5174 347,-149.4713"/>
<polygon fill="#000000" stroke="#000000" points="343.5001,-149.7623 347,-159.7623 350.5001,-149.7623 343.5001,-149.7623"/>
<g id="a_edge40&#45;headlabel"><a xlink:href="dir_000014_000012.html" target="_top" xlink:title="1">
<text text-anchor="middle" x="340.6607" y="-143.6677" font-family="Helvetica,sans-Serif" font-size="10.00" fill="#000000">1</text>
</a>
</g>
</g>
<!-- dir_2635c1cadbb62984b11c32cfeb0f45eb -->
<g id="node9" class="node">
<title>dir_2635c1cadbb62984b11c32cfeb0f45eb</title>
<g id="a_node9"><a xlink:href="dir_2635c1cadbb62984b11c32cfeb0f45eb.html" target="_top" xlink:title="mms">
<polygon fill="#ffffff" stroke="#000000" points="425,-700 371,-700 371,-664 425,-664 425,-700"/>
<text text-anchor="middle" x="398" y="-679.5" font-family="Helvetica,sans-Serif" font-size="10.00" fill="#000000">mms</text>
</a>
</g>
</g>
<!-- dir_2635c1cadbb62984b11c32cfeb0f45eb&#45;&gt;dir_3d3615e9a999cab4f3407307569d6ced -->
<g id="edge24" class="edge">
<title>dir_2635c1cadbb62984b11c32cfeb0f45eb&#45;&gt;dir_3d3615e9a999cab4f3407307569d6ced</title>
<path fill="none" stroke="#000000" d="M370.6861,-668.3084C306.4881,-636.111 151.2149,-558.1309 149,-556 142.405,-549.655 139,-547.1517 139,-538 139,-538 139,-538 139,-466 139,-361.2129 210.3472,-356.1522 267,-268 277.2651,-252.0275 277.9074,-246.6377 290,-232 298.3428,-221.9014 308.4537,-211.7755 317.8298,-203.0658"/>
<polygon fill="#000000" stroke="#000000" points="320.4319,-205.4304 325.4779,-196.1143 315.7237,-200.2503 320.4319,-205.4304"/>
<g id="a_edge24&#45;headlabel"><a xlink:href="dir_000032_000012.html" target="_top" xlink:title="3">
<text text-anchor="middle" x="319.6815" y="-207.4491" font-family="Helvetica,sans-Serif" font-size="10.00" fill="#000000">3</text>
</a>
</g>
</g>
<!-- dir_2635c1cadbb62984b11c32cfeb0f45eb&#45;&gt;dir_4bb30ed846ea1df1fc4d16874a455d91 -->
<g id="edge23" class="edge">
<title>dir_2635c1cadbb62984b11c32cfeb0f45eb&#45;&gt;dir_4bb30ed846ea1df1fc4d16874a455d91</title>
<path fill="none" stroke="#000000" d="M403.8039,-663.8314C406.2908,-656.0463 409.2531,-646.7729 412.0125,-638.1347"/>
<polygon fill="#000000" stroke="#000000" points="415.409,-639.0041 415.118,-628.4133 408.7409,-636.874 415.409,-639.0041"/>
<g id="a_edge23&#45;headlabel"><a xlink:href="dir_000032_000002.html" target="_top" xlink:title="1">
<text text-anchor="middle" x="417.0199" y="-640.7922" font-family="Helvetica,sans-Serif" font-size="10.00" fill="#000000">1</text>
</a>
</g>
</g>
<!-- dir_629222d9fcf2f4ceefae477297f2ec84&#45;&gt;dir_3d3615e9a999cab4f3407307569d6ced -->
<g id="edge20" class="edge">
<title>dir_629222d9fcf2f4ceefae477297f2ec84&#45;&gt;dir_3d3615e9a999cab4f3407307569d6ced</title>
<path fill="none" stroke="#000000" d="M629.7568,-663.8247C627.9994,-636.5213 625,-583.2893 625,-538 625,-538 625,-538 625,-466 625,-357.0567 630.7419,-307.2884 552,-232 528.0587,-209.1088 436.436,-191.7116 384.1451,-183.3995"/>
<polygon fill="#000000" stroke="#000000" points="384.6621,-179.9379 374.243,-181.8593 383.5862,-186.8547 384.6621,-179.9379"/>
<g id="a_edge20&#45;headlabel"><a xlink:href="dir_000035_000012.html" target="_top" xlink:title="3">
<text text-anchor="middle" x="388.6504" y="-175.1848" font-family="Helvetica,sans-Serif" font-size="10.00" fill="#000000">3</text>
</a>
</g>
</g>
<!-- dir_629222d9fcf2f4ceefae477297f2ec84&#45;&gt;dir_4bb30ed846ea1df1fc4d16874a455d91 -->
<g id="edge19" class="edge">
<title>dir_629222d9fcf2f4ceefae477297f2ec84&#45;&gt;dir_4bb30ed846ea1df1fc4d16874a455d91</title>
<path fill="none" stroke="#000000" d="M603.9761,-672.7347C572.4917,-661.94 519.5788,-643.7984 478.7293,-629.7929"/>
<polygon fill="#000000" stroke="#000000" points="479.7492,-626.4426 469.1546,-626.5101 477.4789,-633.0643 479.7492,-626.4426"/>
<g id="a_edge19&#45;headlabel"><a xlink:href="dir_000035_000002.html" target="_top" xlink:title="1">
<text text-anchor="middle" x="484.0703" y="-622.4226" font-family="Helvetica,sans-Serif" font-size="10.00" fill="#000000">1</text>
</a>
</g>
</g>
<!-- dir_629222d9fcf2f4ceefae477297f2ec84&#45;&gt;dir_e4cd57caa88bf1f4e1bf9521bc47c3c0 -->
<g id="edge18" class="edge">
<title>dir_629222d9fcf2f4ceefae477297f2ec84&#45;&gt;dir_e4cd57caa88bf1f4e1bf9521bc47c3c0</title>
<path fill="none" stroke="#000000" d="M637.3622,-663.615C646.1685,-636.4838 661,-583.9662 661,-538 661,-538 661,-538 661,-322 661,-145.7558 370.1977,-113.3145 265.2246,-107.3453"/>
<polygon fill="#000000" stroke="#000000" points="265.2541,-103.8422 255.0861,-106.8192 264.8912,-110.8328 265.2541,-103.8422"/>
<g id="a_edge18&#45;headlabel"><a xlink:href="dir_000035_000008.html" target="_top" xlink:title="1">
<text text-anchor="middle" x="268.9909" y="-98.6929" font-family="Helvetica,sans-Serif" font-size="10.00" fill="#000000">1</text>
</a>
</g>
</g>
<!-- dir_f2c65bfcbdc19ebacbfc0bbbfb0d01b6&#45;&gt;dir_3d3615e9a999cab4f3407307569d6ced -->
<g id="edge17" class="edge">
<title>dir_f2c65bfcbdc19ebacbfc0bbbfb0d01b6&#45;&gt;dir_3d3615e9a999cab4f3407307569d6ced</title>
<path fill="none" stroke="#000000" d="M379.9926,-375.9555C373.7191,-338.3144 359.1978,-251.1867 351.6874,-206.1246"/>
<polygon fill="#000000" stroke="#000000" points="355.1206,-205.4336 350.0242,-196.1451 348.2159,-206.5844 355.1206,-205.4336"/>
<g id="a_edge17&#45;headlabel"><a xlink:href="dir_000010_000012.html" target="_top" xlink:title="32">
<text text-anchor="middle" x="358.5121" y="-206.0125" font-family="Helvetica,sans-Serif" font-size="10.00" fill="#000000">32</text>
</a>
</g>
</g>
<!-- dir_f2c65bfcbdc19ebacbfc0bbbfb0d01b6&#45;&gt;dir_4bb30ed846ea1df1fc4d16874a455d91 -->
<g id="edge16" class="edge">
<title>dir_f2c65bfcbdc19ebacbfc0bbbfb0d01b6&#45;&gt;dir_4bb30ed846ea1df1fc4d16874a455d91</title>
<path fill="none" stroke="#000000" d="M386.1922,-412.1451C392.8297,-449.8741 408.1589,-537.0083 416.0733,-581.9956"/>
<polygon fill="#000000" stroke="#000000" points="412.6457,-582.7132 417.8255,-591.9555 419.5398,-581.5003 412.6457,-582.7132"/>
<g id="a_edge16&#45;headlabel"><a xlink:href="dir_000010_000002.html" target="_top" xlink:title="3">
<text text-anchor="middle" x="409.2266" y="-577.1649" font-family="Helvetica,sans-Serif" font-size="10.00" fill="#000000">3</text>
</a>
</g>
</g>
<!-- dir_f2c65bfcbdc19ebacbfc0bbbfb0d01b6&#45;&gt;dir_7f7a014517bfe31ea45620a6a947e37b -->
<g id="edge15" class="edge">
<title>dir_f2c65bfcbdc19ebacbfc0bbbfb0d01b6&#45;&gt;dir_7f7a014517bfe31ea45620a6a947e37b</title>
<path fill="none" stroke="#000000" d="M397.3568,-375.7834C412.6617,-356.8811 438.0779,-326.9317 463,-304 482.6235,-285.9437 499.0743,-291.8514 511,-268 518.1554,-253.6892 516.4243,-247.0525 511,-232 484.5112,-158.4936 417.5676,-92.9352 377.8791,-58.824"/>
<polygon fill="#000000" stroke="#000000" points="379.7434,-55.8168 369.848,-52.0309 375.2227,-61.1613 379.7434,-55.8168"/>
<g id="a_edge15&#45;headlabel"><a xlink:href="dir_000010_000014.html" target="_top" xlink:title="3">
<text text-anchor="middle" x="384.3215" y="-53.4704" font-family="Helvetica,sans-Serif" font-size="10.00" fill="#000000">3</text>
</a>
</g>
</g>
<!-- dir_f2c65bfcbdc19ebacbfc0bbbfb0d01b6&#45;&gt;dir_e4cd57caa88bf1f4e1bf9521bc47c3c0 -->
<g id="edge14" class="edge">
<title>dir_f2c65bfcbdc19ebacbfc0bbbfb0d01b6&#45;&gt;dir_e4cd57caa88bf1f4e1bf9521bc47c3c0</title>
<path fill="none" stroke="#000000" d="M355.9053,-385.6934C311.7238,-370.5065 225.5304,-333.628 190,-268 166.3652,-224.3444 191.5835,-166.3011 210.7179,-132.8571"/>
<polygon fill="#000000" stroke="#000000" points="213.8157,-134.4951 215.9078,-124.1089 207.7954,-130.9235 213.8157,-134.4951"/>
<g id="a_edge14&#45;headlabel"><a xlink:href="dir_000010_000008.html" target="_top" xlink:title="4">
<text text-anchor="middle" x="214.4235" y="-136.5353" font-family="Helvetica,sans-Serif" font-size="10.00" fill="#000000">4</text>
</a>
</g>
</g>
<!-- dir_f2c65bfcbdc19ebacbfc0bbbfb0d01b6&#45;&gt;dir_0c368f76a33d967d5b838b5681461de6 -->
<g id="edge13" class="edge">
<title>dir_f2c65bfcbdc19ebacbfc0bbbfb0d01b6&#45;&gt;dir_0c368f76a33d967d5b838b5681461de6</title>
<path fill="none" stroke="#000000" d="M410.2123,-378.1993C426.8768,-368.5231 448.4988,-355.9685 467.0782,-345.1804"/>
<polygon fill="#000000" stroke="#000000" points="469.0292,-348.0949 475.9196,-340.0467 465.5142,-342.0413 469.0292,-348.0949"/>
<g id="a_edge13&#45;headlabel"><a xlink:href="dir_000010_000001.html" target="_top" xlink:title="1">
<text text-anchor="middle" x="467.3463" y="-349.8552" font-family="Helvetica,sans-Serif" font-size="10.00" fill="#000000">1</text>
</a>
</g>
</g>
<!-- dir_d599e6111b2fbf4fd47cd3a4f2a09da4 -->
<g id="node13" class="node">
<title>dir_d599e6111b2fbf4fd47cd3a4f2a09da4</title>
<g id="a_node13"><a xlink:href="dir_d599e6111b2fbf4fd47cd3a4f2a09da4.html" target="_top" xlink:title="projection">
<polygon fill="#ffffff" stroke="#000000" points="257.5,-268 198.5,-268 198.5,-232 257.5,-232 257.5,-268"/>
<text text-anchor="middle" x="228" y="-247.5" font-family="Helvetica,sans-Serif" font-size="10.00" fill="#000000">projection</text>
</a>
</g>
</g>
<!-- dir_d599e6111b2fbf4fd47cd3a4f2a09da4&#45;&gt;dir_3d3615e9a999cab4f3407307569d6ced -->
<g id="edge7" class="edge">
<title>dir_d599e6111b2fbf4fd47cd3a4f2a09da4&#45;&gt;dir_3d3615e9a999cab4f3407307569d6ced</title>
<path fill="none" stroke="#000000" d="M257.7218,-232.0171C273.9017,-222.2275 294.04,-210.0431 311.0929,-199.7253"/>
<polygon fill="#000000" stroke="#000000" points="312.948,-202.6937 319.692,-194.5225 309.3243,-196.7046 312.948,-202.6937"/>
<g id="a_edge7&#45;headlabel"><a xlink:href="dir_000023_000012.html" target="_top" xlink:title="2">
<text text-anchor="middle" x="311.3423" y="-204.4837" font-family="Helvetica,sans-Serif" font-size="10.00" fill="#000000">2</text>
</a>
</g>
</g>
<!-- dir_d599e6111b2fbf4fd47cd3a4f2a09da4&#45;&gt;dir_e4cd57caa88bf1f4e1bf9521bc47c3c0 -->
<g id="edge6" class="edge">
<title>dir_d599e6111b2fbf4fd47cd3a4f2a09da4&#45;&gt;dir_e4cd57caa88bf1f4e1bf9521bc47c3c0</title>
<path fill="none" stroke="#000000" d="M228,-231.7623C228,-207.201 228,-163.2474 228,-134.3541"/>
<polygon fill="#000000" stroke="#000000" points="231.5001,-134.0896 228,-124.0896 224.5001,-134.0897 231.5001,-134.0896"/>
<g id="a_edge6&#45;headlabel"><a xlink:href="dir_000023_000008.html" target="_top" xlink:title="1">
<text text-anchor="middle" x="234.3393" y="-135.1842" font-family="Helvetica,sans-Serif" font-size="10.00" fill="#000000">1</text>
</a>
</g>
</g>
<!-- dir_073a3c37bc9e3eb3e412aa8cf4eda4c3 -->
<g id="node14" class="node">
<title>dir_073a3c37bc9e3eb3e412aa8cf4eda4c3</title>
<g id="a_node14"><a xlink:href="dir_073a3c37bc9e3eb3e412aa8cf4eda4c3.html" target="_top" xlink:title="setup">
<polygon fill="#ffffff" stroke="#000000" points="382,-484 328,-484 328,-448 382,-448 382,-484"/>
<text text-anchor="middle" x="355" y="-463.5" font-family="Helvetica,sans-Serif" font-size="10.00" fill="#000000">setup</text>
</a>
</g>
</g>
<!-- dir_073a3c37bc9e3eb3e412aa8cf4eda4c3&#45;&gt;dir_3d3615e9a999cab4f3407307569d6ced -->
<g id="edge39" class="edge">
<title>dir_073a3c37bc9e3eb3e412aa8cf4eda4c3&#45;&gt;dir_3d3615e9a999cab4f3407307569d6ced</title>
<path fill="none" stroke="#000000" d="M351.585,-447.5804C349.8291,-437.1767 347.8774,-423.9092 347,-412 341.5517,-338.0471 343.8728,-250.5903 345.6538,-206.4833"/>
<polygon fill="#000000" stroke="#000000" points="349.1614,-206.378 346.0899,-196.2382 342.1677,-206.0803 349.1614,-206.378"/>
<g id="a_edge39&#45;headlabel"><a xlink:href="dir_000025_000012.html" target="_top" xlink:title="1">
<text text-anchor="middle" x="351.8453" y="-207.5901" font-family="Helvetica,sans-Serif" font-size="10.00" fill="#000000">1</text>
</a>
</g>
</g>
<!-- dir_073a3c37bc9e3eb3e412aa8cf4eda4c3&#45;&gt;dir_f2c65bfcbdc19ebacbfc0bbbfb0d01b6 -->
<g id="edge36" class="edge">
<title>dir_073a3c37bc9e3eb3e412aa8cf4eda4c3&#45;&gt;dir_f2c65bfcbdc19ebacbfc0bbbfb0d01b6</title>
<path fill="none" stroke="#000000" d="M362.0656,-447.8314C365.126,-439.9617 368.7779,-430.5712 372.1682,-421.8533"/>
<polygon fill="#000000" stroke="#000000" points="375.4768,-423.0019 375.8393,-412.4133 368.9527,-420.4647 375.4768,-423.0019"/>
<g id="a_edge36&#45;headlabel"><a xlink:href="dir_000025_000010.html" target="_top" xlink:title="1">
<text text-anchor="middle" x="376.8202" y="-424.8812" font-family="Helvetica,sans-Serif" font-size="10.00" fill="#000000">1</text>
</a>
</g>
</g>
<!-- dir_073a3c37bc9e3eb3e412aa8cf4eda4c3&#45;&gt;dir_e4cd57caa88bf1f4e1bf9521bc47c3c0 -->
<g id="edge38" class="edge">
<title>dir_073a3c37bc9e3eb3e412aa8cf4eda4c3&#45;&gt;dir_e4cd57caa88bf1f4e1bf9521bc47c3c0</title>
<path fill="none" stroke="#000000" d="M327.8976,-449.1728C283.2028,-419.3497 196.8905,-352.3385 176,-268 171.0979,-248.2093 176.4015,-168.7277 180,-160 184.3196,-149.5234 191.5683,-139.7161 199.1409,-131.4104"/>
<polygon fill="#000000" stroke="#000000" points="201.6582,-133.8421 206.1116,-124.2287 196.6352,-128.9667 201.6582,-133.8421"/>
<g id="a_edge38&#45;headlabel"><a xlink:href="dir_000025_000008.html" target="_top" xlink:title="2">
<text text-anchor="middle" x="201.192" y="-135.899" font-family="Helvetica,sans-Serif" font-size="10.00" fill="#000000">2</text>
</a>
</g>
</g>
<!-- dir_073a3c37bc9e3eb3e412aa8cf4eda4c3&#45;&gt;dir_0c368f76a33d967d5b838b5681461de6 -->
<g id="edge37" class="edge">
<title>dir_073a3c37bc9e3eb3e412aa8cf4eda4c3&#45;&gt;dir_0c368f76a33d967d5b838b5681461de6</title>
<path fill="none" stroke="#000000" d="M377.6673,-447.7686C390.1172,-437.5347 405.688,-424.3702 419,-412 441.5516,-391.0438 465.9316,-365.8977 483.2986,-347.519"/>
<polygon fill="#000000" stroke="#000000" points="485.9851,-349.7712 490.2864,-340.0888 480.8859,-344.9756 485.9851,-349.7712"/>
<g id="a_edge37&#45;headlabel"><a xlink:href="dir_000025_000001.html" target="_top" xlink:title="1">
<text text-anchor="middle" x="485.5909" y="-351.8349" font-family="Helvetica,sans-Serif" font-size="10.00" fill="#000000">1</text>
</a>
</g>
</g>
<!-- dir_7b7e55eaa727ae9c717abfc097345a8f -->
<g id="node15" class="node">
<title>dir_7b7e55eaa727ae9c717abfc097345a8f</title>
<g id="a_node15"><a xlink:href="dir_7b7e55eaa727ae9c717abfc097345a8f.html" target="_top" xlink:title="transport_models">
<polygon fill="#ffffff" stroke="#000000" points="310,-484 218,-484 218,-448 310,-448 310,-484"/>
<text text-anchor="middle" x="264" y="-463.5" font-family="Helvetica,sans-Serif" font-size="10.00" fill="#000000">transport_models</text>
</a>
</g>
</g>
<!-- dir_7b7e55eaa727ae9c717abfc097345a8f&#45;&gt;dir_3d3615e9a999cab4f3407307569d6ced -->
<g id="edge52" class="edge">
<title>dir_7b7e55eaa727ae9c717abfc097345a8f&#45;&gt;dir_3d3615e9a999cab4f3407307569d6ced</title>
<path fill="none" stroke="#000000" d="M269.192,-447.9843C283.2534,-399.1929 322.1468,-264.2377 339.0191,-205.6927"/>
<polygon fill="#000000" stroke="#000000" points="342.4038,-206.5871 341.8099,-196.0089 335.6775,-204.6485 342.4038,-206.5871"/>
<g id="a_edge52&#45;headlabel"><a xlink:href="dir_000013_000012.html" target="_top" xlink:title="2">
<text text-anchor="middle" x="344.1366" y="-208.3273" font-family="Helvetica,sans-Serif" font-size="10.00" fill="#000000">2</text>
</a>
</g>
</g>
<!-- dir_7b7e55eaa727ae9c717abfc097345a8f&#45;&gt;dir_f2c65bfcbdc19ebacbfc0bbbfb0d01b6 -->
<g id="edge51" class="edge">
<title>dir_7b7e55eaa727ae9c717abfc097345a8f&#45;&gt;dir_f2c65bfcbdc19ebacbfc0bbbfb0d01b6</title>
<path fill="none" stroke="#000000" d="M294.0287,-447.8314C310.2113,-438.0402 330.2851,-425.8947 347.2676,-415.6196"/>
<polygon fill="#000000" stroke="#000000" points="349.0855,-418.6105 355.8295,-410.4393 345.4618,-412.6214 349.0855,-418.6105"/>
<g id="a_edge51&#45;headlabel"><a xlink:href="dir_000013_000010.html" target="_top" xlink:title="1">
<text text-anchor="middle" x="347.4798" y="-420.4005" font-family="Helvetica,sans-Serif" font-size="10.00" fill="#000000">1</text>
</a>
</g>
</g>
<!-- dir_9ff815a534beac751fa88e427dbab695&#45;&gt;dir_3d3615e9a999cab4f3407307569d6ced -->
<g id="edge3" class="edge">
<title>dir_9ff815a534beac751fa88e427dbab695&#45;&gt;dir_3d3615e9a999cab4f3407307569d6ced</title>
<path fill="none" stroke="#000000" d="M191.7133,-519.7049C194.7611,-501.2567 200.4315,-472.1339 209,-448 242.1898,-354.5182 301.2898,-252.366 330.1729,-204.958"/>
<polygon fill="#000000" stroke="#000000" points="333.2844,-206.5792 335.53,-196.2251 327.3176,-202.9189 333.2844,-206.5792"/>
<g id="a_edge3&#45;headlabel"><a xlink:href="dir_000029_000012.html" target="_top" xlink:title="5">
<text text-anchor="middle" x="333.825" y="-208.6279" font-family="Helvetica,sans-Serif" font-size="10.00" fill="#000000">5</text>
</a>
</g>
</g>
<!-- dir_9ff815a534beac751fa88e427dbab695&#45;&gt;dir_4bb30ed846ea1df1fc4d16874a455d91 -->
<g id="edge4" class="edge">
<title>dir_9ff815a534beac751fa88e427dbab695&#45;&gt;dir_4bb30ed846ea1df1fc4d16874a455d91</title>
<path fill="none" stroke="#000000" d="M220.31,-547.601C227.8076,-550.4537 235.6786,-553.4856 243,-556 282.7054,-569.6362 327.914,-582.7549 362.9047,-592.6469"/>
<polygon fill="#000000" stroke="#000000" points="362.3783,-596.1349 372.9529,-595.4794 364.2776,-589.3975 362.3783,-596.1349"/>
<g id="a_edge4&#45;headlabel"><a xlink:href="dir_000029_000002.html" target="_top" xlink:title="2">
<text text-anchor="middle" x="358.1482" y="-595.3925" font-family="Helvetica,sans-Serif" font-size="10.00" fill="#000000">2</text>
</a>
</g>
</g>
<!-- dir_9ff815a534beac751fa88e427dbab695&#45;&gt;dir_7f7a014517bfe31ea45620a6a947e37b -->
<g id="edge2" class="edge">
<title>dir_9ff815a534beac751fa88e427dbab695&#45;&gt;dir_7f7a014517bfe31ea45620a6a947e37b</title>
<path fill="none" stroke="#000000" d="M157.8737,-525.2746C113.4041,-504.7833 37,-459.9765 37,-394 37,-394 37,-394 37,-322 37,-249.692 11.5272,-219.9199 52,-160 111.0563,-72.5673 244.2676,-45.5368 309.5332,-37.3918"/>
<polygon fill="#000000" stroke="#000000" points="310.2485,-40.8323 319.777,-36.2 309.4395,-33.8792 310.2485,-40.8323"/>
<g id="a_edge2&#45;headlabel"><a xlink:href="dir_000029_000014.html" target="_top" xlink:title="3">
<text text-anchor="middle" x="307.0061" y="-41.5679" font-family="Helvetica,sans-Serif" font-size="10.00" fill="#000000">3</text>
</a>
</g>
</g>
<!-- dir_9ff815a534beac751fa88e427dbab695&#45;&gt;dir_7b7e55eaa727ae9c717abfc097345a8f -->
<g id="edge5" class="edge">
<title>dir_9ff815a534beac751fa88e427dbab695&#45;&gt;dir_7b7e55eaa727ae9c717abfc097345a8f</title>
<path fill="none" stroke="#000000" d="M207.9257,-519.8314C216.9857,-511.1337 227.9809,-500.5783 237.8265,-491.1265"/>
<polygon fill="#000000" stroke="#000000" points="240.2904,-493.613 245.0804,-484.1628 235.4426,-488.5633 240.2904,-493.613"/>
<g id="a_edge5&#45;headlabel"><a xlink:href="dir_000029_000013.html" target="_top" xlink:title="3">
<text text-anchor="middle" x="239.6636" y="-495.6506" font-family="Helvetica,sans-Serif" font-size="10.00" fill="#000000">3</text>
</a>
</g>
</g>
<!-- dir_9ff815a534beac751fa88e427dbab695&#45;&gt;dir_e4cd57caa88bf1f4e1bf9521bc47c3c0 -->
<g id="edge1" class="edge">
<title>dir_9ff815a534beac751fa88e427dbab695&#45;&gt;dir_e4cd57caa88bf1f4e1bf9521bc47c3c0</title>
<path fill="none" stroke="#000000" d="M157.7353,-531.2291C116.8354,-521.7286 48.4326,-503.4172 32,-484 5.8035,-453.0454 17,-434.5518 17,-394 17,-394 17,-394 17,-322 17,-248.3388 2.1716,-214.2504 52,-160 70.7937,-139.5385 145.2305,-121.964 191.0676,-112.7919"/>
<polygon fill="#000000" stroke="#000000" points="191.8001,-116.215 200.9404,-110.8574 190.454,-109.3457 191.8001,-116.215"/>
<g id="a_edge1&#45;headlabel"><a xlink:href="dir_000029_000008.html" target="_top" xlink:title="1">
<text text-anchor="middle" x="188.8184" y="-117.1924" font-family="Helvetica,sans-Serif" font-size="10.00" fill="#000000">1</text>
</a>
</g>
</g>
<!-- dir_e4cd57caa88bf1f4e1bf9521bc47c3c0&#45;&gt;dir_3d3615e9a999cab4f3407307569d6ced -->
<g id="edge35" class="edge">
<title>dir_e4cd57caa88bf1f4e1bf9521bc47c3c0&#45;&gt;dir_3d3615e9a999cab4f3407307569d6ced</title>
<path fill="none" stroke="#000000" d="M255.1153,-119.164C272.7883,-129.0053 295.8029,-142.7244 314.438,-154.4395"/>
<polygon fill="#000000" stroke="#000000" points="312.6063,-157.4224 322.9237,-159.8314 316.3605,-151.5142 312.6063,-157.4224"/>
<g id="a_edge35&#45;headlabel"><a xlink:href="dir_000008_000012.html" target="_top" xlink:title="14">
<text text-anchor="middle" x="308.0497" y="-155.3911" font-family="Helvetica,sans-Serif" font-size="10.00" fill="#000000">14</text>
</a>
</g>
</g>
<!-- dir_e4cd57caa88bf1f4e1bf9521bc47c3c0&#45;&gt;dir_7f7a014517bfe31ea45620a6a947e37b -->
<g id="edge34" class="edge">
<title>dir_e4cd57caa88bf1f4e1bf9521bc47c3c0&#45;&gt;dir_7f7a014517bfe31ea45620a6a947e37b</title>
<path fill="none" stroke="#000000" d="M255.0029,-89.6621C271.4704,-79.6986 292.7285,-66.8366 310.6607,-55.9868"/>
<polygon fill="#000000" stroke="#000000" points="312.948,-58.6937 319.692,-50.5225 309.3243,-52.7046 312.948,-58.6937"/>
<g id="a_edge34&#45;headlabel"><a xlink:href="dir_000008_000014.html" target="_top" xlink:title="1">
<text text-anchor="middle" x="311.3423" y="-60.4837" font-family="Helvetica,sans-Serif" font-size="10.00" fill="#000000">1</text>
</a>
</g>
</g>
<!-- dir_0c368f76a33d967d5b838b5681461de6&#45;&gt;dir_3d3615e9a999cab4f3407307569d6ced -->
<g id="edge29" class="edge">
<title>dir_0c368f76a33d967d5b838b5681461de6&#45;&gt;dir_3d3615e9a999cab4f3407307569d6ced</title>
<path fill="none" stroke="#000000" d="M513.8915,-303.8939C520.0932,-284.252 526.1278,-252.9078 511,-232 495.9525,-211.2031 427.6344,-194.0635 384.0593,-184.996"/>
<polygon fill="#000000" stroke="#000000" points="384.5929,-181.533 374.0964,-182.9732 383.2,-188.3931 384.5929,-181.533"/>
<g id="a_edge29&#45;headlabel"><a xlink:href="dir_000001_000012.html" target="_top" xlink:title="22">
<text text-anchor="middle" x="388.6806" y="-176.9657" font-family="Helvetica,sans-Serif" font-size="10.00" fill="#000000">22</text>
</a>
</g>
</g>
<!-- dir_0c368f76a33d967d5b838b5681461de6&#45;&gt;dir_a816a247b59c90f95e41afe29b966a18 -->
<g id="edge27" class="edge">
<title>dir_0c368f76a33d967d5b838b5681461de6&#45;&gt;dir_a816a247b59c90f95e41afe29b966a18</title>
<path fill="none" stroke="#000000" d="M480.7564,-303.8314C467.7005,-294.7927 451.7465,-283.7476 437.6953,-274.0198"/>
<polygon fill="#000000" stroke="#000000" points="439.4494,-270.9773 429.2352,-268.1628 435.4649,-276.7326 439.4494,-270.9773"/>
<g id="a_edge27&#45;headlabel"><a xlink:href="dir_000001_000018.html" target="_top" xlink:title="1">
<text text-anchor="middle" x="444.021" y="-268.1889" font-family="Helvetica,sans-Serif" font-size="10.00" fill="#000000">1</text>
</a>
</g>
</g>
<!-- dir_0c368f76a33d967d5b838b5681461de6&#45;&gt;dir_4bb30ed846ea1df1fc4d16874a455d91 -->
<g id="edge28" class="edge">
<title>dir_0c368f76a33d967d5b838b5681461de6&#45;&gt;dir_4bb30ed846ea1df1fc4d16874a455d91</title>
<path fill="none" stroke="#000000" d="M503.4149,-340.2556C493.7732,-364.3046 472.3357,-408.2161 460,-448 445.7825,-493.8528 437.3126,-549.214 430.6287,-581.9073"/>
<polygon fill="#000000" stroke="#000000" points="427.2071,-581.1712 428.5164,-591.6848 434.0492,-582.6494 427.2071,-581.1712"/>
<g id="a_edge28&#45;headlabel"><a xlink:href="dir_000001_000002.html" target="_top" xlink:title="4">
<text text-anchor="middle" x="425.1908" y="-574.5581" font-family="Helvetica,sans-Serif" font-size="10.00" fill="#000000">4</text>
</a>
</g>
</g>
<!-- dir_0c368f76a33d967d5b838b5681461de6&#45;&gt;dir_7f7a014517bfe31ea45620a6a947e37b -->
<g id="edge26" class="edge">
<title>dir_0c368f76a33d967d5b838b5681461de6&#45;&gt;dir_7f7a014517bfe31ea45620a6a947e37b</title>
<path fill="none" stroke="#000000" d="M535.432,-303.9601C547.2228,-294.7801 559.6204,-282.4872 566,-268 598.2412,-194.7845 615.3346,-150.9769 566,-88 543.8343,-59.7049 440.8453,-44.2223 384.3456,-37.7267"/>
<polygon fill="#000000" stroke="#000000" points="384.6923,-34.2437 374.3668,-36.6173 383.9188,-41.2009 384.6923,-34.2437"/>
<g id="a_edge26&#45;headlabel"><a xlink:href="dir_000001_000014.html" target="_top" xlink:title="1">
<text text-anchor="middle" x="388.5786" y="-29.3189" font-family="Helvetica,sans-Serif" font-size="10.00" fill="#000000">1</text>
</a>
</g>
</g>
<!-- dir_0c368f76a33d967d5b838b5681461de6&#45;&gt;dir_e4cd57caa88bf1f4e1bf9521bc47c3c0 -->
<g id="edge25" class="edge">
<title>dir_0c368f76a33d967d5b838b5681461de6&#45;&gt;dir_e4cd57caa88bf1f4e1bf9521bc47c3c0</title>
<path fill="none" stroke="#000000" d="M516.1688,-303.7174C524.3977,-284.4899 533.3066,-254.0256 520,-232 465.7749,-142.2446 331.2872,-116.3159 265.4772,-108.9106"/>
<polygon fill="#000000" stroke="#000000" points="265.4585,-105.3899 255.1505,-107.8382 264.7355,-112.3525 265.4585,-105.3899"/>
<g id="a_edge25&#45;headlabel"><a xlink:href="dir_000001_000008.html" target="_top" xlink:title="30">
<text text-anchor="middle" x="269.3272" y="-100.437" font-family="Helvetica,sans-Serif" font-size="10.00" fill="#000000">30</text>
</a>
</g>
</g>
</g>
</svg>
