<?xml version="1.0" encoding="UTF-8" standalone="no"?>
<!DOCTYPE svg PUBLIC "-//W3C//DTD SVG 1.1//EN"
 "http://www.w3.org/Graphics/SVG/1.1/DTD/svg11.dtd">
<!-- Generated by graphviz version 2.40.1 (20161225.0304)
 -->
<!-- Title: wing Pages: 1 -->
<svg width="133pt" height="295pt"
 viewBox="0.00 0.00 133.00 295.00" xmlns="http://www.w3.org/2000/svg" xmlns:xlink="http://www.w3.org/1999/xlink">
<g id="graph0" class="graph" transform="scale(1 1) rotate(0) translate(4 291)">
<title>wing</title>
<polygon fill="#ffffff" stroke="transparent" points="-4,4 -4,-291 129,-291 129,4 -4,4"/>
<g id="clust1" class="cluster">
<title>clusterdir_7ecfdf414f04b0541a95d392dbc1e5c0</title>
<g id="a_clust1"><a xlink:href="dir_7ecfdf414f04b0541a95d392dbc1e5c0.html" target="_top" xlink:title="actuator">
<polygon fill="#ddddee" stroke="#000000" points="47,-208 47,-279 117,-279 117,-208 47,-208"/>
<text text-anchor="middle" x="82" y="-267" font-family="Helvetica,sans-Serif" font-size="10.00" fill="#000000">actuator</text>
</a>
</g>
</g>
<!-- dir_e3d85df9da26726704711d7e5a0bc894 -->
<g id="node1" class="node">
<title>dir_e3d85df9da26726704711d7e5a0bc894</title>
<g id="a_node1"><a xlink:href="dir_e3d85df9da26726704711d7e5a0bc894.html" target="_top" xlink:title="wing">
<polygon fill="#eeeeff" stroke="#000000" points="109,-252 55,-252 55,-216 109,-216 109,-252"/>
<text text-anchor="middle" x="82" y="-231.5" font-family="Helvetica,sans-Serif" font-size="10.00" fill="#000000">wing</text>
</a>
</g>
</g>
<!-- dir_e4e9964e9eecc53686804f6e188c33cc -->
<g id="node2" class="node">
<title>dir_e4e9964e9eecc53686804f6e188c33cc</title>
<g id="a_node2"><a xlink:href="dir_e4e9964e9eecc53686804f6e188c33cc.html" target="_top" xlink:title="aero">
<polygon fill="none" stroke="#000000" points="54,-180 0,-180 0,-144 54,-144 54,-180"/>
<text text-anchor="middle" x="27" y="-159.5" font-family="Helvetica,sans-Serif" font-size="10.00" fill="#000000">aero</text>
</a>
</g>
</g>
<!-- dir_e3d85df9da26726704711d7e5a0bc894&#45;&gt;dir_e4e9964e9eecc53686804f6e188c33cc -->
<g id="edge2" class="edge">
<title>dir_e3d85df9da26726704711d7e5a0bc894&#45;&gt;dir_e4e9964e9eecc53686804f6e188c33cc</title>
<path fill="none" stroke="#000000" d="M68.1212,-215.8314C61.7864,-207.5386 54.1616,-197.557 47.2074,-188.4533"/>
<polygon fill="#000000" stroke="#000000" points="49.9175,-186.2353 41.0657,-180.4133 44.3548,-190.4847 49.9175,-186.2353"/>
<g id="a_edge2&#45;headlabel"><a xlink:href="dir_000006_000007.html" target="_top" xlink:title="3">
<text text-anchor="middle" x="54.3558" y="-184.8683" font-family="Helvetica,sans-Serif" font-size="10.00" fill="#000000">3</text>
</a>
</g>
</g>
<!-- dir_e4cd57caa88bf1f4e1bf9521bc47c3c0 -->
<g id="node3" class="node">
<title>dir_e4cd57caa88bf1f4e1bf9521bc47c3c0</title>
<g id="a_node3"><a xlink:href="dir_e4cd57caa88bf1f4e1bf9521bc47c3c0.html" target="_top" xlink:title="utilities">
<polygon fill="#ffffff" stroke="#ff0000" points="92,-108 38,-108 38,-72 92,-72 92,-108"/>
<text text-anchor="middle" x="65" y="-87.5" font-family="Helvetica,sans-Serif" font-size="10.00" fill="#000000">utilities</text>
</a>
</g>
</g>
<!-- dir_e3d85df9da26726704711d7e5a0bc894&#45;&gt;dir_e4cd57caa88bf1f4e1bf9521bc47c3c0 -->
<g id="edge3" class="edge">
<title>dir_e3d85df9da26726704711d7e5a0bc894&#45;&gt;dir_e4cd57caa88bf1f4e1bf9521bc47c3c0</title>
<path fill="none" stroke="#000000" d="M79.8469,-215.7623C76.9473,-191.201 71.7584,-147.2474 68.3474,-118.3541"/>
<polygon fill="#000000" stroke="#000000" points="71.7839,-117.6103 67.1356,-108.0896 64.8322,-118.431 71.7839,-117.6103"/>
<g id="a_edge3&#45;headlabel"><a xlink:href="dir_000006_000008.html" target="_top" xlink:title="3">
<text text-anchor="middle" x="75.025" y="-118.3473" font-family="Helvetica,sans-Serif" font-size="10.00" fill="#000000">3</text>
</a>
</g>
</g>
<!-- dir_3d3615e9a999cab4f3407307569d6ced -->
<g id="node4" class="node">
<title>dir_3d3615e9a999cab4f3407307569d6ced</title>
<g id="a_node4"><a xlink:href="dir_3d3615e9a999cab4f3407307569d6ced.html" target="_top" xlink:title="core">
<polygon fill="#ffffff" stroke="#ff0000" points="92,-36 38,-36 38,0 92,0 92,-36"/>
<text text-anchor="middle" x="65" y="-15.5" font-family="Helvetica,sans-Serif" font-size="10.00" fill="#000000">core</text>
</a>
</g>
</g>
<!-- dir_e3d85df9da26726704711d7e5a0bc894&#45;&gt;dir_3d3615e9a999cab4f3407307569d6ced -->
<g id="edge4" class="edge">
<title>dir_e3d85df9da26726704711d7e5a0bc894&#45;&gt;dir_3d3615e9a999cab4f3407307569d6ced</title>
<path fill="none" stroke="#000000" d="M88.9085,-215.5941C99.3171,-185.0872 116.2632,-122.4111 101,-72 98.0436,-62.2355 92.6748,-52.6229 86.97,-44.2762"/>
<polygon fill="#000000" stroke="#000000" points="89.7129,-42.0973 80.9905,-36.0831 84.0586,-46.2239 89.7129,-42.0973"/>
<g id="a_edge4&#45;headlabel"><a xlink:href="dir_000006_000012.html" target="_top" xlink:title="1">
<text text-anchor="middle" x="94.1253" y="-40.827" font-family="Helvetica,sans-Serif" font-size="10.00" fill="#000000">1</text>
</a>
</g>
</g>
<!-- dir_e4e9964e9eecc53686804f6e188c33cc&#45;&gt;dir_e4cd57caa88bf1f4e1bf9521bc47c3c0 -->
<g id="edge1" class="edge">
<title>dir_e4e9964e9eecc53686804f6e188c33cc&#45;&gt;dir_e4cd57caa88bf1f4e1bf9521bc47c3c0</title>
<path fill="none" stroke="#000000" d="M36.589,-143.8314C40.8317,-135.7925 45.9121,-126.1666 50.596,-117.2918"/>
<polygon fill="#000000" stroke="#000000" points="53.7096,-118.8908 55.2819,-108.4133 47.5189,-115.6235 53.7096,-118.8908"/>
<g id="a_edge1&#45;headlabel"><a xlink:href="dir_000007_000008.html" target="_top" xlink:title="1">
<text text-anchor="middle" x="54.5428" y="-120.895" font-family="Helvetica,sans-Serif" font-size="10.00" fill="#000000">1</text>
</a>
</g>
</g>
<!-- dir_e4cd57caa88bf1f4e1bf9521bc47c3c0&#45;&gt;dir_3d3615e9a999cab4f3407307569d6ced -->
<g id="edge5" class="edge">
<title>dir_e4cd57caa88bf1f4e1bf9521bc47c3c0&#45;&gt;dir_3d3615e9a999cab4f3407307569d6ced</title>
<path fill="none" stroke="#000000" d="M59.0476,-71.8314C58.2972,-64.131 58.0763,-54.9743 58.3849,-46.4166"/>
<polygon fill="#000000" stroke="#000000" points="61.8792,-46.6161 59.024,-36.4133 54.8935,-46.1697 61.8792,-46.6161"/>
<g id="a_edge5&#45;headlabel"><a xlink:href="dir_000008_000012.html" target="_top" xlink:title="14">
<text text-anchor="middle" x="64.4836" y="-47.8844" font-family="Helvetica,sans-Serif" font-size="10.00" fill="#000000">14</text>
</a>
</g>
</g>
<!-- dir_3d3615e9a999cab4f3407307569d6ced&#45;&gt;dir_e4cd57caa88bf1f4e1bf9521bc47c3c0 -->
<g id="edge6" class="edge">
<title>dir_3d3615e9a999cab4f3407307569d6ced&#45;&gt;dir_e4cd57caa88bf1f4e1bf9521bc47c3c0</title>
<path fill="none" stroke="#000000" d="M70.976,-36.4133C71.7071,-44.0593 71.9203,-53.1084 71.6155,-61.5726"/>
<polygon fill="#000000" stroke="#000000" points="68.1048,-61.6264 70.9524,-71.8314 75.0902,-62.078 68.1048,-61.6264"/>
<g id="a_edge6&#45;headlabel"><a xlink:href="dir_000012_000008.html" target="_top" xlink:title="1">
<text text-anchor="middle" x="65.5032" y="-55.3562" font-family="Helvetica,sans-Serif" font-size="10.00" fill="#000000">1</text>
</a>
</g>
</g>
</g>
</svg>
