<?xml version="1.0" encoding="UTF-8" standalone="no"?>
<!DOCTYPE svg PUBLIC "-//W3C//DTD SVG 1.1//EN"
 "http://www.w3.org/Graphics/SVG/1.1/DTD/svg11.dtd">
<!-- Generated by graphviz version 2.40.1 (20161225.0304)
 -->
<!-- Title: turbine Pages: 1 -->
<svg width="186pt" height="231pt"
 viewBox="0.00 0.00 186.00 231.00" xmlns="http://www.w3.org/2000/svg" xmlns:xlink="http://www.w3.org/1999/xlink">
<g id="graph0" class="graph" transform="scale(1 1) rotate(0) translate(4 227)">
<title>turbine</title>
<polygon fill="#ffffff" stroke="transparent" points="-4,4 -4,-227 182,-227 182,4 -4,4"/>
<g id="clust1" class="cluster">
<title>clusterdir_7ecfdf414f04b0541a95d392dbc1e5c0</title>
<g id="a_clust1"><a xlink:href="dir_7ecfdf414f04b0541a95d392dbc1e5c0.html" target="_top" xlink:title="actuator">
<polygon fill="#ddddee" stroke="#000000" points="12,-128 12,-215 170,-215 170,-128 12,-128"/>
<text text-anchor="middle" x="91" y="-203" font-family="Helvetica,sans-Serif" font-size="10.00" fill="#000000">actuator</text>
</a>
</g>
</g>
<g id="clust2" class="cluster">
<title>clusterdir_26e13646035c47d7e3eb3b975c94bc4e</title>
<g id="a_clust2"><a xlink:href="dir_26e13646035c47d7e3eb3b975c94bc4e.html" target="_top">
<polygon fill="#eeeeff" stroke="#000000" points="20,-136 20,-188 162,-188 162,-136 20,-136"/>
</a>
</g>
</g>
<!-- dir_26e13646035c47d7e3eb3b975c94bc4e -->
<g id="node1" class="node">
<title>dir_26e13646035c47d7e3eb3b975c94bc4e</title>
<text text-anchor="middle" x="127" y="-159.5" font-family="Helvetica,sans-Serif" font-size="10.00" fill="#000000">turbine</text>
</g>
<!-- dir_e2f603ff07dba8bf3de9d3a59e7bbfcf -->
<g id="node2" class="node">
<title>dir_e2f603ff07dba8bf3de9d3a59e7bbfcf</title>
<g id="a_node2"><a xlink:href="dir_e2f603ff07dba8bf3de9d3a59e7bbfcf.html" target="_top" xlink:title="fast">
<polygon fill="#ffffff" stroke="#000000" points="82,-180 28,-180 28,-144 82,-144 82,-180"/>
<text text-anchor="middle" x="55" y="-159.5" font-family="Helvetica,sans-Serif" font-size="10.00" fill="#000000">fast</text>
</a>
</g>
</g>
<!-- dir_e4cd57caa88bf1f4e1bf9521bc47c3c0 -->
<g id="node3" class="node">
<title>dir_e4cd57caa88bf1f4e1bf9521bc47c3c0</title>
<g id="a_node3"><a xlink:href="dir_e4cd57caa88bf1f4e1bf9521bc47c3c0.html" target="_top" xlink:title="utilities">
<polygon fill="#ffffff" stroke="#ff0000" points="54,-108 0,-108 0,-72 54,-72 54,-108"/>
<text text-anchor="middle" x="27" y="-87.5" font-family="Helvetica,sans-Serif" font-size="10.00" fill="#000000">utilities</text>
</a>
</g>
</g>
<!-- dir_e2f603ff07dba8bf3de9d3a59e7bbfcf&#45;&gt;dir_e4cd57caa88bf1f4e1bf9521bc47c3c0 -->
<g id="edge2" class="edge">
<title>dir_e2f603ff07dba8bf3de9d3a59e7bbfcf&#45;&gt;dir_e4cd57caa88bf1f4e1bf9521bc47c3c0</title>
<path fill="none" stroke="#000000" d="M47.9344,-143.8314C44.874,-135.9617 41.2221,-126.5712 37.8318,-117.8533"/>
<polygon fill="#000000" stroke="#000000" points="41.0473,-116.4647 34.1607,-108.4133 34.5232,-119.0019 41.0473,-116.4647"/>
<g id="a_edge2&#45;headlabel"><a xlink:href="dir_000020_000008.html" target="_top" xlink:title="2">
<text text-anchor="middle" x="44.9963" y="-116.2859" font-family="Helvetica,sans-Serif" font-size="10.00" fill="#000000">2</text>
</a>
</g>
</g>
<!-- dir_3d3615e9a999cab4f3407307569d6ced -->
<g id="node4" class="node">
<title>dir_3d3615e9a999cab4f3407307569d6ced</title>
<g id="a_node4"><a xlink:href="dir_3d3615e9a999cab4f3407307569d6ced.html" target="_top" xlink:title="core">
<polygon fill="#ffffff" stroke="#ff0000" points="54,-36 0,-36 0,0 54,0 54,-36"/>
<text text-anchor="middle" x="27" y="-15.5" font-family="Helvetica,sans-Serif" font-size="10.00" fill="#000000">core</text>
</a>
</g>
</g>
<!-- dir_e2f603ff07dba8bf3de9d3a59e7bbfcf&#45;&gt;dir_3d3615e9a999cab4f3407307569d6ced -->
<g id="edge3" class="edge">
<title>dir_e2f603ff07dba8bf3de9d3a59e7bbfcf&#45;&gt;dir_3d3615e9a999cab4f3407307569d6ced</title>
<path fill="none" stroke="#000000" d="M60.5996,-143.6576C65.3299,-125.1725 70.2732,-96.0216 63,-72 60.0436,-62.2355 54.6748,-52.6229 48.97,-44.2762"/>
<polygon fill="#000000" stroke="#000000" points="51.7129,-42.0973 42.9905,-36.0831 46.0586,-46.2239 51.7129,-42.0973"/>
<g id="a_edge3&#45;headlabel"><a xlink:href="dir_000020_000012.html" target="_top" xlink:title="3">
<text text-anchor="middle" x="56.1253" y="-40.827" font-family="Helvetica,sans-Serif" font-size="10.00" fill="#000000">3</text>
</a>
</g>
</g>
<!-- dir_e4cd57caa88bf1f4e1bf9521bc47c3c0&#45;&gt;dir_3d3615e9a999cab4f3407307569d6ced -->
<g id="edge1" class="edge">
<title>dir_e4cd57caa88bf1f4e1bf9521bc47c3c0&#45;&gt;dir_3d3615e9a999cab4f3407307569d6ced</title>
<path fill="none" stroke="#000000" d="M21.0476,-71.8314C20.2972,-64.131 20.0763,-54.9743 20.3849,-46.4166"/>
<polygon fill="#000000" stroke="#000000" points="23.8792,-46.6161 21.024,-36.4133 16.8935,-46.1697 23.8792,-46.6161"/>
<g id="a_edge1&#45;headlabel"><a xlink:href="dir_000008_000012.html" target="_top" xlink:title="14">
<text text-anchor="middle" x="26.4836" y="-47.8844" font-family="Helvetica,sans-Serif" font-size="10.00" fill="#000000">14</text>
</a>
</g>
</g>
<!-- dir_3d3615e9a999cab4f3407307569d6ced&#45;&gt;dir_e4cd57caa88bf1f4e1bf9521bc47c3c0 -->
<g id="edge4" class="edge">
<title>dir_3d3615e9a999cab4f3407307569d6ced&#45;&gt;dir_e4cd57caa88bf1f4e1bf9521bc47c3c0</title>
<path fill="none" stroke="#000000" d="M32.976,-36.4133C33.7071,-44.0593 33.9203,-53.1084 33.6155,-61.5726"/>
<polygon fill="#000000" stroke="#000000" points="30.1048,-61.6264 32.9524,-71.8314 37.0902,-62.078 30.1048,-61.6264"/>
<g id="a_edge4&#45;headlabel"><a xlink:href="dir_000012_000008.html" target="_top" xlink:title="1">
<text text-anchor="middle" x="27.5032" y="-55.3562" font-family="Helvetica,sans-Serif" font-size="10.00" fill="#000000">1</text>
</a>
</g>
</g>
</g>
</svg>
