<?xml version="1.0" encoding="UTF-8" standalone="no"?>
<!DOCTYPE svg PUBLIC "-//W3C//DTD SVG 1.1//EN"
 "http://www.w3.org/Graphics/SVG/1.1/DTD/svg11.dtd">
<!-- Generated by graphviz version 2.40.1 (20161225.0304)
 -->
<!-- Title: icns Pages: 1 -->
<svg width="329pt" height="267pt"
 viewBox="0.00 0.00 329.00 267.00" xmlns="http://www.w3.org/2000/svg" xmlns:xlink="http://www.w3.org/1999/xlink">
<g id="graph0" class="graph" transform="scale(1 1) rotate(0) translate(4 263)">
<title>icns</title>
<polygon fill="#ffffff" stroke="transparent" points="-4,4 -4,-263 325,-263 325,4 -4,4"/>
<g id="clust1" class="cluster">
<title>clusterdir_4bb30ed846ea1df1fc4d16874a455d91</title>
<g id="a_clust1"><a xlink:href="dir_4bb30ed846ea1df1fc4d16874a455d91.html" target="_top" xlink:title="equation_systems">
<polygon fill="#ddddee" stroke="#000000" points="8,-128 8,-215 188,-215 188,-128 8,-128"/>
<text text-anchor="middle" x="98" y="-203" font-family="Helvetica,sans-Serif" font-size="10.00" fill="#000000">equation_systems</text>
</a>
</g>
</g>
<g id="clust2" class="cluster">
<title>clusterdir_4012ff34c1bb5bd303e44a1c9cef6c8a</title>
<g id="a_clust2"><a xlink:href="dir_4012ff34c1bb5bd303e44a1c9cef6c8a.html" target="_top">
<polygon fill="#eeeeff" stroke="#000000" points="16,-136 16,-188 180,-188 180,-136 16,-136"/>
</a>
</g>
</g>
<!-- dir_4012ff34c1bb5bd303e44a1c9cef6c8a -->
<g id="node1" class="node">
<title>dir_4012ff34c1bb5bd303e44a1c9cef6c8a</title>
<text text-anchor="middle" x="51" y="-159.5" font-family="Helvetica,sans-Serif" font-size="10.00" fill="#000000">icns</text>
</g>
<!-- dir_ebb19deee3cd40f4ac122fef25c04ca8 -->
<g id="node4" class="node">
<title>dir_ebb19deee3cd40f4ac122fef25c04ca8</title>
<g id="a_node4"><a xlink:href="dir_ebb19deee3cd40f4ac122fef25c04ca8.html" target="_top" xlink:title="boundary_conditions">
<polygon fill="none" stroke="#000000" points="321,-259 215,-259 215,-223 321,-223 321,-259"/>
<text text-anchor="middle" x="268" y="-238.5" font-family="Helvetica,sans-Serif" font-size="10.00" fill="#000000">boundary_conditions</text>
</a>
</g>
</g>
<!-- dir_4012ff34c1bb5bd303e44a1c9cef6c8a&#45;&gt;dir_ebb19deee3cd40f4ac122fef25c04ca8 -->
<g id="edge11" class="edge">
<title>dir_4012ff34c1bb5bd303e44a1c9cef6c8a&#45;&gt;dir_ebb19deee3cd40f4ac122fef25c04ca8</title>
<path fill="none" stroke="#000000" d="M58.597,-180.2169C64.5374,-192.1012 73.9815,-206.867 87,-215 106.2333,-227.0156 160.3739,-233.7177 204.4684,-237.2947"/>
<polygon fill="#000000" stroke="#000000" points="204.3287,-240.7942 214.5685,-238.0747 204.8677,-233.815 204.3287,-240.7942"/>
<g id="a_edge11&#45;headlabel"><a xlink:href="dir_000003_000009.html" target="_top" xlink:title="1">
<text text-anchor="middle" x="200.5261" y="-240.8484" font-family="Helvetica,sans-Serif" font-size="10.00" fill="#000000">1</text>
</a>
</g>
</g>
<!-- dir_e4cd57caa88bf1f4e1bf9521bc47c3c0 -->
<g id="node5" class="node">
<title>dir_e4cd57caa88bf1f4e1bf9521bc47c3c0</title>
<g id="a_node5"><a xlink:href="dir_e4cd57caa88bf1f4e1bf9521bc47c3c0.html" target="_top" xlink:title="utilities">
<polygon fill="#ffffff" stroke="#ff0000" points="210,-108 156,-108 156,-72 210,-72 210,-108"/>
<text text-anchor="middle" x="183" y="-87.5" font-family="Helvetica,sans-Serif" font-size="10.00" fill="#000000">utilities</text>
</a>
</g>
</g>
<!-- dir_4012ff34c1bb5bd303e44a1c9cef6c8a&#45;&gt;dir_e4cd57caa88bf1f4e1bf9521bc47c3c0 -->
<g id="edge12" class="edge">
<title>dir_4012ff34c1bb5bd303e44a1c9cef6c8a&#45;&gt;dir_e4cd57caa88bf1f4e1bf9521bc47c3c0</title>
<path fill="none" stroke="#000000" d="M67.4507,-143.9513C73.2349,-138.321 80.0379,-132.4318 87,-128 105.2009,-116.414 127.5093,-107.3223 146.0389,-100.9407"/>
<polygon fill="#000000" stroke="#000000" points="147.2278,-104.234 155.6175,-97.7638 145.0241,-97.5898 147.2278,-104.234"/>
<g id="a_edge12&#45;headlabel"><a xlink:href="dir_000003_000008.html" target="_top" xlink:title="8">
<text text-anchor="middle" x="144.7097" y="-105.5604" font-family="Helvetica,sans-Serif" font-size="10.00" fill="#000000">8</text>
</a>
</g>
</g>
<!-- dir_3d3615e9a999cab4f3407307569d6ced -->
<g id="node6" class="node">
<title>dir_3d3615e9a999cab4f3407307569d6ced</title>
<g id="a_node6"><a xlink:href="dir_3d3615e9a999cab4f3407307569d6ced.html" target="_top" xlink:title="core">
<polygon fill="#ffffff" stroke="#ff0000" points="210,-36 156,-36 156,0 210,0 210,-36"/>
<text text-anchor="middle" x="183" y="-15.5" font-family="Helvetica,sans-Serif" font-size="10.00" fill="#000000">core</text>
</a>
</g>
</g>
<!-- dir_4012ff34c1bb5bd303e44a1c9cef6c8a&#45;&gt;dir_3d3615e9a999cab4f3407307569d6ced -->
<g id="edge13" class="edge">
<title>dir_4012ff34c1bb5bd303e44a1c9cef6c8a&#45;&gt;dir_3d3615e9a999cab4f3407307569d6ced</title>
<path fill="none" stroke="#000000" d="M67.7179,-143.7623C90.9267,-118.4436 133.025,-72.5182 159.4187,-43.7251"/>
<polygon fill="#000000" stroke="#000000" points="162.2406,-45.8262 166.4179,-36.0896 157.0805,-41.0961 162.2406,-45.8262"/>
<g id="a_edge13&#45;headlabel"><a xlink:href="dir_000003_000012.html" target="_top" xlink:title="19">
<text text-anchor="middle" x="161.9047" y="-47.8945" font-family="Helvetica,sans-Serif" font-size="10.00" fill="#000000">19</text>
</a>
</g>
</g>
<!-- dir_5d2cf0e24161a778738de20190787a10 -->
<g id="node2" class="node">
<title>dir_5d2cf0e24161a778738de20190787a10</title>
<g id="a_node2"><a xlink:href="dir_5d2cf0e24161a778738de20190787a10.html" target="_top" xlink:title="source_terms">
<polygon fill="#ffffff" stroke="#000000" points="172,-180 96,-180 96,-144 172,-144 172,-180"/>
<text text-anchor="middle" x="134" y="-159.5" font-family="Helvetica,sans-Serif" font-size="10.00" fill="#000000">source_terms</text>
</a>
</g>
</g>
<!-- dir_0c368f76a33d967d5b838b5681461de6 -->
<g id="node3" class="node">
<title>dir_0c368f76a33d967d5b838b5681461de6</title>
<g id="a_node3"><a xlink:href="dir_0c368f76a33d967d5b838b5681461de6.html" target="_top" xlink:title="wind_energy">
<polygon fill="#ffffff" stroke="#ff0000" points="267.5,-180 196.5,-180 196.5,-144 267.5,-144 267.5,-180"/>
<text text-anchor="middle" x="232" y="-159.5" font-family="Helvetica,sans-Serif" font-size="10.00" fill="#000000">wind_energy</text>
</a>
</g>
</g>
<!-- dir_5d2cf0e24161a778738de20190787a10&#45;&gt;dir_0c368f76a33d967d5b838b5681461de6 -->
<g id="edge1" class="edge">
<title>dir_5d2cf0e24161a778738de20190787a10&#45;&gt;dir_0c368f76a33d967d5b838b5681461de6</title>
<path fill="none" stroke="#000000" d="M172.2813,-162C176.8666,-162 181.4519,-162 186.0373,-162"/>
<polygon fill="#000000" stroke="#000000" points="186.0755,-165.5001 196.0754,-162 186.0754,-158.5001 186.0755,-165.5001"/>
<g id="a_edge1&#45;headlabel"><a xlink:href="dir_000004_000001.html" target="_top" xlink:title="3">
<text text-anchor="middle" x="182.4808" y="-165.8393" font-family="Helvetica,sans-Serif" font-size="10.00" fill="#000000">3</text>
</a>
</g>
</g>
<!-- dir_5d2cf0e24161a778738de20190787a10&#45;&gt;dir_e4cd57caa88bf1f4e1bf9521bc47c3c0 -->
<g id="edge2" class="edge">
<title>dir_5d2cf0e24161a778738de20190787a10&#45;&gt;dir_e4cd57caa88bf1f4e1bf9521bc47c3c0</title>
<path fill="none" stroke="#000000" d="M146.3648,-143.8314C151.9509,-135.6232 158.663,-125.7606 164.8072,-116.7323"/>
<polygon fill="#000000" stroke="#000000" points="167.736,-118.6496 170.4687,-108.4133 161.949,-114.7112 167.736,-118.6496"/>
<g id="a_edge2&#45;headlabel"><a xlink:href="dir_000004_000008.html" target="_top" xlink:title="7">
<text text-anchor="middle" x="168.0609" y="-120.7187" font-family="Helvetica,sans-Serif" font-size="10.00" fill="#000000">7</text>
</a>
</g>
</g>
<!-- dir_5d2cf0e24161a778738de20190787a10&#45;&gt;dir_3d3615e9a999cab4f3407307569d6ced -->
<g id="edge3" class="edge">
<title>dir_5d2cf0e24161a778738de20190787a10&#45;&gt;dir_3d3615e9a999cab4f3407307569d6ced</title>
<path fill="none" stroke="#000000" d="M134.2867,-143.823C135.1117,-125.2139 137.91,-95.7363 147,-72 150.6486,-62.4725 156.2199,-52.9292 161.8973,-44.5732"/>
<polygon fill="#000000" stroke="#000000" points="164.8102,-46.5168 167.7761,-36.3455 159.1147,-42.4472 164.8102,-46.5168"/>
<g id="a_edge3&#45;headlabel"><a xlink:href="dir_000004_000012.html" target="_top" xlink:title="14">
<text text-anchor="middle" x="165.0306" y="-48.5921" font-family="Helvetica,sans-Serif" font-size="10.00" fill="#000000">14</text>
</a>
</g>
</g>
<!-- dir_0c368f76a33d967d5b838b5681461de6&#45;&gt;dir_4012ff34c1bb5bd303e44a1c9cef6c8a -->
<g id="edge6" class="edge">
<title>dir_0c368f76a33d967d5b838b5681461de6&#45;&gt;dir_4012ff34c1bb5bd303e44a1c9cef6c8a</title>
<path fill="none" stroke="#000000" d="M221.9155,-180.0979C212.2147,-195.0632 195.9456,-214.555 175,-219 152.7249,-223.7271 99.4267,-225.386 87,-215 78.4224,-207.831 71.0314,-198.1226 65.2172,-188.9734"/>
<polygon fill="#000000" stroke="#000000" points="68.0697,-186.9231 59.943,-180.1255 62.0569,-190.5073 68.0697,-186.9231"/>
<g id="a_edge6&#45;headlabel"><a xlink:href="dir_000001_000003.html" target="_top" xlink:title="3">
<text text-anchor="middle" x="72.349" y="-186.0571" font-family="Helvetica,sans-Serif" font-size="10.00" fill="#000000">3</text>
</a>
</g>
</g>
<!-- dir_0c368f76a33d967d5b838b5681461de6&#45;&gt;dir_5d2cf0e24161a778738de20190787a10 -->
<g id="edge4" class="edge">
<title>dir_0c368f76a33d967d5b838b5681461de6&#45;&gt;dir_5d2cf0e24161a778738de20190787a10</title>
<path fill="none" stroke="#000000" d="M196.0754,-162C191.4901,-162 186.9048,-162 182.3194,-162"/>
<polygon fill="#000000" stroke="#000000" points="182.2813,-158.5001 172.2813,-162 182.2812,-165.5001 182.2813,-158.5001"/>
<g id="a_edge4&#45;headlabel"><a xlink:href="dir_000001_000004.html" target="_top" xlink:title="3">
<text text-anchor="middle" x="185.8759" y="-153.1607" font-family="Helvetica,sans-Serif" font-size="10.00" fill="#000000">3</text>
</a>
</g>
</g>
<!-- dir_0c368f76a33d967d5b838b5681461de6&#45;&gt;dir_e4cd57caa88bf1f4e1bf9521bc47c3c0 -->
<g id="edge5" class="edge">
<title>dir_0c368f76a33d967d5b838b5681461de6&#45;&gt;dir_e4cd57caa88bf1f4e1bf9521bc47c3c0</title>
<path fill="none" stroke="#000000" d="M219.6352,-143.8314C214.0491,-135.6232 207.337,-125.7606 201.1928,-116.7323"/>
<polygon fill="#000000" stroke="#000000" points="204.051,-114.7112 195.5313,-108.4133 198.264,-118.6496 204.051,-114.7112"/>
<g id="a_edge5&#45;headlabel"><a xlink:href="dir_000001_000008.html" target="_top" xlink:title="30">
<text text-anchor="middle" x="208.4207" y="-113.5855" font-family="Helvetica,sans-Serif" font-size="10.00" fill="#000000">30</text>
</a>
</g>
</g>
<!-- dir_0c368f76a33d967d5b838b5681461de6&#45;&gt;dir_3d3615e9a999cab4f3407307569d6ced -->
<g id="edge7" class="edge">
<title>dir_0c368f76a33d967d5b838b5681461de6&#45;&gt;dir_3d3615e9a999cab4f3407307569d6ced</title>
<path fill="none" stroke="#000000" d="M231.7133,-143.823C230.8883,-125.2139 228.09,-95.7363 219,-72 215.3514,-62.4725 209.7801,-52.9292 204.1027,-44.5732"/>
<polygon fill="#000000" stroke="#000000" points="206.8853,-42.4472 198.2239,-36.3455 201.1898,-46.5168 206.8853,-42.4472"/>
<g id="a_edge7&#45;headlabel"><a xlink:href="dir_000001_000012.html" target="_top" xlink:title="22">
<text text-anchor="middle" x="211.2852" y="-41.2213" font-family="Helvetica,sans-Serif" font-size="10.00" fill="#000000">22</text>
</a>
</g>
</g>
<!-- dir_ebb19deee3cd40f4ac122fef25c04ca8&#45;&gt;dir_0c368f76a33d967d5b838b5681461de6 -->
<g id="edge8" class="edge">
<title>dir_ebb19deee3cd40f4ac122fef25c04ca8&#45;&gt;dir_0c368f76a33d967d5b838b5681461de6</title>
<path fill="none" stroke="#000000" d="M259.6504,-222.6772C255.1522,-212.8061 249.5124,-200.4299 244.5015,-189.4338"/>
<polygon fill="#000000" stroke="#000000" points="247.636,-187.8717 240.3043,-180.2234 241.2662,-190.7745 247.636,-187.8717"/>
<g id="a_edge8&#45;headlabel"><a xlink:href="dir_000009_000001.html" target="_top" xlink:title="1">
<text text-anchor="middle" x="251.7102" y="-187.4654" font-family="Helvetica,sans-Serif" font-size="10.00" fill="#000000">1</text>
</a>
</g>
</g>
<!-- dir_ebb19deee3cd40f4ac122fef25c04ca8&#45;&gt;dir_3d3615e9a999cab4f3407307569d6ced -->
<g id="edge9" class="edge">
<title>dir_ebb19deee3cd40f4ac122fef25c04ca8&#45;&gt;dir_3d3615e9a999cab4f3407307569d6ced</title>
<path fill="none" stroke="#000000" d="M266.253,-222.7338C266.9244,-220.1711 267.5722,-217.5437 268,-215 274.413,-176.8688 279.8002,-164.8221 268,-128 257.0075,-93.6982 228.8382,-63.3119 207.7646,-43.2164"/>
<polygon fill="#000000" stroke="#000000" points="210.0587,-40.5697 200.3666,-36.2902 205.2745,-45.6797 210.0587,-40.5697"/>
<g id="a_edge9&#45;headlabel"><a xlink:href="dir_000009_000012.html" target="_top" xlink:title="8">
<text text-anchor="middle" x="214.6232" y="-38.4537" font-family="Helvetica,sans-Serif" font-size="10.00" fill="#000000">8</text>
</a>
</g>
</g>
<!-- dir_e4cd57caa88bf1f4e1bf9521bc47c3c0&#45;&gt;dir_3d3615e9a999cab4f3407307569d6ced -->
<g id="edge10" class="edge">
<title>dir_e4cd57caa88bf1f4e1bf9521bc47c3c0&#45;&gt;dir_3d3615e9a999cab4f3407307569d6ced</title>
<path fill="none" stroke="#000000" d="M177.0476,-71.8314C176.2972,-64.131 176.0763,-54.9743 176.3849,-46.4166"/>
<polygon fill="#000000" stroke="#000000" points="179.8792,-46.6161 177.024,-36.4133 172.8935,-46.1697 179.8792,-46.6161"/>
<g id="a_edge10&#45;headlabel"><a xlink:href="dir_000008_000012.html" target="_top" xlink:title="14">
<text text-anchor="middle" x="182.4836" y="-47.8844" font-family="Helvetica,sans-Serif" font-size="10.00" fill="#000000">14</text>
</a>
</g>
</g>
<!-- dir_3d3615e9a999cab4f3407307569d6ced&#45;&gt;dir_ebb19deee3cd40f4ac122fef25c04ca8 -->
<g id="edge14" class="edge">
<title>dir_3d3615e9a999cab4f3407307569d6ced&#45;&gt;dir_ebb19deee3cd40f4ac122fef25c04ca8</title>
<path fill="none" stroke="#000000" d="M210.112,-33.4704C236.2283,-52.5829 273.0442,-87.5719 286,-128 296.8783,-161.9454 293.1498,-174.8353 285.9755,-212.5755"/>
<polygon fill="#000000" stroke="#000000" points="282.4738,-212.262 284.084,-222.7338 289.3555,-213.5434 282.4738,-212.262"/>
<g id="a_edge14&#45;headlabel"><a xlink:href="dir_000012_000009.html" target="_top" xlink:title="1">
<text text-anchor="middle" x="280.3404" y="-205.7084" font-family="Helvetica,sans-Serif" font-size="10.00" fill="#000000">1</text>
</a>
</g>
</g>
<!-- dir_3d3615e9a999cab4f3407307569d6ced&#45;&gt;dir_e4cd57caa88bf1f4e1bf9521bc47c3c0 -->
<g id="edge15" class="edge">
<title>dir_3d3615e9a999cab4f3407307569d6ced&#45;&gt;dir_e4cd57caa88bf1f4e1bf9521bc47c3c0</title>
<path fill="none" stroke="#000000" d="M188.976,-36.4133C189.7071,-44.0593 189.9203,-53.1084 189.6155,-61.5726"/>
<polygon fill="#000000" stroke="#000000" points="186.1048,-61.6264 188.9524,-71.8314 193.0902,-62.078 186.1048,-61.6264"/>
<g id="a_edge15&#45;headlabel"><a xlink:href="dir_000012_000008.html" target="_top" xlink:title="1">
<text text-anchor="middle" x="183.5032" y="-55.3562" font-family="Helvetica,sans-Serif" font-size="10.00" fill="#000000">1</text>
</a>
</g>
</g>
</g>
</svg>
