<?xml version="1.0" encoding="UTF-8" standalone="no"?>
<!DOCTYPE svg PUBLIC "-//W3C//DTD SVG 1.1//EN"
 "http://www.w3.org/Graphics/SVG/1.1/DTD/svg11.dtd">
<!-- Generated by graphviz version 2.40.1 (20161225.0304)
 -->
<!-- Title: overset Pages: 1 -->
<svg width="132pt" height="295pt"
 viewBox="0.00 0.00 132.12 295.00" xmlns="http://www.w3.org/2000/svg" xmlns:xlink="http://www.w3.org/1999/xlink">
<g id="graph0" class="graph" transform="scale(1 1) rotate(0) translate(4 291)">
<title>overset</title>
<polygon fill="#ffffff" stroke="transparent" points="-4,4 -4,-291 128.1167,-291 128.1167,4 -4,4"/>
<g id="clust1" class="cluster">
<title>clusterdir_d85575251dd712327fe3cf057fa568b4</title>
<g id="a_clust1"><a xlink:href="dir_d85575251dd712327fe3cf057fa568b4.html" target="_top" xlink:title="amr&#45;wind">
<polygon fill="#ddddee" stroke="#000000" points="28,-208 28,-279 98,-279 98,-208 28,-208"/>
<text text-anchor="middle" x="63" y="-267" font-family="Helvetica,sans-Serif" font-size="10.00" fill="#000000">amr&#45;wind</text>
</a>
</g>
</g>
<!-- dir_629222d9fcf2f4ceefae477297f2ec84 -->
<g id="node1" class="node">
<title>dir_629222d9fcf2f4ceefae477297f2ec84</title>
<g id="a_node1"><a xlink:href="dir_629222d9fcf2f4ceefae477297f2ec84.html" target="_top" xlink:title="overset">
<polygon fill="#eeeeff" stroke="#000000" points="90,-252 36,-252 36,-216 90,-216 90,-252"/>
<text text-anchor="middle" x="63" y="-231.5" font-family="Helvetica,sans-Serif" font-size="10.00" fill="#000000">overset</text>
</a>
</g>
</g>
<!-- dir_e4cd57caa88bf1f4e1bf9521bc47c3c0 -->
<g id="node2" class="node">
<title>dir_e4cd57caa88bf1f4e1bf9521bc47c3c0</title>
<g id="a_node2"><a xlink:href="dir_e4cd57caa88bf1f4e1bf9521bc47c3c0.html" target="_top" xlink:title="utilities">
<polygon fill="#ffffff" stroke="#ff0000" points="54,-108 0,-108 0,-72 54,-72 54,-108"/>
<text text-anchor="middle" x="27" y="-87.5" font-family="Helvetica,sans-Serif" font-size="10.00" fill="#000000">utilities</text>
</a>
</g>
</g>
<!-- dir_629222d9fcf2f4ceefae477297f2ec84&#45;&gt;dir_e4cd57caa88bf1f4e1bf9521bc47c3c0 -->
<g id="edge1" class="edge">
<title>dir_629222d9fcf2f4ceefae477297f2ec84&#45;&gt;dir_e4cd57caa88bf1f4e1bf9521bc47c3c0</title>
<path fill="none" stroke="#000000" d="M35.8103,-216.0065C24.3257,-206.7602 12.1942,-194.4006 6,-180 -2.652,-159.8852 3.8887,-135.6394 11.8826,-117.3835"/>
<polygon fill="#000000" stroke="#000000" points="15.1253,-118.7142 16.2538,-108.1796 8.8021,-115.7112 15.1253,-118.7142"/>
<g id="a_edge1&#45;headlabel"><a xlink:href="dir_000035_000008.html" target="_top" xlink:title="1">
<text text-anchor="middle" x="16.1479" y="-120.6793" font-family="Helvetica,sans-Serif" font-size="10.00" fill="#000000">1</text>
</a>
</g>
</g>
<!-- dir_4bb30ed846ea1df1fc4d16874a455d91 -->
<g id="node3" class="node">
<title>dir_4bb30ed846ea1df1fc4d16874a455d91</title>
<g id="a_node3"><a xlink:href="dir_4bb30ed846ea1df1fc4d16874a455d91.html" target="_top" xlink:title="equation_systems">
<polygon fill="#ffffff" stroke="#ff0000" points="111,-180 15,-180 15,-144 111,-144 111,-180"/>
<text text-anchor="middle" x="63" y="-159.5" font-family="Helvetica,sans-Serif" font-size="10.00" fill="#000000">equation_systems</text>
</a>
</g>
</g>
<!-- dir_629222d9fcf2f4ceefae477297f2ec84&#45;&gt;dir_4bb30ed846ea1df1fc4d16874a455d91 -->
<g id="edge2" class="edge">
<title>dir_629222d9fcf2f4ceefae477297f2ec84&#45;&gt;dir_4bb30ed846ea1df1fc4d16874a455d91</title>
<path fill="none" stroke="#000000" d="M63,-215.8314C63,-208.131 63,-198.9743 63,-190.4166"/>
<polygon fill="#000000" stroke="#000000" points="66.5001,-190.4132 63,-180.4133 59.5001,-190.4133 66.5001,-190.4132"/>
<g id="a_edge2&#45;headlabel"><a xlink:href="dir_000035_000002.html" target="_top" xlink:title="1">
<text text-anchor="middle" x="69.3393" y="-191.5079" font-family="Helvetica,sans-Serif" font-size="10.00" fill="#000000">1</text>
</a>
</g>
</g>
<!-- dir_3d3615e9a999cab4f3407307569d6ced -->
<g id="node4" class="node">
<title>dir_3d3615e9a999cab4f3407307569d6ced</title>
<g id="a_node4"><a xlink:href="dir_3d3615e9a999cab4f3407307569d6ced.html" target="_top" xlink:title="core">
<polygon fill="#ffffff" stroke="#ff0000" points="81,-36 27,-36 27,0 81,0 81,-36"/>
<text text-anchor="middle" x="54" y="-15.5" font-family="Helvetica,sans-Serif" font-size="10.00" fill="#000000">core</text>
</a>
</g>
</g>
<!-- dir_629222d9fcf2f4ceefae477297f2ec84&#45;&gt;dir_3d3615e9a999cab4f3407307569d6ced -->
<g id="edge3" class="edge">
<title>dir_629222d9fcf2f4ceefae477297f2ec84&#45;&gt;dir_3d3615e9a999cab4f3407307569d6ced</title>
<path fill="none" stroke="#000000" d="M90.1897,-216.0065C101.6743,-206.7602 113.8058,-194.4006 120,-180 126.3221,-165.302 123.8228,-159.5366 120,-144 110.9093,-107.0534 88.8533,-68.9379 72.7318,-44.4443"/>
<polygon fill="#000000" stroke="#000000" points="75.5808,-42.4087 67.0958,-36.064 69.7722,-46.3152 75.5808,-42.4087"/>
<g id="a_edge3&#45;headlabel"><a xlink:href="dir_000035_000012.html" target="_top" xlink:title="3">
<text text-anchor="middle" x="79.9428" y="-41.307" font-family="Helvetica,sans-Serif" font-size="10.00" fill="#000000">3</text>
</a>
</g>
</g>
<!-- dir_e4cd57caa88bf1f4e1bf9521bc47c3c0&#45;&gt;dir_3d3615e9a999cab4f3407307569d6ced -->
<g id="edge4" class="edge">
<title>dir_e4cd57caa88bf1f4e1bf9521bc47c3c0&#45;&gt;dir_3d3615e9a999cab4f3407307569d6ced</title>
<path fill="none" stroke="#000000" d="M27.8608,-71.8314C30.0685,-63.8771 33.4239,-54.369 37.0776,-45.5723"/>
<polygon fill="#000000" stroke="#000000" points="40.2841,-46.9752 41.119,-36.4133 33.8798,-44.1492 40.2841,-46.9752"/>
<g id="a_edge4&#45;headlabel"><a xlink:href="dir_000008_000012.html" target="_top" xlink:title="14">
<text text-anchor="middle" x="41.4306" y="-48.91" font-family="Helvetica,sans-Serif" font-size="10.00" fill="#000000">14</text>
</a>
</g>
</g>
<!-- dir_4bb30ed846ea1df1fc4d16874a455d91&#45;&gt;dir_e4cd57caa88bf1f4e1bf9521bc47c3c0 -->
<g id="edge6" class="edge">
<title>dir_4bb30ed846ea1df1fc4d16874a455d91&#45;&gt;dir_e4cd57caa88bf1f4e1bf9521bc47c3c0</title>
<path fill="none" stroke="#000000" d="M53.9157,-143.8314C49.9385,-135.8771 45.1845,-126.369 40.7861,-117.5723"/>
<polygon fill="#000000" stroke="#000000" points="43.8093,-115.7923 36.2066,-108.4133 37.5483,-118.9228 43.8093,-115.7923"/>
<g id="a_edge6&#45;headlabel"><a xlink:href="dir_000002_000008.html" target="_top" xlink:title="10">
<text text-anchor="middle" x="47.9563" y="-115.2377" font-family="Helvetica,sans-Serif" font-size="10.00" fill="#000000">10</text>
</a>
</g>
</g>
<!-- dir_4bb30ed846ea1df1fc4d16874a455d91&#45;&gt;dir_3d3615e9a999cab4f3407307569d6ced -->
<g id="edge7" class="edge">
<title>dir_4bb30ed846ea1df1fc4d16874a455d91&#45;&gt;dir_3d3615e9a999cab4f3407307569d6ced</title>
<path fill="none" stroke="#000000" d="M63.8826,-143.692C64.5529,-125.4809 65.0491,-96.7591 63,-72 62.3055,-63.6085 61.0138,-54.5578 59.6214,-46.3092"/>
<polygon fill="#000000" stroke="#000000" points="63.0544,-45.6235 57.8413,-36.3999 56.1647,-46.8612 63.0544,-45.6235"/>
<g id="a_edge7&#45;headlabel"><a xlink:href="dir_000002_000012.html" target="_top" xlink:title="51">
<text text-anchor="middle" x="66.4844" y="-46.1595" font-family="Helvetica,sans-Serif" font-size="10.00" fill="#000000">51</text>
</a>
</g>
</g>
<!-- dir_3d3615e9a999cab4f3407307569d6ced&#45;&gt;dir_e4cd57caa88bf1f4e1bf9521bc47c3c0 -->
<g id="edge5" class="edge">
<title>dir_3d3615e9a999cab4f3407307569d6ced&#45;&gt;dir_e4cd57caa88bf1f4e1bf9521bc47c3c0</title>
<path fill="none" stroke="#000000" d="M53.071,-36.4133C50.8637,-44.3141 47.5414,-53.7132 43.9269,-62.417"/>
<polygon fill="#000000" stroke="#000000" points="40.6073,-61.27 39.7656,-71.8314 47.0097,-64.1 40.6073,-61.27"/>
<g id="a_edge5&#45;headlabel"><a xlink:href="dir_000012_000008.html" target="_top" xlink:title="1">
<text text-anchor="middle" x="39.4635" y="-54.3344" font-family="Helvetica,sans-Serif" font-size="10.00" fill="#000000">1</text>
</a>
</g>
</g>
</g>
</svg>
