<?xml version="1.0" encoding="UTF-8" standalone="no"?>
<!DOCTYPE svg PUBLIC "-//W3C//DTD SVG 1.1//EN"
 "http://www.w3.org/Graphics/SVG/1.1/DTD/svg11.dtd">
<!-- Generated by graphviz version 2.40.1 (20161225.0304)
 -->
<!-- Title: actuator Pages: 1 -->
<svg width="254pt" height="303pt"
 viewBox="0.00 0.00 254.00 303.00" xmlns="http://www.w3.org/2000/svg" xmlns:xlink="http://www.w3.org/1999/xlink">
<g id="graph0" class="graph" transform="scale(1 1) rotate(0) translate(4 299)">
<title>actuator</title>
<polygon fill="#ffffff" stroke="transparent" points="-4,4 -4,-299 250,-299 250,4 -4,4"/>
<g id="clust1" class="cluster">
<title>clusterdir_0c368f76a33d967d5b838b5681461de6</title>
<g id="a_clust1"><a xlink:href="dir_0c368f76a33d967d5b838b5681461de6.html" target="_top" xlink:title="wind_energy">
<polygon fill="#ddddee" stroke="#000000" points="8,-128 8,-287 238,-287 238,-128 8,-128"/>
<text text-anchor="middle" x="123" y="-275" font-family="Helvetica,sans-Serif" font-size="10.00" fill="#000000">wind_energy</text>
</a>
</g>
</g>
<g id="clust2" class="cluster">
<title>clusterdir_7ecfdf414f04b0541a95d392dbc1e5c0</title>
<g id="a_clust2"><a xlink:href="dir_7ecfdf414f04b0541a95d392dbc1e5c0.html" target="_top">
<polygon fill="#eeeeff" stroke="#000000" points="16,-136 16,-260 230,-260 230,-136 16,-136"/>
</a>
</g>
</g>
<!-- dir_7ecfdf414f04b0541a95d392dbc1e5c0 -->
<g id="node1" class="node">
<title>dir_7ecfdf414f04b0541a95d392dbc1e5c0</title>
<text text-anchor="middle" x="123" y="-231.5" font-family="Helvetica,sans-Serif" font-size="10.00" fill="#000000">actuator</text>
</g>
<!-- dir_e4cd57caa88bf1f4e1bf9521bc47c3c0 -->
<g id="node5" class="node">
<title>dir_e4cd57caa88bf1f4e1bf9521bc47c3c0</title>
<g id="a_node5"><a xlink:href="dir_e4cd57caa88bf1f4e1bf9521bc47c3c0.html" target="_top" xlink:title="utilities">
<polygon fill="#ffffff" stroke="#ff0000" points="192,-108 138,-108 138,-72 192,-72 192,-108"/>
<text text-anchor="middle" x="165" y="-87.5" font-family="Helvetica,sans-Serif" font-size="10.00" fill="#000000">utilities</text>
</a>
</g>
</g>
<!-- dir_7ecfdf414f04b0541a95d392dbc1e5c0&#45;&gt;dir_e4cd57caa88bf1f4e1bf9521bc47c3c0 -->
<g id="edge8" class="edge">
<title>dir_7ecfdf414f04b0541a95d392dbc1e5c0&#45;&gt;dir_e4cd57caa88bf1f4e1bf9521bc47c3c0</title>
<path fill="none" stroke="#000000" d="M138.138,-215.7148C145.4768,-205.7796 153.6305,-192.9104 158,-180 164.7304,-160.1141 166.3338,-136.3965 166.333,-118.3023"/>
<polygon fill="#000000" stroke="#000000" points="169.8294,-118.0502 166.1654,-108.1092 162.8304,-118.1654 169.8294,-118.0502"/>
<g id="a_edge8&#45;headlabel"><a xlink:href="dir_000005_000008.html" target="_top" xlink:title="9">
<text text-anchor="middle" x="172.7273" y="-119.0977" font-family="Helvetica,sans-Serif" font-size="10.00" fill="#000000">9</text>
</a>
</g>
</g>
<!-- dir_3d3615e9a999cab4f3407307569d6ced -->
<g id="node6" class="node">
<title>dir_3d3615e9a999cab4f3407307569d6ced</title>
<g id="a_node6"><a xlink:href="dir_3d3615e9a999cab4f3407307569d6ced.html" target="_top" xlink:title="core">
<polygon fill="#ffffff" stroke="#ff0000" points="192,-36 138,-36 138,0 192,0 192,-36"/>
<text text-anchor="middle" x="165" y="-15.5" font-family="Helvetica,sans-Serif" font-size="10.00" fill="#000000">core</text>
</a>
</g>
</g>
<!-- dir_7ecfdf414f04b0541a95d392dbc1e5c0&#45;&gt;dir_3d3615e9a999cab4f3407307569d6ced -->
<g id="edge9" class="edge">
<title>dir_7ecfdf414f04b0541a95d392dbc1e5c0&#45;&gt;dir_3d3615e9a999cab4f3407307569d6ced</title>
<path fill="none" stroke="#000000" d="M144.9469,-215.8143C155.5272,-206.0987 167.692,-193.3962 176,-180 193.8534,-151.2126 195.366,-141.4023 201,-108 203.6612,-92.2229 205.6365,-87.3135 201,-72 198.0436,-62.2355 192.6748,-52.6229 186.97,-44.2762"/>
<polygon fill="#000000" stroke="#000000" points="189.7129,-42.0973 180.9905,-36.0831 184.0586,-46.2239 189.7129,-42.0973"/>
<g id="a_edge9&#45;headlabel"><a xlink:href="dir_000005_000012.html" target="_top" xlink:title="15">
<text text-anchor="middle" x="194.1253" y="-40.827" font-family="Helvetica,sans-Serif" font-size="10.00" fill="#000000">15</text>
</a>
</g>
</g>
<!-- dir_e4e9964e9eecc53686804f6e188c33cc -->
<g id="node2" class="node">
<title>dir_e4e9964e9eecc53686804f6e188c33cc</title>
<g id="a_node2"><a xlink:href="dir_e4e9964e9eecc53686804f6e188c33cc.html" target="_top" xlink:title="aero">
<polygon fill="#ffffff" stroke="#000000" points="78,-180 24,-180 24,-144 78,-144 78,-180"/>
<text text-anchor="middle" x="51" y="-159.5" font-family="Helvetica,sans-Serif" font-size="10.00" fill="#000000">aero</text>
</a>
</g>
</g>
<!-- dir_e4e9964e9eecc53686804f6e188c33cc&#45;&gt;dir_e4cd57caa88bf1f4e1bf9521bc47c3c0 -->
<g id="edge1" class="edge">
<title>dir_e4e9964e9eecc53686804f6e188c33cc&#45;&gt;dir_e4cd57caa88bf1f4e1bf9521bc47c3c0</title>
<path fill="none" stroke="#000000" d="M78.0164,-144.937C93.2384,-135.3231 112.4485,-123.1904 128.9417,-112.7737"/>
<polygon fill="#000000" stroke="#000000" points="131.1965,-115.4892 137.7824,-107.19 127.4586,-109.5708 131.1965,-115.4892"/>
<g id="a_edge1&#45;headlabel"><a xlink:href="dir_000007_000008.html" target="_top" xlink:title="1">
<text text-anchor="middle" x="129.6735" y="-117.3092" font-family="Helvetica,sans-Serif" font-size="10.00" fill="#000000">1</text>
</a>
</g>
</g>
<!-- dir_26e13646035c47d7e3eb3b975c94bc4e -->
<g id="node3" class="node">
<title>dir_26e13646035c47d7e3eb3b975c94bc4e</title>
<g id="a_node3"><a xlink:href="dir_26e13646035c47d7e3eb3b975c94bc4e.html" target="_top" xlink:title="turbine">
<polygon fill="#ffffff" stroke="#ff0000" points="222,-252 168,-252 168,-216 222,-216 222,-252"/>
<text text-anchor="middle" x="195" y="-231.5" font-family="Helvetica,sans-Serif" font-size="10.00" fill="#000000">turbine</text>
</a>
</g>
</g>
<!-- dir_26e13646035c47d7e3eb3b975c94bc4e&#45;&gt;dir_e4cd57caa88bf1f4e1bf9521bc47c3c0 -->
<g id="edge5" class="edge">
<title>dir_26e13646035c47d7e3eb3b975c94bc4e&#45;&gt;dir_e4cd57caa88bf1f4e1bf9521bc47c3c0</title>
<path fill="none" stroke="#000000" d="M198.8835,-215.7456C202.6568,-194.1098 206.4351,-157.2993 196,-128 194.5539,-123.9396 192.4674,-119.9991 190.0504,-116.2898"/>
<polygon fill="#000000" stroke="#000000" points="192.7365,-114.0368 183.9566,-108.1069 187.1222,-118.2178 192.7365,-114.0368"/>
<g id="a_edge5&#45;headlabel"><a xlink:href="dir_000019_000008.html" target="_top" xlink:title="4">
<text text-anchor="middle" x="197.1606" y="-112.724" font-family="Helvetica,sans-Serif" font-size="10.00" fill="#000000">4</text>
</a>
</g>
</g>
<!-- dir_26e13646035c47d7e3eb3b975c94bc4e&#45;&gt;dir_3d3615e9a999cab4f3407307569d6ced -->
<g id="edge6" class="edge">
<title>dir_26e13646035c47d7e3eb3b975c94bc4e&#45;&gt;dir_3d3615e9a999cab4f3407307569d6ced</title>
<path fill="none" stroke="#000000" d="M207.1364,-215.6364C225.9629,-184.656 257.6943,-120.6312 234,-72 226.8402,-57.305 213.5331,-45.4318 200.5012,-36.6009"/>
<polygon fill="#000000" stroke="#000000" points="202.364,-33.6377 192.0445,-31.2379 198.615,-39.5492 202.364,-33.6377"/>
<g id="a_edge6&#45;headlabel"><a xlink:href="dir_000019_000012.html" target="_top" xlink:title="3">
<text text-anchor="middle" x="206.9202" y="-30.665" font-family="Helvetica,sans-Serif" font-size="10.00" fill="#000000">3</text>
</a>
</g>
</g>
<!-- dir_e3d85df9da26726704711d7e5a0bc894 -->
<g id="node4" class="node">
<title>dir_e3d85df9da26726704711d7e5a0bc894</title>
<g id="a_node4"><a xlink:href="dir_e3d85df9da26726704711d7e5a0bc894.html" target="_top" xlink:title="wing">
<polygon fill="#ffffff" stroke="#000000" points="78,-252 24,-252 24,-216 78,-216 78,-252"/>
<text text-anchor="middle" x="51" y="-231.5" font-family="Helvetica,sans-Serif" font-size="10.00" fill="#000000">wing</text>
</a>
</g>
</g>
<!-- dir_e3d85df9da26726704711d7e5a0bc894&#45;&gt;dir_e4e9964e9eecc53686804f6e188c33cc -->
<g id="edge2" class="edge">
<title>dir_e3d85df9da26726704711d7e5a0bc894&#45;&gt;dir_e4e9964e9eecc53686804f6e188c33cc</title>
<path fill="none" stroke="#000000" d="M51,-215.8314C51,-208.131 51,-198.9743 51,-190.4166"/>
<polygon fill="#000000" stroke="#000000" points="54.5001,-190.4132 51,-180.4133 47.5001,-190.4133 54.5001,-190.4132"/>
<g id="a_edge2&#45;headlabel"><a xlink:href="dir_000006_000007.html" target="_top" xlink:title="3">
<text text-anchor="middle" x="57.3393" y="-191.5079" font-family="Helvetica,sans-Serif" font-size="10.00" fill="#000000">3</text>
</a>
</g>
</g>
<!-- dir_e3d85df9da26726704711d7e5a0bc894&#45;&gt;dir_e4cd57caa88bf1f4e1bf9521bc47c3c0 -->
<g id="edge3" class="edge">
<title>dir_e3d85df9da26726704711d7e5a0bc894&#45;&gt;dir_e4cd57caa88bf1f4e1bf9521bc47c3c0</title>
<path fill="none" stroke="#000000" d="M78.2709,-216.914C92.0347,-207.307 108.2559,-194.3694 120,-180 135.2745,-161.3109 147.1695,-136.5789 154.8835,-117.7709"/>
<polygon fill="#000000" stroke="#000000" points="158.2162,-118.8604 158.6329,-108.2738 151.7052,-116.2899 158.2162,-118.8604"/>
<g id="a_edge3&#45;headlabel"><a xlink:href="dir_000006_000008.html" target="_top" xlink:title="3">
<text text-anchor="middle" x="159.5372" y="-120.7465" font-family="Helvetica,sans-Serif" font-size="10.00" fill="#000000">3</text>
</a>
</g>
</g>
<!-- dir_e3d85df9da26726704711d7e5a0bc894&#45;&gt;dir_3d3615e9a999cab4f3407307569d6ced -->
<g id="edge4" class="edge">
<title>dir_e3d85df9da26726704711d7e5a0bc894&#45;&gt;dir_3d3615e9a999cab4f3407307569d6ced</title>
<path fill="none" stroke="#000000" d="M64.703,-215.6221C71.9074,-205.453 80.5551,-192.3962 87,-180 110.7572,-134.3049 105.2428,-117.6951 129,-72 133.7833,-62.7997 139.78,-53.2355 145.4995,-44.758"/>
<polygon fill="#000000" stroke="#000000" points="148.486,-46.593 151.297,-36.3779 142.7293,-42.6105 148.486,-46.593"/>
<g id="a_edge4&#45;headlabel"><a xlink:href="dir_000006_000012.html" target="_top" xlink:title="1">
<text text-anchor="middle" x="148.7759" y="-48.6645" font-family="Helvetica,sans-Serif" font-size="10.00" fill="#000000">1</text>
</a>
</g>
</g>
<!-- dir_e4cd57caa88bf1f4e1bf9521bc47c3c0&#45;&gt;dir_3d3615e9a999cab4f3407307569d6ced -->
<g id="edge7" class="edge">
<title>dir_e4cd57caa88bf1f4e1bf9521bc47c3c0&#45;&gt;dir_3d3615e9a999cab4f3407307569d6ced</title>
<path fill="none" stroke="#000000" d="M159.0476,-71.8314C158.2972,-64.131 158.0763,-54.9743 158.3849,-46.4166"/>
<polygon fill="#000000" stroke="#000000" points="161.8792,-46.6161 159.024,-36.4133 154.8935,-46.1697 161.8792,-46.6161"/>
<g id="a_edge7&#45;headlabel"><a xlink:href="dir_000008_000012.html" target="_top" xlink:title="14">
<text text-anchor="middle" x="164.4836" y="-47.8844" font-family="Helvetica,sans-Serif" font-size="10.00" fill="#000000">14</text>
</a>
</g>
</g>
<!-- dir_3d3615e9a999cab4f3407307569d6ced&#45;&gt;dir_e4cd57caa88bf1f4e1bf9521bc47c3c0 -->
<g id="edge10" class="edge">
<title>dir_3d3615e9a999cab4f3407307569d6ced&#45;&gt;dir_e4cd57caa88bf1f4e1bf9521bc47c3c0</title>
<path fill="none" stroke="#000000" d="M170.976,-36.4133C171.7071,-44.0593 171.9203,-53.1084 171.6155,-61.5726"/>
<polygon fill="#000000" stroke="#000000" points="168.1048,-61.6264 170.9524,-71.8314 175.0902,-62.078 168.1048,-61.6264"/>
<g id="a_edge10&#45;headlabel"><a xlink:href="dir_000012_000008.html" target="_top" xlink:title="1">
<text text-anchor="middle" x="165.5032" y="-55.3562" font-family="Helvetica,sans-Serif" font-size="10.00" fill="#000000">1</text>
</a>
</g>
</g>
</g>
</svg>
