<?xml version="1.0" encoding="UTF-8" standalone="no"?>
<!DOCTYPE svg PUBLIC "-//W3C//DTD SVG 1.1//EN"
 "http://www.w3.org/Graphics/SVG/1.1/DTD/svg11.dtd">
<!-- Generated by graphviz version 2.40.1 (20161225.0304)
 -->
<!-- Title: multiphase Pages: 1 -->
<svg width="190pt" height="223pt"
 viewBox="0.00 0.00 189.74 223.00" xmlns="http://www.w3.org/2000/svg" xmlns:xlink="http://www.w3.org/1999/xlink">
<g id="graph0" class="graph" transform="scale(1 1) rotate(0) translate(4 219)">
<title>multiphase</title>
<polygon fill="#ffffff" stroke="transparent" points="-4,4 -4,-219 185.7416,-219 185.7416,4 -4,4"/>
<g id="clust1" class="cluster">
<title>clusterdir_f2c65bfcbdc19ebacbfc0bbbfb0d01b6</title>
<g id="a_clust1"><a xlink:href="dir_f2c65bfcbdc19ebacbfc0bbbfb0d01b6.html" target="_top" xlink:title="physics">
<polygon fill="#ddddee" stroke="#000000" points="80,-136 80,-207 160,-207 160,-136 80,-136"/>
<text text-anchor="middle" x="120" y="-195" font-family="Helvetica,sans-Serif" font-size="10.00" fill="#000000">physics</text>
</a>
</g>
</g>
<!-- dir_e037da66ad872c58acfc861df6f5c212 -->
<g id="node1" class="node">
<title>dir_e037da66ad872c58acfc861df6f5c212</title>
<g id="a_node1"><a xlink:href="dir_e037da66ad872c58acfc861df6f5c212.html" target="_top" xlink:title="multiphase">
<polygon fill="#eeeeff" stroke="#000000" points="152,-180 88,-180 88,-144 152,-144 152,-180"/>
<text text-anchor="middle" x="120" y="-159.5" font-family="Helvetica,sans-Serif" font-size="10.00" fill="#000000">multiphase</text>
</a>
</g>
</g>
<!-- dir_7f7a014517bfe31ea45620a6a947e37b -->
<g id="node2" class="node">
<title>dir_7f7a014517bfe31ea45620a6a947e37b</title>
<g id="a_node2"><a xlink:href="dir_7f7a014517bfe31ea45620a6a947e37b.html" target="_top" xlink:title="fvm">
<polygon fill="none" stroke="#000000" points="54,-108 0,-108 0,-72 54,-72 54,-108"/>
<text text-anchor="middle" x="27" y="-87.5" font-family="Helvetica,sans-Serif" font-size="10.00" fill="#000000">fvm</text>
</a>
</g>
</g>
<!-- dir_e037da66ad872c58acfc861df6f5c212&#45;&gt;dir_7f7a014517bfe31ea45620a6a947e37b -->
<g id="edge1" class="edge">
<title>dir_e037da66ad872c58acfc861df6f5c212&#45;&gt;dir_7f7a014517bfe31ea45620a6a947e37b</title>
<path fill="none" stroke="#000000" d="M96.5322,-143.8314C84.9673,-134.8779 70.8596,-123.9558 58.3817,-114.2955"/>
<polygon fill="#000000" stroke="#000000" points="60.5102,-111.5171 50.4603,-108.1628 56.225,-117.0521 60.5102,-111.5171"/>
<g id="a_edge1&#45;headlabel"><a xlink:href="dir_000015_000014.html" target="_top" xlink:title="3">
<text text-anchor="middle" x="65.0906" y="-108.9725" font-family="Helvetica,sans-Serif" font-size="10.00" fill="#000000">3</text>
</a>
</g>
</g>
<!-- dir_4bb30ed846ea1df1fc4d16874a455d91 -->
<g id="node3" class="node">
<title>dir_4bb30ed846ea1df1fc4d16874a455d91</title>
<g id="a_node3"><a xlink:href="dir_4bb30ed846ea1df1fc4d16874a455d91.html" target="_top" xlink:title="equation_systems">
<polygon fill="#ffffff" stroke="#ff0000" points="168,-108 72,-108 72,-72 168,-72 168,-108"/>
<text text-anchor="middle" x="120" y="-87.5" font-family="Helvetica,sans-Serif" font-size="10.00" fill="#000000">equation_systems</text>
</a>
</g>
</g>
<!-- dir_e037da66ad872c58acfc861df6f5c212&#45;&gt;dir_4bb30ed846ea1df1fc4d16874a455d91 -->
<g id="edge2" class="edge">
<title>dir_e037da66ad872c58acfc861df6f5c212&#45;&gt;dir_4bb30ed846ea1df1fc4d16874a455d91</title>
<path fill="none" stroke="#000000" d="M120,-143.8314C120,-136.131 120,-126.9743 120,-118.4166"/>
<polygon fill="#000000" stroke="#000000" points="123.5001,-118.4132 120,-108.4133 116.5001,-118.4133 123.5001,-118.4132"/>
<g id="a_edge2&#45;headlabel"><a xlink:href="dir_000015_000002.html" target="_top" xlink:title="2">
<text text-anchor="middle" x="126.3393" y="-119.5079" font-family="Helvetica,sans-Serif" font-size="10.00" fill="#000000">2</text>
</a>
</g>
</g>
<!-- dir_3d3615e9a999cab4f3407307569d6ced -->
<g id="node4" class="node">
<title>dir_3d3615e9a999cab4f3407307569d6ced</title>
<g id="a_node4"><a xlink:href="dir_3d3615e9a999cab4f3407307569d6ced.html" target="_top" xlink:title="core">
<polygon fill="#ffffff" stroke="#ff0000" points="147,-36 93,-36 93,0 147,0 147,-36"/>
<text text-anchor="middle" x="120" y="-15.5" font-family="Helvetica,sans-Serif" font-size="10.00" fill="#000000">core</text>
</a>
</g>
</g>
<!-- dir_e037da66ad872c58acfc861df6f5c212&#45;&gt;dir_3d3615e9a999cab4f3407307569d6ced -->
<g id="edge3" class="edge">
<title>dir_e037da66ad872c58acfc861df6f5c212&#45;&gt;dir_3d3615e9a999cab4f3407307569d6ced</title>
<path fill="none" stroke="#000000" d="M147.4894,-143.7646C158.8848,-134.5451 170.8597,-122.2754 177,-108 183.3221,-93.302 183.3221,-86.698 177,-72 172.2092,-60.862 163.8666,-50.945 155.0187,-42.745"/>
<polygon fill="#000000" stroke="#000000" points="157.0484,-39.8737 147.1897,-35.9935 152.4769,-45.1748 157.0484,-39.8737"/>
<g id="a_edge3&#45;headlabel"><a xlink:href="dir_000015_000012.html" target="_top" xlink:title="12">
<text text-anchor="middle" x="161.6248" y="-37.5711" font-family="Helvetica,sans-Serif" font-size="10.00" fill="#000000">12</text>
</a>
</g>
</g>
<!-- dir_7f7a014517bfe31ea45620a6a947e37b&#45;&gt;dir_3d3615e9a999cab4f3407307569d6ced -->
<g id="edge4" class="edge">
<title>dir_7f7a014517bfe31ea45620a6a947e37b&#45;&gt;dir_3d3615e9a999cab4f3407307569d6ced</title>
<path fill="none" stroke="#000000" d="M50.4678,-71.8314C62.0327,-62.8779 76.1404,-51.9558 88.6183,-42.2955"/>
<polygon fill="#000000" stroke="#000000" points="90.775,-45.0521 96.5397,-36.1628 86.4898,-39.5171 90.775,-45.0521"/>
<g id="a_edge4&#45;headlabel"><a xlink:href="dir_000014_000012.html" target="_top" xlink:title="1">
<text text-anchor="middle" x="89.6708" y="-46.9977" font-family="Helvetica,sans-Serif" font-size="10.00" fill="#000000">1</text>
</a>
</g>
</g>
<!-- dir_4bb30ed846ea1df1fc4d16874a455d91&#45;&gt;dir_3d3615e9a999cab4f3407307569d6ced -->
<g id="edge5" class="edge">
<title>dir_4bb30ed846ea1df1fc4d16874a455d91&#45;&gt;dir_3d3615e9a999cab4f3407307569d6ced</title>
<path fill="none" stroke="#000000" d="M120,-71.8314C120,-64.131 120,-54.9743 120,-46.4166"/>
<polygon fill="#000000" stroke="#000000" points="123.5001,-46.4132 120,-36.4133 116.5001,-46.4133 123.5001,-46.4132"/>
<g id="a_edge5&#45;headlabel"><a xlink:href="dir_000002_000012.html" target="_top" xlink:title="51">
<text text-anchor="middle" x="126.3393" y="-47.5079" font-family="Helvetica,sans-Serif" font-size="10.00" fill="#000000">51</text>
</a>
</g>
</g>
</g>
</svg>
