<?xml version="1.0" encoding="UTF-8" standalone="no"?>
<!DOCTYPE svg PUBLIC "-//W3C//DTD SVG 1.1//EN"
 "http://www.w3.org/Graphics/SVG/1.1/DTD/svg11.dtd">
<!-- Generated by graphviz version 2.40.1 (20161225.0304)
 -->
<!-- Title: setup Pages: 1 -->
<svg width="204pt" height="367pt"
 viewBox="0.00 0.00 203.99 367.00" xmlns="http://www.w3.org/2000/svg" xmlns:xlink="http://www.w3.org/1999/xlink">
<g id="graph0" class="graph" transform="scale(1 1) rotate(0) translate(4 363)">
<title>setup</title>
<polygon fill="#ffffff" stroke="transparent" points="-4,4 -4,-363 199.993,-363 199.993,4 -4,4"/>
<g id="clust1" class="cluster">
<title>clusterdir_d85575251dd712327fe3cf057fa568b4</title>
<g id="a_clust1"><a xlink:href="dir_d85575251dd712327fe3cf057fa568b4.html" target="_top" xlink:title="amr&#45;wind">
<polygon fill="#ddddee" stroke="#000000" points="46.993,-280 46.993,-351 116.993,-351 116.993,-280 46.993,-280"/>
<text text-anchor="middle" x="81.993" y="-339" font-family="Helvetica,sans-Serif" font-size="10.00" fill="#000000">amr&#45;wind</text>
</a>
</g>
</g>
<!-- dir_073a3c37bc9e3eb3e412aa8cf4eda4c3 -->
<g id="node1" class="node">
<title>dir_073a3c37bc9e3eb3e412aa8cf4eda4c3</title>
<g id="a_node1"><a xlink:href="dir_073a3c37bc9e3eb3e412aa8cf4eda4c3.html" target="_top" xlink:title="setup">
<polygon fill="#eeeeff" stroke="#000000" points="108.993,-324 54.993,-324 54.993,-288 108.993,-288 108.993,-324"/>
<text text-anchor="middle" x="81.993" y="-303.5" font-family="Helvetica,sans-Serif" font-size="10.00" fill="#000000">setup</text>
</a>
</g>
</g>
<!-- dir_f2c65bfcbdc19ebacbfc0bbbfb0d01b6 -->
<g id="node2" class="node">
<title>dir_f2c65bfcbdc19ebacbfc0bbbfb0d01b6</title>
<g id="a_node2"><a xlink:href="dir_f2c65bfcbdc19ebacbfc0bbbfb0d01b6.html" target="_top" xlink:title="physics">
<polygon fill="#ffffff" stroke="#ff0000" points="136.993,-252 82.993,-252 82.993,-216 136.993,-216 136.993,-252"/>
<text text-anchor="middle" x="109.993" y="-231.5" font-family="Helvetica,sans-Serif" font-size="10.00" fill="#000000">physics</text>
</a>
</g>
</g>
<!-- dir_073a3c37bc9e3eb3e412aa8cf4eda4c3&#45;&gt;dir_f2c65bfcbdc19ebacbfc0bbbfb0d01b6 -->
<g id="edge7" class="edge">
<title>dir_073a3c37bc9e3eb3e412aa8cf4eda4c3&#45;&gt;dir_f2c65bfcbdc19ebacbfc0bbbfb0d01b6</title>
<path fill="none" stroke="#000000" d="M89.0586,-287.8314C92.119,-279.9617 95.7709,-270.5712 99.1612,-261.8533"/>
<polygon fill="#000000" stroke="#000000" points="102.4698,-263.0019 102.8323,-252.4133 95.9458,-260.4647 102.4698,-263.0019"/>
<g id="a_edge7&#45;headlabel"><a xlink:href="dir_000025_000010.html" target="_top" xlink:title="1">
<text text-anchor="middle" x="103.8132" y="-264.8812" font-family="Helvetica,sans-Serif" font-size="10.00" fill="#000000">1</text>
</a>
</g>
</g>
<!-- dir_0c368f76a33d967d5b838b5681461de6 -->
<g id="node3" class="node">
<title>dir_0c368f76a33d967d5b838b5681461de6</title>
<g id="a_node3"><a xlink:href="dir_0c368f76a33d967d5b838b5681461de6.html" target="_top" xlink:title="wind_energy">
<polygon fill="#ffffff" stroke="#ff0000" points="85.493,-180 14.493,-180 14.493,-144 85.493,-144 85.493,-180"/>
<text text-anchor="middle" x="49.993" y="-159.5" font-family="Helvetica,sans-Serif" font-size="10.00" fill="#000000">wind_energy</text>
</a>
</g>
</g>
<!-- dir_073a3c37bc9e3eb3e412aa8cf4eda4c3&#45;&gt;dir_0c368f76a33d967d5b838b5681461de6 -->
<g id="edge8" class="edge">
<title>dir_073a3c37bc9e3eb3e412aa8cf4eda4c3&#45;&gt;dir_0c368f76a33d967d5b838b5681461de6</title>
<path fill="none" stroke="#000000" d="M77.9402,-287.7623C72.4581,-263.0928 62.6285,-218.8598 56.2093,-189.9731"/>
<polygon fill="#000000" stroke="#000000" points="59.599,-189.0922 54.0129,-180.0896 52.7657,-190.6108 59.599,-189.0922"/>
<g id="a_edge8&#45;headlabel"><a xlink:href="dir_000025_000001.html" target="_top" xlink:title="1">
<text text-anchor="middle" x="63.1503" y="-189.4853" font-family="Helvetica,sans-Serif" font-size="10.00" fill="#000000">1</text>
</a>
</g>
</g>
<!-- dir_e4cd57caa88bf1f4e1bf9521bc47c3c0 -->
<g id="node4" class="node">
<title>dir_e4cd57caa88bf1f4e1bf9521bc47c3c0</title>
<g id="a_node4"><a xlink:href="dir_e4cd57caa88bf1f4e1bf9521bc47c3c0.html" target="_top" xlink:title="utilities">
<polygon fill="#ffffff" stroke="#ff0000" points="195.993,-108 141.993,-108 141.993,-72 195.993,-72 195.993,-108"/>
<text text-anchor="middle" x="168.993" y="-87.5" font-family="Helvetica,sans-Serif" font-size="10.00" fill="#000000">utilities</text>
</a>
</g>
</g>
<!-- dir_073a3c37bc9e3eb3e412aa8cf4eda4c3&#45;&gt;dir_e4cd57caa88bf1f4e1bf9521bc47c3c0 -->
<g id="edge9" class="edge">
<title>dir_073a3c37bc9e3eb3e412aa8cf4eda4c3&#45;&gt;dir_e4cd57caa88bf1f4e1bf9521bc47c3c0</title>
<path fill="none" stroke="#000000" d="M109.182,-289.8581C122.4669,-280.5094 137.4046,-267.518 145.993,-252 169.3282,-209.8368 171.8365,-152.4163 170.8734,-118.4739"/>
<polygon fill="#000000" stroke="#000000" points="174.3643,-118.1771 170.4606,-108.3277 167.3701,-118.4617 174.3643,-118.1771"/>
<g id="a_edge9&#45;headlabel"><a xlink:href="dir_000025_000008.html" target="_top" xlink:title="2">
<text text-anchor="middle" x="177.3472" y="-119.1534" font-family="Helvetica,sans-Serif" font-size="10.00" fill="#000000">2</text>
</a>
</g>
</g>
<!-- dir_3d3615e9a999cab4f3407307569d6ced -->
<g id="node5" class="node">
<title>dir_3d3615e9a999cab4f3407307569d6ced</title>
<g id="a_node5"><a xlink:href="dir_3d3615e9a999cab4f3407307569d6ced.html" target="_top" xlink:title="core">
<polygon fill="#ffffff" stroke="#ff0000" points="140.993,-36 86.993,-36 86.993,0 140.993,0 140.993,-36"/>
<text text-anchor="middle" x="113.993" y="-15.5" font-family="Helvetica,sans-Serif" font-size="10.00" fill="#000000">core</text>
</a>
</g>
</g>
<!-- dir_073a3c37bc9e3eb3e412aa8cf4eda4c3&#45;&gt;dir_3d3615e9a999cab4f3407307569d6ced -->
<g id="edge10" class="edge">
<title>dir_073a3c37bc9e3eb3e412aa8cf4eda4c3&#45;&gt;dir_3d3615e9a999cab4f3407307569d6ced</title>
<path fill="none" stroke="#000000" d="M62.8692,-287.9867C34.0498,-258.5467 -15.1175,-197.9855 4.993,-144 20.3657,-102.733 56.0066,-65.985 82.3702,-42.977"/>
<polygon fill="#000000" stroke="#000000" points="84.8794,-45.4373 90.2215,-36.2879 80.3397,-40.1089 84.8794,-45.4373"/>
<g id="a_edge10&#45;headlabel"><a xlink:href="dir_000025_000012.html" target="_top" xlink:title="1">
<text text-anchor="middle" x="83.9845" y="-47.4297" font-family="Helvetica,sans-Serif" font-size="10.00" fill="#000000">1</text>
</a>
</g>
</g>
<!-- dir_f2c65bfcbdc19ebacbfc0bbbfb0d01b6&#45;&gt;dir_0c368f76a33d967d5b838b5681461de6 -->
<g id="edge1" class="edge">
<title>dir_f2c65bfcbdc19ebacbfc0bbbfb0d01b6&#45;&gt;dir_0c368f76a33d967d5b838b5681461de6</title>
<path fill="none" stroke="#000000" d="M94.8525,-215.8314C87.8714,-207.454 79.454,-197.3531 71.8055,-188.1749"/>
<polygon fill="#000000" stroke="#000000" points="74.4281,-185.8548 65.3374,-180.4133 69.0505,-190.3362 74.4281,-185.8548"/>
<g id="a_edge1&#45;headlabel"><a xlink:href="dir_000010_000001.html" target="_top" xlink:title="1">
<text text-anchor="middle" x="78.9104" y="-184.2986" font-family="Helvetica,sans-Serif" font-size="10.00" fill="#000000">1</text>
</a>
</g>
</g>
<!-- dir_f2c65bfcbdc19ebacbfc0bbbfb0d01b6&#45;&gt;dir_e4cd57caa88bf1f4e1bf9521bc47c3c0 -->
<g id="edge2" class="edge">
<title>dir_f2c65bfcbdc19ebacbfc0bbbfb0d01b6&#45;&gt;dir_e4cd57caa88bf1f4e1bf9521bc47c3c0</title>
<path fill="none" stroke="#000000" d="M117.4654,-215.7623C127.6174,-190.9846 145.8554,-146.4714 157.6872,-117.5939"/>
<polygon fill="#000000" stroke="#000000" points="161.0286,-118.67 161.5813,-108.0896 154.5512,-116.0161 161.0286,-118.67"/>
<g id="a_edge2&#45;headlabel"><a xlink:href="dir_000010_000008.html" target="_top" xlink:title="4">
<text text-anchor="middle" x="162.2931" y="-120.5727" font-family="Helvetica,sans-Serif" font-size="10.00" fill="#000000">4</text>
</a>
</g>
</g>
<!-- dir_f2c65bfcbdc19ebacbfc0bbbfb0d01b6&#45;&gt;dir_3d3615e9a999cab4f3407307569d6ced -->
<g id="edge3" class="edge">
<title>dir_f2c65bfcbdc19ebacbfc0bbbfb0d01b6&#45;&gt;dir_3d3615e9a999cab4f3407307569d6ced</title>
<path fill="none" stroke="#000000" d="M110.3272,-215.9555C111.0228,-178.3938 112.6309,-91.5541 113.4669,-46.4103"/>
<polygon fill="#000000" stroke="#000000" points="116.9712,-46.2082 113.657,-36.1451 109.9724,-46.0785 116.9712,-46.2082"/>
<g id="a_edge3&#45;headlabel"><a xlink:href="dir_000010_000012.html" target="_top" xlink:title="32">
<text text-anchor="middle" x="119.7435" y="-47.3547" font-family="Helvetica,sans-Serif" font-size="10.00" fill="#000000">32</text>
</a>
</g>
</g>
<!-- dir_0c368f76a33d967d5b838b5681461de6&#45;&gt;dir_e4cd57caa88bf1f4e1bf9521bc47c3c0 -->
<g id="edge4" class="edge">
<title>dir_0c368f76a33d967d5b838b5681461de6&#45;&gt;dir_e4cd57caa88bf1f4e1bf9521bc47c3c0</title>
<path fill="none" stroke="#000000" d="M80.0217,-143.8314C96.2044,-134.0402 116.2781,-121.8947 133.2606,-111.6196"/>
<polygon fill="#000000" stroke="#000000" points="135.0785,-114.6105 141.8225,-106.4393 131.4549,-108.6214 135.0785,-114.6105"/>
<g id="a_edge4&#45;headlabel"><a xlink:href="dir_000001_000008.html" target="_top" xlink:title="30">
<text text-anchor="middle" x="133.4728" y="-116.4005" font-family="Helvetica,sans-Serif" font-size="10.00" fill="#000000">30</text>
</a>
</g>
</g>
<!-- dir_0c368f76a33d967d5b838b5681461de6&#45;&gt;dir_3d3615e9a999cab4f3407307569d6ced -->
<g id="edge5" class="edge">
<title>dir_0c368f76a33d967d5b838b5681461de6&#45;&gt;dir_3d3615e9a999cab4f3407307569d6ced</title>
<path fill="none" stroke="#000000" d="M58.0987,-143.7623C69.111,-118.9846 88.8946,-74.4714 101.7291,-45.5939"/>
<polygon fill="#000000" stroke="#000000" points="105.0901,-46.6492 105.9532,-36.0896 98.6934,-43.8062 105.0901,-46.6492"/>
<g id="a_edge5&#45;headlabel"><a xlink:href="dir_000001_000012.html" target="_top" xlink:title="22">
<text text-anchor="middle" x="106.2248" y="-48.5872" font-family="Helvetica,sans-Serif" font-size="10.00" fill="#000000">22</text>
</a>
</g>
</g>
<!-- dir_e4cd57caa88bf1f4e1bf9521bc47c3c0&#45;&gt;dir_3d3615e9a999cab4f3407307569d6ced -->
<g id="edge6" class="edge">
<title>dir_e4cd57caa88bf1f4e1bf9521bc47c3c0&#45;&gt;dir_3d3615e9a999cab4f3407307569d6ced</title>
<path fill="none" stroke="#000000" d="M149.1618,-71.8314C142.0918,-63.6232 134.3596,-53.7606 127.8664,-44.7323"/>
<polygon fill="#000000" stroke="#000000" points="130.6648,-42.626 122.0827,-36.4133 124.9174,-46.6219 130.6648,-42.626"/>
<g id="a_edge6&#45;headlabel"><a xlink:href="dir_000008_000012.html" target="_top" xlink:title="14">
<text text-anchor="middle" x="135.0479" y="-41.4567" font-family="Helvetica,sans-Serif" font-size="10.00" fill="#000000">14</text>
</a>
</g>
</g>
<!-- dir_3d3615e9a999cab4f3407307569d6ced&#45;&gt;dir_e4cd57caa88bf1f4e1bf9521bc47c3c0 -->
<g id="edge11" class="edge">
<title>dir_3d3615e9a999cab4f3407307569d6ced&#45;&gt;dir_e4cd57caa88bf1f4e1bf9521bc47c3c0</title>
<path fill="none" stroke="#000000" d="M134.0347,-36.4133C141.1177,-44.654 148.844,-54.5245 155.3124,-63.536"/>
<polygon fill="#000000" stroke="#000000" points="152.4911,-65.6095 161.0666,-71.8314 158.2428,-61.6197 152.4911,-65.6095"/>
<g id="a_edge11&#45;headlabel"><a xlink:href="dir_000012_000008.html" target="_top" xlink:title="1">
<text text-anchor="middle" x="148.1094" y="-61.7742" font-family="Helvetica,sans-Serif" font-size="10.00" fill="#000000">1</text>
</a>
</g>
</g>
</g>
</svg>
