<?xml version="1.0" encoding="UTF-8" standalone="no"?>
<!DOCTYPE svg PUBLIC "-//W3C//DTD SVG 1.1//EN"
 "http://www.w3.org/Graphics/SVG/1.1/DTD/svg11.dtd">
<!-- Generated by graphviz version 2.40.1 (20161225.0304)
 -->
<!-- Title: physics Pages: 1 -->
<svg width="380pt" height="447pt"
 viewBox="0.00 0.00 380.00 447.00" xmlns="http://www.w3.org/2000/svg" xmlns:xlink="http://www.w3.org/1999/xlink">
<g id="graph0" class="graph" transform="scale(1 1) rotate(0) translate(4 443)">
<title>physics</title>
<polygon fill="#ffffff" stroke="transparent" points="-4,4 -4,-443 376,-443 376,4 -4,4"/>
<g id="clust1" class="cluster">
<title>clusterdir_d85575251dd712327fe3cf057fa568b4</title>
<g id="a_clust1"><a xlink:href="dir_d85575251dd712327fe3cf057fa568b4.html" target="_top" xlink:title="amr&#45;wind">
<polygon fill="#ddddee" stroke="#000000" points="8,-272 8,-431 176,-431 176,-272 8,-272"/>
<text text-anchor="middle" x="92" y="-419" font-family="Helvetica,sans-Serif" font-size="10.00" fill="#000000">amr&#45;wind</text>
</a>
</g>
</g>
<g id="clust2" class="cluster">
<title>clusterdir_f2c65bfcbdc19ebacbfc0bbbfb0d01b6</title>
<g id="a_clust2"><a xlink:href="dir_f2c65bfcbdc19ebacbfc0bbbfb0d01b6.html" target="_top">
<polygon fill="#eeeeff" stroke="#000000" points="16,-280 16,-404 168,-404 168,-280 16,-280"/>
</a>
</g>
</g>
<!-- dir_f2c65bfcbdc19ebacbfc0bbbfb0d01b6 -->
<g id="node1" class="node">
<title>dir_f2c65bfcbdc19ebacbfc0bbbfb0d01b6</title>
<text text-anchor="middle" x="51" y="-375.5" font-family="Helvetica,sans-Serif" font-size="10.00" fill="#000000">physics</text>
</g>
<!-- dir_112afea7a726e6a1d518c2be02377acb -->
<g id="node3" class="node">
<title>dir_112afea7a726e6a1d518c2be02377acb</title>
<g id="a_node3"><a xlink:href="dir_112afea7a726e6a1d518c2be02377acb.html" target="_top" xlink:title="udfs">
<polygon fill="#ffffff" stroke="#000000" points="78,-324 24,-324 24,-288 78,-288 78,-324"/>
<text text-anchor="middle" x="51" y="-303.5" font-family="Helvetica,sans-Serif" font-size="10.00" fill="#000000">udfs</text>
</a>
</g>
</g>
<!-- dir_f2c65bfcbdc19ebacbfc0bbbfb0d01b6&#45;&gt;dir_112afea7a726e6a1d518c2be02377acb -->
<g id="edge1" class="edge">
<title>dir_f2c65bfcbdc19ebacbfc0bbbfb0d01b6&#45;&gt;dir_112afea7a726e6a1d518c2be02377acb</title>
<path fill="none" stroke="#000000" d="M51,-359.8314C51,-352.131 51,-342.9743 51,-334.4166"/>
<polygon fill="#000000" stroke="#000000" points="54.5001,-334.4132 51,-324.4133 47.5001,-334.4133 54.5001,-334.4132"/>
<g id="a_edge1&#45;headlabel"><a xlink:href="dir_000010_000031.html" target="_top" xlink:title="2">
<text text-anchor="middle" x="57.3393" y="-335.5079" font-family="Helvetica,sans-Serif" font-size="10.00" fill="#000000">2</text>
</a>
</g>
</g>
<!-- dir_0c368f76a33d967d5b838b5681461de6 -->
<g id="node4" class="node">
<title>dir_0c368f76a33d967d5b838b5681461de6</title>
<g id="a_node4"><a xlink:href="dir_0c368f76a33d967d5b838b5681461de6.html" target="_top" xlink:title="wind_energy">
<polygon fill="#ffffff" stroke="#ff0000" points="255.5,-324 184.5,-324 184.5,-288 255.5,-288 255.5,-324"/>
<text text-anchor="middle" x="220" y="-303.5" font-family="Helvetica,sans-Serif" font-size="10.00" fill="#000000">wind_energy</text>
</a>
</g>
</g>
<!-- dir_f2c65bfcbdc19ebacbfc0bbbfb0d01b6&#45;&gt;dir_0c368f76a33d967d5b838b5681461de6 -->
<g id="edge2" class="edge">
<title>dir_f2c65bfcbdc19ebacbfc0bbbfb0d01b6&#45;&gt;dir_0c368f76a33d967d5b838b5681461de6</title>
<path fill="none" stroke="#000000" d="M78.0181,-364.2082C81.0325,-362.754 84.0712,-361.3244 87,-360 115.8938,-346.9348 148.9229,-333.5167 174.838,-323.3242"/>
<polygon fill="#000000" stroke="#000000" points="176.3614,-326.4866 184.3984,-319.5833 173.8106,-319.9679 176.3614,-326.4866"/>
<g id="a_edge2&#45;headlabel"><a xlink:href="dir_000010_000001.html" target="_top" xlink:title="1">
<text text-anchor="middle" x="174.0485" y="-327.9405" font-family="Helvetica,sans-Serif" font-size="10.00" fill="#000000">1</text>
</a>
</g>
</g>
<!-- dir_e4cd57caa88bf1f4e1bf9521bc47c3c0 -->
<g id="node5" class="node">
<title>dir_e4cd57caa88bf1f4e1bf9521bc47c3c0</title>
<g id="a_node5"><a xlink:href="dir_e4cd57caa88bf1f4e1bf9521bc47c3c0.html" target="_top" xlink:title="utilities">
<polygon fill="#ffffff" stroke="#ff0000" points="247,-180 193,-180 193,-144 247,-144 247,-180"/>
<text text-anchor="middle" x="220" y="-159.5" font-family="Helvetica,sans-Serif" font-size="10.00" fill="#000000">utilities</text>
</a>
</g>
</g>
<!-- dir_f2c65bfcbdc19ebacbfc0bbbfb0d01b6&#45;&gt;dir_e4cd57caa88bf1f4e1bf9521bc47c3c0 -->
<g id="edge3" class="edge">
<title>dir_f2c65bfcbdc19ebacbfc0bbbfb0d01b6&#45;&gt;dir_e4cd57caa88bf1f4e1bf9521bc47c3c0</title>
<path fill="none" stroke="#000000" d="M78.1942,-363.4718C81.1216,-362.1896 84.0929,-361.001 87,-360 163.3158,-333.7233 213.8964,-386.4739 265,-324 297.3718,-284.4256 264.3797,-223.1672 240.3138,-188.4236"/>
<polygon fill="#000000" stroke="#000000" points="243.0936,-186.2937 234.4329,-180.1911 237.3977,-190.3626 243.0936,-186.2937"/>
<g id="a_edge3&#45;headlabel"><a xlink:href="dir_000010_000008.html" target="_top" xlink:title="4">
<text text-anchor="middle" x="247.4934" y="-185.0683" font-family="Helvetica,sans-Serif" font-size="10.00" fill="#000000">4</text>
</a>
</g>
</g>
<!-- dir_e037da66ad872c58acfc861df6f5c212 -->
<g id="node2" class="node">
<title>dir_e037da66ad872c58acfc861df6f5c212</title>
<g id="a_node2"><a xlink:href="dir_e037da66ad872c58acfc861df6f5c212.html" target="_top" xlink:title="multiphase">
<polygon fill="#ffffff" stroke="#000000" points="160,-396 96,-396 96,-360 160,-360 160,-396"/>
<text text-anchor="middle" x="128" y="-375.5" font-family="Helvetica,sans-Serif" font-size="10.00" fill="#000000">multiphase</text>
</a>
</g>
</g>
<!-- dir_7f7a014517bfe31ea45620a6a947e37b -->
<g id="node6" class="node">
<title>dir_7f7a014517bfe31ea45620a6a947e37b</title>
<g id="a_node6"><a xlink:href="dir_7f7a014517bfe31ea45620a6a947e37b.html" target="_top" xlink:title="fvm">
<polygon fill="none" stroke="#000000" points="303,-108 249,-108 249,-72 303,-72 303,-108"/>
<text text-anchor="middle" x="276" y="-87.5" font-family="Helvetica,sans-Serif" font-size="10.00" fill="#000000">fvm</text>
</a>
</g>
</g>
<!-- dir_e037da66ad872c58acfc861df6f5c212&#45;&gt;dir_7f7a014517bfe31ea45620a6a947e37b -->
<g id="edge6" class="edge">
<title>dir_e037da66ad872c58acfc861df6f5c212&#45;&gt;dir_7f7a014517bfe31ea45620a6a947e37b</title>
<path fill="none" stroke="#000000" d="M160.0972,-371.5247C201.5847,-362.4283 270.2668,-344.6478 285,-324 329.3297,-261.8743 303.8056,-165.0329 287.0381,-117.7971"/>
<polygon fill="#000000" stroke="#000000" points="290.2573,-116.4103 283.5197,-108.2339 283.6879,-118.8274 290.2573,-116.4103"/>
<g id="a_edge6&#45;headlabel"><a xlink:href="dir_000015_000014.html" target="_top" xlink:title="3">
<text text-anchor="middle" x="294.1631" y="-116.3035" font-family="Helvetica,sans-Serif" font-size="10.00" fill="#000000">3</text>
</a>
</g>
</g>
<!-- dir_4bb30ed846ea1df1fc4d16874a455d91 -->
<g id="node7" class="node">
<title>dir_4bb30ed846ea1df1fc4d16874a455d91</title>
<g id="a_node7"><a xlink:href="dir_4bb30ed846ea1df1fc4d16874a455d91.html" target="_top" xlink:title="equation_systems">
<polygon fill="#ffffff" stroke="#ff0000" points="154,-252 58,-252 58,-216 154,-216 154,-252"/>
<text text-anchor="middle" x="106" y="-231.5" font-family="Helvetica,sans-Serif" font-size="10.00" fill="#000000">equation_systems</text>
</a>
</g>
</g>
<!-- dir_e037da66ad872c58acfc861df6f5c212&#45;&gt;dir_4bb30ed846ea1df1fc4d16874a455d91 -->
<g id="edge7" class="edge">
<title>dir_e037da66ad872c58acfc861df6f5c212&#45;&gt;dir_4bb30ed846ea1df1fc4d16874a455d91</title>
<path fill="none" stroke="#000000" d="M125.2137,-359.7623C121.4613,-335.201 114.7461,-291.2474 110.3319,-262.3541"/>
<polygon fill="#000000" stroke="#000000" points="113.7339,-261.4463 108.7637,-252.0896 106.8142,-262.5035 113.7339,-261.4463"/>
<g id="a_edge7&#45;headlabel"><a xlink:href="dir_000015_000002.html" target="_top" xlink:title="2">
<text text-anchor="middle" x="117.0834" y="-262.0709" font-family="Helvetica,sans-Serif" font-size="10.00" fill="#000000">2</text>
</a>
</g>
</g>
<!-- dir_3d3615e9a999cab4f3407307569d6ced -->
<g id="node8" class="node">
<title>dir_3d3615e9a999cab4f3407307569d6ced</title>
<g id="a_node8"><a xlink:href="dir_3d3615e9a999cab4f3407307569d6ced.html" target="_top" xlink:title="core">
<polygon fill="#ffffff" stroke="#ff0000" points="239,-36 185,-36 185,0 239,0 239,-36"/>
<text text-anchor="middle" x="212" y="-15.5" font-family="Helvetica,sans-Serif" font-size="10.00" fill="#000000">core</text>
</a>
</g>
</g>
<!-- dir_e037da66ad872c58acfc861df6f5c212&#45;&gt;dir_3d3615e9a999cab4f3407307569d6ced -->
<g id="edge8" class="edge">
<title>dir_e037da66ad872c58acfc861df6f5c212&#45;&gt;dir_3d3615e9a999cab4f3407307569d6ced</title>
<path fill="none" stroke="#000000" d="M160.1496,-374.1345C226.4062,-364.1894 372,-331.2694 372,-234 372,-234 372,-234 372,-162 372,-95.9209 295.6701,-52.4261 248.4519,-31.8416"/>
<polygon fill="#000000" stroke="#000000" points="249.7159,-28.5762 239.1418,-27.9136 246.9947,-35.0257 249.7159,-28.5762"/>
<g id="a_edge8&#45;headlabel"><a xlink:href="dir_000015_000012.html" target="_top" xlink:title="12">
<text text-anchor="middle" x="254.1315" y="-24.8575" font-family="Helvetica,sans-Serif" font-size="10.00" fill="#000000">12</text>
</a>
</g>
</g>
<!-- dir_112afea7a726e6a1d518c2be02377acb&#45;&gt;dir_4bb30ed846ea1df1fc4d16874a455d91 -->
<g id="edge4" class="edge">
<title>dir_112afea7a726e6a1d518c2be02377acb&#45;&gt;dir_4bb30ed846ea1df1fc4d16874a455d91</title>
<path fill="none" stroke="#000000" d="M64.8788,-287.8314C71.2136,-279.5386 78.8384,-269.557 85.7926,-260.4533"/>
<polygon fill="#000000" stroke="#000000" points="88.6452,-262.4847 91.9343,-252.4133 83.0825,-258.2353 88.6452,-262.4847"/>
<g id="a_edge4&#45;headlabel"><a xlink:href="dir_000031_000002.html" target="_top" xlink:title="1">
<text text-anchor="middle" x="88.7195" y="-264.5647" font-family="Helvetica,sans-Serif" font-size="10.00" fill="#000000">1</text>
</a>
</g>
</g>
<!-- dir_112afea7a726e6a1d518c2be02377acb&#45;&gt;dir_3d3615e9a999cab4f3407307569d6ced -->
<g id="edge5" class="edge">
<title>dir_112afea7a726e6a1d518c2be02377acb&#45;&gt;dir_3d3615e9a999cab4f3407307569d6ced</title>
<path fill="none" stroke="#000000" d="M47.7209,-287.7356C45.0768,-269.3113 42.7274,-240.2067 49,-216 67.3649,-145.1274 79.0656,-125.542 129,-72 142.3298,-57.7072 160.1893,-45.4592 175.9265,-36.2588"/>
<polygon fill="#000000" stroke="#000000" points="177.9048,-39.1614 184.8968,-31.2014 174.4669,-33.0638 177.9048,-39.1614"/>
<g id="a_edge5&#45;headlabel"><a xlink:href="dir_000031_000012.html" target="_top" xlink:title="8">
<text text-anchor="middle" x="176.1679" y="-40.9" font-family="Helvetica,sans-Serif" font-size="10.00" fill="#000000">8</text>
</a>
</g>
</g>
<!-- dir_0c368f76a33d967d5b838b5681461de6&#45;&gt;dir_e4cd57caa88bf1f4e1bf9521bc47c3c0 -->
<g id="edge9" class="edge">
<title>dir_0c368f76a33d967d5b838b5681461de6&#45;&gt;dir_e4cd57caa88bf1f4e1bf9521bc47c3c0</title>
<path fill="none" stroke="#000000" d="M220,-287.7623C220,-263.201 220,-219.2474 220,-190.3541"/>
<polygon fill="#000000" stroke="#000000" points="223.5001,-190.0896 220,-180.0896 216.5001,-190.0897 223.5001,-190.0896"/>
<g id="a_edge9&#45;headlabel"><a xlink:href="dir_000001_000008.html" target="_top" xlink:title="30">
<text text-anchor="middle" x="226.3393" y="-191.1842" font-family="Helvetica,sans-Serif" font-size="10.00" fill="#000000">30</text>
</a>
</g>
</g>
<!-- dir_0c368f76a33d967d5b838b5681461de6&#45;&gt;dir_7f7a014517bfe31ea45620a6a947e37b -->
<g id="edge10" class="edge">
<title>dir_0c368f76a33d967d5b838b5681461de6&#45;&gt;dir_7f7a014517bfe31ea45620a6a947e37b</title>
<path fill="none" stroke="#000000" d="M225.5907,-287.7299C232.981,-263.3003 246.2086,-218.5903 256,-180 261.2404,-159.3463 266.439,-135.8354 270.2222,-118.0241"/>
<polygon fill="#000000" stroke="#000000" points="273.6964,-118.5105 272.329,-108.0042 266.8461,-117.07 273.6964,-118.5105"/>
<g id="a_edge10&#45;headlabel"><a xlink:href="dir_000001_000014.html" target="_top" xlink:title="1">
<text text-anchor="middle" x="275.7353" y="-120.1124" font-family="Helvetica,sans-Serif" font-size="10.00" fill="#000000">1</text>
</a>
</g>
</g>
<!-- dir_0c368f76a33d967d5b838b5681461de6&#45;&gt;dir_4bb30ed846ea1df1fc4d16874a455d91 -->
<g id="edge11" class="edge">
<title>dir_0c368f76a33d967d5b838b5681461de6&#45;&gt;dir_4bb30ed846ea1df1fc4d16874a455d91</title>
<path fill="none" stroke="#000000" d="M186.7822,-287.902C178.9718,-282.6279 170.741,-276.9547 163,-272 155.3135,-267.0802 146.9739,-262.051 139.0686,-257.3289"/>
<polygon fill="#000000" stroke="#000000" points="140.7671,-254.2667 130.3858,-252.1502 137.1815,-260.2786 140.7671,-254.2667"/>
<g id="a_edge11&#45;headlabel"><a xlink:href="dir_000001_000002.html" target="_top" xlink:title="4">
<text text-anchor="middle" x="145.3087" y="-251.1694" font-family="Helvetica,sans-Serif" font-size="10.00" fill="#000000">4</text>
</a>
</g>
</g>
<!-- dir_0c368f76a33d967d5b838b5681461de6&#45;&gt;dir_3d3615e9a999cab4f3407307569d6ced -->
<g id="edge12" class="edge">
<title>dir_0c368f76a33d967d5b838b5681461de6&#45;&gt;dir_3d3615e9a999cab4f3407307569d6ced</title>
<path fill="none" stroke="#000000" d="M213.127,-287.9816C204.3173,-263.8306 189.5221,-219.4283 184,-180 177.3914,-132.8143 191.3075,-78.2821 201.7907,-46.0484"/>
<polygon fill="#000000" stroke="#000000" points="205.1641,-46.9982 205.0434,-36.4041 198.5311,-44.7611 205.1641,-46.9982"/>
<g id="a_edge12&#45;headlabel"><a xlink:href="dir_000001_000012.html" target="_top" xlink:title="22">
<text text-anchor="middle" x="206.7058" y="-48.8117" font-family="Helvetica,sans-Serif" font-size="10.00" fill="#000000">22</text>
</a>
</g>
</g>
<!-- dir_e4cd57caa88bf1f4e1bf9521bc47c3c0&#45;&gt;dir_7f7a014517bfe31ea45620a6a947e37b -->
<g id="edge13" class="edge">
<title>dir_e4cd57caa88bf1f4e1bf9521bc47c3c0&#45;&gt;dir_7f7a014517bfe31ea45620a6a947e37b</title>
<path fill="none" stroke="#000000" d="M234.1312,-143.8314C240.5811,-135.5386 248.3445,-125.557 255.4252,-116.4533"/>
<polygon fill="#000000" stroke="#000000" points="258.3019,-118.4556 261.6786,-108.4133 252.7764,-114.158 258.3019,-118.4556"/>
<g id="a_edge13&#45;headlabel"><a xlink:href="dir_000008_000014.html" target="_top" xlink:title="1">
<text text-anchor="middle" x="258.3362" y="-120.5361" font-family="Helvetica,sans-Serif" font-size="10.00" fill="#000000">1</text>
</a>
</g>
</g>
<!-- dir_e4cd57caa88bf1f4e1bf9521bc47c3c0&#45;&gt;dir_3d3615e9a999cab4f3407307569d6ced -->
<g id="edge14" class="edge">
<title>dir_e4cd57caa88bf1f4e1bf9521bc47c3c0&#45;&gt;dir_3d3615e9a999cab4f3407307569d6ced</title>
<path fill="none" stroke="#000000" d="M214.3136,-143.7623C210.4893,-119.201 207.7727,-75.2474 208.0778,-46.3541"/>
<polygon fill="#000000" stroke="#000000" points="211.5835,-46.1779 208.3467,-36.0896 204.5859,-45.9945 211.5835,-46.1779"/>
<g id="a_edge14&#45;headlabel"><a xlink:href="dir_000008_000012.html" target="_top" xlink:title="14">
<text text-anchor="middle" x="214.3278" y="-47.3456" font-family="Helvetica,sans-Serif" font-size="10.00" fill="#000000">14</text>
</a>
</g>
</g>
<!-- dir_7f7a014517bfe31ea45620a6a947e37b&#45;&gt;dir_3d3615e9a999cab4f3407307569d6ced -->
<g id="edge15" class="edge">
<title>dir_7f7a014517bfe31ea45620a6a947e37b&#45;&gt;dir_3d3615e9a999cab4f3407307569d6ced</title>
<path fill="none" stroke="#000000" d="M259.8501,-71.8314C252.3283,-63.3694 243.2435,-53.1489 235.0196,-43.8971"/>
<polygon fill="#000000" stroke="#000000" points="237.627,-41.5621 228.3673,-36.4133 232.3951,-46.2127 237.627,-41.5621"/>
<g id="a_edge15&#45;headlabel"><a xlink:href="dir_000014_000012.html" target="_top" xlink:title="1">
<text text-anchor="middle" x="242.1372" y="-39.8624" font-family="Helvetica,sans-Serif" font-size="10.00" fill="#000000">1</text>
</a>
</g>
</g>
<!-- dir_4bb30ed846ea1df1fc4d16874a455d91&#45;&gt;dir_0c368f76a33d967d5b838b5681461de6 -->
<g id="edge17" class="edge">
<title>dir_4bb30ed846ea1df1fc4d16874a455d91&#45;&gt;dir_0c368f76a33d967d5b838b5681461de6</title>
<path fill="none" stroke="#000000" d="M147.466,-252.1502C158.6043,-258.25 170.4207,-265.2287 181,-272 185.8382,-275.0967 190.8676,-278.474 195.6752,-281.8592"/>
<polygon fill="#000000" stroke="#000000" points="193.8513,-284.8601 204.0001,-287.902 197.9633,-279.1952 193.8513,-284.8601"/>
<g id="a_edge17&#45;headlabel"><a xlink:href="dir_000002_000001.html" target="_top" xlink:title="3">
<text text-anchor="middle" x="189.2744" y="-282.5463" font-family="Helvetica,sans-Serif" font-size="10.00" fill="#000000">3</text>
</a>
</g>
</g>
<!-- dir_4bb30ed846ea1df1fc4d16874a455d91&#45;&gt;dir_e4cd57caa88bf1f4e1bf9521bc47c3c0 -->
<g id="edge18" class="edge">
<title>dir_4bb30ed846ea1df1fc4d16874a455d91&#45;&gt;dir_e4cd57caa88bf1f4e1bf9521bc47c3c0</title>
<path fill="none" stroke="#000000" d="M134.767,-215.8314C149.7935,-206.3409 168.3223,-194.6386 184.2617,-184.5716"/>
<polygon fill="#000000" stroke="#000000" points="186.2259,-187.4707 192.8119,-179.1715 182.488,-181.5522 186.2259,-187.4707"/>
<g id="a_edge18&#45;headlabel"><a xlink:href="dir_000002_000008.html" target="_top" xlink:title="10">
<text text-anchor="middle" x="184.7029" y="-189.2907" font-family="Helvetica,sans-Serif" font-size="10.00" fill="#000000">10</text>
</a>
</g>
</g>
<!-- dir_4bb30ed846ea1df1fc4d16874a455d91&#45;&gt;dir_3d3615e9a999cab4f3407307569d6ced -->
<g id="edge19" class="edge">
<title>dir_4bb30ed846ea1df1fc4d16874a455d91&#45;&gt;dir_3d3615e9a999cab4f3407307569d6ced</title>
<path fill="none" stroke="#000000" d="M107.6823,-215.6321C111.2806,-184.0902 121.9166,-118.5365 151,-72 157.9201,-60.927 167.7822,-50.8177 177.5644,-42.417"/>
<polygon fill="#000000" stroke="#000000" points="179.8108,-45.1013 185.3347,-36.0604 175.3785,-39.6833 179.8108,-45.1013"/>
<g id="a_edge19&#45;headlabel"><a xlink:href="dir_000002_000012.html" target="_top" xlink:title="51">
<text text-anchor="middle" x="178.8264" y="-47.0749" font-family="Helvetica,sans-Serif" font-size="10.00" fill="#000000">51</text>
</a>
</g>
</g>
<!-- dir_3d3615e9a999cab4f3407307569d6ced&#45;&gt;dir_e4cd57caa88bf1f4e1bf9521bc47c3c0 -->
<g id="edge16" class="edge">
<title>dir_3d3615e9a999cab4f3407307569d6ced&#45;&gt;dir_e4cd57caa88bf1f4e1bf9521bc47c3c0</title>
<path fill="none" stroke="#000000" d="M217.6633,-36.0896C221.492,-60.5727 224.217,-104.5174 223.924,-133.4713"/>
<polygon fill="#000000" stroke="#000000" points="220.4177,-133.6758 223.66,-143.7623 227.4154,-133.8554 220.4177,-133.6758"/>
<g id="a_edge16&#45;headlabel"><a xlink:href="dir_000012_000008.html" target="_top" xlink:title="1">
<text text-anchor="middle" x="217.6715" y="-127.5096" font-family="Helvetica,sans-Serif" font-size="10.00" fill="#000000">1</text>
</a>
</g>
</g>
</g>
</svg>
