<?xml version="1.0" encoding="UTF-8" standalone="no"?>
<!DOCTYPE svg PUBLIC "-//W3C//DTD SVG 1.1//EN"
 "http://www.w3.org/Graphics/SVG/1.1/DTD/svg11.dtd">
<!-- Generated by graphviz version 2.40.1 (20161225.0304)
 -->
<!-- Title: divergence.H Pages: 1 -->
<!--zoomable 308 -->
<svg id="main" version="1.1" xmlns="http://www.w3.org/2000/svg" xmlns:xlink="http://www.w3.org/1999/xlink" xml:space="preserve" onload="init(evt)">
<style type="text/css"><![CDATA[
.edge:hover path { stroke: red; }
.edge:hover polygon { stroke: red; fill: red; }
]]></style>
<script type="text/javascript"><![CDATA[
var edges = document.getElementsByTagName('g');
if (edges && edges.length) {
  for (var i=0;i<edges.length;i++) {
    if (edges[i].id.substr(0,4)=='edge') {
      edges[i].setAttribute('class','edge');
    }
  }
}
]]></script>
        <defs>
                <circle id="rim" cx="0" cy="0" r="7"/>
                <circle id="rim2" cx="0" cy="0" r="3.5"/>
                <g id="zoomPlus">
                        <use xlink:href="#rim" fill="#404040">
                                <set attributeName="fill" to="#808080" begin="zoomplus.mouseover" end="zoomplus.mouseout"/>
                        </use>
                        <path d="M-4,0h8M0,-4v8" fill="none" stroke="white" stroke-width="1.5" pointer-events="none"/>
                </g>
                <g id="zoomMin">
                        <use xlink:href="#rim" fill="#404040">
                                <set attributeName="fill" to="#808080" begin="zoomminus.mouseover" end="zoomminus.mouseout"/>
                        </use>
                        <path d="M-4,0h8" fill="none" stroke="white" stroke-width="1.5" pointer-events="none"/>
                </g>
                <g id="dirArrow">
                        <path fill="none" stroke="white" stroke-width="1.5" d="M0,-3.0v7 M-2.5,-0.5L0,-3.0L2.5,-0.5"/>
                </g>
               <g id="resetDef">
                       <use xlink:href="#rim2" fill="#404040">
                               <set attributeName="fill" to="#808080" begin="reset.mouseover" end="reset.mouseout"/>
                       </use>
               </g>
        </defs>

<script type="text/javascript">
var viewWidth = 2166;
var viewHeight = 308;
var sectionId = 'dynsection-0';
</script>
<script xlink:href="svgpan.js"/>
<svg id="graph" class="graph">
<g id="viewport">
<title>divergence.H</title>
<polygon fill="#ffffff" stroke="transparent" points="-4,4 -4,-304 2162,-304 2162,4 -4,4"/>
<!-- Node0 -->
<g id="node1" class="node">
<title>Node0</title>
<polygon fill="#bfbfbf" stroke="#000000" points="1978.5,-280.5 1978.5,-299.5 2052.5,-299.5 2052.5,-280.5 1978.5,-280.5"/>
<text text-anchor="middle" x="2015.5" y="-287.5" font-family="Helvetica,sans-Serif" font-size="10.00" fill="#000000">divergence.H</text>
</g>
<!-- Node1 -->
<g id="node2" class="node">
<title>Node1</title>
<g id="a_node2"><a xlink:href="fvm__utils_8_h.html" target="_top" xlink:title="amr&#45;wind/fvm/fvm_utils.H">
<polygon fill="#ffffff" stroke="#000000" points="1803,-224.5 1803,-243.5 1932,-243.5 1932,-224.5 1803,-224.5"/>
<text text-anchor="middle" x="1867.5" y="-231.5" font-family="Helvetica,sans-Serif" font-size="10.00" fill="#000000">amr&#45;wind/fvm/fvm_utils.H</text>
</a>
</g>
</g>
<!-- Node0&#45;&gt;Node1 -->
<g id="edge1" class="edge">
<title>Node0&#45;&gt;Node1</title>
<path fill="none" stroke="#191970" d="M1990.0579,-280.3733C1965.7674,-271.1822 1928.9792,-257.2624 1902.0457,-247.0713"/>
<polygon fill="#191970" stroke="#191970" points="1903.2016,-243.7666 1892.6101,-243.5011 1900.7243,-250.3136 1903.2016,-243.7666"/>
</g>
<!-- Node26 -->
<g id="node27" class="node">
<title>Node26</title>
<polygon fill="#ffffff" stroke="#bfbfbf" points="1989.5,-112.5 1989.5,-131.5 2099.5,-131.5 2099.5,-112.5 1989.5,-112.5"/>
<text text-anchor="middle" x="2044.5" y="-119.5" font-family="Helvetica,sans-Serif" font-size="10.00" fill="#000000">AMReX_Geometry.H</text>
</g>
<!-- Node0&#45;&gt;Node26 -->
<g id="edge46" class="edge">
<title>Node0&#45;&gt;Node26</title>
<path fill="none" stroke="#191970" d="M2017.1423,-280.4862C2021.7463,-253.8144 2034.8486,-177.9117 2041.1003,-141.695"/>
<polygon fill="#191970" stroke="#191970" points="2044.5514,-142.2775 2042.8035,-131.8279 2037.6534,-141.0868 2044.5514,-142.2775"/>
</g>
<!-- Node27 -->
<g id="node28" class="node">
<title>Node27</title>
<polygon fill="#ffffff" stroke="#bfbfbf" points="1911,-168.5 1911,-187.5 2006,-187.5 2006,-168.5 1911,-168.5"/>
<text text-anchor="middle" x="1958.5" y="-175.5" font-family="Helvetica,sans-Serif" font-size="10.00" fill="#000000">AMReX_MFIter.H</text>
</g>
<!-- Node0&#45;&gt;Node27 -->
<g id="edge47" class="edge">
<title>Node0&#45;&gt;Node27</title>
<path fill="none" stroke="#191970" d="M2010.6402,-280.4509C2001.2174,-261.936 1980.3122,-220.8591 1968.0265,-196.7187"/>
<polygon fill="#191970" stroke="#191970" points="1971.0025,-194.8496 1963.3475,-187.5249 1964.7639,-198.0246 1971.0025,-194.8496"/>
</g>
<!-- Node28 -->
<g id="node29" class="node">
<title>Node28</title>
<polygon fill="#ffffff" stroke="#bfbfbf" points="2063,-224.5 2063,-243.5 2158,-243.5 2158,-224.5 2063,-224.5"/>
<text text-anchor="middle" x="2110.5" y="-231.5" font-family="Helvetica,sans-Serif" font-size="10.00" fill="#000000">AMReX_Array4.H</text>
</g>
<!-- Node0&#45;&gt;Node28 -->
<g id="edge45" class="edge">
<title>Node0&#45;&gt;Node28</title>
<path fill="none" stroke="#191970" d="M2032.0477,-280.2455C2046.7599,-271.5731 2068.4888,-258.7645 2085.3505,-248.825"/>
<polygon fill="#191970" stroke="#191970" points="2087.3046,-251.736 2094.1419,-243.6427 2083.7498,-245.7057 2087.3046,-251.736"/>
</g>
<!-- Node2 -->
<g id="node3" class="node">
<title>Node2</title>
<g id="a_node3"><a xlink:href="_field_repo_8_h.html" target="_top" xlink:title="amr&#45;wind/core/FieldRepo.H">
<polygon fill="#ffffff" stroke="#000000" points="1063.5,-168.5 1063.5,-187.5 1199.5,-187.5 1199.5,-168.5 1063.5,-168.5"/>
<text text-anchor="middle" x="1131.5" y="-175.5" font-family="Helvetica,sans-Serif" font-size="10.00" fill="#000000">amr&#45;wind/core/FieldRepo.H</text>
</a>
</g>
</g>
<!-- Node1&#45;&gt;Node2 -->
<g id="edge2" class="edge">
<title>Node1&#45;&gt;Node2</title>
<path fill="none" stroke="#191970" d="M1802.83,-229.0795C1667.7776,-218.8037 1356.2248,-195.0986 1209.9854,-183.9717"/>
<polygon fill="#191970" stroke="#191970" points="1209.9833,-180.4615 1199.7465,-183.1927 1209.4521,-187.4413 1209.9833,-180.4615"/>
</g>
<!-- Node22 -->
<g id="node23" class="node">
<title>Node22</title>
<g id="a_node23"><a xlink:href="stencils_8_h.html" target="_top" xlink:title="Second&#45;order finite volume discretization stencil coefficients. ">
<polygon fill="#ffffff" stroke="#000000" points="1770,-168.5 1770,-187.5 1893,-187.5 1893,-168.5 1770,-168.5"/>
<text text-anchor="middle" x="1831.5" y="-175.5" font-family="Helvetica,sans-Serif" font-size="10.00" fill="#000000">amr&#45;wind/fvm/stencils.H</text>
</a>
</g>
</g>
<!-- Node1&#45;&gt;Node22 -->
<g id="edge39" class="edge">
<title>Node1&#45;&gt;Node22</title>
<path fill="none" stroke="#191970" d="M1861.2293,-224.2455C1856.2736,-216.5367 1849.217,-205.5598 1843.2224,-196.2348"/>
<polygon fill="#191970" stroke="#191970" points="1846.0506,-194.1618 1837.6989,-187.6427 1840.1624,-197.9471 1846.0506,-194.1618"/>
</g>
<!-- Node1&#45;&gt;Node27 -->
<g id="edge44" class="edge">
<title>Node1&#45;&gt;Node27</title>
<path fill="none" stroke="#191970" d="M1883.351,-224.2455C1897.3132,-215.6534 1917.8728,-203.0014 1933.9596,-193.1018"/>
<polygon fill="#191970" stroke="#191970" points="1936.1484,-195.8645 1942.8307,-187.6427 1932.4797,-189.9029 1936.1484,-195.8645"/>
</g>
<!-- Node3 -->
<g id="node4" class="node">
<title>Node3</title>
<polygon fill="#ffffff" stroke="#bfbfbf" points="1254,-.5 1254,-19.5 1295,-19.5 1295,-.5 1254,-.5"/>
<text text-anchor="middle" x="1274.5" y="-7.5" font-family="Helvetica,sans-Serif" font-size="10.00" fill="#000000">string</text>
</g>
<!-- Node2&#45;&gt;Node3 -->
<g id="edge3" class="edge">
<title>Node2&#45;&gt;Node3</title>
<path fill="none" stroke="#191970" d="M1199.812,-175.2495C1314.7761,-169.9617 1536.9486,-156.6583 1562.5,-132 1586.9398,-108.4145 1592.5956,-81.7946 1570.5,-56 1553.3639,-35.9951 1377.9598,-18.8434 1305.5285,-12.5583"/>
<polygon fill="#191970" stroke="#191970" points="1305.485,-9.0419 1295.2232,-11.6773 1304.8888,-16.0164 1305.485,-9.0419"/>
</g>
<!-- Node4 -->
<g id="node5" class="node">
<title>Node4</title>
<polygon fill="#ffffff" stroke="#bfbfbf" points="1303,-56.5 1303,-75.5 1386,-75.5 1386,-56.5 1303,-56.5"/>
<text text-anchor="middle" x="1344.5" y="-63.5" font-family="Helvetica,sans-Serif" font-size="10.00" fill="#000000">unordered_map</text>
</g>
<!-- Node2&#45;&gt;Node4 -->
<g id="edge4" class="edge">
<title>Node2&#45;&gt;Node4</title>
<path fill="none" stroke="#191970" d="M1149.6603,-168.4509C1187.151,-148.7375 1273.2847,-103.4465 1317.3913,-80.2543"/>
<polygon fill="#191970" stroke="#191970" points="1319.1636,-83.2768 1326.3857,-75.5249 1315.9058,-77.0811 1319.1636,-83.2768"/>
</g>
<!-- Node5 -->
<g id="node6" class="node">
<title>Node5</title>
<g id="a_node6"><a xlink:href="_field_desc_types_8_h.html" target="_top" xlink:title="amr&#45;wind/core/FieldDescTypes.H">
<polygon fill="#ffffff" stroke="#000000" points="520,-.5 520,-19.5 683,-19.5 683,-.5 520,-.5"/>
<text text-anchor="middle" x="601.5" y="-7.5" font-family="Helvetica,sans-Serif" font-size="10.00" fill="#000000">amr&#45;wind/core/FieldDescTypes.H</text>
</a>
</g>
</g>
<!-- Node2&#45;&gt;Node5 -->
<g id="edge5" class="edge">
<title>Node2&#45;&gt;Node5</title>
<path fill="none" stroke="#191970" d="M1063.2062,-171.8728C974.0029,-161.7412 814.8048,-136.2567 692.5,-76 665.2685,-62.5836 637.5332,-41.1049 619.9598,-26.3143"/>
<polygon fill="#191970" stroke="#191970" points="622.0651,-23.5089 612.1959,-19.6553 617.5079,-28.8223 622.0651,-23.5089"/>
</g>
<!-- Node6 -->
<g id="node7" class="node">
<title>Node6</title>
<g id="a_node7"><a xlink:href="_field_utils_8_h.html" target="_top" xlink:title="amr&#45;wind/core/FieldUtils.H">
<polygon fill="#ffffff" stroke="#000000" points="0,-56.5 0,-75.5 133,-75.5 133,-56.5 0,-56.5"/>
<text text-anchor="middle" x="66.5" y="-63.5" font-family="Helvetica,sans-Serif" font-size="10.00" fill="#000000">amr&#45;wind/core/FieldUtils.H</text>
</a>
</g>
</g>
<!-- Node2&#45;&gt;Node6 -->
<g id="edge6" class="edge">
<title>Node2&#45;&gt;Node6</title>
<path fill="none" stroke="#191970" d="M1063.2719,-177.2775C854.3451,-174.7227 232.3623,-164.4483 147.5,-132 120.9519,-121.849 96.5579,-99.3992 81.6264,-83.5087"/>
<polygon fill="#191970" stroke="#191970" points="84.0313,-80.9505 74.7195,-75.8967 78.8473,-85.6544 84.0313,-80.9505"/>
</g>
<!-- Node7 -->
<g id="node8" class="node">
<title>Node7</title>
<polygon fill="#ffffff" stroke="#bfbfbf" points="147.5,-.5 147.5,-19.5 251.5,-19.5 251.5,-.5 147.5,-.5"/>
<text text-anchor="middle" x="199.5" y="-7.5" font-family="Helvetica,sans-Serif" font-size="10.00" fill="#000000">AMReX_MultiFab.H</text>
</g>
<!-- Node2&#45;&gt;Node7 -->
<g id="edge37" class="edge">
<title>Node2&#45;&gt;Node7</title>
<path fill="none" stroke="#191970" d="M1063.2138,-176.3261C903.1446,-171.9998 507.4568,-158.8601 377.5,-132 305.769,-117.1743 273.9982,-128.0872 222.5,-76 210.263,-63.6231 204.5183,-44.3958 201.8322,-29.8803"/>
<polygon fill="#191970" stroke="#191970" points="205.2771,-29.2525 200.3175,-19.8902 198.3562,-30.3019 205.2771,-29.2525"/>
</g>
<!-- Node9 -->
<g id="node10" class="node">
<title>Node9</title>
<g id="a_node10"><a xlink:href="_field_8_h.html" target="_top" xlink:title="amr&#45;wind/core/Field.H">
<polygon fill="#ffffff" stroke="#000000" points="891,-112.5 891,-131.5 1004,-131.5 1004,-112.5 891,-112.5"/>
<text text-anchor="middle" x="947.5" y="-119.5" font-family="Helvetica,sans-Serif" font-size="10.00" fill="#000000">amr&#45;wind/core/Field.H</text>
</a>
</g>
</g>
<!-- Node2&#45;&gt;Node9 -->
<g id="edge10" class="edge">
<title>Node2&#45;&gt;Node9</title>
<path fill="none" stroke="#191970" d="M1099.8693,-168.3733C1069.1404,-159.021 1022.324,-144.7725 988.6978,-134.5385"/>
<polygon fill="#191970" stroke="#191970" points="989.3038,-131.0644 978.718,-131.5011 987.2656,-137.7612 989.3038,-131.0644"/>
</g>
<!-- Node17 -->
<g id="node18" class="node">
<title>Node17</title>
<g id="a_node18"><a xlink:href="_int_field_8_h.html" target="_top" xlink:title="amr&#45;wind/core/IntField.H">
<polygon fill="#ffffff" stroke="#000000" points="1429.5,-112.5 1429.5,-131.5 1553.5,-131.5 1553.5,-112.5 1429.5,-112.5"/>
<text text-anchor="middle" x="1491.5" y="-119.5" font-family="Helvetica,sans-Serif" font-size="10.00" fill="#000000">amr&#45;wind/core/IntField.H</text>
</a>
</g>
</g>
<!-- Node2&#45;&gt;Node17 -->
<g id="edge25" class="edge">
<title>Node2&#45;&gt;Node17</title>
<path fill="none" stroke="#191970" d="M1192.9772,-168.4369C1256.0122,-158.6314 1353.9563,-143.3957 1420.3155,-133.0731"/>
<polygon fill="#191970" stroke="#191970" points="1420.9332,-136.5192 1430.2764,-131.5237 1419.8572,-129.6024 1420.9332,-136.5192"/>
</g>
<!-- Node18 -->
<g id="node19" class="node">
<title>Node18</title>
<polygon fill="#ffffff" stroke="#bfbfbf" points="1404,-56.5 1404,-75.5 1511,-75.5 1511,-56.5 1404,-56.5"/>
<text text-anchor="middle" x="1457.5" y="-63.5" font-family="Helvetica,sans-Serif" font-size="10.00" fill="#000000">AMReX_iMultiFab.H</text>
</g>
<!-- Node2&#45;&gt;Node18 -->
<g id="edge38" class="edge">
<title>Node2&#45;&gt;Node18</title>
<path fill="none" stroke="#191970" d="M1159.2946,-168.4509C1217.8778,-148.3242 1354.0639,-101.5363 1420.1693,-78.8253"/>
<polygon fill="#191970" stroke="#191970" points="1421.4556,-82.0842 1429.7758,-75.5249 1419.1811,-75.464 1421.4556,-82.0842"/>
</g>
<!-- Node19 -->
<g id="node20" class="node">
<title>Node19</title>
<g id="a_node20"><a xlink:href="_scratch_field_8_h.html" target="_top" xlink:title="amr&#45;wind/core/ScratchField.H">
<polygon fill="#ffffff" stroke="#000000" points="386.5,-112.5 386.5,-131.5 532.5,-131.5 532.5,-112.5 386.5,-112.5"/>
<text text-anchor="middle" x="459.5" y="-119.5" font-family="Helvetica,sans-Serif" font-size="10.00" fill="#000000">amr&#45;wind/core/ScratchField.H</text>
</a>
</g>
</g>
<!-- Node2&#45;&gt;Node19 -->
<g id="edge29" class="edge">
<title>Node2&#45;&gt;Node19</title>
<path fill="none" stroke="#191970" d="M1063.3669,-172.3222C939.3831,-161.9903 677.3146,-140.1512 542.8826,-128.9486"/>
<polygon fill="#191970" stroke="#191970" points="542.8966,-125.4377 532.6405,-128.095 542.3153,-132.4135 542.8966,-125.4377"/>
</g>
<!-- Node21 -->
<g id="node22" class="node">
<title>Node21</title>
<polygon fill="#ffffff" stroke="#bfbfbf" points="1078.5,-112.5 1078.5,-131.5 1184.5,-131.5 1184.5,-112.5 1078.5,-112.5"/>
<text text-anchor="middle" x="1131.5" y="-119.5" font-family="Helvetica,sans-Serif" font-size="10.00" fill="#000000">AMReX_AmrCore.H</text>
</g>
<!-- Node2&#45;&gt;Node21 -->
<g id="edge36" class="edge">
<title>Node2&#45;&gt;Node21</title>
<path fill="none" stroke="#191970" d="M1131.5,-168.2455C1131.5,-160.9382 1131.5,-150.6944 1131.5,-141.7046"/>
<polygon fill="#191970" stroke="#191970" points="1135.0001,-141.6426 1131.5,-131.6427 1128.0001,-141.6427 1135.0001,-141.6426"/>
</g>
<!-- Node6&#45;&gt;Node5 -->
<g id="edge7" class="edge">
<title>Node6&#45;&gt;Node5</title>
<path fill="none" stroke="#191970" d="M133.1764,-59.0208C228.1511,-49.0795 402.7189,-30.807 509.8105,-19.5974"/>
<polygon fill="#191970" stroke="#191970" points="510.3773,-23.0573 519.9586,-18.5352 509.6485,-16.0953 510.3773,-23.0573"/>
</g>
<!-- Node6&#45;&gt;Node7 -->
<g id="edge8" class="edge">
<title>Node6&#45;&gt;Node7</title>
<path fill="none" stroke="#191970" d="M89.3635,-56.3733C110.905,-47.3032 143.3838,-33.6279 167.4956,-23.4755"/>
<polygon fill="#191970" stroke="#191970" points="169.0767,-26.6075 176.9348,-19.5011 166.3603,-20.156 169.0767,-26.6075"/>
</g>
<!-- Node8 -->
<g id="node9" class="node">
<title>Node8</title>
<polygon fill="#ffffff" stroke="#bfbfbf" points="8.5,-.5 8.5,-19.5 124.5,-19.5 124.5,-.5 8.5,-.5"/>
<text text-anchor="middle" x="66.5" y="-7.5" font-family="Helvetica,sans-Serif" font-size="10.00" fill="#000000">AMReX_Interpolater.H</text>
</g>
<!-- Node6&#45;&gt;Node8 -->
<g id="edge9" class="edge">
<title>Node6&#45;&gt;Node8</title>
<path fill="none" stroke="#191970" d="M66.5,-56.2455C66.5,-48.9382 66.5,-38.6944 66.5,-29.7046"/>
<polygon fill="#191970" stroke="#191970" points="70.0001,-29.6426 66.5,-19.6427 63.0001,-29.6427 70.0001,-29.6426"/>
</g>
<!-- Node9&#45;&gt;Node3 -->
<g id="edge11" class="edge">
<title>Node9&#45;&gt;Node3</title>
<path fill="none" stroke="#191970" d="M1004.1555,-116.8545C1087.9082,-108.756 1236.9194,-92.2759 1255.5,-76 1268.5081,-64.6053 1272.8755,-44.9385 1274.2175,-30.0295"/>
<polygon fill="#191970" stroke="#191970" points="1277.7267,-29.9389 1274.747,-19.7717 1270.736,-29.5779 1277.7267,-29.9389"/>
</g>
<!-- Node9&#45;&gt;Node4 -->
<g id="edge13" class="edge">
<title>Node9&#45;&gt;Node4</title>
<path fill="none" stroke="#191970" d="M1004.0232,-115.1241C1071.7528,-106.712 1188.6124,-91.6485 1288.5,-76 1289.9636,-75.7707 1291.4479,-75.534 1292.9455,-75.2914"/>
<polygon fill="#191970" stroke="#191970" points="1293.6552,-78.7215 1302.9432,-73.6241 1292.5037,-71.8168 1293.6552,-78.7215"/>
</g>
<!-- Node9&#45;&gt;Node5 -->
<g id="edge19" class="edge">
<title>Node9&#45;&gt;Node5</title>
<path fill="none" stroke="#191970" d="M890.6153,-112.418C849.4248,-104.6855 792.7424,-92.3962 744.5,-76 702.5836,-61.7538 656.4871,-39.1275 628.2649,-24.4198"/>
<polygon fill="#191970" stroke="#191970" points="629.543,-21.1372 619.064,-19.5745 626.2813,-27.3309 629.543,-21.1372"/>
</g>
<!-- Node9&#45;&gt;Node7 -->
<g id="edge15" class="edge">
<title>Node9&#45;&gt;Node7</title>
<path fill="none" stroke="#191970" d="M890.7896,-119.3624C802.2048,-114.5867 625.8666,-102.4428 478.5,-76 444.1213,-69.8312 436.426,-64.3052 402.5,-56 352.0768,-43.6563 294.3206,-30.6809 253.3392,-21.6698"/>
<polygon fill="#191970" stroke="#191970" points="254.0755,-18.2481 243.5578,-19.5242 252.5756,-25.0856 254.0755,-18.2481"/>
</g>
<!-- Node10 -->
<g id="node11" class="node">
<title>Node10</title>
<polygon fill="#ffffff" stroke="#bfbfbf" points="753.5,-56.5 753.5,-75.5 805.5,-75.5 805.5,-56.5 753.5,-56.5"/>
<text text-anchor="middle" x="779.5" y="-63.5" font-family="Helvetica,sans-Serif" font-size="10.00" fill="#000000">memory</text>
</g>
<!-- Node9&#45;&gt;Node10 -->
<g id="edge12" class="edge">
<title>Node9&#45;&gt;Node10</title>
<path fill="none" stroke="#191970" d="M918.6198,-112.3733C889.922,-102.8073 845.8569,-88.119 815.0304,-77.8435"/>
<polygon fill="#191970" stroke="#191970" points="816.1169,-74.5164 805.5233,-74.6744 813.9033,-81.1572 816.1169,-74.5164"/>
</g>
<!-- Node11 -->
<g id="node12" class="node">
<title>Node11</title>
<polygon fill="#ffffff" stroke="#bfbfbf" points="823.5,-56.5 823.5,-75.5 879.5,-75.5 879.5,-56.5 823.5,-56.5"/>
<text text-anchor="middle" x="851.5" y="-63.5" font-family="Helvetica,sans-Serif" font-size="10.00" fill="#000000">algorithm</text>
</g>
<!-- Node9&#45;&gt;Node11 -->
<g id="edge14" class="edge">
<title>Node9&#45;&gt;Node11</title>
<path fill="none" stroke="#191970" d="M930.7781,-112.2455C915.9111,-103.5731 893.9534,-90.7645 876.9142,-80.825"/>
<polygon fill="#191970" stroke="#191970" points="878.4317,-77.6582 868.0303,-75.6427 874.9045,-83.7047 878.4317,-77.6582"/>
</g>
<!-- Node12 -->
<g id="node13" class="node">
<title>Node12</title>
<polygon fill="#ffffff" stroke="#bfbfbf" points="898,-56.5 898,-75.5 997,-75.5 997,-56.5 898,-56.5"/>
<text text-anchor="middle" x="947.5" y="-63.5" font-family="Helvetica,sans-Serif" font-size="10.00" fill="#000000">AMReX_BCRec.H</text>
</g>
<!-- Node9&#45;&gt;Node12 -->
<g id="edge16" class="edge">
<title>Node9&#45;&gt;Node12</title>
<path fill="none" stroke="#191970" d="M947.5,-112.2455C947.5,-104.9382 947.5,-94.6944 947.5,-85.7046"/>
<polygon fill="#191970" stroke="#191970" points="951.0001,-85.6426 947.5,-75.6427 944.0001,-85.6427 951.0001,-85.6426"/>
</g>
<!-- Node13 -->
<g id="node14" class="node">
<title>Node13</title>
<polygon fill="#ffffff" stroke="#bfbfbf" points="1015,-56.5 1015,-75.5 1100,-75.5 1100,-56.5 1015,-56.5"/>
<text text-anchor="middle" x="1057.5" y="-63.5" font-family="Helvetica,sans-Serif" font-size="10.00" fill="#000000">AMReX_Gpu.H</text>
</g>
<!-- Node9&#45;&gt;Node13 -->
<g id="edge17" class="edge">
<title>Node9&#45;&gt;Node13</title>
<path fill="none" stroke="#191970" d="M966.6605,-112.2455C984.0111,-103.4125 1009.7901,-90.2887 1029.4583,-80.2758"/>
<polygon fill="#191970" stroke="#191970" points="1031.2353,-83.2986 1038.559,-75.6427 1028.0595,-77.0605 1031.2353,-83.2986"/>
</g>
<!-- Node14 -->
<g id="node15" class="node">
<title>Node14</title>
<g id="a_node15"><a xlink:href="incflo__enums_8_h.html" target="_top" xlink:title="amr&#45;wind/incflo_enums.H">
<polygon fill="#ffffff" stroke="#000000" points="1118.5,-56.5 1118.5,-75.5 1246.5,-75.5 1246.5,-56.5 1118.5,-56.5"/>
<text text-anchor="middle" x="1182.5" y="-63.5" font-family="Helvetica,sans-Serif" font-size="10.00" fill="#000000">amr&#45;wind/incflo_enums.H</text>
</a>
</g>
</g>
<!-- Node9&#45;&gt;Node14 -->
<g id="edge18" class="edge">
<title>Node9&#45;&gt;Node14</title>
<path fill="none" stroke="#191970" d="M987.6309,-112.4369C1027.7649,-102.8731 1089.5775,-88.1432 1132.7933,-77.845"/>
<polygon fill="#191970" stroke="#191970" points="1133.6183,-81.2465 1142.5346,-75.5237 1131.9956,-74.4372 1133.6183,-81.2465"/>
</g>
<!-- Node15 -->
<g id="node16" class="node">
<title>Node15</title>
<g id="a_node16"><a xlink:href="_view_field_8_h.html" target="_top" xlink:title="amr&#45;wind/core/ViewField.H">
<polygon fill="#ffffff" stroke="#000000" points="487.5,-56.5 487.5,-75.5 621.5,-75.5 621.5,-56.5 487.5,-56.5"/>
<text text-anchor="middle" x="554.5" y="-63.5" font-family="Helvetica,sans-Serif" font-size="10.00" fill="#000000">amr&#45;wind/core/ViewField.H</text>
</a>
</g>
</g>
<!-- Node9&#45;&gt;Node15 -->
<g id="edge20" class="edge">
<title>Node9&#45;&gt;Node15</title>
<path fill="none" stroke="#191970" d="M890.7741,-113.9169C822.5226,-104.1915 707.626,-87.8195 631.4298,-76.962"/>
<polygon fill="#191970" stroke="#191970" points="631.8022,-73.4798 621.4084,-75.534 630.8146,-80.4098 631.8022,-73.4798"/>
</g>
<!-- Node15&#45;&gt;Node3 -->
<g id="edge21" class="edge">
<title>Node15&#45;&gt;Node3</title>
<path fill="none" stroke="#191970" d="M621.5193,-60.2801C638.4775,-58.857 656.6572,-57.3522 673.5,-56 892.041,-38.4544 1155.4133,-18.8174 1243.8611,-12.2641"/>
<polygon fill="#191970" stroke="#191970" points="1244.2852,-15.7424 1253.9994,-11.5135 1243.7683,-8.7615 1244.2852,-15.7424"/>
</g>
<!-- Node15&#45;&gt;Node5 -->
<g id="edge22" class="edge">
<title>Node15&#45;&gt;Node5</title>
<path fill="none" stroke="#191970" d="M562.6868,-56.2455C569.3589,-48.2958 578.9479,-36.8706 586.9253,-27.3656"/>
<polygon fill="#191970" stroke="#191970" points="589.6592,-29.5525 593.407,-19.6427 584.2974,-25.0524 589.6592,-29.5525"/>
</g>
<!-- Node15&#45;&gt;Node7 -->
<g id="edge23" class="edge">
<title>Node15&#45;&gt;Node7</title>
<path fill="none" stroke="#191970" d="M493.8767,-56.4369C429.2132,-46.2364 327.296,-30.1594 261.9435,-19.8502"/>
<polygon fill="#191970" stroke="#191970" points="262.2034,-16.348 251.7801,-18.247 261.1126,-23.2625 262.2034,-16.348"/>
</g>
<!-- Node16 -->
<g id="node17" class="node">
<title>Node16</title>
<polygon fill="#ffffff" stroke="#bfbfbf" points="362,-.5 362,-19.5 457,-19.5 457,-.5 362,-.5"/>
<text text-anchor="middle" x="409.5" y="-7.5" font-family="Helvetica,sans-Serif" font-size="10.00" fill="#000000">AMReX_Vector.H</text>
</g>
<!-- Node15&#45;&gt;Node16 -->
<g id="edge24" class="edge">
<title>Node15&#45;&gt;Node16</title>
<path fill="none" stroke="#191970" d="M529.5736,-56.3733C505.8798,-47.2226 470.0489,-33.3844 443.6932,-23.2057"/>
<polygon fill="#191970" stroke="#191970" points="444.6906,-19.8389 434.1011,-19.5011 442.1686,-26.3689 444.6906,-19.8389"/>
</g>
<!-- Node17&#45;&gt;Node3 -->
<g id="edge26" class="edge">
<title>Node17&#45;&gt;Node3</title>
<path fill="none" stroke="#191970" d="M1511.9564,-112.443C1536.1964,-99.8518 1571.1997,-76.8568 1553.5,-56 1537.5576,-37.2139 1375.0355,-19.6027 1305.6391,-12.877"/>
<polygon fill="#191970" stroke="#191970" points="1305.6253,-9.3599 1295.3376,-11.8926 1304.9593,-16.3281 1305.6253,-9.3599"/>
</g>
<!-- Node17&#45;&gt;Node5 -->
<g id="edge27" class="edge">
<title>Node17&#45;&gt;Node5</title>
<path fill="none" stroke="#191970" d="M1501.5207,-112.2954C1514.8252,-98.2682 1534.9407,-72.2338 1519.5,-56 1491.3389,-26.3924 920.431,-14.7141 693.422,-11.2293"/>
<polygon fill="#191970" stroke="#191970" points="693.2539,-7.7265 683.202,-11.0744 693.1478,-14.7257 693.2539,-7.7265"/>
</g>
<!-- Node17&#45;&gt;Node18 -->
<g id="edge28" class="edge">
<title>Node17&#45;&gt;Node18</title>
<path fill="none" stroke="#191970" d="M1485.5777,-112.2455C1480.8973,-104.5367 1474.2327,-93.5598 1468.5711,-84.2348"/>
<polygon fill="#191970" stroke="#191970" points="1471.5361,-82.3741 1463.3545,-75.6427 1465.5525,-86.007 1471.5361,-82.3741"/>
</g>
<!-- Node19&#45;&gt;Node3 -->
<g id="edge30" class="edge">
<title>Node19&#45;&gt;Node3</title>
<path fill="none" stroke="#191970" d="M493.8496,-112.3881C547.0906,-97.8677 652.9519,-70.499 744.5,-56 932.6382,-26.2034 1161.6259,-14.5611 1243.5364,-11.1609"/>
<polygon fill="#191970" stroke="#191970" points="1243.8122,-14.6527 1253.6628,-10.7519 1243.5296,-7.6584 1243.8122,-14.6527"/>
</g>
<!-- Node19&#45;&gt;Node5 -->
<g id="edge31" class="edge">
<title>Node19&#45;&gt;Node5</title>
<path fill="none" stroke="#191970" d="M459.6753,-112.1684C460.4519,-97.983 463.9236,-71.7535 478.5,-56 493.404,-39.8924 514.4895,-29.3944 535.0008,-22.5649"/>
<polygon fill="#191970" stroke="#191970" points="536.1472,-25.8741 544.676,-19.5884 534.0889,-19.1836 536.1472,-25.8741"/>
</g>
<!-- Node19&#45;&gt;Node7 -->
<g id="edge33" class="edge">
<title>Node19&#45;&gt;Node7</title>
<path fill="none" stroke="#191970" d="M389.706,-112.4844C336.9627,-104.278 269.8022,-91.3449 246.5,-76 228.9602,-64.4497 215.8932,-43.9241 208.0476,-28.8202"/>
<polygon fill="#191970" stroke="#191970" points="211.1874,-27.2736 203.6513,-19.8266 204.8985,-30.3477 211.1874,-27.2736"/>
</g>
<!-- Node19&#45;&gt;Node15 -->
<g id="edge32" class="edge">
<title>Node19&#45;&gt;Node15</title>
<path fill="none" stroke="#191970" d="M476.0477,-112.2455C490.7599,-103.5731 512.4888,-90.7645 529.3505,-80.825"/>
<polygon fill="#191970" stroke="#191970" points="531.3046,-83.736 538.1419,-75.6427 527.7498,-77.7057 531.3046,-83.736"/>
</g>
<!-- Node19&#45;&gt;Node16 -->
<g id="edge34" class="edge">
<title>Node19&#45;&gt;Node16</title>
<path fill="none" stroke="#191970" d="M386.2563,-114.9635C334.9388,-108.3428 272.738,-96.3293 256.5,-76 227.0962,-39.1878 297.0287,-22.5021 351.8057,-15.2335"/>
<polygon fill="#191970" stroke="#191970" points="352.3402,-18.6941 361.83,-13.9832 351.4737,-11.7479 352.3402,-18.6941"/>
</g>
<!-- Node20 -->
<g id="node21" class="node">
<title>Node20</title>
<polygon fill="#ffffff" stroke="#bfbfbf" points="265.5,-56.5 265.5,-75.5 393.5,-75.5 393.5,-56.5 265.5,-56.5"/>
<text text-anchor="middle" x="329.5" y="-63.5" font-family="Helvetica,sans-Serif" font-size="10.00" fill="#000000">AMReX_PhysBCFunct.H</text>
</g>
<!-- Node19&#45;&gt;Node20 -->
<g id="edge35" class="edge">
<title>Node19&#45;&gt;Node20</title>
<path fill="none" stroke="#191970" d="M437.1522,-112.3733C416.0967,-103.3032 384.3505,-89.6279 360.7825,-79.4755"/>
<polygon fill="#191970" stroke="#191970" points="362.125,-76.243 351.5562,-75.5011 359.3556,-82.6719 362.125,-76.243"/>
</g>
<!-- Node23 -->
<g id="node24" class="node">
<title>Node23</title>
<polygon fill="#ffffff" stroke="#bfbfbf" points="1776,-112.5 1776,-131.5 1869,-131.5 1869,-112.5 1776,-112.5"/>
<text text-anchor="middle" x="1822.5" y="-119.5" font-family="Helvetica,sans-Serif" font-size="10.00" fill="#000000">AMReX_REAL.H</text>
</g>
<!-- Node22&#45;&gt;Node23 -->
<g id="edge40" class="edge">
<title>Node22&#45;&gt;Node23</title>
<path fill="none" stroke="#191970" d="M1829.9323,-168.2455C1828.7579,-160.9382 1827.1116,-150.6944 1825.6668,-141.7046"/>
<polygon fill="#191970" stroke="#191970" points="1829.0922,-140.9606 1824.0497,-131.6427 1822.1809,-142.0714 1829.0922,-140.9606"/>
</g>
<!-- Node24 -->
<g id="node25" class="node">
<title>Node24</title>
<polygon fill="#ffffff" stroke="#bfbfbf" points="1887.5,-112.5 1887.5,-131.5 1971.5,-131.5 1971.5,-112.5 1887.5,-112.5"/>
<text text-anchor="middle" x="1929.5" y="-119.5" font-family="Helvetica,sans-Serif" font-size="10.00" fill="#000000">AMReX_Box.H</text>
</g>
<!-- Node22&#45;&gt;Node24 -->
<g id="edge41" class="edge">
<title>Node22&#45;&gt;Node24</title>
<path fill="none" stroke="#191970" d="M1848.5703,-168.2455C1863.747,-159.5731 1886.1621,-146.7645 1903.5563,-136.825"/>
<polygon fill="#191970" stroke="#191970" points="1905.6794,-139.643 1912.6253,-131.6427 1902.2064,-133.5653 1905.6794,-139.643"/>
</g>
<!-- Node25 -->
<g id="node26" class="node">
<title>Node25</title>
<polygon fill="#ffffff" stroke="#bfbfbf" points="1643.5,-112.5 1643.5,-131.5 1757.5,-131.5 1757.5,-112.5 1643.5,-112.5"/>
<text text-anchor="middle" x="1700.5" y="-119.5" font-family="Helvetica,sans-Serif" font-size="10.00" fill="#000000">AMReX_Orientation.H</text>
</g>
<!-- Node22&#45;&gt;Node25 -->
<g id="edge42" class="edge">
<title>Node22&#45;&gt;Node25</title>
<path fill="none" stroke="#191970" d="M1808.9803,-168.3733C1787.7628,-159.3032 1755.7724,-145.6279 1732.0231,-135.4755"/>
<polygon fill="#191970" stroke="#191970" points="1733.2967,-132.2136 1722.7258,-131.5011 1730.5452,-138.6502 1733.2967,-132.2136"/>
</g>
<!-- Node22&#45;&gt;Node26 -->
<g id="edge43" class="edge">
<title>Node22&#45;&gt;Node26</title>
<path fill="none" stroke="#191970" d="M1868.116,-168.3733C1904.148,-158.9001 1959.2878,-144.4032 1998.3114,-134.1435"/>
<polygon fill="#191970" stroke="#191970" points="1999.5804,-137.4289 2008.3618,-131.5011 1997.8005,-130.6589 1999.5804,-137.4289"/>
</g>
</g>
</svg>
        <g id="navigator" transform="translate(0 0)" fill="#404254">
                <rect fill="#f2f5e9" fill-opacity="0.5" stroke="#606060" stroke-width=".5" x="0" y="0" width="60" height="60"/>
                <use id="zoomplus" xlink:href="#zoomPlus" x="17" y="9" onmousedown="handleZoom(evt,'in')"/>
                <use id="zoomminus" xlink:href="#zoomMin" x="42" y="9" onmousedown="handleZoom(evt,'out')"/>
                <use id="reset" xlink:href="#resetDef" x="30" y="36" onmousedown="handleReset()"/>
                <g id="arrowUp" xlink:href="#dirArrow" transform="translate(30 24)" onmousedown="handlePan(0,-1)">
                  <use xlink:href="#rim" fill="#404040">
                        <set attributeName="fill" to="#808080" begin="arrowUp.mouseover" end="arrowUp.mouseout"/>
                  </use>
                  <path fill="none" stroke="white" stroke-width="1.5" d="M0,-3.0v7 M-2.5,-0.5L0,-3.0L2.5,-0.5"/>
                </g>
                <g id="arrowRight" xlink:href="#dirArrow" transform="rotate(90) translate(36 -43)" onmousedown="handlePan(1,0)">
                  <use xlink:href="#rim" fill="#404040">
                        <set attributeName="fill" to="#808080" begin="arrowRight.mouseover" end="arrowRight.mouseout"/>
                  </use>
                  <path fill="none" stroke="white" stroke-width="1.5" d="M0,-3.0v7 M-2.5,-0.5L0,-3.0L2.5,-0.5"/>
                </g>
                <g id="arrowDown" xlink:href="#dirArrow" transform="rotate(180) translate(-30 -48)" onmousedown="handlePan(0,1)">
                  <use xlink:href="#rim" fill="#404040">
                        <set attributeName="fill" to="#808080" begin="arrowDown.mouseover" end="arrowDown.mouseout"/>
                  </use>
                  <path fill="none" stroke="white" stroke-width="1.5" d="M0,-3.0v7 M-2.5,-0.5L0,-3.0L2.5,-0.5"/>
                </g>
                <g id="arrowLeft" xlink:href="#dirArrow" transform="rotate(270) translate(-36 17)" onmousedown="handlePan(-1,0)">
                  <use xlink:href="#rim" fill="#404040">
                        <set attributeName="fill" to="#808080" begin="arrowLeft.mouseover" end="arrowLeft.mouseout"/>
                  </use>
                  <path fill="none" stroke="white" stroke-width="1.5" d="M0,-3.0v7 M-2.5,-0.5L0,-3.0L2.5,-0.5"/>
                </g>
        </g>
        <svg viewBox="0 0 15 15" width="100%" height="30px" preserveAspectRatio="xMaxYMin meet">
         <g id="arrow_out" transform="scale(0.3 0.3)">
          <a xlink:href="divergence_8_h__incl_org.svg" target="_base">
           <rect id="button" ry="5" rx="5" y="6" x="6" height="38" width="38"
                fill="#f2f5e9" fill-opacity="0.5" stroke="#606060" stroke-width="1.0"/>
           <path id="arrow"
             d="M 11.500037,31.436501 C 11.940474,20.09759 22.043105,11.32322 32.158766,21.979434 L 37.068811,17.246167 C 37.068811,17.246167 37.088388,32 37.088388,32 L 22.160133,31.978069 C 22.160133,31.978069 26.997745,27.140456 26.997745,27.140456 C 18.528582,18.264221 13.291696,25.230495 11.500037,31.436501 z"
             style="fill:#404040;"/>
          </a>
         </g>
        </svg>
</svg>
