<?xml version="1.0" encoding="UTF-8" standalone="no"?>
<!DOCTYPE svg PUBLIC "-//W3C//DTD SVG 1.1//EN"
 "http://www.w3.org/Graphics/SVG/1.1/DTD/svg11.dtd">
<!-- Generated by graphviz version 2.40.1 (20161225.0304)
 -->
<!-- Title: fast_types.H Pages: 1 -->
<svg width="182pt" height="106pt"
 viewBox="0.00 0.00 181.50 106.00" xmlns="http://www.w3.org/2000/svg" xmlns:xlink="http://www.w3.org/1999/xlink">
<g id="graph0" class="graph" transform="scale(1 1) rotate(0) translate(4 102)">
<title>fast_types.H</title>
<polygon fill="#ffffff" stroke="transparent" points="-4,4 -4,-102 177.5,-102 177.5,4 -4,4"/>
<!-- Node0 -->
<g id="node1" class="node">
<title>Node0</title>
<polygon fill="#bfbfbf" stroke="#000000" points="68.5,-78.5 68.5,-97.5 141.5,-97.5 141.5,-78.5 68.5,-78.5"/>
<text text-anchor="middle" x="105" y="-85.5" font-family="Helvetica,sans-Serif" font-size="10.00" fill="#000000">fast_types.H</text>
</g>
<!-- Node1 -->
<g id="node2" class="node">
<title>Node1</title>
<g id="a_node2"><a xlink:href="fast__wrapper_8_h.html" target="_top" xlink:title="amr&#45;wind/wind_energy\l/actuator/turbine/fast\l/fast_wrapper.H">
<polygon fill="#ffffff" stroke="#000000" points="0,-.5 0,-41.5 114,-41.5 114,-.5 0,-.5"/>
<text text-anchor="start" x="8" y="-29.5" font-family="Helvetica,sans-Serif" font-size="10.00" fill="#000000">amr&#45;wind/wind_energy</text>
<text text-anchor="start" x="8" y="-18.5" font-family="Helvetica,sans-Serif" font-size="10.00" fill="#000000">/actuator/turbine/fast</text>
<text text-anchor="middle" x="57" y="-7.5" font-family="Helvetica,sans-Serif" font-size="10.00" fill="#000000">/fast_wrapper.H</text>
</a>
</g>
</g>
<!-- Node0&#45;&gt;Node1 -->
<g id="edge1" class="edge">
<title>Node0&#45;&gt;Node1</title>
<path fill="none" stroke="#191970" d="M98.1228,-78.4005C92.7762,-70.9376 85.064,-60.1727 77.7598,-49.9772"/>
<polygon fill="#191970" stroke="#191970" points="80.4501,-47.7226 71.781,-41.6318 74.7597,-51.7993 80.4501,-47.7226"/>
</g>
<!-- Node2 -->
<g id="node3" class="node">
<title>Node2</title>
<polygon fill="#ffffff" stroke="#bfbfbf" points="132.5,-11.5 132.5,-30.5 173.5,-30.5 173.5,-11.5 132.5,-11.5"/>
<text text-anchor="middle" x="153" y="-18.5" font-family="Helvetica,sans-Serif" font-size="10.00" fill="#000000">string</text>
</g>
<!-- Node0&#45;&gt;Node2 -->
<g id="edge2" class="edge">
<title>Node0&#45;&gt;Node2</title>
<path fill="none" stroke="#191970" d="M111.8772,-78.4005C119.2198,-68.1515 131.0241,-51.6747 140.1062,-38.9976"/>
<polygon fill="#191970" stroke="#191970" points="143.1568,-40.7492 146.1355,-30.5817 137.4664,-36.6724 143.1568,-40.7492"/>
</g>
</g>
</svg>
