<?xml version="1.0" encoding="UTF-8" standalone="no"?>
<!DOCTYPE svg PUBLIC "-//W3C//DTD SVG 1.1//EN"
 "http://www.w3.org/Graphics/SVG/1.1/DTD/svg11.dtd">
<!-- Generated by graphviz version 2.40.1 (20161225.0304)
 -->
<!-- Title: fast_types.H Pages: 1 -->
<svg width="186pt" height="252pt"
 viewBox="0.00 0.00 186.00 252.00" xmlns="http://www.w3.org/2000/svg" xmlns:xlink="http://www.w3.org/1999/xlink">
<g id="graph0" class="graph" transform="scale(1 1) rotate(0) translate(4 248)">
<title>fast_types.H</title>
<polygon fill="#ffffff" stroke="transparent" points="-4,4 -4,-248 182,-248 182,4 -4,4"/>
<!-- Node3 -->
<g id="node1" class="node">
<title>Node3</title>
<polygon fill="#bfbfbf" stroke="#000000" points="67,-224.5 67,-243.5 140,-243.5 140,-224.5 67,-224.5"/>
<text text-anchor="middle" x="103.5" y="-231.5" font-family="Helvetica,sans-Serif" font-size="10.00" fill="#000000">fast_types.H</text>
</g>
<!-- Node4 -->
<g id="node2" class="node">
<title>Node4</title>
<g id="a_node2"><a xlink:href="_fast_iface_8_h.html" target="_top" xlink:title="FastIface.H">
<polygon fill="#ffffff" stroke="#000000" points="38.5,-168.5 38.5,-187.5 106.5,-187.5 106.5,-168.5 38.5,-168.5"/>
<text text-anchor="middle" x="72.5" y="-175.5" font-family="Helvetica,sans-Serif" font-size="10.00" fill="#000000">FastIface.H</text>
</a>
</g>
</g>
<!-- Node3&#45;&gt;Node4 -->
<g id="edge1" class="edge">
<title>Node3&#45;&gt;Node4</title>
<path fill="none" stroke="#191970" d="M93.1688,-215.3372C88.0335,-206.0605 82.0434,-195.2398 77.8379,-187.6427"/>
<polygon fill="#191970" stroke="#191970" points="90.1949,-217.1917 98.1002,-224.2455 96.3191,-213.8015 90.1949,-217.1917"/>
</g>
<!-- Node6 -->
<g id="node4" class="node">
<title>Node6</title>
<g id="a_node4"><a xlink:href="_turbine_fast_8_h.html" target="_top" xlink:title="TurbineFast.H">
<polygon fill="#ffffff" stroke="#000000" points="95,-112.5 95,-131.5 174,-131.5 174,-112.5 95,-112.5"/>
<text text-anchor="middle" x="134.5" y="-119.5" font-family="Helvetica,sans-Serif" font-size="10.00" fill="#000000">TurbineFast.H</text>
</a>
</g>
</g>
<!-- Node3&#45;&gt;Node6 -->
<g id="edge7" class="edge">
<title>Node3&#45;&gt;Node6</title>
<path fill="none" stroke="#191970" d="M108.87,-214.5987C115.5781,-190.363 126.7901,-149.8551 131.8636,-131.5249"/>
<polygon fill="#191970" stroke="#191970" points="105.4375,-213.8796 106.143,-224.4509 112.1839,-215.747 105.4375,-213.8796"/>
</g>
<!-- Node5 -->
<g id="node3" class="node">
<title>Node5</title>
<g id="a_node3"><a xlink:href="_fast_iface_8cpp.html" target="_top" xlink:title="FastIface.cpp">
<polygon fill="#ffffff" stroke="#000000" points="0,-112.5 0,-131.5 77,-131.5 77,-112.5 0,-112.5"/>
<text text-anchor="middle" x="38.5" y="-119.5" font-family="Helvetica,sans-Serif" font-size="10.00" fill="#000000">FastIface.cpp</text>
</a>
</g>
</g>
<!-- Node4&#45;&gt;Node5 -->
<g id="edge2" class="edge">
<title>Node4&#45;&gt;Node5</title>
<path fill="none" stroke="#191970" d="M61.3465,-159.6296C55.6753,-150.2887 49.0155,-139.3197 44.3545,-131.6427"/>
<polygon fill="#191970" stroke="#191970" points="58.3961,-161.5141 66.5777,-168.2455 64.3796,-157.8812 58.3961,-161.5141"/>
</g>
<!-- Node4&#45;&gt;Node6 -->
<g id="edge3" class="edge">
<title>Node4&#45;&gt;Node6</title>
<path fill="none" stroke="#191970" d="M90.9221,-161.3607C101.6481,-151.6727 114.7934,-139.7995 123.8242,-131.6427"/>
<polygon fill="#191970" stroke="#191970" points="88.3746,-158.9453 83.2996,-168.2455 93.0666,-164.14 88.3746,-158.9453"/>
</g>
<!-- Node7 -->
<g id="node5" class="node">
<title>Node7</title>
<g id="a_node5"><a xlink:href="turbine__fast__ops_8_h.html" target="_top" xlink:title="turbine_fast_ops.H">
<polygon fill="#ffffff" stroke="#000000" points="46,-56.5 46,-75.5 145,-75.5 145,-56.5 46,-56.5"/>
<text text-anchor="middle" x="95.5" y="-63.5" font-family="Helvetica,sans-Serif" font-size="10.00" fill="#000000">turbine_fast_ops.H</text>
</a>
</g>
</g>
<!-- Node6&#45;&gt;Node7 -->
<g id="edge4" class="edge">
<title>Node6&#45;&gt;Node7</title>
<path fill="none" stroke="#191970" d="M121.9092,-103.9209C115.3605,-94.5176 107.6176,-83.3997 102.2154,-75.6427"/>
<polygon fill="#191970" stroke="#191970" points="119.1196,-106.0397 127.7067,-112.2455 124.8639,-102.0392 119.1196,-106.0397"/>
</g>
<!-- Node8 -->
<g id="node6" class="node">
<title>Node8</title>
<g id="a_node6"><a xlink:href="_turbine_fast_8cpp.html" target="_top" xlink:title="TurbineFast.cpp">
<polygon fill="#ffffff" stroke="#000000" points="91,-.5 91,-19.5 178,-19.5 178,-.5 91,-.5"/>
<text text-anchor="middle" x="134.5" y="-7.5" font-family="Helvetica,sans-Serif" font-size="10.00" fill="#000000">TurbineFast.cpp</text>
</a>
</g>
</g>
<!-- Node6&#45;&gt;Node8 -->
<g id="edge6" class="edge">
<title>Node6&#45;&gt;Node8</title>
<path fill="none" stroke="#191970" d="M144.7469,-103.217C148.6196,-95.0983 152.5586,-85.3345 154.5,-76 158.7422,-55.6037 147.9781,-32.4433 140.6472,-19.6988"/>
<polygon fill="#191970" stroke="#191970" points="141.6097,-101.6647 140.1945,-112.1646 147.8486,-104.839 141.6097,-101.6647"/>
</g>
<!-- Node7&#45;&gt;Node8 -->
<g id="edge5" class="edge">
<title>Node7&#45;&gt;Node8</title>
<path fill="none" stroke="#191970" d="M108.0908,-47.9209C114.6395,-38.5176 122.3824,-27.3997 127.7846,-19.6427"/>
<polygon fill="#191970" stroke="#191970" points="105.1361,-46.0392 102.2933,-56.2455 110.8804,-50.0397 105.1361,-46.0392"/>
</g>
</g>
</svg>
