<?xml version="1.0" encoding="UTF-8" standalone="no"?>
<!DOCTYPE svg PUBLIC "-//W3C//DTD SVG 1.1//EN"
 "http://www.w3.org/Graphics/SVG/1.1/DTD/svg11.dtd">
<!-- Generated by graphviz version 2.40.1 (20161225.0304)
 -->
<!-- Title: fast_wrapper.H Pages: 1 -->
<svg width="186pt" height="308pt"
 viewBox="0.00 0.00 186.00 308.00" xmlns="http://www.w3.org/2000/svg" xmlns:xlink="http://www.w3.org/1999/xlink">
<g id="graph0" class="graph" transform="scale(1 1) rotate(0) translate(4 304)">
<title>fast_wrapper.H</title>
<polygon fill="#ffffff" stroke="transparent" points="-4,4 -4,-304 182,-304 182,4 -4,4"/>
<!-- Node1 -->
<g id="node1" class="node">
<title>Node1</title>
<polygon fill="#bfbfbf" stroke="#000000" points="60,-280.5 60,-299.5 143,-299.5 143,-280.5 60,-280.5"/>
<text text-anchor="middle" x="101.5" y="-287.5" font-family="Helvetica,sans-Serif" font-size="10.00" fill="#000000">fast_wrapper.H</text>
</g>
<!-- Node2 -->
<g id="node2" class="node">
<title>Node2</title>
<g id="a_node2"><a xlink:href="fast__types_8_h.html" target="_top" xlink:title="fast_types.H">
<polygon fill="#ffffff" stroke="#000000" points="98,-224.5 98,-243.5 171,-243.5 171,-224.5 98,-224.5"/>
<text text-anchor="middle" x="134.5" y="-231.5" font-family="Helvetica,sans-Serif" font-size="10.00" fill="#000000">fast_types.H</text>
</a>
</g>
</g>
<!-- Node1&#45;&gt;Node2 -->
<g id="edge1" class="edge">
<title>Node1&#45;&gt;Node2</title>
<path fill="none" stroke="#191970" d="M112.3254,-271.6296C117.8299,-262.2887 124.2937,-251.3197 128.8177,-243.6427"/>
<polygon fill="#191970" stroke="#191970" points="109.3097,-269.8532 107.2482,-280.2455 115.3405,-273.4071 109.3097,-269.8532"/>
</g>
<!-- Node3 -->
<g id="node3" class="node">
<title>Node3</title>
<g id="a_node3"><a xlink:href="_fast_iface_8_h.html" target="_top" xlink:title="FastIface.H">
<polygon fill="#ffffff" stroke="#000000" points="36.5,-168.5 36.5,-187.5 104.5,-187.5 104.5,-168.5 36.5,-168.5"/>
<text text-anchor="middle" x="70.5" y="-175.5" font-family="Helvetica,sans-Serif" font-size="10.00" fill="#000000">FastIface.H</text>
</a>
</g>
</g>
<!-- Node1&#45;&gt;Node3 -->
<g id="edge9" class="edge">
<title>Node1&#45;&gt;Node3</title>
<path fill="none" stroke="#191970" d="M96.0121,-270.7317C93.679,-262.5011 90.9392,-252.7848 88.5,-244 82.9711,-224.0877 76.6425,-200.7533 73.1555,-187.8477"/>
<polygon fill="#191970" stroke="#191970" points="92.6855,-271.8298 98.7856,-280.4924 99.419,-269.9165 92.6855,-271.8298"/>
</g>
<!-- Node2&#45;&gt;Node3 -->
<g id="edge2" class="edge">
<title>Node2&#45;&gt;Node3</title>
<path fill="none" stroke="#191970" d="M115.8086,-217.645C104.6781,-207.9058 90.9337,-195.8795 81.5202,-187.6427"/>
<polygon fill="#191970" stroke="#191970" points="113.5215,-220.2945 123.3521,-224.2455 118.131,-215.0264 113.5215,-220.2945"/>
</g>
<!-- Node5 -->
<g id="node5" class="node">
<title>Node5</title>
<g id="a_node5"><a xlink:href="_turbine_fast_8_h.html" target="_top" xlink:title="TurbineFast.H">
<polygon fill="#ffffff" stroke="#000000" points="95,-112.5 95,-131.5 174,-131.5 174,-112.5 95,-112.5"/>
<text text-anchor="middle" x="134.5" y="-119.5" font-family="Helvetica,sans-Serif" font-size="10.00" fill="#000000">TurbineFast.H</text>
</a>
</g>
</g>
<!-- Node2&#45;&gt;Node5 -->
<g id="edge8" class="edge">
<title>Node2&#45;&gt;Node5</title>
<path fill="none" stroke="#191970" d="M134.5,-214.2702C134.5,-189.9985 134.5,-149.7725 134.5,-131.5249"/>
<polygon fill="#191970" stroke="#191970" points="131.0001,-214.4509 134.5,-224.4509 138.0001,-214.451 131.0001,-214.4509"/>
</g>
<!-- Node4 -->
<g id="node4" class="node">
<title>Node4</title>
<g id="a_node4"><a xlink:href="_fast_iface_8cpp.html" target="_top" xlink:title="FastIface.cpp">
<polygon fill="#ffffff" stroke="#000000" points="0,-112.5 0,-131.5 77,-131.5 77,-112.5 0,-112.5"/>
<text text-anchor="middle" x="38.5" y="-119.5" font-family="Helvetica,sans-Serif" font-size="10.00" fill="#000000">FastIface.cpp</text>
</a>
</g>
</g>
<!-- Node3&#45;&gt;Node4 -->
<g id="edge3" class="edge">
<title>Node3&#45;&gt;Node4</title>
<path fill="none" stroke="#191970" d="M59.8355,-159.3372C54.5346,-150.0605 48.3513,-139.2398 44.0101,-131.6427"/>
<polygon fill="#191970" stroke="#191970" points="56.9257,-161.2996 64.926,-168.2455 63.0034,-157.8266 56.9257,-161.2996"/>
</g>
<!-- Node3&#45;&gt;Node5 -->
<g id="edge4" class="edge">
<title>Node3&#45;&gt;Node5</title>
<path fill="none" stroke="#191970" d="M89.1914,-161.645C100.3219,-151.9058 114.0663,-139.8795 123.4798,-131.6427"/>
<polygon fill="#191970" stroke="#191970" points="86.869,-159.0264 81.6479,-168.2455 91.4785,-164.2945 86.869,-159.0264"/>
</g>
<!-- Node6 -->
<g id="node6" class="node">
<title>Node6</title>
<g id="a_node6"><a xlink:href="turbine__fast__ops_8_h.html" target="_top" xlink:title="turbine_fast_ops.H">
<polygon fill="#ffffff" stroke="#000000" points="46,-56.5 46,-75.5 145,-75.5 145,-56.5 46,-56.5"/>
<text text-anchor="middle" x="95.5" y="-63.5" font-family="Helvetica,sans-Serif" font-size="10.00" fill="#000000">turbine_fast_ops.H</text>
</a>
</g>
</g>
<!-- Node5&#45;&gt;Node6 -->
<g id="edge5" class="edge">
<title>Node5&#45;&gt;Node6</title>
<path fill="none" stroke="#191970" d="M121.9092,-103.9209C115.3605,-94.5176 107.6176,-83.3997 102.2154,-75.6427"/>
<polygon fill="#191970" stroke="#191970" points="119.1196,-106.0397 127.7067,-112.2455 124.8639,-102.0392 119.1196,-106.0397"/>
</g>
<!-- Node7 -->
<g id="node7" class="node">
<title>Node7</title>
<g id="a_node7"><a xlink:href="_turbine_fast_8cpp.html" target="_top" xlink:title="TurbineFast.cpp">
<polygon fill="#ffffff" stroke="#000000" points="91,-.5 91,-19.5 178,-19.5 178,-.5 91,-.5"/>
<text text-anchor="middle" x="134.5" y="-7.5" font-family="Helvetica,sans-Serif" font-size="10.00" fill="#000000">TurbineFast.cpp</text>
</a>
</g>
</g>
<!-- Node5&#45;&gt;Node7 -->
<g id="edge7" class="edge">
<title>Node5&#45;&gt;Node7</title>
<path fill="none" stroke="#191970" d="M144.7469,-103.217C148.6196,-95.0983 152.5586,-85.3345 154.5,-76 158.7422,-55.6037 147.9781,-32.4433 140.6472,-19.6988"/>
<polygon fill="#191970" stroke="#191970" points="141.6097,-101.6647 140.1945,-112.1646 147.8486,-104.839 141.6097,-101.6647"/>
</g>
<!-- Node6&#45;&gt;Node7 -->
<g id="edge6" class="edge">
<title>Node6&#45;&gt;Node7</title>
<path fill="none" stroke="#191970" d="M108.0908,-47.9209C114.6395,-38.5176 122.3824,-27.3997 127.7846,-19.6427"/>
<polygon fill="#191970" stroke="#191970" points="105.1361,-46.0392 102.2933,-56.2455 110.8804,-50.0397 105.1361,-46.0392"/>
</g>
</g>
</svg>
