<?xml version="1.0" encoding="UTF-8" standalone="no"?>
<!DOCTYPE svg PUBLIC "-//W3C//DTD SVG 1.1//EN"
 "http://www.w3.org/Graphics/SVG/1.1/DTD/svg11.dtd">
<!-- Generated by graphviz version 2.40.1 (20161225.0304)
 -->
<!-- Title: field_ops.H Pages: 1 -->
<svg width="1073pt" height="207pt"
 viewBox="0.00 0.00 1072.50 207.00" xmlns="http://www.w3.org/2000/svg" xmlns:xlink="http://www.w3.org/1999/xlink">
<g id="graph0" class="graph" transform="scale(1 1) rotate(0) translate(4 203)">
<title>field_ops.H</title>
<polygon fill="#ffffff" stroke="transparent" points="-4,4 -4,-203 1068.5,-203 1068.5,4 -4,4"/>
<!-- Node13 -->
<g id="node1" class="node">
<title>Node13</title>
<polygon fill="#bfbfbf" stroke="#000000" points="465.5,-179.5 465.5,-198.5 531.5,-198.5 531.5,-179.5 465.5,-179.5"/>
<text text-anchor="middle" x="498.5" y="-186.5" font-family="Helvetica,sans-Serif" font-size="10.00" fill="#000000">field_ops.H</text>
</g>
<!-- Node14 -->
<g id="node2" class="node">
<title>Node14</title>
<g id="a_node2"><a xlink:href="_t_k_e_8_h.html" target="_top" xlink:title="TKE.H">
<polygon fill="#ffffff" stroke="#000000" points="4,-118 4,-137 51,-137 51,-118 4,-118"/>
<text text-anchor="middle" x="27.5" y="-125" font-family="Helvetica,sans-Serif" font-size="10.00" fill="#000000">TKE.H</text>
</a>
</g>
</g>
<!-- Node13&#45;&gt;Node14 -->
<g id="edge1" class="edge">
<title>Node13&#45;&gt;Node14</title>
<path fill="none" stroke="#191970" d="M455.2529,-186.376C359.6918,-180.2689 133.1968,-164.0113 59.5,-143 54.3947,-141.5445 49.1082,-139.3176 44.3384,-137.002"/>
<polygon fill="#191970" stroke="#191970" points="455.2319,-189.8815 465.4329,-187.0197 455.6738,-182.8955 455.2319,-189.8815"/>
</g>
<!-- Node17 -->
<g id="node5" class="node">
<title>Node17</title>
<g id="a_node5"><a xlink:href="incflo__advance_8cpp.html" target="_top" xlink:title="incflo_advance.cpp">
<polygon fill="#ffffff" stroke="#000000" points="69,-118 69,-137 170,-137 170,-118 69,-118"/>
<text text-anchor="middle" x="119.5" y="-125" font-family="Helvetica,sans-Serif" font-size="10.00" fill="#000000">incflo_advance.cpp</text>
</a>
</g>
</g>
<!-- Node13&#45;&gt;Node17 -->
<g id="edge4" class="edge">
<title>Node13&#45;&gt;Node17</title>
<path fill="none" stroke="#191970" d="M455.0991,-184.2706C393.4807,-177.21 277.2583,-162.6141 179.5,-143 171.0613,-141.3069 162.0374,-139.1583 153.6181,-137.0042"/>
<polygon fill="#191970" stroke="#191970" points="454.9,-187.7704 465.2308,-185.4199 455.689,-180.815 454.9,-187.7704"/>
</g>
<!-- Node18 -->
<g id="node6" class="node">
<title>Node18</title>
<g id="a_node6"><a xlink:href="_tioga_interface_8cpp.html" target="_top" xlink:title="TiogaInterface.cpp">
<polygon fill="#ffffff" stroke="#000000" points="188.5,-118 188.5,-137 286.5,-137 286.5,-118 188.5,-118"/>
<text text-anchor="middle" x="237.5" y="-125" font-family="Helvetica,sans-Serif" font-size="10.00" fill="#000000">TiogaInterface.cpp</text>
</a>
</g>
</g>
<!-- Node13&#45;&gt;Node18 -->
<g id="edge5" class="edge">
<title>Node13&#45;&gt;Node18</title>
<path fill="none" stroke="#191970" d="M455.395,-179.7341C414.2243,-170.7655 350.4827,-156.5711 295.5,-143 288.0118,-141.1517 280.0065,-139.0769 272.4086,-137.0608"/>
<polygon fill="#191970" stroke="#191970" points="454.8416,-183.1954 465.3567,-181.8981 456.3276,-176.355 454.8416,-183.1954"/>
</g>
<!-- Node19 -->
<g id="node7" class="node">
<title>Node19</title>
<g id="a_node7"><a xlink:href="_dam_break_8cpp.html" target="_top" xlink:title="DamBreak.cpp">
<polygon fill="#ffffff" stroke="#000000" points="304.5,-118 304.5,-137 386.5,-137 386.5,-118 304.5,-118"/>
<text text-anchor="middle" x="345.5" y="-125" font-family="Helvetica,sans-Serif" font-size="10.00" fill="#000000">DamBreak.cpp</text>
</a>
</g>
</g>
<!-- Node13&#45;&gt;Node19 -->
<g id="edge6" class="edge">
<title>Node13&#45;&gt;Node19</title>
<path fill="none" stroke="#191970" d="M465.2821,-175.6477C436.3106,-164.0023 394.9953,-147.3952 369.2384,-137.0419"/>
<polygon fill="#191970" stroke="#191970" points="464.0099,-178.9084 474.5938,-179.3906 466.6206,-172.4135 464.0099,-178.9084"/>
</g>
<!-- Node20 -->
<g id="node8" class="node">
<title>Node20</title>
<g id="a_node8"><a xlink:href="_multi_phase_8cpp.html" target="_top" xlink:title="MultiPhase.cpp">
<polygon fill="#ffffff" stroke="#000000" points="404.5,-118 404.5,-137 488.5,-137 488.5,-118 404.5,-118"/>
<text text-anchor="middle" x="446.5" y="-125" font-family="Helvetica,sans-Serif" font-size="10.00" fill="#000000">MultiPhase.cpp</text>
</a>
</g>
</g>
<!-- Node13&#45;&gt;Node20 -->
<g id="edge7" class="edge">
<title>Node13&#45;&gt;Node20</title>
<path fill="none" stroke="#191970" d="M483.7662,-171.5744C474.3616,-160.4517 462.5189,-146.4454 454.7396,-137.2449"/>
<polygon fill="#191970" stroke="#191970" points="481.2456,-174.0142 490.375,-179.3906 486.591,-169.4945 481.2456,-174.0142"/>
</g>
<!-- Node21 -->
<g id="node9" class="node">
<title>Node21</title>
<g id="a_node9"><a xlink:href="_zalesak_disk_8cpp.html" target="_top" xlink:title="ZalesakDisk.cpp">
<polygon fill="#ffffff" stroke="#000000" points="506.5,-118 506.5,-137 596.5,-137 596.5,-118 506.5,-118"/>
<text text-anchor="middle" x="551.5" y="-125" font-family="Helvetica,sans-Serif" font-size="10.00" fill="#000000">ZalesakDisk.cpp</text>
</a>
</g>
</g>
<!-- Node13&#45;&gt;Node21 -->
<g id="edge8" class="edge">
<title>Node13&#45;&gt;Node21</title>
<path fill="none" stroke="#191970" d="M513.5172,-171.5744C523.1026,-160.4517 535.1731,-146.4454 543.102,-137.2449"/>
<polygon fill="#191970" stroke="#191970" points="510.6582,-169.5306 506.7813,-179.3906 515.9608,-174.1003 510.6582,-169.5306"/>
</g>
<!-- Node22 -->
<g id="node10" class="node">
<title>Node22</title>
<g id="a_node10"><a xlink:href="incflo__apply__nodal__projection_8cpp.html" target="_top" xlink:title="incflo_apply_nodal\l_projection.cpp">
<polygon fill="#ffffff" stroke="#000000" points="615,-112.5 615,-142.5 712,-142.5 712,-112.5 615,-112.5"/>
<text text-anchor="start" x="623" y="-130.5" font-family="Helvetica,sans-Serif" font-size="10.00" fill="#000000">incflo_apply_nodal</text>
<text text-anchor="middle" x="663.5" y="-119.5" font-family="Helvetica,sans-Serif" font-size="10.00" fill="#000000">_projection.cpp</text>
</a>
</g>
</g>
<!-- Node13&#45;&gt;Node22 -->
<g id="edge9" class="edge">
<title>Node13&#45;&gt;Node22</title>
<path fill="none" stroke="#191970" d="M533.8191,-175.8356C560.0255,-166.0678 595.7997,-152.7338 623.1365,-142.5446"/>
<polygon fill="#191970" stroke="#191970" points="532.4291,-172.6184 524.2813,-179.3906 534.8739,-179.1776 532.4291,-172.6184"/>
</g>
<!-- Node23 -->
<g id="node11" class="node">
<title>Node23</title>
<g id="a_node11"><a xlink:href="_laminar_model_8cpp.html" target="_top" xlink:title="LaminarModel.cpp">
<polygon fill="#ffffff" stroke="#000000" points="730.5,-118 730.5,-137 826.5,-137 826.5,-118 730.5,-118"/>
<text text-anchor="middle" x="778.5" y="-125" font-family="Helvetica,sans-Serif" font-size="10.00" fill="#000000">LaminarModel.cpp</text>
</a>
</g>
</g>
<!-- Node13&#45;&gt;Node23 -->
<g id="edge10" class="edge">
<title>Node13&#45;&gt;Node23</title>
<path fill="none" stroke="#191970" d="M541.6953,-180.8043C586.5489,-172.1176 658.6751,-157.6539 720.5,-143 728.2078,-141.1731 736.4509,-139.0648 744.2321,-137.0033"/>
<polygon fill="#191970" stroke="#191970" points="540.8843,-177.3962 531.728,-182.7265 542.2098,-184.2695 540.8843,-177.3962"/>
</g>
<!-- Node24 -->
<g id="node12" class="node">
<title>Node24</title>
<g id="a_node12"><a xlink:href="_turb_model_base_8_h.html" target="_top" xlink:title="TurbModelBase.H">
<polygon fill="#ffffff" stroke="#000000" points="845,-118 845,-137 940,-137 940,-118 845,-118"/>
<text text-anchor="middle" x="892.5" y="-125" font-family="Helvetica,sans-Serif" font-size="10.00" fill="#000000">TurbModelBase.H</text>
</a>
</g>
</g>
<!-- Node13&#45;&gt;Node24 -->
<g id="edge11" class="edge">
<title>Node13&#45;&gt;Node24</title>
<path fill="none" stroke="#191970" d="M541.9413,-184.8932C606.4213,-178.387 731.0792,-164.2307 835.5,-143 843.6402,-141.345 852.3356,-139.1855 860.4199,-137.0065"/>
<polygon fill="#191970" stroke="#191970" points="541.3497,-181.4347 531.7458,-185.9086 542.0435,-188.4003 541.3497,-181.4347"/>
</g>
<!-- Node29 -->
<g id="node17" class="node">
<title>Node29</title>
<g id="a_node17"><a xlink:href="_derived_qty_defs_8cpp.html" target="_top" xlink:title="DerivedQtyDefs.cpp">
<polygon fill="#ffffff" stroke="#000000" points="958.5,-118 958.5,-137 1064.5,-137 1064.5,-118 958.5,-118"/>
<text text-anchor="middle" x="1011.5" y="-125" font-family="Helvetica,sans-Serif" font-size="10.00" fill="#000000">DerivedQtyDefs.cpp</text>
</a>
</g>
</g>
<!-- Node13&#45;&gt;Node29 -->
<g id="edge17" class="edge">
<title>Node13&#45;&gt;Node29</title>
<path fill="none" stroke="#191970" d="M541.8075,-186.6538C622.4962,-181.8248 801.1108,-168.9782 949.5,-143 958.4617,-141.4311 968.0436,-139.277 976.9288,-137.0735"/>
<polygon fill="#191970" stroke="#191970" points="541.3208,-183.1763 531.5431,-187.2562 541.731,-190.1642 541.3208,-183.1763"/>
</g>
<!-- Node15 -->
<g id="node3" class="node">
<title>Node15</title>
<g id="a_node3"><a xlink:href="_t_k_e_8cpp.html" target="_top" xlink:title="TKE.cpp">
<polygon fill="#ffffff" stroke="#000000" points="0,-56.5 0,-75.5 55,-75.5 55,-56.5 0,-56.5"/>
<text text-anchor="middle" x="27.5" y="-63.5" font-family="Helvetica,sans-Serif" font-size="10.00" fill="#000000">TKE.cpp</text>
</a>
</g>
</g>
<!-- Node14&#45;&gt;Node15 -->
<g id="edge2" class="edge">
<title>Node14&#45;&gt;Node15</title>
<path fill="none" stroke="#191970" d="M27.5,-107.7462C27.5,-97.0519 27.5,-84.314 27.5,-75.7449"/>
<polygon fill="#191970" stroke="#191970" points="24.0001,-107.8906 27.5,-117.8906 31.0001,-107.8907 24.0001,-107.8906"/>
</g>
<!-- Node16 -->
<g id="node4" class="node">
<title>Node16</title>
<g id="a_node4"><a xlink:href="_one_eq_ksgs_8cpp.html" target="_top" xlink:title="OneEqKsgs.cpp">
<polygon fill="#ffffff" stroke="#000000" points="390.5,-.5 390.5,-19.5 478.5,-19.5 478.5,-.5 390.5,-.5"/>
<text text-anchor="middle" x="434.5" y="-7.5" font-family="Helvetica,sans-Serif" font-size="10.00" fill="#000000">OneEqKsgs.cpp</text>
</a>
</g>
</g>
<!-- Node14&#45;&gt;Node16 -->
<g id="edge3" class="edge">
<title>Node14&#45;&gt;Node16</title>
<path fill="none" stroke="#191970" d="M55.2243,-113.6908C56.66,-113.0954 58.0909,-112.5277 59.5,-112 176.075,-68.344 319.398,-34.6339 390.3636,-19.2091"/>
<polygon fill="#191970" stroke="#191970" points="53.5518,-110.6049 45.8583,-117.8891 56.4151,-116.9925 53.5518,-110.6049"/>
</g>
<!-- Node25 -->
<g id="node13" class="node">
<title>Node25</title>
<g id="a_node13"><a xlink:href="_one_eq_ksgs_8_h.html" target="_top" xlink:title="OneEqKsgs.H">
<polygon fill="#ffffff" stroke="#000000" points="545.5,-56.5 545.5,-75.5 625.5,-75.5 625.5,-56.5 545.5,-56.5"/>
<text text-anchor="middle" x="585.5" y="-63.5" font-family="Helvetica,sans-Serif" font-size="10.00" fill="#000000">OneEqKsgs.H</text>
</a>
</g>
</g>
<!-- Node24&#45;&gt;Node25 -->
<g id="edge12" class="edge">
<title>Node24&#45;&gt;Node25</title>
<path fill="none" stroke="#191970" d="M849.1848,-115.3168C844.5782,-114.1422 839.9514,-113.0129 835.5,-112 761.9163,-95.2563 675.0903,-80.3567 625.5446,-72.3084"/>
<polygon fill="#191970" stroke="#191970" points="848.6007,-118.7819 859.1614,-117.933 850.3763,-112.0108 848.6007,-118.7819"/>
</g>
<!-- Node26 -->
<g id="node14" class="node">
<title>Node26</title>
<g id="a_node14"><a xlink:href="_smagorinsky_8_h.html" target="_top" xlink:title="Smagorinsky.H">
<polygon fill="#ffffff" stroke="#000000" points="850.5,-56.5 850.5,-75.5 934.5,-75.5 934.5,-56.5 850.5,-56.5"/>
<text text-anchor="middle" x="892.5" y="-63.5" font-family="Helvetica,sans-Serif" font-size="10.00" fill="#000000">Smagorinsky.H</text>
</a>
</g>
</g>
<!-- Node24&#45;&gt;Node26 -->
<g id="edge14" class="edge">
<title>Node24&#45;&gt;Node26</title>
<path fill="none" stroke="#191970" d="M892.5,-107.7462C892.5,-97.0519 892.5,-84.314 892.5,-75.7449"/>
<polygon fill="#191970" stroke="#191970" points="889.0001,-107.8906 892.5,-117.8906 896.0001,-107.8907 889.0001,-107.8906"/>
</g>
<!-- Node25&#45;&gt;Node16 -->
<g id="edge13" class="edge">
<title>Node25&#45;&gt;Node16</title>
<path fill="none" stroke="#191970" d="M549.877,-52.7888C522.3062,-42.5639 484.7851,-28.6488 460.1191,-19.5011"/>
<polygon fill="#191970" stroke="#191970" points="548.9491,-56.1776 559.5422,-56.3733 551.3832,-49.6144 548.9491,-56.1776"/>
</g>
<!-- Node27 -->
<g id="node15" class="node">
<title>Node27</title>
<g id="a_node15"><a xlink:href="_smagorinsky_8cpp.html" target="_top" xlink:title="Smagorinsky.cpp">
<polygon fill="#ffffff" stroke="#000000" points="790.5,-.5 790.5,-19.5 882.5,-19.5 882.5,-.5 790.5,-.5"/>
<text text-anchor="middle" x="836.5" y="-7.5" font-family="Helvetica,sans-Serif" font-size="10.00" fill="#000000">Smagorinsky.cpp</text>
</a>
</g>
</g>
<!-- Node26&#45;&gt;Node27 -->
<g id="edge15" class="edge">
<title>Node26&#45;&gt;Node27</title>
<path fill="none" stroke="#191970" d="M875.5751,-49.0751C865.9402,-39.4402 854.2196,-27.7196 846.1427,-19.6427"/>
<polygon fill="#191970" stroke="#191970" points="873.1996,-51.6493 882.7455,-56.2455 878.1493,-46.6996 873.1996,-51.6493"/>
</g>
<!-- Node28 -->
<g id="node16" class="node">
<title>Node28</title>
<g id="a_node16"><a xlink:href="turbulence__utils_8_h.html" target="_top" xlink:title="turbulence_utils.H">
<polygon fill="#ffffff" stroke="#000000" points="901,-.5 901,-19.5 996,-19.5 996,-.5 901,-.5"/>
<text text-anchor="middle" x="948.5" y="-7.5" font-family="Helvetica,sans-Serif" font-size="10.00" fill="#000000">turbulence_utils.H</text>
</a>
</g>
</g>
<!-- Node26&#45;&gt;Node28 -->
<g id="edge16" class="edge">
<title>Node26&#45;&gt;Node28</title>
<path fill="none" stroke="#191970" d="M909.4249,-49.0751C919.0598,-39.4402 930.7804,-27.7196 938.8573,-19.6427"/>
<polygon fill="#191970" stroke="#191970" points="906.8507,-46.6996 902.2545,-56.2455 911.8004,-51.6493 906.8507,-46.6996"/>
</g>
</g>
</svg>
