<?xml version="1.0" encoding="UTF-8" standalone="no"?>
<!DOCTYPE svg PUBLIC "-//W3C//DTD SVG 1.1//EN"
 "http://www.w3.org/Graphics/SVG/1.1/DTD/svg11.dtd">
<!-- Generated by graphviz version 2.40.1 (20161225.0304)
 -->
<!-- Title: fvm.H Pages: 1 -->
<!--zoomable 375 -->
<svg id="main" version="1.1" xmlns="http://www.w3.org/2000/svg" xmlns:xlink="http://www.w3.org/1999/xlink" xml:space="preserve" onload="init(evt)">
<style type="text/css"><![CDATA[
.edge:hover path { stroke: red; }
.edge:hover polygon { stroke: red; fill: red; }
]]></style>
<script type="text/javascript"><![CDATA[
var edges = document.getElementsByTagName('g');
if (edges && edges.length) {
  for (var i=0;i<edges.length;i++) {
    if (edges[i].id.substr(0,4)=='edge') {
      edges[i].setAttribute('class','edge');
    }
  }
}
]]></script>
        <defs>
                <circle id="rim" cx="0" cy="0" r="7"/>
                <circle id="rim2" cx="0" cy="0" r="3.5"/>
                <g id="zoomPlus">
                        <use xlink:href="#rim" fill="#404040">
                                <set attributeName="fill" to="#808080" begin="zoomplus.mouseover" end="zoomplus.mouseout"/>
                        </use>
                        <path d="M-4,0h8M0,-4v8" fill="none" stroke="white" stroke-width="1.5" pointer-events="none"/>
                </g>
                <g id="zoomMin">
                        <use xlink:href="#rim" fill="#404040">
                                <set attributeName="fill" to="#808080" begin="zoomminus.mouseover" end="zoomminus.mouseout"/>
                        </use>
                        <path d="M-4,0h8" fill="none" stroke="white" stroke-width="1.5" pointer-events="none"/>
                </g>
                <g id="dirArrow">
                        <path fill="none" stroke="white" stroke-width="1.5" d="M0,-3.0v7 M-2.5,-0.5L0,-3.0L2.5,-0.5"/>
                </g>
               <g id="resetDef">
                       <use xlink:href="#rim2" fill="#404040">
                               <set attributeName="fill" to="#808080" begin="reset.mouseover" end="reset.mouseout"/>
                       </use>
               </g>
        </defs>

<script type="text/javascript">
var viewWidth = 2222;
var viewHeight = 375;
var sectionId = 'dynsection-0';
</script>
<script xlink:href="svgpan.js"/>
<svg id="graph" class="graph">
<g id="viewport">
<title>fvm.H</title>
<polygon fill="#ffffff" stroke="transparent" points="-4,4 -4,-371 2218.2996,-371 2218.2996,4 -4,4"/>
<!-- Node0 -->
<g id="node1" class="node">
<title>Node0</title>
<polygon fill="#bfbfbf" stroke="#000000" points="1698.2996,-347.5 1698.2996,-366.5 1742.2996,-366.5 1742.2996,-347.5 1698.2996,-347.5"/>
<text text-anchor="middle" x="1720.2996" y="-354.5" font-family="Helvetica,sans-Serif" font-size="10.00" fill="#000000">fvm.H</text>
</g>
<!-- Node1 -->
<g id="node2" class="node">
<title>Node1</title>
<g id="a_node2"><a xlink:href="curvature_8_h.html" target="_top" xlink:title="amr&#45;wind/fvm/curvature.H">
<polygon fill="#ffffff" stroke="#000000" points="1361.2996,-286 1361.2996,-305 1491.2996,-305 1491.2996,-286 1361.2996,-286"/>
<text text-anchor="middle" x="1426.2996" y="-293" font-family="Helvetica,sans-Serif" font-size="10.00" fill="#000000">amr&#45;wind/fvm/curvature.H</text>
</a>
</g>
</g>
<!-- Node0&#45;&gt;Node1 -->
<g id="edge1" class="edge">
<title>Node0&#45;&gt;Node1</title>
<path fill="none" stroke="#191970" d="M1698.1279,-352.3668C1658.4494,-344.0746 1572.6754,-326.1465 1500.2996,-311 1494.229,-309.7296 1487.8785,-308.4001 1481.5581,-307.0766"/>
<polygon fill="#191970" stroke="#191970" points="1482.2005,-303.6353 1471.6954,-305.0112 1480.7656,-310.4867 1482.2005,-303.6353"/>
</g>
<!-- Node29 -->
<g id="node30" class="node">
<title>Node29</title>
<g id="a_node30"><a xlink:href="divergence_8_h.html" target="_top" xlink:title="amr&#45;wind/fvm/divergence.H">
<polygon fill="#ffffff" stroke="#000000" points="1934.7996,-286 1934.7996,-305 2071.7996,-305 2071.7996,-286 1934.7996,-286"/>
<text text-anchor="middle" x="2003.2996" y="-293" font-family="Helvetica,sans-Serif" font-size="10.00" fill="#000000">amr&#45;wind/fvm/divergence.H</text>
</a>
</g>
</g>
<!-- Node0&#45;&gt;Node29 -->
<g id="edge46" class="edge">
<title>Node0&#45;&gt;Node29</title>
<path fill="none" stroke="#191970" d="M1742.5061,-352.1742C1786.6942,-342.5715 1886.7573,-320.8263 1949.2929,-307.2364"/>
<polygon fill="#191970" stroke="#191970" points="1950.3433,-310.5899 1959.3719,-305.0461 1948.8567,-303.7496 1950.3433,-310.5899"/>
</g>
<!-- Node31 -->
<g id="node32" class="node">
<title>Node31</title>
<g id="a_node32"><a xlink:href="gradient_8_h.html" target="_top" xlink:title="amr&#45;wind/fvm/gradient.H">
<polygon fill="#ffffff" stroke="#000000" points="2090.2996,-286 2090.2996,-305 2214.2996,-305 2214.2996,-286 2090.2996,-286"/>
<text text-anchor="middle" x="2152.2996" y="-293" font-family="Helvetica,sans-Serif" font-size="10.00" fill="#000000">amr&#45;wind/fvm/gradient.H</text>
</a>
</g>
</g>
<!-- Node0&#45;&gt;Node31 -->
<g id="edge51" class="edge">
<title>Node0&#45;&gt;Node31</title>
<path fill="none" stroke="#191970" d="M1742.3765,-354.8722C1798.9538,-349.271 1953.6653,-333.0196 2081.2996,-311 2087.8988,-309.8615 2094.8137,-308.5288 2101.6296,-307.1313"/>
<polygon fill="#191970" stroke="#191970" points="2102.433,-310.539 2111.4967,-305.0527 2100.99,-303.6893 2102.433,-310.539"/>
</g>
<!-- Node32 -->
<g id="node33" class="node">
<title>Node32</title>
<g id="a_node33"><a xlink:href="laplacian_8_h.html" target="_top" xlink:title="amr&#45;wind/fvm/laplacian.H">
<polygon fill="#ffffff" stroke="#000000" points="1509.2996,-286 1509.2996,-305 1637.2996,-305 1637.2996,-286 1509.2996,-286"/>
<text text-anchor="middle" x="1573.2996" y="-293" font-family="Helvetica,sans-Serif" font-size="10.00" fill="#000000">amr&#45;wind/fvm/laplacian.H</text>
</a>
</g>
</g>
<!-- Node0&#45;&gt;Node32 -->
<g id="edge56" class="edge">
<title>Node0&#45;&gt;Node32</title>
<path fill="none" stroke="#191970" d="M1698.2922,-347.7928C1673.7891,-337.5415 1633.9421,-320.8709 1605.8361,-309.1122"/>
<polygon fill="#191970" stroke="#191970" points="1607.0048,-305.8073 1596.4288,-305.1765 1604.3031,-312.2649 1607.0048,-305.8073"/>
</g>
<!-- Node33 -->
<g id="node34" class="node">
<title>Node33</title>
<g id="a_node34"><a xlink:href="strainrate_8_h.html" target="_top" xlink:title="amr&#45;wind/fvm/strainrate.H">
<polygon fill="#ffffff" stroke="#000000" points="1655.2996,-286 1655.2996,-305 1785.2996,-305 1785.2996,-286 1655.2996,-286"/>
<text text-anchor="middle" x="1720.2996" y="-293" font-family="Helvetica,sans-Serif" font-size="10.00" fill="#000000">amr&#45;wind/fvm/strainrate.H</text>
</a>
</g>
</g>
<!-- Node0&#45;&gt;Node33 -->
<g id="edge58" class="edge">
<title>Node0&#45;&gt;Node33</title>
<path fill="none" stroke="#191970" d="M1720.2996,-347.3906C1720.2996,-338.8657 1720.2996,-326.1392 1720.2996,-315.4235"/>
<polygon fill="#191970" stroke="#191970" points="1723.7997,-315.2448 1720.2996,-305.2449 1716.7997,-315.2449 1723.7997,-315.2448"/>
</g>
<!-- Node34 -->
<g id="node35" class="node">
<title>Node34</title>
<g id="a_node35"><a xlink:href="vorticity__mag_8_h.html" target="_top" xlink:title="amr&#45;wind/fvm/vorticity\l_mag.H">
<polygon fill="#ffffff" stroke="#000000" points="1803.7996,-280.5 1803.7996,-310.5 1916.7996,-310.5 1916.7996,-280.5 1803.7996,-280.5"/>
<text text-anchor="start" x="1811.7996" y="-298.5" font-family="Helvetica,sans-Serif" font-size="10.00" fill="#000000">amr&#45;wind/fvm/vorticity</text>
<text text-anchor="middle" x="1860.2996" y="-287.5" font-family="Helvetica,sans-Serif" font-size="10.00" fill="#000000">_mag.H</text>
</a>
</g>
</g>
<!-- Node0&#45;&gt;Node34 -->
<g id="edge60" class="edge">
<title>Node0&#45;&gt;Node34</title>
<path fill="none" stroke="#191970" d="M1742.1746,-347.3906C1762.0868,-338.6435 1792.0687,-325.4728 1816.8434,-314.5897"/>
<polygon fill="#191970" stroke="#191970" points="1818.3038,-317.771 1826.0517,-310.5446 1815.4885,-311.3621 1818.3038,-317.771"/>
</g>
<!-- Node35 -->
<g id="node36" class="node">
<title>Node35</title>
<g id="a_node36"><a xlink:href="qcriterion_8_h.html" target="_top" xlink:title="amr&#45;wind/fvm/qcriterion.H">
<polygon fill="#ffffff" stroke="#000000" points="1213.7996,-286 1213.7996,-305 1342.7996,-305 1342.7996,-286 1213.7996,-286"/>
<text text-anchor="middle" x="1278.2996" y="-293" font-family="Helvetica,sans-Serif" font-size="10.00" fill="#000000">amr&#45;wind/fvm/qcriterion.H</text>
</a>
</g>
</g>
<!-- Node0&#45;&gt;Node35 -->
<g id="edge62" class="edge">
<title>Node0&#45;&gt;Node35</title>
<path fill="none" stroke="#191970" d="M1698.2242,-354.8796C1640.9215,-349.2372 1482.8069,-332.7869 1352.2996,-311 1345.4276,-309.8528 1338.2241,-308.515 1331.122,-307.1149"/>
<polygon fill="#191970" stroke="#191970" points="1331.3351,-303.5872 1320.8395,-305.0341 1329.9466,-310.4481 1331.3351,-303.5872"/>
</g>
<!-- Node2 -->
<g id="node3" class="node">
<title>Node2</title>
<g id="a_node3"><a xlink:href="fvm__utils_8_h.html" target="_top" xlink:title="amr&#45;wind/fvm/fvm_utils.H">
<polygon fill="#ffffff" stroke="#000000" points="1682.7996,-224.5 1682.7996,-243.5 1811.7996,-243.5 1811.7996,-224.5 1682.7996,-224.5"/>
<text text-anchor="middle" x="1747.2996" y="-231.5" font-family="Helvetica,sans-Serif" font-size="10.00" fill="#000000">amr&#45;wind/fvm/fvm_utils.H</text>
</a>
</g>
</g>
<!-- Node1&#45;&gt;Node2 -->
<g id="edge2" class="edge">
<title>Node1&#45;&gt;Node2</title>
<path fill="none" stroke="#191970" d="M1470.8764,-285.9948C1480.5679,-283.9753 1490.771,-281.885 1500.2996,-280 1562.7496,-267.646 1634.2724,-254.4275 1684.2261,-245.3453"/>
<polygon fill="#191970" stroke="#191970" points="1685.0194,-248.7586 1694.2335,-243.5287 1683.7691,-241.8711 1685.0194,-248.7586"/>
</g>
<!-- Node3 -->
<g id="node4" class="node">
<title>Node3</title>
<g id="a_node4"><a xlink:href="_field_repo_8_h.html" target="_top" xlink:title="amr&#45;wind/core/FieldRepo.H">
<polygon fill="#ffffff" stroke="#000000" points="937.2996,-168.5 937.2996,-187.5 1073.2996,-187.5 1073.2996,-168.5 937.2996,-168.5"/>
<text text-anchor="middle" x="1005.2996" y="-175.5" font-family="Helvetica,sans-Serif" font-size="10.00" fill="#000000">amr&#45;wind/core/FieldRepo.H</text>
</a>
</g>
</g>
<!-- Node2&#45;&gt;Node3 -->
<g id="edge3" class="edge">
<title>Node2&#45;&gt;Node3</title>
<path fill="none" stroke="#191970" d="M1682.7499,-229.1283C1546.7426,-218.8636 1231.1404,-195.0446 1083.7578,-183.9214"/>
<polygon fill="#191970" stroke="#191970" points="1083.6768,-180.4054 1073.4417,-183.1428 1083.1499,-187.3855 1083.6768,-180.4054"/>
</g>
<!-- Node23 -->
<g id="node24" class="node">
<title>Node23</title>
<g id="a_node24"><a xlink:href="stencils_8_h.html" target="_top" xlink:title="Second&#45;order finite volume discretization stencil coefficients. ">
<polygon fill="#ffffff" stroke="#000000" points="1713.7996,-168.5 1713.7996,-187.5 1836.7996,-187.5 1836.7996,-168.5 1713.7996,-168.5"/>
<text text-anchor="middle" x="1775.2996" y="-175.5" font-family="Helvetica,sans-Serif" font-size="10.00" fill="#000000">amr&#45;wind/fvm/stencils.H</text>
</a>
</g>
</g>
<!-- Node2&#45;&gt;Node23 -->
<g id="edge40" class="edge">
<title>Node2&#45;&gt;Node23</title>
<path fill="none" stroke="#191970" d="M1752.1768,-224.2455C1755.9509,-216.6973 1761.2917,-206.0158 1765.8897,-196.8197"/>
<polygon fill="#191970" stroke="#191970" points="1769.1365,-198.1522 1770.4782,-187.6427 1762.8755,-195.0217 1769.1365,-198.1522"/>
</g>
<!-- Node28 -->
<g id="node29" class="node">
<title>Node28</title>
<polygon fill="#ffffff" stroke="#bfbfbf" points="1876.7996,-168.5 1876.7996,-187.5 1971.7996,-187.5 1971.7996,-168.5 1876.7996,-168.5"/>
<text text-anchor="middle" x="1924.2996" y="-175.5" font-family="Helvetica,sans-Serif" font-size="10.00" fill="#000000">AMReX_MFIter.H</text>
</g>
<!-- Node2&#45;&gt;Node28 -->
<g id="edge45" class="edge">
<title>Node2&#45;&gt;Node28</title>
<path fill="none" stroke="#191970" d="M1777.7269,-224.3733C1807.2868,-215.021 1852.3221,-200.7725 1884.6691,-190.5385"/>
<polygon fill="#191970" stroke="#191970" points="1885.7908,-193.8546 1894.2692,-187.5011 1883.6792,-187.1807 1885.7908,-193.8546"/>
</g>
<!-- Node4 -->
<g id="node5" class="node">
<title>Node4</title>
<polygon fill="#ffffff" stroke="#bfbfbf" points="1230.7996,-.5 1230.7996,-19.5 1271.7996,-19.5 1271.7996,-.5 1230.7996,-.5"/>
<text text-anchor="middle" x="1251.2996" y="-7.5" font-family="Helvetica,sans-Serif" font-size="10.00" fill="#000000">string</text>
</g>
<!-- Node3&#45;&gt;Node4 -->
<g id="edge4" class="edge">
<title>Node3&#45;&gt;Node4</title>
<path fill="none" stroke="#191970" d="M1073.4893,-175.8654C1189.0193,-171.5368 1418.0225,-159.6794 1493.2996,-132 1534.0342,-117.0219 1553.2565,-114.4958 1573.2996,-76 1577.4045,-68.1157 1579.1236,-62.7151 1573.2996,-56 1554.3057,-34.0999 1358.6106,-17.7367 1281.9047,-12.1182"/>
<polygon fill="#191970" stroke="#191970" points="1282.1274,-8.6253 1271.9016,-11.3973 1281.6241,-15.6072 1282.1274,-8.6253"/>
</g>
<!-- Node5 -->
<g id="node6" class="node">
<title>Node5</title>
<polygon fill="#ffffff" stroke="#bfbfbf" points="1279.7996,-56.5 1279.7996,-75.5 1362.7996,-75.5 1362.7996,-56.5 1279.7996,-56.5"/>
<text text-anchor="middle" x="1321.2996" y="-63.5" font-family="Helvetica,sans-Serif" font-size="10.00" fill="#000000">unordered_map</text>
</g>
<!-- Node3&#45;&gt;Node5 -->
<g id="edge5" class="edge">
<title>Node3&#45;&gt;Node5</title>
<path fill="none" stroke="#191970" d="M1032.2415,-168.4509C1088.9111,-148.3655 1220.4946,-101.7284 1284.7184,-78.9655"/>
<polygon fill="#191970" stroke="#191970" points="1286.1695,-82.1646 1294.4258,-75.5249 1283.831,-75.5667 1286.1695,-82.1646"/>
</g>
<!-- Node6 -->
<g id="node7" class="node">
<title>Node6</title>
<g id="a_node7"><a xlink:href="_field_desc_types_8_h.html" target="_top" xlink:title="amr&#45;wind/core/FieldDescTypes.H">
<polygon fill="#ffffff" stroke="#000000" points="543.7996,-.5 543.7996,-19.5 706.7996,-19.5 706.7996,-.5 543.7996,-.5"/>
<text text-anchor="middle" x="625.2996" y="-7.5" font-family="Helvetica,sans-Serif" font-size="10.00" fill="#000000">amr&#45;wind/core/FieldDescTypes.H</text>
</a>
</g>
</g>
<!-- Node3&#45;&gt;Node6 -->
<g id="edge6" class="edge">
<title>Node3&#45;&gt;Node6</title>
<path fill="none" stroke="#191970" d="M937.2279,-169.8167C867.1022,-158.5583 757.448,-132.7996 680.2996,-76 662.5643,-62.9426 646.9905,-42.991 636.9849,-28.4421"/>
<polygon fill="#191970" stroke="#191970" points="639.6903,-26.1886 631.2472,-19.7882 633.8562,-30.0568 639.6903,-26.1886"/>
</g>
<!-- Node7 -->
<g id="node8" class="node">
<title>Node7</title>
<g id="a_node8"><a xlink:href="_field_utils_8_h.html" target="_top" xlink:title="amr&#45;wind/core/FieldUtils.H">
<polygon fill="#ffffff" stroke="#000000" points="13.7996,-56.5 13.7996,-75.5 146.7996,-75.5 146.7996,-56.5 13.7996,-56.5"/>
<text text-anchor="middle" x="80.2996" y="-63.5" font-family="Helvetica,sans-Serif" font-size="10.00" fill="#000000">amr&#45;wind/core/FieldUtils.H</text>
</a>
</g>
</g>
<!-- Node3&#45;&gt;Node7 -->
<g id="edge7" class="edge">
<title>Node3&#45;&gt;Node7</title>
<path fill="none" stroke="#191970" d="M937.1164,-175.2547C787.3224,-168.9304 433.4749,-152.3079 315.2996,-132 243.7053,-119.6969 162.6217,-94.277 116.859,-78.8233"/>
<polygon fill="#191970" stroke="#191970" points="117.9681,-75.5037 107.3737,-75.5917 115.7106,-82.1297 117.9681,-75.5037"/>
</g>
<!-- Node8 -->
<g id="node9" class="node">
<title>Node8</title>
<polygon fill="#ffffff" stroke="#bfbfbf" points="307.2996,-.5 307.2996,-19.5 411.2996,-19.5 411.2996,-.5 307.2996,-.5"/>
<text text-anchor="middle" x="359.2996" y="-7.5" font-family="Helvetica,sans-Serif" font-size="10.00" fill="#000000">AMReX_MultiFab.H</text>
</g>
<!-- Node3&#45;&gt;Node8 -->
<g id="edge38" class="edge">
<title>Node3&#45;&gt;Node8</title>
<path fill="none" stroke="#191970" d="M937.1916,-176.5994C721.0927,-171.4164 61.6685,-149.6375 4.2996,-76 -1.1633,-68.9879 -1.5681,-62.677 4.2996,-56 23.2741,-34.4081 200.2332,-19.9998 296.9189,-13.6691"/>
<polygon fill="#191970" stroke="#191970" points="297.4024,-17.1453 307.1565,-13.0093 296.9521,-10.1598 297.4024,-17.1453"/>
</g>
<!-- Node10 -->
<g id="node11" class="node">
<title>Node10</title>
<g id="a_node11"><a xlink:href="_field_8_h.html" target="_top" xlink:title="amr&#45;wind/core/Field.H">
<polygon fill="#ffffff" stroke="#000000" points="948.7996,-112.5 948.7996,-131.5 1061.7996,-131.5 1061.7996,-112.5 948.7996,-112.5"/>
<text text-anchor="middle" x="1005.2996" y="-119.5" font-family="Helvetica,sans-Serif" font-size="10.00" fill="#000000">amr&#45;wind/core/Field.H</text>
</a>
</g>
</g>
<!-- Node3&#45;&gt;Node10 -->
<g id="edge11" class="edge">
<title>Node3&#45;&gt;Node10</title>
<path fill="none" stroke="#191970" d="M1005.2996,-168.2455C1005.2996,-160.9382 1005.2996,-150.6944 1005.2996,-141.7046"/>
<polygon fill="#191970" stroke="#191970" points="1008.7997,-141.6426 1005.2996,-131.6427 1001.7997,-141.6427 1008.7997,-141.6426"/>
</g>
<!-- Node18 -->
<g id="node19" class="node">
<title>Node18</title>
<g id="a_node19"><a xlink:href="_int_field_8_h.html" target="_top" xlink:title="amr&#45;wind/core/IntField.H">
<polygon fill="#ffffff" stroke="#000000" points="1336.2996,-112.5 1336.2996,-131.5 1460.2996,-131.5 1460.2996,-112.5 1336.2996,-112.5"/>
<text text-anchor="middle" x="1398.2996" y="-119.5" font-family="Helvetica,sans-Serif" font-size="10.00" fill="#000000">amr&#45;wind/core/IntField.H</text>
</a>
</g>
</g>
<!-- Node3&#45;&gt;Node18 -->
<g id="edge26" class="edge">
<title>Node3&#45;&gt;Node18</title>
<path fill="none" stroke="#191970" d="M1072.4121,-168.4369C1142.9736,-158.3823 1253.6052,-142.618 1326.0433,-132.2961"/>
<polygon fill="#191970" stroke="#191970" points="1326.5967,-135.7526 1336.003,-130.8769 1325.6092,-128.8226 1326.5967,-135.7526"/>
</g>
<!-- Node19 -->
<g id="node20" class="node">
<title>Node19</title>
<polygon fill="#ffffff" stroke="#bfbfbf" points="1457.7996,-56.5 1457.7996,-75.5 1564.7996,-75.5 1564.7996,-56.5 1457.7996,-56.5"/>
<text text-anchor="middle" x="1511.2996" y="-63.5" font-family="Helvetica,sans-Serif" font-size="10.00" fill="#000000">AMReX_iMultiFab.H</text>
</g>
<!-- Node3&#45;&gt;Node19 -->
<g id="edge39" class="edge">
<title>Node3&#45;&gt;Node19</title>
<path fill="none" stroke="#191970" d="M1073.4815,-174.526C1194.2919,-167.8901 1436.3754,-152.2513 1469.2996,-132 1486.5944,-121.3621 1498.013,-100.6405 1504.5204,-85.2405"/>
<polygon fill="#191970" stroke="#191970" points="1507.8994,-86.2074 1508.2528,-75.6185 1501.3732,-83.6759 1507.8994,-86.2074"/>
</g>
<!-- Node20 -->
<g id="node21" class="node">
<title>Node20</title>
<g id="a_node21"><a xlink:href="_scratch_field_8_h.html" target="_top" xlink:title="amr&#45;wind/core/ScratchField.H">
<polygon fill="#ffffff" stroke="#000000" points="324.2996,-112.5 324.2996,-131.5 470.2996,-131.5 470.2996,-112.5 324.2996,-112.5"/>
<text text-anchor="middle" x="397.2996" y="-119.5" font-family="Helvetica,sans-Serif" font-size="10.00" fill="#000000">amr&#45;wind/core/ScratchField.H</text>
</a>
</g>
</g>
<!-- Node3&#45;&gt;Node20 -->
<g id="edge30" class="edge">
<title>Node3&#45;&gt;Node20</title>
<path fill="none" stroke="#191970" d="M937.0303,-171.712C824.7845,-161.3736 601.6344,-140.8203 480.3887,-129.6529"/>
<polygon fill="#191970" stroke="#191970" points="480.6884,-126.1658 470.4095,-128.7338 480.0463,-133.1363 480.6884,-126.1658"/>
</g>
<!-- Node22 -->
<g id="node23" class="node">
<title>Node22</title>
<polygon fill="#ffffff" stroke="#bfbfbf" points="824.2996,-112.5 824.2996,-131.5 930.2996,-131.5 930.2996,-112.5 824.2996,-112.5"/>
<text text-anchor="middle" x="877.2996" y="-119.5" font-family="Helvetica,sans-Serif" font-size="10.00" fill="#000000">AMReX_AmrCore.H</text>
</g>
<!-- Node3&#45;&gt;Node22 -->
<g id="edge37" class="edge">
<title>Node3&#45;&gt;Node22</title>
<path fill="none" stroke="#191970" d="M983.2956,-168.3733C962.6561,-159.3435 931.5838,-145.7494 908.4107,-135.6111"/>
<polygon fill="#191970" stroke="#191970" points="909.5809,-132.3028 899.0164,-131.5011 906.7751,-138.7159 909.5809,-132.3028"/>
</g>
<!-- Node7&#45;&gt;Node6 -->
<g id="edge8" class="edge">
<title>Node7&#45;&gt;Node6</title>
<path fill="none" stroke="#191970" d="M146.8618,-59.434C233.2844,-50.869 389.1036,-35.291 533.1041,-20.1191"/>
<polygon fill="#191970" stroke="#191970" points="533.873,-23.5575 543.4506,-19.0275 533.1385,-16.5961 533.873,-23.5575"/>
</g>
<!-- Node7&#45;&gt;Node8 -->
<g id="edge9" class="edge">
<title>Node7&#45;&gt;Node8</title>
<path fill="none" stroke="#191970" d="M127.9444,-56.4369C176.0943,-46.7724 250.5266,-31.8326 301.8989,-21.5213"/>
<polygon fill="#191970" stroke="#191970" points="302.7356,-24.9232 311.8513,-19.5237 301.358,-18.0601 302.7356,-24.9232"/>
</g>
<!-- Node9 -->
<g id="node10" class="node">
<title>Node9</title>
<polygon fill="#ffffff" stroke="#bfbfbf" points="22.2996,-.5 22.2996,-19.5 138.2996,-19.5 138.2996,-.5 22.2996,-.5"/>
<text text-anchor="middle" x="80.2996" y="-7.5" font-family="Helvetica,sans-Serif" font-size="10.00" fill="#000000">AMReX_Interpolater.H</text>
</g>
<!-- Node7&#45;&gt;Node9 -->
<g id="edge10" class="edge">
<title>Node7&#45;&gt;Node9</title>
<path fill="none" stroke="#191970" d="M80.2996,-56.2455C80.2996,-48.9382 80.2996,-38.6944 80.2996,-29.7046"/>
<polygon fill="#191970" stroke="#191970" points="83.7997,-29.6426 80.2996,-19.6427 76.7997,-29.6427 83.7997,-29.6426"/>
</g>
<!-- Node10&#45;&gt;Node4 -->
<g id="edge12" class="edge">
<title>Node10&#45;&gt;Node4</title>
<path fill="none" stroke="#191970" d="M1061.9436,-117.0696C1120.5765,-110.845 1206.95,-98.1745 1231.2996,-76 1244.1381,-64.3083 1248.8489,-44.681 1250.5206,-29.8621"/>
<polygon fill="#191970" stroke="#191970" points="1254.0266,-29.9138 1251.2908,-19.6783 1247.0465,-29.3858 1254.0266,-29.9138"/>
</g>
<!-- Node10&#45;&gt;Node5 -->
<g id="edge14" class="edge">
<title>Node10&#45;&gt;Node5</title>
<path fill="none" stroke="#191970" d="M1059.3329,-112.4662C1111.9245,-103.1806 1194.1031,-88.655 1265.2996,-76 1266.7581,-75.7407 1268.238,-75.4775 1269.7317,-75.2117"/>
<polygon fill="#191970" stroke="#191970" points="1270.4798,-78.6337 1279.711,-73.4341 1269.2522,-71.7421 1270.4798,-78.6337"/>
</g>
<!-- Node10&#45;&gt;Node6 -->
<g id="edge20" class="edge">
<title>Node10&#45;&gt;Node6</title>
<path fill="none" stroke="#191970" d="M948.6144,-113.1735C867.0148,-100.4221 725.579,-78.1308 720.2996,-76 691.0118,-64.1795 661.8563,-41.9745 643.7233,-26.6048"/>
<polygon fill="#191970" stroke="#191970" points="645.6,-23.5989 635.7549,-19.6841 641.0099,-28.8839 645.6,-23.5989"/>
</g>
<!-- Node10&#45;&gt;Node8 -->
<g id="edge16" class="edge">
<title>Node10&#45;&gt;Node8</title>
<path fill="none" stroke="#191970" d="M948.4543,-113.1057C945.3606,-112.7095 942.2938,-112.3375 939.2996,-112 831.9052,-99.8961 556.1641,-112.1064 454.2996,-76 424.2058,-65.3331 394.8507,-42.4602 376.9234,-26.656"/>
<polygon fill="#191970" stroke="#191970" points="378.8464,-23.675 369.0876,-19.5498 374.1439,-28.8603 378.8464,-23.675"/>
</g>
<!-- Node11 -->
<g id="node12" class="node">
<title>Node11</title>
<polygon fill="#ffffff" stroke="#bfbfbf" points="979.2996,-56.5 979.2996,-75.5 1031.2996,-75.5 1031.2996,-56.5 979.2996,-56.5"/>
<text text-anchor="middle" x="1005.2996" y="-63.5" font-family="Helvetica,sans-Serif" font-size="10.00" fill="#000000">memory</text>
</g>
<!-- Node10&#45;&gt;Node11 -->
<g id="edge13" class="edge">
<title>Node10&#45;&gt;Node11</title>
<path fill="none" stroke="#191970" d="M1005.2996,-112.2455C1005.2996,-104.9382 1005.2996,-94.6944 1005.2996,-85.7046"/>
<polygon fill="#191970" stroke="#191970" points="1008.7997,-85.6426 1005.2996,-75.6427 1001.7997,-85.6427 1008.7997,-85.6426"/>
</g>
<!-- Node12 -->
<g id="node13" class="node">
<title>Node12</title>
<polygon fill="#ffffff" stroke="#bfbfbf" points="1049.2996,-56.5 1049.2996,-75.5 1105.2996,-75.5 1105.2996,-56.5 1049.2996,-56.5"/>
<text text-anchor="middle" x="1077.2996" y="-63.5" font-family="Helvetica,sans-Serif" font-size="10.00" fill="#000000">algorithm</text>
</g>
<!-- Node10&#45;&gt;Node12 -->
<g id="edge15" class="edge">
<title>Node10&#45;&gt;Node12</title>
<path fill="none" stroke="#191970" d="M1017.841,-112.2455C1028.5783,-103.8943 1044.2469,-91.7076 1056.8042,-81.9408"/>
<polygon fill="#191970" stroke="#191970" points="1059.1571,-84.5449 1064.9018,-75.6427 1054.8595,-79.0194 1059.1571,-84.5449"/>
</g>
<!-- Node13 -->
<g id="node14" class="node">
<title>Node13</title>
<polygon fill="#ffffff" stroke="#bfbfbf" points="1123.7996,-56.5 1123.7996,-75.5 1222.7996,-75.5 1222.7996,-56.5 1123.7996,-56.5"/>
<text text-anchor="middle" x="1173.2996" y="-63.5" font-family="Helvetica,sans-Serif" font-size="10.00" fill="#000000">AMReX_BCRec.H</text>
</g>
<!-- Node10&#45;&gt;Node13 -->
<g id="edge17" class="edge">
<title>Node10&#45;&gt;Node13</title>
<path fill="none" stroke="#191970" d="M1034.1798,-112.3733C1062.1156,-103.0613 1104.6138,-88.8953 1135.2865,-78.671"/>
<polygon fill="#191970" stroke="#191970" points="1136.4162,-81.9839 1144.7962,-75.5011 1134.2025,-75.3431 1136.4162,-81.9839"/>
</g>
<!-- Node14 -->
<g id="node15" class="node">
<title>Node14</title>
<polygon fill="#ffffff" stroke="#bfbfbf" points="729.7996,-56.5 729.7996,-75.5 814.7996,-75.5 814.7996,-56.5 729.7996,-56.5"/>
<text text-anchor="middle" x="772.2996" y="-63.5" font-family="Helvetica,sans-Serif" font-size="10.00" fill="#000000">AMReX_Gpu.H</text>
</g>
<!-- Node10&#45;&gt;Node14 -->
<g id="edge18" class="edge">
<title>Node10&#45;&gt;Node14</title>
<path fill="none" stroke="#191970" d="M965.5102,-112.4369C925.8016,-102.8932 864.6892,-88.2052 821.8541,-77.9101"/>
<polygon fill="#191970" stroke="#191970" points="822.4659,-74.4575 811.9248,-75.5237 820.83,-81.2637 822.4659,-74.4575"/>
</g>
<!-- Node15 -->
<g id="node16" class="node">
<title>Node15</title>
<g id="a_node16"><a xlink:href="incflo__enums_8_h.html" target="_top" xlink:title="amr&#45;wind/incflo_enums.H">
<polygon fill="#ffffff" stroke="#000000" points="833.2996,-56.5 833.2996,-75.5 961.2996,-75.5 961.2996,-56.5 833.2996,-56.5"/>
<text text-anchor="middle" x="897.2996" y="-63.5" font-family="Helvetica,sans-Serif" font-size="10.00" fill="#000000">amr&#45;wind/incflo_enums.H</text>
</a>
</g>
</g>
<!-- Node10&#45;&gt;Node15 -->
<g id="edge19" class="edge">
<title>Node10&#45;&gt;Node15</title>
<path fill="none" stroke="#191970" d="M986.4874,-112.2455C969.4523,-103.4125 944.1421,-90.2887 924.8314,-80.2758"/>
<polygon fill="#191970" stroke="#191970" points="926.3848,-77.1388 915.8961,-75.6427 923.1626,-83.353 926.3848,-77.1388"/>
</g>
<!-- Node16 -->
<g id="node17" class="node">
<title>Node16</title>
<g id="a_node17"><a xlink:href="_view_field_8_h.html" target="_top" xlink:title="amr&#45;wind/core/ViewField.H">
<polygon fill="#ffffff" stroke="#000000" points="463.2996,-56.5 463.2996,-75.5 597.2996,-75.5 597.2996,-56.5 463.2996,-56.5"/>
<text text-anchor="middle" x="530.2996" y="-63.5" font-family="Helvetica,sans-Serif" font-size="10.00" fill="#000000">amr&#45;wind/core/ViewField.H</text>
</a>
</g>
</g>
<!-- Node10&#45;&gt;Node16 -->
<g id="edge21" class="edge">
<title>Node10&#45;&gt;Node16</title>
<path fill="none" stroke="#191970" d="M948.7941,-113.2928C945.5837,-112.8435 942.4017,-112.4093 939.2996,-112 823.8623,-96.7689 689.667,-82.2899 607.3667,-73.7768"/>
<polygon fill="#191970" stroke="#191970" points="607.651,-70.2876 597.3447,-72.7431 606.9328,-77.2507 607.651,-70.2876"/>
</g>
<!-- Node16&#45;&gt;Node4 -->
<g id="edge22" class="edge">
<title>Node16&#45;&gt;Node4</title>
<path fill="none" stroke="#191970" d="M597.3187,-60.2786C614.277,-58.8555 632.4566,-57.3512 649.2996,-56 868.2032,-38.4392 1132.0144,-18.8119 1220.6096,-12.2626"/>
<polygon fill="#191970" stroke="#191970" points="1221.0499,-15.7397 1230.7648,-11.5124 1220.5341,-8.7587 1221.0499,-15.7397"/>
</g>
<!-- Node16&#45;&gt;Node6 -->
<g id="edge23" class="edge">
<title>Node16&#45;&gt;Node6</title>
<path fill="none" stroke="#191970" d="M546.8473,-56.2455C561.5594,-47.5731 583.2883,-34.7645 600.15,-24.825"/>
<polygon fill="#191970" stroke="#191970" points="602.1041,-27.736 608.9415,-19.6427 598.5494,-21.7057 602.1041,-27.736"/>
</g>
<!-- Node16&#45;&gt;Node8 -->
<g id="edge24" class="edge">
<title>Node16&#45;&gt;Node8</title>
<path fill="none" stroke="#191970" d="M500.9036,-56.3733C472.4689,-47.0613 429.2119,-32.8953 397.9914,-22.671"/>
<polygon fill="#191970" stroke="#191970" points="398.9046,-19.2872 388.3119,-19.5011 396.726,-25.9396 398.9046,-19.2872"/>
</g>
<!-- Node17 -->
<g id="node18" class="node">
<title>Node17</title>
<polygon fill="#ffffff" stroke="#bfbfbf" points="430.7996,-.5 430.7996,-19.5 525.7996,-19.5 525.7996,-.5 430.7996,-.5"/>
<text text-anchor="middle" x="478.2996" y="-7.5" font-family="Helvetica,sans-Serif" font-size="10.00" fill="#000000">AMReX_Vector.H</text>
</g>
<!-- Node16&#45;&gt;Node17 -->
<g id="edge25" class="edge">
<title>Node16&#45;&gt;Node17</title>
<path fill="none" stroke="#191970" d="M521.2419,-56.2455C513.7854,-48.2155 503.0361,-36.6394 494.1578,-27.0781"/>
<polygon fill="#191970" stroke="#191970" points="496.6228,-24.589 487.2535,-19.6427 491.4932,-29.3522 496.6228,-24.589"/>
</g>
<!-- Node18&#45;&gt;Node4 -->
<g id="edge27" class="edge">
<title>Node18&#45;&gt;Node4</title>
<path fill="none" stroke="#191970" d="M1403.0602,-112.4009C1409.1958,-98.5051 1417.6902,-72.6327 1405.2996,-56 1390.5398,-36.1871 1322.5106,-21.7738 1281.9715,-14.7704"/>
<polygon fill="#191970" stroke="#191970" points="1282.5038,-11.3109 1272.063,-13.1112 1281.3477,-18.2147 1282.5038,-11.3109"/>
</g>
<!-- Node18&#45;&gt;Node6 -->
<g id="edge28" class="edge">
<title>Node18&#45;&gt;Node6</title>
<path fill="none" stroke="#191970" d="M1397.4868,-112.4243C1395.6612,-97.5619 1389.8122,-69.2732 1371.2996,-56 1345.1239,-37.2326 910.7121,-19.9032 717.1279,-13.0727"/>
<polygon fill="#191970" stroke="#191970" points="717.0884,-9.5693 706.9717,-12.7162 716.8427,-16.565 717.0884,-9.5693"/>
</g>
<!-- Node18&#45;&gt;Node19 -->
<g id="edge29" class="edge">
<title>Node18&#45;&gt;Node19</title>
<path fill="none" stroke="#191970" d="M1417.725,-112.3733C1435.7017,-103.4644 1462.6436,-90.1127 1483.0086,-80.0203"/>
<polygon fill="#191970" stroke="#191970" points="1484.7217,-83.0776 1492.1277,-75.5011 1481.6134,-76.8055 1484.7217,-83.0776"/>
</g>
<!-- Node20&#45;&gt;Node4 -->
<g id="edge31" class="edge">
<title>Node20&#45;&gt;Node4</title>
<path fill="none" stroke="#191970" d="M440.795,-112.4636C515.8287,-96.1217 666.7013,-63.7712 720.2996,-56 909.1645,-28.6165 1138.3571,-15.4992 1220.3197,-11.4344"/>
<polygon fill="#191970" stroke="#191970" points="1220.6342,-14.9234 1230.4522,-10.9412 1220.2938,-7.9317 1220.6342,-14.9234"/>
</g>
<!-- Node20&#45;&gt;Node6 -->
<g id="edge32" class="edge">
<title>Node20&#45;&gt;Node6</title>
<path fill="none" stroke="#191970" d="M402.9844,-112.3165C411.9982,-97.8287 430.9625,-70.6511 454.2996,-56 480.9672,-39.258 513.6679,-28.5493 543.3055,-21.7261"/>
<polygon fill="#191970" stroke="#191970" points="544.2038,-25.1125 553.2259,-19.558 542.7092,-18.2739 544.2038,-25.1125"/>
</g>
<!-- Node20&#45;&gt;Node8 -->
<g id="edge34" class="edge">
<title>Node20&#45;&gt;Node8</title>
<path fill="none" stroke="#191970" d="M394.0597,-112.4509C387.8059,-94.0186 373.9653,-53.2254 365.7606,-29.043"/>
<polygon fill="#191970" stroke="#191970" points="369.0587,-27.8701 362.5312,-19.5249 362.4298,-30.1192 369.0587,-27.8701"/>
</g>
<!-- Node20&#45;&gt;Node16 -->
<g id="edge33" class="edge">
<title>Node20&#45;&gt;Node16</title>
<path fill="none" stroke="#191970" d="M420.1631,-112.3733C441.7045,-103.3032 474.1833,-89.6279 498.2951,-79.4755"/>
<polygon fill="#191970" stroke="#191970" points="499.8763,-82.6075 507.7344,-75.5011 497.1598,-76.156 499.8763,-82.6075"/>
</g>
<!-- Node20&#45;&gt;Node17 -->
<g id="edge35" class="edge">
<title>Node20&#45;&gt;Node17</title>
<path fill="none" stroke="#191970" d="M324.0559,-114.9635C272.7383,-108.3428 210.5376,-96.3293 194.2996,-76 188.752,-69.0547 188.5297,-62.7617 194.2996,-56 227.3104,-17.3146 370.1294,-28.3205 420.2996,-20 420.4035,-19.9828 420.5076,-19.9655 420.6117,-19.9482"/>
<polygon fill="#191970" stroke="#191970" points="421.231,-23.3933 430.5149,-18.2885 420.0739,-16.4896 421.231,-23.3933"/>
</g>
<!-- Node21 -->
<g id="node22" class="node">
<title>Node21</title>
<polygon fill="#ffffff" stroke="#bfbfbf" points="203.2996,-56.5 203.2996,-75.5 331.2996,-75.5 331.2996,-56.5 203.2996,-56.5"/>
<text text-anchor="middle" x="267.2996" y="-63.5" font-family="Helvetica,sans-Serif" font-size="10.00" fill="#000000">AMReX_PhysBCFunct.H</text>
</g>
<!-- Node20&#45;&gt;Node21 -->
<g id="edge36" class="edge">
<title>Node20&#45;&gt;Node21</title>
<path fill="none" stroke="#191970" d="M374.9518,-112.3733C353.8962,-103.3032 322.15,-89.6279 298.5821,-79.4755"/>
<polygon fill="#191970" stroke="#191970" points="299.9246,-76.243 289.3557,-75.5011 297.1552,-82.6719 299.9246,-76.243"/>
</g>
<!-- Node24 -->
<g id="node25" class="node">
<title>Node24</title>
<polygon fill="#ffffff" stroke="#bfbfbf" points="1621.7996,-112.5 1621.7996,-131.5 1714.7996,-131.5 1714.7996,-112.5 1621.7996,-112.5"/>
<text text-anchor="middle" x="1668.2996" y="-119.5" font-family="Helvetica,sans-Serif" font-size="10.00" fill="#000000">AMReX_REAL.H</text>
</g>
<!-- Node23&#45;&gt;Node24 -->
<g id="edge41" class="edge">
<title>Node23&#45;&gt;Node24</title>
<path fill="none" stroke="#191970" d="M1756.6616,-168.2455C1739.8609,-159.4527 1714.9361,-146.4079 1695.8377,-136.4125"/>
<polygon fill="#191970" stroke="#191970" points="1697.2069,-133.1787 1686.724,-131.6427 1693.9609,-139.3807 1697.2069,-133.1787"/>
</g>
<!-- Node25 -->
<g id="node26" class="node">
<title>Node25</title>
<polygon fill="#ffffff" stroke="#bfbfbf" points="1733.2996,-112.5 1733.2996,-131.5 1817.2996,-131.5 1817.2996,-112.5 1733.2996,-112.5"/>
<text text-anchor="middle" x="1775.2996" y="-119.5" font-family="Helvetica,sans-Serif" font-size="10.00" fill="#000000">AMReX_Box.H</text>
</g>
<!-- Node23&#45;&gt;Node25 -->
<g id="edge42" class="edge">
<title>Node23&#45;&gt;Node25</title>
<path fill="none" stroke="#191970" d="M1775.2996,-168.2455C1775.2996,-160.9382 1775.2996,-150.6944 1775.2996,-141.7046"/>
<polygon fill="#191970" stroke="#191970" points="1778.7997,-141.6426 1775.2996,-131.6427 1771.7997,-141.6427 1778.7997,-141.6426"/>
</g>
<!-- Node26 -->
<g id="node27" class="node">
<title>Node26</title>
<polygon fill="#ffffff" stroke="#bfbfbf" points="1835.2996,-112.5 1835.2996,-131.5 1949.2996,-131.5 1949.2996,-112.5 1835.2996,-112.5"/>
<text text-anchor="middle" x="1892.2996" y="-119.5" font-family="Helvetica,sans-Serif" font-size="10.00" fill="#000000">AMReX_Orientation.H</text>
</g>
<!-- Node23&#45;&gt;Node26 -->
<g id="edge43" class="edge">
<title>Node23&#45;&gt;Node26</title>
<path fill="none" stroke="#191970" d="M1795.4126,-168.3733C1814.1099,-159.4241 1842.174,-145.9917 1863.293,-135.8835"/>
<polygon fill="#191970" stroke="#191970" points="1864.94,-138.9755 1872.449,-131.5011 1861.9179,-132.6614 1864.94,-138.9755"/>
</g>
<!-- Node27 -->
<g id="node28" class="node">
<title>Node27</title>
<polygon fill="#ffffff" stroke="#bfbfbf" points="1967.2996,-112.5 1967.2996,-131.5 2077.2996,-131.5 2077.2996,-112.5 1967.2996,-112.5"/>
<text text-anchor="middle" x="2022.2996" y="-119.5" font-family="Helvetica,sans-Serif" font-size="10.00" fill="#000000">AMReX_Geometry.H</text>
</g>
<!-- Node23&#45;&gt;Node27 -->
<g id="edge44" class="edge">
<title>Node23&#45;&gt;Node27</title>
<path fill="none" stroke="#191970" d="M1817.4797,-168.4369C1859.7519,-158.8529 1924.9058,-144.0812 1970.3413,-133.78"/>
<polygon fill="#191970" stroke="#191970" points="1971.3148,-137.1482 1980.2934,-131.5237 1969.767,-130.3215 1971.3148,-137.1482"/>
</g>
<!-- Node29&#45;&gt;Node2 -->
<g id="edge47" class="edge">
<title>Node29&#45;&gt;Node2</title>
<path fill="none" stroke="#191970" d="M1963.5804,-285.9581C1918.7393,-275.1857 1845.7153,-257.6428 1797.0971,-245.9631"/>
<polygon fill="#191970" stroke="#191970" points="1797.6528,-242.4971 1787.1119,-243.5643 1796.0176,-249.3034 1797.6528,-242.4971"/>
</g>
<!-- Node29&#45;&gt;Node27 -->
<g id="edge49" class="edge">
<title>Node29&#45;&gt;Node27</title>
<path fill="none" stroke="#191970" d="M2004.3481,-285.9248C2007.3515,-258.499 2016.0321,-179.232 2020.1207,-141.8964"/>
<polygon fill="#191970" stroke="#191970" points="2023.6213,-142.0811 2021.2308,-131.7595 2016.6629,-141.3191 2023.6213,-142.0811"/>
</g>
<!-- Node29&#45;&gt;Node28 -->
<g id="edge50" class="edge">
<title>Node29&#45;&gt;Node28</title>
<path fill="none" stroke="#191970" d="M1996.8347,-285.8845C1983.641,-266.261 1953.4304,-221.3274 1936.4536,-196.0772"/>
<polygon fill="#191970" stroke="#191970" points="1939.3379,-194.0942 1930.8538,-187.7484 1933.5288,-198 1939.3379,-194.0942"/>
</g>
<!-- Node30 -->
<g id="node31" class="node">
<title>Node30</title>
<polygon fill="#ffffff" stroke="#bfbfbf" points="2028.7996,-224.5 2028.7996,-243.5 2123.7996,-243.5 2123.7996,-224.5 2028.7996,-224.5"/>
<text text-anchor="middle" x="2076.2996" y="-231.5" font-family="Helvetica,sans-Serif" font-size="10.00" fill="#000000">AMReX_Array4.H</text>
</g>
<!-- Node29&#45;&gt;Node30 -->
<g id="edge48" class="edge">
<title>Node29&#45;&gt;Node30</title>
<path fill="none" stroke="#191970" d="M2014.7058,-285.8906C2025.9965,-276.3786 2043.4962,-261.6357 2056.9614,-250.2917"/>
<polygon fill="#191970" stroke="#191970" points="2059.3398,-252.8646 2064.7325,-243.7449 2054.8297,-247.5111 2059.3398,-252.8646"/>
</g>
<!-- Node31&#45;&gt;Node2 -->
<g id="edge52" class="edge">
<title>Node31&#45;&gt;Node2</title>
<path fill="none" stroke="#191970" d="M2111.1097,-285.9377C2101.3648,-283.8338 2090.9887,-281.7221 2081.2996,-280 1992.6342,-264.2408 1889.9069,-250.8093 1822.0441,-242.5996"/>
<polygon fill="#191970" stroke="#191970" points="1822.2215,-239.0958 1811.8752,-241.377 1821.3859,-246.0458 1822.2215,-239.0958"/>
</g>
<!-- Node31&#45;&gt;Node27 -->
<g id="edge54" class="edge">
<title>Node31&#45;&gt;Node27</title>
<path fill="none" stroke="#191970" d="M2155.1061,-285.6449C2158.6313,-271.2688 2163.112,-244.0763 2153.2996,-224 2132.7674,-181.991 2085.6554,-152.265 2053.8935,-136.1233"/>
<polygon fill="#191970" stroke="#191970" points="2055.0949,-132.8142 2044.5755,-131.5514 2052.0114,-139.0985 2055.0949,-132.8142"/>
</g>
<!-- Node31&#45;&gt;Node28 -->
<g id="edge55" class="edge">
<title>Node31&#45;&gt;Node28</title>
<path fill="none" stroke="#191970" d="M2152.6863,-285.5933C2152.7153,-270.1323 2150.3667,-240.3471 2133.2996,-224 2111.937,-203.5386 2036.2862,-190.7342 1982.1494,-183.9779"/>
<polygon fill="#191970" stroke="#191970" points="1982.3185,-180.4729 1971.9705,-182.7465 1981.4778,-187.4222 1982.3185,-180.4729"/>
</g>
<!-- Node31&#45;&gt;Node30 -->
<g id="edge53" class="edge">
<title>Node31&#45;&gt;Node30</title>
<path fill="none" stroke="#191970" d="M2140.4246,-285.8906C2128.6699,-276.3786 2110.451,-261.6357 2096.4324,-250.2917"/>
<polygon fill="#191970" stroke="#191970" points="2098.3173,-247.3146 2088.342,-243.7449 2093.914,-252.7562 2098.3173,-247.3146"/>
</g>
<!-- Node32&#45;&gt;Node2 -->
<g id="edge57" class="edge">
<title>Node32&#45;&gt;Node2</title>
<path fill="none" stroke="#191970" d="M1600.4871,-285.8906C1630.1112,-275.42 1677.6682,-258.6111 1710.5913,-246.9745"/>
<polygon fill="#191970" stroke="#191970" points="1712.0409,-250.1744 1720.303,-243.5419 1709.7082,-243.5745 1712.0409,-250.1744"/>
</g>
<!-- Node33&#45;&gt;Node2 -->
<g id="edge59" class="edge">
<title>Node33&#45;&gt;Node2</title>
<path fill="none" stroke="#191970" d="M1724.5183,-285.8906C1728.3791,-277.0965 1734.2029,-263.8312 1738.9956,-252.9145"/>
<polygon fill="#191970" stroke="#191970" points="1742.2061,-254.3083 1743.0213,-243.7449 1735.7966,-251.4943 1742.2061,-254.3083"/>
</g>
<!-- Node34&#45;&gt;Node2 -->
<g id="edge61" class="edge">
<title>Node34&#45;&gt;Node2</title>
<path fill="none" stroke="#191970" d="M1832.6566,-280.4554C1814.7946,-270.734 1791.6727,-258.15 1774.0001,-248.5317"/>
<polygon fill="#191970" stroke="#191970" points="1775.2671,-245.2365 1764.8105,-243.5303 1771.9208,-251.3849 1775.2671,-245.2365"/>
</g>
<!-- Node35&#45;&gt;Node2 -->
<g id="edge63" class="edge">
<title>Node35&#45;&gt;Node2</title>
<path fill="none" stroke="#191970" d="M1320.4397,-285.9849C1330.8216,-283.8312 1341.9349,-281.6855 1352.2996,-280 1463.1678,-261.9712 1592.6553,-248.2788 1672.3166,-240.6927"/>
<polygon fill="#191970" stroke="#191970" points="1673.1126,-244.1332 1682.739,-239.708 1672.4541,-237.1642 1673.1126,-244.1332"/>
</g>
</g>
</svg>
        <g id="navigator" transform="translate(0 0)" fill="#404254">
                <rect fill="#f2f5e9" fill-opacity="0.5" stroke="#606060" stroke-width=".5" x="0" y="0" width="60" height="60"/>
                <use id="zoomplus" xlink:href="#zoomPlus" x="17" y="9" onmousedown="handleZoom(evt,'in')"/>
                <use id="zoomminus" xlink:href="#zoomMin" x="42" y="9" onmousedown="handleZoom(evt,'out')"/>
                <use id="reset" xlink:href="#resetDef" x="30" y="36" onmousedown="handleReset()"/>
                <g id="arrowUp" xlink:href="#dirArrow" transform="translate(30 24)" onmousedown="handlePan(0,-1)">
                  <use xlink:href="#rim" fill="#404040">
                        <set attributeName="fill" to="#808080" begin="arrowUp.mouseover" end="arrowUp.mouseout"/>
                  </use>
                  <path fill="none" stroke="white" stroke-width="1.5" d="M0,-3.0v7 M-2.5,-0.5L0,-3.0L2.5,-0.5"/>
                </g>
                <g id="arrowRight" xlink:href="#dirArrow" transform="rotate(90) translate(36 -43)" onmousedown="handlePan(1,0)">
                  <use xlink:href="#rim" fill="#404040">
                        <set attributeName="fill" to="#808080" begin="arrowRight.mouseover" end="arrowRight.mouseout"/>
                  </use>
                  <path fill="none" stroke="white" stroke-width="1.5" d="M0,-3.0v7 M-2.5,-0.5L0,-3.0L2.5,-0.5"/>
                </g>
                <g id="arrowDown" xlink:href="#dirArrow" transform="rotate(180) translate(-30 -48)" onmousedown="handlePan(0,1)">
                  <use xlink:href="#rim" fill="#404040">
                        <set attributeName="fill" to="#808080" begin="arrowDown.mouseover" end="arrowDown.mouseout"/>
                  </use>
                  <path fill="none" stroke="white" stroke-width="1.5" d="M0,-3.0v7 M-2.5,-0.5L0,-3.0L2.5,-0.5"/>
                </g>
                <g id="arrowLeft" xlink:href="#dirArrow" transform="rotate(270) translate(-36 17)" onmousedown="handlePan(-1,0)">
                  <use xlink:href="#rim" fill="#404040">
                        <set attributeName="fill" to="#808080" begin="arrowLeft.mouseover" end="arrowLeft.mouseout"/>
                  </use>
                  <path fill="none" stroke="white" stroke-width="1.5" d="M0,-3.0v7 M-2.5,-0.5L0,-3.0L2.5,-0.5"/>
                </g>
        </g>
        <svg viewBox="0 0 15 15" width="100%" height="30px" preserveAspectRatio="xMaxYMin meet">
         <g id="arrow_out" transform="scale(0.3 0.3)">
          <a xlink:href="fvm_8_h__incl_org.svg" target="_base">
           <rect id="button" ry="5" rx="5" y="6" x="6" height="38" width="38"
                fill="#f2f5e9" fill-opacity="0.5" stroke="#606060" stroke-width="1.0"/>
           <path id="arrow"
             d="M 11.500037,31.436501 C 11.940474,20.09759 22.043105,11.32322 32.158766,21.979434 L 37.068811,17.246167 C 37.068811,17.246167 37.088388,32 37.088388,32 L 22.160133,31.978069 C 22.160133,31.978069 26.997745,27.140456 26.997745,27.140456 C 18.528582,18.264221 13.291696,25.230495 11.500037,31.436501 z"
             style="fill:#404040;"/>
          </a>
         </g>
        </svg>
</svg>
