<?xml version="1.0" encoding="UTF-8" standalone="no"?>
<!DOCTYPE svg PUBLIC "-//W3C//DTD SVG 1.1//EN"
 "http://www.w3.org/Graphics/SVG/1.1/DTD/svg11.dtd">
<!-- Generated by graphviz version 2.40.1 (20161225.0304)
 -->
<!-- Title: fvm_utils.H Pages: 1 -->
<svg width="858pt" height="196pt"
 viewBox="0.00 0.00 858.00 196.00" xmlns="http://www.w3.org/2000/svg" xmlns:xlink="http://www.w3.org/1999/xlink">
<g id="graph0" class="graph" transform="scale(1 1) rotate(0) translate(4 192)">
<title>fvm_utils.H</title>
<polygon fill="#ffffff" stroke="transparent" points="-4,4 -4,-192 854,-192 854,4 -4,4"/>
<!-- Node27 -->
<g id="node1" class="node">
<title>Node27</title>
<polygon fill="#bfbfbf" stroke="#000000" points="280.5,-168.5 280.5,-187.5 347.5,-187.5 347.5,-168.5 280.5,-168.5"/>
<text text-anchor="middle" x="314" y="-175.5" font-family="Helvetica,sans-Serif" font-size="10.00" fill="#000000">fvm_utils.H</text>
</g>
<!-- Node28 -->
<g id="node2" class="node">
<title>Node28</title>
<g id="a_node2"><a xlink:href="curvature_8_h.html" target="_top" xlink:title="curvature.H">
<polygon fill="#ffffff" stroke="#000000" points="366,-112.5 366,-131.5 434,-131.5 434,-112.5 366,-112.5"/>
<text text-anchor="middle" x="400" y="-119.5" font-family="Helvetica,sans-Serif" font-size="10.00" fill="#000000">curvature.H</text>
</a>
</g>
</g>
<!-- Node27&#45;&gt;Node28 -->
<g id="edge1" class="edge">
<title>Node27&#45;&gt;Node28</title>
<path fill="none" stroke="#191970" d="M337.3905,-162.769C352.6299,-152.8456 372.0509,-140.1994 385.1916,-131.6427"/>
<polygon fill="#191970" stroke="#191970" points="335.4502,-159.8558 328.9801,-168.2455 339.2699,-165.7218 335.4502,-159.8558"/>
</g>
<!-- Node31 -->
<g id="node5" class="node">
<title>Node31</title>
<g id="a_node5"><a xlink:href="divergence_8_h.html" target="_top" xlink:title="divergence.H">
<polygon fill="#ffffff" stroke="#000000" points="0,-112.5 0,-131.5 74,-131.5 74,-112.5 0,-112.5"/>
<text text-anchor="middle" x="37" y="-119.5" font-family="Helvetica,sans-Serif" font-size="10.00" fill="#000000">divergence.H</text>
</a>
</g>
</g>
<!-- Node27&#45;&gt;Node31 -->
<g id="edge4" class="edge">
<title>Node27&#45;&gt;Node31</title>
<path fill="none" stroke="#191970" d="M270.2666,-169.5277C223.7772,-160.4662 148.1314,-145.5634 83,-132 80.1196,-131.4002 77.1397,-130.7713 74.1452,-130.1334"/>
<polygon fill="#191970" stroke="#191970" points="269.8126,-173.0049 280.2972,-171.4803 271.1502,-166.1339 269.8126,-173.0049"/>
</g>
<!-- Node32 -->
<g id="node6" class="node">
<title>Node32</title>
<g id="a_node6"><a xlink:href="gradient_8_h.html" target="_top" xlink:title="gradient.H">
<polygon fill="#ffffff" stroke="#000000" points="452,-112.5 452,-131.5 514,-131.5 514,-112.5 452,-112.5"/>
<text text-anchor="middle" x="483" y="-119.5" font-family="Helvetica,sans-Serif" font-size="10.00" fill="#000000">gradient.H</text>
</a>
</g>
</g>
<!-- Node27&#45;&gt;Node32 -->
<g id="edge6" class="edge">
<title>Node27&#45;&gt;Node32</title>
<path fill="none" stroke="#191970" d="M352.6573,-165.1905C383.6193,-154.9309 426.3574,-140.7691 454.327,-131.5011"/>
<polygon fill="#191970" stroke="#191970" points="351.4437,-161.9054 343.0521,-168.3733 353.6455,-168.5501 351.4437,-161.9054"/>
</g>
<!-- Node38 -->
<g id="node12" class="node">
<title>Node38</title>
<g id="a_node12"><a xlink:href="laplacian_8_h.html" target="_top" xlink:title="laplacian.H">
<polygon fill="#ffffff" stroke="#000000" points="92.5,-112.5 92.5,-131.5 157.5,-131.5 157.5,-112.5 92.5,-112.5"/>
<text text-anchor="middle" x="125" y="-119.5" font-family="Helvetica,sans-Serif" font-size="10.00" fill="#000000">laplacian.H</text>
</a>
</g>
</g>
<!-- Node27&#45;&gt;Node38 -->
<g id="edge13" class="edge">
<title>Node27&#45;&gt;Node38</title>
<path fill="none" stroke="#191970" d="M271.6643,-165.4561C236.9706,-155.1765 188.6166,-140.8494 157.0663,-131.5011"/>
<polygon fill="#191970" stroke="#191970" points="270.9274,-168.8881 281.5097,-168.3733 272.9161,-162.1765 270.9274,-168.8881"/>
</g>
<!-- Node39 -->
<g id="node13" class="node">
<title>Node39</title>
<g id="a_node13"><a xlink:href="strainrate_8_h.html" target="_top" xlink:title="strainrate.H">
<polygon fill="#ffffff" stroke="#000000" points="597,-112.5 597,-131.5 665,-131.5 665,-112.5 597,-112.5"/>
<text text-anchor="middle" x="631" y="-119.5" font-family="Helvetica,sans-Serif" font-size="10.00" fill="#000000">strainrate.H</text>
</a>
</g>
</g>
<!-- Node27&#45;&gt;Node39 -->
<g id="edge15" class="edge">
<title>Node27&#45;&gt;Node39</title>
<path fill="none" stroke="#191970" d="M357.7648,-170.2687C421.5738,-158.9964 538.8336,-138.2818 596.7631,-128.0482"/>
<polygon fill="#191970" stroke="#191970" points="356.8631,-166.8737 347.6244,-172.06 358.0809,-173.767 356.8631,-166.8737"/>
</g>
<!-- Node41 -->
<g id="node15" class="node">
<title>Node41</title>
<g id="a_node15"><a xlink:href="vorticity__mag_8_h.html" target="_top" xlink:title="vorticity_mag.H">
<polygon fill="#ffffff" stroke="#000000" points="176,-112.5 176,-131.5 262,-131.5 262,-112.5 176,-112.5"/>
<text text-anchor="middle" x="219" y="-119.5" font-family="Helvetica,sans-Serif" font-size="10.00" fill="#000000">vorticity_mag.H</text>
</a>
</g>
</g>
<!-- Node27&#45;&gt;Node41 -->
<g id="edge19" class="edge">
<title>Node27&#45;&gt;Node41</title>
<path fill="none" stroke="#191970" d="M288.6324,-163.0465C271.729,-153.0824 250.0096,-140.2794 235.3581,-131.6427"/>
<polygon fill="#191970" stroke="#191970" points="287.0602,-166.1825 297.4523,-168.2455 290.6149,-160.1522 287.0602,-166.1825"/>
</g>
<!-- Node42 -->
<g id="node16" class="node">
<title>Node42</title>
<g id="a_node16"><a xlink:href="qcriterion_8_h.html" target="_top" xlink:title="qcriterion.H">
<polygon fill="#ffffff" stroke="#000000" points="280.5,-112.5 280.5,-131.5 347.5,-131.5 347.5,-112.5 280.5,-112.5"/>
<text text-anchor="middle" x="314" y="-119.5" font-family="Helvetica,sans-Serif" font-size="10.00" fill="#000000">qcriterion.H</text>
</a>
</g>
</g>
<!-- Node27&#45;&gt;Node42 -->
<g id="edge21" class="edge">
<title>Node27&#45;&gt;Node42</title>
<path fill="none" stroke="#191970" d="M314,-158.1575C314,-149.155 314,-138.9199 314,-131.6427"/>
<polygon fill="#191970" stroke="#191970" points="310.5001,-158.2455 314,-168.2455 317.5001,-158.2456 310.5001,-158.2455"/>
</g>
<!-- Node29 -->
<g id="node3" class="node">
<title>Node29</title>
<g id="a_node3"><a xlink:href="fvm_8_h.html" target="_top" xlink:title="fvm.H">
<polygon fill="#ffffff" stroke="#000000" points="184,-56.5 184,-75.5 228,-75.5 228,-56.5 184,-56.5"/>
<text text-anchor="middle" x="206" y="-63.5" font-family="Helvetica,sans-Serif" font-size="10.00" fill="#000000">fvm.H</text>
</a>
</g>
</g>
<!-- Node28&#45;&gt;Node29 -->
<g id="edge2" class="edge">
<title>Node28&#45;&gt;Node29</title>
<path fill="none" stroke="#191970" d="M356.1034,-110.0856C323.2212,-101.046 277.1741,-88.1439 237,-76 234.1852,-75.1491 231.2348,-74.2313 228.3201,-73.3089"/>
<polygon fill="#191970" stroke="#191970" points="355.2949,-113.493 365.8645,-112.7619 357.1459,-106.7422 355.2949,-113.493"/>
</g>
<!-- Node30 -->
<g id="node4" class="node">
<title>Node30</title>
<g id="a_node4"><a xlink:href="_derived_qty_defs_8cpp.html" target="_top" xlink:title="DerivedQtyDefs.cpp">
<polygon fill="#ffffff" stroke="#000000" points="153,-.5 153,-19.5 259,-19.5 259,-.5 153,-.5"/>
<text text-anchor="middle" x="206" y="-7.5" font-family="Helvetica,sans-Serif" font-size="10.00" fill="#000000">DerivedQtyDefs.cpp</text>
</a>
</g>
</g>
<!-- Node29&#45;&gt;Node30 -->
<g id="edge3" class="edge">
<title>Node29&#45;&gt;Node30</title>
<path fill="none" stroke="#191970" d="M206,-46.1575C206,-37.155 206,-26.9199 206,-19.6427"/>
<polygon fill="#191970" stroke="#191970" points="202.5001,-46.2455 206,-56.2455 209.5001,-46.2456 202.5001,-46.2455"/>
</g>
<!-- Node31&#45;&gt;Node29 -->
<g id="edge5" class="edge">
<title>Node31&#45;&gt;Node29</title>
<path fill="none" stroke="#191970" d="M75.9574,-109.091C109.3966,-98.0106 156.4052,-82.4338 183.7881,-73.3601"/>
<polygon fill="#191970" stroke="#191970" points="74.4437,-105.9054 66.0521,-112.3733 76.6455,-112.5501 74.4437,-105.9054"/>
</g>
<!-- Node32&#45;&gt;Node29 -->
<g id="edge7" class="edge">
<title>Node32&#45;&gt;Node29</title>
<path fill="none" stroke="#191970" d="M441.6573,-111.842C350.3038,-93.067 324.1393,-97.5579 237,-76 234.1454,-75.2938 231.1715,-74.4619 228.2444,-73.5845"/>
<polygon fill="#191970" stroke="#191970" points="441.1016,-115.3015 451.6066,-113.9249 442.536,-108.45 441.1016,-115.3015"/>
</g>
<!-- Node33 -->
<g id="node7" class="node">
<title>Node33</title>
<g id="a_node7"><a xlink:href="_dam_break_8cpp.html" target="_top" xlink:title="DamBreak.cpp">
<polygon fill="#ffffff" stroke="#000000" points="552,-56.5 552,-75.5 634,-75.5 634,-56.5 552,-56.5"/>
<text text-anchor="middle" x="593" y="-63.5" font-family="Helvetica,sans-Serif" font-size="10.00" fill="#000000">DamBreak.cpp</text>
</a>
</g>
</g>
<!-- Node32&#45;&gt;Node33 -->
<g id="edge8" class="edge">
<title>Node32&#45;&gt;Node33</title>
<path fill="none" stroke="#191970" d="M511.2914,-107.5971C531.0111,-97.558 556.78,-84.4393 574.059,-75.6427"/>
<polygon fill="#191970" stroke="#191970" points="509.4843,-104.5896 502.1605,-112.2455 512.6601,-110.8277 509.4843,-104.5896"/>
</g>
<!-- Node34 -->
<g id="node8" class="node">
<title>Node34</title>
<g id="a_node8"><a xlink:href="_multi_phase_8cpp.html" target="_top" xlink:title="MultiPhase.cpp">
<polygon fill="#ffffff" stroke="#000000" points="246,-56.5 246,-75.5 330,-75.5 330,-56.5 246,-56.5"/>
<text text-anchor="middle" x="288" y="-63.5" font-family="Helvetica,sans-Serif" font-size="10.00" fill="#000000">MultiPhase.cpp</text>
</a>
</g>
</g>
<!-- Node32&#45;&gt;Node34 -->
<g id="edge9" class="edge">
<title>Node32&#45;&gt;Node34</title>
<path fill="none" stroke="#191970" d="M441.9852,-110.2214C406.0826,-99.9109 354.582,-85.121 321.2103,-75.5373"/>
<polygon fill="#191970" stroke="#191970" points="441.0923,-113.6064 451.6699,-113.0026 443.0245,-106.8783 441.0923,-113.6064"/>
</g>
<!-- Node35 -->
<g id="node9" class="node">
<title>Node35</title>
<g id="a_node9"><a xlink:href="_zalesak_disk_8cpp.html" target="_top" xlink:title="ZalesakDisk.cpp">
<polygon fill="#ffffff" stroke="#000000" points="348,-56.5 348,-75.5 438,-75.5 438,-56.5 348,-56.5"/>
<text text-anchor="middle" x="393" y="-63.5" font-family="Helvetica,sans-Serif" font-size="10.00" fill="#000000">ZalesakDisk.cpp</text>
</a>
</g>
</g>
<!-- Node32&#45;&gt;Node35 -->
<g id="edge10" class="edge">
<title>Node32&#45;&gt;Node35</title>
<path fill="none" stroke="#191970" d="M458.5216,-106.769C442.5734,-96.8456 422.249,-84.1994 408.4972,-75.6427"/>
<polygon fill="#191970" stroke="#191970" points="456.9835,-109.9342 467.3232,-112.2455 460.6817,-103.9908 456.9835,-109.9342"/>
</g>
<!-- Node36 -->
<g id="node10" class="node">
<title>Node36</title>
<g id="a_node10"><a xlink:href="_one_eq_ksgs_8cpp.html" target="_top" xlink:title="OneEqKsgs.cpp">
<polygon fill="#ffffff" stroke="#000000" points="652,-56.5 652,-75.5 740,-75.5 740,-56.5 652,-56.5"/>
<text text-anchor="middle" x="696" y="-63.5" font-family="Helvetica,sans-Serif" font-size="10.00" fill="#000000">OneEqKsgs.cpp</text>
</a>
</g>
</g>
<!-- Node32&#45;&gt;Node36 -->
<g id="edge11" class="edge">
<title>Node32&#45;&gt;Node36</title>
<path fill="none" stroke="#191970" d="M524.2348,-111.1589C563.569,-100.8175 622.2342,-85.3938 659.8034,-75.5165"/>
<polygon fill="#191970" stroke="#191970" points="523.2103,-107.8093 514.4289,-113.737 524.9902,-114.5792 523.2103,-107.8093"/>
</g>
<!-- Node37 -->
<g id="node11" class="node">
<title>Node37</title>
<g id="a_node11"><a xlink:href="_a_b_l_stats_8cpp.html" target="_top" xlink:title="ABLStats.cpp">
<polygon fill="#ffffff" stroke="#000000" points="456.5,-56.5 456.5,-75.5 533.5,-75.5 533.5,-56.5 456.5,-56.5"/>
<text text-anchor="middle" x="495" y="-63.5" font-family="Helvetica,sans-Serif" font-size="10.00" fill="#000000">ABLStats.cpp</text>
</a>
</g>
</g>
<!-- Node32&#45;&gt;Node37 -->
<g id="edge12" class="edge">
<title>Node32&#45;&gt;Node37</title>
<path fill="none" stroke="#191970" d="M487.1885,-102.4538C489.1328,-93.3803 491.3572,-82.9998 492.9337,-75.6427"/>
<polygon fill="#191970" stroke="#191970" points="483.7633,-101.7341 485.0902,-112.2455 490.6079,-103.2009 483.7633,-101.7341"/>
</g>
<!-- Node38&#45;&gt;Node29 -->
<g id="edge14" class="edge">
<title>Node38&#45;&gt;Node29</title>
<path fill="none" stroke="#191970" d="M147.434,-106.49C161.7254,-96.6096 179.7916,-84.1194 192.0526,-75.6427"/>
<polygon fill="#191970" stroke="#191970" points="145.3443,-103.6797 139.1091,-112.2455 149.3251,-109.4376 145.3443,-103.6797"/>
</g>
<!-- Node39&#45;&gt;Node29 -->
<g id="edge16" class="edge">
<title>Node39&#45;&gt;Node29</title>
<path fill="none" stroke="#191970" d="M586.7452,-117.9355C498.3684,-109.6376 302.8643,-90.3234 237,-76 234.1265,-75.3751 231.1414,-74.5915 228.2084,-73.7394"/>
<polygon fill="#191970" stroke="#191970" points="586.4419,-121.4223 596.7243,-118.8684 587.0935,-114.4527 586.4419,-121.4223"/>
</g>
<!-- Node39&#45;&gt;Node36 -->
<g id="edge17" class="edge">
<title>Node39&#45;&gt;Node36</title>
<path fill="none" stroke="#191970" d="M649.9835,-105.645C661.2879,-95.9058 675.247,-83.8795 684.8076,-75.6427"/>
<polygon fill="#191970" stroke="#191970" points="647.6138,-103.0668 642.3221,-112.2455 652.1827,-108.3701 647.6138,-103.0668"/>
</g>
<!-- Node40 -->
<g id="node14" class="node">
<title>Node40</title>
<g id="a_node14"><a xlink:href="_smagorinsky_8cpp.html" target="_top" xlink:title="Smagorinsky.cpp">
<polygon fill="#ffffff" stroke="#000000" points="758,-56.5 758,-75.5 850,-75.5 850,-56.5 758,-56.5"/>
<text text-anchor="middle" x="804" y="-63.5" font-family="Helvetica,sans-Serif" font-size="10.00" fill="#000000">Smagorinsky.cpp</text>
</a>
</g>
</g>
<!-- Node39&#45;&gt;Node40 -->
<g id="edge18" class="edge">
<title>Node39&#45;&gt;Node40</title>
<path fill="none" stroke="#191970" d="M670.5723,-109.1905C702.2671,-98.9309 746.0168,-84.7691 774.6483,-75.5011"/>
<polygon fill="#191970" stroke="#191970" points="669.1758,-105.9636 660.7398,-112.3733 671.3316,-112.6234 669.1758,-105.9636"/>
</g>
<!-- Node41&#45;&gt;Node29 -->
<g id="edge20" class="edge">
<title>Node41&#45;&gt;Node29</title>
<path fill="none" stroke="#191970" d="M214.4625,-102.4538C212.3561,-93.3803 209.9464,-82.9998 208.2385,-75.6427"/>
<polygon fill="#191970" stroke="#191970" points="211.0649,-103.2961 216.7356,-112.2455 217.8835,-101.7131 211.0649,-103.2961"/>
</g>
<!-- Node42&#45;&gt;Node29 -->
<g id="edge22" class="edge">
<title>Node42&#45;&gt;Node29</title>
<path fill="none" stroke="#191970" d="M286.2229,-107.5971C266.8618,-97.558 241.5615,-84.4393 224.5966,-75.6427"/>
<polygon fill="#191970" stroke="#191970" points="284.6992,-110.7495 295.1878,-112.2455 287.9214,-104.5352 284.6992,-110.7495"/>
</g>
</g>
</svg>
