<?xml version="1.0" encoding="UTF-8" standalone="no"?>
<!DOCTYPE svg PUBLIC "-//W3C//DTD SVG 1.1//EN"
 "http://www.w3.org/Graphics/SVG/1.1/DTD/svg11.dtd">
<!-- Generated by graphviz version 2.40.1 (20161225.0304)
 -->
<!-- Title: gradient.H Pages: 1 -->
<svg width="595pt" height="140pt"
 viewBox="0.00 0.00 594.50 140.00" xmlns="http://www.w3.org/2000/svg" xmlns:xlink="http://www.w3.org/1999/xlink">
<g id="graph0" class="graph" transform="scale(1 1) rotate(0) translate(4 136)">
<title>gradient.H</title>
<polygon fill="#ffffff" stroke="transparent" points="-4,4 -4,-136 590.5,-136 590.5,4 -4,4"/>
<!-- Node29 -->
<g id="node1" class="node">
<title>Node29</title>
<polygon fill="#bfbfbf" stroke="#000000" points="256,-112.5 256,-131.5 318,-131.5 318,-112.5 256,-112.5"/>
<text text-anchor="middle" x="287" y="-119.5" font-family="Helvetica,sans-Serif" font-size="10.00" fill="#000000">gradient.H</text>
</g>
<!-- Node30 -->
<g id="node2" class="node">
<title>Node30</title>
<g id="a_node2"><a xlink:href="fvm_8_h.html" target="_top" xlink:title="fvm.H">
<polygon fill="#ffffff" stroke="#000000" points="31,-56.5 31,-75.5 75,-75.5 75,-56.5 31,-56.5"/>
<text text-anchor="middle" x="53" y="-63.5" font-family="Helvetica,sans-Serif" font-size="10.00" fill="#000000">fvm.H</text>
</a>
</g>
</g>
<!-- Node29&#45;&gt;Node30 -->
<g id="edge1" class="edge">
<title>Node29&#45;&gt;Node30</title>
<path fill="none" stroke="#191970" d="M245.8957,-113.8093C204.698,-105.337 139.5834,-91.2301 84,-76 81.1639,-75.2229 78.2009,-74.3489 75.2796,-73.4494"/>
<polygon fill="#191970" stroke="#191970" points="245.3359,-117.2671 255.8341,-115.8391 246.7368,-110.4087 245.3359,-117.2671"/>
</g>
<!-- Node32 -->
<g id="node4" class="node">
<title>Node32</title>
<g id="a_node4"><a xlink:href="_dam_break_8cpp.html" target="_top" xlink:title="DamBreak.cpp">
<polygon fill="#ffffff" stroke="#000000" points="93,-56.5 93,-75.5 175,-75.5 175,-56.5 93,-56.5"/>
<text text-anchor="middle" x="134" y="-63.5" font-family="Helvetica,sans-Serif" font-size="10.00" fill="#000000">DamBreak.cpp</text>
</a>
</g>
</g>
<!-- Node29&#45;&gt;Node32 -->
<g id="edge3" class="edge">
<title>Node29&#45;&gt;Node32</title>
<path fill="none" stroke="#191970" d="M251.2721,-108.9231C223.3029,-98.686 185.0607,-84.6889 159.9584,-75.5011"/>
<polygon fill="#191970" stroke="#191970" points="250.1046,-112.2228 260.6984,-112.3733 252.5106,-105.6493 250.1046,-112.2228"/>
</g>
<!-- Node33 -->
<g id="node5" class="node">
<title>Node33</title>
<g id="a_node5"><a xlink:href="_multi_phase_8cpp.html" target="_top" xlink:title="MultiPhase.cpp">
<polygon fill="#ffffff" stroke="#000000" points="193,-56.5 193,-75.5 277,-75.5 277,-56.5 193,-56.5"/>
<text text-anchor="middle" x="235" y="-63.5" font-family="Helvetica,sans-Serif" font-size="10.00" fill="#000000">MultiPhase.cpp</text>
</a>
</g>
</g>
<!-- Node29&#45;&gt;Node33 -->
<g id="edge4" class="edge">
<title>Node29&#45;&gt;Node33</title>
<path fill="none" stroke="#191970" d="M271.0178,-104.7884C262.1222,-95.2085 251.3796,-83.6396 243.9539,-75.6427"/>
<polygon fill="#191970" stroke="#191970" points="268.573,-107.2992 277.9423,-112.2455 273.7025,-102.536 268.573,-107.2992"/>
</g>
<!-- Node34 -->
<g id="node6" class="node">
<title>Node34</title>
<g id="a_node6"><a xlink:href="_zalesak_disk_8cpp.html" target="_top" xlink:title="ZalesakDisk.cpp">
<polygon fill="#ffffff" stroke="#000000" points="295,-56.5 295,-75.5 385,-75.5 385,-56.5 295,-56.5"/>
<text text-anchor="middle" x="340" y="-63.5" font-family="Helvetica,sans-Serif" font-size="10.00" fill="#000000">ZalesakDisk.cpp</text>
</a>
</g>
</g>
<!-- Node29&#45;&gt;Node34 -->
<g id="edge5" class="edge">
<title>Node29&#45;&gt;Node34</title>
<path fill="none" stroke="#191970" d="M303.2896,-104.7884C312.3562,-95.2085 323.3054,-83.6396 330.8739,-75.6427"/>
<polygon fill="#191970" stroke="#191970" points="300.5637,-102.5767 296.2319,-112.2455 305.6478,-107.3884 300.5637,-102.5767"/>
</g>
<!-- Node35 -->
<g id="node7" class="node">
<title>Node35</title>
<g id="a_node7"><a xlink:href="_one_eq_ksgs_8cpp.html" target="_top" xlink:title="OneEqKsgs.cpp">
<polygon fill="#ffffff" stroke="#000000" points="403,-56.5 403,-75.5 491,-75.5 491,-56.5 403,-56.5"/>
<text text-anchor="middle" x="447" y="-63.5" font-family="Helvetica,sans-Serif" font-size="10.00" fill="#000000">OneEqKsgs.cpp</text>
</a>
</g>
</g>
<!-- Node29&#45;&gt;Node35 -->
<g id="edge6" class="edge">
<title>Node29&#45;&gt;Node35</title>
<path fill="none" stroke="#191970" d="M323.9799,-109.057C353.2618,-98.8084 393.4885,-84.729 419.8539,-75.5011"/>
<polygon fill="#191970" stroke="#191970" points="322.7873,-105.7662 314.505,-112.3733 325.0998,-112.3732 322.7873,-105.7662"/>
</g>
<!-- Node36 -->
<g id="node8" class="node">
<title>Node36</title>
<g id="a_node8"><a xlink:href="_a_b_l_stats_8cpp.html" target="_top" xlink:title="ABLStats.cpp">
<polygon fill="#ffffff" stroke="#000000" points="509.5,-56.5 509.5,-75.5 586.5,-75.5 586.5,-56.5 509.5,-56.5"/>
<text text-anchor="middle" x="548" y="-63.5" font-family="Helvetica,sans-Serif" font-size="10.00" fill="#000000">ABLStats.cpp</text>
</a>
</g>
</g>
<!-- Node29&#45;&gt;Node36 -->
<g id="edge7" class="edge">
<title>Node29&#45;&gt;Node36</title>
<path fill="none" stroke="#191970" d="M328.2884,-113.1412C377.9172,-102.4929 460.565,-84.76 509.1035,-74.3456"/>
<polygon fill="#191970" stroke="#191970" points="327.2667,-109.7807 318.2235,-115.3007 328.7352,-116.6249 327.2667,-109.7807"/>
</g>
<!-- Node31 -->
<g id="node3" class="node">
<title>Node31</title>
<g id="a_node3"><a xlink:href="_derived_qty_defs_8cpp.html" target="_top" xlink:title="DerivedQtyDefs.cpp">
<polygon fill="#ffffff" stroke="#000000" points="0,-.5 0,-19.5 106,-19.5 106,-.5 0,-.5"/>
<text text-anchor="middle" x="53" y="-7.5" font-family="Helvetica,sans-Serif" font-size="10.00" fill="#000000">DerivedQtyDefs.cpp</text>
</a>
</g>
</g>
<!-- Node30&#45;&gt;Node31 -->
<g id="edge2" class="edge">
<title>Node30&#45;&gt;Node31</title>
<path fill="none" stroke="#191970" d="M53,-46.1575C53,-37.155 53,-26.9199 53,-19.6427"/>
<polygon fill="#191970" stroke="#191970" points="49.5001,-46.2455 53,-56.2455 56.5001,-46.2456 49.5001,-46.2455"/>
</g>
</g>
</svg>
