<?xml version="1.0" encoding="UTF-8" standalone="no"?>
<!DOCTYPE svg PUBLIC "-//W3C//DTD SVG 1.1//EN"
 "http://www.w3.org/Graphics/SVG/1.1/DTD/svg11.dtd">
<!-- Generated by graphviz version 2.40.1 (20161225.0304)
 -->
<!-- Title: ICNS Source terms Pages: 1 -->
<svg width="512pt" height="172pt"
 viewBox="0.00 0.00 512.00 172.32" xmlns="http://www.w3.org/2000/svg" xmlns:xlink="http://www.w3.org/1999/xlink">
<g id="graph0" class="graph" transform="scale(1 1) rotate(0) translate(4 168.3182)">
<title>ICNS Source terms</title>
<polygon fill="#ffffff" stroke="transparent" points="-4,4 -4,-168.3182 508,-168.3182 508,4 -4,4"/>
<!-- Node1 -->
<g id="node1" class="node">
<title>Node1</title>
<g id="a_node1"><a xlink:href="group__icns.html" target="_top" xlink:title="Incompressible Navier&#45;Stokes equation system. ">
<polygon fill="#ffffff" stroke="#000000" points="0,-63.3182 0,-93.3182 114,-93.3182 114,-63.3182 0,-63.3182"/>
<text text-anchor="start" x="8" y="-81.3182" font-family="Helvetica,sans-Serif" font-size="10.00" fill="#000000">Incompressible Navier</text>
<text text-anchor="middle" x="57" y="-70.3182" font-family="Helvetica,sans-Serif" font-size="10.00" fill="#000000">&#45;Stokes</text>
</a>
</g>
</g>
<!-- Node0 -->
<g id="node4" class="node">
<title>Node0</title>
<polygon fill="#bfbfbf" stroke="#000000" points="151,-68.8182 151,-87.8182 254,-87.8182 254,-68.8182 151,-68.8182"/>
<text text-anchor="middle" x="202.5" y="-75.8182" font-family="Helvetica,sans-Serif" font-size="10.00" fill="#000000">ICNS Source terms</text>
</g>
<!-- Node1&#45;&gt;Node0 -->
<g id="edge1" class="edge">
<title>Node1&#45;&gt;Node0</title>
<path fill="none" stroke="#000000" d="M124.1218,-78.3182C133.0779,-78.3182 142.1484,-78.3182 150.7861,-78.3182"/>
<polygon fill="#000000" stroke="#000000" points="124.0879,-74.8183 114.0878,-78.3182 124.0878,-81.8183 124.0879,-74.8183"/>
</g>
<!-- Node3 -->
<g id="node2" class="node">
<title>Node3</title>
<g id="a_node2"><a xlink:href="group__actuator.html" target="_top" xlink:title="Actuator source modeling for wind turbines. ">
<polygon fill="#ffffff" stroke="#000000" points="391,-135.8182 391,-154.8182 504,-154.8182 504,-135.8182 391,-135.8182"/>
<text text-anchor="middle" x="447.5" y="-142.8182" font-family="Helvetica,sans-Serif" font-size="10.00" fill="#000000">Actuator source terms</text>
</a>
</g>
</g>
<!-- Node2 -->
<g id="node3" class="node">
<title>Node2</title>
<g id="a_node3"><a xlink:href="group__we__abl.html" target="_top" xlink:title="Atmospheric boundary layer (ABL) modeling. ">
<polygon fill="#ffffff" stroke="#000000" points="430,-2.8182 430,-21.8182 465,-21.8182 465,-2.8182 430,-2.8182"/>
<text text-anchor="middle" x="447.5" y="-9.8182" font-family="Helvetica,sans-Serif" font-size="10.00" fill="#000000">ABL</text>
</a>
</g>
</g>
<!-- Node0&#45;&gt;Node3 -->
<g id="edge3" class="edge">
<title>Node0&#45;&gt;Node3</title>
<path fill="none" stroke="#ffa500" stroke-dasharray="5,2" d="M213.9178,-88.0621C227.0148,-98.6495 249.5824,-115.1439 272,-123.3182 310.0809,-137.2039 355.5509,-142.6191 390.6655,-144.6072"/>
<text text-anchor="start" x="278.5" y="-156.3182" font-family="Helvetica,sans-Serif" font-size="10.00" fill="#000000">amr_wind::pde::icns</text>
<text text-anchor="middle" x="322.5" y="-145.3182" font-family="Helvetica,sans-Serif" font-size="10.00" fill="#000000">::ActuatorForcing</text>
</g>
<!-- Node0&#45;&gt;Node2 -->
<g id="edge2" class="edge">
<title>Node0&#45;&gt;Node2</title>
<path fill="none" stroke="#ffa500" stroke-dasharray="5,2" d="M209.1981,-68.4534C220.2096,-53.221 243.7572,-24.5603 272,-13.3182 326.0701,8.2045 397.1506,-1.8321 429.7603,-8.3163"/>
<text text-anchor="start" x="272" y="-115.3182" font-family="Helvetica,sans-Serif" font-size="10.00" fill="#000000">amr_wind::pde::icns</text>
<text text-anchor="middle" x="322.5" y="-104.3182" font-family="Helvetica,sans-Serif" font-size="10.00" fill="#000000">::ABLForcing</text>
<text text-anchor="start" x="272" y="-93.3182" font-family="Helvetica,sans-Serif" font-size="10.00" fill="#000000">amr_wind::pde::icns</text>
<text text-anchor="middle" x="322.5" y="-82.3182" font-family="Helvetica,sans-Serif" font-size="10.00" fill="#000000">::ABLMeanBoussinesq</text>
<text text-anchor="start" x="272" y="-71.3182" font-family="Helvetica,sans-Serif" font-size="10.00" fill="#000000">amr_wind::pde::icns</text>
<text text-anchor="middle" x="322.5" y="-60.3182" font-family="Helvetica,sans-Serif" font-size="10.00" fill="#000000">::BoussinesqBuoyancy</text>
<text text-anchor="start" x="272" y="-49.3182" font-family="Helvetica,sans-Serif" font-size="10.00" fill="#000000">amr_wind::pde::icns</text>
<text text-anchor="middle" x="322.5" y="-38.3182" font-family="Helvetica,sans-Serif" font-size="10.00" fill="#000000">::CoriolisForcing</text>
<text text-anchor="start" x="272" y="-27.3182" font-family="Helvetica,sans-Serif" font-size="10.00" fill="#000000">amr_wind::pde::icns</text>
<text text-anchor="middle" x="322.5" y="-16.3182" font-family="Helvetica,sans-Serif" font-size="10.00" fill="#000000">::GeostrophicForcing</text>
</g>
</g>
</svg>
