<?xml version="1.0" encoding="UTF-8" standalone="no"?>
<!DOCTYPE svg PUBLIC "-//W3C//DTD SVG 1.1//EN"
 "http://www.w3.org/Graphics/SVG/1.1/DTD/svg11.dtd">
<!-- Generated by graphviz version 2.40.1 (20161225.0304)
 -->
<!-- Title: Wind energy modeling Pages: 1 -->
<svg width="528pt" height="104pt"
 viewBox="0.00 0.00 528.00 104.00" xmlns="http://www.w3.org/2000/svg" xmlns:xlink="http://www.w3.org/1999/xlink">
<g id="graph0" class="graph" transform="scale(1 1) rotate(0) translate(4 100)">
<title>Wind energy modeling</title>
<polygon fill="#ffffff" stroke="transparent" points="-4,4 -4,-100 524,-100 524,4 -4,4"/>
<!-- Node4 -->
<g id="node1" class="node">
<title>Node4</title>
<g id="a_node1"><a xlink:href="group__amr__utils.html" target="_top" xlink:title="Mesh refinement. ">
<polygon fill="#ffffff" stroke="#000000" points="419,-76.5 419,-95.5 508,-95.5 508,-76.5 419,-76.5"/>
<text text-anchor="middle" x="463.5" y="-83.5" font-family="Helvetica,sans-Serif" font-size="10.00" fill="#000000">Mesh refinement</text>
</a>
</g>
</g>
<!-- Node3 -->
<g id="node2" class="node">
<title>Node3</title>
<g id="a_node2"><a xlink:href="group__actuator.html" target="_top" xlink:title="Actuator source modeling for wind turbines. ">
<polygon fill="#ffffff" stroke="#000000" points="407,-38.5 407,-57.5 520,-57.5 520,-38.5 407,-38.5"/>
<text text-anchor="middle" x="463.5" y="-45.5" font-family="Helvetica,sans-Serif" font-size="10.00" fill="#000000">Actuator source terms</text>
</a>
</g>
</g>
<!-- Node1 -->
<g id="node3" class="node">
<title>Node1</title>
<g id="a_node3"><a xlink:href="group__physics.html" target="_top" xlink:title="AMR&#45;Wind representation of different physics. ">
<polygon fill="#ffffff" stroke="#000000" points="0,-38.5 0,-57.5 86,-57.5 86,-38.5 0,-38.5"/>
<text text-anchor="middle" x="43" y="-45.5" font-family="Helvetica,sans-Serif" font-size="10.00" fill="#000000">Physics models</text>
</a>
</g>
</g>
<!-- Node0 -->
<g id="node5" class="node">
<title>Node0</title>
<polygon fill="#bfbfbf" stroke="#000000" points="123,-38.5 123,-57.5 236,-57.5 236,-38.5 123,-38.5"/>
<text text-anchor="middle" x="179.5" y="-45.5" font-family="Helvetica,sans-Serif" font-size="10.00" fill="#000000">Wind energy modeling</text>
</g>
<!-- Node1&#45;&gt;Node0 -->
<g id="edge1" class="edge">
<title>Node1&#45;&gt;Node0</title>
<path fill="none" stroke="#000000" d="M96.4542,-48C105.0346,-48 113.9427,-48 122.6001,-48"/>
<polygon fill="#000000" stroke="#000000" points="96.1895,-44.5001 86.1895,-48 96.1894,-51.5001 96.1895,-44.5001"/>
</g>
<!-- Node2 -->
<g id="node4" class="node">
<title>Node2</title>
<g id="a_node4"><a xlink:href="group__we__abl.html" target="_top" xlink:title="Atmospheric boundary layer (ABL) modeling. ">
<polygon fill="#ffffff" stroke="#000000" points="446,-.5 446,-19.5 481,-19.5 481,-.5 446,-.5"/>
<text text-anchor="middle" x="463.5" y="-7.5" font-family="Helvetica,sans-Serif" font-size="10.00" fill="#000000">ABL</text>
</a>
</g>
</g>
<!-- Node0&#45;&gt;Node4 -->
<g id="edge4" class="edge">
<title>Node0&#45;&gt;Node4</title>
<path fill="none" stroke="#ffa500" stroke-dasharray="5,2" d="M227.5052,-57.5445C236.2997,-59.1439 245.4115,-60.7028 254,-62 310.6512,-70.5566 376.3322,-77.6208 418.8309,-81.8194"/>
<text text-anchor="middle" x="321.5" y="-81" font-family="Helvetica,sans-Serif" font-size="10.00" fill="#000000">amr_wind::CartBoxRefinement</text>
</g>
<!-- Node0&#45;&gt;Node3 -->
<g id="edge3" class="edge">
<title>Node0&#45;&gt;Node3</title>
<path fill="none" stroke="#000000" d="M246.4345,-48C295.2189,-48 360.593,-48 406.8094,-48"/>
<polygon fill="#000000" stroke="#000000" points="246.2891,-44.5001 236.2891,-48 246.289,-51.5001 246.2891,-44.5001"/>
</g>
<!-- Node0&#45;&gt;Node2 -->
<g id="edge2" class="edge">
<title>Node0&#45;&gt;Node2</title>
<path fill="none" stroke="#000000" d="M246.5085,-39.0341C311.855,-30.2905 406.9147,-17.5713 445.8611,-12.3601"/>
<polygon fill="#000000" stroke="#000000" points="245.7365,-35.6061 236.2891,-40.4015 246.6649,-42.5443 245.7365,-35.6061"/>
</g>
</g>
</svg>
