<?xml version="1.0" encoding="UTF-8" standalone="no"?>
<!DOCTYPE svg PUBLIC "-//W3C//DTD SVG 1.1//EN"
 "http://www.w3.org/Graphics/SVG/1.1/DTD/svg11.dtd">
<!-- Generated by graphviz version 2.40.1 (20161225.0304)
 -->
<!-- Title: icns.H Pages: 1 -->
<svg width="522pt" height="140pt"
 viewBox="0.00 0.00 522.08 140.00" xmlns="http://www.w3.org/2000/svg" xmlns:xlink="http://www.w3.org/1999/xlink">
<g id="graph0" class="graph" transform="scale(1 1) rotate(0) translate(4 136)">
<title>icns.H</title>
<polygon fill="#ffffff" stroke="transparent" points="-4,4 -4,-136 518.079,-136 518.079,4 -4,4"/>
<!-- Node58 -->
<g id="node1" class="node">
<title>Node58</title>
<polygon fill="#bfbfbf" stroke="#000000" points="169.079,-112.5 169.079,-131.5 214.079,-131.5 214.079,-112.5 169.079,-112.5"/>
<text text-anchor="middle" x="191.579" y="-119.5" font-family="Helvetica,sans-Serif" font-size="10.00" fill="#000000">icns.H</text>
</g>
<!-- Node59 -->
<g id="node2" class="node">
<title>Node59</title>
<g id="a_node2"><a xlink:href="icns_8cpp.html" target="_top" xlink:title="icns.cpp">
<polygon fill="#ffffff" stroke="#000000" points="117.079,-.5 117.079,-19.5 170.079,-19.5 170.079,-.5 117.079,-.5"/>
<text text-anchor="middle" x="143.579" y="-7.5" font-family="Helvetica,sans-Serif" font-size="10.00" fill="#000000">icns.cpp</text>
</a>
</g>
</g>
<!-- Node58&#45;&gt;Node59 -->
<g id="edge1" class="edge">
<title>Node58&#45;&gt;Node59</title>
<path fill="none" stroke="#191970" d="M158.5965,-118.6158C110.5764,-112.9312 25.1036,-99.6948 6.579,-76 -24.8041,-35.858 68.9999,-18.7299 117.0697,-12.7307"/>
<polygon fill="#191970" stroke="#191970" points="158.4723,-122.1242 168.8039,-119.7773 159.2638,-115.1691 158.4723,-122.1242"/>
</g>
<!-- Node60 -->
<g id="node3" class="node">
<title>Node60</title>
<g id="a_node3"><a xlink:href="icns__ops_8_h.html" target="_top" xlink:title="icns_ops.H">
<polygon fill="#ffffff" stroke="#000000" points="15.579,-56.5 15.579,-75.5 81.579,-75.5 81.579,-56.5 15.579,-56.5"/>
<text text-anchor="middle" x="48.579" y="-63.5" font-family="Helvetica,sans-Serif" font-size="10.00" fill="#000000">icns_ops.H</text>
</a>
</g>
</g>
<!-- Node58&#45;&gt;Node60 -->
<g id="edge2" class="edge">
<title>Node58&#45;&gt;Node60</title>
<path fill="none" stroke="#191970" d="M159.4394,-109.4139C133.273,-99.1669 96.89,-84.919 73.0472,-75.582"/>
<polygon fill="#191970" stroke="#191970" points="158.3324,-112.7391 168.9202,-113.1266 160.885,-106.2211 158.3324,-112.7391"/>
</g>
<!-- Node61 -->
<g id="node4" class="node">
<title>Node61</title>
<g id="a_node4"><a xlink:href="icns__advection_8_h.html" target="_top" xlink:title="icns_advection.H">
<polygon fill="#ffffff" stroke="#000000" points="294.579,-56.5 294.579,-75.5 386.579,-75.5 386.579,-56.5 294.579,-56.5"/>
<text text-anchor="middle" x="340.579" y="-63.5" font-family="Helvetica,sans-Serif" font-size="10.00" fill="#000000">icns_advection.H</text>
</a>
</g>
</g>
<!-- Node58&#45;&gt;Node61 -->
<g id="edge4" class="edge">
<title>Node58&#45;&gt;Node61</title>
<path fill="none" stroke="#191970" d="M223.7414,-109.9121C251.1463,-99.6123 289.9925,-85.0123 315.2372,-75.5244"/>
<polygon fill="#191970" stroke="#191970" points="222.3382,-106.7004 214.2088,-113.4948 224.8009,-113.2529 222.3382,-106.7004"/>
</g>
<!-- Node63 -->
<g id="node6" class="node">
<title>Node63</title>
<g id="a_node6"><a xlink:href="icns__diffusion_8_h.html" target="_top" xlink:title="icns_diffusion.H">
<polygon fill="#ffffff" stroke="#000000" points="100.079,-56.5 100.079,-75.5 187.079,-75.5 187.079,-56.5 100.079,-56.5"/>
<text text-anchor="middle" x="143.579" y="-63.5" font-family="Helvetica,sans-Serif" font-size="10.00" fill="#000000">icns_diffusion.H</text>
</a>
</g>
</g>
<!-- Node58&#45;&gt;Node63 -->
<g id="edge7" class="edge">
<title>Node58&#45;&gt;Node63</title>
<path fill="none" stroke="#191970" d="M176.5793,-104.5004C168.4168,-94.9775 158.6301,-83.5596 151.8441,-75.6427"/>
<polygon fill="#191970" stroke="#191970" points="174.0526,-106.9307 183.218,-112.2455 179.3674,-102.3752 174.0526,-106.9307"/>
</g>
<!-- Node64 -->
<g id="node7" class="node">
<title>Node64</title>
<g id="a_node7"><a xlink:href="icns__bcop_8_h.html" target="_top" xlink:title="icns_bcop.H">
<polygon fill="#ffffff" stroke="#000000" points="205.079,-56.5 205.079,-75.5 276.079,-75.5 276.079,-56.5 205.079,-56.5"/>
<text text-anchor="middle" x="240.579" y="-63.5" font-family="Helvetica,sans-Serif" font-size="10.00" fill="#000000">icns_bcop.H</text>
</a>
</g>
</g>
<!-- Node58&#45;&gt;Node64 -->
<g id="edge9" class="edge">
<title>Node58&#45;&gt;Node64</title>
<path fill="none" stroke="#191970" d="M206.8911,-104.5004C215.2237,-94.9775 225.2143,-83.5596 232.1416,-75.6427"/>
<polygon fill="#191970" stroke="#191970" points="204.0652,-102.415 200.1141,-112.2455 209.3332,-107.0245 204.0652,-102.415"/>
</g>
<!-- Node65 -->
<g id="node8" class="node">
<title>Node65</title>
<g id="a_node8"><a xlink:href="_power_law_profile_8cpp.html" target="_top" xlink:title="PowerLawProfile.cpp">
<polygon fill="#ffffff" stroke="#000000" points="405.079,-56.5 405.079,-75.5 514.079,-75.5 514.079,-56.5 405.079,-56.5"/>
<text text-anchor="middle" x="459.579" y="-63.5" font-family="Helvetica,sans-Serif" font-size="10.00" fill="#000000">PowerLawProfile.cpp</text>
</a>
</g>
</g>
<!-- Node58&#45;&gt;Node65 -->
<g id="edge11" class="edge">
<title>Node58&#45;&gt;Node65</title>
<path fill="none" stroke="#191970" d="M224.4797,-115.1252C271.9836,-105.199 359.9723,-86.8133 413.7936,-75.5671"/>
<polygon fill="#191970" stroke="#191970" points="223.5012,-111.754 214.4285,-117.2255 224.933,-118.606 223.5012,-111.754"/>
</g>
<!-- Node60&#45;&gt;Node59 -->
<g id="edge3" class="edge">
<title>Node60&#45;&gt;Node59</title>
<path fill="none" stroke="#191970" d="M73.9465,-51.0465C90.8499,-41.0824 112.5693,-28.2794 127.2208,-19.6427"/>
<polygon fill="#191970" stroke="#191970" points="71.964,-48.1522 65.1267,-56.2455 75.5187,-54.1825 71.964,-48.1522"/>
</g>
<!-- Node61&#45;&gt;Node59 -->
<g id="edge5" class="edge">
<title>Node61&#45;&gt;Node59</title>
<path fill="none" stroke="#191970" d="M296.7599,-53.5438C258.0536,-42.541 202.8572,-26.8507 170.3723,-17.6164"/>
<polygon fill="#191970" stroke="#191970" points="296.1375,-57.0055 306.7134,-56.3733 298.0516,-50.2723 296.1375,-57.0055"/>
</g>
<!-- Node62 -->
<g id="node5" class="node">
<title>Node62</title>
<g id="a_node5"><a xlink:href="icns__advection_8cpp.html" target="_top" xlink:title="icns_advection.cpp">
<polygon fill="#ffffff" stroke="#000000" points="290.079,-.5 290.079,-19.5 391.079,-19.5 391.079,-.5 290.079,-.5"/>
<text text-anchor="middle" x="340.579" y="-7.5" font-family="Helvetica,sans-Serif" font-size="10.00" fill="#000000">icns_advection.cpp</text>
</a>
</g>
</g>
<!-- Node61&#45;&gt;Node62 -->
<g id="edge6" class="edge">
<title>Node61&#45;&gt;Node62</title>
<path fill="none" stroke="#191970" d="M340.579,-46.1575C340.579,-37.155 340.579,-26.9199 340.579,-19.6427"/>
<polygon fill="#191970" stroke="#191970" points="337.0791,-46.2455 340.579,-56.2455 344.0791,-46.2456 337.0791,-46.2455"/>
</g>
<!-- Node63&#45;&gt;Node59 -->
<g id="edge8" class="edge">
<title>Node63&#45;&gt;Node59</title>
<path fill="none" stroke="#191970" d="M143.579,-46.1575C143.579,-37.155 143.579,-26.9199 143.579,-19.6427"/>
<polygon fill="#191970" stroke="#191970" points="140.0791,-46.2455 143.579,-56.2455 147.0791,-46.2456 140.0791,-46.2455"/>
</g>
<!-- Node64&#45;&gt;Node59 -->
<g id="edge10" class="edge">
<title>Node64&#45;&gt;Node59</title>
<path fill="none" stroke="#191970" d="M214.6773,-51.0465C197.4181,-41.0824 175.2414,-28.2794 160.2814,-19.6427"/>
<polygon fill="#191970" stroke="#191970" points="213.2725,-54.2768 223.6828,-56.2455 216.7724,-48.2146 213.2725,-54.2768"/>
</g>
</g>
</svg>
