<?xml version="1.0" encoding="UTF-8" standalone="no"?>
<!DOCTYPE svg PUBLIC "-//W3C//DTD SVG 1.1//EN"
 "http://www.w3.org/Graphics/SVG/1.1/DTD/svg11.dtd">
<!-- Generated by graphviz version 2.40.1 (20161225.0304)
 -->
<!-- Title: icns.H Pages: 1 -->
<!--zoomable 140 -->
<svg id="main" version="1.1" xmlns="http://www.w3.org/2000/svg" xmlns:xlink="http://www.w3.org/1999/xlink" xml:space="preserve" onload="init(evt)">
<style type="text/css"><![CDATA[
.edge:hover path { stroke: red; }
.edge:hover polygon { stroke: red; fill: red; }
]]></style>
<script type="text/javascript"><![CDATA[
var edges = document.getElementsByTagName('g');
if (edges && edges.length) {
  for (var i=0;i<edges.length;i++) {
    if (edges[i].id.substr(0,4)=='edge') {
      edges[i].setAttribute('class','edge');
    }
  }
}
]]></script>
        <defs>
                <circle id="rim" cx="0" cy="0" r="7"/>
                <circle id="rim2" cx="0" cy="0" r="3.5"/>
                <g id="zoomPlus">
                        <use xlink:href="#rim" fill="#404040">
                                <set attributeName="fill" to="#808080" begin="zoomplus.mouseover" end="zoomplus.mouseout"/>
                        </use>
                        <path d="M-4,0h8M0,-4v8" fill="none" stroke="white" stroke-width="1.5" pointer-events="none"/>
                </g>
                <g id="zoomMin">
                        <use xlink:href="#rim" fill="#404040">
                                <set attributeName="fill" to="#808080" begin="zoomminus.mouseover" end="zoomminus.mouseout"/>
                        </use>
                        <path d="M-4,0h8" fill="none" stroke="white" stroke-width="1.5" pointer-events="none"/>
                </g>
                <g id="dirArrow">
                        <path fill="none" stroke="white" stroke-width="1.5" d="M0,-3.0v7 M-2.5,-0.5L0,-3.0L2.5,-0.5"/>
                </g>
               <g id="resetDef">
                       <use xlink:href="#rim2" fill="#404040">
                               <set attributeName="fill" to="#808080" begin="reset.mouseover" end="reset.mouseout"/>
                       </use>
               </g>
        </defs>

<script type="text/javascript">
var viewWidth = 522;
var viewHeight = 140;
var sectionId = 'dynsection-1';
</script>
<script xlink:href="svgpan.js"/>
<svg id="graph" class="graph">
<g id="viewport">
<title>icns.H</title>
<polygon fill="#ffffff" stroke="transparent" points="-4,4 -4,-136 518.079,-136 518.079,4 -4,4"/>
<!-- Node58 -->
<g id="node1" class="node">
<title>Node58</title>
<polygon fill="#bfbfbf" stroke="#000000" points="169.079,-112.5 169.079,-131.5 214.079,-131.5 214.079,-112.5 169.079,-112.5"/>
<text text-anchor="middle" x="191.579" y="-119.5" font-family="Helvetica,sans-Serif" font-size="10.00" fill="#000000">icns.H</text>
</g>
<!-- Node59 -->
<g id="node2" class="node">
<title>Node59</title>
<g id="a_node2"><a xlink:href="icns_8cpp.html" target="_top" xlink:title="icns.cpp">
<polygon fill="#ffffff" stroke="#000000" points="117.079,-.5 117.079,-19.5 170.079,-19.5 170.079,-.5 117.079,-.5"/>
<text text-anchor="middle" x="143.579" y="-7.5" font-family="Helvetica,sans-Serif" font-size="10.00" fill="#000000">icns.cpp</text>
</a>
</g>
</g>
<!-- Node58&#45;&gt;Node59 -->
<g id="edge1" class="edge">
<title>Node58&#45;&gt;Node59</title>
<path fill="none" stroke="#191970" d="M158.5965,-118.6158C110.5764,-112.9312 25.1036,-99.6948 6.579,-76 -24.8041,-35.858 68.9999,-18.7299 117.0697,-12.7307"/>
<polygon fill="#191970" stroke="#191970" points="158.4723,-122.1242 168.8039,-119.7773 159.2638,-115.1691 158.4723,-122.1242"/>
</g>
<!-- Node60 -->
<g id="node3" class="node">
<title>Node60</title>
<g id="a_node3"><a xlink:href="icns__ops_8_h.html" target="_top" xlink:title="icns_ops.H">
<polygon fill="#ffffff" stroke="#000000" points="15.579,-56.5 15.579,-75.5 81.579,-75.5 81.579,-56.5 15.579,-56.5"/>
<text text-anchor="middle" x="48.579" y="-63.5" font-family="Helvetica,sans-Serif" font-size="10.00" fill="#000000">icns_ops.H</text>
</a>
</g>
</g>
<!-- Node58&#45;&gt;Node60 -->
<g id="edge2" class="edge">
<title>Node58&#45;&gt;Node60</title>
<path fill="none" stroke="#191970" d="M159.4394,-109.4139C133.273,-99.1669 96.89,-84.919 73.0472,-75.582"/>
<polygon fill="#191970" stroke="#191970" points="158.3324,-112.7391 168.9202,-113.1266 160.885,-106.2211 158.3324,-112.7391"/>
</g>
<!-- Node61 -->
<g id="node4" class="node">
<title>Node61</title>
<g id="a_node4"><a xlink:href="icns__advection_8_h.html" target="_top" xlink:title="icns_advection.H">
<polygon fill="#ffffff" stroke="#000000" points="294.579,-56.5 294.579,-75.5 386.579,-75.5 386.579,-56.5 294.579,-56.5"/>
<text text-anchor="middle" x="340.579" y="-63.5" font-family="Helvetica,sans-Serif" font-size="10.00" fill="#000000">icns_advection.H</text>
</a>
</g>
</g>
<!-- Node58&#45;&gt;Node61 -->
<g id="edge4" class="edge">
<title>Node58&#45;&gt;Node61</title>
<path fill="none" stroke="#191970" d="M223.7414,-109.9121C251.1463,-99.6123 289.9925,-85.0123 315.2372,-75.5244"/>
<polygon fill="#191970" stroke="#191970" points="222.3382,-106.7004 214.2088,-113.4948 224.8009,-113.2529 222.3382,-106.7004"/>
</g>
<!-- Node63 -->
<g id="node6" class="node">
<title>Node63</title>
<g id="a_node6"><a xlink:href="icns__diffusion_8_h.html" target="_top" xlink:title="icns_diffusion.H">
<polygon fill="#ffffff" stroke="#000000" points="100.079,-56.5 100.079,-75.5 187.079,-75.5 187.079,-56.5 100.079,-56.5"/>
<text text-anchor="middle" x="143.579" y="-63.5" font-family="Helvetica,sans-Serif" font-size="10.00" fill="#000000">icns_diffusion.H</text>
</a>
</g>
</g>
<!-- Node58&#45;&gt;Node63 -->
<g id="edge7" class="edge">
<title>Node58&#45;&gt;Node63</title>
<path fill="none" stroke="#191970" d="M176.5793,-104.5004C168.4168,-94.9775 158.6301,-83.5596 151.8441,-75.6427"/>
<polygon fill="#191970" stroke="#191970" points="174.0526,-106.9307 183.218,-112.2455 179.3674,-102.3752 174.0526,-106.9307"/>
</g>
<!-- Node64 -->
<g id="node7" class="node">
<title>Node64</title>
<g id="a_node7"><a xlink:href="icns__bcop_8_h.html" target="_top" xlink:title="icns_bcop.H">
<polygon fill="#ffffff" stroke="#000000" points="205.079,-56.5 205.079,-75.5 276.079,-75.5 276.079,-56.5 205.079,-56.5"/>
<text text-anchor="middle" x="240.579" y="-63.5" font-family="Helvetica,sans-Serif" font-size="10.00" fill="#000000">icns_bcop.H</text>
</a>
</g>
</g>
<!-- Node58&#45;&gt;Node64 -->
<g id="edge9" class="edge">
<title>Node58&#45;&gt;Node64</title>
<path fill="none" stroke="#191970" d="M206.8911,-104.5004C215.2237,-94.9775 225.2143,-83.5596 232.1416,-75.6427"/>
<polygon fill="#191970" stroke="#191970" points="204.0652,-102.415 200.1141,-112.2455 209.3332,-107.0245 204.0652,-102.415"/>
</g>
<!-- Node65 -->
<g id="node8" class="node">
<title>Node65</title>
<g id="a_node8"><a xlink:href="_power_law_profile_8cpp.html" target="_top" xlink:title="PowerLawProfile.cpp">
<polygon fill="#ffffff" stroke="#000000" points="405.079,-56.5 405.079,-75.5 514.079,-75.5 514.079,-56.5 405.079,-56.5"/>
<text text-anchor="middle" x="459.579" y="-63.5" font-family="Helvetica,sans-Serif" font-size="10.00" fill="#000000">PowerLawProfile.cpp</text>
</a>
</g>
</g>
<!-- Node58&#45;&gt;Node65 -->
<g id="edge11" class="edge">
<title>Node58&#45;&gt;Node65</title>
<path fill="none" stroke="#191970" d="M224.4797,-115.1252C271.9836,-105.199 359.9723,-86.8133 413.7936,-75.5671"/>
<polygon fill="#191970" stroke="#191970" points="223.5012,-111.754 214.4285,-117.2255 224.933,-118.606 223.5012,-111.754"/>
</g>
<!-- Node60&#45;&gt;Node59 -->
<g id="edge3" class="edge">
<title>Node60&#45;&gt;Node59</title>
<path fill="none" stroke="#191970" d="M73.9465,-51.0465C90.8499,-41.0824 112.5693,-28.2794 127.2208,-19.6427"/>
<polygon fill="#191970" stroke="#191970" points="71.964,-48.1522 65.1267,-56.2455 75.5187,-54.1825 71.964,-48.1522"/>
</g>
<!-- Node61&#45;&gt;Node59 -->
<g id="edge5" class="edge">
<title>Node61&#45;&gt;Node59</title>
<path fill="none" stroke="#191970" d="M296.7599,-53.5438C258.0536,-42.541 202.8572,-26.8507 170.3723,-17.6164"/>
<polygon fill="#191970" stroke="#191970" points="296.1375,-57.0055 306.7134,-56.3733 298.0516,-50.2723 296.1375,-57.0055"/>
</g>
<!-- Node62 -->
<g id="node5" class="node">
<title>Node62</title>
<g id="a_node5"><a xlink:href="icns__advection_8cpp.html" target="_top" xlink:title="icns_advection.cpp">
<polygon fill="#ffffff" stroke="#000000" points="290.079,-.5 290.079,-19.5 391.079,-19.5 391.079,-.5 290.079,-.5"/>
<text text-anchor="middle" x="340.579" y="-7.5" font-family="Helvetica,sans-Serif" font-size="10.00" fill="#000000">icns_advection.cpp</text>
</a>
</g>
</g>
<!-- Node61&#45;&gt;Node62 -->
<g id="edge6" class="edge">
<title>Node61&#45;&gt;Node62</title>
<path fill="none" stroke="#191970" d="M340.579,-46.1575C340.579,-37.155 340.579,-26.9199 340.579,-19.6427"/>
<polygon fill="#191970" stroke="#191970" points="337.0791,-46.2455 340.579,-56.2455 344.0791,-46.2456 337.0791,-46.2455"/>
</g>
<!-- Node63&#45;&gt;Node59 -->
<g id="edge8" class="edge">
<title>Node63&#45;&gt;Node59</title>
<path fill="none" stroke="#191970" d="M143.579,-46.1575C143.579,-37.155 143.579,-26.9199 143.579,-19.6427"/>
<polygon fill="#191970" stroke="#191970" points="140.0791,-46.2455 143.579,-56.2455 147.0791,-46.2456 140.0791,-46.2455"/>
</g>
<!-- Node64&#45;&gt;Node59 -->
<g id="edge10" class="edge">
<title>Node64&#45;&gt;Node59</title>
<path fill="none" stroke="#191970" d="M214.6773,-51.0465C197.4181,-41.0824 175.2414,-28.2794 160.2814,-19.6427"/>
<polygon fill="#191970" stroke="#191970" points="213.2725,-54.2768 223.6828,-56.2455 216.7724,-48.2146 213.2725,-54.2768"/>
</g>
</g>
</svg>
        <g id="navigator" transform="translate(0 0)" fill="#404254">
                <rect fill="#f2f5e9" fill-opacity="0.5" stroke="#606060" stroke-width=".5" x="0" y="0" width="60" height="60"/>
                <use id="zoomplus" xlink:href="#zoomPlus" x="17" y="9" onmousedown="handleZoom(evt,'in')"/>
                <use id="zoomminus" xlink:href="#zoomMin" x="42" y="9" onmousedown="handleZoom(evt,'out')"/>
                <use id="reset" xlink:href="#resetDef" x="30" y="36" onmousedown="handleReset()"/>
                <g id="arrowUp" xlink:href="#dirArrow" transform="translate(30 24)" onmousedown="handlePan(0,-1)">
                  <use xlink:href="#rim" fill="#404040">
                        <set attributeName="fill" to="#808080" begin="arrowUp.mouseover" end="arrowUp.mouseout"/>
                  </use>
                  <path fill="none" stroke="white" stroke-width="1.5" d="M0,-3.0v7 M-2.5,-0.5L0,-3.0L2.5,-0.5"/>
                </g>
                <g id="arrowRight" xlink:href="#dirArrow" transform="rotate(90) translate(36 -43)" onmousedown="handlePan(1,0)">
                  <use xlink:href="#rim" fill="#404040">
                        <set attributeName="fill" to="#808080" begin="arrowRight.mouseover" end="arrowRight.mouseout"/>
                  </use>
                  <path fill="none" stroke="white" stroke-width="1.5" d="M0,-3.0v7 M-2.5,-0.5L0,-3.0L2.5,-0.5"/>
                </g>
                <g id="arrowDown" xlink:href="#dirArrow" transform="rotate(180) translate(-30 -48)" onmousedown="handlePan(0,1)">
                  <use xlink:href="#rim" fill="#404040">
                        <set attributeName="fill" to="#808080" begin="arrowDown.mouseover" end="arrowDown.mouseout"/>
                  </use>
                  <path fill="none" stroke="white" stroke-width="1.5" d="M0,-3.0v7 M-2.5,-0.5L0,-3.0L2.5,-0.5"/>
                </g>
                <g id="arrowLeft" xlink:href="#dirArrow" transform="rotate(270) translate(-36 17)" onmousedown="handlePan(-1,0)">
                  <use xlink:href="#rim" fill="#404040">
                        <set attributeName="fill" to="#808080" begin="arrowLeft.mouseover" end="arrowLeft.mouseout"/>
                  </use>
                  <path fill="none" stroke="white" stroke-width="1.5" d="M0,-3.0v7 M-2.5,-0.5L0,-3.0L2.5,-0.5"/>
                </g>
        </g>
        <svg viewBox="0 0 15 15" width="100%" height="30px" preserveAspectRatio="xMaxYMin meet">
         <g id="arrow_out" transform="scale(0.3 0.3)">
          <a xlink:href="icns_8_h__dep__incl_org.svg" target="_base">
           <rect id="button" ry="5" rx="5" y="6" x="6" height="38" width="38"
                fill="#f2f5e9" fill-opacity="0.5" stroke="#606060" stroke-width="1.0"/>
           <path id="arrow"
             d="M 11.500037,31.436501 C 11.940474,20.09759 22.043105,11.32322 32.158766,21.979434 L 37.068811,17.246167 C 37.068811,17.246167 37.088388,32 37.088388,32 L 22.160133,31.978069 C 22.160133,31.978069 26.997745,27.140456 26.997745,27.140456 C 18.528582,18.264221 13.291696,25.230495 11.500037,31.436501 z"
             style="fill:#404040;"/>
          </a>
         </g>
        </svg>
</svg>
