<?xml version="1.0" encoding="UTF-8" standalone="no"?>
<!DOCTYPE svg PUBLIC "-//W3C//DTD SVG 1.1//EN"
 "http://www.w3.org/Graphics/SVG/1.1/DTD/svg11.dtd">
<!-- Generated by graphviz version 2.40.1 (20161225.0304)
 -->
<!-- Title: incflo_godunov_weno.H Pages: 1 -->
<svg width="304pt" height="84pt"
 viewBox="0.00 0.00 303.50 84.00" xmlns="http://www.w3.org/2000/svg" xmlns:xlink="http://www.w3.org/1999/xlink">
<g id="graph0" class="graph" transform="scale(1 1) rotate(0) translate(4 80)">
<title>incflo_godunov_weno.H</title>
<polygon fill="#ffffff" stroke="transparent" points="-4,4 -4,-80 299.5,-80 299.5,4 -4,4"/>
<!-- Node3 -->
<g id="node1" class="node">
<title>Node3</title>
<polygon fill="#bfbfbf" stroke="#000000" points="91.5,-56.5 91.5,-75.5 212.5,-75.5 212.5,-56.5 91.5,-56.5"/>
<text text-anchor="middle" x="152" y="-63.5" font-family="Helvetica,sans-Serif" font-size="10.00" fill="#000000">incflo_godunov_weno.H</text>
</g>
<!-- Node4 -->
<g id="node2" class="node">
<title>Node4</title>
<g id="a_node2"><a xlink:href="incflo__godunov__advection_8cpp.html" target="_top" xlink:title="incflo_godunov_advection.cpp">
<polygon fill="#ffffff" stroke="#000000" points="0,-.5 0,-19.5 148,-19.5 148,-.5 0,-.5"/>
<text text-anchor="middle" x="74" y="-7.5" font-family="Helvetica,sans-Serif" font-size="10.00" fill="#000000">incflo_godunov_advection.cpp</text>
</a>
</g>
</g>
<!-- Node3&#45;&gt;Node4 -->
<g id="edge1" class="edge">
<title>Node3&#45;&gt;Node4</title>
<path fill="none" stroke="#191970" d="M130.0064,-50.2097C116.3071,-40.3743 99.1264,-28.0394 87.4309,-19.6427"/>
<polygon fill="#191970" stroke="#191970" points="128.2489,-53.2566 138.4134,-56.2455 132.3314,-47.5703 128.2489,-53.2566"/>
</g>
<!-- Node5 -->
<g id="node3" class="node">
<title>Node5</title>
<g id="a_node3"><a xlink:href="incflo__godunov__weno_8cpp.html" target="_top" xlink:title="incflo_godunov_weno.cpp">
<polygon fill="#ffffff" stroke="#000000" points="166.5,-.5 166.5,-19.5 295.5,-19.5 295.5,-.5 166.5,-.5"/>
<text text-anchor="middle" x="231" y="-7.5" font-family="Helvetica,sans-Serif" font-size="10.00" fill="#000000">incflo_godunov_weno.cpp</text>
</a>
</g>
</g>
<!-- Node3&#45;&gt;Node5 -->
<g id="edge2" class="edge">
<title>Node3&#45;&gt;Node5</title>
<path fill="none" stroke="#191970" d="M174.2756,-50.2097C188.1505,-40.3743 205.5515,-28.0394 217.3969,-19.6427"/>
<polygon fill="#191970" stroke="#191970" points="171.8949,-47.6071 165.7607,-56.2455 175.9431,-53.3178 171.8949,-47.6071"/>
</g>
</g>
</svg>
