<?xml version="1.0" encoding="UTF-8" standalone="no"?>
<!DOCTYPE svg PUBLIC "-//W3C//DTD SVG 1.1//EN"
 "http://www.w3.org/Graphics/SVG/1.1/DTD/svg11.dtd">
<!-- Generated by graphviz version 2.40.1 (20161225.0304)
 -->
<!-- Title: incflo_regrid.cpp Pages: 1 -->
<svg width="2362pt" height="397pt"
 viewBox="0.00 0.00 2362.00 397.00" xmlns="http://www.w3.org/2000/svg" xmlns:xlink="http://www.w3.org/1999/xlink">
<g id="graph0" class="graph" transform="scale(1 1) rotate(0) translate(4 393)">
<title>incflo_regrid.cpp</title>
<polygon fill="#ffffff" stroke="transparent" points="-4,4 -4,-393 2358,-393 2358,4 -4,4"/>
<!-- Node0 -->
<g id="node1" class="node">
<title>Node0</title>
<polygon fill="#bfbfbf" stroke="#000000" points="816,-369.5 816,-388.5 904,-388.5 904,-369.5 816,-369.5"/>
<text text-anchor="middle" x="860" y="-376.5" font-family="Helvetica,sans-Serif" font-size="10.00" fill="#000000">incflo_regrid.cpp</text>
</g>
<!-- Node1 -->
<g id="node2" class="node">
<title>Node1</title>
<g id="a_node2"><a xlink:href="incflo_8_h.html" target="_top" xlink:title="amr&#45;wind/incflo.H">
<polygon fill="#ffffff" stroke="#000000" points="813.5,-313.5 813.5,-332.5 906.5,-332.5 906.5,-313.5 813.5,-313.5"/>
<text text-anchor="middle" x="860" y="-320.5" font-family="Helvetica,sans-Serif" font-size="10.00" fill="#000000">amr&#45;wind/incflo.H</text>
</a>
</g>
</g>
<!-- Node0&#45;&gt;Node1 -->
<g id="edge1" class="edge">
<title>Node0&#45;&gt;Node1</title>
<path fill="none" stroke="#191970" d="M860,-369.2455C860,-361.9382 860,-351.6944 860,-342.7046"/>
<polygon fill="#191970" stroke="#191970" points="863.5001,-342.6426 860,-332.6427 856.5001,-342.6427 863.5001,-342.6426"/>
</g>
<!-- Node2 -->
<g id="node3" class="node">
<title>Node2</title>
<polygon fill="#ffffff" stroke="#bfbfbf" points="725,-129 725,-148 831,-148 831,-129 725,-129"/>
<text text-anchor="middle" x="778" y="-136" font-family="Helvetica,sans-Serif" font-size="10.00" fill="#000000">AMReX_AmrCore.H</text>
</g>
<!-- Node1&#45;&gt;Node2 -->
<g id="edge2" class="edge">
<title>Node1&#45;&gt;Node2</title>
<path fill="none" stroke="#191970" d="M904.0722,-313.4185C938.241,-304.9919 981.4931,-291.788 992,-277 999.98,-265.7685 999.0886,-257.8143 992,-246 972.3754,-213.2923 870.9491,-172.2466 815.0622,-151.6173"/>
<polygon fill="#191970" stroke="#191970" points="816.1095,-148.2737 805.5157,-148.1285 813.7067,-154.8484 816.1095,-148.2737"/>
</g>
<!-- Node3 -->
<g id="node4" class="node">
<title>Node3</title>
<polygon fill="#ffffff" stroke="#bfbfbf" points="415.5,-252 415.5,-271 534.5,-271 534.5,-252 415.5,-252"/>
<text text-anchor="middle" x="475" y="-259" font-family="Helvetica,sans-Serif" font-size="10.00" fill="#000000">AMReX_MultiFabUtil.H</text>
</g>
<!-- Node1&#45;&gt;Node3 -->
<g id="edge3" class="edge">
<title>Node1&#45;&gt;Node3</title>
<path fill="none" stroke="#191970" d="M813.2353,-317.3279C751.3957,-309.5682 639.1304,-294.5824 544,-277 537.82,-275.8578 531.3528,-274.5527 524.9602,-273.1954"/>
<polygon fill="#191970" stroke="#191970" points="525.5437,-269.7406 515.0283,-271.0356 524.0562,-276.5807 525.5437,-269.7406"/>
</g>
<!-- Node4 -->
<g id="node5" class="node">
<title>Node4</title>
<polygon fill="#ffffff" stroke="#bfbfbf" points="553,-252 553,-271 669,-271 669,-252 553,-252"/>
<text text-anchor="middle" x="611" y="-259" font-family="Helvetica,sans-Serif" font-size="10.00" fill="#000000">AMReX_ParmParse.H</text>
</g>
<!-- Node1&#45;&gt;Node4 -->
<g id="edge4" class="edge">
<title>Node1&#45;&gt;Node4</title>
<path fill="none" stroke="#191970" d="M821.367,-313.4581C777.7519,-302.6857 706.7247,-285.1428 659.4359,-273.4631"/>
<polygon fill="#191970" stroke="#191970" points="660.2712,-270.0643 649.7237,-271.0643 658.5927,-276.8601 660.2712,-270.0643"/>
</g>
<!-- Node5 -->
<g id="node6" class="node">
<title>Node5</title>
<polygon fill="#ffffff" stroke="#bfbfbf" points="2127.5,-62 2127.5,-81 2234.5,-81 2234.5,-62 2127.5,-62"/>
<text text-anchor="middle" x="2181" y="-69" font-family="Helvetica,sans-Serif" font-size="10.00" fill="#000000">AMReX_iMultiFab.H</text>
</g>
<!-- Node1&#45;&gt;Node5 -->
<g id="edge5" class="edge">
<title>Node1&#45;&gt;Node5</title>
<path fill="none" stroke="#191970" d="M906.7271,-322.509C1112.2483,-319.5135 1934.6569,-298.5409 2139,-154 2160.1583,-139.0338 2171.3257,-110.1895 2176.6938,-90.888"/>
<polygon fill="#191970" stroke="#191970" points="2180.1234,-91.6004 2179.1612,-81.0493 2173.3337,-89.8975 2180.1234,-91.6004"/>
</g>
<!-- Node6 -->
<g id="node7" class="node">
<title>Node6</title>
<polygon fill="#ffffff" stroke="#bfbfbf" points="725.5,-252 725.5,-271 856.5,-271 856.5,-252 725.5,-252"/>
<text text-anchor="middle" x="791" y="-259" font-family="Helvetica,sans-Serif" font-size="10.00" fill="#000000">AMReX_NodalProjector.H</text>
</g>
<!-- Node1&#45;&gt;Node6 -->
<g id="edge6" class="edge">
<title>Node1&#45;&gt;Node6</title>
<path fill="none" stroke="#191970" d="M849.2188,-313.3906C838.6474,-303.9683 822.3175,-289.4134 809.6397,-278.1137"/>
<polygon fill="#191970" stroke="#191970" points="811.7272,-275.2858 801.9333,-271.2449 807.0696,-280.5114 811.7272,-275.2858"/>
</g>
<!-- Node7 -->
<g id="node8" class="node">
<title>Node7</title>
<g id="a_node8"><a xlink:href="incflo__enums_8_h.html" target="_top" xlink:title="amr&#45;wind/incflo_enums.H">
<polygon fill="#ffffff" stroke="#000000" points="703,-62 703,-81 831,-81 831,-62 703,-62"/>
<text text-anchor="middle" x="767" y="-69" font-family="Helvetica,sans-Serif" font-size="10.00" fill="#000000">amr&#45;wind/incflo_enums.H</text>
</a>
</g>
</g>
<!-- Node1&#45;&gt;Node7 -->
<g id="edge7" class="edge">
<title>Node1&#45;&gt;Node7</title>
<path fill="none" stroke="#191970" d="M813.4666,-314.2883C776.0047,-306.2172 727.7252,-293.0544 716,-277 675.6322,-221.7272 689.9618,-186.2981 716,-123 721.7983,-108.9046 733.5269,-96.6184 744.2759,-87.5849"/>
<polygon fill="#191970" stroke="#191970" points="746.5116,-90.2792 752.1904,-81.3349 742.1733,-84.7856 746.5116,-90.2792"/>
</g>
<!-- Node8 -->
<g id="node9" class="node">
<title>Node8</title>
<g id="a_node9"><a xlink:href="_c_f_d_sim_8_h.html" target="_top" xlink:title="amr&#45;wind/CFDSim.H">
<polygon fill="#ffffff" stroke="#000000" points="875,-252 875,-271 983,-271 983,-252 875,-252"/>
<text text-anchor="middle" x="929" y="-259" font-family="Helvetica,sans-Serif" font-size="10.00" fill="#000000">amr&#45;wind/CFDSim.H</text>
</a>
</g>
</g>
<!-- Node1&#45;&gt;Node8 -->
<g id="edge8" class="edge">
<title>Node1&#45;&gt;Node8</title>
<path fill="none" stroke="#191970" d="M870.7813,-313.3906C881.3526,-303.9683 897.6825,-289.4134 910.3603,-278.1137"/>
<polygon fill="#191970" stroke="#191970" points="912.9304,-280.5114 918.0667,-271.2449 908.2728,-275.2858 912.9304,-280.5114"/>
</g>
<!-- Node9 -->
<g id="node10" class="node">
<title>Node9</title>
<g id="a_node10"><a xlink:href="_sim_time_8_h.html" target="_top" xlink:title="amr&#45;wind/core/SimTime.H">
<polygon fill="#ffffff" stroke="#000000" points="237.5,-190.5 237.5,-209.5 368.5,-209.5 368.5,-190.5 237.5,-190.5"/>
<text text-anchor="middle" x="303" y="-197.5" font-family="Helvetica,sans-Serif" font-size="10.00" fill="#000000">amr&#45;wind/core/SimTime.H</text>
</a>
</g>
</g>
<!-- Node1&#45;&gt;Node9 -->
<g id="edge73" class="edge">
<title>Node1&#45;&gt;Node9</title>
<path fill="none" stroke="#191970" d="M813.4247,-321.4295C713.0441,-317.5376 479.4507,-305.6124 406,-277 371.4138,-263.5271 338.3101,-235.0793 319.3497,-216.7885"/>
<polygon fill="#191970" stroke="#191970" points="321.6978,-214.1882 312.1266,-209.6447 316.7754,-219.1652 321.6978,-214.1882"/>
</g>
<!-- Node13 -->
<g id="node14" class="node">
<title>Node13</title>
<g id="a_node14"><a xlink:href="_field_repo_8_h.html" target="_top" xlink:title="amr&#45;wind/core/FieldRepo.H">
<polygon fill="#ffffff" stroke="#000000" points="1260,-190.5 1260,-209.5 1396,-209.5 1396,-190.5 1260,-190.5"/>
<text text-anchor="middle" x="1328" y="-197.5" font-family="Helvetica,sans-Serif" font-size="10.00" fill="#000000">amr&#45;wind/core/FieldRepo.H</text>
</a>
</g>
</g>
<!-- Node1&#45;&gt;Node13 -->
<g id="edge74" class="edge">
<title>Node1&#45;&gt;Node13</title>
<path fill="none" stroke="#191970" d="M896.3337,-313.4507C980.5657,-291.3129 1189.0534,-236.518 1282.0009,-212.0895"/>
<polygon fill="#191970" stroke="#191970" points="1282.9075,-215.4702 1291.6894,-209.5432 1281.1282,-208.7001 1282.9075,-215.4702"/>
</g>
<!-- Node40 -->
<g id="node41" class="node">
<title>Node40</title>
<g id="a_node41"><a xlink:href="incflo__prob___i_8_h.html" target="_top" xlink:title="amr&#45;wind/prob/incflo\l_prob_I.H">
<polygon fill="#ffffff" stroke="#000000" points="2250,-246.5 2250,-276.5 2354,-276.5 2354,-246.5 2250,-246.5"/>
<text text-anchor="start" x="2258" y="-264.5" font-family="Helvetica,sans-Serif" font-size="10.00" fill="#000000">amr&#45;wind/prob/incflo</text>
<text text-anchor="middle" x="2302" y="-253.5" font-family="Helvetica,sans-Serif" font-size="10.00" fill="#000000">_prob_I.H</text>
</a>
</g>
</g>
<!-- Node1&#45;&gt;Node40 -->
<g id="edge75" class="edge">
<title>Node1&#45;&gt;Node40</title>
<path fill="none" stroke="#191970" d="M906.6856,-322.6756C1116.1563,-321.0302 1970.6254,-312.246 2236,-277 2237.2798,-276.83 2238.5711,-276.6462 2239.8705,-276.4499"/>
<polygon fill="#191970" stroke="#191970" points="2240.6707,-279.864 2249.9372,-274.7277 2239.4902,-272.9642 2240.6707,-279.864"/>
</g>
<!-- Node8&#45;&gt;Node2 -->
<g id="edge9" class="edge">
<title>Node8&#45;&gt;Node2</title>
<path fill="none" stroke="#191970" d="M921.3019,-251.9628C909.3518,-237.5129 885.1858,-209.6749 861,-190 843.5736,-175.8238 821.9578,-162.529 805.1544,-152.9993"/>
<polygon fill="#191970" stroke="#191970" points="806.8114,-149.916 796.3715,-148.1107 803.407,-156.0324 806.8114,-149.916"/>
</g>
<!-- Node8&#45;&gt;Node9 -->
<g id="edge10" class="edge">
<title>Node8&#45;&gt;Node9</title>
<path fill="none" stroke="#191970" d="M893.9896,-251.9786C884.6308,-249.7201 874.481,-247.5265 865,-246 692.4856,-218.2234 487.3285,-206.8181 378.9136,-202.4581"/>
<polygon fill="#191970" stroke="#191970" points="378.8579,-198.9533 368.7282,-202.0579 378.583,-205.9479 378.8579,-198.9533"/>
</g>
<!-- Node8&#45;&gt;Node13 -->
<g id="edge14" class="edge">
<title>Node8&#45;&gt;Node13</title>
<path fill="none" stroke="#191970" d="M983.2262,-253.1418C1053.884,-242.251 1177.643,-223.1753 1256.0781,-211.0857"/>
<polygon fill="#191970" stroke="#191970" points="1257.0097,-214.4835 1266.3598,-209.5009 1255.9433,-207.5652 1257.0097,-214.4835"/>
</g>
<!-- Node30 -->
<g id="node31" class="node">
<title>Node30</title>
<g id="a_node31"><a xlink:href="_p_d_e_base_8_h.html" target="_top" xlink:title="amr&#45;wind/equation_systems\l/PDEBase.H">
<polygon fill="#ffffff" stroke="#000000" points="529.5,-123.5 529.5,-153.5 668.5,-153.5 668.5,-123.5 529.5,-123.5"/>
<text text-anchor="start" x="537.5" y="-141.5" font-family="Helvetica,sans-Serif" font-size="10.00" fill="#000000">amr&#45;wind/equation_systems</text>
<text text-anchor="middle" x="599" y="-130.5" font-family="Helvetica,sans-Serif" font-size="10.00" fill="#000000">/PDEBase.H</text>
</a>
</g>
</g>
<!-- Node8&#45;&gt;Node30 -->
<g id="edge51" class="edge">
<title>Node8&#45;&gt;Node30</title>
<path fill="none" stroke="#191970" d="M915.8845,-251.9891C894.3711,-236.8048 849.7912,-207.064 808,-190 766.6969,-173.1354 718.4647,-160.8002 678.7482,-152.4375"/>
<polygon fill="#191970" stroke="#191970" points="679.3442,-148.9869 668.8436,-150.3967 677.9315,-155.8429 679.3442,-148.9869"/>
</g>
<!-- Node38 -->
<g id="node39" class="node">
<title>Node38</title>
<g id="a_node39"><a xlink:href="_physics_8_h.html" target="_top" xlink:title="amr&#45;wind/core/Physics.H">
<polygon fill="#ffffff" stroke="#000000" points="384.5,-129 384.5,-148 511.5,-148 511.5,-129 384.5,-129"/>
<text text-anchor="middle" x="448" y="-136" font-family="Helvetica,sans-Serif" font-size="10.00" fill="#000000">amr&#45;wind/core/Physics.H</text>
</a>
</g>
</g>
<!-- Node8&#45;&gt;Node38 -->
<g id="edge68" class="edge">
<title>Node8&#45;&gt;Node38</title>
<path fill="none" stroke="#191970" d="M891.657,-251.9507C805.0852,-229.8129 590.8062,-175.018 495.2768,-150.5895"/>
<polygon fill="#191970" stroke="#191970" points="495.8746,-147.1298 485.3192,-148.0432 494.1404,-153.9116 495.8746,-147.1298"/>
</g>
<!-- Node10 -->
<g id="node11" class="node">
<title>Node10</title>
<polygon fill="#ffffff" stroke="#bfbfbf" points="128.5,-129 128.5,-148 221.5,-148 221.5,-129 128.5,-129"/>
<text text-anchor="middle" x="175" y="-136" font-family="Helvetica,sans-Serif" font-size="10.00" fill="#000000">AMReX_REAL.H</text>
</g>
<!-- Node9&#45;&gt;Node10 -->
<g id="edge11" class="edge">
<title>Node9&#45;&gt;Node10</title>
<path fill="none" stroke="#191970" d="M283,-190.3906C261.7711,-180.1908 228.0238,-163.9763 203.904,-152.3875"/>
<polygon fill="#191970" stroke="#191970" points="205.3889,-149.2179 194.8596,-148.0419 202.3574,-155.5275 205.3889,-149.2179"/>
</g>
<!-- Node11 -->
<g id="node12" class="node">
<title>Node11</title>
<polygon fill="#ffffff" stroke="#bfbfbf" points="240,-129 240,-148 366,-148 366,-129 240,-129"/>
<text text-anchor="middle" x="303" y="-136" font-family="Helvetica,sans-Serif" font-size="10.00" fill="#000000">AMReX_GpuQualifiers.H</text>
</g>
<!-- Node9&#45;&gt;Node11 -->
<g id="edge12" class="edge">
<title>Node9&#45;&gt;Node11</title>
<path fill="none" stroke="#191970" d="M303,-190.3906C303,-181.8657 303,-169.1392 303,-158.4235"/>
<polygon fill="#191970" stroke="#191970" points="306.5001,-158.2448 303,-148.2449 299.5001,-158.2449 306.5001,-158.2448"/>
</g>
<!-- Node12 -->
<g id="node13" class="node">
<title>Node12</title>
<polygon fill="#ffffff" stroke="#bfbfbf" points="0,-129 0,-148 110,-148 110,-129 0,-129"/>
<text text-anchor="middle" x="55" y="-136" font-family="Helvetica,sans-Serif" font-size="10.00" fill="#000000">AMReX_Extension.H</text>
</g>
<!-- Node9&#45;&gt;Node12 -->
<g id="edge13" class="edge">
<title>Node9&#45;&gt;Node12</title>
<path fill="none" stroke="#191970" d="M264.5221,-190.4581C221.1731,-179.7082 150.6361,-162.2162 103.5373,-150.5365"/>
<polygon fill="#191970" stroke="#191970" points="104.1166,-147.0742 93.5682,-148.0643 102.4317,-153.8684 104.1166,-147.0742"/>
</g>
<!-- Node13&#45;&gt;Node2 -->
<g id="edge48" class="edge">
<title>Node13&#45;&gt;Node2</title>
<path fill="none" stroke="#191970" d="M1259.6463,-196.3483C1165.735,-190.6819 991.7461,-177.8546 845,-154 838.6585,-152.9691 832.0225,-151.6868 825.4961,-150.3042"/>
<polygon fill="#191970" stroke="#191970" points="825.9083,-146.8109 815.3886,-148.0708 824.3979,-153.646 825.9083,-146.8109"/>
</g>
<!-- Node13&#45;&gt;Node5 -->
<g id="edge50" class="edge">
<title>Node13&#45;&gt;Node5</title>
<path fill="none" stroke="#191970" d="M1396.0752,-198.9305C1574.064,-195.7199 2043.8869,-184.4342 2107,-154 2135.7447,-140.1389 2158.3048,-109.6085 2170.6284,-89.8269"/>
<polygon fill="#191970" stroke="#191970" points="2173.7178,-91.48 2175.8381,-81.0995 2167.7072,-87.8921 2173.7178,-91.48"/>
</g>
<!-- Node14 -->
<g id="node15" class="node">
<title>Node14</title>
<polygon fill="#ffffff" stroke="#bfbfbf" points="976.5,-.5 976.5,-19.5 1017.5,-19.5 1017.5,-.5 976.5,-.5"/>
<text text-anchor="middle" x="997" y="-7.5" font-family="Helvetica,sans-Serif" font-size="10.00" fill="#000000">string</text>
</g>
<!-- Node13&#45;&gt;Node14 -->
<g id="edge15" class="edge">
<title>Node13&#45;&gt;Node14</title>
<path fill="none" stroke="#191970" d="M1273.0794,-190.4908C1183.7306,-173.7432 1013.4713,-136.0633 980,-87 968.1333,-69.6054 976.6633,-45.3164 985.3639,-28.6972"/>
<polygon fill="#191970" stroke="#191970" points="988.4601,-30.3327 990.3535,-19.9084 982.3727,-26.8767 988.4601,-30.3327"/>
</g>
<!-- Node15 -->
<g id="node16" class="node">
<title>Node15</title>
<polygon fill="#ffffff" stroke="#bfbfbf" points="669.5,-.5 669.5,-19.5 752.5,-19.5 752.5,-.5 669.5,-.5"/>
<text text-anchor="middle" x="711" y="-7.5" font-family="Helvetica,sans-Serif" font-size="10.00" fill="#000000">unordered_map</text>
</g>
<!-- Node13&#45;&gt;Node15 -->
<g id="edge16" class="edge">
<title>Node13&#45;&gt;Node15</title>
<path fill="none" stroke="#191970" d="M1259.9843,-195.7692C1198.6273,-190.4922 1106.5342,-178.9112 1030,-154 939.6501,-124.5919 927.1647,-93.8188 840,-56 810.8266,-43.3423 776.9258,-31.3549 751.2,-22.7922"/>
<polygon fill="#191970" stroke="#191970" points="752.0106,-19.3743 741.4176,-19.5698 749.8205,-26.0229 752.0106,-19.3743"/>
</g>
<!-- Node16 -->
<g id="node17" class="node">
<title>Node16</title>
<g id="a_node17"><a xlink:href="_field_desc_types_8_h.html" target="_top" xlink:title="amr&#45;wind/core/FieldDescTypes.H">
<polygon fill="#ffffff" stroke="#000000" points="1776.5,-.5 1776.5,-19.5 1939.5,-19.5 1939.5,-.5 1776.5,-.5"/>
<text text-anchor="middle" x="1858" y="-7.5" font-family="Helvetica,sans-Serif" font-size="10.00" fill="#000000">amr&#45;wind/core/FieldDescTypes.H</text>
</a>
</g>
</g>
<!-- Node13&#45;&gt;Node16 -->
<g id="edge17" class="edge">
<title>Node13&#45;&gt;Node16</title>
<path fill="none" stroke="#191970" d="M1396.1405,-198.1121C1578.6252,-192.7776 2069.2983,-176.505 2139,-154 2191.68,-136.9909 2217.3912,-135.5434 2244,-87 2250.6226,-74.9182 2253.1478,-66.3027 2244,-56 2241.5567,-53.2483 2063.1284,-32.8784 1949.7451,-20.1849"/>
<polygon fill="#191970" stroke="#191970" points="1949.9904,-16.6906 1939.6633,-19.0573 1949.2123,-23.6472 1949.9904,-16.6906"/>
</g>
<!-- Node17 -->
<g id="node18" class="node">
<title>Node17</title>
<g id="a_node18"><a xlink:href="_field_utils_8_h.html" target="_top" xlink:title="amr&#45;wind/core/FieldUtils.H">
<polygon fill="#ffffff" stroke="#000000" points="1937.5,-62 1937.5,-81 2070.5,-81 2070.5,-62 1937.5,-62"/>
<text text-anchor="middle" x="2004" y="-69" font-family="Helvetica,sans-Serif" font-size="10.00" fill="#000000">amr&#45;wind/core/FieldUtils.H</text>
</a>
</g>
</g>
<!-- Node13&#45;&gt;Node17 -->
<g id="edge18" class="edge">
<title>Node13&#45;&gt;Node17</title>
<path fill="none" stroke="#191970" d="M1396.308,-197.2825C1517.3085,-191.9155 1764.3419,-178.3166 1847,-154 1898.1769,-138.9447 1951.9912,-106.4819 1981.4341,-87.0682"/>
<polygon fill="#191970" stroke="#191970" points="1983.742,-89.7351 1990.1029,-81.2622 1979.8466,-83.919 1983.742,-89.7351"/>
</g>
<!-- Node18 -->
<g id="node19" class="node">
<title>Node18</title>
<polygon fill="#ffffff" stroke="#bfbfbf" points="1361,-.5 1361,-19.5 1465,-19.5 1465,-.5 1361,-.5"/>
<text text-anchor="middle" x="1413" y="-7.5" font-family="Helvetica,sans-Serif" font-size="10.00" fill="#000000">AMReX_MultiFab.H</text>
</g>
<!-- Node13&#45;&gt;Node18 -->
<g id="edge49" class="edge">
<title>Node13&#45;&gt;Node18</title>
<path fill="none" stroke="#191970" d="M1396.1339,-194.374C1517.339,-182.7999 1762.5514,-151.7833 1814,-87 1822.5685,-76.2107 1823.1704,-66.2825 1814,-56 1791.8882,-31.2067 1582.5003,-17.9039 1475.4202,-12.6728"/>
<polygon fill="#191970" stroke="#191970" points="1475.5429,-9.1748 1465.3867,-12.1917 1475.2075,-16.1668 1475.5429,-9.1748"/>
</g>
<!-- Node20 -->
<g id="node21" class="node">
<title>Node20</title>
<g id="a_node21"><a xlink:href="_field_8_h.html" target="_top" xlink:title="amr&#45;wind/core/Field.H">
<polygon fill="#ffffff" stroke="#000000" points="1366.5,-129 1366.5,-148 1479.5,-148 1479.5,-129 1366.5,-129"/>
<text text-anchor="middle" x="1423" y="-136" font-family="Helvetica,sans-Serif" font-size="10.00" fill="#000000">amr&#45;wind/core/Field.H</text>
</a>
</g>
</g>
<!-- Node13&#45;&gt;Node20 -->
<g id="edge22" class="edge">
<title>Node13&#45;&gt;Node20</title>
<path fill="none" stroke="#191970" d="M1342.8438,-190.3906C1358.0418,-180.5519 1381.8848,-165.1167 1399.6206,-153.6351"/>
<polygon fill="#191970" stroke="#191970" points="1401.768,-156.4144 1408.2605,-148.0419 1397.9639,-150.5382 1401.768,-156.4144"/>
</g>
<!-- Node27 -->
<g id="node28" class="node">
<title>Node27</title>
<g id="a_node28"><a xlink:href="_int_field_8_h.html" target="_top" xlink:title="amr&#45;wind/core/IntField.H">
<polygon fill="#ffffff" stroke="#000000" points="1974,-129 1974,-148 2098,-148 2098,-129 1974,-129"/>
<text text-anchor="middle" x="2036" y="-136" font-family="Helvetica,sans-Serif" font-size="10.00" fill="#000000">amr&#45;wind/core/IntField.H</text>
</a>
</g>
</g>
<!-- Node13&#45;&gt;Node27 -->
<g id="edge37" class="edge">
<title>Node13&#45;&gt;Node27</title>
<path fill="none" stroke="#191970" d="M1396.2018,-196.4521C1508.3977,-190.2483 1738.8362,-175.9608 1933,-154 1944.2571,-152.7268 1956.173,-151.1484 1967.7511,-149.4906"/>
<polygon fill="#191970" stroke="#191970" points="1968.4255,-152.9293 1977.8138,-148.0189 1967.4125,-146.003 1968.4255,-152.9293"/>
</g>
<!-- Node28 -->
<g id="node29" class="node">
<title>Node28</title>
<g id="a_node29"><a xlink:href="_scratch_field_8_h.html" target="_top" xlink:title="amr&#45;wind/core/ScratchField.H">
<polygon fill="#ffffff" stroke="#000000" points="1160,-129 1160,-148 1306,-148 1306,-129 1160,-129"/>
<text text-anchor="middle" x="1233" y="-136" font-family="Helvetica,sans-Serif" font-size="10.00" fill="#000000">amr&#45;wind/core/ScratchField.H</text>
</a>
</g>
</g>
<!-- Node13&#45;&gt;Node28 -->
<g id="edge41" class="edge">
<title>Node13&#45;&gt;Node28</title>
<path fill="none" stroke="#191970" d="M1313.1563,-190.3906C1297.9582,-180.5519 1274.1152,-165.1167 1256.3794,-153.6351"/>
<polygon fill="#191970" stroke="#191970" points="1258.0361,-150.5382 1247.7395,-148.0419 1254.232,-156.4144 1258.0361,-150.5382"/>
</g>
<!-- Node17&#45;&gt;Node16 -->
<g id="edge19" class="edge">
<title>Node17&#45;&gt;Node16</title>
<path fill="none" stroke="#191970" d="M1981.1875,-61.8906C1956.6519,-51.5554 1917.4558,-35.0447 1889.8789,-23.4284"/>
<polygon fill="#191970" stroke="#191970" points="1891.2268,-20.1984 1880.6523,-19.5419 1888.5094,-26.6495 1891.2268,-20.1984"/>
</g>
<!-- Node17&#45;&gt;Node18 -->
<g id="edge20" class="edge">
<title>Node17&#45;&gt;Node18</title>
<path fill="none" stroke="#191970" d="M1958.2962,-61.9342C1946.8108,-59.7566 1934.4846,-57.6127 1923,-56 1762.4591,-33.4561 1571.8549,-19.6886 1475.4769,-13.6332"/>
<polygon fill="#191970" stroke="#191970" points="1475.5209,-10.1293 1465.3229,-13.0019 1475.0865,-17.1158 1475.5209,-10.1293"/>
</g>
<!-- Node19 -->
<g id="node20" class="node">
<title>Node19</title>
<polygon fill="#ffffff" stroke="#bfbfbf" points="1958,-.5 1958,-19.5 2074,-19.5 2074,-.5 1958,-.5"/>
<text text-anchor="middle" x="2016" y="-7.5" font-family="Helvetica,sans-Serif" font-size="10.00" fill="#000000">AMReX_Interpolater.H</text>
</g>
<!-- Node17&#45;&gt;Node19 -->
<g id="edge21" class="edge">
<title>Node17&#45;&gt;Node19</title>
<path fill="none" stroke="#191970" d="M2005.875,-61.8906C2007.5559,-53.276 2010.074,-40.3708 2012.1784,-29.5858"/>
<polygon fill="#191970" stroke="#191970" points="2015.6186,-30.2301 2014.0986,-19.7449 2008.7482,-28.8895 2015.6186,-30.2301"/>
</g>
<!-- Node20&#45;&gt;Node7 -->
<g id="edge30" class="edge">
<title>Node20&#45;&gt;Node7</title>
<path fill="none" stroke="#191970" d="M1366.4565,-129.854C1349.8952,-127.4655 1331.741,-124.9868 1315,-123 1146.0252,-102.9467 946.9786,-85.8732 841.4524,-77.3367"/>
<polygon fill="#191970" stroke="#191970" points="841.475,-73.8272 831.2261,-76.5125 840.9126,-80.8046 841.475,-73.8272"/>
</g>
<!-- Node20&#45;&gt;Node14 -->
<g id="edge23" class="edge">
<title>Node20&#45;&gt;Node14</title>
<path fill="none" stroke="#191970" d="M1423.9987,-128.8596C1425.2138,-111.4148 1424.9474,-74.6894 1404,-56 1376.0204,-31.0365 1117.8517,-15.9818 1027.807,-11.4543"/>
<polygon fill="#191970" stroke="#191970" points="1027.8466,-7.9521 1017.6861,-10.9544 1027.5012,-14.9435 1027.8466,-7.9521"/>
</g>
<!-- Node20&#45;&gt;Node15 -->
<g id="edge25" class="edge">
<title>Node20&#45;&gt;Node15</title>
<path fill="none" stroke="#191970" d="M1388.7001,-128.9674C1354.0067,-119.139 1298.9464,-103.0291 1252,-87 1215.5213,-74.5449 1208.5084,-64.885 1171,-56 1094.5511,-37.8907 866.0024,-20.5768 762.7018,-13.4328"/>
<polygon fill="#191970" stroke="#191970" points="762.7294,-9.9266 752.5131,-12.7331 762.2498,-16.9101 762.7294,-9.9266"/>
</g>
<!-- Node20&#45;&gt;Node16 -->
<g id="edge31" class="edge">
<title>Node20&#45;&gt;Node16</title>
<path fill="none" stroke="#191970" d="M1479.7969,-137.1235C1574.745,-133.8341 1760.5673,-122.8772 1814,-87 1834.101,-73.5032 1846.1096,-47.5333 1852.3829,-29.5069"/>
<polygon fill="#191970" stroke="#191970" points="1855.7974,-30.3193 1855.5004,-19.7286 1849.1282,-28.193 1855.7974,-30.3193"/>
</g>
<!-- Node20&#45;&gt;Node18 -->
<g id="edge27" class="edge">
<title>Node20&#45;&gt;Node18</title>
<path fill="none" stroke="#191970" d="M1427.2099,-128.7541C1433.3482,-113.2232 1443.3655,-81.962 1437,-56 1434.6257,-46.3164 1429.8179,-36.4071 1425.1247,-28.2776"/>
<polygon fill="#191970" stroke="#191970" points="1428.0472,-26.3486 1419.8208,-19.672 1422.0881,-30.0214 1428.0472,-26.3486"/>
</g>
<!-- Node21 -->
<g id="node22" class="node">
<title>Node21</title>
<polygon fill="#ffffff" stroke="#bfbfbf" points="482,-.5 482,-19.5 534,-19.5 534,-.5 482,-.5"/>
<text text-anchor="middle" x="508" y="-7.5" font-family="Helvetica,sans-Serif" font-size="10.00" fill="#000000">memory</text>
</g>
<!-- Node20&#45;&gt;Node21 -->
<g id="edge24" class="edge">
<title>Node20&#45;&gt;Node21</title>
<path fill="none" stroke="#191970" d="M1366.2305,-130.5849C1302.7185,-121.0888 1204.3571,-104.276 1171,-87 1153.1312,-77.7456 1156.4269,-64.0862 1138,-56 1131.1481,-52.9932 677.7197,-21.6547 544.4508,-12.4987"/>
<polygon fill="#191970" stroke="#191970" points="544.5595,-8.998 534.3432,-11.8047 544.0799,-15.9816 544.5595,-8.998"/>
</g>
<!-- Node22 -->
<g id="node23" class="node">
<title>Node22</title>
<polygon fill="#ffffff" stroke="#bfbfbf" points="1631,-62 1631,-81 1687,-81 1687,-62 1631,-62"/>
<text text-anchor="middle" x="1659" y="-69" font-family="Helvetica,sans-Serif" font-size="10.00" fill="#000000">algorithm</text>
</g>
<!-- Node20&#45;&gt;Node22 -->
<g id="edge26" class="edge">
<title>Node20&#45;&gt;Node22</title>
<path fill="none" stroke="#191970" d="M1467.4009,-128.9344C1508.0852,-119.7174 1569.7498,-104.6041 1622,-87 1624.0914,-86.2954 1626.2319,-85.5277 1628.3773,-84.7234"/>
<polygon fill="#191970" stroke="#191970" points="1629.6665,-87.9774 1637.678,-81.0444 1627.0916,-81.4682 1629.6665,-87.9774"/>
</g>
<!-- Node23 -->
<g id="node24" class="node">
<title>Node23</title>
<polygon fill="#ffffff" stroke="#bfbfbf" points="1705.5,-62 1705.5,-81 1804.5,-81 1804.5,-62 1705.5,-62"/>
<text text-anchor="middle" x="1755" y="-69" font-family="Helvetica,sans-Serif" font-size="10.00" fill="#000000">AMReX_BCRec.H</text>
</g>
<!-- Node20&#45;&gt;Node23 -->
<g id="edge28" class="edge">
<title>Node20&#45;&gt;Node23</title>
<path fill="none" stroke="#191970" d="M1479.7072,-129.0032C1535.0911,-119.4457 1621.6586,-103.7554 1696,-87 1700.7234,-85.9354 1705.6415,-84.7567 1710.534,-83.5386"/>
<polygon fill="#191970" stroke="#191970" points="1711.644,-86.8677 1720.4702,-81.0069 1709.9156,-80.0844 1711.644,-86.8677"/>
</g>
<!-- Node24 -->
<g id="node25" class="node">
<title>Node24</title>
<polygon fill="#ffffff" stroke="#bfbfbf" points="1527.5,-62 1527.5,-81 1612.5,-81 1612.5,-62 1527.5,-62"/>
<text text-anchor="middle" x="1570" y="-69" font-family="Helvetica,sans-Serif" font-size="10.00" fill="#000000">AMReX_Gpu.H</text>
</g>
<!-- Node20&#45;&gt;Node24 -->
<g id="edge29" class="edge">
<title>Node20&#45;&gt;Node24</title>
<path fill="none" stroke="#191970" d="M1444.0615,-128.9005C1469.1681,-117.4574 1511.3077,-98.2509 1539.8598,-85.2374"/>
<polygon fill="#191970" stroke="#191970" points="1541.3297,-88.4139 1548.9776,-81.0817 1538.4265,-82.0443 1541.3297,-88.4139"/>
</g>
<!-- Node25 -->
<g id="node26" class="node">
<title>Node25</title>
<g id="a_node26"><a xlink:href="_view_field_8_h.html" target="_top" xlink:title="amr&#45;wind/core/ViewField.H">
<polygon fill="#ffffff" stroke="#000000" points="1261,-62 1261,-81 1395,-81 1395,-62 1261,-62"/>
<text text-anchor="middle" x="1328" y="-69" font-family="Helvetica,sans-Serif" font-size="10.00" fill="#000000">amr&#45;wind/core/ViewField.H</text>
</a>
</g>
</g>
<!-- Node20&#45;&gt;Node25 -->
<g id="edge32" class="edge">
<title>Node20&#45;&gt;Node25</title>
<path fill="none" stroke="#191970" d="M1409.3888,-128.9005C1393.8689,-117.9549 1368.2777,-99.9064 1349.9333,-86.9688"/>
<polygon fill="#191970" stroke="#191970" points="1351.7752,-83.9849 1341.5859,-81.0817 1347.7408,-89.7054 1351.7752,-83.9849"/>
</g>
<!-- Node25&#45;&gt;Node14 -->
<g id="edge33" class="edge">
<title>Node25&#45;&gt;Node14</title>
<path fill="none" stroke="#191970" d="M1276.6444,-61.9581C1207.0433,-49.0262 1084.9282,-26.3371 1027.9333,-15.7474"/>
<polygon fill="#191970" stroke="#191970" points="1028.2276,-12.2423 1017.7564,-13.8566 1026.9488,-19.1245 1028.2276,-12.2423"/>
</g>
<!-- Node25&#45;&gt;Node16 -->
<g id="edge34" class="edge">
<title>Node25&#45;&gt;Node16</title>
<path fill="none" stroke="#191970" d="M1395.3121,-62.517C1412.1816,-60.325 1430.2466,-58.0285 1447,-56 1556.7629,-42.7102 1683.1884,-28.7644 1766.515,-19.7605"/>
<polygon fill="#191970" stroke="#191970" points="1766.8924,-23.2402 1776.4591,-18.6874 1766.1412,-16.2806 1766.8924,-23.2402"/>
</g>
<!-- Node25&#45;&gt;Node18 -->
<g id="edge35" class="edge">
<title>Node25&#45;&gt;Node18</title>
<path fill="none" stroke="#191970" d="M1341.2813,-61.8906C1354.7548,-52.1421 1375.822,-36.8994 1391.6435,-25.4521"/>
<polygon fill="#191970" stroke="#191970" points="1393.7619,-28.2394 1399.812,-19.5419 1389.6586,-22.5682 1393.7619,-28.2394"/>
</g>
<!-- Node26 -->
<g id="node27" class="node">
<title>Node26</title>
<polygon fill="#ffffff" stroke="#bfbfbf" points="863.5,-.5 863.5,-19.5 958.5,-19.5 958.5,-.5 863.5,-.5"/>
<text text-anchor="middle" x="911" y="-7.5" font-family="Helvetica,sans-Serif" font-size="10.00" fill="#000000">AMReX_Vector.H</text>
</g>
<!-- Node25&#45;&gt;Node26 -->
<g id="edge36" class="edge">
<title>Node25&#45;&gt;Node26</title>
<path fill="none" stroke="#191970" d="M1260.6945,-62.615C1190.3053,-53.1607 1076.3569,-37.3999 968.7022,-20.2356"/>
<polygon fill="#191970" stroke="#191970" points="969.0673,-16.7495 958.6396,-18.6241 967.9603,-23.6614 969.0673,-16.7495"/>
</g>
<!-- Node27&#45;&gt;Node5 -->
<g id="edge40" class="edge">
<title>Node27&#45;&gt;Node5</title>
<path fill="none" stroke="#191970" d="M2056.775,-128.9005C2081.4323,-117.5072 2122.7451,-98.4178 2150.9018,-85.4075"/>
<polygon fill="#191970" stroke="#191970" points="2152.6539,-88.4535 2160.2636,-81.0817 2149.7177,-82.099 2152.6539,-88.4535"/>
</g>
<!-- Node27&#45;&gt;Node14 -->
<g id="edge38" class="edge">
<title>Node27&#45;&gt;Node14</title>
<path fill="none" stroke="#191970" d="M2016.3959,-128.9195C1978.4111,-110.881 1891.6775,-72.2338 1814,-56 1735.9857,-39.6958 1166.9696,-16.6295 1027.6991,-11.1841"/>
<polygon fill="#191970" stroke="#191970" points="1027.8342,-7.6868 1017.7056,-10.7948 1027.5617,-14.6815 1027.8342,-7.6868"/>
</g>
<!-- Node27&#45;&gt;Node16 -->
<g id="edge39" class="edge">
<title>Node27&#45;&gt;Node16</title>
<path fill="none" stroke="#191970" d="M2048.0428,-128.8813C2066.8526,-112.7109 2099.1634,-79.5413 2080,-56 2070.6289,-44.488 1995.2159,-30.5705 1934.8475,-21.0798"/>
<polygon fill="#191970" stroke="#191970" points="1935.3381,-17.6141 1924.9192,-19.5371 1934.2632,-24.5311 1935.3381,-17.6141"/>
</g>
<!-- Node28&#45;&gt;Node14 -->
<g id="edge42" class="edge">
<title>Node28&#45;&gt;Node14</title>
<path fill="none" stroke="#191970" d="M1159.7992,-132.8151C1096.8032,-126.2217 1012.8532,-112.7802 992,-87 978.9533,-70.8708 983.5207,-46.0789 989.166,-29.0069"/>
<polygon fill="#191970" stroke="#191970" points="992.488,-30.1145 992.6726,-19.5213 985.9223,-27.6873 992.488,-30.1145"/>
</g>
<!-- Node28&#45;&gt;Node16 -->
<g id="edge43" class="edge">
<title>Node28&#45;&gt;Node16</title>
<path fill="none" stroke="#191970" d="M1264.9585,-128.9954C1334.1792,-108.4503 1493.7807,-61.3187 1519,-56 1601.778,-38.5421 1697.3883,-26.2707 1765.9247,-18.8188"/>
<polygon fill="#191970" stroke="#191970" points="1766.691,-22.2568 1776.2602,-17.7093 1765.9437,-15.2968 1766.691,-22.2568"/>
</g>
<!-- Node28&#45;&gt;Node18 -->
<g id="edge45" class="edge">
<title>Node28&#45;&gt;Node18</title>
<path fill="none" stroke="#191970" d="M1232.3035,-128.9152C1231.62,-111.8873 1232.7729,-76.2527 1252,-56 1265.8383,-41.4235 1311.7024,-29.1727 1350.9565,-20.9882"/>
<polygon fill="#191970" stroke="#191970" points="1351.6666,-24.4155 1360.7704,-18.996 1350.274,-17.5554 1351.6666,-24.4155"/>
</g>
<!-- Node28&#45;&gt;Node25 -->
<g id="edge44" class="edge">
<title>Node28&#45;&gt;Node25</title>
<path fill="none" stroke="#191970" d="M1246.6112,-128.9005C1262.1311,-117.9549 1287.7223,-99.9064 1306.0667,-86.9688"/>
<polygon fill="#191970" stroke="#191970" points="1308.2592,-89.7054 1314.4141,-81.0817 1304.2248,-83.9849 1308.2592,-89.7054"/>
</g>
<!-- Node28&#45;&gt;Node26 -->
<g id="edge46" class="edge">
<title>Node28&#45;&gt;Node26</title>
<path fill="none" stroke="#191970" d="M1160.9253,-128.9787C1097.3667,-119.6583 1010.2847,-104.359 980,-87 954.9357,-72.6333 934.1143,-45.8965 922.1077,-28.0221"/>
<polygon fill="#191970" stroke="#191970" points="925.0268,-26.0907 916.6567,-19.5952 919.1493,-29.8926 925.0268,-26.0907"/>
</g>
<!-- Node29 -->
<g id="node30" class="node">
<title>Node29</title>
<polygon fill="#ffffff" stroke="#bfbfbf" points="1001,-62 1001,-81 1129,-81 1129,-62 1001,-62"/>
<text text-anchor="middle" x="1065" y="-69" font-family="Helvetica,sans-Serif" font-size="10.00" fill="#000000">AMReX_PhysBCFunct.H</text>
</g>
<!-- Node28&#45;&gt;Node29 -->
<g id="edge47" class="edge">
<title>Node28&#45;&gt;Node29</title>
<path fill="none" stroke="#191970" d="M1208.9297,-128.9005C1179.987,-117.3579 1131.2379,-97.9163 1098.5983,-84.8993"/>
<polygon fill="#191970" stroke="#191970" points="1099.6108,-81.5351 1089.0257,-81.0817 1097.0177,-88.0371 1099.6108,-81.5351"/>
</g>
<!-- Node30&#45;&gt;Node7 -->
<g id="edge67" class="edge">
<title>Node30&#45;&gt;Node7</title>
<path fill="none" stroke="#191970" d="M636.7025,-123.4639C665.7795,-111.8677 705.62,-95.9789 733.5666,-84.8335"/>
<polygon fill="#191970" stroke="#191970" points="734.9265,-88.0594 742.9185,-81.1039 732.3334,-81.5574 734.9265,-88.0594"/>
</g>
<!-- Node30&#45;&gt;Node14 -->
<g id="edge52" class="edge">
<title>Node30&#45;&gt;Node14</title>
<path fill="none" stroke="#191970" d="M605.6894,-123.3112C615.043,-104.0661 633.9724,-71.5367 661,-56 776.9378,10.6462 830.7961,-46.9705 966.5795,-19.5713"/>
<polygon fill="#191970" stroke="#191970" points="967.4531,-22.9637 976.4994,-17.4488 965.9884,-16.1186 967.4531,-22.9637"/>
</g>
<!-- Node30&#45;&gt;Node16 -->
<g id="edge66" class="edge">
<title>Node30&#45;&gt;Node16</title>
<path fill="none" stroke="#191970" d="M610.8401,-123.1784C627.1172,-103.4643 658.4615,-70.0832 694,-56 718.8279,-46.1612 1495.5455,-21.2294 1766.1342,-12.8197"/>
<polygon fill="#191970" stroke="#191970" points="1766.4321,-16.3122 1776.3186,-12.5035 1766.2148,-9.3156 1766.4321,-16.3122"/>
</g>
<!-- Node31 -->
<g id="node32" class="node">
<title>Node31</title>
<g id="a_node32"><a xlink:href="_factory_8_h.html" target="_top" xlink:title="amr&#45;wind/core/Factory.H">
<polygon fill="#ffffff" stroke="#000000" points="145.5,-62 145.5,-81 270.5,-81 270.5,-62 145.5,-62"/>
<text text-anchor="middle" x="208" y="-69" font-family="Helvetica,sans-Serif" font-size="10.00" fill="#000000">amr&#45;wind/core/Factory.H</text>
</a>
</g>
</g>
<!-- Node30&#45;&gt;Node31 -->
<g id="edge53" class="edge">
<title>Node30&#45;&gt;Node31</title>
<path fill="none" stroke="#191970" d="M529.2449,-124.6354C526.1227,-124.0711 523.03,-123.5233 520,-123 413.2802,-104.5697 385.5185,-106.5603 279,-87 272.7295,-85.8485 266.1681,-84.5477 259.675,-83.2014"/>
<polygon fill="#191970" stroke="#191970" points="260.0876,-79.7112 249.5794,-81.0632 258.6372,-86.5593 260.0876,-79.7112"/>
</g>
<!-- Node35 -->
<g id="node36" class="node">
<title>Node35</title>
<g id="a_node36"><a xlink:href="_coll_mgr_8_h.html" target="_top" xlink:title="amr&#45;wind/core/CollMgr.H">
<polygon fill="#ffffff" stroke="#000000" points="445.5,-62 445.5,-81 570.5,-81 570.5,-62 445.5,-62"/>
<text text-anchor="middle" x="508" y="-69" font-family="Helvetica,sans-Serif" font-size="10.00" fill="#000000">amr&#45;wind/core/CollMgr.H</text>
</a>
</g>
</g>
<!-- Node30&#45;&gt;Node35 -->
<g id="edge59" class="edge">
<title>Node30&#45;&gt;Node35</title>
<path fill="none" stroke="#191970" d="M578.3507,-123.2967C563.6219,-112.4524 543.8814,-97.9182 529.0604,-87.006"/>
<polygon fill="#191970" stroke="#191970" points="531.1056,-84.1655 520.9776,-81.055 526.9553,-89.8025 531.1056,-84.1655"/>
</g>
<!-- Node36 -->
<g id="node37" class="node">
<title>Node36</title>
<g id="a_node37"><a xlink:href="_p_d_e_fields_8_h.html" target="_top" xlink:title="amr&#45;wind/equation_systems\l/PDEFields.H">
<polygon fill="#ffffff" stroke="#000000" points="288.5,-56.5 288.5,-86.5 427.5,-86.5 427.5,-56.5 288.5,-56.5"/>
<text text-anchor="start" x="296.5" y="-74.5" font-family="Helvetica,sans-Serif" font-size="10.00" fill="#000000">amr&#45;wind/equation_systems</text>
<text text-anchor="middle" x="358" y="-63.5" font-family="Helvetica,sans-Serif" font-size="10.00" fill="#000000">/PDEFields.H</text>
</a>
</g>
</g>
<!-- Node30&#45;&gt;Node36 -->
<g id="edge64" class="edge">
<title>Node30&#45;&gt;Node36</title>
<path fill="none" stroke="#191970" d="M544.9149,-123.4639C508.6074,-113.3701 460.6013,-100.024 422.3319,-89.3848"/>
<polygon fill="#191970" stroke="#191970" points="422.8931,-85.9081 412.321,-86.6017 421.0181,-92.6524 422.8931,-85.9081"/>
</g>
<!-- Node31&#45;&gt;Node15 -->
<g id="edge55" class="edge">
<title>Node31&#45;&gt;Node15</title>
<path fill="none" stroke="#191970" d="M248.0314,-61.963C258.0996,-59.7848 268.9118,-57.6333 279,-56 415.2757,-33.9366 577.5159,-19.9082 658.9313,-13.7036"/>
<polygon fill="#191970" stroke="#191970" points="659.6901,-17.1564 669.399,-12.9152 659.1643,-10.1762 659.6901,-17.1564"/>
</g>
<!-- Node31&#45;&gt;Node21 -->
<g id="edge54" class="edge">
<title>Node31&#45;&gt;Node21</title>
<path fill="none" stroke="#191970" d="M251.1536,-61.9584C260.339,-59.9613 269.9856,-57.8892 279,-56 347.1183,-41.724 426.8301,-25.9141 471.9723,-17.0438"/>
<polygon fill="#191970" stroke="#191970" points="472.7314,-20.4617 481.8702,-15.1013 471.3833,-13.5927 472.7314,-20.4617"/>
</g>
<!-- Node32 -->
<g id="node33" class="node">
<title>Node32</title>
<polygon fill="#ffffff" stroke="#bfbfbf" points="84,-.5 84,-19.5 138,-19.5 138,-.5 84,-.5"/>
<text text-anchor="middle" x="111" y="-7.5" font-family="Helvetica,sans-Serif" font-size="10.00" fill="#000000">iostream</text>
</g>
<!-- Node31&#45;&gt;Node32 -->
<g id="edge56" class="edge">
<title>Node31&#45;&gt;Node32</title>
<path fill="none" stroke="#191970" d="M192.8438,-61.8906C177.3257,-52.0519 152.9807,-36.6167 134.8716,-25.1351"/>
<polygon fill="#191970" stroke="#191970" points="136.3696,-21.9407 126.0498,-19.5419 132.6213,-27.8526 136.3696,-21.9407"/>
</g>
<!-- Node33 -->
<g id="node34" class="node">
<title>Node33</title>
<polygon fill="#ffffff" stroke="#bfbfbf" points="156.5,-.5 156.5,-19.5 243.5,-19.5 243.5,-.5 156.5,-.5"/>
<text text-anchor="middle" x="200" y="-7.5" font-family="Helvetica,sans-Serif" font-size="10.00" fill="#000000">AMReX_Print.H</text>
</g>
<!-- Node31&#45;&gt;Node33 -->
<g id="edge57" class="edge">
<title>Node31&#45;&gt;Node33</title>
<path fill="none" stroke="#191970" d="M206.75,-61.8906C205.6411,-53.3657 203.9856,-40.6392 202.5917,-29.9235"/>
<polygon fill="#191970" stroke="#191970" points="206.0284,-29.2098 201.2676,-19.7449 199.0869,-30.1128 206.0284,-29.2098"/>
</g>
<!-- Node34 -->
<g id="node35" class="node">
<title>Node34</title>
<polygon fill="#ffffff" stroke="#bfbfbf" points="262,-.5 262,-19.5 324,-19.5 324,-.5 262,-.5"/>
<text text-anchor="middle" x="293" y="-7.5" font-family="Helvetica,sans-Serif" font-size="10.00" fill="#000000">AMReX.H</text>
</g>
<!-- Node31&#45;&gt;Node34 -->
<g id="edge58" class="edge">
<title>Node31&#45;&gt;Node34</title>
<path fill="none" stroke="#191970" d="M221.2813,-61.8906C234.7548,-52.1421 255.822,-36.8994 271.6435,-25.4521"/>
<polygon fill="#191970" stroke="#191970" points="273.7619,-28.2394 279.812,-19.5419 269.6586,-22.5682 273.7619,-28.2394"/>
</g>
<!-- Node35&#45;&gt;Node14 -->
<g id="edge60" class="edge">
<title>Node35&#45;&gt;Node14</title>
<path fill="none" stroke="#191970" d="M551.433,-61.9306C562.3516,-59.7532 574.0727,-57.6102 585,-56 750.4955,-31.6132 798.3278,-54.2929 966.2688,-19.6927"/>
<polygon fill="#191970" stroke="#191970" points="967.1185,-23.0907 976.1869,-17.6121 965.6813,-16.2398 967.1185,-23.0907"/>
</g>
<!-- Node35&#45;&gt;Node15 -->
<g id="edge62" class="edge">
<title>Node35&#45;&gt;Node15</title>
<path fill="none" stroke="#191970" d="M539.7188,-61.8906C574.7272,-51.2846 631.2019,-34.1753 669.6551,-22.5257"/>
<polygon fill="#191970" stroke="#191970" points="670.9484,-25.791 679.504,-19.5419 668.9187,-19.0917 670.9484,-25.791"/>
</g>
<!-- Node35&#45;&gt;Node21 -->
<g id="edge61" class="edge">
<title>Node35&#45;&gt;Node21</title>
<path fill="none" stroke="#191970" d="M508,-61.8906C508,-53.3657 508,-40.6392 508,-29.9235"/>
<polygon fill="#191970" stroke="#191970" points="511.5001,-29.7448 508,-19.7449 504.5001,-29.7449 511.5001,-29.7448"/>
</g>
<!-- Node35&#45;&gt;Node26 -->
<g id="edge63" class="edge">
<title>Node35&#45;&gt;Node26</title>
<path fill="none" stroke="#191970" d="M553.1122,-61.9598C563.5606,-59.8779 574.6504,-57.7703 585,-56 678.5876,-39.9918 787.9817,-25.3903 853.2647,-17.1101"/>
<polygon fill="#191970" stroke="#191970" points="853.8715,-20.5614 863.3542,-15.8362 852.9946,-13.6165 853.8715,-20.5614"/>
</g>
<!-- Node37 -->
<g id="node38" class="node">
<title>Node37</title>
<polygon fill="#ffffff" stroke="#bfbfbf" points="342.5,-.5 342.5,-19.5 387.5,-19.5 387.5,-.5 342.5,-.5"/>
<text text-anchor="middle" x="365" y="-7.5" font-family="Helvetica,sans-Serif" font-size="10.00" fill="#000000">iosfwd</text>
</g>
<!-- Node36&#45;&gt;Node37 -->
<g id="edge65" class="edge">
<title>Node36&#45;&gt;Node37</title>
<path fill="none" stroke="#191970" d="M359.7303,-56.2977C360.6413,-48.2945 361.7693,-38.3843 362.7476,-29.7889"/>
<polygon fill="#191970" stroke="#191970" points="366.2258,-30.1786 363.8792,-19.8469 359.2707,-29.3869 366.2258,-30.1786"/>
</g>
<!-- Node38&#45;&gt;Node18 -->
<g id="edge71" class="edge">
<title>Node38&#45;&gt;Node18</title>
<path fill="none" stroke="#191970" d="M472.5964,-128.8596C527.6006,-107.3162 656.1332,-57.0644 661,-56 791.8425,-27.3844 1194.5965,-15.1141 1350.4808,-11.3503"/>
<polygon fill="#191970" stroke="#191970" points="1350.9149,-14.8411 1360.8288,-11.1043 1350.7484,-7.8431 1350.9149,-14.8411"/>
</g>
<!-- Node38&#45;&gt;Node31 -->
<g id="edge69" class="edge">
<title>Node38&#45;&gt;Node31</title>
<path fill="none" stroke="#191970" d="M413.8687,-128.9717C371.4292,-117.124 298.8985,-96.8758 252.2342,-83.8487"/>
<polygon fill="#191970" stroke="#191970" points="252.975,-80.4217 242.4021,-81.1039 251.0927,-87.164 252.975,-80.4217"/>
</g>
<!-- Node38&#45;&gt;Node35 -->
<g id="edge70" class="edge">
<title>Node38&#45;&gt;Node35</title>
<path fill="none" stroke="#191970" d="M456.5965,-128.9005C465.953,-118.4525 481.1052,-101.5325 492.5401,-88.7635"/>
<polygon fill="#191970" stroke="#191970" points="495.3555,-90.8661 499.4194,-81.0817 490.1408,-86.1963 495.3555,-90.8661"/>
</g>
<!-- Node39 -->
<g id="node40" class="node">
<title>Node39</title>
<polygon fill="#ffffff" stroke="#bfbfbf" points="17,-62 17,-81 127,-81 127,-62 17,-62"/>
<text text-anchor="middle" x="72" y="-69" font-family="Helvetica,sans-Serif" font-size="10.00" fill="#000000">AMReX_Geometry.H</text>
</g>
<!-- Node38&#45;&gt;Node39 -->
<g id="edge72" class="edge">
<title>Node38&#45;&gt;Node39</title>
<path fill="none" stroke="#191970" d="M405.2375,-128.9737C395.3316,-126.8912 384.8162,-124.7798 375,-123 269.3028,-103.8359 241.4145,-107.6625 136,-87 130.5308,-85.928 124.8238,-84.7022 119.1678,-83.42"/>
<polygon fill="#191970" stroke="#191970" points="119.6382,-79.9358 109.1045,-81.0723 118.0478,-86.7528 119.6382,-79.9358"/>
</g>
</g>
</svg>
