<?xml version="1.0" encoding="UTF-8" standalone="no"?>
<!DOCTYPE svg PUBLIC "-//W3C//DTD SVG 1.1//EN"
 "http://www.w3.org/Graphics/SVG/1.1/DTD/svg11.dtd">
<!-- Generated by graphviz version 2.40.1 (20161225.0304)
 -->
<!-- Title: incflo.H Pages: 1 -->
<svg width="1865pt" height="95pt"
 viewBox="0.00 0.00 1865.00 95.00" xmlns="http://www.w3.org/2000/svg" xmlns:xlink="http://www.w3.org/1999/xlink">
<g id="graph0" class="graph" transform="scale(1 1) rotate(0) translate(4 91)">
<title>incflo.H</title>
<polygon fill="#ffffff" stroke="transparent" points="-4,4 -4,-91 1861,-91 1861,4 -4,4"/>
<!-- Node40 -->
<g id="node1" class="node">
<title>Node40</title>
<polygon fill="#bfbfbf" stroke="#000000" points="885,-67.5 885,-86.5 935,-86.5 935,-67.5 885,-67.5"/>
<text text-anchor="middle" x="910" y="-74.5" font-family="Helvetica,sans-Serif" font-size="10.00" fill="#000000">incflo.H</text>
</g>
<!-- Node41 -->
<g id="node2" class="node">
<title>Node41</title>
<g id="a_node2"><a xlink:href="incflo__set__velocity__bcs_8cpp.html" target="_top" xlink:title="incflo_set_velocity\l_bcs.cpp">
<polygon fill="#ffffff" stroke="#000000" points="0,-.5 0,-30.5 98,-30.5 98,-.5 0,-.5"/>
<text text-anchor="start" x="8" y="-18.5" font-family="Helvetica,sans-Serif" font-size="10.00" fill="#000000">incflo_set_velocity</text>
<text text-anchor="middle" x="49" y="-7.5" font-family="Helvetica,sans-Serif" font-size="10.00" fill="#000000">_bcs.cpp</text>
</a>
</g>
</g>
<!-- Node40&#45;&gt;Node41 -->
<g id="edge1" class="edge">
<title>Node40&#45;&gt;Node41</title>
<path fill="none" stroke="#191970" d="M874.5631,-75.9319C739.6609,-71.7166 258.1851,-55.2711 107,-31 104.1185,-30.5374 101.1735,-29.9906 98.2133,-29.3835"/>
<polygon fill="#191970" stroke="#191970" points="874.6435,-79.436 884.7471,-76.2474 874.8603,-72.4393 874.6435,-79.436"/>
</g>
<!-- Node42 -->
<g id="node3" class="node">
<title>Node42</title>
<g id="a_node3"><a xlink:href="derive_8cpp.html" target="_top" xlink:title="derive.cpp">
<polygon fill="#ffffff" stroke="#000000" points="116,-6 116,-25 178,-25 178,-6 116,-6"/>
<text text-anchor="middle" x="147" y="-13" font-family="Helvetica,sans-Serif" font-size="10.00" fill="#000000">derive.cpp</text>
</a>
</g>
</g>
<!-- Node40&#45;&gt;Node42 -->
<g id="edge2" class="edge">
<title>Node40&#45;&gt;Node42</title>
<path fill="none" stroke="#191970" d="M874.3511,-76.172C747.769,-73.0081 320.3811,-60.3524 187,-31 180.7447,-29.6234 174.1781,-27.4225 168.2152,-25.1065"/>
<polygon fill="#191970" stroke="#191970" points="874.5549,-79.678 884.6378,-76.4247 874.7268,-72.6801 874.5549,-79.678"/>
</g>
<!-- Node43 -->
<g id="node4" class="node">
<title>Node43</title>
<g id="a_node4"><a xlink:href="incflo__diffusion_8cpp.html" target="_top" xlink:title="incflo_diffusion.cpp">
<polygon fill="#ffffff" stroke="#000000" points="196.5,-6 196.5,-25 297.5,-25 297.5,-6 196.5,-6"/>
<text text-anchor="middle" x="247" y="-13" font-family="Helvetica,sans-Serif" font-size="10.00" fill="#000000">incflo_diffusion.cpp</text>
</a>
</g>
</g>
<!-- Node40&#45;&gt;Node43 -->
<g id="edge3" class="edge">
<title>Node40&#45;&gt;Node43</title>
<path fill="none" stroke="#191970" d="M874.7354,-76.5365C781.3166,-74.8306 519.9554,-66.9475 306,-31 297.1224,-29.5084 287.6356,-27.2986 278.9229,-25.0118"/>
<polygon fill="#191970" stroke="#191970" points="874.7175,-80.0366 884.7757,-76.7075 874.8368,-73.0377 874.7175,-80.0366"/>
</g>
<!-- Node44 -->
<g id="node5" class="node">
<title>Node44</title>
<g id="a_node5"><a xlink:href="incflo_8cpp.html" target="_top" xlink:title="incflo.cpp">
<polygon fill="#ffffff" stroke="#000000" points="315.5,-6 315.5,-25 374.5,-25 374.5,-6 315.5,-6"/>
<text text-anchor="middle" x="345" y="-13" font-family="Helvetica,sans-Serif" font-size="10.00" fill="#000000">incflo.cpp</text>
</a>
</g>
</g>
<!-- Node40&#45;&gt;Node44 -->
<g id="edge4" class="edge">
<title>Node40&#45;&gt;Node44</title>
<path fill="none" stroke="#191970" d="M874.5979,-75.2954C772.1731,-70.1448 476.8705,-53.6913 383,-31 377.0441,-29.5603 370.8014,-27.3386 365.1367,-25.0229"/>
<polygon fill="#191970" stroke="#191970" points="874.5683,-78.7982 884.7299,-75.7996 874.9163,-71.8069 874.5683,-78.7982"/>
</g>
<!-- Node45 -->
<g id="node6" class="node">
<title>Node45</title>
<g id="a_node6"><a xlink:href="incflo__advance_8cpp.html" target="_top" xlink:title="incflo_advance.cpp">
<polygon fill="#ffffff" stroke="#000000" points="392.5,-6 392.5,-25 493.5,-25 493.5,-6 392.5,-6"/>
<text text-anchor="middle" x="443" y="-13" font-family="Helvetica,sans-Serif" font-size="10.00" fill="#000000">incflo_advance.cpp</text>
</a>
</g>
</g>
<!-- Node40&#45;&gt;Node45 -->
<g id="edge5" class="edge">
<title>Node40&#45;&gt;Node45</title>
<path fill="none" stroke="#191970" d="M874.8071,-74.7542C803.8283,-69.8468 638.6319,-56.5111 502,-31 493.4632,-29.4061 484.3419,-27.2429 475.8864,-25.0388"/>
<polygon fill="#191970" stroke="#191970" points="874.7627,-78.2592 884.9767,-75.4438 875.2364,-71.2752 874.7627,-78.2592"/>
</g>
<!-- Node46 -->
<g id="node7" class="node">
<title>Node46</title>
<g id="a_node7"><a xlink:href="incflo__compute__dt_8cpp.html" target="_top" xlink:title="incflo_compute_dt.cpp">
<polygon fill="#ffffff" stroke="#000000" points="511.5,-6 511.5,-25 626.5,-25 626.5,-6 511.5,-6"/>
<text text-anchor="middle" x="569" y="-13" font-family="Helvetica,sans-Serif" font-size="10.00" fill="#000000">incflo_compute_dt.cpp</text>
</a>
</g>
</g>
<!-- Node40&#45;&gt;Node46 -->
<g id="edge6" class="edge">
<title>Node40&#45;&gt;Node46</title>
<path fill="none" stroke="#191970" d="M874.8928,-71.8078C822.6457,-63.9222 721.4119,-48.0328 636,-31 627.1015,-29.2255 617.5814,-27.1385 608.5931,-25.0809"/>
<polygon fill="#191970" stroke="#191970" points="874.5637,-75.2976 884.9726,-73.3214 875.6032,-68.3752 874.5637,-75.2976"/>
</g>
<!-- Node47 -->
<g id="node8" class="node">
<title>Node47</title>
<g id="a_node8"><a xlink:href="incflo__regrid_8cpp.html" target="_top" xlink:title="incflo_regrid.cpp">
<polygon fill="#ffffff" stroke="#000000" points="645,-6 645,-25 733,-25 733,-6 645,-6"/>
<text text-anchor="middle" x="689" y="-13" font-family="Helvetica,sans-Serif" font-size="10.00" fill="#000000">incflo_regrid.cpp</text>
</a>
</g>
</g>
<!-- Node40&#45;&gt;Node47 -->
<g id="edge7" class="edge">
<title>Node40&#45;&gt;Node47</title>
<path fill="none" stroke="#191970" d="M874.9998,-67.6054C840.982,-58.4299 787.8818,-43.9895 742,-31 735.2663,-29.0936 728.0632,-27.0141 721.2061,-25.0152"/>
<polygon fill="#191970" stroke="#191970" points="874.3491,-71.0548 884.9153,-70.2765 876.1699,-64.2957 874.3491,-71.0548"/>
</g>
<!-- Node48 -->
<g id="node9" class="node">
<title>Node48</title>
<g id="a_node9"><a xlink:href="main_8cpp.html" target="_top" xlink:title="main.cpp">
<polygon fill="#ffffff" stroke="#000000" points="751,-6 751,-25 807,-25 807,-6 751,-6"/>
<text text-anchor="middle" x="779" y="-13" font-family="Helvetica,sans-Serif" font-size="10.00" fill="#000000">main.cpp</text>
</a>
</g>
</g>
<!-- Node40&#45;&gt;Node48 -->
<g id="edge8" class="edge">
<title>Node40&#45;&gt;Node48</title>
<path fill="none" stroke="#191970" d="M880.2549,-63.0357C855.5264,-51.4265 820.9948,-35.2151 799.325,-25.0419"/>
<polygon fill="#191970" stroke="#191970" points="878.9917,-66.3092 889.5313,-67.3906 881.9665,-59.9727 878.9917,-66.3092"/>
</g>
<!-- Node49 -->
<g id="node10" class="node">
<title>Node49</title>
<g id="a_node10"><a xlink:href="prob__bc_8cpp.html" target="_top" xlink:title="prob_bc.cpp">
<polygon fill="#ffffff" stroke="#000000" points="825,-6 825,-25 895,-25 895,-6 825,-6"/>
<text text-anchor="middle" x="860" y="-13" font-family="Helvetica,sans-Serif" font-size="10.00" fill="#000000">prob_bc.cpp</text>
</a>
</g>
</g>
<!-- Node40&#45;&gt;Node49 -->
<g id="edge9" class="edge">
<title>Node40&#45;&gt;Node49</title>
<path fill="none" stroke="#191970" d="M895.8329,-59.5744C886.79,-48.4517 875.4028,-34.4454 867.9226,-25.2449"/>
<polygon fill="#191970" stroke="#191970" points="893.1634,-61.8393 902.1875,-67.3906 898.5949,-57.4235 893.1634,-61.8393"/>
</g>
<!-- Node50 -->
<g id="node11" class="node">
<title>Node50</title>
<g id="a_node11"><a xlink:href="prob__init__fluid_8cpp.html" target="_top" xlink:title="prob_init_fluid.cpp">
<polygon fill="#ffffff" stroke="#000000" points="913.5,-6 913.5,-25 1008.5,-25 1008.5,-6 913.5,-6"/>
<text text-anchor="middle" x="961" y="-13" font-family="Helvetica,sans-Serif" font-size="10.00" fill="#000000">prob_init_fluid.cpp</text>
</a>
</g>
</g>
<!-- Node40&#45;&gt;Node50 -->
<g id="edge10" class="edge">
<title>Node40&#45;&gt;Node50</title>
<path fill="none" stroke="#191970" d="M924.4505,-59.5744C933.6742,-48.4517 945.2892,-34.4454 952.9189,-25.2449"/>
<polygon fill="#191970" stroke="#191970" points="921.658,-57.4588 917.9688,-67.3906 927.0463,-61.9272 921.658,-57.4588"/>
</g>
<!-- Node51 -->
<g id="node12" class="node">
<title>Node51</title>
<g id="a_node12"><a xlink:href="incflo__apply__nodal__projection_8cpp.html" target="_top" xlink:title="incflo_apply_nodal\l_projection.cpp">
<polygon fill="#ffffff" stroke="#000000" points="1026.5,-.5 1026.5,-30.5 1123.5,-30.5 1123.5,-.5 1026.5,-.5"/>
<text text-anchor="start" x="1034.5" y="-18.5" font-family="Helvetica,sans-Serif" font-size="10.00" fill="#000000">incflo_apply_nodal</text>
<text text-anchor="middle" x="1075" y="-7.5" font-family="Helvetica,sans-Serif" font-size="10.00" fill="#000000">_projection.cpp</text>
</a>
</g>
</g>
<!-- Node40&#45;&gt;Node51 -->
<g id="edge11" class="edge">
<title>Node40&#45;&gt;Node51</title>
<path fill="none" stroke="#191970" d="M944.5987,-64.1041C970.8529,-54.3185 1007.0094,-40.842 1034.5919,-30.5612"/>
<polygon fill="#191970" stroke="#191970" points="943.2078,-60.8873 935.0599,-67.6595 945.6526,-67.4465 943.2078,-60.8873"/>
</g>
<!-- Node52 -->
<g id="node13" class="node">
<title>Node52</title>
<g id="a_node13"><a xlink:href="init_8cpp.html" target="_top" xlink:title="init.cpp">
<polygon fill="#ffffff" stroke="#000000" points="1142,-6 1142,-25 1190,-25 1190,-6 1142,-6"/>
<text text-anchor="middle" x="1166" y="-13" font-family="Helvetica,sans-Serif" font-size="10.00" fill="#000000">init.cpp</text>
</a>
</g>
</g>
<!-- Node40&#45;&gt;Node52 -->
<g id="edge12" class="edge">
<title>Node40&#45;&gt;Node52</title>
<path fill="none" stroke="#191970" d="M945.2829,-72.349C989.819,-65.8852 1068.4133,-52.4943 1133,-31 1137.8047,-29.401 1142.8291,-27.2877 1147.4667,-25.1377"/>
<polygon fill="#191970" stroke="#191970" points="944.663,-68.9018 935.2532,-73.7707 945.6454,-75.8326 944.663,-68.9018"/>
</g>
<!-- Node53 -->
<g id="node14" class="node">
<title>Node53</title>
<g id="a_node14"><a xlink:href="set__background__pressure_8cpp.html" target="_top" xlink:title="set_background_pressure.cpp">
<polygon fill="#ffffff" stroke="#000000" points="1208.5,-6 1208.5,-25 1355.5,-25 1355.5,-6 1208.5,-6"/>
<text text-anchor="middle" x="1282" y="-13" font-family="Helvetica,sans-Serif" font-size="10.00" fill="#000000">set_background_pressure.cpp</text>
</a>
</g>
</g>
<!-- Node40&#45;&gt;Node53 -->
<g id="edge13" class="edge">
<title>Node40&#45;&gt;Node53</title>
<path fill="none" stroke="#191970" d="M945.3351,-71.6876C999.8487,-63.4215 1107.7147,-46.7856 1199,-31 1209.6889,-29.1516 1221.1335,-27.0767 1232.0038,-25.0606"/>
<polygon fill="#191970" stroke="#191970" points="944.5283,-68.2698 935.1645,-73.2265 945.5756,-75.191 944.5283,-68.2698"/>
</g>
<!-- Node54 -->
<g id="node15" class="node">
<title>Node54</title>
<g id="a_node15"><a xlink:href="diagnostics_8cpp.html" target="_top" xlink:title="diagnostics.cpp">
<polygon fill="#ffffff" stroke="#000000" points="1373.5,-6 1373.5,-25 1458.5,-25 1458.5,-6 1373.5,-6"/>
<text text-anchor="middle" x="1416" y="-13" font-family="Helvetica,sans-Serif" font-size="10.00" fill="#000000">diagnostics.cpp</text>
</a>
</g>
</g>
<!-- Node40&#45;&gt;Node54 -->
<g id="edge14" class="edge">
<title>Node40&#45;&gt;Node54</title>
<path fill="none" stroke="#191970" d="M945.2608,-75.7662C1022.1815,-72.5675 1210.5399,-61.9736 1365,-31 1372.6217,-29.4716 1380.7326,-27.2774 1388.1911,-25.0189"/>
<polygon fill="#191970" stroke="#191970" points="945.0139,-72.2732 935.1616,-76.1699 945.2935,-79.2676 945.0139,-72.2732"/>
</g>
<!-- Node55 -->
<g id="node16" class="node">
<title>Node55</title>
<g id="a_node16"><a xlink:href="_field_plane_averaging_8cpp.html" target="_top" xlink:title="FieldPlaneAveraging.cpp">
<polygon fill="#ffffff" stroke="#000000" points="1476.5,-6 1476.5,-25 1601.5,-25 1601.5,-6 1476.5,-6"/>
<text text-anchor="middle" x="1539" y="-13" font-family="Helvetica,sans-Serif" font-size="10.00" fill="#000000">FieldPlaneAveraging.cpp</text>
</a>
</g>
</g>
<!-- Node40&#45;&gt;Node55 -->
<g id="edge15" class="edge">
<title>Node40&#45;&gt;Node55</title>
<path fill="none" stroke="#191970" d="M945.1824,-75.7215C1033.5301,-72.1598 1271.6983,-60.3859 1468,-31 1478.3565,-29.4497 1489.4608,-27.2753 1499.7393,-25.0445"/>
<polygon fill="#191970" stroke="#191970" points="945.0185,-72.2251 935.1639,-76.1157 945.2938,-79.2197 945.0185,-72.2251"/>
</g>
<!-- Node56 -->
<g id="node17" class="node">
<title>Node56</title>
<g id="a_node17"><a xlink:href="io_8cpp.html" target="_top" xlink:title="io.cpp">
<polygon fill="#ffffff" stroke="#000000" points="1619.5,-6 1619.5,-25 1662.5,-25 1662.5,-6 1619.5,-6"/>
<text text-anchor="middle" x="1641" y="-13" font-family="Helvetica,sans-Serif" font-size="10.00" fill="#000000">io.cpp</text>
</a>
</g>
</g>
<!-- Node40&#45;&gt;Node56 -->
<g id="edge16" class="edge">
<title>Node40&#45;&gt;Node56</title>
<path fill="none" stroke="#191970" d="M945.0978,-76.589C1068.7485,-74.8478 1483.5496,-66.4389 1611,-31 1615.8574,-29.6493 1620.8369,-27.4569 1625.3082,-25.1407"/>
<polygon fill="#191970" stroke="#191970" points="944.9942,-73.09 935.0424,-76.7248 945.0888,-80.0894 944.9942,-73.09"/>
</g>
<!-- Node57 -->
<g id="node18" class="node">
<title>Node57</title>
<g id="a_node18"><a xlink:href="_plane_averaging_8cpp.html" target="_top" xlink:title="PlaneAveraging.cpp">
<polygon fill="#ffffff" stroke="#000000" points="1681,-6 1681,-25 1785,-25 1785,-6 1681,-6"/>
<text text-anchor="middle" x="1733" y="-13" font-family="Helvetica,sans-Serif" font-size="10.00" fill="#000000">PlaneAveraging.cpp</text>
</a>
</g>
</g>
<!-- Node40&#45;&gt;Node57 -->
<g id="edge17" class="edge">
<title>Node40&#45;&gt;Node57</title>
<path fill="none" stroke="#191970" d="M945.3002,-75.7539C1075.5538,-71.0184 1529.0251,-53.2763 1672,-31 1681.285,-29.5533 1691.2158,-27.3294 1700.3106,-25.0137"/>
<polygon fill="#191970" stroke="#191970" points="944.9625,-72.2637 935.0953,-76.1223 945.2151,-79.2592 944.9625,-72.2637"/>
</g>
<!-- Node58 -->
<g id="node19" class="node">
<title>Node58</title>
<g id="a_node19"><a xlink:href="_a_b_l_8cpp.html" target="_top" xlink:title="ABL.cpp">
<polygon fill="#ffffff" stroke="#000000" points="1803,-6 1803,-25 1857,-25 1857,-6 1803,-6"/>
<text text-anchor="middle" x="1830" y="-13" font-family="Helvetica,sans-Serif" font-size="10.00" fill="#000000">ABL.cpp</text>
</a>
</g>
</g>
<!-- Node40&#45;&gt;Node58 -->
<g id="edge18" class="edge">
<title>Node40&#45;&gt;Node58</title>
<path fill="none" stroke="#191970" d="M945.3616,-76.8227C1088.9319,-75.8471 1628.4675,-69.6323 1794,-31 1799.8314,-29.6391 1805.9077,-27.3822 1811.3713,-25.0062"/>
<polygon fill="#191970" stroke="#191970" points="945.3165,-73.3228 935.339,-76.8865 945.3612,-80.3227 945.3165,-73.3228"/>
</g>
</g>
</svg>
