<?xml version="1.0" encoding="UTF-8" standalone="no"?>
<!DOCTYPE svg PUBLIC "-//W3C//DTD SVG 1.1//EN"
 "http://www.w3.org/Graphics/SVG/1.1/DTD/svg11.dtd">
<!-- Generated by graphviz version 2.40.1 (20161225.0304)
 -->
<!-- Title: incflo_mol_fluxes.cpp Pages: 1 -->
<!--zoomable 330 -->
<svg id="main" version="1.1" xmlns="http://www.w3.org/2000/svg" xmlns:xlink="http://www.w3.org/1999/xlink" xml:space="preserve" onload="init(evt)">
<style type="text/css"><![CDATA[
.edge:hover path { stroke: red; }
.edge:hover polygon { stroke: red; fill: red; }
]]></style>
<script type="text/javascript"><![CDATA[
var edges = document.getElementsByTagName('g');
if (edges && edges.length) {
  for (var i=0;i<edges.length;i++) {
    if (edges[i].id.substr(0,4)=='edge') {
      edges[i].setAttribute('class','edge');
    }
  }
}
]]></script>
        <defs>
                <circle id="rim" cx="0" cy="0" r="7"/>
                <circle id="rim2" cx="0" cy="0" r="3.5"/>
                <g id="zoomPlus">
                        <use xlink:href="#rim" fill="#404040">
                                <set attributeName="fill" to="#808080" begin="zoomplus.mouseover" end="zoomplus.mouseout"/>
                        </use>
                        <path d="M-4,0h8M0,-4v8" fill="none" stroke="white" stroke-width="1.5" pointer-events="none"/>
                </g>
                <g id="zoomMin">
                        <use xlink:href="#rim" fill="#404040">
                                <set attributeName="fill" to="#808080" begin="zoomminus.mouseover" end="zoomminus.mouseout"/>
                        </use>
                        <path d="M-4,0h8" fill="none" stroke="white" stroke-width="1.5" pointer-events="none"/>
                </g>
                <g id="dirArrow">
                        <path fill="none" stroke="white" stroke-width="1.5" d="M0,-3.0v7 M-2.5,-0.5L0,-3.0L2.5,-0.5"/>
                </g>
               <g id="resetDef">
                       <use xlink:href="#rim2" fill="#404040">
                               <set attributeName="fill" to="#808080" begin="reset.mouseover" end="reset.mouseout"/>
                       </use>
               </g>
        </defs>

<script type="text/javascript">
var viewWidth = 1594;
var viewHeight = 330;
var sectionId = 'dynsection-0';
</script>
<script xlink:href="svgpan.js"/>
<svg id="graph" class="graph">
<g id="viewport">
<title>incflo_mol_fluxes.cpp</title>
<polygon fill="#ffffff" stroke="transparent" points="-4,4 -4,-326 1589.6901,-326 1589.6901,4 -4,4"/>
<!-- Node0 -->
<g id="node1" class="node">
<title>Node0</title>
<polygon fill="#bfbfbf" stroke="#000000" points="915,-302.5 915,-321.5 1026,-321.5 1026,-302.5 915,-302.5"/>
<text text-anchor="middle" x="970.5" y="-309.5" font-family="Helvetica,sans-Serif" font-size="10.00" fill="#000000">incflo_mol_fluxes.cpp</text>
</g>
<!-- Node1 -->
<g id="node2" class="node">
<title>Node1</title>
<polygon fill="#ffffff" stroke="#bfbfbf" points="718.5,-241 718.5,-260 828.5,-260 828.5,-241 718.5,-241"/>
<text text-anchor="middle" x="773.5" y="-248" font-family="Helvetica,sans-Serif" font-size="10.00" fill="#000000">AMReX_Geometry.H</text>
</g>
<!-- Node0&#45;&gt;Node1 -->
<g id="edge1" class="edge">
<title>Node0&#45;&gt;Node1</title>
<path fill="none" stroke="#191970" d="M939.7188,-302.3906C905.7451,-291.7846 850.9396,-274.6753 813.6228,-263.0257"/>
<polygon fill="#191970" stroke="#191970" points="814.6538,-259.681 804.0651,-260.0419 812.5677,-266.3629 814.6538,-259.681"/>
</g>
<!-- Node2 -->
<g id="node3" class="node">
<title>Node2</title>
<g id="a_node3"><a xlink:href="incflo__convection___k_8_h.html" target="_top" xlink:title="amr&#45;wind/convection\l/incflo_convection_K.H">
<polygon fill="#ffffff" stroke="#000000" points="846.5,-235.5 846.5,-265.5 964.5,-265.5 964.5,-235.5 846.5,-235.5"/>
<text text-anchor="start" x="854.5" y="-253.5" font-family="Helvetica,sans-Serif" font-size="10.00" fill="#000000">amr&#45;wind/convection</text>
<text text-anchor="middle" x="905.5" y="-242.5" font-family="Helvetica,sans-Serif" font-size="10.00" fill="#000000">/incflo_convection_K.H</text>
</a>
</g>
</g>
<!-- Node0&#45;&gt;Node2 -->
<g id="edge2" class="edge">
<title>Node0&#45;&gt;Node2</title>
<path fill="none" stroke="#191970" d="M960.3438,-302.3906C951.9541,-294.4527 939.7141,-282.8718 928.9249,-272.6635"/>
<polygon fill="#191970" stroke="#191970" points="931.0702,-269.875 921.4008,-265.5446 926.2593,-274.9598 931.0702,-269.875"/>
</g>
<!-- Node4 -->
<g id="node5" class="node">
<title>Node4</title>
<g id="a_node5"><a xlink:href="_m_o_l_8_h.html" target="_top" xlink:title="amr&#45;wind/convection\l/MOL.H">
<polygon fill="#ffffff" stroke="#000000" points="983,-235.5 983,-265.5 1090,-265.5 1090,-235.5 983,-235.5"/>
<text text-anchor="start" x="991" y="-253.5" font-family="Helvetica,sans-Serif" font-size="10.00" fill="#000000">amr&#45;wind/convection</text>
<text text-anchor="middle" x="1036.5" y="-242.5" font-family="Helvetica,sans-Serif" font-size="10.00" fill="#000000">/MOL.H</text>
</a>
</g>
</g>
<!-- Node0&#45;&gt;Node4 -->
<g id="edge4" class="edge">
<title>Node0&#45;&gt;Node4</title>
<path fill="none" stroke="#191970" d="M980.8125,-302.3906C989.414,-294.3756 1002.0012,-282.6466 1013.0334,-272.3666"/>
<polygon fill="#191970" stroke="#191970" points="1015.4245,-274.9225 1020.3546,-265.5446 1010.6524,-269.8012 1015.4245,-274.9225"/>
</g>
<!-- Node25 -->
<g id="node26" class="node">
<title>Node25</title>
<g id="a_node26"><a xlink:href="bc__ops_8_h.html" target="_top" xlink:title="Boundary condition utilities. ">
<polygon fill="#ffffff" stroke="#000000" points="1188.5,-168.5 1188.5,-198.5 1278.5,-198.5 1278.5,-168.5 1188.5,-168.5"/>
<text text-anchor="start" x="1196.5" y="-186.5" font-family="Helvetica,sans-Serif" font-size="10.00" fill="#000000">amr&#45;wind/utilities</text>
<text text-anchor="middle" x="1233.5" y="-175.5" font-family="Helvetica,sans-Serif" font-size="10.00" fill="#000000">/bc_ops.H</text>
</a>
</g>
</g>
<!-- Node0&#45;&gt;Node25 -->
<g id="edge42" class="edge">
<title>Node0&#45;&gt;Node25</title>
<path fill="none" stroke="#191970" d="M1002.5271,-302.4929C1028.8697,-294.2028 1066.8756,-281.1507 1098.5,-266 1136.1119,-247.9807 1176.598,-222.3145 1203.3178,-204.4111"/>
<polygon fill="#191970" stroke="#191970" points="1205.5024,-207.159 1211.8275,-198.6594 1201.5825,-201.3595 1205.5024,-207.159"/>
</g>
<!-- Node3 -->
<g id="node4" class="node">
<title>Node3</title>
<polygon fill="#ffffff" stroke="#bfbfbf" points="837,-174 837,-193 950,-193 950,-174 837,-174"/>
<text text-anchor="middle" x="893.5" y="-181" font-family="Helvetica,sans-Serif" font-size="10.00" fill="#000000">AMReX_FArrayBox.H</text>
</g>
<!-- Node2&#45;&gt;Node3 -->
<g id="edge3" class="edge">
<title>Node2&#45;&gt;Node3</title>
<path fill="none" stroke="#191970" d="M902.777,-235.2967C901.0707,-225.7699 898.8544,-213.3954 897.0159,-203.1306"/>
<polygon fill="#191970" stroke="#191970" points="900.4196,-202.2813 895.2113,-193.055 893.5292,-203.5154 900.4196,-202.2813"/>
</g>
<!-- Node5 -->
<g id="node6" class="node">
<title>Node5</title>
<g id="a_node6"><a xlink:href="_field_repo_8_h.html" target="_top" xlink:title="amr&#45;wind/core/FieldRepo.H">
<polygon fill="#ffffff" stroke="#000000" points="968.5,-174 968.5,-193 1104.5,-193 1104.5,-174 968.5,-174"/>
<text text-anchor="middle" x="1036.5" y="-181" font-family="Helvetica,sans-Serif" font-size="10.00" fill="#000000">amr&#45;wind/core/FieldRepo.H</text>
</a>
</g>
</g>
<!-- Node4&#45;&gt;Node5 -->
<g id="edge5" class="edge">
<title>Node4&#45;&gt;Node5</title>
<path fill="none" stroke="#191970" d="M1036.5,-235.2967C1036.5,-225.7699 1036.5,-213.3954 1036.5,-203.1306"/>
<polygon fill="#191970" stroke="#191970" points="1040.0001,-203.0549 1036.5,-193.055 1033.0001,-203.055 1040.0001,-203.0549"/>
</g>
<!-- Node6 -->
<g id="node7" class="node">
<title>Node6</title>
<polygon fill="#ffffff" stroke="#bfbfbf" points="1357,-.5 1357,-19.5 1398,-19.5 1398,-.5 1357,-.5"/>
<text text-anchor="middle" x="1377.5" y="-7.5" font-family="Helvetica,sans-Serif" font-size="10.00" fill="#000000">string</text>
</g>
<!-- Node5&#45;&gt;Node6 -->
<g id="edge6" class="edge">
<title>Node5&#45;&gt;Node6</title>
<path fill="none" stroke="#191970" d="M1104.8518,-175.884C1128.4887,-173.3053 1155.1514,-170.4578 1179.5,-168 1222.2471,-163.685 1533.6506,-161.904 1564.5,-132 1588.8559,-108.3905 1592.5375,-82.6091 1571.5,-56 1551.4998,-30.703 1457.8408,-17.8617 1408.3425,-12.7458"/>
<polygon fill="#191970" stroke="#191970" points="1408.5026,-9.2446 1398.2064,-11.7425 1407.813,-16.2106 1408.5026,-9.2446"/>
</g>
<!-- Node7 -->
<g id="node8" class="node">
<title>Node7</title>
<polygon fill="#ffffff" stroke="#bfbfbf" points="190,-56.5 190,-75.5 273,-75.5 273,-56.5 190,-56.5"/>
<text text-anchor="middle" x="231.5" y="-63.5" font-family="Helvetica,sans-Serif" font-size="10.00" fill="#000000">unordered_map</text>
</g>
<!-- Node5&#45;&gt;Node7 -->
<g id="edge7" class="edge">
<title>Node5&#45;&gt;Node7</title>
<path fill="none" stroke="#191970" d="M992.4983,-173.9377C981.4381,-171.7601 969.566,-169.6152 958.5,-168 789.3202,-143.3058 744.7604,-156.1354 575.5,-132 470.9951,-117.0983 350.0466,-92.0593 283.0054,-77.4826"/>
<polygon fill="#191970" stroke="#191970" points="283.633,-74.0372 273.1165,-75.3232 282.1396,-80.876 283.633,-74.0372"/>
</g>
<!-- Node8 -->
<g id="node9" class="node">
<title>Node8</title>
<g id="a_node9"><a xlink:href="_field_desc_types_8_h.html" target="_top" xlink:title="amr&#45;wind/core/FieldDescTypes.H">
<polygon fill="#ffffff" stroke="#000000" points="729,-.5 729,-19.5 892,-19.5 892,-.5 729,-.5"/>
<text text-anchor="middle" x="810.5" y="-7.5" font-family="Helvetica,sans-Serif" font-size="10.00" fill="#000000">amr&#45;wind/core/FieldDescTypes.H</text>
</a>
</g>
</g>
<!-- Node5&#45;&gt;Node8 -->
<g id="edge8" class="edge">
<title>Node5&#45;&gt;Node8</title>
<path fill="none" stroke="#191970" d="M998.2129,-173.9327C951.2456,-160.2037 872.4635,-130.3641 828.5,-76 817.8928,-62.8834 813.5149,-44.0056 811.7192,-29.7967"/>
<polygon fill="#191970" stroke="#191970" points="815.1816,-29.2312 810.763,-19.6017 808.2122,-29.8849 815.1816,-29.2312"/>
</g>
<!-- Node9 -->
<g id="node10" class="node">
<title>Node9</title>
<g id="a_node10"><a xlink:href="_field_utils_8_h.html" target="_top" xlink:title="amr&#45;wind/core/FieldUtils.H">
<polygon fill="#ffffff" stroke="#000000" points="0,-56.5 0,-75.5 133,-75.5 133,-56.5 0,-56.5"/>
<text text-anchor="middle" x="66.5" y="-63.5" font-family="Helvetica,sans-Serif" font-size="10.00" fill="#000000">amr&#45;wind/core/FieldUtils.H</text>
</a>
</g>
</g>
<!-- Node5&#45;&gt;Node9 -->
<g id="edge9" class="edge">
<title>Node5&#45;&gt;Node9</title>
<path fill="none" stroke="#191970" d="M994.5881,-173.957C982.9583,-171.6411 970.2878,-169.4245 958.5,-168 779.4033,-146.3571 316.0777,-196.2309 147.5,-132 120.94,-121.8802 96.5486,-99.4235 81.621,-83.5228"/>
<polygon fill="#191970" stroke="#191970" points="84.0254,-80.9639 74.7162,-75.9054 78.839,-85.6651 84.0254,-80.9639"/>
</g>
<!-- Node10 -->
<g id="node11" class="node">
<title>Node10</title>
<polygon fill="#ffffff" stroke="#bfbfbf" points="249.5,-.5 249.5,-19.5 353.5,-19.5 353.5,-.5 249.5,-.5"/>
<text text-anchor="middle" x="301.5" y="-7.5" font-family="Helvetica,sans-Serif" font-size="10.00" fill="#000000">AMReX_MultiFab.H</text>
</g>
<!-- Node5&#45;&gt;Node10 -->
<g id="edge40" class="edge">
<title>Node5&#45;&gt;Node10</title>
<path fill="none" stroke="#191970" d="M993.3401,-173.9281C982.0485,-171.6977 969.8567,-169.5304 958.5,-168 785.966,-144.7502 290.7331,-210.7487 180.5,-76 158.7344,-49.3938 199.4985,-31.8649 239.4687,-21.604"/>
<polygon fill="#191970" stroke="#191970" points="240.4137,-24.9763 249.3039,-19.2131 238.7601,-18.1744 240.4137,-24.9763"/>
</g>
<!-- Node12 -->
<g id="node13" class="node">
<title>Node12</title>
<g id="a_node13"><a xlink:href="_field_8_h.html" target="_top" xlink:title="amr&#45;wind/core/Field.H">
<polygon fill="#ffffff" stroke="#000000" points="585,-112.5 585,-131.5 698,-131.5 698,-112.5 585,-112.5"/>
<text text-anchor="middle" x="641.5" y="-119.5" font-family="Helvetica,sans-Serif" font-size="10.00" fill="#000000">amr&#45;wind/core/Field.H</text>
</a>
</g>
</g>
<!-- Node5&#45;&gt;Node12 -->
<g id="edge13" class="edge">
<title>Node5&#45;&gt;Node12</title>
<path fill="none" stroke="#191970" d="M990.3797,-173.9221C979.9171,-171.8644 968.8414,-169.7766 958.5,-168 872.2686,-153.1859 772.2953,-139.2061 708.0417,-130.6305"/>
<polygon fill="#191970" stroke="#191970" points="708.4178,-127.1498 698.0437,-129.3013 707.4952,-134.0887 708.4178,-127.1498"/>
</g>
<!-- Node20 -->
<g id="node21" class="node">
<title>Node20</title>
<g id="a_node21"><a xlink:href="_int_field_8_h.html" target="_top" xlink:title="amr&#45;wind/core/IntField.H">
<polygon fill="#ffffff" stroke="#000000" points="1431.5,-112.5 1431.5,-131.5 1555.5,-131.5 1555.5,-112.5 1431.5,-112.5"/>
<text text-anchor="middle" x="1493.5" y="-119.5" font-family="Helvetica,sans-Serif" font-size="10.00" fill="#000000">amr&#45;wind/core/IntField.H</text>
</a>
</g>
</g>
<!-- Node5&#45;&gt;Node20 -->
<g id="edge28" class="edge">
<title>Node5&#45;&gt;Node20</title>
<path fill="none" stroke="#191970" d="M1104.9175,-174.2928C1189.9457,-162.8503 1334.4057,-143.4098 1421.1985,-131.7299"/>
<polygon fill="#191970" stroke="#191970" points="1421.7856,-135.1825 1431.2294,-130.38 1420.8519,-128.245 1421.7856,-135.1825"/>
</g>
<!-- Node21 -->
<g id="node22" class="node">
<title>Node21</title>
<polygon fill="#ffffff" stroke="#bfbfbf" points="1406,-56.5 1406,-75.5 1513,-75.5 1513,-56.5 1406,-56.5"/>
<text text-anchor="middle" x="1459.5" y="-63.5" font-family="Helvetica,sans-Serif" font-size="10.00" fill="#000000">AMReX_iMultiFab.H</text>
</g>
<!-- Node5&#45;&gt;Node21 -->
<g id="edge41" class="edge">
<title>Node5&#45;&gt;Node21</title>
<path fill="none" stroke="#191970" d="M1051.7973,-173.935C1081.5701,-155.3856 1145.3703,-115.9873 1156.5,-112 1178.5585,-104.0975 1313.7239,-85.2904 1395.895,-74.3272"/>
<polygon fill="#191970" stroke="#191970" points="1396.4371,-77.786 1405.8882,-72.9977 1395.5139,-70.8471 1396.4371,-77.786"/>
</g>
<!-- Node22 -->
<g id="node23" class="node">
<title>Node22</title>
<g id="a_node23"><a xlink:href="_scratch_field_8_h.html" target="_top" xlink:title="amr&#45;wind/core/ScratchField.H">
<polygon fill="#ffffff" stroke="#000000" points="963.5,-112.5 963.5,-131.5 1109.5,-131.5 1109.5,-112.5 963.5,-112.5"/>
<text text-anchor="middle" x="1036.5" y="-119.5" font-family="Helvetica,sans-Serif" font-size="10.00" fill="#000000">amr&#45;wind/core/ScratchField.H</text>
</a>
</g>
</g>
<!-- Node5&#45;&gt;Node22 -->
<g id="edge32" class="edge">
<title>Node5&#45;&gt;Node22</title>
<path fill="none" stroke="#191970" d="M1036.5,-173.8906C1036.5,-165.3657 1036.5,-152.6392 1036.5,-141.9235"/>
<polygon fill="#191970" stroke="#191970" points="1040.0001,-141.7448 1036.5,-131.7449 1033.0001,-141.7449 1040.0001,-141.7448"/>
</g>
<!-- Node24 -->
<g id="node25" class="node">
<title>Node24</title>
<polygon fill="#ffffff" stroke="#bfbfbf" points="1165.5,-112.5 1165.5,-131.5 1271.5,-131.5 1271.5,-112.5 1165.5,-112.5"/>
<text text-anchor="middle" x="1218.5" y="-119.5" font-family="Helvetica,sans-Serif" font-size="10.00" fill="#000000">AMReX_AmrCore.H</text>
</g>
<!-- Node5&#45;&gt;Node24 -->
<g id="edge39" class="edge">
<title>Node5&#45;&gt;Node24</title>
<path fill="none" stroke="#191970" d="M1064.9375,-173.8906C1096.0572,-163.3749 1146.0964,-146.466 1180.5485,-134.8243"/>
<polygon fill="#191970" stroke="#191970" points="1181.9089,-138.0591 1190.2622,-131.5419 1179.668,-131.4274 1181.9089,-138.0591"/>
</g>
<!-- Node9&#45;&gt;Node8 -->
<g id="edge10" class="edge">
<title>Node9&#45;&gt;Node8</title>
<path fill="none" stroke="#191970" d="M133.0966,-59.9935C148.6489,-58.6365 165.152,-57.2334 180.5,-56 371.8845,-40.6197 596.1558,-24.7615 718.8176,-16.2728"/>
<polygon fill="#191970" stroke="#191970" points="719.1839,-19.7559 728.9186,-15.5745 718.7011,-12.7725 719.1839,-19.7559"/>
</g>
<!-- Node9&#45;&gt;Node10 -->
<g id="edge11" class="edge">
<title>Node9&#45;&gt;Node10</title>
<path fill="none" stroke="#191970" d="M106.6309,-56.4369C146.7649,-46.8731 208.5775,-32.1432 251.7933,-21.845"/>
<polygon fill="#191970" stroke="#191970" points="252.6183,-25.2465 261.5346,-19.5237 250.9956,-18.4372 252.6183,-25.2465"/>
</g>
<!-- Node11 -->
<g id="node12" class="node">
<title>Node11</title>
<polygon fill="#ffffff" stroke="#bfbfbf" points="8.5,-.5 8.5,-19.5 124.5,-19.5 124.5,-.5 8.5,-.5"/>
<text text-anchor="middle" x="66.5" y="-7.5" font-family="Helvetica,sans-Serif" font-size="10.00" fill="#000000">AMReX_Interpolater.H</text>
</g>
<!-- Node9&#45;&gt;Node11 -->
<g id="edge12" class="edge">
<title>Node9&#45;&gt;Node11</title>
<path fill="none" stroke="#191970" d="M66.5,-56.2455C66.5,-48.9382 66.5,-38.6944 66.5,-29.7046"/>
<polygon fill="#191970" stroke="#191970" points="70.0001,-29.6426 66.5,-19.6427 63.0001,-29.6427 70.0001,-29.6426"/>
</g>
<!-- Node12&#45;&gt;Node6 -->
<g id="edge14" class="edge">
<title>Node12&#45;&gt;Node6</title>
<path fill="none" stroke="#191970" d="M698.28,-114.9791C765.6913,-106.4856 881.4637,-91.4007 980.5,-76 1031.3296,-68.0957 1043.7786,-64.5711 1094.5,-56 1186.335,-40.4813 1295.1075,-23.0741 1346.9993,-14.8292"/>
<polygon fill="#191970" stroke="#191970" points="1347.5626,-18.2837 1356.8902,-13.2592 1346.4652,-11.3703 1347.5626,-18.2837"/>
</g>
<!-- Node12&#45;&gt;Node7 -->
<g id="edge16" class="edge">
<title>Node12&#45;&gt;Node7</title>
<path fill="none" stroke="#191970" d="M584.9773,-115.4944C515.0024,-107.2474 392.2399,-92.1476 287.5,-76 286.0359,-75.7743 284.5511,-75.5407 283.0531,-75.3009"/>
<polygon fill="#191970" stroke="#191970" points="283.4904,-71.8258 273.0533,-73.6467 282.3479,-78.7319 283.4904,-71.8258"/>
</g>
<!-- Node12&#45;&gt;Node8 -->
<g id="edge22" class="edge">
<title>Node12&#45;&gt;Node8</title>
<path fill="none" stroke="#191970" d="M656.9951,-112.4854C671.8512,-103.3046 694.8572,-88.9336 714.5,-76 740.166,-59.1004 769.1821,-39.0124 788.5308,-25.4735"/>
<polygon fill="#191970" stroke="#191970" points="790.7672,-28.1801 796.9446,-19.5725 786.7477,-22.4491 790.7672,-28.1801"/>
</g>
<!-- Node12&#45;&gt;Node10 -->
<g id="edge18" class="edge">
<title>Node12&#45;&gt;Node10</title>
<path fill="none" stroke="#191970" d="M584.9498,-117.2301C498.171,-109.4185 340.0839,-93.0526 320.5,-76 307.4582,-64.6439 303.0953,-44.9719 301.7635,-30.0512"/>
<polygon fill="#191970" stroke="#191970" points="305.2449,-29.5935 301.2424,-19.7838 298.2539,-29.9484 305.2449,-29.5935"/>
</g>
<!-- Node13 -->
<g id="node14" class="node">
<title>Node13</title>
<polygon fill="#ffffff" stroke="#bfbfbf" points="329.5,-56.5 329.5,-75.5 381.5,-75.5 381.5,-56.5 329.5,-56.5"/>
<text text-anchor="middle" x="355.5" y="-63.5" font-family="Helvetica,sans-Serif" font-size="10.00" fill="#000000">memory</text>
</g>
<!-- Node12&#45;&gt;Node13 -->
<g id="edge15" class="edge">
<title>Node12&#45;&gt;Node13</title>
<path fill="none" stroke="#191970" d="M584.8528,-113.2312C536.0621,-105.3138 463.5866,-92.6868 391.908,-76.1675"/>
<polygon fill="#191970" stroke="#191970" points="392.3353,-72.6733 381.8017,-73.8108 390.7456,-79.4904 392.3353,-72.6733"/>
</g>
<!-- Node14 -->
<g id="node15" class="node">
<title>Node14</title>
<polygon fill="#ffffff" stroke="#bfbfbf" points="399.5,-56.5 399.5,-75.5 455.5,-75.5 455.5,-56.5 399.5,-56.5"/>
<text text-anchor="middle" x="427.5" y="-63.5" font-family="Helvetica,sans-Serif" font-size="10.00" fill="#000000">algorithm</text>
</g>
<!-- Node12&#45;&gt;Node14 -->
<g id="edge17" class="edge">
<title>Node12&#45;&gt;Node14</title>
<path fill="none" stroke="#191970" d="M604.1792,-112.4129C570.439,-103.7206 519.1375,-90.4427 465.7611,-76.3182"/>
<polygon fill="#191970" stroke="#191970" points="466.3371,-72.8501 455.7742,-73.6719 464.5441,-79.6166 466.3371,-72.8501"/>
</g>
<!-- Node15 -->
<g id="node16" class="node">
<title>Node15</title>
<polygon fill="#ffffff" stroke="#bfbfbf" points="1250,-56.5 1250,-75.5 1349,-75.5 1349,-56.5 1250,-56.5"/>
<text text-anchor="middle" x="1299.5" y="-63.5" font-family="Helvetica,sans-Serif" font-size="10.00" fill="#000000">AMReX_BCRec.H</text>
</g>
<!-- Node12&#45;&gt;Node15 -->
<g id="edge19" class="edge">
<title>Node12&#45;&gt;Node15</title>
<path fill="none" stroke="#191970" d="M698.2425,-119.3713C803.0843,-114.1372 1034.3891,-100.8304 1239.8981,-75.9625"/>
<polygon fill="#191970" stroke="#191970" points="1240.472,-79.4185 1249.9736,-74.7314 1239.6229,-72.4702 1240.472,-79.4185"/>
</g>
<!-- Node16 -->
<g id="node17" class="node">
<title>Node16</title>
<polygon fill="#ffffff" stroke="#bfbfbf" points="474,-56.5 474,-75.5 559,-75.5 559,-56.5 474,-56.5"/>
<text text-anchor="middle" x="516.5" y="-63.5" font-family="Helvetica,sans-Serif" font-size="10.00" fill="#000000">AMReX_Gpu.H</text>
</g>
<!-- Node12&#45;&gt;Node16 -->
<g id="edge20" class="edge">
<title>Node12&#45;&gt;Node16</title>
<path fill="none" stroke="#191970" d="M620.0117,-112.3733C599.856,-103.3435 569.512,-89.7494 546.882,-79.6111"/>
<polygon fill="#191970" stroke="#191970" points="548.2649,-76.3955 537.7079,-75.5011 545.4029,-82.7838 548.2649,-76.3955"/>
</g>
<!-- Node17 -->
<g id="node18" class="node">
<title>Node17</title>
<g id="a_node18"><a xlink:href="incflo__enums_8_h.html" target="_top" xlink:title="amr&#45;wind/incflo_enums.H">
<polygon fill="#ffffff" stroke="#000000" points="577.5,-56.5 577.5,-75.5 705.5,-75.5 705.5,-56.5 577.5,-56.5"/>
<text text-anchor="middle" x="641.5" y="-63.5" font-family="Helvetica,sans-Serif" font-size="10.00" fill="#000000">amr&#45;wind/incflo_enums.H</text>
</a>
</g>
</g>
<!-- Node12&#45;&gt;Node17 -->
<g id="edge21" class="edge">
<title>Node12&#45;&gt;Node17</title>
<path fill="none" stroke="#191970" d="M641.5,-112.2455C641.5,-104.9382 641.5,-94.6944 641.5,-85.7046"/>
<polygon fill="#191970" stroke="#191970" points="645.0001,-85.6426 641.5,-75.6427 638.0001,-85.6427 645.0001,-85.6426"/>
</g>
<!-- Node18 -->
<g id="node19" class="node">
<title>Node18</title>
<g id="a_node19"><a xlink:href="_view_field_8_h.html" target="_top" xlink:title="amr&#45;wind/core/ViewField.H">
<polygon fill="#ffffff" stroke="#000000" points="837.5,-56.5 837.5,-75.5 971.5,-75.5 971.5,-56.5 837.5,-56.5"/>
<text text-anchor="middle" x="904.5" y="-63.5" font-family="Helvetica,sans-Serif" font-size="10.00" fill="#000000">amr&#45;wind/core/ViewField.H</text>
</a>
</g>
</g>
<!-- Node12&#45;&gt;Node18 -->
<g id="edge23" class="edge">
<title>Node12&#45;&gt;Node18</title>
<path fill="none" stroke="#191970" d="M686.4125,-112.4369C731.612,-102.8127 801.3807,-87.957 849.7847,-77.6504"/>
<polygon fill="#191970" stroke="#191970" points="850.721,-81.0296 859.7728,-75.5237 849.2631,-74.1831 850.721,-81.0296"/>
</g>
<!-- Node18&#45;&gt;Node6 -->
<g id="edge24" class="edge">
<title>Node18&#45;&gt;Node6</title>
<path fill="none" stroke="#191970" d="M971.6798,-57.6746C976.3565,-57.1048 980.9983,-56.542 985.5,-56 1119.8649,-39.8224 1280.2291,-21.2269 1346.4992,-13.5736"/>
<polygon fill="#191970" stroke="#191970" points="1347.1387,-17.0231 1356.6714,-12.3994 1346.336,-10.0693 1347.1387,-17.0231"/>
</g>
<!-- Node18&#45;&gt;Node8 -->
<g id="edge25" class="edge">
<title>Node18&#45;&gt;Node8</title>
<path fill="none" stroke="#191970" d="M888.1264,-56.2455C873.5692,-47.5731 852.069,-34.7645 835.3848,-24.825"/>
<polygon fill="#191970" stroke="#191970" points="837.0683,-21.7539 826.6859,-19.6427 833.4856,-27.7676 837.0683,-21.7539"/>
</g>
<!-- Node18&#45;&gt;Node10 -->
<g id="edge26" class="edge">
<title>Node18&#45;&gt;Node10</title>
<path fill="none" stroke="#191970" d="M837.3371,-57.525C832.6564,-56.9908 828.009,-56.4769 823.5,-56 657.6976,-38.4652 461.7692,-22.4619 363.818,-14.7835"/>
<polygon fill="#191970" stroke="#191970" points="364.0349,-11.2899 353.7925,-13.9999 363.4893,-18.2686 364.0349,-11.2899"/>
</g>
<!-- Node19 -->
<g id="node20" class="node">
<title>Node19</title>
<polygon fill="#ffffff" stroke="#bfbfbf" points="950,-.5 950,-19.5 1045,-19.5 1045,-.5 950,-.5"/>
<text text-anchor="middle" x="997.5" y="-7.5" font-family="Helvetica,sans-Serif" font-size="10.00" fill="#000000">AMReX_Vector.H</text>
</g>
<!-- Node18&#45;&gt;Node19 -->
<g id="edge27" class="edge">
<title>Node18&#45;&gt;Node19</title>
<path fill="none" stroke="#191970" d="M920.6994,-56.2455C935.1018,-47.5731 956.3732,-34.7645 972.8799,-24.825"/>
<polygon fill="#191970" stroke="#191970" points="974.725,-27.7996 981.4863,-19.6427 971.114,-21.8028 974.725,-27.7996"/>
</g>
<!-- Node20&#45;&gt;Node6 -->
<g id="edge29" class="edge">
<title>Node20&#45;&gt;Node6</title>
<path fill="none" stroke="#191970" d="M1514.0774,-112.4665C1537.9841,-100.0845 1572.1528,-77.5034 1555.5,-56 1537.5959,-32.8808 1454.1363,-19.2914 1408.1334,-13.4335"/>
<polygon fill="#191970" stroke="#191970" points="1408.4655,-9.9481 1398.1137,-12.2045 1407.6132,-16.896 1408.4655,-9.9481"/>
</g>
<!-- Node20&#45;&gt;Node8 -->
<g id="edge30" class="edge">
<title>Node20&#45;&gt;Node8</title>
<path fill="none" stroke="#191970" d="M1503.73,-112.3431C1517.3246,-98.3753 1537.9303,-72.4142 1522.5,-56 1478.1231,-8.7933 1005.1349,-24.4847 940.5,-20 928.2053,-19.1469 915.26,-18.2044 902.4971,-17.249"/>
<polygon fill="#191970" stroke="#191970" points="902.5514,-13.7433 892.3165,-16.4816 902.0251,-20.7235 902.5514,-13.7433"/>
</g>
<!-- Node20&#45;&gt;Node21 -->
<g id="edge31" class="edge">
<title>Node20&#45;&gt;Node21</title>
<path fill="none" stroke="#191970" d="M1487.5777,-112.2455C1482.8973,-104.5367 1476.2327,-93.5598 1470.5711,-84.2348"/>
<polygon fill="#191970" stroke="#191970" points="1473.5361,-82.3741 1465.3545,-75.6427 1467.5525,-86.007 1473.5361,-82.3741"/>
</g>
<!-- Node22&#45;&gt;Node6 -->
<g id="edge33" class="edge">
<title>Node22&#45;&gt;Node6</title>
<path fill="none" stroke="#191970" d="M1109.6165,-113.5811C1201.7124,-102.6808 1349.1688,-84.1215 1358.5,-76 1371.5443,-64.6467 1375.9068,-44.9744 1377.2378,-30.0528"/>
<polygon fill="#191970" stroke="#191970" points="1380.7475,-29.9491 1377.7584,-19.7847 1373.7565,-29.5947 1380.7475,-29.9491"/>
</g>
<!-- Node22&#45;&gt;Node8 -->
<g id="edge34" class="edge">
<title>Node22&#45;&gt;Node8</title>
<path fill="none" stroke="#191970" d="M1030.9552,-112.3187C1022.1522,-97.8338 1003.5884,-70.66 980.5,-56 954.0632,-39.214 921.5687,-28.4965 892.0954,-21.6786"/>
<polygon fill="#191970" stroke="#191970" points="892.747,-18.2383 882.2291,-19.5128 891.2461,-25.0756 892.747,-18.2383"/>
</g>
<!-- Node22&#45;&gt;Node10 -->
<g id="edge36" class="edge">
<title>Node22&#45;&gt;Node10</title>
<path fill="none" stroke="#191970" d="M996.0519,-112.4712C935.2457,-98.4285 816.5246,-72.1033 714.5,-56 590.6343,-36.4494 444.5782,-22.2413 363.5667,-15.1338"/>
<polygon fill="#191970" stroke="#191970" points="363.8017,-11.6411 353.5359,-14.261 363.1948,-18.6148 363.8017,-11.6411"/>
</g>
<!-- Node22&#45;&gt;Node18 -->
<g id="edge35" class="edge">
<title>Node22&#45;&gt;Node18</title>
<path fill="none" stroke="#191970" d="M1013.8084,-112.3733C992.4289,-103.3032 960.1943,-89.6279 936.2638,-79.4755"/>
<polygon fill="#191970" stroke="#191970" points="937.4683,-76.1846 926.8955,-75.5011 934.7344,-82.6287 937.4683,-76.1846"/>
</g>
<!-- Node22&#45;&gt;Node19 -->
<g id="edge37" class="edge">
<title>Node22&#45;&gt;Node19</title>
<path fill="none" stroke="#191970" d="M1042.5192,-112.1931C1049.8292,-98.9301 1060.1704,-74.7757 1051.5,-56 1045.6741,-43.384 1034.4931,-32.9528 1023.8095,-25.2314"/>
<polygon fill="#191970" stroke="#191970" points="1025.7142,-22.2946 1015.4599,-19.6299 1021.8144,-28.1076 1025.7142,-22.2946"/>
</g>
<!-- Node23 -->
<g id="node24" class="node">
<title>Node23</title>
<polygon fill="#ffffff" stroke="#bfbfbf" points="1103.5,-56.5 1103.5,-75.5 1231.5,-75.5 1231.5,-56.5 1103.5,-56.5"/>
<text text-anchor="middle" x="1167.5" y="-63.5" font-family="Helvetica,sans-Serif" font-size="10.00" fill="#000000">AMReX_PhysBCFunct.H</text>
</g>
<!-- Node22&#45;&gt;Node23 -->
<g id="edge38" class="edge">
<title>Node22&#45;&gt;Node23</title>
<path fill="none" stroke="#191970" d="M1059.0197,-112.3733C1080.2372,-103.3032 1112.2276,-89.6279 1135.9769,-79.4755"/>
<polygon fill="#191970" stroke="#191970" points="1137.4548,-82.6502 1145.2742,-75.5011 1134.7033,-76.2136 1137.4548,-82.6502"/>
</g>
<!-- Node25&#45;&gt;Node15 -->
<g id="edge43" class="edge">
<title>Node25&#45;&gt;Node15</title>
<path fill="none" stroke="#191970" d="M1250.8662,-168.3341C1260.8177,-158.7993 1272.8177,-145.7334 1280.5,-132 1288.504,-117.6915 1293.3912,-99.7133 1296.2007,-86.1354"/>
<polygon fill="#191970" stroke="#191970" points="1299.7089,-86.4131 1298.0948,-75.9419 1292.8267,-85.1342 1299.7089,-86.4131"/>
</g>
</g>
</svg>
        <g id="navigator" transform="translate(0 0)" fill="#404254">
                <rect fill="#f2f5e9" fill-opacity="0.5" stroke="#606060" stroke-width=".5" x="0" y="0" width="60" height="60"/>
                <use id="zoomplus" xlink:href="#zoomPlus" x="17" y="9" onmousedown="handleZoom(evt,'in')"/>
                <use id="zoomminus" xlink:href="#zoomMin" x="42" y="9" onmousedown="handleZoom(evt,'out')"/>
                <use id="reset" xlink:href="#resetDef" x="30" y="36" onmousedown="handleReset()"/>
                <g id="arrowUp" xlink:href="#dirArrow" transform="translate(30 24)" onmousedown="handlePan(0,-1)">
                  <use xlink:href="#rim" fill="#404040">
                        <set attributeName="fill" to="#808080" begin="arrowUp.mouseover" end="arrowUp.mouseout"/>
                  </use>
                  <path fill="none" stroke="white" stroke-width="1.5" d="M0,-3.0v7 M-2.5,-0.5L0,-3.0L2.5,-0.5"/>
                </g>
                <g id="arrowRight" xlink:href="#dirArrow" transform="rotate(90) translate(36 -43)" onmousedown="handlePan(1,0)">
                  <use xlink:href="#rim" fill="#404040">
                        <set attributeName="fill" to="#808080" begin="arrowRight.mouseover" end="arrowRight.mouseout"/>
                  </use>
                  <path fill="none" stroke="white" stroke-width="1.5" d="M0,-3.0v7 M-2.5,-0.5L0,-3.0L2.5,-0.5"/>
                </g>
                <g id="arrowDown" xlink:href="#dirArrow" transform="rotate(180) translate(-30 -48)" onmousedown="handlePan(0,1)">
                  <use xlink:href="#rim" fill="#404040">
                        <set attributeName="fill" to="#808080" begin="arrowDown.mouseover" end="arrowDown.mouseout"/>
                  </use>
                  <path fill="none" stroke="white" stroke-width="1.5" d="M0,-3.0v7 M-2.5,-0.5L0,-3.0L2.5,-0.5"/>
                </g>
                <g id="arrowLeft" xlink:href="#dirArrow" transform="rotate(270) translate(-36 17)" onmousedown="handlePan(-1,0)">
                  <use xlink:href="#rim" fill="#404040">
                        <set attributeName="fill" to="#808080" begin="arrowLeft.mouseover" end="arrowLeft.mouseout"/>
                  </use>
                  <path fill="none" stroke="white" stroke-width="1.5" d="M0,-3.0v7 M-2.5,-0.5L0,-3.0L2.5,-0.5"/>
                </g>
        </g>
        <svg viewBox="0 0 15 15" width="100%" height="30px" preserveAspectRatio="xMaxYMin meet">
         <g id="arrow_out" transform="scale(0.3 0.3)">
          <a xlink:href="incflo__mol__fluxes_8cpp__incl_org.svg" target="_base">
           <rect id="button" ry="5" rx="5" y="6" x="6" height="38" width="38"
                fill="#f2f5e9" fill-opacity="0.5" stroke="#606060" stroke-width="1.0"/>
           <path id="arrow"
             d="M 11.500037,31.436501 C 11.940474,20.09759 22.043105,11.32322 32.158766,21.979434 L 37.068811,17.246167 C 37.068811,17.246167 37.088388,32 37.088388,32 L 22.160133,31.978069 C 22.160133,31.978069 26.997745,27.140456 26.997745,27.140456 C 18.528582,18.264221 13.291696,25.230495 11.500037,31.436501 z"
             style="fill:#404040;"/>
          </a>
         </g>
        </svg>
</svg>
