<?xml version="1.0" encoding="UTF-8" standalone="no"?>
<!DOCTYPE svg PUBLIC "-//W3C//DTD SVG 1.1//EN"
 "http://www.w3.org/Graphics/SVG/1.1/DTD/svg11.dtd">
<!-- Generated by graphviz version 2.40.1 (20161225.0304)
 -->
<!-- Title: incflo_diffusion.cpp Pages: 1 -->
<svg width="2261pt" height="408pt"
 viewBox="0.00 0.00 2261.00 408.00" xmlns="http://www.w3.org/2000/svg" xmlns:xlink="http://www.w3.org/1999/xlink">
<g id="graph0" class="graph" transform="scale(1 1) rotate(0) translate(4 404)">
<title>incflo_diffusion.cpp</title>
<polygon fill="#ffffff" stroke="transparent" points="-4,4 -4,-404 2257,-404 2257,4 -4,4"/>
<!-- Node0 -->
<g id="node1" class="node">
<title>Node0</title>
<polygon fill="#bfbfbf" stroke="#000000" points="1398,-380.5 1398,-399.5 1499,-399.5 1499,-380.5 1398,-380.5"/>
<text text-anchor="middle" x="1448.5" y="-387.5" font-family="Helvetica,sans-Serif" font-size="10.00" fill="#000000">incflo_diffusion.cpp</text>
</g>
<!-- Node1 -->
<g id="node2" class="node">
<title>Node1</title>
<g id="a_node2"><a xlink:href="incflo_8_h.html" target="_top" xlink:title="amr&#45;wind/incflo.H">
<polygon fill="#ffffff" stroke="#000000" points="811,-319 811,-338 904,-338 904,-319 811,-319"/>
<text text-anchor="middle" x="857.5" y="-326" font-family="Helvetica,sans-Serif" font-size="10.00" fill="#000000">amr&#45;wind/incflo.H</text>
</a>
</g>
</g>
<!-- Node0&#45;&gt;Node1 -->
<g id="edge1" class="edge">
<title>Node0&#45;&gt;Node1</title>
<path fill="none" stroke="#191970" d="M1397.8562,-384.73C1288.0845,-373.307 1028.8819,-346.3342 914.0031,-334.3798"/>
<polygon fill="#191970" stroke="#191970" points="914.3127,-330.8932 904.0041,-333.3393 913.5881,-337.8556 914.3127,-330.8932"/>
</g>
<!-- Node41 -->
<g id="node42" class="node">
<title>Node41</title>
<g id="a_node42"><a xlink:href="diffusion_8_h.html" target="_top" xlink:title="amr&#45;wind/diffusion\l/diffusion.H">
<polygon fill="#ffffff" stroke="#000000" points="2070.5,-313.5 2070.5,-343.5 2166.5,-343.5 2166.5,-313.5 2070.5,-313.5"/>
<text text-anchor="start" x="2078.5" y="-331.5" font-family="Helvetica,sans-Serif" font-size="10.00" fill="#000000">amr&#45;wind/diffusion</text>
<text text-anchor="middle" x="2118.5" y="-320.5" font-family="Helvetica,sans-Serif" font-size="10.00" fill="#000000">/diffusion.H</text>
</a>
</g>
</g>
<!-- Node0&#45;&gt;Node41 -->
<g id="edge76" class="edge">
<title>Node0&#45;&gt;Node41</title>
<path fill="none" stroke="#191970" d="M1499.1335,-385.3523C1621.1253,-374.1545 1930.7668,-345.7322 2060.2172,-333.8498"/>
<polygon fill="#191970" stroke="#191970" points="2060.6923,-337.321 2070.3305,-332.9215 2060.0524,-330.3503 2060.6923,-337.321"/>
</g>
<!-- Node2 -->
<g id="node3" class="node">
<title>Node2</title>
<polygon fill="#ffffff" stroke="#bfbfbf" points="111.5,-129 111.5,-148 217.5,-148 217.5,-129 111.5,-129"/>
<text text-anchor="middle" x="164.5" y="-136" font-family="Helvetica,sans-Serif" font-size="10.00" fill="#000000">AMReX_AmrCore.H</text>
</g>
<!-- Node1&#45;&gt;Node2 -->
<g id="edge2" class="edge">
<title>Node1&#45;&gt;Node2</title>
<path fill="none" stroke="#191970" d="M810.838,-326.5296C704.5592,-321.5727 447.4354,-306.7977 366.5,-277 289.9868,-248.8304 214.7647,-185.1567 181.8262,-154.9698"/>
<polygon fill="#191970" stroke="#191970" points="184.0962,-152.3014 174.388,-148.0587 179.3315,-157.4295 184.0962,-152.3014"/>
</g>
<!-- Node3 -->
<g id="node4" class="node">
<title>Node3</title>
<polygon fill="#ffffff" stroke="#bfbfbf" points="662,-252 662,-271 781,-271 781,-252 662,-252"/>
<text text-anchor="middle" x="721.5" y="-259" font-family="Helvetica,sans-Serif" font-size="10.00" fill="#000000">AMReX_MultiFabUtil.H</text>
</g>
<!-- Node1&#45;&gt;Node3 -->
<g id="edge3" class="edge">
<title>Node1&#45;&gt;Node3</title>
<path fill="none" stroke="#191970" d="M838.0145,-318.9005C814.9887,-307.5569 776.4772,-288.5844 750.0768,-275.5783"/>
<polygon fill="#191970" stroke="#191970" points="751.4666,-272.3613 740.9493,-271.0817 748.3731,-278.6407 751.4666,-272.3613"/>
</g>
<!-- Node4 -->
<g id="node5" class="node">
<title>Node4</title>
<polygon fill="#ffffff" stroke="#bfbfbf" points="799.5,-252 799.5,-271 915.5,-271 915.5,-252 799.5,-252"/>
<text text-anchor="middle" x="857.5" y="-259" font-family="Helvetica,sans-Serif" font-size="10.00" fill="#000000">AMReX_ParmParse.H</text>
</g>
<!-- Node1&#45;&gt;Node4 -->
<g id="edge4" class="edge">
<title>Node1&#45;&gt;Node4</title>
<path fill="none" stroke="#191970" d="M857.5,-318.9005C857.5,-309.149 857.5,-293.7597 857.5,-281.3695"/>
<polygon fill="#191970" stroke="#191970" points="861.0001,-281.0816 857.5,-271.0817 854.0001,-281.0817 861.0001,-281.0816"/>
</g>
<!-- Node5 -->
<g id="node6" class="node">
<title>Node5</title>
<polygon fill="#ffffff" stroke="#bfbfbf" points="2146,-62 2146,-81 2253,-81 2253,-62 2146,-62"/>
<text text-anchor="middle" x="2199.5" y="-69" font-family="Helvetica,sans-Serif" font-size="10.00" fill="#000000">AMReX_iMultiFab.H</text>
</g>
<!-- Node1&#45;&gt;Node5 -->
<g id="edge5" class="edge">
<title>Node1&#45;&gt;Node5</title>
<path fill="none" stroke="#191970" d="M904.1263,-322.7166C977.7662,-313.5089 1125.4815,-294.7405 1250.5,-277 1608.8402,-226.1506 1713.8021,-273.3143 2055.5,-154 2102.1784,-137.7008 2150.9811,-106.1834 2178.0863,-87.1736"/>
<polygon fill="#191970" stroke="#191970" points="2180.2956,-89.8972 2186.4123,-81.2463 2176.2359,-84.1946 2180.2956,-89.8972"/>
</g>
<!-- Node6 -->
<g id="node7" class="node">
<title>Node6</title>
<polygon fill="#ffffff" stroke="#bfbfbf" points="972,-252 972,-271 1103,-271 1103,-252 972,-252"/>
<text text-anchor="middle" x="1037.5" y="-259" font-family="Helvetica,sans-Serif" font-size="10.00" fill="#000000">AMReX_NodalProjector.H</text>
</g>
<!-- Node1&#45;&gt;Node6 -->
<g id="edge6" class="edge">
<title>Node1&#45;&gt;Node6</title>
<path fill="none" stroke="#191970" d="M883.2896,-318.9005C914.4333,-307.3082 966.9815,-287.7486 1001.9531,-274.7313"/>
<polygon fill="#191970" stroke="#191970" points="1003.6074,-277.8503 1011.7582,-271.0817 1001.1654,-271.29 1003.6074,-277.8503"/>
</g>
<!-- Node7 -->
<g id="node8" class="node">
<title>Node7</title>
<g id="a_node8"><a xlink:href="incflo__enums_8_h.html" target="_top" xlink:title="amr&#45;wind/incflo_enums.H">
<polygon fill="#ffffff" stroke="#000000" points="685.5,-62 685.5,-81 813.5,-81 813.5,-62 685.5,-62"/>
<text text-anchor="middle" x="749.5" y="-69" font-family="Helvetica,sans-Serif" font-size="10.00" fill="#000000">amr&#45;wind/incflo_enums.H</text>
</a>
</g>
</g>
<!-- Node1&#45;&gt;Node7 -->
<g id="edge7" class="edge">
<title>Node1&#45;&gt;Node7</title>
<path fill="none" stroke="#191970" d="M878.4124,-318.9632C894.2924,-310.4557 914.9694,-296.3465 924.5,-277 941.9782,-241.5203 964.8405,-187.591 912.5,-123 904.9714,-113.7093 842.3131,-95.7038 796.9269,-83.6394"/>
<polygon fill="#191970" stroke="#191970" points="797.8057,-80.2516 787.2438,-81.0855 796.0205,-87.0202 797.8057,-80.2516"/>
</g>
<!-- Node8 -->
<g id="node9" class="node">
<title>Node8</title>
<g id="a_node9"><a xlink:href="_c_f_d_sim_8_h.html" target="_top" xlink:title="amr&#45;wind/CFDSim.H">
<polygon fill="#ffffff" stroke="#000000" points="375.5,-252 375.5,-271 483.5,-271 483.5,-252 375.5,-252"/>
<text text-anchor="middle" x="429.5" y="-259" font-family="Helvetica,sans-Serif" font-size="10.00" fill="#000000">amr&#45;wind/CFDSim.H</text>
</a>
</g>
</g>
<!-- Node1&#45;&gt;Node8 -->
<g id="edge8" class="edge">
<title>Node1&#45;&gt;Node8</title>
<path fill="none" stroke="#191970" d="M810.9859,-323.0839C742.1958,-314.7944 609.4008,-297.7213 497.5,-277 491.4056,-275.8715 485.0298,-274.5745 478.7286,-273.2217"/>
<polygon fill="#191970" stroke="#191970" points="479.4582,-269.7986 468.9394,-271.0659 477.9527,-276.6348 479.4582,-269.7986"/>
</g>
<!-- Node9 -->
<g id="node10" class="node">
<title>Node9</title>
<g id="a_node10"><a xlink:href="_sim_time_8_h.html" target="_top" xlink:title="amr&#45;wind/core/SimTime.H">
<polygon fill="#ffffff" stroke="#000000" points="536,-190.5 536,-209.5 667,-209.5 667,-190.5 536,-190.5"/>
<text text-anchor="middle" x="601.5" y="-197.5" font-family="Helvetica,sans-Serif" font-size="10.00" fill="#000000">amr&#45;wind/core/SimTime.H</text>
</a>
</g>
</g>
<!-- Node1&#45;&gt;Node9 -->
<g id="edge73" class="edge">
<title>Node1&#45;&gt;Node9</title>
<path fill="none" stroke="#191970" d="M810.7752,-324.4772C724.7693,-316.5975 548.4947,-298.0506 530.5,-277 521.5475,-266.5272 523.9193,-258.1046 530.5,-246 538.1377,-231.9511 552.1209,-221.5317 565.6708,-214.1958"/>
<polygon fill="#191970" stroke="#191970" points="567.5059,-217.1921 574.899,-209.603 564.387,-210.9253 567.5059,-217.1921"/>
</g>
<!-- Node13 -->
<g id="node14" class="node">
<title>Node13</title>
<g id="a_node14"><a xlink:href="_field_repo_8_h.html" target="_top" xlink:title="amr&#45;wind/core/FieldRepo.H">
<polygon fill="#ffffff" stroke="#000000" points="1524.5,-190.5 1524.5,-209.5 1660.5,-209.5 1660.5,-190.5 1524.5,-190.5"/>
<text text-anchor="middle" x="1592.5" y="-197.5" font-family="Helvetica,sans-Serif" font-size="10.00" fill="#000000">amr&#45;wind/core/FieldRepo.H</text>
</a>
</g>
</g>
<!-- Node1&#45;&gt;Node13 -->
<g id="edge74" class="edge">
<title>Node1&#45;&gt;Node13</title>
<path fill="none" stroke="#191970" d="M904.0351,-320.3643C1030.7686,-298.2075 1382.2812,-236.7525 1527.9643,-211.2828"/>
<polygon fill="#191970" stroke="#191970" points="1528.8441,-214.6821 1538.0919,-209.5122 1527.6385,-207.7867 1528.8441,-214.6821"/>
</g>
<!-- Node40 -->
<g id="node41" class="node">
<title>Node40</title>
<g id="a_node41"><a xlink:href="incflo__prob___i_8_h.html" target="_top" xlink:title="amr&#45;wind/prob/incflo\l_prob_I.H">
<polygon fill="#ffffff" stroke="#000000" points="539.5,-246.5 539.5,-276.5 643.5,-276.5 643.5,-246.5 539.5,-246.5"/>
<text text-anchor="start" x="547.5" y="-264.5" font-family="Helvetica,sans-Serif" font-size="10.00" fill="#000000">amr&#45;wind/prob/incflo</text>
<text text-anchor="middle" x="591.5" y="-253.5" font-family="Helvetica,sans-Serif" font-size="10.00" fill="#000000">_prob_I.H</text>
</a>
</g>
</g>
<!-- Node1&#45;&gt;Node40 -->
<g id="edge75" class="edge">
<title>Node1&#45;&gt;Node40</title>
<path fill="none" stroke="#191970" d="M819.3321,-318.9443C780.1675,-309.1317 717.198,-293.3348 653.546,-277.2611"/>
<polygon fill="#191970" stroke="#191970" points="654.2937,-273.8401 643.7411,-274.7843 652.5793,-280.6269 654.2937,-273.8401"/>
</g>
<!-- Node8&#45;&gt;Node2 -->
<g id="edge9" class="edge">
<title>Node8&#45;&gt;Node2</title>
<path fill="none" stroke="#191970" d="M408.7059,-251.8484C361.974,-230.1577 248.504,-177.4905 194.2939,-152.3289"/>
<polygon fill="#191970" stroke="#191970" points="195.7416,-149.1422 185.1975,-148.1068 192.7945,-155.4916 195.7416,-149.1422"/>
</g>
<!-- Node8&#45;&gt;Node9 -->
<g id="edge10" class="edge">
<title>Node8&#45;&gt;Node9</title>
<path fill="none" stroke="#191970" d="M456.375,-251.8906C485.6586,-241.42 532.669,-224.6111 565.2137,-212.9745"/>
<polygon fill="#191970" stroke="#191970" points="566.5759,-216.2045 574.8137,-209.5419 564.2191,-209.6131 566.5759,-216.2045"/>
</g>
<!-- Node8&#45;&gt;Node13 -->
<g id="edge14" class="edge">
<title>Node8&#45;&gt;Node13</title>
<path fill="none" stroke="#191970" d="M483.6141,-252.0833C498.7456,-249.7534 515.2282,-247.4981 530.5,-246 721.3716,-227.2764 1302.355,-208.6339 1514.1691,-202.283"/>
<polygon fill="#191970" stroke="#191970" points="1514.3845,-205.7782 1524.2754,-201.9809 1514.1753,-198.7813 1514.3845,-205.7782"/>
</g>
<!-- Node30 -->
<g id="node31" class="node">
<title>Node30</title>
<g id="a_node31"><a xlink:href="_p_d_e_base_8_h.html" target="_top" xlink:title="amr&#45;wind/equation_systems\l/PDEBase.H">
<polygon fill="#ffffff" stroke="#000000" points="236,-123.5 236,-153.5 375,-153.5 375,-123.5 236,-123.5"/>
<text text-anchor="start" x="244" y="-141.5" font-family="Helvetica,sans-Serif" font-size="10.00" fill="#000000">amr&#45;wind/equation_systems</text>
<text text-anchor="middle" x="305.5" y="-130.5" font-family="Helvetica,sans-Serif" font-size="10.00" fill="#000000">/PDEBase.H</text>
</a>
</g>
</g>
<!-- Node8&#45;&gt;Node30 -->
<g id="edge51" class="edge">
<title>Node8&#45;&gt;Node30</title>
<path fill="none" stroke="#191970" d="M419.7699,-251.8484C400.1476,-232.3843 355.3792,-187.977 328.0659,-160.8839"/>
<polygon fill="#191970" stroke="#191970" points="330.4249,-158.294 320.8604,-153.7365 325.4952,-163.2638 330.4249,-158.294"/>
</g>
<!-- Node38 -->
<g id="node39" class="node">
<title>Node38</title>
<g id="a_node39"><a xlink:href="_physics_8_h.html" target="_top" xlink:title="amr&#45;wind/core/Physics.H">
<polygon fill="#ffffff" stroke="#000000" points="393,-129 393,-148 520,-148 520,-129 393,-129"/>
<text text-anchor="middle" x="456.5" y="-136" font-family="Helvetica,sans-Serif" font-size="10.00" fill="#000000">amr&#45;wind/core/Physics.H</text>
</a>
</g>
</g>
<!-- Node8&#45;&gt;Node38 -->
<g id="edge68" class="edge">
<title>Node8&#45;&gt;Node38</title>
<path fill="none" stroke="#191970" d="M431.6186,-251.8484C436.035,-231.7295 446.3013,-184.9608 452.1735,-158.2098"/>
<polygon fill="#191970" stroke="#191970" points="455.6657,-158.6247 454.3912,-148.1068 448.8284,-157.1238 455.6657,-158.6247"/>
</g>
<!-- Node10 -->
<g id="node11" class="node">
<title>Node10</title>
<polygon fill="#ffffff" stroke="#bfbfbf" points="811,-129 811,-148 904,-148 904,-129 811,-129"/>
<text text-anchor="middle" x="857.5" y="-136" font-family="Helvetica,sans-Serif" font-size="10.00" fill="#000000">AMReX_REAL.H</text>
</g>
<!-- Node9&#45;&gt;Node10 -->
<g id="edge11" class="edge">
<title>Node9&#45;&gt;Node10</title>
<path fill="none" stroke="#191970" d="M645.7236,-190.414C686.3396,-181.4712 748.1383,-167.5145 801.5,-154 805.6255,-152.9552 809.9121,-151.8337 814.1947,-150.6894"/>
<polygon fill="#191970" stroke="#191970" points="815.3669,-153.998 824.1023,-148.0027 813.5348,-147.242 815.3669,-153.998"/>
</g>
<!-- Node11 -->
<g id="node12" class="node">
<title>Node11</title>
<polygon fill="#ffffff" stroke="#bfbfbf" points="538.5,-129 538.5,-148 664.5,-148 664.5,-129 538.5,-129"/>
<text text-anchor="middle" x="601.5" y="-136" font-family="Helvetica,sans-Serif" font-size="10.00" fill="#000000">AMReX_GpuQualifiers.H</text>
</g>
<!-- Node9&#45;&gt;Node11 -->
<g id="edge12" class="edge">
<title>Node9&#45;&gt;Node11</title>
<path fill="none" stroke="#191970" d="M601.5,-190.3906C601.5,-181.8657 601.5,-169.1392 601.5,-158.4235"/>
<polygon fill="#191970" stroke="#191970" points="605.0001,-158.2448 601.5,-148.2449 598.0001,-158.2449 605.0001,-158.2448"/>
</g>
<!-- Node12 -->
<g id="node13" class="node">
<title>Node12</title>
<polygon fill="#ffffff" stroke="#bfbfbf" points="682.5,-129 682.5,-148 792.5,-148 792.5,-129 682.5,-129"/>
<text text-anchor="middle" x="737.5" y="-136" font-family="Helvetica,sans-Serif" font-size="10.00" fill="#000000">AMReX_Extension.H</text>
</g>
<!-- Node9&#45;&gt;Node12 -->
<g id="edge13" class="edge">
<title>Node9&#45;&gt;Node12</title>
<path fill="none" stroke="#191970" d="M622.75,-190.3906C645.4055,-180.1457 681.4798,-163.8326 707.1291,-152.2339"/>
<polygon fill="#191970" stroke="#191970" points="708.7297,-155.3514 716.3992,-148.0419 705.8454,-148.9732 708.7297,-155.3514"/>
</g>
<!-- Node13&#45;&gt;Node2 -->
<g id="edge48" class="edge">
<title>Node13&#45;&gt;Node2</title>
<path fill="none" stroke="#191970" d="M1524.3887,-199.6089C1284.7572,-197.936 481.3151,-189.7325 226.5,-154 220.1546,-153.1102 213.517,-151.8331 207.0419,-150.3886"/>
<polygon fill="#191970" stroke="#191970" points="207.6046,-146.9248 197.0658,-148.0128 205.9828,-153.7344 207.6046,-146.9248"/>
</g>
<!-- Node13&#45;&gt;Node5 -->
<g id="edge50" class="edge">
<title>Node13&#45;&gt;Node5</title>
<path fill="none" stroke="#191970" d="M1660.8779,-196.1859C1763.359,-189.8581 1951.5829,-175.6965 2015.5,-154 2040.6179,-145.4738 2042.7059,-134.7237 2066.5,-123 2097.4585,-107.7463 2134.1321,-93.836 2161.1201,-84.3282"/>
<polygon fill="#191970" stroke="#191970" points="2162.3024,-87.6227 2170.5963,-81.0301 2160.0015,-81.0116 2162.3024,-87.6227"/>
</g>
<!-- Node14 -->
<g id="node15" class="node">
<title>Node14</title>
<polygon fill="#ffffff" stroke="#bfbfbf" points="973,-.5 973,-19.5 1014,-19.5 1014,-.5 973,-.5"/>
<text text-anchor="middle" x="993.5" y="-7.5" font-family="Helvetica,sans-Serif" font-size="10.00" fill="#000000">string</text>
</g>
<!-- Node13&#45;&gt;Node14 -->
<g id="edge15" class="edge">
<title>Node13&#45;&gt;Node14</title>
<path fill="none" stroke="#191970" d="M1524.4793,-198.6877C1404.0711,-195.577 1158.6446,-185.4717 1079.5,-154 1034.8015,-136.2257 1015.7744,-130.1425 994.5,-87 985.6604,-69.0741 986.8041,-45.8252 989.2856,-29.5838"/>
<polygon fill="#191970" stroke="#191970" points="992.7533,-30.0776 991.111,-19.6108 985.8677,-28.8172 992.7533,-30.0776"/>
</g>
<!-- Node15 -->
<g id="node16" class="node">
<title>Node15</title>
<polygon fill="#ffffff" stroke="#bfbfbf" points="620,-.5 620,-19.5 703,-19.5 703,-.5 620,-.5"/>
<text text-anchor="middle" x="661.5" y="-7.5" font-family="Helvetica,sans-Serif" font-size="10.00" fill="#000000">unordered_map</text>
</g>
<!-- Node13&#45;&gt;Node15 -->
<g id="edge16" class="edge">
<title>Node13&#45;&gt;Node15</title>
<path fill="none" stroke="#191970" d="M1524.2483,-197.8503C1393.0284,-193.1748 1110.2464,-180.3217 1016.5,-154 969.9987,-140.9436 867.4778,-73.6023 822.5,-56 786.7144,-41.9951 744.9563,-30.1881 712.9361,-22.0435"/>
<polygon fill="#191970" stroke="#191970" points="713.4528,-18.5648 702.902,-19.5296 711.7516,-25.355 713.4528,-18.5648"/>
</g>
<!-- Node16 -->
<g id="node17" class="node">
<title>Node16</title>
<g id="a_node17"><a xlink:href="_field_desc_types_8_h.html" target="_top" xlink:title="amr&#45;wind/core/FieldDescTypes.H">
<polygon fill="#ffffff" stroke="#000000" points="1549,-.5 1549,-19.5 1712,-19.5 1712,-.5 1549,-.5"/>
<text text-anchor="middle" x="1630.5" y="-7.5" font-family="Helvetica,sans-Serif" font-size="10.00" fill="#000000">amr&#45;wind/core/FieldDescTypes.H</text>
</a>
</g>
</g>
<!-- Node13&#45;&gt;Node16 -->
<g id="edge17" class="edge">
<title>Node13&#45;&gt;Node16</title>
<path fill="none" stroke="#191970" d="M1633.6434,-190.4452C1682.1743,-176.726 1760.6487,-146.287 1795.5,-87 1816.8942,-50.6055 1771.0624,-31.228 1722.3228,-21.0174"/>
<polygon fill="#191970" stroke="#191970" points="1722.716,-17.5279 1712.2289,-19.0351 1721.3669,-24.3967 1722.716,-17.5279"/>
</g>
<!-- Node17 -->
<g id="node18" class="node">
<title>Node17</title>
<g id="a_node18"><a xlink:href="_field_utils_8_h.html" target="_top" xlink:title="amr&#45;wind/core/FieldUtils.H">
<polygon fill="#ffffff" stroke="#000000" points="1995,-62 1995,-81 2128,-81 2128,-62 1995,-62"/>
<text text-anchor="middle" x="2061.5" y="-69" font-family="Helvetica,sans-Serif" font-size="10.00" fill="#000000">amr&#45;wind/core/FieldUtils.H</text>
</a>
</g>
</g>
<!-- Node13&#45;&gt;Node17 -->
<g id="edge18" class="edge">
<title>Node13&#45;&gt;Node17</title>
<path fill="none" stroke="#191970" d="M1660.6942,-197.3376C1756.6097,-192.6805 1925.7723,-180.8623 1980.5,-154 2010.3662,-139.3406 2035.5137,-109.0795 2049.5327,-89.565"/>
<polygon fill="#191970" stroke="#191970" points="2052.5068,-91.4183 2055.3305,-81.2067 2046.755,-87.4286 2052.5068,-91.4183"/>
</g>
<!-- Node18 -->
<g id="node19" class="node">
<title>Node18</title>
<polygon fill="#ffffff" stroke="#bfbfbf" points="1746.5,-.5 1746.5,-19.5 1850.5,-19.5 1850.5,-.5 1746.5,-.5"/>
<text text-anchor="middle" x="1798.5" y="-7.5" font-family="Helvetica,sans-Serif" font-size="10.00" fill="#000000">AMReX_MultiFab.H</text>
</g>
<!-- Node13&#45;&gt;Node18 -->
<g id="edge49" class="edge">
<title>Node13&#45;&gt;Node18</title>
<path fill="none" stroke="#191970" d="M1660.8711,-195.9351C1758.6916,-189.4118 1928.9109,-175.1532 1947.5,-154 1968.7083,-129.8662 1933.2745,-66.754 1922.5,-56 1905.7244,-39.2563 1882.3165,-28.5364 1860.3524,-21.7048"/>
<polygon fill="#191970" stroke="#191970" points="1861.3013,-18.3358 1850.7226,-18.9204 1859.3569,-25.0604 1861.3013,-18.3358"/>
</g>
<!-- Node20 -->
<g id="node21" class="node">
<title>Node20</title>
<g id="a_node21"><a xlink:href="_field_8_h.html" target="_top" xlink:title="amr&#45;wind/core/Field.H">
<polygon fill="#ffffff" stroke="#000000" points="1089,-129 1089,-148 1202,-148 1202,-129 1089,-129"/>
<text text-anchor="middle" x="1145.5" y="-136" font-family="Helvetica,sans-Serif" font-size="10.00" fill="#000000">amr&#45;wind/core/Field.H</text>
</a>
</g>
</g>
<!-- Node13&#45;&gt;Node20 -->
<g id="edge22" class="edge">
<title>Node13&#45;&gt;Node20</title>
<path fill="none" stroke="#191970" d="M1524.1237,-190.5925C1439.4015,-178.9361 1295.997,-159.206 1212.1033,-147.6635"/>
<polygon fill="#191970" stroke="#191970" points="1212.559,-144.1934 1202.1753,-146.2976 1211.6049,-151.128 1212.559,-144.1934"/>
</g>
<!-- Node27 -->
<g id="node28" class="node">
<title>Node27</title>
<g id="a_node28"><a xlink:href="_int_field_8_h.html" target="_top" xlink:title="amr&#45;wind/core/IntField.H">
<polygon fill="#ffffff" stroke="#000000" points="1814.5,-129 1814.5,-148 1938.5,-148 1938.5,-129 1814.5,-129"/>
<text text-anchor="middle" x="1876.5" y="-136" font-family="Helvetica,sans-Serif" font-size="10.00" fill="#000000">amr&#45;wind/core/IntField.H</text>
</a>
</g>
</g>
<!-- Node13&#45;&gt;Node27 -->
<g id="edge37" class="edge">
<title>Node13&#45;&gt;Node27</title>
<path fill="none" stroke="#191970" d="M1636.5634,-190.4581C1686.6213,-179.6181 1768.3382,-161.9224 1822.2682,-150.2439"/>
<polygon fill="#191970" stroke="#191970" points="1823.3005,-153.6015 1832.3332,-148.0643 1821.819,-146.7601 1823.3005,-153.6015"/>
</g>
<!-- Node28 -->
<g id="node29" class="node">
<title>Node28</title>
<g id="a_node29"><a xlink:href="_scratch_field_8_h.html" target="_top" xlink:title="amr&#45;wind/core/ScratchField.H">
<polygon fill="#ffffff" stroke="#000000" points="1519.5,-129 1519.5,-148 1665.5,-148 1665.5,-129 1519.5,-129"/>
<text text-anchor="middle" x="1592.5" y="-136" font-family="Helvetica,sans-Serif" font-size="10.00" fill="#000000">amr&#45;wind/core/ScratchField.H</text>
</a>
</g>
</g>
<!-- Node13&#45;&gt;Node28 -->
<g id="edge41" class="edge">
<title>Node13&#45;&gt;Node28</title>
<path fill="none" stroke="#191970" d="M1592.5,-190.3906C1592.5,-181.8657 1592.5,-169.1392 1592.5,-158.4235"/>
<polygon fill="#191970" stroke="#191970" points="1596.0001,-158.2448 1592.5,-148.2449 1589.0001,-158.2449 1596.0001,-158.2448"/>
</g>
<!-- Node17&#45;&gt;Node16 -->
<g id="edge19" class="edge">
<title>Node17&#45;&gt;Node16</title>
<path fill="none" stroke="#191970" d="M1994.6291,-61.9581C1916.9682,-50.8766 1789.0965,-32.6304 1707.3952,-20.9723"/>
<polygon fill="#191970" stroke="#191970" points="1707.5673,-17.4615 1697.1731,-19.5137 1706.5784,-24.3913 1707.5673,-17.4615"/>
</g>
<!-- Node17&#45;&gt;Node18 -->
<g id="edge20" class="edge">
<title>Node17&#45;&gt;Node18</title>
<path fill="none" stroke="#191970" d="M2020.6948,-61.9581C1974.5311,-51.1632 1899.2928,-33.5694 1849.346,-21.8899"/>
<polygon fill="#191970" stroke="#191970" points="1849.9352,-18.4333 1839.4009,-19.5643 1848.3413,-25.2494 1849.9352,-18.4333"/>
</g>
<!-- Node19 -->
<g id="node20" class="node">
<title>Node19</title>
<polygon fill="#ffffff" stroke="#bfbfbf" points="2003.5,-.5 2003.5,-19.5 2119.5,-19.5 2119.5,-.5 2003.5,-.5"/>
<text text-anchor="middle" x="2061.5" y="-7.5" font-family="Helvetica,sans-Serif" font-size="10.00" fill="#000000">AMReX_Interpolater.H</text>
</g>
<!-- Node17&#45;&gt;Node19 -->
<g id="edge21" class="edge">
<title>Node17&#45;&gt;Node19</title>
<path fill="none" stroke="#191970" d="M2061.5,-61.8906C2061.5,-53.3657 2061.5,-40.6392 2061.5,-29.9235"/>
<polygon fill="#191970" stroke="#191970" points="2065.0001,-29.7448 2061.5,-19.7449 2058.0001,-29.7449 2065.0001,-29.7448"/>
</g>
<!-- Node20&#45;&gt;Node7 -->
<g id="edge30" class="edge">
<title>Node20&#45;&gt;Node7</title>
<path fill="none" stroke="#191970" d="M1089.1834,-128.9717C1017.1475,-116.7838 892.5692,-95.7062 815.9619,-82.7448"/>
<polygon fill="#191970" stroke="#191970" points="816.3863,-79.267 805.9426,-81.0496 815.2185,-86.1689 816.3863,-79.267"/>
</g>
<!-- Node20&#45;&gt;Node14 -->
<g id="edge23" class="edge">
<title>Node20&#45;&gt;Node14</title>
<path fill="none" stroke="#191970" d="M1088.7221,-129.044C1062.0726,-121.8039 1031.9654,-109.1204 1012.5,-87 998.5468,-71.1436 994.4934,-46.6426 993.4856,-29.5503"/>
<polygon fill="#191970" stroke="#191970" points="996.9842,-29.4454 993.1897,-19.5533 989.9872,-29.6525 996.9842,-29.4454"/>
</g>
<!-- Node20&#45;&gt;Node15 -->
<g id="edge25" class="edge">
<title>Node20&#45;&gt;Node15</title>
<path fill="none" stroke="#191970" d="M1117.6527,-128.9117C1061.6755,-109.716 937.1432,-67.4261 893.5,-56 832.2524,-39.9649 760.6235,-26.5587 713.3363,-18.4315"/>
<polygon fill="#191970" stroke="#191970" points="713.7796,-14.9566 703.334,-16.7288 712.6048,-21.8574 713.7796,-14.9566"/>
</g>
<!-- Node20&#45;&gt;Node16 -->
<g id="edge31" class="edge">
<title>Node20&#45;&gt;Node16</title>
<path fill="none" stroke="#191970" d="M1177.8075,-128.9261C1210.4825,-119.0657 1262.3308,-102.9314 1306.5,-87 1341.2032,-74.4829 1348.0804,-66.3169 1383.5,-56 1437.5528,-40.2557 1499.8873,-28.6943 1548.4126,-21.1"/>
<polygon fill="#191970" stroke="#191970" points="1549.1988,-24.5203 1558.5499,-19.5396 1548.1338,-17.6018 1549.1988,-24.5203"/>
</g>
<!-- Node20&#45;&gt;Node18 -->
<g id="edge27" class="edge">
<title>Node20&#45;&gt;Node18</title>
<path fill="none" stroke="#191970" d="M1202.149,-133.7697C1278.455,-126.774 1418.2251,-111.7577 1535.5,-87 1578.383,-77.947 1695.7658,-42.0414 1758.2014,-22.6239"/>
<polygon fill="#191970" stroke="#191970" points="1759.589,-25.8576 1768.0955,-19.5418 1757.5071,-19.1744 1759.589,-25.8576"/>
</g>
<!-- Node21 -->
<g id="node22" class="node">
<title>Node21</title>
<polygon fill="#ffffff" stroke="#bfbfbf" points="369.5,-.5 369.5,-19.5 421.5,-19.5 421.5,-.5 369.5,-.5"/>
<text text-anchor="middle" x="395.5" y="-7.5" font-family="Helvetica,sans-Serif" font-size="10.00" fill="#000000">memory</text>
</g>
<!-- Node20&#45;&gt;Node21 -->
<g id="edge24" class="edge">
<title>Node20&#45;&gt;Node21</title>
<path fill="none" stroke="#191970" d="M1088.8374,-130.4135C1037.1891,-122.2245 959.1664,-107.791 893.5,-87 860.6738,-76.6067 855.7795,-64.835 822.5,-56 748.9223,-36.4667 521.0446,-18.8275 431.8365,-12.4888"/>
<polygon fill="#191970" stroke="#191970" points="431.8858,-8.9837 421.6646,-11.7724 431.3939,-15.9664 431.8858,-8.9837"/>
</g>
<!-- Node22 -->
<g id="node23" class="node">
<title>Node22</title>
<polygon fill="#ffffff" stroke="#bfbfbf" points="1021.5,-62 1021.5,-81 1077.5,-81 1077.5,-62 1021.5,-62"/>
<text text-anchor="middle" x="1049.5" y="-69" font-family="Helvetica,sans-Serif" font-size="10.00" fill="#000000">algorithm</text>
</g>
<!-- Node20&#45;&gt;Node22 -->
<g id="edge26" class="edge">
<title>Node20&#45;&gt;Node22</title>
<path fill="none" stroke="#191970" d="M1131.7455,-128.9005C1116.0623,-117.9549 1090.2017,-99.9064 1071.6642,-86.9688"/>
<polygon fill="#191970" stroke="#191970" points="1073.4324,-83.9347 1063.2289,-81.0817 1069.4262,-89.675 1073.4324,-83.9347"/>
</g>
<!-- Node23 -->
<g id="node24" class="node">
<title>Node23</title>
<polygon fill="#ffffff" stroke="#bfbfbf" points="1096,-62 1096,-81 1195,-81 1195,-62 1096,-62"/>
<text text-anchor="middle" x="1145.5" y="-69" font-family="Helvetica,sans-Serif" font-size="10.00" fill="#000000">AMReX_BCRec.H</text>
</g>
<!-- Node20&#45;&gt;Node23 -->
<g id="edge28" class="edge">
<title>Node20&#45;&gt;Node23</title>
<path fill="none" stroke="#191970" d="M1145.5,-128.9005C1145.5,-119.149 1145.5,-103.7597 1145.5,-91.3695"/>
<polygon fill="#191970" stroke="#191970" points="1149.0001,-91.0816 1145.5,-81.0817 1142.0001,-91.0817 1149.0001,-91.0816"/>
</g>
<!-- Node24 -->
<g id="node25" class="node">
<title>Node24</title>
<polygon fill="#ffffff" stroke="#bfbfbf" points="1213,-62 1213,-81 1298,-81 1298,-62 1213,-62"/>
<text text-anchor="middle" x="1255.5" y="-69" font-family="Helvetica,sans-Serif" font-size="10.00" fill="#000000">AMReX_Gpu.H</text>
</g>
<!-- Node20&#45;&gt;Node24 -->
<g id="edge29" class="edge">
<title>Node20&#45;&gt;Node24</title>
<path fill="none" stroke="#191970" d="M1161.2603,-128.9005C1179.4757,-117.8057 1209.673,-99.4128 1230.9677,-86.4424"/>
<polygon fill="#191970" stroke="#191970" points="1233.0491,-89.2728 1239.7689,-81.0817 1229.4077,-83.2945 1233.0491,-89.2728"/>
</g>
<!-- Node25 -->
<g id="node26" class="node">
<title>Node25</title>
<g id="a_node26"><a xlink:href="_view_field_8_h.html" target="_top" xlink:title="amr&#45;wind/core/ViewField.H">
<polygon fill="#ffffff" stroke="#000000" points="1392.5,-62 1392.5,-81 1526.5,-81 1526.5,-62 1392.5,-62"/>
<text text-anchor="middle" x="1459.5" y="-69" font-family="Helvetica,sans-Serif" font-size="10.00" fill="#000000">amr&#45;wind/core/ViewField.H</text>
</a>
</g>
</g>
<!-- Node20&#45;&gt;Node25 -->
<g id="edge32" class="edge">
<title>Node20&#45;&gt;Node25</title>
<path fill="none" stroke="#191970" d="M1190.1551,-128.9717C1246.6916,-116.9082 1344.0446,-96.1354 1404.9291,-83.1441"/>
<polygon fill="#191970" stroke="#191970" points="1405.6956,-86.5594 1414.745,-81.0496 1404.2348,-79.7135 1405.6956,-86.5594"/>
</g>
<!-- Node25&#45;&gt;Node14 -->
<g id="edge33" class="edge">
<title>Node25&#45;&gt;Node14</title>
<path fill="none" stroke="#191970" d="M1392.2373,-62.6231C1289.897,-49.1168 1099.1101,-23.9378 1024.5196,-14.0938"/>
<polygon fill="#191970" stroke="#191970" points="1024.754,-10.5945 1014.382,-12.7559 1023.838,-17.5343 1024.754,-10.5945"/>
</g>
<!-- Node25&#45;&gt;Node16 -->
<g id="edge34" class="edge">
<title>Node25&#45;&gt;Node16</title>
<path fill="none" stroke="#191970" d="M1486.2188,-61.8906C1515.3321,-51.42 1562.0692,-34.6111 1594.4247,-22.9745"/>
<polygon fill="#191970" stroke="#191970" points="1595.7435,-26.2197 1603.9689,-19.5419 1593.3744,-19.6328 1595.7435,-26.2197"/>
</g>
<!-- Node25&#45;&gt;Node18 -->
<g id="edge35" class="edge">
<title>Node25&#45;&gt;Node18</title>
<path fill="none" stroke="#191970" d="M1512.0968,-61.9581C1572.6467,-50.9734 1672.0023,-32.9487 1736.3257,-21.2794"/>
<polygon fill="#191970" stroke="#191970" points="1737.1225,-24.6921 1746.3371,-19.4632 1735.8729,-17.8045 1737.1225,-24.6921"/>
</g>
<!-- Node26 -->
<g id="node27" class="node">
<title>Node26</title>
<polygon fill="#ffffff" stroke="#bfbfbf" points="1412,-.5 1412,-19.5 1507,-19.5 1507,-.5 1412,-.5"/>
<text text-anchor="middle" x="1459.5" y="-7.5" font-family="Helvetica,sans-Serif" font-size="10.00" fill="#000000">AMReX_Vector.H</text>
</g>
<!-- Node25&#45;&gt;Node26 -->
<g id="edge36" class="edge">
<title>Node25&#45;&gt;Node26</title>
<path fill="none" stroke="#191970" d="M1459.5,-61.8906C1459.5,-53.3657 1459.5,-40.6392 1459.5,-29.9235"/>
<polygon fill="#191970" stroke="#191970" points="1463.0001,-29.7448 1459.5,-19.7449 1456.0001,-29.7449 1463.0001,-29.7448"/>
</g>
<!-- Node27&#45;&gt;Node5 -->
<g id="edge40" class="edge">
<title>Node27&#45;&gt;Node5</title>
<path fill="none" stroke="#191970" d="M1929.153,-128.9134C1981.9825,-119.1061 2065.6069,-103.0689 2137.5,-87 2142.4487,-85.8939 2147.6066,-84.6887 2152.7411,-83.4551"/>
<polygon fill="#191970" stroke="#191970" points="2153.6408,-86.8383 2162.5253,-81.0663 2151.9805,-80.0381 2153.6408,-86.8383"/>
</g>
<!-- Node27&#45;&gt;Node14 -->
<g id="edge38" class="edge">
<title>Node27&#45;&gt;Node14</title>
<path fill="none" stroke="#191970" d="M1870.6075,-128.8781C1858.9019,-110.7689 1830.7784,-72.0061 1795.5,-56 1724.3981,-23.7405 1164.0108,-12.7204 1024.7472,-10.4659"/>
<polygon fill="#191970" stroke="#191970" points="1024.4317,-6.9606 1014.3776,-10.3018 1024.3209,-13.9597 1024.4317,-6.9606"/>
</g>
<!-- Node27&#45;&gt;Node16 -->
<g id="edge39" class="edge">
<title>Node27&#45;&gt;Node16</title>
<path fill="none" stroke="#191970" d="M1885.0442,-128.9895C1898.9036,-112.3905 1922.965,-77.8233 1904.5,-56 1892.5916,-41.9258 1797.1821,-28.2557 1722.2541,-19.5268"/>
<polygon fill="#191970" stroke="#191970" points="1722.6295,-16.047 1712.295,-18.3814 1721.8296,-23.0012 1722.6295,-16.047"/>
</g>
<!-- Node28&#45;&gt;Node14 -->
<g id="edge42" class="edge">
<title>Node28&#45;&gt;Node14</title>
<path fill="none" stroke="#191970" d="M1545.9011,-128.9949C1503.195,-119.8192 1438.4463,-104.7324 1383.5,-87 1348.3914,-75.6697 1342.1102,-65.6385 1306.5,-56 1205.3931,-28.6339 1081.224,-16.5127 1024.4638,-12.11"/>
<polygon fill="#191970" stroke="#191970" points="1024.5871,-8.6095 1014.3536,-11.3529 1024.0643,-15.5899 1024.5871,-8.6095"/>
</g>
<!-- Node28&#45;&gt;Node16 -->
<g id="edge43" class="edge">
<title>Node28&#45;&gt;Node16</title>
<path fill="none" stroke="#191970" d="M1595.3562,-128.8416C1601.5732,-107.8184 1616.4356,-57.5598 1624.7028,-29.6038"/>
<polygon fill="#191970" stroke="#191970" points="1628.1311,-30.3525 1627.6107,-19.7705 1621.4185,-28.3674 1628.1311,-30.3525"/>
</g>
<!-- Node28&#45;&gt;Node18 -->
<g id="edge45" class="edge">
<title>Node28&#45;&gt;Node18</title>
<path fill="none" stroke="#191970" d="M1665.6081,-129.2357C1716.8547,-121.0971 1779.0259,-107.3454 1795.5,-87 1808.4143,-71.051 1806.9289,-46.5684 1803.6639,-29.5056"/>
<polygon fill="#191970" stroke="#191970" points="1807.0254,-28.5034 1801.3947,-19.5287 1800.1997,-30.0559 1807.0254,-28.5034"/>
</g>
<!-- Node28&#45;&gt;Node25 -->
<g id="edge44" class="edge">
<title>Node28&#45;&gt;Node25</title>
<path fill="none" stroke="#191970" d="M1573.4443,-128.9005C1551.0252,-117.6067 1513.5946,-98.7506 1487.7868,-85.7497"/>
<polygon fill="#191970" stroke="#191970" points="1489.0258,-82.4549 1478.5203,-81.0817 1485.8765,-88.7065 1489.0258,-82.4549"/>
</g>
<!-- Node28&#45;&gt;Node26 -->
<g id="edge46" class="edge">
<title>Node28&#45;&gt;Node26</title>
<path fill="none" stroke="#191970" d="M1587.6155,-128.8783C1578.9003,-112.4111 1559.3302,-78.4345 1535.5,-56 1522.0507,-43.3384 1504.5515,-32.4559 1489.7353,-24.4591"/>
<polygon fill="#191970" stroke="#191970" points="1490.9425,-21.1418 1480.456,-19.631 1487.7115,-27.3516 1490.9425,-21.1418"/>
</g>
<!-- Node29 -->
<g id="node30" class="node">
<title>Node29</title>
<polygon fill="#ffffff" stroke="#bfbfbf" points="1658.5,-62 1658.5,-81 1786.5,-81 1786.5,-62 1658.5,-62"/>
<text text-anchor="middle" x="1722.5" y="-69" font-family="Helvetica,sans-Serif" font-size="10.00" fill="#000000">AMReX_PhysBCFunct.H</text>
</g>
<!-- Node28&#45;&gt;Node29 -->
<g id="edge47" class="edge">
<title>Node28&#45;&gt;Node29</title>
<path fill="none" stroke="#191970" d="M1611.1258,-128.9005C1633.0393,-117.6067 1669.6256,-98.7506 1694.8513,-85.7497"/>
<polygon fill="#191970" stroke="#191970" points="1696.6232,-88.774 1703.9087,-81.0817 1693.4164,-82.5518 1696.6232,-88.774"/>
</g>
<!-- Node30&#45;&gt;Node7 -->
<g id="edge67" class="edge">
<title>Node30&#45;&gt;Node7</title>
<path fill="none" stroke="#191970" d="M375.2052,-124.4461C378.0045,-123.9458 380.7776,-123.4617 383.5,-123 390.6534,-121.787 570.4835,-96.5684 675.358,-81.8793"/>
<polygon fill="#191970" stroke="#191970" points="675.847,-85.345 685.2648,-80.4918 674.876,-78.4127 675.847,-85.345"/>
</g>
<!-- Node30&#45;&gt;Node14 -->
<g id="edge52" class="edge">
<title>Node30&#45;&gt;Node14</title>
<path fill="none" stroke="#191970" d="M350.1904,-123.4118C375.3151,-114.2225 406.8814,-101.4779 433.5,-87 454.5145,-75.5702 455.0396,-64.2328 477.5,-56 567.5412,-22.9955 865.6407,-13.0573 962.6779,-10.6586"/>
<polygon fill="#191970" stroke="#191970" points="962.8078,-14.1566 972.7217,-10.4199 962.6413,-7.1586 962.8078,-14.1566"/>
</g>
<!-- Node30&#45;&gt;Node16 -->
<g id="edge66" class="edge">
<title>Node30&#45;&gt;Node16</title>
<path fill="none" stroke="#191970" d="M370.9903,-123.4764C401.8547,-115.0224 438.5951,-102.9261 469.5,-87 489.8068,-76.5354 488.9753,-63.6528 510.5,-56 615.7821,-18.5683 1403.9714,-26.8421 1515.5,-20 1523.0949,-19.5341 1530.9666,-18.9864 1538.866,-18.3914"/>
<polygon fill="#191970" stroke="#191970" points="1539.1687,-21.8785 1548.8679,-17.6151 1538.627,-14.8995 1539.1687,-21.8785"/>
</g>
<!-- Node31 -->
<g id="node32" class="node">
<title>Node31</title>
<g id="a_node32"><a xlink:href="_factory_8_h.html" target="_top" xlink:title="amr&#45;wind/core/Factory.H">
<polygon fill="#ffffff" stroke="#000000" points="157,-62 157,-81 282,-81 282,-62 157,-62"/>
<text text-anchor="middle" x="219.5" y="-69" font-family="Helvetica,sans-Serif" font-size="10.00" fill="#000000">amr&#45;wind/core/Factory.H</text>
</a>
</g>
</g>
<!-- Node30&#45;&gt;Node31 -->
<g id="edge53" class="edge">
<title>Node30&#45;&gt;Node31</title>
<path fill="none" stroke="#191970" d="M285.9853,-123.2967C272.1958,-112.5537 253.7582,-98.1895 239.7972,-87.3129"/>
<polygon fill="#191970" stroke="#191970" points="241.8042,-84.4398 231.7646,-81.055 237.5022,-89.9618 241.8042,-84.4398"/>
</g>
<!-- Node35 -->
<g id="node36" class="node">
<title>Node35</title>
<g id="a_node36"><a xlink:href="_coll_mgr_8_h.html" target="_top" xlink:title="amr&#45;wind/core/CollMgr.H">
<polygon fill="#ffffff" stroke="#000000" points="300,-62 300,-81 425,-81 425,-62 300,-62"/>
<text text-anchor="middle" x="362.5" y="-69" font-family="Helvetica,sans-Serif" font-size="10.00" fill="#000000">amr&#45;wind/core/CollMgr.H</text>
</a>
</g>
</g>
<!-- Node30&#45;&gt;Node35 -->
<g id="edge59" class="edge">
<title>Node30&#45;&gt;Node35</title>
<path fill="none" stroke="#191970" d="M318.4342,-123.2967C327.1426,-113.0605 338.648,-99.5366 347.7186,-88.8746"/>
<polygon fill="#191970" stroke="#191970" points="350.5571,-90.9395 354.3711,-81.055 345.2255,-86.4036 350.5571,-90.9395"/>
</g>
<!-- Node36 -->
<g id="node37" class="node">
<title>Node36</title>
<g id="a_node37"><a xlink:href="_p_d_e_fields_8_h.html" target="_top" xlink:title="amr&#45;wind/equation_systems\l/PDEFields.H">
<polygon fill="#ffffff" stroke="#000000" points="0,-56.5 0,-86.5 139,-86.5 139,-56.5 0,-56.5"/>
<text text-anchor="start" x="8" y="-74.5" font-family="Helvetica,sans-Serif" font-size="10.00" fill="#000000">amr&#45;wind/equation_systems</text>
<text text-anchor="middle" x="69.5" y="-63.5" font-family="Helvetica,sans-Serif" font-size="10.00" fill="#000000">/PDEFields.H</text>
</a>
</g>
</g>
<!-- Node30&#45;&gt;Node36 -->
<g id="edge64" class="edge">
<title>Node30&#45;&gt;Node36</title>
<path fill="none" stroke="#191970" d="M252.537,-123.4639C216.9828,-113.3701 169.9726,-100.024 132.4972,-89.3848"/>
<polygon fill="#191970" stroke="#191970" points="133.2697,-85.9659 122.694,-86.6017 131.358,-92.6998 133.2697,-85.9659"/>
</g>
<!-- Node31&#45;&gt;Node15 -->
<g id="edge55" class="edge">
<title>Node31&#45;&gt;Node15</title>
<path fill="none" stroke="#191970" d="M260.2988,-61.9235C270.1526,-59.7963 280.6751,-57.6779 290.5,-56 403.7662,-36.6563 537.8084,-22.0672 609.7179,-14.9079"/>
<polygon fill="#191970" stroke="#191970" points="610.2591,-18.3716 619.8668,-13.9059 609.5713,-11.4055 610.2591,-18.3716"/>
</g>
<!-- Node31&#45;&gt;Node21 -->
<g id="edge54" class="edge">
<title>Node31&#45;&gt;Node21</title>
<path fill="none" stroke="#191970" d="M247,-61.8906C277.3151,-51.2976 326.196,-34.217 359.5322,-22.5683"/>
<polygon fill="#191970" stroke="#191970" points="361.0554,-25.7436 369.3411,-19.1408 358.7462,-19.1355 361.0554,-25.7436"/>
</g>
<!-- Node32 -->
<g id="node33" class="node">
<title>Node32</title>
<polygon fill="#ffffff" stroke="#bfbfbf" points="191.5,-.5 191.5,-19.5 245.5,-19.5 245.5,-.5 191.5,-.5"/>
<text text-anchor="middle" x="218.5" y="-7.5" font-family="Helvetica,sans-Serif" font-size="10.00" fill="#000000">iostream</text>
</g>
<!-- Node31&#45;&gt;Node32 -->
<g id="edge56" class="edge">
<title>Node31&#45;&gt;Node32</title>
<path fill="none" stroke="#191970" d="M219.3438,-61.8906C219.2051,-53.3657 218.9982,-40.6392 218.824,-29.9235"/>
<polygon fill="#191970" stroke="#191970" points="222.3207,-29.6866 218.6585,-19.7449 215.3216,-29.8005 222.3207,-29.6866"/>
</g>
<!-- Node33 -->
<g id="node34" class="node">
<title>Node33</title>
<polygon fill="#ffffff" stroke="#bfbfbf" points="264,-.5 264,-19.5 351,-19.5 351,-.5 264,-.5"/>
<text text-anchor="middle" x="307.5" y="-7.5" font-family="Helvetica,sans-Serif" font-size="10.00" fill="#000000">AMReX_Print.H</text>
</g>
<!-- Node31&#45;&gt;Node33 -->
<g id="edge57" class="edge">
<title>Node31&#45;&gt;Node33</title>
<path fill="none" stroke="#191970" d="M233.25,-61.8906C247.1991,-52.1421 269.0098,-36.8994 285.3897,-25.4521"/>
<polygon fill="#191970" stroke="#191970" points="287.6548,-28.1392 293.8466,-19.5419 283.6449,-22.4015 287.6548,-28.1392"/>
</g>
<!-- Node34 -->
<g id="node35" class="node">
<title>Node34</title>
<polygon fill="#ffffff" stroke="#bfbfbf" points="111.5,-.5 111.5,-19.5 173.5,-19.5 173.5,-.5 111.5,-.5"/>
<text text-anchor="middle" x="142.5" y="-7.5" font-family="Helvetica,sans-Serif" font-size="10.00" fill="#000000">AMReX.H</text>
</g>
<!-- Node31&#45;&gt;Node34 -->
<g id="edge58" class="edge">
<title>Node31&#45;&gt;Node34</title>
<path fill="none" stroke="#191970" d="M207.4688,-61.8906C195.4893,-52.3227 176.8834,-37.4621 162.6475,-26.0919"/>
<polygon fill="#191970" stroke="#191970" points="164.4447,-23.0479 154.4468,-19.5419 160.0761,-28.5175 164.4447,-23.0479"/>
</g>
<!-- Node35&#45;&gt;Node14 -->
<g id="edge60" class="edge">
<title>Node35&#45;&gt;Node14</title>
<path fill="none" stroke="#191970" d="M405.5167,-61.926C416.55,-59.7226 428.4289,-57.5686 439.5,-56 637.694,-27.9199 878.3885,-15.1455 962.6203,-11.3077"/>
<polygon fill="#191970" stroke="#191970" points="962.9442,-14.7968 972.7781,-10.854 962.6318,-7.8038 962.9442,-14.7968"/>
</g>
<!-- Node35&#45;&gt;Node15 -->
<g id="edge62" class="edge">
<title>Node35&#45;&gt;Node15</title>
<path fill="none" stroke="#191970" d="M408.8907,-61.9581C463.359,-50.7548 553.4304,-32.2284 610.0124,-20.5903"/>
<polygon fill="#191970" stroke="#191970" points="610.7373,-24.0145 619.827,-18.5715 609.3269,-17.1581 610.7373,-24.0145"/>
</g>
<!-- Node35&#45;&gt;Node21 -->
<g id="edge61" class="edge">
<title>Node35&#45;&gt;Node21</title>
<path fill="none" stroke="#191970" d="M367.6563,-61.8906C372.4232,-53.0068 379.6385,-39.5601 385.5297,-28.5811"/>
<polygon fill="#191970" stroke="#191970" points="388.6269,-30.2114 390.2711,-19.7449 382.4588,-26.9016 388.6269,-30.2114"/>
</g>
<!-- Node35&#45;&gt;Node26 -->
<g id="edge63" class="edge">
<title>Node35&#45;&gt;Node26</title>
<path fill="none" stroke="#191970" d="M425.057,-62.0607C442.0387,-59.7738 460.446,-57.5458 477.5,-56 827.6789,-24.2601 1250.2115,-13.8149 1401.8597,-10.9461"/>
<polygon fill="#191970" stroke="#191970" points="1401.9465,-14.4452 1411.8798,-10.7602 1401.8165,-7.4464 1401.9465,-14.4452"/>
</g>
<!-- Node37 -->
<g id="node38" class="node">
<title>Node37</title>
<polygon fill="#ffffff" stroke="#bfbfbf" points="47,-.5 47,-19.5 92,-19.5 92,-.5 47,-.5"/>
<text text-anchor="middle" x="69.5" y="-7.5" font-family="Helvetica,sans-Serif" font-size="10.00" fill="#000000">iosfwd</text>
</g>
<!-- Node36&#45;&gt;Node37 -->
<g id="edge65" class="edge">
<title>Node36&#45;&gt;Node37</title>
<path fill="none" stroke="#191970" d="M69.5,-56.2977C69.5,-48.3834 69.5,-38.6043 69.5,-30.0759"/>
<polygon fill="#191970" stroke="#191970" points="73.0001,-29.8469 69.5,-19.8469 66.0001,-29.847 73.0001,-29.8469"/>
</g>
<!-- Node38&#45;&gt;Node18 -->
<g id="edge71" class="edge">
<title>Node38&#45;&gt;Node18</title>
<path fill="none" stroke="#191970" d="M497.5592,-128.943C543.2985,-117.9368 614.0336,-99.7383 638.5,-87 657.8326,-76.9346 656.0965,-63.6655 676.5,-56 785.1538,-15.179 1604.8115,-29.3901 1720.5,-20 1725.5583,-19.5894 1730.7921,-19.0873 1736.0439,-18.5287"/>
<polygon fill="#191970" stroke="#191970" points="1736.5782,-21.9908 1746.1241,-17.3945 1735.7955,-15.0347 1736.5782,-21.9908"/>
</g>
<!-- Node38&#45;&gt;Node31 -->
<g id="edge69" class="edge">
<title>Node38&#45;&gt;Node31</title>
<path fill="none" stroke="#191970" d="M422.7954,-128.9717C380.8863,-117.124 309.2623,-96.8758 263.1813,-83.8487"/>
<polygon fill="#191970" stroke="#191970" points="264.0471,-80.4564 253.4721,-81.1039 262.1428,-87.1924 264.0471,-80.4564"/>
</g>
<!-- Node38&#45;&gt;Node35 -->
<g id="edge70" class="edge">
<title>Node38&#45;&gt;Node35</title>
<path fill="none" stroke="#191970" d="M443.0321,-128.9005C427.6756,-117.9549 402.3537,-99.9064 384.2024,-86.9688"/>
<polygon fill="#191970" stroke="#191970" points="386.1176,-84.0358 375.9429,-81.0817 382.0546,-89.736 386.1176,-84.0358"/>
</g>
<!-- Node39 -->
<g id="node40" class="node">
<title>Node39</title>
<polygon fill="#ffffff" stroke="#bfbfbf" points="519.5,-62 519.5,-81 629.5,-81 629.5,-62 519.5,-62"/>
<text text-anchor="middle" x="574.5" y="-69" font-family="Helvetica,sans-Serif" font-size="10.00" fill="#000000">AMReX_Geometry.H</text>
</g>
<!-- Node38&#45;&gt;Node39 -->
<g id="edge72" class="edge">
<title>Node38&#45;&gt;Node39</title>
<path fill="none" stroke="#191970" d="M473.4065,-128.9005C493.122,-117.7062 525.9222,-99.0823 548.7959,-86.0947"/>
<polygon fill="#191970" stroke="#191970" points="550.657,-89.0629 557.6248,-81.0817 547.2007,-82.9757 550.657,-89.0629"/>
</g>
<!-- Node41&#45;&gt;Node13 -->
<g id="edge78" class="edge">
<title>Node41&#45;&gt;Node13</title>
<path fill="none" stroke="#191970" d="M2070.4266,-316.7558C1970.6339,-292.3768 1741.9478,-236.5096 1641.4258,-211.9524"/>
<polygon fill="#191970" stroke="#191970" points="1642.0779,-208.5089 1631.5329,-209.5356 1640.4166,-215.3089 1642.0779,-208.5089"/>
</g>
<!-- Node42 -->
<g id="node43" class="node">
<title>Node42</title>
<polygon fill="#ffffff" stroke="#bfbfbf" points="2146.5,-252 2146.5,-271 2242.5,-271 2242.5,-252 2146.5,-252"/>
<text text-anchor="middle" x="2194.5" y="-259" font-family="Helvetica,sans-Serif" font-size="10.00" fill="#000000">AMReX_MLMG.H</text>
</g>
<!-- Node41&#45;&gt;Node42 -->
<g id="edge77" class="edge">
<title>Node41&#45;&gt;Node42</title>
<path fill="none" stroke="#191970" d="M2135.7456,-313.2967C2147.7017,-302.7564 2163.6119,-288.7303 2175.8604,-277.9323"/>
<polygon fill="#191970" stroke="#191970" points="2178.4748,-280.2934 2183.6615,-271.055 2173.8457,-275.0425 2178.4748,-280.2934"/>
</g>
</g>
</svg>
