<?xml version="1.0" encoding="UTF-8" standalone="no"?>
<!DOCTYPE svg PUBLIC "-//W3C//DTD SVG 1.1//EN"
 "http://www.w3.org/Graphics/SVG/1.1/DTD/svg11.dtd">
<!-- Generated by graphviz version 2.40.1 (20161225.0304)
 -->
<!-- Title: incflo_godunov_ppm.cpp Pages: 1 -->
<svg width="1627pt" height="341pt"
 viewBox="0.00 0.00 1626.59 341.00" xmlns="http://www.w3.org/2000/svg" xmlns:xlink="http://www.w3.org/1999/xlink">
<g id="graph0" class="graph" transform="scale(1 1) rotate(0) translate(4 337)">
<title>incflo_godunov_ppm.cpp</title>
<polygon fill="#ffffff" stroke="transparent" points="-4,4 -4,-337 1622.5904,-337 1622.5904,4 -4,4"/>
<!-- Node0 -->
<g id="node1" class="node">
<title>Node0</title>
<polygon fill="#bfbfbf" stroke="#000000" points="129,-313.5 129,-332.5 254,-332.5 254,-313.5 129,-313.5"/>
<text text-anchor="middle" x="191.5" y="-320.5" font-family="Helvetica,sans-Serif" font-size="10.00" fill="#000000">incflo_godunov_ppm.cpp</text>
</g>
<!-- Node1 -->
<g id="node2" class="node">
<title>Node1</title>
<g id="a_node2"><a xlink:href="incflo__godunov__ppm_8_h.html" target="_top" xlink:title="amr&#45;wind/convection\l/incflo_godunov_ppm.H">
<polygon fill="#ffffff" stroke="#000000" points="0,-118 0,-148 119,-148 119,-118 0,-118"/>
<text text-anchor="start" x="8" y="-136" font-family="Helvetica,sans-Serif" font-size="10.00" fill="#000000">amr&#45;wind/convection</text>
<text text-anchor="middle" x="59.5" y="-125" font-family="Helvetica,sans-Serif" font-size="10.00" fill="#000000">/incflo_godunov_ppm.H</text>
</a>
</g>
</g>
<!-- Node0&#45;&gt;Node1 -->
<g id="edge1" class="edge">
<title>Node0&#45;&gt;Node1</title>
<path fill="none" stroke="#191970" d="M184.7726,-313.3167C164.7118,-284.4413 104.8977,-198.3451 75.7823,-156.4367"/>
<polygon fill="#191970" stroke="#191970" points="78.6408,-154.4167 70.0608,-148.2011 72.892,-158.4107 78.6408,-154.4167"/>
</g>
<!-- Node4 -->
<g id="node5" class="node">
<title>Node4</title>
<g id="a_node5"><a xlink:href="incflo__godunov__ppm__nolim_8_h.html" target="_top" xlink:title="amr&#45;wind/convection\l/incflo_godunov_ppm\l_nolim.H">
<polygon fill="#ffffff" stroke="#000000" points="137,-112.5 137,-153.5 246,-153.5 246,-112.5 137,-112.5"/>
<text text-anchor="start" x="145" y="-141.5" font-family="Helvetica,sans-Serif" font-size="10.00" fill="#000000">amr&#45;wind/convection</text>
<text text-anchor="start" x="145" y="-130.5" font-family="Helvetica,sans-Serif" font-size="10.00" fill="#000000">/incflo_godunov_ppm</text>
<text text-anchor="middle" x="191.5" y="-119.5" font-family="Helvetica,sans-Serif" font-size="10.00" fill="#000000">_nolim.H</text>
</a>
</g>
</g>
<!-- Node0&#45;&gt;Node4 -->
<g id="edge4" class="edge">
<title>Node0&#45;&gt;Node4</title>
<path fill="none" stroke="#191970" d="M191.5,-313.3167C191.5,-286.0707 191.5,-207.8796 191.5,-163.9352"/>
<polygon fill="#191970" stroke="#191970" points="195.0001,-163.8114 191.5,-153.8114 188.0001,-163.8115 195.0001,-163.8114"/>
</g>
<!-- Node5 -->
<g id="node6" class="node">
<title>Node5</title>
<g id="a_node6"><a xlink:href="_godunov_8_h.html" target="_top" xlink:title="amr&#45;wind/convection\l/Godunov.H">
<polygon fill="#ffffff" stroke="#000000" points="505,-246.5 505,-276.5 612,-276.5 612,-246.5 505,-246.5"/>
<text text-anchor="start" x="513" y="-264.5" font-family="Helvetica,sans-Serif" font-size="10.00" fill="#000000">amr&#45;wind/convection</text>
<text text-anchor="middle" x="558.5" y="-253.5" font-family="Helvetica,sans-Serif" font-size="10.00" fill="#000000">/Godunov.H</text>
</a>
</g>
</g>
<!-- Node0&#45;&gt;Node5 -->
<g id="edge7" class="edge">
<title>Node0&#45;&gt;Node5</title>
<path fill="none" stroke="#191970" d="M248.4411,-313.4581C315.1254,-302.2835 425.2859,-283.8233 494.7677,-272.1799"/>
<polygon fill="#191970" stroke="#191970" points="495.4299,-275.6179 504.714,-270.5132 494.273,-268.7141 495.4299,-275.6179"/>
</g>
<!-- Node2 -->
<g id="node3" class="node">
<title>Node2</title>
<polygon fill="#ffffff" stroke="#bfbfbf" points="17,-56.5 17,-75.5 102,-75.5 102,-56.5 17,-56.5"/>
<text text-anchor="middle" x="59.5" y="-63.5" font-family="Helvetica,sans-Serif" font-size="10.00" fill="#000000">AMReX_Gpu.H</text>
</g>
<!-- Node1&#45;&gt;Node2 -->
<g id="edge2" class="edge">
<title>Node1&#45;&gt;Node2</title>
<path fill="none" stroke="#191970" d="M59.5,-117.7967C59.5,-108.2699 59.5,-95.8954 59.5,-85.6306"/>
<polygon fill="#191970" stroke="#191970" points="63.0001,-85.5549 59.5,-75.555 56.0001,-85.555 63.0001,-85.5549"/>
</g>
<!-- Node3 -->
<g id="node4" class="node">
<title>Node3</title>
<polygon fill="#ffffff" stroke="#bfbfbf" points="120,-56.5 120,-75.5 219,-75.5 219,-56.5 120,-56.5"/>
<text text-anchor="middle" x="169.5" y="-63.5" font-family="Helvetica,sans-Serif" font-size="10.00" fill="#000000">AMReX_BCRec.H</text>
</g>
<!-- Node1&#45;&gt;Node3 -->
<g id="edge3" class="edge">
<title>Node1&#45;&gt;Node3</title>
<path fill="none" stroke="#191970" d="M84.1861,-117.9639C102.3102,-106.9247 126.8209,-91.9954 144.92,-80.9715"/>
<polygon fill="#191970" stroke="#191970" points="147.0126,-83.7951 153.7324,-75.6039 143.3712,-77.8167 147.0126,-83.7951"/>
</g>
<!-- Node4&#45;&gt;Node2 -->
<g id="edge5" class="edge">
<title>Node4&#45;&gt;Node2</title>
<path fill="none" stroke="#191970" d="M150.8186,-112.3511C130.3053,-101.9391 105.946,-89.5748 87.5472,-80.2361"/>
<polygon fill="#191970" stroke="#191970" points="89.0223,-77.0598 78.5211,-75.6546 85.854,-83.3018 89.0223,-77.0598"/>
</g>
<!-- Node4&#45;&gt;Node3 -->
<g id="edge6" class="edge">
<title>Node4&#45;&gt;Node3</title>
<path fill="none" stroke="#191970" d="M184.6597,-112.168C181.8571,-103.6329 178.632,-93.8112 175.879,-85.4268"/>
<polygon fill="#191970" stroke="#191970" points="179.1566,-84.1895 172.7115,-75.7805 172.5059,-86.3733 179.1566,-84.1895"/>
</g>
<!-- Node6 -->
<g id="node7" class="node">
<title>Node6</title>
<g id="a_node7"><a xlink:href="_field_repo_8_h.html" target="_top" xlink:title="amr&#45;wind/core/FieldRepo.H">
<polygon fill="#ffffff" stroke="#000000" points="775.5,-190.5 775.5,-209.5 911.5,-209.5 911.5,-190.5 775.5,-190.5"/>
<text text-anchor="middle" x="843.5" y="-197.5" font-family="Helvetica,sans-Serif" font-size="10.00" fill="#000000">amr&#45;wind/core/FieldRepo.H</text>
</a>
</g>
</g>
<!-- Node5&#45;&gt;Node6 -->
<g id="edge8" class="edge">
<title>Node5&#45;&gt;Node6</title>
<path fill="none" stroke="#191970" d="M612.1063,-249.9323C662.7474,-239.0045 738.3267,-222.6953 789.1954,-211.7184"/>
<polygon fill="#191970" stroke="#191970" points="789.9883,-215.1279 799.025,-209.5972 788.5117,-208.2854 789.9883,-215.1279"/>
</g>
<!-- Node7 -->
<g id="node8" class="node">
<title>Node7</title>
<polygon fill="#ffffff" stroke="#bfbfbf" points="771,-.5 771,-19.5 812,-19.5 812,-.5 771,-.5"/>
<text text-anchor="middle" x="791.5" y="-7.5" font-family="Helvetica,sans-Serif" font-size="10.00" fill="#000000">string</text>
</g>
<!-- Node6&#45;&gt;Node7 -->
<g id="edge9" class="edge">
<title>Node6&#45;&gt;Node7</title>
<path fill="none" stroke="#191970" d="M793.7965,-190.476C773.3633,-183.8489 751.6734,-172.6954 739.5,-154 715.7334,-117.5002 721.6097,-95.7118 739.5,-56 745.0697,-43.6369 755.7863,-33.2563 766.0506,-25.5033"/>
<polygon fill="#191970" stroke="#191970" points="768.2618,-28.2277 774.4433,-19.623 764.2451,-22.4948 768.2618,-28.2277"/>
</g>
<!-- Node8 -->
<g id="node9" class="node">
<title>Node8</title>
<polygon fill="#ffffff" stroke="#bfbfbf" points="604,-56.5 604,-75.5 687,-75.5 687,-56.5 604,-56.5"/>
<text text-anchor="middle" x="645.5" y="-63.5" font-family="Helvetica,sans-Serif" font-size="10.00" fill="#000000">unordered_map</text>
</g>
<!-- Node6&#45;&gt;Node8 -->
<g id="edge10" class="edge">
<title>Node6&#45;&gt;Node8</title>
<path fill="none" stroke="#191970" d="M784.5763,-190.4556C757.1979,-183.7607 725.4768,-172.5575 701.5,-154 678.0858,-135.8779 661.7371,-105.0086 652.9795,-85.0667"/>
<polygon fill="#191970" stroke="#191970" points="656.1766,-83.6398 649.0946,-75.7598 649.7168,-86.3364 656.1766,-83.6398"/>
</g>
<!-- Node9 -->
<g id="node10" class="node">
<title>Node9</title>
<g id="a_node10"><a xlink:href="_field_desc_types_8_h.html" target="_top" xlink:title="amr&#45;wind/core/FieldDescTypes.H">
<polygon fill="#ffffff" stroke="#000000" points="907,-.5 907,-19.5 1070,-19.5 1070,-.5 907,-.5"/>
<text text-anchor="middle" x="988.5" y="-7.5" font-family="Helvetica,sans-Serif" font-size="10.00" fill="#000000">amr&#45;wind/core/FieldDescTypes.H</text>
</a>
</g>
</g>
<!-- Node6&#45;&gt;Node9 -->
<g id="edge11" class="edge">
<title>Node6&#45;&gt;Node9</title>
<path fill="none" stroke="#191970" d="M816.899,-190.397C800.9127,-183.0839 781.9002,-171.291 772.5,-154 763.5843,-137.6002 764.7866,-128.9985 772.5,-112 796.1654,-59.847 857.1558,-34.2792 908.3144,-21.7907"/>
<polygon fill="#191970" stroke="#191970" points="909.1159,-25.1978 918.0706,-19.5355 907.5393,-18.3777 909.1159,-25.1978"/>
</g>
<!-- Node10 -->
<g id="node11" class="node">
<title>Node10</title>
<g id="a_node11"><a xlink:href="_field_utils_8_h.html" target="_top" xlink:title="amr&#45;wind/core/FieldUtils.H">
<polygon fill="#ffffff" stroke="#000000" points="1472,-56.5 1472,-75.5 1605,-75.5 1605,-56.5 1472,-56.5"/>
<text text-anchor="middle" x="1538.5" y="-63.5" font-family="Helvetica,sans-Serif" font-size="10.00" fill="#000000">amr&#45;wind/core/FieldUtils.H</text>
</a>
</g>
</g>
<!-- Node6&#45;&gt;Node10 -->
<g id="edge12" class="edge">
<title>Node6&#45;&gt;Node10</title>
<path fill="none" stroke="#191970" d="M911.8494,-195.664C991.407,-189.7925 1126.4562,-177.266 1240.5,-154 1336.5349,-134.408 1446.3601,-98.2988 1502.0262,-78.9869"/>
<polygon fill="#191970" stroke="#191970" points="1503.4866,-82.1843 1511.7744,-75.5841 1501.1796,-75.5753 1503.4866,-82.1843"/>
</g>
<!-- Node11 -->
<g id="node12" class="node">
<title>Node11</title>
<polygon fill="#ffffff" stroke="#bfbfbf" points="1374.5,-.5 1374.5,-19.5 1478.5,-19.5 1478.5,-.5 1374.5,-.5"/>
<text text-anchor="middle" x="1426.5" y="-7.5" font-family="Helvetica,sans-Serif" font-size="10.00" fill="#000000">AMReX_MultiFab.H</text>
</g>
<!-- Node6&#45;&gt;Node11 -->
<g id="edge43" class="edge">
<title>Node6&#45;&gt;Node11</title>
<path fill="none" stroke="#191970" d="M911.5082,-197.347C1006.2801,-192.7995 1183.1408,-181.2211 1331.5,-154 1459.8255,-130.4547 1535.4464,-179.79 1614.5,-76 1619.886,-68.9287 1619.9879,-62.9925 1614.5,-56 1606.5261,-45.8398 1540.3179,-31.2914 1488.7011,-21.2906"/>
<polygon fill="#191970" stroke="#191970" points="1489.0739,-17.7984 1478.5939,-19.3537 1487.7564,-24.6733 1489.0739,-17.7984"/>
</g>
<!-- Node13 -->
<g id="node14" class="node">
<title>Node13</title>
<g id="a_node14"><a xlink:href="_field_8_h.html" target="_top" xlink:title="amr&#45;wind/core/Field.H">
<polygon fill="#ffffff" stroke="#000000" points="463,-123.5 463,-142.5 576,-142.5 576,-123.5 463,-123.5"/>
<text text-anchor="middle" x="519.5" y="-130.5" font-family="Helvetica,sans-Serif" font-size="10.00" fill="#000000">amr&#45;wind/core/Field.H</text>
</a>
</g>
</g>
<!-- Node6&#45;&gt;Node13 -->
<g id="edge16" class="edge">
<title>Node6&#45;&gt;Node13</title>
<path fill="none" stroke="#191970" d="M797.4228,-190.4717C739.0857,-178.4082 638.6323,-157.6354 575.8088,-144.6441"/>
<polygon fill="#191970" stroke="#191970" points="576.1819,-141.1473 565.6803,-142.5496 574.7643,-148.0022 576.1819,-141.1473"/>
</g>
<!-- Node19 -->
<g id="node20" class="node">
<title>Node19</title>
<g id="a_node20"><a xlink:href="_int_field_8_h.html" target="_top" xlink:title="amr&#45;wind/core/IntField.H">
<polygon fill="#ffffff" stroke="#000000" points="781.5,-123.5 781.5,-142.5 905.5,-142.5 905.5,-123.5 781.5,-123.5"/>
<text text-anchor="middle" x="843.5" y="-130.5" font-family="Helvetica,sans-Serif" font-size="10.00" fill="#000000">amr&#45;wind/core/IntField.H</text>
</a>
</g>
</g>
<!-- Node6&#45;&gt;Node19 -->
<g id="edge31" class="edge">
<title>Node6&#45;&gt;Node19</title>
<path fill="none" stroke="#191970" d="M843.5,-190.4005C843.5,-180.649 843.5,-165.2597 843.5,-152.8695"/>
<polygon fill="#191970" stroke="#191970" points="847.0001,-152.5816 843.5,-142.5817 840.0001,-152.5817 847.0001,-152.5816"/>
</g>
<!-- Node20 -->
<g id="node21" class="node">
<title>Node20</title>
<polygon fill="#ffffff" stroke="#bfbfbf" points="858,-56.5 858,-75.5 965,-75.5 965,-56.5 858,-56.5"/>
<text text-anchor="middle" x="911.5" y="-63.5" font-family="Helvetica,sans-Serif" font-size="10.00" fill="#000000">AMReX_iMultiFab.H</text>
</g>
<!-- Node6&#45;&gt;Node20 -->
<g id="edge44" class="edge">
<title>Node6&#45;&gt;Node20</title>
<path fill="none" stroke="#191970" d="M911.585,-192.8821C961.3221,-186.1132 1022.7136,-173.9436 1038.5,-154 1050.0854,-139.3636 1049.2187,-127.2825 1038.5,-112 1029.3263,-98.9204 993.9412,-86.7328 962.8449,-78.193"/>
<polygon fill="#191970" stroke="#191970" points="963.5022,-74.7461 952.9381,-75.552 961.6991,-81.5099 963.5022,-74.7461"/>
</g>
<!-- Node21 -->
<g id="node22" class="node">
<title>Node21</title>
<g id="a_node22"><a xlink:href="_scratch_field_8_h.html" target="_top" xlink:title="amr&#45;wind/core/ScratchField.H">
<polygon fill="#ffffff" stroke="#000000" points="1085.5,-123.5 1085.5,-142.5 1231.5,-142.5 1231.5,-123.5 1085.5,-123.5"/>
<text text-anchor="middle" x="1158.5" y="-130.5" font-family="Helvetica,sans-Serif" font-size="10.00" fill="#000000">amr&#45;wind/core/ScratchField.H</text>
</a>
</g>
</g>
<!-- Node6&#45;&gt;Node21 -->
<g id="edge35" class="edge">
<title>Node6&#45;&gt;Node21</title>
<path fill="none" stroke="#191970" d="M893.4287,-190.4897C939.6977,-181.543 1010.3905,-167.5348 1071.5,-154 1084.1885,-151.1897 1097.8728,-147.9741 1110.5477,-144.918"/>
<polygon fill="#191970" stroke="#191970" points="1111.566,-148.2725 1120.458,-142.5121 1109.9146,-141.4701 1111.566,-148.2725"/>
</g>
<!-- Node23 -->
<g id="node24" class="node">
<title>Node23</title>
<polygon fill="#ffffff" stroke="#bfbfbf" points="923.5,-123.5 923.5,-142.5 1029.5,-142.5 1029.5,-123.5 923.5,-123.5"/>
<text text-anchor="middle" x="976.5" y="-130.5" font-family="Helvetica,sans-Serif" font-size="10.00" fill="#000000">AMReX_AmrCore.H</text>
</g>
<!-- Node6&#45;&gt;Node23 -->
<g id="edge42" class="edge">
<title>Node6&#45;&gt;Node23</title>
<path fill="none" stroke="#191970" d="M862.5557,-190.4005C884.9748,-179.1067 922.4054,-160.2506 948.2132,-147.2497"/>
<polygon fill="#191970" stroke="#191970" points="950.1235,-150.2065 957.4797,-142.5817 946.9742,-143.9549 950.1235,-150.2065"/>
</g>
<!-- Node10&#45;&gt;Node9 -->
<g id="edge13" class="edge">
<title>Node10&#45;&gt;Node9</title>
<path fill="none" stroke="#191970" d="M1471.8833,-59.2172C1373.9831,-49.2492 1190.9187,-30.6099 1080.3299,-19.35"/>
<polygon fill="#191970" stroke="#191970" points="1080.4925,-15.8485 1070.1893,-18.3175 1079.7833,-22.8125 1080.4925,-15.8485"/>
</g>
<!-- Node10&#45;&gt;Node11 -->
<g id="edge14" class="edge">
<title>Node10&#45;&gt;Node11</title>
<path fill="none" stroke="#191970" d="M1519.2465,-56.3733C1501.4288,-47.4644 1474.7253,-34.1127 1454.5406,-24.0203"/>
<polygon fill="#191970" stroke="#191970" points="1456.0118,-20.8428 1445.5022,-19.5011 1452.8813,-27.1038 1456.0118,-20.8428"/>
</g>
<!-- Node12 -->
<g id="node13" class="node">
<title>Node12</title>
<polygon fill="#ffffff" stroke="#bfbfbf" points="1496.5,-.5 1496.5,-19.5 1612.5,-19.5 1612.5,-.5 1496.5,-.5"/>
<text text-anchor="middle" x="1554.5" y="-7.5" font-family="Helvetica,sans-Serif" font-size="10.00" fill="#000000">AMReX_Interpolater.H</text>
</g>
<!-- Node10&#45;&gt;Node12 -->
<g id="edge15" class="edge">
<title>Node10&#45;&gt;Node12</title>
<path fill="none" stroke="#191970" d="M1541.287,-56.2455C1543.3977,-48.8579 1546.366,-38.4689 1548.9547,-29.4087"/>
<polygon fill="#191970" stroke="#191970" points="1552.363,-30.2195 1551.745,-19.6427 1545.6323,-28.2964 1552.363,-30.2195"/>
</g>
<!-- Node13&#45;&gt;Node2 -->
<g id="edge23" class="edge">
<title>Node13&#45;&gt;Node2</title>
<path fill="none" stroke="#191970" d="M462.7813,-126.0997C385.6869,-116.4979 243.292,-97.975 112.2611,-76.2302"/>
<polygon fill="#191970" stroke="#191970" points="112.4847,-72.7191 102.0447,-74.5242 111.3317,-79.6235 112.4847,-72.7191"/>
</g>
<!-- Node13&#45;&gt;Node3 -->
<g id="edge22" class="edge">
<title>Node13&#45;&gt;Node3</title>
<path fill="none" stroke="#191970" d="M469.7252,-123.4717C406.3572,-111.3412 296.9868,-90.4046 229.2016,-77.4286"/>
<polygon fill="#191970" stroke="#191970" points="229.5828,-73.9381 219.1031,-75.4954 228.2667,-80.8133 229.5828,-73.9381"/>
</g>
<!-- Node13&#45;&gt;Node7 -->
<g id="edge17" class="edge">
<title>Node13&#45;&gt;Node7</title>
<path fill="none" stroke="#191970" d="M462.8847,-128.3242C395.9644,-121.4861 290.6143,-106.1516 266.5,-76 260.9481,-69.0582 260.4952,-62.554 266.5,-56 300.001,-19.4353 653.3017,-11.8109 760.7032,-10.3333"/>
<polygon fill="#191970" stroke="#191970" points="760.9218,-13.8309 770.8757,-10.2019 760.8313,-6.8315 760.9218,-13.8309"/>
</g>
<!-- Node13&#45;&gt;Node8 -->
<g id="edge19" class="edge">
<title>Node13&#45;&gt;Node8</title>
<path fill="none" stroke="#191970" d="M537.5527,-123.4005C558.6984,-112.1564 593.9404,-93.4166 618.3782,-80.4219"/>
<polygon fill="#191970" stroke="#191970" points="620.2947,-83.367 627.4808,-75.5817 617.0082,-77.1864 620.2947,-83.367"/>
</g>
<!-- Node13&#45;&gt;Node9 -->
<g id="edge25" class="edge">
<title>Node13&#45;&gt;Node9</title>
<path fill="none" stroke="#191970" d="M525.6553,-123.4074C537.1005,-106.4888 563.4311,-71.6585 595.5,-56 621.9243,-43.0976 788.8152,-26.876 896.4481,-17.5475"/>
<polygon fill="#191970" stroke="#191970" points="897.0099,-21.0121 906.6725,-16.6666 896.409,-14.038 897.0099,-21.0121"/>
</g>
<!-- Node13&#45;&gt;Node11 -->
<g id="edge21" class="edge">
<title>Node13&#45;&gt;Node11</title>
<path fill="none" stroke="#191970" d="M576.0839,-128.2966C739.4787,-114.7123 1200.5754,-76.36 1202.5,-76 1220.6294,-72.6092 1326.1677,-40.6905 1385.6886,-22.5142"/>
<polygon fill="#191970" stroke="#191970" points="1386.9907,-25.7761 1395.5308,-19.5058 1384.9445,-19.0818 1386.9907,-25.7761"/>
</g>
<!-- Node14 -->
<g id="node15" class="node">
<title>Node14</title>
<polygon fill="#ffffff" stroke="#bfbfbf" points="421.5,-56.5 421.5,-75.5 473.5,-75.5 473.5,-56.5 421.5,-56.5"/>
<text text-anchor="middle" x="447.5" y="-63.5" font-family="Helvetica,sans-Serif" font-size="10.00" fill="#000000">memory</text>
</g>
<!-- Node13&#45;&gt;Node14 -->
<g id="edge18" class="edge">
<title>Node13&#45;&gt;Node14</title>
<path fill="none" stroke="#191970" d="M509.1842,-123.4005C497.7425,-112.7535 479.0785,-95.3856 465.2727,-82.5385"/>
<polygon fill="#191970" stroke="#191970" points="467.5017,-79.8317 457.7967,-75.5817 462.7331,-84.9562 467.5017,-79.8317"/>
</g>
<!-- Node15 -->
<g id="node16" class="node">
<title>Node15</title>
<polygon fill="#ffffff" stroke="#bfbfbf" points="491.5,-56.5 491.5,-75.5 547.5,-75.5 547.5,-56.5 491.5,-56.5"/>
<text text-anchor="middle" x="519.5" y="-63.5" font-family="Helvetica,sans-Serif" font-size="10.00" fill="#000000">algorithm</text>
</g>
<!-- Node13&#45;&gt;Node15 -->
<g id="edge20" class="edge">
<title>Node13&#45;&gt;Node15</title>
<path fill="none" stroke="#191970" d="M519.5,-123.4005C519.5,-113.649 519.5,-98.2597 519.5,-85.8695"/>
<polygon fill="#191970" stroke="#191970" points="523.0001,-85.5816 519.5,-75.5817 516.0001,-85.5817 523.0001,-85.5816"/>
</g>
<!-- Node16 -->
<g id="node17" class="node">
<title>Node16</title>
<g id="a_node17"><a xlink:href="incflo__enums_8_h.html" target="_top" xlink:title="amr&#45;wind/incflo_enums.H">
<polygon fill="#ffffff" stroke="#000000" points="275.5,-56.5 275.5,-75.5 403.5,-75.5 403.5,-56.5 275.5,-56.5"/>
<text text-anchor="middle" x="339.5" y="-63.5" font-family="Helvetica,sans-Serif" font-size="10.00" fill="#000000">amr&#45;wind/incflo_enums.H</text>
</a>
</g>
</g>
<!-- Node13&#45;&gt;Node16 -->
<g id="edge24" class="edge">
<title>Node13&#45;&gt;Node16</title>
<path fill="none" stroke="#191970" d="M493.7104,-123.4005C462.5667,-111.8082 410.0185,-92.2486 375.0469,-79.2313"/>
<polygon fill="#191970" stroke="#191970" points="375.8346,-75.79 365.2418,-75.5817 373.3926,-82.3503 375.8346,-75.79"/>
</g>
<!-- Node17 -->
<g id="node18" class="node">
<title>Node17</title>
<g id="a_node18"><a xlink:href="_view_field_8_h.html" target="_top" xlink:title="amr&#45;wind/core/ViewField.H">
<polygon fill="#ffffff" stroke="#000000" points="1059.5,-56.5 1059.5,-75.5 1193.5,-75.5 1193.5,-56.5 1059.5,-56.5"/>
<text text-anchor="middle" x="1126.5" y="-63.5" font-family="Helvetica,sans-Serif" font-size="10.00" fill="#000000">amr&#45;wind/core/ViewField.H</text>
</a>
</g>
</g>
<!-- Node13&#45;&gt;Node17 -->
<g id="edge26" class="edge">
<title>Node13&#45;&gt;Node17</title>
<path fill="none" stroke="#191970" d="M576.06,-126.757C685.2699,-114.7025 925.3015,-88.2081 1049.1678,-74.5358"/>
<polygon fill="#191970" stroke="#191970" points="1049.7778,-77.9899 1059.3334,-73.4138 1049.0098,-71.0321 1049.7778,-77.9899"/>
</g>
<!-- Node17&#45;&gt;Node7 -->
<g id="edge27" class="edge">
<title>Node17&#45;&gt;Node7</title>
<path fill="none" stroke="#191970" d="M1069.2921,-56.4369C997.8391,-44.4925 878.183,-24.4903 822.1684,-15.1267"/>
<polygon fill="#191970" stroke="#191970" points="822.6013,-11.6505 812.1611,-13.4538 821.4471,-18.5547 822.6013,-11.6505"/>
</g>
<!-- Node17&#45;&gt;Node9 -->
<g id="edge28" class="edge">
<title>Node17&#45;&gt;Node9</title>
<path fill="none" stroke="#191970" d="M1102.777,-56.3733C1080.3263,-47.2629 1046.4261,-33.5062 1021.3745,-23.3404"/>
<polygon fill="#191970" stroke="#191970" points="1022.4957,-20.0182 1011.9135,-19.5011 1019.8635,-26.5045 1022.4957,-20.0182"/>
</g>
<!-- Node17&#45;&gt;Node11 -->
<g id="edge29" class="edge">
<title>Node17&#45;&gt;Node11</title>
<path fill="none" stroke="#191970" d="M1177.731,-56.4369C1229.7208,-46.7321 1310.2073,-31.708 1365.4681,-21.3926"/>
<polygon fill="#191970" stroke="#191970" points="1366.2924,-24.7993 1375.4803,-19.5237 1365.0079,-17.9182 1366.2924,-24.7993"/>
</g>
<!-- Node18 -->
<g id="node19" class="node">
<title>Node18</title>
<polygon fill="#ffffff" stroke="#bfbfbf" points="1122,-.5 1122,-19.5 1217,-19.5 1217,-.5 1122,-.5"/>
<text text-anchor="middle" x="1169.5" y="-7.5" font-family="Helvetica,sans-Serif" font-size="10.00" fill="#000000">AMReX_Vector.H</text>
</g>
<!-- Node17&#45;&gt;Node18 -->
<g id="edge30" class="edge">
<title>Node17&#45;&gt;Node18</title>
<path fill="none" stroke="#191970" d="M1133.99,-56.2455C1140.0326,-48.3761 1148.6903,-37.101 1155.9441,-27.6542"/>
<polygon fill="#191970" stroke="#191970" points="1158.7815,-29.7058 1162.0958,-19.6427 1153.2295,-25.4426 1158.7815,-29.7058"/>
</g>
<!-- Node19&#45;&gt;Node7 -->
<g id="edge32" class="edge">
<title>Node19&#45;&gt;Node7</title>
<path fill="none" stroke="#191970" d="M838.4221,-123.4654C832.5491,-112.2635 822.7589,-93.041 815.5,-76 808.8644,-60.4222 802.3653,-42.3229 797.8074,-29.0221"/>
<polygon fill="#191970" stroke="#191970" points="801.116,-27.8801 794.6027,-19.5238 794.4833,-30.1179 801.116,-27.8801"/>
</g>
<!-- Node19&#45;&gt;Node9 -->
<g id="edge33" class="edge">
<title>Node19&#45;&gt;Node9</title>
<path fill="none" stroke="#191970" d="M841.1508,-123.2809C837.9221,-107.3849 834.1207,-75.6336 849.5,-56 860.1285,-42.4314 898.5031,-30.3297 932.2447,-21.9485"/>
<polygon fill="#191970" stroke="#191970" points="933.1704,-25.3257 942.0703,-19.5774 931.5282,-18.521 933.1704,-25.3257"/>
</g>
<!-- Node19&#45;&gt;Node20 -->
<g id="edge34" class="edge">
<title>Node19&#45;&gt;Node20</title>
<path fill="none" stroke="#191970" d="M853.2427,-123.4005C863.9477,-112.853 881.347,-95.7096 894.3479,-82.8998"/>
<polygon fill="#191970" stroke="#191970" points="897.1085,-85.0933 901.7753,-75.5817 892.1956,-80.107 897.1085,-85.0933"/>
</g>
<!-- Node21&#45;&gt;Node7 -->
<g id="edge36" class="edge">
<title>Node21&#45;&gt;Node7</title>
<path fill="none" stroke="#191970" d="M1135.6975,-123.3504C1088.2547,-103.2883 982.632,-58.7066 974.5,-56 921.8803,-38.4865 858.8283,-24.0201 822.1519,-16.2294"/>
<polygon fill="#191970" stroke="#191970" points="822.6026,-12.7479 812.0971,-14.121 821.1659,-19.5989 822.6026,-12.7479"/>
</g>
<!-- Node21&#45;&gt;Node9 -->
<g id="edge37" class="edge">
<title>Node21&#45;&gt;Node9</title>
<path fill="none" stroke="#191970" d="M1135.2822,-123.451C1112.4809,-113.4711 1077.3128,-96.4311 1050.5,-76 1032.0674,-61.9546 1014.3058,-42.2016 1002.5538,-27.9707"/>
<polygon fill="#191970" stroke="#191970" points="1005.0644,-25.5085 996.0608,-19.924 999.6167,-29.9043 1005.0644,-25.5085"/>
</g>
<!-- Node21&#45;&gt;Node11 -->
<g id="edge39" class="edge">
<title>Node21&#45;&gt;Node11</title>
<path fill="none" stroke="#191970" d="M1231.8011,-127.2745C1301.8346,-120.1239 1400.2287,-105.1102 1424.5,-76 1435.0299,-63.3708 1434.3878,-44.174 1431.7874,-29.734"/>
<polygon fill="#191970" stroke="#191970" points="1435.1657,-28.8029 1429.5697,-19.8065 1428.3341,-30.3291 1435.1657,-28.8029"/>
</g>
<!-- Node21&#45;&gt;Node17 -->
<g id="edge38" class="edge">
<title>Node21&#45;&gt;Node17</title>
<path fill="none" stroke="#191970" d="M1153.9152,-123.4005C1149.1152,-113.3505 1141.4551,-97.3122 1135.4506,-84.7403"/>
<polygon fill="#191970" stroke="#191970" points="1138.5444,-83.0968 1131.0763,-75.5817 1132.2279,-86.1137 1138.5444,-83.0968"/>
</g>
<!-- Node21&#45;&gt;Node18 -->
<g id="edge40" class="edge">
<title>Node21&#45;&gt;Node18</title>
<path fill="none" stroke="#191970" d="M1169.2962,-123.3414C1180.0792,-112.9021 1195.9625,-95.1678 1202.5,-76 1208.3348,-58.8924 1197.7138,-40.594 1187.0036,-27.6141"/>
<polygon fill="#191970" stroke="#191970" points="1189.3986,-25.0416 1180.1248,-19.9185 1184.1796,-29.7067 1189.3986,-25.0416"/>
</g>
<!-- Node22 -->
<g id="node23" class="node">
<title>Node22</title>
<polygon fill="#ffffff" stroke="#bfbfbf" points="1287.5,-56.5 1287.5,-75.5 1415.5,-75.5 1415.5,-56.5 1287.5,-56.5"/>
<text text-anchor="middle" x="1351.5" y="-63.5" font-family="Helvetica,sans-Serif" font-size="10.00" fill="#000000">AMReX_PhysBCFunct.H</text>
</g>
<!-- Node21&#45;&gt;Node22 -->
<g id="edge41" class="edge">
<title>Node21&#45;&gt;Node22</title>
<path fill="none" stroke="#191970" d="M1186.1522,-123.4005C1219.8318,-111.7086 1276.8574,-91.9122 1314.3472,-78.8976"/>
<polygon fill="#191970" stroke="#191970" points="1315.6,-82.1677 1323.8991,-75.5817 1313.3043,-75.5548 1315.6,-82.1677"/>
</g>
</g>
</svg>
