<?xml version="1.0" encoding="UTF-8" standalone="no"?>
<!DOCTYPE svg PUBLIC "-//W3C//DTD SVG 1.1//EN"
 "http://www.w3.org/Graphics/SVG/1.1/DTD/svg11.dtd">
<!-- Generated by graphviz version 2.40.1 (20161225.0304)
 -->
<!-- Title: incflo_godunov_weno.cpp Pages: 1 -->
<svg width="1587pt" height="330pt"
 viewBox="0.00 0.00 1586.60 330.00" xmlns="http://www.w3.org/2000/svg" xmlns:xlink="http://www.w3.org/1999/xlink">
<g id="graph0" class="graph" transform="scale(1 1) rotate(0) translate(4 326)">
<title>incflo_godunov_weno.cpp</title>
<polygon fill="#ffffff" stroke="transparent" points="-4,4 -4,-326 1582.5991,-326 1582.5991,4 -4,4"/>
<!-- Node0 -->
<g id="node1" class="node">
<title>Node0</title>
<polygon fill="#bfbfbf" stroke="#000000" points="528,-302.5 528,-321.5 657,-321.5 657,-302.5 528,-302.5"/>
<text text-anchor="middle" x="592.5" y="-309.5" font-family="Helvetica,sans-Serif" font-size="10.00" fill="#000000">incflo_godunov_weno.cpp</text>
</g>
<!-- Node1 -->
<g id="node2" class="node">
<title>Node1</title>
<g id="a_node2"><a xlink:href="incflo__godunov__weno_8_h.html" target="_top" xlink:title="amr&#45;wind/convection\l/incflo_godunov_weno.H">
<polygon fill="#ffffff" stroke="#000000" points="248.5,-112.5 248.5,-142.5 372.5,-142.5 372.5,-112.5 248.5,-112.5"/>
<text text-anchor="start" x="256.5" y="-130.5" font-family="Helvetica,sans-Serif" font-size="10.00" fill="#000000">amr&#45;wind/convection</text>
<text text-anchor="middle" x="310.5" y="-119.5" font-family="Helvetica,sans-Serif" font-size="10.00" fill="#000000">/incflo_godunov_weno.H</text>
</a>
</g>
</g>
<!-- Node0&#45;&gt;Node1 -->
<g id="edge1" class="edge">
<title>Node0&#45;&gt;Node1</title>
<path fill="none" stroke="#191970" d="M577.7355,-302.3402C533.7733,-273.5778 403.0218,-188.0329 342.2309,-148.2601"/>
<polygon fill="#191970" stroke="#191970" points="344.0724,-145.2824 333.7881,-142.7363 340.24,-151.1401 344.0724,-145.2824"/>
</g>
<!-- Node4 -->
<g id="node5" class="node">
<title>Node4</title>
<g id="a_node5"><a xlink:href="_godunov_8_h.html" target="_top" xlink:title="amr&#45;wind/convection\l/Godunov.H">
<polygon fill="#ffffff" stroke="#000000" points="587,-235.5 587,-265.5 694,-265.5 694,-235.5 587,-235.5"/>
<text text-anchor="start" x="595" y="-253.5" font-family="Helvetica,sans-Serif" font-size="10.00" fill="#000000">amr&#45;wind/convection</text>
<text text-anchor="middle" x="640.5" y="-242.5" font-family="Helvetica,sans-Serif" font-size="10.00" fill="#000000">/Godunov.H</text>
</a>
</g>
</g>
<!-- Node0&#45;&gt;Node4 -->
<g id="edge4" class="edge">
<title>Node0&#45;&gt;Node4</title>
<path fill="none" stroke="#191970" d="M600,-302.3906C606.015,-294.6839 614.7101,-283.5434 622.5028,-273.5589"/>
<polygon fill="#191970" stroke="#191970" points="625.3642,-275.5812 628.7579,-265.5446 619.846,-271.2743 625.3642,-275.5812"/>
</g>
<!-- Node2 -->
<g id="node3" class="node">
<title>Node2</title>
<polygon fill="#ffffff" stroke="#bfbfbf" points="268,-56.5 268,-75.5 353,-75.5 353,-56.5 268,-56.5"/>
<text text-anchor="middle" x="310.5" y="-63.5" font-family="Helvetica,sans-Serif" font-size="10.00" fill="#000000">AMReX_Gpu.H</text>
</g>
<!-- Node1&#45;&gt;Node2 -->
<g id="edge2" class="edge">
<title>Node1&#45;&gt;Node2</title>
<path fill="none" stroke="#191970" d="M310.5,-112.2977C310.5,-104.3834 310.5,-94.6043 310.5,-86.0759"/>
<polygon fill="#191970" stroke="#191970" points="314.0001,-85.8469 310.5,-75.8469 307.0001,-85.847 314.0001,-85.8469"/>
</g>
<!-- Node3 -->
<g id="node4" class="node">
<title>Node3</title>
<polygon fill="#ffffff" stroke="#bfbfbf" points="151,-56.5 151,-75.5 250,-75.5 250,-56.5 151,-56.5"/>
<text text-anchor="middle" x="200.5" y="-63.5" font-family="Helvetica,sans-Serif" font-size="10.00" fill="#000000">AMReX_BCRec.H</text>
</g>
<!-- Node1&#45;&gt;Node3 -->
<g id="edge3" class="edge">
<title>Node1&#45;&gt;Node3</title>
<path fill="none" stroke="#191970" d="M283.591,-112.4554C266.2032,-102.734 243.6951,-90.15 226.4916,-80.5317"/>
<polygon fill="#191970" stroke="#191970" points="227.9826,-77.3554 217.5461,-75.5303 224.5665,-83.4653 227.9826,-77.3554"/>
</g>
<!-- Node5 -->
<g id="node6" class="node">
<title>Node5</title>
<g id="a_node6"><a xlink:href="_field_repo_8_h.html" target="_top" xlink:title="amr&#45;wind/core/FieldRepo.H">
<polygon fill="#ffffff" stroke="#000000" points="819.5,-179.5 819.5,-198.5 955.5,-198.5 955.5,-179.5 819.5,-179.5"/>
<text text-anchor="middle" x="887.5" y="-186.5" font-family="Helvetica,sans-Serif" font-size="10.00" fill="#000000">amr&#45;wind/core/FieldRepo.H</text>
</a>
</g>
</g>
<!-- Node4&#45;&gt;Node5 -->
<g id="edge5" class="edge">
<title>Node4&#45;&gt;Node5</title>
<path fill="none" stroke="#191970" d="M694.0953,-237.1554C737.3506,-226.3854 797.6649,-211.3679 839.3871,-200.9795"/>
<polygon fill="#191970" stroke="#191970" points="840.4502,-204.3218 849.3083,-198.5093 838.7589,-197.5292 840.4502,-204.3218"/>
</g>
<!-- Node6 -->
<g id="node7" class="node">
<title>Node6</title>
<polygon fill="#ffffff" stroke="#bfbfbf" points="1335,-.5 1335,-19.5 1376,-19.5 1376,-.5 1335,-.5"/>
<text text-anchor="middle" x="1355.5" y="-7.5" font-family="Helvetica,sans-Serif" font-size="10.00" fill="#000000">string</text>
</g>
<!-- Node5&#45;&gt;Node6 -->
<g id="edge6" class="edge">
<title>Node5&#45;&gt;Node6</title>
<path fill="none" stroke="#191970" d="M955.5939,-187.4737C1050.4341,-184.2412 1227.2373,-174.1899 1374.5,-143 1466.2097,-123.5761 1519.7439,-152.0902 1574.5,-76 1579.692,-68.7851 1580.1023,-62.9012 1574.5,-56 1551.143,-27.2272 1440.9705,-15.7921 1386.3512,-11.8331"/>
<polygon fill="#191970" stroke="#191970" points="1386.4262,-8.3301 1376.2103,-11.1381 1385.9475,-15.3137 1386.4262,-8.3301"/>
</g>
<!-- Node7 -->
<g id="node8" class="node">
<title>Node7</title>
<polygon fill="#ffffff" stroke="#bfbfbf" points="738,-56.5 738,-75.5 821,-75.5 821,-56.5 738,-56.5"/>
<text text-anchor="middle" x="779.5" y="-63.5" font-family="Helvetica,sans-Serif" font-size="10.00" fill="#000000">unordered_map</text>
</g>
<!-- Node5&#45;&gt;Node7 -->
<g id="edge7" class="edge">
<title>Node5&#45;&gt;Node7</title>
<path fill="none" stroke="#191970" d="M875.2586,-179.4535C864.2659,-170.5926 847.9841,-156.7365 835.5,-143 818.4003,-124.1849 801.6328,-100.1824 790.9713,-84.0182"/>
<polygon fill="#191970" stroke="#191970" points="793.8248,-81.9858 785.4431,-75.5052 787.954,-85.7982 793.8248,-81.9858"/>
</g>
<!-- Node8 -->
<g id="node9" class="node">
<title>Node8</title>
<g id="a_node9"><a xlink:href="_field_desc_types_8_h.html" target="_top" xlink:title="amr&#45;wind/core/FieldDescTypes.H">
<polygon fill="#ffffff" stroke="#000000" points="973,-.5 973,-19.5 1136,-19.5 1136,-.5 973,-.5"/>
<text text-anchor="middle" x="1054.5" y="-7.5" font-family="Helvetica,sans-Serif" font-size="10.00" fill="#000000">amr&#45;wind/core/FieldDescTypes.H</text>
</a>
</g>
</g>
<!-- Node5&#45;&gt;Node8 -->
<g id="edge8" class="edge">
<title>Node5&#45;&gt;Node8</title>
<path fill="none" stroke="#191970" d="M885.8043,-179.2442C882.2097,-155.1518 876.5089,-92.1736 907.5,-56 919.308,-42.2175 959.9219,-30.1182 995.4746,-21.792"/>
<polygon fill="#191970" stroke="#191970" points="996.3668,-25.1785 1005.34,-19.5454 994.8124,-18.3533 996.3668,-25.1785"/>
</g>
<!-- Node9 -->
<g id="node10" class="node">
<title>Node9</title>
<g id="a_node10"><a xlink:href="_field_utils_8_h.html" target="_top" xlink:title="amr&#45;wind/core/FieldUtils.H">
<polygon fill="#ffffff" stroke="#000000" points="0,-56.5 0,-75.5 133,-75.5 133,-56.5 0,-56.5"/>
<text text-anchor="middle" x="66.5" y="-63.5" font-family="Helvetica,sans-Serif" font-size="10.00" fill="#000000">amr&#45;wind/core/FieldUtils.H</text>
</a>
</g>
</g>
<!-- Node5&#45;&gt;Node9 -->
<g id="edge9" class="edge">
<title>Node5&#45;&gt;Node9</title>
<path fill="none" stroke="#191970" d="M819.4666,-187.1537C676.2224,-182.7802 347.826,-170.0626 239.5,-143 184.3439,-129.2206 124.7629,-98.9215 91.9034,-80.7088"/>
<polygon fill="#191970" stroke="#191970" points="93.416,-77.544 82.9835,-75.6961 89.9866,-83.6465 93.416,-77.544"/>
</g>
<!-- Node10 -->
<g id="node11" class="node">
<title>Node10</title>
<polygon fill="#ffffff" stroke="#bfbfbf" points="797.5,-.5 797.5,-19.5 901.5,-19.5 901.5,-.5 797.5,-.5"/>
<text text-anchor="middle" x="849.5" y="-7.5" font-family="Helvetica,sans-Serif" font-size="10.00" fill="#000000">AMReX_MultiFab.H</text>
</g>
<!-- Node5&#45;&gt;Node10 -->
<g id="edge40" class="edge">
<title>Node5&#45;&gt;Node10</title>
<path fill="none" stroke="#191970" d="M884.1598,-179.2211C881.0873,-169.9711 876.5573,-155.6586 873.5,-143 863.9031,-103.2652 856.2531,-56.0155 852.3448,-29.882"/>
<polygon fill="#191970" stroke="#191970" points="855.7745,-29.1469 850.8613,-19.7602 848.8485,-30.1621 855.7745,-29.1469"/>
</g>
<!-- Node12 -->
<g id="node13" class="node">
<title>Node12</title>
<g id="a_node13"><a xlink:href="_field_8_h.html" target="_top" xlink:title="amr&#45;wind/core/Field.H">
<polygon fill="#ffffff" stroke="#000000" points="561,-118 561,-137 674,-137 674,-118 561,-118"/>
<text text-anchor="middle" x="617.5" y="-125" font-family="Helvetica,sans-Serif" font-size="10.00" fill="#000000">amr&#45;wind/core/Field.H</text>
</a>
</g>
</g>
<!-- Node5&#45;&gt;Node12 -->
<g id="edge13" class="edge">
<title>Node5&#45;&gt;Node12</title>
<path fill="none" stroke="#191970" d="M845.6087,-179.4581C798.1174,-168.6406 720.6528,-150.9959 669.3785,-139.3168"/>
<polygon fill="#191970" stroke="#191970" points="670.0171,-135.8727 659.4895,-137.0643 668.4625,-142.6978 670.0171,-135.8727"/>
</g>
<!-- Node18 -->
<g id="node19" class="node">
<title>Node18</title>
<g id="a_node19"><a xlink:href="_int_field_8_h.html" target="_top" xlink:title="amr&#45;wind/core/IntField.H">
<polygon fill="#ffffff" stroke="#000000" points="1077.5,-118 1077.5,-137 1201.5,-137 1201.5,-118 1077.5,-118"/>
<text text-anchor="middle" x="1139.5" y="-125" font-family="Helvetica,sans-Serif" font-size="10.00" fill="#000000">amr&#45;wind/core/IntField.H</text>
</a>
</g>
</g>
<!-- Node5&#45;&gt;Node18 -->
<g id="edge28" class="edge">
<title>Node5&#45;&gt;Node18</title>
<path fill="none" stroke="#191970" d="M926.5985,-179.4581C970.739,-168.6857 1042.622,-151.1428 1090.4806,-139.4631"/>
<polygon fill="#191970" stroke="#191970" points="1091.4247,-142.8355 1100.3098,-137.0643 1089.765,-136.035 1091.4247,-142.8355"/>
</g>
<!-- Node19 -->
<g id="node20" class="node">
<title>Node19</title>
<polygon fill="#ffffff" stroke="#bfbfbf" points="916,-56.5 916,-75.5 1023,-75.5 1023,-56.5 916,-56.5"/>
<text text-anchor="middle" x="969.5" y="-63.5" font-family="Helvetica,sans-Serif" font-size="10.00" fill="#000000">AMReX_iMultiFab.H</text>
</g>
<!-- Node5&#45;&gt;Node19 -->
<g id="edge41" class="edge">
<title>Node5&#45;&gt;Node19</title>
<path fill="none" stroke="#191970" d="M893.9344,-179.3484C907.6464,-158.7804 939.9269,-110.3596 957.5341,-83.9489"/>
<polygon fill="#191970" stroke="#191970" points="960.4606,-85.8688 963.0955,-75.6068 954.6363,-81.9858 960.4606,-85.8688"/>
</g>
<!-- Node20 -->
<g id="node21" class="node">
<title>Node20</title>
<g id="a_node21"><a xlink:href="_scratch_field_8_h.html" target="_top" xlink:title="amr&#45;wind/core/ScratchField.H">
<polygon fill="#ffffff" stroke="#000000" points="1219.5,-118 1219.5,-137 1365.5,-137 1365.5,-118 1219.5,-118"/>
<text text-anchor="middle" x="1292.5" y="-125" font-family="Helvetica,sans-Serif" font-size="10.00" fill="#000000">amr&#45;wind/core/ScratchField.H</text>
</a>
</g>
</g>
<!-- Node5&#45;&gt;Node20 -->
<g id="edge32" class="edge">
<title>Node5&#45;&gt;Node20</title>
<path fill="none" stroke="#191970" d="M955.6926,-180.2022C1021.1592,-171.5404 1122.767,-157.5314 1210.5,-143 1218.1381,-141.7349 1226.1603,-140.3226 1234.0736,-138.8796"/>
<polygon fill="#191970" stroke="#191970" points="1234.8045,-142.3039 1244.0017,-137.0443 1233.532,-135.4205 1234.8045,-142.3039"/>
</g>
<!-- Node22 -->
<g id="node23" class="node">
<title>Node22</title>
<polygon fill="#ffffff" stroke="#bfbfbf" points="953.5,-118 953.5,-137 1059.5,-137 1059.5,-118 953.5,-118"/>
<text text-anchor="middle" x="1006.5" y="-125" font-family="Helvetica,sans-Serif" font-size="10.00" fill="#000000">AMReX_AmrCore.H</text>
</g>
<!-- Node5&#45;&gt;Node22 -->
<g id="edge39" class="edge">
<title>Node5&#45;&gt;Node22</title>
<path fill="none" stroke="#191970" d="M906.0938,-179.3906C925.6553,-169.2811 956.6501,-153.2628 979.0309,-141.6962"/>
<polygon fill="#191970" stroke="#191970" points="980.76,-144.7425 988.0368,-137.0419 977.5461,-138.5238 980.76,-144.7425"/>
</g>
<!-- Node9&#45;&gt;Node8 -->
<g id="edge10" class="edge">
<title>Node9&#45;&gt;Node8</title>
<path fill="none" stroke="#191970" d="M133.1231,-56.8153C135.9511,-56.5208 138.7525,-56.247 141.5,-56 482.2776,-25.3618 568.9244,-39.853 910.5,-20 927.3353,-19.0215 945.2699,-17.8665 962.5625,-16.6953"/>
<polygon fill="#191970" stroke="#191970" points="962.9188,-20.1792 972.6567,-16.0051 962.4412,-13.1955 962.9188,-20.1792"/>
</g>
<!-- Node9&#45;&gt;Node10 -->
<g id="edge11" class="edge">
<title>Node9&#45;&gt;Node10</title>
<path fill="none" stroke="#191970" d="M133.129,-56.8781C135.9554,-56.5664 138.7549,-56.2719 141.5,-56 379.6509,-32.414 664.1169,-18.1332 787.4257,-12.6187"/>
<polygon fill="#191970" stroke="#191970" points="787.6035,-16.1144 797.4385,-12.1744 787.2931,-9.1213 787.6035,-16.1144"/>
</g>
<!-- Node11 -->
<g id="node12" class="node">
<title>Node11</title>
<polygon fill="#ffffff" stroke="#bfbfbf" points="8.5,-.5 8.5,-19.5 124.5,-19.5 124.5,-.5 8.5,-.5"/>
<text text-anchor="middle" x="66.5" y="-7.5" font-family="Helvetica,sans-Serif" font-size="10.00" fill="#000000">AMReX_Interpolater.H</text>
</g>
<!-- Node9&#45;&gt;Node11 -->
<g id="edge12" class="edge">
<title>Node9&#45;&gt;Node11</title>
<path fill="none" stroke="#191970" d="M66.5,-56.2455C66.5,-48.9382 66.5,-38.6944 66.5,-29.7046"/>
<polygon fill="#191970" stroke="#191970" points="70.0001,-29.6426 66.5,-19.6427 63.0001,-29.6427 70.0001,-29.6426"/>
</g>
<!-- Node12&#45;&gt;Node2 -->
<g id="edge20" class="edge">
<title>Node12&#45;&gt;Node2</title>
<path fill="none" stroke="#191970" d="M569.8681,-117.9581C513.9424,-106.7548 421.4611,-88.2284 363.3652,-76.5903"/>
<polygon fill="#191970" stroke="#191970" points="363.7807,-73.104 353.288,-74.5715 362.4056,-79.9677 363.7807,-73.104"/>
</g>
<!-- Node12&#45;&gt;Node3 -->
<g id="edge19" class="edge">
<title>Node12&#45;&gt;Node3</title>
<path fill="none" stroke="#191970" d="M560.8434,-119.8761C492.106,-110.514 372.4326,-93.8544 260.2904,-76.2529"/>
<polygon fill="#191970" stroke="#191970" points="260.5817,-72.7557 250.1588,-74.6568 259.4923,-79.6704 260.5817,-72.7557"/>
</g>
<!-- Node12&#45;&gt;Node6 -->
<g id="edge14" class="edge">
<title>Node12&#45;&gt;Node6</title>
<path fill="none" stroke="#191970" d="M674.2185,-124.6525C821.0683,-117.0404 1206.0639,-95.474 1260.5,-76 1290.5626,-65.2454 1319.9252,-42.3937 1337.8627,-26.6182"/>
<polygon fill="#191970" stroke="#191970" points="1340.635,-28.83 1345.7036,-19.5263 1335.9394,-23.6385 1340.635,-28.83"/>
</g>
<!-- Node12&#45;&gt;Node7 -->
<g id="edge16" class="edge">
<title>Node12&#45;&gt;Node7</title>
<path fill="none" stroke="#191970" d="M642.8125,-117.8906C670.2747,-107.4652 714.2895,-90.7559 744.9263,-79.1252"/>
<polygon fill="#191970" stroke="#191970" points="746.2585,-82.3633 754.3652,-75.5419 743.774,-75.819 746.2585,-82.3633"/>
</g>
<!-- Node12&#45;&gt;Node8 -->
<g id="edge22" class="edge">
<title>Node12&#45;&gt;Node8</title>
<path fill="none" stroke="#191970" d="M630.9767,-117.767C655.7503,-100.0558 707.8756,-63.674 728.5,-56 770.176,-40.493 881.6199,-26.8431 962.627,-18.5213"/>
<polygon fill="#191970" stroke="#191970" points="963.2512,-21.976 972.8462,-17.4831 962.5436,-15.0119 963.2512,-21.976"/>
</g>
<!-- Node12&#45;&gt;Node10 -->
<g id="edge18" class="edge">
<title>Node12&#45;&gt;Node10</title>
<path fill="none" stroke="#191970" d="M594.6026,-117.8503C566.2758,-104.5866 524.1351,-79.6666 544.5,-56 560.1072,-37.8624 702.5955,-22.6284 787.185,-15.0849"/>
<polygon fill="#191970" stroke="#191970" points="787.5467,-18.5667 797.2014,-14.2034 786.933,-11.5936 787.5467,-18.5667"/>
</g>
<!-- Node13 -->
<g id="node14" class="node">
<title>Node13</title>
<polygon fill="#ffffff" stroke="#bfbfbf" points="371.5,-56.5 371.5,-75.5 423.5,-75.5 423.5,-56.5 371.5,-56.5"/>
<text text-anchor="middle" x="397.5" y="-63.5" font-family="Helvetica,sans-Serif" font-size="10.00" fill="#000000">memory</text>
</g>
<!-- Node12&#45;&gt;Node13 -->
<g id="edge15" class="edge">
<title>Node12&#45;&gt;Node13</title>
<path fill="none" stroke="#191970" d="M583.0432,-117.9833C547.8346,-108.2422 491.3213,-92.5612 433.5283,-76.2785"/>
<polygon fill="#191970" stroke="#191970" points="434.4424,-72.8998 423.8678,-73.5544 432.5426,-79.6371 434.4424,-72.8998"/>
</g>
<!-- Node14 -->
<g id="node15" class="node">
<title>Node14</title>
<polygon fill="#ffffff" stroke="#bfbfbf" points="441.5,-56.5 441.5,-75.5 497.5,-75.5 497.5,-56.5 441.5,-56.5"/>
<text text-anchor="middle" x="469.5" y="-63.5" font-family="Helvetica,sans-Serif" font-size="10.00" fill="#000000">algorithm</text>
</g>
<!-- Node12&#45;&gt;Node14 -->
<g id="edge17" class="edge">
<title>Node12&#45;&gt;Node14</title>
<path fill="none" stroke="#191970" d="M594.375,-117.8906C569.5033,-107.5554 529.7702,-91.0447 501.8156,-79.4284"/>
<polygon fill="#191970" stroke="#191970" points="503.0402,-76.1472 492.4626,-75.5419 500.354,-82.6113 503.0402,-76.1472"/>
</g>
<!-- Node15 -->
<g id="node16" class="node">
<title>Node15</title>
<g id="a_node16"><a xlink:href="incflo__enums_8_h.html" target="_top" xlink:title="amr&#45;wind/incflo_enums.H">
<polygon fill="#ffffff" stroke="#000000" points="553.5,-56.5 553.5,-75.5 681.5,-75.5 681.5,-56.5 553.5,-56.5"/>
<text text-anchor="middle" x="617.5" y="-63.5" font-family="Helvetica,sans-Serif" font-size="10.00" fill="#000000">amr&#45;wind/incflo_enums.H</text>
</a>
</g>
</g>
<!-- Node12&#45;&gt;Node15 -->
<g id="edge21" class="edge">
<title>Node12&#45;&gt;Node15</title>
<path fill="none" stroke="#191970" d="M617.5,-117.8906C617.5,-109.3657 617.5,-96.6392 617.5,-85.9235"/>
<polygon fill="#191970" stroke="#191970" points="621.0001,-85.7448 617.5,-75.7449 614.0001,-85.7449 621.0001,-85.7448"/>
</g>
<!-- Node16 -->
<g id="node17" class="node">
<title>Node16</title>
<g id="a_node17"><a xlink:href="_view_field_8_h.html" target="_top" xlink:title="amr&#45;wind/core/ViewField.H">
<polygon fill="#ffffff" stroke="#000000" points="1117.5,-56.5 1117.5,-75.5 1251.5,-75.5 1251.5,-56.5 1117.5,-56.5"/>
<text text-anchor="middle" x="1184.5" y="-63.5" font-family="Helvetica,sans-Serif" font-size="10.00" fill="#000000">amr&#45;wind/core/ViewField.H</text>
</a>
</g>
</g>
<!-- Node12&#45;&gt;Node16 -->
<g id="edge23" class="edge">
<title>Node12&#45;&gt;Node16</title>
<path fill="none" stroke="#191970" d="M674.2004,-121.35C776.431,-110.2614 991.7327,-86.9086 1107.2997,-74.3736"/>
<polygon fill="#191970" stroke="#191970" points="1107.9209,-77.8268 1117.4851,-73.2688 1107.166,-70.8676 1107.9209,-77.8268"/>
</g>
<!-- Node16&#45;&gt;Node6 -->
<g id="edge24" class="edge">
<title>Node16&#45;&gt;Node6</title>
<path fill="none" stroke="#191970" d="M1213.8959,-56.3733C1244.9156,-46.2148 1293.5751,-30.2795 1325.0042,-19.9869"/>
<polygon fill="#191970" stroke="#191970" points="1326.1447,-23.2964 1334.5588,-16.8579 1323.9661,-16.644 1326.1447,-23.2964"/>
</g>
<!-- Node16&#45;&gt;Node8 -->
<g id="edge25" class="edge">
<title>Node16&#45;&gt;Node8</title>
<path fill="none" stroke="#191970" d="M1162.1522,-56.3733C1141.0967,-47.3032 1109.3505,-33.6279 1085.7825,-23.4755"/>
<polygon fill="#191970" stroke="#191970" points="1087.125,-20.243 1076.5562,-19.5011 1084.3556,-26.6719 1087.125,-20.243"/>
</g>
<!-- Node16&#45;&gt;Node10 -->
<g id="edge26" class="edge">
<title>Node16&#45;&gt;Node10</title>
<path fill="none" stroke="#191970" d="M1127.2921,-56.4369C1067.2822,-46.4054 973.2724,-30.6903 911.5179,-20.3672"/>
<polygon fill="#191970" stroke="#191970" points="911.9559,-16.8919 901.5156,-18.6951 910.8017,-23.7961 911.9559,-16.8919"/>
</g>
<!-- Node17 -->
<g id="node18" class="node">
<title>Node17</title>
<polygon fill="#ffffff" stroke="#bfbfbf" points="1172,-.5 1172,-19.5 1267,-19.5 1267,-.5 1172,-.5"/>
<text text-anchor="middle" x="1219.5" y="-7.5" font-family="Helvetica,sans-Serif" font-size="10.00" fill="#000000">AMReX_Vector.H</text>
</g>
<!-- Node16&#45;&gt;Node17 -->
<g id="edge27" class="edge">
<title>Node16&#45;&gt;Node17</title>
<path fill="none" stroke="#191970" d="M1190.5965,-56.2455C1195.4145,-48.5367 1202.2751,-37.5598 1208.1032,-28.2348"/>
<polygon fill="#191970" stroke="#191970" points="1211.1413,-29.9777 1213.4733,-19.6427 1205.2053,-26.2677 1211.1413,-29.9777"/>
</g>
<!-- Node18&#45;&gt;Node6 -->
<g id="edge29" class="edge">
<title>Node18&#45;&gt;Node6</title>
<path fill="none" stroke="#191970" d="M1183.4912,-117.9507C1236.6833,-106.0599 1320.498,-86.0871 1331.5,-76 1344.5338,-64.0501 1350.5025,-44.4571 1353.2279,-29.7165"/>
<polygon fill="#191970" stroke="#191970" points="1356.7237,-30.0051 1354.7433,-19.597 1349.8009,-28.9684 1356.7237,-30.0051"/>
</g>
<!-- Node18&#45;&gt;Node8 -->
<g id="edge30" class="edge">
<title>Node18&#45;&gt;Node8</title>
<path fill="none" stroke="#191970" d="M1132.5441,-117.8845C1118.3484,-98.261 1085.8433,-53.3274 1067.5771,-28.0772"/>
<polygon fill="#191970" stroke="#191970" points="1070.249,-25.7992 1061.552,-19.7484 1064.5775,-29.9021 1070.249,-25.7992"/>
</g>
<!-- Node18&#45;&gt;Node19 -->
<g id="edge31" class="edge">
<title>Node18&#45;&gt;Node19</title>
<path fill="none" stroke="#191970" d="M1112.9375,-117.8906C1083.9944,-107.42 1037.5306,-90.6111 1005.3644,-78.9745"/>
<polygon fill="#191970" stroke="#191970" points="1006.4702,-75.6526 995.876,-75.5419 1004.0889,-82.2351 1006.4702,-75.6526"/>
</g>
<!-- Node20&#45;&gt;Node6 -->
<g id="edge33" class="edge">
<title>Node20&#45;&gt;Node6</title>
<path fill="none" stroke="#191970" d="M1365.578,-123.5289C1435.7141,-118.0082 1534.441,-105.1638 1558.5,-76 1564.1566,-69.1432 1564.0476,-62.9453 1558.5,-56 1537.2869,-29.4422 1437.6322,-17.0763 1386.2749,-12.3857"/>
<polygon fill="#191970" stroke="#191970" points="1386.3606,-8.88 1376.0945,-11.499 1385.7531,-15.8536 1386.3606,-8.88"/>
</g>
<!-- Node20&#45;&gt;Node8 -->
<g id="edge34" class="edge">
<title>Node20&#45;&gt;Node8</title>
<path fill="none" stroke="#191970" d="M1291.0252,-117.9748C1288.1069,-102.4947 1280.0918,-72.0006 1260.5,-56 1241.7531,-40.6895 1187.4991,-28.9312 1139.3755,-21.1359"/>
<polygon fill="#191970" stroke="#191970" points="1139.6378,-17.6341 1129.2145,-19.5328 1138.5468,-24.5486 1139.6378,-17.6341"/>
</g>
<!-- Node20&#45;&gt;Node10 -->
<g id="edge36" class="edge">
<title>Node20&#45;&gt;Node10</title>
<path fill="none" stroke="#191970" d="M1258.4941,-117.8904C1208.8958,-103.9332 1113.7656,-77.3849 1032.5,-56 987.1806,-44.0743 935.3679,-31.1131 898.4697,-21.9975"/>
<polygon fill="#191970" stroke="#191970" points="899.023,-18.5291 888.4758,-19.5324 897.3466,-25.3255 899.023,-18.5291"/>
</g>
<!-- Node20&#45;&gt;Node16 -->
<g id="edge35" class="edge">
<title>Node20&#45;&gt;Node16</title>
<path fill="none" stroke="#191970" d="M1275.625,-117.8906C1258.0302,-107.8713 1230.2434,-92.0483 1209.9759,-80.5071"/>
<polygon fill="#191970" stroke="#191970" points="1211.6783,-77.4489 1201.2565,-75.5419 1208.2144,-83.5318 1211.6783,-77.4489"/>
</g>
<!-- Node20&#45;&gt;Node17 -->
<g id="edge37" class="edge">
<title>Node20&#45;&gt;Node17</title>
<path fill="none" stroke="#191970" d="M1295.454,-117.9813C1299.3406,-103.5555 1304.477,-75.7485 1293.5,-56 1285.5422,-41.6832 1271.0771,-31.2479 1257.0334,-23.972"/>
<polygon fill="#191970" stroke="#191970" points="1258.4712,-20.7801 1247.9381,-19.6379 1255.4599,-27.0993 1258.4712,-20.7801"/>
</g>
<!-- Node21 -->
<g id="node22" class="node">
<title>Node21</title>
<polygon fill="#ffffff" stroke="#bfbfbf" points="1421.5,-56.5 1421.5,-75.5 1549.5,-75.5 1549.5,-56.5 1421.5,-56.5"/>
<text text-anchor="middle" x="1485.5" y="-63.5" font-family="Helvetica,sans-Serif" font-size="10.00" fill="#000000">AMReX_PhysBCFunct.H</text>
</g>
<!-- Node20&#45;&gt;Node21 -->
<g id="edge38" class="edge">
<title>Node20&#45;&gt;Node21</title>
<path fill="none" stroke="#191970" d="M1322.6563,-117.8906C1355.7985,-107.3298 1409.1762,-90.3208 1445.7242,-78.6747"/>
<polygon fill="#191970" stroke="#191970" points="1447.0902,-81.9129 1455.5555,-75.5419 1444.9649,-75.2433 1447.0902,-81.9129"/>
</g>
</g>
</svg>
