<?xml version="1.0" encoding="UTF-8" standalone="no"?>
<!DOCTYPE svg PUBLIC "-//W3C//DTD SVG 1.1//EN"
 "http://www.w3.org/Graphics/SVG/1.1/DTD/svg11.dtd">
<!-- Generated by graphviz version 2.40.1 (20161225.0304)
 -->
<!-- Title: Graphical Class Hierarchy Pages: 1 -->
<svg width="212pt" height="88pt"
 viewBox="0.00 0.00 212.00 88.00" xmlns="http://www.w3.org/2000/svg" xmlns:xlink="http://www.w3.org/1999/xlink">
<g id="graph0" class="graph" transform="scale(1 1) rotate(0) translate(4 84)">
<title>Graphical Class Hierarchy</title>
<polygon fill="#ffffff" stroke="transparent" points="-4,4 -4,-84 208,-84 208,4 -4,4"/>
<!-- Node111 -->
<g id="node1" class="node">
<title>Node111</title>
<polygon fill="#ffffff" stroke="#bfbfbf" points="0,-30 0,-49 53,-49 53,-30 0,-30"/>
<text text-anchor="middle" x="26.5" y="-37" font-family="Helvetica,sans-Serif" font-size="10.00" fill="#000000">Register</text>
</g>
<!-- Node0 -->
<g id="node2" class="node">
<title>Node0</title>
<g id="a_node2"><a xlink:href="classamr__wind_1_1field__norms_1_1_field_norms.html" target="_top" xlink:title="field norm objectA concrete impelementation of the post&#45;processing interface that deals with norms of...">
<polygon fill="#ffffff" stroke="#000000" points="89,-49.5 89,-79.5 204,-79.5 204,-49.5 89,-49.5"/>
<text text-anchor="start" x="97" y="-67.5" font-family="Helvetica,sans-Serif" font-size="10.00" fill="#000000">amr_wind::field_norms</text>
<text text-anchor="middle" x="146.5" y="-56.5" font-family="Helvetica,sans-Serif" font-size="10.00" fill="#000000">::FieldNorms</text>
</a>
</g>
</g>
<!-- Node111&#45;&gt;Node0 -->
<g id="edge1" class="edge">
<title>Node111&#45;&gt;Node0</title>
<path fill="none" stroke="#191970" d="M63.087,-47.1223C71.2836,-48.8299 80.1715,-50.6816 88.9878,-52.5183"/>
<polygon fill="#191970" stroke="#191970" points="63.6356,-43.6615 53.1319,-45.0483 62.2078,-50.5144 63.6356,-43.6615"/>
</g>
<!-- Node113 -->
<g id="node3" class="node">
<title>Node113</title>
<g id="a_node3"><a xlink:href="classamr__wind_1_1sampling_1_1_sampling.html" target="_top" xlink:title="Collection of data sampling objectsA concrete impelementation of the post&#45;processing interface that d...">
<polygon fill="#ffffff" stroke="#000000" points="94.5,-.5 94.5,-30.5 198.5,-30.5 198.5,-.5 94.5,-.5"/>
<text text-anchor="start" x="102.5" y="-18.5" font-family="Helvetica,sans-Serif" font-size="10.00" fill="#000000">amr_wind::sampling</text>
<text text-anchor="middle" x="146.5" y="-7.5" font-family="Helvetica,sans-Serif" font-size="10.00" fill="#000000">::Sampling</text>
</a>
</g>
</g>
<!-- Node111&#45;&gt;Node113 -->
<g id="edge2" class="edge">
<title>Node111&#45;&gt;Node113</title>
<path fill="none" stroke="#191970" d="M63.009,-32.1982C72.8916,-30.2217 83.7839,-28.0432 94.3462,-25.9308"/>
<polygon fill="#191970" stroke="#191970" points="62.2513,-28.7803 53.1319,-34.1736 63.6241,-35.6444 62.2513,-28.7803"/>
</g>
</g>
</svg>
