<?xml version="1.0" encoding="UTF-8" standalone="no"?>
<!DOCTYPE svg PUBLIC "-//W3C//DTD SVG 1.1//EN"
 "http://www.w3.org/Graphics/SVG/1.1/DTD/svg11.dtd">
<!-- Generated by graphviz version 2.40.1 (20161225.0304)
 -->
<!-- Title: Graphical Class Hierarchy Pages: 1 -->
<svg width="245pt" height="66pt"
 viewBox="0.00 0.00 245.00 66.00" xmlns="http://www.w3.org/2000/svg" xmlns:xlink="http://www.w3.org/1999/xlink">
<g id="graph0" class="graph" transform="scale(1 1) rotate(0) translate(4 62)">
<title>Graphical Class Hierarchy</title>
<polygon fill="#ffffff" stroke="transparent" points="-4,4 -4,-62 241,-62 241,4 -4,4"/>
<!-- Node81 -->
<g id="node1" class="node">
<title>Node81</title>
<polygon fill="#ffffff" stroke="#bfbfbf" points="0,-19.5 0,-38.5 53,-38.5 53,-19.5 0,-19.5"/>
<text text-anchor="middle" x="26.5" y="-26.5" font-family="Helvetica,sans-Serif" font-size="10.00" fill="#000000">Register</text>
</g>
<!-- Node0 -->
<g id="node2" class="node">
<title>Node0</title>
<g id="a_node2"><a xlink:href="classamr__wind_1_1udf_1_1_const_value.html" target="_top" xlink:title="amr_wind::udf::ConstValue">
<polygon fill="#ffffff" stroke="#000000" points="95.5,-38.5 95.5,-57.5 230.5,-57.5 230.5,-38.5 95.5,-38.5"/>
<text text-anchor="middle" x="163" y="-45.5" font-family="Helvetica,sans-Serif" font-size="10.00" fill="#000000">amr_wind::udf::ConstValue</text>
</a>
</g>
</g>
<!-- Node81&#45;&gt;Node0 -->
<g id="edge1" class="edge">
<title>Node81&#45;&gt;Node0</title>
<path fill="none" stroke="#191970" d="M63.0843,-34.0923C73.0761,-35.4831 84.2313,-37.0359 95.3647,-38.5856"/>
<polygon fill="#191970" stroke="#191970" points="63.5297,-30.6207 53.1426,-32.7085 62.5646,-37.5538 63.5297,-30.6207"/>
</g>
<!-- Node83 -->
<g id="node3" class="node">
<title>Node83</title>
<g id="a_node3"><a xlink:href="classamr__wind_1_1udf_1_1_u_d_f_impl.html" target="_top" xlink:title="amr_wind::udf::UDFImpl\&lt; T \&gt;">
<polygon fill="#ffffff" stroke="#000000" points="89,-.5 89,-19.5 237,-19.5 237,-.5 89,-.5"/>
<text text-anchor="middle" x="163" y="-7.5" font-family="Helvetica,sans-Serif" font-size="10.00" fill="#000000">amr_wind::udf::UDFImpl&lt; T &gt;</text>
</a>
</g>
</g>
<!-- Node81&#45;&gt;Node83 -->
<g id="edge2" class="edge">
<title>Node81&#45;&gt;Node83</title>
<path fill="none" stroke="#191970" d="M63.1949,-23.8923C72.9009,-22.5413 83.6987,-21.0383 94.5047,-19.5341"/>
<polygon fill="#191970" stroke="#191970" points="62.5646,-20.4462 53.1426,-25.2915 63.5297,-27.3793 62.5646,-20.4462"/>
</g>
</g>
</svg>
