<?xml version="1.0" encoding="UTF-8" standalone="no"?>
<!DOCTYPE svg PUBLIC "-//W3C//DTD SVG 1.1//EN"
 "http://www.w3.org/Graphics/SVG/1.1/DTD/svg11.dtd">
<!-- Generated by graphviz version 2.40.1 (20161225.0304)
 -->
<!-- Title: Graphical Class Hierarchy Pages: 1 -->
<svg width="243pt" height="508pt"
 viewBox="0.00 0.00 243.00 508.00" xmlns="http://www.w3.org/2000/svg" xmlns:xlink="http://www.w3.org/1999/xlink">
<g id="graph0" class="graph" transform="scale(1 1) rotate(0) translate(4 504)">
<title>Graphical Class Hierarchy</title>
<polygon fill="#ffffff" stroke="transparent" points="-4,4 -4,-504 239,-504 239,4 -4,4"/>
<!-- Node125 -->
<g id="node1" class="node">
<title>Node125</title>
<polygon fill="#ffffff" stroke="#bfbfbf" points="0,-228.5 0,-247.5 53,-247.5 53,-228.5 0,-228.5"/>
<text text-anchor="middle" x="26.5" y="-235.5" font-family="Helvetica,sans-Serif" font-size="10.00" fill="#000000">Register</text>
</g>
<!-- Node0 -->
<g id="node2" class="node">
<title>Node0</title>
<g id="a_node2"><a xlink:href="classamr__wind_1_1_a_b_l.html" target="_top" xlink:title="Atmospheric Boundary Layer physicsThis class implements the necessary code to simulation atmospheric ...">
<polygon fill="#ffffff" stroke="#000000" points="120.5,-480.5 120.5,-499.5 203.5,-499.5 203.5,-480.5 120.5,-480.5"/>
<text text-anchor="middle" x="162" y="-487.5" font-family="Helvetica,sans-Serif" font-size="10.00" fill="#000000">amr_wind::ABL</text>
</a>
</g>
</g>
<!-- Node125&#45;&gt;Node0 -->
<g id="edge1" class="edge">
<title>Node125&#45;&gt;Node0</title>
<path fill="none" stroke="#191970" d="M29.1758,-257.4284C36.4876,-307.7542 58.3255,-440.5531 89,-471 97.3651,-479.3031 108.871,-484.1164 120.2755,-486.8674"/>
<polygon fill="#191970" stroke="#191970" points="32.638,-256.9145 27.7685,-247.505 25.7074,-257.8974 32.638,-256.9145"/>
</g>
<!-- Node127 -->
<g id="node3" class="node">
<title>Node127</title>
<g id="a_node3"><a xlink:href="classamr__wind_1_1actuator_1_1_actuator.html" target="_top" xlink:title="Actuator line/disk modeling for wind turbines. ">
<polygon fill="#ffffff" stroke="#000000" points="112,-431 112,-461 212,-461 212,-431 112,-431"/>
<text text-anchor="start" x="120" y="-449" font-family="Helvetica,sans-Serif" font-size="10.00" fill="#000000">amr_wind::actuator</text>
<text text-anchor="middle" x="162" y="-438" font-family="Helvetica,sans-Serif" font-size="10.00" fill="#000000">::Actuator</text>
</a>
</g>
</g>
<!-- Node125&#45;&gt;Node127 -->
<g id="edge2" class="edge">
<title>Node125&#45;&gt;Node127</title>
<path fill="none" stroke="#191970" d="M27.7165,-257.9713C31.0473,-295.1587 43.4097,-375.3715 89,-421 95.344,-427.3493 103.3675,-432.0875 111.7569,-435.6231"/>
<polygon fill="#191970" stroke="#191970" points="31.1985,-257.6016 26.9459,-247.8976 24.2189,-258.1355 31.1985,-257.6016"/>
</g>
<!-- Node128 -->
<g id="node4" class="node">
<title>Node128</title>
<g id="a_node4"><a xlink:href="classamr__wind_1_1_boussinesq_bubble.html" target="_top" xlink:title="Boussinesq Bubble physics. ">
<polygon fill="#ffffff" stroke="#000000" points="89,-392.5 89,-411.5 235,-411.5 235,-392.5 89,-392.5"/>
<text text-anchor="middle" x="162" y="-399.5" font-family="Helvetica,sans-Serif" font-size="10.00" fill="#000000">amr_wind::BoussinesqBubble</text>
</a>
</g>
</g>
<!-- Node125&#45;&gt;Node128 -->
<g id="edge3" class="edge">
<title>Node125&#45;&gt;Node128</title>
<path fill="none" stroke="#191970" d="M29.4341,-257.9784C35.1212,-289.3791 50.6487,-350.0876 89,-383 93.4721,-386.8379 98.6276,-389.9136 104.0881,-392.3765"/>
<polygon fill="#191970" stroke="#191970" points="32.8427,-257.1376 27.76,-247.8416 25.9362,-258.2783 32.8427,-257.1376"/>
</g>
<!-- Node129 -->
<g id="node5" class="node">
<title>Node129</title>
<g id="a_node5"><a xlink:href="classamr__wind_1_1ctv_1_1_convecting_taylor_vortex.html" target="_top" xlink:title="Convecting Taylor Vortex physics. ">
<polygon fill="#ffffff" stroke="#000000" points="95,-343 95,-373 229,-373 229,-343 95,-343"/>
<text text-anchor="start" x="103" y="-361" font-family="Helvetica,sans-Serif" font-size="10.00" fill="#000000">amr_wind::ctv::Convecting</text>
<text text-anchor="middle" x="162" y="-350" font-family="Helvetica,sans-Serif" font-size="10.00" fill="#000000">TaylorVortex</text>
</a>
</g>
</g>
<!-- Node125&#45;&gt;Node129 -->
<g id="edge4" class="edge">
<title>Node125&#45;&gt;Node129</title>
<path fill="none" stroke="#191970" d="M34.3597,-256.917C44.1558,-278.2904 62.8523,-312.731 89,-333 93.9762,-336.8574 99.5858,-340.1411 105.4285,-342.9317"/>
<polygon fill="#191970" stroke="#191970" points="37.4929,-255.3468 30.2721,-247.5937 31.082,-258.1576 37.4929,-255.3468"/>
</g>
<!-- Node130 -->
<g id="node6" class="node">
<title>Node130</title>
<g id="a_node6"><a xlink:href="classamr__wind_1_1_dam_break.html" target="_top" xlink:title="amr_wind::DamBreak">
<polygon fill="#ffffff" stroke="#000000" points="106.5,-304.5 106.5,-323.5 217.5,-323.5 217.5,-304.5 106.5,-304.5"/>
<text text-anchor="middle" x="162" y="-311.5" font-family="Helvetica,sans-Serif" font-size="10.00" fill="#000000">amr_wind::DamBreak</text>
</a>
</g>
</g>
<!-- Node125&#45;&gt;Node130 -->
<g id="edge5" class="edge">
<title>Node125&#45;&gt;Node130</title>
<path fill="none" stroke="#191970" d="M41.1558,-255.2947C52.8687,-268.0548 70.363,-284.8907 89,-295 96.1371,-298.8714 104.0989,-301.982 112.0674,-304.4733"/>
<polygon fill="#191970" stroke="#191970" points="43.5938,-252.7687 34.3398,-247.6097 38.3568,-257.4135 43.5938,-252.7687"/>
</g>
<!-- Node131 -->
<g id="node7" class="node">
<title>Node131</title>
<g id="a_node7"><a xlink:href="classamr__wind_1_1_ekman_spiral.html" target="_top" xlink:title="Ekman Spiral physics. ">
<polygon fill="#ffffff" stroke="#000000" points="102,-266.5 102,-285.5 222,-285.5 222,-266.5 102,-266.5"/>
<text text-anchor="middle" x="162" y="-273.5" font-family="Helvetica,sans-Serif" font-size="10.00" fill="#000000">amr_wind::EkmanSpiral</text>
</a>
</g>
</g>
<!-- Node125&#45;&gt;Node131 -->
<g id="edge6" class="edge">
<title>Node125&#45;&gt;Node131</title>
<path fill="none" stroke="#191970" d="M62.9046,-249.3383C71.446,-251.9232 80.527,-254.6105 89,-257 100.3438,-260.1991 112.734,-263.4971 124.0328,-266.4292"/>
<polygon fill="#191970" stroke="#191970" points="63.7806,-245.9464 53.1945,-246.375 61.7374,-252.6416 63.7806,-245.9464"/>
</g>
<!-- Node132 -->
<g id="node8" class="node">
<title>Node132</title>
<g id="a_node8"><a xlink:href="classamr__wind_1_1_free_stream.html" target="_top" xlink:title="Freestream physicsInitializes the velocity, and density field to user&#45;defined constant values through...">
<polygon fill="#ffffff" stroke="#000000" points="104,-228.5 104,-247.5 220,-247.5 220,-228.5 104,-228.5"/>
<text text-anchor="middle" x="162" y="-235.5" font-family="Helvetica,sans-Serif" font-size="10.00" fill="#000000">amr_wind::FreeStream</text>
</a>
</g>
</g>
<!-- Node125&#45;&gt;Node132 -->
<g id="edge7" class="edge">
<title>Node125&#45;&gt;Node132</title>
<path fill="none" stroke="#191970" d="M63.3105,-238C75.8263,-238 90.1362,-238 103.9031,-238"/>
<polygon fill="#191970" stroke="#191970" points="63.2705,-234.5001 53.2704,-238 63.2704,-241.5001 63.2705,-234.5001"/>
</g>
<!-- Node133 -->
<g id="node9" class="node">
<title>Node133</title>
<g id="a_node9"><a xlink:href="classamr__wind_1_1mms_1_1_m_m_s.html" target="_top" xlink:title="Method of manufactured solutions physics. ">
<polygon fill="#ffffff" stroke="#000000" points="104,-190.5 104,-209.5 220,-209.5 220,-190.5 104,-190.5"/>
<text text-anchor="middle" x="162" y="-197.5" font-family="Helvetica,sans-Serif" font-size="10.00" fill="#000000">amr_wind::mms::MMS</text>
</a>
</g>
</g>
<!-- Node125&#45;&gt;Node133 -->
<g id="edge8" class="edge">
<title>Node125&#45;&gt;Node133</title>
<path fill="none" stroke="#191970" d="M62.9046,-226.6617C71.446,-224.0768 80.527,-221.3895 89,-219 100.3438,-215.8009 112.734,-212.5029 124.0328,-209.5708"/>
<polygon fill="#191970" stroke="#191970" points="61.7374,-223.3584 53.1945,-229.625 63.7806,-230.0536 61.7374,-223.3584"/>
</g>
<!-- Node134 -->
<g id="node10" class="node">
<title>Node134</title>
<g id="a_node10"><a xlink:href="classamr__wind_1_1_multi_phase.html" target="_top" xlink:title="amr_wind::MultiPhase">
<polygon fill="#ffffff" stroke="#000000" points="105.5,-152.5 105.5,-171.5 218.5,-171.5 218.5,-152.5 105.5,-152.5"/>
<text text-anchor="middle" x="162" y="-159.5" font-family="Helvetica,sans-Serif" font-size="10.00" fill="#000000">amr_wind::MultiPhase</text>
</a>
</g>
</g>
<!-- Node125&#45;&gt;Node134 -->
<g id="edge9" class="edge">
<title>Node125&#45;&gt;Node134</title>
<path fill="none" stroke="#191970" d="M41.1558,-220.7053C52.8687,-207.9452 70.363,-191.1093 89,-181 96.1371,-177.1286 104.0989,-174.018 112.0674,-171.5267"/>
<polygon fill="#191970" stroke="#191970" points="38.3568,-218.5865 34.3398,-228.3903 43.5938,-223.2313 38.3568,-218.5865"/>
</g>
<!-- Node135 -->
<g id="node11" class="node">
<title>Node135</title>
<g id="a_node11"><a xlink:href="classamr__wind_1_1_rayleigh_taylor.html" target="_top" xlink:title="Rayleigh Taylor physics. ">
<polygon fill="#ffffff" stroke="#000000" points="97,-114.5 97,-133.5 227,-133.5 227,-114.5 97,-114.5"/>
<text text-anchor="middle" x="162" y="-121.5" font-family="Helvetica,sans-Serif" font-size="10.00" fill="#000000">amr_wind::RayleighTaylor</text>
</a>
</g>
</g>
<!-- Node125&#45;&gt;Node135 -->
<g id="edge10" class="edge">
<title>Node125&#45;&gt;Node135</title>
<path fill="none" stroke="#191970" d="M34.0932,-218.7255C43.6414,-197.0196 62.1077,-162.2701 89,-143 94.429,-139.1098 100.5921,-136.0155 106.9813,-133.5544"/>
<polygon fill="#191970" stroke="#191970" points="30.7566,-217.6323 30.1245,-228.2083 37.2139,-220.3349 30.7566,-217.6323"/>
</g>
<!-- Node136 -->
<g id="node12" class="node">
<title>Node136</title>
<g id="a_node12"><a xlink:href="classamr__wind_1_1_taylor_green_vortex.html" target="_top" xlink:title="Taylor Green Vortex physics. ">
<polygon fill="#ffffff" stroke="#000000" points="89,-76.5 89,-95.5 235,-95.5 235,-76.5 89,-76.5"/>
<text text-anchor="middle" x="162" y="-83.5" font-family="Helvetica,sans-Serif" font-size="10.00" fill="#000000">amr_wind::TaylorGreenVortex</text>
</a>
</g>
</g>
<!-- Node125&#45;&gt;Node136 -->
<g id="edge11" class="edge">
<title>Node125&#45;&gt;Node136</title>
<path fill="none" stroke="#191970" d="M30.2178,-218.4148C36.7999,-189.2392 53.323,-134.6296 89,-105 93.6343,-101.1512 98.9601,-98.0722 104.5794,-95.6104"/>
<polygon fill="#191970" stroke="#191970" points="26.7829,-217.7415 28.1627,-228.2461 33.6348,-219.1739 26.7829,-217.7415"/>
</g>
<!-- Node137 -->
<g id="node13" class="node">
<title>Node137</title>
<g id="a_node13"><a xlink:href="classamr__wind_1_1_vortex_patch.html" target="_top" xlink:title="amr_wind::VortexPatch">
<polygon fill="#ffffff" stroke="#000000" points="102.5,-38.5 102.5,-57.5 221.5,-57.5 221.5,-38.5 102.5,-38.5"/>
<text text-anchor="middle" x="162" y="-45.5" font-family="Helvetica,sans-Serif" font-size="10.00" fill="#000000">amr_wind::VortexPatch</text>
</a>
</g>
</g>
<!-- Node125&#45;&gt;Node137 -->
<g id="edge12" class="edge">
<title>Node125&#45;&gt;Node137</title>
<path fill="none" stroke="#191970" d="M27.9342,-218.038C31.5993,-182.3272 44.4574,-107.4679 89,-67 93.2649,-63.1253 98.2202,-60.0212 103.5026,-57.5373"/>
<polygon fill="#191970" stroke="#191970" points="24.4334,-217.8941 27.0388,-228.1636 31.4062,-218.5108 24.4334,-217.8941"/>
</g>
<!-- Node138 -->
<g id="node14" class="node">
<title>Node138</title>
<g id="a_node14"><a xlink:href="classamr__wind_1_1_zalesak_disk.html" target="_top" xlink:title="amr_wind::ZalesakDisk">
<polygon fill="#ffffff" stroke="#000000" points="102.5,-.5 102.5,-19.5 221.5,-19.5 221.5,-.5 102.5,-.5"/>
<text text-anchor="middle" x="162" y="-7.5" font-family="Helvetica,sans-Serif" font-size="10.00" fill="#000000">amr_wind::ZalesakDisk</text>
</a>
</g>
</g>
<!-- Node125&#45;&gt;Node138 -->
<g id="edge13" class="edge">
<title>Node125&#45;&gt;Node138</title>
<path fill="none" stroke="#191970" d="M29.8401,-218.4338C38.1896,-171.7462 61.3012,-55.7204 89,-29 92.9586,-25.1813 97.5831,-22.1042 102.5486,-19.6281"/>
<polygon fill="#191970" stroke="#191970" points="26.3584,-218.0254 28.0815,-228.4792 33.2535,-219.2325 26.3584,-218.0254"/>
</g>
</g>
</svg>
