<?xml version="1.0" encoding="UTF-8" standalone="no"?>
<!DOCTYPE svg PUBLIC "-//W3C//DTD SVG 1.1//EN"
 "http://www.w3.org/Graphics/SVG/1.1/DTD/svg11.dtd">
<!-- Generated by graphviz version 2.40.1 (20161225.0304)
 -->
<!-- Title: Graphical Class Hierarchy Pages: 1 -->
<svg width="257pt" height="88pt"
 viewBox="0.00 0.00 257.00 88.00" xmlns="http://www.w3.org/2000/svg" xmlns:xlink="http://www.w3.org/1999/xlink">
<g id="graph0" class="graph" transform="scale(1 1) rotate(0) translate(4 84)">
<title>Graphical Class Hierarchy</title>
<polygon fill="#ffffff" stroke="transparent" points="-4,4 -4,-84 253,-84 253,4 -4,4"/>
<!-- Node0 -->
<g id="node1" class="node">
<title>Node0</title>
<g id="a_node1"><a xlink:href="classamr__wind_1_1transport_1_1_transport_model.html" target="_top" xlink:title="Abstract representation of a transport model. ">
<polygon fill="#ffffff" stroke="#000000" points="0,-24.5 0,-54.5 103,-54.5 103,-24.5 0,-24.5"/>
<text text-anchor="start" x="8" y="-42.5" font-family="Helvetica,sans-Serif" font-size="10.00" fill="#000000">amr_wind::transport</text>
<text text-anchor="middle" x="51.5" y="-31.5" font-family="Helvetica,sans-Serif" font-size="10.00" fill="#000000">::TransportModel</text>
</a>
</g>
</g>
<!-- Node1 -->
<g id="node2" class="node">
<title>Node1</title>
<g id="a_node2"><a xlink:href="classamr__wind_1_1transport_1_1_const_transport.html" target="_top" xlink:title="Fluid transport model with constant properties. ">
<polygon fill="#ffffff" stroke="#000000" points="142.5,-49.5 142.5,-79.5 245.5,-79.5 245.5,-49.5 142.5,-49.5"/>
<text text-anchor="start" x="150.5" y="-67.5" font-family="Helvetica,sans-Serif" font-size="10.00" fill="#000000">amr_wind::transport</text>
<text text-anchor="middle" x="194" y="-56.5" font-family="Helvetica,sans-Serif" font-size="10.00" fill="#000000">::ConstTransport</text>
</a>
</g>
</g>
<!-- Node0&#45;&gt;Node1 -->
<g id="edge1" class="edge">
<title>Node0&#45;&gt;Node1</title>
<path fill="none" stroke="#191970" d="M113.3443,-50.3499C123.0477,-52.0522 132.9881,-53.7962 142.4283,-55.4523"/>
<polygon fill="#191970" stroke="#191970" points="113.8033,-46.877 103.3489,-48.5963 112.5936,-53.7717 113.8033,-46.877"/>
</g>
<!-- Node2 -->
<g id="node3" class="node">
<title>Node2</title>
<g id="a_node3"><a xlink:href="classamr__wind_1_1transport_1_1_two_phase_transport.html" target="_top" xlink:title="Two&#45;phase fluid transport model with piece&#45;wise constant properties. ">
<polygon fill="#ffffff" stroke="#000000" points="139,-.5 139,-30.5 249,-30.5 249,-.5 139,-.5"/>
<text text-anchor="start" x="147" y="-18.5" font-family="Helvetica,sans-Serif" font-size="10.00" fill="#000000">amr_wind::transport</text>
<text text-anchor="middle" x="194" y="-7.5" font-family="Helvetica,sans-Serif" font-size="10.00" fill="#000000">::TwoPhaseTransport</text>
</a>
</g>
</g>
<!-- Node0&#45;&gt;Node2 -->
<g id="edge2" class="edge">
<title>Node0&#45;&gt;Node2</title>
<path fill="none" stroke="#191970" d="M113.4362,-29.0686C121.8029,-27.6595 130.3439,-26.221 138.587,-24.8327"/>
<polygon fill="#191970" stroke="#191970" points="112.6287,-25.6553 103.3489,-30.7676 113.7913,-32.558 112.6287,-25.6553"/>
</g>
</g>
</svg>
