<?xml version="1.0" encoding="UTF-8" standalone="no"?>
<!DOCTYPE svg PUBLIC "-//W3C//DTD SVG 1.1//EN"
 "http://www.w3.org/Graphics/SVG/1.1/DTD/svg11.dtd">
<!-- Generated by graphviz version 2.40.1 (20161225.0304)
 -->
<!-- Title: Graphical Class Hierarchy Pages: 1 -->
<svg width="199pt" height="88pt"
 viewBox="0.00 0.00 199.00 88.00" xmlns="http://www.w3.org/2000/svg" xmlns:xlink="http://www.w3.org/1999/xlink">
<g id="graph0" class="graph" transform="scale(1 1) rotate(0) translate(4 84)">
<title>Graphical Class Hierarchy</title>
<polygon fill="#ffffff" stroke="transparent" points="-4,4 -4,-84 195,-84 195,4 -4,4"/>
<!-- Node114 -->
<g id="node1" class="node">
<title>Node114</title>
<polygon fill="#ffffff" stroke="#bfbfbf" points="0,-30 0,-49 53,-49 53,-30 0,-30"/>
<text text-anchor="middle" x="26.5" y="-37" font-family="Helvetica,sans-Serif" font-size="10.00" fill="#000000">Register</text>
</g>
<!-- Node0 -->
<g id="node2" class="node">
<title>Node0</title>
<g id="a_node2"><a xlink:href="classamr__wind_1_1tagging_1_1_box_refiner.html" target="_top" xlink:title="AMR inside an arbitrarily oriented hexahedral boxThe hexahedral box is defined by three vectors xaxis...">
<polygon fill="#ffffff" stroke="#000000" points="89,-49.5 89,-79.5 191,-79.5 191,-49.5 89,-49.5"/>
<text text-anchor="start" x="97" y="-67.5" font-family="Helvetica,sans-Serif" font-size="10.00" fill="#000000">amr_wind::tagging::</text>
<text text-anchor="middle" x="140" y="-56.5" font-family="Helvetica,sans-Serif" font-size="10.00" fill="#000000">BoxRefiner</text>
</a>
</g>
</g>
<!-- Node114&#45;&gt;Node0 -->
<g id="edge1" class="edge">
<title>Node114&#45;&gt;Node0</title>
<path fill="none" stroke="#191970" d="M63.0276,-47.5457C71.1748,-49.3403 79.9616,-51.2757 88.5828,-53.1746"/>
<polygon fill="#191970" stroke="#191970" points="63.6295,-44.0945 53.1107,-45.3614 62.1237,-50.9306 63.6295,-44.0945"/>
</g>
<!-- Node116 -->
<g id="node3" class="node">
<title>Node116</title>
<g id="a_node3"><a xlink:href="classamr__wind_1_1tagging_1_1_cylinder_refiner.html" target="_top" xlink:title="Refine region inside a cylinderThe axis of the cylinder is defined by two vectors start and end that ...">
<polygon fill="#ffffff" stroke="#000000" points="89,-.5 89,-30.5 191,-30.5 191,-.5 89,-.5"/>
<text text-anchor="start" x="97" y="-18.5" font-family="Helvetica,sans-Serif" font-size="10.00" fill="#000000">amr_wind::tagging::</text>
<text text-anchor="middle" x="140" y="-7.5" font-family="Helvetica,sans-Serif" font-size="10.00" fill="#000000">CylinderRefiner</text>
</a>
</g>
</g>
<!-- Node114&#45;&gt;Node116 -->
<g id="edge2" class="edge">
<title>Node114&#45;&gt;Node116</title>
<path fill="none" stroke="#191970" d="M63.0276,-31.7761C71.1748,-30.0534 79.9616,-28.1953 88.5828,-26.3724"/>
<polygon fill="#191970" stroke="#191970" points="62.1703,-28.3799 53.1107,-33.8731 63.6185,-35.2285 62.1703,-28.3799"/>
</g>
</g>
</svg>
