<?xml version="1.0" encoding="UTF-8" standalone="no"?>
<!DOCTYPE svg PUBLIC "-//W3C//DTD SVG 1.1//EN"
 "http://www.w3.org/Graphics/SVG/1.1/DTD/svg11.dtd">
<!-- Generated by graphviz version 2.40.1 (20161225.0304)
 -->
<!-- Title: Graphical Class Hierarchy Pages: 1 -->
<svg width="260pt" height="61pt"
 viewBox="0.00 0.00 260.00 61.00" xmlns="http://www.w3.org/2000/svg" xmlns:xlink="http://www.w3.org/1999/xlink">
<g id="graph0" class="graph" transform="scale(1 1) rotate(0) translate(4 57)">
<title>Graphical Class Hierarchy</title>
<polygon fill="#ffffff" stroke="transparent" points="-4,4 -4,-57 256,-57 256,4 -4,4"/>
<!-- Node0 -->
<g id="node1" class="node">
<title>Node0</title>
<g id="a_node1"><a xlink:href="structamr__wind_1_1_factory.html" target="_top" xlink:title="amr_wind::Factory\&lt;\l GeometryType, const\l CFDSim &amp;, const std\l::string &amp;\&gt;">
<polygon fill="#ffffff" stroke="#000000" points="0,-.5 0,-52.5 114,-52.5 114,-.5 0,-.5"/>
<text text-anchor="start" x="8" y="-40.5" font-family="Helvetica,sans-Serif" font-size="10.00" fill="#000000">amr_wind::Factory&lt;</text>
<text text-anchor="start" x="8" y="-29.5" font-family="Helvetica,sans-Serif" font-size="10.00" fill="#000000"> GeometryType, const</text>
<text text-anchor="start" x="8" y="-18.5" font-family="Helvetica,sans-Serif" font-size="10.00" fill="#000000"> CFDSim &amp;, const std</text>
<text text-anchor="middle" x="57" y="-7.5" font-family="Helvetica,sans-Serif" font-size="10.00" fill="#000000">::string &amp;&gt;</text>
</a>
</g>
</g>
<!-- Node1 -->
<g id="node2" class="node">
<title>Node1</title>
<g id="a_node2"><a xlink:href="classamr__wind_1_1tagging_1_1_geometry_type.html" target="_top" xlink:title="Abstract definition of shapes for AMR. ">
<polygon fill="#ffffff" stroke="#000000" points="150,-11.5 150,-41.5 252,-41.5 252,-11.5 150,-11.5"/>
<text text-anchor="start" x="158" y="-29.5" font-family="Helvetica,sans-Serif" font-size="10.00" fill="#000000">amr_wind::tagging::</text>
<text text-anchor="middle" x="201" y="-18.5" font-family="Helvetica,sans-Serif" font-size="10.00" fill="#000000">GeometryType</text>
</a>
</g>
</g>
<!-- Node0&#45;&gt;Node1 -->
<g id="edge1" class="edge">
<title>Node0&#45;&gt;Node1</title>
<path fill="none" stroke="#191970" d="M124.3528,-26.5C132.9538,-26.5 141.6436,-26.5 149.9285,-26.5"/>
<polygon fill="#191970" stroke="#191970" points="124.3264,-23.0001 114.3264,-26.5 124.3263,-30.0001 124.3264,-23.0001"/>
</g>
</g>
</svg>
