<?xml version="1.0" encoding="UTF-8" standalone="no"?>
<!DOCTYPE svg PUBLIC "-//W3C//DTD SVG 1.1//EN"
 "http://www.w3.org/Graphics/SVG/1.1/DTD/svg11.dtd">
<!-- Generated by graphviz version 2.40.1 (20161225.0304)
 -->
<!-- Title: Graphical Class Hierarchy Pages: 1 -->
<svg width="259pt" height="88pt"
 viewBox="0.00 0.00 259.00 88.00" xmlns="http://www.w3.org/2000/svg" xmlns:xlink="http://www.w3.org/1999/xlink">
<g id="graph0" class="graph" transform="scale(1 1) rotate(0) translate(4 84)">
<title>Graphical Class Hierarchy</title>
<polygon fill="#ffffff" stroke="transparent" points="-4,4 -4,-84 255,-84 255,4 -4,4"/>
<!-- Node301 -->
<g id="node1" class="node">
<title>Node301</title>
<polygon fill="#ffffff" stroke="#bfbfbf" points="0,-30 0,-49 110,-49 110,-30 0,-30"/>
<text text-anchor="middle" x="55" y="-37" font-family="Helvetica,sans-Serif" font-size="10.00" fill="#000000">AmrParticleContainer</text>
</g>
<!-- Node0 -->
<g id="node2" class="node">
<title>Node0</title>
<g id="a_node2"><a xlink:href="classamr__wind_1_1actuator_1_1_actuator_container.html" target="_top" xlink:title="Specialization of AmrParticleContainer for sampling velocities. ">
<polygon fill="#ffffff" stroke="#000000" points="148,-49.5 148,-79.5 249,-79.5 249,-49.5 148,-49.5"/>
<text text-anchor="start" x="156" y="-67.5" font-family="Helvetica,sans-Serif" font-size="10.00" fill="#000000">amr_wind::actuator</text>
<text text-anchor="middle" x="198.5" y="-56.5" font-family="Helvetica,sans-Serif" font-size="10.00" fill="#000000">::ActuatorContainer</text>
</a>
</g>
</g>
<!-- Node301&#45;&gt;Node0 -->
<g id="edge1" class="edge">
<title>Node301&#45;&gt;Node0</title>
<path fill="none" stroke="#191970" d="M119.758,-50.7819C129.1503,-52.4182 138.7039,-54.0826 147.7669,-55.6615"/>
<polygon fill="#191970" stroke="#191970" points="120.1129,-47.2911 109.6606,-49.0227 118.9114,-54.1872 120.1129,-47.2911"/>
</g>
<!-- Node303 -->
<g id="node3" class="node">
<title>Node303</title>
<g id="a_node3"><a xlink:href="classamr__wind_1_1sampling_1_1_sampling_container.html" target="_top" xlink:title="Specialization of the AMReX ParticleContainer object for sampling dataRepresents the data probes as a...">
<polygon fill="#ffffff" stroke="#000000" points="146,-.5 146,-30.5 251,-30.5 251,-.5 146,-.5"/>
<text text-anchor="start" x="154" y="-18.5" font-family="Helvetica,sans-Serif" font-size="10.00" fill="#000000">amr_wind::sampling</text>
<text text-anchor="middle" x="198.5" y="-7.5" font-family="Helvetica,sans-Serif" font-size="10.00" fill="#000000">::SamplingContainer</text>
</a>
</g>
</g>
<!-- Node301&#45;&gt;Node303 -->
<g id="edge2" class="edge">
<title>Node301&#45;&gt;Node303</title>
<path fill="none" stroke="#191970" d="M120.0592,-28.619C128.6439,-27.1832 137.3575,-25.7259 145.7027,-24.3302"/>
<polygon fill="#191970" stroke="#191970" points="119.3561,-25.1879 110.0704,-30.2896 120.5108,-32.092 119.3561,-25.1879"/>
</g>
</g>
</svg>
