<?xml version="1.0" encoding="UTF-8" standalone="no"?>
<!DOCTYPE svg PUBLIC "-//W3C//DTD SVG 1.1//EN"
 "http://www.w3.org/Graphics/SVG/1.1/DTD/svg11.dtd">
<!-- Generated by graphviz version 2.40.1 (20161225.0304)
 -->
<!-- Title: Graphical Class Hierarchy Pages: 1 -->
<svg width="207pt" height="50pt"
 viewBox="0.00 0.00 207.00 50.00" xmlns="http://www.w3.org/2000/svg" xmlns:xlink="http://www.w3.org/1999/xlink">
<g id="graph0" class="graph" transform="scale(1 1) rotate(0) translate(4 46)">
<title>Graphical Class Hierarchy</title>
<polygon fill="#ffffff" stroke="transparent" points="-4,4 -4,-46 203,-46 203,4 -4,4"/>
<!-- Node95 -->
<g id="node1" class="node">
<title>Node95</title>
<polygon fill="#ffffff" stroke="#bfbfbf" points="0,-11.5 0,-30.5 53,-30.5 53,-11.5 0,-11.5"/>
<text text-anchor="middle" x="26.5" y="-18.5" font-family="Helvetica,sans-Serif" font-size="10.00" fill="#000000">Register</text>
</g>
<!-- Node0 -->
<g id="node2" class="node">
<title>Node0</title>
<g id="a_node2"><a xlink:href="classamr__wind_1_1actuator_1_1_act_model.html" target="_top" xlink:title="Concrete implementation of the ActuatorModel for different actuator types. ">
<polygon fill="#ffffff" stroke="#000000" points="89,-.5 89,-41.5 199,-41.5 199,-.5 89,-.5"/>
<text text-anchor="start" x="97" y="-29.5" font-family="Helvetica,sans-Serif" font-size="10.00" fill="#000000">amr_wind::actuator</text>
<text text-anchor="start" x="97" y="-18.5" font-family="Helvetica,sans-Serif" font-size="10.00" fill="#000000">::ActModel&lt; ActTrait,</text>
<text text-anchor="middle" x="144" y="-7.5" font-family="Helvetica,sans-Serif" font-size="10.00" fill="#000000"> SrcTrait &gt;</text>
</a>
</g>
</g>
<!-- Node95&#45;&gt;Node0 -->
<g id="edge1" class="edge">
<title>Node95&#45;&gt;Node0</title>
<path fill="none" stroke="#191970" d="M63.3114,-21C71.3597,-21 80.0496,-21 88.6423,-21"/>
<polygon fill="#191970" stroke="#191970" points="63.1626,-17.5001 53.1626,-21 63.1625,-24.5001 63.1626,-17.5001"/>
</g>
</g>
</svg>
