<?xml version="1.0" encoding="UTF-8" standalone="no"?>
<!DOCTYPE svg PUBLIC "-//W3C//DTD SVG 1.1//EN"
 "http://www.w3.org/Graphics/SVG/1.1/DTD/svg11.dtd">
<!-- Generated by graphviz version 2.40.1 (20161225.0304)
 -->
<!-- Title: Graphical Class Hierarchy Pages: 1 -->
<svg width="244pt" height="88pt"
 viewBox="0.00 0.00 244.00 88.00" xmlns="http://www.w3.org/2000/svg" xmlns:xlink="http://www.w3.org/1999/xlink">
<g id="graph0" class="graph" transform="scale(1 1) rotate(0) translate(4 84)">
<title>Graphical Class Hierarchy</title>
<polygon fill="#ffffff" stroke="transparent" points="-4,4 -4,-84 240,-84 240,4 -4,4"/>
<!-- Node0 -->
<g id="node1" class="node">
<title>Node0</title>
<g id="a_node1"><a xlink:href="structamr__wind_1_1actuator_1_1_wing_base_data.html" target="_top" xlink:title="Base data representation of a fixed&#45;wing. ">
<polygon fill="#ffffff" stroke="#000000" points="0,-24.5 0,-54.5 100,-54.5 100,-24.5 0,-24.5"/>
<text text-anchor="start" x="8" y="-42.5" font-family="Helvetica,sans-Serif" font-size="10.00" fill="#000000">amr_wind::actuator</text>
<text text-anchor="middle" x="50" y="-31.5" font-family="Helvetica,sans-Serif" font-size="10.00" fill="#000000">::WingBaseData</text>
</a>
</g>
</g>
<!-- Node1 -->
<g id="node2" class="node">
<title>Node1</title>
<g id="a_node2"><a xlink:href="structamr__wind_1_1actuator_1_1_fixed_wing_data.html" target="_top" xlink:title="amr_wind::actuator\l::FixedWingData">
<polygon fill="#ffffff" stroke="#000000" points="136,-49.5 136,-79.5 236,-79.5 236,-49.5 136,-49.5"/>
<text text-anchor="start" x="144" y="-67.5" font-family="Helvetica,sans-Serif" font-size="10.00" fill="#000000">amr_wind::actuator</text>
<text text-anchor="middle" x="186" y="-56.5" font-family="Helvetica,sans-Serif" font-size="10.00" fill="#000000">::FixedWingData</text>
</a>
</g>
</g>
<!-- Node0&#45;&gt;Node1 -->
<g id="edge1" class="edge">
<title>Node0&#45;&gt;Node1</title>
<path fill="none" stroke="#191970" d="M110.2308,-50.5718C118.8229,-52.1513 127.5826,-53.7615 135.9516,-55.2999"/>
<polygon fill="#191970" stroke="#191970" points="110.723,-47.1037 100.255,-48.738 109.4574,-53.9884 110.723,-47.1037"/>
</g>
<!-- Node2 -->
<g id="node3" class="node">
<title>Node2</title>
<g id="a_node3"><a xlink:href="structamr__wind_1_1actuator_1_1_flat_plate_data.html" target="_top" xlink:title="amr_wind::actuator\l::FlatPlateData">
<polygon fill="#ffffff" stroke="#000000" points="136,-.5 136,-30.5 236,-30.5 236,-.5 136,-.5"/>
<text text-anchor="start" x="144" y="-18.5" font-family="Helvetica,sans-Serif" font-size="10.00" fill="#000000">amr_wind::actuator</text>
<text text-anchor="middle" x="186" y="-7.5" font-family="Helvetica,sans-Serif" font-size="10.00" fill="#000000">::FlatPlateData</text>
</a>
</g>
</g>
<!-- Node0&#45;&gt;Node2 -->
<g id="edge2" class="edge">
<title>Node0&#45;&gt;Node2</title>
<path fill="none" stroke="#191970" d="M110.2308,-28.871C118.8229,-27.3548 127.5826,-25.809 135.9516,-24.3321"/>
<polygon fill="#191970" stroke="#191970" points="109.4945,-25.4468 100.255,-30.6315 110.7111,-32.3403 109.4945,-25.4468"/>
</g>
</g>
</svg>
