<?xml version="1.0" encoding="UTF-8" standalone="no"?>
<!DOCTYPE svg PUBLIC "-//W3C//DTD SVG 1.1//EN"
 "http://www.w3.org/Graphics/SVG/1.1/DTD/svg11.dtd">
<!-- Generated by graphviz version 2.40.1 (20161225.0304)
 -->
<!-- Title: Graphical Class Hierarchy Pages: 1 -->
<svg width="214pt" height="480pt"
 viewBox="0.00 0.00 214.00 480.00" xmlns="http://www.w3.org/2000/svg" xmlns:xlink="http://www.w3.org/1999/xlink">
<g id="graph0" class="graph" transform="scale(1 1) rotate(0) translate(4 476)">
<title>Graphical Class Hierarchy</title>
<polygon fill="#ffffff" stroke="transparent" points="-4,4 -4,-476 210,-476 210,4 -4,4"/>
<!-- Node84 -->
<g id="node1" class="node">
<title>Node84</title>
<polygon fill="#ffffff" stroke="#bfbfbf" points="0,-226 0,-245 53,-245 53,-226 0,-226"/>
<text text-anchor="middle" x="26.5" y="-233" font-family="Helvetica,sans-Serif" font-size="10.00" fill="#000000">Register</text>
</g>
<!-- Node0 -->
<g id="node2" class="node">
<title>Node0</title>
<g id="a_node2"><a xlink:href="classamr__wind_1_1pde_1_1icns_1_1_a_b_l_forcing.html" target="_top" xlink:title="Forcing term to drive the ABL profile to a desired state. ">
<polygon fill="#ffffff" stroke="#000000" points="95.5,-441.5 95.5,-471.5 199.5,-471.5 199.5,-441.5 95.5,-441.5"/>
<text text-anchor="start" x="103.5" y="-459.5" font-family="Helvetica,sans-Serif" font-size="10.00" fill="#000000">amr_wind::pde::icns</text>
<text text-anchor="middle" x="147.5" y="-448.5" font-family="Helvetica,sans-Serif" font-size="10.00" fill="#000000">::ABLForcing</text>
</a>
</g>
</g>
<!-- Node84&#45;&gt;Node0 -->
<g id="edge1" class="edge">
<title>Node84&#45;&gt;Node0</title>
<path fill="none" stroke="#191970" d="M27.39,-255.0944C30.1726,-293.8747 41.6519,-381.0957 89,-432.5 92.1237,-435.8913 95.797,-438.8158 99.7556,-441.3354"/>
<polygon fill="#191970" stroke="#191970" points="30.8836,-254.8809 26.7941,-245.1071 23.896,-255.2979 30.8836,-254.8809"/>
</g>
<!-- Node86 -->
<g id="node3" class="node">
<title>Node86</title>
<g id="a_node3"><a xlink:href="classamr__wind_1_1pde_1_1icns_1_1_a_b_l_mean_boussinesq.html" target="_top" xlink:title="Boussinesq bouyancy source term. ">
<polygon fill="#ffffff" stroke="#000000" points="89.5,-392.5 89.5,-422.5 205.5,-422.5 205.5,-392.5 89.5,-392.5"/>
<text text-anchor="start" x="97.5" y="-410.5" font-family="Helvetica,sans-Serif" font-size="10.00" fill="#000000">amr_wind::pde::icns</text>
<text text-anchor="middle" x="147.5" y="-399.5" font-family="Helvetica,sans-Serif" font-size="10.00" fill="#000000">::ABLMeanBoussinesq</text>
</a>
</g>
</g>
<!-- Node84&#45;&gt;Node86 -->
<g id="edge2" class="edge">
<title>Node84&#45;&gt;Node86</title>
<path fill="none" stroke="#191970" d="M29.8582,-255.2857C36.1316,-286.4983 52.4539,-347.3271 89,-383.5 92.4329,-386.8979 96.414,-389.8368 100.6533,-392.374"/>
<polygon fill="#191970" stroke="#191970" points="33.2564,-254.4159 27.9827,-245.2269 26.375,-255.699 33.2564,-254.4159"/>
</g>
<!-- Node87 -->
<g id="node4" class="node">
<title>Node87</title>
<g id="a_node4"><a xlink:href="classamr__wind_1_1pde_1_1icns_1_1_actuator_forcing.html" target="_top" xlink:title="Body forces introduced by turbines modeled as actuators in flow field. ">
<polygon fill="#ffffff" stroke="#000000" points="95.5,-343.5 95.5,-373.5 199.5,-373.5 199.5,-343.5 95.5,-343.5"/>
<text text-anchor="start" x="103.5" y="-361.5" font-family="Helvetica,sans-Serif" font-size="10.00" fill="#000000">amr_wind::pde::icns</text>
<text text-anchor="middle" x="147.5" y="-350.5" font-family="Helvetica,sans-Serif" font-size="10.00" fill="#000000">::ActuatorForcing</text>
</a>
</g>
</g>
<!-- Node84&#45;&gt;Node87 -->
<g id="edge3" class="edge">
<title>Node84&#45;&gt;Node87</title>
<path fill="none" stroke="#191970" d="M34.0991,-254.2973C43.8368,-276.2542 62.662,-312.3835 89,-334.5 93.0353,-337.8885 97.614,-340.8501 102.3905,-343.4257"/>
<polygon fill="#191970" stroke="#191970" points="37.2978,-252.8755 30.1626,-245.0436 30.8564,-255.6157 37.2978,-252.8755"/>
</g>
<!-- Node88 -->
<g id="node5" class="node">
<title>Node88</title>
<g id="a_node5"><a xlink:href="classamr__wind_1_1pde_1_1icns_1_1_body_force.html" target="_top" xlink:title="Apply a user&#45;defined body force as a source termThe implementation can apply either a constant source...">
<polygon fill="#ffffff" stroke="#000000" points="95.5,-294.5 95.5,-324.5 199.5,-324.5 199.5,-294.5 95.5,-294.5"/>
<text text-anchor="start" x="103.5" y="-312.5" font-family="Helvetica,sans-Serif" font-size="10.00" fill="#000000">amr_wind::pde::icns</text>
<text text-anchor="middle" x="147.5" y="-301.5" font-family="Helvetica,sans-Serif" font-size="10.00" fill="#000000">::BodyForce</text>
</a>
</g>
</g>
<!-- Node84&#45;&gt;Node88 -->
<g id="edge4" class="edge">
<title>Node84&#45;&gt;Node88</title>
<path fill="none" stroke="#191970" d="M44.3876,-252.1026C56.3677,-262.6244 72.8487,-275.9926 89,-285.5 94.487,-288.7299 100.4906,-291.7282 106.495,-294.434"/>
<polygon fill="#191970" stroke="#191970" points="46.6515,-249.4316 36.8721,-245.3555 41.9751,-254.6404 46.6515,-249.4316"/>
</g>
<!-- Node89 -->
<g id="node6" class="node">
<title>Node89</title>
<g id="a_node6"><a xlink:href="classamr__wind_1_1pde_1_1icns_1_1_boussinesq_buoyancy.html" target="_top" xlink:title="Boussinesq bouyancy source term. ">
<polygon fill="#ffffff" stroke="#000000" points="89,-245.5 89,-275.5 206,-275.5 206,-245.5 89,-245.5"/>
<text text-anchor="start" x="97" y="-263.5" font-family="Helvetica,sans-Serif" font-size="10.00" fill="#000000">amr_wind::pde::icns</text>
<text text-anchor="middle" x="147.5" y="-252.5" font-family="Helvetica,sans-Serif" font-size="10.00" fill="#000000">::BoussinesqBuoyancy</text>
</a>
</g>
</g>
<!-- Node84&#45;&gt;Node89 -->
<g id="edge5" class="edge">
<title>Node84&#45;&gt;Node89</title>
<path fill="none" stroke="#191970" d="M62.9563,-243.0323C71.1122,-244.7174 79.9644,-246.5464 88.7667,-248.365"/>
<polygon fill="#191970" stroke="#191970" points="63.5553,-239.5822 53.054,-240.9864 62.1389,-246.4374 63.5553,-239.5822"/>
</g>
<!-- Node90 -->
<g id="node7" class="node">
<title>Node90</title>
<g id="a_node7"><a xlink:href="classamr__wind_1_1pde_1_1icns_1_1_coriolis_forcing.html" target="_top" xlink:title="Account for Coriolis forcing due to earth&#39;s rotation. ">
<polygon fill="#ffffff" stroke="#000000" points="95.5,-196.5 95.5,-226.5 199.5,-226.5 199.5,-196.5 95.5,-196.5"/>
<text text-anchor="start" x="103.5" y="-214.5" font-family="Helvetica,sans-Serif" font-size="10.00" fill="#000000">amr_wind::pde::icns</text>
<text text-anchor="middle" x="147.5" y="-203.5" font-family="Helvetica,sans-Serif" font-size="10.00" fill="#000000">::CoriolisForcing</text>
</a>
</g>
</g>
<!-- Node84&#45;&gt;Node90 -->
<g id="edge6" class="edge">
<title>Node84&#45;&gt;Node90</title>
<path fill="none" stroke="#191970" d="M63.1317,-228.2342C73.2256,-226.2321 84.3752,-224.0206 95.1712,-221.8793"/>
<polygon fill="#191970" stroke="#191970" points="62.1819,-224.8543 53.054,-230.2331 63.5439,-231.7206 62.1819,-224.8543"/>
</g>
<!-- Node91 -->
<g id="node8" class="node">
<title>Node91</title>
<g id="a_node8"><a xlink:href="classamr__wind_1_1pde_1_1icns_1_1_density_buoyancy.html" target="_top" xlink:title="Buoyancy term from density variations. ">
<polygon fill="#ffffff" stroke="#000000" points="95.5,-147.5 95.5,-177.5 199.5,-177.5 199.5,-147.5 95.5,-147.5"/>
<text text-anchor="start" x="103.5" y="-165.5" font-family="Helvetica,sans-Serif" font-size="10.00" fill="#000000">amr_wind::pde::icns</text>
<text text-anchor="middle" x="147.5" y="-154.5" font-family="Helvetica,sans-Serif" font-size="10.00" fill="#000000">::DensityBuoyancy</text>
</a>
</g>
</g>
<!-- Node84&#45;&gt;Node91 -->
<g id="edge7" class="edge">
<title>Node84&#45;&gt;Node91</title>
<path fill="none" stroke="#191970" d="M45.3228,-219.0369C57.2905,-209.091 73.4163,-196.618 89,-187.5 95.1011,-183.9303 101.8079,-180.5829 108.4362,-177.5698"/>
<polygon fill="#191970" stroke="#191970" points="42.7726,-216.6105 37.4106,-225.7483 47.3007,-221.9487 42.7726,-216.6105"/>
</g>
<!-- Node92 -->
<g id="node9" class="node">
<title>Node92</title>
<g id="a_node9"><a xlink:href="classamr__wind_1_1pde_1_1icns_1_1_geostrophic_forcing.html" target="_top" xlink:title="Apply source term equivalent to drive the flow to match given geostrophic wind. ">
<polygon fill="#ffffff" stroke="#000000" points="94,-98.5 94,-128.5 201,-128.5 201,-98.5 94,-98.5"/>
<text text-anchor="start" x="102" y="-116.5" font-family="Helvetica,sans-Serif" font-size="10.00" fill="#000000">amr_wind::pde::icns</text>
<text text-anchor="middle" x="147.5" y="-105.5" font-family="Helvetica,sans-Serif" font-size="10.00" fill="#000000">::GeostrophicForcing</text>
</a>
</g>
</g>
<!-- Node84&#45;&gt;Node92 -->
<g id="edge8" class="edge">
<title>Node84&#45;&gt;Node92</title>
<path fill="none" stroke="#191970" d="M34.5371,-216.5286C44.4981,-195.0251 63.3478,-160.1565 89,-138.5 93.4729,-134.7238 98.6011,-131.4397 103.9217,-128.6057"/>
<polygon fill="#191970" stroke="#191970" points="31.2372,-215.3354 30.3703,-225.8947 37.6329,-218.1807 31.2372,-215.3354"/>
</g>
<!-- Node93 -->
<g id="node10" class="node">
<title>Node93</title>
<g id="a_node10"><a xlink:href="classamr__wind_1_1pde_1_1icns_1_1_gravity_forcing.html" target="_top" xlink:title="Gravity Forcing term. ">
<polygon fill="#ffffff" stroke="#000000" points="95.5,-49.5 95.5,-79.5 199.5,-79.5 199.5,-49.5 95.5,-49.5"/>
<text text-anchor="start" x="103.5" y="-67.5" font-family="Helvetica,sans-Serif" font-size="10.00" fill="#000000">amr_wind::pde::icns</text>
<text text-anchor="middle" x="147.5" y="-56.5" font-family="Helvetica,sans-Serif" font-size="10.00" fill="#000000">::GravityForcing</text>
</a>
</g>
</g>
<!-- Node84&#45;&gt;Node93 -->
<g id="edge9" class="edge">
<title>Node84&#45;&gt;Node93</title>
<path fill="none" stroke="#191970" d="M29.9972,-216.0399C36.4627,-185.3298 53.0454,-125.4323 89,-89.5 92.828,-85.6744 97.3338,-82.3973 102.1178,-79.599"/>
<polygon fill="#191970" stroke="#191970" points="26.5466,-215.4484 28.0557,-225.9352 33.4156,-216.7961 26.5466,-215.4484"/>
</g>
<!-- Node94 -->
<g id="node11" class="node">
<title>Node94</title>
<g id="a_node11"><a xlink:href="classamr__wind_1_1pde_1_1icns_1_1mms_1_1_m_m_s_forcing.html" target="_top" xlink:title="amr_wind::pde::icns\l::mms::MMSForcing">
<polygon fill="#ffffff" stroke="#000000" points="94.5,-.5 94.5,-30.5 200.5,-30.5 200.5,-.5 94.5,-.5"/>
<text text-anchor="start" x="102.5" y="-18.5" font-family="Helvetica,sans-Serif" font-size="10.00" fill="#000000">amr_wind::pde::icns</text>
<text text-anchor="middle" x="147.5" y="-7.5" font-family="Helvetica,sans-Serif" font-size="10.00" fill="#000000">::mms::MMSForcing</text>
</a>
</g>
</g>
<!-- Node84&#45;&gt;Node94 -->
<g id="edge10" class="edge">
<title>Node84&#45;&gt;Node94</title>
<path fill="none" stroke="#191970" d="M27.5986,-215.1204C30.7379,-176.3318 42.8013,-91.2434 89,-40.5 92.4947,-36.6615 96.678,-33.3898 101.1794,-30.6061"/>
<polygon fill="#191970" stroke="#191970" points="24.0736,-215.367 26.8829,-225.5826 31.0573,-215.8448 24.0736,-215.367"/>
</g>
</g>
</svg>
