<?xml version="1.0" encoding="UTF-8" standalone="no"?>
<!DOCTYPE svg PUBLIC "-//W3C//DTD SVG 1.1//EN"
 "http://www.w3.org/Graphics/SVG/1.1/DTD/svg11.dtd">
<!-- Generated by graphviz version 2.40.1 (20161225.0304)
 -->
<!-- Title: Graphical Class Hierarchy Pages: 1 -->
<svg width="256pt" height="218pt"
 viewBox="0.00 0.00 256.00 218.00" xmlns="http://www.w3.org/2000/svg" xmlns:xlink="http://www.w3.org/1999/xlink">
<g id="graph0" class="graph" transform="scale(1 1) rotate(0) translate(4 214)">
<title>Graphical Class Hierarchy</title>
<polygon fill="#ffffff" stroke="transparent" points="-4,4 -4,-214 252,-214 252,4 -4,4"/>
<!-- Node104 -->
<g id="node1" class="node">
<title>Node104</title>
<polygon fill="#ffffff" stroke="#bfbfbf" points="0,-95.5 0,-114.5 53,-114.5 53,-95.5 0,-95.5"/>
<text text-anchor="middle" x="26.5" y="-102.5" font-family="Helvetica,sans-Serif" font-size="10.00" fill="#000000">Register</text>
</g>
<!-- Node0 -->
<g id="node2" class="node">
<title>Node0</title>
<g id="a_node2"><a xlink:href="classamr__wind_1_1_cart_box_refinement.html" target="_top" xlink:title="Static refinement with Cartesian&#45;aligned bounding boxesImplements tagging functionality for nested re...">
<polygon fill="#ffffff" stroke="#000000" points="93,-190.5 93,-209.5 244,-209.5 244,-190.5 93,-190.5"/>
<text text-anchor="middle" x="168.5" y="-197.5" font-family="Helvetica,sans-Serif" font-size="10.00" fill="#000000">amr_wind::CartBoxRefinement</text>
</a>
</g>
</g>
<!-- Node104&#45;&gt;Node0 -->
<g id="edge1" class="edge">
<title>Node104&#45;&gt;Node0</title>
<path fill="none" stroke="#191970" d="M36.7747,-123.389C47.5224,-140.8952 66.0206,-166.6386 89,-181 95.2576,-184.9108 102.2533,-188.0168 109.4289,-190.4836"/>
<polygon fill="#191970" stroke="#191970" points="39.711,-121.4777 31.6219,-114.6354 33.6785,-125.0287 39.711,-121.4777"/>
</g>
<!-- Node106 -->
<g id="node3" class="node">
<title>Node106</title>
<g id="a_node3"><a xlink:href="classamr__wind_1_1_field_refinement.html" target="_top" xlink:title="AMR refinement using a given field (e.g., density)``` tagging.labels = t1 tagging/t1.type = FieldRefinement tagging/t1.field_name = density ">
<polygon fill="#ffffff" stroke="#000000" points="100.5,-152.5 100.5,-171.5 236.5,-171.5 236.5,-152.5 100.5,-152.5"/>
<text text-anchor="middle" x="168.5" y="-159.5" font-family="Helvetica,sans-Serif" font-size="10.00" fill="#000000">amr_wind::FieldRefinement</text>
</a>
</g>
</g>
<!-- Node104&#45;&gt;Node106 -->
<g id="edge2" class="edge">
<title>Node104&#45;&gt;Node106</title>
<path fill="none" stroke="#191970" d="M48.3085,-120.5802C59.9253,-128.2677 74.7302,-137.127 89,-143 98.186,-146.7806 108.2924,-149.9143 118.1292,-152.4722"/>
<polygon fill="#191970" stroke="#191970" points="49.9813,-117.4848 39.7466,-114.7458 46.0394,-123.2694 49.9813,-117.4848"/>
</g>
<!-- Node107 -->
<g id="node4" class="node">
<title>Node107</title>
<g id="a_node4"><a xlink:href="classamr__wind_1_1_geometry_refinement.html" target="_top" xlink:title="AMR based on geometric shapes. ">
<polygon fill="#ffffff" stroke="#000000" points="89.5,-114.5 89.5,-133.5 247.5,-133.5 247.5,-114.5 89.5,-114.5"/>
<text text-anchor="middle" x="168.5" y="-121.5" font-family="Helvetica,sans-Serif" font-size="10.00" fill="#000000">amr_wind::GeometryRefinement</text>
</a>
</g>
</g>
<!-- Node104&#45;&gt;Node107 -->
<g id="edge3" class="edge">
<title>Node104&#45;&gt;Node107</title>
<path fill="none" stroke="#191970" d="M63.203,-109.911C73.6826,-111.3132 85.4742,-112.8909 97.2741,-114.4698"/>
<polygon fill="#191970" stroke="#191970" points="63.585,-106.431 53.2091,-108.5738 62.6566,-113.3691 63.585,-106.431"/>
</g>
<!-- Node108 -->
<g id="node5" class="node">
<title>Node108</title>
<g id="a_node5"><a xlink:href="classamr__wind_1_1_overset_refinement.html" target="_top" xlink:title="amr_wind::OversetRefinement">
<polygon fill="#ffffff" stroke="#000000" points="94,-76.5 94,-95.5 243,-95.5 243,-76.5 94,-76.5"/>
<text text-anchor="middle" x="168.5" y="-83.5" font-family="Helvetica,sans-Serif" font-size="10.00" fill="#000000">amr_wind::OversetRefinement</text>
</a>
</g>
</g>
<!-- Node104&#45;&gt;Node108 -->
<g id="edge4" class="edge">
<title>Node104&#45;&gt;Node108</title>
<path fill="none" stroke="#191970" d="M63.203,-100.089C73.6826,-98.6868 85.4742,-97.1091 97.2741,-95.5302"/>
<polygon fill="#191970" stroke="#191970" points="62.6566,-96.6309 53.2091,-101.4262 63.585,-103.569 62.6566,-96.6309"/>
</g>
<!-- Node109 -->
<g id="node6" class="node">
<title>Node109</title>
<g id="a_node6"><a xlink:href="classamr__wind_1_1_q_criterion_refinement.html" target="_top" xlink:title="AMR refinement using Q criterion``` tagging.labels = qc1 tagging/qc1.type = QCriterionRefinement tagg...">
<polygon fill="#ffffff" stroke="#000000" points="89,-38.5 89,-57.5 248,-57.5 248,-38.5 89,-38.5"/>
<text text-anchor="middle" x="168.5" y="-45.5" font-family="Helvetica,sans-Serif" font-size="10.00" fill="#000000">amr_wind::QCriterionRefinement</text>
</a>
</g>
</g>
<!-- Node104&#45;&gt;Node109 -->
<g id="edge5" class="edge">
<title>Node104&#45;&gt;Node109</title>
<path fill="none" stroke="#191970" d="M48.3085,-89.4198C59.9253,-81.7323 74.7302,-72.873 89,-67 98.186,-63.2194 108.2924,-60.0857 118.1292,-57.5278"/>
<polygon fill="#191970" stroke="#191970" points="46.0394,-86.7306 39.7466,-95.2542 49.9813,-92.5152 46.0394,-86.7306"/>
</g>
<!-- Node110 -->
<g id="node7" class="node">
<title>Node110</title>
<g id="a_node7"><a xlink:href="classamr__wind_1_1_vorticity_refinement.html" target="_top" xlink:title="AMR refinement using vorticity``` tagging.labels = v1 tagging/v1.type = VorticityRefinement tagging/v...">
<polygon fill="#ffffff" stroke="#000000" points="93,-.5 93,-19.5 244,-19.5 244,-.5 93,-.5"/>
<text text-anchor="middle" x="168.5" y="-7.5" font-family="Helvetica,sans-Serif" font-size="10.00" fill="#000000">amr_wind::VorticityRefinement</text>
</a>
</g>
</g>
<!-- Node104&#45;&gt;Node110 -->
<g id="edge6" class="edge">
<title>Node104&#45;&gt;Node110</title>
<path fill="none" stroke="#191970" d="M36.7747,-86.611C47.5224,-69.1048 66.0206,-43.3614 89,-29 95.2576,-25.0892 102.2533,-21.9832 109.4289,-19.5164"/>
<polygon fill="#191970" stroke="#191970" points="33.6785,-84.9713 31.6219,-95.3646 39.711,-88.5223 33.6785,-84.9713"/>
</g>
</g>
</svg>
