<?xml version="1.0" encoding="UTF-8" standalone="no"?>
<!DOCTYPE svg PUBLIC "-//W3C//DTD SVG 1.1//EN"
 "http://www.w3.org/Graphics/SVG/1.1/DTD/svg11.dtd">
<!-- Generated by graphviz version 2.40.1 (20161225.0304)
 -->
<!-- Title: io_utils.H Pages: 1 -->
<svg width="931pt" height="84pt"
 viewBox="0.00 0.00 930.50 84.00" xmlns="http://www.w3.org/2000/svg" xmlns:xlink="http://www.w3.org/1999/xlink">
<g id="graph0" class="graph" transform="scale(1 1) rotate(0) translate(4 80)">
<title>io_utils.H</title>
<polygon fill="#ffffff" stroke="transparent" points="-4,4 -4,-80 926.5,-80 926.5,4 -4,4"/>
<!-- Node6 -->
<g id="node1" class="node">
<title>Node6</title>
<polygon fill="#bfbfbf" stroke="#000000" points="463,-56.5 463,-75.5 521,-75.5 521,-56.5 463,-56.5"/>
<text text-anchor="middle" x="492" y="-63.5" font-family="Helvetica,sans-Serif" font-size="10.00" fill="#000000">io_utils.H</text>
</g>
<!-- Node7 -->
<g id="node2" class="node">
<title>Node7</title>
<g id="a_node2"><a xlink:href="_derived_qty_defs_8cpp.html" target="_top" xlink:title="DerivedQtyDefs.cpp">
<polygon fill="#ffffff" stroke="#000000" points="0,-.5 0,-19.5 106,-19.5 106,-.5 0,-.5"/>
<text text-anchor="middle" x="53" y="-7.5" font-family="Helvetica,sans-Serif" font-size="10.00" fill="#000000">DerivedQtyDefs.cpp</text>
</a>
</g>
</g>
<!-- Node6&#45;&gt;Node7 -->
<g id="edge1" class="edge">
<title>Node6&#45;&gt;Node7</title>
<path fill="none" stroke="#191970" d="M452.6751,-61.7064C384.0376,-54.0998 237.9536,-37.4102 115,-20 112.0853,-19.5873 109.0957,-19.1504 106.0795,-18.699"/>
<polygon fill="#191970" stroke="#191970" points="452.2958,-65.1857 462.6196,-62.805 453.0644,-58.2281 452.2958,-65.1857"/>
</g>
<!-- Node8 -->
<g id="node3" class="node">
<title>Node8</title>
<g id="a_node3"><a xlink:href="_derived_quantity_8cpp.html" target="_top" xlink:title="DerivedQuantity.cpp">
<polygon fill="#ffffff" stroke="#000000" points="124,-.5 124,-19.5 230,-19.5 230,-.5 124,-.5"/>
<text text-anchor="middle" x="177" y="-7.5" font-family="Helvetica,sans-Serif" font-size="10.00" fill="#000000">DerivedQuantity.cpp</text>
</a>
</g>
</g>
<!-- Node6&#45;&gt;Node8 -->
<g id="edge2" class="edge">
<title>Node6&#45;&gt;Node8</title>
<path fill="none" stroke="#191970" d="M453.0313,-59.0722C396.9425,-49.1009 293.2807,-30.6721 230.1905,-19.4561"/>
<polygon fill="#191970" stroke="#191970" points="452.4719,-62.5276 462.9302,-60.832 453.6972,-55.6356 452.4719,-62.5276"/>
</g>
<!-- Node9 -->
<g id="node4" class="node">
<title>Node9</title>
<g id="a_node4"><a xlink:href="_i_o_manager_8cpp.html" target="_top" xlink:title="IOManager.cpp">
<polygon fill="#ffffff" stroke="#000000" points="248.5,-.5 248.5,-19.5 331.5,-19.5 331.5,-.5 248.5,-.5"/>
<text text-anchor="middle" x="290" y="-7.5" font-family="Helvetica,sans-Serif" font-size="10.00" fill="#000000">IOManager.cpp</text>
</a>
</g>
</g>
<!-- Node6&#45;&gt;Node9 -->
<g id="edge3" class="edge">
<title>Node6&#45;&gt;Node9</title>
<path fill="none" stroke="#191970" d="M452.6339,-55.0866C415.3882,-44.7611 360.0379,-29.4164 324.4857,-19.5604"/>
<polygon fill="#191970" stroke="#191970" points="452.0559,-58.5583 462.6275,-57.8571 453.926,-51.8127 452.0559,-58.5583"/>
</g>
<!-- Node10 -->
<g id="node5" class="node">
<title>Node10</title>
<g id="a_node5"><a xlink:href="_field_norms_8cpp.html" target="_top" xlink:title="FieldNorms.cpp">
<polygon fill="#ffffff" stroke="#000000" points="350,-.5 350,-19.5 436,-19.5 436,-.5 350,-.5"/>
<text text-anchor="middle" x="393" y="-7.5" font-family="Helvetica,sans-Serif" font-size="10.00" fill="#000000">FieldNorms.cpp</text>
</a>
</g>
</g>
<!-- Node6&#45;&gt;Node10 -->
<g id="edge4" class="edge">
<title>Node6&#45;&gt;Node10</title>
<path fill="none" stroke="#191970" d="M465.5643,-51.0465C447.9492,-41.0824 425.3153,-28.2794 410.0469,-19.6427"/>
<polygon fill="#191970" stroke="#191970" points="464.3283,-54.3684 474.7555,-56.2455 467.7747,-48.2756 464.3283,-54.3684"/>
</g>
<!-- Node11 -->
<g id="node6" class="node">
<title>Node11</title>
<g id="a_node6"><a xlink:href="_sampling_8cpp.html" target="_top" xlink:title="Sampling.cpp">
<polygon fill="#ffffff" stroke="#000000" points="454,-.5 454,-19.5 530,-19.5 530,-.5 454,-.5"/>
<text text-anchor="middle" x="492" y="-7.5" font-family="Helvetica,sans-Serif" font-size="10.00" fill="#000000">Sampling.cpp</text>
</a>
</g>
</g>
<!-- Node6&#45;&gt;Node11 -->
<g id="edge5" class="edge">
<title>Node6&#45;&gt;Node11</title>
<path fill="none" stroke="#191970" d="M492,-46.1575C492,-37.155 492,-26.9199 492,-19.6427"/>
<polygon fill="#191970" stroke="#191970" points="488.5001,-46.2455 492,-56.2455 495.5001,-46.2456 488.5001,-46.2455"/>
</g>
<!-- Node12 -->
<g id="node7" class="node">
<title>Node12</title>
<g id="a_node7"><a xlink:href="_a_b_l_stats_8cpp.html" target="_top" xlink:title="ABLStats.cpp">
<polygon fill="#ffffff" stroke="#000000" points="548.5,-.5 548.5,-19.5 625.5,-19.5 625.5,-.5 548.5,-.5"/>
<text text-anchor="middle" x="587" y="-7.5" font-family="Helvetica,sans-Serif" font-size="10.00" fill="#000000">ABLStats.cpp</text>
</a>
</g>
</g>
<!-- Node6&#45;&gt;Node12 -->
<g id="edge6" class="edge">
<title>Node6&#45;&gt;Node12</title>
<path fill="none" stroke="#191970" d="M517.3676,-51.0465C534.271,-41.0824 555.9904,-28.2794 570.6419,-19.6427"/>
<polygon fill="#191970" stroke="#191970" points="515.3851,-48.1522 508.5477,-56.2455 518.9398,-54.1825 515.3851,-48.1522"/>
</g>
<!-- Node13 -->
<g id="node8" class="node">
<title>Node13</title>
<g id="a_node8"><a xlink:href="_fast_iface_8cpp.html" target="_top" xlink:title="FastIface.cpp">
<polygon fill="#ffffff" stroke="#000000" points="643.5,-.5 643.5,-19.5 720.5,-19.5 720.5,-.5 643.5,-.5"/>
<text text-anchor="middle" x="682" y="-7.5" font-family="Helvetica,sans-Serif" font-size="10.00" fill="#000000">FastIface.cpp</text>
</a>
</g>
</g>
<!-- Node6&#45;&gt;Node13 -->
<g id="edge7" class="edge">
<title>Node6&#45;&gt;Node13</title>
<path fill="none" stroke="#191970" d="M531.1363,-54.4651C566.1041,-44.1588 616.7336,-29.2364 649.5108,-19.5758"/>
<polygon fill="#191970" stroke="#191970" points="529.8736,-51.1883 521.2711,-57.3727 531.8527,-57.9027 529.8736,-51.1883"/>
</g>
<!-- Node14 -->
<g id="node9" class="node">
<title>Node14</title>
<g id="a_node9"><a xlink:href="turbine__utils_8cpp.html" target="_top" xlink:title="turbine_utils.cpp">
<polygon fill="#ffffff" stroke="#000000" points="739,-.5 739,-19.5 827,-19.5 827,-.5 739,-.5"/>
<text text-anchor="middle" x="783" y="-7.5" font-family="Helvetica,sans-Serif" font-size="10.00" fill="#000000">turbine_utils.cpp</text>
</a>
</g>
</g>
<!-- Node6&#45;&gt;Node14 -->
<g id="edge8" class="edge">
<title>Node6&#45;&gt;Node14</title>
<path fill="none" stroke="#191970" d="M531.1243,-58.4709C585.1734,-48.0697 682.3994,-29.3596 738.942,-18.4785"/>
<polygon fill="#191970" stroke="#191970" points="530.3929,-55.0474 521.2346,-60.3741 531.7158,-61.9212 530.3929,-55.0474"/>
</g>
<!-- Node15 -->
<g id="node10" class="node">
<title>Node15</title>
<g id="a_node10"><a xlink:href="wing__ops_8cpp.html" target="_top" xlink:title="wing_ops.cpp">
<polygon fill="#ffffff" stroke="#000000" points="845.5,-.5 845.5,-19.5 922.5,-19.5 922.5,-.5 845.5,-.5"/>
<text text-anchor="middle" x="884" y="-7.5" font-family="Helvetica,sans-Serif" font-size="10.00" fill="#000000">wing_ops.cpp</text>
</a>
</g>
</g>
<!-- Node6&#45;&gt;Node15 -->
<g id="edge9" class="edge">
<title>Node6&#45;&gt;Node15</title>
<path fill="none" stroke="#191970" d="M531.1508,-61.7007C595.1349,-54.4646 726.0085,-38.7861 836,-20 839.0207,-19.4841 842.141,-18.9155 845.2732,-18.3193"/>
<polygon fill="#191970" stroke="#191970" points="530.6485,-58.235 521.1018,-62.8298 531.4301,-65.1913 530.6485,-58.235"/>
</g>
</g>
</svg>
