<?xml version="1.0" encoding="UTF-8" standalone="no"?>
<!DOCTYPE svg PUBLIC "-//W3C//DTD SVG 1.1//EN"
 "http://www.w3.org/Graphics/SVG/1.1/DTD/svg11.dtd">
<!-- Generated by graphviz version 2.40.1 (20161225.0304)
 -->
<!-- Title: lagrangian_advection.H Pages: 1 -->
<svg width="339pt" height="151pt"
 viewBox="0.00 0.00 339.00 151.00" xmlns="http://www.w3.org/2000/svg" xmlns:xlink="http://www.w3.org/1999/xlink">
<g id="graph0" class="graph" transform="scale(1 1) rotate(0) translate(4 147)">
<title>lagrangian_advection.H</title>
<polygon fill="#ffffff" stroke="transparent" points="-4,4 -4,-147 335,-147 335,4 -4,4"/>
<!-- Node0 -->
<g id="node1" class="node">
<title>Node0</title>
<polygon fill="#bfbfbf" stroke="#000000" points="95,-123.5 95,-142.5 214,-142.5 214,-123.5 95,-123.5"/>
<text text-anchor="middle" x="154.5" y="-130.5" font-family="Helvetica,sans-Serif" font-size="10.00" fill="#000000">lagrangian_advection.H</text>
</g>
<!-- Node1 -->
<g id="node2" class="node">
<title>Node1</title>
<g id="a_node2"><a xlink:href="volume__fractions_8_h.html" target="_top" xlink:title="amr&#45;wind/equation_systems\l/vof/volume_fractions.H">
<polygon fill="#ffffff" stroke="#000000" points="36,-56.5 36,-86.5 175,-86.5 175,-56.5 36,-56.5"/>
<text text-anchor="start" x="44" y="-74.5" font-family="Helvetica,sans-Serif" font-size="10.00" fill="#000000">amr&#45;wind/equation_systems</text>
<text text-anchor="middle" x="105.5" y="-63.5" font-family="Helvetica,sans-Serif" font-size="10.00" fill="#000000">/vof/volume_fractions.H</text>
</a>
</g>
</g>
<!-- Node0&#45;&gt;Node1 -->
<g id="edge1" class="edge">
<title>Node0&#45;&gt;Node1</title>
<path fill="none" stroke="#191970" d="M146.8438,-123.3906C140.7034,-115.6839 131.8272,-104.5434 123.8721,-94.5589"/>
<polygon fill="#191970" stroke="#191970" points="126.4556,-92.1847 117.4867,-86.5446 120.9808,-96.5467 126.4556,-92.1847"/>
</g>
<!-- Node2 -->
<g id="node3" class="node">
<title>Node2</title>
<polygon fill="#ffffff" stroke="#bfbfbf" points="0,-.5 0,-19.5 113,-19.5 113,-.5 0,-.5"/>
<text text-anchor="middle" x="56.5" y="-7.5" font-family="Helvetica,sans-Serif" font-size="10.00" fill="#000000">AMReX_FArrayBox.H</text>
</g>
<!-- Node0&#45;&gt;Node2 -->
<g id="edge4" class="edge">
<title>Node0&#45;&gt;Node2</title>
<path fill="none" stroke="#191970" d="M112.7402,-123.4925C79.446,-114.967 36.7556,-101.5833 26.5,-87 13.5688,-68.6119 27.7055,-43.8875 40.62,-27.4717"/>
<polygon fill="#191970" stroke="#191970" points="43.3732,-29.6354 47.1122,-19.7222 38.0074,-25.1401 43.3732,-29.6354"/>
</g>
<!-- Node3 -->
<g id="node4" class="node">
<title>Node3</title>
<polygon fill="#ffffff" stroke="#bfbfbf" points="131.5,-.5 131.5,-19.5 175.5,-19.5 175.5,-.5 131.5,-.5"/>
<text text-anchor="middle" x="153.5" y="-7.5" font-family="Helvetica,sans-Serif" font-size="10.00" fill="#000000">cmath</text>
</g>
<!-- Node0&#45;&gt;Node3 -->
<g id="edge6" class="edge">
<title>Node0&#45;&gt;Node3</title>
<path fill="none" stroke="#191970" d="M163.2861,-123.2709C170.5686,-114.5036 180.3705,-100.8915 184.5,-87 188.4259,-73.7934 188.5255,-69.1766 184.5,-56 181.3591,-45.7192 175.0634,-35.6582 168.9612,-27.5799"/>
<polygon fill="#191970" stroke="#191970" points="171.5816,-25.2539 162.5741,-19.6757 166.137,-29.6535 171.5816,-25.2539"/>
</g>
<!-- Node4 -->
<g id="node5" class="node">
<title>Node4</title>
<polygon fill="#ffffff" stroke="#bfbfbf" points="232,-62 232,-81 331,-81 331,-62 232,-62"/>
<text text-anchor="middle" x="281.5" y="-69" font-family="Helvetica,sans-Serif" font-size="10.00" fill="#000000">AMReX_BCRec.H</text>
</g>
<!-- Node0&#45;&gt;Node4 -->
<g id="edge5" class="edge">
<title>Node0&#45;&gt;Node4</title>
<path fill="none" stroke="#191970" d="M174.3438,-123.3906C195.3136,-113.2359 228.5944,-97.1196 252.5036,-85.5416"/>
<polygon fill="#191970" stroke="#191970" points="254.3208,-88.5504 261.7956,-81.0419 251.2699,-82.2502 254.3208,-88.5504"/>
</g>
<!-- Node1&#45;&gt;Node2 -->
<g id="edge2" class="edge">
<title>Node1&#45;&gt;Node2</title>
<path fill="none" stroke="#191970" d="M93.3876,-56.2977C86.5151,-47.672 77.8777,-36.8312 70.689,-27.8087"/>
<polygon fill="#191970" stroke="#191970" points="73.3144,-25.487 64.3455,-19.8469 67.8396,-29.849 73.3144,-25.487"/>
</g>
<!-- Node1&#45;&gt;Node3 -->
<g id="edge3" class="edge">
<title>Node1&#45;&gt;Node3</title>
<path fill="none" stroke="#191970" d="M117.3652,-56.2977C124.0975,-47.672 132.5585,-36.8312 139.6006,-27.8087"/>
<polygon fill="#191970" stroke="#191970" points="142.421,-29.8836 145.8146,-19.8469 136.9027,-25.5766 142.421,-29.8836"/>
</g>
</g>
</svg>
