<?xml version="1.0" encoding="UTF-8" standalone="no"?>
<!DOCTYPE svg PUBLIC "-//W3C//DTD SVG 1.1//EN"
 "http://www.w3.org/Graphics/SVG/1.1/DTD/svg11.dtd">
<!-- Generated by graphviz version 2.40.1 (20161225.0304)
 -->
<!-- Title: linear_interpolation.H Pages: 1 -->
<svg width="206pt" height="140pt"
 viewBox="0.00 0.00 205.50 140.00" xmlns="http://www.w3.org/2000/svg" xmlns:xlink="http://www.w3.org/1999/xlink">
<g id="graph0" class="graph" transform="scale(1 1) rotate(0) translate(4 136)">
<title>linear_interpolation.H</title>
<polygon fill="#ffffff" stroke="transparent" points="-4,4 -4,-136 201.5,-136 201.5,4 -4,4"/>
<!-- Node2 -->
<g id="node1" class="node">
<title>Node2</title>
<polygon fill="#bfbfbf" stroke="#000000" points="42,-112.5 42,-131.5 150,-131.5 150,-112.5 42,-112.5"/>
<text text-anchor="middle" x="96" y="-119.5" font-family="Helvetica,sans-Serif" font-size="10.00" fill="#000000">linear_interpolation.H</text>
</g>
<!-- Node3 -->
<g id="node2" class="node">
<title>Node3</title>
<g id="a_node2"><a xlink:href="_airfoil_table_8cpp.html" target="_top" xlink:title="AirfoilTable.cpp">
<polygon fill="#ffffff" stroke="#000000" points="0,-56.5 0,-75.5 84,-75.5 84,-56.5 0,-56.5"/>
<text text-anchor="middle" x="42" y="-63.5" font-family="Helvetica,sans-Serif" font-size="10.00" fill="#000000">AirfoilTable.cpp</text>
</a>
</g>
</g>
<!-- Node2&#45;&gt;Node3 -->
<g id="edge1" class="edge">
<title>Node2&#45;&gt;Node3</title>
<path fill="none" stroke="#191970" d="M79.4031,-104.7884C70.1653,-95.2085 59.0096,-83.6396 51.2983,-75.6427"/>
<polygon fill="#191970" stroke="#191970" points="77.1331,-107.4766 86.5939,-112.2455 82.172,-102.6176 77.1331,-107.4766"/>
</g>
<!-- Node4 -->
<g id="node3" class="node">
<title>Node4</title>
<g id="a_node3"><a xlink:href="fixed__wing__ops_8_h.html" target="_top" xlink:title="fixed_wing_ops.H">
<polygon fill="#ffffff" stroke="#000000" points="102.5,-56.5 102.5,-75.5 197.5,-75.5 197.5,-56.5 102.5,-56.5"/>
<text text-anchor="middle" x="150" y="-63.5" font-family="Helvetica,sans-Serif" font-size="10.00" fill="#000000">fixed_wing_ops.H</text>
</a>
</g>
</g>
<!-- Node2&#45;&gt;Node4 -->
<g id="edge2" class="edge">
<title>Node2&#45;&gt;Node4</title>
<path fill="none" stroke="#191970" d="M112.5969,-104.7884C121.8347,-95.2085 132.9904,-83.6396 140.7017,-75.6427"/>
<polygon fill="#191970" stroke="#191970" points="109.828,-102.6176 105.4061,-112.2455 114.8669,-107.4766 109.828,-102.6176"/>
</g>
<!-- Node5 -->
<g id="node4" class="node">
<title>Node5</title>
<g id="a_node4"><a xlink:href="_fixed_wing_8cpp.html" target="_top" xlink:title="FixedWing.cpp">
<polygon fill="#ffffff" stroke="#000000" points="109,-.5 109,-19.5 191,-19.5 191,-.5 109,-.5"/>
<text text-anchor="middle" x="150" y="-7.5" font-family="Helvetica,sans-Serif" font-size="10.00" fill="#000000">FixedWing.cpp</text>
</a>
</g>
</g>
<!-- Node4&#45;&gt;Node5 -->
<g id="edge3" class="edge">
<title>Node4&#45;&gt;Node5</title>
<path fill="none" stroke="#191970" d="M150,-46.1575C150,-37.155 150,-26.9199 150,-19.6427"/>
<polygon fill="#191970" stroke="#191970" points="146.5001,-46.2455 150,-56.2455 153.5001,-46.2456 146.5001,-46.2455"/>
</g>
</g>
</svg>
