<?xml version="1.0" encoding="UTF-8" standalone="no"?>
<!DOCTYPE svg PUBLIC "-//W3C//DTD SVG 1.1//EN"
 "http://www.w3.org/Graphics/SVG/1.1/DTD/svg11.dtd">
<!-- Generated by graphviz version 2.40.1 (20161225.0304)
 -->
<!-- Title: nc_interface.H Pages: 1 -->
<!--zoomable 263 -->
<svg id="main" version="1.1" xmlns="http://www.w3.org/2000/svg" xmlns:xlink="http://www.w3.org/1999/xlink" xml:space="preserve" onload="init(evt)">
<style type="text/css"><![CDATA[
.edge:hover path { stroke: red; }
.edge:hover polygon { stroke: red; fill: red; }
]]></style>
<script type="text/javascript"><![CDATA[
var edges = document.getElementsByTagName('g');
if (edges && edges.length) {
  for (var i=0;i<edges.length;i++) {
    if (edges[i].id.substr(0,4)=='edge') {
      edges[i].setAttribute('class','edge');
    }
  }
}
]]></script>
        <defs>
                <circle id="rim" cx="0" cy="0" r="7"/>
                <circle id="rim2" cx="0" cy="0" r="3.5"/>
                <g id="zoomPlus">
                        <use xlink:href="#rim" fill="#404040">
                                <set attributeName="fill" to="#808080" begin="zoomplus.mouseover" end="zoomplus.mouseout"/>
                        </use>
                        <path d="M-4,0h8M0,-4v8" fill="none" stroke="white" stroke-width="1.5" pointer-events="none"/>
                </g>
                <g id="zoomMin">
                        <use xlink:href="#rim" fill="#404040">
                                <set attributeName="fill" to="#808080" begin="zoomminus.mouseover" end="zoomminus.mouseout"/>
                        </use>
                        <path d="M-4,0h8" fill="none" stroke="white" stroke-width="1.5" pointer-events="none"/>
                </g>
                <g id="dirArrow">
                        <path fill="none" stroke="white" stroke-width="1.5" d="M0,-3.0v7 M-2.5,-0.5L0,-3.0L2.5,-0.5"/>
                </g>
               <g id="resetDef">
                       <use xlink:href="#rim2" fill="#404040">
                               <set attributeName="fill" to="#808080" begin="reset.mouseover" end="reset.mouseout"/>
                       </use>
               </g>
        </defs>

<script type="text/javascript">
var viewWidth = 1454;
var viewHeight = 263;
var sectionId = 'dynsection-1';
</script>
<script xlink:href="svgpan.js"/>
<svg id="graph" class="graph">
<g id="viewport">
<title>nc_interface.H</title>
<polygon fill="#ffffff" stroke="transparent" points="-4,4 -4,-259 1449.5,-259 1449.5,4 -4,4"/>
<!-- Node6 -->
<g id="node1" class="node">
<title>Node6</title>
<polygon fill="#bfbfbf" stroke="#000000" points="922,-235.5 922,-254.5 1002,-254.5 1002,-235.5 922,-235.5"/>
<text text-anchor="middle" x="962" y="-242.5" font-family="Helvetica,sans-Serif" font-size="10.00" fill="#000000">nc_interface.H</text>
</g>
<!-- Node7 -->
<g id="node2" class="node">
<title>Node7</title>
<g id="a_node2"><a xlink:href="_a_b_l_boundary_plane_8_h.html" target="_top" xlink:title="ABLBoundaryPlane.H">
<polygon fill="#ffffff" stroke="#000000" points="774,-179.5 774,-198.5 886,-198.5 886,-179.5 774,-179.5"/>
<text text-anchor="middle" x="830" y="-186.5" font-family="Helvetica,sans-Serif" font-size="10.00" fill="#000000">ABLBoundaryPlane.H</text>
</a>
</g>
</g>
<!-- Node6&#45;&gt;Node7 -->
<g id="edge1" class="edge">
<title>Node6&#45;&gt;Node7</title>
<path fill="none" stroke="#191970" d="M929.9035,-231.3833C905.8965,-221.1985 873.6741,-207.5284 852.3955,-198.5011"/>
<polygon fill="#191970" stroke="#191970" points="928.7356,-234.6897 939.3084,-235.3733 931.4695,-228.2457 928.7356,-234.6897"/>
</g>
<!-- Node16 -->
<g id="node11" class="node">
<title>Node16</title>
<g id="a_node11"><a xlink:href="_a_b_l_boundary_plane_8cpp.html" target="_top" xlink:title="ABLBoundaryPlane.cpp">
<polygon fill="#ffffff" stroke="#000000" points="899,-67.5 899,-86.5 1019,-86.5 1019,-67.5 899,-67.5"/>
<text text-anchor="middle" x="959" y="-74.5" font-family="Helvetica,sans-Serif" font-size="10.00" fill="#000000">ABLBoundaryPlane.cpp</text>
</a>
</g>
</g>
<!-- Node6&#45;&gt;Node16 -->
<g id="edge31" class="edge">
<title>Node6&#45;&gt;Node16</title>
<path fill="none" stroke="#191970" d="M953.809,-226.0595C950.7034,-217.8981 947.545,-208.1449 946,-199 938.9742,-157.4144 950.5931,-107.1755 956.2186,-86.5455"/>
<polygon fill="#191970" stroke="#191970" points="950.5873,-227.4287 957.589,-235.3802 957.0742,-224.7979 950.5873,-227.4287"/>
</g>
<!-- Node19 -->
<g id="node14" class="node">
<title>Node19</title>
<g id="a_node14"><a xlink:href="_sampler_base_8_h.html" target="_top" xlink:title="SamplerBase.H">
<polygon fill="#ffffff" stroke="#000000" points="341,-179.5 341,-198.5 427,-198.5 427,-179.5 341,-179.5"/>
<text text-anchor="middle" x="384" y="-186.5" font-family="Helvetica,sans-Serif" font-size="10.00" fill="#000000">SamplerBase.H</text>
</a>
</g>
</g>
<!-- Node6&#45;&gt;Node19 -->
<g id="edge15" class="edge">
<title>Node6&#45;&gt;Node19</title>
<path fill="none" stroke="#191970" d="M911.8059,-240.1369C799.9518,-229.2998 531.8469,-203.3243 427.0325,-193.1692"/>
<polygon fill="#191970" stroke="#191970" points="911.5241,-243.6259 921.8151,-241.1066 912.1992,-236.6585 911.5241,-243.6259"/>
</g>
<!-- Node21 -->
<g id="node16" class="node">
<title>Node21</title>
<g id="a_node16"><a xlink:href="_a_b_l_stats_8cpp.html" target="_top" xlink:title="ABLStats.cpp">
<polygon fill="#ffffff" stroke="#000000" points="581.5,-67.5 581.5,-86.5 658.5,-86.5 658.5,-67.5 581.5,-67.5"/>
<text text-anchor="middle" x="620" y="-74.5" font-family="Helvetica,sans-Serif" font-size="10.00" fill="#000000">ABLStats.cpp</text>
</a>
</g>
</g>
<!-- Node6&#45;&gt;Node21 -->
<g id="edge32" class="edge">
<title>Node6&#45;&gt;Node21</title>
<path fill="none" stroke="#191970" d="M911.5636,-239.8272C870.3894,-234.0858 811.6063,-222.3488 765,-199 705.2896,-169.0864 649.1002,-109.9004 628.3936,-86.6758"/>
<polygon fill="#191970" stroke="#191970" points="911.2611,-243.3176 921.6341,-241.161 912.1803,-236.3782 911.2611,-243.3176"/>
</g>
<!-- Node29 -->
<g id="node24" class="node">
<title>Node29</title>
<g id="a_node24"><a xlink:href="_sampling_8cpp.html" target="_top" xlink:title="Sampling.cpp">
<polygon fill="#ffffff" stroke="#000000" points="472,-67.5 472,-86.5 548,-86.5 548,-67.5 472,-67.5"/>
<text text-anchor="middle" x="510" y="-74.5" font-family="Helvetica,sans-Serif" font-size="10.00" fill="#000000">Sampling.cpp</text>
</a>
</g>
</g>
<!-- Node6&#45;&gt;Node29 -->
<g id="edge30" class="edge">
<title>Node6&#45;&gt;Node29</title>
<path fill="none" stroke="#191970" d="M911.8792,-241.4738C834.3176,-233.9901 683.0087,-211.1499 576,-143 551.3975,-127.3316 528.7629,-101.0675 517.4919,-86.8541"/>
<polygon fill="#191970" stroke="#191970" points="911.5913,-244.962 921.8696,-242.3916 912.2317,-237.9913 911.5913,-244.962"/>
</g>
<!-- Node31 -->
<g id="node26" class="node">
<title>Node31</title>
<g id="a_node26"><a xlink:href="nc__interface_8cpp.html" target="_top" xlink:title="nc_interface.cpp">
<polygon fill="#ffffff" stroke="#000000" points="954.5,-179.5 954.5,-198.5 1043.5,-198.5 1043.5,-179.5 954.5,-179.5"/>
<text text-anchor="middle" x="999" y="-186.5" font-family="Helvetica,sans-Serif" font-size="10.00" fill="#000000">nc_interface.cpp</text>
</a>
</g>
</g>
<!-- Node6&#45;&gt;Node31 -->
<g id="edge28" class="edge">
<title>Node6&#45;&gt;Node31</title>
<path fill="none" stroke="#191970" d="M974.1376,-226.6296C980.3093,-217.2887 987.5566,-206.3197 992.6289,-198.6427"/>
<polygon fill="#191970" stroke="#191970" points="971.0373,-224.9728 968.4449,-235.2455 976.8777,-228.8316 971.0373,-224.9728"/>
</g>
<!-- Node32 -->
<g id="node27" class="node">
<title>Node32</title>
<g id="a_node27"><a xlink:href="_field_norms_8cpp.html" target="_top" xlink:title="FieldNorms.cpp">
<polygon fill="#ffffff" stroke="#000000" points="1062,-179.5 1062,-198.5 1148,-198.5 1148,-179.5 1062,-179.5"/>
<text text-anchor="middle" x="1105" y="-186.5" font-family="Helvetica,sans-Serif" font-size="10.00" fill="#000000">FieldNorms.cpp</text>
</a>
</g>
</g>
<!-- Node6&#45;&gt;Node32 -->
<g id="edge29" class="edge">
<title>Node6&#45;&gt;Node32</title>
<path fill="none" stroke="#191970" d="M996.0798,-231.6541C1022.1573,-221.4419 1057.4815,-207.6086 1080.7382,-198.5011"/>
<polygon fill="#191970" stroke="#191970" points="994.6178,-228.4677 986.5826,-235.3733 997.1703,-234.9858 994.6178,-228.4677"/>
</g>
<!-- Node33 -->
<g id="node28" class="node">
<title>Node33</title>
<g id="a_node28"><a xlink:href="_fast_iface_8cpp.html" target="_top" xlink:title="FastIface.cpp">
<polygon fill="#ffffff" stroke="#000000" points="1166.5,-179.5 1166.5,-198.5 1243.5,-198.5 1243.5,-179.5 1166.5,-179.5"/>
<text text-anchor="middle" x="1205" y="-186.5" font-family="Helvetica,sans-Serif" font-size="10.00" fill="#000000">FastIface.cpp</text>
</a>
</g>
</g>
<!-- Node6&#45;&gt;Node33 -->
<g id="edge33" class="edge">
<title>Node6&#45;&gt;Node33</title>
<path fill="none" stroke="#191970" d="M1012.1367,-233.4459C1057.9276,-222.8932 1124.6666,-207.513 1166.4204,-197.8908"/>
<polygon fill="#191970" stroke="#191970" points="1011.0851,-230.0964 1002.1265,-235.7527 1012.6571,-236.9176 1011.0851,-230.0964"/>
</g>
<!-- Node34 -->
<g id="node29" class="node">
<title>Node34</title>
<g id="a_node29"><a xlink:href="turbine__utils_8cpp.html" target="_top" xlink:title="turbine_utils.cpp">
<polygon fill="#ffffff" stroke="#000000" points="1262,-179.5 1262,-198.5 1350,-198.5 1350,-179.5 1262,-179.5"/>
<text text-anchor="middle" x="1306" y="-186.5" font-family="Helvetica,sans-Serif" font-size="10.00" fill="#000000">turbine_utils.cpp</text>
</a>
</g>
</g>
<!-- Node6&#45;&gt;Node34 -->
<g id="edge34" class="edge">
<title>Node6&#45;&gt;Node34</title>
<path fill="none" stroke="#191970" d="M1012.0779,-237.5462C1070.1202,-228.7999 1168.6127,-213.6275 1253,-199 1255.8601,-198.5042 1258.8047,-197.9819 1261.7714,-197.4467"/>
<polygon fill="#191970" stroke="#191970" points="1011.4408,-234.1026 1002.0724,-239.0507 1012.4817,-241.0248 1011.4408,-234.1026"/>
</g>
<!-- Node35 -->
<g id="node30" class="node">
<title>Node35</title>
<g id="a_node30"><a xlink:href="wing__ops_8cpp.html" target="_top" xlink:title="wing_ops.cpp">
<polygon fill="#ffffff" stroke="#000000" points="1368.5,-179.5 1368.5,-198.5 1445.5,-198.5 1445.5,-179.5 1368.5,-179.5"/>
<text text-anchor="middle" x="1407" y="-186.5" font-family="Helvetica,sans-Serif" font-size="10.00" fill="#000000">wing_ops.cpp</text>
</a>
</g>
</g>
<!-- Node6&#45;&gt;Node35 -->
<g id="edge35" class="edge">
<title>Node6&#45;&gt;Node35</title>
<path fill="none" stroke="#191970" d="M1012.352,-240.6312C1087.9216,-233.7438 1235.0339,-219.0533 1359,-199 1362.0251,-198.5106 1365.1486,-197.9612 1368.283,-197.3782"/>
<polygon fill="#191970" stroke="#191970" points="1011.8179,-237.1652 1002.1735,-241.551 1012.448,-244.1368 1011.8179,-237.1652"/>
</g>
<!-- Node8 -->
<g id="node3" class="node">
<title>Node8</title>
<g id="a_node3"><a xlink:href="_a_b_l_8_h.html" target="_top" xlink:title="ABL.H">
<polygon fill="#ffffff" stroke="#000000" points="677,-67.5 677,-86.5 723,-86.5 723,-67.5 677,-67.5"/>
<text text-anchor="middle" x="700" y="-74.5" font-family="Helvetica,sans-Serif" font-size="10.00" fill="#000000">ABL.H</text>
</a>
</g>
</g>
<!-- Node7&#45;&gt;Node8 -->
<g id="edge2" class="edge">
<title>Node7&#45;&gt;Node8</title>
<path fill="none" stroke="#191970" d="M795.985,-175.1784C779.4079,-167.357 759.8901,-156.4388 745,-143 726.4686,-126.2748 711.7496,-100.44 704.6436,-86.5747"/>
<polygon fill="#191970" stroke="#191970" points="794.7951,-178.4818 805.3482,-179.4214 797.6844,-172.1059 794.7951,-178.4818"/>
</g>
<!-- Node14 -->
<g id="node9" class="node">
<title>Node14</title>
<g id="a_node9"><a xlink:href="_a_b_l_8cpp.html" target="_top" xlink:title="ABL.cpp">
<polygon fill="#ffffff" stroke="#000000" points="964,-6 964,-25 1018,-25 1018,-6 964,-6"/>
<text text-anchor="middle" x="991" y="-13" font-family="Helvetica,sans-Serif" font-size="10.00" fill="#000000">ABL.cpp</text>
</a>
</g>
</g>
<!-- Node7&#45;&gt;Node14 -->
<g id="edge10" class="edge">
<title>Node7&#45;&gt;Node14</title>
<path fill="none" stroke="#191970" d="M804.5506,-173.4967C794.2863,-165.7437 783.5697,-155.3631 778,-143 764.1259,-112.2031 756.6278,-93.1566 778,-67 828.7937,-4.8354 878.3943,-55.0003 955,-31 960.1948,-29.3725 965.6584,-27.2485 970.7156,-25.0973"/>
<polygon fill="#191970" stroke="#191970" points="802.7451,-176.5052 812.9433,-179.377 806.7618,-170.7723 802.7451,-176.5052"/>
</g>
<!-- Node7&#45;&gt;Node16 -->
<g id="edge11" class="edge">
<title>Node7&#45;&gt;Node16</title>
<path fill="none" stroke="#191970" d="M848.692,-172.7713C876.0054,-149.0573 925.9659,-105.6807 948.0294,-86.5249"/>
<polygon fill="#191970" stroke="#191970" points="846.255,-170.252 840.9985,-179.4509 850.8442,-175.5378 846.255,-170.252"/>
</g>
<!-- Node17 -->
<g id="node12" class="node">
<title>Node17</title>
<g id="a_node12"><a xlink:href="_a_b_l_fill_inflow_8_h.html" target="_top" xlink:title="ABLFillInflow.H">
<polygon fill="#ffffff" stroke="#000000" points="787.5,-123.5 787.5,-142.5 872.5,-142.5 872.5,-123.5 787.5,-123.5"/>
<text text-anchor="middle" x="830" y="-130.5" font-family="Helvetica,sans-Serif" font-size="10.00" fill="#000000">ABLFillInflow.H</text>
</a>
</g>
</g>
<!-- Node7&#45;&gt;Node17 -->
<g id="edge12" class="edge">
<title>Node7&#45;&gt;Node17</title>
<path fill="none" stroke="#191970" d="M830,-169.1575C830,-160.155 830,-149.9199 830,-142.6427"/>
<polygon fill="#191970" stroke="#191970" points="826.5001,-169.2455 830,-179.2455 833.5001,-169.2456 826.5001,-169.2455"/>
</g>
<!-- Node9 -->
<g id="node4" class="node">
<title>Node9</title>
<g id="a_node4"><a xlink:href="incflo__set__velocity__bcs_8cpp.html" target="_top" xlink:title="incflo_set_velocity\l_bcs.cpp">
<polygon fill="#ffffff" stroke="#000000" points="596,-.5 596,-30.5 694,-30.5 694,-.5 596,-.5"/>
<text text-anchor="start" x="604" y="-18.5" font-family="Helvetica,sans-Serif" font-size="10.00" fill="#000000">incflo_set_velocity</text>
<text text-anchor="middle" x="645" y="-7.5" font-family="Helvetica,sans-Serif" font-size="10.00" fill="#000000">_bcs.cpp</text>
</a>
</g>
</g>
<!-- Node8&#45;&gt;Node9 -->
<g id="edge3" class="edge">
<title>Node8&#45;&gt;Node9</title>
<path fill="none" stroke="#191970" d="M684.7354,-59.9314C676.4905,-50.7122 666.4027,-39.4321 658.4545,-30.5446"/>
<polygon fill="#191970" stroke="#191970" points="682.1311,-62.2698 691.4063,-67.3906 687.3489,-57.6034 682.1311,-62.2698"/>
</g>
<!-- Node10 -->
<g id="node5" class="node">
<title>Node10</title>
<g id="a_node5"><a xlink:href="_a_b_l_forcing_8cpp.html" target="_top" xlink:title="ABLForcing.cpp">
<polygon fill="#ffffff" stroke="#000000" points="712,-6 712,-25 798,-25 798,-6 712,-6"/>
<text text-anchor="middle" x="755" y="-13" font-family="Helvetica,sans-Serif" font-size="10.00" fill="#000000">ABLForcing.cpp</text>
</a>
</g>
</g>
<!-- Node8&#45;&gt;Node10 -->
<g id="edge4" class="edge">
<title>Node8&#45;&gt;Node10</title>
<path fill="none" stroke="#191970" d="M715.292,-59.9007C725.285,-48.7268 737.9763,-34.5356 746.2851,-25.2449"/>
<polygon fill="#191970" stroke="#191970" points="712.6511,-57.6034 708.5938,-67.3906 717.8689,-62.2698 712.6511,-57.6034"/>
</g>
<!-- Node11 -->
<g id="node6" class="node">
<title>Node11</title>
<g id="a_node6"><a xlink:href="_a_b_l_mean_boussinesq_8cpp.html" target="_top" xlink:title="ABLMeanBoussinesq.cpp">
<polygon fill="#ffffff" stroke="#000000" points="816.5,-6 816.5,-25 945.5,-25 945.5,-6 816.5,-6"/>
<text text-anchor="middle" x="881" y="-13" font-family="Helvetica,sans-Serif" font-size="10.00" fill="#000000">ABLMeanBoussinesq.cpp</text>
</a>
</g>
</g>
<!-- Node8&#45;&gt;Node11 -->
<g id="edge5" class="edge">
<title>Node8&#45;&gt;Node11</title>
<path fill="none" stroke="#191970" d="M732.8505,-65.8381C767.1216,-54.1935 820.2888,-36.1284 852.7428,-25.1012"/>
<polygon fill="#191970" stroke="#191970" points="731.6344,-62.5547 723.292,-69.0859 733.8864,-69.1826 731.6344,-62.5547"/>
</g>
<!-- Node12 -->
<g id="node7" class="node">
<title>Node12</title>
<g id="a_node7"><a xlink:href="incflo_8cpp.html" target="_top" xlink:title="incflo.cpp">
<polygon fill="#ffffff" stroke="#000000" points="322.5,-6 322.5,-25 381.5,-25 381.5,-6 322.5,-6"/>
<text text-anchor="middle" x="352" y="-13" font-family="Helvetica,sans-Serif" font-size="10.00" fill="#000000">incflo.cpp</text>
</a>
</g>
</g>
<!-- Node8&#45;&gt;Node12 -->
<g id="edge6" class="edge">
<title>Node8&#45;&gt;Node12</title>
<path fill="none" stroke="#191970" d="M666.5513,-67.269C544.1414,-42.0511 507.5796,-61.2647 391,-31 385.0761,-29.4621 378.8408,-27.2647 373.1363,-25.006"/>
<polygon fill="#191970" stroke="#191970" points="666.1802,-70.7681 676.6886,-69.4175 667.6315,-63.9202 666.1802,-70.7681"/>
</g>
<!-- Node13 -->
<g id="node8" class="node">
<title>Node13</title>
<g id="a_node8"><a xlink:href="init_8cpp.html" target="_top" xlink:title="init.cpp">
<polygon fill="#ffffff" stroke="#000000" points="400,-6 400,-25 448,-25 448,-6 400,-6"/>
<text text-anchor="middle" x="424" y="-13" font-family="Helvetica,sans-Serif" font-size="10.00" fill="#000000">init.cpp</text>
</a>
</g>
</g>
<!-- Node8&#45;&gt;Node13 -->
<g id="edge7" class="edge">
<title>Node8&#45;&gt;Node13</title>
<path fill="none" stroke="#191970" d="M666.7605,-67.2384C572.9467,-46.1201 544.3406,-58.4436 457,-31 452.0484,-29.4441 446.8831,-27.2947 442.149,-25.0916"/>
<polygon fill="#191970" stroke="#191970" points="666.1296,-70.6849 676.6619,-69.5355 667.7117,-63.866 666.1296,-70.6849"/>
</g>
<!-- Node8&#45;&gt;Node14 -->
<g id="edge8" class="edge">
<title>Node8&#45;&gt;Node14</title>
<path fill="none" stroke="#191970" d="M733.0845,-69.4548C737.0929,-68.5978 741.135,-67.7602 745,-67 837.9144,-48.7234 864.2099,-57.9123 955,-31 960.3498,-29.4142 965.9659,-27.254 971.129,-25.0501"/>
<polygon fill="#191970" stroke="#191970" points="732.3316,-66.0367 723.3103,-71.5924 733.8272,-72.8751 732.3316,-66.0367"/>
</g>
<!-- Node15 -->
<g id="node10" class="node">
<title>Node15</title>
<g id="a_node10"><a xlink:href="_a_b_l_wall_function_8cpp.html" target="_top" xlink:title="ABLWallFunction.cpp">
<polygon fill="#ffffff" stroke="#000000" points="466.5,-6 466.5,-25 577.5,-25 577.5,-6 466.5,-6"/>
<text text-anchor="middle" x="522" y="-13" font-family="Helvetica,sans-Serif" font-size="10.00" fill="#000000">ABLWallFunction.cpp</text>
</a>
</g>
</g>
<!-- Node8&#45;&gt;Node15 -->
<g id="edge9" class="edge">
<title>Node8&#45;&gt;Node15</title>
<path fill="none" stroke="#191970" d="M666.8697,-65.5533C633.0988,-53.8853 581.3087,-35.9915 549.6629,-25.0577"/>
<polygon fill="#191970" stroke="#191970" points="666.1349,-69.0024 676.7296,-68.9599 668.4208,-62.3861 666.1349,-69.0024"/>
</g>
<!-- Node17&#45;&gt;Node16 -->
<g id="edge13" class="edge">
<title>Node17&#45;&gt;Node16</title>
<path fill="none" stroke="#191970" d="M861.3671,-119.3833C884.8284,-109.1985 916.3185,-95.5284 937.1135,-86.5011"/>
<polygon fill="#191970" stroke="#191970" points="859.9551,-116.1806 852.1759,-123.3733 862.7426,-122.6017 859.9551,-116.1806"/>
</g>
<!-- Node18 -->
<g id="node13" class="node">
<title>Node18</title>
<g id="a_node13"><a xlink:href="_a_b_l_fill_inflow_8cpp.html" target="_top" xlink:title="ABLFillInflow.cpp">
<polygon fill="#ffffff" stroke="#000000" points="787.5,-67.5 787.5,-86.5 880.5,-86.5 880.5,-67.5 787.5,-67.5"/>
<text text-anchor="middle" x="834" y="-74.5" font-family="Helvetica,sans-Serif" font-size="10.00" fill="#000000">ABLFillInflow.cpp</text>
</a>
</g>
</g>
<!-- Node17&#45;&gt;Node18 -->
<g id="edge14" class="edge">
<title>Node17&#45;&gt;Node18</title>
<path fill="none" stroke="#191970" d="M831.4173,-113.1575C832.0604,-104.155 832.7914,-93.9199 833.3112,-86.6427"/>
<polygon fill="#191970" stroke="#191970" points="827.9182,-113.0216 830.6967,-123.2455 834.9004,-113.5204 827.9182,-113.0216"/>
</g>
<!-- Node20 -->
<g id="node15" class="node">
<title>Node20</title>
<g id="a_node15"><a xlink:href="_a_b_l_stats_8_h.html" target="_top" xlink:title="ABLStats.H">
<polygon fill="#ffffff" stroke="#000000" points="585.5,-123.5 585.5,-142.5 654.5,-142.5 654.5,-123.5 585.5,-123.5"/>
<text text-anchor="middle" x="620" y="-130.5" font-family="Helvetica,sans-Serif" font-size="10.00" fill="#000000">ABLStats.H</text>
</a>
</g>
</g>
<!-- Node19&#45;&gt;Node20 -->
<g id="edge16" class="edge">
<title>Node19&#45;&gt;Node20</title>
<path fill="none" stroke="#191970" d="M434.2422,-177.0781C479.6751,-166.2974 545.378,-150.7069 585.2448,-141.247"/>
<polygon fill="#191970" stroke="#191970" points="433.2234,-173.7226 424.3017,-179.4369 434.8396,-180.5335 433.2234,-173.7226"/>
</g>
<!-- Node22 -->
<g id="node17" class="node">
<title>Node22</title>
<g id="a_node17"><a xlink:href="_line_sampler_8_h.html" target="_top" xlink:title="LineSampler.H">
<polygon fill="#ffffff" stroke="#000000" points="225.5,-123.5 225.5,-142.5 306.5,-142.5 306.5,-123.5 225.5,-123.5"/>
<text text-anchor="middle" x="266" y="-130.5" font-family="Helvetica,sans-Serif" font-size="10.00" fill="#000000">LineSampler.H</text>
</a>
</g>
</g>
<!-- Node19&#45;&gt;Node22 -->
<g id="edge19" class="edge">
<title>Node19&#45;&gt;Node22</title>
<path fill="none" stroke="#191970" d="M354.4453,-174.9741C333.0805,-164.8348 304.7884,-151.408 286.0202,-142.5011"/>
<polygon fill="#191970" stroke="#191970" points="353.1802,-178.2478 363.7151,-179.3733 356.1814,-171.9238 353.1802,-178.2478"/>
</g>
<!-- Node24 -->
<g id="node19" class="node">
<title>Node24</title>
<g id="a_node19"><a xlink:href="_plane_sampler_8_h.html" target="_top" xlink:title="PlaneSampler.H">
<polygon fill="#ffffff" stroke="#000000" points="9,-123.5 9,-142.5 97,-142.5 97,-123.5 9,-123.5"/>
<text text-anchor="middle" x="53" y="-130.5" font-family="Helvetica,sans-Serif" font-size="10.00" fill="#000000">PlaneSampler.H</text>
</a>
</g>
</g>
<!-- Node19&#45;&gt;Node24 -->
<g id="edge21" class="edge">
<title>Node19&#45;&gt;Node24</title>
<path fill="none" stroke="#191970" d="M330.6875,-180.2601C275.2636,-171.1324 186.0098,-156.3163 109,-143 105.1074,-142.3269 101.064,-141.62 97.012,-140.9063"/>
<polygon fill="#191970" stroke="#191970" points="330.1964,-183.7263 340.632,-181.8966 331.3331,-176.8192 330.1964,-183.7263"/>
</g>
<!-- Node26 -->
<g id="node21" class="node">
<title>Node26</title>
<g id="a_node21"><a xlink:href="_probe_sampler_8_h.html" target="_top" xlink:title="ProbeSampler.H">
<polygon fill="#ffffff" stroke="#000000" points="118.5,-123.5 118.5,-142.5 207.5,-142.5 207.5,-123.5 118.5,-123.5"/>
<text text-anchor="middle" x="163" y="-130.5" font-family="Helvetica,sans-Serif" font-size="10.00" fill="#000000">ProbeSampler.H</text>
</a>
</g>
</g>
<!-- Node19&#45;&gt;Node26 -->
<g id="edge23" class="edge">
<title>Node19&#45;&gt;Node26</title>
<path fill="none" stroke="#191970" d="M336.3137,-176.9166C295.664,-166.6162 238.0333,-152.013 200.5845,-142.5237"/>
<polygon fill="#191970" stroke="#191970" points="335.7065,-180.3733 346.2599,-179.4369 337.4259,-173.5877 335.7065,-180.3733"/>
</g>
<!-- Node28 -->
<g id="node23" class="node">
<title>Node28</title>
<g id="a_node23"><a xlink:href="_sampling_8_h.html" target="_top" xlink:title="Sampling.H">
<polygon fill="#ffffff" stroke="#000000" points="461,-123.5 461,-142.5 529,-142.5 529,-123.5 461,-123.5"/>
<text text-anchor="middle" x="495" y="-130.5" font-family="Helvetica,sans-Serif" font-size="10.00" fill="#000000">Sampling.H</text>
</a>
</g>
</g>
<!-- Node19&#45;&gt;Node28 -->
<g id="edge25" class="edge">
<title>Node19&#45;&gt;Node28</title>
<path fill="none" stroke="#191970" d="M412.0734,-174.8368C432.1385,-164.7139 458.5922,-151.3679 476.1674,-142.5011"/>
<polygon fill="#191970" stroke="#191970" points="410.4332,-171.7441 403.0816,-179.3733 413.5862,-177.9938 410.4332,-171.7441"/>
</g>
<!-- Node30 -->
<g id="node25" class="node">
<title>Node30</title>
<g id="a_node25"><a xlink:href="_sampling_container_8cpp.html" target="_top" xlink:title="SamplingContainer.cpp">
<polygon fill="#ffffff" stroke="#000000" points="325,-123.5 325,-142.5 443,-142.5 443,-123.5 325,-123.5"/>
<text text-anchor="middle" x="384" y="-130.5" font-family="Helvetica,sans-Serif" font-size="10.00" fill="#000000">SamplingContainer.cpp</text>
</a>
</g>
</g>
<!-- Node19&#45;&gt;Node30 -->
<g id="edge27" class="edge">
<title>Node19&#45;&gt;Node30</title>
<path fill="none" stroke="#191970" d="M384,-169.1575C384,-160.155 384,-149.9199 384,-142.6427"/>
<polygon fill="#191970" stroke="#191970" points="380.5001,-169.2455 384,-179.2455 387.5001,-169.2456 380.5001,-169.2455"/>
</g>
<!-- Node20&#45;&gt;Node8 -->
<g id="edge17" class="edge">
<title>Node20&#45;&gt;Node8</title>
<path fill="none" stroke="#191970" d="M642.1571,-117.49C656.272,-107.6096 674.1151,-95.1194 686.2248,-86.6427"/>
<polygon fill="#191970" stroke="#191970" points="640.1201,-114.6436 633.9349,-123.2455 644.1344,-120.3782 640.1201,-114.6436"/>
</g>
<!-- Node20&#45;&gt;Node21 -->
<g id="edge18" class="edge">
<title>Node20&#45;&gt;Node21</title>
<path fill="none" stroke="#191970" d="M620,-113.1575C620,-104.155 620,-93.9199 620,-86.6427"/>
<polygon fill="#191970" stroke="#191970" points="616.5001,-113.2455 620,-123.2455 623.5001,-113.2456 616.5001,-113.2455"/>
</g>
<!-- Node23 -->
<g id="node18" class="node">
<title>Node23</title>
<g id="a_node18"><a xlink:href="_line_sampler_8cpp.html" target="_top" xlink:title="LineSampler.cpp">
<polygon fill="#ffffff" stroke="#000000" points="229.5,-67.5 229.5,-86.5 318.5,-86.5 318.5,-67.5 229.5,-67.5"/>
<text text-anchor="middle" x="274" y="-74.5" font-family="Helvetica,sans-Serif" font-size="10.00" fill="#000000">LineSampler.cpp</text>
</a>
</g>
</g>
<!-- Node22&#45;&gt;Node23 -->
<g id="edge20" class="edge">
<title>Node22&#45;&gt;Node23</title>
<path fill="none" stroke="#191970" d="M268.8346,-113.1575C270.1207,-104.155 271.5829,-93.9199 272.6225,-86.6427"/>
<polygon fill="#191970" stroke="#191970" points="265.343,-112.851 267.3935,-123.2455 272.2726,-113.8411 265.343,-112.851"/>
</g>
<!-- Node25 -->
<g id="node20" class="node">
<title>Node25</title>
<g id="a_node20"><a xlink:href="_plane_sampler_8cpp.html" target="_top" xlink:title="PlaneSampler.cpp">
<polygon fill="#ffffff" stroke="#000000" points="0,-67.5 0,-86.5 96,-86.5 96,-67.5 0,-67.5"/>
<text text-anchor="middle" x="48" y="-74.5" font-family="Helvetica,sans-Serif" font-size="10.00" fill="#000000">PlaneSampler.cpp</text>
</a>
</g>
</g>
<!-- Node24&#45;&gt;Node25 -->
<g id="edge22" class="edge">
<title>Node24&#45;&gt;Node25</title>
<path fill="none" stroke="#191970" d="M51.2283,-113.1575C50.4246,-104.155 49.5107,-93.9199 48.861,-86.6427"/>
<polygon fill="#191970" stroke="#191970" points="47.7535,-113.5965 52.1291,-123.2455 54.7258,-112.9739 47.7535,-113.5965"/>
</g>
<!-- Node27 -->
<g id="node22" class="node">
<title>Node27</title>
<g id="a_node22"><a xlink:href="_probe_sampler_8cpp.html" target="_top" xlink:title="ProbeSampler.cpp">
<polygon fill="#ffffff" stroke="#000000" points="114.5,-67.5 114.5,-86.5 211.5,-86.5 211.5,-67.5 114.5,-67.5"/>
<text text-anchor="middle" x="163" y="-74.5" font-family="Helvetica,sans-Serif" font-size="10.00" fill="#000000">ProbeSampler.cpp</text>
</a>
</g>
</g>
<!-- Node26&#45;&gt;Node27 -->
<g id="edge24" class="edge">
<title>Node26&#45;&gt;Node27</title>
<path fill="none" stroke="#191970" d="M163,-113.1575C163,-104.155 163,-93.9199 163,-86.6427"/>
<polygon fill="#191970" stroke="#191970" points="159.5001,-113.2455 163,-123.2455 166.5001,-113.2456 159.5001,-113.2455"/>
</g>
<!-- Node28&#45;&gt;Node29 -->
<g id="edge26" class="edge">
<title>Node28&#45;&gt;Node29</title>
<path fill="none" stroke="#191970" d="M500.2356,-113.4538C502.666,-104.3803 505.4465,-93.9998 507.4171,-86.6427"/>
<polygon fill="#191970" stroke="#191970" points="496.8194,-112.6805 497.6128,-123.2455 503.5811,-114.4917 496.8194,-112.6805"/>
</g>
</g>
</svg>
        <g id="navigator" transform="translate(0 0)" fill="#404254">
                <rect fill="#f2f5e9" fill-opacity="0.5" stroke="#606060" stroke-width=".5" x="0" y="0" width="60" height="60"/>
                <use id="zoomplus" xlink:href="#zoomPlus" x="17" y="9" onmousedown="handleZoom(evt,'in')"/>
                <use id="zoomminus" xlink:href="#zoomMin" x="42" y="9" onmousedown="handleZoom(evt,'out')"/>
                <use id="reset" xlink:href="#resetDef" x="30" y="36" onmousedown="handleReset()"/>
                <g id="arrowUp" xlink:href="#dirArrow" transform="translate(30 24)" onmousedown="handlePan(0,-1)">
                  <use xlink:href="#rim" fill="#404040">
                        <set attributeName="fill" to="#808080" begin="arrowUp.mouseover" end="arrowUp.mouseout"/>
                  </use>
                  <path fill="none" stroke="white" stroke-width="1.5" d="M0,-3.0v7 M-2.5,-0.5L0,-3.0L2.5,-0.5"/>
                </g>
                <g id="arrowRight" xlink:href="#dirArrow" transform="rotate(90) translate(36 -43)" onmousedown="handlePan(1,0)">
                  <use xlink:href="#rim" fill="#404040">
                        <set attributeName="fill" to="#808080" begin="arrowRight.mouseover" end="arrowRight.mouseout"/>
                  </use>
                  <path fill="none" stroke="white" stroke-width="1.5" d="M0,-3.0v7 M-2.5,-0.5L0,-3.0L2.5,-0.5"/>
                </g>
                <g id="arrowDown" xlink:href="#dirArrow" transform="rotate(180) translate(-30 -48)" onmousedown="handlePan(0,1)">
                  <use xlink:href="#rim" fill="#404040">
                        <set attributeName="fill" to="#808080" begin="arrowDown.mouseover" end="arrowDown.mouseout"/>
                  </use>
                  <path fill="none" stroke="white" stroke-width="1.5" d="M0,-3.0v7 M-2.5,-0.5L0,-3.0L2.5,-0.5"/>
                </g>
                <g id="arrowLeft" xlink:href="#dirArrow" transform="rotate(270) translate(-36 17)" onmousedown="handlePan(-1,0)">
                  <use xlink:href="#rim" fill="#404040">
                        <set attributeName="fill" to="#808080" begin="arrowLeft.mouseover" end="arrowLeft.mouseout"/>
                  </use>
                  <path fill="none" stroke="white" stroke-width="1.5" d="M0,-3.0v7 M-2.5,-0.5L0,-3.0L2.5,-0.5"/>
                </g>
        </g>
        <svg viewBox="0 0 15 15" width="100%" height="30px" preserveAspectRatio="xMaxYMin meet">
         <g id="arrow_out" transform="scale(0.3 0.3)">
          <a xlink:href="nc__interface_8_h__dep__incl_org.svg" target="_base">
           <rect id="button" ry="5" rx="5" y="6" x="6" height="38" width="38"
                fill="#f2f5e9" fill-opacity="0.5" stroke="#606060" stroke-width="1.0"/>
           <path id="arrow"
             d="M 11.500037,31.436501 C 11.940474,20.09759 22.043105,11.32322 32.158766,21.979434 L 37.068811,17.246167 C 37.068811,17.246167 37.088388,32 37.088388,32 L 22.160133,31.978069 C 22.160133,31.978069 26.997745,27.140456 26.997745,27.140456 C 18.528582,18.264221 13.291696,25.230495 11.500037,31.436501 z"
             style="fill:#404040;"/>
          </a>
         </g>
        </svg>
</svg>
