<?xml version="1.0" encoding="UTF-8" standalone="no"?>
<!DOCTYPE svg PUBLIC "-//W3C//DTD SVG 1.1//EN"
 "http://www.w3.org/Graphics/SVG/1.1/DTD/svg11.dtd">
<!-- Generated by graphviz version 2.40.1 (20161225.0304)
 -->
<!-- Title: stencils.H Pages: 1 -->
<!--zoomable 252 -->
<svg id="main" version="1.1" xmlns="http://www.w3.org/2000/svg" xmlns:xlink="http://www.w3.org/1999/xlink" xml:space="preserve" onload="init(evt)">
<style type="text/css"><![CDATA[
.edge:hover path { stroke: red; }
.edge:hover polygon { stroke: red; fill: red; }
]]></style>
<script type="text/javascript"><![CDATA[
var edges = document.getElementsByTagName('g');
if (edges && edges.length) {
  for (var i=0;i<edges.length;i++) {
    if (edges[i].id.substr(0,4)=='edge') {
      edges[i].setAttribute('class','edge');
    }
  }
}
]]></script>
        <defs>
                <circle id="rim" cx="0" cy="0" r="7"/>
                <circle id="rim2" cx="0" cy="0" r="3.5"/>
                <g id="zoomPlus">
                        <use xlink:href="#rim" fill="#404040">
                                <set attributeName="fill" to="#808080" begin="zoomplus.mouseover" end="zoomplus.mouseout"/>
                        </use>
                        <path d="M-4,0h8M0,-4v8" fill="none" stroke="white" stroke-width="1.5" pointer-events="none"/>
                </g>
                <g id="zoomMin">
                        <use xlink:href="#rim" fill="#404040">
                                <set attributeName="fill" to="#808080" begin="zoomminus.mouseover" end="zoomminus.mouseout"/>
                        </use>
                        <path d="M-4,0h8" fill="none" stroke="white" stroke-width="1.5" pointer-events="none"/>
                </g>
                <g id="dirArrow">
                        <path fill="none" stroke="white" stroke-width="1.5" d="M0,-3.0v7 M-2.5,-0.5L0,-3.0L2.5,-0.5"/>
                </g>
               <g id="resetDef">
                       <use xlink:href="#rim2" fill="#404040">
                               <set attributeName="fill" to="#808080" begin="reset.mouseover" end="reset.mouseout"/>
                       </use>
               </g>
        </defs>

<script type="text/javascript">
var viewWidth = 858;
var viewHeight = 252;
var sectionId = 'dynsection-1';
</script>
<script xlink:href="svgpan.js"/>
<svg id="graph" class="graph">
<g id="viewport">
<title>stencils.H</title>
<polygon fill="#ffffff" stroke="transparent" points="-4,4 -4,-248 854,-248 854,4 -4,4"/>
<!-- Node5 -->
<g id="node1" class="node">
<title>Node5</title>
<polygon fill="#bfbfbf" stroke="#000000" points="283.5,-224.5 283.5,-243.5 344.5,-243.5 344.5,-224.5 283.5,-224.5"/>
<text text-anchor="middle" x="314" y="-231.5" font-family="Helvetica,sans-Serif" font-size="10.00" fill="#000000">stencils.H</text>
</g>
<!-- Node6 -->
<g id="node2" class="node">
<title>Node6</title>
<g id="a_node2"><a xlink:href="fvm__utils_8_h.html" target="_top" xlink:title="fvm_utils.H">
<polygon fill="#ffffff" stroke="#000000" points="280.5,-168.5 280.5,-187.5 347.5,-187.5 347.5,-168.5 280.5,-168.5"/>
<text text-anchor="middle" x="314" y="-175.5" font-family="Helvetica,sans-Serif" font-size="10.00" fill="#000000">fvm_utils.H</text>
</a>
</g>
</g>
<!-- Node5&#45;&gt;Node6 -->
<g id="edge1" class="edge">
<title>Node5&#45;&gt;Node6</title>
<path fill="none" stroke="#191970" d="M314,-214.1575C314,-205.155 314,-194.9199 314,-187.6427"/>
<polygon fill="#191970" stroke="#191970" points="310.5001,-214.2455 314,-224.2455 317.5001,-214.2456 310.5001,-214.2455"/>
</g>
<!-- Node7 -->
<g id="node3" class="node">
<title>Node7</title>
<g id="a_node3"><a xlink:href="curvature_8_h.html" target="_top" xlink:title="curvature.H">
<polygon fill="#ffffff" stroke="#000000" points="366,-112.5 366,-131.5 434,-131.5 434,-112.5 366,-112.5"/>
<text text-anchor="middle" x="400" y="-119.5" font-family="Helvetica,sans-Serif" font-size="10.00" fill="#000000">curvature.H</text>
</a>
</g>
</g>
<!-- Node6&#45;&gt;Node7 -->
<g id="edge2" class="edge">
<title>Node6&#45;&gt;Node7</title>
<path fill="none" stroke="#191970" d="M337.3905,-162.769C352.6299,-152.8456 372.0509,-140.1994 385.1916,-131.6427"/>
<polygon fill="#191970" stroke="#191970" points="335.4502,-159.8558 328.9801,-168.2455 339.2699,-165.7218 335.4502,-159.8558"/>
</g>
<!-- Node10 -->
<g id="node6" class="node">
<title>Node10</title>
<g id="a_node6"><a xlink:href="divergence_8_h.html" target="_top" xlink:title="divergence.H">
<polygon fill="#ffffff" stroke="#000000" points="0,-112.5 0,-131.5 74,-131.5 74,-112.5 0,-112.5"/>
<text text-anchor="middle" x="37" y="-119.5" font-family="Helvetica,sans-Serif" font-size="10.00" fill="#000000">divergence.H</text>
</a>
</g>
</g>
<!-- Node6&#45;&gt;Node10 -->
<g id="edge5" class="edge">
<title>Node6&#45;&gt;Node10</title>
<path fill="none" stroke="#191970" d="M270.2666,-169.5277C223.7772,-160.4662 148.1314,-145.5634 83,-132 80.1196,-131.4002 77.1397,-130.7713 74.1452,-130.1334"/>
<polygon fill="#191970" stroke="#191970" points="269.8126,-173.0049 280.2972,-171.4803 271.1502,-166.1339 269.8126,-173.0049"/>
</g>
<!-- Node11 -->
<g id="node7" class="node">
<title>Node11</title>
<g id="a_node7"><a xlink:href="gradient_8_h.html" target="_top" xlink:title="gradient.H">
<polygon fill="#ffffff" stroke="#000000" points="452,-112.5 452,-131.5 514,-131.5 514,-112.5 452,-112.5"/>
<text text-anchor="middle" x="483" y="-119.5" font-family="Helvetica,sans-Serif" font-size="10.00" fill="#000000">gradient.H</text>
</a>
</g>
</g>
<!-- Node6&#45;&gt;Node11 -->
<g id="edge7" class="edge">
<title>Node6&#45;&gt;Node11</title>
<path fill="none" stroke="#191970" d="M352.6573,-165.1905C383.6193,-154.9309 426.3574,-140.7691 454.327,-131.5011"/>
<polygon fill="#191970" stroke="#191970" points="351.4437,-161.9054 343.0521,-168.3733 353.6455,-168.5501 351.4437,-161.9054"/>
</g>
<!-- Node17 -->
<g id="node13" class="node">
<title>Node17</title>
<g id="a_node13"><a xlink:href="laplacian_8_h.html" target="_top" xlink:title="laplacian.H">
<polygon fill="#ffffff" stroke="#000000" points="92.5,-112.5 92.5,-131.5 157.5,-131.5 157.5,-112.5 92.5,-112.5"/>
<text text-anchor="middle" x="125" y="-119.5" font-family="Helvetica,sans-Serif" font-size="10.00" fill="#000000">laplacian.H</text>
</a>
</g>
</g>
<!-- Node6&#45;&gt;Node17 -->
<g id="edge14" class="edge">
<title>Node6&#45;&gt;Node17</title>
<path fill="none" stroke="#191970" d="M271.6643,-165.4561C236.9706,-155.1765 188.6166,-140.8494 157.0663,-131.5011"/>
<polygon fill="#191970" stroke="#191970" points="270.9274,-168.8881 281.5097,-168.3733 272.9161,-162.1765 270.9274,-168.8881"/>
</g>
<!-- Node18 -->
<g id="node14" class="node">
<title>Node18</title>
<g id="a_node14"><a xlink:href="strainrate_8_h.html" target="_top" xlink:title="strainrate.H">
<polygon fill="#ffffff" stroke="#000000" points="597,-112.5 597,-131.5 665,-131.5 665,-112.5 597,-112.5"/>
<text text-anchor="middle" x="631" y="-119.5" font-family="Helvetica,sans-Serif" font-size="10.00" fill="#000000">strainrate.H</text>
</a>
</g>
</g>
<!-- Node6&#45;&gt;Node18 -->
<g id="edge16" class="edge">
<title>Node6&#45;&gt;Node18</title>
<path fill="none" stroke="#191970" d="M357.7648,-170.2687C421.5738,-158.9964 538.8336,-138.2818 596.7631,-128.0482"/>
<polygon fill="#191970" stroke="#191970" points="356.8631,-166.8737 347.6244,-172.06 358.0809,-173.767 356.8631,-166.8737"/>
</g>
<!-- Node20 -->
<g id="node16" class="node">
<title>Node20</title>
<g id="a_node16"><a xlink:href="vorticity__mag_8_h.html" target="_top" xlink:title="vorticity_mag.H">
<polygon fill="#ffffff" stroke="#000000" points="176,-112.5 176,-131.5 262,-131.5 262,-112.5 176,-112.5"/>
<text text-anchor="middle" x="219" y="-119.5" font-family="Helvetica,sans-Serif" font-size="10.00" fill="#000000">vorticity_mag.H</text>
</a>
</g>
</g>
<!-- Node6&#45;&gt;Node20 -->
<g id="edge20" class="edge">
<title>Node6&#45;&gt;Node20</title>
<path fill="none" stroke="#191970" d="M288.6324,-163.0465C271.729,-153.0824 250.0096,-140.2794 235.3581,-131.6427"/>
<polygon fill="#191970" stroke="#191970" points="287.0602,-166.1825 297.4523,-168.2455 290.6149,-160.1522 287.0602,-166.1825"/>
</g>
<!-- Node21 -->
<g id="node17" class="node">
<title>Node21</title>
<g id="a_node17"><a xlink:href="qcriterion_8_h.html" target="_top" xlink:title="qcriterion.H">
<polygon fill="#ffffff" stroke="#000000" points="280.5,-112.5 280.5,-131.5 347.5,-131.5 347.5,-112.5 280.5,-112.5"/>
<text text-anchor="middle" x="314" y="-119.5" font-family="Helvetica,sans-Serif" font-size="10.00" fill="#000000">qcriterion.H</text>
</a>
</g>
</g>
<!-- Node6&#45;&gt;Node21 -->
<g id="edge22" class="edge">
<title>Node6&#45;&gt;Node21</title>
<path fill="none" stroke="#191970" d="M314,-158.1575C314,-149.155 314,-138.9199 314,-131.6427"/>
<polygon fill="#191970" stroke="#191970" points="310.5001,-158.2455 314,-168.2455 317.5001,-158.2456 310.5001,-158.2455"/>
</g>
<!-- Node8 -->
<g id="node4" class="node">
<title>Node8</title>
<g id="a_node4"><a xlink:href="fvm_8_h.html" target="_top" xlink:title="fvm.H">
<polygon fill="#ffffff" stroke="#000000" points="184,-56.5 184,-75.5 228,-75.5 228,-56.5 184,-56.5"/>
<text text-anchor="middle" x="206" y="-63.5" font-family="Helvetica,sans-Serif" font-size="10.00" fill="#000000">fvm.H</text>
</a>
</g>
</g>
<!-- Node7&#45;&gt;Node8 -->
<g id="edge3" class="edge">
<title>Node7&#45;&gt;Node8</title>
<path fill="none" stroke="#191970" d="M356.1034,-110.0856C323.2212,-101.046 277.1741,-88.1439 237,-76 234.1852,-75.1491 231.2348,-74.2313 228.3201,-73.3089"/>
<polygon fill="#191970" stroke="#191970" points="355.2949,-113.493 365.8645,-112.7619 357.1459,-106.7422 355.2949,-113.493"/>
</g>
<!-- Node9 -->
<g id="node5" class="node">
<title>Node9</title>
<g id="a_node5"><a xlink:href="_derived_qty_defs_8cpp.html" target="_top" xlink:title="DerivedQtyDefs.cpp">
<polygon fill="#ffffff" stroke="#000000" points="153,-.5 153,-19.5 259,-19.5 259,-.5 153,-.5"/>
<text text-anchor="middle" x="206" y="-7.5" font-family="Helvetica,sans-Serif" font-size="10.00" fill="#000000">DerivedQtyDefs.cpp</text>
</a>
</g>
</g>
<!-- Node8&#45;&gt;Node9 -->
<g id="edge4" class="edge">
<title>Node8&#45;&gt;Node9</title>
<path fill="none" stroke="#191970" d="M206,-46.1575C206,-37.155 206,-26.9199 206,-19.6427"/>
<polygon fill="#191970" stroke="#191970" points="202.5001,-46.2455 206,-56.2455 209.5001,-46.2456 202.5001,-46.2455"/>
</g>
<!-- Node10&#45;&gt;Node8 -->
<g id="edge6" class="edge">
<title>Node10&#45;&gt;Node8</title>
<path fill="none" stroke="#191970" d="M75.9574,-109.091C109.3966,-98.0106 156.4052,-82.4338 183.7881,-73.3601"/>
<polygon fill="#191970" stroke="#191970" points="74.4437,-105.9054 66.0521,-112.3733 76.6455,-112.5501 74.4437,-105.9054"/>
</g>
<!-- Node11&#45;&gt;Node8 -->
<g id="edge8" class="edge">
<title>Node11&#45;&gt;Node8</title>
<path fill="none" stroke="#191970" d="M441.6573,-111.842C350.3038,-93.067 324.1393,-97.5579 237,-76 234.1454,-75.2938 231.1715,-74.4619 228.2444,-73.5845"/>
<polygon fill="#191970" stroke="#191970" points="441.1016,-115.3015 451.6066,-113.9249 442.536,-108.45 441.1016,-115.3015"/>
</g>
<!-- Node12 -->
<g id="node8" class="node">
<title>Node12</title>
<g id="a_node8"><a xlink:href="_dam_break_8cpp.html" target="_top" xlink:title="DamBreak.cpp">
<polygon fill="#ffffff" stroke="#000000" points="552,-56.5 552,-75.5 634,-75.5 634,-56.5 552,-56.5"/>
<text text-anchor="middle" x="593" y="-63.5" font-family="Helvetica,sans-Serif" font-size="10.00" fill="#000000">DamBreak.cpp</text>
</a>
</g>
</g>
<!-- Node11&#45;&gt;Node12 -->
<g id="edge9" class="edge">
<title>Node11&#45;&gt;Node12</title>
<path fill="none" stroke="#191970" d="M511.2914,-107.5971C531.0111,-97.558 556.78,-84.4393 574.059,-75.6427"/>
<polygon fill="#191970" stroke="#191970" points="509.4843,-104.5896 502.1605,-112.2455 512.6601,-110.8277 509.4843,-104.5896"/>
</g>
<!-- Node13 -->
<g id="node9" class="node">
<title>Node13</title>
<g id="a_node9"><a xlink:href="_multi_phase_8cpp.html" target="_top" xlink:title="MultiPhase.cpp">
<polygon fill="#ffffff" stroke="#000000" points="246,-56.5 246,-75.5 330,-75.5 330,-56.5 246,-56.5"/>
<text text-anchor="middle" x="288" y="-63.5" font-family="Helvetica,sans-Serif" font-size="10.00" fill="#000000">MultiPhase.cpp</text>
</a>
</g>
</g>
<!-- Node11&#45;&gt;Node13 -->
<g id="edge10" class="edge">
<title>Node11&#45;&gt;Node13</title>
<path fill="none" stroke="#191970" d="M441.9852,-110.2214C406.0826,-99.9109 354.582,-85.121 321.2103,-75.5373"/>
<polygon fill="#191970" stroke="#191970" points="441.0923,-113.6064 451.6699,-113.0026 443.0245,-106.8783 441.0923,-113.6064"/>
</g>
<!-- Node14 -->
<g id="node10" class="node">
<title>Node14</title>
<g id="a_node10"><a xlink:href="_zalesak_disk_8cpp.html" target="_top" xlink:title="ZalesakDisk.cpp">
<polygon fill="#ffffff" stroke="#000000" points="348,-56.5 348,-75.5 438,-75.5 438,-56.5 348,-56.5"/>
<text text-anchor="middle" x="393" y="-63.5" font-family="Helvetica,sans-Serif" font-size="10.00" fill="#000000">ZalesakDisk.cpp</text>
</a>
</g>
</g>
<!-- Node11&#45;&gt;Node14 -->
<g id="edge11" class="edge">
<title>Node11&#45;&gt;Node14</title>
<path fill="none" stroke="#191970" d="M458.5216,-106.769C442.5734,-96.8456 422.249,-84.1994 408.4972,-75.6427"/>
<polygon fill="#191970" stroke="#191970" points="456.9835,-109.9342 467.3232,-112.2455 460.6817,-103.9908 456.9835,-109.9342"/>
</g>
<!-- Node15 -->
<g id="node11" class="node">
<title>Node15</title>
<g id="a_node11"><a xlink:href="_one_eq_ksgs_8cpp.html" target="_top" xlink:title="OneEqKsgs.cpp">
<polygon fill="#ffffff" stroke="#000000" points="652,-56.5 652,-75.5 740,-75.5 740,-56.5 652,-56.5"/>
<text text-anchor="middle" x="696" y="-63.5" font-family="Helvetica,sans-Serif" font-size="10.00" fill="#000000">OneEqKsgs.cpp</text>
</a>
</g>
</g>
<!-- Node11&#45;&gt;Node15 -->
<g id="edge12" class="edge">
<title>Node11&#45;&gt;Node15</title>
<path fill="none" stroke="#191970" d="M524.2348,-111.1589C563.569,-100.8175 622.2342,-85.3938 659.8034,-75.5165"/>
<polygon fill="#191970" stroke="#191970" points="523.2103,-107.8093 514.4289,-113.737 524.9902,-114.5792 523.2103,-107.8093"/>
</g>
<!-- Node16 -->
<g id="node12" class="node">
<title>Node16</title>
<g id="a_node12"><a xlink:href="_a_b_l_stats_8cpp.html" target="_top" xlink:title="ABLStats.cpp">
<polygon fill="#ffffff" stroke="#000000" points="456.5,-56.5 456.5,-75.5 533.5,-75.5 533.5,-56.5 456.5,-56.5"/>
<text text-anchor="middle" x="495" y="-63.5" font-family="Helvetica,sans-Serif" font-size="10.00" fill="#000000">ABLStats.cpp</text>
</a>
</g>
</g>
<!-- Node11&#45;&gt;Node16 -->
<g id="edge13" class="edge">
<title>Node11&#45;&gt;Node16</title>
<path fill="none" stroke="#191970" d="M487.1885,-102.4538C489.1328,-93.3803 491.3572,-82.9998 492.9337,-75.6427"/>
<polygon fill="#191970" stroke="#191970" points="483.7633,-101.7341 485.0902,-112.2455 490.6079,-103.2009 483.7633,-101.7341"/>
</g>
<!-- Node17&#45;&gt;Node8 -->
<g id="edge15" class="edge">
<title>Node17&#45;&gt;Node8</title>
<path fill="none" stroke="#191970" d="M147.434,-106.49C161.7254,-96.6096 179.7916,-84.1194 192.0526,-75.6427"/>
<polygon fill="#191970" stroke="#191970" points="145.3443,-103.6797 139.1091,-112.2455 149.3251,-109.4376 145.3443,-103.6797"/>
</g>
<!-- Node18&#45;&gt;Node8 -->
<g id="edge17" class="edge">
<title>Node18&#45;&gt;Node8</title>
<path fill="none" stroke="#191970" d="M586.7452,-117.9355C498.3684,-109.6376 302.8643,-90.3234 237,-76 234.1265,-75.3751 231.1414,-74.5915 228.2084,-73.7394"/>
<polygon fill="#191970" stroke="#191970" points="586.4419,-121.4223 596.7243,-118.8684 587.0935,-114.4527 586.4419,-121.4223"/>
</g>
<!-- Node18&#45;&gt;Node15 -->
<g id="edge18" class="edge">
<title>Node18&#45;&gt;Node15</title>
<path fill="none" stroke="#191970" d="M649.9835,-105.645C661.2879,-95.9058 675.247,-83.8795 684.8076,-75.6427"/>
<polygon fill="#191970" stroke="#191970" points="647.6138,-103.0668 642.3221,-112.2455 652.1827,-108.3701 647.6138,-103.0668"/>
</g>
<!-- Node19 -->
<g id="node15" class="node">
<title>Node19</title>
<g id="a_node15"><a xlink:href="_smagorinsky_8cpp.html" target="_top" xlink:title="Smagorinsky.cpp">
<polygon fill="#ffffff" stroke="#000000" points="758,-56.5 758,-75.5 850,-75.5 850,-56.5 758,-56.5"/>
<text text-anchor="middle" x="804" y="-63.5" font-family="Helvetica,sans-Serif" font-size="10.00" fill="#000000">Smagorinsky.cpp</text>
</a>
</g>
</g>
<!-- Node18&#45;&gt;Node19 -->
<g id="edge19" class="edge">
<title>Node18&#45;&gt;Node19</title>
<path fill="none" stroke="#191970" d="M670.5723,-109.1905C702.2671,-98.9309 746.0168,-84.7691 774.6483,-75.5011"/>
<polygon fill="#191970" stroke="#191970" points="669.1758,-105.9636 660.7398,-112.3733 671.3316,-112.6234 669.1758,-105.9636"/>
</g>
<!-- Node20&#45;&gt;Node8 -->
<g id="edge21" class="edge">
<title>Node20&#45;&gt;Node8</title>
<path fill="none" stroke="#191970" d="M214.4625,-102.4538C212.3561,-93.3803 209.9464,-82.9998 208.2385,-75.6427"/>
<polygon fill="#191970" stroke="#191970" points="211.0649,-103.2961 216.7356,-112.2455 217.8835,-101.7131 211.0649,-103.2961"/>
</g>
<!-- Node21&#45;&gt;Node8 -->
<g id="edge23" class="edge">
<title>Node21&#45;&gt;Node8</title>
<path fill="none" stroke="#191970" d="M286.2229,-107.5971C266.8618,-97.558 241.5615,-84.4393 224.5966,-75.6427"/>
<polygon fill="#191970" stroke="#191970" points="284.6992,-110.7495 295.1878,-112.2455 287.9214,-104.5352 284.6992,-110.7495"/>
</g>
</g>
</svg>
        <g id="navigator" transform="translate(0 0)" fill="#404254">
                <rect fill="#f2f5e9" fill-opacity="0.5" stroke="#606060" stroke-width=".5" x="0" y="0" width="60" height="60"/>
                <use id="zoomplus" xlink:href="#zoomPlus" x="17" y="9" onmousedown="handleZoom(evt,'in')"/>
                <use id="zoomminus" xlink:href="#zoomMin" x="42" y="9" onmousedown="handleZoom(evt,'out')"/>
                <use id="reset" xlink:href="#resetDef" x="30" y="36" onmousedown="handleReset()"/>
                <g id="arrowUp" xlink:href="#dirArrow" transform="translate(30 24)" onmousedown="handlePan(0,-1)">
                  <use xlink:href="#rim" fill="#404040">
                        <set attributeName="fill" to="#808080" begin="arrowUp.mouseover" end="arrowUp.mouseout"/>
                  </use>
                  <path fill="none" stroke="white" stroke-width="1.5" d="M0,-3.0v7 M-2.5,-0.5L0,-3.0L2.5,-0.5"/>
                </g>
                <g id="arrowRight" xlink:href="#dirArrow" transform="rotate(90) translate(36 -43)" onmousedown="handlePan(1,0)">
                  <use xlink:href="#rim" fill="#404040">
                        <set attributeName="fill" to="#808080" begin="arrowRight.mouseover" end="arrowRight.mouseout"/>
                  </use>
                  <path fill="none" stroke="white" stroke-width="1.5" d="M0,-3.0v7 M-2.5,-0.5L0,-3.0L2.5,-0.5"/>
                </g>
                <g id="arrowDown" xlink:href="#dirArrow" transform="rotate(180) translate(-30 -48)" onmousedown="handlePan(0,1)">
                  <use xlink:href="#rim" fill="#404040">
                        <set attributeName="fill" to="#808080" begin="arrowDown.mouseover" end="arrowDown.mouseout"/>
                  </use>
                  <path fill="none" stroke="white" stroke-width="1.5" d="M0,-3.0v7 M-2.5,-0.5L0,-3.0L2.5,-0.5"/>
                </g>
                <g id="arrowLeft" xlink:href="#dirArrow" transform="rotate(270) translate(-36 17)" onmousedown="handlePan(-1,0)">
                  <use xlink:href="#rim" fill="#404040">
                        <set attributeName="fill" to="#808080" begin="arrowLeft.mouseover" end="arrowLeft.mouseout"/>
                  </use>
                  <path fill="none" stroke="white" stroke-width="1.5" d="M0,-3.0v7 M-2.5,-0.5L0,-3.0L2.5,-0.5"/>
                </g>
        </g>
        <svg viewBox="0 0 15 15" width="100%" height="30px" preserveAspectRatio="xMaxYMin meet">
         <g id="arrow_out" transform="scale(0.3 0.3)">
          <a xlink:href="stencils_8_h__dep__incl_org.svg" target="_base">
           <rect id="button" ry="5" rx="5" y="6" x="6" height="38" width="38"
                fill="#f2f5e9" fill-opacity="0.5" stroke="#606060" stroke-width="1.0"/>
           <path id="arrow"
             d="M 11.500037,31.436501 C 11.940474,20.09759 22.043105,11.32322 32.158766,21.979434 L 37.068811,17.246167 C 37.068811,17.246167 37.088388,32 37.088388,32 L 22.160133,31.978069 C 22.160133,31.978069 26.997745,27.140456 26.997745,27.140456 C 18.528582,18.264221 13.291696,25.230495 11.500037,31.436501 z"
             style="fill:#404040;"/>
          </a>
         </g>
        </svg>
</svg>
