<?xml version="1.0" encoding="UTF-8" standalone="no"?>
<!DOCTYPE svg PUBLIC "-//W3C//DTD SVG 1.1//EN"
 "http://www.w3.org/Graphics/SVG/1.1/DTD/svg11.dtd">
<!-- Generated by graphviz version 2.40.1 (20161225.0304)
 -->
<!-- Title: amr_wind::actuator::ActuatorType Pages: 1 -->
<svg width="380pt" height="137pt"
 viewBox="0.00 0.00 380.00 137.00" xmlns="http://www.w3.org/2000/svg" xmlns:xlink="http://www.w3.org/1999/xlink">
<g id="graph0" class="graph" transform="scale(1 1) rotate(0) translate(4 133)">
<title>amr_wind::actuator::ActuatorType</title>
<polygon fill="#ffffff" stroke="transparent" points="-4,4 -4,-133 376,-133 376,4 -4,4"/>
<!-- Node0 -->
<g id="node1" class="node">
<title>Node0</title>
<polygon fill="#bfbfbf" stroke="#000000" points="0,-73.5 0,-103.5 100,-103.5 100,-73.5 0,-73.5"/>
<text text-anchor="start" x="8" y="-91.5" font-family="Helvetica,sans-Serif" font-size="10.00" fill="#000000">amr_wind::actuator</text>
<text text-anchor="middle" x="50" y="-80.5" font-family="Helvetica,sans-Serif" font-size="10.00" fill="#000000">::ActuatorType</text>
</g>
<!-- Node1 -->
<g id="node2" class="node">
<title>Node1</title>
<g id="a_node2"><a xlink:href="structamr__wind_1_1actuator_1_1_turbine_type.html" target="_top" xlink:title="amr_wind::actuator\l::TurbineType">
<polygon fill="#ffffff" stroke="#000000" points="136,-98.5 136,-128.5 236,-128.5 236,-98.5 136,-98.5"/>
<text text-anchor="start" x="144" y="-116.5" font-family="Helvetica,sans-Serif" font-size="10.00" fill="#000000">amr_wind::actuator</text>
<text text-anchor="middle" x="186" y="-105.5" font-family="Helvetica,sans-Serif" font-size="10.00" fill="#000000">::TurbineType</text>
</a>
</g>
</g>
<!-- Node0&#45;&gt;Node1 -->
<g id="edge1" class="edge">
<title>Node0&#45;&gt;Node1</title>
<path fill="none" stroke="#191970" d="M110.2308,-99.5718C118.8229,-101.1513 127.5826,-102.7615 135.9516,-104.2999"/>
<polygon fill="#191970" stroke="#191970" points="110.723,-96.1037 100.255,-97.738 109.4574,-102.9884 110.723,-96.1037"/>
</g>
<!-- Node3 -->
<g id="node4" class="node">
<title>Node3</title>
<g id="a_node4"><a xlink:href="structamr__wind_1_1actuator_1_1_wing_type.html" target="_top" xlink:title="amr_wind::actuator\l::WingType">
<polygon fill="#ffffff" stroke="#000000" points="136,-49.5 136,-79.5 236,-79.5 236,-49.5 136,-49.5"/>
<text text-anchor="start" x="144" y="-67.5" font-family="Helvetica,sans-Serif" font-size="10.00" fill="#000000">amr_wind::actuator</text>
<text text-anchor="middle" x="186" y="-56.5" font-family="Helvetica,sans-Serif" font-size="10.00" fill="#000000">::WingType</text>
</a>
</g>
</g>
<!-- Node0&#45;&gt;Node3 -->
<g id="edge3" class="edge">
<title>Node0&#45;&gt;Node3</title>
<path fill="none" stroke="#191970" d="M110.2308,-77.871C118.8229,-76.3548 127.5826,-74.809 135.9516,-73.3321"/>
<polygon fill="#191970" stroke="#191970" points="109.4945,-74.4468 100.255,-79.6315 110.7111,-81.3403 109.4945,-74.4468"/>
</g>
<!-- Node2 -->
<g id="node3" class="node">
<title>Node2</title>
<g id="a_node3"><a xlink:href="structamr__wind_1_1actuator_1_1_turbine_fast.html" target="_top" xlink:title="amr_wind::actuator\l::TurbineFast">
<polygon fill="#ffffff" stroke="#000000" points="272,-98.5 272,-128.5 372,-128.5 372,-98.5 272,-98.5"/>
<text text-anchor="start" x="280" y="-116.5" font-family="Helvetica,sans-Serif" font-size="10.00" fill="#000000">amr_wind::actuator</text>
<text text-anchor="middle" x="322" y="-105.5" font-family="Helvetica,sans-Serif" font-size="10.00" fill="#000000">::TurbineFast</text>
</a>
</g>
</g>
<!-- Node1&#45;&gt;Node2 -->
<g id="edge2" class="edge">
<title>Node1&#45;&gt;Node2</title>
<path fill="none" stroke="#191970" d="M246.5111,-113.5C255.0133,-113.5 263.6736,-113.5 271.9516,-113.5"/>
<polygon fill="#191970" stroke="#191970" points="246.255,-110.0001 236.255,-113.5 246.2549,-117.0001 246.255,-110.0001"/>
</g>
<!-- Node4 -->
<g id="node5" class="node">
<title>Node4</title>
<g id="a_node5"><a xlink:href="structamr__wind_1_1actuator_1_1_fixed_wing.html" target="_top" xlink:title="amr_wind::actuator\l::FixedWing">
<polygon fill="#ffffff" stroke="#000000" points="272,-49.5 272,-79.5 372,-79.5 372,-49.5 272,-49.5"/>
<text text-anchor="start" x="280" y="-67.5" font-family="Helvetica,sans-Serif" font-size="10.00" fill="#000000">amr_wind::actuator</text>
<text text-anchor="middle" x="322" y="-56.5" font-family="Helvetica,sans-Serif" font-size="10.00" fill="#000000">::FixedWing</text>
</a>
</g>
</g>
<!-- Node3&#45;&gt;Node4 -->
<g id="edge4" class="edge">
<title>Node3&#45;&gt;Node4</title>
<path fill="none" stroke="#191970" d="M246.5111,-64.5C255.0133,-64.5 263.6736,-64.5 271.9516,-64.5"/>
<polygon fill="#191970" stroke="#191970" points="246.255,-61.0001 236.255,-64.5 246.2549,-68.0001 246.255,-61.0001"/>
</g>
<!-- Node5 -->
<g id="node6" class="node">
<title>Node5</title>
<g id="a_node6"><a xlink:href="structamr__wind_1_1actuator_1_1_flat_plate.html" target="_top" xlink:title="amr_wind::actuator\l::FlatPlate">
<polygon fill="#ffffff" stroke="#000000" points="272,-.5 272,-30.5 372,-30.5 372,-.5 272,-.5"/>
<text text-anchor="start" x="280" y="-18.5" font-family="Helvetica,sans-Serif" font-size="10.00" fill="#000000">amr_wind::actuator</text>
<text text-anchor="middle" x="322" y="-7.5" font-family="Helvetica,sans-Serif" font-size="10.00" fill="#000000">::FlatPlate</text>
</a>
</g>
</g>
<!-- Node3&#45;&gt;Node5 -->
<g id="edge5" class="edge">
<title>Node3&#45;&gt;Node5</title>
<path fill="none" stroke="#191970" d="M237.4455,-45.9645C251.4906,-40.9041 266.5389,-35.4823 279.9901,-30.6359"/>
<polygon fill="#191970" stroke="#191970" points="236.1358,-42.7161 227.9142,-49.3986 238.5086,-49.3016 236.1358,-42.7161"/>
</g>
</g>
</svg>
