<?xml version="1.0" encoding="UTF-8" standalone="no"?>
<!DOCTYPE svg PUBLIC "-//W3C//DTD SVG 1.1//EN"
 "http://www.w3.org/Graphics/SVG/1.1/DTD/svg11.dtd">
<!-- Generated by graphviz version 2.40.1 (20161225.0304)
 -->
<!-- Title: amr_wind::actuator::WingType Pages: 1 -->
<svg width="226pt" height="173pt"
 viewBox="0.00 0.00 226.00 173.00" xmlns="http://www.w3.org/2000/svg" xmlns:xlink="http://www.w3.org/1999/xlink">
<g id="graph0" class="graph" transform="scale(1 1) rotate(0) translate(4 169)">
<title>amr_wind::actuator::WingType</title>
<polygon fill="#ffffff" stroke="transparent" points="-4,4 -4,-169 222,-169 222,4 -4,4"/>
<!-- Node0 -->
<g id="node1" class="node">
<title>Node0</title>
<polygon fill="#bfbfbf" stroke="#000000" points="59,-67.5 59,-97.5 159,-97.5 159,-67.5 59,-67.5"/>
<text text-anchor="start" x="67" y="-85.5" font-family="Helvetica,sans-Serif" font-size="10.00" fill="#000000">amr_wind::actuator</text>
<text text-anchor="middle" x="109" y="-74.5" font-family="Helvetica,sans-Serif" font-size="10.00" fill="#000000">::WingType</text>
</g>
<!-- Node2 -->
<g id="node3" class="node">
<title>Node2</title>
<g id="a_node3"><a xlink:href="structamr__wind_1_1actuator_1_1_fixed_wing.html" target="_top" xlink:title="amr_wind::actuator\l::FixedWing">
<polygon fill="#ffffff" stroke="#000000" points="0,-.5 0,-30.5 100,-30.5 100,-.5 0,-.5"/>
<text text-anchor="start" x="8" y="-18.5" font-family="Helvetica,sans-Serif" font-size="10.00" fill="#000000">amr_wind::actuator</text>
<text text-anchor="middle" x="50" y="-7.5" font-family="Helvetica,sans-Serif" font-size="10.00" fill="#000000">::FixedWing</text>
</a>
</g>
</g>
<!-- Node0&#45;&gt;Node2 -->
<g id="edge2" class="edge">
<title>Node0&#45;&gt;Node2</title>
<path fill="none" stroke="#191970" d="M88.8682,-59.6385C80.4381,-50.0653 70.869,-39.1987 63.335,-30.6432"/>
<polygon fill="#191970" stroke="#191970" points="86.3764,-62.1048 95.612,-67.2967 91.6299,-57.4786 86.3764,-62.1048"/>
</g>
<!-- Node3 -->
<g id="node4" class="node">
<title>Node3</title>
<g id="a_node4"><a xlink:href="structamr__wind_1_1actuator_1_1_flat_plate.html" target="_top" xlink:title="amr_wind::actuator\l::FlatPlate">
<polygon fill="#ffffff" stroke="#000000" points="118,-.5 118,-30.5 218,-30.5 218,-.5 118,-.5"/>
<text text-anchor="start" x="126" y="-18.5" font-family="Helvetica,sans-Serif" font-size="10.00" fill="#000000">amr_wind::actuator</text>
<text text-anchor="middle" x="168" y="-7.5" font-family="Helvetica,sans-Serif" font-size="10.00" fill="#000000">::FlatPlate</text>
</a>
</g>
</g>
<!-- Node0&#45;&gt;Node3 -->
<g id="edge3" class="edge">
<title>Node0&#45;&gt;Node3</title>
<path fill="none" stroke="#191970" d="M129.1318,-59.6385C137.5619,-50.0653 147.131,-39.1987 154.665,-30.6432"/>
<polygon fill="#191970" stroke="#191970" points="126.3701,-57.4786 122.388,-67.2967 131.6236,-62.1048 126.3701,-57.4786"/>
</g>
<!-- Node1 -->
<g id="node2" class="node">
<title>Node1</title>
<g id="a_node2"><a xlink:href="structamr__wind_1_1actuator_1_1_actuator_type.html" target="_top" xlink:title="Abstract representation of an actuator type. ">
<polygon fill="#ffffff" stroke="#000000" points="59,-134.5 59,-164.5 159,-164.5 159,-134.5 59,-134.5"/>
<text text-anchor="start" x="67" y="-152.5" font-family="Helvetica,sans-Serif" font-size="10.00" fill="#000000">amr_wind::actuator</text>
<text text-anchor="middle" x="109" y="-141.5" font-family="Helvetica,sans-Serif" font-size="10.00" fill="#000000">::ActuatorType</text>
</a>
</g>
</g>
<!-- Node1&#45;&gt;Node0 -->
<g id="edge1" class="edge">
<title>Node1&#45;&gt;Node0</title>
<path fill="none" stroke="#191970" d="M109,-124.0249C109,-115.128 109,-105.4287 109,-97.6432"/>
<polygon fill="#191970" stroke="#191970" points="105.5001,-124.2966 109,-134.2967 112.5001,-124.2967 105.5001,-124.2966"/>
</g>
</g>
</svg>
