<?xml version="1.0" encoding="UTF-8" standalone="no"?>
<!DOCTYPE svg PUBLIC "-//W3C//DTD SVG 1.1//EN"
 "http://www.w3.org/Graphics/SVG/1.1/DTD/svg11.dtd">
<!-- Generated by graphviz version 2.40.1 (20161225.0304)
 -->
<!-- Title: amr_wind::pde::ScalarTransport Pages: 1 -->
<svg width="340pt" height="218pt"
 viewBox="0.00 0.00 340.00 218.00" xmlns="http://www.w3.org/2000/svg" xmlns:xlink="http://www.w3.org/1999/xlink">
<g id="graph0" class="graph" transform="scale(1 1) rotate(0) translate(4 214)">
<title>amr_wind::pde::ScalarTransport</title>
<polygon fill="#ffffff" stroke="transparent" points="-4,4 -4,-214 336,-214 336,4 -4,4"/>
<!-- Node0 -->
<g id="node1" class="node">
<title>Node0</title>
<polygon fill="#bfbfbf" stroke="#000000" points="0,-95.5 0,-114.5 155,-114.5 155,-95.5 0,-95.5"/>
<text text-anchor="middle" x="77.5" y="-102.5" font-family="Helvetica,sans-Serif" font-size="10.00" fill="#000000">amr_wind::pde::ScalarTransport</text>
</g>
<!-- Node1 -->
<g id="node2" class="node">
<title>Node1</title>
<g id="a_node2"><a xlink:href="structamr__wind_1_1pde_1_1_density.html" target="_top" xlink:title="amr_wind::pde::Density">
<polygon fill="#ffffff" stroke="#000000" points="201.5,-190.5 201.5,-209.5 321.5,-209.5 321.5,-190.5 201.5,-190.5"/>
<text text-anchor="middle" x="261.5" y="-197.5" font-family="Helvetica,sans-Serif" font-size="10.00" fill="#000000">amr_wind::pde::Density</text>
</a>
</g>
</g>
<!-- Node0&#45;&gt;Node1 -->
<g id="edge1" class="edge">
<title>Node0&#45;&gt;Node1</title>
<path fill="none" stroke="#191970" d="M97.0808,-121.0449C118.8131,-138.1264 155.5178,-164.8711 191,-181 199.1934,-184.7244 208.2648,-187.8444 217.0971,-190.4088"/>
<polygon fill="#191970" stroke="#191970" points="98.9917,-118.0919 88.993,-114.5878 94.6242,-123.5623 98.9917,-118.0919"/>
</g>
<!-- Node2 -->
<g id="node3" class="node">
<title>Node2</title>
<g id="a_node3"><a xlink:href="structamr__wind_1_1pde_1_1_levelset.html" target="_top" xlink:title="Characteristics of Levelset transport equation system. ">
<polygon fill="#ffffff" stroke="#000000" points="200,-152.5 200,-171.5 323,-171.5 323,-152.5 200,-152.5"/>
<text text-anchor="middle" x="261.5" y="-159.5" font-family="Helvetica,sans-Serif" font-size="10.00" fill="#000000">amr_wind::pde::Levelset</text>
</a>
</g>
</g>
<!-- Node0&#45;&gt;Node2 -->
<g id="edge2" class="edge">
<title>Node0&#45;&gt;Node2</title>
<path fill="none" stroke="#191970" d="M114.0855,-117.8677C136.2394,-125.5047 165.1231,-135.1889 191,-143 201.8006,-146.2602 213.6123,-149.55 224.4268,-152.4548"/>
<polygon fill="#191970" stroke="#191970" points="115.01,-114.4839 104.4152,-114.5169 112.7181,-121.0981 115.01,-114.4839"/>
</g>
<!-- Node3 -->
<g id="node4" class="node">
<title>Node3</title>
<g id="a_node4"><a xlink:href="structamr__wind_1_1pde_1_1_s_d_r.html" target="_top" xlink:title="Characteristics of SDR transport equation. ">
<polygon fill="#ffffff" stroke="#000000" points="207.5,-114.5 207.5,-133.5 315.5,-133.5 315.5,-114.5 207.5,-114.5"/>
<text text-anchor="middle" x="261.5" y="-121.5" font-family="Helvetica,sans-Serif" font-size="10.00" fill="#000000">amr_wind::pde::SDR</text>
</a>
</g>
</g>
<!-- Node0&#45;&gt;Node3 -->
<g id="edge3" class="edge">
<title>Node0&#45;&gt;Node3</title>
<path fill="none" stroke="#191970" d="M165.6144,-114.0988C179.8836,-115.5722 194.2778,-117.0586 207.4205,-118.4157"/>
<polygon fill="#191970" stroke="#191970" points="165.5725,-110.5759 155.2659,-113.0302 164.8534,-117.5389 165.5725,-110.5759"/>
</g>
<!-- Node4 -->
<g id="node5" class="node">
<title>Node4</title>
<g id="a_node5"><a xlink:href="structamr__wind_1_1pde_1_1_temperature.html" target="_top" xlink:title="Characteristics of temperature transport equation. ">
<polygon fill="#ffffff" stroke="#000000" points="191,-76.5 191,-95.5 332,-95.5 332,-76.5 191,-76.5"/>
<text text-anchor="middle" x="261.5" y="-83.5" font-family="Helvetica,sans-Serif" font-size="10.00" fill="#000000">amr_wind::pde::Temperature</text>
</a>
</g>
</g>
<!-- Node0&#45;&gt;Node4 -->
<g id="edge4" class="edge">
<title>Node0&#45;&gt;Node4</title>
<path fill="none" stroke="#191970" d="M165.2545,-95.9384C173.7976,-95.0562 182.3896,-94.169 190.735,-93.3073"/>
<polygon fill="#191970" stroke="#191970" points="164.8534,-92.4611 155.2659,-96.9698 165.5725,-99.4241 164.8534,-92.4611"/>
</g>
<!-- Node5 -->
<g id="node6" class="node">
<title>Node5</title>
<g id="a_node6"><a xlink:href="structamr__wind_1_1pde_1_1_t_k_e.html" target="_top" xlink:title="Characteristics of TKE transport equation. ">
<polygon fill="#ffffff" stroke="#000000" points="208.5,-38.5 208.5,-57.5 314.5,-57.5 314.5,-38.5 208.5,-38.5"/>
<text text-anchor="middle" x="261.5" y="-45.5" font-family="Helvetica,sans-Serif" font-size="10.00" fill="#000000">amr_wind::pde::TKE</text>
</a>
</g>
</g>
<!-- Node0&#45;&gt;Node5 -->
<g id="edge5" class="edge">
<title>Node0&#45;&gt;Node5</title>
<path fill="none" stroke="#191970" d="M114.0855,-92.1323C136.2394,-84.4953 165.1231,-74.8111 191,-67 201.8006,-63.7398 213.6123,-60.45 224.4268,-57.5452"/>
<polygon fill="#191970" stroke="#191970" points="112.7181,-88.9019 104.4152,-95.4831 115.01,-95.5161 112.7181,-88.9019"/>
</g>
<!-- Node6 -->
<g id="node7" class="node">
<title>Node6</title>
<g id="a_node7"><a xlink:href="structamr__wind_1_1pde_1_1_v_o_f.html" target="_top" xlink:title="amr_wind::pde::VOF">
<polygon fill="#ffffff" stroke="#000000" points="208,-.5 208,-19.5 315,-19.5 315,-.5 208,-.5"/>
<text text-anchor="middle" x="261.5" y="-7.5" font-family="Helvetica,sans-Serif" font-size="10.00" fill="#000000">amr_wind::pde::VOF</text>
</a>
</g>
</g>
<!-- Node0&#45;&gt;Node6 -->
<g id="edge6" class="edge">
<title>Node0&#45;&gt;Node6</title>
<path fill="none" stroke="#191970" d="M97.0808,-88.9551C118.8131,-71.8736 155.5178,-45.1289 191,-29 199.1934,-25.2756 208.2648,-22.1556 217.0971,-19.5912"/>
<polygon fill="#191970" stroke="#191970" points="94.6242,-86.4377 88.993,-95.4122 98.9917,-91.9081 94.6242,-86.4377"/>
</g>
</g>
</svg>
