<?xml version="1.0" encoding="UTF-8" standalone="no"?>
<!DOCTYPE svg PUBLIC "-//W3C//DTD SVG 1.1//EN"
 "http://www.w3.org/Graphics/SVG/1.1/DTD/svg11.dtd">
<!-- Generated by graphviz version 2.40.1 (20161225.0304)
 -->
<!-- Title: amr_wind::actuator::ActInfo Pages: 1 -->
<svg width="196pt" height="251pt"
 viewBox="0.00 0.00 195.50 251.00" xmlns="http://www.w3.org/2000/svg" xmlns:xlink="http://www.w3.org/1999/xlink">
<g id="graph0" class="graph" transform="scale(1 1) rotate(0) translate(4 247)">
<title>amr_wind::actuator::ActInfo</title>
<polygon fill="#ffffff" stroke="transparent" points="-4,4 -4,-247 191.5,-247 191.5,4 -4,4"/>
<!-- Node2 -->
<g id="node1" class="node">
<title>Node2</title>
<polygon fill="#bfbfbf" stroke="#000000" points="40,-.5 40,-30.5 140,-30.5 140,-.5 40,-.5"/>
<text text-anchor="start" x="48" y="-18.5" font-family="Helvetica,sans-Serif" font-size="10.00" fill="#000000">amr_wind::actuator</text>
<text text-anchor="middle" x="90" y="-7.5" font-family="Helvetica,sans-Serif" font-size="10.00" fill="#000000">::ActInfo</text>
</g>
<!-- Node3 -->
<g id="node2" class="node">
<title>Node3</title>
<polygon fill="#ffffff" stroke="#bfbfbf" points="8,-78.5 8,-97.5 86,-97.5 86,-78.5 8,-78.5"/>
<text text-anchor="middle" x="47" y="-85.5" font-family="Helvetica,sans-Serif" font-size="10.00" fill="#000000">std::set&lt; int &gt;</text>
</g>
<!-- Node3&#45;&gt;Node2 -->
<g id="edge1" class="edge">
<title>Node3&#45;&gt;Node2</title>
<path fill="none" stroke="#9a32cd" stroke-dasharray="5,2" d="M57.9948,-69.4623C65.1278,-57.4356 74.3063,-41.9602 81.0038,-30.668"/>
<polygon fill="#9a32cd" stroke="#9a32cd" points="54.8901,-67.8359 52.7992,-78.2223 60.9108,-71.4068 54.8901,-67.8359"/>
<text text-anchor="middle" x="84" y="-52" font-family="Helvetica,sans-Serif" font-size="10.00" fill="#000000"> procs</text>
</g>
<!-- Node4 -->
<g id="node3" class="node">
<title>Node4</title>
<g id="a_node3"><a xlink:title="STL class. ">
<polygon fill="#ffffff" stroke="#bfbfbf" points="0,-151 0,-170 74,-170 74,-151 0,-151"/>
<text text-anchor="middle" x="37" y="-158" font-family="Helvetica,sans-Serif" font-size="10.00" fill="#000000">std::set&lt; K &gt;</text>
</a>
</g>
</g>
<!-- Node4&#45;&gt;Node3 -->
<g id="edge2" class="edge">
<title>Node4&#45;&gt;Node3</title>
<path fill="none" stroke="#ffa500" stroke-dasharray="5,2" d="M39.7441,-140.6054C41.6726,-126.6237 44.1676,-108.5346 45.6727,-97.6228"/>
<polygon fill="#ffa500" stroke="#ffa500" points="36.2479,-140.3379 38.3486,-150.7223 43.1823,-141.2944 36.2479,-140.3379"/>
<text text-anchor="middle" x="59" y="-119" font-family="Helvetica,sans-Serif" font-size="10.00" fill="#000000"> &lt; int &gt;</text>
</g>
<!-- Node5 -->
<g id="node4" class="node">
<title>Node5</title>
<polygon fill="#ffffff" stroke="#bfbfbf" points="22.5,-223.5 22.5,-242.5 51.5,-242.5 51.5,-223.5 22.5,-223.5"/>
<text text-anchor="middle" x="37" y="-230.5" font-family="Helvetica,sans-Serif" font-size="10.00" fill="#000000">K</text>
</g>
<!-- Node5&#45;&gt;Node4 -->
<g id="edge3" class="edge">
<title>Node5&#45;&gt;Node4</title>
<path fill="none" stroke="#9a32cd" stroke-dasharray="5,2" d="M37,-213.1054C37,-199.1237 37,-181.0346 37,-170.1228"/>
<polygon fill="#9a32cd" stroke="#9a32cd" points="33.5001,-213.2223 37,-223.2223 40.5001,-213.2224 33.5001,-213.2223"/>
<text text-anchor="middle" x="49.5" y="-197" font-family="Helvetica,sans-Serif" font-size="10.00" fill="#000000"> keys</text>
</g>
<!-- Node6 -->
<g id="node5" class="node">
<title>Node6</title>
<g id="a_node5"><a xlink:title="STL class. ">
<polygon fill="#ffffff" stroke="#bfbfbf" points="108,-78.5 108,-97.5 168,-97.5 168,-78.5 108,-78.5"/>
<text text-anchor="middle" x="138" y="-85.5" font-family="Helvetica,sans-Serif" font-size="10.00" fill="#000000">std::string</text>
</a>
</g>
</g>
<!-- Node6&#45;&gt;Node2 -->
<g id="edge4" class="edge">
<title>Node6&#45;&gt;Node2</title>
<path fill="none" stroke="#9a32cd" stroke-dasharray="5,2" d="M125.9626,-69.8185C117.9674,-57.7425 107.5925,-42.072 100.0423,-30.668"/>
<polygon fill="#9a32cd" stroke="#9a32cd" points="123.0877,-71.8163 131.5265,-78.2223 128.9244,-67.952 123.0877,-71.8163"/>
<text text-anchor="middle" x="131" y="-52" font-family="Helvetica,sans-Serif" font-size="10.00" fill="#000000"> label</text>
</g>
<!-- Node7 -->
<g id="node6" class="node">
<title>Node7</title>
<g id="a_node6"><a xlink:title="STL class. ">
<polygon fill="#ffffff" stroke="#bfbfbf" points="92.5,-145.5 92.5,-175.5 187.5,-175.5 187.5,-145.5 92.5,-145.5"/>
<text text-anchor="start" x="100.5" y="-163.5" font-family="Helvetica,sans-Serif" font-size="10.00" fill="#000000">std::basic_string&lt;</text>
<text text-anchor="middle" x="140" y="-152.5" font-family="Helvetica,sans-Serif" font-size="10.00" fill="#000000"> char &gt;</text>
</a>
</g>
</g>
<!-- Node7&#45;&gt;Node6 -->
<g id="edge5" class="edge">
<title>Node7&#45;&gt;Node6</title>
<path fill="none" stroke="#191970" d="M139.305,-135.305C138.9496,-122.424 138.5375,-107.4836 138.273,-97.8957"/>
<polygon fill="#191970" stroke="#191970" points="135.8111,-135.5783 139.5856,-145.478 142.8084,-135.3852 135.8111,-135.5783"/>
</g>
</g>
</svg>
