<?xml version="1.0" encoding="UTF-8" standalone="no"?>
<!DOCTYPE svg PUBLIC "-//W3C//DTD SVG 1.1//EN"
 "http://www.w3.org/Graphics/SVG/1.1/DTD/svg11.dtd">
<!-- Generated by graphviz version 2.40.1 (20161225.0304)
 -->
<!-- Title: amr_wind::utils::Slice&lt; T &gt; Pages: 1 -->
<svg width="142pt" height="106pt"
 viewBox="0.00 0.00 142.00 106.00" xmlns="http://www.w3.org/2000/svg" xmlns:xlink="http://www.w3.org/1999/xlink">
<g id="graph0" class="graph" transform="scale(1 1) rotate(0) translate(4 102)">
<title>amr_wind::utils::Slice&lt; T &gt;</title>
<polygon fill="#ffffff" stroke="transparent" points="-4,4 -4,-102 138,-102 138,4 -4,4"/>
<!-- Node4 -->
<g id="node1" class="node">
<title>Node4</title>
<polygon fill="#bfbfbf" stroke="#000000" points="0,-.5 0,-19.5 134,-19.5 134,-.5 0,-.5"/>
<text text-anchor="middle" x="67" y="-7.5" font-family="Helvetica,sans-Serif" font-size="10.00" fill="#000000">amr_wind::utils::Slice&lt; T &gt;</text>
</g>
<!-- Node5 -->
<g id="node2" class="node">
<title>Node5</title>
<polygon fill="#ffffff" stroke="#bfbfbf" points="52.5,-78.5 52.5,-97.5 81.5,-97.5 81.5,-78.5 52.5,-78.5"/>
<text text-anchor="middle" x="67" y="-85.5" font-family="Helvetica,sans-Serif" font-size="10.00" fill="#000000">T</text>
</g>
<!-- Node5&#45;&gt;Node4 -->
<g id="edge1" class="edge">
<title>Node5&#45;&gt;Node4</title>
<path fill="none" stroke="#9a32cd" stroke-dasharray="5,2" d="M67,-68.2866C67,-52.7395 67,-31.7276 67,-19.6426"/>
<polygon fill="#9a32cd" stroke="#9a32cd" points="63.5001,-68.4356 67,-78.4357 70.5001,-68.4357 63.5001,-68.4356"/>
<text text-anchor="middle" x="88.5" y="-52" font-family="Helvetica,sans-Serif" font-size="10.00" fill="#000000"> ptr_begin</text>
<text text-anchor="middle" x="88.5" y="-41" font-family="Helvetica,sans-Serif" font-size="10.00" fill="#000000">ptr_end</text>
</g>
</g>
</svg>
