<?xml version="1.0" encoding="UTF-8" standalone="no"?>
<!DOCTYPE svg PUBLIC "-//W3C//DTD SVG 1.1//EN"
 "http://www.w3.org/Graphics/SVG/1.1/DTD/svg11.dtd">
<!-- Generated by graphviz version 2.40.1 (20161225.0304)
 -->
<!-- Title: amr_wind::actuator::ops::ProcessOutputsOp&lt; ActTrait, SrcTrait, typename &gt; Pages: 1 -->
<svg width="184pt" height="139pt"
 viewBox="0.00 0.00 184.00 139.00" xmlns="http://www.w3.org/2000/svg" xmlns:xlink="http://www.w3.org/1999/xlink">
<g id="graph0" class="graph" transform="scale(1 1) rotate(0) translate(4 135)">
<title>amr_wind::actuator::ops::ProcessOutputsOp&lt; ActTrait, SrcTrait, typename &gt;</title>
<polygon fill="#ffffff" stroke="transparent" points="-4,4 -4,-135 180,-135 180,4 -4,4"/>
<!-- Node0 -->
<g id="node1" class="node">
<title>Node0</title>
<polygon fill="#bfbfbf" stroke="#000000" points="0,-89.5 0,-130.5 158,-130.5 158,-89.5 0,-89.5"/>
<text text-anchor="start" x="8" y="-118.5" font-family="Helvetica,sans-Serif" font-size="10.00" fill="#000000">amr_wind::actuator</text>
<text text-anchor="start" x="8" y="-107.5" font-family="Helvetica,sans-Serif" font-size="10.00" fill="#000000">::ops::ProcessOutputsOp</text>
<text text-anchor="middle" x="79" y="-96.5" font-family="Helvetica,sans-Serif" font-size="10.00" fill="#000000">&lt; ActTrait, SrcTrait, typename &gt;</text>
</g>
<!-- Node1 -->
<g id="node2" class="node">
<title>Node1</title>
<g id="a_node2"><a xlink:href="structamr__wind_1_1actuator_1_1ops_1_1_process_outputs_op.html" target="_top" xlink:title="amr_wind::actuator\l::ops::ProcessOutputsOp\l\&lt; ActTrait, SrcTrait \&gt;">
<polygon fill="#ffffff" stroke="#000000" points="15,-.5 15,-41.5 143,-41.5 143,-.5 15,-.5"/>
<text text-anchor="start" x="23" y="-29.5" font-family="Helvetica,sans-Serif" font-size="10.00" fill="#000000">amr_wind::actuator</text>
<text text-anchor="start" x="23" y="-18.5" font-family="Helvetica,sans-Serif" font-size="10.00" fill="#000000">::ops::ProcessOutputsOp</text>
<text text-anchor="middle" x="79" y="-7.5" font-family="Helvetica,sans-Serif" font-size="10.00" fill="#000000">&lt; ActTrait, SrcTrait &gt;</text>
</a>
</g>
</g>
<!-- Node0&#45;&gt;Node1 -->
<g id="edge1" class="edge">
<title>Node0&#45;&gt;Node1</title>
<path fill="none" stroke="#ffa500" stroke-dasharray="5,2" d="M79,-79.344C79,-66.8522 79,-52.7439 79,-41.5301"/>
<polygon fill="#ffa500" stroke="#ffa500" points="75.5001,-79.3579 79,-89.3579 82.5001,-79.3579 75.5001,-79.3579"/>
<text text-anchor="middle" x="127.5" y="-63" font-family="Helvetica,sans-Serif" font-size="10.00" fill="#000000"> &lt; ActTrait, SrcTrait &gt;</text>
</g>
</g>
</svg>
