<?xml version="1.0" encoding="UTF-8" standalone="no"?>
<!DOCTYPE svg PUBLIC "-//W3C//DTD SVG 1.1//EN"
 "http://www.w3.org/Graphics/SVG/1.1/DTD/svg11.dtd">
<!-- Generated by graphviz version 2.40.1 (20161225.0304)
 -->
<!-- Title: amr_wind::utils::Slice&lt; T &gt; Pages: 1 -->
<svg width="423pt" height="137pt"
 viewBox="0.00 0.00 423.00 137.00" xmlns="http://www.w3.org/2000/svg" xmlns:xlink="http://www.w3.org/1999/xlink">
<g id="graph0" class="graph" transform="scale(1 1) rotate(0) translate(4 133)">
<title>amr_wind::utils::Slice&lt; T &gt;</title>
<polygon fill="#ffffff" stroke="transparent" points="-4,4 -4,-133 419,-133 419,4 -4,4"/>
<!-- Node0 -->
<g id="node1" class="node">
<title>Node0</title>
<polygon fill="#bfbfbf" stroke="#000000" points="0,-55 0,-74 134,-74 134,-55 0,-55"/>
<text text-anchor="middle" x="67" y="-62" font-family="Helvetica,sans-Serif" font-size="10.00" fill="#000000">amr_wind::utils::Slice&lt; T &gt;</text>
</g>
<!-- Node1 -->
<g id="node2" class="node">
<title>Node1</title>
<g id="a_node2"><a xlink:href="structamr__wind_1_1utils_1_1_slice.html" target="_top" xlink:title="amr_wind::utils::Slice\l\&lt; amrex::Real \&gt;">
<polygon fill="#ffffff" stroke="#000000" points="295.5,-98.5 295.5,-128.5 405.5,-128.5 405.5,-98.5 295.5,-98.5"/>
<text text-anchor="start" x="303.5" y="-116.5" font-family="Helvetica,sans-Serif" font-size="10.00" fill="#000000">amr_wind::utils::Slice</text>
<text text-anchor="middle" x="350.5" y="-105.5" font-family="Helvetica,sans-Serif" font-size="10.00" fill="#000000">&lt; amrex::Real &gt;</text>
</a>
</g>
</g>
<!-- Node0&#45;&gt;Node1 -->
<g id="edge1" class="edge">
<title>Node0&#45;&gt;Node1</title>
<path fill="none" stroke="#ffa500" stroke-dasharray="5,2" d="M131.1874,-75.8626C138.2101,-77.0952 145.2549,-78.3272 152,-79.5 200.3978,-87.9152 255.4621,-97.3347 295.2974,-104.1212"/>
<polygon fill="#ffa500" stroke="#ffa500" points="131.4066,-72.3475 120.9516,-74.063 130.1944,-79.2418 131.4066,-72.3475"/>
<text text-anchor="middle" x="210" y="-101.5" font-family="Helvetica,sans-Serif" font-size="10.00" fill="#000000"> &lt; amrex::Real &gt;</text>
</g>
<!-- Node2 -->
<g id="node3" class="node">
<title>Node2</title>
<g id="a_node3"><a xlink:href="structamr__wind_1_1utils_1_1_slice.html" target="_top" xlink:title="amr_wind::utils::Slice\l\&lt; amr_wind::vs::Vector \&gt;">
<polygon fill="#ffffff" stroke="#000000" points="286.5,-49.5 286.5,-79.5 414.5,-79.5 414.5,-49.5 286.5,-49.5"/>
<text text-anchor="start" x="294.5" y="-67.5" font-family="Helvetica,sans-Serif" font-size="10.00" fill="#000000">amr_wind::utils::Slice</text>
<text text-anchor="middle" x="350.5" y="-56.5" font-family="Helvetica,sans-Serif" font-size="10.00" fill="#000000">&lt; amr_wind::vs::Vector &gt;</text>
</a>
</g>
</g>
<!-- Node0&#45;&gt;Node2 -->
<g id="edge2" class="edge">
<title>Node0&#45;&gt;Node2</title>
<path fill="none" stroke="#ffa500" stroke-dasharray="5,2" d="M144.3788,-64.5C188.8843,-64.5 244.1387,-64.5 286.2331,-64.5"/>
<polygon fill="#ffa500" stroke="#ffa500" points="144.1856,-61.0001 134.1855,-64.5 144.1855,-68.0001 144.1856,-61.0001"/>
<text text-anchor="middle" x="210" y="-67.5" font-family="Helvetica,sans-Serif" font-size="10.00" fill="#000000"> &lt; amr_wind::vs::Vector &gt;</text>
</g>
<!-- Node3 -->
<g id="node4" class="node">
<title>Node3</title>
<g id="a_node4"><a xlink:href="structamr__wind_1_1utils_1_1_slice.html" target="_top" xlink:title="amr_wind::utils::Slice\l\&lt; amr_wind::vs::Tensor \&gt;">
<polygon fill="#ffffff" stroke="#000000" points="286,-.5 286,-30.5 415,-30.5 415,-.5 286,-.5"/>
<text text-anchor="start" x="294" y="-18.5" font-family="Helvetica,sans-Serif" font-size="10.00" fill="#000000">amr_wind::utils::Slice</text>
<text text-anchor="middle" x="350.5" y="-7.5" font-family="Helvetica,sans-Serif" font-size="10.00" fill="#000000">&lt; amr_wind::vs::Tensor &gt;</text>
</a>
</g>
</g>
<!-- Node0&#45;&gt;Node3 -->
<g id="edge3" class="edge">
<title>Node0&#45;&gt;Node3</title>
<path fill="none" stroke="#ffa500" stroke-dasharray="5,2" d="M131.1874,-53.1374C138.2101,-51.9048 145.2549,-50.6728 152,-49.5 196.6087,-41.7436 246.8808,-33.1341 285.6715,-26.5194"/>
<polygon fill="#ffa500" stroke="#ffa500" points="130.1944,-49.7582 120.9516,-54.937 131.4066,-56.6525 130.1944,-49.7582"/>
<text text-anchor="middle" x="210" y="-52.5" font-family="Helvetica,sans-Serif" font-size="10.00" fill="#000000"> &lt; amr_wind::vs::Tensor &gt;</text>
</g>
</g>
</svg>
