<?xml version="1.0" encoding="UTF-8" standalone="no"?>
<!DOCTYPE svg PUBLIC "-//W3C//DTD SVG 1.1//EN"
 "http://www.w3.org/Graphics/SVG/1.1/DTD/svg11.dtd">
<!-- Generated by graphviz version 2.40.1 (20161225.0304)
 -->
<!-- Title: exw_fast::FastTurbine Pages: 1 -->
<svg width="502pt" height="194pt"
 viewBox="0.00 0.00 502.00 194.00" xmlns="http://www.w3.org/2000/svg" xmlns:xlink="http://www.w3.org/1999/xlink">
<g id="graph0" class="graph" transform="scale(1 1) rotate(0) translate(4 190)">
<title>exw_fast::FastTurbine</title>
<polygon fill="#ffffff" stroke="transparent" points="-4,4 -4,-190 498,-190 498,4 -4,4"/>
<!-- Node1 -->
<g id="node1" class="node">
<title>Node1</title>
<polygon fill="#bfbfbf" stroke="#000000" points="380,-92.5 380,-111.5 494,-111.5 494,-92.5 380,-92.5"/>
<text text-anchor="middle" x="437" y="-99.5" font-family="Helvetica,sans-Serif" font-size="10.00" fill="#000000">exw_fast::FastTurbine</text>
</g>
<!-- Node2 -->
<g id="node2" class="node">
<title>Node2</title>
<g id="a_node2"><a xlink:href="structexw__fast_1_1_op_f_m___output_type.html" target="_top" xlink:title="exw_fast::OpFM_OutputType">
<polygon fill="#ffffff" stroke="#000000" points="132,-166.5 132,-185.5 278,-185.5 278,-166.5 132,-166.5"/>
<text text-anchor="middle" x="205" y="-173.5" font-family="Helvetica,sans-Serif" font-size="10.00" fill="#000000">exw_fast::OpFM_OutputType</text>
</a>
</g>
</g>
<!-- Node2&#45;&gt;Node1 -->
<g id="edge1" class="edge">
<title>Node2&#45;&gt;Node1</title>
<path fill="none" stroke="#9a32cd" stroke-dasharray="5,2" d="M271.359,-164.5166C299.7345,-158.655 332.9498,-150.5116 362,-140 383.1378,-132.3515 405.985,-120.1537 420.8357,-111.6479"/>
<polygon fill="#9a32cd" stroke="#9a32cd" points="270.6506,-161.0889 261.5388,-166.4949 272.0331,-167.9511 270.6506,-161.0889"/>
<text text-anchor="middle" x="329" y="-161" font-family="Helvetica,sans-Serif" font-size="10.00" fill="#000000"> from_cfd</text>
</g>
<!-- Node3 -->
<g id="node3" class="node">
<title>Node3</title>
<g id="a_node3"><a xlink:href="structexw__fast_1_1_s_c___output_type.html" target="_top" xlink:title="exw_fast::SC_OutputType">
<polygon fill="#ffffff" stroke="#000000" points="138.5,-128.5 138.5,-147.5 271.5,-147.5 271.5,-128.5 138.5,-128.5"/>
<text text-anchor="middle" x="205" y="-135.5" font-family="Helvetica,sans-Serif" font-size="10.00" fill="#000000">exw_fast::SC_OutputType</text>
</a>
</g>
</g>
<!-- Node3&#45;&gt;Node1 -->
<g id="edge2" class="edge">
<title>Node3&#45;&gt;Node1</title>
<path fill="none" stroke="#9a32cd" stroke-dasharray="5,2" d="M281.5845,-127.9765C307.1908,-124.4367 335.8616,-120.2687 362,-116 370.3664,-114.6337 379.2372,-113.0755 387.8371,-111.5068"/>
<polygon fill="#9a32cd" stroke="#9a32cd" points="280.9937,-124.5247 271.5624,-129.3518 281.9454,-131.4597 280.9937,-124.5247"/>
<text text-anchor="middle" x="329" y="-128" font-family="Helvetica,sans-Serif" font-size="10.00" fill="#000000"> from_sc</text>
</g>
<!-- Node4 -->
<g id="node4" class="node">
<title>Node4</title>
<g id="a_node4"><a xlink:href="structexw__fast_1_1_op_f_m___input_type.html" target="_top" xlink:title="exw_fast::OpFM_InputType">
<polygon fill="#ffffff" stroke="#000000" points="136,-90.5 136,-109.5 274,-109.5 274,-90.5 136,-90.5"/>
<text text-anchor="middle" x="205" y="-97.5" font-family="Helvetica,sans-Serif" font-size="10.00" fill="#000000">exw_fast::OpFM_InputType</text>
</a>
</g>
</g>
<!-- Node4&#45;&gt;Node1 -->
<g id="edge3" class="edge">
<title>Node4&#45;&gt;Node1</title>
<path fill="none" stroke="#9a32cd" stroke-dasharray="5,2" d="M284.3177,-100.6838C315.6648,-100.954 350.9959,-101.2586 379.7703,-101.5066"/>
<polygon fill="#9a32cd" stroke="#9a32cd" points="284.3232,-97.1838 274.2934,-100.5974 284.2628,-104.1835 284.3232,-97.1838"/>
<text text-anchor="middle" x="329" y="-104" font-family="Helvetica,sans-Serif" font-size="10.00" fill="#000000"> to_cfd</text>
</g>
<!-- Node5 -->
<g id="node5" class="node">
<title>Node5</title>
<g id="a_node5"><a xlink:title="STL class. ">
<polygon fill="#ffffff" stroke="#bfbfbf" points="175,-38.5 175,-57.5 235,-57.5 235,-38.5 175,-38.5"/>
<text text-anchor="middle" x="205" y="-45.5" font-family="Helvetica,sans-Serif" font-size="10.00" fill="#000000">std::string</text>
</a>
</g>
</g>
<!-- Node5&#45;&gt;Node1 -->
<g id="edge4" class="edge">
<title>Node5&#45;&gt;Node1</title>
<path fill="none" stroke="#9a32cd" stroke-dasharray="5,2" d="M245.522,-47.6455C277.7103,-48.3635 323.5462,-51.6343 362,-63 384.5186,-69.6558 408.1859,-83.2262 422.7696,-92.4681"/>
<polygon fill="#9a32cd" stroke="#9a32cd" points="245.2103,-44.1406 235.1595,-47.4919 245.1065,-51.1398 245.2103,-44.1406"/>
<text text-anchor="middle" x="329" y="-88" font-family="Helvetica,sans-Serif" font-size="10.00" fill="#000000"> tlabel</text>
<text text-anchor="middle" x="329" y="-77" font-family="Helvetica,sans-Serif" font-size="10.00" fill="#000000">input_file</text>
<text text-anchor="middle" x="329" y="-66" font-family="Helvetica,sans-Serif" font-size="10.00" fill="#000000">checkpoint_file</text>
</g>
<!-- Node6 -->
<g id="node6" class="node">
<title>Node6</title>
<g id="a_node6"><a xlink:title="STL class. ">
<polygon fill="#ffffff" stroke="#bfbfbf" points="0,-33 0,-63 95,-63 95,-33 0,-33"/>
<text text-anchor="start" x="8" y="-51" font-family="Helvetica,sans-Serif" font-size="10.00" fill="#000000">std::basic_string&lt;</text>
<text text-anchor="middle" x="47.5" y="-40" font-family="Helvetica,sans-Serif" font-size="10.00" fill="#000000"> char &gt;</text>
</a>
</g>
</g>
<!-- Node6&#45;&gt;Node5 -->
<g id="edge5" class="edge">
<title>Node6&#45;&gt;Node5</title>
<path fill="none" stroke="#191970" d="M105.4324,-48C128.9842,-48 155.2122,-48 174.8348,-48"/>
<polygon fill="#191970" stroke="#191970" points="105.1826,-44.5001 95.1826,-48 105.1826,-51.5001 105.1826,-44.5001"/>
</g>
<!-- Node7 -->
<g id="node7" class="node">
<title>Node7</title>
<g id="a_node7"><a xlink:href="structexw__fast_1_1_s_c___input_type.html" target="_top" xlink:title="exw_fast::SC_InputType">
<polygon fill="#ffffff" stroke="#000000" points="142.5,-.5 142.5,-19.5 267.5,-19.5 267.5,-.5 142.5,-.5"/>
<text text-anchor="middle" x="205" y="-7.5" font-family="Helvetica,sans-Serif" font-size="10.00" fill="#000000">exw_fast::SC_InputType</text>
</a>
</g>
</g>
<!-- Node7&#45;&gt;Node1 -->
<g id="edge6" class="edge">
<title>Node7&#45;&gt;Node1</title>
<path fill="none" stroke="#9a32cd" stroke-dasharray="5,2" d="M278.0991,-12.9714C305.4506,-16.2784 336.1361,-22.7125 362,-35 391.0178,-48.7858 417.0676,-77.3668 429.4253,-92.3532"/>
<polygon fill="#9a32cd" stroke="#9a32cd" points="278.1164,-9.4528 267.7967,-11.8514 277.3598,-16.4118 278.1164,-9.4528"/>
<text text-anchor="middle" x="329" y="-38" font-family="Helvetica,sans-Serif" font-size="10.00" fill="#000000"> to_sc</text>
</g>
</g>
</svg>
