<?xml version="1.0" encoding="UTF-8" standalone="no"?>
<!DOCTYPE svg PUBLIC "-//W3C//DTD SVG 1.1//EN"
 "http://www.w3.org/Graphics/SVG/1.1/DTD/svg11.dtd">
<!-- Generated by graphviz version 2.40.1 (20161225.0304)
 -->
<!-- Title: amr_wind::actuator::TurbineFastData Pages: 1 -->
<!--zoomable 482 -->
<svg id="main" version="1.1" xmlns="http://www.w3.org/2000/svg" xmlns:xlink="http://www.w3.org/1999/xlink" xml:space="preserve" onload="init(evt)">
<style type="text/css"><![CDATA[
.edge:hover path { stroke: red; }
.edge:hover polygon { stroke: red; fill: red; }
]]></style>
<script type="text/javascript"><![CDATA[
var edges = document.getElementsByTagName('g');
if (edges && edges.length) {
  for (var i=0;i<edges.length;i++) {
    if (edges[i].id.substr(0,4)=='edge') {
      edges[i].setAttribute('class','edge');
    }
  }
}
]]></script>
        <defs>
                <circle id="rim" cx="0" cy="0" r="7"/>
                <circle id="rim2" cx="0" cy="0" r="3.5"/>
                <g id="zoomPlus">
                        <use xlink:href="#rim" fill="#404040">
                                <set attributeName="fill" to="#808080" begin="zoomplus.mouseover" end="zoomplus.mouseout"/>
                        </use>
                        <path d="M-4,0h8M0,-4v8" fill="none" stroke="white" stroke-width="1.5" pointer-events="none"/>
                </g>
                <g id="zoomMin">
                        <use xlink:href="#rim" fill="#404040">
                                <set attributeName="fill" to="#808080" begin="zoomminus.mouseover" end="zoomminus.mouseout"/>
                        </use>
                        <path d="M-4,0h8" fill="none" stroke="white" stroke-width="1.5" pointer-events="none"/>
                </g>
                <g id="dirArrow">
                        <path fill="none" stroke="white" stroke-width="1.5" d="M0,-3.0v7 M-2.5,-0.5L0,-3.0L2.5,-0.5"/>
                </g>
               <g id="resetDef">
                       <use xlink:href="#rim2" fill="#404040">
                               <set attributeName="fill" to="#808080" begin="reset.mouseover" end="reset.mouseout"/>
                       </use>
               </g>
        </defs>

<script type="text/javascript">
var viewWidth = 1475;
var viewHeight = 482;
var sectionId = 'dynsection-1';
</script>
<script xlink:href="svgpan.js"/>
<svg id="graph" class="graph">
<g id="viewport">
<title>amr_wind::actuator::TurbineFastData</title>
<polygon fill="#ffffff" stroke="transparent" points="-4,4 -4,-478 1471,-478 1471,4 -4,4"/>
<!-- Node2 -->
<g id="node1" class="node">
<title>Node2</title>
<polygon fill="#bfbfbf" stroke="#000000" points="1367,-181.5 1367,-211.5 1467,-211.5 1467,-181.5 1367,-181.5"/>
<text text-anchor="start" x="1375" y="-199.5" font-family="Helvetica,sans-Serif" font-size="10.00" fill="#000000">amr_wind::actuator</text>
<text text-anchor="middle" x="1417" y="-188.5" font-family="Helvetica,sans-Serif" font-size="10.00" fill="#000000">::TurbineFastData</text>
</g>
<!-- Node3 -->
<g id="node2" class="node">
<title>Node3</title>
<g id="a_node2"><a xlink:href="structamr__wind_1_1actuator_1_1_turbine_base_data.html" target="_top" xlink:title="amr_wind::actuator\l::TurbineBaseData">
<polygon fill="#ffffff" stroke="#000000" points="1209,-298.5 1209,-328.5 1309,-328.5 1309,-298.5 1209,-298.5"/>
<text text-anchor="start" x="1217" y="-316.5" font-family="Helvetica,sans-Serif" font-size="10.00" fill="#000000">amr_wind::actuator</text>
<text text-anchor="middle" x="1259" y="-305.5" font-family="Helvetica,sans-Serif" font-size="10.00" fill="#000000">::TurbineBaseData</text>
</a>
</g>
</g>
<!-- Node3&#45;&gt;Node2 -->
<g id="edge1" class="edge">
<title>Node3&#45;&gt;Node2</title>
<path fill="none" stroke="#191970" d="M1287.6817,-292.261C1319.1138,-268.9854 1368.7499,-232.2295 1396.4955,-211.6837"/>
<polygon fill="#191970" stroke="#191970" points="1285.2859,-289.6799 1279.3323,-298.4438 1289.4517,-295.3055 1285.2859,-289.6799"/>
</g>
<!-- Node4 -->
<g id="node3" class="node">
<title>Node4</title>
<polygon fill="#ffffff" stroke="#bfbfbf" points="956,-298.5 956,-328.5 1101,-328.5 1101,-298.5 956,-298.5"/>
<text text-anchor="start" x="964" y="-316.5" font-family="Helvetica,sans-Serif" font-size="10.00" fill="#000000">std::vector&lt; amr_wind</text>
<text text-anchor="middle" x="1028.5" y="-305.5" font-family="Helvetica,sans-Serif" font-size="10.00" fill="#000000">::actuator::ComponentView &gt;</text>
</g>
<!-- Node4&#45;&gt;Node3 -->
<g id="edge2" class="edge">
<title>Node4&#45;&gt;Node3</title>
<path fill="none" stroke="#9a32cd" stroke-dasharray="5,2" d="M1111.1365,-313.5C1143.8648,-313.5 1180.4168,-313.5 1208.9905,-313.5"/>
<polygon fill="#9a32cd" stroke="#9a32cd" points="1111.1153,-310.0001 1101.1153,-313.5 1111.1152,-317.0001 1111.1153,-310.0001"/>
<text text-anchor="middle" x="1154" y="-316.5" font-family="Helvetica,sans-Serif" font-size="10.00" fill="#000000"> blades</text>
</g>
<!-- Node5 -->
<g id="node4" class="node">
<title>Node5</title>
<g id="a_node4"><a xlink:href="structamr__wind_1_1actuator_1_1_component_view.html" target="_top" xlink:title="amr_wind::actuator\l::ComponentView">
<polygon fill="#ffffff" stroke="#000000" points="690,-352.5 690,-382.5 790,-382.5 790,-352.5 690,-352.5"/>
<text text-anchor="start" x="698" y="-370.5" font-family="Helvetica,sans-Serif" font-size="10.00" fill="#000000">amr_wind::actuator</text>
<text text-anchor="middle" x="740" y="-359.5" font-family="Helvetica,sans-Serif" font-size="10.00" fill="#000000">::ComponentView</text>
</a>
</g>
</g>
<!-- Node5&#45;&gt;Node3 -->
<g id="edge17" class="edge">
<title>Node5&#45;&gt;Node3</title>
<path fill="none" stroke="#9a32cd" stroke-dasharray="5,2" d="M800.297,-365.1555C886.8198,-361.1371 1050.9833,-351.0737 1189,-328.5 1195.3782,-327.4568 1202.0534,-326.2185 1208.6418,-324.9074"/>
<polygon fill="#9a32cd" stroke="#9a32cd" points="799.9686,-361.6667 790.1374,-365.616 800.2856,-368.6595 799.9686,-361.6667"/>
<text text-anchor="middle" x="1028.5" y="-357.5" font-family="Helvetica,sans-Serif" font-size="10.00" fill="#000000"> tower</text>
</g>
<!-- Node5&#45;&gt;Node4 -->
<g id="edge3" class="edge">
<title>Node5&#45;&gt;Node4</title>
<path fill="none" stroke="#9a32cd" stroke-dasharray="5,2" d="M790.0213,-349.3931C798.2919,-346.8145 806.8325,-344.3984 815,-342.5 861.2726,-331.7447 914.1783,-324.5235 955.7478,-319.9769"/>
<polygon fill="#9a32cd" stroke="#9a32cd" points="788.9171,-346.0717 780.4751,-352.4736 791.0667,-352.7334 788.9171,-346.0717"/>
<text text-anchor="middle" x="876.5" y="-345.5" font-family="Helvetica,sans-Serif" font-size="10.00" fill="#000000"> elements</text>
</g>
<!-- Node6 -->
<g id="node5" class="node">
<title>Node6</title>
<g id="a_node5"><a xlink:href="structamr__wind_1_1utils_1_1_slice.html" target="_top" xlink:title="amr_wind::utils::Slice\l\&lt; amrex::Real \&gt;">
<polygon fill="#ffffff" stroke="#000000" points="419,-443.5 419,-473.5 529,-473.5 529,-443.5 419,-443.5"/>
<text text-anchor="start" x="427" y="-461.5" font-family="Helvetica,sans-Serif" font-size="10.00" fill="#000000">amr_wind::utils::Slice</text>
<text text-anchor="middle" x="474" y="-450.5" font-family="Helvetica,sans-Serif" font-size="10.00" fill="#000000">&lt; amrex::Real &gt;</text>
</a>
</g>
</g>
<!-- Node6&#45;&gt;Node5 -->
<g id="edge4" class="edge">
<title>Node6&#45;&gt;Node5</title>
<path fill="none" stroke="#9a32cd" stroke-dasharray="5,2" d="M538.8962,-442.6993C576.2741,-432.8862 623.8537,-419.1732 665,-403.5 680.6567,-397.5361 697.5236,-389.5854 711.2894,-382.673"/>
<polygon fill="#9a32cd" stroke="#9a32cd" points="537.9311,-439.3338 529.1321,-445.2352 539.6908,-446.109 537.9311,-439.3338"/>
<text text-anchor="middle" x="615" y="-437.5" font-family="Helvetica,sans-Serif" font-size="10.00" fill="#000000"> chord</text>
</g>
<!-- Node7 -->
<g id="node6" class="node">
<title>Node7</title>
<g id="a_node6"><a xlink:href="structamr__wind_1_1utils_1_1_slice.html" target="_top" xlink:title="amr_wind::utils::Slice\&lt; T \&gt;">
<polygon fill="#ffffff" stroke="#000000" points="111.5,-403 111.5,-422 245.5,-422 245.5,-403 111.5,-403"/>
<text text-anchor="middle" x="178.5" y="-410" font-family="Helvetica,sans-Serif" font-size="10.00" fill="#000000">amr_wind::utils::Slice&lt; T &gt;</text>
</a>
</g>
</g>
<!-- Node7&#45;&gt;Node6 -->
<g id="edge5" class="edge">
<title>Node7&#45;&gt;Node6</title>
<path fill="none" stroke="#ffa500" stroke-dasharray="5,2" d="M249.8719,-423.6103C301.8076,-431.6951 371.1094,-442.4832 418.8303,-449.9118"/>
<polygon fill="#ffa500" stroke="#ffa500" points="250.1472,-420.1111 239.7278,-422.0312 249.0704,-427.0278 250.1472,-420.1111"/>
<text text-anchor="middle" x="325" y="-446.5" font-family="Helvetica,sans-Serif" font-size="10.00" fill="#000000"> &lt; amrex::Real &gt;</text>
</g>
<!-- Node9 -->
<g id="node8" class="node">
<title>Node9</title>
<g id="a_node8"><a xlink:href="structamr__wind_1_1utils_1_1_slice.html" target="_top" xlink:title="amr_wind::utils::Slice\l\&lt; amr_wind::vs::Tensor \&gt;">
<polygon fill="#ffffff" stroke="#000000" points="409.5,-384.5 409.5,-414.5 538.5,-414.5 538.5,-384.5 409.5,-384.5"/>
<text text-anchor="start" x="417.5" y="-402.5" font-family="Helvetica,sans-Serif" font-size="10.00" fill="#000000">amr_wind::utils::Slice</text>
<text text-anchor="middle" x="474" y="-391.5" font-family="Helvetica,sans-Serif" font-size="10.00" fill="#000000">&lt; amr_wind::vs::Tensor &gt;</text>
</a>
</g>
</g>
<!-- Node7&#45;&gt;Node9 -->
<g id="edge10" class="edge">
<title>Node7&#45;&gt;Node9</title>
<path fill="none" stroke="#ffa500" stroke-dasharray="5,2" d="M255.827,-411.7618C294.1106,-411.1029 341.011,-409.8566 383,-407.5 391.5507,-407.0201 400.5431,-406.3867 409.4104,-405.6859"/>
<polygon fill="#ffa500" stroke="#ffa500" points="255.7217,-408.2629 245.7798,-411.9247 255.8353,-415.262 255.7217,-408.2629"/>
<text text-anchor="middle" x="325" y="-413.5" font-family="Helvetica,sans-Serif" font-size="10.00" fill="#000000"> &lt; amr_wind::vs::Tensor &gt;</text>
</g>
<!-- Node11 -->
<g id="node10" class="node">
<title>Node11</title>
<g id="a_node10"><a xlink:href="structamr__wind_1_1utils_1_1_slice.html" target="_top" xlink:title="amr_wind::utils::Slice\l\&lt; amr_wind::vs::Vector \&gt;">
<polygon fill="#ffffff" stroke="#000000" points="410,-306.5 410,-336.5 538,-336.5 538,-306.5 410,-306.5"/>
<text text-anchor="start" x="418" y="-324.5" font-family="Helvetica,sans-Serif" font-size="10.00" fill="#000000">amr_wind::utils::Slice</text>
<text text-anchor="middle" x="474" y="-313.5" font-family="Helvetica,sans-Serif" font-size="10.00" fill="#000000">&lt; amr_wind::vs::Vector &gt;</text>
</a>
</g>
</g>
<!-- Node7&#45;&gt;Node11 -->
<g id="edge14" class="edge">
<title>Node7&#45;&gt;Node11</title>
<path fill="none" stroke="#ffa500" stroke-dasharray="5,2" d="M234.2156,-400.9776C245.0802,-398.7846 256.3902,-396.5391 267,-394.5 318.452,-384.6115 333.7671,-391.4223 383,-373.5 408.3056,-364.288 434.7664,-348.3475 452.5888,-336.5372"/>
<polygon fill="#ffa500" stroke="#ffa500" points="233.5006,-397.5513 224.396,-402.9694 234.8922,-404.4116 233.5006,-397.5513"/>
<text text-anchor="middle" x="325" y="-397.5" font-family="Helvetica,sans-Serif" font-size="10.00" fill="#000000"> &lt; amr_wind::vs::Vector &gt;</text>
</g>
<!-- Node8 -->
<g id="node7" class="node">
<title>Node8</title>
<polygon fill="#ffffff" stroke="#bfbfbf" points="0,-300 0,-319 29,-319 29,-300 0,-300"/>
<text text-anchor="middle" x="14.5" y="-307" font-family="Helvetica,sans-Serif" font-size="10.00" fill="#000000">T</text>
</g>
<!-- Node8&#45;&gt;Node7 -->
<g id="edge6" class="edge">
<title>Node8&#45;&gt;Node7</title>
<path fill="none" stroke="#9a32cd" stroke-dasharray="5,2" d="M26.9709,-327.5918C32.5153,-334.7308 39.4871,-342.6148 47,-348.5 79.0803,-373.6299 122.6237,-392.4058 150.6467,-402.9171"/>
<polygon fill="#9a32cd" stroke="#9a32cd" points="29.5165,-325.1449 20.7781,-319.154 23.8733,-329.2867 29.5165,-325.1449"/>
<text text-anchor="middle" x="68.5" y="-387.5" font-family="Helvetica,sans-Serif" font-size="10.00" fill="#000000"> ptr_begin</text>
<text text-anchor="middle" x="68.5" y="-376.5" font-family="Helvetica,sans-Serif" font-size="10.00" fill="#000000">ptr_end</text>
</g>
<!-- Node10 -->
<g id="node9" class="node">
<title>Node10</title>
<g id="a_node9"><a xlink:href="structamr__wind_1_1vs_1_1_tensor_t.html" target="_top" xlink:title="Tensor in 3D vector space. ">
<polygon fill="#ffffff" stroke="#000000" points="108,-339 108,-358 249,-358 249,-339 108,-339"/>
<text text-anchor="middle" x="178.5" y="-346" font-family="Helvetica,sans-Serif" font-size="10.00" fill="#000000">amr_wind::vs::TensorT&lt; T &gt;</text>
</a>
</g>
</g>
<!-- Node8&#45;&gt;Node10 -->
<g id="edge9" class="edge">
<title>Node8&#45;&gt;Node10</title>
<path fill="none" stroke="#9a32cd" stroke-dasharray="5,2" d="M38.4502,-320.5101C41.2983,-321.6121 44.1915,-322.6395 47,-323.5 68.1083,-329.9674 91.6592,-335.0775 112.933,-338.9471"/>
<polygon fill="#9a32cd" stroke="#9a32cd" points="39.7045,-317.2409 29.1285,-316.6105 37.003,-323.6987 39.7045,-317.2409"/>
<text text-anchor="middle" x="68.5" y="-336.5" font-family="Helvetica,sans-Serif" font-size="10.00" fill="#000000"> vv</text>
</g>
<!-- Node12 -->
<g id="node11" class="node">
<title>Node12</title>
<g id="a_node11"><a xlink:href="structamr__wind_1_1vs_1_1_vector_t.html" target="_top" xlink:title="Vector in 3D space. ">
<polygon fill="#ffffff" stroke="#000000" points="108.5,-300 108.5,-319 248.5,-319 248.5,-300 108.5,-300"/>
<text text-anchor="middle" x="178.5" y="-307" font-family="Helvetica,sans-Serif" font-size="10.00" fill="#000000">amr_wind::vs::VectorT&lt; T &gt;</text>
</a>
</g>
</g>
<!-- Node8&#45;&gt;Node12 -->
<g id="edge13" class="edge">
<title>Node8&#45;&gt;Node12</title>
<path fill="none" stroke="#9a32cd" stroke-dasharray="5,2" d="M39.1955,-309.5C57.6249,-309.5 83.7769,-309.5 108.4531,-309.5"/>
<polygon fill="#9a32cd" stroke="#9a32cd" points="39.0539,-306.0001 29.0539,-309.5 39.0539,-313.0001 39.0539,-306.0001"/>
<text text-anchor="middle" x="68.5" y="-312.5" font-family="Helvetica,sans-Serif" font-size="10.00" fill="#000000"> vv</text>
</g>
<!-- Node13 -->
<g id="node12" class="node">
<title>Node13</title>
<g id="a_node12"><a xlink:title="STL class. ">
<polygon fill="#ffffff" stroke="#bfbfbf" points="696.5,-262 696.5,-281 783.5,-281 783.5,-262 696.5,-262"/>
<text text-anchor="middle" x="740" y="-269" font-family="Helvetica,sans-Serif" font-size="10.00" fill="#000000">std::vector&lt; T &gt;</text>
</a>
</g>
</g>
<!-- Node8&#45;&gt;Node13 -->
<g id="edge16" class="edge">
<title>Node8&#45;&gt;Node13</title>
<path fill="none" stroke="#9a32cd" stroke-dasharray="5,2" d="M39.0755,-303.3115C57.8263,-298.8817 84.3692,-293.236 108,-290.5 327.7224,-265.0606 593.1037,-267.8971 696.1397,-270.2578"/>
<polygon fill="#9a32cd" stroke="#9a32cd" points="38.1685,-299.9299 29.2726,-305.6845 39.8154,-306.7334 38.1685,-299.9299"/>
<text text-anchor="middle" x="325" y="-279.5" font-family="Helvetica,sans-Serif" font-size="10.00" fill="#000000"> elements</text>
</g>
<!-- Node17 -->
<g id="node16" class="node">
<title>Node17</title>
<g id="a_node16"><a xlink:title="STL class. ">
<polygon fill="#ffffff" stroke="#bfbfbf" points="132.5,-224 132.5,-243 224.5,-243 224.5,-224 132.5,-224"/>
<text text-anchor="middle" x="178.5" y="-231" font-family="Helvetica,sans-Serif" font-size="10.00" fill="#000000">std::map&lt; K, T &gt;</text>
</a>
</g>
</g>
<!-- Node8&#45;&gt;Node17 -->
<g id="edge23" class="edge">
<title>Node8&#45;&gt;Node17</title>
<path fill="none" stroke="#9a32cd" stroke-dasharray="5,2" d="M19.2022,-289.9021C23.7674,-275.4132 32.2336,-256.5273 47,-246.5 71.6726,-229.7458 105.1975,-226.6552 132.2216,-227.6716"/>
<polygon fill="#9a32cd" stroke="#9a32cd" points="15.7279,-289.3339 16.4318,-299.9053 22.4739,-291.2022 15.7279,-289.3339"/>
<text text-anchor="middle" x="68.5" y="-249.5" font-family="Helvetica,sans-Serif" font-size="10.00" fill="#000000"> elements</text>
</g>
<!-- Node9&#45;&gt;Node5 -->
<g id="edge7" class="edge">
<title>Node9&#45;&gt;Node5</title>
<path fill="none" stroke="#9a32cd" stroke-dasharray="5,2" d="M548.7907,-391.1986C584.0598,-387.2037 626.7117,-382.2573 665,-377.5 673.0822,-376.4958 681.6487,-375.3915 689.9909,-374.2944"/>
<polygon fill="#9a32cd" stroke="#9a32cd" points="548.1173,-387.7523 538.5733,-392.3527 548.903,-394.7081 548.1173,-387.7523"/>
<text text-anchor="middle" x="615" y="-391.5" font-family="Helvetica,sans-Serif" font-size="10.00" fill="#000000"> orientation</text>
</g>
<!-- Node10&#45;&gt;Node9 -->
<g id="edge8" class="edge">
<title>Node10&#45;&gt;Node9</title>
<path fill="none" stroke="#9a32cd" stroke-dasharray="5,2" d="M259.1597,-341.0708C297.2655,-339.7341 343.0499,-341.298 383,-351.5 408.4403,-357.9967 434.6692,-372.8592 452.3926,-384.3378"/>
<polygon fill="#9a32cd" stroke="#9a32cd" points="258.9809,-337.5752 249.1377,-341.4946 259.2767,-344.5689 258.9809,-337.5752"/>
<text text-anchor="middle" x="325" y="-365.5" font-family="Helvetica,sans-Serif" font-size="10.00" fill="#000000"> ptr_begin</text>
<text text-anchor="middle" x="325" y="-354.5" font-family="Helvetica,sans-Serif" font-size="10.00" fill="#000000">ptr_end</text>
</g>
<!-- Node11&#45;&gt;Node5 -->
<g id="edge11" class="edge">
<title>Node11&#45;&gt;Node5</title>
<path fill="none" stroke="#9a32cd" stroke-dasharray="5,2" d="M548.5124,-310.0457C584.4177,-307.1015 627.6811,-307.3897 665,-318.5 687.2112,-325.1126 708.9742,-340.627 723.2865,-352.4408"/>
<polygon fill="#9a32cd" stroke="#9a32cd" points="547.7439,-306.6016 538.1074,-311.0048 548.3865,-313.5721 547.7439,-306.6016"/>
<text text-anchor="middle" x="615" y="-365.5" font-family="Helvetica,sans-Serif" font-size="10.00" fill="#000000"> vel_pos</text>
<text text-anchor="middle" x="615" y="-354.5" font-family="Helvetica,sans-Serif" font-size="10.00" fill="#000000">force</text>
<text text-anchor="middle" x="615" y="-343.5" font-family="Helvetica,sans-Serif" font-size="10.00" fill="#000000">vel</text>
<text text-anchor="middle" x="615" y="-332.5" font-family="Helvetica,sans-Serif" font-size="10.00" fill="#000000">epsilon</text>
<text text-anchor="middle" x="615" y="-321.5" font-family="Helvetica,sans-Serif" font-size="10.00" fill="#000000">pos</text>
</g>
<!-- Node12&#45;&gt;Node11 -->
<g id="edge12" class="edge">
<title>Node12&#45;&gt;Node11</title>
<path fill="none" stroke="#9a32cd" stroke-dasharray="5,2" d="M259.067,-304.746C296.7661,-303.4361 342.2419,-303.1633 383,-306.5 391.6175,-307.2055 400.6486,-308.2808 409.5352,-309.5384"/>
<polygon fill="#9a32cd" stroke="#9a32cd" points="258.5108,-301.2645 248.6505,-305.1408 258.776,-308.2595 258.5108,-301.2645"/>
<text text-anchor="middle" x="325" y="-320.5" font-family="Helvetica,sans-Serif" font-size="10.00" fill="#000000"> ptr_begin</text>
<text text-anchor="middle" x="325" y="-309.5" font-family="Helvetica,sans-Serif" font-size="10.00" fill="#000000">ptr_end</text>
</g>
<!-- Node13&#45;&gt;Node4 -->
<g id="edge15" class="edge">
<title>Node13&#45;&gt;Node4</title>
<path fill="none" stroke="#ffa500" stroke-dasharray="5,2" d="M793.7677,-277.9052C833.6434,-282.8147 889.2981,-290.001 938,-297.5 943.8348,-298.3984 949.8734,-299.3714 955.9351,-300.3785"/>
<polygon fill="#ffa500" stroke="#ffa500" points="794.0792,-274.4173 783.728,-276.6762 793.2286,-281.3655 794.0792,-274.4173"/>
<text text-anchor="start" x="828.5" y="-311.5" font-family="Helvetica,sans-Serif" font-size="10.00" fill="#000000"> &lt; amr_wind::actuator</text>
<text text-anchor="middle" x="876.5" y="-300.5" font-family="Helvetica,sans-Serif" font-size="10.00" fill="#000000">::ComponentView &gt;</text>
</g>
<!-- Node21 -->
<g id="node20" class="node">
<title>Node21</title>
<polygon fill="#ffffff" stroke="#bfbfbf" points="972.5,-247.5 972.5,-277.5 1084.5,-277.5 1084.5,-247.5 972.5,-247.5"/>
<text text-anchor="start" x="980.5" y="-265.5" font-family="Helvetica,sans-Serif" font-size="10.00" fill="#000000">std::vector&lt; exw_fast</text>
<text text-anchor="middle" x="1028.5" y="-254.5" font-family="Helvetica,sans-Serif" font-size="10.00" fill="#000000">::FastTurbine *&gt;</text>
</g>
<!-- Node13&#45;&gt;Node21 -->
<g id="edge33" class="edge">
<title>Node13&#45;&gt;Node21</title>
<path fill="none" stroke="#ffa500" stroke-dasharray="5,2" d="M793.8567,-265.0905C800.9585,-264.4405 808.1481,-263.8805 815,-263.5 868.2935,-260.5405 929.1845,-260.5941 972.2635,-261.2074"/>
<polygon fill="#ffa500" stroke="#ffa500" points="793.1758,-261.6403 783.5639,-266.0968 793.857,-268.607 793.1758,-261.6403"/>
<text text-anchor="middle" x="876.5" y="-266.5" font-family="Helvetica,sans-Serif" font-size="10.00" fill="#000000"> &lt; exw_fast::FastTurbine *&gt;</text>
</g>
<!-- Node14 -->
<g id="node13" class="node">
<title>Node14</title>
<g id="a_node13"><a xlink:href="classexw__fast_1_1_fast_iface.html" target="_top" xlink:title="exw_fast::FastIface">
<polygon fill="#ffffff" stroke="#000000" points="1207,-187 1207,-206 1311,-206 1311,-187 1207,-187"/>
<text text-anchor="middle" x="1259" y="-194" font-family="Helvetica,sans-Serif" font-size="10.00" fill="#000000">exw_fast::FastIface</text>
</a>
</g>
</g>
<!-- Node14&#45;&gt;Node2 -->
<g id="edge18" class="edge">
<title>Node14&#45;&gt;Node2</title>
<path fill="none" stroke="#9a32cd" stroke-dasharray="5,2" d="M1321.4258,-196.5C1336.4703,-196.5 1352.3546,-196.5 1366.761,-196.5"/>
<polygon fill="#9a32cd" stroke="#9a32cd" points="1321.173,-193.0001 1311.173,-196.5 1321.173,-200.0001 1321.173,-193.0001"/>
<text text-anchor="middle" x="1339" y="-199.5" font-family="Helvetica,sans-Serif" font-size="10.00" fill="#000000"> fast</text>
</g>
<!-- Node15 -->
<g id="node14" class="node">
<title>Node15</title>
<polygon fill="#ffffff" stroke="#bfbfbf" points="969,-159.5 969,-189.5 1088,-189.5 1088,-159.5 969,-159.5"/>
<text text-anchor="start" x="977" y="-177.5" font-family="Helvetica,sans-Serif" font-size="10.00" fill="#000000">amr_wind::ExtSolver</text>
<text text-anchor="middle" x="1028.5" y="-166.5" font-family="Helvetica,sans-Serif" font-size="10.00" fill="#000000">::Register&lt; FastIface &gt;</text>
</g>
<!-- Node15&#45;&gt;Node14 -->
<g id="edge19" class="edge">
<title>Node15&#45;&gt;Node14</title>
<path fill="none" stroke="#191970" d="M1098.2702,-181.1592C1133.1172,-184.4852 1174.5712,-188.4417 1206.6515,-191.5036"/>
<polygon fill="#191970" stroke="#191970" points="1098.4466,-177.6602 1088.1592,-180.1942 1097.7814,-184.6285 1098.4466,-177.6602"/>
</g>
<!-- Node16 -->
<g id="node15" class="node">
<title>Node16</title>
<polygon fill="#ffffff" stroke="#bfbfbf" points="565,-218 565,-237 665,-237 665,-218 565,-218"/>
<text text-anchor="middle" x="615" y="-225" font-family="Helvetica,sans-Serif" font-size="10.00" fill="#000000">std::map&lt; int, int &gt;</text>
</g>
<!-- Node16&#45;&gt;Node14 -->
<g id="edge20" class="edge">
<title>Node16&#45;&gt;Node14</title>
<path fill="none" stroke="#9a32cd" stroke-dasharray="5,2" d="M675.4743,-224.589C801.1604,-218.5389 1088.7111,-204.6971 1206.8549,-199.0101"/>
<polygon fill="#9a32cd" stroke="#9a32cd" points="675.0855,-221.1035 665.2654,-225.0804 675.4221,-228.0954 675.0855,-221.1035"/>
<text text-anchor="middle" x="876.5" y="-220.5" font-family="Helvetica,sans-Serif" font-size="10.00" fill="#000000"> m_turbine_map</text>
</g>
<!-- Node17&#45;&gt;Node16 -->
<g id="edge21" class="edge">
<title>Node17&#45;&gt;Node16</title>
<path fill="none" stroke="#ffa500" stroke-dasharray="5,2" d="M234.8798,-232.725C320.7222,-231.5451 482.8543,-229.3164 564.8352,-228.1896"/>
<polygon fill="#ffa500" stroke="#ffa500" points="234.7508,-229.2264 224.7999,-232.8636 234.8471,-236.2257 234.7508,-229.2264"/>
<text text-anchor="middle" x="325" y="-234.5" font-family="Helvetica,sans-Serif" font-size="10.00" fill="#000000"> &lt; int, int &gt;</text>
</g>
<!-- Node18 -->
<g id="node17" class="node">
<title>Node18</title>
<polygon fill="#ffffff" stroke="#bfbfbf" points="0,-202 0,-221 29,-221 29,-202 0,-202"/>
<text text-anchor="middle" x="14.5" y="-209" font-family="Helvetica,sans-Serif" font-size="10.00" fill="#000000">K</text>
</g>
<!-- Node18&#45;&gt;Node17 -->
<g id="edge22" class="edge">
<title>Node18&#45;&gt;Node17</title>
<path fill="none" stroke="#9a32cd" stroke-dasharray="5,2" d="M39.3846,-210.4615C54.15,-210.1854 73.2055,-210.4219 90,-212.5 108.806,-214.827 129.4272,-219.5867 146.0297,-223.9871"/>
<polygon fill="#9a32cd" stroke="#9a32cd" points="38.9364,-206.9726 29.0381,-210.7507 39.132,-213.9699 38.9364,-206.9726"/>
<text text-anchor="middle" x="68.5" y="-215.5" font-family="Helvetica,sans-Serif" font-size="10.00" fill="#000000"> keys</text>
</g>
<!-- Node19 -->
<g id="node18" class="node">
<title>Node19</title>
<g id="a_node18"><a xlink:title="STL class. ">
<polygon fill="#ffffff" stroke="#bfbfbf" points="444,-6 444,-25 504,-25 504,-6 444,-6"/>
<text text-anchor="middle" x="474" y="-13" font-family="Helvetica,sans-Serif" font-size="10.00" fill="#000000">std::string</text>
</a>
</g>
</g>
<!-- Node19&#45;&gt;Node14 -->
<g id="edge24" class="edge">
<title>Node19&#45;&gt;Node14</title>
<path fill="none" stroke="#9a32cd" stroke-dasharray="5,2" d="M514.6096,-13.4985C553.4063,-12.2082 613.4408,-11.8356 665,-18.5 902.8635,-49.2455 970.5988,-48.3776 1189,-147.5 1211.6938,-157.7997 1234.7485,-175.6836 1247.917,-186.7617"/>
<polygon fill="#9a32cd" stroke="#9a32cd" points="514.1185,-10.0142 504.2548,-13.8817 514.3774,-17.0094 514.1185,-10.0142"/>
<text text-anchor="middle" x="876.5" y="-60.5" font-family="Helvetica,sans-Serif" font-size="10.00" fill="#000000"> m_output_dir</text>
</g>
<!-- Node22 -->
<g id="node21" class="node">
<title>Node22</title>
<g id="a_node21"><a xlink:href="structexw__fast_1_1_fast_turbine.html" target="_top" xlink:title="Representation of a turbine for exchanging data with FAST. ">
<polygon fill="#ffffff" stroke="#000000" points="683,-121 683,-140 797,-140 797,-121 683,-121"/>
<text text-anchor="middle" x="740" y="-128" font-family="Helvetica,sans-Serif" font-size="10.00" fill="#000000">exw_fast::FastTurbine</text>
</a>
</g>
</g>
<!-- Node19&#45;&gt;Node22 -->
<g id="edge31" class="edge">
<title>Node19&#45;&gt;Node22</title>
<path fill="none" stroke="#9a32cd" stroke-dasharray="5,2" d="M514.0342,-15.9739C554.4195,-18.0162 617.4334,-25.5864 665,-51.5 696.5535,-68.6899 722.583,-103.8801 733.9071,-120.8825"/>
<polygon fill="#9a32cd" stroke="#9a32cd" points="514.1641,-12.4764 504.0272,-15.5578 513.8732,-19.4703 514.1641,-12.4764"/>
<text text-anchor="middle" x="615" y="-76.5" font-family="Helvetica,sans-Serif" font-size="10.00" fill="#000000"> tlabel</text>
<text text-anchor="middle" x="615" y="-65.5" font-family="Helvetica,sans-Serif" font-size="10.00" fill="#000000">input_file</text>
<text text-anchor="middle" x="615" y="-54.5" font-family="Helvetica,sans-Serif" font-size="10.00" fill="#000000">checkpoint_file</text>
</g>
<!-- Node20 -->
<g id="node19" class="node">
<title>Node20</title>
<g id="a_node19"><a xlink:title="STL class. ">
<polygon fill="#ffffff" stroke="#bfbfbf" points="131,-.5 131,-30.5 226,-30.5 226,-.5 131,-.5"/>
<text text-anchor="start" x="139" y="-18.5" font-family="Helvetica,sans-Serif" font-size="10.00" fill="#000000">std::basic_string&lt;</text>
<text text-anchor="middle" x="178.5" y="-7.5" font-family="Helvetica,sans-Serif" font-size="10.00" fill="#000000"> char &gt;</text>
</a>
</g>
</g>
<!-- Node20&#45;&gt;Node19 -->
<g id="edge25" class="edge">
<title>Node20&#45;&gt;Node19</title>
<path fill="none" stroke="#191970" d="M236.3698,-15.5C298.6273,-15.5 395.2244,-15.5 443.8553,-15.5"/>
<polygon fill="#191970" stroke="#191970" points="236.3056,-12.0001 226.3056,-15.5 236.3056,-19.0001 236.3056,-12.0001"/>
</g>
<!-- Node21&#45;&gt;Node14 -->
<g id="edge26" class="edge">
<title>Node21&#45;&gt;Node14</title>
<path fill="none" stroke="#9a32cd" stroke-dasharray="5,2" d="M1095.0003,-254.4976C1124.3256,-249.8458 1158.8925,-242.8091 1189,-232.5 1208.7811,-225.7268 1229.9211,-214.1907 1243.73,-206.0042"/>
<polygon fill="#9a32cd" stroke="#9a32cd" points="1094.2195,-251.0761 1084.8621,-256.045 1095.2758,-257.996 1094.2195,-251.0761"/>
<text text-anchor="middle" x="1154" y="-252.5" font-family="Helvetica,sans-Serif" font-size="10.00" fill="#000000"> m_turbine_data</text>
</g>
<!-- Node22&#45;&gt;Node2 -->
<g id="edge34" class="edge">
<title>Node22&#45;&gt;Node2</title>
<path fill="none" stroke="#9a32cd" stroke-dasharray="5,2" d="M807.6759,-132.7835C880.2967,-135.5762 998.9752,-141.1275 1101,-150.5 1194.707,-159.1084 1217.9922,-163.1943 1311,-177.5 1329.294,-180.3138 1349.2912,-183.7928 1366.9383,-187.0017"/>
<polygon fill="#9a32cd" stroke="#9a32cd" points="807.4282,-129.2718 797.303,-132.3914 807.1636,-136.2668 807.4282,-129.2718"/>
<text text-anchor="middle" x="1154" y="-162.5" font-family="Helvetica,sans-Serif" font-size="10.00" fill="#000000"> fast_data</text>
</g>
<!-- Node22&#45;&gt;Node21 -->
<g id="edge27" class="edge">
<title>Node22&#45;&gt;Node21</title>
<path fill="none" stroke="#9a32cd" stroke-dasharray="5,2" d="M792.4697,-142.365C842.1826,-154.0909 912.8669,-172.16 938,-185.5 942.1454,-187.7003 986.1382,-225.6903 1011.2251,-247.4694"/>
<polygon fill="#9a32cd" stroke="#9a32cd" points="793.0499,-138.9063 782.5154,-140.0354 791.4548,-145.7221 793.0499,-138.9063"/>
<text text-anchor="middle" x="876.5" y="-188.5" font-family="Helvetica,sans-Serif" font-size="10.00" fill="#000000"> elements</text>
</g>
<!-- Node23 -->
<g id="node22" class="node">
<title>Node23</title>
<g id="a_node22"><a xlink:href="structexw__fast_1_1_op_f_m___output_type.html" target="_top" xlink:title="exw_fast::OpFM_OutputType">
<polygon fill="#ffffff" stroke="#000000" points="401,-186 401,-205 547,-205 547,-186 401,-186"/>
<text text-anchor="middle" x="474" y="-193" font-family="Helvetica,sans-Serif" font-size="10.00" fill="#000000">exw_fast::OpFM_OutputType</text>
</a>
</g>
</g>
<!-- Node23&#45;&gt;Node22 -->
<g id="edge28" class="edge">
<title>Node23&#45;&gt;Node22</title>
<path fill="none" stroke="#9a32cd" stroke-dasharray="5,2" d="M557.3276,-185.3978C591.1503,-180.1915 630.342,-172.7362 665,-162.5 684.6862,-156.6857 706.1329,-147.1918 721.03,-140.0519"/>
<polygon fill="#9a32cd" stroke="#9a32cd" points="556.3858,-181.9997 547.0143,-186.9419 557.4223,-188.9225 556.3858,-181.9997"/>
<text text-anchor="middle" x="615" y="-186.5" font-family="Helvetica,sans-Serif" font-size="10.00" fill="#000000"> from_cfd</text>
</g>
<!-- Node24 -->
<g id="node23" class="node">
<title>Node24</title>
<g id="a_node23"><a xlink:href="structexw__fast_1_1_s_c___output_type.html" target="_top" xlink:title="exw_fast::SC_OutputType">
<polygon fill="#ffffff" stroke="#000000" points="407.5,-148 407.5,-167 540.5,-167 540.5,-148 407.5,-148"/>
<text text-anchor="middle" x="474" y="-155" font-family="Helvetica,sans-Serif" font-size="10.00" fill="#000000">exw_fast::SC_OutputType</text>
</a>
</g>
</g>
<!-- Node24&#45;&gt;Node22 -->
<g id="edge29" class="edge">
<title>Node24&#45;&gt;Node22</title>
<path fill="none" stroke="#9a32cd" stroke-dasharray="5,2" d="M550.978,-149.6864C593.0095,-145.4201 644.1752,-140.2266 682.6682,-136.3194"/>
<polygon fill="#9a32cd" stroke="#9a32cd" points="550.3751,-146.2296 540.7797,-150.7216 551.082,-153.1938 550.3751,-146.2296"/>
<text text-anchor="middle" x="615" y="-150.5" font-family="Helvetica,sans-Serif" font-size="10.00" fill="#000000"> from_sc</text>
</g>
<!-- Node25 -->
<g id="node24" class="node">
<title>Node25</title>
<g id="a_node24"><a xlink:href="structexw__fast_1_1_op_f_m___input_type.html" target="_top" xlink:title="exw_fast::OpFM_InputType">
<polygon fill="#ffffff" stroke="#000000" points="405,-110 405,-129 543,-129 543,-110 405,-110"/>
<text text-anchor="middle" x="474" y="-117" font-family="Helvetica,sans-Serif" font-size="10.00" fill="#000000">exw_fast::OpFM_InputType</text>
</a>
</g>
</g>
<!-- Node25&#45;&gt;Node22 -->
<g id="edge30" class="edge">
<title>Node25&#45;&gt;Node22</title>
<path fill="none" stroke="#9a32cd" stroke-dasharray="5,2" d="M553.8556,-120.6355C588.0942,-121.3696 628.5268,-122.5651 665,-124.5 670.7394,-124.8045 676.7215,-125.1815 682.6932,-125.5972"/>
<polygon fill="#9a32cd" stroke="#9a32cd" points="553.5096,-117.1278 543.44,-120.4222 553.3662,-124.1263 553.5096,-117.1278"/>
<text text-anchor="middle" x="615" y="-127.5" font-family="Helvetica,sans-Serif" font-size="10.00" fill="#000000"> to_cfd</text>
</g>
<!-- Node26 -->
<g id="node25" class="node">
<title>Node26</title>
<g id="a_node25"><a xlink:href="structexw__fast_1_1_s_c___input_type.html" target="_top" xlink:title="exw_fast::SC_InputType">
<polygon fill="#ffffff" stroke="#000000" points="411.5,-72 411.5,-91 536.5,-91 536.5,-72 411.5,-72"/>
<text text-anchor="middle" x="474" y="-79" font-family="Helvetica,sans-Serif" font-size="10.00" fill="#000000">exw_fast::SC_InputType</text>
</a>
</g>
</g>
<!-- Node26&#45;&gt;Node22 -->
<g id="edge32" class="edge">
<title>Node26&#45;&gt;Node22</title>
<path fill="none" stroke="#9a32cd" stroke-dasharray="5,2" d="M547.2664,-87.3003C583.0583,-90.9956 626.5875,-96.774 665,-105.5 682.1317,-109.3917 700.8817,-115.6417 715.3488,-120.9188"/>
<polygon fill="#9a32cd" stroke="#9a32cd" points="547.2039,-83.7768 536.9057,-86.2661 546.5086,-90.7422 547.2039,-83.7768"/>
<text text-anchor="middle" x="615" y="-108.5" font-family="Helvetica,sans-Serif" font-size="10.00" fill="#000000"> to_sc</text>
</g>
</g>
</svg>
        <g id="navigator" transform="translate(0 0)" fill="#404254">
                <rect fill="#f2f5e9" fill-opacity="0.5" stroke="#606060" stroke-width=".5" x="0" y="0" width="60" height="60"/>
                <use id="zoomplus" xlink:href="#zoomPlus" x="17" y="9" onmousedown="handleZoom(evt,'in')"/>
                <use id="zoomminus" xlink:href="#zoomMin" x="42" y="9" onmousedown="handleZoom(evt,'out')"/>
                <use id="reset" xlink:href="#resetDef" x="30" y="36" onmousedown="handleReset()"/>
                <g id="arrowUp" xlink:href="#dirArrow" transform="translate(30 24)" onmousedown="handlePan(0,-1)">
                  <use xlink:href="#rim" fill="#404040">
                        <set attributeName="fill" to="#808080" begin="arrowUp.mouseover" end="arrowUp.mouseout"/>
                  </use>
                  <path fill="none" stroke="white" stroke-width="1.5" d="M0,-3.0v7 M-2.5,-0.5L0,-3.0L2.5,-0.5"/>
                </g>
                <g id="arrowRight" xlink:href="#dirArrow" transform="rotate(90) translate(36 -43)" onmousedown="handlePan(1,0)">
                  <use xlink:href="#rim" fill="#404040">
                        <set attributeName="fill" to="#808080" begin="arrowRight.mouseover" end="arrowRight.mouseout"/>
                  </use>
                  <path fill="none" stroke="white" stroke-width="1.5" d="M0,-3.0v7 M-2.5,-0.5L0,-3.0L2.5,-0.5"/>
                </g>
                <g id="arrowDown" xlink:href="#dirArrow" transform="rotate(180) translate(-30 -48)" onmousedown="handlePan(0,1)">
                  <use xlink:href="#rim" fill="#404040">
                        <set attributeName="fill" to="#808080" begin="arrowDown.mouseover" end="arrowDown.mouseout"/>
                  </use>
                  <path fill="none" stroke="white" stroke-width="1.5" d="M0,-3.0v7 M-2.5,-0.5L0,-3.0L2.5,-0.5"/>
                </g>
                <g id="arrowLeft" xlink:href="#dirArrow" transform="rotate(270) translate(-36 17)" onmousedown="handlePan(-1,0)">
                  <use xlink:href="#rim" fill="#404040">
                        <set attributeName="fill" to="#808080" begin="arrowLeft.mouseover" end="arrowLeft.mouseout"/>
                  </use>
                  <path fill="none" stroke="white" stroke-width="1.5" d="M0,-3.0v7 M-2.5,-0.5L0,-3.0L2.5,-0.5"/>
                </g>
        </g>
        <svg viewBox="0 0 15 15" width="100%" height="30px" preserveAspectRatio="xMaxYMin meet">
         <g id="arrow_out" transform="scale(0.3 0.3)">
          <a xlink:href="structamr__wind_1_1actuator_1_1_turbine_fast_data__coll__graph_org.svg" target="_base">
           <rect id="button" ry="5" rx="5" y="6" x="6" height="38" width="38"
                fill="#f2f5e9" fill-opacity="0.5" stroke="#606060" stroke-width="1.0"/>
           <path id="arrow"
             d="M 11.500037,31.436501 C 11.940474,20.09759 22.043105,11.32322 32.158766,21.979434 L 37.068811,17.246167 C 37.068811,17.246167 37.088388,32 37.088388,32 L 22.160133,31.978069 C 22.160133,31.978069 26.997745,27.140456 26.997745,27.140456 C 18.528582,18.264221 13.291696,25.230495 11.500037,31.436501 z"
             style="fill:#404040;"/>
          </a>
         </g>
        </svg>
</svg>
