<?xml version="1.0" encoding="UTF-8" standalone="no"?>
<!DOCTYPE svg PUBLIC "-//W3C//DTD SVG 1.1//EN"
 "http://www.w3.org/Graphics/SVG/1.1/DTD/svg11.dtd">
<!-- Generated by graphviz version 2.40.1 (20161225.0304)
 -->
<!-- Title: amr_wind::actuator::FixedWingData Pages: 1 -->
<svg width="659pt" height="132pt"
 viewBox="0.00 0.00 659.00 132.00" xmlns="http://www.w3.org/2000/svg" xmlns:xlink="http://www.w3.org/1999/xlink">
<g id="graph0" class="graph" transform="scale(1 1) rotate(0) translate(4 128)">
<title>amr_wind::actuator::FixedWingData</title>
<polygon fill="#ffffff" stroke="transparent" points="-4,4 -4,-128 655,-128 655,4 -4,4"/>
<!-- Node2 -->
<g id="node1" class="node">
<title>Node2</title>
<polygon fill="#bfbfbf" stroke="#000000" points="551,-45.5 551,-75.5 651,-75.5 651,-45.5 551,-45.5"/>
<text text-anchor="start" x="559" y="-63.5" font-family="Helvetica,sans-Serif" font-size="10.00" fill="#000000">amr_wind::actuator</text>
<text text-anchor="middle" x="601" y="-52.5" font-family="Helvetica,sans-Serif" font-size="10.00" fill="#000000">::FixedWingData</text>
</g>
<!-- Node3 -->
<g id="node2" class="node">
<title>Node3</title>
<g id="a_node2"><a xlink:href="structamr__wind_1_1actuator_1_1_wing_base_data.html" target="_top" xlink:title="Base data representation of a fixed&#45;wing. ">
<polygon fill="#ffffff" stroke="#000000" points="340.5,-93.5 340.5,-123.5 440.5,-123.5 440.5,-93.5 340.5,-93.5"/>
<text text-anchor="start" x="348.5" y="-111.5" font-family="Helvetica,sans-Serif" font-size="10.00" fill="#000000">amr_wind::actuator</text>
<text text-anchor="middle" x="390.5" y="-100.5" font-family="Helvetica,sans-Serif" font-size="10.00" fill="#000000">::WingBaseData</text>
</a>
</g>
</g>
<!-- Node3&#45;&gt;Node2 -->
<g id="edge1" class="edge">
<title>Node3&#45;&gt;Node2</title>
<path fill="none" stroke="#191970" d="M450.6886,-94.7753C482.3859,-87.5474 520.8052,-78.7867 550.8673,-71.9317"/>
<polygon fill="#191970" stroke="#191970" points="449.6241,-91.4281 440.6526,-97.0638 451.1804,-98.2529 449.6241,-91.4281"/>
</g>
<!-- Node4 -->
<g id="node3" class="node">
<title>Node4</title>
<polygon fill="#ffffff" stroke="#bfbfbf" points="317,-44.5 317,-74.5 464,-74.5 464,-44.5 317,-44.5"/>
<text text-anchor="start" x="325" y="-62.5" font-family="Helvetica,sans-Serif" font-size="10.00" fill="#000000">std::unique_ptr&lt; amr</text>
<text text-anchor="middle" x="390.5" y="-51.5" font-family="Helvetica,sans-Serif" font-size="10.00" fill="#000000">_wind::actuator::AirfoilTable &gt;</text>
</g>
<!-- Node4&#45;&gt;Node2 -->
<g id="edge2" class="edge">
<title>Node4&#45;&gt;Node2</title>
<path fill="none" stroke="#9a32cd" stroke-dasharray="5,2" d="M474.3363,-59.8983C500.2632,-60.0214 528.0003,-60.1532 550.8892,-60.2619"/>
<polygon fill="#9a32cd" stroke="#9a32cd" points="474.1392,-56.3974 464.1227,-59.8498 474.1059,-63.3973 474.1392,-56.3974"/>
<text text-anchor="middle" x="507.5" y="-62.5" font-family="Helvetica,sans-Serif" font-size="10.00" fill="#000000"> aflookup</text>
</g>
<!-- Node5 -->
<g id="node4" class="node">
<title>Node5</title>
<g id="a_node4"><a xlink:href="classamr__wind_1_1actuator_1_1_airfoil_table.html" target="_top" xlink:title="amr_wind::actuator\l::AirfoilTable">
<polygon fill="#ffffff" stroke="#000000" points="82.5,-89.5 82.5,-119.5 182.5,-119.5 182.5,-89.5 82.5,-89.5"/>
<text text-anchor="start" x="90.5" y="-107.5" font-family="Helvetica,sans-Serif" font-size="10.00" fill="#000000">amr_wind::actuator</text>
<text text-anchor="middle" x="132.5" y="-96.5" font-family="Helvetica,sans-Serif" font-size="10.00" fill="#000000">::AirfoilTable</text>
</a>
</g>
</g>
<!-- Node5&#45;&gt;Node4 -->
<g id="edge3" class="edge">
<title>Node5&#45;&gt;Node4</title>
<path fill="none" stroke="#9a32cd" stroke-dasharray="5,2" d="M192.6713,-98.2397C224.4351,-94.5095 263.9835,-89.1915 299,-82.5 310.7446,-80.2557 323.2313,-77.4211 335.082,-74.5154"/>
<polygon fill="#9a32cd" stroke="#9a32cd" points="192.1812,-94.7729 182.6476,-99.3947 192.9825,-101.7269 192.1812,-94.7729"/>
<text text-anchor="middle" x="251" y="-99.5" font-family="Helvetica,sans-Serif" font-size="10.00" fill="#000000"> ptr</text>
</g>
<!-- Node6 -->
<g id="node5" class="node">
<title>Node6</title>
<g id="a_node5"><a xlink:title="STL class. ">
<polygon fill="#ffffff" stroke="#bfbfbf" points="80,-50 80,-69 185,-69 185,-50 80,-50"/>
<text text-anchor="middle" x="132.5" y="-57" font-family="Helvetica,sans-Serif" font-size="10.00" fill="#000000">std::unique_ptr&lt; T &gt;</text>
</a>
</g>
</g>
<!-- Node6&#45;&gt;Node4 -->
<g id="edge4" class="edge">
<title>Node6&#45;&gt;Node4</title>
<path fill="none" stroke="#ffa500" stroke-dasharray="5,2" d="M195.0732,-59.5C231.6882,-59.5 278.122,-59.5 316.5399,-59.5"/>
<polygon fill="#ffa500" stroke="#ffa500" points="195.0212,-56.0001 185.0211,-59.5 195.0211,-63.0001 195.0212,-56.0001"/>
<text text-anchor="start" x="203" y="-73.5" font-family="Helvetica,sans-Serif" font-size="10.00" fill="#000000"> &lt; amr_wind::actuator</text>
<text text-anchor="middle" x="251" y="-62.5" font-family="Helvetica,sans-Serif" font-size="10.00" fill="#000000">::AirfoilTable &gt;</text>
</g>
<!-- Node7 -->
<g id="node6" class="node">
<title>Node7</title>
<polygon fill="#ffffff" stroke="#bfbfbf" points="0,-50 0,-69 29,-69 29,-50 0,-50"/>
<text text-anchor="middle" x="14.5" y="-57" font-family="Helvetica,sans-Serif" font-size="10.00" fill="#000000">T</text>
</g>
<!-- Node7&#45;&gt;Node6 -->
<g id="edge5" class="edge">
<title>Node7&#45;&gt;Node6</title>
<path fill="none" stroke="#9a32cd" stroke-dasharray="5,2" d="M39.7509,-59.5C51.4614,-59.5 65.8445,-59.5 79.7581,-59.5"/>
<polygon fill="#9a32cd" stroke="#9a32cd" points="39.4448,-56.0001 29.4448,-59.5 39.4447,-63.0001 39.4448,-56.0001"/>
<text text-anchor="middle" x="54.5" y="-62.5" font-family="Helvetica,sans-Serif" font-size="10.00" fill="#000000"> ptr</text>
</g>
<!-- Node8 -->
<g id="node7" class="node">
<title>Node8</title>
<g id="a_node7"><a xlink:title="STL class. ">
<polygon fill="#ffffff" stroke="#bfbfbf" points="360.5,-6 360.5,-25 420.5,-25 420.5,-6 360.5,-6"/>
<text text-anchor="middle" x="390.5" y="-13" font-family="Helvetica,sans-Serif" font-size="10.00" fill="#000000">std::string</text>
</a>
</g>
</g>
<!-- Node8&#45;&gt;Node2 -->
<g id="edge6" class="edge">
<title>Node8&#45;&gt;Node2</title>
<path fill="none" stroke="#9a32cd" stroke-dasharray="5,2" d="M430.7655,-17.8665C459.5881,-20.2161 499.1243,-24.7848 533,-33.5 544.6865,-36.5066 557.0637,-40.9999 568.0097,-45.4625"/>
<polygon fill="#9a32cd" stroke="#9a32cd" points="430.8985,-14.3666 420.6617,-17.0977 430.3673,-21.3464 430.8985,-14.3666"/>
<text text-anchor="middle" x="507.5" y="-47.5" font-family="Helvetica,sans-Serif" font-size="10.00" fill="#000000"> airfoil_type</text>
<text text-anchor="middle" x="507.5" y="-36.5" font-family="Helvetica,sans-Serif" font-size="10.00" fill="#000000">airfoil_file</text>
</g>
<!-- Node9 -->
<g id="node8" class="node">
<title>Node9</title>
<g id="a_node8"><a xlink:title="STL class. ">
<polygon fill="#ffffff" stroke="#bfbfbf" points="85,-.5 85,-30.5 180,-30.5 180,-.5 85,-.5"/>
<text text-anchor="start" x="93" y="-18.5" font-family="Helvetica,sans-Serif" font-size="10.00" fill="#000000">std::basic_string&lt;</text>
<text text-anchor="middle" x="132.5" y="-7.5" font-family="Helvetica,sans-Serif" font-size="10.00" fill="#000000"> char &gt;</text>
</a>
</g>
</g>
<!-- Node9&#45;&gt;Node8 -->
<g id="edge7" class="edge">
<title>Node9&#45;&gt;Node8</title>
<path fill="none" stroke="#191970" d="M190.3465,-15.5C243.0947,-15.5 318.9411,-15.5 360.4813,-15.5"/>
<polygon fill="#191970" stroke="#191970" points="190.1219,-12.0001 180.1218,-15.5 190.1218,-19.0001 190.1219,-12.0001"/>
</g>
</g>
</svg>
