<?xml version="1.0" encoding="UTF-8" standalone="no"?>
<!DOCTYPE svg PUBLIC "-//W3C//DTD SVG 1.1//EN"
 "http://www.w3.org/Graphics/SVG/1.1/DTD/svg11.dtd">
<!-- Generated by graphviz version 2.40.1 (20161225.0304)
 -->
<!-- Title: amr_wind::tioga_iface::AmrDualArray&lt; T &gt; Pages: 1 -->
<svg width="355pt" height="210pt"
 viewBox="0.00 0.00 355.00 209.50" xmlns="http://www.w3.org/2000/svg" xmlns:xlink="http://www.w3.org/1999/xlink">
<g id="graph0" class="graph" transform="scale(1 1) rotate(0) translate(4 205.5)">
<title>amr_wind::tioga_iface::AmrDualArray&lt; T &gt;</title>
<polygon fill="#ffffff" stroke="transparent" points="-4,4 -4,-205.5 351,-205.5 351,4 -4,4"/>
<!-- Node0 -->
<g id="node1" class="node">
<title>Node0</title>
<polygon fill="#bfbfbf" stroke="#000000" points="0,-88 0,-118 112,-118 112,-88 0,-88"/>
<text text-anchor="start" x="8" y="-106" font-family="Helvetica,sans-Serif" font-size="10.00" fill="#000000">amr_wind::tioga_iface</text>
<text text-anchor="middle" x="56" y="-95" font-family="Helvetica,sans-Serif" font-size="10.00" fill="#000000">::AmrDualArray&lt; T &gt;</text>
</g>
<!-- Node1 -->
<g id="node2" class="node">
<title>Node1</title>
<g id="a_node2"><a xlink:href="structamr__wind_1_1tioga__iface_1_1_amr_dual_array.html" target="_top" xlink:title="amr_wind::tioga_iface\l::AmrDualArray\&lt; int *\&gt;">
<polygon fill="#ffffff" stroke="#000000" points="229,-171 229,-201 345,-201 345,-171 229,-171"/>
<text text-anchor="start" x="237" y="-189" font-family="Helvetica,sans-Serif" font-size="10.00" fill="#000000">amr_wind::tioga_iface</text>
<text text-anchor="middle" x="287" y="-178" font-family="Helvetica,sans-Serif" font-size="10.00" fill="#000000">::AmrDualArray&lt; int *&gt;</text>
</a>
</g>
</g>
<!-- Node0&#45;&gt;Node1 -->
<g id="edge1" class="edge">
<title>Node0&#45;&gt;Node1</title>
<path fill="none" stroke="#ffa500" stroke-dasharray="5,2" d="M96.8533,-122.1912C107.5423,-126.9435 119.1209,-131.8566 130,-136 164.4851,-149.1339 204.0814,-161.7274 234.8812,-170.9901"/>
<polygon fill="#ffa500" stroke="#ffa500" points="98.284,-118.997 87.7289,-118.0798 95.4082,-125.379 98.284,-118.997"/>
<text text-anchor="middle" x="169.5" y="-165" font-family="Helvetica,sans-Serif" font-size="10.00" fill="#000000"> &lt; int *&gt;</text>
</g>
<!-- Node2 -->
<g id="node3" class="node">
<title>Node2</title>
<g id="a_node3"><a xlink:href="structamr__wind_1_1tioga__iface_1_1_amr_dual_array.html" target="_top" xlink:title="amr_wind::tioga_iface\l::AmrDualArray\&lt; amrex\l::Real *\&gt;">
<polygon fill="#ffffff" stroke="#000000" points="227,-110.5 227,-151.5 347,-151.5 347,-110.5 227,-110.5"/>
<text text-anchor="start" x="235" y="-139.5" font-family="Helvetica,sans-Serif" font-size="10.00" fill="#000000">amr_wind::tioga_iface</text>
<text text-anchor="start" x="235" y="-128.5" font-family="Helvetica,sans-Serif" font-size="10.00" fill="#000000">::AmrDualArray&lt; amrex</text>
<text text-anchor="middle" x="287" y="-117.5" font-family="Helvetica,sans-Serif" font-size="10.00" fill="#000000">::Real *&gt;</text>
</a>
</g>
</g>
<!-- Node0&#45;&gt;Node2 -->
<g id="edge2" class="edge">
<title>Node0&#45;&gt;Node2</title>
<path fill="none" stroke="#ffa500" stroke-dasharray="5,2" d="M122.2223,-111.0269C155.2055,-115.0249 194.7872,-119.8227 226.8893,-123.7139"/>
<polygon fill="#ffa500" stroke="#ffa500" points="122.5621,-107.5426 112.2136,-109.8138 121.7197,-114.4917 122.5621,-107.5426"/>
<text text-anchor="middle" x="169.5" y="-124" font-family="Helvetica,sans-Serif" font-size="10.00" fill="#000000"> &lt; amrex::Real *&gt;</text>
</g>
<!-- Node3 -->
<g id="node4" class="node">
<title>Node3</title>
<g id="a_node4"><a xlink:href="structamr__wind_1_1tioga__iface_1_1_amr_dual_array.html" target="_top" xlink:title="amr_wind::tioga_iface\l::AmrDualArray\&lt; int \&gt;">
<polygon fill="#ffffff" stroke="#000000" points="230.5,-61 230.5,-91 343.5,-91 343.5,-61 230.5,-61"/>
<text text-anchor="start" x="238.5" y="-79" font-family="Helvetica,sans-Serif" font-size="10.00" fill="#000000">amr_wind::tioga_iface</text>
<text text-anchor="middle" x="287" y="-68" font-family="Helvetica,sans-Serif" font-size="10.00" fill="#000000">::AmrDualArray&lt; int &gt;</text>
</a>
</g>
</g>
<!-- Node0&#45;&gt;Node3 -->
<g id="edge3" class="edge">
<title>Node0&#45;&gt;Node3</title>
<path fill="none" stroke="#ffa500" stroke-dasharray="5,2" d="M122.5375,-95.2229C156.5786,-91.2441 197.5831,-86.4513 230.1327,-82.6468"/>
<polygon fill="#ffa500" stroke="#ffa500" points="121.7396,-91.7922 112.2136,-96.4296 122.5523,-98.7449 121.7396,-91.7922"/>
<text text-anchor="middle" x="169.5" y="-97" font-family="Helvetica,sans-Serif" font-size="10.00" fill="#000000"> &lt; int &gt;</text>
</g>
<!-- Node4 -->
<g id="node5" class="node">
<title>Node4</title>
<g id="a_node5"><a xlink:href="structamr__wind_1_1tioga__iface_1_1_amr_dual_array.html" target="_top" xlink:title="amr_wind::tioga_iface\l::AmrDualArray\&lt; amrex\l::Real \&gt;">
<polygon fill="#ffffff" stroke="#000000" points="227,-.5 227,-41.5 347,-41.5 347,-.5 227,-.5"/>
<text text-anchor="start" x="235" y="-29.5" font-family="Helvetica,sans-Serif" font-size="10.00" fill="#000000">amr_wind::tioga_iface</text>
<text text-anchor="start" x="235" y="-18.5" font-family="Helvetica,sans-Serif" font-size="10.00" fill="#000000">::AmrDualArray&lt; amrex</text>
<text text-anchor="middle" x="287" y="-7.5" font-family="Helvetica,sans-Serif" font-size="10.00" fill="#000000">::Real &gt;</text>
</a>
</g>
</g>
<!-- Node0&#45;&gt;Node4 -->
<g id="edge4" class="edge">
<title>Node0&#45;&gt;Node4</title>
<path fill="none" stroke="#ffa500" stroke-dasharray="5,2" d="M96.8369,-83.7655C107.5261,-79.0139 119.109,-74.1118 130,-70 161.5215,-58.0992 197.3409,-46.7588 226.7989,-37.9906"/>
<polygon fill="#ffa500" stroke="#ffa500" points="95.3911,-80.578 87.7132,-87.8788 98.2681,-86.9594 95.3911,-80.578"/>
<text text-anchor="middle" x="169.5" y="-73" font-family="Helvetica,sans-Serif" font-size="10.00" fill="#000000"> &lt; amrex::Real &gt;</text>
</g>
</g>
</svg>
