<?xml version="1.0" encoding="UTF-8" standalone="no"?>
<!DOCTYPE svg PUBLIC "-//W3C//DTD SVG 1.1//EN"
 "http://www.w3.org/Graphics/SVG/1.1/DTD/svg11.dtd">
<!-- Generated by graphviz version 2.40.1 (20161225.0304)
 -->
<!-- Title: amr_wind::udf::LinearProfile&lt; DIM &gt; Pages: 1 -->
<svg width="146pt" height="117pt"
 viewBox="0.00 0.00 146.00 117.00" xmlns="http://www.w3.org/2000/svg" xmlns:xlink="http://www.w3.org/1999/xlink">
<g id="graph0" class="graph" transform="scale(1 1) rotate(0) translate(4 113)">
<title>amr_wind::udf::LinearProfile&lt; DIM &gt;</title>
<polygon fill="#ffffff" stroke="transparent" points="-4,4 -4,-113 142,-113 142,4 -4,4"/>
<!-- Node1 -->
<g id="node1" class="node">
<title>Node1</title>
<polygon fill="#bfbfbf" stroke="#000000" points="0,-.5 0,-30.5 138,-30.5 138,-.5 0,-.5"/>
<text text-anchor="start" x="8" y="-18.5" font-family="Helvetica,sans-Serif" font-size="10.00" fill="#000000">amr_wind::udf::LinearProfile</text>
<text text-anchor="middle" x="69" y="-7.5" font-family="Helvetica,sans-Serif" font-size="10.00" fill="#000000">&lt; DIM &gt;</text>
</g>
<!-- Node2 -->
<g id="node2" class="node">
<title>Node2</title>
<g id="a_node2"><a xlink:href="structamr__wind_1_1udf_1_1_linear_profile_1_1_device_op.html" target="_top" xlink:title="amr_wind::udf::LinearProfile\l\&lt; DIM \&gt;::DeviceOp">
<polygon fill="#ffffff" stroke="#000000" points="0,-78.5 0,-108.5 138,-108.5 138,-78.5 0,-78.5"/>
<text text-anchor="start" x="8" y="-96.5" font-family="Helvetica,sans-Serif" font-size="10.00" fill="#000000">amr_wind::udf::LinearProfile</text>
<text text-anchor="middle" x="69" y="-85.5" font-family="Helvetica,sans-Serif" font-size="10.00" fill="#000000">&lt; DIM &gt;::DeviceOp</text>
</a>
</g>
</g>
<!-- Node2&#45;&gt;Node1 -->
<g id="edge1" class="edge">
<title>Node2&#45;&gt;Node1</title>
<path fill="none" stroke="#9a32cd" stroke-dasharray="5,2" d="M69,-68.2875C69,-55.9187 69,-41.4264 69,-30.7592"/>
<polygon fill="#9a32cd" stroke="#9a32cd" points="65.5001,-68.4608 69,-78.4608 72.5001,-68.4608 65.5001,-68.4608"/>
<text text-anchor="middle" x="83" y="-52" font-family="Helvetica,sans-Serif" font-size="10.00" fill="#000000"> m_op</text>
</g>
</g>
</svg>
