<?xml version="1.0" encoding="UTF-8" standalone="no"?>
<!DOCTYPE svg PUBLIC "-//W3C//DTD SVG 1.1//EN"
 "http://www.w3.org/Graphics/SVG/1.1/DTD/svg11.dtd">
<!-- Generated by graphviz version 2.40.1 (20161225.0304)
 -->
<!-- Title: amr_wind::pde::AdvectionOp&lt; ICNS, fvm::Godunov &gt; Pages: 1 -->
<!--zoomable 573 -->
<svg id="main" version="1.1" xmlns="http://www.w3.org/2000/svg" xmlns:xlink="http://www.w3.org/1999/xlink" xml:space="preserve" onload="init(evt)">
<style type="text/css"><![CDATA[
.edge:hover path { stroke: red; }
.edge:hover polygon { stroke: red; fill: red; }
]]></style>
<script type="text/javascript"><![CDATA[
var edges = document.getElementsByTagName('g');
if (edges && edges.length) {
  for (var i=0;i<edges.length;i++) {
    if (edges[i].id.substr(0,4)=='edge') {
      edges[i].setAttribute('class','edge');
    }
  }
}
]]></script>
        <defs>
                <circle id="rim" cx="0" cy="0" r="7"/>
                <circle id="rim2" cx="0" cy="0" r="3.5"/>
                <g id="zoomPlus">
                        <use xlink:href="#rim" fill="#404040">
                                <set attributeName="fill" to="#808080" begin="zoomplus.mouseover" end="zoomplus.mouseout"/>
                        </use>
                        <path d="M-4,0h8M0,-4v8" fill="none" stroke="white" stroke-width="1.5" pointer-events="none"/>
                </g>
                <g id="zoomMin">
                        <use xlink:href="#rim" fill="#404040">
                                <set attributeName="fill" to="#808080" begin="zoomminus.mouseover" end="zoomminus.mouseout"/>
                        </use>
                        <path d="M-4,0h8" fill="none" stroke="white" stroke-width="1.5" pointer-events="none"/>
                </g>
                <g id="dirArrow">
                        <path fill="none" stroke="white" stroke-width="1.5" d="M0,-3.0v7 M-2.5,-0.5L0,-3.0L2.5,-0.5"/>
                </g>
               <g id="resetDef">
                       <use xlink:href="#rim2" fill="#404040">
                               <set attributeName="fill" to="#808080" begin="reset.mouseover" end="reset.mouseout"/>
                       </use>
               </g>
        </defs>

<script type="text/javascript">
var viewWidth = 565;
var viewHeight = 573;
var sectionId = 'dynsection-0';
</script>
<script xlink:href="svgpan.js"/>
<svg id="graph" class="graph">
<g id="viewport">
<title>amr_wind::pde::AdvectionOp&lt; ICNS, fvm::Godunov &gt;</title>
<polygon fill="#ffffff" stroke="transparent" points="-4,4 -4,-569 561,-569 561,4 -4,4"/>
<!-- Node1 -->
<g id="node1" class="node">
<title>Node1</title>
<polygon fill="#bfbfbf" stroke="#000000" points="102,-.5 102,-30.5 242,-30.5 242,-.5 102,-.5"/>
<text text-anchor="start" x="110" y="-18.5" font-family="Helvetica,sans-Serif" font-size="10.00" fill="#000000">amr_wind::pde::Advection</text>
<text text-anchor="middle" x="172" y="-7.5" font-family="Helvetica,sans-Serif" font-size="10.00" fill="#000000">Op&lt; ICNS, fvm::Godunov &gt;</text>
</g>
<!-- Node2 -->
<g id="node2" class="node">
<title>Node2</title>
<g id="a_node2"><a xlink:href="classamr__wind_1_1pde_1_1_mac_proj_op.html" target="_top" xlink:title="amr_wind::pde::MacProjOp">
<polygon fill="#ffffff" stroke="#000000" points="235.5,-202.5 235.5,-221.5 370.5,-221.5 370.5,-202.5 235.5,-202.5"/>
<text text-anchor="middle" x="303" y="-209.5" font-family="Helvetica,sans-Serif" font-size="10.00" fill="#000000">amr_wind::pde::MacProjOp</text>
</a>
</g>
</g>
<!-- Node2&#45;&gt;Node1 -->
<g id="edge1" class="edge">
<title>Node2&#45;&gt;Node1</title>
<path fill="none" stroke="#9a32cd" stroke-dasharray="5,2" d="M293.6603,-193.2125C280.1352,-166.6482 253.6713,-117.0023 226,-78 213.8856,-60.9249 198.0253,-42.9976 186.6321,-30.7439"/>
<polygon fill="#9a32cd" stroke="#9a32cd" points="290.5601,-194.8379 298.186,-202.193 296.8112,-191.6877 290.5601,-194.8379"/>
<text text-anchor="middle" x="280.5" y="-92" font-family="Helvetica,sans-Serif" font-size="10.00" fill="#000000"> m_macproj_op</text>
</g>
<!-- Node3 -->
<g id="node3" class="node">
<title>Node3</title>
<polygon fill="#ffffff" stroke="#bfbfbf" points="384.5,-307.5 384.5,-337.5 501.5,-337.5 501.5,-307.5 384.5,-307.5"/>
<text text-anchor="start" x="392.5" y="-325.5" font-family="Helvetica,sans-Serif" font-size="10.00" fill="#000000">std::unique_ptr&lt; amrex</text>
<text text-anchor="middle" x="443" y="-314.5" font-family="Helvetica,sans-Serif" font-size="10.00" fill="#000000">::MacProjector &gt;</text>
</g>
<!-- Node3&#45;&gt;Node2 -->
<g id="edge2" class="edge">
<title>Node3&#45;&gt;Node2</title>
<path fill="none" stroke="#9a32cd" stroke-dasharray="5,2" d="M415.7655,-301.0042C385.4232,-277.0555 337.7002,-239.3884 315.3368,-221.7372"/>
<polygon fill="#9a32cd" stroke="#9a32cd" points="413.8091,-303.9189 423.8271,-307.3671 418.146,-298.4242 413.8091,-303.9189"/>
<text text-anchor="middle" x="427.5" y="-276.5" font-family="Helvetica,sans-Serif" font-size="10.00" fill="#000000"> m_mac_proj</text>
</g>
<!-- Node4 -->
<g id="node4" class="node">
<title>Node4</title>
<g id="a_node4"><a xlink:title="STL class. ">
<polygon fill="#ffffff" stroke="#bfbfbf" points="394.5,-412 394.5,-431 499.5,-431 499.5,-412 394.5,-412"/>
<text text-anchor="middle" x="447" y="-419" font-family="Helvetica,sans-Serif" font-size="10.00" fill="#000000">std::unique_ptr&lt; T &gt;</text>
</a>
</g>
</g>
<!-- Node4&#45;&gt;Node3 -->
<g id="edge3" class="edge">
<title>Node4&#45;&gt;Node3</title>
<path fill="none" stroke="#ffa500" stroke-dasharray="5,2" d="M446.192,-401.5022C445.4314,-382.6778 444.3087,-354.8907 443.6175,-337.7822"/>
<polygon fill="#ffa500" stroke="#ffa500" points="442.7009,-401.795 446.6018,-411.6456 449.6952,-401.5124 442.7009,-401.795"/>
<text text-anchor="middle" x="501" y="-369" font-family="Helvetica,sans-Serif" font-size="10.00" fill="#000000"> &lt; amrex::MacProjector &gt;</text>
</g>
<!-- Node5 -->
<g id="node5" class="node">
<title>Node5</title>
<polygon fill="#ffffff" stroke="#bfbfbf" points="370.5,-540 370.5,-559 399.5,-559 399.5,-540 370.5,-540"/>
<text text-anchor="middle" x="385" y="-547" font-family="Helvetica,sans-Serif" font-size="10.00" fill="#000000">T</text>
</g>
<!-- Node5&#45;&gt;Node4 -->
<g id="edge4" class="edge">
<title>Node5&#45;&gt;Node4</title>
<path fill="none" stroke="#9a32cd" stroke-dasharray="5,2" d="M394.0325,-530.8523C407.4069,-503.2407 432.0022,-452.4632 442.2858,-431.2324"/>
<polygon fill="#9a32cd" stroke="#9a32cd" points="390.8695,-529.3536 389.6601,-539.8792 397.1694,-532.4051 390.8695,-529.3536"/>
<text text-anchor="middle" x="412.5" y="-508" font-family="Helvetica,sans-Serif" font-size="10.00" fill="#000000"> ptr</text>
</g>
<!-- Node11 -->
<g id="node11" class="node">
<title>Node11</title>
<g id="a_node11"><a xlink:title="STL class. ">
<polygon fill="#ffffff" stroke="#bfbfbf" points="223.5,-456.5 223.5,-486.5 326.5,-486.5 326.5,-456.5 223.5,-456.5"/>
<text text-anchor="start" x="231.5" y="-474.5" font-family="Helvetica,sans-Serif" font-size="10.00" fill="#000000">std::unordered_map</text>
<text text-anchor="middle" x="275" y="-463.5" font-family="Helvetica,sans-Serif" font-size="10.00" fill="#000000">&lt; K, T &gt;</text>
</a>
</g>
</g>
<!-- Node5&#45;&gt;Node11 -->
<g id="edge13" class="edge">
<title>Node5&#45;&gt;Node11</title>
<path fill="none" stroke="#9a32cd" stroke-dasharray="5,2" d="M363.3133,-534.1222C343.9823,-520.4147 315.8421,-500.4607 296.5521,-486.7824"/>
<polygon fill="#9a32cd" stroke="#9a32cd" points="361.33,-537.0064 371.5118,-539.9357 365.379,-531.2963 361.33,-537.0064"/>
<text text-anchor="middle" x="357.5" y="-508" font-family="Helvetica,sans-Serif" font-size="10.00" fill="#000000"> elements</text>
</g>
<!-- Node6 -->
<g id="node6" class="node">
<title>Node6</title>
<g id="a_node6"><a xlink:href="structamr__wind_1_1_m_l_m_g_options.html" target="_top" xlink:title="Interface to control the behavior of AMReX LinearSolvers. ">
<polygon fill="#ffffff" stroke="#000000" points="243,-313 243,-332 371,-332 371,-313 243,-313"/>
<text text-anchor="middle" x="307" y="-320" font-family="Helvetica,sans-Serif" font-size="10.00" fill="#000000">amr_wind::MLMGOptions</text>
</a>
</g>
</g>
<!-- Node6&#45;&gt;Node2 -->
<g id="edge5" class="edge">
<title>Node6&#45;&gt;Node2</title>
<path fill="none" stroke="#9a32cd" stroke-dasharray="5,2" d="M306.281,-302.6366C305.4164,-278.7522 304.0004,-239.6348 303.3485,-221.6264"/>
<polygon fill="#9a32cd" stroke="#9a32cd" points="302.7855,-302.8271 306.645,-312.6939 309.7809,-302.5738 302.7855,-302.8271"/>
<text text-anchor="middle" x="329.5" y="-276.5" font-family="Helvetica,sans-Serif" font-size="10.00" fill="#000000"> m_options</text>
</g>
<!-- Node7 -->
<g id="node7" class="node">
<title>Node7</title>
<g id="a_node7"><a xlink:title="STL class. ">
<polygon fill="#ffffff" stroke="#bfbfbf" points="88,-462 88,-481 148,-481 148,-462 88,-462"/>
<text text-anchor="middle" x="118" y="-469" font-family="Helvetica,sans-Serif" font-size="10.00" fill="#000000">std::string</text>
</a>
</g>
</g>
<!-- Node7&#45;&gt;Node1 -->
<g id="edge17" class="edge">
<title>Node7&#45;&gt;Node1</title>
<path fill="none" stroke="#9a32cd" stroke-dasharray="5,2" d="M80.6387,-457.9741C46.0712,-442.7724 0,-414.4545 0,-371.5 0,-371.5 0,-371.5 0,-94.5 0,-68.869 63.8701,-45.1401 113.7686,-30.5129"/>
<polygon fill="#9a32cd" stroke="#9a32cd" points="79.4602,-461.2751 90.0356,-461.9152 82.1676,-454.8198 79.4602,-461.2751"/>
<text text-anchor="middle" x="32" y="-243" font-family="Helvetica,sans-Serif" font-size="10.00" fill="#000000"> godunov_type</text>
</g>
<!-- Node7&#45;&gt;Node6 -->
<g id="edge6" class="edge">
<title>Node7&#45;&gt;Node6</title>
<path fill="none" stroke="#9a32cd" stroke-dasharray="5,2" d="M158.1728,-464.3662C204.9937,-455.8862 276.5819,-442.3362 281,-438 296.1092,-423.171 303.7376,-357.4186 306.1411,-332.2998"/>
<polygon fill="#9a32cd" stroke="#9a32cd" points="157.5231,-460.9268 148.3027,-466.1454 158.765,-467.8158 157.5231,-460.9268"/>
<text text-anchor="middle" x="337" y="-430" font-family="Helvetica,sans-Serif" font-size="10.00" fill="#000000"> hypre_namespace</text>
<text text-anchor="middle" x="337" y="-419" font-family="Helvetica,sans-Serif" font-size="10.00" fill="#000000">bottom_solver_type</text>
<text text-anchor="middle" x="337" y="-408" font-family="Helvetica,sans-Serif" font-size="10.00" fill="#000000">hypre_interface</text>
</g>
<!-- Node10 -->
<g id="node10" class="node">
<title>Node10</title>
<polygon fill="#ffffff" stroke="#bfbfbf" points="129,-356.5 129,-386.5 239,-386.5 239,-356.5 129,-356.5"/>
<text text-anchor="start" x="137" y="-374.5" font-family="Helvetica,sans-Serif" font-size="10.00" fill="#000000">std::unordered_map</text>
<text text-anchor="middle" x="184" y="-363.5" font-family="Helvetica,sans-Serif" font-size="10.00" fill="#000000">&lt; std::string, size_t &gt;</text>
</g>
<!-- Node7&#45;&gt;Node10 -->
<g id="edge10" class="edge">
<title>Node7&#45;&gt;Node10</title>
<path fill="none" stroke="#9a32cd" stroke-dasharray="5,2" d="M119.7847,-451.4852C121.8584,-437.4216 126.3364,-418.7413 136,-405 141.0274,-397.8513 148.094,-391.725 155.2623,-386.741"/>
<polygon fill="#9a32cd" stroke="#9a32cd" points="116.2883,-451.2484 118.584,-461.5915 123.2394,-452.0743 116.2883,-451.2484"/>
<text text-anchor="middle" x="148.5" y="-419" font-family="Helvetica,sans-Serif" font-size="10.00" fill="#000000"> keys</text>
</g>
<!-- Node13 -->
<g id="node13" class="node">
<title>Node13</title>
<g id="a_node13"><a xlink:href="classamr__wind_1_1_field.html" target="_top" xlink:title="Computational fieldThis is an abstraction of a collection of MultiFabs over multiple levels...">
<polygon fill="#ffffff" stroke="#000000" points="127,-202.5 127,-221.5 213,-221.5 213,-202.5 127,-202.5"/>
<text text-anchor="middle" x="170" y="-209.5" font-family="Helvetica,sans-Serif" font-size="10.00" fill="#000000">amr_wind::Field</text>
</a>
</g>
</g>
<!-- Node7&#45;&gt;Node13 -->
<g id="edge15" class="edge">
<title>Node7&#45;&gt;Node13</title>
<path fill="none" stroke="#9a32cd" stroke-dasharray="5,2" d="M113.8086,-451.7553C106.8424,-414.5421 95.8907,-332.0981 120,-269 127.5174,-249.3256 145.1693,-231.9785 157.3511,-221.735"/>
<polygon fill="#9a32cd" stroke="#9a32cd" points="110.4186,-452.6538 115.7993,-461.7806 117.2845,-451.2904 110.4186,-452.6538"/>
<text text-anchor="middle" x="130.5" y="-320" font-family="Helvetica,sans-Serif" font-size="10.00" fill="#000000"> m_name</text>
</g>
<!-- Node8 -->
<g id="node8" class="node">
<title>Node8</title>
<g id="a_node8"><a xlink:title="STL class. ">
<polygon fill="#ffffff" stroke="#bfbfbf" points="70.5,-534.5 70.5,-564.5 165.5,-564.5 165.5,-534.5 70.5,-534.5"/>
<text text-anchor="start" x="78.5" y="-552.5" font-family="Helvetica,sans-Serif" font-size="10.00" fill="#000000">std::basic_string&lt;</text>
<text text-anchor="middle" x="118" y="-541.5" font-family="Helvetica,sans-Serif" font-size="10.00" fill="#000000"> char &gt;</text>
</a>
</g>
</g>
<!-- Node8&#45;&gt;Node7 -->
<g id="edge7" class="edge">
<title>Node8&#45;&gt;Node7</title>
<path fill="none" stroke="#191970" d="M118,-524.3962C118,-509.6331 118,-491.8138 118,-481.0839"/>
<polygon fill="#191970" stroke="#191970" points="114.5001,-524.4608 118,-534.4608 121.5001,-524.4609 114.5001,-524.4608"/>
</g>
<!-- Node9 -->
<g id="node9" class="node">
<title>Node9</title>
<g id="a_node9"><a xlink:href="classamr__wind_1_1_field_repo.html" target="_top" xlink:title="Field RepositoryFieldRepo is a database that manages handling of fields used during a simulation...">
<polygon fill="#ffffff" stroke="#000000" points="129.5,-269.5 129.5,-288.5 238.5,-288.5 238.5,-269.5 129.5,-269.5"/>
<text text-anchor="middle" x="184" y="-276.5" font-family="Helvetica,sans-Serif" font-size="10.00" fill="#000000">amr_wind::FieldRepo</text>
</a>
</g>
</g>
<!-- Node9&#45;&gt;Node2 -->
<g id="edge8" class="edge">
<title>Node9&#45;&gt;Node2</title>
<path fill="none" stroke="#9a32cd" stroke-dasharray="5,2" d="M209.9587,-264.3846C233.0368,-251.391 266.1133,-232.7681 285.9818,-221.5817"/>
<polygon fill="#9a32cd" stroke="#9a32cd" points="208.0465,-261.4446 201.0498,-269.4005 211.4808,-267.5442 208.0465,-261.4446"/>
<text text-anchor="middle" x="269" y="-243" font-family="Helvetica,sans-Serif" font-size="10.00" fill="#000000"> m_repo</text>
</g>
<!-- Node9&#45;&gt;Node13 -->
<g id="edge16" class="edge">
<title>Node9&#45;&gt;Node13</title>
<path fill="none" stroke="#9a32cd" stroke-dasharray="5,2" d="M179.9225,-259.4863C177.3194,-247.0286 174.0591,-231.4258 172.0021,-221.5817"/>
<polygon fill="#9a32cd" stroke="#9a32cd" points="176.5227,-260.3279 181.9941,-269.4005 183.3747,-258.896 176.5227,-260.3279"/>
<text text-anchor="middle" x="196" y="-243" font-family="Helvetica,sans-Serif" font-size="10.00" fill="#000000"> m_repo</text>
</g>
<!-- Node14 -->
<g id="node14" class="node">
<title>Node14</title>
<g id="a_node14"><a xlink:href="structamr__wind_1_1pde_1_1_p_d_e_fields.html" target="_top" xlink:title="Collection of fields related to a PDEEvery PDE requires a common set of fields, e.g., the transported variable (scalar or vector), advection, diffusion, source, and effective viscosity fields. ">
<polygon fill="#ffffff" stroke="#000000" points="28,-85 28,-104 162,-104 162,-85 28,-85"/>
<text text-anchor="middle" x="95" y="-92" font-family="Helvetica,sans-Serif" font-size="10.00" fill="#000000">amr_wind::pde::PDEFields</text>
</a>
</g>
</g>
<!-- Node9&#45;&gt;Node14 -->
<g id="edge20" class="edge">
<title>Node9&#45;&gt;Node14</title>
<path fill="none" stroke="#9a32cd" stroke-dasharray="5,2" d="M147.0071,-265.1455C128.15,-255.9814 106.9382,-241.9306 96,-222 74.5933,-182.9945 86.1853,-126.6399 92.1544,-104.2254"/>
<polygon fill="#9a32cd" stroke="#9a32cd" points="145.7508,-268.4191 156.3023,-269.3767 148.6509,-262.0481 145.7508,-268.4191"/>
<text text-anchor="middle" x="107" y="-209.5" font-family="Helvetica,sans-Serif" font-size="10.00" fill="#000000"> repo</text>
</g>
<!-- Node10&#45;&gt;Node9 -->
<g id="edge9" class="edge">
<title>Node10&#45;&gt;Node9</title>
<path fill="none" stroke="#9a32cd" stroke-dasharray="5,2" d="M172.3994,-346.7579C171.4186,-343.8563 170.581,-340.897 170,-338 167.2908,-324.4912 166.8345,-320.4092 170,-307 171.5234,-300.5468 174.7744,-293.8852 177.7603,-288.6794"/>
<polygon fill="#9a32cd" stroke="#9a32cd" points="169.2054,-348.1997 176.1206,-356.2266 175.7203,-345.6393 169.2054,-348.1997"/>
<text text-anchor="middle" x="202" y="-325.5" font-family="Helvetica,sans-Serif" font-size="10.00" fill="#000000"> m_fid_map</text>
<text text-anchor="middle" x="202" y="-314.5" font-family="Helvetica,sans-Serif" font-size="10.00" fill="#000000">m_int_fid_map</text>
</g>
<!-- Node11&#45;&gt;Node10 -->
<g id="edge11" class="edge">
<title>Node11&#45;&gt;Node10</title>
<path fill="none" stroke="#ffa500" stroke-dasharray="5,2" d="M213.4472,-454.6785C199.8037,-449.6831 188.1473,-443.9462 184,-438 173.5646,-423.0384 176.0104,-401.2138 179.4122,-386.6969"/>
<polygon fill="#ffa500" stroke="#ffa500" points="212.5477,-458.0702 223.1424,-458.0118 214.8237,-451.4506 212.5477,-458.0702"/>
<text text-anchor="middle" x="232.5" y="-419" font-family="Helvetica,sans-Serif" font-size="10.00" fill="#000000"> &lt; std::string, size_t &gt;</text>
</g>
<!-- Node12 -->
<g id="node12" class="node">
<title>Node12</title>
<polygon fill="#ffffff" stroke="#bfbfbf" points="260.5,-540 260.5,-559 289.5,-559 289.5,-540 260.5,-540"/>
<text text-anchor="middle" x="275" y="-547" font-family="Helvetica,sans-Serif" font-size="10.00" fill="#000000">K</text>
</g>
<!-- Node12&#45;&gt;Node11 -->
<g id="edge12" class="edge">
<title>Node12&#45;&gt;Node11</title>
<path fill="none" stroke="#9a32cd" stroke-dasharray="5,2" d="M275,-529.8751C275,-516.5215 275,-499.1052 275,-486.7824"/>
<polygon fill="#9a32cd" stroke="#9a32cd" points="271.5001,-529.9356 275,-539.9357 278.5001,-529.9357 271.5001,-529.9356"/>
<text text-anchor="middle" x="287.5" y="-508" font-family="Helvetica,sans-Serif" font-size="10.00" fill="#000000"> keys</text>
</g>
<!-- Node13&#45;&gt;Node1 -->
<g id="edge14" class="edge">
<title>Node13&#45;&gt;Node1</title>
<path fill="none" stroke="#9a32cd" stroke-dasharray="5,2" d="M180.7968,-193.3349C182.1189,-190.3004 183.2621,-187.1258 184,-184 197.0719,-128.6265 183.4403,-60.4123 176.0708,-30.619"/>
<polygon fill="#9a32cd" stroke="#9a32cd" points="177.6413,-191.8189 176.2397,-202.3206 183.8843,-194.9851 177.6413,-191.8189"/>
<text text-anchor="middle" x="205.5" y="-103" font-family="Helvetica,sans-Serif" font-size="10.00" fill="#000000"> u_mac</text>
<text text-anchor="middle" x="205.5" y="-92" font-family="Helvetica,sans-Serif" font-size="10.00" fill="#000000">v_mac</text>
<text text-anchor="middle" x="205.5" y="-81" font-family="Helvetica,sans-Serif" font-size="10.00" fill="#000000">w_mac</text>
</g>
<!-- Node13&#45;&gt;Node14 -->
<g id="edge19" class="edge">
<title>Node13&#45;&gt;Node14</title>
<path fill="none" stroke="#9a32cd" stroke-dasharray="5,2" d="M148.8318,-195.6604C144.9432,-192.0786 141.1297,-188.1176 138,-184 118.1802,-157.9243 104.0942,-121.2543 98.1485,-104.0796"/>
<polygon fill="#9a32cd" stroke="#9a32cd" points="146.8489,-198.5699 156.724,-202.4083 151.3979,-193.2495 146.8489,-198.5699"/>
<text text-anchor="middle" x="161" y="-176" font-family="Helvetica,sans-Serif" font-size="10.00" fill="#000000"> src_term</text>
<text text-anchor="middle" x="161" y="-165" font-family="Helvetica,sans-Serif" font-size="10.00" fill="#000000">field</text>
<text text-anchor="middle" x="161" y="-154" font-family="Helvetica,sans-Serif" font-size="10.00" fill="#000000">diff_term</text>
<text text-anchor="middle" x="161" y="-143" font-family="Helvetica,sans-Serif" font-size="10.00" fill="#000000">mueff</text>
<text text-anchor="middle" x="161" y="-132" font-family="Helvetica,sans-Serif" font-size="10.00" fill="#000000">conv_term</text>
</g>
<!-- Node14&#45;&gt;Node1 -->
<g id="edge18" class="edge">
<title>Node14&#45;&gt;Node1</title>
<path fill="none" stroke="#9a32cd" stroke-dasharray="5,2" d="M111.7156,-77.3502C125.2681,-63.4457 144.1885,-44.0338 157.1992,-30.6852"/>
<polygon fill="#9a32cd" stroke="#9a32cd" points="108.9152,-75.2089 104.4417,-84.813 113.928,-80.0948 108.9152,-75.2089"/>
<text text-anchor="middle" x="152.5" y="-52" font-family="Helvetica,sans-Serif" font-size="10.00" fill="#000000"> fields</text>
</g>
</g>
</svg>
        <g id="navigator" transform="translate(0 0)" fill="#404254">
                <rect fill="#f2f5e9" fill-opacity="0.5" stroke="#606060" stroke-width=".5" x="0" y="0" width="60" height="60"/>
                <use id="zoomplus" xlink:href="#zoomPlus" x="17" y="9" onmousedown="handleZoom(evt,'in')"/>
                <use id="zoomminus" xlink:href="#zoomMin" x="42" y="9" onmousedown="handleZoom(evt,'out')"/>
                <use id="reset" xlink:href="#resetDef" x="30" y="36" onmousedown="handleReset()"/>
                <g id="arrowUp" xlink:href="#dirArrow" transform="translate(30 24)" onmousedown="handlePan(0,-1)">
                  <use xlink:href="#rim" fill="#404040">
                        <set attributeName="fill" to="#808080" begin="arrowUp.mouseover" end="arrowUp.mouseout"/>
                  </use>
                  <path fill="none" stroke="white" stroke-width="1.5" d="M0,-3.0v7 M-2.5,-0.5L0,-3.0L2.5,-0.5"/>
                </g>
                <g id="arrowRight" xlink:href="#dirArrow" transform="rotate(90) translate(36 -43)" onmousedown="handlePan(1,0)">
                  <use xlink:href="#rim" fill="#404040">
                        <set attributeName="fill" to="#808080" begin="arrowRight.mouseover" end="arrowRight.mouseout"/>
                  </use>
                  <path fill="none" stroke="white" stroke-width="1.5" d="M0,-3.0v7 M-2.5,-0.5L0,-3.0L2.5,-0.5"/>
                </g>
                <g id="arrowDown" xlink:href="#dirArrow" transform="rotate(180) translate(-30 -48)" onmousedown="handlePan(0,1)">
                  <use xlink:href="#rim" fill="#404040">
                        <set attributeName="fill" to="#808080" begin="arrowDown.mouseover" end="arrowDown.mouseout"/>
                  </use>
                  <path fill="none" stroke="white" stroke-width="1.5" d="M0,-3.0v7 M-2.5,-0.5L0,-3.0L2.5,-0.5"/>
                </g>
                <g id="arrowLeft" xlink:href="#dirArrow" transform="rotate(270) translate(-36 17)" onmousedown="handlePan(-1,0)">
                  <use xlink:href="#rim" fill="#404040">
                        <set attributeName="fill" to="#808080" begin="arrowLeft.mouseover" end="arrowLeft.mouseout"/>
                  </use>
                  <path fill="none" stroke="white" stroke-width="1.5" d="M0,-3.0v7 M-2.5,-0.5L0,-3.0L2.5,-0.5"/>
                </g>
        </g>
        <svg viewBox="0 0 15 15" width="100%" height="30px" preserveAspectRatio="xMaxYMin meet">
         <g id="arrow_out" transform="scale(0.3 0.3)">
          <a xlink:href="structamr__wind_1_1pde_1_1_advection_op_3_01_i_c_n_s_00_01fvm_1_1_godunov_01_4__coll__graph_org.svg" target="_base">
           <rect id="button" ry="5" rx="5" y="6" x="6" height="38" width="38"
                fill="#f2f5e9" fill-opacity="0.5" stroke="#606060" stroke-width="1.0"/>
           <path id="arrow"
             d="M 11.500037,31.436501 C 11.940474,20.09759 22.043105,11.32322 32.158766,21.979434 L 37.068811,17.246167 C 37.068811,17.246167 37.088388,32 37.088388,32 L 22.160133,31.978069 C 22.160133,31.978069 26.997745,27.140456 26.997745,27.140456 C 18.528582,18.264221 13.291696,25.230495 11.500037,31.436501 z"
             style="fill:#404040;"/>
          </a>
         </g>
        </svg>
</svg>
