<?xml version="1.0" encoding="UTF-8" standalone="no"?>
<!DOCTYPE svg PUBLIC "-//W3C//DTD SVG 1.1//EN"
 "http://www.w3.org/Graphics/SVG/1.1/DTD/svg11.dtd">
<!-- Generated by graphviz version 2.40.1 (20161225.0304)
 -->
<!-- Title: amr_wind::pde::AdvectionOp&lt; ICNS, fvm::MOL &gt; Pages: 1 -->
<!--zoomable 219 -->
<svg id="main" version="1.1" xmlns="http://www.w3.org/2000/svg" xmlns:xlink="http://www.w3.org/1999/xlink" xml:space="preserve" onload="init(evt)">
<style type="text/css"><![CDATA[
.edge:hover path { stroke: red; }
.edge:hover polygon { stroke: red; fill: red; }
]]></style>
<script type="text/javascript"><![CDATA[
var edges = document.getElementsByTagName('g');
if (edges && edges.length) {
  for (var i=0;i<edges.length;i++) {
    if (edges[i].id.substr(0,4)=='edge') {
      edges[i].setAttribute('class','edge');
    }
  }
}
]]></script>
        <defs>
                <circle id="rim" cx="0" cy="0" r="7"/>
                <circle id="rim2" cx="0" cy="0" r="3.5"/>
                <g id="zoomPlus">
                        <use xlink:href="#rim" fill="#404040">
                                <set attributeName="fill" to="#808080" begin="zoomplus.mouseover" end="zoomplus.mouseout"/>
                        </use>
                        <path d="M-4,0h8M0,-4v8" fill="none" stroke="white" stroke-width="1.5" pointer-events="none"/>
                </g>
                <g id="zoomMin">
                        <use xlink:href="#rim" fill="#404040">
                                <set attributeName="fill" to="#808080" begin="zoomminus.mouseover" end="zoomminus.mouseout"/>
                        </use>
                        <path d="M-4,0h8" fill="none" stroke="white" stroke-width="1.5" pointer-events="none"/>
                </g>
                <g id="dirArrow">
                        <path fill="none" stroke="white" stroke-width="1.5" d="M0,-3.0v7 M-2.5,-0.5L0,-3.0L2.5,-0.5"/>
                </g>
               <g id="resetDef">
                       <use xlink:href="#rim2" fill="#404040">
                               <set attributeName="fill" to="#808080" begin="reset.mouseover" end="reset.mouseout"/>
                       </use>
               </g>
        </defs>

<script type="text/javascript">
var viewWidth = 1427;
var viewHeight = 219;
var sectionId = 'dynsection-0';
</script>
<script xlink:href="svgpan.js"/>
<svg id="graph" class="graph">
<g id="viewport">
<title>amr_wind::pde::AdvectionOp&lt; ICNS, fvm::MOL &gt;</title>
<polygon fill="#ffffff" stroke="transparent" points="-4,4 -4,-214.5847 1423,-214.5847 1423,4 -4,4"/>
<!-- Node1 -->
<g id="node1" class="node">
<title>Node1</title>
<polygon fill="#bfbfbf" stroke="#000000" points="1289,-46.0847 1289,-76.0847 1419,-76.0847 1419,-46.0847 1289,-46.0847"/>
<text text-anchor="start" x="1297" y="-64.0847" font-family="Helvetica,sans-Serif" font-size="10.00" fill="#000000">amr_wind::pde::Advection</text>
<text text-anchor="middle" x="1354" y="-53.0847" font-family="Helvetica,sans-Serif" font-size="10.00" fill="#000000">Op&lt; ICNS, fvm::MOL &gt;</text>
</g>
<!-- Node2 -->
<g id="node2" class="node">
<title>Node2</title>
<g id="a_node2"><a xlink:href="classamr__wind_1_1pde_1_1_mac_proj_op.html" target="_top" xlink:title="amr_wind::pde::MacProjOp">
<polygon fill="#ffffff" stroke="#000000" points="875,-125.5847 875,-144.5847 1010,-144.5847 1010,-125.5847 875,-125.5847"/>
<text text-anchor="middle" x="942.5" y="-132.5847" font-family="Helvetica,sans-Serif" font-size="10.00" fill="#000000">amr_wind::pde::MacProjOp</text>
</a>
</g>
</g>
<!-- Node2&#45;&gt;Node1 -->
<g id="edge1" class="edge">
<title>Node2&#45;&gt;Node1</title>
<path fill="none" stroke="#9a32cd" stroke-dasharray="5,2" d="M1005.5564,-123.7804C1071.6921,-111.9192 1178.6543,-92.722 1271,-76.0847 1276.7645,-75.0461 1282.7539,-73.9659 1288.7572,-72.8824"/>
<polygon fill="#9a32cd" stroke="#9a32cd" points="1004.9267,-120.3374 995.7015,-125.5477 1006.1624,-127.2275 1004.9267,-120.3374"/>
<text text-anchor="middle" x="1159" y="-112.0847" font-family="Helvetica,sans-Serif" font-size="10.00" fill="#000000"> m_macproj_op</text>
</g>
<!-- Node3 -->
<g id="node3" class="node">
<title>Node3</title>
<polygon fill="#ffffff" stroke="#bfbfbf" points="553.5,-180.0847 553.5,-210.0847 670.5,-210.0847 670.5,-180.0847 553.5,-180.0847"/>
<text text-anchor="start" x="561.5" y="-198.0847" font-family="Helvetica,sans-Serif" font-size="10.00" fill="#000000">std::unique_ptr&lt; amrex</text>
<text text-anchor="middle" x="612" y="-187.0847" font-family="Helvetica,sans-Serif" font-size="10.00" fill="#000000">::MacProjector &gt;</text>
</g>
<!-- Node3&#45;&gt;Node2 -->
<g id="edge2" class="edge">
<title>Node3&#45;&gt;Node2</title>
<path fill="none" stroke="#9a32cd" stroke-dasharray="5,2" d="M680.8339,-182.5884C743.1045,-171.2836 833.4669,-154.8789 890.0582,-144.6051"/>
<polygon fill="#9a32cd" stroke="#9a32cd" points="679.9199,-179.197 670.7059,-184.427 681.1703,-186.0844 679.9199,-179.197"/>
<text text-anchor="middle" x="748.5" y="-182.0847" font-family="Helvetica,sans-Serif" font-size="10.00" fill="#000000"> m_mac_proj</text>
</g>
<!-- Node4 -->
<g id="node4" class="node">
<title>Node4</title>
<g id="a_node4"><a xlink:title="STL class. ">
<polygon fill="#ffffff" stroke="#bfbfbf" points="295,-186.5847 295,-205.5847 400,-205.5847 400,-186.5847 295,-186.5847"/>
<text text-anchor="middle" x="347.5" y="-193.5847" font-family="Helvetica,sans-Serif" font-size="10.00" fill="#000000">std::unique_ptr&lt; T &gt;</text>
</a>
</g>
</g>
<!-- Node4&#45;&gt;Node3 -->
<g id="edge3" class="edge">
<title>Node4&#45;&gt;Node3</title>
<path fill="none" stroke="#ffa500" stroke-dasharray="5,2" d="M410.1988,-195.8476C453.4757,-195.684 510.641,-195.4679 553.0775,-195.3075"/>
<polygon fill="#ffa500" stroke="#ffa500" points="410.0596,-192.348 400.0729,-195.8859 410.0861,-199.348 410.0596,-192.348"/>
<text text-anchor="middle" x="474" y="-198.0847" font-family="Helvetica,sans-Serif" font-size="10.00" fill="#000000"> &lt; amrex::MacProjector &gt;</text>
</g>
<!-- Node5 -->
<g id="node5" class="node">
<title>Node5</title>
<polygon fill="#ffffff" stroke="#bfbfbf" points="33,-179.5847 33,-198.5847 62,-198.5847 62,-179.5847 33,-179.5847"/>
<text text-anchor="middle" x="47.5" y="-186.5847" font-family="Helvetica,sans-Serif" font-size="10.00" fill="#000000">T</text>
</g>
<!-- Node5&#45;&gt;Node4 -->
<g id="edge4" class="edge">
<title>Node5&#45;&gt;Node4</title>
<path fill="none" stroke="#9a32cd" stroke-dasharray="5,2" d="M72.631,-189.6711C121.3533,-190.8079 229.586,-193.3334 294.7583,-194.8541"/>
<polygon fill="#9a32cd" stroke="#9a32cd" points="72.456,-186.1661 62.377,-189.4318 72.2926,-193.1642 72.456,-186.1661"/>
<text text-anchor="middle" x="134.5" y="-194.0847" font-family="Helvetica,sans-Serif" font-size="10.00" fill="#000000"> ptr</text>
</g>
<!-- Node11 -->
<g id="node11" class="node">
<title>Node11</title>
<g id="a_node11"><a xlink:title="STL class. ">
<polygon fill="#ffffff" stroke="#bfbfbf" points="174,-145.0847 174,-175.0847 277,-175.0847 277,-145.0847 174,-145.0847"/>
<text text-anchor="start" x="182" y="-163.0847" font-family="Helvetica,sans-Serif" font-size="10.00" fill="#000000">std::unordered_map</text>
<text text-anchor="middle" x="225.5" y="-152.0847" font-family="Helvetica,sans-Serif" font-size="10.00" fill="#000000">&lt; K, T &gt;</text>
</a>
</g>
</g>
<!-- Node5&#45;&gt;Node11 -->
<g id="edge13" class="edge">
<title>Node5&#45;&gt;Node11</title>
<path fill="none" stroke="#9a32cd" stroke-dasharray="5,2" d="M72.047,-181.2685C84.2453,-177.6597 99.2771,-173.622 113,-171.0847 132.7798,-167.4276 154.7554,-164.9355 173.9976,-163.2619"/>
<polygon fill="#9a32cd" stroke="#9a32cd" points="70.7062,-178.0181 62.1607,-184.281 72.7467,-184.7141 70.7062,-178.0181"/>
<text text-anchor="middle" x="134.5" y="-174.0847" font-family="Helvetica,sans-Serif" font-size="10.00" fill="#000000"> elements</text>
</g>
<!-- Node6 -->
<g id="node6" class="node">
<title>Node6</title>
<g id="a_node6"><a xlink:href="structamr__wind_1_1_m_l_m_g_options.html" target="_top" xlink:title="Interface to control the behavior of AMReX LinearSolvers. ">
<polygon fill="#ffffff" stroke="#000000" points="548,-119.5847 548,-138.5847 676,-138.5847 676,-119.5847 548,-119.5847"/>
<text text-anchor="middle" x="612" y="-126.5847" font-family="Helvetica,sans-Serif" font-size="10.00" fill="#000000">amr_wind::MLMGOptions</text>
</a>
</g>
</g>
<!-- Node6&#45;&gt;Node2 -->
<g id="edge5" class="edge">
<title>Node6&#45;&gt;Node2</title>
<path fill="none" stroke="#9a32cd" stroke-dasharray="5,2" d="M686.4231,-130.4358C742.9614,-131.4622 820.0768,-132.8622 874.8704,-133.8569"/>
<polygon fill="#9a32cd" stroke="#9a32cd" points="686.1775,-126.9308 676.1156,-130.2487 686.0504,-133.9297 686.1775,-126.9308"/>
<text text-anchor="middle" x="748.5" y="-136.0847" font-family="Helvetica,sans-Serif" font-size="10.00" fill="#000000"> m_options</text>
</g>
<!-- Node7 -->
<g id="node7" class="node">
<title>Node7</title>
<g id="a_node7"><a xlink:title="STL class. ">
<polygon fill="#ffffff" stroke="#bfbfbf" points="195.5,-59.5847 195.5,-78.5847 255.5,-78.5847 255.5,-59.5847 195.5,-59.5847"/>
<text text-anchor="middle" x="225.5" y="-66.5847" font-family="Helvetica,sans-Serif" font-size="10.00" fill="#000000">std::string</text>
</a>
</g>
</g>
<!-- Node7&#45;&gt;Node6 -->
<g id="edge6" class="edge">
<title>Node7&#45;&gt;Node6</title>
<path fill="none" stroke="#9a32cd" stroke-dasharray="5,2" d="M265.3107,-78.189C274.9991,-80.2628 285.3501,-82.3607 295,-84.0847 382.1417,-99.653 483.5368,-113.2659 547.7308,-121.3316"/>
<polygon fill="#9a32cd" stroke="#9a32cd" points="266.0273,-74.7631 255.5113,-76.0531 264.5366,-81.6025 266.0273,-74.7631"/>
<text text-anchor="middle" x="347.5" y="-126.0847" font-family="Helvetica,sans-Serif" font-size="10.00" fill="#000000"> hypre_namespace</text>
<text text-anchor="middle" x="347.5" y="-115.0847" font-family="Helvetica,sans-Serif" font-size="10.00" fill="#000000">bottom_solver_type</text>
<text text-anchor="middle" x="347.5" y="-104.0847" font-family="Helvetica,sans-Serif" font-size="10.00" fill="#000000">hypre_interface</text>
</g>
<!-- Node10 -->
<g id="node10" class="node">
<title>Node10</title>
<polygon fill="#ffffff" stroke="#bfbfbf" points="419,-54.0847 419,-84.0847 529,-84.0847 529,-54.0847 419,-54.0847"/>
<text text-anchor="start" x="427" y="-72.0847" font-family="Helvetica,sans-Serif" font-size="10.00" fill="#000000">std::unordered_map</text>
<text text-anchor="middle" x="474" y="-61.0847" font-family="Helvetica,sans-Serif" font-size="10.00" fill="#000000">&lt; std::string, size_t &gt;</text>
</g>
<!-- Node7&#45;&gt;Node10 -->
<g id="edge10" class="edge">
<title>Node7&#45;&gt;Node10</title>
<path fill="none" stroke="#9a32cd" stroke-dasharray="5,2" d="M266.0027,-69.0847C307.5414,-69.0847 372.4437,-69.0847 418.6955,-69.0847"/>
<polygon fill="#9a32cd" stroke="#9a32cd" points="265.971,-65.5848 255.971,-69.0847 265.9709,-72.5848 265.971,-65.5848"/>
<text text-anchor="middle" x="347.5" y="-72.0847" font-family="Helvetica,sans-Serif" font-size="10.00" fill="#000000"> keys</text>
</g>
<!-- Node13 -->
<g id="node13" class="node">
<title>Node13</title>
<g id="a_node13"><a xlink:href="classamr__wind_1_1_field.html" target="_top" xlink:title="Computational fieldThis is an abstraction of a collection of MultiFabs over multiple levels...">
<polygon fill="#ffffff" stroke="#000000" points="899.5,-9.5847 899.5,-28.5847 985.5,-28.5847 985.5,-9.5847 899.5,-9.5847"/>
<text text-anchor="middle" x="942.5" y="-16.5847" font-family="Helvetica,sans-Serif" font-size="10.00" fill="#000000">amr_wind::Field</text>
</a>
</g>
</g>
<!-- Node7&#45;&gt;Node13 -->
<g id="edge15" class="edge">
<title>Node7&#45;&gt;Node13</title>
<path fill="none" stroke="#9a32cd" stroke-dasharray="5,2" d="M266.1312,-62.8293C305.0186,-57.0746 365.3763,-48.7481 418,-44.0847 596.2078,-28.2921 809.4239,-22.0208 899.2447,-19.9537"/>
<polygon fill="#9a32cd" stroke="#9a32cd" points="265.1297,-59.44 255.7565,-64.379 266.1639,-66.3631 265.1297,-59.44"/>
<text text-anchor="middle" x="612" y="-38.0847" font-family="Helvetica,sans-Serif" font-size="10.00" fill="#000000"> m_name</text>
</g>
<!-- Node8 -->
<g id="node8" class="node">
<title>Node8</title>
<g id="a_node8"><a xlink:title="STL class. ">
<polygon fill="#ffffff" stroke="#bfbfbf" points="0,-54.0847 0,-84.0847 95,-84.0847 95,-54.0847 0,-54.0847"/>
<text text-anchor="start" x="8" y="-72.0847" font-family="Helvetica,sans-Serif" font-size="10.00" fill="#000000">std::basic_string&lt;</text>
<text text-anchor="middle" x="47.5" y="-61.0847" font-family="Helvetica,sans-Serif" font-size="10.00" fill="#000000"> char &gt;</text>
</a>
</g>
</g>
<!-- Node8&#45;&gt;Node7 -->
<g id="edge7" class="edge">
<title>Node8&#45;&gt;Node7</title>
<path fill="none" stroke="#191970" d="M105.5446,-69.0847C135.493,-69.0847 170.7833,-69.0847 195.3,-69.0847"/>
<polygon fill="#191970" stroke="#191970" points="105.2008,-65.5848 95.2007,-69.0847 105.2007,-72.5848 105.2008,-65.5848"/>
</g>
<!-- Node9 -->
<g id="node9" class="node">
<title>Node9</title>
<g id="a_node9"><a xlink:href="classamr__wind_1_1_field_repo.html" target="_top" xlink:title="Field RepositoryFieldRepo is a database that manages handling of fields used during a simulation...">
<polygon fill="#ffffff" stroke="#000000" points="694,-67.5847 694,-86.5847 803,-86.5847 803,-67.5847 694,-67.5847"/>
<text text-anchor="middle" x="748.5" y="-74.5847" font-family="Helvetica,sans-Serif" font-size="10.00" fill="#000000">amr_wind::FieldRepo</text>
</a>
</g>
</g>
<!-- Node9&#45;&gt;Node2 -->
<g id="edge8" class="edge">
<title>Node9&#45;&gt;Node2</title>
<path fill="none" stroke="#9a32cd" stroke-dasharray="5,2" d="M790.2623,-89.5703C826.2817,-100.339 877.5434,-115.6647 910.4173,-125.4929"/>
<polygon fill="#9a32cd" stroke="#9a32cd" points="791.1187,-86.1734 780.5352,-86.6622 789.1136,-92.88 791.1187,-86.1734"/>
<text text-anchor="middle" x="839" y="-111.0847" font-family="Helvetica,sans-Serif" font-size="10.00" fill="#000000"> m_repo</text>
</g>
<!-- Node9&#45;&gt;Node13 -->
<g id="edge16" class="edge">
<title>Node9&#45;&gt;Node13</title>
<path fill="none" stroke="#9a32cd" stroke-dasharray="5,2" d="M790.2623,-64.599C826.2817,-53.8304 877.5434,-38.5047 910.4173,-28.6764"/>
<polygon fill="#9a32cd" stroke="#9a32cd" points="789.1136,-61.2893 780.5352,-67.5072 791.1187,-67.996 789.1136,-61.2893"/>
<text text-anchor="middle" x="839" y="-58.0847" font-family="Helvetica,sans-Serif" font-size="10.00" fill="#000000"> m_repo</text>
</g>
<!-- Node14 -->
<g id="node14" class="node">
<title>Node14</title>
<g id="a_node14"><a xlink:href="structamr__wind_1_1pde_1_1_p_d_e_fields.html" target="_top" xlink:title="Collection of fields related to a PDEEvery PDE requires a common set of fields, e.g., the transported variable (scalar or vector), advection, diffusion, source, and effective viscosity fields. ">
<polygon fill="#ffffff" stroke="#000000" points="1092,-51.5847 1092,-70.5847 1226,-70.5847 1226,-51.5847 1092,-51.5847"/>
<text text-anchor="middle" x="1159" y="-58.5847" font-family="Helvetica,sans-Serif" font-size="10.00" fill="#000000">amr_wind::pde::PDEFields</text>
</a>
</g>
</g>
<!-- Node9&#45;&gt;Node14 -->
<g id="edge19" class="edge">
<title>Node9&#45;&gt;Node14</title>
<path fill="none" stroke="#9a32cd" stroke-dasharray="5,2" d="M813.2175,-78.2458C878.9707,-78.9193 983.7053,-78.5997 1074,-72.0847 1079.7882,-71.6671 1085.7855,-71.1214 1091.7939,-70.4964"/>
<polygon fill="#9a32cd" stroke="#9a32cd" points="813.0465,-74.7437 803.0074,-78.13 812.967,-81.7433 813.0465,-74.7437"/>
<text text-anchor="middle" x="942.5" y="-82.0847" font-family="Helvetica,sans-Serif" font-size="10.00" fill="#000000"> repo</text>
</g>
<!-- Node10&#45;&gt;Node9 -->
<g id="edge9" class="edge">
<title>Node10&#45;&gt;Node9</title>
<path fill="none" stroke="#9a32cd" stroke-dasharray="5,2" d="M539.3254,-70.9885C586.4563,-72.3621 649.3586,-74.1953 693.838,-75.4916"/>
<polygon fill="#9a32cd" stroke="#9a32cd" points="539.3167,-67.4869 529.219,-70.694 539.1127,-74.4839 539.3167,-67.4869"/>
<text text-anchor="middle" x="612" y="-89.0847" font-family="Helvetica,sans-Serif" font-size="10.00" fill="#000000"> m_fid_map</text>
<text text-anchor="middle" x="612" y="-78.0847" font-family="Helvetica,sans-Serif" font-size="10.00" fill="#000000">m_int_fid_map</text>
</g>
<!-- Node11&#45;&gt;Node10 -->
<g id="edge11" class="edge">
<title>Node11&#45;&gt;Node10</title>
<path fill="none" stroke="#ffa500" stroke-dasharray="5,2" d="M287.2471,-166.1082C321.9477,-166.9508 365.1525,-163.6196 400,-147.0847 429.0062,-133.3214 452.4401,-102.8421 464.6956,-84.3219"/>
<polygon fill="#ffa500" stroke="#ffa500" points="287.3561,-162.6099 277.2358,-165.7453 287.1025,-169.6053 287.3561,-162.6099"/>
<text text-anchor="middle" x="347.5" y="-169.0847" font-family="Helvetica,sans-Serif" font-size="10.00" fill="#000000"> &lt; std::string, size_t &gt;</text>
</g>
<!-- Node12 -->
<g id="node12" class="node">
<title>Node12</title>
<polygon fill="#ffffff" stroke="#bfbfbf" points="33,-126.5847 33,-145.5847 62,-145.5847 62,-126.5847 33,-126.5847"/>
<text text-anchor="middle" x="47.5" y="-133.5847" font-family="Helvetica,sans-Serif" font-size="10.00" fill="#000000">K</text>
</g>
<!-- Node12&#45;&gt;Node11 -->
<g id="edge12" class="edge">
<title>Node12&#45;&gt;Node11</title>
<path fill="none" stroke="#9a32cd" stroke-dasharray="5,2" d="M72.1945,-134.1524C94.309,-132.9327 127.5431,-132.3637 156,-137.0847 166.2813,-138.7904 177.1068,-141.7631 187.0731,-145.0163"/>
<polygon fill="#9a32cd" stroke="#9a32cd" points="71.7706,-130.6722 62.0146,-134.8039 72.2177,-137.6579 71.7706,-130.6722"/>
<text text-anchor="middle" x="134.5" y="-140.0847" font-family="Helvetica,sans-Serif" font-size="10.00" fill="#000000"> keys</text>
</g>
<!-- Node13&#45;&gt;Node1 -->
<g id="edge14" class="edge">
<title>Node13&#45;&gt;Node1</title>
<path fill="none" stroke="#9a32cd" stroke-dasharray="5,2" d="M995.6764,-9.9881C1053.0882,-1.836 1146.9392,6.6317 1226,-9.0847 1261.9943,-16.24 1300.6848,-33.4165 1325.9919,-46.0799"/>
<polygon fill="#9a32cd" stroke="#9a32cd" points="995.1254,-6.5313 985.7403,-11.4477 996.1429,-13.457 995.1254,-6.5313"/>
<text text-anchor="middle" x="1159" y="-34.0847" font-family="Helvetica,sans-Serif" font-size="10.00" fill="#000000"> u_mac</text>
<text text-anchor="middle" x="1159" y="-23.0847" font-family="Helvetica,sans-Serif" font-size="10.00" fill="#000000">v_mac</text>
<text text-anchor="middle" x="1159" y="-12.0847" font-family="Helvetica,sans-Serif" font-size="10.00" fill="#000000">w_mac</text>
</g>
<!-- Node13&#45;&gt;Node14 -->
<g id="edge18" class="edge">
<title>Node13&#45;&gt;Node14</title>
<path fill="none" stroke="#9a32cd" stroke-dasharray="5,2" d="M995.8097,-12.2271C1019.9933,-10.6514 1048.7652,-10.9405 1074,-17.0847 1101.1239,-23.6888 1129.2541,-40.5742 1145.3886,-51.4026"/>
<polygon fill="#9a32cd" stroke="#9a32cd" points="995.4504,-8.7444 985.75,-13.005 995.9901,-15.7235 995.4504,-8.7444"/>
<text text-anchor="middle" x="1051" y="-64.0847" font-family="Helvetica,sans-Serif" font-size="10.00" fill="#000000"> src_term</text>
<text text-anchor="middle" x="1051" y="-53.0847" font-family="Helvetica,sans-Serif" font-size="10.00" fill="#000000">field</text>
<text text-anchor="middle" x="1051" y="-42.0847" font-family="Helvetica,sans-Serif" font-size="10.00" fill="#000000">diff_term</text>
<text text-anchor="middle" x="1051" y="-31.0847" font-family="Helvetica,sans-Serif" font-size="10.00" fill="#000000">mueff</text>
<text text-anchor="middle" x="1051" y="-20.0847" font-family="Helvetica,sans-Serif" font-size="10.00" fill="#000000">conv_term</text>
</g>
<!-- Node14&#45;&gt;Node1 -->
<g id="edge17" class="edge">
<title>Node14&#45;&gt;Node1</title>
<path fill="none" stroke="#9a32cd" stroke-dasharray="5,2" d="M1236.2246,-61.0847C1253.6138,-61.0847 1271.9032,-61.0847 1288.7459,-61.0847"/>
<polygon fill="#9a32cd" stroke="#9a32cd" points="1236.108,-57.5848 1226.1079,-61.0847 1236.1079,-64.5848 1236.108,-57.5848"/>
<text text-anchor="middle" x="1257.5" y="-64.0847" font-family="Helvetica,sans-Serif" font-size="10.00" fill="#000000"> fields</text>
</g>
</g>
</svg>
        <g id="navigator" transform="translate(0 0)" fill="#404254">
                <rect fill="#f2f5e9" fill-opacity="0.5" stroke="#606060" stroke-width=".5" x="0" y="0" width="60" height="60"/>
                <use id="zoomplus" xlink:href="#zoomPlus" x="17" y="9" onmousedown="handleZoom(evt,'in')"/>
                <use id="zoomminus" xlink:href="#zoomMin" x="42" y="9" onmousedown="handleZoom(evt,'out')"/>
                <use id="reset" xlink:href="#resetDef" x="30" y="36" onmousedown="handleReset()"/>
                <g id="arrowUp" xlink:href="#dirArrow" transform="translate(30 24)" onmousedown="handlePan(0,-1)">
                  <use xlink:href="#rim" fill="#404040">
                        <set attributeName="fill" to="#808080" begin="arrowUp.mouseover" end="arrowUp.mouseout"/>
                  </use>
                  <path fill="none" stroke="white" stroke-width="1.5" d="M0,-3.0v7 M-2.5,-0.5L0,-3.0L2.5,-0.5"/>
                </g>
                <g id="arrowRight" xlink:href="#dirArrow" transform="rotate(90) translate(36 -43)" onmousedown="handlePan(1,0)">
                  <use xlink:href="#rim" fill="#404040">
                        <set attributeName="fill" to="#808080" begin="arrowRight.mouseover" end="arrowRight.mouseout"/>
                  </use>
                  <path fill="none" stroke="white" stroke-width="1.5" d="M0,-3.0v7 M-2.5,-0.5L0,-3.0L2.5,-0.5"/>
                </g>
                <g id="arrowDown" xlink:href="#dirArrow" transform="rotate(180) translate(-30 -48)" onmousedown="handlePan(0,1)">
                  <use xlink:href="#rim" fill="#404040">
                        <set attributeName="fill" to="#808080" begin="arrowDown.mouseover" end="arrowDown.mouseout"/>
                  </use>
                  <path fill="none" stroke="white" stroke-width="1.5" d="M0,-3.0v7 M-2.5,-0.5L0,-3.0L2.5,-0.5"/>
                </g>
                <g id="arrowLeft" xlink:href="#dirArrow" transform="rotate(270) translate(-36 17)" onmousedown="handlePan(-1,0)">
                  <use xlink:href="#rim" fill="#404040">
                        <set attributeName="fill" to="#808080" begin="arrowLeft.mouseover" end="arrowLeft.mouseout"/>
                  </use>
                  <path fill="none" stroke="white" stroke-width="1.5" d="M0,-3.0v7 M-2.5,-0.5L0,-3.0L2.5,-0.5"/>
                </g>
        </g>
        <svg viewBox="0 0 15 15" width="100%" height="30px" preserveAspectRatio="xMaxYMin meet">
         <g id="arrow_out" transform="scale(0.3 0.3)">
          <a xlink:href="structamr__wind_1_1pde_1_1_advection_op_3_01_i_c_n_s_00_01fvm_1_1_m_o_l_01_4__coll__graph_org.svg" target="_base">
           <rect id="button" ry="5" rx="5" y="6" x="6" height="38" width="38"
                fill="#f2f5e9" fill-opacity="0.5" stroke="#606060" stroke-width="1.0"/>
           <path id="arrow"
             d="M 11.500037,31.436501 C 11.940474,20.09759 22.043105,11.32322 32.158766,21.979434 L 37.068811,17.246167 C 37.068811,17.246167 37.088388,32 37.088388,32 L 22.160133,31.978069 C 22.160133,31.978069 26.997745,27.140456 26.997745,27.140456 C 18.528582,18.264221 13.291696,25.230495 11.500037,31.436501 z"
             style="fill:#404040;"/>
          </a>
         </g>
        </svg>
</svg>
