<?xml version="1.0" encoding="UTF-8" standalone="no"?>
<!DOCTYPE svg PUBLIC "-//W3C//DTD SVG 1.1//EN"
 "http://www.w3.org/Graphics/SVG/1.1/DTD/svg11.dtd">
<!-- Generated by graphviz version 2.40.1 (20161225.0304)
 -->
<!-- Title: amr_wind::pde::AdvectionOp&lt; PDE, fvm::Godunov, typename std::enable_if&lt; std::is_base_of&lt; ScalarTransport, PDE &gt;::value &gt;::type &gt; Pages: 1 -->
<!--zoomable 586 -->
<svg id="main" version="1.1" xmlns="http://www.w3.org/2000/svg" xmlns:xlink="http://www.w3.org/1999/xlink" xml:space="preserve" onload="init(evt)">
<style type="text/css"><![CDATA[
.edge:hover path { stroke: red; }
.edge:hover polygon { stroke: red; fill: red; }
]]></style>
<script type="text/javascript"><![CDATA[
var edges = document.getElementsByTagName('g');
if (edges && edges.length) {
  for (var i=0;i<edges.length;i++) {
    if (edges[i].id.substr(0,4)=='edge') {
      edges[i].setAttribute('class','edge');
    }
  }
}
]]></script>
        <defs>
                <circle id="rim" cx="0" cy="0" r="7"/>
                <circle id="rim2" cx="0" cy="0" r="3.5"/>
                <g id="zoomPlus">
                        <use xlink:href="#rim" fill="#404040">
                                <set attributeName="fill" to="#808080" begin="zoomplus.mouseover" end="zoomplus.mouseout"/>
                        </use>
                        <path d="M-4,0h8M0,-4v8" fill="none" stroke="white" stroke-width="1.5" pointer-events="none"/>
                </g>
                <g id="zoomMin">
                        <use xlink:href="#rim" fill="#404040">
                                <set attributeName="fill" to="#808080" begin="zoomminus.mouseover" end="zoomminus.mouseout"/>
                        </use>
                        <path d="M-4,0h8" fill="none" stroke="white" stroke-width="1.5" pointer-events="none"/>
                </g>
                <g id="dirArrow">
                        <path fill="none" stroke="white" stroke-width="1.5" d="M0,-3.0v7 M-2.5,-0.5L0,-3.0L2.5,-0.5"/>
                </g>
               <g id="resetDef">
                       <use xlink:href="#rim2" fill="#404040">
                               <set attributeName="fill" to="#808080" begin="reset.mouseover" end="reset.mouseout"/>
                       </use>
               </g>
        </defs>

<script type="text/javascript">
var viewWidth = 317;
var viewHeight = 586;
var sectionId = 'dynsection-0';
</script>
<script xlink:href="svgpan.js"/>
<svg id="graph" class="graph">
<g id="viewport">
<title>amr_wind::pde::AdvectionOp&lt; PDE, fvm::Godunov, typename std::enable_if&lt; std::is_base_of&lt; ScalarTransport, PDE &gt;::value &gt;::type &gt;</title>
<polygon fill="#ffffff" stroke="transparent" points="-4,4 -4,-582 312.5,-582 312.5,4 -4,4"/>
<!-- Node1 -->
<g id="node1" class="node">
<title>Node1</title>
<polygon fill="#bfbfbf" stroke="#000000" points="0,-.5 0,-63.5 173,-63.5 173,-.5 0,-.5"/>
<text text-anchor="start" x="8" y="-51.5" font-family="Helvetica,sans-Serif" font-size="10.00" fill="#000000">amr_wind::pde::Advection</text>
<text text-anchor="start" x="8" y="-40.5" font-family="Helvetica,sans-Serif" font-size="10.00" fill="#000000">Op&lt; PDE, fvm::Godunov,</text>
<text text-anchor="start" x="8" y="-29.5" font-family="Helvetica,sans-Serif" font-size="10.00" fill="#000000"> typename std::enable_if</text>
<text text-anchor="start" x="8" y="-18.5" font-family="Helvetica,sans-Serif" font-size="10.00" fill="#000000">&lt; std::is_base_of&lt; ScalarTransport,</text>
<text text-anchor="middle" x="86.5" y="-7.5" font-family="Helvetica,sans-Serif" font-size="10.00" fill="#000000"> PDE &gt;::value &gt;::type &gt;</text>
</g>
<!-- Node2 -->
<g id="node2" class="node">
<title>Node2</title>
<g id="a_node2"><a xlink:href="classamr__wind_1_1_field.html" target="_top" xlink:title="Computational fieldThis is an abstraction of a collection of MultiFabs over multiple levels...">
<polygon fill="#ffffff" stroke="#000000" points="80.5,-246.5 80.5,-265.5 166.5,-265.5 166.5,-246.5 80.5,-246.5"/>
<text text-anchor="middle" x="123.5" y="-253.5" font-family="Helvetica,sans-Serif" font-size="10.00" fill="#000000">amr_wind::Field</text>
</a>
</g>
</g>
<!-- Node2&#45;&gt;Node1 -->
<g id="edge1" class="edge">
<title>Node2&#45;&gt;Node1</title>
<path fill="none" stroke="#9a32cd" stroke-dasharray="5,2" d="M116.9726,-236.8592C110.4002,-216.7353 100.5346,-184.0265 95.5,-155 90.1577,-124.1994 87.9817,-88.5242 87.098,-63.5526"/>
<polygon fill="#9a32cd" stroke="#9a32cd" points="113.6684,-238.0146 120.15,-246.3954 120.3094,-235.8018 113.6684,-238.0146"/>
<text text-anchor="middle" x="113" y="-147" font-family="Helvetica,sans-Serif" font-size="10.00" fill="#000000"> density</text>
<text text-anchor="middle" x="113" y="-136" font-family="Helvetica,sans-Serif" font-size="10.00" fill="#000000">u_mac</text>
<text text-anchor="middle" x="113" y="-125" font-family="Helvetica,sans-Serif" font-size="10.00" fill="#000000">v_mac</text>
<text text-anchor="middle" x="113" y="-114" font-family="Helvetica,sans-Serif" font-size="10.00" fill="#000000">w_mac</text>
</g>
<!-- Node10 -->
<g id="node10" class="node">
<title>Node10</title>
<g id="a_node10"><a xlink:href="structamr__wind_1_1pde_1_1_p_d_e_fields.html" target="_top" xlink:title="Collection of fields related to a PDEEvery PDE requires a common set of fields, e.g., the transported variable (scalar or vector), advection, diffusion, source, and effective viscosity fields. ">
<polygon fill="#ffffff" stroke="#000000" points="139.5,-123.5 139.5,-142.5 273.5,-142.5 273.5,-123.5 139.5,-123.5"/>
<text text-anchor="middle" x="206.5" y="-130.5" font-family="Helvetica,sans-Serif" font-size="10.00" fill="#000000">amr_wind::pde::PDEFields</text>
</a>
</g>
</g>
<!-- Node2&#45;&gt;Node10 -->
<g id="edge12" class="edge">
<title>Node2&#45;&gt;Node10</title>
<path fill="none" stroke="#9a32cd" stroke-dasharray="5,2" d="M124.7621,-236.1715C126.7741,-218.1996 131.9893,-191.7361 145.5,-173 155.2775,-159.441 171.1899,-149.23 184.3112,-142.5192"/>
<polygon fill="#9a32cd" stroke="#9a32cd" points="121.2562,-236.0849 123.8624,-246.3542 128.229,-236.701 121.2562,-236.0849"/>
<text text-anchor="middle" x="168.5" y="-220" font-family="Helvetica,sans-Serif" font-size="10.00" fill="#000000"> src_term</text>
<text text-anchor="middle" x="168.5" y="-209" font-family="Helvetica,sans-Serif" font-size="10.00" fill="#000000">field</text>
<text text-anchor="middle" x="168.5" y="-198" font-family="Helvetica,sans-Serif" font-size="10.00" fill="#000000">diff_term</text>
<text text-anchor="middle" x="168.5" y="-187" font-family="Helvetica,sans-Serif" font-size="10.00" fill="#000000">mueff</text>
<text text-anchor="middle" x="168.5" y="-176" font-family="Helvetica,sans-Serif" font-size="10.00" fill="#000000">conv_term</text>
</g>
<!-- Node3 -->
<g id="node3" class="node">
<title>Node3</title>
<g id="a_node3"><a xlink:title="STL class. ">
<polygon fill="#ffffff" stroke="#bfbfbf" points="86.5,-475 86.5,-494 146.5,-494 146.5,-475 86.5,-475"/>
<text text-anchor="middle" x="116.5" y="-482" font-family="Helvetica,sans-Serif" font-size="10.00" fill="#000000">std::string</text>
</a>
</g>
</g>
<!-- Node3&#45;&gt;Node1 -->
<g id="edge10" class="edge">
<title>Node3&#45;&gt;Node1</title>
<path fill="none" stroke="#9a32cd" stroke-dasharray="5,2" d="M87.6593,-469.7089C66.1595,-456.3995 40.5,-434.624 40.5,-406.5 40.5,-406.5 40.5,-406.5 40.5,-133 40.5,-108.1447 52.1804,-82.6928 63.7695,-63.5568"/>
<polygon fill="#9a32cd" stroke="#9a32cd" points="86.1312,-472.8695 96.5319,-474.8884 89.6602,-466.8242 86.1312,-472.8695"/>
<text text-anchor="middle" x="72.5" y="-287" font-family="Helvetica,sans-Serif" font-size="10.00" fill="#000000"> godunov_type</text>
</g>
<!-- Node3&#45;&gt;Node2 -->
<g id="edge2" class="edge">
<title>Node3&#45;&gt;Node2</title>
<path fill="none" stroke="#9a32cd" stroke-dasharray="5,2" d="M117.1016,-464.8634C118.5431,-417.8087 122.1531,-299.9671 123.2069,-265.5681"/>
<polygon fill="#9a32cd" stroke="#9a32cd" points="113.5998,-464.87 116.7919,-474.9726 120.5965,-465.0844 113.5998,-464.87"/>
<text text-anchor="middle" x="142" y="-359.5" font-family="Helvetica,sans-Serif" font-size="10.00" fill="#000000"> m_name</text>
</g>
<!-- Node6 -->
<g id="node6" class="node">
<title>Node6</title>
<polygon fill="#ffffff" stroke="#bfbfbf" points="149.5,-391.5 149.5,-421.5 259.5,-421.5 259.5,-391.5 149.5,-391.5"/>
<text text-anchor="start" x="157.5" y="-409.5" font-family="Helvetica,sans-Serif" font-size="10.00" fill="#000000">std::unordered_map</text>
<text text-anchor="middle" x="204.5" y="-398.5" font-family="Helvetica,sans-Serif" font-size="10.00" fill="#000000">&lt; std::string, size_t &gt;</text>
</g>
<!-- Node3&#45;&gt;Node6 -->
<g id="edge6" class="edge">
<title>Node3&#45;&gt;Node6</title>
<path fill="none" stroke="#9a32cd" stroke-dasharray="5,2" d="M135.1184,-467.9973C150.5259,-454.3407 172.2434,-435.0911 187.2583,-421.7824"/>
<polygon fill="#9a32cd" stroke="#9a32cd" points="132.4524,-465.6833 127.2905,-474.9357 137.0956,-470.9218 132.4524,-465.6833"/>
<text text-anchor="middle" x="179" y="-443" font-family="Helvetica,sans-Serif" font-size="10.00" fill="#000000"> keys</text>
</g>
<!-- Node4 -->
<g id="node4" class="node">
<title>Node4</title>
<g id="a_node4"><a xlink:title="STL class. ">
<polygon fill="#ffffff" stroke="#bfbfbf" points="69,-547.5 69,-577.5 164,-577.5 164,-547.5 69,-547.5"/>
<text text-anchor="start" x="77" y="-565.5" font-family="Helvetica,sans-Serif" font-size="10.00" fill="#000000">std::basic_string&lt;</text>
<text text-anchor="middle" x="116.5" y="-554.5" font-family="Helvetica,sans-Serif" font-size="10.00" fill="#000000"> char &gt;</text>
</a>
</g>
</g>
<!-- Node4&#45;&gt;Node3 -->
<g id="edge3" class="edge">
<title>Node4&#45;&gt;Node3</title>
<path fill="none" stroke="#191970" d="M116.5,-537.3962C116.5,-522.6331 116.5,-504.8138 116.5,-494.0839"/>
<polygon fill="#191970" stroke="#191970" points="113.0001,-537.4608 116.5,-547.4608 120.0001,-537.4609 113.0001,-537.4608"/>
</g>
<!-- Node5 -->
<g id="node5" class="node">
<title>Node5</title>
<g id="a_node5"><a xlink:href="classamr__wind_1_1_field_repo.html" target="_top" xlink:title="Field RepositoryFieldRepo is a database that manages handling of fields used during a simulation...">
<polygon fill="#ffffff" stroke="#000000" points="150,-313.5 150,-332.5 259,-332.5 259,-313.5 150,-313.5"/>
<text text-anchor="middle" x="204.5" y="-320.5" font-family="Helvetica,sans-Serif" font-size="10.00" fill="#000000">amr_wind::FieldRepo</text>
</a>
</g>
</g>
<!-- Node5&#45;&gt;Node2 -->
<g id="edge4" class="edge">
<title>Node5&#45;&gt;Node2</title>
<path fill="none" stroke="#9a32cd" stroke-dasharray="5,2" d="M174.9386,-308.4231C168.2334,-304.5008 161.3663,-299.9553 155.5,-295 145.33,-286.4094 135.9556,-274.2711 130.0174,-265.8265"/>
<polygon fill="#9a32cd" stroke="#9a32cd" points="173.428,-311.5872 183.8726,-313.3652 176.8164,-305.462 173.428,-311.5872"/>
<text text-anchor="middle" x="173.5" y="-287" font-family="Helvetica,sans-Serif" font-size="10.00" fill="#000000"> m_repo</text>
</g>
<!-- Node5&#45;&gt;Node10 -->
<g id="edge13" class="edge">
<title>Node5&#45;&gt;Node10</title>
<path fill="none" stroke="#9a32cd" stroke-dasharray="5,2" d="M204.7088,-303.1594C205.1328,-262.886 206.0807,-172.8318 206.3959,-142.8917"/>
<polygon fill="#9a32cd" stroke="#9a32cd" points="201.2075,-303.2803 204.6019,-313.3167 208.2071,-303.3541 201.2075,-303.2803"/>
<text text-anchor="middle" x="216.5" y="-253.5" font-family="Helvetica,sans-Serif" font-size="10.00" fill="#000000"> repo</text>
</g>
<!-- Node6&#45;&gt;Node5 -->
<g id="edge5" class="edge">
<title>Node6&#45;&gt;Node5</title>
<path fill="none" stroke="#9a32cd" stroke-dasharray="5,2" d="M204.5,-381.1022C204.5,-364.6775 204.5,-344.2426 204.5,-332.5023"/>
<polygon fill="#9a32cd" stroke="#9a32cd" points="201.0001,-381.1848 204.5,-391.1848 208.0001,-381.1848 201.0001,-381.1848"/>
<text text-anchor="middle" x="236.5" y="-365" font-family="Helvetica,sans-Serif" font-size="10.00" fill="#000000"> m_fid_map</text>
<text text-anchor="middle" x="236.5" y="-354" font-family="Helvetica,sans-Serif" font-size="10.00" fill="#000000">m_int_fid_map</text>
</g>
<!-- Node7 -->
<g id="node7" class="node">
<title>Node7</title>
<g id="a_node7"><a xlink:title="STL class. ">
<polygon fill="#ffffff" stroke="#bfbfbf" points="165,-469.5 165,-499.5 268,-499.5 268,-469.5 165,-469.5"/>
<text text-anchor="start" x="173" y="-487.5" font-family="Helvetica,sans-Serif" font-size="10.00" fill="#000000">std::unordered_map</text>
<text text-anchor="middle" x="216.5" y="-476.5" font-family="Helvetica,sans-Serif" font-size="10.00" fill="#000000">&lt; K, T &gt;</text>
</a>
</g>
</g>
<!-- Node7&#45;&gt;Node6 -->
<g id="edge7" class="edge">
<title>Node7&#45;&gt;Node6</title>
<path fill="none" stroke="#ffa500" stroke-dasharray="5,2" d="M212.6211,-459.2875C210.7183,-446.9187 208.4887,-432.4264 206.8476,-421.7592"/>
<polygon fill="#ffa500" stroke="#ffa500" points="209.2063,-460.1093 214.1863,-469.4608 216.1249,-459.0449 209.2063,-460.1093"/>
<text text-anchor="middle" x="260" y="-443" font-family="Helvetica,sans-Serif" font-size="10.00" fill="#000000"> &lt; std::string, size_t &gt;</text>
</g>
<!-- Node8 -->
<g id="node8" class="node">
<title>Node8</title>
<polygon fill="#ffffff" stroke="#bfbfbf" points="192,-553 192,-572 221,-572 221,-553 192,-553"/>
<text text-anchor="middle" x="206.5" y="-560" font-family="Helvetica,sans-Serif" font-size="10.00" fill="#000000">K</text>
</g>
<!-- Node8&#45;&gt;Node7 -->
<g id="edge8" class="edge">
<title>Node8&#45;&gt;Node7</title>
<path fill="none" stroke="#9a32cd" stroke-dasharray="5,2" d="M205.9311,-542.6592C205.9741,-534.9293 206.35,-526.0175 207.5,-518 208.3721,-511.9196 209.9781,-505.3663 211.5946,-499.6822"/>
<polygon fill="#9a32cd" stroke="#9a32cd" points="202.4341,-542.94 206.055,-552.8968 209.4336,-542.8552 202.4341,-542.94"/>
<text text-anchor="middle" x="220" y="-521" font-family="Helvetica,sans-Serif" font-size="10.00" fill="#000000"> keys</text>
</g>
<!-- Node9 -->
<g id="node9" class="node">
<title>Node9</title>
<polygon fill="#ffffff" stroke="#bfbfbf" points="240,-553 240,-572 269,-572 269,-553 240,-553"/>
<text text-anchor="middle" x="254.5" y="-560" font-family="Helvetica,sans-Serif" font-size="10.00" fill="#000000">T</text>
</g>
<!-- Node9&#45;&gt;Node7 -->
<g id="edge9" class="edge">
<title>Node9&#45;&gt;Node7</title>
<path fill="none" stroke="#9a32cd" stroke-dasharray="5,2" d="M245.3271,-543.6714C238.7739,-530.2202 230.0688,-512.3517 223.9453,-499.7824"/>
<polygon fill="#9a32cd" stroke="#9a32cd" points="242.3142,-545.4787 249.8405,-552.9357 248.6072,-542.4128 242.3142,-545.4787"/>
<text text-anchor="middle" x="260" y="-521" font-family="Helvetica,sans-Serif" font-size="10.00" fill="#000000"> elements</text>
</g>
<!-- Node10&#45;&gt;Node1 -->
<g id="edge11" class="edge">
<title>Node10&#45;&gt;Node1</title>
<path fill="none" stroke="#9a32cd" stroke-dasharray="5,2" d="M186.9188,-116.5192C169.9469,-102.2345 144.9105,-81.1622 124.083,-63.6323"/>
<polygon fill="#9a32cd" stroke="#9a32cd" points="185.0893,-119.554 194.9939,-123.3157 189.5969,-114.1985 185.0893,-119.554"/>
<text text-anchor="middle" x="171" y="-85" font-family="Helvetica,sans-Serif" font-size="10.00" fill="#000000"> fields</text>
</g>
</g>
</svg>
        <g id="navigator" transform="translate(0 0)" fill="#404254">
                <rect fill="#f2f5e9" fill-opacity="0.5" stroke="#606060" stroke-width=".5" x="0" y="0" width="60" height="60"/>
                <use id="zoomplus" xlink:href="#zoomPlus" x="17" y="9" onmousedown="handleZoom(evt,'in')"/>
                <use id="zoomminus" xlink:href="#zoomMin" x="42" y="9" onmousedown="handleZoom(evt,'out')"/>
                <use id="reset" xlink:href="#resetDef" x="30" y="36" onmousedown="handleReset()"/>
                <g id="arrowUp" xlink:href="#dirArrow" transform="translate(30 24)" onmousedown="handlePan(0,-1)">
                  <use xlink:href="#rim" fill="#404040">
                        <set attributeName="fill" to="#808080" begin="arrowUp.mouseover" end="arrowUp.mouseout"/>
                  </use>
                  <path fill="none" stroke="white" stroke-width="1.5" d="M0,-3.0v7 M-2.5,-0.5L0,-3.0L2.5,-0.5"/>
                </g>
                <g id="arrowRight" xlink:href="#dirArrow" transform="rotate(90) translate(36 -43)" onmousedown="handlePan(1,0)">
                  <use xlink:href="#rim" fill="#404040">
                        <set attributeName="fill" to="#808080" begin="arrowRight.mouseover" end="arrowRight.mouseout"/>
                  </use>
                  <path fill="none" stroke="white" stroke-width="1.5" d="M0,-3.0v7 M-2.5,-0.5L0,-3.0L2.5,-0.5"/>
                </g>
                <g id="arrowDown" xlink:href="#dirArrow" transform="rotate(180) translate(-30 -48)" onmousedown="handlePan(0,1)">
                  <use xlink:href="#rim" fill="#404040">
                        <set attributeName="fill" to="#808080" begin="arrowDown.mouseover" end="arrowDown.mouseout"/>
                  </use>
                  <path fill="none" stroke="white" stroke-width="1.5" d="M0,-3.0v7 M-2.5,-0.5L0,-3.0L2.5,-0.5"/>
                </g>
                <g id="arrowLeft" xlink:href="#dirArrow" transform="rotate(270) translate(-36 17)" onmousedown="handlePan(-1,0)">
                  <use xlink:href="#rim" fill="#404040">
                        <set attributeName="fill" to="#808080" begin="arrowLeft.mouseover" end="arrowLeft.mouseout"/>
                  </use>
                  <path fill="none" stroke="white" stroke-width="1.5" d="M0,-3.0v7 M-2.5,-0.5L0,-3.0L2.5,-0.5"/>
                </g>
        </g>
        <svg viewBox="0 0 15 15" width="100%" height="30px" preserveAspectRatio="xMaxYMin meet">
         <g id="arrow_out" transform="scale(0.3 0.3)">
          <a xlink:href="structamr__wind_1_1pde_1_1_advection_op_3_01_p_d_e_00_01fvm_1_1_godunov_00_01typename_01std_1_1e67b21b13ebe42a3bc0e90017894fc7d7_org.svg" target="_base">
           <rect id="button" ry="5" rx="5" y="6" x="6" height="38" width="38"
                fill="#f2f5e9" fill-opacity="0.5" stroke="#606060" stroke-width="1.0"/>
           <path id="arrow"
             d="M 11.500037,31.436501 C 11.940474,20.09759 22.043105,11.32322 32.158766,21.979434 L 37.068811,17.246167 C 37.068811,17.246167 37.088388,32 37.088388,32 L 22.160133,31.978069 C 22.160133,31.978069 26.997745,27.140456 26.997745,27.140456 C 18.528582,18.264221 13.291696,25.230495 11.500037,31.436501 z"
             style="fill:#404040;"/>
          </a>
         </g>
        </svg>
</svg>
