<?xml version="1.0" encoding="UTF-8" standalone="no"?>
<!DOCTYPE svg PUBLIC "-//W3C//DTD SVG 1.1//EN"
 "http://www.w3.org/Graphics/SVG/1.1/DTD/svg11.dtd">
<!-- Generated by graphviz version 2.40.1 (20161225.0304)
 -->
<!-- Title: amr_wind::AMROversetInfo Pages: 1 -->
<!--zoomable 227 -->
<svg id="main" version="1.1" xmlns="http://www.w3.org/2000/svg" xmlns:xlink="http://www.w3.org/1999/xlink" xml:space="preserve" onload="init(evt)">
<style type="text/css"><![CDATA[
.edge:hover path { stroke: red; }
.edge:hover polygon { stroke: red; fill: red; }
]]></style>
<script type="text/javascript"><![CDATA[
var edges = document.getElementsByTagName('g');
if (edges && edges.length) {
  for (var i=0;i<edges.length;i++) {
    if (edges[i].id.substr(0,4)=='edge') {
      edges[i].setAttribute('class','edge');
    }
  }
}
]]></script>
        <defs>
                <circle id="rim" cx="0" cy="0" r="7"/>
                <circle id="rim2" cx="0" cy="0" r="3.5"/>
                <g id="zoomPlus">
                        <use xlink:href="#rim" fill="#404040">
                                <set attributeName="fill" to="#808080" begin="zoomplus.mouseover" end="zoomplus.mouseout"/>
                        </use>
                        <path d="M-4,0h8M0,-4v8" fill="none" stroke="white" stroke-width="1.5" pointer-events="none"/>
                </g>
                <g id="zoomMin">
                        <use xlink:href="#rim" fill="#404040">
                                <set attributeName="fill" to="#808080" begin="zoomminus.mouseover" end="zoomminus.mouseout"/>
                        </use>
                        <path d="M-4,0h8" fill="none" stroke="white" stroke-width="1.5" pointer-events="none"/>
                </g>
                <g id="dirArrow">
                        <path fill="none" stroke="white" stroke-width="1.5" d="M0,-3.0v7 M-2.5,-0.5L0,-3.0L2.5,-0.5"/>
                </g>
               <g id="resetDef">
                       <use xlink:href="#rim2" fill="#404040">
                               <set attributeName="fill" to="#808080" begin="reset.mouseover" end="reset.mouseout"/>
                       </use>
               </g>
        </defs>

<script type="text/javascript">
var viewWidth = 587;
var viewHeight = 227;
var sectionId = 'dynsection-0';
</script>
<script xlink:href="svgpan.js"/>
<svg id="graph" class="graph">
<g id="viewport">
<title>amr_wind::AMROversetInfo</title>
<polygon fill="#ffffff" stroke="transparent" points="-4,4 -4,-222.8698 583,-222.8698 583,4 -4,4"/>
<!-- Node1 -->
<g id="node1" class="node">
<title>Node1</title>
<polygon fill="#bfbfbf" stroke="#000000" points="441,-109.3698 441,-128.3698 579,-128.3698 579,-109.3698 441,-109.3698"/>
<text text-anchor="middle" x="510" y="-116.3698" font-family="Helvetica,sans-Serif" font-size="10.00" fill="#000000">amr_wind::AMROversetInfo</text>
</g>
<!-- Node2 -->
<g id="node2" class="node">
<title>Node2</title>
<g id="a_node2"><a xlink:href="structamr__wind_1_1tioga__iface_1_1_amr_dual_array.html" target="_top" xlink:title="amr_wind::tioga_iface\l::AmrDualArray\&lt; amrex\l::Real \&gt;">
<polygon fill="#ffffff" stroke="#000000" points="227,-177.3698 227,-218.3698 347,-218.3698 347,-177.3698 227,-177.3698"/>
<text text-anchor="start" x="235" y="-206.3698" font-family="Helvetica,sans-Serif" font-size="10.00" fill="#000000">amr_wind::tioga_iface</text>
<text text-anchor="start" x="235" y="-195.3698" font-family="Helvetica,sans-Serif" font-size="10.00" fill="#000000">::AmrDualArray&lt; amrex</text>
<text text-anchor="middle" x="287" y="-184.3698" font-family="Helvetica,sans-Serif" font-size="10.00" fill="#000000">::Real &gt;</text>
</a>
</g>
</g>
<!-- Node2&#45;&gt;Node1 -->
<g id="edge1" class="edge">
<title>Node2&#45;&gt;Node1</title>
<path fill="none" stroke="#9a32cd" stroke-dasharray="5,2" d="M356.7681,-178.5718C378.1921,-172.1828 401.7237,-164.6919 423,-156.8698 446.3593,-148.2818 472.4306,-136.6042 489.8875,-128.4696"/>
<polygon fill="#9a32cd" stroke="#9a32cd" points="355.6897,-175.2408 347.0885,-181.427 357.6702,-181.9548 355.6897,-175.2408"/>
<text text-anchor="middle" x="394" y="-188.8698" font-family="Helvetica,sans-Serif" font-size="10.00" fill="#000000"> dx</text>
<text text-anchor="middle" x="394" y="-177.8698" font-family="Helvetica,sans-Serif" font-size="10.00" fill="#000000">xlo</text>
</g>
<!-- Node3 -->
<g id="node3" class="node">
<title>Node3</title>
<g id="a_node3"><a xlink:href="structamr__wind_1_1tioga__iface_1_1_amr_dual_array.html" target="_top" xlink:title="Wrapper to handle host/device views of the data for TIOGA overset. ">
<polygon fill="#ffffff" stroke="#000000" points="0,-89.8698 0,-119.8698 112,-119.8698 112,-89.8698 0,-89.8698"/>
<text text-anchor="start" x="8" y="-107.8698" font-family="Helvetica,sans-Serif" font-size="10.00" fill="#000000">amr_wind::tioga_iface</text>
<text text-anchor="middle" x="56" y="-96.8698" font-family="Helvetica,sans-Serif" font-size="10.00" fill="#000000">::AmrDualArray&lt; T &gt;</text>
</a>
</g>
</g>
<!-- Node3&#45;&gt;Node2 -->
<g id="edge2" class="edge">
<title>Node3&#45;&gt;Node2</title>
<path fill="none" stroke="#ffa500" stroke-dasharray="5,2" d="M94.4146,-124.5009C105.7619,-130.0422 118.2828,-135.9086 130,-140.8698 161.5093,-154.211 197.3277,-167.3637 226.7882,-177.6671"/>
<polygon fill="#ffa500" stroke="#ffa500" points="95.7183,-121.2411 85.2024,-119.9496 92.6176,-127.517 95.7183,-121.2411"/>
<text text-anchor="middle" x="169.5" y="-172.8698" font-family="Helvetica,sans-Serif" font-size="10.00" fill="#000000"> &lt; amrex::Real &gt;</text>
</g>
<!-- Node4 -->
<g id="node4" class="node">
<title>Node4</title>
<g id="a_node4"><a xlink:href="structamr__wind_1_1tioga__iface_1_1_amr_dual_array.html" target="_top" xlink:title="amr_wind::tioga_iface\l::AmrDualArray\&lt; amrex\l::Real *\&gt;">
<polygon fill="#ffffff" stroke="#000000" points="227,-117.3698 227,-158.3698 347,-158.3698 347,-117.3698 227,-117.3698"/>
<text text-anchor="start" x="235" y="-146.3698" font-family="Helvetica,sans-Serif" font-size="10.00" fill="#000000">amr_wind::tioga_iface</text>
<text text-anchor="start" x="235" y="-135.3698" font-family="Helvetica,sans-Serif" font-size="10.00" fill="#000000">::AmrDualArray&lt; amrex</text>
<text text-anchor="middle" x="287" y="-124.3698" font-family="Helvetica,sans-Serif" font-size="10.00" fill="#000000">::Real *&gt;</text>
</a>
</g>
</g>
<!-- Node3&#45;&gt;Node4 -->
<g id="edge4" class="edge">
<title>Node3&#45;&gt;Node4</title>
<path fill="none" stroke="#ffa500" stroke-dasharray="5,2" d="M122.2223,-114.3301C155.2055,-119.042 194.7872,-124.6965 226.8893,-129.2825"/>
<polygon fill="#ffa500" stroke="#ffa500" points="122.6081,-110.8497 112.2136,-112.9003 121.6181,-117.7794 122.6081,-110.8497"/>
<text text-anchor="middle" x="169.5" y="-128.8698" font-family="Helvetica,sans-Serif" font-size="10.00" fill="#000000"> &lt; amrex::Real *&gt;</text>
</g>
<!-- Node5 -->
<g id="node5" class="node">
<title>Node5</title>
<g id="a_node5"><a xlink:href="structamr__wind_1_1tioga__iface_1_1_amr_dual_array.html" target="_top" xlink:title="amr_wind::tioga_iface\l::AmrDualArray\&lt; int *\&gt;">
<polygon fill="#ffffff" stroke="#000000" points="229,-67.8698 229,-97.8698 345,-97.8698 345,-67.8698 229,-67.8698"/>
<text text-anchor="start" x="237" y="-85.8698" font-family="Helvetica,sans-Serif" font-size="10.00" fill="#000000">amr_wind::tioga_iface</text>
<text text-anchor="middle" x="287" y="-74.8698" font-family="Helvetica,sans-Serif" font-size="10.00" fill="#000000">::AmrDualArray&lt; int *&gt;</text>
</a>
</g>
</g>
<!-- Node3&#45;&gt;Node5 -->
<g id="edge6" class="edge">
<title>Node3&#45;&gt;Node5</title>
<path fill="none" stroke="#ffa500" stroke-dasharray="5,2" d="M122.4192,-98.5441C156.0634,-95.3399 196.5333,-91.4856 228.9227,-88.4009"/>
<polygon fill="#ffa500" stroke="#ffa500" points="121.8367,-95.0837 112.2136,-99.5161 122.5004,-102.0521 121.8367,-95.0837"/>
<text text-anchor="middle" x="169.5" y="-99.8698" font-family="Helvetica,sans-Serif" font-size="10.00" fill="#000000"> &lt; int *&gt;</text>
</g>
<!-- Node6 -->
<g id="node6" class="node">
<title>Node6</title>
<g id="a_node6"><a xlink:href="structamr__wind_1_1tioga__iface_1_1_amr_dual_array.html" target="_top" xlink:title="amr_wind::tioga_iface\l::AmrDualArray\&lt; int \&gt;">
<polygon fill="#ffffff" stroke="#000000" points="230.5,-5.8698 230.5,-35.8698 343.5,-35.8698 343.5,-5.8698 230.5,-5.8698"/>
<text text-anchor="start" x="238.5" y="-23.8698" font-family="Helvetica,sans-Serif" font-size="10.00" fill="#000000">amr_wind::tioga_iface</text>
<text text-anchor="middle" x="287" y="-12.8698" font-family="Helvetica,sans-Serif" font-size="10.00" fill="#000000">::AmrDualArray&lt; int &gt;</text>
</a>
</g>
</g>
<!-- Node3&#45;&gt;Node6 -->
<g id="edge8" class="edge">
<title>Node3&#45;&gt;Node6</title>
<path fill="none" stroke="#ffa500" stroke-dasharray="5,2" d="M101.5409,-85.9586C110.9163,-82.192 120.7497,-78.3328 130,-74.8698 167.1174,-60.9742 209.655,-46.4272 241.0824,-35.9373"/>
<polygon fill="#ffa500" stroke="#ffa500" points="99.9356,-82.8325 91.9802,-89.8299 102.5628,-89.3208 99.9356,-82.8325"/>
<text text-anchor="middle" x="169.5" y="-77.8698" font-family="Helvetica,sans-Serif" font-size="10.00" fill="#000000"> &lt; int &gt;</text>
</g>
<!-- Node4&#45;&gt;Node1 -->
<g id="edge3" class="edge">
<title>Node4&#45;&gt;Node1</title>
<path fill="none" stroke="#9a32cd" stroke-dasharray="5,2" d="M357.0853,-131.8984C383.7729,-129.6245 414.1503,-127.0363 440.7591,-124.7692"/>
<polygon fill="#9a32cd" stroke="#9a32cd" points="356.72,-128.4167 347.0533,-132.7531 357.3143,-135.3914 356.72,-128.4167"/>
<text text-anchor="middle" x="394" y="-144.8698" font-family="Helvetica,sans-Serif" font-size="10.00" fill="#000000"> qnode</text>
<text text-anchor="middle" x="394" y="-133.8698" font-family="Helvetica,sans-Serif" font-size="10.00" fill="#000000">qcell</text>
</g>
<!-- Node5&#45;&gt;Node1 -->
<g id="edge5" class="edge">
<title>Node5&#45;&gt;Node1</title>
<path fill="none" stroke="#9a32cd" stroke-dasharray="5,2" d="M355.2039,-90.1674C376.9336,-92.8206 401.0324,-96.106 423,-99.8698 438.3905,-102.5067 455.1789,-106.0203 469.8666,-109.3085"/>
<polygon fill="#9a32cd" stroke="#9a32cd" points="355.4211,-86.6685 345.076,-88.9551 354.5891,-93.6189 355.4211,-86.6685"/>
<text text-anchor="middle" x="394" y="-113.8698" font-family="Helvetica,sans-Serif" font-size="10.00" fill="#000000"> iblank_cell</text>
<text text-anchor="middle" x="394" y="-102.8698" font-family="Helvetica,sans-Serif" font-size="10.00" fill="#000000">iblank_node</text>
</g>
<!-- Node6&#45;&gt;Node1 -->
<g id="edge7" class="edge">
<title>Node6&#45;&gt;Node1</title>
<path fill="none" stroke="#9a32cd" stroke-dasharray="5,2" d="M342.8469,-3.8081C368.4086,.9211 398.4096,1.9659 423,-9.8698 467.07,-31.0813 495.7599,-86.6839 505.9026,-109.1975"/>
<polygon fill="#9a32cd" stroke="#9a32cd" points="342.0067,-.4078 332.9252,-5.8647 343.4275,-7.2621 342.0067,-.4078"/>
<text text-anchor="middle" x="394" y="-78.8698" font-family="Helvetica,sans-Serif" font-size="10.00" fill="#000000"> mpi_rank</text>
<text text-anchor="middle" x="394" y="-67.8698" font-family="Helvetica,sans-Serif" font-size="10.00" fill="#000000">global_idmap</text>
<text text-anchor="middle" x="394" y="-56.8698" font-family="Helvetica,sans-Serif" font-size="10.00" fill="#000000">ihigh</text>
<text text-anchor="middle" x="394" y="-45.8698" font-family="Helvetica,sans-Serif" font-size="10.00" fill="#000000">dims</text>
<text text-anchor="middle" x="394" y="-34.8698" font-family="Helvetica,sans-Serif" font-size="10.00" fill="#000000">ilow</text>
<text text-anchor="middle" x="394" y="-23.8698" font-family="Helvetica,sans-Serif" font-size="10.00" fill="#000000">local_id</text>
<text text-anchor="middle" x="394" y="-12.8698" font-family="Helvetica,sans-Serif" font-size="10.00" fill="#000000">level</text>
</g>
</g>
</svg>
        <g id="navigator" transform="translate(0 0)" fill="#404254">
                <rect fill="#f2f5e9" fill-opacity="0.5" stroke="#606060" stroke-width=".5" x="0" y="0" width="60" height="60"/>
                <use id="zoomplus" xlink:href="#zoomPlus" x="17" y="9" onmousedown="handleZoom(evt,'in')"/>
                <use id="zoomminus" xlink:href="#zoomMin" x="42" y="9" onmousedown="handleZoom(evt,'out')"/>
                <use id="reset" xlink:href="#resetDef" x="30" y="36" onmousedown="handleReset()"/>
                <g id="arrowUp" xlink:href="#dirArrow" transform="translate(30 24)" onmousedown="handlePan(0,-1)">
                  <use xlink:href="#rim" fill="#404040">
                        <set attributeName="fill" to="#808080" begin="arrowUp.mouseover" end="arrowUp.mouseout"/>
                  </use>
                  <path fill="none" stroke="white" stroke-width="1.5" d="M0,-3.0v7 M-2.5,-0.5L0,-3.0L2.5,-0.5"/>
                </g>
                <g id="arrowRight" xlink:href="#dirArrow" transform="rotate(90) translate(36 -43)" onmousedown="handlePan(1,0)">
                  <use xlink:href="#rim" fill="#404040">
                        <set attributeName="fill" to="#808080" begin="arrowRight.mouseover" end="arrowRight.mouseout"/>
                  </use>
                  <path fill="none" stroke="white" stroke-width="1.5" d="M0,-3.0v7 M-2.5,-0.5L0,-3.0L2.5,-0.5"/>
                </g>
                <g id="arrowDown" xlink:href="#dirArrow" transform="rotate(180) translate(-30 -48)" onmousedown="handlePan(0,1)">
                  <use xlink:href="#rim" fill="#404040">
                        <set attributeName="fill" to="#808080" begin="arrowDown.mouseover" end="arrowDown.mouseout"/>
                  </use>
                  <path fill="none" stroke="white" stroke-width="1.5" d="M0,-3.0v7 M-2.5,-0.5L0,-3.0L2.5,-0.5"/>
                </g>
                <g id="arrowLeft" xlink:href="#dirArrow" transform="rotate(270) translate(-36 17)" onmousedown="handlePan(-1,0)">
                  <use xlink:href="#rim" fill="#404040">
                        <set attributeName="fill" to="#808080" begin="arrowLeft.mouseover" end="arrowLeft.mouseout"/>
                  </use>
                  <path fill="none" stroke="white" stroke-width="1.5" d="M0,-3.0v7 M-2.5,-0.5L0,-3.0L2.5,-0.5"/>
                </g>
        </g>
        <svg viewBox="0 0 15 15" width="100%" height="30px" preserveAspectRatio="xMaxYMin meet">
         <g id="arrow_out" transform="scale(0.3 0.3)">
          <a xlink:href="structamr__wind_1_1_a_m_r_overset_info__coll__graph_org.svg" target="_base">
           <rect id="button" ry="5" rx="5" y="6" x="6" height="38" width="38"
                fill="#f2f5e9" fill-opacity="0.5" stroke="#606060" stroke-width="1.0"/>
           <path id="arrow"
             d="M 11.500037,31.436501 C 11.940474,20.09759 22.043105,11.32322 32.158766,21.979434 L 37.068811,17.246167 C 37.068811,17.246167 37.088388,32 37.088388,32 L 22.160133,31.978069 C 22.160133,31.978069 26.997745,27.140456 26.997745,27.140456 C 18.528582,18.264221 13.291696,25.230495 11.500037,31.436501 z"
             style="fill:#404040;"/>
          </a>
         </g>
        </svg>
</svg>
