<?xml version="1.0" encoding="UTF-8" standalone="no"?>
<!DOCTYPE svg PUBLIC "-//W3C//DTD SVG 1.1//EN"
 "http://www.w3.org/Graphics/SVG/1.1/DTD/svg11.dtd">
<!-- Generated by graphviz version 2.40.1 (20161225.0304)
 -->
<!-- Title: amr_wind::actuator::ComponentView Pages: 1 -->
<!--zoomable 177 -->
<svg id="main" version="1.1" xmlns="http://www.w3.org/2000/svg" xmlns:xlink="http://www.w3.org/1999/xlink" xml:space="preserve" onload="init(evt)">
<style type="text/css"><![CDATA[
.edge:hover path { stroke: red; }
.edge:hover polygon { stroke: red; fill: red; }
]]></style>
<script type="text/javascript"><![CDATA[
var edges = document.getElementsByTagName('g');
if (edges && edges.length) {
  for (var i=0;i<edges.length;i++) {
    if (edges[i].id.substr(0,4)=='edge') {
      edges[i].setAttribute('class','edge');
    }
  }
}
]]></script>
        <defs>
                <circle id="rim" cx="0" cy="0" r="7"/>
                <circle id="rim2" cx="0" cy="0" r="3.5"/>
                <g id="zoomPlus">
                        <use xlink:href="#rim" fill="#404040">
                                <set attributeName="fill" to="#808080" begin="zoomplus.mouseover" end="zoomplus.mouseout"/>
                        </use>
                        <path d="M-4,0h8M0,-4v8" fill="none" stroke="white" stroke-width="1.5" pointer-events="none"/>
                </g>
                <g id="zoomMin">
                        <use xlink:href="#rim" fill="#404040">
                                <set attributeName="fill" to="#808080" begin="zoomminus.mouseover" end="zoomminus.mouseout"/>
                        </use>
                        <path d="M-4,0h8" fill="none" stroke="white" stroke-width="1.5" pointer-events="none"/>
                </g>
                <g id="dirArrow">
                        <path fill="none" stroke="white" stroke-width="1.5" d="M0,-3.0v7 M-2.5,-0.5L0,-3.0L2.5,-0.5"/>
                </g>
               <g id="resetDef">
                       <use xlink:href="#rim2" fill="#404040">
                               <set attributeName="fill" to="#808080" begin="reset.mouseover" end="reset.mouseout"/>
                       </use>
               </g>
        </defs>

<script type="text/javascript">
var viewWidth = 723;
var viewHeight = 177;
var sectionId = 'dynsection-0';
</script>
<script xlink:href="svgpan.js"/>
<svg id="graph" class="graph">
<g id="viewport">
<title>amr_wind::actuator::ComponentView</title>
<polygon fill="#ffffff" stroke="transparent" points="-4,4 -4,-172.5 719,-172.5 719,4 -4,4"/>
<!-- Node1 -->
<g id="node1" class="node">
<title>Node1</title>
<polygon fill="#bfbfbf" stroke="#000000" points="615,-78.5 615,-108.5 715,-108.5 715,-78.5 615,-78.5"/>
<text text-anchor="start" x="623" y="-96.5" font-family="Helvetica,sans-Serif" font-size="10.00" fill="#000000">amr_wind::actuator</text>
<text text-anchor="middle" x="665" y="-85.5" font-family="Helvetica,sans-Serif" font-size="10.00" fill="#000000">::ComponentView</text>
</g>
<!-- Node2 -->
<g id="node2" class="node">
<title>Node2</title>
<g id="a_node2"><a xlink:href="structamr__wind_1_1utils_1_1_slice.html" target="_top" xlink:title="amr_wind::utils::Slice\l\&lt; amrex::Real \&gt;">
<polygon fill="#ffffff" stroke="#000000" points="410.5,-74.5 410.5,-104.5 520.5,-104.5 520.5,-74.5 410.5,-74.5"/>
<text text-anchor="start" x="418.5" y="-92.5" font-family="Helvetica,sans-Serif" font-size="10.00" fill="#000000">amr_wind::utils::Slice</text>
<text text-anchor="middle" x="465.5" y="-81.5" font-family="Helvetica,sans-Serif" font-size="10.00" fill="#000000">&lt; amrex::Real &gt;</text>
</a>
</g>
</g>
<!-- Node2&#45;&gt;Node1 -->
<g id="edge1" class="edge">
<title>Node2&#45;&gt;Node1</title>
<path fill="none" stroke="#9a32cd" stroke-dasharray="5,2" d="M530.8097,-90.8095C558.1552,-91.3577 589.4371,-91.985 614.9152,-92.4958"/>
<polygon fill="#9a32cd" stroke="#9a32cd" points="530.6105,-87.3049 520.5424,-90.6036 530.4702,-94.3035 530.6105,-87.3049"/>
<text text-anchor="middle" x="572.5" y="-94.5" font-family="Helvetica,sans-Serif" font-size="10.00" fill="#000000"> chord</text>
</g>
<!-- Node3 -->
<g id="node3" class="node">
<title>Node3</title>
<g id="a_node3"><a xlink:href="structamr__wind_1_1utils_1_1_slice.html" target="_top" xlink:title="amr_wind::utils::Slice\&lt; T \&gt;">
<polygon fill="#ffffff" stroke="#000000" points="111.5,-80 111.5,-99 245.5,-99 245.5,-80 111.5,-80"/>
<text text-anchor="middle" x="178.5" y="-87" font-family="Helvetica,sans-Serif" font-size="10.00" fill="#000000">amr_wind::utils::Slice&lt; T &gt;</text>
</a>
</g>
</g>
<!-- Node3&#45;&gt;Node2 -->
<g id="edge2" class="edge">
<title>Node3&#45;&gt;Node2</title>
<path fill="none" stroke="#ffa500" stroke-dasharray="5,2" d="M255.976,-89.5C304.692,-89.5 366.3899,-89.5 410.1874,-89.5"/>
<polygon fill="#ffa500" stroke="#ffa500" points="255.7888,-86.0001 245.7887,-89.5 255.7887,-93.0001 255.7888,-86.0001"/>
<text text-anchor="middle" x="325" y="-92.5" font-family="Helvetica,sans-Serif" font-size="10.00" fill="#000000"> &lt; amrex::Real &gt;</text>
</g>
<!-- Node5 -->
<g id="node5" class="node">
<title>Node5</title>
<g id="a_node5"><a xlink:href="structamr__wind_1_1utils_1_1_slice.html" target="_top" xlink:title="amr_wind::utils::Slice\l\&lt; amr_wind::vs::Tensor \&gt;">
<polygon fill="#ffffff" stroke="#000000" points="401,-123.5 401,-153.5 530,-153.5 530,-123.5 401,-123.5"/>
<text text-anchor="start" x="409" y="-141.5" font-family="Helvetica,sans-Serif" font-size="10.00" fill="#000000">amr_wind::utils::Slice</text>
<text text-anchor="middle" x="465.5" y="-130.5" font-family="Helvetica,sans-Serif" font-size="10.00" fill="#000000">&lt; amr_wind::vs::Tensor &gt;</text>
</a>
</g>
</g>
<!-- Node3&#45;&gt;Node5 -->
<g id="edge7" class="edge">
<title>Node3&#45;&gt;Node5</title>
<path fill="none" stroke="#ffa500" stroke-dasharray="5,2" d="M244.2547,-100.7264C291.2648,-108.7525 354.2203,-119.501 400.954,-127.4799"/>
<polygon fill="#ffa500" stroke="#ffa500" points="244.6232,-97.2388 234.1768,-99.0058 243.4451,-104.1389 244.6232,-97.2388"/>
<text text-anchor="middle" x="325" y="-126.5" font-family="Helvetica,sans-Serif" font-size="10.00" fill="#000000"> &lt; amr_wind::vs::Tensor &gt;</text>
</g>
<!-- Node7 -->
<g id="node7" class="node">
<title>Node7</title>
<g id="a_node7"><a xlink:href="structamr__wind_1_1utils_1_1_slice.html" target="_top" xlink:title="amr_wind::utils::Slice\l\&lt; amr_wind::vs::Vector \&gt;">
<polygon fill="#ffffff" stroke="#000000" points="401.5,-.5 401.5,-30.5 529.5,-30.5 529.5,-.5 401.5,-.5"/>
<text text-anchor="start" x="409.5" y="-18.5" font-family="Helvetica,sans-Serif" font-size="10.00" fill="#000000">amr_wind::utils::Slice</text>
<text text-anchor="middle" x="465.5" y="-7.5" font-family="Helvetica,sans-Serif" font-size="10.00" fill="#000000">&lt; amr_wind::vs::Vector &gt;</text>
</a>
</g>
</g>
<!-- Node3&#45;&gt;Node7 -->
<g id="edge11" class="edge">
<title>Node3&#45;&gt;Node7</title>
<path fill="none" stroke="#ffa500" stroke-dasharray="5,2" d="M225.2614,-77.443C274.8921,-64.6463 353.4149,-44.4 407.0841,-30.5619"/>
<polygon fill="#ffa500" stroke="#ffa500" points="224.2421,-74.0913 215.4327,-79.9773 225.9899,-80.8696 224.2421,-74.0913"/>
<text text-anchor="middle" x="325" y="-68.5" font-family="Helvetica,sans-Serif" font-size="10.00" fill="#000000"> &lt; amr_wind::vs::Vector &gt;</text>
</g>
<!-- Node4 -->
<g id="node4" class="node">
<title>Node4</title>
<polygon fill="#ffffff" stroke="#bfbfbf" points="0,-80 0,-99 29,-99 29,-80 0,-80"/>
<text text-anchor="middle" x="14.5" y="-87" font-family="Helvetica,sans-Serif" font-size="10.00" fill="#000000">T</text>
</g>
<!-- Node4&#45;&gt;Node3 -->
<g id="edge3" class="edge">
<title>Node4&#45;&gt;Node3</title>
<path fill="none" stroke="#9a32cd" stroke-dasharray="5,2" d="M39.2692,-89.5C58.3725,-89.5 85.7416,-89.5 111.1664,-89.5"/>
<polygon fill="#9a32cd" stroke="#9a32cd" points="39.0539,-86.0001 29.0539,-89.5 39.0539,-93.0001 39.0539,-86.0001"/>
<text text-anchor="middle" x="68.5" y="-103.5" font-family="Helvetica,sans-Serif" font-size="10.00" fill="#000000"> ptr_begin</text>
<text text-anchor="middle" x="68.5" y="-92.5" font-family="Helvetica,sans-Serif" font-size="10.00" fill="#000000">ptr_end</text>
</g>
<!-- Node6 -->
<g id="node6" class="node">
<title>Node6</title>
<g id="a_node6"><a xlink:href="structamr__wind_1_1vs_1_1_tensor_t.html" target="_top" xlink:title="Tensor in 3D vector space. ">
<polygon fill="#ffffff" stroke="#000000" points="108,-142 108,-161 249,-161 249,-142 108,-142"/>
<text text-anchor="middle" x="178.5" y="-149" font-family="Helvetica,sans-Serif" font-size="10.00" fill="#000000">amr_wind::vs::TensorT&lt; T &gt;</text>
</a>
</g>
</g>
<!-- Node4&#45;&gt;Node6 -->
<g id="edge6" class="edge">
<title>Node4&#45;&gt;Node6</title>
<path fill="none" stroke="#9a32cd" stroke-dasharray="5,2" d="M31.9433,-105.5814C36.5837,-109.244 41.7683,-112.836 47,-115.5 71.1513,-127.7978 100.0046,-136.2965 124.5225,-141.9344"/>
<polygon fill="#9a32cd" stroke="#9a32cd" points="34.1792,-102.8885 24.2858,-99.0977 29.6559,-108.2307 34.1792,-102.8885"/>
<text text-anchor="middle" x="68.5" y="-134.5" font-family="Helvetica,sans-Serif" font-size="10.00" fill="#000000"> vv</text>
</g>
<!-- Node8 -->
<g id="node8" class="node">
<title>Node8</title>
<g id="a_node8"><a xlink:href="structamr__wind_1_1vs_1_1_vector_t.html" target="_top" xlink:title="Vector in 3D space. ">
<polygon fill="#ffffff" stroke="#000000" points="108.5,-22 108.5,-41 248.5,-41 248.5,-22 108.5,-22"/>
<text text-anchor="middle" x="178.5" y="-29" font-family="Helvetica,sans-Serif" font-size="10.00" fill="#000000">amr_wind::vs::VectorT&lt; T &gt;</text>
</a>
</g>
</g>
<!-- Node4&#45;&gt;Node8 -->
<g id="edge10" class="edge">
<title>Node4&#45;&gt;Node8</title>
<path fill="none" stroke="#9a32cd" stroke-dasharray="5,2" d="M38.5354,-78.0292C41.3682,-76.7898 44.2344,-75.5861 47,-74.5 80.0885,-61.5052 118.8695,-49.1638 145.7019,-41.0636"/>
<polygon fill="#9a32cd" stroke="#9a32cd" points="36.882,-74.9361 29.2279,-82.2618 39.7798,-81.3082 36.882,-74.9361"/>
<text text-anchor="middle" x="68.5" y="-77.5" font-family="Helvetica,sans-Serif" font-size="10.00" fill="#000000"> vv</text>
</g>
<!-- Node5&#45;&gt;Node1 -->
<g id="edge4" class="edge">
<title>Node5&#45;&gt;Node1</title>
<path fill="none" stroke="#9a32cd" stroke-dasharray="5,2" d="M540.0621,-121.6815C564.9843,-116.0599 592.151,-109.9321 614.7674,-104.8307"/>
<polygon fill="#9a32cd" stroke="#9a32cd" points="539.2567,-118.2751 530.2719,-123.8898 540.797,-125.1036 539.2567,-118.2751"/>
<text text-anchor="middle" x="572.5" y="-121.5" font-family="Helvetica,sans-Serif" font-size="10.00" fill="#000000"> orientation</text>
</g>
<!-- Node6&#45;&gt;Node5 -->
<g id="edge5" class="edge">
<title>Node6&#45;&gt;Node5</title>
<path fill="none" stroke="#9a32cd" stroke-dasharray="5,2" d="M259.3201,-147.8392C303.9908,-145.8157 358.747,-143.3355 400.6015,-141.4397"/>
<polygon fill="#9a32cd" stroke="#9a32cd" points="258.907,-144.3542 249.0757,-148.3032 259.2238,-151.347 258.907,-144.3542"/>
<text text-anchor="middle" x="325" y="-160.5" font-family="Helvetica,sans-Serif" font-size="10.00" fill="#000000"> ptr_begin</text>
<text text-anchor="middle" x="325" y="-149.5" font-family="Helvetica,sans-Serif" font-size="10.00" fill="#000000">ptr_end</text>
</g>
<!-- Node7&#45;&gt;Node1 -->
<g id="edge8" class="edge">
<title>Node7&#45;&gt;Node1</title>
<path fill="none" stroke="#9a32cd" stroke-dasharray="5,2" d="M539.5376,-16.49C558.8964,-18.8736 579.2889,-23.3735 597,-31.5 620.2327,-42.16 640.987,-63.7138 653.2857,-78.38"/>
<polygon fill="#9a32cd" stroke="#9a32cd" points="539.8415,-13.0027 529.5281,-15.4284 539.1032,-19.9636 539.8415,-13.0027"/>
<text text-anchor="middle" x="572.5" y="-78.5" font-family="Helvetica,sans-Serif" font-size="10.00" fill="#000000"> vel_pos</text>
<text text-anchor="middle" x="572.5" y="-67.5" font-family="Helvetica,sans-Serif" font-size="10.00" fill="#000000">force</text>
<text text-anchor="middle" x="572.5" y="-56.5" font-family="Helvetica,sans-Serif" font-size="10.00" fill="#000000">vel</text>
<text text-anchor="middle" x="572.5" y="-45.5" font-family="Helvetica,sans-Serif" font-size="10.00" fill="#000000">epsilon</text>
<text text-anchor="middle" x="572.5" y="-34.5" font-family="Helvetica,sans-Serif" font-size="10.00" fill="#000000">pos</text>
</g>
<!-- Node8&#45;&gt;Node7 -->
<g id="edge9" class="edge">
<title>Node8&#45;&gt;Node7</title>
<path fill="none" stroke="#9a32cd" stroke-dasharray="5,2" d="M222.5843,-19.5128C236.6646,-16.2311 252.3872,-13.1306 267,-11.5 311.7043,-6.5116 362.4136,-7.6484 401.3887,-9.962"/>
<polygon fill="#9a32cd" stroke="#9a32cd" points="221.5565,-16.1605 212.6613,-21.916 223.2042,-22.9638 221.5565,-16.1605"/>
<text text-anchor="middle" x="325" y="-25.5" font-family="Helvetica,sans-Serif" font-size="10.00" fill="#000000"> ptr_begin</text>
<text text-anchor="middle" x="325" y="-14.5" font-family="Helvetica,sans-Serif" font-size="10.00" fill="#000000">ptr_end</text>
</g>
</g>
</svg>
        <g id="navigator" transform="translate(0 0)" fill="#404254">
                <rect fill="#f2f5e9" fill-opacity="0.5" stroke="#606060" stroke-width=".5" x="0" y="0" width="60" height="60"/>
                <use id="zoomplus" xlink:href="#zoomPlus" x="17" y="9" onmousedown="handleZoom(evt,'in')"/>
                <use id="zoomminus" xlink:href="#zoomMin" x="42" y="9" onmousedown="handleZoom(evt,'out')"/>
                <use id="reset" xlink:href="#resetDef" x="30" y="36" onmousedown="handleReset()"/>
                <g id="arrowUp" xlink:href="#dirArrow" transform="translate(30 24)" onmousedown="handlePan(0,-1)">
                  <use xlink:href="#rim" fill="#404040">
                        <set attributeName="fill" to="#808080" begin="arrowUp.mouseover" end="arrowUp.mouseout"/>
                  </use>
                  <path fill="none" stroke="white" stroke-width="1.5" d="M0,-3.0v7 M-2.5,-0.5L0,-3.0L2.5,-0.5"/>
                </g>
                <g id="arrowRight" xlink:href="#dirArrow" transform="rotate(90) translate(36 -43)" onmousedown="handlePan(1,0)">
                  <use xlink:href="#rim" fill="#404040">
                        <set attributeName="fill" to="#808080" begin="arrowRight.mouseover" end="arrowRight.mouseout"/>
                  </use>
                  <path fill="none" stroke="white" stroke-width="1.5" d="M0,-3.0v7 M-2.5,-0.5L0,-3.0L2.5,-0.5"/>
                </g>
                <g id="arrowDown" xlink:href="#dirArrow" transform="rotate(180) translate(-30 -48)" onmousedown="handlePan(0,1)">
                  <use xlink:href="#rim" fill="#404040">
                        <set attributeName="fill" to="#808080" begin="arrowDown.mouseover" end="arrowDown.mouseout"/>
                  </use>
                  <path fill="none" stroke="white" stroke-width="1.5" d="M0,-3.0v7 M-2.5,-0.5L0,-3.0L2.5,-0.5"/>
                </g>
                <g id="arrowLeft" xlink:href="#dirArrow" transform="rotate(270) translate(-36 17)" onmousedown="handlePan(-1,0)">
                  <use xlink:href="#rim" fill="#404040">
                        <set attributeName="fill" to="#808080" begin="arrowLeft.mouseover" end="arrowLeft.mouseout"/>
                  </use>
                  <path fill="none" stroke="white" stroke-width="1.5" d="M0,-3.0v7 M-2.5,-0.5L0,-3.0L2.5,-0.5"/>
                </g>
        </g>
        <svg viewBox="0 0 15 15" width="100%" height="30px" preserveAspectRatio="xMaxYMin meet">
         <g id="arrow_out" transform="scale(0.3 0.3)">
          <a xlink:href="structamr__wind_1_1actuator_1_1_component_view__coll__graph_org.svg" target="_base">
           <rect id="button" ry="5" rx="5" y="6" x="6" height="38" width="38"
                fill="#f2f5e9" fill-opacity="0.5" stroke="#606060" stroke-width="1.0"/>
           <path id="arrow"
             d="M 11.500037,31.436501 C 11.940474,20.09759 22.043105,11.32322 32.158766,21.979434 L 37.068811,17.246167 C 37.068811,17.246167 37.088388,32 37.088388,32 L 22.160133,31.978069 C 22.160133,31.978069 26.997745,27.140456 26.997745,27.140456 C 18.528582,18.264221 13.291696,25.230495 11.500037,31.436501 z"
             style="fill:#404040;"/>
          </a>
         </g>
        </svg>
</svg>
