<?xml version="1.0" encoding="UTF-8" standalone="no"?>
<!DOCTYPE svg PUBLIC "-//W3C//DTD SVG 1.1//EN"
 "http://www.w3.org/Graphics/SVG/1.1/DTD/svg11.dtd">
<!-- Generated by graphviz version 2.40.1 (20161225.0304)
 -->
<!-- Title: amr_wind::actuator::TurbineInfo Pages: 1 -->
<svg width="196pt" height="319pt"
 viewBox="0.00 0.00 195.50 319.00" xmlns="http://www.w3.org/2000/svg" xmlns:xlink="http://www.w3.org/1999/xlink">
<g id="graph0" class="graph" transform="scale(1 1) rotate(0) translate(4 315)">
<title>amr_wind::actuator::TurbineInfo</title>
<polygon fill="#ffffff" stroke="transparent" points="-4,4 -4,-315 191.5,-315 191.5,4 -4,4"/>
<!-- Node2 -->
<g id="node1" class="node">
<title>Node2</title>
<polygon fill="#bfbfbf" stroke="#000000" points="40,-.5 40,-30.5 140,-30.5 140,-.5 40,-.5"/>
<text text-anchor="start" x="48" y="-18.5" font-family="Helvetica,sans-Serif" font-size="10.00" fill="#000000">amr_wind::actuator</text>
<text text-anchor="middle" x="90" y="-7.5" font-family="Helvetica,sans-Serif" font-size="10.00" fill="#000000">::TurbineInfo</text>
</g>
<!-- Node3 -->
<g id="node2" class="node">
<title>Node3</title>
<g id="a_node2"><a xlink:href="structamr__wind_1_1actuator_1_1_act_info.html" target="_top" xlink:title="Basic information that is common to all actuator types. ">
<polygon fill="#ffffff" stroke="#000000" points="40,-68.5 40,-98.5 140,-98.5 140,-68.5 40,-68.5"/>
<text text-anchor="start" x="48" y="-86.5" font-family="Helvetica,sans-Serif" font-size="10.00" fill="#000000">amr_wind::actuator</text>
<text text-anchor="middle" x="90" y="-75.5" font-family="Helvetica,sans-Serif" font-size="10.00" fill="#000000">::ActInfo</text>
</a>
</g>
</g>
<!-- Node3&#45;&gt;Node2 -->
<g id="edge1" class="edge">
<title>Node3&#45;&gt;Node2</title>
<path fill="none" stroke="#191970" d="M90,-58.1174C90,-48.8378 90,-38.6413 90,-30.5492"/>
<polygon fill="#191970" stroke="#191970" points="86.5001,-58.4086 90,-68.4086 93.5001,-58.4086 86.5001,-58.4086"/>
</g>
<!-- Node4 -->
<g id="node3" class="node">
<title>Node4</title>
<polygon fill="#ffffff" stroke="#bfbfbf" points="8,-146.5 8,-165.5 86,-165.5 86,-146.5 8,-146.5"/>
<text text-anchor="middle" x="47" y="-153.5" font-family="Helvetica,sans-Serif" font-size="10.00" fill="#000000">std::set&lt; int &gt;</text>
</g>
<!-- Node4&#45;&gt;Node3 -->
<g id="edge2" class="edge">
<title>Node4&#45;&gt;Node3</title>
<path fill="none" stroke="#9a32cd" stroke-dasharray="5,2" d="M57.9948,-137.4623C65.1278,-125.4356 74.3063,-109.9602 81.0038,-98.668"/>
<polygon fill="#9a32cd" stroke="#9a32cd" points="54.8901,-135.8359 52.7992,-146.2223 60.9108,-139.4068 54.8901,-135.8359"/>
<text text-anchor="middle" x="84" y="-120" font-family="Helvetica,sans-Serif" font-size="10.00" fill="#000000"> procs</text>
</g>
<!-- Node5 -->
<g id="node4" class="node">
<title>Node5</title>
<g id="a_node4"><a xlink:title="STL class. ">
<polygon fill="#ffffff" stroke="#bfbfbf" points="0,-219 0,-238 74,-238 74,-219 0,-219"/>
<text text-anchor="middle" x="37" y="-226" font-family="Helvetica,sans-Serif" font-size="10.00" fill="#000000">std::set&lt; K &gt;</text>
</a>
</g>
</g>
<!-- Node5&#45;&gt;Node4 -->
<g id="edge3" class="edge">
<title>Node5&#45;&gt;Node4</title>
<path fill="none" stroke="#ffa500" stroke-dasharray="5,2" d="M39.7441,-208.6054C41.6726,-194.6237 44.1676,-176.5346 45.6727,-165.6228"/>
<polygon fill="#ffa500" stroke="#ffa500" points="36.2479,-208.3379 38.3486,-218.7223 43.1823,-209.2944 36.2479,-208.3379"/>
<text text-anchor="middle" x="59" y="-187" font-family="Helvetica,sans-Serif" font-size="10.00" fill="#000000"> &lt; int &gt;</text>
</g>
<!-- Node6 -->
<g id="node5" class="node">
<title>Node6</title>
<polygon fill="#ffffff" stroke="#bfbfbf" points="22.5,-291.5 22.5,-310.5 51.5,-310.5 51.5,-291.5 22.5,-291.5"/>
<text text-anchor="middle" x="37" y="-298.5" font-family="Helvetica,sans-Serif" font-size="10.00" fill="#000000">K</text>
</g>
<!-- Node6&#45;&gt;Node5 -->
<g id="edge4" class="edge">
<title>Node6&#45;&gt;Node5</title>
<path fill="none" stroke="#9a32cd" stroke-dasharray="5,2" d="M37,-281.1054C37,-267.1237 37,-249.0346 37,-238.1228"/>
<polygon fill="#9a32cd" stroke="#9a32cd" points="33.5001,-281.2223 37,-291.2223 40.5001,-281.2224 33.5001,-281.2223"/>
<text text-anchor="middle" x="49.5" y="-265" font-family="Helvetica,sans-Serif" font-size="10.00" fill="#000000"> keys</text>
</g>
<!-- Node7 -->
<g id="node6" class="node">
<title>Node7</title>
<g id="a_node6"><a xlink:title="STL class. ">
<polygon fill="#ffffff" stroke="#bfbfbf" points="108,-146.5 108,-165.5 168,-165.5 168,-146.5 108,-146.5"/>
<text text-anchor="middle" x="138" y="-153.5" font-family="Helvetica,sans-Serif" font-size="10.00" fill="#000000">std::string</text>
</a>
</g>
</g>
<!-- Node7&#45;&gt;Node3 -->
<g id="edge5" class="edge">
<title>Node7&#45;&gt;Node3</title>
<path fill="none" stroke="#9a32cd" stroke-dasharray="5,2" d="M125.9626,-137.8185C117.9674,-125.7425 107.5925,-110.072 100.0423,-98.668"/>
<polygon fill="#9a32cd" stroke="#9a32cd" points="123.0877,-139.8163 131.5265,-146.2223 128.9244,-135.952 123.0877,-139.8163"/>
<text text-anchor="middle" x="131" y="-120" font-family="Helvetica,sans-Serif" font-size="10.00" fill="#000000"> label</text>
</g>
<!-- Node8 -->
<g id="node7" class="node">
<title>Node8</title>
<g id="a_node7"><a xlink:title="STL class. ">
<polygon fill="#ffffff" stroke="#bfbfbf" points="92.5,-213.5 92.5,-243.5 187.5,-243.5 187.5,-213.5 92.5,-213.5"/>
<text text-anchor="start" x="100.5" y="-231.5" font-family="Helvetica,sans-Serif" font-size="10.00" fill="#000000">std::basic_string&lt;</text>
<text text-anchor="middle" x="140" y="-220.5" font-family="Helvetica,sans-Serif" font-size="10.00" fill="#000000"> char &gt;</text>
</a>
</g>
</g>
<!-- Node8&#45;&gt;Node7 -->
<g id="edge6" class="edge">
<title>Node8&#45;&gt;Node7</title>
<path fill="none" stroke="#191970" d="M139.305,-203.305C138.9496,-190.424 138.5375,-175.4836 138.273,-165.8957"/>
<polygon fill="#191970" stroke="#191970" points="135.8111,-203.5783 139.5856,-213.478 142.8084,-203.3852 135.8111,-203.5783"/>
</g>
</g>
</svg>
