<?xml version="1.0" encoding="UTF-8" standalone="no"?>
<!DOCTYPE svg PUBLIC "-//W3C//DTD SVG 1.1//EN"
 "http://www.w3.org/Graphics/SVG/1.1/DTD/svg11.dtd">
<!-- Generated by graphviz version 2.40.1 (20161225.0304)
 -->
<!-- Title: amr_wind::BCOpCreator&lt; InflowOp, WallOp &gt; Pages: 1 -->
<svg width="241pt" height="418pt"
 viewBox="0.00 0.00 241.00 418.00" xmlns="http://www.w3.org/2000/svg" xmlns:xlink="http://www.w3.org/1999/xlink">
<g id="graph0" class="graph" transform="scale(1 1) rotate(0) translate(4 414)">
<title>amr_wind::BCOpCreator&lt; InflowOp, WallOp &gt;</title>
<polygon fill="#ffffff" stroke="transparent" points="-4,4 -4,-414 237,-414 237,4 -4,4"/>
<!-- Node1 -->
<g id="node1" class="node">
<title>Node1</title>
<polygon fill="#bfbfbf" stroke="#000000" points="107.5,-.5 107.5,-30.5 231.5,-30.5 231.5,-.5 107.5,-.5"/>
<text text-anchor="start" x="115.5" y="-18.5" font-family="Helvetica,sans-Serif" font-size="10.00" fill="#000000">amr_wind::BCOpCreator</text>
<text text-anchor="middle" x="169.5" y="-7.5" font-family="Helvetica,sans-Serif" font-size="10.00" fill="#000000">&lt; InflowOp, WallOp &gt;</text>
</g>
<!-- Node2 -->
<g id="node2" class="node">
<title>Node2</title>
<g id="a_node2"><a xlink:href="classamr__wind_1_1_field.html" target="_top" xlink:title="Computational fieldThis is an abstraction of a collection of MultiFabs over multiple levels...">
<polygon fill="#ffffff" stroke="#000000" points="126.5,-78.5 126.5,-97.5 212.5,-97.5 212.5,-78.5 126.5,-78.5"/>
<text text-anchor="middle" x="169.5" y="-85.5" font-family="Helvetica,sans-Serif" font-size="10.00" fill="#000000">amr_wind::Field</text>
</a>
</g>
</g>
<!-- Node2&#45;&gt;Node1 -->
<g id="edge1" class="edge">
<title>Node2&#45;&gt;Node1</title>
<path fill="none" stroke="#9a32cd" stroke-dasharray="5,2" d="M169.5,-68.0177C169.5,-56.2164 169.5,-41.513 169.5,-30.668"/>
<polygon fill="#9a32cd" stroke="#9a32cd" points="166.0001,-68.2223 169.5,-78.2223 173.0001,-68.2224 166.0001,-68.2223"/>
<text text-anchor="middle" x="187" y="-52" font-family="Helvetica,sans-Serif" font-size="10.00" fill="#000000"> m_field</text>
</g>
<!-- Node3 -->
<g id="node3" class="node">
<title>Node3</title>
<g id="a_node3"><a xlink:title="STL class. ">
<polygon fill="#ffffff" stroke="#bfbfbf" points="155.5,-307 155.5,-326 215.5,-326 215.5,-307 155.5,-307"/>
<text text-anchor="middle" x="185.5" y="-314" font-family="Helvetica,sans-Serif" font-size="10.00" fill="#000000">std::string</text>
</a>
</g>
</g>
<!-- Node3&#45;&gt;Node2 -->
<g id="edge2" class="edge">
<title>Node3&#45;&gt;Node2</title>
<path fill="none" stroke="#9a32cd" stroke-dasharray="5,2" d="M187.5149,-296.5825C187.9021,-292.1176 188.261,-287.4003 188.5,-283 192.2617,-213.7559 190.8333,-196.3429 191.5,-127 191.547,-122.1113 193.098,-120.6203 191.5,-116 189.1156,-109.1058 184.2551,-102.6182 179.7078,-97.6272"/>
<polygon fill="#9a32cd" stroke="#9a32cd" points="184.0022,-296.5526 186.546,-306.8375 190.9712,-297.2111 184.0022,-296.5526"/>
<text text-anchor="middle" x="211" y="-191.5" font-family="Helvetica,sans-Serif" font-size="10.00" fill="#000000"> m_name</text>
</g>
<!-- Node6 -->
<g id="node6" class="node">
<title>Node6</title>
<polygon fill="#ffffff" stroke="#bfbfbf" points="69.5,-223.5 69.5,-253.5 179.5,-253.5 179.5,-223.5 69.5,-223.5"/>
<text text-anchor="start" x="77.5" y="-241.5" font-family="Helvetica,sans-Serif" font-size="10.00" fill="#000000">std::unordered_map</text>
<text text-anchor="middle" x="124.5" y="-230.5" font-family="Helvetica,sans-Serif" font-size="10.00" fill="#000000">&lt; std::string, size_t &gt;</text>
</g>
<!-- Node3&#45;&gt;Node6 -->
<g id="edge6" class="edge">
<title>Node3&#45;&gt;Node6</title>
<path fill="none" stroke="#9a32cd" stroke-dasharray="5,2" d="M171.6941,-298.8466C161.0811,-285.2759 146.5706,-266.7214 136.4516,-253.7824"/>
<polygon fill="#9a32cd" stroke="#9a32cd" points="169.1028,-301.2146 178.0202,-306.9357 174.6168,-296.9023 169.1028,-301.2146"/>
<text text-anchor="middle" x="172" y="-275" font-family="Helvetica,sans-Serif" font-size="10.00" fill="#000000"> keys</text>
</g>
<!-- Node4 -->
<g id="node4" class="node">
<title>Node4</title>
<g id="a_node4"><a xlink:title="STL class. ">
<polygon fill="#ffffff" stroke="#bfbfbf" points="138,-379.5 138,-409.5 233,-409.5 233,-379.5 138,-379.5"/>
<text text-anchor="start" x="146" y="-397.5" font-family="Helvetica,sans-Serif" font-size="10.00" fill="#000000">std::basic_string&lt;</text>
<text text-anchor="middle" x="185.5" y="-386.5" font-family="Helvetica,sans-Serif" font-size="10.00" fill="#000000"> char &gt;</text>
</a>
</g>
</g>
<!-- Node4&#45;&gt;Node3 -->
<g id="edge3" class="edge">
<title>Node4&#45;&gt;Node3</title>
<path fill="none" stroke="#191970" d="M185.5,-369.3962C185.5,-354.6331 185.5,-336.8138 185.5,-326.0839"/>
<polygon fill="#191970" stroke="#191970" points="182.0001,-369.4608 185.5,-379.4608 189.0001,-369.4609 182.0001,-369.4608"/>
</g>
<!-- Node5 -->
<g id="node5" class="node">
<title>Node5</title>
<g id="a_node5"><a xlink:href="classamr__wind_1_1_field_repo.html" target="_top" xlink:title="Field RepositoryFieldRepo is a database that manages handling of fields used during a simulation...">
<polygon fill="#ffffff" stroke="#000000" points="72,-145.5 72,-164.5 181,-164.5 181,-145.5 72,-145.5"/>
<text text-anchor="middle" x="126.5" y="-152.5" font-family="Helvetica,sans-Serif" font-size="10.00" fill="#000000">amr_wind::FieldRepo</text>
</a>
</g>
</g>
<!-- Node5&#45;&gt;Node2 -->
<g id="edge4" class="edge">
<title>Node5&#45;&gt;Node2</title>
<path fill="none" stroke="#9a32cd" stroke-dasharray="5,2" d="M138.0649,-136.9803C146.2037,-124.2989 156.7775,-107.8235 163.3506,-97.5817"/>
<polygon fill="#9a32cd" stroke="#9a32cd" points="135.1166,-135.0942 132.6609,-145.4005 141.0077,-138.8751 135.1166,-135.0942"/>
<text text-anchor="middle" x="169.5" y="-119" font-family="Helvetica,sans-Serif" font-size="10.00" fill="#000000"> m_repo</text>
</g>
<!-- Node6&#45;&gt;Node5 -->
<g id="edge5" class="edge">
<title>Node6&#45;&gt;Node5</title>
<path fill="none" stroke="#9a32cd" stroke-dasharray="5,2" d="M124.8582,-213.4039C125.0188,-203.8813 125.233,-192.9391 125.5,-183 125.6646,-176.8733 125.9094,-169.9946 126.1156,-164.5884"/>
<polygon fill="#9a32cd" stroke="#9a32cd" points="121.3584,-213.3685 124.6997,-223.4227 128.3575,-213.4793 121.3584,-213.3685"/>
<text text-anchor="middle" x="157.5" y="-197" font-family="Helvetica,sans-Serif" font-size="10.00" fill="#000000"> m_fid_map</text>
<text text-anchor="middle" x="157.5" y="-186" font-family="Helvetica,sans-Serif" font-size="10.00" fill="#000000">m_int_fid_map</text>
</g>
<!-- Node7 -->
<g id="node7" class="node">
<title>Node7</title>
<g id="a_node7"><a xlink:title="STL class. ">
<polygon fill="#ffffff" stroke="#bfbfbf" points="0,-301.5 0,-331.5 103,-331.5 103,-301.5 0,-301.5"/>
<text text-anchor="start" x="8" y="-319.5" font-family="Helvetica,sans-Serif" font-size="10.00" fill="#000000">std::unordered_map</text>
<text text-anchor="middle" x="51.5" y="-308.5" font-family="Helvetica,sans-Serif" font-size="10.00" fill="#000000">&lt; K, T &gt;</text>
</a>
</g>
</g>
<!-- Node7&#45;&gt;Node6 -->
<g id="edge7" class="edge">
<title>Node7&#45;&gt;Node6</title>
<path fill="none" stroke="#ffa500" stroke-dasharray="5,2" d="M46.0011,-291.225C45.8133,-284.5391 46.8716,-277.6254 50.5,-272 55.545,-264.1783 62.9072,-258.163 71.0565,-253.5426"/>
<polygon fill="#ffa500" stroke="#ffa500" points="42.541,-291.7776 47.1318,-301.3262 49.4976,-290.9988 42.541,-291.7776"/>
<text text-anchor="middle" x="99" y="-275" font-family="Helvetica,sans-Serif" font-size="10.00" fill="#000000"> &lt; std::string, size_t &gt;</text>
</g>
<!-- Node8 -->
<g id="node8" class="node">
<title>Node8</title>
<polygon fill="#ffffff" stroke="#bfbfbf" points="23,-385 23,-404 52,-404 52,-385 23,-385"/>
<text text-anchor="middle" x="37.5" y="-392" font-family="Helvetica,sans-Serif" font-size="10.00" fill="#000000">K</text>
</g>
<!-- Node8&#45;&gt;Node7 -->
<g id="edge8" class="edge">
<title>Node8&#45;&gt;Node7</title>
<path fill="none" stroke="#9a32cd" stroke-dasharray="5,2" d="M36.4813,-374.5823C36.4663,-366.8425 36.9201,-357.944 38.5,-350 39.7412,-343.7589 42.0571,-337.173 44.3943,-331.5078"/>
<polygon fill="#9a32cd" stroke="#9a32cd" points="32.9898,-374.9462 36.7621,-384.8467 39.9872,-374.7547 32.9898,-374.9462"/>
<text text-anchor="middle" x="51" y="-353" font-family="Helvetica,sans-Serif" font-size="10.00" fill="#000000"> keys</text>
</g>
<!-- Node9 -->
<g id="node9" class="node">
<title>Node9</title>
<polygon fill="#ffffff" stroke="#bfbfbf" points="71,-385 71,-404 100,-404 100,-385 71,-385"/>
<text text-anchor="middle" x="85.5" y="-392" font-family="Helvetica,sans-Serif" font-size="10.00" fill="#000000">T</text>
</g>
<!-- Node9&#45;&gt;Node7 -->
<g id="edge9" class="edge">
<title>Node9&#45;&gt;Node7</title>
<path fill="none" stroke="#9a32cd" stroke-dasharray="5,2" d="M77.2927,-375.6714C71.4293,-362.2202 63.6405,-344.3517 58.1615,-331.7824"/>
<polygon fill="#9a32cd" stroke="#9a32cd" points="74.1266,-377.1673 81.3309,-384.9357 80.5435,-374.3701 74.1266,-377.1673"/>
<text text-anchor="middle" x="93" y="-353" font-family="Helvetica,sans-Serif" font-size="10.00" fill="#000000"> elements</text>
</g>
</g>
</svg>
