<?xml version="1.0" encoding="UTF-8" standalone="no"?>
<!DOCTYPE svg PUBLIC "-//W3C//DTD SVG 1.1//EN"
 "http://www.w3.org/Graphics/SVG/1.1/DTD/svg11.dtd">
<!-- Generated by graphviz version 2.40.1 (20161225.0304)
 -->
<!-- Title: tensorI.H Pages: 1 -->
<svg width="492pt" height="263pt"
 viewBox="0.00 0.00 491.92 263.00" xmlns="http://www.w3.org/2000/svg" xmlns:xlink="http://www.w3.org/1999/xlink">
<g id="graph0" class="graph" transform="scale(1 1) rotate(0) translate(4 259)">
<title>tensorI.H</title>
<polygon fill="#ffffff" stroke="transparent" points="-4,4 -4,-259 487.9151,-259 487.9151,4 -4,4"/>
<!-- Node0 -->
<g id="node1" class="node">
<title>Node0</title>
<polygon fill="#bfbfbf" stroke="#000000" points="79.9151,-235.5 79.9151,-254.5 136.9151,-254.5 136.9151,-235.5 79.9151,-235.5"/>
<text text-anchor="middle" x="108.4151" y="-242.5" font-family="Helvetica,sans-Serif" font-size="10.00" fill="#000000">tensorI.H</text>
</g>
<!-- Node1 -->
<g id="node2" class="node">
<title>Node1</title>
<polygon fill="#ffffff" stroke="#bfbfbf" points="2.4151,-.5 2.4151,-19.5 46.4151,-19.5 46.4151,-.5 2.4151,-.5"/>
<text text-anchor="middle" x="24.4151" y="-7.5" font-family="Helvetica,sans-Serif" font-size="10.00" fill="#000000">cmath</text>
</g>
<!-- Node0&#45;&gt;Node1 -->
<g id="edge1" class="edge">
<title>Node0&#45;&gt;Node1</title>
<path fill="none" stroke="#191970" d="M93.0807,-235.3968C69.4037,-219.5474 24.8585,-185.4071 7.4151,-143 -8.298,-104.7994 5.9395,-55.656 16.1567,-29.0932"/>
<polygon fill="#191970" stroke="#191970" points="19.416,-30.3694 19.9336,-19.7872 12.9298,-27.7369 19.416,-30.3694"/>
</g>
<!-- Node2 -->
<g id="node3" class="node">
<title>Node2</title>
<g id="a_node3"><a xlink:href="tensor_8_h.html" target="_top" xlink:title="amr&#45;wind/core/vs/tensor.H">
<polygon fill="#ffffff" stroke="#000000" points="89.4151,-179.5 89.4151,-198.5 221.4151,-198.5 221.4151,-179.5 89.4151,-179.5"/>
<text text-anchor="middle" x="155.4151" y="-186.5" font-family="Helvetica,sans-Serif" font-size="10.00" fill="#000000">amr&#45;wind/core/vs/tensor.H</text>
</a>
</g>
</g>
<!-- Node0&#45;&gt;Node2 -->
<g id="edge2" class="edge">
<title>Node0&#45;&gt;Node2</title>
<path fill="none" stroke="#191970" d="M111.335,-235.2455C116.5758,-227.1352 126.0929,-215.4075 135.0775,-205.7919"/>
<polygon fill="#191970" stroke="#191970" points="137.5821,-208.2368 142.077,-198.6427 132.5802,-203.3397 137.5821,-208.2368"/>
</g>
<!-- Node10 -->
<g id="node11" class="node">
<title>Node10</title>
<g id="a_node11"><a xlink:href="trig__ops_8_h.html" target="_top" xlink:title="Trigonometric utilities. ">
<polygon fill="#ffffff" stroke="#000000" points="16.4151,-112.5 16.4151,-142.5 106.4151,-142.5 106.4151,-112.5 16.4151,-112.5"/>
<text text-anchor="start" x="24.4151" y="-130.5" font-family="Helvetica,sans-Serif" font-size="10.00" fill="#000000">amr&#45;wind/utilities</text>
<text text-anchor="middle" x="61.4151" y="-119.5" font-family="Helvetica,sans-Serif" font-size="10.00" fill="#000000">/trig_ops.H</text>
</a>
</g>
</g>
<!-- Node0&#45;&gt;Node10 -->
<g id="edge15" class="edge">
<title>Node0&#45;&gt;Node10</title>
<path fill="none" stroke="#191970" d="M101.3129,-235.2185C95.05,-226.1993 86.0651,-212.2429 80.4151,-199 74.0691,-184.1258 69.3695,-166.5875 66.2317,-152.6035"/>
<polygon fill="#191970" stroke="#191970" points="69.6315,-151.7634 64.1353,-142.7057 62.7834,-153.2139 69.6315,-151.7634"/>
</g>
<!-- Node2&#45;&gt;Node0 -->
<g id="edge14" class="edge">
<title>Node2&#45;&gt;Node0</title>
<path fill="none" stroke="#191970" d="M152.5673,-198.6427C147.366,-206.7196 137.8663,-218.4402 128.8768,-228.0751"/>
<polygon fill="#191970" stroke="#191970" points="126.3554,-225.6476 121.8687,-235.2455 131.3615,-230.5404 126.3554,-225.6476"/>
</g>
<!-- Node3 -->
<g id="node4" class="node">
<title>Node3</title>
<polygon fill="#ffffff" stroke="#bfbfbf" points="90.9151,-56.5 90.9151,-75.5 175.9151,-75.5 175.9151,-56.5 90.9151,-56.5"/>
<text text-anchor="middle" x="133.4151" y="-63.5" font-family="Helvetica,sans-Serif" font-size="10.00" fill="#000000">AMReX_Gpu.H</text>
</g>
<!-- Node2&#45;&gt;Node3 -->
<g id="edge3" class="edge">
<title>Node2&#45;&gt;Node3</title>
<path fill="none" stroke="#191970" d="M153.6888,-179.3484C150.0903,-159.2295 141.7252,-112.4608 136.9404,-85.7098"/>
<polygon fill="#191970" stroke="#191970" points="140.3395,-84.8343 135.1334,-75.6068 133.4488,-86.0668 140.3395,-84.8343"/>
</g>
<!-- Node4 -->
<g id="node5" class="node">
<title>Node4</title>
<g id="a_node5"><a xlink:href="vstraits_8_h.html" target="_top" xlink:title="amr&#45;wind/core/vs/vstraits.H">
<polygon fill="#ffffff" stroke="#000000" points="193.9151,-56.5 193.9151,-75.5 330.9151,-75.5 330.9151,-56.5 193.9151,-56.5"/>
<text text-anchor="middle" x="262.4151" y="-63.5" font-family="Helvetica,sans-Serif" font-size="10.00" fill="#000000">amr&#45;wind/core/vs/vstraits.H</text>
</a>
</g>
</g>
<!-- Node2&#45;&gt;Node4 -->
<g id="edge4" class="edge">
<title>Node2&#45;&gt;Node4</title>
<path fill="none" stroke="#191970" d="M158.1239,-179.0122C162.7852,-163.2949 173.58,-132.474 191.4151,-112 202.7024,-99.0426 218.5027,-88.3207 232.3332,-80.4975"/>
<polygon fill="#191970" stroke="#191970" points="234.3694,-83.3762 241.5138,-75.5526 231.0499,-77.2133 234.3694,-83.3762"/>
</g>
<!-- Node7 -->
<g id="node8" class="node">
<title>Node7</title>
<g id="a_node8"><a xlink:href="vector_8_h.html" target="_top" xlink:title="amr&#45;wind/core/vs/vector.H">
<polygon fill="#ffffff" stroke="#000000" points="200.4151,-118 200.4151,-137 332.4151,-137 332.4151,-118 200.4151,-118"/>
<text text-anchor="middle" x="266.4151" y="-125" font-family="Helvetica,sans-Serif" font-size="10.00" fill="#000000">amr&#45;wind/core/vs/vector.H</text>
</a>
</g>
</g>
<!-- Node2&#45;&gt;Node7 -->
<g id="edge7" class="edge">
<title>Node2&#45;&gt;Node7</title>
<path fill="none" stroke="#191970" d="M172.7589,-179.3906C190.8424,-169.3713 219.401,-153.5483 240.2316,-142.0071"/>
<polygon fill="#191970" stroke="#191970" points="242.1422,-144.9498 249.1931,-137.0419 238.7497,-138.8268 242.1422,-144.9498"/>
</g>
<!-- Node5 -->
<g id="node6" class="node">
<title>Node5</title>
<polygon fill="#ffffff" stroke="#bfbfbf" points="242.4151,-.5 242.4151,-19.5 282.4151,-19.5 282.4151,-.5 242.4151,-.5"/>
<text text-anchor="middle" x="262.4151" y="-7.5" font-family="Helvetica,sans-Serif" font-size="10.00" fill="#000000">limits</text>
</g>
<!-- Node4&#45;&gt;Node5 -->
<g id="edge5" class="edge">
<title>Node4&#45;&gt;Node5</title>
<path fill="none" stroke="#191970" d="M262.4151,-56.2455C262.4151,-48.9382 262.4151,-38.6944 262.4151,-29.7046"/>
<polygon fill="#191970" stroke="#191970" points="265.9152,-29.6426 262.4151,-19.6427 258.9152,-29.6427 265.9152,-29.6426"/>
</g>
<!-- Node6 -->
<g id="node7" class="node">
<title>Node6</title>
<polygon fill="#ffffff" stroke="#bfbfbf" points="97.9151,-.5 97.9151,-19.5 190.9151,-19.5 190.9151,-.5 97.9151,-.5"/>
<text text-anchor="middle" x="144.4151" y="-7.5" font-family="Helvetica,sans-Serif" font-size="10.00" fill="#000000">AMReX_REAL.H</text>
</g>
<!-- Node4&#45;&gt;Node6 -->
<g id="edge6" class="edge">
<title>Node4&#45;&gt;Node6</title>
<path fill="none" stroke="#191970" d="M242.1302,-56.3733C223.2731,-47.4241 194.9691,-33.9917 173.6696,-23.8835"/>
<polygon fill="#191970" stroke="#191970" points="174.9702,-20.6266 164.4353,-19.5011 171.969,-26.9506 174.9702,-20.6266"/>
</g>
<!-- Node7&#45;&gt;Node3 -->
<g id="edge8" class="edge">
<title>Node7&#45;&gt;Node3</title>
<path fill="none" stroke="#191970" d="M245.6339,-117.8906C223.5757,-107.6908 188.5101,-91.4763 163.4482,-79.8875"/>
<polygon fill="#191970" stroke="#191970" points="164.596,-76.5622 154.0504,-75.5419 161.658,-82.9158 164.596,-76.5622"/>
</g>
<!-- Node7&#45;&gt;Node4 -->
<g id="edge9" class="edge">
<title>Node7&#45;&gt;Node4</title>
<path fill="none" stroke="#191970" d="M265.7901,-117.8906C265.2356,-109.3657 264.4079,-96.6392 263.7109,-85.9235"/>
<polygon fill="#191970" stroke="#191970" points="267.1907,-85.4966 263.0489,-75.7449 260.2054,-85.951 267.1907,-85.4966"/>
</g>
<!-- Node8 -->
<g id="node9" class="node">
<title>Node8</title>
<g id="a_node9"><a xlink:href="vector_i_8_h.html" target="_top" xlink:title="amr&#45;wind/core/vs/vectorI.H">
<polygon fill="#ffffff" stroke="#000000" points="348.9151,-56.5 348.9151,-75.5 483.9151,-75.5 483.9151,-56.5 348.9151,-56.5"/>
<text text-anchor="middle" x="416.4151" y="-63.5" font-family="Helvetica,sans-Serif" font-size="10.00" fill="#000000">amr&#45;wind/core/vs/vectorI.H</text>
</a>
</g>
</g>
<!-- Node7&#45;&gt;Node8 -->
<g id="edge10" class="edge">
<title>Node7&#45;&gt;Node8</title>
<path fill="none" stroke="#191970" d="M284.7901,-117.8906C308.1839,-107.4652 348.7432,-90.7559 378.7547,-79.1252"/>
<polygon fill="#191970" stroke="#191970" points="380.0106,-82.3922 388.0929,-75.5419 377.5027,-75.8568 380.0106,-82.3922"/>
</g>
<!-- Node8&#45;&gt;Node1 -->
<g id="edge12" class="edge">
<title>Node8&#45;&gt;Node1</title>
<path fill="none" stroke="#191970" d="M348.7409,-56.7393C282.5873,-47.6256 179.0298,-33.1961 89.4151,-20 78.7407,-18.4282 67.0898,-16.6541 56.6379,-15.0414"/>
<polygon fill="#191970" stroke="#191970" points="57.0843,-11.5689 46.6662,-13.4958 56.0121,-18.4863 57.0843,-11.5689"/>
</g>
<!-- Node8&#45;&gt;Node7 -->
<g id="edge13" class="edge">
<title>Node8&#45;&gt;Node7</title>
<path fill="none" stroke="#191970" d="M398.1915,-75.5419C374.872,-85.9402 334.3271,-102.6468 304.2702,-114.2993"/>
<polygon fill="#191970" stroke="#191970" points="302.9965,-111.0392 294.9151,-117.8906 305.5052,-117.5742 302.9965,-111.0392"/>
</g>
<!-- Node9 -->
<g id="node10" class="node">
<title>Node9</title>
<polygon fill="#ffffff" stroke="#bfbfbf" points="390.4151,-.5 390.4151,-19.5 442.4151,-19.5 442.4151,-.5 390.4151,-.5"/>
<text text-anchor="middle" x="416.4151" y="-7.5" font-family="Helvetica,sans-Serif" font-size="10.00" fill="#000000">ostream</text>
</g>
<!-- Node8&#45;&gt;Node9 -->
<g id="edge11" class="edge">
<title>Node8&#45;&gt;Node9</title>
<path fill="none" stroke="#191970" d="M416.4151,-56.2455C416.4151,-48.9382 416.4151,-38.6944 416.4151,-29.7046"/>
<polygon fill="#191970" stroke="#191970" points="419.9152,-29.6426 416.4151,-19.6427 412.9152,-29.6427 419.9152,-29.6426"/>
</g>
<!-- Node10&#45;&gt;Node1 -->
<g id="edge16" class="edge">
<title>Node10&#45;&gt;Node1</title>
<path fill="none" stroke="#191970" d="M56.578,-112.1389C49.8815,-90.873 37.7887,-52.4702 30.4912,-29.2956"/>
<polygon fill="#191970" stroke="#191970" points="33.7673,-28.0465 27.4253,-19.5595 27.0905,-30.149 33.7673,-28.0465"/>
</g>
<!-- Node10&#45;&gt;Node3 -->
<g id="edge18" class="edge">
<title>Node10&#45;&gt;Node3</title>
<path fill="none" stroke="#191970" d="M79.2129,-112.2977C89.8319,-103.2274 103.3182,-91.7077 114.1818,-82.4285"/>
<polygon fill="#191970" stroke="#191970" points="116.5564,-85.0031 121.887,-75.8469 112.01,-79.6805 116.5564,-85.0031"/>
</g>
<!-- Node10&#45;&gt;Node6 -->
<g id="edge17" class="edge">
<title>Node10&#45;&gt;Node6</title>
<path fill="none" stroke="#191970" d="M63.0214,-112.3268C65.2647,-96.9593 70.4984,-73.0838 82.4151,-56 91.2141,-43.3858 104.582,-32.8376 116.655,-25.0378"/>
<polygon fill="#191970" stroke="#191970" points="118.8228,-27.8154 125.5378,-19.6203 115.1779,-21.8391 118.8228,-27.8154"/>
</g>
</g>
</svg>
