<?xml version="1.0" encoding="UTF-8" standalone="no"?>
<!DOCTYPE svg PUBLIC "-//W3C//DTD SVG 1.1//EN"
 "http://www.w3.org/Graphics/SVG/1.1/DTD/svg11.dtd">
<!-- Generated by graphviz version 2.40.1 (20161225.0304)
 -->
<!-- Title: tensor.H Pages: 1 -->
<svg width="498pt" height="207pt"
 viewBox="0.00 0.00 497.98 207.00" xmlns="http://www.w3.org/2000/svg" xmlns:xlink="http://www.w3.org/1999/xlink">
<g id="graph0" class="graph" transform="scale(1 1) rotate(0) translate(4 203)">
<title>tensor.H</title>
<polygon fill="#ffffff" stroke="transparent" points="-4,4 -4,-203 493.9818,-203 493.9818,4 -4,4"/>
<!-- Node0 -->
<g id="node1" class="node">
<title>Node0</title>
<polygon fill="#bfbfbf" stroke="#000000" points="232.5,-179.5 232.5,-198.5 286.5,-198.5 286.5,-179.5 232.5,-179.5"/>
<text text-anchor="middle" x="259.5" y="-186.5" font-family="Helvetica,sans-Serif" font-size="10.00" fill="#000000">tensor.H</text>
</g>
<!-- Node1 -->
<g id="node2" class="node">
<title>Node1</title>
<polygon fill="#ffffff" stroke="#bfbfbf" points="217,-.5 217,-19.5 302,-19.5 302,-.5 217,-.5"/>
<text text-anchor="middle" x="259.5" y="-7.5" font-family="Helvetica,sans-Serif" font-size="10.00" fill="#000000">AMReX_Gpu.H</text>
</g>
<!-- Node0&#45;&gt;Node1 -->
<g id="edge1" class="edge">
<title>Node0&#45;&gt;Node1</title>
<path fill="none" stroke="#191970" d="M232.1997,-180.1024C215.1798,-172.9765 194.647,-161.127 184.5,-143 180.1582,-135.2436 182.589,-131.681 184.5,-123 191.5538,-90.9565 197.0206,-83.1119 215.5,-56 222.7434,-45.3729 232.4939,-34.9017 240.9753,-26.6408"/>
<polygon fill="#191970" stroke="#191970" points="243.4249,-29.1417 248.2992,-19.7347 238.6225,-24.0488 243.4249,-29.1417"/>
</g>
<!-- Node2 -->
<g id="node3" class="node">
<title>Node2</title>
<g id="a_node3"><a xlink:href="vstraits_8_h.html" target="_top" xlink:title="amr&#45;wind/core/vs/vstraits.H">
<polygon fill="#ffffff" stroke="#000000" points="0,-62 0,-81 137,-81 137,-62 0,-62"/>
<text text-anchor="middle" x="68.5" y="-69" font-family="Helvetica,sans-Serif" font-size="10.00" fill="#000000">amr&#45;wind/core/vs/vstraits.H</text>
</a>
</g>
</g>
<!-- Node0&#45;&gt;Node2 -->
<g id="edge2" class="edge">
<title>Node0&#45;&gt;Node2</title>
<path fill="none" stroke="#191970" d="M232.1799,-180.0209C209.6349,-171.9995 177.278,-159.0496 151.5,-143 126.477,-127.4204 101.3312,-104.4988 85.3827,-88.8351"/>
<polygon fill="#191970" stroke="#191970" points="87.4764,-85.9791 77.9303,-81.383 82.5267,-90.9289 87.4764,-85.9791"/>
</g>
<!-- Node5 -->
<g id="node6" class="node">
<title>Node5</title>
<g id="a_node6"><a xlink:href="vector_8_h.html" target="_top" xlink:title="amr&#45;wind/core/vs/vector.H">
<polygon fill="#ffffff" stroke="#000000" points="193.5,-123.5 193.5,-142.5 325.5,-142.5 325.5,-123.5 193.5,-123.5"/>
<text text-anchor="middle" x="259.5" y="-130.5" font-family="Helvetica,sans-Serif" font-size="10.00" fill="#000000">amr&#45;wind/core/vs/vector.H</text>
</a>
</g>
</g>
<!-- Node0&#45;&gt;Node5 -->
<g id="edge5" class="edge">
<title>Node0&#45;&gt;Node5</title>
<path fill="none" stroke="#191970" d="M259.5,-179.2455C259.5,-171.9382 259.5,-161.6944 259.5,-152.7046"/>
<polygon fill="#191970" stroke="#191970" points="263.0001,-152.6426 259.5,-142.6427 256.0001,-152.6427 263.0001,-152.6426"/>
</g>
<!-- Node9 -->
<g id="node10" class="node">
<title>Node9</title>
<g id="a_node10"><a xlink:href="tensor_i_8_h.html" target="_top" xlink:title="amr&#45;wind/core/vs/tensorI.H">
<polygon fill="#ffffff" stroke="#000000" points="344,-123.5 344,-142.5 479,-142.5 479,-123.5 344,-123.5"/>
<text text-anchor="middle" x="411.5" y="-130.5" font-family="Helvetica,sans-Serif" font-size="10.00" fill="#000000">amr&#45;wind/core/vs/tensorI.H</text>
</a>
</g>
</g>
<!-- Node0&#45;&gt;Node9 -->
<g id="edge12" class="edge">
<title>Node0&#45;&gt;Node9</title>
<path fill="none" stroke="#191970" d="M280.3877,-179.3733C303.7398,-170.1016 341.7897,-156.0178 370.9715,-145.804"/>
<polygon fill="#191970" stroke="#191970" points="372.1931,-149.0849 380.4939,-142.5011 369.8992,-142.4715 372.1931,-149.0849"/>
</g>
<!-- Node3 -->
<g id="node4" class="node">
<title>Node3</title>
<polygon fill="#ffffff" stroke="#bfbfbf" points="47.5,-.5 47.5,-19.5 87.5,-19.5 87.5,-.5 47.5,-.5"/>
<text text-anchor="middle" x="67.5" y="-7.5" font-family="Helvetica,sans-Serif" font-size="10.00" fill="#000000">limits</text>
</g>
<!-- Node2&#45;&gt;Node3 -->
<g id="edge3" class="edge">
<title>Node2&#45;&gt;Node3</title>
<path fill="none" stroke="#191970" d="M68.3438,-61.8906C68.2051,-53.3657 67.9982,-40.6392 67.824,-29.9235"/>
<polygon fill="#191970" stroke="#191970" points="71.3207,-29.6866 67.6585,-19.7449 64.3216,-29.8005 71.3207,-29.6866"/>
</g>
<!-- Node4 -->
<g id="node5" class="node">
<title>Node4</title>
<polygon fill="#ffffff" stroke="#bfbfbf" points="106,-.5 106,-19.5 199,-19.5 199,-.5 106,-.5"/>
<text text-anchor="middle" x="152.5" y="-7.5" font-family="Helvetica,sans-Serif" font-size="10.00" fill="#000000">AMReX_REAL.H</text>
</g>
<!-- Node2&#45;&gt;Node4 -->
<g id="edge4" class="edge">
<title>Node2&#45;&gt;Node4</title>
<path fill="none" stroke="#191970" d="M81.625,-61.8906C94.94,-52.1421 115.7594,-36.8994 131.3947,-25.4521"/>
<polygon fill="#191970" stroke="#191970" points="133.4661,-28.2734 139.4672,-19.5419 129.3309,-22.6253 133.4661,-28.2734"/>
</g>
<!-- Node5&#45;&gt;Node1 -->
<g id="edge6" class="edge">
<title>Node5&#45;&gt;Node1</title>
<path fill="none" stroke="#191970" d="M248.3498,-123.3293C239.4329,-114.8007 227.6079,-101.5 222.5,-87 217.9223,-74.0049 217.9223,-68.9951 222.5,-56 226.3309,-45.125 233.9402,-34.9246 241.2672,-26.9061"/>
<polygon fill="#191970" stroke="#191970" points="243.8557,-29.2652 248.3498,-19.6707 238.8534,-24.3686 243.8557,-29.2652"/>
</g>
<!-- Node5&#45;&gt;Node2 -->
<g id="edge7" class="edge">
<title>Node5&#45;&gt;Node2</title>
<path fill="none" stroke="#191970" d="M229.6563,-123.3906C196.8575,-112.8298 144.0328,-95.8208 107.8636,-84.1747"/>
<polygon fill="#191970" stroke="#191970" points="108.7257,-80.7753 98.1342,-81.0419 106.5802,-87.4385 108.7257,-80.7753"/>
</g>
<!-- Node6 -->
<g id="node7" class="node">
<title>Node6</title>
<g id="a_node7"><a xlink:href="vector_i_8_h.html" target="_top" xlink:title="amr&#45;wind/core/vs/vectorI.H">
<polygon fill="#ffffff" stroke="#000000" points="340,-62 340,-81 475,-81 475,-62 340,-62"/>
<text text-anchor="middle" x="407.5" y="-69" font-family="Helvetica,sans-Serif" font-size="10.00" fill="#000000">amr&#45;wind/core/vs/vectorI.H</text>
</a>
</g>
</g>
<!-- Node5&#45;&gt;Node6 -->
<g id="edge8" class="edge">
<title>Node5&#45;&gt;Node6</title>
<path fill="none" stroke="#191970" d="M277.5625,-123.3906C300.5174,-113.0103 340.287,-96.4004 369.881,-84.7766"/>
<polygon fill="#191970" stroke="#191970" points="371.4357,-87.9274 379.4881,-81.0419 368.8994,-81.403 371.4357,-87.9274"/>
</g>
<!-- Node6&#45;&gt;Node5 -->
<g id="edge11" class="edge">
<title>Node6&#45;&gt;Node5</title>
<path fill="none" stroke="#191970" d="M389.5867,-81.0419C366.7049,-91.3952 326.9498,-108.0023 297.3118,-119.6477"/>
<polygon fill="#191970" stroke="#191970" points="295.7389,-116.504 287.6875,-123.3906 298.2761,-123.028 295.7389,-116.504"/>
</g>
<!-- Node7 -->
<g id="node8" class="node">
<title>Node7</title>
<polygon fill="#ffffff" stroke="#bfbfbf" points="414.5,-.5 414.5,-19.5 466.5,-19.5 466.5,-.5 414.5,-.5"/>
<text text-anchor="middle" x="440.5" y="-7.5" font-family="Helvetica,sans-Serif" font-size="10.00" fill="#000000">ostream</text>
</g>
<!-- Node6&#45;&gt;Node7 -->
<g id="edge9" class="edge">
<title>Node6&#45;&gt;Node7</title>
<path fill="none" stroke="#191970" d="M412.6563,-61.8906C417.4232,-53.0068 424.6385,-39.5601 430.5297,-28.5811"/>
<polygon fill="#191970" stroke="#191970" points="433.6269,-30.2114 435.2711,-19.7449 427.4588,-26.9016 433.6269,-30.2114"/>
</g>
<!-- Node8 -->
<g id="node9" class="node">
<title>Node8</title>
<polygon fill="#ffffff" stroke="#bfbfbf" points="352.5,-.5 352.5,-19.5 396.5,-19.5 396.5,-.5 352.5,-.5"/>
<text text-anchor="middle" x="374.5" y="-7.5" font-family="Helvetica,sans-Serif" font-size="10.00" fill="#000000">cmath</text>
</g>
<!-- Node6&#45;&gt;Node8 -->
<g id="edge10" class="edge">
<title>Node6&#45;&gt;Node8</title>
<path fill="none" stroke="#191970" d="M402.3438,-61.8906C397.5768,-53.0068 390.3615,-39.5601 384.4703,-28.5811"/>
<polygon fill="#191970" stroke="#191970" points="387.5412,-26.9016 379.7289,-19.7449 381.3731,-30.2114 387.5412,-26.9016"/>
</g>
<!-- Node9&#45;&gt;Node0 -->
<g id="edge14" class="edge">
<title>Node9&#45;&gt;Node0</title>
<path fill="none" stroke="#191970" d="M390.5358,-142.6571C366.1149,-152.3508 325.692,-167.2825 296.1085,-177.5632"/>
<polygon fill="#191970" stroke="#191970" points="294.8484,-174.2953 286.5302,-180.8571 297.1249,-180.9148 294.8484,-174.2953"/>
</g>
<!-- Node9&#45;&gt;Node8 -->
<g id="edge13" class="edge">
<title>Node9&#45;&gt;Node8</title>
<path fill="none" stroke="#191970" d="M439.1959,-123.4275C455.5463,-116.1781 474.8739,-104.4435 484.5,-87 491.1568,-74.9371 492.1351,-67.4687 484.5,-56 479.8551,-49.0228 437.0541,-32.4604 406.2389,-21.2349"/>
<polygon fill="#191970" stroke="#191970" points="407.3131,-17.9016 396.7187,-17.7967 404.9353,-24.4854 407.3131,-17.9016"/>
</g>
<!-- Node10 -->
<g id="node11" class="node">
<title>Node10</title>
<g id="a_node11"><a xlink:href="trig__ops_8_h.html" target="_top" xlink:title="Trigonometric utilities. ">
<polygon fill="#ffffff" stroke="#000000" points="231.5,-56.5 231.5,-86.5 321.5,-86.5 321.5,-56.5 231.5,-56.5"/>
<text text-anchor="start" x="239.5" y="-74.5" font-family="Helvetica,sans-Serif" font-size="10.00" fill="#000000">amr&#45;wind/utilities</text>
<text text-anchor="middle" x="276.5" y="-63.5" font-family="Helvetica,sans-Serif" font-size="10.00" fill="#000000">/trig_ops.H</text>
</a>
</g>
</g>
<!-- Node9&#45;&gt;Node10 -->
<g id="edge15" class="edge">
<title>Node9&#45;&gt;Node10</title>
<path fill="none" stroke="#191970" d="M390.4063,-123.3906C371.2898,-114.682 342.5486,-101.5888 318.7202,-90.7336"/>
<polygon fill="#191970" stroke="#191970" points="320.0759,-87.5052 309.5247,-86.5446 317.1739,-93.8754 320.0759,-87.5052"/>
</g>
<!-- Node10&#45;&gt;Node1 -->
<g id="edge18" class="edge">
<title>Node10&#45;&gt;Node1</title>
<path fill="none" stroke="#191970" d="M272.2978,-56.2977C270.0609,-48.2055 267.2851,-38.1639 264.891,-29.5029"/>
<polygon fill="#191970" stroke="#191970" points="268.2598,-28.5529 262.2219,-19.8469 261.5128,-30.418 268.2598,-28.5529"/>
</g>
<!-- Node10&#45;&gt;Node4 -->
<g id="edge17" class="edge">
<title>Node10&#45;&gt;Node4</title>
<path fill="none" stroke="#191970" d="M246.1662,-56.4554C226.2024,-46.554 200.251,-33.683 180.7285,-24.0004"/>
<polygon fill="#191970" stroke="#191970" points="182.2294,-20.838 171.7156,-19.5303 179.1191,-27.1091 182.2294,-20.838"/>
</g>
<!-- Node10&#45;&gt;Node8 -->
<g id="edge16" class="edge">
<title>Node10&#45;&gt;Node8</title>
<path fill="none" stroke="#191970" d="M300.4735,-56.4554C315.6776,-46.9141 335.2759,-34.6151 350.4875,-25.0691"/>
<polygon fill="#191970" stroke="#191970" points="352.7037,-27.8105 359.3135,-19.5303 348.9828,-21.8813 352.7037,-27.8105"/>
</g>
</g>
</svg>
