<?xml version="1.0" encoding="UTF-8" standalone="no"?>
<!DOCTYPE svg PUBLIC "-//W3C//DTD SVG 1.1//EN"
 "http://www.w3.org/Graphics/SVG/1.1/DTD/svg11.dtd">
<!-- Generated by graphviz version 2.40.1 (20161225.0304)
 -->
<!-- Title: tensorI.H Pages: 1 -->
<!--zoomable 420 -->
<svg id="main" version="1.1" xmlns="http://www.w3.org/2000/svg" xmlns:xlink="http://www.w3.org/1999/xlink" xml:space="preserve" onload="init(evt)">
<style type="text/css"><![CDATA[
.edge:hover path { stroke: red; }
.edge:hover polygon { stroke: red; fill: red; }
]]></style>
<script type="text/javascript"><![CDATA[
var edges = document.getElementsByTagName('g');
if (edges && edges.length) {
  for (var i=0;i<edges.length;i++) {
    if (edges[i].id.substr(0,4)=='edge') {
      edges[i].setAttribute('class','edge');
    }
  }
}
]]></script>
        <defs>
                <circle id="rim" cx="0" cy="0" r="7"/>
                <circle id="rim2" cx="0" cy="0" r="3.5"/>
                <g id="zoomPlus">
                        <use xlink:href="#rim" fill="#404040">
                                <set attributeName="fill" to="#808080" begin="zoomplus.mouseover" end="zoomplus.mouseout"/>
                        </use>
                        <path d="M-4,0h8M0,-4v8" fill="none" stroke="white" stroke-width="1.5" pointer-events="none"/>
                </g>
                <g id="zoomMin">
                        <use xlink:href="#rim" fill="#404040">
                                <set attributeName="fill" to="#808080" begin="zoomminus.mouseover" end="zoomminus.mouseout"/>
                        </use>
                        <path d="M-4,0h8" fill="none" stroke="white" stroke-width="1.5" pointer-events="none"/>
                </g>
                <g id="dirArrow">
                        <path fill="none" stroke="white" stroke-width="1.5" d="M0,-3.0v7 M-2.5,-0.5L0,-3.0L2.5,-0.5"/>
                </g>
               <g id="resetDef">
                       <use xlink:href="#rim2" fill="#404040">
                               <set attributeName="fill" to="#808080" begin="reset.mouseover" end="reset.mouseout"/>
                       </use>
               </g>
        </defs>

<script type="text/javascript">
var viewWidth = 1433;
var viewHeight = 420;
var sectionId = 'dynsection-1';
</script>
<script xlink:href="svgpan.js"/>
<svg id="graph" class="graph">
<g id="viewport">
<title>tensorI.H</title>
<polygon fill="#ffffff" stroke="transparent" points="-4,4 -4,-416 1428.5,-416 1428.5,4 -4,4"/>
<!-- Node11 -->
<g id="node1" class="node">
<title>Node11</title>
<polygon fill="#bfbfbf" stroke="#000000" points="473.5,-392.5 473.5,-411.5 530.5,-411.5 530.5,-392.5 473.5,-392.5"/>
<text text-anchor="middle" x="502" y="-399.5" font-family="Helvetica,sans-Serif" font-size="10.00" fill="#000000">tensorI.H</text>
</g>
<!-- Node12 -->
<g id="node2" class="node">
<title>Node12</title>
<g id="a_node2"><a xlink:href="tensor_8_h.html" target="_top" xlink:title="tensor.H">
<polygon fill="#ffffff" stroke="#000000" points="475,-336.5 475,-355.5 529,-355.5 529,-336.5 475,-336.5"/>
<text text-anchor="middle" x="502" y="-343.5" font-family="Helvetica,sans-Serif" font-size="10.00" fill="#000000">tensor.H</text>
</a>
</g>
</g>
<!-- Node11&#45;&gt;Node12 -->
<g id="edge1" class="edge">
<title>Node11&#45;&gt;Node12</title>
<path fill="none" stroke="#191970" d="M495.5113,-382.1575C494.919,-373.155 495.3335,-362.9199 496.7549,-355.6427"/>
<polygon fill="#191970" stroke="#191970" points="492.0561,-382.739 496.7332,-392.2455 499.0053,-381.8972 492.0561,-382.739"/>
</g>
<!-- Node12&#45;&gt;Node11 -->
<g id="edge2" class="edge">
<title>Node12&#45;&gt;Node11</title>
<path fill="none" stroke="#191970" d="M508.4795,-365.7046C509.0821,-374.6944 508.6779,-384.9382 507.2668,-392.2455"/>
<polygon fill="#191970" stroke="#191970" points="511.9368,-365.1421 507.2451,-355.6427 504.9889,-365.9945 511.9368,-365.1421"/>
</g>
<!-- Node13 -->
<g id="node3" class="node">
<title>Node13</title>
<g id="a_node3"><a xlink:href="vector__space_8_h.html" target="_top" xlink:title="vector_space.H">
<polygon fill="#ffffff" stroke="#000000" points="459,-280.5 459,-299.5 545,-299.5 545,-280.5 459,-280.5"/>
<text text-anchor="middle" x="502" y="-287.5" font-family="Helvetica,sans-Serif" font-size="10.00" fill="#000000">vector_space.H</text>
</a>
</g>
</g>
<!-- Node12&#45;&gt;Node13 -->
<g id="edge3" class="edge">
<title>Node12&#45;&gt;Node13</title>
<path fill="none" stroke="#191970" d="M502,-326.1575C502,-317.155 502,-306.9199 502,-299.6427"/>
<polygon fill="#191970" stroke="#191970" points="498.5001,-326.2455 502,-336.2455 505.5001,-326.2456 498.5001,-326.2455"/>
</g>
<!-- Node14 -->
<g id="node4" class="node">
<title>Node14</title>
<g id="a_node4"><a xlink:href="_box_refiner_8_h.html" target="_top" xlink:title="BoxRefiner.H">
<polygon fill="#ffffff" stroke="#000000" points="30,-224.5 30,-243.5 106,-243.5 106,-224.5 30,-224.5"/>
<text text-anchor="middle" x="68" y="-231.5" font-family="Helvetica,sans-Serif" font-size="10.00" fill="#000000">BoxRefiner.H</text>
</a>
</g>
</g>
<!-- Node13&#45;&gt;Node14 -->
<g id="edge4" class="edge">
<title>Node13&#45;&gt;Node14</title>
<path fill="none" stroke="#191970" d="M448.6645,-283.118C359.7799,-271.649 183.4817,-248.9009 106.0157,-238.9053"/>
<polygon fill="#191970" stroke="#191970" points="448.434,-286.6172 458.7997,-284.4258 449.3299,-279.6748 448.434,-286.6172"/>
</g>
<!-- Node16 -->
<g id="node6" class="node">
<title>Node16</title>
<g id="a_node6"><a xlink:href="_cylinder_refiner_8_h.html" target="_top" xlink:title="CylinderRefiner.H">
<polygon fill="#ffffff" stroke="#000000" points="174.5,-224.5 174.5,-243.5 269.5,-243.5 269.5,-224.5 174.5,-224.5"/>
<text text-anchor="middle" x="222" y="-231.5" font-family="Helvetica,sans-Serif" font-size="10.00" fill="#000000">CylinderRefiner.H</text>
</a>
</g>
</g>
<!-- Node13&#45;&gt;Node16 -->
<g id="edge6" class="edge">
<title>Node13&#45;&gt;Node16</title>
<path fill="none" stroke="#191970" d="M448.9061,-279.3812C397.3008,-269.0602 319.6332,-253.5266 269.8789,-243.5758"/>
<polygon fill="#191970" stroke="#191970" points="448.3714,-282.8435 458.8636,-281.3727 449.7443,-275.9795 448.3714,-282.8435"/>
</g>
<!-- Node18 -->
<g id="node8" class="node">
<title>Node18</title>
<g id="a_node8"><a xlink:href="_act_parser_8_h.html" target="_top" xlink:title="ActParser.H">
<polygon fill="#ffffff" stroke="#000000" points="534.5,-224.5 534.5,-243.5 605.5,-243.5 605.5,-224.5 534.5,-224.5"/>
<text text-anchor="middle" x="570" y="-231.5" font-family="Helvetica,sans-Serif" font-size="10.00" fill="#000000">ActParser.H</text>
</a>
</g>
</g>
<!-- Node13&#45;&gt;Node18 -->
<g id="edge8" class="edge">
<title>Node13&#45;&gt;Node18</title>
<path fill="none" stroke="#191970" d="M521.8596,-273.645C533.6858,-263.9058 548.2892,-251.8795 558.291,-243.6427"/>
<polygon fill="#191970" stroke="#191970" points="519.339,-271.1867 513.8447,-280.2455 523.789,-276.5902 519.339,-271.1867"/>
</g>
<!-- Node33 -->
<g id="node23" class="node">
<title>Node33</title>
<g id="a_node23"><a xlink:href="actuator__types_8_h.html" target="_top" xlink:title="actuator_types.H">
<polygon fill="#ffffff" stroke="#000000" points="871,-224.5 871,-243.5 963,-243.5 963,-224.5 871,-224.5"/>
<text text-anchor="middle" x="917" y="-231.5" font-family="Helvetica,sans-Serif" font-size="10.00" fill="#000000">actuator_types.H</text>
</a>
</g>
</g>
<!-- Node13&#45;&gt;Node33 -->
<g id="edge33" class="edge">
<title>Node13&#45;&gt;Node33</title>
<path fill="none" stroke="#191970" d="M555.3476,-282.8013C637.3848,-271.7312 793.1384,-250.7139 870.7031,-240.2473"/>
<polygon fill="#191970" stroke="#191970" points="554.6799,-279.3596 545.2378,-284.1655 555.6161,-286.2967 554.6799,-279.3596"/>
</g>
<!-- Node42 -->
<g id="node32" class="node">
<title>Node42</title>
<g id="a_node32"><a xlink:href="_actuator_wing_8_h.html" target="_top" xlink:title="ActuatorWing.H">
<polygon fill="#ffffff" stroke="#000000" points="1095,-168.5 1095,-187.5 1181,-187.5 1181,-168.5 1095,-168.5"/>
<text text-anchor="middle" x="1138" y="-175.5" font-family="Helvetica,sans-Serif" font-size="10.00" fill="#000000">ActuatorWing.H</text>
</a>
</g>
</g>
<!-- Node13&#45;&gt;Node42 -->
<g id="edge62" class="edge">
<title>Node13&#45;&gt;Node42</title>
<path fill="none" stroke="#191970" d="M555.3089,-286.6716C661.1097,-279.7556 894.1205,-262.893 972,-244 1027.4568,-230.5466 1088.9503,-202.3368 1119.1537,-187.5329"/>
<polygon fill="#191970" stroke="#191970" points="554.9256,-283.189 545.1731,-287.3291 555.3788,-290.1743 554.9256,-283.189"/>
</g>
<!-- Node43 -->
<g id="node33" class="node">
<title>Node43</title>
<g id="a_node33"><a xlink:href="_actuator_container_8_h.html" target="_top" xlink:title="ActuatorContainer.H">
<polygon fill="#ffffff" stroke="#000000" points="313,-224.5 313,-243.5 419,-243.5 419,-224.5 313,-224.5"/>
<text text-anchor="middle" x="366" y="-231.5" font-family="Helvetica,sans-Serif" font-size="10.00" fill="#000000">ActuatorContainer.H</text>
</a>
</g>
</g>
<!-- Node13&#45;&gt;Node43 -->
<g id="edge59" class="edge">
<title>Node13&#45;&gt;Node43</title>
<path fill="none" stroke="#191970" d="M469.2601,-276.5189C444.4917,-266.3201 411.095,-252.5685 389.0742,-243.5011"/>
<polygon fill="#191970" stroke="#191970" points="468.0413,-279.8021 478.6208,-280.3733 470.7066,-273.3293 468.0413,-279.8021"/>
</g>
<!-- Node15 -->
<g id="node5" class="node">
<title>Node15</title>
<g id="a_node5"><a xlink:href="_box_refiner_8cpp.html" target="_top" xlink:title="BoxRefiner.cpp">
<polygon fill="#ffffff" stroke="#000000" points="0,-168.5 0,-187.5 84,-187.5 84,-168.5 0,-168.5"/>
<text text-anchor="middle" x="42" y="-175.5" font-family="Helvetica,sans-Serif" font-size="10.00" fill="#000000">BoxRefiner.cpp</text>
</a>
</g>
</g>
<!-- Node14&#45;&gt;Node15 -->
<g id="edge5" class="edge">
<title>Node14&#45;&gt;Node15</title>
<path fill="none" stroke="#191970" d="M59.1989,-215.0437C54.9225,-205.8331 49.967,-195.1598 46.477,-187.6427"/>
<polygon fill="#191970" stroke="#191970" points="56.0854,-216.6494 63.4711,-224.2455 62.4345,-213.7015 56.0854,-216.6494"/>
</g>
<!-- Node17 -->
<g id="node7" class="node">
<title>Node17</title>
<g id="a_node7"><a xlink:href="_cylinder_refiner_8cpp.html" target="_top" xlink:title="CylinderRefiner.cpp">
<polygon fill="#ffffff" stroke="#000000" points="102.5,-168.5 102.5,-187.5 205.5,-187.5 205.5,-168.5 102.5,-168.5"/>
<text text-anchor="middle" x="154" y="-175.5" font-family="Helvetica,sans-Serif" font-size="10.00" fill="#000000">CylinderRefiner.cpp</text>
</a>
</g>
</g>
<!-- Node16&#45;&gt;Node17 -->
<g id="edge7" class="edge">
<title>Node16&#45;&gt;Node17</title>
<path fill="none" stroke="#191970" d="M202.1404,-217.645C190.3142,-207.9058 175.7108,-195.8795 165.709,-187.6427"/>
<polygon fill="#191970" stroke="#191970" points="200.211,-220.5902 210.1553,-224.2455 204.661,-215.1867 200.211,-220.5902"/>
</g>
<!-- Node19 -->
<g id="node9" class="node">
<title>Node19</title>
<g id="a_node9"><a xlink:href="actuator__ops_8_h.html" target="_top" xlink:title="actuator_ops.H">
<polygon fill="#ffffff" stroke="#000000" points="805.5,-168.5 805.5,-187.5 888.5,-187.5 888.5,-168.5 805.5,-168.5"/>
<text text-anchor="middle" x="847" y="-175.5" font-family="Helvetica,sans-Serif" font-size="10.00" fill="#000000">actuator_ops.H</text>
</a>
</g>
</g>
<!-- Node18&#45;&gt;Node19 -->
<g id="edge9" class="edge">
<title>Node18&#45;&gt;Node19</title>
<path fill="none" stroke="#191970" d="M615.7171,-224.7576C668.3837,-214.1102 754.192,-196.7626 805.1623,-186.4582"/>
<polygon fill="#191970" stroke="#191970" points="614.754,-221.3814 605.6458,-226.7936 616.1411,-228.2426 614.754,-221.3814"/>
</g>
<!-- Node21 -->
<g id="node11" class="node">
<title>Node21</title>
<g id="a_node11"><a xlink:href="_actuator_model_8_h.html" target="_top" xlink:title="ActuatorModel.H">
<polygon fill="#ffffff" stroke="#000000" points="716,-56.5 716,-75.5 806,-75.5 806,-56.5 716,-56.5"/>
<text text-anchor="middle" x="761" y="-63.5" font-family="Helvetica,sans-Serif" font-size="10.00" fill="#000000">ActuatorModel.H</text>
</a>
</g>
</g>
<!-- Node18&#45;&gt;Node21 -->
<g id="edge27" class="edge">
<title>Node18&#45;&gt;Node21</title>
<path fill="none" stroke="#191970" d="M590.0554,-217.6561C599.5009,-209.3672 610.5256,-198.7866 619,-188 642.976,-157.4824 633.4832,-138.3242 662,-112 680.6607,-94.774 706.9107,-82.9781 727.6921,-75.6473"/>
<polygon fill="#191970" stroke="#191970" points="587.6041,-215.1466 582.2652,-224.298 592.1457,-220.4734 587.6041,-215.1466"/>
</g>
<!-- Node22 -->
<g id="node12" class="node">
<title>Node22</title>
<g id="a_node12"><a xlink:href="_actuator_8cpp.html" target="_top" xlink:title="Actuator.cpp">
<polygon fill="#ffffff" stroke="#000000" points="368,-.5 368,-19.5 440,-19.5 440,-.5 368,-.5"/>
<text text-anchor="middle" x="404" y="-7.5" font-family="Helvetica,sans-Serif" font-size="10.00" fill="#000000">Actuator.cpp</text>
</a>
</g>
</g>
<!-- Node18&#45;&gt;Node22 -->
<g id="edge28" class="edge">
<title>Node18&#45;&gt;Node22</title>
<path fill="none" stroke="#191970" d="M535.6973,-220.3852C500.9845,-204.6558 448.8571,-175.2596 423,-132 401.0044,-95.2008 401.7803,-41.4375 403.1722,-19.6769"/>
<polygon fill="#191970" stroke="#191970" points="534.4261,-223.6494 544.99,-224.4594 537.2369,-217.2385 534.4261,-223.6494"/>
</g>
<!-- Node30 -->
<g id="node20" class="node">
<title>Node30</title>
<g id="a_node20"><a xlink:href="wing__ops_8cpp.html" target="_top" xlink:title="wing_ops.cpp">
<polygon fill="#ffffff" stroke="#000000" points="824.5,-56.5 824.5,-75.5 901.5,-75.5 901.5,-56.5 824.5,-56.5"/>
<text text-anchor="middle" x="863" y="-63.5" font-family="Helvetica,sans-Serif" font-size="10.00" fill="#000000">wing_ops.cpp</text>
</a>
</g>
</g>
<!-- Node18&#45;&gt;Node30 -->
<g id="edge32" class="edge">
<title>Node18&#45;&gt;Node30</title>
<path fill="none" stroke="#191970" d="M594.4141,-218.8364C608.0588,-210.1447 625.2373,-198.8377 640,-188 683.0294,-156.4112 686.4817,-138.1807 733,-112 762.3131,-95.5025 798.6081,-83.2578 825.3918,-75.567"/>
<polygon fill="#191970" stroke="#191970" points="592.1926,-216.0998 585.6055,-224.3981 595.9297,-222.0188 592.1926,-216.0998"/>
</g>
<!-- Node31 -->
<g id="node21" class="node">
<title>Node31</title>
<g id="a_node21"><a xlink:href="turbine__utils_8_h.html" target="_top" xlink:title="turbine_utils.H">
<polygon fill="#ffffff" stroke="#000000" points="432,-112.5 432,-131.5 512,-131.5 512,-112.5 432,-112.5"/>
<text text-anchor="middle" x="472" y="-119.5" font-family="Helvetica,sans-Serif" font-size="10.00" fill="#000000">turbine_utils.H</text>
</a>
</g>
</g>
<!-- Node18&#45;&gt;Node31 -->
<g id="edge29" class="edge">
<title>Node18&#45;&gt;Node31</title>
<path fill="none" stroke="#191970" d="M548.3036,-218.2929C537.6067,-209.9668 524.9101,-199.1665 515,-188 498.8419,-169.7933 484.3649,-144.997 477.043,-131.5769"/>
<polygon fill="#191970" stroke="#191970" points="546.2781,-221.1495 556.3621,-224.3997 550.5059,-215.5704 546.2781,-221.1495"/>
</g>
<!-- Node20 -->
<g id="node10" class="node">
<title>Node20</title>
<g id="a_node10"><a xlink:href="_act_src_op_8_h.html" target="_top" xlink:title="ActSrcOp.H">
<polygon fill="#ffffff" stroke="#000000" points="742,-112.5 742,-131.5 812,-131.5 812,-112.5 742,-112.5"/>
<text text-anchor="middle" x="777" y="-119.5" font-family="Helvetica,sans-Serif" font-size="10.00" fill="#000000">ActSrcOp.H</text>
</a>
</g>
</g>
<!-- Node19&#45;&gt;Node20 -->
<g id="edge10" class="edge">
<title>Node19&#45;&gt;Node20</title>
<path fill="none" stroke="#191970" d="M826.91,-161.928C814.6747,-152.1397 799.4493,-139.9595 789.0533,-131.6427"/>
<polygon fill="#191970" stroke="#191970" points="824.8118,-164.7316 834.8069,-168.2455 829.1847,-159.2655 824.8118,-164.7316"/>
</g>
<!-- Node19&#45;&gt;Node21 -->
<g id="edge16" class="edge">
<title>Node19&#45;&gt;Node21</title>
<path fill="none" stroke="#191970" d="M842.2551,-158.242C838.2261,-144.335 831.4128,-125.812 821,-112 809.3847,-96.593 791.3252,-83.7125 778.0522,-75.5371"/>
<polygon fill="#191970" stroke="#191970" points="838.9571,-159.4598 844.905,-168.2275 845.7229,-157.6642 838.9571,-159.4598"/>
</g>
<!-- Node26 -->
<g id="node16" class="node">
<title>Node26</title>
<g id="a_node16"><a xlink:href="turbine__fast__ops_8_h.html" target="_top" xlink:title="turbine_fast_ops.H">
<polygon fill="#ffffff" stroke="#000000" points="598.5,-56.5 598.5,-75.5 697.5,-75.5 697.5,-56.5 598.5,-56.5"/>
<text text-anchor="middle" x="648" y="-63.5" font-family="Helvetica,sans-Serif" font-size="10.00" fill="#000000">turbine_fast_ops.H</text>
</a>
</g>
</g>
<!-- Node19&#45;&gt;Node26 -->
<g id="edge17" class="edge">
<title>Node19&#45;&gt;Node26</title>
<path fill="none" stroke="#191970" d="M807.3263,-165.0576C784.8164,-156.9708 756.5298,-145.531 733,-132 703.8469,-115.2353 673.6677,-89.4166 658.3181,-75.5642"/>
<polygon fill="#191970" stroke="#191970" points="806.311,-168.4106 816.9058,-168.4234 808.6314,-161.8064 806.311,-168.4106"/>
</g>
<!-- Node27 -->
<g id="node17" class="node">
<title>Node27</title>
<g id="a_node17"><a xlink:href="fixed__wing__ops_8_h.html" target="_top" xlink:title="fixed_wing_ops.H">
<polygon fill="#ffffff" stroke="#000000" points="1026.5,-56.5 1026.5,-75.5 1121.5,-75.5 1121.5,-56.5 1026.5,-56.5"/>
<text text-anchor="middle" x="1074" y="-63.5" font-family="Helvetica,sans-Serif" font-size="10.00" fill="#000000">fixed_wing_ops.H</text>
</a>
</g>
</g>
<!-- Node19&#45;&gt;Node27 -->
<g id="edge19" class="edge">
<title>Node19&#45;&gt;Node27</title>
<path fill="none" stroke="#191970" d="M873.7866,-163.4206C899.145,-149.7496 938.3814,-128.9343 973,-112 1000.0003,-98.7923 1031.5991,-84.6 1052.1658,-75.5275"/>
<polygon fill="#191970" stroke="#191970" points="871.9175,-160.4523 864.7858,-168.2874 875.2469,-166.6098 871.9175,-160.4523"/>
</g>
<!-- Node28 -->
<g id="node18" class="node">
<title>Node28</title>
<g id="a_node18"><a xlink:href="wing__ops_8_h.html" target="_top" xlink:title="wing_ops.H">
<polygon fill="#ffffff" stroke="#000000" points="982,-112.5 982,-131.5 1050,-131.5 1050,-112.5 982,-112.5"/>
<text text-anchor="middle" x="1016" y="-119.5" font-family="Helvetica,sans-Serif" font-size="10.00" fill="#000000">wing_ops.H</text>
</a>
</g>
</g>
<!-- Node19&#45;&gt;Node28 -->
<g id="edge21" class="edge">
<title>Node19&#45;&gt;Node28</title>
<path fill="none" stroke="#191970" d="M885.6573,-165.1905C916.6193,-154.9309 959.3574,-140.7691 987.327,-131.5011"/>
<polygon fill="#191970" stroke="#191970" points="884.4437,-161.9054 876.0521,-168.3733 886.6455,-168.5501 884.4437,-161.9054"/>
</g>
<!-- Node29 -->
<g id="node19" class="node">
<title>Node29</title>
<g id="a_node19"><a xlink:href="flat__plate__ops_8_h.html" target="_top" xlink:title="flat_plate_ops.H">
<polygon fill="#ffffff" stroke="#000000" points="920,-56.5 920,-75.5 1008,-75.5 1008,-56.5 920,-56.5"/>
<text text-anchor="middle" x="964" y="-63.5" font-family="Helvetica,sans-Serif" font-size="10.00" fill="#000000">flat_plate_ops.H</text>
</a>
</g>
</g>
<!-- Node19&#45;&gt;Node29 -->
<g id="edge26" class="edge">
<title>Node19&#45;&gt;Node29</title>
<path fill="none" stroke="#191970" d="M859.9679,-160.2046C870.5067,-146.3255 886.1718,-126.9595 902,-112 916.9035,-97.9145 936.1386,-84.2347 949.2043,-75.5069"/>
<polygon fill="#191970" stroke="#191970" points="857.0052,-158.3227 853.8325,-168.4313 862.6165,-162.5076 857.0052,-158.3227"/>
</g>
<!-- Node20&#45;&gt;Node21 -->
<g id="edge11" class="edge">
<title>Node20&#45;&gt;Node21</title>
<path fill="none" stroke="#191970" d="M771.4154,-102.4538C768.823,-93.3803 765.8571,-82.9998 763.755,-75.6427"/>
<polygon fill="#191970" stroke="#191970" points="768.1004,-103.5919 774.213,-112.2455 774.8311,-101.6688 768.1004,-103.5919"/>
</g>
<!-- Node21&#45;&gt;Node22 -->
<g id="edge12" class="edge">
<title>Node21&#45;&gt;Node22</title>
<path fill="none" stroke="#191970" d="M706.0754,-55.8849C603.9409,-38.7992 495.6273,-23.0155 440.4407,-15.1425"/>
<polygon fill="#191970" stroke="#191970" points="705.4964,-59.3366 715.9381,-57.5422 706.6564,-52.4334 705.4964,-59.3366"/>
</g>
<!-- Node23 -->
<g id="node13" class="node">
<title>Node23</title>
<g id="a_node13"><a xlink:href="_turbine_fast_8cpp.html" target="_top" xlink:title="TurbineFast.cpp">
<polygon fill="#ffffff" stroke="#000000" points="604.5,-.5 604.5,-19.5 691.5,-19.5 691.5,-.5 604.5,-.5"/>
<text text-anchor="middle" x="648" y="-7.5" font-family="Helvetica,sans-Serif" font-size="10.00" fill="#000000">TurbineFast.cpp</text>
</a>
</g>
</g>
<!-- Node21&#45;&gt;Node23 -->
<g id="edge13" class="edge">
<title>Node21&#45;&gt;Node23</title>
<path fill="none" stroke="#191970" d="M732.4208,-51.8368C711.9942,-41.7139 685.0638,-28.3679 667.1719,-19.5011"/>
<polygon fill="#191970" stroke="#191970" points="731.0604,-55.0688 741.5746,-56.3733 734.1687,-48.7968 731.0604,-55.0688"/>
</g>
<!-- Node24 -->
<g id="node14" class="node">
<title>Node24</title>
<g id="a_node14"><a xlink:href="_fixed_wing_8cpp.html" target="_top" xlink:title="FixedWing.cpp">
<polygon fill="#ffffff" stroke="#000000" points="1033,-.5 1033,-19.5 1115,-19.5 1115,-.5 1033,-.5"/>
<text text-anchor="middle" x="1074" y="-7.5" font-family="Helvetica,sans-Serif" font-size="10.00" fill="#000000">FixedWing.cpp</text>
</a>
</g>
</g>
<!-- Node21&#45;&gt;Node24 -->
<g id="edge14" class="edge">
<title>Node21&#45;&gt;Node24</title>
<path fill="none" stroke="#191970" d="M815.6952,-56.0549C815.7969,-56.0366 815.8985,-56.0183 816,-56 892.5703,-42.2131 981.9625,-26.3202 1032.883,-17.2863"/>
<polygon fill="#191970" stroke="#191970" points="815.2397,-52.5804 806.0207,-57.8015 816.4834,-59.4691 815.2397,-52.5804"/>
</g>
<!-- Node25 -->
<g id="node15" class="node">
<title>Node25</title>
<g id="a_node15"><a xlink:href="_flat_plate_8cpp.html" target="_top" xlink:title="FlatPlate.cpp">
<polygon fill="#ffffff" stroke="#000000" points="927,-.5 927,-19.5 1001,-19.5 1001,-.5 927,-.5"/>
<text text-anchor="middle" x="964" y="-7.5" font-family="Helvetica,sans-Serif" font-size="10.00" fill="#000000">FlatPlate.cpp</text>
</a>
</g>
</g>
<!-- Node21&#45;&gt;Node25 -->
<g id="edge15" class="edge">
<title>Node21&#45;&gt;Node25</title>
<path fill="none" stroke="#191970" d="M805.9927,-53.5882C843.2891,-43.2996 895.5256,-28.8895 929.5584,-19.5011"/>
<polygon fill="#191970" stroke="#191970" points="804.6061,-50.3399 795.8969,-56.3733 806.4676,-57.0879 804.6061,-50.3399"/>
</g>
<!-- Node26&#45;&gt;Node23 -->
<g id="edge18" class="edge">
<title>Node26&#45;&gt;Node23</title>
<path fill="none" stroke="#191970" d="M648,-46.1575C648,-37.155 648,-26.9199 648,-19.6427"/>
<polygon fill="#191970" stroke="#191970" points="644.5001,-46.2455 648,-56.2455 651.5001,-46.2456 644.5001,-46.2455"/>
</g>
<!-- Node27&#45;&gt;Node24 -->
<g id="edge20" class="edge">
<title>Node27&#45;&gt;Node24</title>
<path fill="none" stroke="#191970" d="M1074,-46.1575C1074,-37.155 1074,-26.9199 1074,-19.6427"/>
<polygon fill="#191970" stroke="#191970" points="1070.5001,-46.2455 1074,-56.2455 1077.5001,-46.2456 1070.5001,-46.2455"/>
</g>
<!-- Node28&#45;&gt;Node27 -->
<g id="edge22" class="edge">
<title>Node28&#45;&gt;Node27</title>
<path fill="none" stroke="#191970" d="M1033.5293,-105.0751C1043.5083,-95.4402 1055.6476,-83.7196 1064.0129,-75.6427"/>
<polygon fill="#191970" stroke="#191970" points="1030.8658,-102.7817 1026.1028,-112.2455 1035.728,-107.8175 1030.8658,-102.7817"/>
</g>
<!-- Node28&#45;&gt;Node29 -->
<g id="edge23" class="edge">
<title>Node28&#45;&gt;Node29</title>
<path fill="none" stroke="#191970" d="M1000.0178,-104.7884C991.1222,-95.2085 980.3796,-83.6396 972.9539,-75.6427"/>
<polygon fill="#191970" stroke="#191970" points="997.573,-107.2992 1006.9423,-112.2455 1002.7025,-102.536 997.573,-107.2992"/>
</g>
<!-- Node28&#45;&gt;Node30 -->
<g id="edge25" class="edge">
<title>Node28&#45;&gt;Node30</title>
<path fill="none" stroke="#191970" d="M980.2721,-108.9231C952.3029,-98.686 914.0607,-84.6889 888.9584,-75.5011"/>
<polygon fill="#191970" stroke="#191970" points="979.1046,-112.2228 989.6984,-112.3733 981.5106,-105.6493 979.1046,-112.2228"/>
</g>
<!-- Node29&#45;&gt;Node25 -->
<g id="edge24" class="edge">
<title>Node29&#45;&gt;Node25</title>
<path fill="none" stroke="#191970" d="M964,-46.1575C964,-37.155 964,-26.9199 964,-19.6427"/>
<polygon fill="#191970" stroke="#191970" points="960.5001,-46.2455 964,-56.2455 967.5001,-46.2456 960.5001,-46.2455"/>
</g>
<!-- Node31&#45;&gt;Node26 -->
<g id="edge30" class="edge">
<title>Node31&#45;&gt;Node26</title>
<path fill="none" stroke="#191970" d="M511.8404,-109.3235C544.1173,-99.0536 588.8852,-84.8093 618.1393,-75.5011"/>
<polygon fill="#191970" stroke="#191970" points="510.7235,-106.0059 502.2555,-112.3733 512.846,-112.6764 510.7235,-106.0059"/>
</g>
<!-- Node32 -->
<g id="node22" class="node">
<title>Node32</title>
<g id="a_node22"><a xlink:href="turbine__utils_8cpp.html" target="_top" xlink:title="turbine_utils.cpp">
<polygon fill="#ffffff" stroke="#000000" points="432,-56.5 432,-75.5 520,-75.5 520,-56.5 432,-56.5"/>
<text text-anchor="middle" x="476" y="-63.5" font-family="Helvetica,sans-Serif" font-size="10.00" fill="#000000">turbine_utils.cpp</text>
</a>
</g>
</g>
<!-- Node31&#45;&gt;Node32 -->
<g id="edge31" class="edge">
<title>Node31&#45;&gt;Node32</title>
<path fill="none" stroke="#191970" d="M473.4173,-102.1575C474.0604,-93.155 474.7914,-82.9199 475.3112,-75.6427"/>
<polygon fill="#191970" stroke="#191970" points="469.9182,-102.0216 472.6967,-112.2455 476.9004,-102.5204 469.9182,-102.0216"/>
</g>
<!-- Node33&#45;&gt;Node19 -->
<g id="edge35" class="edge">
<title>Node33&#45;&gt;Node19</title>
<path fill="none" stroke="#191970" d="M896.91,-217.928C884.6747,-208.1397 869.4493,-195.9595 859.0533,-187.6427"/>
<polygon fill="#191970" stroke="#191970" points="894.8118,-220.7316 904.8069,-224.2455 899.1847,-215.2655 894.8118,-220.7316"/>
</g>
<!-- Node33&#45;&gt;Node20 -->
<g id="edge34" class="edge">
<title>Node33&#45;&gt;Node20</title>
<path fill="none" stroke="#191970" d="M860.8608,-223.7467C838.3133,-217.0245 813.7494,-205.9978 797,-188 782.318,-172.2237 778.3949,-146.0034 777.3595,-131.8256"/>
<polygon fill="#191970" stroke="#191970" points="860.1361,-227.1773 870.7064,-226.4569 861.9939,-220.4284 860.1361,-227.1773"/>
</g>
<!-- Node33&#45;&gt;Node21 -->
<g id="edge36" class="edge">
<title>Node33&#45;&gt;Node21</title>
<path fill="none" stroke="#191970" d="M914.0793,-214.1612C911.4159,-200.4555 906.5481,-182.2082 898,-168 870.4837,-122.264 813.9315,-90.417 782.7787,-75.5388"/>
<polygon fill="#191970" stroke="#191970" points="910.6973,-215.1492 915.8306,-224.4174 917.5974,-213.971 910.6973,-215.1492"/>
</g>
<!-- Node33&#45;&gt;Node28 -->
<g id="edge58" class="edge">
<title>Node33&#45;&gt;Node28</title>
<path fill="none" stroke="#191970" d="M932.1738,-216.1622C943.583,-202.8157 959.6508,-184.1584 974,-168 985.2019,-155.3858 998.3477,-141.0636 1006.9085,-131.7992"/>
<polygon fill="#191970" stroke="#191970" points="929.2413,-214.2069 925.4139,-224.0862 934.5668,-218.75 929.2413,-214.2069"/>
</g>
<!-- Node34 -->
<g id="node24" class="node">
<title>Node34</title>
<g id="a_node24"><a xlink:href="actuator__utils_8cpp.html" target="_top" xlink:title="actuator_utils.cpp">
<polygon fill="#ffffff" stroke="#000000" points="983,-168.5 983,-187.5 1077,-187.5 1077,-168.5 983,-168.5"/>
<text text-anchor="middle" x="1030" y="-175.5" font-family="Helvetica,sans-Serif" font-size="10.00" fill="#000000">actuator_utils.cpp</text>
</a>
</g>
</g>
<!-- Node33&#45;&gt;Node34 -->
<g id="edge37" class="edge">
<title>Node33&#45;&gt;Node34</title>
<path fill="none" stroke="#191970" d="M945.5792,-219.8368C966.0058,-209.7139 992.9362,-196.3679 1010.8281,-187.5011"/>
<polygon fill="#191970" stroke="#191970" points="943.8313,-216.7968 936.4254,-224.3733 946.9396,-223.0688 943.8313,-216.7968"/>
</g>
<!-- Node35 -->
<g id="node25" class="node">
<title>Node35</title>
<g id="a_node25"><a xlink:href="_airfoil_table_8_h.html" target="_top" xlink:title="AirfoilTable.H">
<polygon fill="#ffffff" stroke="#000000" points="1199,-168.5 1199,-187.5 1275,-187.5 1275,-168.5 1199,-168.5"/>
<text text-anchor="middle" x="1237" y="-175.5" font-family="Helvetica,sans-Serif" font-size="10.00" fill="#000000">AirfoilTable.H</text>
</a>
</g>
</g>
<!-- Node33&#45;&gt;Node35 -->
<g id="edge38" class="edge">
<title>Node33&#45;&gt;Node35</title>
<path fill="none" stroke="#191970" d="M973.4301,-225.213C1028.7228,-216.4332 1115.3273,-202.2283 1190,-188 1192.8682,-187.4535 1195.8307,-186.8695 1198.808,-186.2685"/>
<polygon fill="#191970" stroke="#191970" points="972.8098,-221.7675 963.48,-226.788 973.9043,-228.6814 972.8098,-221.7675"/>
</g>
<!-- Node40 -->
<g id="node30" class="node">
<title>Node40</title>
<g id="a_node30"><a xlink:href="turbine__types_8_h.html" target="_top" xlink:title="turbine_types.H">
<polygon fill="#ffffff" stroke="#000000" points="524,-168.5 524,-187.5 610,-187.5 610,-168.5 524,-168.5"/>
<text text-anchor="middle" x="567" y="-175.5" font-family="Helvetica,sans-Serif" font-size="10.00" fill="#000000">turbine_types.H</text>
</a>
</g>
</g>
<!-- Node33&#45;&gt;Node40 -->
<g id="edge49" class="edge">
<title>Node33&#45;&gt;Node40</title>
<path fill="none" stroke="#191970" d="M860.9446,-225.0311C791.1392,-213.8623 673.3991,-195.0239 610.1927,-184.9108"/>
<polygon fill="#191970" stroke="#191970" points="860.4563,-228.4974 870.8837,-226.6214 861.5623,-221.5854 860.4563,-228.4974"/>
</g>
<!-- Node33&#45;&gt;Node42 -->
<g id="edge54" class="edge">
<title>Node33&#45;&gt;Node42</title>
<path fill="none" stroke="#191970" d="M964.6863,-221.9166C1005.336,-211.6162 1062.9667,-197.013 1100.4155,-187.5237"/>
<polygon fill="#191970" stroke="#191970" points="963.5741,-218.5877 954.7401,-224.4369 965.2935,-225.3733 963.5741,-218.5877"/>
</g>
<!-- Node35&#45;&gt;Node28 -->
<g id="edge45" class="edge">
<title>Node35&#45;&gt;Node28</title>
<path fill="none" stroke="#191970" d="M1189.5624,-165.9796C1147.6989,-155.3717 1087.6825,-140.1639 1050.3148,-130.6951"/>
<polygon fill="#191970" stroke="#191970" points="1188.7065,-169.3733 1199.2599,-168.4369 1190.4259,-162.5877 1188.7065,-169.3733"/>
</g>
<!-- Node36 -->
<g id="node26" class="node">
<title>Node36</title>
<g id="a_node26"><a xlink:href="_airfoil_table_8cpp.html" target="_top" xlink:title="AirfoilTable.cpp">
<polygon fill="#ffffff" stroke="#000000" points="1244,-112.5 1244,-131.5 1328,-131.5 1328,-112.5 1244,-112.5"/>
<text text-anchor="middle" x="1286" y="-119.5" font-family="Helvetica,sans-Serif" font-size="10.00" fill="#000000">AirfoilTable.cpp</text>
</a>
</g>
</g>
<!-- Node35&#45;&gt;Node36 -->
<g id="edge39" class="edge">
<title>Node35&#45;&gt;Node36</title>
<path fill="none" stroke="#191970" d="M1252.3122,-160.5004C1260.6447,-150.9775 1270.6353,-139.5596 1277.5627,-131.6427"/>
<polygon fill="#191970" stroke="#191970" points="1249.4862,-158.415 1245.5351,-168.2455 1254.7543,-163.0245 1249.4862,-158.415"/>
</g>
<!-- Node37 -->
<g id="node27" class="node">
<title>Node37</title>
<g id="a_node27"><a xlink:href="_airfoil_table_i_8_h.html" target="_top" xlink:title="AirfoilTableI.H">
<polygon fill="#ffffff" stroke="#000000" points="1345.5,-112.5 1345.5,-131.5 1424.5,-131.5 1424.5,-112.5 1345.5,-112.5"/>
<text text-anchor="middle" x="1385" y="-119.5" font-family="Helvetica,sans-Serif" font-size="10.00" fill="#000000">AirfoilTableI.H</text>
</a>
</g>
</g>
<!-- Node35&#45;&gt;Node37 -->
<g id="edge40" class="edge">
<title>Node35&#45;&gt;Node37</title>
<path fill="none" stroke="#191970" d="M1266.7604,-164.5189C1292.3514,-154.3201 1328.9119,-140.5685 1354.6726,-131.5011"/>
<polygon fill="#191970" stroke="#191970" points="1265.166,-161.3879 1257.2001,-168.3733 1267.7834,-167.8801 1265.166,-161.3879"/>
</g>
<!-- Node38 -->
<g id="node28" class="node">
<title>Node38</title>
<g id="a_node28"><a xlink:href="_fixed_wing_8_h.html" target="_top" xlink:title="FixedWing.H">
<polygon fill="#ffffff" stroke="#000000" points="1152,-112.5 1152,-131.5 1226,-131.5 1226,-112.5 1152,-112.5"/>
<text text-anchor="middle" x="1189" y="-119.5" font-family="Helvetica,sans-Serif" font-size="10.00" fill="#000000">FixedWing.H</text>
</a>
</g>
</g>
<!-- Node35&#45;&gt;Node38 -->
<g id="edge42" class="edge">
<title>Node35&#45;&gt;Node38</title>
<path fill="none" stroke="#191970" d="M1222.0003,-160.5004C1213.8378,-150.9775 1204.0511,-139.5596 1197.2651,-131.6427"/>
<polygon fill="#191970" stroke="#191970" points="1219.4737,-162.9307 1228.639,-168.2455 1224.7885,-158.3752 1219.4737,-162.9307"/>
</g>
<!-- Node39 -->
<g id="node29" class="node">
<title>Node39</title>
<g id="a_node29"><a xlink:href="_flat_plate_8_h.html" target="_top" xlink:title="FlatPlate.H">
<polygon fill="#ffffff" stroke="#000000" points="1068,-112.5 1068,-131.5 1134,-131.5 1134,-112.5 1068,-112.5"/>
<text text-anchor="middle" x="1101" y="-119.5" font-family="Helvetica,sans-Serif" font-size="10.00" fill="#000000">FlatPlate.H</text>
</a>
</g>
</g>
<!-- Node35&#45;&gt;Node39 -->
<g id="edge46" class="edge">
<title>Node35&#45;&gt;Node39</title>
<path fill="none" stroke="#191970" d="M1204.2601,-164.5189C1179.4917,-154.3201 1146.095,-140.5685 1124.0742,-131.5011"/>
<polygon fill="#191970" stroke="#191970" points="1203.0413,-167.8021 1213.6208,-168.3733 1205.7066,-161.3293 1203.0413,-167.8021"/>
</g>
<!-- Node37&#45;&gt;Node35 -->
<g id="edge41" class="edge">
<title>Node37&#45;&gt;Node35</title>
<path fill="none" stroke="#191970" d="M1355.5926,-135.3404C1330.1031,-145.5062 1293.5439,-159.2629 1267.6841,-168.3733"/>
<polygon fill="#191970" stroke="#191970" points="1357.1434,-138.4889 1365.1072,-131.5011 1354.524,-131.9974 1357.1434,-138.4889"/>
</g>
<!-- Node38&#45;&gt;Node24 -->
<g id="edge44" class="edge">
<title>Node38&#45;&gt;Node24</title>
<path fill="none" stroke="#191970" d="M1185.5497,-102.5357C1182.1575,-88.235 1175.7229,-69.0943 1164,-56 1148.433,-38.6119 1124.749,-26.8751 1105.5837,-19.6109"/>
<polygon fill="#191970" stroke="#191970" points="1182.1271,-103.2686 1187.5878,-112.3478 1188.9808,-101.8449 1182.1271,-103.2686"/>
</g>
<!-- Node38&#45;&gt;Node27 -->
<g id="edge43" class="edge">
<title>Node38&#45;&gt;Node27</title>
<path fill="none" stroke="#191970" d="M1160.1967,-107.9741C1139.375,-97.8348 1111.8022,-84.408 1093.5112,-75.5011"/>
<polygon fill="#191970" stroke="#191970" points="1158.7078,-111.1419 1169.2308,-112.3733 1161.7724,-104.8484 1158.7078,-111.1419"/>
</g>
<!-- Node39&#45;&gt;Node25 -->
<g id="edge48" class="edge">
<title>Node39&#45;&gt;Node25</title>
<path fill="none" stroke="#191970" d="M1118.3471,-104.8093C1130.37,-90.7746 1142.3491,-70.8979 1131,-56 1123.0271,-45.5341 1047.9155,-27.8812 1001.1821,-17.758"/>
<polygon fill="#191970" stroke="#191970" points="1115.6353,-102.5874 1111.4391,-112.3159 1120.7862,-107.3276 1115.6353,-102.5874"/>
</g>
<!-- Node39&#45;&gt;Node29 -->
<g id="edge47" class="edge">
<title>Node39&#45;&gt;Node29</title>
<path fill="none" stroke="#191970" d="M1068.0194,-108.5189C1043.0689,-98.3201 1009.4266,-84.5685 987.2438,-75.5011"/>
<polygon fill="#191970" stroke="#191970" points="1066.868,-111.8293 1077.4489,-112.3733 1069.5166,-105.3497 1066.868,-111.8293"/>
</g>
<!-- Node40&#45;&gt;Node31 -->
<g id="edge53" class="edge">
<title>Node40&#45;&gt;Node31</title>
<path fill="none" stroke="#191970" d="M541.6324,-163.0465C524.729,-153.0824 503.0096,-140.2794 488.3581,-131.6427"/>
<polygon fill="#191970" stroke="#191970" points="540.0602,-166.1825 550.4523,-168.2455 543.6149,-160.1522 540.0602,-166.1825"/>
</g>
<!-- Node41 -->
<g id="node31" class="node">
<title>Node41</title>
<g id="a_node31"><a xlink:href="_turbine_fast_8_h.html" target="_top" xlink:title="TurbineFast.H">
<polygon fill="#ffffff" stroke="#000000" points="530.5,-112.5 530.5,-131.5 609.5,-131.5 609.5,-112.5 530.5,-112.5"/>
<text text-anchor="middle" x="570" y="-119.5" font-family="Helvetica,sans-Serif" font-size="10.00" fill="#000000">TurbineFast.H</text>
</a>
</g>
</g>
<!-- Node40&#45;&gt;Node41 -->
<g id="edge50" class="edge">
<title>Node40&#45;&gt;Node41</title>
<path fill="none" stroke="#191970" d="M568.063,-158.1575C568.5453,-149.155 569.0936,-138.9199 569.4834,-131.6427"/>
<polygon fill="#191970" stroke="#191970" points="564.5626,-158.0726 567.5226,-168.2455 571.5526,-158.4471 564.5626,-158.0726"/>
</g>
<!-- Node41&#45;&gt;Node23 -->
<g id="edge52" class="edge">
<title>Node41&#45;&gt;Node23</title>
<path fill="none" stroke="#191970" d="M572.3858,-102.2802C574.8141,-88.3913 579.6208,-69.8744 589,-56 599.5474,-40.3974 617.0747,-27.7121 630.2913,-19.6449"/>
<polygon fill="#191970" stroke="#191970" points="568.9123,-101.844 570.9063,-112.2495 575.8364,-102.8716 568.9123,-101.844"/>
</g>
<!-- Node41&#45;&gt;Node26 -->
<g id="edge51" class="edge">
<title>Node41&#45;&gt;Node26</title>
<path fill="none" stroke="#191970" d="M591.9936,-106.2097C605.6929,-96.3743 622.8736,-84.0394 634.5691,-75.6427"/>
<polygon fill="#191970" stroke="#191970" points="589.6686,-103.5703 583.5866,-112.2455 593.7511,-109.2566 589.6686,-103.5703"/>
</g>
<!-- Node42&#45;&gt;Node28 -->
<g id="edge56" class="edge">
<title>Node42&#45;&gt;Node28</title>
<path fill="none" stroke="#191970" d="M1107.7416,-164.1109C1085.6181,-153.9559 1056.1906,-140.4482 1036.6989,-131.5011"/>
<polygon fill="#191970" stroke="#191970" points="1106.479,-167.3824 1117.0275,-168.3733 1109.3993,-161.0206 1106.479,-167.3824"/>
</g>
<!-- Node42&#45;&gt;Node38 -->
<g id="edge55" class="edge">
<title>Node42&#45;&gt;Node38</title>
<path fill="none" stroke="#191970" d="M1153.6749,-160.7884C1162.3994,-151.2085 1172.9354,-139.6396 1180.2183,-131.6427"/>
<polygon fill="#191970" stroke="#191970" points="1151.0291,-158.4954 1146.8835,-168.2455 1156.2046,-163.2088 1151.0291,-158.4954"/>
</g>
<!-- Node42&#45;&gt;Node39 -->
<g id="edge57" class="edge">
<title>Node42&#45;&gt;Node39</title>
<path fill="none" stroke="#191970" d="M1125.8624,-159.6296C1119.6907,-150.2887 1112.4434,-139.3197 1107.3711,-131.6427"/>
<polygon fill="#191970" stroke="#191970" points="1123.1223,-161.8316 1131.5551,-168.2455 1128.9627,-157.9728 1123.1223,-161.8316"/>
</g>
<!-- Node43&#45;&gt;Node22 -->
<g id="edge60" class="edge">
<title>Node43&#45;&gt;Node22</title>
<path fill="none" stroke="#191970" d="M367.6269,-214.0961C370.5671,-181.0008 377.637,-112.6863 390,-56 392.7749,-43.2765 397.3666,-28.9782 400.5305,-19.7492"/>
<polygon fill="#191970" stroke="#191970" points="364.1228,-213.9947 366.7572,-224.2568 371.0973,-214.5917 364.1228,-213.9947"/>
</g>
<!-- Node44 -->
<g id="node34" class="node">
<title>Node44</title>
<g id="a_node34"><a xlink:href="_actuator_container_8cpp.html" target="_top" xlink:title="ActuatorContainer.cpp">
<polygon fill="#ffffff" stroke="#000000" points="224,-168.5 224,-187.5 338,-187.5 338,-168.5 224,-168.5"/>
<text text-anchor="middle" x="281" y="-175.5" font-family="Helvetica,sans-Serif" font-size="10.00" fill="#000000">ActuatorContainer.cpp</text>
</a>
</g>
</g>
<!-- Node43&#45;&gt;Node44 -->
<g id="edge61" class="edge">
<title>Node43&#45;&gt;Node44</title>
<path fill="none" stroke="#191970" d="M342.4581,-218.49C327.461,-208.6096 308.5027,-196.1194 295.6362,-187.6427"/>
<polygon fill="#191970" stroke="#191970" points="340.9179,-221.6666 351.1941,-224.2455 344.7691,-215.8212 340.9179,-221.6666"/>
</g>
</g>
</svg>
        <g id="navigator" transform="translate(0 0)" fill="#404254">
                <rect fill="#f2f5e9" fill-opacity="0.5" stroke="#606060" stroke-width=".5" x="0" y="0" width="60" height="60"/>
                <use id="zoomplus" xlink:href="#zoomPlus" x="17" y="9" onmousedown="handleZoom(evt,'in')"/>
                <use id="zoomminus" xlink:href="#zoomMin" x="42" y="9" onmousedown="handleZoom(evt,'out')"/>
                <use id="reset" xlink:href="#resetDef" x="30" y="36" onmousedown="handleReset()"/>
                <g id="arrowUp" xlink:href="#dirArrow" transform="translate(30 24)" onmousedown="handlePan(0,-1)">
                  <use xlink:href="#rim" fill="#404040">
                        <set attributeName="fill" to="#808080" begin="arrowUp.mouseover" end="arrowUp.mouseout"/>
                  </use>
                  <path fill="none" stroke="white" stroke-width="1.5" d="M0,-3.0v7 M-2.5,-0.5L0,-3.0L2.5,-0.5"/>
                </g>
                <g id="arrowRight" xlink:href="#dirArrow" transform="rotate(90) translate(36 -43)" onmousedown="handlePan(1,0)">
                  <use xlink:href="#rim" fill="#404040">
                        <set attributeName="fill" to="#808080" begin="arrowRight.mouseover" end="arrowRight.mouseout"/>
                  </use>
                  <path fill="none" stroke="white" stroke-width="1.5" d="M0,-3.0v7 M-2.5,-0.5L0,-3.0L2.5,-0.5"/>
                </g>
                <g id="arrowDown" xlink:href="#dirArrow" transform="rotate(180) translate(-30 -48)" onmousedown="handlePan(0,1)">
                  <use xlink:href="#rim" fill="#404040">
                        <set attributeName="fill" to="#808080" begin="arrowDown.mouseover" end="arrowDown.mouseout"/>
                  </use>
                  <path fill="none" stroke="white" stroke-width="1.5" d="M0,-3.0v7 M-2.5,-0.5L0,-3.0L2.5,-0.5"/>
                </g>
                <g id="arrowLeft" xlink:href="#dirArrow" transform="rotate(270) translate(-36 17)" onmousedown="handlePan(-1,0)">
                  <use xlink:href="#rim" fill="#404040">
                        <set attributeName="fill" to="#808080" begin="arrowLeft.mouseover" end="arrowLeft.mouseout"/>
                  </use>
                  <path fill="none" stroke="white" stroke-width="1.5" d="M0,-3.0v7 M-2.5,-0.5L0,-3.0L2.5,-0.5"/>
                </g>
        </g>
        <svg viewBox="0 0 15 15" width="100%" height="30px" preserveAspectRatio="xMaxYMin meet">
         <g id="arrow_out" transform="scale(0.3 0.3)">
          <a xlink:href="tensor_i_8_h__dep__incl_org.svg" target="_base">
           <rect id="button" ry="5" rx="5" y="6" x="6" height="38" width="38"
                fill="#f2f5e9" fill-opacity="0.5" stroke="#606060" stroke-width="1.0"/>
           <path id="arrow"
             d="M 11.500037,31.436501 C 11.940474,20.09759 22.043105,11.32322 32.158766,21.979434 L 37.068811,17.246167 C 37.068811,17.246167 37.088388,32 37.088388,32 L 22.160133,31.978069 C 22.160133,31.978069 26.997745,27.140456 26.997745,27.140456 C 18.528582,18.264221 13.291696,25.230495 11.500037,31.436501 z"
             style="fill:#404040;"/>
          </a>
         </g>
        </svg>
</svg>
