<?xml version="1.0" encoding="UTF-8" standalone="no"?>
<!DOCTYPE svg PUBLIC "-//W3C//DTD SVG 1.1//EN"
 "http://www.w3.org/Graphics/SVG/1.1/DTD/svg11.dtd">
<!-- Generated by graphviz version 2.40.1 (20161225.0304)
 -->
<!-- Title: trig_ops.H Pages: 1 -->
<svg width="267pt" height="84pt"
 viewBox="0.00 0.00 266.50 84.00" xmlns="http://www.w3.org/2000/svg" xmlns:xlink="http://www.w3.org/1999/xlink">
<g id="graph0" class="graph" transform="scale(1 1) rotate(0) translate(4 80)">
<title>trig_ops.H</title>
<polygon fill="#ffffff" stroke="transparent" points="-4,4 -4,-80 262.5,-80 262.5,4 -4,4"/>
<!-- Node0 -->
<g id="node1" class="node">
<title>Node0</title>
<polygon fill="#bfbfbf" stroke="#000000" points="78,-56.5 78,-75.5 140,-75.5 140,-56.5 78,-56.5"/>
<text text-anchor="middle" x="109" y="-63.5" font-family="Helvetica,sans-Serif" font-size="10.00" fill="#000000">trig_ops.H</text>
</g>
<!-- Node1 -->
<g id="node2" class="node">
<title>Node1</title>
<polygon fill="#ffffff" stroke="#bfbfbf" points="0,-.5 0,-19.5 44,-19.5 44,-.5 0,-.5"/>
<text text-anchor="middle" x="22" y="-7.5" font-family="Helvetica,sans-Serif" font-size="10.00" fill="#000000">cmath</text>
</g>
<!-- Node0&#45;&gt;Node1 -->
<g id="edge1" class="edge">
<title>Node0&#45;&gt;Node1</title>
<path fill="none" stroke="#191970" d="M93.8458,-56.2455C80.4973,-47.6534 60.8414,-35.0014 45.4617,-25.1018"/>
<polygon fill="#191970" stroke="#191970" points="47.2836,-22.1121 36.9806,-19.6427 43.4949,-27.9982 47.2836,-22.1121"/>
</g>
<!-- Node2 -->
<g id="node3" class="node">
<title>Node2</title>
<polygon fill="#ffffff" stroke="#bfbfbf" points="62.5,-.5 62.5,-19.5 155.5,-19.5 155.5,-.5 62.5,-.5"/>
<text text-anchor="middle" x="109" y="-7.5" font-family="Helvetica,sans-Serif" font-size="10.00" fill="#000000">AMReX_REAL.H</text>
</g>
<!-- Node0&#45;&gt;Node2 -->
<g id="edge2" class="edge">
<title>Node0&#45;&gt;Node2</title>
<path fill="none" stroke="#191970" d="M109,-56.2455C109,-48.9382 109,-38.6944 109,-29.7046"/>
<polygon fill="#191970" stroke="#191970" points="112.5001,-29.6426 109,-19.6427 105.5001,-29.6427 112.5001,-29.6426"/>
</g>
<!-- Node3 -->
<g id="node4" class="node">
<title>Node3</title>
<polygon fill="#ffffff" stroke="#bfbfbf" points="173.5,-.5 173.5,-19.5 258.5,-19.5 258.5,-.5 173.5,-.5"/>
<text text-anchor="middle" x="216" y="-7.5" font-family="Helvetica,sans-Serif" font-size="10.00" fill="#000000">AMReX_Gpu.H</text>
</g>
<!-- Node0&#45;&gt;Node3 -->
<g id="edge3" class="edge">
<title>Node0&#45;&gt;Node3</title>
<path fill="none" stroke="#191970" d="M127.638,-56.2455C144.4386,-47.4527 169.3634,-34.4079 188.4618,-24.4125"/>
<polygon fill="#191970" stroke="#191970" points="190.3386,-27.3807 197.5756,-19.6427 187.0927,-21.1787 190.3386,-27.3807"/>
</g>
</g>
</svg>
