<?xml version="1.0" encoding="UTF-8" standalone="no"?>
<!DOCTYPE svg PUBLIC "-//W3C//DTD SVG 1.1//EN"
 "http://www.w3.org/Graphics/SVG/1.1/DTD/svg11.dtd">
<!-- Generated by graphviz version 2.40.1 (20161225.0304)
 -->
<!-- Title: trig_ops.H Pages: 1 -->
<svg width="1773pt" height="487pt"
 viewBox="0.00 0.00 1772.50 487.00" xmlns="http://www.w3.org/2000/svg" xmlns:xlink="http://www.w3.org/1999/xlink">
<g id="graph0" class="graph" transform="scale(1 1) rotate(0) translate(4 483)">
<title>trig_ops.H</title>
<polygon fill="#ffffff" stroke="transparent" points="-4,4 -4,-483 1768.5,-483 1768.5,4 -4,4"/>
<!-- Node4 -->
<g id="node1" class="node">
<title>Node4</title>
<polygon fill="#bfbfbf" stroke="#000000" points="1037,-459.5 1037,-478.5 1099,-478.5 1099,-459.5 1037,-459.5"/>
<text text-anchor="middle" x="1068" y="-466.5" font-family="Helvetica,sans-Serif" font-size="10.00" fill="#000000">trig_ops.H</text>
</g>
<!-- Node5 -->
<g id="node2" class="node">
<title>Node5</title>
<g id="a_node2"><a xlink:href="_m_o_data_8_h.html" target="_top" xlink:title="MOData.H">
<polygon fill="#ffffff" stroke="#000000" points="596,-403.5 596,-422.5 660,-422.5 660,-403.5 596,-403.5"/>
<text text-anchor="middle" x="628" y="-410.5" font-family="Helvetica,sans-Serif" font-size="10.00" fill="#000000">MOData.H</text>
</a>
</g>
</g>
<!-- Node4&#45;&gt;Node5 -->
<g id="edge1" class="edge">
<title>Node4&#45;&gt;Node5</title>
<path fill="none" stroke="#191970" d="M1026.4276,-465.1989C954.9678,-458.4193 804.3328,-443.0508 678,-423 672.2296,-422.0842 666.1112,-420.9759 660.2078,-419.8352"/>
<polygon fill="#191970" stroke="#191970" points="1026.5088,-468.722 1036.7928,-466.1746 1027.1648,-461.7528 1026.5088,-468.722"/>
</g>
<!-- Node14 -->
<g id="node11" class="node">
<title>Node14</title>
<g id="a_node11"><a xlink:href="_a_b_l_wall_function_8cpp.html" target="_top" xlink:title="ABLWallFunction.cpp">
<polygon fill="#ffffff" stroke="#000000" points="583.5,-174 583.5,-193 694.5,-193 694.5,-174 583.5,-174"/>
<text text-anchor="middle" x="639" y="-181" font-family="Helvetica,sans-Serif" font-size="10.00" fill="#000000">ABLWallFunction.cpp</text>
</a>
</g>
</g>
<!-- Node4&#45;&gt;Node14 -->
<g id="edge69" class="edge">
<title>Node4&#45;&gt;Node14</title>
<path fill="none" stroke="#191970" d="M1026.8167,-465.523C929.2231,-456.1516 692,-426.25 692,-357 692,-357 692,-357 692,-301 692,-257.5857 661.5632,-212.4933 646.8203,-193.1982"/>
<polygon fill="#191970" stroke="#191970" points="1026.6281,-469.0206 1036.9105,-466.4666 1027.2796,-462.051 1026.6281,-469.0206"/>
</g>
<!-- Node19 -->
<g id="node16" class="node">
<title>Node19</title>
<g id="a_node16"><a xlink:href="tensor_i_8_h.html" target="_top" xlink:title="tensorI.H">
<polygon fill="#ffffff" stroke="#000000" points="802.5,-403.5 802.5,-422.5 859.5,-422.5 859.5,-403.5 802.5,-403.5"/>
<text text-anchor="middle" x="831" y="-410.5" font-family="Helvetica,sans-Serif" font-size="10.00" fill="#000000">tensorI.H</text>
</a>
</g>
</g>
<!-- Node4&#45;&gt;Node19 -->
<g id="edge17" class="edge">
<title>Node4&#45;&gt;Node19</title>
<path fill="none" stroke="#191970" d="M1026.4967,-459.1933C978.6395,-447.8853 901.2349,-429.5956 859.632,-419.7654"/>
<polygon fill="#191970" stroke="#191970" points="1025.9913,-462.6702 1036.5282,-461.5636 1027.6011,-455.8578 1025.9913,-462.6702"/>
</g>
<!-- Node53 -->
<g id="node42" class="node">
<title>Node53</title>
<g id="a_node42"><a xlink:href="_body_force_8cpp.html" target="_top" xlink:title="BodyForce.cpp">
<polygon fill="#ffffff" stroke="#000000" points="916.5,-403.5 916.5,-422.5 999.5,-422.5 999.5,-403.5 916.5,-403.5"/>
<text text-anchor="middle" x="958" y="-410.5" font-family="Helvetica,sans-Serif" font-size="10.00" fill="#000000">BodyForce.cpp</text>
</a>
</g>
</g>
<!-- Node4&#45;&gt;Node53 -->
<g id="edge62" class="edge">
<title>Node4&#45;&gt;Node53</title>
<path fill="none" stroke="#191970" d="M1039.7086,-454.5971C1019.9889,-444.558 994.22,-431.4393 976.941,-422.6427"/>
<polygon fill="#191970" stroke="#191970" points="1038.3399,-457.8277 1048.8395,-459.2455 1041.5157,-451.5896 1038.3399,-457.8277"/>
</g>
<!-- Node54 -->
<g id="node43" class="node">
<title>Node54</title>
<g id="a_node43"><a xlink:href="_coriolis_forcing_8cpp.html" target="_top" xlink:title="CoriolisForcing.cpp">
<polygon fill="#ffffff" stroke="#000000" points="1017.5,-403.5 1017.5,-422.5 1118.5,-422.5 1118.5,-403.5 1017.5,-403.5"/>
<text text-anchor="middle" x="1068" y="-410.5" font-family="Helvetica,sans-Serif" font-size="10.00" fill="#000000">CoriolisForcing.cpp</text>
</a>
</g>
</g>
<!-- Node4&#45;&gt;Node54 -->
<g id="edge63" class="edge">
<title>Node4&#45;&gt;Node54</title>
<path fill="none" stroke="#191970" d="M1068,-449.1575C1068,-440.155 1068,-429.9199 1068,-422.6427"/>
<polygon fill="#191970" stroke="#191970" points="1064.5001,-449.2455 1068,-459.2455 1071.5001,-449.2456 1064.5001,-449.2455"/>
</g>
<!-- Node55 -->
<g id="node44" class="node">
<title>Node55</title>
<g id="a_node44"><a xlink:href="_geostrophic_forcing_8cpp.html" target="_top" xlink:title="GeostrophicForcing.cpp">
<polygon fill="#ffffff" stroke="#000000" points="1137,-403.5 1137,-422.5 1257,-422.5 1257,-403.5 1137,-403.5"/>
<text text-anchor="middle" x="1197" y="-410.5" font-family="Helvetica,sans-Serif" font-size="10.00" fill="#000000">GeostrophicForcing.cpp</text>
</a>
</g>
</g>
<!-- Node4&#45;&gt;Node55 -->
<g id="edge64" class="edge">
<title>Node4&#45;&gt;Node55</title>
<path fill="none" stroke="#191970" d="M1099.3671,-455.3833C1122.8284,-445.1985 1154.3185,-431.5284 1175.1135,-422.5011"/>
<polygon fill="#191970" stroke="#191970" points="1097.9551,-452.1806 1090.1759,-459.3733 1100.7426,-458.6017 1097.9551,-452.1806"/>
</g>
<!-- Node56 -->
<g id="node45" class="node">
<title>Node56</title>
<g id="a_node45"><a xlink:href="_convecting_taylor_vortex_8cpp.html" target="_top" xlink:title="ConvectingTaylorVortex.cpp">
<polygon fill="#ffffff" stroke="#000000" points="1275,-403.5 1275,-422.5 1415,-422.5 1415,-403.5 1275,-403.5"/>
<text text-anchor="middle" x="1345" y="-410.5" font-family="Helvetica,sans-Serif" font-size="10.00" fill="#000000">ConvectingTaylorVortex.cpp</text>
</a>
</g>
</g>
<!-- Node4&#45;&gt;Node56 -->
<g id="edge65" class="edge">
<title>Node4&#45;&gt;Node56</title>
<path fill="none" stroke="#191970" d="M1109.1326,-460.6844C1159.5136,-450.4991 1244.6794,-433.2814 1297.7139,-422.5596"/>
<polygon fill="#191970" stroke="#191970" points="1108.3451,-457.2727 1099.237,-462.6849 1109.7323,-464.1339 1108.3451,-457.2727"/>
</g>
<!-- Node57 -->
<g id="node46" class="node">
<title>Node57</title>
<g id="a_node46"><a xlink:href="_ekman_spiral_8cpp.html" target="_top" xlink:title="EkmanSpiral.cpp">
<polygon fill="#ffffff" stroke="#000000" points="1433.5,-403.5 1433.5,-422.5 1524.5,-422.5 1524.5,-403.5 1433.5,-403.5"/>
<text text-anchor="middle" x="1479" y="-410.5" font-family="Helvetica,sans-Serif" font-size="10.00" fill="#000000">EkmanSpiral.cpp</text>
</a>
</g>
</g>
<!-- Node4&#45;&gt;Node57 -->
<g id="edge66" class="edge">
<title>Node4&#45;&gt;Node57</title>
<path fill="none" stroke="#191970" d="M1109.0777,-464.3868C1175.4444,-456.7776 1310.3088,-440.6688 1424,-423 1427.0688,-422.5231 1430.2298,-422.0091 1433.412,-421.4749"/>
<polygon fill="#191970" stroke="#191970" points="1108.5667,-460.9223 1099.0282,-465.534 1109.3606,-467.8772 1108.5667,-460.9223"/>
</g>
<!-- Node58 -->
<g id="node47" class="node">
<title>Node58</title>
<g id="a_node47"><a xlink:href="_free_stream_8cpp.html" target="_top" xlink:title="FreeStream.cpp">
<polygon fill="#ffffff" stroke="#000000" points="1543,-403.5 1543,-422.5 1629,-422.5 1629,-403.5 1543,-403.5"/>
<text text-anchor="middle" x="1586" y="-410.5" font-family="Helvetica,sans-Serif" font-size="10.00" fill="#000000">FreeStream.cpp</text>
</a>
</g>
</g>
<!-- Node4&#45;&gt;Node58 -->
<g id="edge67" class="edge">
<title>Node4&#45;&gt;Node58</title>
<path fill="none" stroke="#191970" d="M1109.5497,-466.1822C1191.1736,-460.3633 1378.0843,-445.6387 1534,-423 1536.9113,-422.5773 1539.9073,-422.104 1542.9213,-421.5994"/>
<polygon fill="#191970" stroke="#191970" points="1108.9334,-462.7169 1099.2045,-466.912 1109.426,-469.6995 1108.9334,-462.7169"/>
</g>
<!-- Node59 -->
<g id="node48" class="node">
<title>Node59</title>
<g id="a_node48"><a xlink:href="_taylor_green_vortex_8cpp.html" target="_top" xlink:title="TaylorGreenVortex.cpp">
<polygon fill="#ffffff" stroke="#000000" points="1647.5,-403.5 1647.5,-422.5 1764.5,-422.5 1764.5,-403.5 1647.5,-403.5"/>
<text text-anchor="middle" x="1706" y="-410.5" font-family="Helvetica,sans-Serif" font-size="10.00" fill="#000000">TaylorGreenVortex.cpp</text>
</a>
</g>
</g>
<!-- Node4&#45;&gt;Node59 -->
<g id="edge68" class="edge">
<title>Node4&#45;&gt;Node59</title>
<path fill="none" stroke="#191970" d="M1109.5144,-466.5847C1203.6902,-460.9012 1440.6723,-445.4473 1638,-423 1641.0826,-422.6493 1644.2404,-422.2668 1647.4264,-421.8623"/>
<polygon fill="#191970" stroke="#191970" points="1109.0455,-463.1064 1099.2726,-467.1982 1109.464,-470.0939 1109.0455,-463.1064"/>
</g>
<!-- Node60 -->
<g id="node49" class="node">
<title>Node60</title>
<g id="a_node49"><a xlink:href="actuator__utils_8_h.html" target="_top" xlink:title="actuator_utils.H">
<polygon fill="#ffffff" stroke="#000000" points="1604,-291.5 1604,-310.5 1690,-310.5 1690,-291.5 1604,-291.5"/>
<text text-anchor="middle" x="1647" y="-298.5" font-family="Helvetica,sans-Serif" font-size="10.00" fill="#000000">actuator_utils.H</text>
</a>
</g>
</g>
<!-- Node4&#45;&gt;Node60 -->
<g id="edge70" class="edge">
<title>Node4&#45;&gt;Node60</title>
<path fill="none" stroke="#191970" d="M1026.43,-466.0397C967.5623,-460.3315 870.8613,-444.4617 907,-403 953.2275,-349.9635 1452.7906,-313.5513 1603.9283,-303.6878"/>
<polygon fill="#191970" stroke="#191970" points="1026.312,-469.5433 1036.5874,-466.9613 1026.9446,-462.5719 1026.312,-469.5433"/>
</g>
<!-- Node6 -->
<g id="node3" class="node">
<title>Node6</title>
<g id="a_node3"><a xlink:href="_a_b_l_wall_function_8_h.html" target="_top" xlink:title="ABLWallFunction.H">
<polygon fill="#ffffff" stroke="#000000" points="470.5,-347.5 470.5,-366.5 573.5,-366.5 573.5,-347.5 470.5,-347.5"/>
<text text-anchor="middle" x="522" y="-354.5" font-family="Helvetica,sans-Serif" font-size="10.00" fill="#000000">ABLWallFunction.H</text>
</a>
</g>
</g>
<!-- Node5&#45;&gt;Node6 -->
<g id="edge2" class="edge">
<title>Node5&#45;&gt;Node6</title>
<path fill="none" stroke="#191970" d="M600.4778,-398.46C581.5092,-388.4388 556.8273,-375.3993 540.2522,-366.6427"/>
<polygon fill="#191970" stroke="#191970" points="599.0593,-401.669 609.5362,-403.2455 602.3292,-395.4796 599.0593,-401.669"/>
</g>
<!-- Node18 -->
<g id="node15" class="node">
<title>Node18</title>
<g id="a_node15"><a xlink:href="_m_o_data_8cpp.html" target="_top" xlink:title="MOData.cpp">
<polygon fill="#ffffff" stroke="#000000" points="592,-347.5 592,-366.5 664,-366.5 664,-347.5 592,-347.5"/>
<text text-anchor="middle" x="628" y="-354.5" font-family="Helvetica,sans-Serif" font-size="10.00" fill="#000000">MOData.cpp</text>
</a>
</g>
</g>
<!-- Node5&#45;&gt;Node18 -->
<g id="edge16" class="edge">
<title>Node5&#45;&gt;Node18</title>
<path fill="none" stroke="#191970" d="M628,-393.1575C628,-384.155 628,-373.9199 628,-366.6427"/>
<polygon fill="#191970" stroke="#191970" points="624.5001,-393.2455 628,-403.2455 631.5001,-393.2456 624.5001,-393.2455"/>
</g>
<!-- Node7 -->
<g id="node4" class="node">
<title>Node7</title>
<g id="a_node4"><a xlink:href="_a_b_l_8_h.html" target="_top" xlink:title="ABL.H">
<polygon fill="#ffffff" stroke="#000000" points="433,-235.5 433,-254.5 479,-254.5 479,-235.5 433,-235.5"/>
<text text-anchor="middle" x="456" y="-242.5" font-family="Helvetica,sans-Serif" font-size="10.00" fill="#000000">ABL.H</text>
</a>
</g>
</g>
<!-- Node6&#45;&gt;Node7 -->
<g id="edge3" class="edge">
<title>Node6&#45;&gt;Node7</title>
<path fill="none" stroke="#191970" d="M506.3504,-339.7849C499.2754,-331.47 491.1438,-321.1183 485,-311 473.5675,-292.1715 464.1476,-268.0369 459.3767,-254.7915"/>
<polygon fill="#191970" stroke="#191970" points="503.7406,-342.1173 512.9606,-347.3367 509.0078,-337.5068 503.7406,-342.1173"/>
</g>
<!-- Node6&#45;&gt;Node14 -->
<g id="edge15" class="edge">
<title>Node6&#45;&gt;Node14</title>
<path fill="none" stroke="#191970" d="M542.6362,-340.8376C552.3143,-332.5908 563.5481,-321.9934 572,-311 602.6345,-271.1538 626.4668,-215.2786 635.2932,-193.109"/>
<polygon fill="#191970" stroke="#191970" points="540.1294,-338.3681 534.6406,-347.4304 544.5827,-343.7689 540.1294,-338.3681"/>
</g>
<!-- Node15 -->
<g id="node12" class="node">
<title>Node15</title>
<g id="a_node12"><a xlink:href="_a_b_l_stats_8_h.html" target="_top" xlink:title="ABLStats.H">
<polygon fill="#ffffff" stroke="#000000" points="494.5,-291.5 494.5,-310.5 563.5,-310.5 563.5,-291.5 494.5,-291.5"/>
<text text-anchor="middle" x="529" y="-298.5" font-family="Helvetica,sans-Serif" font-size="10.00" fill="#000000">ABLStats.H</text>
</a>
</g>
</g>
<!-- Node6&#45;&gt;Node15 -->
<g id="edge11" class="edge">
<title>Node6&#45;&gt;Node15</title>
<path fill="none" stroke="#191970" d="M524.4803,-337.1575C525.6056,-328.155 526.885,-317.9199 527.7947,-310.6427"/>
<polygon fill="#191970" stroke="#191970" points="520.9868,-336.8886 523.2193,-347.2455 527.9327,-337.7569 520.9868,-336.8886"/>
</g>
<!-- Node17 -->
<g id="node14" class="node">
<title>Node17</title>
<g id="a_node14"><a xlink:href="_boussinesq_bubble_8cpp.html" target="_top" xlink:title="BoussinesqBubble.cpp">
<polygon fill="#ffffff" stroke="#000000" points="322,-291.5 322,-310.5 438,-310.5 438,-291.5 322,-291.5"/>
<text text-anchor="middle" x="380" y="-298.5" font-family="Helvetica,sans-Serif" font-size="10.00" fill="#000000">BoussinesqBubble.cpp</text>
</a>
</g>
</g>
<!-- Node6&#45;&gt;Node17 -->
<g id="edge14" class="edge">
<title>Node6&#45;&gt;Node17</title>
<path fill="none" stroke="#191970" d="M488.1585,-343.6541C462.2634,-333.4419 427.1862,-319.6086 404.0921,-310.5011"/>
<polygon fill="#191970" stroke="#191970" points="487.0025,-346.9605 497.5893,-347.3733 489.5707,-340.4486 487.0025,-346.9605"/>
</g>
<!-- Node8 -->
<g id="node5" class="node">
<title>Node8</title>
<g id="a_node5"><a xlink:href="incflo__set__velocity__bcs_8cpp.html" target="_top" xlink:title="incflo_set_velocity\l_bcs.cpp">
<polygon fill="#ffffff" stroke="#000000" points="72,-168.5 72,-198.5 170,-198.5 170,-168.5 72,-168.5"/>
<text text-anchor="start" x="80" y="-186.5" font-family="Helvetica,sans-Serif" font-size="10.00" fill="#000000">incflo_set_velocity</text>
<text text-anchor="middle" x="121" y="-175.5" font-family="Helvetica,sans-Serif" font-size="10.00" fill="#000000">_bcs.cpp</text>
</a>
</g>
</g>
<!-- Node7&#45;&gt;Node8 -->
<g id="edge4" class="edge">
<title>Node7&#45;&gt;Node8</title>
<path fill="none" stroke="#191970" d="M422.8588,-240.5527C370.6948,-233.3157 266.3722,-217.8833 179,-199 176.1475,-198.3835 173.2251,-197.7164 170.2823,-197.0172"/>
<polygon fill="#191970" stroke="#191970" points="422.4911,-244.035 432.8748,-241.9302 423.4449,-237.1002 422.4911,-244.035"/>
</g>
<!-- Node9 -->
<g id="node6" class="node">
<title>Node9</title>
<g id="a_node6"><a xlink:href="_a_b_l_forcing_8cpp.html" target="_top" xlink:title="ABLForcing.cpp">
<polygon fill="#ffffff" stroke="#000000" points="188,-174 188,-193 274,-193 274,-174 188,-174"/>
<text text-anchor="middle" x="231" y="-181" font-family="Helvetica,sans-Serif" font-size="10.00" fill="#000000">ABLForcing.cpp</text>
</a>
</g>
</g>
<!-- Node7&#45;&gt;Node9 -->
<g id="edge5" class="edge">
<title>Node7&#45;&gt;Node9</title>
<path fill="none" stroke="#191970" d="M422.8958,-236.5107C388.0168,-227.4932 331.5235,-212.6797 283,-199 276.3812,-197.134 269.3088,-195.0719 262.5798,-193.0772"/>
<polygon fill="#191970" stroke="#191970" points="422.4363,-240.0067 432.9936,-239.1155 424.1848,-233.2286 422.4363,-240.0067"/>
</g>
<!-- Node10 -->
<g id="node7" class="node">
<title>Node10</title>
<g id="a_node7"><a xlink:href="_a_b_l_mean_boussinesq_8cpp.html" target="_top" xlink:title="ABLMeanBoussinesq.cpp">
<polygon fill="#ffffff" stroke="#000000" points="292.5,-174 292.5,-193 421.5,-193 421.5,-174 292.5,-174"/>
<text text-anchor="middle" x="357" y="-181" font-family="Helvetica,sans-Serif" font-size="10.00" fill="#000000">ABLMeanBoussinesq.cpp</text>
</a>
</g>
</g>
<!-- Node7&#45;&gt;Node10 -->
<g id="edge6" class="edge">
<title>Node7&#45;&gt;Node10</title>
<path fill="none" stroke="#191970" d="M432.0171,-230.1015C413.4542,-218.57 388.3017,-202.945 372.3601,-193.0419"/>
<polygon fill="#191970" stroke="#191970" points="430.1899,-233.0868 440.5313,-235.3906 433.8837,-227.1407 430.1899,-233.0868"/>
</g>
<!-- Node11 -->
<g id="node8" class="node">
<title>Node11</title>
<g id="a_node8"><a xlink:href="incflo_8cpp.html" target="_top" xlink:title="incflo.cpp">
<polygon fill="#ffffff" stroke="#000000" points="439.5,-174 439.5,-193 498.5,-193 498.5,-174 439.5,-174"/>
<text text-anchor="middle" x="469" y="-181" font-family="Helvetica,sans-Serif" font-size="10.00" fill="#000000">incflo.cpp</text>
</a>
</g>
</g>
<!-- Node7&#45;&gt;Node11 -->
<g id="edge7" class="edge">
<title>Node7&#45;&gt;Node11</title>
<path fill="none" stroke="#191970" d="M460.1044,-225.5832C462.3794,-214.8205 465.1097,-201.9042 466.9401,-193.2449"/>
<polygon fill="#191970" stroke="#191970" points="456.6751,-224.8829 458.0313,-235.3906 463.5238,-226.3307 456.6751,-224.8829"/>
</g>
<!-- Node12 -->
<g id="node9" class="node">
<title>Node12</title>
<g id="a_node9"><a xlink:href="init_8cpp.html" target="_top" xlink:title="init.cpp">
<polygon fill="#ffffff" stroke="#000000" points="517,-174 517,-193 565,-193 565,-174 517,-174"/>
<text text-anchor="middle" x="541" y="-181" font-family="Helvetica,sans-Serif" font-size="10.00" fill="#000000">init.cpp</text>
</a>
</g>
</g>
<!-- Node7&#45;&gt;Node12 -->
<g id="edge8" class="edge">
<title>Node7&#45;&gt;Node12</title>
<path fill="none" stroke="#191970" d="M477.4662,-229.4685C493.3119,-218.0037 514.3736,-202.765 527.812,-193.0419"/>
<polygon fill="#191970" stroke="#191970" points="475.3314,-226.6931 469.2813,-235.3906 479.4347,-232.3643 475.3314,-226.6931"/>
</g>
<!-- Node13 -->
<g id="node10" class="node">
<title>Node13</title>
<g id="a_node10"><a xlink:href="_a_b_l_8cpp.html" target="_top" xlink:title="ABL.cpp">
<polygon fill="#ffffff" stroke="#000000" points="0,-174 0,-193 54,-193 54,-174 0,-174"/>
<text text-anchor="middle" x="27" y="-181" font-family="Helvetica,sans-Serif" font-size="10.00" fill="#000000">ABL.cpp</text>
</a>
</g>
</g>
<!-- Node7&#45;&gt;Node13 -->
<g id="edge9" class="edge">
<title>Node7&#45;&gt;Node13</title>
<path fill="none" stroke="#191970" d="M422.8031,-244.3416C354.359,-242.2848 193.0723,-233.817 63,-199 57.4784,-197.522 51.7044,-195.3451 46.4381,-193.0871"/>
<polygon fill="#191970" stroke="#191970" points="422.8798,-247.8449 432.9718,-244.6197 423.0713,-240.8475 422.8798,-247.8449"/>
</g>
<!-- Node7&#45;&gt;Node14 -->
<g id="edge10" class="edge">
<title>Node7&#45;&gt;Node14</title>
<path fill="none" stroke="#191970" d="M488.8452,-233.9618C523.5455,-222.3003 577.7016,-204.1003 610.6133,-193.0398"/>
<polygon fill="#191970" stroke="#191970" points="487.5411,-230.7077 479.1771,-237.211 489.7711,-237.343 487.5411,-230.7077"/>
</g>
<!-- Node15&#45;&gt;Node7 -->
<g id="edge12" class="edge">
<title>Node15&#45;&gt;Node7</title>
<path fill="none" stroke="#191970" d="M508.049,-284.928C495.2893,-275.1397 479.4115,-262.9595 468.5699,-254.6427"/>
<polygon fill="#191970" stroke="#191970" points="506.2197,-287.9359 516.2844,-291.2455 510.4804,-282.3819 506.2197,-287.9359"/>
</g>
<!-- Node16 -->
<g id="node13" class="node">
<title>Node16</title>
<g id="a_node13"><a xlink:href="_a_b_l_stats_8cpp.html" target="_top" xlink:title="ABLStats.cpp">
<polygon fill="#ffffff" stroke="#000000" points="497.5,-235.5 497.5,-254.5 574.5,-254.5 574.5,-235.5 497.5,-235.5"/>
<text text-anchor="middle" x="536" y="-242.5" font-family="Helvetica,sans-Serif" font-size="10.00" fill="#000000">ABLStats.cpp</text>
</a>
</g>
</g>
<!-- Node15&#45;&gt;Node16 -->
<g id="edge13" class="edge">
<title>Node15&#45;&gt;Node16</title>
<path fill="none" stroke="#191970" d="M531.4803,-281.1575C532.6056,-272.155 533.885,-261.9199 534.7947,-254.6427"/>
<polygon fill="#191970" stroke="#191970" points="527.9868,-280.8886 530.2193,-291.2455 534.9327,-281.7569 527.9868,-280.8886"/>
</g>
<!-- Node20 -->
<g id="node17" class="node">
<title>Node20</title>
<g id="a_node17"><a xlink:href="tensor_8_h.html" target="_top" xlink:title="tensor.H">
<polygon fill="#ffffff" stroke="#000000" points="804,-347.5 804,-366.5 858,-366.5 858,-347.5 804,-347.5"/>
<text text-anchor="middle" x="831" y="-354.5" font-family="Helvetica,sans-Serif" font-size="10.00" fill="#000000">tensor.H</text>
</a>
</g>
</g>
<!-- Node19&#45;&gt;Node20 -->
<g id="edge18" class="edge">
<title>Node19&#45;&gt;Node20</title>
<path fill="none" stroke="#191970" d="M824.5113,-393.1575C823.919,-384.155 824.3335,-373.9199 825.7549,-366.6427"/>
<polygon fill="#191970" stroke="#191970" points="821.0561,-393.739 825.7332,-403.2455 828.0053,-392.8972 821.0561,-393.739"/>
</g>
<!-- Node20&#45;&gt;Node19 -->
<g id="edge19" class="edge">
<title>Node20&#45;&gt;Node19</title>
<path fill="none" stroke="#191970" d="M837.4795,-376.7046C838.0821,-385.6944 837.6779,-395.9382 836.2668,-403.2455"/>
<polygon fill="#191970" stroke="#191970" points="840.9368,-376.1421 836.2451,-366.6427 833.9889,-376.9945 840.9368,-376.1421"/>
</g>
<!-- Node21 -->
<g id="node18" class="node">
<title>Node21</title>
<g id="a_node18"><a xlink:href="vector__space_8_h.html" target="_top" xlink:title="vector_space.H">
<polygon fill="#ffffff" stroke="#000000" points="871,-291.5 871,-310.5 957,-310.5 957,-291.5 871,-291.5"/>
<text text-anchor="middle" x="914" y="-298.5" font-family="Helvetica,sans-Serif" font-size="10.00" fill="#000000">vector_space.H</text>
</a>
</g>
</g>
<!-- Node20&#45;&gt;Node21 -->
<g id="edge20" class="edge">
<title>Node20&#45;&gt;Node21</title>
<path fill="none" stroke="#191970" d="M853.988,-341.49C868.6322,-331.6096 887.1444,-319.1194 899.7082,-310.6427"/>
<polygon fill="#191970" stroke="#191970" points="851.7896,-338.7511 845.4575,-347.2455 855.7047,-344.5539 851.7896,-338.7511"/>
</g>
<!-- Node22 -->
<g id="node19" class="node">
<title>Node22</title>
<g id="a_node19"><a xlink:href="_box_refiner_8_h.html" target="_top" xlink:title="BoxRefiner.H">
<polygon fill="#ffffff" stroke="#000000" points="876,-235.5 876,-254.5 952,-254.5 952,-235.5 876,-235.5"/>
<text text-anchor="middle" x="914" y="-242.5" font-family="Helvetica,sans-Serif" font-size="10.00" fill="#000000">BoxRefiner.H</text>
</a>
</g>
</g>
<!-- Node21&#45;&gt;Node22 -->
<g id="edge21" class="edge">
<title>Node21&#45;&gt;Node22</title>
<path fill="none" stroke="#191970" d="M914,-281.1575C914,-272.155 914,-261.9199 914,-254.6427"/>
<polygon fill="#191970" stroke="#191970" points="910.5001,-281.2455 914,-291.2455 917.5001,-281.2456 910.5001,-281.2455"/>
</g>
<!-- Node24 -->
<g id="node21" class="node">
<title>Node24</title>
<g id="a_node21"><a xlink:href="_cylinder_refiner_8_h.html" target="_top" xlink:title="CylinderRefiner.H">
<polygon fill="#ffffff" stroke="#000000" points="720.5,-235.5 720.5,-254.5 815.5,-254.5 815.5,-235.5 720.5,-235.5"/>
<text text-anchor="middle" x="768" y="-242.5" font-family="Helvetica,sans-Serif" font-size="10.00" fill="#000000">CylinderRefiner.H</text>
</a>
</g>
</g>
<!-- Node21&#45;&gt;Node24 -->
<g id="edge23" class="edge">
<title>Node21&#45;&gt;Node24</title>
<path fill="none" stroke="#191970" d="M879.5565,-287.7888C852.8987,-277.5639 816.62,-263.6488 792.7708,-254.5011"/>
<polygon fill="#191970" stroke="#191970" points="878.3115,-291.0598 888.9017,-291.3733 880.8184,-284.5241 878.3115,-291.0598"/>
</g>
<!-- Node26 -->
<g id="node23" class="node">
<title>Node26</title>
<g id="a_node23"><a xlink:href="_act_parser_8_h.html" target="_top" xlink:title="ActParser.H">
<polygon fill="#ffffff" stroke="#000000" points="1005.5,-235.5 1005.5,-254.5 1076.5,-254.5 1076.5,-235.5 1005.5,-235.5"/>
<text text-anchor="middle" x="1041" y="-242.5" font-family="Helvetica,sans-Serif" font-size="10.00" fill="#000000">ActParser.H</text>
</a>
</g>
</g>
<!-- Node21&#45;&gt;Node26 -->
<g id="edge25" class="edge">
<title>Node21&#45;&gt;Node26</title>
<path fill="none" stroke="#191970" d="M945.1892,-287.2473C968.2537,-277.0771 999.0712,-263.4883 1019.4528,-254.5011"/>
<polygon fill="#191970" stroke="#191970" points="943.5699,-284.1361 935.8321,-291.3733 946.3942,-290.5411 943.5699,-284.1361"/>
</g>
<!-- Node41 -->
<g id="node37" class="node">
<title>Node41</title>
<g id="a_node37"><a xlink:href="actuator__types_8_h.html" target="_top" xlink:title="actuator_types.H">
<polygon fill="#ffffff" stroke="#ff0000" points="1250,-235.5 1250,-254.5 1342,-254.5 1342,-235.5 1250,-235.5"/>
<text text-anchor="middle" x="1296" y="-242.5" font-family="Helvetica,sans-Serif" font-size="10.00" fill="#000000">actuator_types.H</text>
</a>
</g>
</g>
<!-- Node21&#45;&gt;Node41 -->
<g id="edge49" class="edge">
<title>Node21&#45;&gt;Node41</title>
<path fill="none" stroke="#191970" d="M967.2769,-293.1898C1042.5149,-282.1601 1178.6429,-262.2042 1249.8172,-251.7703"/>
<polygon fill="#191970" stroke="#191970" points="966.4643,-289.7714 957.0777,-294.6849 967.4796,-296.6974 966.4643,-289.7714"/>
</g>
<!-- Node50 -->
<g id="node40" class="node">
<title>Node50</title>
<g id="a_node40"><a xlink:href="_actuator_wing_8_h.html" target="_top" xlink:title="ActuatorWing.H">
<polygon fill="#ffffff" stroke="#ff0000" points="1088,-174 1088,-193 1174,-193 1174,-174 1088,-174"/>
<text text-anchor="middle" x="1131" y="-181" font-family="Helvetica,sans-Serif" font-size="10.00" fill="#000000">ActuatorWing.H</text>
</a>
</g>
</g>
<!-- Node21&#45;&gt;Node50 -->
<g id="edge61" class="edge">
<title>Node21&#45;&gt;Node50</title>
<path fill="none" stroke="#191970" d="M967.3275,-291.0257C1010.2046,-282.2186 1066.27,-268.6834 1085,-255 1106.93,-238.9787 1121.0993,-209.051 1127.3348,-193.484"/>
<polygon fill="#191970" stroke="#191970" points="966.4055,-287.6411 957.2956,-293.0503 967.7904,-294.5028 966.4055,-287.6411"/>
</g>
<!-- Node51 -->
<g id="node41" class="node">
<title>Node51</title>
<g id="a_node41"><a xlink:href="_actuator_container_8_h.html" target="_top" xlink:title="ActuatorContainer.H">
<polygon fill="#ffffff" stroke="#ff0000" points="821,-112.5 821,-131.5 927,-131.5 927,-112.5 821,-112.5"/>
<text text-anchor="middle" x="874" y="-119.5" font-family="Helvetica,sans-Serif" font-size="10.00" fill="#000000">ActuatorContainer.H</text>
</a>
</g>
</g>
<!-- Node21&#45;&gt;Node51 -->
<g id="edge59" class="edge">
<title>Node21&#45;&gt;Node51</title>
<path fill="none" stroke="#191970" d="M891.4444,-284.918C882.2014,-277.0274 872.4183,-266.699 867,-255 847.3711,-212.6179 863.0774,-154.3116 870.5769,-131.5995"/>
<polygon fill="#191970" stroke="#191970" points="889.3072,-287.6904 899.3047,-291.1978 893.6765,-282.2214 889.3072,-287.6904"/>
</g>
<!-- Node23 -->
<g id="node20" class="node">
<title>Node23</title>
<g id="a_node20"><a xlink:href="_box_refiner_8cpp.html" target="_top" xlink:title="BoxRefiner.cpp">
<polygon fill="#ffffff" stroke="#000000" points="872,-174 872,-193 956,-193 956,-174 872,-174"/>
<text text-anchor="middle" x="914" y="-181" font-family="Helvetica,sans-Serif" font-size="10.00" fill="#000000">BoxRefiner.cpp</text>
</a>
</g>
</g>
<!-- Node22&#45;&gt;Node23 -->
<g id="edge22" class="edge">
<title>Node22&#45;&gt;Node23</title>
<path fill="none" stroke="#191970" d="M914,-225.2462C914,-214.5519 914,-201.814 914,-193.2449"/>
<polygon fill="#191970" stroke="#191970" points="910.5001,-225.3906 914,-235.3906 917.5001,-225.3907 910.5001,-225.3906"/>
</g>
<!-- Node25 -->
<g id="node22" class="node">
<title>Node25</title>
<g id="a_node22"><a xlink:href="_cylinder_refiner_8cpp.html" target="_top" xlink:title="CylinderRefiner.cpp">
<polygon fill="#ffffff" stroke="#000000" points="712.5,-174 712.5,-193 815.5,-193 815.5,-174 712.5,-174"/>
<text text-anchor="middle" x="764" y="-181" font-family="Helvetica,sans-Serif" font-size="10.00" fill="#000000">CylinderRefiner.cpp</text>
</a>
</g>
</g>
<!-- Node24&#45;&gt;Node25 -->
<g id="edge24" class="edge">
<title>Node24&#45;&gt;Node25</title>
<path fill="none" stroke="#191970" d="M766.7152,-225.2462C766.0196,-214.5519 765.1912,-201.814 764.6338,-193.2449"/>
<polygon fill="#191970" stroke="#191970" points="763.2333,-225.6389 767.375,-235.3906 770.2185,-225.1845 763.2333,-225.6389"/>
</g>
<!-- Node27 -->
<g id="node24" class="node">
<title>Node27</title>
<g id="a_node24"><a xlink:href="actuator__ops_8_h.html" target="_top" xlink:title="actuator_ops.H">
<polygon fill="#ffffff" stroke="#000000" points="1362.5,-174 1362.5,-193 1445.5,-193 1445.5,-174 1362.5,-174"/>
<text text-anchor="middle" x="1404" y="-181" font-family="Helvetica,sans-Serif" font-size="10.00" fill="#000000">actuator_ops.H</text>
</a>
</g>
</g>
<!-- Node26&#45;&gt;Node27 -->
<g id="edge26" class="edge">
<title>Node26&#45;&gt;Node27</title>
<path fill="none" stroke="#191970" d="M1086.8089,-237.239C1157.9464,-225.1868 1293.9016,-202.153 1362.3883,-190.5499"/>
<polygon fill="#191970" stroke="#191970" points="1086.0741,-233.8135 1076.7993,-238.9348 1087.2435,-240.7152 1086.0741,-233.8135"/>
</g>
<!-- Node29 -->
<g id="node26" class="node">
<title>Node29</title>
<g id="a_node26"><a xlink:href="_actuator_model_8_h.html" target="_top" xlink:title="ActuatorModel.H">
<polygon fill="#ffffff" stroke="#000000" points="1289,-56.5 1289,-75.5 1379,-75.5 1379,-56.5 1289,-56.5"/>
<text text-anchor="middle" x="1334" y="-63.5" font-family="Helvetica,sans-Serif" font-size="10.00" fill="#000000">ActuatorModel.H</text>
</a>
</g>
</g>
<!-- Node26&#45;&gt;Node29 -->
<g id="edge44" class="edge">
<title>Node26&#45;&gt;Node29</title>
<path fill="none" stroke="#191970" d="M1046.7987,-225.4056C1052.6364,-208.4762 1063.0776,-184.2427 1079,-168 1116.85,-129.3887 1137.0078,-132.597 1187,-112 1223.7165,-96.8726 1267.3002,-83.8168 1297.4294,-75.5194"/>
<polygon fill="#191970" stroke="#191970" points="1043.3406,-224.7271 1043.616,-235.3184 1050.0055,-226.8671 1043.3406,-224.7271"/>
</g>
<!-- Node30 -->
<g id="node27" class="node">
<title>Node30</title>
<g id="a_node27"><a xlink:href="_actuator_8cpp.html" target="_top" xlink:title="Actuator.cpp">
<polygon fill="#ffffff" stroke="#000000" points="948,-.5 948,-19.5 1020,-19.5 1020,-.5 948,-.5"/>
<text text-anchor="middle" x="984" y="-7.5" font-family="Helvetica,sans-Serif" font-size="10.00" fill="#000000">Actuator.cpp</text>
</a>
</g>
</g>
<!-- Node26&#45;&gt;Node30 -->
<g id="edge45" class="edge">
<title>Node26&#45;&gt;Node30</title>
<path fill="none" stroke="#191970" d="M1036.3345,-225.765C1024.7336,-177.9366 994.9026,-54.9495 986.3337,-19.6216"/>
<polygon fill="#191970" stroke="#191970" points="1032.9363,-226.6035 1038.6949,-235.4967 1039.7391,-224.9534 1032.9363,-226.6035"/>
</g>
<!-- Node38 -->
<g id="node35" class="node">
<title>Node38</title>
<g id="a_node35"><a xlink:href="wing__ops_8cpp.html" target="_top" xlink:title="wing_ops.cpp">
<polygon fill="#ffffff" stroke="#000000" points="1051.5,-56.5 1051.5,-75.5 1128.5,-75.5 1128.5,-56.5 1051.5,-56.5"/>
<text text-anchor="middle" x="1090" y="-63.5" font-family="Helvetica,sans-Serif" font-size="10.00" fill="#000000">wing_ops.cpp</text>
</a>
</g>
</g>
<!-- Node26&#45;&gt;Node38 -->
<g id="edge48" class="edge">
<title>Node26&#45;&gt;Node38</title>
<path fill="none" stroke="#191970" d="M1037.5643,-225.467C1033.7608,-198.6867 1030.0816,-149.6109 1046,-112 1052.375,-96.9376 1066.0849,-83.9166 1076.5181,-75.6109"/>
<polygon fill="#191970" stroke="#191970" points="1034.1285,-226.149 1039.1452,-235.4809 1041.0429,-225.0574 1034.1285,-226.149"/>
</g>
<!-- Node39 -->
<g id="node36" class="node">
<title>Node39</title>
<g id="a_node36"><a xlink:href="turbine__utils_8_h.html" target="_top" xlink:title="turbine_utils.H">
<polygon fill="#ffffff" stroke="#ff0000" points="1502,-174 1502,-193 1582,-193 1582,-174 1502,-174"/>
<text text-anchor="middle" x="1542" y="-181" font-family="Helvetica,sans-Serif" font-size="10.00" fill="#000000">turbine_utils.H</text>
</a>
</g>
</g>
<!-- Node26&#45;&gt;Node39 -->
<g id="edge46" class="edge">
<title>Node26&#45;&gt;Node39</title>
<path fill="none" stroke="#191970" d="M1086.7765,-240.9045C1163.2392,-233.8418 1321.7001,-218.2588 1455,-199 1470.3362,-196.7843 1487.1131,-193.9042 1501.8069,-191.229"/>
<polygon fill="#191970" stroke="#191970" points="1086.1808,-237.4444 1076.5427,-241.844 1086.8208,-244.4151 1086.1808,-237.4444"/>
</g>
<!-- Node28 -->
<g id="node25" class="node">
<title>Node28</title>
<g id="a_node25"><a xlink:href="_act_src_op_8_h.html" target="_top" xlink:title="ActSrcOp.H">
<polygon fill="#ffffff" stroke="#000000" points="1470,-112.5 1470,-131.5 1540,-131.5 1540,-112.5 1470,-112.5"/>
<text text-anchor="middle" x="1505" y="-119.5" font-family="Helvetica,sans-Serif" font-size="10.00" fill="#000000">ActSrcOp.H</text>
</a>
</g>
</g>
<!-- Node27&#45;&gt;Node28 -->
<g id="edge27" class="edge">
<title>Node27&#45;&gt;Node28</title>
<path fill="none" stroke="#191970" d="M1428.4674,-168.6015C1447.4054,-157.07 1473.0659,-141.445 1489.3296,-131.5419"/>
<polygon fill="#191970" stroke="#191970" points="1426.5021,-165.7004 1419.7813,-173.8906 1430.1427,-171.6792 1426.5021,-165.7004"/>
</g>
<!-- Node27&#45;&gt;Node29 -->
<g id="edge33" class="edge">
<title>Node27&#45;&gt;Node29</title>
<path fill="none" stroke="#191970" d="M1399.897,-163.4465C1396.2324,-148.4872 1389.8907,-127.9661 1380,-112 1371.0784,-97.5984 1356.819,-84.2808 1346.54,-75.7213"/>
<polygon fill="#191970" stroke="#191970" points="1396.5799,-164.6479 1402.192,-173.6343 1403.4088,-163.1095 1396.5799,-164.6479"/>
</g>
<!-- Node34 -->
<g id="node31" class="node">
<title>Node34</title>
<g id="a_node31"><a xlink:href="turbine__fast__ops_8_h.html" target="_top" xlink:title="turbine_fast_ops.H">
<polygon fill="#ffffff" stroke="#000000" points="1558.5,-112.5 1558.5,-131.5 1657.5,-131.5 1657.5,-112.5 1558.5,-112.5"/>
<text text-anchor="middle" x="1608" y="-119.5" font-family="Helvetica,sans-Serif" font-size="10.00" fill="#000000">turbine_fast_ops.H</text>
</a>
</g>
</g>
<!-- Node27&#45;&gt;Node34 -->
<g id="edge34" class="edge">
<title>Node27&#45;&gt;Node34</title>
<path fill="none" stroke="#191970" d="M1445.7949,-170.9001C1484.5144,-159.2273 1541.2597,-142.1202 1576.3488,-131.5419"/>
<polygon fill="#191970" stroke="#191970" points="1444.4391,-167.6531 1435.875,-173.8906 1446.4596,-174.3552 1444.4391,-167.6531"/>
</g>
<!-- Node35 -->
<g id="node32" class="node">
<title>Node35</title>
<g id="a_node32"><a xlink:href="fixed__wing__ops_8_h.html" target="_top" xlink:title="fixed_wing_ops.H">
<polygon fill="#ffffff" stroke="#000000" points="1397.5,-56.5 1397.5,-75.5 1492.5,-75.5 1492.5,-56.5 1397.5,-56.5"/>
<text text-anchor="middle" x="1445" y="-63.5" font-family="Helvetica,sans-Serif" font-size="10.00" fill="#000000">fixed_wing_ops.H</text>
</a>
</g>
</g>
<!-- Node27&#45;&gt;Node35 -->
<g id="edge36" class="edge">
<title>Node27&#45;&gt;Node35</title>
<path fill="none" stroke="#191970" d="M1410.7168,-164.2507C1419.5757,-138.8622 1434.8322,-95.1393 1441.5984,-75.7484"/>
<polygon fill="#191970" stroke="#191970" points="1407.3452,-163.2896 1407.3552,-173.8845 1413.9544,-165.5959 1407.3452,-163.2896"/>
</g>
<!-- Node36 -->
<g id="node33" class="node">
<title>Node36</title>
<g id="a_node33"><a xlink:href="wing__ops_8_h.html" target="_top" xlink:title="wing_ops.H">
<polygon fill="#ffffff" stroke="#000000" points="1196,-112.5 1196,-131.5 1264,-131.5 1264,-112.5 1196,-112.5"/>
<text text-anchor="middle" x="1230" y="-119.5" font-family="Helvetica,sans-Serif" font-size="10.00" fill="#000000">wing_ops.H</text>
</a>
</g>
</g>
<!-- Node27&#45;&gt;Node36 -->
<g id="edge38" class="edge">
<title>Node27&#45;&gt;Node36</title>
<path fill="none" stroke="#191970" d="M1367.0791,-170.4504C1334.0932,-158.7916 1286.5434,-141.9852 1256.9966,-131.5419"/>
<polygon fill="#191970" stroke="#191970" points="1366.2177,-173.8581 1376.8125,-173.8906 1368.5505,-167.2582 1366.2177,-173.8581"/>
</g>
<!-- Node37 -->
<g id="node34" class="node">
<title>Node37</title>
<g id="a_node34"><a xlink:href="flat__plate__ops_8_h.html" target="_top" xlink:title="flat_plate_ops.H">
<polygon fill="#ffffff" stroke="#000000" points="1183,-56.5 1183,-75.5 1271,-75.5 1271,-56.5 1183,-56.5"/>
<text text-anchor="middle" x="1227" y="-63.5" font-family="Helvetica,sans-Serif" font-size="10.00" fill="#000000">flat_plate_ops.H</text>
</a>
</g>
</g>
<!-- Node27&#45;&gt;Node37 -->
<g id="edge43" class="edge">
<title>Node27&#45;&gt;Node37</title>
<path fill="none" stroke="#191970" d="M1380.9019,-168.1665C1343.9204,-143.6167 1272.4598,-96.1781 1241.6848,-75.7484"/>
<polygon fill="#191970" stroke="#191970" points="1379.2482,-171.2697 1389.5153,-173.8845 1383.1197,-165.4378 1379.2482,-171.2697"/>
</g>
<!-- Node28&#45;&gt;Node29 -->
<g id="edge28" class="edge">
<title>Node28&#45;&gt;Node29</title>
<path fill="none" stroke="#191970" d="M1465.8852,-109.1905C1434.5568,-98.9309 1391.3129,-84.7691 1363.0124,-75.5011"/>
<polygon fill="#191970" stroke="#191970" points="1465.0114,-112.5872 1475.6041,-112.3733 1467.19,-105.9348 1465.0114,-112.5872"/>
</g>
<!-- Node29&#45;&gt;Node30 -->
<g id="edge29" class="edge">
<title>Node29&#45;&gt;Node30</title>
<path fill="none" stroke="#191970" d="M1279.0033,-55.8667C1179.3648,-39.009 1074.0447,-23.2101 1020.0507,-15.2588"/>
<polygon fill="#191970" stroke="#191970" points="1278.4912,-59.3298 1288.9361,-57.554 1279.6635,-52.4286 1278.4912,-59.3298"/>
</g>
<!-- Node31 -->
<g id="node28" class="node">
<title>Node31</title>
<g id="a_node28"><a xlink:href="_turbine_fast_8cpp.html" target="_top" xlink:title="TurbineFast.cpp">
<polygon fill="#ffffff" stroke="#000000" points="1478.5,-.5 1478.5,-19.5 1565.5,-19.5 1565.5,-.5 1478.5,-.5"/>
<text text-anchor="middle" x="1522" y="-7.5" font-family="Helvetica,sans-Serif" font-size="10.00" fill="#000000">TurbineFast.cpp</text>
</a>
</g>
</g>
<!-- Node29&#45;&gt;Node31 -->
<g id="edge30" class="edge">
<title>Node29&#45;&gt;Node31</title>
<path fill="none" stroke="#191970" d="M1376.1117,-53.4561C1410.6218,-43.1765 1458.7199,-28.8494 1490.1034,-19.5011"/>
<polygon fill="#191970" stroke="#191970" points="1374.903,-50.1641 1366.3184,-56.3733 1376.9014,-56.8728 1374.903,-50.1641"/>
</g>
<!-- Node32 -->
<g id="node29" class="node">
<title>Node32</title>
<g id="a_node29"><a xlink:href="_fixed_wing_8cpp.html" target="_top" xlink:title="FixedWing.cpp">
<polygon fill="#ffffff" stroke="#000000" points="1336,-.5 1336,-19.5 1418,-19.5 1418,-.5 1336,-.5"/>
<text text-anchor="middle" x="1377" y="-7.5" font-family="Helvetica,sans-Serif" font-size="10.00" fill="#000000">FixedWing.cpp</text>
</a>
</g>
</g>
<!-- Node29&#45;&gt;Node32 -->
<g id="edge31" class="edge">
<title>Node29&#45;&gt;Node32</title>
<path fill="none" stroke="#191970" d="M1347.6592,-48.2112C1354.9263,-38.7472 1363.5781,-27.4797 1369.5958,-19.6427"/>
<polygon fill="#191970" stroke="#191970" points="1344.8043,-46.1824 1341.49,-56.2455 1350.3564,-50.4456 1344.8043,-46.1824"/>
</g>
<!-- Node33 -->
<g id="node30" class="node">
<title>Node33</title>
<g id="a_node30"><a xlink:href="_flat_plate_8cpp.html" target="_top" xlink:title="FlatPlate.cpp">
<polygon fill="#ffffff" stroke="#000000" points="1239,-.5 1239,-19.5 1313,-19.5 1313,-.5 1239,-.5"/>
<text text-anchor="middle" x="1276" y="-7.5" font-family="Helvetica,sans-Serif" font-size="10.00" fill="#000000">FlatPlate.cpp</text>
</a>
</g>
</g>
<!-- Node29&#45;&gt;Node33 -->
<g id="edge32" class="edge">
<title>Node29&#45;&gt;Node33</title>
<path fill="none" stroke="#191970" d="M1316.4707,-49.0751C1306.4917,-39.4402 1294.3524,-27.7196 1285.9871,-19.6427"/>
<polygon fill="#191970" stroke="#191970" points="1314.272,-51.8175 1323.8972,-56.2455 1319.1342,-46.7817 1314.272,-51.8175"/>
</g>
<!-- Node34&#45;&gt;Node31 -->
<g id="edge35" class="edge">
<title>Node34&#45;&gt;Node31</title>
<path fill="none" stroke="#191970" d="M1594.3407,-104.2111C1575.9027,-80.1989 1543.7057,-38.2679 1529.3138,-19.5249"/>
<polygon fill="#191970" stroke="#191970" points="1591.8014,-106.651 1600.6677,-112.4509 1597.3534,-102.3878 1591.8014,-106.651"/>
</g>
<!-- Node35&#45;&gt;Node32 -->
<g id="edge37" class="edge">
<title>Node35&#45;&gt;Node32</title>
<path fill="none" stroke="#191970" d="M1425.1404,-49.645C1413.3142,-39.9058 1398.7108,-27.8795 1388.709,-19.6427"/>
<polygon fill="#191970" stroke="#191970" points="1423.211,-52.5902 1433.1553,-56.2455 1427.661,-47.1867 1423.211,-52.5902"/>
</g>
<!-- Node36&#45;&gt;Node35 -->
<g id="edge39" class="edge">
<title>Node36&#45;&gt;Node35</title>
<path fill="none" stroke="#191970" d="M1273.9688,-110.5477C1313.5397,-100.2408 1371.0222,-85.2686 1408.212,-75.582"/>
<polygon fill="#191970" stroke="#191970" points="1272.8623,-107.219 1264.0674,-113.1266 1274.6267,-113.993 1272.8623,-107.219"/>
</g>
<!-- Node36&#45;&gt;Node37 -->
<g id="edge40" class="edge">
<title>Node36&#45;&gt;Node37</title>
<path fill="none" stroke="#191970" d="M1228.937,-102.1575C1228.4547,-93.155 1227.9064,-82.9199 1227.5166,-75.6427"/>
<polygon fill="#191970" stroke="#191970" points="1225.4474,-102.4471 1229.4774,-112.2455 1232.4374,-102.0726 1225.4474,-102.4471"/>
</g>
<!-- Node36&#45;&gt;Node38 -->
<g id="edge42" class="edge">
<title>Node36&#45;&gt;Node38</title>
<path fill="none" stroke="#191970" d="M1196.6351,-108.6541C1171.1048,-98.4419 1136.5216,-84.6086 1113.7528,-75.5011"/>
<polygon fill="#191970" stroke="#191970" points="1195.3485,-111.909 1205.9331,-112.3733 1197.9483,-105.4096 1195.3485,-111.909"/>
</g>
<!-- Node37&#45;&gt;Node33 -->
<g id="edge41" class="edge">
<title>Node37&#45;&gt;Node33</title>
<path fill="none" stroke="#191970" d="M1242.3122,-48.5004C1250.6447,-38.9775 1260.6353,-27.5596 1267.5627,-19.6427"/>
<polygon fill="#191970" stroke="#191970" points="1239.4862,-46.415 1235.5351,-56.2455 1244.7543,-51.0245 1239.4862,-46.415"/>
</g>
<!-- Node39&#45;&gt;Node34 -->
<g id="edge47" class="edge">
<title>Node39&#45;&gt;Node34</title>
<path fill="none" stroke="#191970" d="M1559.6556,-167.0482C1571.7485,-155.7798 1587.3779,-141.216 1597.5421,-131.7449"/>
<polygon fill="#191970" stroke="#191970" points="1557.2426,-164.5127 1552.3125,-173.8906 1562.0147,-169.634 1557.2426,-164.5127"/>
</g>
<!-- Node41&#45;&gt;Node27 -->
<g id="edge51" class="edge">
<title>Node41&#45;&gt;Node27</title>
<path fill="none" stroke="#191970" d="M1321.6127,-230.415C1341.9139,-218.8546 1369.6946,-203.035 1387.2435,-193.0419"/>
<polygon fill="#191970" stroke="#191970" points="1319.8329,-227.4007 1312.875,-235.3906 1323.2968,-233.4836 1319.8329,-227.4007"/>
</g>
<!-- Node41&#45;&gt;Node28 -->
<g id="edge50" class="edge">
<title>Node41&#45;&gt;Node28</title>
<path fill="none" stroke="#191970" d="M1352.5602,-238.5809C1385.065,-232.5998 1425.2197,-221.0917 1455,-199 1479.0666,-181.1468 1494.7507,-147.9889 1501.3848,-131.6334"/>
<polygon fill="#191970" stroke="#191970" points="1351.5656,-235.2001 1342.2984,-240.335 1352.7451,-242.1 1351.5656,-235.2001"/>
</g>
<!-- Node41&#45;&gt;Node29 -->
<g id="edge52" class="edge">
<title>Node41&#45;&gt;Node29</title>
<path fill="none" stroke="#191970" d="M1300.1423,-225.4875C1308.2458,-187.316 1325.9285,-104.0209 1331.9469,-75.6714"/>
<polygon fill="#191970" stroke="#191970" points="1296.696,-224.8673 1298.043,-235.3762 1303.5435,-226.321 1296.696,-224.8673"/>
</g>
<!-- Node41&#45;&gt;Node36 -->
<g id="edge58" class="edge">
<title>Node41&#45;&gt;Node36</title>
<path fill="none" stroke="#191970" d="M1294.1726,-225.3891C1291.9755,-209.1313 1287.2109,-185.8736 1277,-168 1268.6179,-153.3276 1254.2189,-140.2457 1243.5615,-131.8191"/>
<polygon fill="#191970" stroke="#191970" points="1290.7011,-225.8384 1295.3189,-235.3739 1297.6554,-225.04 1290.7011,-225.8384"/>
</g>
<!-- Node42 -->
<g id="node38" class="node">
<title>Node42</title>
<g id="a_node38"><a xlink:href="actuator__utils_8cpp.html" target="_top" xlink:title="actuator_utils.cpp">
<polygon fill="#ffffff" stroke="#000000" points="1600,-174 1600,-193 1694,-193 1694,-174 1600,-174"/>
<text text-anchor="middle" x="1647" y="-181" font-family="Helvetica,sans-Serif" font-size="10.00" fill="#000000">actuator_utils.cpp</text>
</a>
</g>
</g>
<!-- Node41&#45;&gt;Node42 -->
<g id="edge53" class="edge">
<title>Node41&#45;&gt;Node42</title>
<path fill="none" stroke="#191970" d="M1351.9965,-238.2248C1411.5979,-230.5583 1508.4943,-216.7888 1591,-199 1598.7903,-197.3204 1607.1054,-195.2013 1614.8796,-193.074"/>
<polygon fill="#191970" stroke="#191970" points="1351.5143,-234.7578 1342.0369,-239.4937 1352.399,-241.7017 1351.5143,-234.7578"/>
</g>
<!-- Node43 -->
<g id="node39" class="node">
<title>Node43</title>
<g id="a_node39"><a xlink:href="_airfoil_table_8_h.html" target="_top" xlink:title="AirfoilTable.H">
<polygon fill="#ffffff" stroke="#ff0000" points="1192,-174 1192,-193 1268,-193 1268,-174 1192,-174"/>
<text text-anchor="middle" x="1230" y="-181" font-family="Helvetica,sans-Serif" font-size="10.00" fill="#000000">AirfoilTable.H</text>
</a>
</g>
</g>
<!-- Node41&#45;&gt;Node43 -->
<g id="edge54" class="edge">
<title>Node41&#45;&gt;Node43</title>
<path fill="none" stroke="#191970" d="M1278.3444,-228.5482C1266.2515,-217.2798 1250.6221,-202.716 1240.4579,-193.2449"/>
<polygon fill="#191970" stroke="#191970" points="1275.9853,-231.134 1285.6875,-235.3906 1280.7574,-226.0127 1275.9853,-231.134"/>
</g>
<!-- Node41&#45;&gt;Node50 -->
<g id="edge56" class="edge">
<title>Node41&#45;&gt;Node50</title>
<path fill="none" stroke="#191970" d="M1260.5836,-231.7993C1229.3207,-220.1468 1184.498,-203.4402 1156.6002,-193.0419"/>
<polygon fill="#191970" stroke="#191970" points="1259.6261,-235.1776 1270.2188,-235.3906 1262.0709,-228.6184 1259.6261,-235.1776"/>
</g>
<!-- Node43&#45;&gt;Node36 -->
<g id="edge55" class="edge">
<title>Node43&#45;&gt;Node36</title>
<path fill="none" stroke="#191970" d="M1230,-163.7462C1230,-153.0519 1230,-140.314 1230,-131.7449"/>
<polygon fill="#191970" stroke="#191970" points="1226.5001,-163.8906 1230,-173.8906 1233.5001,-163.8907 1226.5001,-163.8906"/>
</g>
<!-- Node50&#45;&gt;Node36 -->
<g id="edge57" class="edge">
<title>Node50&#45;&gt;Node36</title>
<path fill="none" stroke="#191970" d="M1154.9829,-168.6015C1173.5458,-157.07 1198.6983,-141.445 1214.6399,-131.5419"/>
<polygon fill="#191970" stroke="#191970" points="1153.1163,-165.6407 1146.4688,-173.8906 1156.8101,-171.5868 1153.1163,-165.6407"/>
</g>
<!-- Node51&#45;&gt;Node30 -->
<g id="edge60" class="edge">
<title>Node51&#45;&gt;Node30</title>
<path fill="none" stroke="#191970" d="M890.5455,-105.1536C913.9622,-81.3113 955.9936,-38.5156 974.6452,-19.5249"/>
<polygon fill="#191970" stroke="#191970" points="887.8886,-102.8639 883.3785,-112.4509 892.8827,-107.7689 887.8886,-102.8639"/>
</g>
<!-- Node60&#45;&gt;Node28 -->
<g id="edge73" class="edge">
<title>Node60&#45;&gt;Node28</title>
<path fill="none" stroke="#191970" d="M1664.6144,-283.9085C1690.2125,-256.9946 1731.6673,-204.0908 1703,-168 1701.7173,-166.3852 1596.6588,-142.5846 1540.1189,-129.8719"/>
<polygon fill="#191970" stroke="#191970" points="1661.7862,-281.7931 1657.2745,-291.3794 1666.7795,-286.699 1661.7862,-281.7931"/>
</g>
<!-- Node60&#45;&gt;Node34 -->
<g id="edge75" class="edge">
<title>Node60&#45;&gt;Node34</title>
<path fill="none" stroke="#191970" d="M1694.4724,-287.7081C1710.5134,-280.7009 1726.7,-270.2754 1736,-255 1756.1076,-221.9728 1758.2426,-199.6288 1736,-168 1725.7444,-153.4167 1683.054,-140.033 1649.7598,-131.5075"/>
<polygon fill="#191970" stroke="#191970" points="1693.0878,-284.4922 1685.0976,-291.4497 1695.6826,-290.9935 1693.0878,-284.4922"/>
</g>
<!-- Node60&#45;&gt;Node42 -->
<g id="edge74" class="edge">
<title>Node60&#45;&gt;Node42</title>
<path fill="none" stroke="#191970" d="M1647,-281.0662C1647,-255.5834 1647,-212.4662 1647,-193.2484"/>
<polygon fill="#191970" stroke="#191970" points="1643.5001,-281.3844 1647,-291.3845 1650.5001,-281.3845 1643.5001,-281.3844"/>
</g>
<!-- Node61 -->
<g id="node50" class="node">
<title>Node61</title>
<g id="a_node50"><a xlink:href="actuator__ops_i_8_h.html" target="_top" xlink:title="actuator_opsI.H">
<polygon fill="#ffffff" stroke="#000000" points="1447,-235.5 1447,-254.5 1533,-254.5 1533,-235.5 1447,-235.5"/>
<text text-anchor="middle" x="1490" y="-242.5" font-family="Helvetica,sans-Serif" font-size="10.00" fill="#000000">actuator_opsI.H</text>
</a>
</g>
</g>
<!-- Node60&#45;&gt;Node61 -->
<g id="edge71" class="edge">
<title>Node60&#45;&gt;Node61</title>
<path fill="none" stroke="#191970" d="M1610.3381,-287.9231C1581.6376,-277.686 1542.3956,-263.6889 1516.6371,-254.5011"/>
<polygon fill="#191970" stroke="#191970" points="1609.4161,-291.3102 1620.0107,-291.3733 1611.7678,-284.7171 1609.4161,-291.3102"/>
</g>
<!-- Node61&#45;&gt;Node27 -->
<g id="edge72" class="edge">
<title>Node61&#45;&gt;Node27</title>
<path fill="none" stroke="#191970" d="M1468.2812,-229.4685C1452.2491,-218.0037 1430.9396,-202.765 1417.3431,-193.0419"/>
<polygon fill="#191970" stroke="#191970" points="1466.3924,-232.4207 1476.5625,-235.3906 1470.4643,-226.7268 1466.3924,-232.4207"/>
</g>
</g>
</svg>
