<?xml version="1.0" encoding="UTF-8" standalone="no"?>
<!DOCTYPE svg PUBLIC "-//W3C//DTD SVG 1.1//EN"
 "http://www.w3.org/Graphics/SVG/1.1/DTD/svg11.dtd">
<!-- Generated by graphviz version 2.40.1 (20161225.0304)
 -->
<!-- Title: turbine_types.H Pages: 1 -->
<svg width="247pt" height="196pt"
 viewBox="0.00 0.00 246.50 196.00" xmlns="http://www.w3.org/2000/svg" xmlns:xlink="http://www.w3.org/1999/xlink">
<g id="graph0" class="graph" transform="scale(1 1) rotate(0) translate(4 192)">
<title>turbine_types.H</title>
<polygon fill="#ffffff" stroke="transparent" points="-4,4 -4,-192 242.5,-192 242.5,4 -4,4"/>
<!-- Node19 -->
<g id="node1" class="node">
<title>Node19</title>
<polygon fill="#bfbfbf" stroke="#000000" points="49.5,-168.5 49.5,-187.5 135.5,-187.5 135.5,-168.5 49.5,-168.5"/>
<text text-anchor="middle" x="92.5" y="-175.5" font-family="Helvetica,sans-Serif" font-size="10.00" fill="#000000">turbine_types.H</text>
</g>
<!-- Node20 -->
<g id="node2" class="node">
<title>Node20</title>
<g id="a_node2"><a xlink:href="_turbine_fast_8_h.html" target="_top" xlink:title="TurbineFast.H">
<polygon fill="#ffffff" stroke="#000000" points="4,-112.5 4,-131.5 83,-131.5 83,-112.5 4,-112.5"/>
<text text-anchor="middle" x="43.5" y="-119.5" font-family="Helvetica,sans-Serif" font-size="10.00" fill="#000000">TurbineFast.H</text>
</a>
</g>
</g>
<!-- Node19&#45;&gt;Node20 -->
<g id="edge1" class="edge">
<title>Node19&#45;&gt;Node20</title>
<path fill="none" stroke="#191970" d="M77.1878,-160.5004C68.8553,-150.9775 58.8647,-139.5596 51.9373,-131.6427"/>
<polygon fill="#191970" stroke="#191970" points="74.7457,-163.0245 83.9649,-168.2455 80.0138,-158.415 74.7457,-163.0245"/>
</g>
<!-- Node23 -->
<g id="node5" class="node">
<title>Node23</title>
<g id="a_node5"><a xlink:href="turbine__utils_8_h.html" target="_top" xlink:title="turbine_utils.H">
<polygon fill="#ffffff" stroke="#000000" points="101.5,-112.5 101.5,-131.5 181.5,-131.5 181.5,-112.5 101.5,-112.5"/>
<text text-anchor="middle" x="141.5" y="-119.5" font-family="Helvetica,sans-Serif" font-size="10.00" fill="#000000">turbine_utils.H</text>
</a>
</g>
</g>
<!-- Node19&#45;&gt;Node23 -->
<g id="edge5" class="edge">
<title>Node19&#45;&gt;Node23</title>
<path fill="none" stroke="#191970" d="M107.8122,-160.5004C116.1447,-150.9775 126.1353,-139.5596 133.0627,-131.6427"/>
<polygon fill="#191970" stroke="#191970" points="104.9862,-158.415 101.0351,-168.2455 110.2543,-163.0245 104.9862,-158.415"/>
</g>
<!-- Node21 -->
<g id="node3" class="node">
<title>Node21</title>
<g id="a_node3"><a xlink:href="turbine__fast__ops_8_h.html" target="_top" xlink:title="turbine_fast_ops.H">
<polygon fill="#ffffff" stroke="#000000" points="33,-56.5 33,-75.5 132,-75.5 132,-56.5 33,-56.5"/>
<text text-anchor="middle" x="82.5" y="-63.5" font-family="Helvetica,sans-Serif" font-size="10.00" fill="#000000">turbine_fast_ops.H</text>
</a>
</g>
</g>
<!-- Node20&#45;&gt;Node21 -->
<g id="edge2" class="edge">
<title>Node20&#45;&gt;Node21</title>
<path fill="none" stroke="#191970" d="M56.0908,-103.9209C62.6395,-94.5176 70.3824,-83.3997 75.7846,-75.6427"/>
<polygon fill="#191970" stroke="#191970" points="53.1361,-102.0392 50.2933,-112.2455 58.8804,-106.0397 53.1361,-102.0392"/>
</g>
<!-- Node22 -->
<g id="node4" class="node">
<title>Node22</title>
<g id="a_node4"><a xlink:href="_turbine_fast_8cpp.html" target="_top" xlink:title="TurbineFast.cpp">
<polygon fill="#ffffff" stroke="#000000" points="0,-.5 0,-19.5 87,-19.5 87,-.5 0,-.5"/>
<text text-anchor="middle" x="43.5" y="-7.5" font-family="Helvetica,sans-Serif" font-size="10.00" fill="#000000">TurbineFast.cpp</text>
</a>
</g>
</g>
<!-- Node20&#45;&gt;Node22 -->
<g id="edge4" class="edge">
<title>Node20&#45;&gt;Node22</title>
<path fill="none" stroke="#191970" d="M33.2531,-103.217C29.3804,-95.0983 25.4414,-85.3345 23.5,-76 19.2578,-55.6037 30.0219,-32.4433 37.3528,-19.6988"/>
<polygon fill="#191970" stroke="#191970" points="30.1514,-104.839 37.8055,-112.1646 36.3903,-101.6647 30.1514,-104.839"/>
</g>
<!-- Node21&#45;&gt;Node22 -->
<g id="edge3" class="edge">
<title>Node21&#45;&gt;Node22</title>
<path fill="none" stroke="#191970" d="M69.9092,-47.9209C63.3605,-38.5176 55.6176,-27.3997 50.2154,-19.6427"/>
<polygon fill="#191970" stroke="#191970" points="67.1196,-50.0397 75.7067,-56.2455 72.8639,-46.0392 67.1196,-50.0397"/>
</g>
<!-- Node23&#45;&gt;Node21 -->
<g id="edge6" class="edge">
<title>Node23&#45;&gt;Node21</title>
<path fill="none" stroke="#191970" d="M123.9693,-105.3607C113.7623,-95.6727 101.2531,-83.7995 92.6592,-75.6427"/>
<polygon fill="#191970" stroke="#191970" points="121.5604,-107.8998 131.223,-112.2455 126.3794,-102.8227 121.5604,-107.8998"/>
</g>
<!-- Node24 -->
<g id="node6" class="node">
<title>Node24</title>
<g id="a_node6"><a xlink:href="turbine__utils_8cpp.html" target="_top" xlink:title="turbine_utils.cpp">
<polygon fill="#ffffff" stroke="#000000" points="150.5,-56.5 150.5,-75.5 238.5,-75.5 238.5,-56.5 150.5,-56.5"/>
<text text-anchor="middle" x="194.5" y="-63.5" font-family="Helvetica,sans-Serif" font-size="10.00" fill="#000000">turbine_utils.cpp</text>
</a>
</g>
</g>
<!-- Node23&#45;&gt;Node24 -->
<g id="edge7" class="edge">
<title>Node23&#45;&gt;Node24</title>
<path fill="none" stroke="#191970" d="M157.7896,-104.7884C166.8562,-95.2085 177.8054,-83.6396 185.3739,-75.6427"/>
<polygon fill="#191970" stroke="#191970" points="155.0637,-102.5767 150.7319,-112.2455 160.1478,-107.3884 155.0637,-102.5767"/>
</g>
</g>
</svg>
