<?xml version="1.0" encoding="UTF-8" standalone="no"?>
<!DOCTYPE svg PUBLIC "-//W3C//DTD SVG 1.1//EN"
 "http://www.w3.org/Graphics/SVG/1.1/DTD/svg11.dtd">
<!-- Generated by graphviz version 2.40.1 (20161225.0304)
 -->
<!-- Title: turbine_utils.H Pages: 1 -->
<svg width="620pt" height="475pt"
 viewBox="0.00 0.00 619.84 475.00" xmlns="http://www.w3.org/2000/svg" xmlns:xlink="http://www.w3.org/1999/xlink">
<g id="graph0" class="graph" transform="scale(1 1) rotate(0) translate(4 471)">
<title>turbine_utils.H</title>
<polygon fill="#ffffff" stroke="transparent" points="-4,4 -4,-471 615.8381,-471 615.8381,4 -4,4"/>
<!-- Node0 -->
<g id="node1" class="node">
<title>Node0</title>
<polygon fill="#bfbfbf" stroke="#000000" points="195,-447.5 195,-466.5 275,-466.5 275,-447.5 195,-447.5"/>
<text text-anchor="middle" x="235" y="-454.5" font-family="Helvetica,sans-Serif" font-size="10.00" fill="#000000">turbine_utils.H</text>
</g>
<!-- Node1 -->
<g id="node2" class="node">
<title>Node1</title>
<g id="a_node2"><a xlink:href="turbine__types_8_h.html" target="_top" xlink:title="amr&#45;wind/wind_energy\l/actuator/turbine/turbine\l_types.H">
<polygon fill="#ffffff" stroke="#000000" points="108.5,-369.5 108.5,-410.5 227.5,-410.5 227.5,-369.5 108.5,-369.5"/>
<text text-anchor="start" x="116.5" y="-398.5" font-family="Helvetica,sans-Serif" font-size="10.00" fill="#000000">amr&#45;wind/wind_energy</text>
<text text-anchor="start" x="116.5" y="-387.5" font-family="Helvetica,sans-Serif" font-size="10.00" fill="#000000">/actuator/turbine/turbine</text>
<text text-anchor="middle" x="168" y="-376.5" font-family="Helvetica,sans-Serif" font-size="10.00" fill="#000000">_types.H</text>
</a>
</g>
</g>
<!-- Node0&#45;&gt;Node1 -->
<g id="edge1" class="edge">
<title>Node0&#45;&gt;Node1</title>
<path fill="none" stroke="#191970" d="M225.4005,-447.4005C217.6391,-439.6391 206.3062,-428.3062 195.7567,-417.7567"/>
<polygon fill="#191970" stroke="#191970" points="198.1777,-415.228 188.6318,-410.6318 193.228,-420.1777 198.1777,-415.228"/>
</g>
<!-- Node20 -->
<g id="node21" class="node">
<title>Node20</title>
<g id="a_node21"><a xlink:href="_act_parser_8_h.html" target="_top" xlink:title="amr&#45;wind/wind_energy\l/actuator/ActParser.H">
<polygon fill="#ffffff" stroke="#000000" points="250,-375 250,-405 364,-405 364,-375 250,-375"/>
<text text-anchor="start" x="258" y="-393" font-family="Helvetica,sans-Serif" font-size="10.00" fill="#000000">amr&#45;wind/wind_energy</text>
<text text-anchor="middle" x="307" y="-382" font-family="Helvetica,sans-Serif" font-size="10.00" fill="#000000">/actuator/ActParser.H</text>
</a>
</g>
</g>
<!-- Node0&#45;&gt;Node20 -->
<g id="edge31" class="edge">
<title>Node0&#45;&gt;Node20</title>
<path fill="none" stroke="#191970" d="M245.3158,-447.4005C255.1693,-438.2313 270.3793,-424.0776 283.2298,-412.1195"/>
<polygon fill="#191970" stroke="#191970" points="285.9208,-414.3964 290.8572,-405.0218 281.1522,-409.2719 285.9208,-414.3964"/>
</g>
<!-- Node2 -->
<g id="node3" class="node">
<title>Node2</title>
<g id="a_node3"><a xlink:href="actuator__types_8_h.html" target="_top" xlink:title="amr&#45;wind/wind_energy\l/actuator/actuator_types.H">
<polygon fill="#ffffff" stroke="#000000" points="90.5,-302.5 90.5,-332.5 223.5,-332.5 223.5,-302.5 90.5,-302.5"/>
<text text-anchor="start" x="98.5" y="-320.5" font-family="Helvetica,sans-Serif" font-size="10.00" fill="#000000">amr&#45;wind/wind_energy</text>
<text text-anchor="middle" x="157" y="-309.5" font-family="Helvetica,sans-Serif" font-size="10.00" fill="#000000">/actuator/actuator_types.H</text>
</a>
</g>
</g>
<!-- Node1&#45;&gt;Node2 -->
<g id="edge2" class="edge">
<title>Node1&#45;&gt;Node2</title>
<path fill="none" stroke="#191970" d="M164.8773,-369.4183C163.6129,-361.0849 162.1409,-351.3834 160.8139,-342.6373"/>
<polygon fill="#191970" stroke="#191970" points="164.2515,-341.9609 159.2909,-332.5991 157.3307,-343.011 164.2515,-341.9609"/>
</g>
<!-- Node3 -->
<g id="node4" class="node">
<title>Node3</title>
<g id="a_node4"><a xlink:href="_slice_8_h.html" target="_top" xlink:title="amr&#45;wind/core/Slice.H">
<polygon fill="#ffffff" stroke="#000000" points="86.5,-241 86.5,-260 199.5,-260 199.5,-241 86.5,-241"/>
<text text-anchor="middle" x="143" y="-248" font-family="Helvetica,sans-Serif" font-size="10.00" fill="#000000">amr&#45;wind/core/Slice.H</text>
</a>
</g>
</g>
<!-- Node2&#45;&gt;Node3 -->
<g id="edge3" class="edge">
<title>Node2&#45;&gt;Node3</title>
<path fill="none" stroke="#191970" d="M153.8232,-302.2967C151.8325,-292.7699 149.2468,-280.3954 147.1019,-270.1306"/>
<polygon fill="#191970" stroke="#191970" points="150.468,-269.1277 144.9966,-260.055 143.616,-270.5595 150.468,-269.1277"/>
</g>
<!-- Node6 -->
<g id="node7" class="node">
<title>Node6</title>
<polygon fill="#ffffff" stroke="#bfbfbf" points="91.5,-.5 91.5,-19.5 176.5,-19.5 176.5,-.5 91.5,-.5"/>
<text text-anchor="middle" x="134" y="-7.5" font-family="Helvetica,sans-Serif" font-size="10.00" fill="#000000">AMReX_Gpu.H</text>
</g>
<!-- Node2&#45;&gt;Node6 -->
<g id="edge28" class="edge">
<title>Node2&#45;&gt;Node6</title>
<path fill="none" stroke="#191970" d="M121.7931,-302.3466C105.9107,-293.8333 88.235,-281.7248 77,-266 56.5086,-237.3195 58,-224.2487 58,-189 58,-189 58,-189 58,-133 58,-89.4388 92.9243,-48.4145 115.4235,-26.5053"/>
<polygon fill="#191970" stroke="#191970" points="117.8999,-28.981 122.7859,-19.5801 113.1038,-23.8822 117.8999,-28.981"/>
</g>
<!-- Node7 -->
<g id="node8" class="node">
<title>Node7</title>
<g id="a_node8"><a xlink:href="vector__space_8_h.html" target="_top" xlink:title="amr&#45;wind/core/vs/vector\l_space.H">
<polygon fill="#ffffff" stroke="#000000" points="340,-235.5 340,-265.5 462,-265.5 462,-235.5 340,-235.5"/>
<text text-anchor="start" x="348" y="-253.5" font-family="Helvetica,sans-Serif" font-size="10.00" fill="#000000">amr&#45;wind/core/vs/vector</text>
<text text-anchor="middle" x="401" y="-242.5" font-family="Helvetica,sans-Serif" font-size="10.00" fill="#000000">_space.H</text>
</a>
</g>
</g>
<!-- Node2&#45;&gt;Node7 -->
<g id="edge7" class="edge">
<title>Node2&#45;&gt;Node7</title>
<path fill="none" stroke="#191970" d="M211.7584,-302.4639C248.5178,-292.3701 297.1215,-279.024 335.8673,-268.3848"/>
<polygon fill="#191970" stroke="#191970" points="337.2865,-271.6247 346.0028,-265.6017 335.433,-264.8746 337.2865,-271.6247"/>
</g>
<!-- Node18 -->
<g id="node19" class="node">
<title>Node18</title>
<polygon fill="#ffffff" stroke="#bfbfbf" points="218,-241 218,-260 322,-260 322,-241 218,-241"/>
<text text-anchor="middle" x="270" y="-248" font-family="Helvetica,sans-Serif" font-size="10.00" fill="#000000">AMReX_RealBox.H</text>
</g>
<!-- Node2&#45;&gt;Node18 -->
<g id="edge29" class="edge">
<title>Node2&#45;&gt;Node18</title>
<path fill="none" stroke="#191970" d="M182.3594,-302.4639C201.0631,-291.3741 226.3881,-276.3584 245.005,-265.32"/>
<polygon fill="#191970" stroke="#191970" points="246.9857,-268.2147 253.8023,-260.1039 243.4156,-262.1935 246.9857,-268.2147"/>
</g>
<!-- Node19 -->
<g id="node20" class="node">
<title>Node19</title>
<polygon fill="#ffffff" stroke="#bfbfbf" points="0,-241 0,-260 30,-260 30,-241 0,-241"/>
<text text-anchor="middle" x="15" y="-248" font-family="Helvetica,sans-Serif" font-size="10.00" fill="#000000">set</text>
</g>
<!-- Node2&#45;&gt;Node19 -->
<g id="edge30" class="edge">
<title>Node2&#45;&gt;Node19</title>
<path fill="none" stroke="#191970" d="M122.3651,-302.3957C99.865,-292.4167 69.993,-278.8536 44,-266 42.452,-265.2345 40.865,-264.4335 39.2697,-263.6161"/>
<polygon fill="#191970" stroke="#191970" points="40.7388,-260.4345 30.2575,-258.8875 37.4865,-266.633 40.7388,-260.4345"/>
</g>
<!-- Node4 -->
<g id="node5" class="node">
<title>Node4</title>
<polygon fill="#ffffff" stroke="#bfbfbf" points="124.5,-179.5 124.5,-198.5 171.5,-198.5 171.5,-179.5 124.5,-179.5"/>
<text text-anchor="middle" x="148" y="-186.5" font-family="Helvetica,sans-Serif" font-size="10.00" fill="#000000">iterator</text>
</g>
<!-- Node3&#45;&gt;Node4 -->
<g id="edge4" class="edge">
<title>Node3&#45;&gt;Node4</title>
<path fill="none" stroke="#191970" d="M143.7813,-240.8906C144.4743,-232.3657 145.509,-219.6392 146.3802,-208.9235"/>
<polygon fill="#191970" stroke="#191970" points="149.8858,-208.9956 147.2077,-198.7449 142.9088,-208.4283 149.8858,-208.9956"/>
</g>
<!-- Node5 -->
<g id="node6" class="node">
<title>Node5</title>
<polygon fill="#ffffff" stroke="#bfbfbf" points="189.5,-179.5 189.5,-198.5 284.5,-198.5 284.5,-179.5 189.5,-179.5"/>
<text text-anchor="middle" x="237" y="-186.5" font-family="Helvetica,sans-Serif" font-size="10.00" fill="#000000">AMReX_Vector.H</text>
</g>
<!-- Node3&#45;&gt;Node5 -->
<g id="edge5" class="edge">
<title>Node3&#45;&gt;Node5</title>
<path fill="none" stroke="#191970" d="M157.6875,-240.8906C172.7256,-231.0519 196.3176,-215.6167 213.8667,-204.1351"/>
<polygon fill="#191970" stroke="#191970" points="215.9637,-206.9457 222.4156,-198.5419 212.1313,-201.088 215.9637,-206.9457"/>
</g>
<!-- Node3&#45;&gt;Node6 -->
<g id="edge6" class="edge">
<title>Node3&#45;&gt;Node6</title>
<path fill="none" stroke="#191970" d="M135.8335,-240.8627C128.947,-230.953 119.0126,-214.781 115,-199 99.6006,-138.4366 117.4087,-63.9783 127.7011,-29.378"/>
<polygon fill="#191970" stroke="#191970" points="131.1102,-30.2007 130.727,-19.6128 124.4239,-28.1288 131.1102,-30.2007"/>
</g>
<!-- Node8 -->
<g id="node9" class="node">
<title>Node8</title>
<g id="a_node9"><a xlink:href="vector_8_h.html" target="_top" xlink:title="amr&#45;wind/core/vs/vector.H">
<polygon fill="#ffffff" stroke="#000000" points="228,-123.5 228,-142.5 360,-142.5 360,-123.5 228,-123.5"/>
<text text-anchor="middle" x="294" y="-130.5" font-family="Helvetica,sans-Serif" font-size="10.00" fill="#000000">amr&#45;wind/core/vs/vector.H</text>
</a>
</g>
</g>
<!-- Node7&#45;&gt;Node8 -->
<g id="edge8" class="edge">
<title>Node7&#45;&gt;Node8</title>
<path fill="none" stroke="#191970" d="M382.0771,-235.4037C370.2807,-225.5904 355.0984,-212.2058 343,-199 329.2144,-183.9526 315.5406,-165.1222 306.1551,-151.4303"/>
<polygon fill="#191970" stroke="#191970" points="308.8851,-149.2184 300.394,-142.8819 303.0804,-153.1305 308.8851,-149.2184"/>
</g>
<!-- Node15 -->
<g id="node16" class="node">
<title>Node15</title>
<g id="a_node16"><a xlink:href="tensor_8_h.html" target="_top" xlink:title="amr&#45;wind/core/vs/tensor.H">
<polygon fill="#ffffff" stroke="#000000" points="352,-179.5 352,-198.5 484,-198.5 484,-179.5 352,-179.5"/>
<text text-anchor="middle" x="418" y="-186.5" font-family="Helvetica,sans-Serif" font-size="10.00" fill="#000000">amr&#45;wind/core/vs/tensor.H</text>
</a>
</g>
</g>
<!-- Node7&#45;&gt;Node15 -->
<g id="edge17" class="edge">
<title>Node7&#45;&gt;Node15</title>
<path fill="none" stroke="#191970" d="M405.2022,-235.2977C407.4391,-227.2055 410.2149,-217.1639 412.609,-208.5029"/>
<polygon fill="#191970" stroke="#191970" points="415.9872,-209.418 415.2781,-198.8469 409.2402,-207.5529 415.9872,-209.418"/>
</g>
<!-- Node8&#45;&gt;Node6 -->
<g id="edge9" class="edge">
<title>Node8&#45;&gt;Node6</title>
<path fill="none" stroke="#191970" d="M261.9522,-123.4785C240.3538,-115.9711 212.0693,-103.9264 191,-87 170.7311,-70.7166 153.9623,-45.6088 143.9768,-28.5249"/>
<polygon fill="#191970" stroke="#191970" points="146.8627,-26.5166 138.906,-19.5207 140.7634,-29.9515 146.8627,-26.5166"/>
</g>
<!-- Node9 -->
<g id="node10" class="node">
<title>Node9</title>
<g id="a_node10"><a xlink:href="vstraits_8_h.html" target="_top" xlink:title="amr&#45;wind/core/vs/vstraits.H">
<polygon fill="#ffffff" stroke="#000000" points="353.5,-62 353.5,-81 490.5,-81 490.5,-62 353.5,-62"/>
<text text-anchor="middle" x="422" y="-69" font-family="Helvetica,sans-Serif" font-size="10.00" fill="#000000">amr&#45;wind/core/vs/vstraits.H</text>
</a>
</g>
</g>
<!-- Node8&#45;&gt;Node9 -->
<g id="edge10" class="edge">
<title>Node8&#45;&gt;Node9</title>
<path fill="none" stroke="#191970" d="M314,-123.3906C335.2289,-113.1908 368.9762,-96.9763 393.096,-85.3875"/>
<polygon fill="#191970" stroke="#191970" points="394.6426,-88.5275 402.1404,-81.0419 391.6111,-82.2179 394.6426,-88.5275"/>
</g>
<!-- Node12 -->
<g id="node13" class="node">
<title>Node12</title>
<g id="a_node13"><a xlink:href="vector_i_8_h.html" target="_top" xlink:title="amr&#45;wind/core/vs/vectorI.H">
<polygon fill="#ffffff" stroke="#000000" points="200.5,-62 200.5,-81 335.5,-81 335.5,-62 200.5,-62"/>
<text text-anchor="middle" x="268" y="-69" font-family="Helvetica,sans-Serif" font-size="10.00" fill="#000000">amr&#45;wind/core/vs/vectorI.H</text>
</a>
</g>
</g>
<!-- Node8&#45;&gt;Node12 -->
<g id="edge13" class="edge">
<title>Node8&#45;&gt;Node12</title>
<path fill="none" stroke="#191970" d="M284.875,-123.3906C279.5521,-114.776 273.6711,-101.8708 269.9422,-91.0858"/>
<polygon fill="#191970" stroke="#191970" points="273.224,-89.8412 267.031,-81.2449 266.5116,-91.827 273.224,-89.8412"/>
</g>
<!-- Node10 -->
<g id="node11" class="node">
<title>Node10</title>
<polygon fill="#ffffff" stroke="#bfbfbf" points="382,-.5 382,-19.5 422,-19.5 422,-.5 382,-.5"/>
<text text-anchor="middle" x="402" y="-7.5" font-family="Helvetica,sans-Serif" font-size="10.00" fill="#000000">limits</text>
</g>
<!-- Node9&#45;&gt;Node10 -->
<g id="edge11" class="edge">
<title>Node9&#45;&gt;Node10</title>
<path fill="none" stroke="#191970" d="M418.875,-61.8906C416.0735,-53.276 411.8767,-40.3708 408.3694,-29.5858"/>
<polygon fill="#191970" stroke="#191970" points="411.5902,-28.1722 405.1691,-19.7449 404.9333,-30.3371 411.5902,-28.1722"/>
</g>
<!-- Node11 -->
<g id="node12" class="node">
<title>Node11</title>
<polygon fill="#ffffff" stroke="#bfbfbf" points="440.5,-.5 440.5,-19.5 533.5,-19.5 533.5,-.5 440.5,-.5"/>
<text text-anchor="middle" x="487" y="-7.5" font-family="Helvetica,sans-Serif" font-size="10.00" fill="#000000">AMReX_REAL.H</text>
</g>
<!-- Node9&#45;&gt;Node11 -->
<g id="edge12" class="edge">
<title>Node9&#45;&gt;Node11</title>
<path fill="none" stroke="#191970" d="M432.1563,-61.8906C442.0199,-52.5581 457.2055,-38.1902 469.0987,-26.9374"/>
<polygon fill="#191970" stroke="#191970" points="471.8421,-29.1601 476.7006,-19.7449 467.0311,-24.0753 471.8421,-29.1601"/>
</g>
<!-- Node12&#45;&gt;Node8 -->
<g id="edge16" class="edge">
<title>Node12&#45;&gt;Node8</title>
<path fill="none" stroke="#191970" d="M277.2085,-81.2449C282.5372,-89.9042 288.4098,-102.8205 292.1161,-113.5832"/>
<polygon fill="#191970" stroke="#191970" points="288.821,-114.7842 295,-123.3906 295.5367,-112.8094 288.821,-114.7842"/>
</g>
<!-- Node13 -->
<g id="node14" class="node">
<title>Node13</title>
<polygon fill="#ffffff" stroke="#bfbfbf" points="242,-.5 242,-19.5 294,-19.5 294,-.5 242,-.5"/>
<text text-anchor="middle" x="268" y="-7.5" font-family="Helvetica,sans-Serif" font-size="10.00" fill="#000000">ostream</text>
</g>
<!-- Node12&#45;&gt;Node13 -->
<g id="edge14" class="edge">
<title>Node12&#45;&gt;Node13</title>
<path fill="none" stroke="#191970" d="M268,-61.8906C268,-53.3657 268,-40.6392 268,-29.9235"/>
<polygon fill="#191970" stroke="#191970" points="271.5001,-29.7448 268,-19.7449 264.5001,-29.7449 271.5001,-29.7448"/>
</g>
<!-- Node14 -->
<g id="node15" class="node">
<title>Node14</title>
<polygon fill="#ffffff" stroke="#bfbfbf" points="552,-.5 552,-19.5 596,-19.5 596,-.5 552,-.5"/>
<text text-anchor="middle" x="574" y="-7.5" font-family="Helvetica,sans-Serif" font-size="10.00" fill="#000000">cmath</text>
</g>
<!-- Node12&#45;&gt;Node14 -->
<g id="edge15" class="edge">
<title>Node12&#45;&gt;Node14</title>
<path fill="none" stroke="#191970" d="M314.7995,-61.9331C324.7612,-59.9377 335.2233,-57.8726 345,-56 429.7575,-39.7655 454.5237,-41.6181 541.9398,-20.022"/>
<polygon fill="#191970" stroke="#191970" points="542.9003,-23.3897 551.7509,-17.5659 541.2003,-16.5992 542.9003,-23.3897"/>
</g>
<!-- Node15&#45;&gt;Node6 -->
<g id="edge18" class="edge">
<title>Node15&#45;&gt;Node6</title>
<path fill="none" stroke="#191970" d="M351.7874,-182.4863C311.5459,-176.4443 260.1635,-164.9058 219,-143 186.7989,-125.8637 178.5889,-117.7708 159,-87 147.716,-69.2748 141.0854,-45.9921 137.5215,-29.688"/>
<polygon fill="#191970" stroke="#191970" points="140.9119,-28.7923 135.5246,-19.6694 134.0469,-30.1607 140.9119,-28.7923"/>
</g>
<!-- Node15&#45;&gt;Node8 -->
<g id="edge20" class="edge">
<title>Node15&#45;&gt;Node8</title>
<path fill="none" stroke="#191970" d="M396.6836,-179.3733C376.7784,-170.3838 346.8564,-156.8706 324.44,-146.7471"/>
<polygon fill="#191970" stroke="#191970" points="325.5925,-143.4272 315.0382,-142.5011 322.7113,-149.8068 325.5925,-143.4272"/>
</g>
<!-- Node15&#45;&gt;Node9 -->
<g id="edge19" class="edge">
<title>Node15&#45;&gt;Node9</title>
<path fill="none" stroke="#191970" d="M418.3273,-179.3845C418.9807,-160.1913 420.4583,-116.786 421.3271,-91.2663"/>
<polygon fill="#191970" stroke="#191970" points="424.8258,-91.3617 421.6681,-81.2484 417.8298,-91.1235 424.8258,-91.3617"/>
</g>
<!-- Node16 -->
<g id="node17" class="node">
<title>Node16</title>
<g id="a_node17"><a xlink:href="tensor_i_8_h.html" target="_top" xlink:title="amr&#45;wind/core/vs/tensorI.H">
<polygon fill="#ffffff" stroke="#000000" points="468.5,-123.5 468.5,-142.5 603.5,-142.5 603.5,-123.5 468.5,-123.5"/>
<text text-anchor="middle" x="536" y="-130.5" font-family="Helvetica,sans-Serif" font-size="10.00" fill="#000000">amr&#45;wind/core/vs/tensorI.H</text>
</a>
</g>
</g>
<!-- Node15&#45;&gt;Node16 -->
<g id="edge21" class="edge">
<title>Node15&#45;&gt;Node16</title>
<path fill="none" stroke="#191970" d="M433.2872,-179.2455C450.5014,-170.2519 478.6138,-156.8101 501.1617,-146.7327"/>
<polygon fill="#191970" stroke="#191970" points="502.6988,-149.8802 510.4364,-142.6427 499.8743,-143.4753 502.6988,-149.8802"/>
</g>
<!-- Node16&#45;&gt;Node14 -->
<g id="edge22" class="edge">
<title>Node16&#45;&gt;Node14</title>
<path fill="none" stroke="#191970" d="M562.9644,-123.4934C579.1714,-116.2188 598.4508,-104.4326 608,-87 618.8807,-67.1366 604.1253,-43.1022 590.7863,-27.2274"/>
<polygon fill="#191970" stroke="#191970" points="593.3594,-24.8541 584.0833,-19.735 588.1424,-29.5214 593.3594,-24.8541"/>
</g>
<!-- Node16&#45;&gt;Node15 -->
<g id="edge23" class="edge">
<title>Node16&#45;&gt;Node15</title>
<path fill="none" stroke="#191970" d="M521.1971,-142.5011C504.0407,-151.4883 475.6361,-165.0771 452.883,-175.2473"/>
<polygon fill="#191970" stroke="#191970" points="451.2645,-172.1358 443.5269,-179.3733 454.089,-178.5406 451.2645,-172.1358"/>
</g>
<!-- Node17 -->
<g id="node18" class="node">
<title>Node17</title>
<g id="a_node18"><a xlink:href="trig__ops_8_h.html" target="_top" xlink:title="Trigonometric utilities. ">
<polygon fill="#ffffff" stroke="#000000" points="509,-56.5 509,-86.5 599,-86.5 599,-56.5 509,-56.5"/>
<text text-anchor="start" x="517" y="-74.5" font-family="Helvetica,sans-Serif" font-size="10.00" fill="#000000">amr&#45;wind/utilities</text>
<text text-anchor="middle" x="554" y="-63.5" font-family="Helvetica,sans-Serif" font-size="10.00" fill="#000000">/trig_ops.H</text>
</a>
</g>
</g>
<!-- Node16&#45;&gt;Node17 -->
<g id="edge24" class="edge">
<title>Node16&#45;&gt;Node17</title>
<path fill="none" stroke="#191970" d="M538.8125,-123.3906C540.9328,-116.1463 543.9411,-105.8679 546.7217,-96.3676"/>
<polygon fill="#191970" stroke="#191970" points="550.1467,-97.1251 549.5967,-86.5446 543.4286,-95.1588 550.1467,-97.1251"/>
</g>
<!-- Node17&#45;&gt;Node6 -->
<g id="edge27" class="edge">
<title>Node17&#45;&gt;Node6</title>
<path fill="none" stroke="#191970" d="M508.7528,-57.9631C505.8026,-57.2508 502.8664,-56.5878 500,-56 441.3726,-43.9767 273.2634,-24.9903 186.7849,-15.6168"/>
<polygon fill="#191970" stroke="#191970" points="186.9744,-12.117 176.6563,-14.5225 186.2224,-19.0765 186.9744,-12.117"/>
</g>
<!-- Node17&#45;&gt;Node11 -->
<g id="edge26" class="edge">
<title>Node17&#45;&gt;Node11</title>
<path fill="none" stroke="#191970" d="M537.4382,-56.2977C527.6535,-47.3163 515.2526,-35.9334 505.1957,-26.702"/>
<polygon fill="#191970" stroke="#191970" points="507.4613,-24.0307 497.7275,-19.8469 502.7278,-29.1876 507.4613,-24.0307"/>
</g>
<!-- Node17&#45;&gt;Node14 -->
<g id="edge25" class="edge">
<title>Node17&#45;&gt;Node14</title>
<path fill="none" stroke="#191970" d="M558.9438,-56.2977C561.5754,-48.2055 564.841,-38.1639 567.6576,-29.5029"/>
<polygon fill="#191970" stroke="#191970" points="571.0335,-30.4391 570.7977,-19.8469 564.3766,-28.2743 571.0335,-30.4391"/>
</g>
<!-- Node20&#45;&gt;Node7 -->
<g id="edge32" class="edge">
<title>Node20&#45;&gt;Node7</title>
<path fill="none" stroke="#191970" d="M330.6993,-374.8493C345.0392,-364.5917 362.6813,-349.8655 374,-333 385.6839,-315.5904 392.6427,-292.7376 396.5614,-275.4996"/>
<polygon fill="#191970" stroke="#191970" points="400.0126,-276.0944 398.6236,-265.591 393.1594,-274.6681 400.0126,-276.0944"/>
</g>
<!-- Node21 -->
<g id="node22" class="node">
<title>Node21</title>
<polygon fill="#ffffff" stroke="#bfbfbf" points="249,-308 249,-327 365,-327 365,-308 249,-308"/>
<text text-anchor="middle" x="307" y="-315" font-family="Helvetica,sans-Serif" font-size="10.00" fill="#000000">AMReX_ParmParse.H</text>
</g>
<!-- Node20&#45;&gt;Node21 -->
<g id="edge33" class="edge">
<title>Node20&#45;&gt;Node21</title>
<path fill="none" stroke="#191970" d="M307,-374.978C307,-364.1657 307,-349.4631 307,-337.6348"/>
<polygon fill="#191970" stroke="#191970" points="310.5001,-337.3956 307,-327.3957 303.5001,-337.3957 310.5001,-337.3956"/>
</g>
</g>
</svg>
