<?xml version="1.0" encoding="UTF-8" standalone="no"?>
<!DOCTYPE svg PUBLIC "-//W3C//DTD SVG 1.1//EN"
 "http://www.w3.org/Graphics/SVG/1.1/DTD/svg11.dtd">
<!-- Generated by graphviz version 2.40.1 (20161225.0304)
 -->
<!-- Title: turbine_types.H Pages: 1 -->
<!--zoomable 397 -->
<svg id="main" version="1.1" xmlns="http://www.w3.org/2000/svg" xmlns:xlink="http://www.w3.org/1999/xlink" xml:space="preserve" onload="init(evt)">
<style type="text/css"><![CDATA[
.edge:hover path { stroke: red; }
.edge:hover polygon { stroke: red; fill: red; }
]]></style>
<script type="text/javascript"><![CDATA[
var edges = document.getElementsByTagName('g');
if (edges && edges.length) {
  for (var i=0;i<edges.length;i++) {
    if (edges[i].id.substr(0,4)=='edge') {
      edges[i].setAttribute('class','edge');
    }
  }
}
]]></script>
        <defs>
                <circle id="rim" cx="0" cy="0" r="7"/>
                <circle id="rim2" cx="0" cy="0" r="3.5"/>
                <g id="zoomPlus">
                        <use xlink:href="#rim" fill="#404040">
                                <set attributeName="fill" to="#808080" begin="zoomplus.mouseover" end="zoomplus.mouseout"/>
                        </use>
                        <path d="M-4,0h8M0,-4v8" fill="none" stroke="white" stroke-width="1.5" pointer-events="none"/>
                </g>
                <g id="zoomMin">
                        <use xlink:href="#rim" fill="#404040">
                                <set attributeName="fill" to="#808080" begin="zoomminus.mouseover" end="zoomminus.mouseout"/>
                        </use>
                        <path d="M-4,0h8" fill="none" stroke="white" stroke-width="1.5" pointer-events="none"/>
                </g>
                <g id="dirArrow">
                        <path fill="none" stroke="white" stroke-width="1.5" d="M0,-3.0v7 M-2.5,-0.5L0,-3.0L2.5,-0.5"/>
                </g>
               <g id="resetDef">
                       <use xlink:href="#rim2" fill="#404040">
                               <set attributeName="fill" to="#808080" begin="reset.mouseover" end="reset.mouseout"/>
                       </use>
               </g>
        </defs>

<script type="text/javascript">
var viewWidth = 742;
var viewHeight = 397;
var sectionId = 'dynsection-0';
</script>
<script xlink:href="svgpan.js"/>
<svg id="graph" class="graph">
<g id="viewport">
<title>turbine_types.H</title>
<polygon fill="#ffffff" stroke="transparent" points="-4,4 -4,-393 737.507,-393 737.507,4 -4,4"/>
<!-- Node0 -->
<g id="node1" class="node">
<title>Node0</title>
<polygon fill="#bfbfbf" stroke="#000000" points="318,-369.5 318,-388.5 404,-388.5 404,-369.5 318,-369.5"/>
<text text-anchor="middle" x="361" y="-376.5" font-family="Helvetica,sans-Serif" font-size="10.00" fill="#000000">turbine_types.H</text>
</g>
<!-- Node1 -->
<g id="node2" class="node">
<title>Node1</title>
<g id="a_node2"><a xlink:href="actuator__types_8_h.html" target="_top" xlink:title="amr&#45;wind/wind_energy\l/actuator/actuator_types.H">
<polygon fill="#ffffff" stroke="#000000" points="294.5,-302.5 294.5,-332.5 427.5,-332.5 427.5,-302.5 294.5,-302.5"/>
<text text-anchor="start" x="302.5" y="-320.5" font-family="Helvetica,sans-Serif" font-size="10.00" fill="#000000">amr&#45;wind/wind_energy</text>
<text text-anchor="middle" x="361" y="-309.5" font-family="Helvetica,sans-Serif" font-size="10.00" fill="#000000">/actuator/actuator_types.H</text>
</a>
</g>
</g>
<!-- Node0&#45;&gt;Node1 -->
<g id="edge1" class="edge">
<title>Node0&#45;&gt;Node1</title>
<path fill="none" stroke="#191970" d="M361,-369.3906C361,-362.2234 361,-352.0862 361,-342.671"/>
<polygon fill="#191970" stroke="#191970" points="364.5001,-342.5446 361,-332.5446 357.5001,-342.5446 364.5001,-342.5446"/>
</g>
<!-- Node2 -->
<g id="node3" class="node">
<title>Node2</title>
<g id="a_node3"><a xlink:href="_slice_8_h.html" target="_top" xlink:title="amr&#45;wind/core/Slice.H">
<polygon fill="#ffffff" stroke="#000000" points="124.5,-241 124.5,-260 237.5,-260 237.5,-241 124.5,-241"/>
<text text-anchor="middle" x="181" y="-248" font-family="Helvetica,sans-Serif" font-size="10.00" fill="#000000">amr&#45;wind/core/Slice.H</text>
</a>
</g>
</g>
<!-- Node1&#45;&gt;Node2 -->
<g id="edge2" class="edge">
<title>Node1&#45;&gt;Node2</title>
<path fill="none" stroke="#191970" d="M320.6045,-302.4639C289.2213,-290.7824 246.1356,-274.7449 216.1628,-263.5884"/>
<polygon fill="#191970" stroke="#191970" points="217.1294,-260.2136 206.5366,-260.0053 214.6875,-266.7739 217.1294,-260.2136"/>
</g>
<!-- Node5 -->
<g id="node6" class="node">
<title>Node5</title>
<polygon fill="#ffffff" stroke="#bfbfbf" points="212.5,-.5 212.5,-19.5 297.5,-19.5 297.5,-.5 212.5,-.5"/>
<text text-anchor="middle" x="255" y="-7.5" font-family="Helvetica,sans-Serif" font-size="10.00" fill="#000000">AMReX_Gpu.H</text>
</g>
<!-- Node1&#45;&gt;Node5 -->
<g id="edge27" class="edge">
<title>Node1&#45;&gt;Node5</title>
<path fill="none" stroke="#191970" d="M294.3663,-307.7393C190.0575,-290.5618 0,-250.7858 0,-189 0,-189 0,-189 0,-133 0,-87.2884 134.6149,-43.0701 208.2308,-22.3064"/>
<polygon fill="#191970" stroke="#191970" points="209.4973,-25.587 218.1931,-19.5345 207.6209,-18.8432 209.4973,-25.587"/>
</g>
<!-- Node6 -->
<g id="node7" class="node">
<title>Node6</title>
<g id="a_node7"><a xlink:href="vector__space_8_h.html" target="_top" xlink:title="amr&#45;wind/core/vs/vector\l_space.H">
<polygon fill="#ffffff" stroke="#000000" points="300,-235.5 300,-265.5 422,-265.5 422,-235.5 300,-235.5"/>
<text text-anchor="start" x="308" y="-253.5" font-family="Helvetica,sans-Serif" font-size="10.00" fill="#000000">amr&#45;wind/core/vs/vector</text>
<text text-anchor="middle" x="361" y="-242.5" font-family="Helvetica,sans-Serif" font-size="10.00" fill="#000000">_space.H</text>
</a>
</g>
</g>
<!-- Node1&#45;&gt;Node6 -->
<g id="edge6" class="edge">
<title>Node1&#45;&gt;Node6</title>
<path fill="none" stroke="#191970" d="M361,-302.2967C361,-294.5013 361,-284.7991 361,-275.9064"/>
<polygon fill="#191970" stroke="#191970" points="364.5001,-275.6431 361,-265.6432 357.5001,-275.6432 364.5001,-275.6431"/>
</g>
<!-- Node17 -->
<g id="node18" class="node">
<title>Node17</title>
<polygon fill="#ffffff" stroke="#bfbfbf" points="440,-241 440,-260 544,-260 544,-241 440,-241"/>
<text text-anchor="middle" x="492" y="-248" font-family="Helvetica,sans-Serif" font-size="10.00" fill="#000000">AMReX_RealBox.H</text>
</g>
<!-- Node1&#45;&gt;Node17 -->
<g id="edge28" class="edge">
<title>Node1&#45;&gt;Node17</title>
<path fill="none" stroke="#191970" d="M390.399,-302.4639C412.4781,-291.1715 442.5161,-275.8086 464.1983,-264.7192"/>
<polygon fill="#191970" stroke="#191970" points="465.9128,-267.7736 473.2222,-260.1039 462.7253,-261.5414 465.9128,-267.7736"/>
</g>
<!-- Node18 -->
<g id="node19" class="node">
<title>Node18</title>
<polygon fill="#ffffff" stroke="#bfbfbf" points="562,-241 562,-260 592,-260 592,-241 562,-241"/>
<text text-anchor="middle" x="577" y="-248" font-family="Helvetica,sans-Serif" font-size="10.00" fill="#000000">set</text>
</g>
<!-- Node1&#45;&gt;Node18 -->
<g id="edge29" class="edge">
<title>Node1&#45;&gt;Node18</title>
<path fill="none" stroke="#191970" d="M427.6083,-304.9939C465.3735,-296.5955 512.9394,-283.782 553,-266 553.5667,-265.7485 554.1353,-265.4845 554.7042,-265.21"/>
<polygon fill="#191970" stroke="#191970" points="556.7244,-268.0887 563.7091,-260.1223 553.281,-261.9942 556.7244,-268.0887"/>
</g>
<!-- Node3 -->
<g id="node4" class="node">
<title>Node3</title>
<polygon fill="#ffffff" stroke="#bfbfbf" points="141.5,-179.5 141.5,-198.5 188.5,-198.5 188.5,-179.5 141.5,-179.5"/>
<text text-anchor="middle" x="165" y="-186.5" font-family="Helvetica,sans-Serif" font-size="10.00" fill="#000000">iterator</text>
</g>
<!-- Node2&#45;&gt;Node3 -->
<g id="edge3" class="edge">
<title>Node2&#45;&gt;Node3</title>
<path fill="none" stroke="#191970" d="M178.5,-240.8906C176.2588,-232.276 172.9014,-219.3708 170.0955,-208.5858"/>
<polygon fill="#191970" stroke="#191970" points="173.4404,-207.5414 167.5352,-198.7449 166.6659,-209.304 173.4404,-207.5414"/>
</g>
<!-- Node4 -->
<g id="node5" class="node">
<title>Node4</title>
<polygon fill="#ffffff" stroke="#bfbfbf" points="28.5,-179.5 28.5,-198.5 123.5,-198.5 123.5,-179.5 28.5,-179.5"/>
<text text-anchor="middle" x="76" y="-186.5" font-family="Helvetica,sans-Serif" font-size="10.00" fill="#000000">AMReX_Vector.H</text>
</g>
<!-- Node2&#45;&gt;Node4 -->
<g id="edge4" class="edge">
<title>Node2&#45;&gt;Node4</title>
<path fill="none" stroke="#191970" d="M164.5938,-240.8906C147.5647,-230.9165 120.7159,-215.1908 101.0349,-203.6633"/>
<polygon fill="#191970" stroke="#191970" points="102.6888,-200.5759 92.291,-198.5419 99.151,-206.6161 102.6888,-200.5759"/>
</g>
<!-- Node2&#45;&gt;Node5 -->
<g id="edge5" class="edge">
<title>Node2&#45;&gt;Node5</title>
<path fill="none" stroke="#191970" d="M184.0775,-240.6303C187.3065,-230.2659 192.5251,-213.4922 197,-199 216.0973,-137.152 238.5338,-63.8587 249.0256,-29.5478"/>
<polygon fill="#191970" stroke="#191970" points="252.4164,-30.4279 251.993,-19.8416 245.7223,-28.3814 252.4164,-30.4279"/>
</g>
<!-- Node7 -->
<g id="node8" class="node">
<title>Node7</title>
<g id="a_node8"><a xlink:href="vector_8_h.html" target="_top" xlink:title="amr&#45;wind/core/vs/vector.H">
<polygon fill="#ffffff" stroke="#000000" points="323,-123.5 323,-142.5 455,-142.5 455,-123.5 323,-123.5"/>
<text text-anchor="middle" x="389" y="-130.5" font-family="Helvetica,sans-Serif" font-size="10.00" fill="#000000">amr&#45;wind/core/vs/vector.H</text>
</a>
</g>
</g>
<!-- Node6&#45;&gt;Node7 -->
<g id="edge7" class="edge">
<title>Node6&#45;&gt;Node7</title>
<path fill="none" stroke="#191970" d="M364.6605,-235.1389C369.7281,-213.873 378.8794,-175.4702 384.4019,-152.2956"/>
<polygon fill="#191970" stroke="#191970" points="387.8085,-153.0985 386.722,-142.5595 380.9992,-151.4757 387.8085,-153.0985"/>
</g>
<!-- Node14 -->
<g id="node15" class="node">
<title>Node14</title>
<g id="a_node15"><a xlink:href="tensor_8_h.html" target="_top" xlink:title="amr&#45;wind/core/vs/tensor.H">
<polygon fill="#ffffff" stroke="#000000" points="420,-179.5 420,-198.5 552,-198.5 552,-179.5 420,-179.5"/>
<text text-anchor="middle" x="486" y="-186.5" font-family="Helvetica,sans-Serif" font-size="10.00" fill="#000000">amr&#45;wind/core/vs/tensor.H</text>
</a>
</g>
</g>
<!-- Node6&#45;&gt;Node14 -->
<g id="edge16" class="edge">
<title>Node6&#45;&gt;Node14</title>
<path fill="none" stroke="#191970" d="M391.5784,-235.4554C411.7032,-225.554 437.8639,-212.683 457.5438,-203.0004"/>
<polygon fill="#191970" stroke="#191970" points="459.2018,-206.0855 466.6294,-198.5303 456.1115,-199.8045 459.2018,-206.0855"/>
</g>
<!-- Node7&#45;&gt;Node5 -->
<g id="edge8" class="edge">
<title>Node7&#45;&gt;Node5</title>
<path fill="none" stroke="#191970" d="M368.2361,-123.4415C351.8358,-115.254 328.9651,-102.3677 312,-87 293.0398,-69.8251 276.2865,-45.4918 265.9327,-28.8022"/>
<polygon fill="#191970" stroke="#191970" points="268.7687,-26.7273 260.6078,-19.9708 262.7741,-30.3418 268.7687,-26.7273"/>
</g>
<!-- Node8 -->
<g id="node9" class="node">
<title>Node8</title>
<g id="a_node9"><a xlink:href="vstraits_8_h.html" target="_top" xlink:title="amr&#45;wind/core/vs/vstraits.H">
<polygon fill="#ffffff" stroke="#000000" points="474.5,-62 474.5,-81 611.5,-81 611.5,-62 474.5,-62"/>
<text text-anchor="middle" x="543" y="-69" font-family="Helvetica,sans-Serif" font-size="10.00" fill="#000000">amr&#45;wind/core/vs/vstraits.H</text>
</a>
</g>
</g>
<!-- Node7&#45;&gt;Node8 -->
<g id="edge9" class="edge">
<title>Node7&#45;&gt;Node8</title>
<path fill="none" stroke="#191970" d="M413.0625,-123.3906C439.0556,-113.0103 480.6478,-96.4004 509.7547,-84.7766"/>
<polygon fill="#191970" stroke="#191970" points="511.1177,-88.0011 519.1065,-81.0419 508.5215,-81.5003 511.1177,-88.0011"/>
</g>
<!-- Node11 -->
<g id="node12" class="node">
<title>Node11</title>
<g id="a_node12"><a xlink:href="vector_i_8_h.html" target="_top" xlink:title="amr&#45;wind/core/vs/vectorI.H">
<polygon fill="#ffffff" stroke="#000000" points="321.5,-62 321.5,-81 456.5,-81 456.5,-62 321.5,-62"/>
<text text-anchor="middle" x="389" y="-69" font-family="Helvetica,sans-Serif" font-size="10.00" fill="#000000">amr&#45;wind/core/vs/vectorI.H</text>
</a>
</g>
</g>
<!-- Node7&#45;&gt;Node11 -->
<g id="edge12" class="edge">
<title>Node7&#45;&gt;Node11</title>
<path fill="none" stroke="#191970" d="M383.9375,-123.3906C382.2741,-114.8657 381.8404,-102.1392 382.6365,-91.4235"/>
<polygon fill="#191970" stroke="#191970" points="386.1414,-91.6023 383.9112,-81.2449 379.1956,-90.7324 386.1414,-91.6023"/>
</g>
<!-- Node9 -->
<g id="node10" class="node">
<title>Node9</title>
<polygon fill="#ffffff" stroke="#bfbfbf" points="503,-.5 503,-19.5 543,-19.5 543,-.5 503,-.5"/>
<text text-anchor="middle" x="523" y="-7.5" font-family="Helvetica,sans-Serif" font-size="10.00" fill="#000000">limits</text>
</g>
<!-- Node8&#45;&gt;Node9 -->
<g id="edge10" class="edge">
<title>Node8&#45;&gt;Node9</title>
<path fill="none" stroke="#191970" d="M539.875,-61.8906C537.0735,-53.276 532.8767,-40.3708 529.3694,-29.5858"/>
<polygon fill="#191970" stroke="#191970" points="532.5902,-28.1722 526.1691,-19.7449 525.9333,-30.3371 532.5902,-28.1722"/>
</g>
<!-- Node10 -->
<g id="node11" class="node">
<title>Node10</title>
<polygon fill="#ffffff" stroke="#bfbfbf" points="561.5,-.5 561.5,-19.5 654.5,-19.5 654.5,-.5 561.5,-.5"/>
<text text-anchor="middle" x="608" y="-7.5" font-family="Helvetica,sans-Serif" font-size="10.00" fill="#000000">AMReX_REAL.H</text>
</g>
<!-- Node8&#45;&gt;Node10 -->
<g id="edge11" class="edge">
<title>Node8&#45;&gt;Node10</title>
<path fill="none" stroke="#191970" d="M553.1563,-61.8906C563.0199,-52.5581 578.2055,-38.1902 590.0987,-26.9374"/>
<polygon fill="#191970" stroke="#191970" points="592.8421,-29.1601 597.7006,-19.7449 588.0311,-24.0753 592.8421,-29.1601"/>
</g>
<!-- Node11&#45;&gt;Node7 -->
<g id="edge15" class="edge">
<title>Node11&#45;&gt;Node7</title>
<path fill="none" stroke="#191970" d="M394.0888,-81.2449C395.7392,-89.814 396.1598,-102.5519 395.3508,-113.2462"/>
<polygon fill="#191970" stroke="#191970" points="391.8503,-113.0293 394.0625,-123.3906 398.7945,-113.9113 391.8503,-113.0293"/>
</g>
<!-- Node12 -->
<g id="node13" class="node">
<title>Node12</title>
<polygon fill="#ffffff" stroke="#bfbfbf" points="363,-.5 363,-19.5 415,-19.5 415,-.5 363,-.5"/>
<text text-anchor="middle" x="389" y="-7.5" font-family="Helvetica,sans-Serif" font-size="10.00" fill="#000000">ostream</text>
</g>
<!-- Node11&#45;&gt;Node12 -->
<g id="edge13" class="edge">
<title>Node11&#45;&gt;Node12</title>
<path fill="none" stroke="#191970" d="M389,-61.8906C389,-53.3657 389,-40.6392 389,-29.9235"/>
<polygon fill="#191970" stroke="#191970" points="392.5001,-29.7448 389,-19.7449 385.5001,-29.7449 392.5001,-29.7448"/>
</g>
<!-- Node13 -->
<g id="node14" class="node">
<title>Node13</title>
<polygon fill="#ffffff" stroke="#bfbfbf" points="673,-.5 673,-19.5 717,-19.5 717,-.5 673,-.5"/>
<text text-anchor="middle" x="695" y="-7.5" font-family="Helvetica,sans-Serif" font-size="10.00" fill="#000000">cmath</text>
</g>
<!-- Node11&#45;&gt;Node13 -->
<g id="edge14" class="edge">
<title>Node11&#45;&gt;Node13</title>
<path fill="none" stroke="#191970" d="M435.7995,-61.9331C445.7612,-59.9377 456.2233,-57.8726 466,-56 550.7575,-39.7655 575.5237,-41.6181 662.9398,-20.022"/>
<polygon fill="#191970" stroke="#191970" points="663.9003,-23.3897 672.7509,-17.5659 662.2003,-16.5992 663.9003,-23.3897"/>
</g>
<!-- Node14&#45;&gt;Node5 -->
<g id="edge17" class="edge">
<title>Node14&#45;&gt;Node5</title>
<path fill="none" stroke="#191970" d="M433.1177,-179.492C389.7565,-170.8665 332.609,-157.3381 314,-143 277.4495,-114.8381 263.0204,-59.1511 257.7529,-29.557"/>
<polygon fill="#191970" stroke="#191970" points="261.196,-28.9232 256.1556,-19.6042 254.2845,-30.0325 261.196,-28.9232"/>
</g>
<!-- Node14&#45;&gt;Node7 -->
<g id="edge19" class="edge">
<title>Node14&#45;&gt;Node7</title>
<path fill="none" stroke="#191970" d="M469.1039,-179.2455C454.082,-170.5731 431.8957,-157.7645 414.679,-147.825"/>
<polygon fill="#191970" stroke="#191970" points="416.1128,-144.6114 405.7025,-142.6427 412.6129,-150.6737 416.1128,-144.6114"/>
</g>
<!-- Node14&#45;&gt;Node8 -->
<g id="edge18" class="edge">
<title>Node14&#45;&gt;Node8</title>
<path fill="none" stroke="#191970" d="M490.6645,-179.3845C500.1005,-159.9331 521.6001,-115.6138 533.9061,-90.2462"/>
<polygon fill="#191970" stroke="#191970" points="537.0554,-91.7733 538.271,-81.2484 530.7573,-88.718 537.0554,-91.7733"/>
</g>
<!-- Node15 -->
<g id="node16" class="node">
<title>Node15</title>
<g id="a_node16"><a xlink:href="tensor_i_8_h.html" target="_top" xlink:title="amr&#45;wind/core/vs/tensorI.H">
<polygon fill="#ffffff" stroke="#000000" points="564.5,-123.5 564.5,-142.5 699.5,-142.5 699.5,-123.5 564.5,-123.5"/>
<text text-anchor="middle" x="632" y="-130.5" font-family="Helvetica,sans-Serif" font-size="10.00" fill="#000000">amr&#45;wind/core/vs/tensorI.H</text>
</a>
</g>
</g>
<!-- Node14&#45;&gt;Node15 -->
<g id="edge20" class="edge">
<title>Node14&#45;&gt;Node15</title>
<path fill="none" stroke="#191970" d="M505.8563,-179.3733C528.1177,-170.1419 564.4384,-156.1402 592.4765,-145.9375"/>
<polygon fill="#191970" stroke="#191970" points="593.7908,-149.1842 602.0119,-142.5011 591.4175,-142.5988 593.7908,-149.1842"/>
</g>
<!-- Node15&#45;&gt;Node13 -->
<g id="edge21" class="edge">
<title>Node15&#45;&gt;Node13</title>
<path fill="none" stroke="#191970" d="M676.1748,-123.428C695.8983,-116.7169 717.2933,-105.508 729,-87 741.1734,-67.7541 725.9272,-43.4066 712.1328,-27.3002"/>
<polygon fill="#191970" stroke="#191970" points="714.5278,-24.7321 705.2046,-19.6995 709.3545,-29.4477 714.5278,-24.7321"/>
</g>
<!-- Node15&#45;&gt;Node14 -->
<g id="edge22" class="edge">
<title>Node15&#45;&gt;Node14</title>
<path fill="none" stroke="#191970" d="M612.4465,-142.5011C590.3133,-151.6889 554.0194,-165.686 525.9064,-175.9231"/>
<polygon fill="#191970" stroke="#191970" points="524.5597,-172.6881 516.3403,-179.3733 526.9347,-179.2729 524.5597,-172.6881"/>
</g>
<!-- Node16 -->
<g id="node17" class="node">
<title>Node16</title>
<g id="a_node17"><a xlink:href="trig__ops_8_h.html" target="_top" xlink:title="Trigonometric utilities. ">
<polygon fill="#ffffff" stroke="#000000" points="630,-56.5 630,-86.5 720,-86.5 720,-56.5 630,-56.5"/>
<text text-anchor="start" x="638" y="-74.5" font-family="Helvetica,sans-Serif" font-size="10.00" fill="#000000">amr&#45;wind/utilities</text>
<text text-anchor="middle" x="675" y="-63.5" font-family="Helvetica,sans-Serif" font-size="10.00" fill="#000000">/trig_ops.H</text>
</a>
</g>
</g>
<!-- Node15&#45;&gt;Node16 -->
<g id="edge23" class="edge">
<title>Node15&#45;&gt;Node16</title>
<path fill="none" stroke="#191970" d="M638.7188,-123.3906C644.0533,-115.761 651.741,-104.7658 658.6679,-94.8588"/>
<polygon fill="#191970" stroke="#191970" points="661.6192,-96.7456 664.481,-86.5446 655.8824,-92.7345 661.6192,-96.7456"/>
</g>
<!-- Node16&#45;&gt;Node5 -->
<g id="edge26" class="edge">
<title>Node16&#45;&gt;Node5</title>
<path fill="none" stroke="#191970" d="M629.7528,-57.9631C626.8026,-57.2508 623.8664,-56.5878 621,-56 562.3726,-43.9767 394.2634,-24.9903 307.7849,-15.6168"/>
<polygon fill="#191970" stroke="#191970" points="307.9744,-12.117 297.6563,-14.5225 307.2224,-19.0765 307.9744,-12.117"/>
</g>
<!-- Node16&#45;&gt;Node10 -->
<g id="edge25" class="edge">
<title>Node16&#45;&gt;Node10</title>
<path fill="none" stroke="#191970" d="M658.4382,-56.2977C648.6535,-47.3163 636.2526,-35.9334 626.1957,-26.702"/>
<polygon fill="#191970" stroke="#191970" points="628.4613,-24.0307 618.7275,-19.8469 623.7278,-29.1876 628.4613,-24.0307"/>
</g>
<!-- Node16&#45;&gt;Node13 -->
<g id="edge24" class="edge">
<title>Node16&#45;&gt;Node13</title>
<path fill="none" stroke="#191970" d="M679.9438,-56.2977C682.5754,-48.2055 685.841,-38.1639 688.6576,-29.5029"/>
<polygon fill="#191970" stroke="#191970" points="692.0335,-30.4391 691.7977,-19.8469 685.3766,-28.2743 692.0335,-30.4391"/>
</g>
</g>
</svg>
        <g id="navigator" transform="translate(0 0)" fill="#404254">
                <rect fill="#f2f5e9" fill-opacity="0.5" stroke="#606060" stroke-width=".5" x="0" y="0" width="60" height="60"/>
                <use id="zoomplus" xlink:href="#zoomPlus" x="17" y="9" onmousedown="handleZoom(evt,'in')"/>
                <use id="zoomminus" xlink:href="#zoomMin" x="42" y="9" onmousedown="handleZoom(evt,'out')"/>
                <use id="reset" xlink:href="#resetDef" x="30" y="36" onmousedown="handleReset()"/>
                <g id="arrowUp" xlink:href="#dirArrow" transform="translate(30 24)" onmousedown="handlePan(0,-1)">
                  <use xlink:href="#rim" fill="#404040">
                        <set attributeName="fill" to="#808080" begin="arrowUp.mouseover" end="arrowUp.mouseout"/>
                  </use>
                  <path fill="none" stroke="white" stroke-width="1.5" d="M0,-3.0v7 M-2.5,-0.5L0,-3.0L2.5,-0.5"/>
                </g>
                <g id="arrowRight" xlink:href="#dirArrow" transform="rotate(90) translate(36 -43)" onmousedown="handlePan(1,0)">
                  <use xlink:href="#rim" fill="#404040">
                        <set attributeName="fill" to="#808080" begin="arrowRight.mouseover" end="arrowRight.mouseout"/>
                  </use>
                  <path fill="none" stroke="white" stroke-width="1.5" d="M0,-3.0v7 M-2.5,-0.5L0,-3.0L2.5,-0.5"/>
                </g>
                <g id="arrowDown" xlink:href="#dirArrow" transform="rotate(180) translate(-30 -48)" onmousedown="handlePan(0,1)">
                  <use xlink:href="#rim" fill="#404040">
                        <set attributeName="fill" to="#808080" begin="arrowDown.mouseover" end="arrowDown.mouseout"/>
                  </use>
                  <path fill="none" stroke="white" stroke-width="1.5" d="M0,-3.0v7 M-2.5,-0.5L0,-3.0L2.5,-0.5"/>
                </g>
                <g id="arrowLeft" xlink:href="#dirArrow" transform="rotate(270) translate(-36 17)" onmousedown="handlePan(-1,0)">
                  <use xlink:href="#rim" fill="#404040">
                        <set attributeName="fill" to="#808080" begin="arrowLeft.mouseover" end="arrowLeft.mouseout"/>
                  </use>
                  <path fill="none" stroke="white" stroke-width="1.5" d="M0,-3.0v7 M-2.5,-0.5L0,-3.0L2.5,-0.5"/>
                </g>
        </g>
        <svg viewBox="0 0 15 15" width="100%" height="30px" preserveAspectRatio="xMaxYMin meet">
         <g id="arrow_out" transform="scale(0.3 0.3)">
          <a xlink:href="turbine__types_8_h__incl_org.svg" target="_base">
           <rect id="button" ry="5" rx="5" y="6" x="6" height="38" width="38"
                fill="#f2f5e9" fill-opacity="0.5" stroke="#606060" stroke-width="1.0"/>
           <path id="arrow"
             d="M 11.500037,31.436501 C 11.940474,20.09759 22.043105,11.32322 32.158766,21.979434 L 37.068811,17.246167 C 37.068811,17.246167 37.088388,32 37.088388,32 L 22.160133,31.978069 C 22.160133,31.978069 26.997745,27.140456 26.997745,27.140456 C 18.528582,18.264221 13.291696,25.230495 11.500037,31.436501 z"
             style="fill:#404040;"/>
          </a>
         </g>
        </svg>
</svg>
