<?xml version="1.0" encoding="UTF-8" standalone="no"?>
<!DOCTYPE svg PUBLIC "-//W3C//DTD SVG 1.1//EN"
 "http://www.w3.org/Graphics/SVG/1.1/DTD/svg11.dtd">
<!-- Generated by graphviz version 2.40.1 (20161225.0304)
 -->
<!-- Title: vector.H Pages: 1 -->
<svg width="406pt" height="140pt"
 viewBox="0.00 0.00 405.50 140.00" xmlns="http://www.w3.org/2000/svg" xmlns:xlink="http://www.w3.org/1999/xlink">
<g id="graph0" class="graph" transform="scale(1 1) rotate(0) translate(4 136)">
<title>vector.H</title>
<polygon fill="#ffffff" stroke="transparent" points="-4,4 -4,-136 401.5,-136 401.5,4 -4,4"/>
<!-- Node0 -->
<g id="node1" class="node">
<title>Node0</title>
<polygon fill="#bfbfbf" stroke="#000000" points="221.5,-112.5 221.5,-131.5 275.5,-131.5 275.5,-112.5 221.5,-112.5"/>
<text text-anchor="middle" x="248.5" y="-119.5" font-family="Helvetica,sans-Serif" font-size="10.00" fill="#000000">vector.H</text>
</g>
<!-- Node1 -->
<g id="node2" class="node">
<title>Node1</title>
<polygon fill="#ffffff" stroke="#bfbfbf" points="0,-56.5 0,-75.5 85,-75.5 85,-56.5 0,-56.5"/>
<text text-anchor="middle" x="42.5" y="-63.5" font-family="Helvetica,sans-Serif" font-size="10.00" fill="#000000">AMReX_Gpu.H</text>
</g>
<!-- Node0&#45;&gt;Node1 -->
<g id="edge1" class="edge">
<title>Node0&#45;&gt;Node1</title>
<path fill="none" stroke="#191970" d="M221.1448,-114.5636C186.97,-105.2734 128.0341,-89.252 87.2502,-78.1651"/>
<polygon fill="#191970" stroke="#191970" points="88.1243,-74.7758 77.5563,-75.5299 86.2879,-81.5306 88.1243,-74.7758"/>
</g>
<!-- Node2 -->
<g id="node3" class="node">
<title>Node2</title>
<g id="a_node3"><a xlink:href="vstraits_8_h.html" target="_top" xlink:title="amr&#45;wind/core/vs/vstraits.H">
<polygon fill="#ffffff" stroke="#000000" points="103,-56.5 103,-75.5 240,-75.5 240,-56.5 103,-56.5"/>
<text text-anchor="middle" x="171.5" y="-63.5" font-family="Helvetica,sans-Serif" font-size="10.00" fill="#000000">amr&#45;wind/core/vs/vstraits.H</text>
</a>
</g>
</g>
<!-- Node0&#45;&gt;Node2 -->
<g id="edge2" class="edge">
<title>Node0&#45;&gt;Node2</title>
<path fill="none" stroke="#191970" d="M235.0876,-112.2455C223.4943,-103.814 206.5252,-91.4729 193.0322,-81.6598"/>
<polygon fill="#191970" stroke="#191970" points="194.9047,-78.6938 184.7587,-75.6427 190.7874,-84.355 194.9047,-78.6938"/>
</g>
<!-- Node5 -->
<g id="node6" class="node">
<title>Node5</title>
<g id="a_node6"><a xlink:href="vector_i_8_h.html" target="_top" xlink:title="amr&#45;wind/core/vs/vectorI.H">
<polygon fill="#ffffff" stroke="#000000" points="258,-56.5 258,-75.5 393,-75.5 393,-56.5 258,-56.5"/>
<text text-anchor="middle" x="325.5" y="-63.5" font-family="Helvetica,sans-Serif" font-size="10.00" fill="#000000">amr&#45;wind/core/vs/vectorI.H</text>
</a>
</g>
</g>
<!-- Node0&#45;&gt;Node5 -->
<g id="edge5" class="edge">
<title>Node0&#45;&gt;Node5</title>
<path fill="none" stroke="#191970" d="M256.6455,-112.2455C266.7057,-103.7337 283.6105,-91.2375 298.2529,-81.3801"/>
<polygon fill="#191970" stroke="#191970" points="300.5558,-84.0553 306.9962,-75.6427 296.7153,-78.2028 300.5558,-84.0553"/>
</g>
<!-- Node3 -->
<g id="node4" class="node">
<title>Node3</title>
<polygon fill="#ffffff" stroke="#bfbfbf" points="82.5,-.5 82.5,-19.5 122.5,-19.5 122.5,-.5 82.5,-.5"/>
<text text-anchor="middle" x="102.5" y="-7.5" font-family="Helvetica,sans-Serif" font-size="10.00" fill="#000000">limits</text>
</g>
<!-- Node2&#45;&gt;Node3 -->
<g id="edge3" class="edge">
<title>Node2&#45;&gt;Node3</title>
<path fill="none" stroke="#191970" d="M159.4811,-56.2455C149.2902,-47.9746 134.4638,-35.9416 122.4893,-26.2232"/>
<polygon fill="#191970" stroke="#191970" points="124.3514,-23.2268 114.3812,-19.6427 119.9402,-28.662 124.3514,-23.2268"/>
</g>
<!-- Node4 -->
<g id="node5" class="node">
<title>Node4</title>
<polygon fill="#ffffff" stroke="#bfbfbf" points="141,-.5 141,-19.5 234,-19.5 234,-.5 141,-.5"/>
<text text-anchor="middle" x="187.5" y="-7.5" font-family="Helvetica,sans-Serif" font-size="10.00" fill="#000000">AMReX_REAL.H</text>
</g>
<!-- Node2&#45;&gt;Node4 -->
<g id="edge4" class="edge">
<title>Node2&#45;&gt;Node4</title>
<path fill="none" stroke="#191970" d="M174.287,-56.2455C176.3977,-48.8579 179.366,-38.4689 181.9547,-29.4087"/>
<polygon fill="#191970" stroke="#191970" points="185.363,-30.2195 184.745,-19.6427 178.6323,-28.2964 185.363,-30.2195"/>
</g>
<!-- Node5&#45;&gt;Node0 -->
<g id="edge8" class="edge">
<title>Node5&#45;&gt;Node0</title>
<path fill="none" stroke="#191970" d="M317.4865,-75.6427C307.4865,-84.1194 290.602,-96.6096 275.9399,-106.49"/>
<polygon fill="#191970" stroke="#191970" points="273.6152,-103.8295 267.1792,-112.2455 277.4587,-109.6799 273.6152,-103.8295"/>
</g>
<!-- Node6 -->
<g id="node7" class="node">
<title>Node6</title>
<polygon fill="#ffffff" stroke="#bfbfbf" points="283.5,-.5 283.5,-19.5 335.5,-19.5 335.5,-.5 283.5,-.5"/>
<text text-anchor="middle" x="309.5" y="-7.5" font-family="Helvetica,sans-Serif" font-size="10.00" fill="#000000">ostream</text>
</g>
<!-- Node5&#45;&gt;Node6 -->
<g id="edge6" class="edge">
<title>Node5&#45;&gt;Node6</title>
<path fill="none" stroke="#191970" d="M322.713,-56.2455C320.6023,-48.8579 317.634,-38.4689 315.0453,-29.4087"/>
<polygon fill="#191970" stroke="#191970" points="318.3677,-28.2964 312.255,-19.6427 311.637,-30.2195 318.3677,-28.2964"/>
</g>
<!-- Node7 -->
<g id="node8" class="node">
<title>Node7</title>
<polygon fill="#ffffff" stroke="#bfbfbf" points="353.5,-.5 353.5,-19.5 397.5,-19.5 397.5,-.5 353.5,-.5"/>
<text text-anchor="middle" x="375.5" y="-7.5" font-family="Helvetica,sans-Serif" font-size="10.00" fill="#000000">cmath</text>
</g>
<!-- Node5&#45;&gt;Node7 -->
<g id="edge7" class="edge">
<title>Node5&#45;&gt;Node7</title>
<path fill="none" stroke="#191970" d="M334.2093,-56.2455C341.3073,-48.2958 351.5084,-36.8706 359.995,-27.3656"/>
<polygon fill="#191970" stroke="#191970" points="362.8411,-29.4331 366.8905,-19.6427 357.6195,-24.771 362.8411,-29.4331"/>
</g>
</g>
</svg>
