<?xml version="1.0" encoding="UTF-8" standalone="no"?>
<!DOCTYPE svg PUBLIC "-//W3C//DTD SVG 1.1//EN"
 "http://www.w3.org/Graphics/SVG/1.1/DTD/svg11.dtd">
<!-- Generated by graphviz version 2.40.1 (20161225.0304)
 -->
<!-- Title: vector.H Pages: 1 -->
<svg width="1353pt" height="420pt"
 viewBox="0.00 0.00 1352.50 420.00" xmlns="http://www.w3.org/2000/svg" xmlns:xlink="http://www.w3.org/1999/xlink">
<g id="graph0" class="graph" transform="scale(1 1) rotate(0) translate(4 416)">
<title>vector.H</title>
<polygon fill="#ffffff" stroke="transparent" points="-4,4 -4,-416 1348.5,-416 1348.5,4 -4,4"/>
<!-- Node8 -->
<g id="node1" class="node">
<title>Node8</title>
<polygon fill="#bfbfbf" stroke="#000000" points="609.5,-392.5 609.5,-411.5 663.5,-411.5 663.5,-392.5 609.5,-392.5"/>
<text text-anchor="middle" x="636.5" y="-399.5" font-family="Helvetica,sans-Serif" font-size="10.00" fill="#000000">vector.H</text>
</g>
<!-- Node9 -->
<g id="node2" class="node">
<title>Node9</title>
<g id="a_node2"><a xlink:href="tensor_8_h.html" target="_top" xlink:title="tensor.H">
<polygon fill="#ffffff" stroke="#000000" points="471.5,-336.5 471.5,-355.5 525.5,-355.5 525.5,-336.5 471.5,-336.5"/>
<text text-anchor="middle" x="498.5" y="-343.5" font-family="Helvetica,sans-Serif" font-size="10.00" fill="#000000">tensor.H</text>
</a>
</g>
</g>
<!-- Node8&#45;&gt;Node9 -->
<g id="edge1" class="edge">
<title>Node8&#45;&gt;Node9</title>
<path fill="none" stroke="#191970" d="M603.2787,-388.5189C578.146,-378.3201 544.2582,-364.5685 521.9135,-355.5011"/>
<polygon fill="#191970" stroke="#191970" points="602.1947,-391.8562 612.777,-392.3733 604.8269,-385.3699 602.1947,-391.8562"/>
</g>
<!-- Node11 -->
<g id="node4" class="node">
<title>Node11</title>
<g id="a_node4"><a xlink:href="vector__space_8_h.html" target="_top" xlink:title="vector_space.H">
<polygon fill="#ffffff" stroke="#000000" points="527.5,-280.5 527.5,-299.5 613.5,-299.5 613.5,-280.5 527.5,-280.5"/>
<text text-anchor="middle" x="570.5" y="-287.5" font-family="Helvetica,sans-Serif" font-size="10.00" fill="#000000">vector_space.H</text>
</a>
</g>
</g>
<!-- Node8&#45;&gt;Node11 -->
<g id="edge66" class="edge">
<title>Node8&#45;&gt;Node11</title>
<path fill="none" stroke="#191970" d="M625.6408,-383.5723C611.4329,-359.4618 587.0606,-318.1028 576.1129,-299.5249"/>
<polygon fill="#191970" stroke="#191970" points="622.7805,-385.6125 630.8729,-392.4509 628.8113,-382.0586 622.7805,-385.6125"/>
</g>
<!-- Node43 -->
<g id="node36" class="node">
<title>Node43</title>
<g id="a_node36"><a xlink:href="vector_i_8_h.html" target="_top" xlink:title="vectorI.H">
<polygon fill="#ffffff" stroke="#000000" points="637,-336.5 637,-355.5 694,-355.5 694,-336.5 637,-336.5"/>
<text text-anchor="middle" x="665.5" y="-343.5" font-family="Helvetica,sans-Serif" font-size="10.00" fill="#000000">vectorI.H</text>
</a>
</g>
</g>
<!-- Node8&#45;&gt;Node43 -->
<g id="edge64" class="edge">
<title>Node8&#45;&gt;Node43</title>
<path fill="none" stroke="#191970" d="M640.021,-382.7493C644.1052,-373.6064 649.9574,-363.0798 655.2613,-355.6427"/>
<polygon fill="#191970" stroke="#191970" points="636.6891,-381.6584 636.2846,-392.2455 643.203,-384.2214 636.6891,-381.6584"/>
</g>
<!-- Node44 -->
<g id="node37" class="node">
<title>Node44</title>
<g id="a_node37"><a xlink:href="_power_law_profile_8cpp.html" target="_top" xlink:title="PowerLawProfile.cpp">
<polygon fill="#ffffff" stroke="#000000" points="712,-336.5 712,-355.5 821,-355.5 821,-336.5 712,-336.5"/>
<text text-anchor="middle" x="766.5" y="-343.5" font-family="Helvetica,sans-Serif" font-size="10.00" fill="#000000">PowerLawProfile.cpp</text>
</a>
</g>
</g>
<!-- Node8&#45;&gt;Node44 -->
<g id="edge67" class="edge">
<title>Node8&#45;&gt;Node44</title>
<path fill="none" stroke="#191970" d="M668.1102,-388.3833C691.7535,-378.1985 723.4876,-364.5284 744.4438,-355.5011"/>
<polygon fill="#191970" stroke="#191970" points="666.6472,-385.2025 658.8478,-392.3733 669.4166,-391.6314 666.6472,-385.2025"/>
</g>
<!-- Node45 -->
<g id="node38" class="node">
<title>Node45</title>
<g id="a_node38"><a xlink:href="actuator__utils_8_h.html" target="_top" xlink:title="actuator_utils.H">
<polygon fill="#ffffff" stroke="#000000" points="631.5,-280.5 631.5,-299.5 717.5,-299.5 717.5,-280.5 631.5,-280.5"/>
<text text-anchor="middle" x="674.5" y="-287.5" font-family="Helvetica,sans-Serif" font-size="10.00" fill="#000000">actuator_utils.H</text>
</a>
</g>
</g>
<!-- Node8&#45;&gt;Node45 -->
<g id="edge68" class="edge">
<title>Node8&#45;&gt;Node45</title>
<path fill="none" stroke="#191970" d="M628.6626,-382.4921C624.4519,-368.9693 621.2744,-350.8043 627.5,-336 633.9619,-320.6339 648.3402,-307.8329 659.5035,-299.6692"/>
<polygon fill="#191970" stroke="#191970" points="625.4602,-383.9338 632.1011,-392.189 632.0577,-381.5943 625.4602,-383.9338"/>
</g>
<!-- Node10 -->
<g id="node3" class="node">
<title>Node10</title>
<g id="a_node3"><a xlink:href="tensor_i_8_h.html" target="_top" xlink:title="tensorI.H">
<polygon fill="#ffffff" stroke="#000000" points="452,-280.5 452,-299.5 509,-299.5 509,-280.5 452,-280.5"/>
<text text-anchor="middle" x="480.5" y="-287.5" font-family="Helvetica,sans-Serif" font-size="10.00" fill="#000000">tensorI.H</text>
</a>
</g>
</g>
<!-- Node9&#45;&gt;Node10 -->
<g id="edge2" class="edge">
<title>Node9&#45;&gt;Node10</title>
<path fill="none" stroke="#191970" d="M485.9801,-327.0437C482.3391,-317.8331 479.3023,-307.1598 478.3543,-299.6427"/>
<polygon fill="#191970" stroke="#191970" points="482.8185,-328.5474 490.0978,-336.2455 489.2079,-325.6881 482.8185,-328.5474"/>
</g>
<!-- Node9&#45;&gt;Node11 -->
<g id="edge4" class="edge">
<title>Node9&#45;&gt;Node11</title>
<path fill="none" stroke="#191970" d="M519.164,-329.928C531.7489,-320.1397 547.4092,-307.9595 558.1023,-299.6427"/>
<polygon fill="#191970" stroke="#191970" points="516.7862,-327.3434 511.0414,-336.2455 521.0838,-332.8688 516.7862,-327.3434"/>
</g>
<!-- Node10&#45;&gt;Node9 -->
<g id="edge3" class="edge">
<title>Node10&#45;&gt;Node9</title>
<path fill="none" stroke="#191970" d="M492.9658,-308.8197C496.6127,-318.0158 499.6628,-328.6973 500.6315,-336.2455"/>
<polygon fill="#191970" stroke="#191970" points="496.1341,-307.3312 488.8446,-299.6427 489.7485,-310.1989 496.1341,-307.3312"/>
</g>
<!-- Node12 -->
<g id="node5" class="node">
<title>Node12</title>
<g id="a_node5"><a xlink:href="_box_refiner_8_h.html" target="_top" xlink:title="BoxRefiner.H">
<polygon fill="#ffffff" stroke="#000000" points="1086.5,-224.5 1086.5,-243.5 1162.5,-243.5 1162.5,-224.5 1086.5,-224.5"/>
<text text-anchor="middle" x="1124.5" y="-231.5" font-family="Helvetica,sans-Serif" font-size="10.00" fill="#000000">BoxRefiner.H</text>
</a>
</g>
</g>
<!-- Node11&#45;&gt;Node12 -->
<g id="edge5" class="edge">
<title>Node11&#45;&gt;Node12</title>
<path fill="none" stroke="#191970" d="M623.5983,-279.9628C797.8679,-255.5721 844.0753,-259.715 1015.5,-244 1039.06,-241.8402 1065.4844,-239.416 1086.4148,-237.4954"/>
<polygon fill="#191970" stroke="#191970" points="622.9882,-276.5141 613.5754,-281.3771 623.9663,-283.4454 622.9882,-276.5141"/>
</g>
<!-- Node14 -->
<g id="node7" class="node">
<title>Node14</title>
<g id="a_node7"><a xlink:href="_cylinder_refiner_8_h.html" target="_top" xlink:title="CylinderRefiner.H">
<polygon fill="#ffffff" stroke="#000000" points="27,-224.5 27,-243.5 122,-243.5 122,-224.5 27,-224.5"/>
<text text-anchor="middle" x="74.5" y="-231.5" font-family="Helvetica,sans-Serif" font-size="10.00" fill="#000000">CylinderRefiner.H</text>
</a>
</g>
</g>
<!-- Node11&#45;&gt;Node14 -->
<g id="edge7" class="edge">
<title>Node11&#45;&gt;Node14</title>
<path fill="none" stroke="#191970" d="M517.8044,-280.0439C517.7029,-280.0292 517.6014,-280.0146 517.5,-280 357.0224,-256.9483 315.6162,-262.056 154.5,-244 144.0676,-242.8309 132.8814,-241.4885 122.2787,-240.1747"/>
<polygon fill="#191970" stroke="#191970" points="517.0335,-283.4658 527.454,-281.5515 518.1142,-276.5497 517.0335,-283.4658"/>
</g>
<!-- Node16 -->
<g id="node9" class="node">
<title>Node16</title>
<g id="a_node9"><a xlink:href="_act_parser_8_h.html" target="_top" xlink:title="ActParser.H">
<polygon fill="#ffffff" stroke="#000000" points="530,-224.5 530,-243.5 601,-243.5 601,-224.5 530,-224.5"/>
<text text-anchor="middle" x="565.5" y="-231.5" font-family="Helvetica,sans-Serif" font-size="10.00" fill="#000000">ActParser.H</text>
</a>
</g>
</g>
<!-- Node11&#45;&gt;Node16 -->
<g id="edge9" class="edge">
<title>Node11&#45;&gt;Node16</title>
<path fill="none" stroke="#191970" d="M568.7283,-270.1575C567.9246,-261.155 567.0107,-250.9199 566.361,-243.6427"/>
<polygon fill="#191970" stroke="#191970" points="565.2535,-270.5965 569.6291,-280.2455 572.2258,-269.9739 565.2535,-270.5965"/>
</g>
<!-- Node31 -->
<g id="node24" class="node">
<title>Node31</title>
<g id="a_node24"><a xlink:href="actuator__types_8_h.html" target="_top" xlink:title="actuator_types.H">
<polygon fill="#ffffff" stroke="#000000" points="701.5,-224.5 701.5,-243.5 793.5,-243.5 793.5,-224.5 701.5,-224.5"/>
<text text-anchor="middle" x="747.5" y="-231.5" font-family="Helvetica,sans-Serif" font-size="10.00" fill="#000000">actuator_types.H</text>
</a>
</g>
</g>
<!-- Node11&#45;&gt;Node31 -->
<g id="edge34" class="edge">
<title>Node11&#45;&gt;Node31</title>
<path fill="none" stroke="#191970" d="M610.5668,-277.3235C643.027,-267.0536 688.0493,-252.8093 717.4697,-243.5011"/>
<polygon fill="#191970" stroke="#191970" points="609.4058,-274.0197 600.9274,-280.3733 611.5174,-280.6937 609.4058,-274.0197"/>
</g>
<!-- Node40 -->
<g id="node33" class="node">
<title>Node40</title>
<g id="a_node33"><a xlink:href="_actuator_wing_8_h.html" target="_top" xlink:title="ActuatorWing.H">
<polygon fill="#ffffff" stroke="#000000" points="1035.5,-168.5 1035.5,-187.5 1121.5,-187.5 1121.5,-168.5 1035.5,-168.5"/>
<text text-anchor="middle" x="1078.5" y="-175.5" font-family="Helvetica,sans-Serif" font-size="10.00" fill="#000000">ActuatorWing.H</text>
</a>
</g>
</g>
<!-- Node11&#45;&gt;Node40 -->
<g id="edge63" class="edge">
<title>Node11&#45;&gt;Node40</title>
<path fill="none" stroke="#191970" d="M623.6525,-279.9235C749.979,-260.71 786.2387,-274.2267 906.5,-244 963.2653,-229.7325 1026.7662,-202.137 1058.3658,-187.559"/>
<polygon fill="#191970" stroke="#191970" points="622.9337,-276.4932 613.5928,-281.4931 624.0129,-283.4095 622.9337,-276.4932"/>
</g>
<!-- Node41 -->
<g id="node34" class="node">
<title>Node41</title>
<g id="a_node34"><a xlink:href="_actuator_container_8_h.html" target="_top" xlink:title="ActuatorContainer.H">
<polygon fill="#ffffff" stroke="#000000" points="163.5,-224.5 163.5,-243.5 269.5,-243.5 269.5,-224.5 163.5,-224.5"/>
<text text-anchor="middle" x="216.5" y="-231.5" font-family="Helvetica,sans-Serif" font-size="10.00" fill="#000000">ActuatorContainer.H</text>
</a>
</g>
</g>
<!-- Node11&#45;&gt;Node41 -->
<g id="edge60" class="edge">
<title>Node11&#45;&gt;Node41</title>
<path fill="none" stroke="#191970" d="M517.8032,-280.0518C517.702,-280.0345 517.601,-280.0172 517.5,-280 430.8673,-265.2119 329.8122,-250.2311 269.6034,-241.5445"/>
<polygon fill="#191970" stroke="#191970" points="516.9691,-283.4588 527.424,-281.7426 518.1807,-276.5644 516.9691,-283.4588"/>
</g>
<!-- Node13 -->
<g id="node6" class="node">
<title>Node13</title>
<g id="a_node6"><a xlink:href="_box_refiner_8cpp.html" target="_top" xlink:title="BoxRefiner.cpp">
<polygon fill="#ffffff" stroke="#000000" points="1139.5,-168.5 1139.5,-187.5 1223.5,-187.5 1223.5,-168.5 1139.5,-168.5"/>
<text text-anchor="middle" x="1181.5" y="-175.5" font-family="Helvetica,sans-Serif" font-size="10.00" fill="#000000">BoxRefiner.cpp</text>
</a>
</g>
</g>
<!-- Node12&#45;&gt;Node13 -->
<g id="edge6" class="edge">
<title>Node12&#45;&gt;Node13</title>
<path fill="none" stroke="#191970" d="M1141.7271,-217.0751C1151.5341,-207.4402 1163.464,-195.7196 1171.6851,-187.6427"/>
<polygon fill="#191970" stroke="#191970" points="1139.1091,-214.7406 1134.4286,-224.2455 1144.0149,-219.734 1139.1091,-214.7406"/>
</g>
<!-- Node15 -->
<g id="node8" class="node">
<title>Node15</title>
<g id="a_node8"><a xlink:href="_cylinder_refiner_8cpp.html" target="_top" xlink:title="CylinderRefiner.cpp">
<polygon fill="#ffffff" stroke="#000000" points="0,-168.5 0,-187.5 103,-187.5 103,-168.5 0,-168.5"/>
<text text-anchor="middle" x="51.5" y="-175.5" font-family="Helvetica,sans-Serif" font-size="10.00" fill="#000000">CylinderRefiner.cpp</text>
</a>
</g>
</g>
<!-- Node14&#45;&gt;Node15 -->
<g id="edge8" class="edge">
<title>Node14&#45;&gt;Node15</title>
<path fill="none" stroke="#191970" d="M66.5934,-214.7493C62.8383,-205.6064 58.5149,-195.0798 55.4604,-187.6427"/>
<polygon fill="#191970" stroke="#191970" points="63.4569,-216.3251 70.4937,-224.2455 69.932,-213.6656 63.4569,-216.3251"/>
</g>
<!-- Node17 -->
<g id="node10" class="node">
<title>Node17</title>
<g id="a_node10"><a xlink:href="actuator__ops_8_h.html" target="_top" xlink:title="actuator_ops.H">
<polygon fill="#ffffff" stroke="#000000" points="776,-168.5 776,-187.5 859,-187.5 859,-168.5 776,-168.5"/>
<text text-anchor="middle" x="817.5" y="-175.5" font-family="Helvetica,sans-Serif" font-size="10.00" fill="#000000">actuator_ops.H</text>
</a>
</g>
</g>
<!-- Node16&#45;&gt;Node17 -->
<g id="edge10" class="edge">
<title>Node16&#45;&gt;Node17</title>
<path fill="none" stroke="#191970" d="M610.9586,-223.8981C657.8512,-213.4775 730.3673,-197.3628 775.8222,-187.2617"/>
<polygon fill="#191970" stroke="#191970" points="610.0736,-220.5093 601.071,-226.0953 611.5921,-227.3426 610.0736,-220.5093"/>
</g>
<!-- Node19 -->
<g id="node12" class="node">
<title>Node19</title>
<g id="a_node12"><a xlink:href="_actuator_model_8_h.html" target="_top" xlink:title="ActuatorModel.H">
<polygon fill="#ffffff" stroke="#000000" points="619.5,-56.5 619.5,-75.5 709.5,-75.5 709.5,-56.5 619.5,-56.5"/>
<text text-anchor="middle" x="664.5" y="-63.5" font-family="Helvetica,sans-Serif" font-size="10.00" fill="#000000">ActuatorModel.H</text>
</a>
</g>
</g>
<!-- Node16&#45;&gt;Node19 -->
<g id="edge28" class="edge">
<title>Node16&#45;&gt;Node19</title>
<path fill="none" stroke="#191970" d="M562.9782,-214.4095C560.7135,-188.6147 560.4562,-142.9211 581.5,-112 593.5499,-94.2942 614.7652,-82.7087 632.7298,-75.5934"/>
<polygon fill="#191970" stroke="#191970" points="559.5076,-214.8711 564.053,-224.4413 566.4677,-214.1253 559.5076,-214.8711"/>
</g>
<!-- Node20 -->
<g id="node13" class="node">
<title>Node20</title>
<g id="a_node13"><a xlink:href="_actuator_8cpp.html" target="_top" xlink:title="Actuator.cpp">
<polygon fill="#ffffff" stroke="#000000" points="249.5,-.5 249.5,-19.5 321.5,-19.5 321.5,-.5 249.5,-.5"/>
<text text-anchor="middle" x="285.5" y="-7.5" font-family="Helvetica,sans-Serif" font-size="10.00" fill="#000000">Actuator.cpp</text>
</a>
</g>
</g>
<!-- Node16&#45;&gt;Node20 -->
<g id="edge29" class="edge">
<title>Node16&#45;&gt;Node20</title>
<path fill="none" stroke="#191970" d="M520.0682,-228.5937C480.3649,-222.5884 421.9668,-210.6 375.5,-188 339.3584,-170.4218 324.7732,-166.7017 304.5,-132 282.8739,-94.9825 283.4419,-41.3419 284.7252,-19.6456"/>
<polygon fill="#191970" stroke="#191970" points="519.5934,-232.0614 529.9914,-230.029 520.5955,-225.1335 519.5934,-232.0614"/>
</g>
<!-- Node28 -->
<g id="node21" class="node">
<title>Node28</title>
<g id="a_node21"><a xlink:href="wing__ops_8cpp.html" target="_top" xlink:title="wing_ops.cpp">
<polygon fill="#ffffff" stroke="#000000" points="796,-56.5 796,-75.5 873,-75.5 873,-56.5 796,-56.5"/>
<text text-anchor="middle" x="834.5" y="-63.5" font-family="Helvetica,sans-Serif" font-size="10.00" fill="#000000">wing_ops.cpp</text>
</a>
</g>
</g>
<!-- Node16&#45;&gt;Node28 -->
<g id="edge33" class="edge">
<title>Node16&#45;&gt;Node28</title>
<path fill="none" stroke="#191970" d="M573.7273,-215.1138C586.5318,-188.003 613.8373,-138.419 652.5,-112 675.5741,-96.233 749.4133,-80.9467 795.6447,-72.5732"/>
<polygon fill="#191970" stroke="#191970" points="570.499,-213.7578 569.5363,-224.3088 576.8686,-216.661 570.499,-213.7578"/>
</g>
<!-- Node29 -->
<g id="node22" class="node">
<title>Node29</title>
<g id="a_node22"><a xlink:href="turbine__utils_8_h.html" target="_top" xlink:title="turbine_utils.H">
<polygon fill="#ffffff" stroke="#000000" points="313.5,-112.5 313.5,-131.5 393.5,-131.5 393.5,-112.5 313.5,-112.5"/>
<text text-anchor="middle" x="353.5" y="-119.5" font-family="Helvetica,sans-Serif" font-size="10.00" fill="#000000">turbine_utils.H</text>
</a>
</g>
</g>
<!-- Node16&#45;&gt;Node29 -->
<g id="edge30" class="edge">
<title>Node16&#45;&gt;Node29</title>
<path fill="none" stroke="#191970" d="M519.6868,-229.8053C484.1669,-224.6602 435.1509,-213.2484 399.5,-188 378.7558,-173.3087 364.2574,-146.1481 357.6088,-131.6734"/>
<polygon fill="#191970" stroke="#191970" points="519.41,-233.2993 529.7852,-231.153 520.3361,-226.3608 519.41,-233.2993"/>
</g>
<!-- Node18 -->
<g id="node11" class="node">
<title>Node18</title>
<g id="a_node11"><a xlink:href="_act_src_op_8_h.html" target="_top" xlink:title="ActSrcOp.H">
<polygon fill="#ffffff" stroke="#000000" points="661.5,-112.5 661.5,-131.5 731.5,-131.5 731.5,-112.5 661.5,-112.5"/>
<text text-anchor="middle" x="696.5" y="-119.5" font-family="Helvetica,sans-Serif" font-size="10.00" fill="#000000">ActSrcOp.H</text>
</a>
</g>
</g>
<!-- Node17&#45;&gt;Node18 -->
<g id="edge11" class="edge">
<title>Node17&#45;&gt;Node18</title>
<path fill="none" stroke="#191970" d="M787.4896,-164.1109C765.5475,-153.9559 736.3612,-140.4482 717.0292,-131.5011"/>
<polygon fill="#191970" stroke="#191970" points="786.1541,-167.3494 796.6994,-168.3733 789.0942,-160.9968 786.1541,-167.3494"/>
</g>
<!-- Node17&#45;&gt;Node19 -->
<g id="edge17" class="edge">
<title>Node17&#45;&gt;Node19</title>
<path fill="none" stroke="#191970" d="M808.7303,-159.0877C801.1671,-144.547 789.0195,-124.8367 773.5,-112 752.3707,-94.5232 723.6365,-82.7647 700.9751,-75.5131"/>
<polygon fill="#191970" stroke="#191970" points="805.654,-160.7629 813.2191,-168.1804 811.9308,-157.6642 805.654,-160.7629"/>
</g>
<!-- Node24 -->
<g id="node17" class="node">
<title>Node24</title>
<g id="a_node17"><a xlink:href="turbine__fast__ops_8_h.html" target="_top" xlink:title="turbine_fast_ops.H">
<polygon fill="#ffffff" stroke="#000000" points="475,-56.5 475,-75.5 574,-75.5 574,-56.5 475,-56.5"/>
<text text-anchor="middle" x="524.5" y="-63.5" font-family="Helvetica,sans-Serif" font-size="10.00" fill="#000000">turbine_fast_ops.H</text>
</a>
</g>
</g>
<!-- Node17&#45;&gt;Node24 -->
<g id="edge18" class="edge">
<title>Node17&#45;&gt;Node24</title>
<path fill="none" stroke="#191970" d="M802.0217,-160.5108C787.6025,-145.3395 764.7362,-123.9845 740.5,-112 711.8022,-97.8093 628.6267,-82.5576 574.2624,-73.6681"/>
<polygon fill="#191970" stroke="#191970" points="799.7654,-163.227 809.1183,-168.2044 804.9108,-158.4808 799.7654,-163.227"/>
</g>
<!-- Node25 -->
<g id="node18" class="node">
<title>Node25</title>
<g id="a_node18"><a xlink:href="fixed__wing__ops_8_h.html" target="_top" xlink:title="fixed_wing_ops.H">
<polygon fill="#ffffff" stroke="#000000" points="1111,-56.5 1111,-75.5 1206,-75.5 1206,-56.5 1111,-56.5"/>
<text text-anchor="middle" x="1158.5" y="-63.5" font-family="Helvetica,sans-Serif" font-size="10.00" fill="#000000">fixed_wing_ops.H</text>
</a>
</g>
</g>
<!-- Node17&#45;&gt;Node25 -->
<g id="edge20" class="edge">
<title>Node17&#45;&gt;Node25</title>
<path fill="none" stroke="#191970" d="M832.3757,-160.2781C846.2867,-144.9517 868.4757,-123.4999 892.5,-112 930.2811,-93.915 1044.9877,-78.6585 1110.7746,-71.0977"/>
<polygon fill="#191970" stroke="#191970" points="829.5097,-158.2374 825.54,-168.0605 834.769,-162.857 829.5097,-158.2374"/>
</g>
<!-- Node26 -->
<g id="node19" class="node">
<title>Node26</title>
<g id="a_node19"><a xlink:href="wing__ops_8_h.html" target="_top" xlink:title="wing_ops.H">
<polygon fill="#ffffff" stroke="#000000" points="1100.5,-112.5 1100.5,-131.5 1168.5,-131.5 1168.5,-112.5 1100.5,-112.5"/>
<text text-anchor="middle" x="1134.5" y="-119.5" font-family="Helvetica,sans-Serif" font-size="10.00" fill="#000000">wing_ops.H</text>
</a>
</g>
</g>
<!-- Node17&#45;&gt;Node26 -->
<g id="edge22" class="edge">
<title>Node17&#45;&gt;Node26</title>
<path fill="none" stroke="#191970" d="M869.3241,-170.2826C924.5532,-161.8288 1014.4685,-147.4078 1091.5,-132 1094.3559,-131.4288 1097.3115,-130.8068 1100.2741,-130.1617"/>
<polygon fill="#191970" stroke="#191970" points="868.785,-166.8242 859.4262,-171.7905 869.8393,-173.7444 868.785,-166.8242"/>
</g>
<!-- Node27 -->
<g id="node20" class="node">
<title>Node27</title>
<g id="a_node20"><a xlink:href="flat__plate__ops_8_h.html" target="_top" xlink:title="flat_plate_ops.H">
<polygon fill="#ffffff" stroke="#000000" points="966.5,-56.5 966.5,-75.5 1054.5,-75.5 1054.5,-56.5 966.5,-56.5"/>
<text text-anchor="middle" x="1010.5" y="-63.5" font-family="Helvetica,sans-Serif" font-size="10.00" fill="#000000">flat_plate_ops.H</text>
</a>
</g>
</g>
<!-- Node17&#45;&gt;Node27 -->
<g id="edge27" class="edge">
<title>Node17&#45;&gt;Node27</title>
<path fill="none" stroke="#191970" d="M825.0909,-159.128C831.9791,-144.2875 843.5101,-124.1527 859.5,-112 890.7002,-88.2871 934.16,-76.7127 966.4478,-71.1149"/>
<polygon fill="#191970" stroke="#191970" points="821.8402,-157.8267 821.0662,-168.3932 828.2607,-160.6157 821.8402,-157.8267"/>
</g>
<!-- Node18&#45;&gt;Node19 -->
<g id="edge12" class="edge">
<title>Node18&#45;&gt;Node19</title>
<path fill="none" stroke="#191970" d="M685.8355,-103.3372C680.5346,-94.0605 674.3513,-83.2398 670.0101,-75.6427"/>
<polygon fill="#191970" stroke="#191970" points="682.9257,-105.2996 690.926,-112.2455 689.0034,-101.8266 682.9257,-105.2996"/>
</g>
<!-- Node19&#45;&gt;Node20 -->
<g id="edge13" class="edge">
<title>Node19&#45;&gt;Node20</title>
<path fill="none" stroke="#191970" d="M608.938,-57.7903C530.1124,-46.1433 388.0288,-25.1494 321.5864,-15.332"/>
<polygon fill="#191970" stroke="#191970" points="608.756,-61.3013 619.1602,-59.3007 609.7792,-54.3765 608.756,-61.3013"/>
</g>
<!-- Node21 -->
<g id="node14" class="node">
<title>Node21</title>
<g id="a_node14"><a xlink:href="_turbine_fast_8cpp.html" target="_top" xlink:title="TurbineFast.cpp">
<polygon fill="#ffffff" stroke="#000000" points="481,-.5 481,-19.5 568,-19.5 568,-.5 481,-.5"/>
<text text-anchor="middle" x="524.5" y="-7.5" font-family="Helvetica,sans-Serif" font-size="10.00" fill="#000000">TurbineFast.cpp</text>
</a>
</g>
</g>
<!-- Node19&#45;&gt;Node21 -->
<g id="edge14" class="edge">
<title>Node19&#45;&gt;Node21</title>
<path fill="none" stroke="#191970" d="M631.1351,-52.6541C605.6048,-42.4419 571.0216,-28.6086 548.2528,-19.5011"/>
<polygon fill="#191970" stroke="#191970" points="629.8485,-55.909 640.4331,-56.3733 632.4483,-49.4096 629.8485,-55.909"/>
</g>
<!-- Node22 -->
<g id="node15" class="node">
<title>Node22</title>
<g id="a_node15"><a xlink:href="_fixed_wing_8cpp.html" target="_top" xlink:title="FixedWing.cpp">
<polygon fill="#ffffff" stroke="#000000" points="1117.5,-.5 1117.5,-19.5 1199.5,-19.5 1199.5,-.5 1117.5,-.5"/>
<text text-anchor="middle" x="1158.5" y="-7.5" font-family="Helvetica,sans-Serif" font-size="10.00" fill="#000000">FixedWing.cpp</text>
</a>
</g>
</g>
<!-- Node19&#45;&gt;Node22 -->
<g id="edge15" class="edge">
<title>Node19&#45;&gt;Node22</title>
<path fill="none" stroke="#191970" d="M719.8596,-59.7244C819.9837,-48.3743 1028.9713,-24.6834 1117.4828,-14.6497"/>
<polygon fill="#191970" stroke="#191970" points="719.1909,-56.2777 709.6488,-60.8819 719.9794,-63.2332 719.1909,-56.2777"/>
</g>
<!-- Node23 -->
<g id="node16" class="node">
<title>Node23</title>
<g id="a_node16"><a xlink:href="_flat_plate_8cpp.html" target="_top" xlink:title="FlatPlate.cpp">
<polygon fill="#ffffff" stroke="#000000" points="973.5,-.5 973.5,-19.5 1047.5,-19.5 1047.5,-.5 973.5,-.5"/>
<text text-anchor="middle" x="1010.5" y="-7.5" font-family="Helvetica,sans-Serif" font-size="10.00" fill="#000000">FlatPlate.cpp</text>
</a>
</g>
</g>
<!-- Node19&#45;&gt;Node23 -->
<g id="edge16" class="edge">
<title>Node19&#45;&gt;Node23</title>
<path fill="none" stroke="#191970" d="M719.8501,-57.0416C790.9881,-45.5279 912.5611,-25.8514 973.454,-15.9959"/>
<polygon fill="#191970" stroke="#191970" points="719.0458,-53.6261 709.7335,-58.679 720.1642,-60.5362 719.0458,-53.6261"/>
</g>
<!-- Node24&#45;&gt;Node21 -->
<g id="edge19" class="edge">
<title>Node24&#45;&gt;Node21</title>
<path fill="none" stroke="#191970" d="M524.5,-46.1575C524.5,-37.155 524.5,-26.9199 524.5,-19.6427"/>
<polygon fill="#191970" stroke="#191970" points="521.0001,-46.2455 524.5,-56.2455 528.0001,-46.2456 521.0001,-46.2455"/>
</g>
<!-- Node25&#45;&gt;Node22 -->
<g id="edge21" class="edge">
<title>Node25&#45;&gt;Node22</title>
<path fill="none" stroke="#191970" d="M1158.5,-46.1575C1158.5,-37.155 1158.5,-26.9199 1158.5,-19.6427"/>
<polygon fill="#191970" stroke="#191970" points="1155.0001,-46.2455 1158.5,-56.2455 1162.0001,-46.2456 1155.0001,-46.2455"/>
</g>
<!-- Node26&#45;&gt;Node25 -->
<g id="edge23" class="edge">
<title>Node26&#45;&gt;Node25</title>
<path fill="none" stroke="#191970" d="M1142.6241,-103.0437C1146.5715,-93.8331 1151.1458,-83.1598 1154.3674,-75.6427"/>
<polygon fill="#191970" stroke="#191970" points="1139.4027,-101.6753 1138.6805,-112.2455 1145.8367,-104.4328 1139.4027,-101.6753"/>
</g>
<!-- Node26&#45;&gt;Node27 -->
<g id="edge24" class="edge">
<title>Node26&#45;&gt;Node27</title>
<path fill="none" stroke="#191970" d="M1104.0476,-108.2473C1081.5278,-98.0771 1051.4383,-84.4883 1031.5382,-75.5011"/>
<polygon fill="#191970" stroke="#191970" points="1102.6294,-111.4471 1113.1836,-112.3733 1105.5105,-105.0675 1102.6294,-111.4471"/>
</g>
<!-- Node26&#45;&gt;Node28 -->
<g id="edge26" class="edge">
<title>Node26&#45;&gt;Node28</title>
<path fill="none" stroke="#191970" d="M1090.4455,-111.858C1007.6215,-94.9899 921.8841,-80.3439 873.3691,-72.3177"/>
<polygon fill="#191970" stroke="#191970" points="1089.7681,-115.2918 1100.2673,-113.8718 1091.1741,-108.4345 1089.7681,-115.2918"/>
</g>
<!-- Node27&#45;&gt;Node23 -->
<g id="edge25" class="edge">
<title>Node27&#45;&gt;Node23</title>
<path fill="none" stroke="#191970" d="M1010.5,-46.1575C1010.5,-37.155 1010.5,-26.9199 1010.5,-19.6427"/>
<polygon fill="#191970" stroke="#191970" points="1007.0001,-46.2455 1010.5,-56.2455 1014.0001,-46.2456 1007.0001,-46.2455"/>
</g>
<!-- Node29&#45;&gt;Node24 -->
<g id="edge31" class="edge">
<title>Node29&#45;&gt;Node24</title>
<path fill="none" stroke="#191970" d="M392.6148,-109.1905C423.9432,-98.9309 467.1871,-84.7691 495.4876,-75.5011"/>
<polygon fill="#191970" stroke="#191970" points="391.31,-105.9348 382.8959,-112.3733 393.4886,-112.5872 391.31,-105.9348"/>
</g>
<!-- Node30 -->
<g id="node23" class="node">
<title>Node30</title>
<g id="a_node23"><a xlink:href="turbine__utils_8cpp.html" target="_top" xlink:title="turbine_utils.cpp">
<polygon fill="#ffffff" stroke="#000000" points="313.5,-56.5 313.5,-75.5 401.5,-75.5 401.5,-56.5 313.5,-56.5"/>
<text text-anchor="middle" x="357.5" y="-63.5" font-family="Helvetica,sans-Serif" font-size="10.00" fill="#000000">turbine_utils.cpp</text>
</a>
</g>
</g>
<!-- Node29&#45;&gt;Node30 -->
<g id="edge32" class="edge">
<title>Node29&#45;&gt;Node30</title>
<path fill="none" stroke="#191970" d="M354.9173,-102.1575C355.5604,-93.155 356.2914,-82.9199 356.8112,-75.6427"/>
<polygon fill="#191970" stroke="#191970" points="351.4182,-102.0216 354.1967,-112.2455 358.4004,-102.5204 351.4182,-102.0216"/>
</g>
<!-- Node31&#45;&gt;Node17 -->
<g id="edge36" class="edge">
<title>Node31&#45;&gt;Node17</title>
<path fill="none" stroke="#191970" d="M767.59,-217.928C779.8253,-208.1397 795.0507,-195.9595 805.4467,-187.6427"/>
<polygon fill="#191970" stroke="#191970" points="765.3153,-215.2655 759.6931,-224.2455 769.6882,-220.7316 765.3153,-215.2655"/>
</g>
<!-- Node31&#45;&gt;Node18 -->
<g id="edge35" class="edge">
<title>Node31&#45;&gt;Node18</title>
<path fill="none" stroke="#191970" d="M741.5524,-214.8167C737.159,-201.4422 730.7086,-183.3211 723.5,-168 717.3499,-154.9287 708.6691,-140.7065 702.8257,-131.5899"/>
<polygon fill="#191970" stroke="#191970" points="738.2311,-215.9216 744.6101,-224.3809 744.8986,-213.79 738.2311,-215.9216"/>
</g>
<!-- Node31&#45;&gt;Node19 -->
<g id="edge37" class="edge">
<title>Node31&#45;&gt;Node19</title>
<path fill="none" stroke="#191970" d="M725.1601,-218.2708C701.9526,-200.4206 667.0378,-168.9395 652.5,-132 644.9935,-112.9267 653.4803,-88.8839 659.5176,-75.7197"/>
<polygon fill="#191970" stroke="#191970" points="723.3061,-221.2543 733.4145,-224.4277 727.4913,-215.6432 723.3061,-221.2543"/>
</g>
<!-- Node31&#45;&gt;Node26 -->
<g id="edge59" class="edge">
<title>Node31&#45;&gt;Node26</title>
<path fill="none" stroke="#191970" d="M803.9148,-223.6651C872.3675,-211.0607 979.7878,-191.048 988.5,-188 1006.5146,-181.6976 1009.2617,-176.1907 1026.5,-168 1055.0319,-154.4432 1088.6054,-140.4396 1110.6559,-131.5001"/>
<polygon fill="#191970" stroke="#191970" points="802.9012,-220.2928 793.6995,-225.5444 804.1678,-227.1772 802.9012,-220.2928"/>
</g>
<!-- Node32 -->
<g id="node25" class="node">
<title>Node32</title>
<g id="a_node25"><a xlink:href="actuator__utils_8cpp.html" target="_top" xlink:title="actuator_utils.cpp">
<polygon fill="#ffffff" stroke="#000000" points="1241.5,-168.5 1241.5,-187.5 1335.5,-187.5 1335.5,-168.5 1241.5,-168.5"/>
<text text-anchor="middle" x="1288.5" y="-175.5" font-family="Helvetica,sans-Serif" font-size="10.00" fill="#000000">actuator_utils.cpp</text>
</a>
</g>
</g>
<!-- Node31&#45;&gt;Node32 -->
<g id="edge38" class="edge">
<title>Node31&#45;&gt;Node32</title>
<path fill="none" stroke="#191970" d="M803.7337,-223.9524C994.3597,-199.2869 1045.5913,-212.4583 1232.5,-188 1235.4378,-187.6156 1238.456,-187.1839 1241.4956,-186.7214"/>
<polygon fill="#191970" stroke="#191970" points="803.1223,-220.5025 793.6626,-225.2737 804.033,-227.443 803.1223,-220.5025"/>
</g>
<!-- Node33 -->
<g id="node26" class="node">
<title>Node33</title>
<g id="a_node26"><a xlink:href="_airfoil_table_8_h.html" target="_top" xlink:title="AirfoilTable.H">
<polygon fill="#ffffff" stroke="#000000" points="903.5,-168.5 903.5,-187.5 979.5,-187.5 979.5,-168.5 903.5,-168.5"/>
<text text-anchor="middle" x="941.5" y="-175.5" font-family="Helvetica,sans-Serif" font-size="10.00" fill="#000000">AirfoilTable.H</text>
</a>
</g>
</g>
<!-- Node31&#45;&gt;Node33 -->
<g id="edge39" class="edge">
<title>Node31&#45;&gt;Node33</title>
<path fill="none" stroke="#191970" d="M790.498,-221.5882C826.1408,-211.2996 876.0614,-196.8895 908.5854,-187.5011"/>
<polygon fill="#191970" stroke="#191970" points="789.4868,-218.2371 780.8498,-224.3733 791.4282,-224.9625 789.4868,-218.2371"/>
</g>
<!-- Node38 -->
<g id="node31" class="node">
<title>Node38</title>
<g id="a_node31"><a xlink:href="turbine__types_8_h.html" target="_top" xlink:title="turbine_types.H">
<polygon fill="#ffffff" stroke="#000000" points="408.5,-168.5 408.5,-187.5 494.5,-187.5 494.5,-168.5 408.5,-168.5"/>
<text text-anchor="middle" x="451.5" y="-175.5" font-family="Helvetica,sans-Serif" font-size="10.00" fill="#000000">turbine_types.H</text>
</a>
</g>
</g>
<!-- Node31&#45;&gt;Node38 -->
<g id="edge50" class="edge">
<title>Node31&#45;&gt;Node38</title>
<path fill="none" stroke="#191970" d="M691.2792,-223.3636C634.0276,-212.5322 546.5027,-195.9735 494.5409,-186.1429"/>
<polygon fill="#191970" stroke="#191970" points="690.7736,-226.83 701.25,-225.25 692.0749,-219.952 690.7736,-226.83"/>
</g>
<!-- Node31&#45;&gt;Node40 -->
<g id="edge55" class="edge">
<title>Node31&#45;&gt;Node40</title>
<path fill="none" stroke="#191970" d="M803.702,-223.8133C901.3529,-206.9913 927.3879,-203.9902 1021.5,-188 1025.9573,-187.2427 1030.6088,-186.4426 1035.2485,-185.6382"/>
<polygon fill="#191970" stroke="#191970" points="802.9615,-220.3893 793.7034,-225.5408 804.1533,-227.2872 802.9615,-220.3893"/>
</g>
<!-- Node33&#45;&gt;Node26 -->
<g id="edge46" class="edge">
<title>Node33&#45;&gt;Node26</title>
<path fill="none" stroke="#191970" d="M984.7317,-165.4561C1020.1596,-155.1765 1069.537,-140.8494 1101.7551,-131.5011"/>
<polygon fill="#191970" stroke="#191970" points="983.3064,-162.2252 974.6779,-168.3733 985.2571,-168.9479 983.3064,-162.2252"/>
</g>
<!-- Node34 -->
<g id="node27" class="node">
<title>Node34</title>
<g id="a_node27"><a xlink:href="_airfoil_table_8cpp.html" target="_top" xlink:title="AirfoilTable.cpp">
<polygon fill="#ffffff" stroke="#000000" points="998.5,-112.5 998.5,-131.5 1082.5,-131.5 1082.5,-112.5 998.5,-112.5"/>
<text text-anchor="middle" x="1040.5" y="-119.5" font-family="Helvetica,sans-Serif" font-size="10.00" fill="#000000">AirfoilTable.cpp</text>
</a>
</g>
</g>
<!-- Node33&#45;&gt;Node34 -->
<g id="edge40" class="edge">
<title>Node33&#45;&gt;Node34</title>
<path fill="none" stroke="#191970" d="M967.9357,-163.0465C985.5508,-153.0824 1008.1847,-140.2794 1023.4531,-131.6427"/>
<polygon fill="#191970" stroke="#191970" points="965.7253,-160.2756 958.7445,-168.2455 969.1717,-166.3684 965.7253,-160.2756"/>
</g>
<!-- Node35 -->
<g id="node28" class="node">
<title>Node35</title>
<g id="a_node28"><a xlink:href="_airfoil_table_i_8_h.html" target="_top" xlink:title="AirfoilTableI.H">
<polygon fill="#ffffff" stroke="#000000" points="902,-112.5 902,-131.5 981,-131.5 981,-112.5 902,-112.5"/>
<text text-anchor="middle" x="941.5" y="-119.5" font-family="Helvetica,sans-Serif" font-size="10.00" fill="#000000">AirfoilTableI.H</text>
</a>
</g>
</g>
<!-- Node33&#45;&gt;Node35 -->
<g id="edge41" class="edge">
<title>Node33&#45;&gt;Node35</title>
<path fill="none" stroke="#191970" d="M935.0113,-158.1575C934.419,-149.155 934.8335,-138.9199 936.2549,-131.6427"/>
<polygon fill="#191970" stroke="#191970" points="931.5561,-158.739 936.2332,-168.2455 938.5053,-157.8972 931.5561,-158.739"/>
</g>
<!-- Node36 -->
<g id="node29" class="node">
<title>Node36</title>
<g id="a_node29"><a xlink:href="_fixed_wing_8_h.html" target="_top" xlink:title="FixedWing.H">
<polygon fill="#ffffff" stroke="#000000" points="1270.5,-112.5 1270.5,-131.5 1344.5,-131.5 1344.5,-112.5 1270.5,-112.5"/>
<text text-anchor="middle" x="1307.5" y="-119.5" font-family="Helvetica,sans-Serif" font-size="10.00" fill="#000000">FixedWing.H</text>
</a>
</g>
</g>
<!-- Node33&#45;&gt;Node36 -->
<g id="edge43" class="edge">
<title>Node33&#45;&gt;Node36</title>
<path fill="none" stroke="#191970" d="M989.5717,-172.1755C1052.3276,-164.3236 1165.4876,-149.3143 1261.5,-132 1264.3954,-131.4779 1267.3862,-130.9048 1270.3882,-130.3055"/>
<polygon fill="#191970" stroke="#191970" points="989.0625,-168.7118 979.5711,-173.4195 989.9266,-175.6583 989.0625,-168.7118"/>
</g>
<!-- Node37 -->
<g id="node30" class="node">
<title>Node37</title>
<g id="a_node30"><a xlink:href="_flat_plate_8_h.html" target="_top" xlink:title="FlatPlate.H">
<polygon fill="#ffffff" stroke="#000000" points="1186.5,-112.5 1186.5,-131.5 1252.5,-131.5 1252.5,-112.5 1186.5,-112.5"/>
<text text-anchor="middle" x="1219.5" y="-119.5" font-family="Helvetica,sans-Serif" font-size="10.00" fill="#000000">FlatPlate.H</text>
</a>
</g>
</g>
<!-- Node33&#45;&gt;Node37 -->
<g id="edge47" class="edge">
<title>Node33&#45;&gt;Node37</title>
<path fill="none" stroke="#191970" d="M989.6708,-169.2127C1037.4489,-160.3554 1112.6932,-146.0248 1177.5,-132 1180.2838,-131.3976 1183.1667,-130.7536 1186.0577,-130.0938"/>
<polygon fill="#191970" stroke="#191970" points="988.8095,-165.8125 979.6121,-171.0717 990.0817,-172.6959 988.8095,-165.8125"/>
</g>
<!-- Node35&#45;&gt;Node33 -->
<g id="edge42" class="edge">
<title>Node35&#45;&gt;Node33</title>
<path fill="none" stroke="#191970" d="M947.9795,-141.7046C948.5821,-150.6944 948.1779,-160.9382 946.7668,-168.2455"/>
<polygon fill="#191970" stroke="#191970" points="951.4368,-141.1421 946.7451,-131.6427 944.4889,-141.9945 951.4368,-141.1421"/>
</g>
<!-- Node36&#45;&gt;Node22 -->
<g id="edge45" class="edge">
<title>Node36&#45;&gt;Node22</title>
<path fill="none" stroke="#191970" d="M1286.72,-106.3802C1255.3593,-82.807 1196.8753,-38.8459 1171.1715,-19.5249"/>
<polygon fill="#191970" stroke="#191970" points="1284.6997,-109.2401 1294.7963,-112.4509 1288.9058,-103.6446 1284.6997,-109.2401"/>
</g>
<!-- Node36&#45;&gt;Node25 -->
<g id="edge44" class="edge">
<title>Node36&#45;&gt;Node25</title>
<path fill="none" stroke="#191970" d="M1272.3488,-108.7888C1245.1432,-98.5639 1208.1191,-84.6488 1183.7798,-75.5011"/>
<polygon fill="#191970" stroke="#191970" points="1271.2939,-112.1313 1281.886,-112.3733 1273.7566,-105.5788 1271.2939,-112.1313"/>
</g>
<!-- Node37&#45;&gt;Node23 -->
<g id="edge49" class="edge">
<title>Node37&#45;&gt;Node23</title>
<path fill="none" stroke="#191970" d="M1179.7417,-109.1362C1156.5738,-100.9681 1127.1578,-89.4211 1102.5,-76 1071.4223,-59.0846 1038.5642,-33.3271 1021.7938,-19.5244"/>
<polygon fill="#191970" stroke="#191970" points="1178.6614,-112.4659 1189.2562,-112.4255 1180.9487,-105.8501 1178.6614,-112.4659"/>
</g>
<!-- Node37&#45;&gt;Node27 -->
<g id="edge48" class="edge">
<title>Node37&#45;&gt;Node27</title>
<path fill="none" stroke="#191970" d="M1176.513,-110.4819C1138.0544,-100.1773 1082.3365,-85.2481 1046.2613,-75.582"/>
<polygon fill="#191970" stroke="#191970" points="1175.8182,-113.9192 1186.3833,-113.1266 1177.6299,-107.1577 1175.8182,-113.9192"/>
</g>
<!-- Node38&#45;&gt;Node29 -->
<g id="edge54" class="edge">
<title>Node38&#45;&gt;Node29</title>
<path fill="none" stroke="#191970" d="M425.3314,-163.0465C407.8942,-153.0824 385.4889,-140.2794 370.3747,-131.6427"/>
<polygon fill="#191970" stroke="#191970" points="424.0108,-166.323 434.4297,-168.2455 427.4838,-160.2453 424.0108,-166.323"/>
</g>
<!-- Node39 -->
<g id="node32" class="node">
<title>Node39</title>
<g id="a_node32"><a xlink:href="_turbine_fast_8_h.html" target="_top" xlink:title="TurbineFast.H">
<polygon fill="#ffffff" stroke="#000000" points="412,-112.5 412,-131.5 491,-131.5 491,-112.5 412,-112.5"/>
<text text-anchor="middle" x="451.5" y="-119.5" font-family="Helvetica,sans-Serif" font-size="10.00" fill="#000000">TurbineFast.H</text>
</a>
</g>
</g>
<!-- Node38&#45;&gt;Node39 -->
<g id="edge51" class="edge">
<title>Node38&#45;&gt;Node39</title>
<path fill="none" stroke="#191970" d="M451.5,-158.1575C451.5,-149.155 451.5,-138.9199 451.5,-131.6427"/>
<polygon fill="#191970" stroke="#191970" points="448.0001,-158.2455 451.5,-168.2455 455.0001,-158.2456 448.0001,-158.2455"/>
</g>
<!-- Node39&#45;&gt;Node21 -->
<g id="edge53" class="edge">
<title>Node39&#45;&gt;Node21</title>
<path fill="none" stroke="#191970" d="M452.1891,-101.9127C453.4794,-88.0928 456.8642,-69.8111 465.5,-56 475.4159,-40.1417 492.8444,-27.5693 506.1964,-19.6038"/>
<polygon fill="#191970" stroke="#191970" points="448.6718,-102.0735 451.5285,-112.2759 455.6576,-102.5188 448.6718,-102.0735"/>
</g>
<!-- Node39&#45;&gt;Node24 -->
<g id="edge52" class="edge">
<title>Node39&#45;&gt;Node24</title>
<path fill="none" stroke="#191970" d="M472.451,-105.928C485.2107,-96.1397 501.0885,-83.9595 511.9301,-75.6427"/>
<polygon fill="#191970" stroke="#191970" points="470.0196,-103.3819 464.2156,-112.2455 474.2803,-108.9359 470.0196,-103.3819"/>
</g>
<!-- Node40&#45;&gt;Node26 -->
<g id="edge57" class="edge">
<title>Node40&#45;&gt;Node26</title>
<path fill="none" stroke="#191970" d="M1095.4249,-161.0751C1105.0598,-151.4402 1116.7804,-139.7196 1124.8573,-131.6427"/>
<polygon fill="#191970" stroke="#191970" points="1092.8507,-158.6996 1088.2545,-168.2455 1097.8004,-163.6493 1092.8507,-158.6996"/>
</g>
<!-- Node40&#45;&gt;Node36 -->
<g id="edge56" class="edge">
<title>Node40&#45;&gt;Node36</title>
<path fill="none" stroke="#191970" d="M1127.5317,-166.0097C1170.3636,-155.5355 1231.6033,-140.5599 1270.4512,-131.06"/>
<polygon fill="#191970" stroke="#191970" points="1126.4887,-162.6616 1117.6063,-168.4369 1128.1515,-169.4612 1126.4887,-162.6616"/>
</g>
<!-- Node40&#45;&gt;Node37 -->
<g id="edge58" class="edge">
<title>Node40&#45;&gt;Node37</title>
<path fill="none" stroke="#191970" d="M1112.1032,-164.6541C1137.8159,-154.4419 1172.6461,-140.6086 1195.5775,-131.5011"/>
<polygon fill="#191970" stroke="#191970" points="1110.7407,-161.4292 1102.7388,-168.3733 1113.3245,-167.9349 1110.7407,-161.4292"/>
</g>
<!-- Node41&#45;&gt;Node20 -->
<g id="edge61" class="edge">
<title>Node41&#45;&gt;Node20</title>
<path fill="none" stroke="#191970" d="M183.6056,-219.5194C170.8523,-212.074 157.6245,-201.6498 150.5,-188 146.387,-180.1199 147.4226,-176.3392 150.5,-168 175.4825,-100.303 243.8273,-41.947 272.5327,-19.6557"/>
<polygon fill="#191970" stroke="#191970" points="182.2492,-222.7638 192.7141,-224.4178 185.5647,-216.5988 182.2492,-222.7638"/>
</g>
<!-- Node42 -->
<g id="node35" class="node">
<title>Node42</title>
<g id="a_node35"><a xlink:href="_actuator_container_8cpp.html" target="_top" xlink:title="ActuatorContainer.cpp">
<polygon fill="#ffffff" stroke="#000000" points="159.5,-168.5 159.5,-187.5 273.5,-187.5 273.5,-168.5 159.5,-168.5"/>
<text text-anchor="middle" x="216.5" y="-175.5" font-family="Helvetica,sans-Serif" font-size="10.00" fill="#000000">ActuatorContainer.cpp</text>
</a>
</g>
</g>
<!-- Node41&#45;&gt;Node42 -->
<g id="edge62" class="edge">
<title>Node41&#45;&gt;Node42</title>
<path fill="none" stroke="#191970" d="M216.5,-214.1575C216.5,-205.155 216.5,-194.9199 216.5,-187.6427"/>
<polygon fill="#191970" stroke="#191970" points="213.0001,-214.2455 216.5,-224.2455 220.0001,-214.2456 213.0001,-214.2455"/>
</g>
<!-- Node43&#45;&gt;Node8 -->
<g id="edge65" class="edge">
<title>Node43&#45;&gt;Node8</title>
<path fill="none" stroke="#191970" d="M662.0401,-365.1137C657.9737,-374.2427 652.1276,-384.7776 646.8183,-392.2455"/>
<polygon fill="#191970" stroke="#191970" points="665.3617,-366.2303 665.7516,-355.6427 658.8442,-363.6763 665.3617,-366.2303"/>
</g>
<!-- Node45&#45;&gt;Node18 -->
<g id="edge71" class="edge">
<title>Node45&#45;&gt;Node18</title>
<path fill="none" stroke="#191970" d="M677.085,-270.2601C681.8115,-234.1669 691.6855,-158.7656 695.213,-131.8279"/>
<polygon fill="#191970" stroke="#191970" points="673.574,-270.1164 675.7458,-280.4862 680.5147,-271.0254 673.574,-270.1164"/>
</g>
<!-- Node45&#45;&gt;Node24 -->
<g id="edge73" class="edge">
<title>Node45&#45;&gt;Node24</title>
<path fill="none" stroke="#191970" d="M662.3498,-271.8557C632.0372,-226.5889 553.8654,-109.8524 530.9213,-75.5891"/>
<polygon fill="#191970" stroke="#191970" points="659.5824,-274.0134 668.0547,-280.375 665.3987,-270.1185 659.5824,-274.0134"/>
</g>
<!-- Node45&#45;&gt;Node32 -->
<g id="edge72" class="edge">
<title>Node45&#45;&gt;Node32</title>
<path fill="none" stroke="#191970" d="M727.9001,-287.8822C838.6625,-283.03 1089.8749,-269.5136 1171.5,-244 1212.4574,-231.1979 1254.9809,-202.7031 1275.6606,-187.6875"/>
<polygon fill="#191970" stroke="#191970" points="727.47,-284.3974 717.63,-288.3248 727.7714,-291.3909 727.47,-284.3974"/>
</g>
<!-- Node46 -->
<g id="node39" class="node">
<title>Node46</title>
<g id="a_node39"><a xlink:href="actuator__ops_i_8_h.html" target="_top" xlink:title="actuator_opsI.H">
<polygon fill="#ffffff" stroke="#000000" points="811.5,-224.5 811.5,-243.5 897.5,-243.5 897.5,-224.5 811.5,-224.5"/>
<text text-anchor="middle" x="854.5" y="-231.5" font-family="Helvetica,sans-Serif" font-size="10.00" fill="#000000">actuator_opsI.H</text>
</a>
</g>
</g>
<!-- Node45&#45;&gt;Node46 -->
<g id="edge69" class="edge">
<title>Node45&#45;&gt;Node46</title>
<path fill="none" stroke="#191970" d="M715.2459,-277.3235C748.2563,-267.0536 794.0417,-252.8093 823.9607,-243.5011"/>
<polygon fill="#191970" stroke="#191970" points="713.9519,-274.0605 705.4431,-280.3733 716.0314,-280.7445 713.9519,-274.0605"/>
</g>
<!-- Node46&#45;&gt;Node17 -->
<g id="edge70" class="edge">
<title>Node46&#45;&gt;Node17</title>
<path fill="none" stroke="#191970" d="M842.3624,-215.6296C836.1907,-206.2887 828.9434,-195.3197 823.8711,-187.6427"/>
<polygon fill="#191970" stroke="#191970" points="839.6223,-217.8316 848.0551,-224.2455 845.4627,-213.9728 839.6223,-217.8316"/>
</g>
</g>
</svg>
