<?xml version="1.0" encoding="UTF-8" standalone="no"?>
<!DOCTYPE svg PUBLIC "-//W3C//DTD SVG 1.1//EN"
 "http://www.w3.org/Graphics/SVG/1.1/DTD/svg11.dtd">
<!-- Generated by graphviz version 2.40.1 (20161225.0304)
 -->
<!-- Title: velocity_bcs.H Pages: 1 -->
<svg width="2282pt" height="263pt"
 viewBox="0.00 0.00 2282.22 263.00" xmlns="http://www.w3.org/2000/svg" xmlns:xlink="http://www.w3.org/1999/xlink">
<g id="graph0" class="graph" transform="scale(1 1) rotate(0) translate(4 259)">
<title>velocity_bcs.H</title>
<polygon fill="#ffffff" stroke="transparent" points="-4,4 -4,-259 2278.2224,-259 2278.2224,4 -4,4"/>
<!-- Node0 -->
<g id="node1" class="node">
<title>Node0</title>
<polygon fill="#bfbfbf" stroke="#000000" points="1800.7224,-235.5 1800.7224,-254.5 1882.7224,-254.5 1882.7224,-235.5 1800.7224,-235.5"/>
<text text-anchor="middle" x="1841.7224" y="-242.5" font-family="Helvetica,sans-Serif" font-size="10.00" fill="#000000">velocity_bcs.H</text>
</g>
<!-- Node1 -->
<g id="node2" class="node">
<title>Node1</title>
<g id="a_node2"><a xlink:href="_field_b_c_ops_8_h.html" target="_top" xlink:title="amr&#45;wind/core/FieldBCOps.H">
<polygon fill="#ffffff" stroke="#000000" points="1820.2224,-174 1820.2224,-193 1965.2224,-193 1965.2224,-174 1820.2224,-174"/>
<text text-anchor="middle" x="1892.7224" y="-181" font-family="Helvetica,sans-Serif" font-size="10.00" fill="#000000">amr&#45;wind/core/FieldBCOps.H</text>
</a>
</g>
</g>
<!-- Node0&#45;&gt;Node1 -->
<g id="edge1" class="edge">
<title>Node0&#45;&gt;Node1</title>
<path fill="none" stroke="#191970" d="M1849.6912,-235.3906C1857.2815,-226.2376 1868.8885,-212.2409 1878.1356,-201.09"/>
<polygon fill="#191970" stroke="#191970" points="1880.9521,-203.1766 1884.6413,-193.2449 1875.5638,-198.7083 1880.9521,-203.1766"/>
</g>
<!-- Node17 -->
<g id="node18" class="node">
<title>Node17</title>
<g id="a_node18"><a xlink:href="_field_fill_patch_ops_8_h.html" target="_top" xlink:title="amr&#45;wind/core/FieldFillPatch\lOps.H">
<polygon fill="#ffffff" stroke="#000000" points="1419.7224,-168.5 1419.7224,-198.5 1559.7224,-198.5 1559.7224,-168.5 1419.7224,-168.5"/>
<text text-anchor="start" x="1427.7224" y="-186.5" font-family="Helvetica,sans-Serif" font-size="10.00" fill="#000000">amr&#45;wind/core/FieldFillPatch</text>
<text text-anchor="middle" x="1489.7224" y="-175.5" font-family="Helvetica,sans-Serif" font-size="10.00" fill="#000000">Ops.H</text>
</a>
</g>
</g>
<!-- Node0&#45;&gt;Node17 -->
<g id="edge22" class="edge">
<title>Node0&#45;&gt;Node17</title>
<path fill="none" stroke="#191970" d="M1800.6547,-237.8248C1744.2754,-227.9745 1641.7293,-210.058 1569.8653,-197.5022"/>
<polygon fill="#191970" stroke="#191970" points="1570.3898,-194.0409 1559.9366,-195.7675 1569.185,-200.9365 1570.3898,-194.0409"/>
</g>
<!-- Node18 -->
<g id="node19" class="node">
<title>Node18</title>
<g id="a_node19"><a xlink:href="_sim_time_8_h.html" target="_top" xlink:title="amr&#45;wind/core/SimTime.H">
<polygon fill="#ffffff" stroke="#000000" points="1726.2224,-112.5 1726.2224,-131.5 1857.2224,-131.5 1857.2224,-112.5 1726.2224,-112.5"/>
<text text-anchor="middle" x="1791.7224" y="-119.5" font-family="Helvetica,sans-Serif" font-size="10.00" fill="#000000">amr&#45;wind/core/SimTime.H</text>
</a>
</g>
</g>
<!-- Node0&#45;&gt;Node18 -->
<g id="edge58" class="edge">
<title>Node0&#45;&gt;Node18</title>
<path fill="none" stroke="#191970" d="M1834.0558,-235.3079C1827.3071,-226.3489 1817.6561,-212.4306 1811.7224,-199 1803.5481,-180.4977 1798.181,-157.9646 1795.0845,-142.0681"/>
<polygon fill="#191970" stroke="#191970" points="1798.4537,-141.0322 1793.2233,-131.8184 1791.5663,-142.2828 1798.4537,-141.0322"/>
</g>
<!-- Node26 -->
<g id="node27" class="node">
<title>Node26</title>
<g id="a_node27"><a xlink:href="_field_repo_8_h.html" target="_top" xlink:title="amr&#45;wind/core/FieldRepo.H">
<polygon fill="#ffffff" stroke="#000000" points="535.7224,-174 535.7224,-193 671.7224,-193 671.7224,-174 535.7224,-174"/>
<text text-anchor="middle" x="603.7224" y="-181" font-family="Helvetica,sans-Serif" font-size="10.00" fill="#000000">amr&#45;wind/core/FieldRepo.H</text>
</a>
</g>
</g>
<!-- Node0&#45;&gt;Node26 -->
<g id="edge38" class="edge">
<title>Node0&#45;&gt;Node26</title>
<path fill="none" stroke="#191970" d="M1800.532,-242.9538C1622.7662,-234.1229 919.6128,-199.1925 682.3701,-187.407"/>
<polygon fill="#191970" stroke="#191970" points="682.2629,-183.8974 672.1016,-186.8969 681.9156,-190.8888 682.2629,-183.8974"/>
</g>
<!-- Node30 -->
<g id="node31" class="node">
<title>Node30</title>
<g id="a_node31"><a xlink:href="_linear_profile_8_h.html" target="_top" xlink:title="amr&#45;wind/physics/udfs\l/LinearProfile.H">
<polygon fill="#ffffff" stroke="#000000" points="2159.2224,-168.5 2159.2224,-198.5 2274.2224,-198.5 2274.2224,-168.5 2159.2224,-168.5"/>
<text text-anchor="start" x="2167.2224" y="-186.5" font-family="Helvetica,sans-Serif" font-size="10.00" fill="#000000">amr&#45;wind/physics/udfs</text>
<text text-anchor="middle" x="2216.7224" y="-175.5" font-family="Helvetica,sans-Serif" font-size="10.00" fill="#000000">/LinearProfile.H</text>
</a>
</g>
</g>
<!-- Node0&#45;&gt;Node30 -->
<g id="edge59" class="edge">
<title>Node0&#45;&gt;Node30</title>
<path fill="none" stroke="#191970" d="M1882.8917,-239.975C1940.3762,-232.7168 2048.1385,-218.2339 2149.1258,-199.2219"/>
<polygon fill="#191970" stroke="#191970" points="2150.0198,-202.6147 2159.1896,-197.3077 2148.7117,-195.738 2150.0198,-202.6147"/>
</g>
<!-- Node31 -->
<g id="node32" class="node">
<title>Node31</title>
<g id="a_node32"><a xlink:href="_power_law_profile_8_h.html" target="_top" xlink:title="amr&#45;wind/physics/udfs\l/PowerLawProfile.H">
<polygon fill="#ffffff" stroke="#000000" points="2026.2224,-168.5 2026.2224,-198.5 2141.2224,-198.5 2141.2224,-168.5 2026.2224,-168.5"/>
<text text-anchor="start" x="2034.2224" y="-186.5" font-family="Helvetica,sans-Serif" font-size="10.00" fill="#000000">amr&#45;wind/physics/udfs</text>
<text text-anchor="middle" x="2083.7224" y="-175.5" font-family="Helvetica,sans-Serif" font-size="10.00" fill="#000000">/PowerLawProfile.H</text>
</a>
</g>
</g>
<!-- Node0&#45;&gt;Node31 -->
<g id="edge62" class="edge">
<title>Node0&#45;&gt;Node31</title>
<path fill="none" stroke="#191970" d="M1879.2694,-235.4581C1915.68,-226.205 1971.7472,-211.9565 2015.9652,-200.7193"/>
<polygon fill="#191970" stroke="#191970" points="2016.951,-204.0801 2025.7808,-198.2248 2015.2268,-197.2958 2016.951,-204.0801"/>
</g>
<!-- Node2 -->
<g id="node3" class="node">
<title>Node2</title>
<g id="a_node3"><a xlink:href="_field_desc_types_8_h.html" target="_top" xlink:title="amr&#45;wind/core/FieldDescTypes.H">
<polygon fill="#ffffff" stroke="#000000" points="647.2224,-.5 647.2224,-19.5 810.2224,-19.5 810.2224,-.5 647.2224,-.5"/>
<text text-anchor="middle" x="728.7224" y="-7.5" font-family="Helvetica,sans-Serif" font-size="10.00" fill="#000000">amr&#45;wind/core/FieldDescTypes.H</text>
</a>
</g>
</g>
<!-- Node1&#45;&gt;Node2 -->
<g id="edge2" class="edge">
<title>Node1&#45;&gt;Node2</title>
<path fill="none" stroke="#191970" d="M1891.5569,-173.8207C1890.3024,-158.6712 1890.2482,-129.3053 1905.7224,-112 1944.9533,-68.127 2066.595,-98.3478 2025.7224,-56 2004.7978,-34.3201 1112.8322,-16.7467 820.4616,-11.56"/>
<polygon fill="#191970" stroke="#191970" points="820.3767,-8.058 810.3164,-11.3807 820.253,-15.0569 820.3767,-8.058"/>
</g>
<!-- Node3 -->
<g id="node4" class="node">
<title>Node3</title>
<g id="a_node4"><a xlink:href="_field_8_h.html" target="_top" xlink:title="amr&#45;wind/core/Field.H">
<polygon fill="#ffffff" stroke="#000000" points="1120.2224,-112.5 1120.2224,-131.5 1233.2224,-131.5 1233.2224,-112.5 1120.2224,-112.5"/>
<text text-anchor="middle" x="1176.7224" y="-119.5" font-family="Helvetica,sans-Serif" font-size="10.00" fill="#000000">amr&#45;wind/core/Field.H</text>
</a>
</g>
</g>
<!-- Node1&#45;&gt;Node3 -->
<g id="edge3" class="edge">
<title>Node1&#45;&gt;Node3</title>
<path fill="none" stroke="#191970" d="M1820.1283,-177.2646C1680.8367,-165.3003 1377.9683,-139.2858 1243.4317,-127.7299"/>
<polygon fill="#191970" stroke="#191970" points="1243.5283,-124.2254 1233.2655,-126.8567 1242.9292,-131.1997 1243.5283,-124.2254"/>
</g>
<!-- Node10 -->
<g id="node11" class="node">
<title>Node10</title>
<polygon fill="#ffffff" stroke="#bfbfbf" points="2126.2224,-56.5 2126.2224,-75.5 2211.2224,-75.5 2211.2224,-56.5 2126.2224,-56.5"/>
<text text-anchor="middle" x="2168.7224" y="-63.5" font-family="Helvetica,sans-Serif" font-size="10.00" fill="#000000">AMReX_Gpu.H</text>
</g>
<!-- Node1&#45;&gt;Node10 -->
<g id="edge18" class="edge">
<title>Node1&#45;&gt;Node10</title>
<path fill="none" stroke="#191970" d="M1923.2688,-173.965C1952.7549,-164.4377 1998.4373,-148.821 2036.7224,-132 2054.1956,-124.323 2057.7048,-120.6399 2074.7224,-112 2096.3816,-101.0036 2121.0556,-88.9468 2139.6882,-79.9363"/>
<polygon fill="#191970" stroke="#191970" points="2141.3477,-83.0217 2148.8331,-75.5238 2138.3057,-76.7172 2141.3477,-83.0217"/>
</g>
<!-- Node14 -->
<g id="node15" class="node">
<title>Node14</title>
<polygon fill="#ffffff" stroke="#bfbfbf" points="1914.2224,-112.5 1914.2224,-131.5 2027.2224,-131.5 2027.2224,-112.5 1914.2224,-112.5"/>
<text text-anchor="middle" x="1970.7224" y="-119.5" font-family="Helvetica,sans-Serif" font-size="10.00" fill="#000000">AMReX_FArrayBox.H</text>
</g>
<!-- Node1&#45;&gt;Node14 -->
<g id="edge19" class="edge">
<title>Node1&#45;&gt;Node14</title>
<path fill="none" stroke="#191970" d="M1904.9099,-173.8906C1917.1594,-164.2324 1936.2487,-149.1812 1950.7202,-137.771"/>
<polygon fill="#191970" stroke="#191970" points="1952.9349,-140.4819 1958.6205,-131.5419 1948.6008,-134.985 1952.9349,-140.4819"/>
</g>
<!-- Node15 -->
<g id="node16" class="node">
<title>Node15</title>
<polygon fill="#ffffff" stroke="#bfbfbf" points="2083.7224,-112.5 2083.7224,-131.5 2193.7224,-131.5 2193.7224,-112.5 2083.7224,-112.5"/>
<text text-anchor="middle" x="2138.7224" y="-119.5" font-family="Helvetica,sans-Serif" font-size="10.00" fill="#000000">AMReX_Geometry.H</text>
</g>
<!-- Node1&#45;&gt;Node15 -->
<g id="edge20" class="edge">
<title>Node1&#45;&gt;Node15</title>
<path fill="none" stroke="#191970" d="M1930.89,-173.9581C1973.8894,-163.2082 2043.8576,-145.7162 2090.5766,-134.0365"/>
<polygon fill="#191970" stroke="#191970" points="2091.6128,-137.3852 2100.4653,-131.5643 2089.915,-130.5942 2091.6128,-137.3852"/>
</g>
<!-- Node16 -->
<g id="node17" class="node">
<title>Node16</title>
<polygon fill="#ffffff" stroke="#bfbfbf" points="1504.7224,-56.5 1504.7224,-75.5 1632.7224,-75.5 1632.7224,-56.5 1504.7224,-56.5"/>
<text text-anchor="middle" x="1568.7224" y="-63.5" font-family="Helvetica,sans-Serif" font-size="10.00" fill="#000000">AMReX_PhysBCFunct.H</text>
</g>
<!-- Node1&#45;&gt;Node16 -->
<g id="edge21" class="edge">
<title>Node1&#45;&gt;Node16</title>
<path fill="none" stroke="#191970" d="M1855.0513,-173.9438C1819.2951,-164.5155 1764.2543,-149.0695 1717.7224,-132 1675.0062,-116.3302 1627.1576,-94.3018 1597.4825,-80.0877"/>
<polygon fill="#191970" stroke="#191970" points="1598.6768,-76.778 1588.1491,-75.5874 1595.6365,-83.0833 1598.6768,-76.778"/>
</g>
<!-- Node3&#45;&gt;Node2 -->
<g id="edge12" class="edge">
<title>Node3&#45;&gt;Node2</title>
<path fill="none" stroke="#191970" d="M1177.0428,-112.1428C1176.9322,-97.428 1174.3391,-69.9579 1157.7224,-56 1132.469,-34.7872 938.923,-20.9903 820.5926,-14.4453"/>
<polygon fill="#191970" stroke="#191970" points="820.6197,-10.9417 810.4438,-13.8915 820.2382,-17.9313 820.6197,-10.9417"/>
</g>
<!-- Node4 -->
<g id="node5" class="node">
<title>Node4</title>
<polygon fill="#ffffff" stroke="#bfbfbf" points="166.2224,-.5 166.2224,-19.5 207.2224,-19.5 207.2224,-.5 166.2224,-.5"/>
<text text-anchor="middle" x="186.7224" y="-7.5" font-family="Helvetica,sans-Serif" font-size="10.00" fill="#000000">string</text>
</g>
<!-- Node3&#45;&gt;Node4 -->
<g id="edge4" class="edge">
<title>Node3&#45;&gt;Node4</title>
<path fill="none" stroke="#191970" d="M1128.0739,-112.487C1084.9523,-103.8071 1020.3735,-90.2018 964.7224,-76 934.1984,-68.2105 927.7567,-61.4102 896.7224,-56 630.0489,-9.5105 558.5857,-41.21 288.7224,-20 264.8149,-18.121 237.8089,-15.4487 217.5936,-13.3393"/>
<polygon fill="#191970" stroke="#191970" points="217.7217,-9.8334 207.4095,-12.2643 216.9868,-16.7948 217.7217,-9.8334"/>
</g>
<!-- Node5 -->
<g id="node6" class="node">
<title>Node5</title>
<polygon fill="#ffffff" stroke="#bfbfbf" points="1204.7224,-56.5 1204.7224,-75.5 1256.7224,-75.5 1256.7224,-56.5 1204.7224,-56.5"/>
<text text-anchor="middle" x="1230.7224" y="-63.5" font-family="Helvetica,sans-Serif" font-size="10.00" fill="#000000">memory</text>
</g>
<!-- Node3&#45;&gt;Node5 -->
<g id="edge5" class="edge">
<title>Node3&#45;&gt;Node5</title>
<path fill="none" stroke="#191970" d="M1186.1285,-112.2455C1193.8718,-104.2155 1205.0345,-92.6394 1214.2542,-83.0781"/>
<polygon fill="#191970" stroke="#191970" points="1217.0022,-85.2706 1221.4241,-75.6427 1211.9633,-80.4117 1217.0022,-85.2706"/>
</g>
<!-- Node6 -->
<g id="node7" class="node">
<title>Node6</title>
<polygon fill="#ffffff" stroke="#bfbfbf" points="805.2224,-56.5 805.2224,-75.5 888.2224,-75.5 888.2224,-56.5 805.2224,-56.5"/>
<text text-anchor="middle" x="846.7224" y="-63.5" font-family="Helvetica,sans-Serif" font-size="10.00" fill="#000000">unordered_map</text>
</g>
<!-- Node3&#45;&gt;Node6 -->
<g id="edge6" class="edge">
<title>Node3&#45;&gt;Node6</title>
<path fill="none" stroke="#191970" d="M1120.0183,-112.6566C1064.5879,-103.4815 977.8157,-89.0078 902.7224,-76 901.2628,-75.7472 899.7819,-75.4896 898.2873,-75.2288"/>
<polygon fill="#191970" stroke="#191970" points="898.7587,-71.7581 888.3038,-73.4747 897.5473,-78.6525 898.7587,-71.7581"/>
</g>
<!-- Node7 -->
<g id="node8" class="node">
<title>Node7</title>
<polygon fill="#ffffff" stroke="#bfbfbf" points="1274.7224,-56.5 1274.7224,-75.5 1330.7224,-75.5 1330.7224,-56.5 1274.7224,-56.5"/>
<text text-anchor="middle" x="1302.7224" y="-63.5" font-family="Helvetica,sans-Serif" font-size="10.00" fill="#000000">algorithm</text>
</g>
<!-- Node3&#45;&gt;Node7 -->
<g id="edge7" class="edge">
<title>Node3&#45;&gt;Node7</title>
<path fill="none" stroke="#191970" d="M1198.3826,-112.3733C1218.6996,-103.3435 1249.2864,-89.7494 1272.0974,-79.6111"/>
<polygon fill="#191970" stroke="#191970" points="1273.6283,-82.7609 1281.3449,-75.5011 1270.7853,-76.3642 1273.6283,-82.7609"/>
</g>
<!-- Node8 -->
<g id="node9" class="node">
<title>Node8</title>
<polygon fill="#ffffff" stroke="#bfbfbf" points="457.7224,-.5 457.7224,-19.5 561.7224,-19.5 561.7224,-.5 457.7224,-.5"/>
<text text-anchor="middle" x="509.7224" y="-7.5" font-family="Helvetica,sans-Serif" font-size="10.00" fill="#000000">AMReX_MultiFab.H</text>
</g>
<!-- Node3&#45;&gt;Node8 -->
<g id="edge8" class="edge">
<title>Node3&#45;&gt;Node8</title>
<path fill="none" stroke="#191970" d="M1135.4469,-112.4846C1101.708,-104.2344 1053.0118,-91.2413 1011.7224,-76 991.9494,-68.7011 989.0493,-61.5736 968.7224,-56 931.4233,-45.7727 689.0703,-24.7885 572.3556,-15.1043"/>
<polygon fill="#191970" stroke="#191970" points="572.3949,-11.5957 562.1403,-14.2589 571.8175,-18.5718 572.3949,-11.5957"/>
</g>
<!-- Node9 -->
<g id="node10" class="node">
<title>Node9</title>
<polygon fill="#ffffff" stroke="#bfbfbf" points="1349.2224,-56.5 1349.2224,-75.5 1448.2224,-75.5 1448.2224,-56.5 1349.2224,-56.5"/>
<text text-anchor="middle" x="1398.7224" y="-63.5" font-family="Helvetica,sans-Serif" font-size="10.00" fill="#000000">AMReX_BCRec.H</text>
</g>
<!-- Node3&#45;&gt;Node9 -->
<g id="edge9" class="edge">
<title>Node3&#45;&gt;Node9</title>
<path fill="none" stroke="#191970" d="M1214.6334,-112.4369C1252.3875,-102.9133 1310.449,-88.2672 1351.2489,-77.9753"/>
<polygon fill="#191970" stroke="#191970" points="1352.1277,-81.3633 1360.9679,-75.5237 1350.4155,-74.576 1352.1277,-81.3633"/>
</g>
<!-- Node3&#45;&gt;Node10 -->
<g id="edge10" class="edge">
<title>Node3&#45;&gt;Node10</title>
<path fill="none" stroke="#191970" d="M1233.3736,-119.2382C1369.8013,-112.5201 1727.3819,-94.5126 2025.7224,-76 2055.677,-74.1413 2089.1428,-71.8146 2116.1647,-69.8734"/>
<polygon fill="#191970" stroke="#191970" points="2116.4628,-73.3611 2126.1848,-69.1501 2115.9587,-66.3793 2116.4628,-73.3611"/>
</g>
<!-- Node11 -->
<g id="node12" class="node">
<title>Node11</title>
<g id="a_node12"><a xlink:href="incflo__enums_8_h.html" target="_top" xlink:title="amr&#45;wind/incflo_enums.H">
<polygon fill="#ffffff" stroke="#000000" points="1020.7224,-56.5 1020.7224,-75.5 1148.7224,-75.5 1148.7224,-56.5 1020.7224,-56.5"/>
<text text-anchor="middle" x="1084.7224" y="-63.5" font-family="Helvetica,sans-Serif" font-size="10.00" fill="#000000">amr&#45;wind/incflo_enums.H</text>
</a>
</g>
</g>
<!-- Node3&#45;&gt;Node11 -->
<g id="edge11" class="edge">
<title>Node3&#45;&gt;Node11</title>
<path fill="none" stroke="#191970" d="M1160.6973,-112.2455C1146.5816,-103.6534 1125.7961,-91.0014 1109.5325,-81.1018"/>
<polygon fill="#191970" stroke="#191970" points="1110.9258,-77.8525 1100.564,-75.6427 1107.2861,-83.8319 1110.9258,-77.8525"/>
</g>
<!-- Node12 -->
<g id="node13" class="node">
<title>Node12</title>
<g id="a_node13"><a xlink:href="_view_field_8_h.html" target="_top" xlink:title="amr&#45;wind/core/ViewField.H">
<polygon fill="#ffffff" stroke="#000000" points="328.7224,-56.5 328.7224,-75.5 462.7224,-75.5 462.7224,-56.5 328.7224,-56.5"/>
<text text-anchor="middle" x="395.7224" y="-63.5" font-family="Helvetica,sans-Serif" font-size="10.00" fill="#000000">amr&#45;wind/core/ViewField.H</text>
</a>
</g>
</g>
<!-- Node3&#45;&gt;Node12 -->
<g id="edge13" class="edge">
<title>Node3&#45;&gt;Node12</title>
<path fill="none" stroke="#191970" d="M1119.9257,-117.9275C982.1055,-108.0454 629.7824,-82.7828 472.9886,-71.5402"/>
<polygon fill="#191970" stroke="#191970" points="473.1727,-68.0445 462.948,-70.8203 472.672,-75.0266 473.1727,-68.0445"/>
</g>
<!-- Node12&#45;&gt;Node2 -->
<g id="edge15" class="edge">
<title>Node12&#45;&gt;Node2</title>
<path fill="none" stroke="#191970" d="M452.5888,-56.4369C510.6567,-46.6717 600.7509,-31.5207 662.1191,-21.2006"/>
<polygon fill="#191970" stroke="#191970" points="662.8095,-24.6337 672.0906,-19.5237 661.6486,-17.7306 662.8095,-24.6337"/>
</g>
<!-- Node12&#45;&gt;Node4 -->
<g id="edge14" class="edge">
<title>Node12&#45;&gt;Node4</title>
<path fill="none" stroke="#191970" d="M359.7941,-56.3733C319.5752,-45.5969 255.0941,-28.3197 217.2292,-18.1741"/>
<polygon fill="#191970" stroke="#191970" points="217.8626,-14.7204 207.2975,-15.5129 216.0509,-21.4819 217.8626,-14.7204"/>
</g>
<!-- Node12&#45;&gt;Node8 -->
<g id="edge16" class="edge">
<title>Node12&#45;&gt;Node8</title>
<path fill="none" stroke="#191970" d="M415.3197,-56.3733C433.4556,-47.4644 460.6359,-34.1127 481.1811,-24.0203"/>
<polygon fill="#191970" stroke="#191970" points="482.9485,-27.0517 490.3809,-19.5011 479.8621,-20.7688 482.9485,-27.0517"/>
</g>
<!-- Node13 -->
<g id="node14" class="node">
<title>Node13</title>
<polygon fill="#ffffff" stroke="#bfbfbf" points="298.2224,-.5 298.2224,-19.5 393.2224,-19.5 393.2224,-.5 298.2224,-.5"/>
<text text-anchor="middle" x="345.7224" y="-7.5" font-family="Helvetica,sans-Serif" font-size="10.00" fill="#000000">AMReX_Vector.H</text>
</g>
<!-- Node12&#45;&gt;Node13 -->
<g id="edge17" class="edge">
<title>Node12&#45;&gt;Node13</title>
<path fill="none" stroke="#191970" d="M387.0131,-56.2455C379.9151,-48.2958 369.714,-36.8706 361.2274,-27.3656"/>
<polygon fill="#191970" stroke="#191970" points="363.6029,-24.771 354.332,-19.6427 358.3814,-29.4331 363.6029,-24.771"/>
</g>
<!-- Node17&#45;&gt;Node2 -->
<g id="edge28" class="edge">
<title>Node17&#45;&gt;Node2</title>
<path fill="none" stroke="#191970" d="M1480.5375,-168.2999C1474.981,-158.3377 1468.299,-144.8287 1464.7224,-132 1455.613,-99.3253 1482.0513,-79.6374 1457.7224,-56 1435.202,-34.1197 1011.0842,-18.5594 820.3263,-12.6384"/>
<polygon fill="#191970" stroke="#191970" points="820.4177,-9.1397 810.3146,-12.3299 820.202,-16.1364 820.4177,-9.1397"/>
</g>
<!-- Node17&#45;&gt;Node3 -->
<g id="edge23" class="edge">
<title>Node17&#45;&gt;Node3</title>
<path fill="none" stroke="#191970" d="M1419.4791,-169.6982C1364.0554,-158.8082 1287.6419,-143.7941 1235.4425,-133.5376"/>
<polygon fill="#191970" stroke="#191970" points="1235.8261,-130.0462 1225.3389,-131.5524 1234.4764,-136.9148 1235.8261,-130.0462"/>
</g>
<!-- Node17&#45;&gt;Node8 -->
<g id="edge34" class="edge">
<title>Node17&#45;&gt;Node8</title>
<path fill="none" stroke="#191970" d="M1419.6065,-178.2628C1343.1132,-171.5531 1217.4512,-157.6042 1111.7224,-132 1013.2198,-108.1458 995.4255,-79.0111 896.7224,-56 836.5443,-41.9704 665.2309,-24.5437 572.004,-15.7095"/>
<polygon fill="#191970" stroke="#191970" points="572.1432,-12.2072 561.8587,-14.7528 571.486,-19.1762 572.1432,-12.2072"/>
</g>
<!-- Node17&#45;&gt;Node16 -->
<g id="edge36" class="edge">
<title>Node17&#45;&gt;Node16</title>
<path fill="none" stroke="#191970" d="M1554.441,-168.4523C1573.2249,-160.759 1591.6427,-149.2258 1602.7224,-132 1612.981,-116.0508 1600.2185,-96.6349 1587.5073,-83.0047"/>
<polygon fill="#191970" stroke="#191970" points="1589.7548,-80.303 1580.2035,-75.718 1584.8109,-85.2586 1589.7548,-80.303"/>
</g>
<!-- Node17&#45;&gt;Node18 -->
<g id="edge24" class="edge">
<title>Node17&#45;&gt;Node18</title>
<path fill="none" stroke="#191970" d="M1559.7664,-169.2361C1612.9093,-158.4139 1685.046,-143.7238 1734.691,-133.614"/>
<polygon fill="#191970" stroke="#191970" points="1735.5174,-137.0176 1744.6179,-131.5925 1734.1205,-130.1584 1735.5174,-137.0176"/>
</g>
<!-- Node19 -->
<g id="node20" class="node">
<title>Node19</title>
<polygon fill="#ffffff" stroke="#bfbfbf" points="1651.2224,-56.5 1651.2224,-75.5 1744.2224,-75.5 1744.2224,-56.5 1651.2224,-56.5"/>
<text text-anchor="middle" x="1697.7224" y="-63.5" font-family="Helvetica,sans-Serif" font-size="10.00" fill="#000000">AMReX_REAL.H</text>
</g>
<!-- Node17&#45;&gt;Node19 -->
<g id="edge35" class="edge">
<title>Node17&#45;&gt;Node19</title>
<path fill="none" stroke="#191970" d="M1536.9612,-168.4292C1561.8558,-159.5275 1592.394,-147.0508 1617.7224,-132 1641.4485,-117.9013 1665.443,-97.0245 1680.8785,-82.5408"/>
<polygon fill="#191970" stroke="#191970" points="1683.3104,-85.058 1688.1233,-75.6194 1678.4749,-79.9966 1683.3104,-85.058"/>
</g>
<!-- Node22 -->
<g id="node23" class="node">
<title>Node22</title>
<g id="a_node23"><a xlink:href="_field_utils_8_h.html" target="_top" xlink:title="amr&#45;wind/core/FieldUtils.H">
<polygon fill="#ffffff" stroke="#000000" points="632.2224,-112.5 632.2224,-131.5 765.2224,-131.5 765.2224,-112.5 632.2224,-112.5"/>
<text text-anchor="middle" x="698.7224" y="-119.5" font-family="Helvetica,sans-Serif" font-size="10.00" fill="#000000">amr&#45;wind/core/FieldUtils.H</text>
</a>
</g>
</g>
<!-- Node17&#45;&gt;Node22 -->
<g id="edge29" class="edge">
<title>Node17&#45;&gt;Node22</title>
<path fill="none" stroke="#191970" d="M1419.5299,-178.4293C1296.5589,-169.4857 1034.1742,-150.1352 812.7224,-132 800.7333,-131.0182 788.0384,-129.9414 775.6423,-128.8695"/>
<polygon fill="#191970" stroke="#191970" points="775.5874,-125.3516 765.3218,-127.9725 774.9812,-132.3253 775.5874,-125.3516"/>
</g>
<!-- Node24 -->
<g id="node25" class="node">
<title>Node24</title>
<polygon fill="#ffffff" stroke="#bfbfbf" points="821.7224,-112.5 821.7224,-131.5 927.7224,-131.5 927.7224,-112.5 821.7224,-112.5"/>
<text text-anchor="middle" x="874.7224" y="-119.5" font-family="Helvetica,sans-Serif" font-size="10.00" fill="#000000">AMReX_AmrCore.H</text>
</g>
<!-- Node17&#45;&gt;Node24 -->
<g id="edge33" class="edge">
<title>Node17&#45;&gt;Node24</title>
<path fill="none" stroke="#191970" d="M1419.522,-178.1334C1315.1471,-169.8758 1112.9451,-152.8077 941.7224,-132 940.6133,-131.8652 939.4943,-131.7267 938.3675,-131.5848"/>
<polygon fill="#191970" stroke="#191970" points="938.4516,-128.0658 928.0805,-130.2315 937.5386,-135.006 938.4516,-128.0658"/>
</g>
<!-- Node25 -->
<g id="node26" class="node">
<title>Node25</title>
<polygon fill="#ffffff" stroke="#bfbfbf" points="1473.7224,-112.5 1473.7224,-131.5 1593.7224,-131.5 1593.7224,-112.5 1473.7224,-112.5"/>
<text text-anchor="middle" x="1533.7224" y="-119.5" font-family="Helvetica,sans-Serif" font-size="10.00" fill="#000000">AMReX_FillPatchUtil.H</text>
</g>
<!-- Node17&#45;&gt;Node25 -->
<g id="edge37" class="edge">
<title>Node17&#45;&gt;Node25</title>
<path fill="none" stroke="#191970" d="M1500.5988,-168.2977C1506.7065,-159.7609 1514.3664,-149.0545 1520.7812,-140.0883"/>
<polygon fill="#191970" stroke="#191970" points="1523.7053,-142.0163 1526.6775,-131.8469 1518.0123,-137.9433 1523.7053,-142.0163"/>
</g>
<!-- Node18&#45;&gt;Node19 -->
<g id="edge25" class="edge">
<title>Node18&#45;&gt;Node19</title>
<path fill="none" stroke="#191970" d="M1775.3489,-112.2455C1760.7916,-103.5731 1739.2914,-90.7645 1722.6072,-80.825"/>
<polygon fill="#191970" stroke="#191970" points="1724.2907,-77.7539 1713.9084,-75.6427 1720.708,-83.7676 1724.2907,-77.7539"/>
</g>
<!-- Node20 -->
<g id="node21" class="node">
<title>Node20</title>
<polygon fill="#ffffff" stroke="#bfbfbf" points="1762.7224,-56.5 1762.7224,-75.5 1888.7224,-75.5 1888.7224,-56.5 1762.7224,-56.5"/>
<text text-anchor="middle" x="1825.7224" y="-63.5" font-family="Helvetica,sans-Serif" font-size="10.00" fill="#000000">AMReX_GpuQualifiers.H</text>
</g>
<!-- Node18&#45;&gt;Node20 -->
<g id="edge26" class="edge">
<title>Node18&#45;&gt;Node20</title>
<path fill="none" stroke="#191970" d="M1797.6448,-112.2455C1802.3251,-104.5367 1808.9897,-93.5598 1814.6513,-84.2348"/>
<polygon fill="#191970" stroke="#191970" points="1817.6699,-86.007 1819.868,-75.6427 1811.6864,-82.3741 1817.6699,-86.007"/>
</g>
<!-- Node21 -->
<g id="node22" class="node">
<title>Node21</title>
<polygon fill="#ffffff" stroke="#bfbfbf" points="1906.7224,-56.5 1906.7224,-75.5 2016.7224,-75.5 2016.7224,-56.5 1906.7224,-56.5"/>
<text text-anchor="middle" x="1961.7224" y="-63.5" font-family="Helvetica,sans-Serif" font-size="10.00" fill="#000000">AMReX_Extension.H</text>
</g>
<!-- Node18&#45;&gt;Node21 -->
<g id="edge27" class="edge">
<title>Node18&#45;&gt;Node21</title>
<path fill="none" stroke="#191970" d="M1820.9465,-112.3733C1849.2149,-103.0613 1892.219,-88.8953 1923.2568,-78.671"/>
<polygon fill="#191970" stroke="#191970" points="1924.4769,-81.9542 1932.8797,-75.5011 1922.2867,-75.3056 1924.4769,-81.9542"/>
</g>
<!-- Node22&#45;&gt;Node2 -->
<g id="edge30" class="edge">
<title>Node22&#45;&gt;Node2</title>
<path fill="none" stroke="#191970" d="M718.8785,-112.4543C732.6039,-104.7394 749.686,-92.4561 757.7224,-76 765.6518,-59.7633 755.4137,-40.8487 744.9779,-27.4409"/>
<polygon fill="#191970" stroke="#191970" points="747.4061,-24.8915 738.2804,-19.5088 742.0576,-29.4075 747.4061,-24.8915"/>
</g>
<!-- Node22&#45;&gt;Node8 -->
<g id="edge31" class="edge">
<title>Node22&#45;&gt;Node8</title>
<path fill="none" stroke="#191970" d="M682.6084,-112.4509C649.5512,-92.8615 573.8731,-48.0152 534.5194,-24.6945"/>
<polygon fill="#191970" stroke="#191970" points="536.1829,-21.6119 525.7957,-19.5249 532.6143,-27.634 536.1829,-21.6119"/>
</g>
<!-- Node23 -->
<g id="node24" class="node">
<title>Node23</title>
<polygon fill="#ffffff" stroke="#bfbfbf" points="632.7224,-56.5 632.7224,-75.5 748.7224,-75.5 748.7224,-56.5 632.7224,-56.5"/>
<text text-anchor="middle" x="690.7224" y="-63.5" font-family="Helvetica,sans-Serif" font-size="10.00" fill="#000000">AMReX_Interpolater.H</text>
</g>
<!-- Node22&#45;&gt;Node23 -->
<g id="edge32" class="edge">
<title>Node22&#45;&gt;Node23</title>
<path fill="none" stroke="#191970" d="M697.3289,-112.2455C696.285,-104.9382 694.8216,-94.6944 693.5374,-85.7046"/>
<polygon fill="#191970" stroke="#191970" points="696.9791,-85.0472 692.1,-75.6427 690.0494,-86.0372 696.9791,-85.0472"/>
</g>
<!-- Node26&#45;&gt;Node2 -->
<g id="edge41" class="edge">
<title>Node26&#45;&gt;Node2</title>
<path fill="none" stroke="#191970" d="M602.3281,-173.6589C599.6123,-150.5063 596.0893,-91.8455 623.7224,-56 635.8804,-40.2288 654.5748,-29.7588 672.8389,-22.8554"/>
<polygon fill="#191970" stroke="#191970" points="674.0177,-26.1511 682.3137,-19.5612 671.7189,-19.5393 674.0177,-26.1511"/>
</g>
<!-- Node26&#45;&gt;Node3 -->
<g id="edge43" class="edge">
<title>Node26&#45;&gt;Node3</title>
<path fill="none" stroke="#191970" d="M671.9866,-176.1732C782.7778,-164.282 1000.3699,-140.9279 1110.0974,-129.1509"/>
<polygon fill="#191970" stroke="#191970" points="1110.4827,-132.6297 1120.0521,-128.0824 1109.7356,-125.6697 1110.4827,-132.6297"/>
</g>
<!-- Node26&#45;&gt;Node4 -->
<g id="edge39" class="edge">
<title>Node26&#45;&gt;Node4</title>
<path fill="none" stroke="#191970" d="M535.4779,-181.4146C412.6282,-176.905 159.4404,-163.9499 77.7224,-132 39.3092,-116.9813 22.0881,-112.9302 3.7224,-76 -.2357,-68.041 -1.7434,-63.0098 3.7224,-56 22.3094,-32.1627 109.1956,-18.7885 156.2524,-13.1795"/>
<polygon fill="#191970" stroke="#191970" points="156.6627,-16.6555 166.1989,-12.0389 155.8652,-9.701 156.6627,-16.6555"/>
</g>
<!-- Node26&#45;&gt;Node6 -->
<g id="edge40" class="edge">
<title>Node26&#45;&gt;Node6</title>
<path fill="none" stroke="#191970" d="M655.9323,-173.9414C690.8449,-166.0819 736.9457,-152.7949 773.7224,-132 796.5612,-119.0862 818.2673,-97.9167 831.9817,-83.0427"/>
<polygon fill="#191970" stroke="#191970" points="834.6595,-85.2991 838.735,-75.5195 829.4504,-80.6231 834.6595,-85.2991"/>
</g>
<!-- Node26&#45;&gt;Node8 -->
<g id="edge56" class="edge">
<title>Node26&#45;&gt;Node8</title>
<path fill="none" stroke="#191970" d="M550.1256,-173.9197C510.1092,-165.6859 454.6456,-151.955 408.7224,-132 365.8598,-113.3749 342.3159,-116.9101 319.7224,-76 315.4251,-68.2189 314.2261,-62.9859 319.7224,-56 335.5273,-35.9121 398.5082,-23.5382 447.6798,-16.7549"/>
<polygon fill="#191970" stroke="#191970" points="448.1749,-20.22 457.6261,-15.4319 447.2518,-13.2811 448.1749,-20.22"/>
</g>
<!-- Node26&#45;&gt;Node22 -->
<g id="edge42" class="edge">
<title>Node26&#45;&gt;Node22</title>
<path fill="none" stroke="#191970" d="M618.5662,-173.8906C633.7643,-164.0519 657.6073,-148.6167 675.3431,-137.1351"/>
<polygon fill="#191970" stroke="#191970" points="677.4904,-139.9144 683.9829,-131.5419 673.6864,-134.0382 677.4904,-139.9144"/>
</g>
<!-- Node26&#45;&gt;Node24 -->
<g id="edge55" class="edge">
<title>Node26&#45;&gt;Node24</title>
<path fill="none" stroke="#191970" d="M645.7688,-173.9581C693.4361,-163.1406 771.1876,-145.4959 822.6518,-133.8168"/>
<polygon fill="#191970" stroke="#191970" points="823.6,-137.1907 832.5774,-131.5643 822.0507,-130.3642 823.6,-137.1907"/>
</g>
<!-- Node27 -->
<g id="node28" class="node">
<title>Node27</title>
<g id="a_node28"><a xlink:href="_int_field_8_h.html" target="_top" xlink:title="amr&#45;wind/core/IntField.H">
<polygon fill="#ffffff" stroke="#000000" points="106.7224,-112.5 106.7224,-131.5 230.7224,-131.5 230.7224,-112.5 106.7224,-112.5"/>
<text text-anchor="middle" x="168.7224" y="-119.5" font-family="Helvetica,sans-Serif" font-size="10.00" fill="#000000">amr&#45;wind/core/IntField.H</text>
</a>
</g>
</g>
<!-- Node26&#45;&gt;Node27 -->
<g id="edge44" class="edge">
<title>Node26&#45;&gt;Node27</title>
<path fill="none" stroke="#191970" d="M536.231,-173.9581C456.0514,-162.6224 322.8434,-143.7895 240.7316,-132.1806"/>
<polygon fill="#191970" stroke="#191970" points="241.1229,-128.7012 230.7314,-130.7668 240.1429,-135.6323 241.1229,-128.7012"/>
</g>
<!-- Node28 -->
<g id="node29" class="node">
<title>Node28</title>
<polygon fill="#ffffff" stroke="#bfbfbf" points="13.2224,-56.5 13.2224,-75.5 120.2224,-75.5 120.2224,-56.5 13.2224,-56.5"/>
<text text-anchor="middle" x="66.7224" y="-63.5" font-family="Helvetica,sans-Serif" font-size="10.00" fill="#000000">AMReX_iMultiFab.H</text>
</g>
<!-- Node26&#45;&gt;Node28 -->
<g id="edge57" class="edge">
<title>Node26&#45;&gt;Node28</title>
<path fill="none" stroke="#191970" d="M535.7105,-180.2843C405.9353,-173.6134 132.7081,-156.7952 97.7224,-132 82.4299,-121.1618 74.457,-100.7829 70.4523,-85.5248"/>
<polygon fill="#191970" stroke="#191970" points="73.8112,-84.5098 68.1897,-75.5293 66.9839,-86.0552 73.8112,-84.5098"/>
</g>
<!-- Node29 -->
<g id="node30" class="node">
<title>Node29</title>
<g id="a_node30"><a xlink:href="_scratch_field_8_h.html" target="_top" xlink:title="amr&#45;wind/core/ScratchField.H">
<polygon fill="#ffffff" stroke="#000000" points="417.7224,-112.5 417.7224,-131.5 563.7224,-131.5 563.7224,-112.5 417.7224,-112.5"/>
<text text-anchor="middle" x="490.7224" y="-119.5" font-family="Helvetica,sans-Serif" font-size="10.00" fill="#000000">amr&#45;wind/core/ScratchField.H</text>
</a>
</g>
</g>
<!-- Node26&#45;&gt;Node29 -->
<g id="edge48" class="edge">
<title>Node26&#45;&gt;Node29</title>
<path fill="none" stroke="#191970" d="M586.0662,-173.8906C567.5738,-163.8262 538.3215,-147.9057 517.0917,-136.3514"/>
<polygon fill="#191970" stroke="#191970" points="518.7113,-133.2481 508.2547,-131.5419 515.365,-139.3965 518.7113,-133.2481"/>
</g>
<!-- Node27&#45;&gt;Node2 -->
<g id="edge46" class="edge">
<title>Node27&#45;&gt;Node2</title>
<path fill="none" stroke="#191970" d="M186.2192,-112.269C213.7209,-97.461 269.1532,-69.5625 319.7224,-56 377.5805,-40.4826 535.094,-25.5594 636.906,-17.1083"/>
<polygon fill="#191970" stroke="#191970" points="637.2072,-20.5954 646.8859,-16.2858 636.6321,-13.6191 637.2072,-20.5954"/>
</g>
<!-- Node27&#45;&gt;Node4 -->
<g id="edge45" class="edge">
<title>Node27&#45;&gt;Node4</title>
<path fill="none" stroke="#191970" d="M168.6022,-112.0741C168.609,-99.0841 169.1861,-75.6585 172.7224,-56 174.3256,-47.0883 177.0836,-37.4703 179.73,-29.3443"/>
<polygon fill="#191970" stroke="#191970" points="183.1019,-30.3011 183.0381,-19.7064 176.4811,-28.0285 183.1019,-30.3011"/>
</g>
<!-- Node27&#45;&gt;Node28 -->
<g id="edge47" class="edge">
<title>Node27&#45;&gt;Node28</title>
<path fill="none" stroke="#191970" d="M150.9554,-112.2455C135.0129,-103.4928 111.3965,-90.527 93.2235,-80.5496"/>
<polygon fill="#191970" stroke="#191970" points="94.7361,-77.3873 84.2859,-75.6427 91.3673,-83.5233 94.7361,-77.3873"/>
</g>
<!-- Node29&#45;&gt;Node2 -->
<g id="edge50" class="edge">
<title>Node29&#45;&gt;Node2</title>
<path fill="none" stroke="#191970" d="M503.0265,-112.3321C521.2904,-98.3506 557.0491,-72.3726 590.7224,-56 619.8505,-41.8374 654.4285,-30.3201 681.6854,-22.3521"/>
<polygon fill="#191970" stroke="#191970" points="682.722,-25.696 691.3725,-19.5788 680.7954,-18.9664 682.722,-25.696"/>
</g>
<!-- Node29&#45;&gt;Node4 -->
<g id="edge49" class="edge">
<title>Node29&#45;&gt;Node4</title>
<path fill="none" stroke="#191970" d="M440.7458,-112.4444C404.2942,-104.6897 354.0737,-92.3616 311.7224,-76 274.9821,-61.8061 235.1782,-39.4682 210.5929,-24.7768"/>
<polygon fill="#191970" stroke="#191970" points="212.322,-21.7323 201.9536,-19.5535 208.7003,-27.7225 212.322,-21.7323"/>
</g>
<!-- Node29&#45;&gt;Node8 -->
<g id="edge52" class="edge">
<title>Node29&#45;&gt;Node8</title>
<path fill="none" stroke="#191970" d="M492.3424,-112.4509C495.4412,-94.184 502.2657,-53.9553 506.3809,-29.6976"/>
<polygon fill="#191970" stroke="#191970" points="509.8847,-29.9694 508.1066,-19.5249 502.9833,-28.7986 509.8847,-29.9694"/>
</g>
<!-- Node29&#45;&gt;Node12 -->
<g id="edge51" class="edge">
<title>Node29&#45;&gt;Node12</title>
<path fill="none" stroke="#191970" d="M474.1747,-112.2455C459.4626,-103.5731 437.7337,-90.7645 420.8719,-80.825"/>
<polygon fill="#191970" stroke="#191970" points="422.4726,-77.7057 412.0805,-75.6427 418.9179,-83.736 422.4726,-77.7057"/>
</g>
<!-- Node29&#45;&gt;Node13 -->
<g id="edge53" class="edge">
<title>Node29&#45;&gt;Node13</title>
<path fill="none" stroke="#191970" d="M423.4472,-112.4206C381.31,-104.8872 332.6276,-92.8354 319.7224,-76 308.6783,-61.5923 318.9731,-41.8942 329.6943,-27.7751"/>
<polygon fill="#191970" stroke="#191970" points="332.5993,-29.7526 336.238,-19.8021 327.1883,-25.3116 332.5993,-29.7526"/>
</g>
<!-- Node29&#45;&gt;Node16 -->
<g id="edge54" class="edge">
<title>Node29&#45;&gt;Node16</title>
<path fill="none" stroke="#191970" d="M564.0052,-116.0221C583.1108,-114.5804 603.6807,-113.1315 622.7224,-112 993.5243,-89.967 1087.0868,-100.6715 1457.7224,-76 1469.5625,-75.2119 1482.1001,-74.2274 1494.3214,-73.186"/>
<polygon fill="#191970" stroke="#191970" points="1494.8319,-76.6549 1504.4907,-72.3008 1494.2248,-69.6813 1494.8319,-76.6549"/>
</g>
<!-- Node30&#45;&gt;Node10 -->
<g id="edge61" class="edge">
<title>Node30&#45;&gt;Node10</title>
<path fill="none" stroke="#191970" d="M2226.9361,-168.2667C2235.6022,-153.276 2245.2356,-130.0709 2235.7224,-112 2228.5295,-98.3365 2215.2423,-87.9486 2202.3857,-80.5328"/>
<polygon fill="#191970" stroke="#191970" points="2203.6674,-77.2506 2193.1936,-75.6538 2200.3856,-83.4336 2203.6674,-77.2506"/>
</g>
<!-- Node30&#45;&gt;Node15 -->
<g id="edge60" class="edge">
<title>Node30&#45;&gt;Node15</title>
<path fill="none" stroke="#191970" d="M2197.4415,-168.2977C2185.8248,-159.1384 2171.0406,-147.4816 2159.2132,-138.1562"/>
<polygon fill="#191970" stroke="#191970" points="2161.231,-135.2901 2151.2112,-131.8469 2156.8969,-140.787 2161.231,-135.2901"/>
</g>
<!-- Node31&#45;&gt;Node10 -->
<g id="edge64" class="edge">
<title>Node31&#45;&gt;Node10</title>
<path fill="none" stroke="#191970" d="M2132.4334,-168.4836C2161.5014,-158.4285 2194.3492,-144.7474 2202.7224,-132 2213.1336,-116.15 2200.3482,-96.7192 2187.5901,-83.0585"/>
<polygon fill="#191970" stroke="#191970" points="2189.8115,-80.3311 2180.257,-75.7527 2184.871,-85.2901 2189.8115,-80.3311"/>
</g>
<!-- Node31&#45;&gt;Node15 -->
<g id="edge63" class="edge">
<title>Node31&#45;&gt;Node15</title>
<path fill="none" stroke="#191970" d="M2097.3179,-168.2977C2105.1116,-159.5831 2114.9271,-148.6075 2123.045,-139.5302"/>
<polygon fill="#191970" stroke="#191970" points="2125.8589,-141.6341 2129.9162,-131.8469 2120.6411,-136.9678 2125.8589,-141.6341"/>
</g>
</g>
</svg>
