<?xml version="1.0" encoding="UTF-8" standalone="no"?>
<!DOCTYPE svg PUBLIC "-//W3C//DTD SVG 1.1//EN"
 "http://www.w3.org/Graphics/SVG/1.1/DTD/svg11.dtd">
<!-- Generated by graphviz version 2.40.1 (20161225.0304)
 -->
<!-- Title: velocity_bcs.H Pages: 1 -->
<svg width="90pt" height="140pt"
 viewBox="0.00 0.00 90.00 140.00" xmlns="http://www.w3.org/2000/svg" xmlns:xlink="http://www.w3.org/1999/xlink">
<g id="graph0" class="graph" transform="scale(1 1) rotate(0) translate(4 136)">
<title>velocity_bcs.H</title>
<polygon fill="#ffffff" stroke="transparent" points="-4,4 -4,-136 86,-136 86,4 -4,4"/>
<!-- Node32 -->
<g id="node1" class="node">
<title>Node32</title>
<polygon fill="#bfbfbf" stroke="#000000" points="0,-112.5 0,-131.5 82,-131.5 82,-112.5 0,-112.5"/>
<text text-anchor="middle" x="41" y="-119.5" font-family="Helvetica,sans-Serif" font-size="10.00" fill="#000000">velocity_bcs.H</text>
</g>
<!-- Node33 -->
<g id="node2" class="node">
<title>Node33</title>
<g id="a_node2"><a xlink:href="icns__bcop_8_h.html" target="_top" xlink:title="icns_bcop.H">
<polygon fill="#ffffff" stroke="#000000" points="5.5,-56.5 5.5,-75.5 76.5,-75.5 76.5,-56.5 5.5,-56.5"/>
<text text-anchor="middle" x="41" y="-63.5" font-family="Helvetica,sans-Serif" font-size="10.00" fill="#000000">icns_bcop.H</text>
</a>
</g>
</g>
<!-- Node32&#45;&gt;Node33 -->
<g id="edge1" class="edge">
<title>Node32&#45;&gt;Node33</title>
<path fill="none" stroke="#191970" d="M41,-102.1575C41,-93.155 41,-82.9199 41,-75.6427"/>
<polygon fill="#191970" stroke="#191970" points="37.5001,-102.2455 41,-112.2455 44.5001,-102.2456 37.5001,-102.2455"/>
</g>
<!-- Node34 -->
<g id="node3" class="node">
<title>Node34</title>
<g id="a_node3"><a xlink:href="icns_8cpp.html" target="_top" xlink:title="icns.cpp">
<polygon fill="#ffffff" stroke="#000000" points="14.5,-.5 14.5,-19.5 67.5,-19.5 67.5,-.5 14.5,-.5"/>
<text text-anchor="middle" x="41" y="-7.5" font-family="Helvetica,sans-Serif" font-size="10.00" fill="#000000">icns.cpp</text>
</a>
</g>
</g>
<!-- Node33&#45;&gt;Node34 -->
<g id="edge2" class="edge">
<title>Node33&#45;&gt;Node34</title>
<path fill="none" stroke="#191970" d="M41,-46.1575C41,-37.155 41,-26.9199 41,-19.6427"/>
<polygon fill="#191970" stroke="#191970" points="37.5001,-46.2455 41,-56.2455 44.5001,-46.2456 37.5001,-46.2455"/>
</g>
</g>
</svg>
