<?xml version="1.0" encoding="UTF-8" standalone="no"?>
<!DOCTYPE svg PUBLIC "-//W3C//DTD SVG 1.1//EN"
 "http://www.w3.org/Graphics/SVG/1.1/DTD/svg11.dtd">
<!-- Generated by graphviz version 2.40.1 (20161225.0304)
 -->
<!-- Title: vof_advection.H Pages: 1 -->
<svg width="2771pt" height="553pt"
 viewBox="0.00 0.00 2770.90 553.00" xmlns="http://www.w3.org/2000/svg" xmlns:xlink="http://www.w3.org/1999/xlink">
<g id="graph0" class="graph" transform="scale(1 1) rotate(0) translate(4 549)">
<title>vof_advection.H</title>
<polygon fill="#ffffff" stroke="transparent" points="-4,4 -4,-549 2766.8977,-549 2766.8977,4 -4,4"/>
<!-- Node0 -->
<g id="node1" class="node">
<title>Node0</title>
<polygon fill="#bfbfbf" stroke="#000000" points="1557.8262,-525.5 1557.8262,-544.5 1645.8262,-544.5 1645.8262,-525.5 1557.8262,-525.5"/>
<text text-anchor="middle" x="1601.8262" y="-532.5" font-family="Helvetica,sans-Serif" font-size="10.00" fill="#000000">vof_advection.H</text>
</g>
<!-- Node1 -->
<g id="node2" class="node">
<title>Node1</title>
<g id="a_node2"><a xlink:href="vof_8_h.html" target="_top" xlink:title="amr&#45;wind/equation_systems\l/vof/vof.H">
<polygon fill="#ffffff" stroke="#000000" points="1483.3262,-458.5 1483.3262,-488.5 1622.3262,-488.5 1622.3262,-458.5 1483.3262,-458.5"/>
<text text-anchor="start" x="1491.3262" y="-476.5" font-family="Helvetica,sans-Serif" font-size="10.00" fill="#000000">amr&#45;wind/equation_systems</text>
<text text-anchor="middle" x="1552.8262" y="-465.5" font-family="Helvetica,sans-Serif" font-size="10.00" fill="#000000">/vof/vof.H</text>
</a>
</g>
</g>
<!-- Node0&#45;&gt;Node1 -->
<g id="edge1" class="edge">
<title>Node0&#45;&gt;Node1</title>
<path fill="none" stroke="#191970" d="M1594.1699,-525.3906C1588.0296,-517.6839 1579.1534,-506.5434 1571.1983,-496.5589"/>
<polygon fill="#191970" stroke="#191970" points="1573.7818,-494.1847 1564.8129,-488.5446 1568.307,-498.5467 1573.7818,-494.1847"/>
</g>
<!-- Node59 -->
<g id="node50" class="node">
<title>Node59</title>
<g id="a_node50"><a xlink:href="_split_advection_8_h.html" target="_top" xlink:title="amr&#45;wind/equation_systems\l/vof/SplitAdvection.H">
<polygon fill="#ffffff" stroke="#000000" points="2310.3262,-391.5 2310.3262,-421.5 2449.3262,-421.5 2449.3262,-391.5 2310.3262,-391.5"/>
<text text-anchor="start" x="2318.3262" y="-409.5" font-family="Helvetica,sans-Serif" font-size="10.00" fill="#000000">amr&#45;wind/equation_systems</text>
<text text-anchor="middle" x="2379.8262" y="-398.5" font-family="Helvetica,sans-Serif" font-size="10.00" fill="#000000">/vof/SplitAdvection.H</text>
</a>
</g>
</g>
<!-- Node0&#45;&gt;Node59 -->
<g id="edge119" class="edge">
<title>Node0&#45;&gt;Node59</title>
<path fill="none" stroke="#191970" d="M1646.1305,-528.1179C1756.1763,-510.9514 2050.7703,-464.555 2295.8262,-422 2297.2873,-421.7463 2298.7624,-421.4887 2300.2482,-421.228"/>
<polygon fill="#191970" stroke="#191970" points="2300.9386,-424.6603 2310.1745,-419.4691 2299.7172,-417.7677 2300.9386,-424.6603"/>
</g>
<!-- Node2 -->
<g id="node3" class="node">
<title>Node2</title>
<g id="a_node3"><a xlink:href="_p_d_e_traits_8_h.html" target="_top" xlink:title="amr&#45;wind/equation_systems\l/PDETraits.H">
<polygon fill="#ffffff" stroke="#000000" points="2076.3262,-257.5 2076.3262,-287.5 2215.3262,-287.5 2215.3262,-257.5 2076.3262,-257.5"/>
<text text-anchor="start" x="2084.3262" y="-275.5" font-family="Helvetica,sans-Serif" font-size="10.00" fill="#000000">amr&#45;wind/equation_systems</text>
<text text-anchor="middle" x="2145.8262" y="-264.5" font-family="Helvetica,sans-Serif" font-size="10.00" fill="#000000">/PDETraits.H</text>
</a>
</g>
</g>
<!-- Node1&#45;&gt;Node2 -->
<g id="edge2" class="edge">
<title>Node1&#45;&gt;Node2</title>
<path fill="none" stroke="#191970" d="M1597.3976,-458.3923C1704.4432,-422.1087 1975.7352,-330.1531 2091.8015,-290.8119"/>
<polygon fill="#191970" stroke="#191970" points="2093.1993,-294.0338 2101.5465,-287.5088 2090.9522,-287.4042 2093.1993,-294.0338"/>
</g>
<!-- Node3 -->
<g id="node4" class="node">
<title>Node3</title>
<g id="a_node4"><a xlink:href="_scheme_traits_8_h.html" target="_top" xlink:title="amr&#45;wind/equation_systems\l/SchemeTraits.H">
<polygon fill="#ffffff" stroke="#000000" points="809.3262,-257.5 809.3262,-287.5 948.3262,-287.5 948.3262,-257.5 809.3262,-257.5"/>
<text text-anchor="start" x="817.3262" y="-275.5" font-family="Helvetica,sans-Serif" font-size="10.00" fill="#000000">amr&#45;wind/equation_systems</text>
<text text-anchor="middle" x="878.8262" y="-264.5" font-family="Helvetica,sans-Serif" font-size="10.00" fill="#000000">/SchemeTraits.H</text>
</a>
</g>
</g>
<!-- Node1&#45;&gt;Node3 -->
<g id="edge3" class="edge">
<title>Node1&#45;&gt;Node3</title>
<path fill="none" stroke="#191970" d="M1483.1641,-472.0117C1345.7661,-468.3521 1044.7667,-456.5427 947.8262,-422 898.1254,-404.2902 874.4501,-401.6633 849.8262,-355 839.8102,-336.0193 849.6979,-312.8454 860.5622,-295.8965"/>
<polygon fill="#191970" stroke="#191970" points="863.4472,-297.8782 866.2323,-287.6559 857.6804,-293.9102 863.4472,-297.8782"/>
</g>
<!-- Node5 -->
<g id="node6" class="node">
<title>Node5</title>
<g id="a_node6"><a xlink:href="_p_d_e_helpers_8_h.html" target="_top" xlink:title="amr&#45;wind/equation_systems\l/PDEHelpers.H">
<polygon fill="#ffffff" stroke="#000000" points="1274.3262,-190.5 1274.3262,-220.5 1413.3262,-220.5 1413.3262,-190.5 1274.3262,-190.5"/>
<text text-anchor="start" x="1282.3262" y="-208.5" font-family="Helvetica,sans-Serif" font-size="10.00" fill="#000000">amr&#45;wind/equation_systems</text>
<text text-anchor="middle" x="1343.8262" y="-197.5" font-family="Helvetica,sans-Serif" font-size="10.00" fill="#000000">/PDEHelpers.H</text>
</a>
</g>
</g>
<!-- Node1&#45;&gt;Node5 -->
<g id="edge5" class="edge">
<title>Node1&#45;&gt;Node5</title>
<path fill="none" stroke="#191970" d="M1545.8784,-458.4947C1528.1389,-421.2743 1478.1434,-322.9561 1415.8262,-257 1404.8493,-245.3822 1390.9084,-234.7043 1378.2232,-226.1201"/>
<polygon fill="#191970" stroke="#191970" points="1379.9752,-223.0836 1369.6937,-220.5259 1376.1361,-228.9369 1379.9752,-223.0836"/>
</g>
<!-- Node36 -->
<g id="node32" class="node">
<title>Node36</title>
<g id="a_node32"><a xlink:href="_p_d_e_8_h.html" target="_top" xlink:title="amr&#45;wind/equation_systems\l/PDE.H">
<polygon fill="#ffffff" stroke="#000000" points="956.3262,-391.5 956.3262,-421.5 1095.3262,-421.5 1095.3262,-391.5 956.3262,-391.5"/>
<text text-anchor="start" x="964.3262" y="-409.5" font-family="Helvetica,sans-Serif" font-size="10.00" fill="#000000">amr&#45;wind/equation_systems</text>
<text text-anchor="middle" x="1025.8262" y="-398.5" font-family="Helvetica,sans-Serif" font-size="10.00" fill="#000000">/PDE.H</text>
</a>
</g>
</g>
<!-- Node1&#45;&gt;Node36 -->
<g id="edge57" class="edge">
<title>Node1&#45;&gt;Node36</title>
<path fill="none" stroke="#191970" d="M1483.1166,-464.6375C1385.3834,-452.2122 1208.109,-429.6745 1105.3498,-416.6102"/>
<polygon fill="#191970" stroke="#191970" points="1105.6994,-413.1266 1095.3378,-415.3373 1104.8165,-420.0707 1105.6994,-413.1266"/>
</g>
<!-- Node58 -->
<g id="node49" class="node">
<title>Node58</title>
<g id="a_node49"><a xlink:href="_source_term_8_h.html" target="_top" xlink:title="amr&#45;wind/equation_systems\l/SourceTerm.H">
<polygon fill="#ffffff" stroke="#000000" points="2422.3262,-190.5 2422.3262,-220.5 2561.3262,-220.5 2561.3262,-190.5 2422.3262,-190.5"/>
<text text-anchor="start" x="2430.3262" y="-208.5" font-family="Helvetica,sans-Serif" font-size="10.00" fill="#000000">amr&#45;wind/equation_systems</text>
<text text-anchor="middle" x="2491.8262" y="-197.5" font-family="Helvetica,sans-Serif" font-size="10.00" fill="#000000">/SourceTerm.H</text>
</a>
</g>
</g>
<!-- Node1&#45;&gt;Node58 -->
<g id="edge113" class="edge">
<title>Node1&#45;&gt;Node58</title>
<path fill="none" stroke="#191970" d="M1617.6544,-458.4474C1659.4884,-448.544 1715.0114,-435.0452 1763.8262,-422 2015.6074,-354.7143 2312.5523,-262.2751 2434.8416,-223.6299"/>
<polygon fill="#191970" stroke="#191970" points="2435.9094,-226.9632 2444.3882,-220.6102 2433.7982,-220.2891 2435.9094,-226.9632"/>
</g>
<!-- Node4 -->
<g id="node5" class="node">
<title>Node4</title>
<polygon fill="#ffffff" stroke="#bfbfbf" points="763.3262,-.5 763.3262,-19.5 804.3262,-19.5 804.3262,-.5 763.3262,-.5"/>
<text text-anchor="middle" x="783.8262" y="-7.5" font-family="Helvetica,sans-Serif" font-size="10.00" fill="#000000">string</text>
</g>
<!-- Node3&#45;&gt;Node4 -->
<g id="edge4" class="edge">
<title>Node3&#45;&gt;Node4</title>
<path fill="none" stroke="#191970" d="M855.9863,-257.3079C828.3301,-237.3808 783.1767,-199.5436 764.8262,-154 747.7788,-111.6907 764.3094,-57.2756 775.4769,-28.9873"/>
<polygon fill="#191970" stroke="#191970" points="778.8119,-30.0822 779.4132,-19.5045 772.3468,-27.3985 778.8119,-30.0822"/>
</g>
<!-- Node5&#45;&gt;Node4 -->
<g id="edge6" class="edge">
<title>Node5&#45;&gt;Node4</title>
<path fill="none" stroke="#191970" d="M1273.8793,-193.7161C1229.7666,-185.1865 1172.0382,-171.9887 1122.8262,-154 1032.8429,-121.1081 1019.5252,-92.2125 930.8262,-56 891.6273,-39.9965 844.6853,-26.1928 814.5727,-17.9895"/>
<polygon fill="#191970" stroke="#191970" points="815.2293,-14.5419 804.6636,-15.327 813.4129,-21.3021 815.2293,-14.5419"/>
</g>
<!-- Node6 -->
<g id="node7" class="node">
<title>Node6</title>
<g id="a_node7"><a xlink:href="_p_d_e_fields_8_h.html" target="_top" xlink:title="amr&#45;wind/equation_systems\l/PDEFields.H">
<polygon fill="#ffffff" stroke="#000000" points="30.3262,-56.5 30.3262,-86.5 169.3262,-86.5 169.3262,-56.5 30.3262,-56.5"/>
<text text-anchor="start" x="38.3262" y="-74.5" font-family="Helvetica,sans-Serif" font-size="10.00" fill="#000000">amr&#45;wind/equation_systems</text>
<text text-anchor="middle" x="99.8262" y="-63.5" font-family="Helvetica,sans-Serif" font-size="10.00" fill="#000000">/PDEFields.H</text>
</a>
</g>
</g>
<!-- Node5&#45;&gt;Node6 -->
<g id="edge7" class="edge">
<title>Node5&#45;&gt;Node6</title>
<path fill="none" stroke="#191970" d="M1274.2393,-196.2585C1254.4268,-193.9013 1232.8021,-191.588 1212.8262,-190 822.619,-158.9799 717.1762,-228.1551 332.8262,-154 263.7895,-140.6803 187.6794,-110.6161 141.8296,-90.6972"/>
<polygon fill="#191970" stroke="#191970" points="143.082,-87.4246 132.5184,-86.6104 140.2686,-93.8344 143.082,-87.4246"/>
</g>
<!-- Node8 -->
<g id="node9" class="node">
<title>Node8</title>
<g id="a_node9"><a xlink:href="_sim_time_8_h.html" target="_top" xlink:title="amr&#45;wind/core/SimTime.H">
<polygon fill="#ffffff" stroke="#000000" points="1278.3262,-62 1278.3262,-81 1409.3262,-81 1409.3262,-62 1278.3262,-62"/>
<text text-anchor="middle" x="1343.8262" y="-69" font-family="Helvetica,sans-Serif" font-size="10.00" fill="#000000">amr&#45;wind/core/SimTime.H</text>
</a>
</g>
</g>
<!-- Node5&#45;&gt;Node8 -->
<g id="edge9" class="edge">
<title>Node5&#45;&gt;Node8</title>
<path fill="none" stroke="#191970" d="M1343.8262,-190.389C1343.8262,-166.0735 1343.8262,-118.2644 1343.8262,-91.2698"/>
<polygon fill="#191970" stroke="#191970" points="1347.3263,-91.1041 1343.8262,-81.1042 1340.3263,-91.1042 1347.3263,-91.1041"/>
</g>
<!-- Node12 -->
<g id="node13" class="node">
<title>Node12</title>
<g id="a_node13"><a xlink:href="_field_repo_8_h.html" target="_top" xlink:title="amr&#45;wind/core/FieldRepo.H">
<polygon fill="#ffffff" stroke="#000000" points="1954.8262,-129 1954.8262,-148 2090.8262,-148 2090.8262,-129 1954.8262,-129"/>
<text text-anchor="middle" x="2022.8262" y="-136" font-family="Helvetica,sans-Serif" font-size="10.00" fill="#000000">amr&#45;wind/core/FieldRepo.H</text>
</a>
</g>
</g>
<!-- Node5&#45;&gt;Node12 -->
<g id="edge13" class="edge">
<title>Node5&#45;&gt;Node12</title>
<path fill="none" stroke="#191970" d="M1413.6166,-198.6135C1541.176,-186.0266 1811.0974,-159.3922 1944.6349,-146.2155"/>
<polygon fill="#191970" stroke="#191970" points="1945.1812,-149.6787 1954.7891,-145.2135 1944.4937,-142.7125 1945.1812,-149.6787"/>
</g>
<!-- Node31 -->
<g id="node27" class="node">
<title>Node31</title>
<g id="a_node27"><a xlink:href="_field_fill_patch_ops_8_h.html" target="_top" xlink:title="amr&#45;wind/core/FieldFillPatch\lOps.H">
<polygon fill="#ffffff" stroke="#000000" points="1617.8262,-123.5 1617.8262,-153.5 1757.8262,-153.5 1757.8262,-123.5 1617.8262,-123.5"/>
<text text-anchor="start" x="1625.8262" y="-141.5" font-family="Helvetica,sans-Serif" font-size="10.00" fill="#000000">amr&#45;wind/core/FieldFillPatch</text>
<text text-anchor="middle" x="1687.8262" y="-130.5" font-family="Helvetica,sans-Serif" font-size="10.00" fill="#000000">Ops.H</text>
</a>
</g>
</g>
<!-- Node5&#45;&gt;Node31 -->
<g id="edge40" class="edge">
<title>Node5&#45;&gt;Node31</title>
<path fill="none" stroke="#191970" d="M1413.4397,-191.9416C1469.6727,-180.9892 1548.8619,-165.5657 1607.7235,-154.1014"/>
<polygon fill="#191970" stroke="#191970" points="1608.5802,-157.5004 1617.7267,-152.1531 1607.242,-150.6295 1608.5802,-157.5004"/>
</g>
<!-- Node33 -->
<g id="node29" class="node">
<title>Node33</title>
<g id="a_node29"><a xlink:href="_field_b_c_ops_8_h.html" target="_top" xlink:title="amr&#45;wind/core/FieldBCOps.H">
<polygon fill="#ffffff" stroke="#000000" points="1131.3262,-129 1131.3262,-148 1276.3262,-148 1276.3262,-129 1131.3262,-129"/>
<text text-anchor="middle" x="1203.8262" y="-136" font-family="Helvetica,sans-Serif" font-size="10.00" fill="#000000">amr&#45;wind/core/FieldBCOps.H</text>
</a>
</g>
</g>
<!-- Node5&#45;&gt;Node33 -->
<g id="edge50" class="edge">
<title>Node5&#45;&gt;Node33</title>
<path fill="none" stroke="#191970" d="M1312.4074,-190.4639C1288.5998,-179.0702 1256.1332,-163.5327 1232.9167,-152.4219"/>
<polygon fill="#191970" stroke="#191970" points="1234.4252,-149.2637 1223.8941,-148.1039 1231.4034,-155.5779 1234.4252,-149.2637"/>
</g>
<!-- Node7 -->
<g id="node8" class="node">
<title>Node7</title>
<polygon fill="#ffffff" stroke="#bfbfbf" points="74.3262,-.5 74.3262,-19.5 119.3262,-19.5 119.3262,-.5 74.3262,-.5"/>
<text text-anchor="middle" x="96.8262" y="-7.5" font-family="Helvetica,sans-Serif" font-size="10.00" fill="#000000">iosfwd</text>
</g>
<!-- Node6&#45;&gt;Node7 -->
<g id="edge8" class="edge">
<title>Node6&#45;&gt;Node7</title>
<path fill="none" stroke="#191970" d="M99.0846,-56.2977C98.6985,-48.3834 98.2215,-38.6043 97.8055,-30.0759"/>
<polygon fill="#191970" stroke="#191970" points="101.2897,-29.6645 97.3065,-19.8469 94.298,-30.0056 101.2897,-29.6645"/>
</g>
<!-- Node9 -->
<g id="node10" class="node">
<title>Node9</title>
<polygon fill="#ffffff" stroke="#bfbfbf" points="1543.3262,-.5 1543.3262,-19.5 1636.3262,-19.5 1636.3262,-.5 1543.3262,-.5"/>
<text text-anchor="middle" x="1589.8262" y="-7.5" font-family="Helvetica,sans-Serif" font-size="10.00" fill="#000000">AMReX_REAL.H</text>
</g>
<!-- Node8&#45;&gt;Node9 -->
<g id="edge10" class="edge">
<title>Node8&#45;&gt;Node9</title>
<path fill="none" stroke="#191970" d="M1381.9938,-61.9581C1424.9932,-51.2082 1494.9613,-33.7162 1541.6803,-22.0365"/>
<polygon fill="#191970" stroke="#191970" points="1542.7165,-25.3852 1551.569,-19.5643 1541.0187,-18.5942 1542.7165,-25.3852"/>
</g>
<!-- Node10 -->
<g id="node11" class="node">
<title>Node10</title>
<polygon fill="#ffffff" stroke="#bfbfbf" points="1339.8262,-.5 1339.8262,-19.5 1465.8262,-19.5 1465.8262,-.5 1339.8262,-.5"/>
<text text-anchor="middle" x="1402.8262" y="-7.5" font-family="Helvetica,sans-Serif" font-size="10.00" fill="#000000">AMReX_GpuQualifiers.H</text>
</g>
<!-- Node8&#45;&gt;Node10 -->
<g id="edge11" class="edge">
<title>Node8&#45;&gt;Node10</title>
<path fill="none" stroke="#191970" d="M1353.0449,-61.8906C1361.912,-52.6478 1375.5173,-38.466 1386.2651,-27.2628"/>
<polygon fill="#191970" stroke="#191970" points="1389.0802,-29.3841 1393.4775,-19.7449 1384.0289,-24.5381 1389.0802,-29.3841"/>
</g>
<!-- Node11 -->
<g id="node12" class="node">
<title>Node11</title>
<polygon fill="#ffffff" stroke="#bfbfbf" points="1211.8262,-.5 1211.8262,-19.5 1321.8262,-19.5 1321.8262,-.5 1211.8262,-.5"/>
<text text-anchor="middle" x="1266.8262" y="-7.5" font-family="Helvetica,sans-Serif" font-size="10.00" fill="#000000">AMReX_Extension.H</text>
</g>
<!-- Node8&#45;&gt;Node11 -->
<g id="edge12" class="edge">
<title>Node8&#45;&gt;Node11</title>
<path fill="none" stroke="#191970" d="M1331.7949,-61.8906C1319.8155,-52.3227 1301.2096,-37.4621 1286.9737,-26.0919"/>
<polygon fill="#191970" stroke="#191970" points="1288.7709,-23.0479 1278.7729,-19.5419 1284.4023,-28.5175 1288.7709,-23.0479"/>
</g>
<!-- Node12&#45;&gt;Node4 -->
<g id="edge14" class="edge">
<title>Node12&#45;&gt;Node4</title>
<path fill="none" stroke="#191970" d="M2025.8167,-128.9468C2030.5707,-111.6438 2037.4422,-75.1403 2017.8262,-56 1978.0375,-17.1763 1073.3747,-22.1868 1017.8262,-20 945.0069,-17.1333 859.4585,-13.3793 814.6945,-11.3853"/>
<polygon fill="#191970" stroke="#191970" points="814.6297,-7.8791 804.4836,-10.9295 814.3175,-14.8721 814.6297,-7.8791"/>
</g>
<!-- Node13 -->
<g id="node14" class="node">
<title>Node13</title>
<polygon fill="#ffffff" stroke="#bfbfbf" points="535.3262,-.5 535.3262,-19.5 618.3262,-19.5 618.3262,-.5 535.3262,-.5"/>
<text text-anchor="middle" x="576.8262" y="-7.5" font-family="Helvetica,sans-Serif" font-size="10.00" fill="#000000">unordered_map</text>
</g>
<!-- Node12&#45;&gt;Node13 -->
<g id="edge15" class="edge">
<title>Node12&#45;&gt;Node13</title>
<path fill="none" stroke="#191970" d="M2021.6241,-128.7404C2018.829,-110.7556 2010.0819,-72.6986 1984.8262,-56 1927.7548,-18.2654 822.1815,-22.9299 753.8262,-20 711.7054,-18.1946 663.9844,-15.4582 628.7155,-13.304"/>
<polygon fill="#191970" stroke="#191970" points="628.8487,-9.8057 618.6525,-12.6846 628.4185,-16.7924 628.8487,-9.8057"/>
</g>
<!-- Node14 -->
<g id="node15" class="node">
<title>Node14</title>
<g id="a_node15"><a xlink:href="_field_desc_types_8_h.html" target="_top" xlink:title="amr&#45;wind/core/FieldDescTypes.H">
<polygon fill="#ffffff" stroke="#000000" points="1974.3262,-.5 1974.3262,-19.5 2137.3262,-19.5 2137.3262,-.5 1974.3262,-.5"/>
<text text-anchor="middle" x="2055.8262" y="-7.5" font-family="Helvetica,sans-Serif" font-size="10.00" fill="#000000">amr&#45;wind/core/FieldDescTypes.H</text>
</a>
</g>
</g>
<!-- Node12&#45;&gt;Node14 -->
<g id="edge16" class="edge">
<title>Node12&#45;&gt;Node14</title>
<path fill="none" stroke="#191970" d="M2070.8842,-128.9973C2082.0103,-126.9137 2093.8158,-124.7959 2104.8262,-123 2162.8289,-113.5392 2328.2019,-131.2944 2366.8262,-87 2375.8812,-76.6157 2375.8276,-66.4308 2366.8262,-56 2352.527,-39.4302 2234.0551,-25.5658 2147.5647,-17.5215"/>
<polygon fill="#191970" stroke="#191970" points="2147.7281,-14.0219 2137.4501,-16.5936 2147.0885,-20.9926 2147.7281,-14.0219"/>
</g>
<!-- Node15 -->
<g id="node16" class="node">
<title>Node15</title>
<g id="a_node16"><a xlink:href="_field_utils_8_h.html" target="_top" xlink:title="amr&#45;wind/core/FieldUtils.H">
<polygon fill="#ffffff" stroke="#ff0000" points="2528.3262,-62 2528.3262,-81 2661.3262,-81 2661.3262,-62 2528.3262,-62"/>
<text text-anchor="middle" x="2594.8262" y="-69" font-family="Helvetica,sans-Serif" font-size="10.00" fill="#000000">amr&#45;wind/core/FieldUtils.H</text>
</a>
</g>
</g>
<!-- Node12&#45;&gt;Node15 -->
<g id="edge17" class="edge">
<title>Node12&#45;&gt;Node15</title>
<path fill="none" stroke="#191970" d="M2069.0962,-128.9252C2080.7234,-126.7479 2093.2012,-124.6063 2104.8262,-123 2285.5893,-98.0228 2333.0913,-112.1807 2513.8262,-87 2522.1839,-85.8356 2530.9866,-84.3857 2539.5864,-82.8437"/>
<polygon fill="#191970" stroke="#191970" points="2540.3523,-86.2615 2549.5498,-81.0026 2539.0802,-79.378 2540.3523,-86.2615"/>
</g>
<!-- Node16 -->
<g id="node17" class="node">
<title>Node16</title>
<polygon fill="#ffffff" stroke="#bfbfbf" points="2371.8262,-.5 2371.8262,-19.5 2475.8262,-19.5 2475.8262,-.5 2371.8262,-.5"/>
<text text-anchor="middle" x="2423.8262" y="-7.5" font-family="Helvetica,sans-Serif" font-size="10.00" fill="#000000">AMReX_MultiFab.H</text>
</g>
<!-- Node12&#45;&gt;Node16 -->
<g id="edge38" class="edge">
<title>Node12&#45;&gt;Node16</title>
<path fill="none" stroke="#191970" d="M2070.8735,-128.9309C2082.0001,-126.8504 2093.8085,-124.7506 2104.8262,-123 2166.5657,-113.1903 2332.5869,-122.8125 2383.8262,-87 2403.2428,-73.4292 2413.8985,-47.4763 2419.2299,-29.4739"/>
<polygon fill="#191970" stroke="#191970" points="2422.6386,-30.2748 2421.8361,-19.7104 2415.8754,-28.4694 2422.6386,-30.2748"/>
</g>
<!-- Node18 -->
<g id="node18" class="node">
<title>Node18</title>
<g id="a_node18"><a xlink:href="_field_8_h.html" target="_top" xlink:title="amr&#45;wind/core/Field.H">
<polygon fill="#ffffff" stroke="#ff0000" points="1147.3262,-62 1147.3262,-81 1260.3262,-81 1260.3262,-62 1147.3262,-62"/>
<text text-anchor="middle" x="1203.8262" y="-69" font-family="Helvetica,sans-Serif" font-size="10.00" fill="#000000">amr&#45;wind/core/Field.H</text>
</a>
</g>
</g>
<!-- Node12&#45;&gt;Node18 -->
<g id="edge20" class="edge">
<title>Node12&#45;&gt;Node18</title>
<path fill="none" stroke="#191970" d="M1954.6348,-134.1378C1775.5599,-122.6417 1303.3735,-92.0523 1269.8262,-87 1263.1793,-85.999 1256.2135,-84.6732 1249.4018,-83.2174"/>
<polygon fill="#191970" stroke="#191970" points="1250.1111,-79.7896 1239.5873,-81.0141 1248.5778,-86.6196 1250.1111,-79.7896"/>
</g>
<!-- Node26 -->
<g id="node22" class="node">
<title>Node26</title>
<g id="a_node22"><a xlink:href="_int_field_8_h.html" target="_top" xlink:title="amr&#45;wind/core/IntField.H">
<polygon fill="#ffffff" stroke="#000000" points="2233.8262,-62 2233.8262,-81 2357.8262,-81 2357.8262,-62 2233.8262,-62"/>
<text text-anchor="middle" x="2295.8262" y="-69" font-family="Helvetica,sans-Serif" font-size="10.00" fill="#000000">amr&#45;wind/core/IntField.H</text>
</a>
</g>
</g>
<!-- Node12&#45;&gt;Node26 -->
<g id="edge28" class="edge">
<title>Node12&#45;&gt;Node26</title>
<path fill="none" stroke="#191970" d="M2061.6505,-128.9717C2110.3303,-117.0246 2193.8152,-96.5357 2246.8389,-83.5225"/>
<polygon fill="#191970" stroke="#191970" points="2247.8162,-86.8866 2256.6938,-81.1039 2246.1477,-80.0883 2247.8162,-86.8866"/>
</g>
<!-- Node27 -->
<g id="node23" class="node">
<title>Node27</title>
<polygon fill="#ffffff" stroke="#bfbfbf" points="2565.3262,-.5 2565.3262,-19.5 2672.3262,-19.5 2672.3262,-.5 2565.3262,-.5"/>
<text text-anchor="middle" x="2618.8262" y="-7.5" font-family="Helvetica,sans-Serif" font-size="10.00" fill="#000000">AMReX_iMultiFab.H</text>
</g>
<!-- Node12&#45;&gt;Node27 -->
<g id="edge39" class="edge">
<title>Node12&#45;&gt;Node27</title>
<path fill="none" stroke="#191970" d="M2090.9495,-135.5513C2253.3652,-128.1923 2651.3477,-108.088 2670.8262,-87 2688.6051,-67.752 2662.8857,-41.929 2641.7111,-25.6245"/>
<polygon fill="#191970" stroke="#191970" points="2643.7585,-22.7856 2633.6314,-19.6724 2639.6067,-28.4215 2643.7585,-22.7856"/>
</g>
<!-- Node28 -->
<g id="node24" class="node">
<title>Node28</title>
<g id="a_node24"><a xlink:href="_scratch_field_8_h.html" target="_top" xlink:title="amr&#45;wind/core/ScratchField.H">
<polygon fill="#ffffff" stroke="#ff0000" points="2069.8262,-62 2069.8262,-81 2215.8262,-81 2215.8262,-62 2069.8262,-62"/>
<text text-anchor="middle" x="2142.8262" y="-69" font-family="Helvetica,sans-Serif" font-size="10.00" fill="#000000">amr&#45;wind/core/ScratchField.H</text>
</a>
</g>
</g>
<!-- Node12&#45;&gt;Node28 -->
<g id="edge32" class="edge">
<title>Node12&#45;&gt;Node28</title>
<path fill="none" stroke="#191970" d="M2040.0193,-128.9005C2060.0688,-117.7062 2093.425,-99.0823 2116.6864,-86.0947"/>
<polygon fill="#191970" stroke="#191970" points="2118.64,-89.0126 2125.665,-81.0817 2115.2275,-82.9007 2118.64,-89.0126"/>
</g>
<!-- Node30 -->
<g id="node26" class="node">
<title>Node30</title>
<polygon fill="#ffffff" stroke="#bfbfbf" points="1869.8262,-62 1869.8262,-81 1975.8262,-81 1975.8262,-62 1869.8262,-62"/>
<text text-anchor="middle" x="1922.8262" y="-69" font-family="Helvetica,sans-Serif" font-size="10.00" fill="#000000">AMReX_AmrCore.H</text>
</g>
<!-- Node12&#45;&gt;Node30 -->
<g id="edge37" class="edge">
<title>Node12&#45;&gt;Node30</title>
<path fill="none" stroke="#191970" d="M2008.4986,-128.9005C1992.0876,-117.9052 1964.9786,-99.7422 1945.651,-86.7927"/>
<polygon fill="#191970" stroke="#191970" points="1947.383,-83.7402 1937.1272,-81.0817 1943.4867,-89.5556 1947.383,-83.7402"/>
</g>
<!-- Node15&#45;&gt;Node14 -->
<g id="edge18" class="edge">
<title>Node15&#45;&gt;Node14</title>
<path fill="none" stroke="#191970" d="M2528.1417,-62.5703C2511.0942,-60.3545 2492.7888,-58.0334 2475.8262,-56 2362.9733,-42.4717 2232.8633,-28.4676 2147.7319,-19.5198"/>
<polygon fill="#191970" stroke="#191970" points="2147.8879,-16.0171 2137.5772,-18.4541 2147.1572,-22.9788 2147.8879,-16.0171"/>
</g>
<!-- Node15&#45;&gt;Node16 -->
<g id="edge19" class="edge">
<title>Node15&#45;&gt;Node16</title>
<path fill="none" stroke="#191970" d="M2568.1074,-61.8906C2538.994,-51.42 2492.2569,-34.6111 2459.9015,-22.9745"/>
<polygon fill="#191970" stroke="#191970" points="2460.9518,-19.6328 2450.3573,-19.5419 2458.5827,-26.2197 2460.9518,-19.6328"/>
</g>
<!-- Node18&#45;&gt;Node4 -->
<g id="edge21" class="edge">
<title>Node18&#45;&gt;Node4</title>
<path fill="none" stroke="#191970" d="M1166.8458,-61.9701C1157.7255,-59.8168 1147.9547,-57.675 1138.8262,-56 1019.7492,-34.1502 876.3339,-18.9175 814.5722,-12.8834"/>
<polygon fill="#191970" stroke="#191970" points="814.6436,-9.3741 804.3534,-11.8965 813.9706,-16.3417 814.6436,-9.3741"/>
</g>
<!-- Node18&#45;&gt;Node13 -->
<g id="edge23" class="edge">
<title>Node18&#45;&gt;Node13</title>
<path fill="none" stroke="#191970" d="M1168.2614,-61.9862C1158.7564,-59.7276 1148.4499,-57.5321 1138.8262,-56 1041.2457,-40.4648 748.1079,-20.8272 628.4978,-13.2168"/>
<polygon fill="#191970" stroke="#191970" points="628.6923,-9.7222 618.4908,-12.5824 628.2493,-16.7082 628.6923,-9.7222"/>
</g>
<!-- Node18&#45;&gt;Node14 -->
<g id="edge27" class="edge">
<title>Node18&#45;&gt;Node14</title>
<path fill="none" stroke="#191970" d="M1239.5776,-61.9208C1249.324,-59.6342 1259.926,-57.4413 1269.8262,-56 1286.7967,-53.5295 1760.4278,-26.6501 1964.1265,-15.1601"/>
<polygon fill="#191970" stroke="#191970" points="1964.4216,-18.6491 1974.2086,-14.5915 1964.0274,-11.6602 1964.4216,-18.6491"/>
</g>
<!-- Node18&#45;&gt;Node16 -->
<g id="edge24" class="edge">
<title>Node18&#45;&gt;Node16</title>
<path fill="none" stroke="#191970" d="M1238.8737,-61.959C1248.8071,-59.6132 1259.6797,-57.3808 1269.8262,-56 1297.065,-52.2932 2124.9595,-21.163 2361.3612,-12.3289"/>
<polygon fill="#191970" stroke="#191970" points="2361.6453,-15.8208 2371.5076,-11.9499 2361.3839,-8.8257 2361.6453,-15.8208"/>
</g>
<!-- Node19 -->
<g id="node19" class="node">
<title>Node19</title>
<polygon fill="#ffffff" stroke="#bfbfbf" points="444.8262,-.5 444.8262,-19.5 496.8262,-19.5 496.8262,-.5 444.8262,-.5"/>
<text text-anchor="middle" x="470.8262" y="-7.5" font-family="Helvetica,sans-Serif" font-size="10.00" fill="#000000">memory</text>
</g>
<!-- Node18&#45;&gt;Node19 -->
<g id="edge22" class="edge">
<title>Node18&#45;&gt;Node19</title>
<path fill="none" stroke="#191970" d="M1168.9619,-61.9975C1159.2707,-59.6819 1148.6965,-57.4552 1138.8262,-56 868.8308,-16.1947 796.8016,-52.4698 525.8262,-20 519.7764,-19.2751 513.3861,-18.3043 507.1862,-17.2518"/>
<polygon fill="#191970" stroke="#191970" points="507.4858,-13.7499 497.0255,-15.4325 506.252,-20.6403 507.4858,-13.7499"/>
</g>
<!-- Node22 -->
<g id="node20" class="node">
<title>Node22</title>
<polygon fill="#ffffff" stroke="#bfbfbf" points="1026.3262,-.5 1026.3262,-19.5 1111.3262,-19.5 1111.3262,-.5 1026.3262,-.5"/>
<text text-anchor="middle" x="1068.8262" y="-7.5" font-family="Helvetica,sans-Serif" font-size="10.00" fill="#000000">AMReX_Gpu.H</text>
</g>
<!-- Node18&#45;&gt;Node22 -->
<g id="edge25" class="edge">
<title>Node18&#45;&gt;Node22</title>
<path fill="none" stroke="#191970" d="M1182.7324,-61.8906C1160.2435,-51.6457 1124.4344,-35.3326 1098.9738,-23.7339"/>
<polygon fill="#191970" stroke="#191970" points="1100.323,-20.5025 1089.7718,-19.5419 1097.421,-26.8727 1100.323,-20.5025"/>
</g>
<!-- Node23 -->
<g id="node21" class="node">
<title>Node23</title>
<g id="a_node21"><a xlink:href="incflo__enums_8_h.html" target="_top" xlink:title="amr&#45;wind/incflo_enums.H">
<polygon fill="#ffffff" stroke="#000000" points="137.8262,-.5 137.8262,-19.5 265.8262,-19.5 265.8262,-.5 137.8262,-.5"/>
<text text-anchor="middle" x="201.8262" y="-7.5" font-family="Helvetica,sans-Serif" font-size="10.00" fill="#000000">amr&#45;wind/incflo_enums.H</text>
</a>
</g>
</g>
<!-- Node18&#45;&gt;Node23 -->
<g id="edge26" class="edge">
<title>Node18&#45;&gt;Node23</title>
<path fill="none" stroke="#191970" d="M1168.971,-61.9348C1159.2798,-59.6189 1148.7033,-57.4077 1138.8262,-56 1096.4142,-49.9552 490.63,-22.7674 276.2995,-13.2794"/>
<polygon fill="#191970" stroke="#191970" points="276.2332,-9.7731 266.0883,-12.8276 275.9238,-16.7663 276.2332,-9.7731"/>
</g>
<!-- Node26&#45;&gt;Node4 -->
<g id="edge29" class="edge">
<title>Node26&#45;&gt;Node4</title>
<path fill="none" stroke="#191970" d="M2258.4646,-61.9865C2247.6791,-59.6104 2235.8458,-57.3553 2224.8262,-56 1692.1569,9.5141 1554.1563,-39.4575 1017.8262,-20 944.9984,-17.3579 859.4534,-13.514 814.6922,-11.4459"/>
<polygon fill="#191970" stroke="#191970" points="814.6334,-7.9395 804.482,-10.9723 814.309,-14.932 814.6334,-7.9395"/>
</g>
<!-- Node26&#45;&gt;Node14 -->
<g id="edge30" class="edge">
<title>Node26&#45;&gt;Node14</title>
<path fill="none" stroke="#191970" d="M2258.5895,-61.9581C2216.7268,-51.2308 2148.6633,-33.7895 2103.0847,-22.11"/>
<polygon fill="#191970" stroke="#191970" points="2103.706,-18.6562 2093.1502,-19.5643 2101.9684,-25.4371 2103.706,-18.6562"/>
</g>
<!-- Node26&#45;&gt;Node27 -->
<g id="edge31" class="edge">
<title>Node26&#45;&gt;Node27</title>
<path fill="none" stroke="#191970" d="M2345.9405,-61.9581C2403.4299,-51.012 2497.6343,-33.0752 2558.9393,-21.4026"/>
<polygon fill="#191970" stroke="#191970" points="2559.6912,-24.8224 2568.86,-19.5137 2558.3818,-17.946 2559.6912,-24.8224"/>
</g>
<!-- Node28&#45;&gt;Node4 -->
<g id="edge33" class="edge">
<title>Node28&#45;&gt;Node4</title>
<path fill="none" stroke="#191970" d="M2096.4944,-61.9912C2083.3991,-59.6457 2069.0995,-57.4054 2055.8262,-56 1596.7815,-7.3951 1479.0915,-37.8546 1017.8262,-20 945.0051,-17.1812 859.4574,-13.408 814.694,-11.3983"/>
<polygon fill="#191970" stroke="#191970" points="814.6305,-7.892 804.4832,-10.9386 814.3157,-14.8849 814.6305,-7.892"/>
</g>
<!-- Node28&#45;&gt;Node14 -->
<g id="edge34" class="edge">
<title>Node28&#45;&gt;Node14</title>
<path fill="none" stroke="#191970" d="M2129.2324,-61.8906C2115.4419,-52.1421 2093.879,-36.8994 2077.6852,-25.4521"/>
<polygon fill="#191970" stroke="#191970" points="2079.5106,-22.4563 2069.3245,-19.5419 2075.4699,-28.1723 2079.5106,-22.4563"/>
</g>
<!-- Node28&#45;&gt;Node16 -->
<g id="edge35" class="edge">
<title>Node28&#45;&gt;Node16</title>
<path fill="none" stroke="#191970" d="M2186.4241,-61.9581C2235.9532,-51.1181 2316.8069,-33.4224 2370.1672,-21.7439"/>
<polygon fill="#191970" stroke="#191970" points="2371.1055,-25.1214 2380.126,-19.5643 2369.6089,-18.2833 2371.1055,-25.1214"/>
</g>
<!-- Node29 -->
<g id="node25" class="node">
<title>Node29</title>
<polygon fill="#ffffff" stroke="#bfbfbf" points="1739.8262,-.5 1739.8262,-19.5 1867.8262,-19.5 1867.8262,-.5 1739.8262,-.5"/>
<text text-anchor="middle" x="1803.8262" y="-7.5" font-family="Helvetica,sans-Serif" font-size="10.00" fill="#000000">AMReX_PhysBCFunct.H</text>
</g>
<!-- Node28&#45;&gt;Node29 -->
<g id="edge36" class="edge">
<title>Node28&#45;&gt;Node29</title>
<path fill="none" stroke="#191970" d="M2090.2294,-61.9581C2029.7678,-50.9894 1930.6134,-33.0012 1866.282,-21.3305"/>
<polygon fill="#191970" stroke="#191970" points="1866.7316,-17.855 1856.2674,-19.5137 1865.482,-24.7426 1866.7316,-17.855"/>
</g>
<!-- Node31&#45;&gt;Node8 -->
<g id="edge42" class="edge">
<title>Node31&#45;&gt;Node8</title>
<path fill="none" stroke="#191970" d="M1617.798,-124.8608C1554.4732,-112.5272 1462.2872,-94.5723 1402.6827,-82.9633"/>
<polygon fill="#191970" stroke="#191970" points="1403.1618,-79.491 1392.6771,-81.0146 1401.8236,-86.3619 1403.1618,-79.491"/>
</g>
<!-- Node31&#45;&gt;Node9 -->
<g id="edge47" class="edge">
<title>Node31&#45;&gt;Node9</title>
<path fill="none" stroke="#191970" d="M1675.485,-123.2872C1667.2714,-113.0921 1656.2917,-99.3279 1646.8262,-87 1631.4157,-66.9293 1614.1902,-43.5189 1602.7498,-27.8271"/>
<polygon fill="#191970" stroke="#191970" points="1605.4522,-25.5922 1596.7399,-19.5635 1599.7911,-29.7095 1605.4522,-25.5922"/>
</g>
<!-- Node31&#45;&gt;Node14 -->
<g id="edge43" class="edge">
<title>Node31&#45;&gt;Node14</title>
<path fill="none" stroke="#191970" d="M1724.9444,-123.4422C1748.4091,-113.6439 1779.2195,-100.2614 1805.8262,-87 1830.9395,-74.4829 1834.6902,-66.2111 1860.8262,-56 1901.1249,-40.2556 1948.2982,-28.9513 1986.1521,-21.4894"/>
<polygon fill="#191970" stroke="#191970" points="1986.9075,-24.9083 1996.0653,-19.5806 1985.5839,-18.0346 1986.9075,-24.9083"/>
</g>
<!-- Node31&#45;&gt;Node15 -->
<g id="edge44" class="edge">
<title>Node31&#45;&gt;Node15</title>
<path fill="none" stroke="#191970" d="M1757.9326,-134.3866C1890.7064,-126.4407 2187.9476,-107.9092 2437.8262,-87 2463.9698,-84.8124 2492.5291,-82.0918 2518.0362,-79.5435"/>
<polygon fill="#191970" stroke="#191970" points="2518.4202,-83.0226 2528.0198,-78.5394 2517.7197,-76.0577 2518.4202,-83.0226"/>
</g>
<!-- Node31&#45;&gt;Node16 -->
<g id="edge46" class="edge">
<title>Node31&#45;&gt;Node16</title>
<path fill="none" stroke="#191970" d="M1757.9831,-133.941C1936.3486,-122.2837 2393.5748,-91.9571 2399.8262,-87 2416.9985,-73.3832 2422.144,-47.6344 2423.5498,-29.6782"/>
<polygon fill="#191970" stroke="#191970" points="2427.0462,-29.8354 2424.016,-19.6831 2420.0538,-29.5092 2427.0462,-29.8354"/>
</g>
<!-- Node31&#45;&gt;Node18 -->
<g id="edge41" class="edge">
<title>Node31&#45;&gt;Node18</title>
<path fill="none" stroke="#191970" d="M1617.5883,-132.1863C1534.2516,-124.156 1391.2934,-108.6805 1269.8262,-87 1263.8879,-85.9401 1257.682,-84.6833 1251.5538,-83.351"/>
<polygon fill="#191970" stroke="#191970" points="1251.8992,-79.8413 1241.3746,-81.059 1250.3615,-86.6703 1251.8992,-79.8413"/>
</g>
<!-- Node31&#45;&gt;Node29 -->
<g id="edge48" class="edge">
<title>Node31&#45;&gt;Node29</title>
<path fill="none" stroke="#191970" d="M1733.9043,-123.4923C1752.2058,-115.3732 1771.9287,-103.5389 1784.8262,-87 1797.6222,-70.5911 1801.9318,-46.7217 1803.3152,-29.9186"/>
<polygon fill="#191970" stroke="#191970" points="1806.8284,-29.7675 1803.8738,-19.593 1799.8387,-29.3893 1806.8284,-29.7675"/>
</g>
<!-- Node31&#45;&gt;Node30 -->
<g id="edge45" class="edge">
<title>Node31&#45;&gt;Node30</title>
<path fill="none" stroke="#191970" d="M1740.5648,-123.4639C1782.517,-111.503 1840.487,-94.9754 1879.6967,-83.7965"/>
<polygon fill="#191970" stroke="#191970" points="1880.8296,-87.113 1889.4867,-81.0053 1878.9103,-80.3813 1880.8296,-87.113"/>
</g>
<!-- Node32 -->
<g id="node28" class="node">
<title>Node32</title>
<polygon fill="#ffffff" stroke="#bfbfbf" points="1655.8262,-62 1655.8262,-81 1775.8262,-81 1775.8262,-62 1655.8262,-62"/>
<text text-anchor="middle" x="1715.8262" y="-69" font-family="Helvetica,sans-Serif" font-size="10.00" fill="#000000">AMReX_FillPatchUtil.H</text>
</g>
<!-- Node31&#45;&gt;Node32 -->
<g id="edge49" class="edge">
<title>Node31&#45;&gt;Node32</title>
<path fill="none" stroke="#191970" d="M1694.1798,-123.2967C1698.2459,-113.5672 1703.5532,-100.8675 1707.8949,-90.4784"/>
<polygon fill="#191970" stroke="#191970" points="1711.2064,-91.6313 1711.8331,-81.055 1704.7477,-88.9321 1711.2064,-91.6313"/>
</g>
<!-- Node33&#45;&gt;Node14 -->
<g id="edge51" class="edge">
<title>Node33&#45;&gt;Node14</title>
<path fill="none" stroke="#191970" d="M1276.5784,-128.9978C1342.4872,-119.9011 1442.1118,-104.9324 1527.8262,-87 1581.322,-75.8081 1593.0889,-65.9685 1646.8262,-56 1754.9037,-35.9511 1880.7793,-23.3871 1964.0363,-16.552"/>
<polygon fill="#191970" stroke="#191970" points="1964.5425,-20.0225 1974.2273,-15.7265 1963.9773,-13.0454 1964.5425,-20.0225"/>
</g>
<!-- Node33&#45;&gt;Node18 -->
<g id="edge52" class="edge">
<title>Node33&#45;&gt;Node18</title>
<path fill="none" stroke="#191970" d="M1203.8262,-128.9005C1203.8262,-119.149 1203.8262,-103.7597 1203.8262,-91.3695"/>
<polygon fill="#191970" stroke="#191970" points="1207.3263,-91.0816 1203.8262,-81.0817 1200.3263,-91.0817 1207.3263,-91.0816"/>
</g>
<!-- Node33&#45;&gt;Node22 -->
<g id="edge53" class="edge">
<title>Node33&#45;&gt;Node22</title>
<path fill="none" stroke="#191970" d="M1132.4713,-128.9856C1082.961,-120.7511 1023.2421,-106.9898 1007.8262,-87 999.4123,-76.0897 1001.6807,-68.3313 1007.8262,-56 1014.4265,-42.756 1026.8589,-32.3192 1038.7867,-24.7581"/>
<polygon fill="#191970" stroke="#191970" points="1040.8426,-27.6102 1047.7046,-19.5378 1037.3063,-21.5691 1040.8426,-27.6102"/>
</g>
<!-- Node33&#45;&gt;Node29 -->
<g id="edge56" class="edge">
<title>Node33&#45;&gt;Node29</title>
<path fill="none" stroke="#191970" d="M1244.7017,-128.9621C1287.9968,-118.8005 1358.3171,-102.1269 1418.8262,-87 1471.8484,-73.7448 1484.4077,-67.5556 1537.8262,-56 1602.2682,-42.0598 1676.2143,-29.5492 1729.7573,-21.1068"/>
<polygon fill="#191970" stroke="#191970" points="1730.5097,-24.5317 1739.8474,-19.5259 1729.4262,-17.6161 1730.5097,-24.5317"/>
</g>
<!-- Node34 -->
<g id="node30" class="node">
<title>Node34</title>
<polygon fill="#ffffff" stroke="#bfbfbf" points="1016.3262,-62 1016.3262,-81 1129.3262,-81 1129.3262,-62 1016.3262,-62"/>
<text text-anchor="middle" x="1072.8262" y="-69" font-family="Helvetica,sans-Serif" font-size="10.00" fill="#000000">AMReX_FArrayBox.H</text>
</g>
<!-- Node33&#45;&gt;Node34 -->
<g id="edge54" class="edge">
<title>Node33&#45;&gt;Node34</title>
<path fill="none" stroke="#191970" d="M1185.0571,-128.9005C1162.975,-117.6067 1126.1073,-98.7506 1100.6876,-85.7497"/>
<polygon fill="#191970" stroke="#191970" points="1102.0573,-82.5191 1091.5605,-81.0817 1098.8699,-88.7513 1102.0573,-82.5191"/>
</g>
<!-- Node35 -->
<g id="node31" class="node">
<title>Node35</title>
<polygon fill="#ffffff" stroke="#bfbfbf" points="811.8262,-62 811.8262,-81 921.8262,-81 921.8262,-62 811.8262,-62"/>
<text text-anchor="middle" x="866.8262" y="-69" font-family="Helvetica,sans-Serif" font-size="10.00" fill="#000000">AMReX_Geometry.H</text>
</g>
<!-- Node33&#45;&gt;Node35 -->
<g id="edge55" class="edge">
<title>Node33&#45;&gt;Node35</title>
<path fill="none" stroke="#191970" d="M1155.9002,-128.9717C1095.0973,-116.8833 990.3074,-96.0497 924.9906,-83.0638"/>
<polygon fill="#191970" stroke="#191970" points="925.3499,-79.5669 914.8594,-81.0496 923.9849,-86.4325 925.3499,-79.5669"/>
</g>
<!-- Node36&#45;&gt;Node4 -->
<g id="edge58" class="edge">
<title>Node36&#45;&gt;Node4</title>
<path fill="none" stroke="#191970" d="M956.0397,-391.7942C862.4312,-370.0221 707.8262,-325.9694 707.8262,-272.5 707.8262,-272.5 707.8262,-272.5 707.8262,-138.5 707.8262,-93.2888 743.1115,-50.0297 765.5966,-27.0531"/>
<polygon fill="#191970" stroke="#191970" points="768.2826,-29.3196 772.9372,-19.8019 763.3633,-24.3396 768.2826,-29.3196"/>
</g>
<!-- Node37 -->
<g id="node33" class="node">
<title>Node37</title>
<g id="a_node33"><a xlink:href="_c_f_d_sim_8_h.html" target="_top" xlink:title="amr&#45;wind/CFDSim.H">
<polygon fill="#ffffff" stroke="#000000" points="961.8262,-196 961.8262,-215 1069.8262,-215 1069.8262,-196 961.8262,-196"/>
<text text-anchor="middle" x="1015.8262" y="-203" font-family="Helvetica,sans-Serif" font-size="10.00" fill="#000000">amr&#45;wind/CFDSim.H</text>
</a>
</g>
</g>
<!-- Node36&#45;&gt;Node37 -->
<g id="edge59" class="edge">
<title>Node36&#45;&gt;Node37</title>
<path fill="none" stroke="#191970" d="M1025.0746,-391.3923C1023.2931,-355.5844 1018.814,-265.5545 1016.8155,-225.386"/>
<polygon fill="#191970" stroke="#191970" points="1020.3042,-225.0699 1016.3116,-215.2562 1013.3129,-225.4178 1020.3042,-225.0699"/>
</g>
<!-- Node38 -->
<g id="node34" class="node">
<title>Node38</title>
<g id="a_node34"><a xlink:href="_p_d_e_base_8_h.html" target="_top" xlink:title="amr&#45;wind/equation_systems\l/PDEBase.H">
<polygon fill="#ffffff" stroke="#000000" points="342.3262,-123.5 342.3262,-153.5 481.3262,-153.5 481.3262,-123.5 342.3262,-123.5"/>
<text text-anchor="start" x="350.3262" y="-141.5" font-family="Helvetica,sans-Serif" font-size="10.00" fill="#000000">amr&#45;wind/equation_systems</text>
<text text-anchor="middle" x="411.8262" y="-130.5" font-family="Helvetica,sans-Serif" font-size="10.00" fill="#000000">/PDEBase.H</text>
</a>
</g>
</g>
<!-- Node36&#45;&gt;Node38 -->
<g id="edge80" class="edge">
<title>Node36&#45;&gt;Node38</title>
<path fill="none" stroke="#191970" d="M956.2195,-399.8024C873.1826,-391.1024 739.8098,-374.6763 693.8262,-355 582.786,-307.4861 476.7348,-206.1151 432.9229,-160.9817"/>
<polygon fill="#191970" stroke="#191970" points="435.409,-158.5175 425.9552,-153.7346 430.3629,-163.3691 435.409,-158.5175"/>
</g>
<!-- Node45 -->
<g id="node38" class="node">
<title>Node45</title>
<g id="a_node38"><a xlink:href="_p_d_e_ops_8_h.html" target="_top" xlink:title="amr&#45;wind/equation_systems\l/PDEOps.H">
<polygon fill="#ffffff" stroke="#000000" points="1054.3262,-257.5 1054.3262,-287.5 1193.3262,-287.5 1193.3262,-257.5 1054.3262,-257.5"/>
<text text-anchor="start" x="1062.3262" y="-275.5" font-family="Helvetica,sans-Serif" font-size="10.00" fill="#000000">amr&#45;wind/equation_systems</text>
<text text-anchor="middle" x="1123.8262" y="-264.5" font-family="Helvetica,sans-Serif" font-size="10.00" fill="#000000">/PDEOps.H</text>
</a>
</g>
</g>
<!-- Node36&#45;&gt;Node45 -->
<g id="edge81" class="edge">
<title>Node36&#45;&gt;Node45</title>
<path fill="none" stroke="#191970" d="M1036.8775,-391.389C1053.8611,-368.1665 1086.5167,-323.5151 1106.6161,-296.0322"/>
<polygon fill="#191970" stroke="#191970" points="1109.5867,-297.8992 1112.6649,-287.7614 1103.9365,-293.767 1109.5867,-297.8992"/>
</g>
<!-- Node50 -->
<g id="node42" class="node">
<title>Node50</title>
<g id="a_node42"><a xlink:href="_comp_r_h_s_ops_8_h.html" target="_top" xlink:title="amr&#45;wind/equation_systems\l/CompRHSOps.H">
<polygon fill="#ffffff" stroke="#000000" points="858.3262,-324.5 858.3262,-354.5 997.3262,-354.5 997.3262,-324.5 858.3262,-324.5"/>
<text text-anchor="start" x="866.3262" y="-342.5" font-family="Helvetica,sans-Serif" font-size="10.00" fill="#000000">amr&#45;wind/equation_systems</text>
<text text-anchor="middle" x="927.8262" y="-331.5" font-family="Helvetica,sans-Serif" font-size="10.00" fill="#000000">/CompRHSOps.H</text>
</a>
</g>
</g>
<!-- Node36&#45;&gt;Node50 -->
<g id="edge93" class="edge">
<title>Node36&#45;&gt;Node50</title>
<path fill="none" stroke="#191970" d="M1003.5885,-391.2967C990.1814,-382.1306 972.9186,-370.3285 958.2582,-360.3055"/>
<polygon fill="#191970" stroke="#191970" points="960.2064,-357.3977 949.9759,-354.6432 956.2557,-363.1763 960.2064,-357.3977"/>
</g>
<!-- Node51 -->
<g id="node43" class="node">
<title>Node51</title>
<g id="a_node43"><a xlink:href="_diffusion_ops_8_h.html" target="_top" xlink:title="amr&#45;wind/equation_systems\l/DiffusionOps.H">
<polygon fill="#ffffff" stroke="#000000" points="1520.3262,-324.5 1520.3262,-354.5 1659.3262,-354.5 1659.3262,-324.5 1520.3262,-324.5"/>
<text text-anchor="start" x="1528.3262" y="-342.5" font-family="Helvetica,sans-Serif" font-size="10.00" fill="#000000">amr&#45;wind/equation_systems</text>
<text text-anchor="middle" x="1589.8262" y="-331.5" font-family="Helvetica,sans-Serif" font-size="10.00" fill="#000000">/DiffusionOps.H</text>
</a>
</g>
</g>
<!-- Node36&#45;&gt;Node51 -->
<g id="edge97" class="edge">
<title>Node36&#45;&gt;Node51</title>
<path fill="none" stroke="#191970" d="M1095.5493,-398.2173C1200.7243,-385.7231 1399.4052,-362.1209 1510.1528,-348.9647"/>
<polygon fill="#191970" stroke="#191970" points="1510.745,-352.4191 1520.2623,-347.7638 1509.9192,-345.468 1510.745,-352.4191"/>
</g>
<!-- Node37&#45;&gt;Node8 -->
<g id="edge61" class="edge">
<title>Node37&#45;&gt;Node8</title>
<path fill="none" stroke="#191970" d="M1052.706,-195.9742C1061.2561,-193.8916 1070.3378,-191.7801 1078.8262,-190 1170.2191,-170.8339 1206.9635,-204.0067 1285.8262,-154 1309.8907,-138.7407 1326.7993,-109.5395 1335.9245,-90.2906"/>
<polygon fill="#191970" stroke="#191970" points="1339.1858,-91.5718 1340.0867,-81.0153 1332.7994,-88.7059 1339.1858,-91.5718"/>
</g>
<!-- Node37&#45;&gt;Node12 -->
<g id="edge62" class="edge">
<title>Node37&#45;&gt;Node12</title>
<path fill="none" stroke="#191970" d="M1049.5942,-195.9313C1058.9872,-193.6154 1069.2419,-191.4051 1078.8262,-190 1396.2766,-143.4612 1479.553,-173.1245 1799.8262,-154 1847.8846,-151.1303 1901.7321,-147.402 1944.4727,-144.3212"/>
<polygon fill="#191970" stroke="#191970" points="1944.8079,-147.8062 1954.5292,-143.5935 1944.3026,-140.8244 1944.8079,-147.8062"/>
</g>
<!-- Node37&#45;&gt;Node30 -->
<g id="edge60" class="edge">
<title>Node37&#45;&gt;Node30</title>
<path fill="none" stroke="#191970" d="M1049.5965,-195.9464C1058.9895,-193.6306 1069.2436,-191.4165 1078.8262,-190 1230.2785,-167.612 1622.4137,-204.8334 1766.8262,-154 1789.0493,-146.1774 1789.4527,-134.8315 1809.8262,-123 1835.4379,-108.1265 1866.1018,-94.3858 1889.0204,-84.8451"/>
<polygon fill="#191970" stroke="#191970" points="1890.4098,-88.0583 1898.3312,-81.0224 1887.7512,-81.5828 1890.4098,-88.0583"/>
</g>
<!-- Node37&#45;&gt;Node38 -->
<g id="edge63" class="edge">
<title>Node37&#45;&gt;Node38</title>
<path fill="none" stroke="#191970" d="M961.7496,-201.6448C867.0485,-194.5591 665.145,-177.9633 495.8262,-154 494.3579,-153.7922 492.8761,-153.577 491.3841,-153.3552"/>
<polygon fill="#191970" stroke="#191970" points="491.8437,-149.8847 481.4246,-151.8066 490.7681,-156.8016 491.8437,-149.8847"/>
</g>
<!-- Node44 -->
<g id="node37" class="node">
<title>Node44</title>
<g id="a_node37"><a xlink:href="_physics_8_h.html" target="_top" xlink:title="amr&#45;wind/core/Physics.H">
<polygon fill="#ffffff" stroke="#000000" points="774.3262,-129 774.3262,-148 901.3262,-148 901.3262,-129 774.3262,-129"/>
<text text-anchor="middle" x="837.8262" y="-136" font-family="Helvetica,sans-Serif" font-size="10.00" fill="#000000">amr&#45;wind/core/Physics.H</text>
</a>
</g>
</g>
<!-- Node37&#45;&gt;Node44 -->
<g id="edge75" class="edge">
<title>Node37&#45;&gt;Node44</title>
<path fill="none" stroke="#191970" d="M990.3231,-195.9005C959.5254,-184.3082 907.5612,-164.7486 872.9781,-151.7313"/>
<polygon fill="#191970" stroke="#191970" points="873.8739,-148.3288 863.2819,-148.0817 871.4079,-154.8801 873.8739,-148.3288"/>
</g>
<!-- Node38&#45;&gt;Node4 -->
<g id="edge64" class="edge">
<title>Node38&#45;&gt;Node4</title>
<path fill="none" stroke="#191970" d="M481.4834,-126.7609C540.8011,-116.1675 621.0114,-100.2586 650.8262,-87 672.3533,-77.4269 673.7233,-68.2856 693.8262,-56 713.1553,-44.1873 735.8763,-32.5909 753.6531,-23.9965"/>
<polygon fill="#191970" stroke="#191970" points="755.4519,-27.0161 762.9675,-19.5483 752.4353,-20.6994 755.4519,-27.0161"/>
</g>
<!-- Node38&#45;&gt;Node6 -->
<g id="edge72" class="edge">
<title>Node38&#45;&gt;Node6</title>
<path fill="none" stroke="#191970" d="M342.1956,-123.5473C293.9571,-113.1884 229.6295,-99.3744 179.3688,-88.5813"/>
<polygon fill="#191970" stroke="#191970" points="180.0252,-85.1425 169.5132,-86.4648 178.5554,-91.9865 180.0252,-85.1425"/>
</g>
<!-- Node38&#45;&gt;Node14 -->
<g id="edge73" class="edge">
<title>Node38&#45;&gt;Node14</title>
<path fill="none" stroke="#191970" d="M481.6227,-128.1927C497.1338,-126.1984 513.5156,-124.321 528.8262,-123 726.033,-105.9845 1225.9224,-131.364 1418.8262,-87 1452.3825,-79.2827 1456.4337,-64.3979 1489.8262,-56 1534.5132,-44.7616 1815.7927,-25.4049 1964.2695,-15.781"/>
<polygon fill="#191970" stroke="#191970" points="1964.536,-19.2712 1974.2894,-15.1333 1964.0844,-12.2858 1964.536,-19.2712"/>
</g>
<!-- Node38&#45;&gt;Node23 -->
<g id="edge74" class="edge">
<title>Node38&#45;&gt;Node23</title>
<path fill="none" stroke="#191970" d="M342.152,-128.0752C293.3955,-119.3494 234.0268,-105.3716 216.8262,-87 202.5474,-71.7492 199.9948,-47.128 200.2424,-29.8421"/>
<polygon fill="#191970" stroke="#191970" points="203.745,-29.8663 200.7143,-19.7142 196.7525,-29.5404 203.745,-29.8663"/>
</g>
<!-- Node39 -->
<g id="node35" class="node">
<title>Node39</title>
<g id="a_node35"><a xlink:href="_factory_8_h.html" target="_top" xlink:title="amr&#45;wind/core/Factory.H">
<polygon fill="#ffffff" stroke="#ff0000" points="226.3262,-62 226.3262,-81 351.3262,-81 351.3262,-62 226.3262,-62"/>
<text text-anchor="middle" x="288.8262" y="-69" font-family="Helvetica,sans-Serif" font-size="10.00" fill="#000000">amr&#45;wind/core/Factory.H</text>
</a>
</g>
</g>
<!-- Node38&#45;&gt;Node39 -->
<g id="edge65" class="edge">
<title>Node38&#45;&gt;Node39</title>
<path fill="none" stroke="#191970" d="M384.2226,-123.4639C363.6777,-112.2728 335.7935,-97.0838 315.4797,-86.0186"/>
<polygon fill="#191970" stroke="#191970" points="316.9132,-82.8139 306.4573,-81.1039 313.5647,-88.9611 316.9132,-82.8139"/>
</g>
<!-- Node43 -->
<g id="node36" class="node">
<title>Node43</title>
<g id="a_node36"><a xlink:href="_coll_mgr_8_h.html" target="_top" xlink:title="amr&#45;wind/core/CollMgr.H">
<polygon fill="#ffffff" stroke="#ff0000" points="408.3262,-62 408.3262,-81 533.3262,-81 533.3262,-62 408.3262,-62"/>
<text text-anchor="middle" x="470.8262" y="-69" font-family="Helvetica,sans-Serif" font-size="10.00" fill="#000000">amr&#45;wind/core/CollMgr.H</text>
</a>
</g>
</g>
<!-- Node38&#45;&gt;Node43 -->
<g id="edge68" class="edge">
<title>Node38&#45;&gt;Node43</title>
<path fill="none" stroke="#191970" d="M425.2142,-123.2967C434.2282,-113.0605 446.1373,-99.5366 455.5262,-88.8746"/>
<polygon fill="#191970" stroke="#191970" points="458.43,-90.873 462.4121,-81.055 453.1765,-86.2468 458.43,-90.873"/>
</g>
<!-- Node39&#45;&gt;Node13 -->
<g id="edge67" class="edge">
<title>Node39&#45;&gt;Node13</title>
<path fill="none" stroke="#191970" d="M333.5102,-61.9581C385.4198,-50.8732 470.9012,-32.6194 525.4929,-20.9618"/>
<polygon fill="#191970" stroke="#191970" points="526.2633,-24.3763 535.3119,-18.865 524.8014,-17.5306 526.2633,-24.3763"/>
</g>
<!-- Node39&#45;&gt;Node19 -->
<g id="edge66" class="edge">
<title>Node39&#45;&gt;Node19</title>
<path fill="none" stroke="#191970" d="M317.2637,-61.8906C349.0204,-51.1597 400.4789,-33.7712 434.9703,-22.1161"/>
<polygon fill="#191970" stroke="#191970" points="436.2999,-25.3613 444.6532,-18.8442 434.0589,-18.7297 436.2999,-25.3613"/>
</g>
<!-- Node43&#45;&gt;Node4 -->
<g id="edge69" class="edge">
<title>Node43&#45;&gt;Node4</title>
<path fill="none" stroke="#191970" d="M514.1957,-61.9915C523.6254,-59.9722 533.5535,-57.8828 542.8262,-56 618.3442,-40.6664 707.4812,-24.0327 753.2763,-15.5938"/>
<polygon fill="#191970" stroke="#191970" points="753.9602,-19.0268 763.162,-13.7754 752.6938,-12.1423 753.9602,-19.0268"/>
</g>
<!-- Node43&#45;&gt;Node13 -->
<g id="edge71" class="edge">
<title>Node43&#45;&gt;Node13</title>
<path fill="none" stroke="#191970" d="M487.3887,-61.8906C504.5799,-51.9165 531.6844,-36.1908 551.5528,-24.6633"/>
<polygon fill="#191970" stroke="#191970" points="553.4868,-27.5877 560.38,-19.5419 549.9739,-21.533 553.4868,-27.5877"/>
</g>
<!-- Node43&#45;&gt;Node19 -->
<g id="edge70" class="edge">
<title>Node43&#45;&gt;Node19</title>
<path fill="none" stroke="#191970" d="M470.8262,-61.8906C470.8262,-53.3657 470.8262,-40.6392 470.8262,-29.9235"/>
<polygon fill="#191970" stroke="#191970" points="474.3263,-29.7448 470.8262,-19.7449 467.3263,-29.7449 474.3263,-29.7448"/>
</g>
<!-- Node44&#45;&gt;Node16 -->
<g id="edge78" class="edge">
<title>Node44&#45;&gt;Node16</title>
<path fill="none" stroke="#191970" d="M901.4748,-134.5746C959.2184,-131.1239 1046.7055,-126.1709 1122.8262,-123 1191.9063,-120.1224 2305.5391,-119.0037 2366.8262,-87 2379.2916,-80.4906 2400.1597,-48.9834 2412.8906,-28.3434"/>
<polygon fill="#191970" stroke="#191970" points="2415.908,-30.1176 2418.1079,-19.7536 2409.9251,-26.4836 2415.908,-30.1176"/>
</g>
<!-- Node44&#45;&gt;Node35 -->
<g id="edge79" class="edge">
<title>Node44&#45;&gt;Node35</title>
<path fill="none" stroke="#191970" d="M841.9812,-128.9005C846.2881,-118.95 853.1359,-103.1292 858.5526,-90.6147"/>
<polygon fill="#191970" stroke="#191970" points="861.9186,-91.6492 862.6789,-81.0817 855.4946,-88.8686 861.9186,-91.6492"/>
</g>
<!-- Node44&#45;&gt;Node39 -->
<g id="edge76" class="edge">
<title>Node44&#45;&gt;Node39</title>
<path fill="none" stroke="#191970" d="M774.1564,-131.4998C688.6994,-121.9969 532.2026,-104.218 398.8262,-87 386.6767,-85.4316 373.7842,-83.6872 361.2654,-81.9508"/>
<polygon fill="#191970" stroke="#191970" points="361.7148,-78.4797 351.327,-80.5634 360.747,-85.4125 361.7148,-78.4797"/>
</g>
<!-- Node44&#45;&gt;Node43 -->
<g id="edge77" class="edge">
<title>Node44&#45;&gt;Node43</title>
<path fill="none" stroke="#191970" d="M779.211,-128.9629C719.5931,-119.0995 624.602,-102.934 542.8262,-87 536.6491,-85.7964 530.1857,-84.4827 523.7746,-83.1456"/>
<polygon fill="#191970" stroke="#191970" points="524.299,-79.6792 513.7916,-81.0379 522.8529,-86.5282 524.299,-79.6792"/>
</g>
<!-- Node45&#45;&gt;Node5 -->
<g id="edge83" class="edge">
<title>Node45&#45;&gt;Node5</title>
<path fill="none" stroke="#191970" d="M1173.1985,-257.4639C1206.2012,-247.4131 1249.7925,-234.1375 1284.6535,-223.5208"/>
<polygon fill="#191970" stroke="#191970" points="1285.692,-226.8633 1294.2385,-220.6017 1283.6526,-220.1669 1285.692,-226.8633"/>
</g>
<!-- Node45&#45;&gt;Node15 -->
<g id="edge82" class="edge">
<title>Node45&#45;&gt;Node15</title>
<path fill="none" stroke="#191970" d="M1193.3433,-263.3276C1209.5777,-261.2182 1226.8048,-259.0061 1242.8262,-257 1623.4836,-209.3355 1720.0782,-208.4372 2099.8262,-154 2256.0518,-131.6049 2439.0381,-99.5947 2532.6874,-82.7906"/>
<polygon fill="#191970" stroke="#191970" points="2533.3399,-86.2295 2542.563,-81.0155 2532.1015,-79.34 2533.3399,-86.2295"/>
</g>
<!-- Node45&#45;&gt;Node37 -->
<g id="edge91" class="edge">
<title>Node45&#45;&gt;Node37</title>
<path fill="none" stroke="#191970" d="M1099.5889,-257.4639C1081.7944,-246.4247 1057.7293,-231.4954 1039.9593,-220.4715"/>
<polygon fill="#191970" stroke="#191970" points="1041.6499,-217.4015 1031.3071,-215.1039 1037.9597,-223.3498 1041.6499,-217.4015"/>
</g>
<!-- Node46 -->
<g id="node39" class="node">
<title>Node46</title>
<g id="a_node39"><a xlink:href="_turbulence_model_8_h.html" target="_top" xlink:title="amr&#45;wind/turbulence\l/TurbulenceModel.H">
<polygon fill="#ffffff" stroke="#000000" points="537.8262,-123.5 537.8262,-153.5 641.8262,-153.5 641.8262,-123.5 537.8262,-123.5"/>
<text text-anchor="start" x="545.8262" y="-141.5" font-family="Helvetica,sans-Serif" font-size="10.00" fill="#000000">amr&#45;wind/turbulence</text>
<text text-anchor="middle" x="589.8262" y="-130.5" font-family="Helvetica,sans-Serif" font-size="10.00" fill="#000000">/TurbulenceModel.H</text>
</a>
</g>
</g>
<!-- Node45&#45;&gt;Node46 -->
<g id="edge84" class="edge">
<title>Node45&#45;&gt;Node46</title>
<path fill="none" stroke="#191970" d="M1054.2518,-265.2217C989.6553,-257.5119 891.1842,-243.3241 807.8262,-221 745.32,-204.2603 675.8443,-176.2441 632.4937,-157.5701"/>
<polygon fill="#191970" stroke="#191970" points="633.6873,-154.2728 623.1205,-153.5024 630.9005,-160.6942 633.6873,-154.2728"/>
</g>
<!-- Node47 -->
<g id="node40" class="node">
<title>Node47</title>
<g id="a_node40"><a xlink:href="_i_o_manager_8_h.html" target="_top" xlink:title="amr&#45;wind/utilities\l/IOManager.H">
<polygon fill="#ffffff" stroke="#ff0000" points="551.8262,-56.5 551.8262,-86.5 641.8262,-86.5 641.8262,-56.5 551.8262,-56.5"/>
<text text-anchor="start" x="559.8262" y="-74.5" font-family="Helvetica,sans-Serif" font-size="10.00" fill="#000000">amr&#45;wind/utilities</text>
<text text-anchor="middle" x="596.8262" y="-63.5" font-family="Helvetica,sans-Serif" font-size="10.00" fill="#000000">/IOManager.H</text>
</a>
</g>
</g>
<!-- Node45&#45;&gt;Node47 -->
<g id="edge88" class="edge">
<title>Node45&#45;&gt;Node47</title>
<path fill="none" stroke="#191970" d="M1071.2261,-257.3948C1037.2982,-247.4705 992.2967,-233.968 952.8262,-221 868.5548,-193.3126 846.5474,-188.4948 764.8262,-154 718.8556,-134.5957 667.5858,-108.7853 633.9156,-91.2365"/>
<polygon fill="#191970" stroke="#191970" points="635.3872,-88.0563 624.9046,-86.5181 632.14,-94.2576 635.3872,-88.0563"/>
</g>
<!-- Node49 -->
<g id="node41" class="node">
<title>Node49</title>
<polygon fill="#ffffff" stroke="#bfbfbf" points="1087.8262,-196 1087.8262,-215 1203.8262,-215 1203.8262,-196 1087.8262,-196"/>
<text text-anchor="middle" x="1145.8262" y="-203" font-family="Helvetica,sans-Serif" font-size="10.00" fill="#000000">AMReX_ParmParse.H</text>
</g>
<!-- Node45&#45;&gt;Node49 -->
<g id="edge92" class="edge">
<title>Node45&#45;&gt;Node49</title>
<path fill="none" stroke="#191970" d="M1128.8183,-257.2967C1131.9798,-247.6685 1136.0963,-235.1318 1139.4876,-224.8038"/>
<polygon fill="#191970" stroke="#191970" points="1142.8943,-225.6478 1142.6887,-215.055 1136.2436,-223.464 1142.8943,-225.6478"/>
</g>
<!-- Node46&#45;&gt;Node13 -->
<g id="edge85" class="edge">
<title>Node46&#45;&gt;Node13</title>
<path fill="none" stroke="#191970" d="M537.7077,-126.0979C482.6601,-112.7524 403.173,-92.6742 398.8262,-87 390.4474,-76.0628 390.3902,-66.8932 398.8262,-56 406.7109,-45.8186 475.392,-30.1934 525.0843,-20.034"/>
<polygon fill="#191970" stroke="#191970" points="525.9512,-23.4296 535.0583,-18.0157 524.5628,-16.5687 525.9512,-23.4296"/>
</g>
<!-- Node46&#45;&gt;Node14 -->
<g id="edge87" class="edge">
<title>Node46&#45;&gt;Node14</title>
<path fill="none" stroke="#191970" d="M641.8552,-133.3602C676.6404,-130.0548 723.4436,-125.859 764.8262,-123 925.7522,-111.8821 1339.2559,-144.8738 1489.8262,-87 1510.171,-79.1802 1507.6307,-64.1977 1527.8262,-56 1567.1009,-40.0576 1823.3856,-23.2334 1963.9335,-15.0563"/>
<polygon fill="#191970" stroke="#191970" points="1964.4814,-18.5306 1974.2625,-14.4588 1964.0771,-11.5422 1964.4814,-18.5306"/>
</g>
<!-- Node46&#45;&gt;Node39 -->
<g id="edge86" class="edge">
<title>Node46&#45;&gt;Node39</title>
<path fill="none" stroke="#191970" d="M537.6041,-126.1598C532.9469,-125.0823 528.3026,-124.0161 523.8262,-123 462.034,-108.9741 390.9498,-93.4857 343.2875,-83.1941"/>
<polygon fill="#191970" stroke="#191970" points="343.9974,-79.7668 333.4842,-81.0792 342.5212,-86.6093 343.9974,-79.7668"/>
</g>
<!-- Node47&#45;&gt;Node4 -->
<g id="edge89" class="edge">
<title>Node47&#45;&gt;Node4</title>
<path fill="none" stroke="#191970" d="M642.0937,-56.6126C676.6663,-45.2424 723.3544,-29.8878 753.5293,-19.9639"/>
<polygon fill="#191970" stroke="#191970" points="754.6822,-23.2693 763.0882,-16.8203 752.4952,-16.6197 754.6822,-23.2693"/>
</g>
<!-- Node47&#45;&gt;Node13 -->
<g id="edge90" class="edge">
<title>Node47&#45;&gt;Node13</title>
<path fill="none" stroke="#191970" d="M591.8824,-56.2977C589.2507,-48.2055 585.9852,-38.1639 583.1686,-29.5029"/>
<polygon fill="#191970" stroke="#191970" points="586.4495,-28.2743 580.0284,-19.8469 579.7927,-30.4391 586.4495,-28.2743"/>
</g>
<!-- Node50&#45;&gt;Node3 -->
<g id="edge96" class="edge">
<title>Node50&#45;&gt;Node3</title>
<path fill="none" stroke="#191970" d="M916.7073,-324.2967C910.5677,-315.9016 902.8107,-305.2952 895.9175,-295.8698"/>
<polygon fill="#191970" stroke="#191970" points="898.6294,-293.6488 889.901,-287.6432 892.9792,-297.781 898.6294,-293.6488"/>
</g>
<!-- Node50&#45;&gt;Node23 -->
<g id="edge94" class="edge">
<title>Node50&#45;&gt;Node23</title>
<path fill="none" stroke="#191970" d="M858.2257,-336.7495C642.8738,-327.3231 1.8262,-291.9985 1.8262,-205.5 1.8262,-205.5 1.8262,-205.5 1.8262,-138.5 1.8262,-100.8735 -5.4785,-82.9038 20.8262,-56 35.9668,-40.5146 84.5965,-28.6642 127.6395,-20.8721"/>
<polygon fill="#191970" stroke="#191970" points="128.3347,-24.3037 137.5778,-19.1253 127.1228,-17.4093 128.3347,-24.3037"/>
</g>
<!-- Node50&#45;&gt;Node45 -->
<g id="edge95" class="edge">
<title>Node50&#45;&gt;Node45</title>
<path fill="none" stroke="#191970" d="M971.8124,-324.4639C1000.8379,-314.5419 1039.0565,-301.4774 1069.9104,-290.9304"/>
<polygon fill="#191970" stroke="#191970" points="1071.3178,-294.1482 1079.6481,-287.6017 1069.0535,-287.5245 1071.3178,-294.1482"/>
</g>
<!-- Node51&#45;&gt;Node2 -->
<g id="edge102" class="edge">
<title>Node51&#45;&gt;Node2</title>
<path fill="none" stroke="#191970" d="M1659.6083,-333.5089C1751.901,-325.2144 1919.5059,-308.866 2061.8262,-288 2063.2934,-287.7849 2064.7743,-287.5629 2066.2653,-287.335"/>
<polygon fill="#191970" stroke="#191970" points="2066.8933,-290.7792 2076.22,-285.7529 2065.7945,-283.8659 2066.8933,-290.7792"/>
</g>
<!-- Node51&#45;&gt;Node3 -->
<g id="edge103" class="edge">
<title>Node51&#45;&gt;Node3</title>
<path fill="none" stroke="#191970" d="M1520.0327,-332.9231C1387.2506,-320.4106 1099.0289,-293.2505 958.7472,-280.0312"/>
<polygon fill="#191970" stroke="#191970" points="958.7825,-276.5191 948.4982,-279.0654 958.1257,-283.4883 958.7825,-276.5191"/>
</g>
<!-- Node51&#45;&gt;Node5 -->
<g id="edge105" class="edge">
<title>Node51&#45;&gt;Node5</title>
<path fill="none" stroke="#191970" d="M1570.5039,-324.4586C1547.2637,-306.8175 1506.645,-277.3968 1468.8262,-257 1445.6891,-244.5215 1418.8712,-233.1043 1396.0217,-224.2081"/>
<polygon fill="#191970" stroke="#191970" points="1397.0846,-220.8673 1386.4944,-220.5541 1394.5779,-227.4031 1397.0846,-220.8673"/>
</g>
<!-- Node51&#45;&gt;Node30 -->
<g id="edge112" class="edge">
<title>Node51&#45;&gt;Node30</title>
<path fill="none" stroke="#191970" d="M1589.6857,-324.2248C1590.282,-306.3588 1593.7253,-276.722 1608.8262,-257 1667.9354,-179.802 1718.6491,-204.3488 1801.8262,-154 1837.6995,-132.2852 1877.5726,-104.3072 1901.4019,-87.1493"/>
<polygon fill="#191970" stroke="#191970" points="1903.6582,-89.8369 1909.7074,-81.1388 1899.5543,-84.1661 1903.6582,-89.8369"/>
</g>
<!-- Node51&#45;&gt;Node45 -->
<g id="edge104" class="edge">
<title>Node51&#45;&gt;Node45</title>
<path fill="none" stroke="#191970" d="M1520.313,-329.5056C1435.5384,-317.317 1292.5587,-296.7598 1203.4439,-283.9472"/>
<polygon fill="#191970" stroke="#191970" points="1203.7833,-280.4601 1193.387,-282.5012 1202.7871,-287.3888 1203.7833,-280.4601"/>
</g>
<!-- Node52 -->
<g id="node44" class="node">
<title>Node52</title>
<g id="a_node44"><a xlink:href="_m_l_m_g_options_8_h.html" target="_top" xlink:title="amr&#45;wind/core/MLMGOptions.H">
<polygon fill="#ffffff" stroke="#ff0000" points="1251.3262,-263 1251.3262,-282 1406.3262,-282 1406.3262,-263 1251.3262,-263"/>
<text text-anchor="middle" x="1328.8262" y="-270" font-family="Helvetica,sans-Serif" font-size="10.00" fill="#000000">amr&#45;wind/core/MLMGOptions.H</text>
</a>
</g>
</g>
<!-- Node51&#45;&gt;Node52 -->
<g id="edge98" class="edge">
<title>Node51&#45;&gt;Node52</title>
<path fill="none" stroke="#191970" d="M1531.2527,-324.4639C1484.2632,-312.4015 1419.1804,-295.6944 1375.6225,-284.5128"/>
<polygon fill="#191970" stroke="#191970" points="1376.4105,-281.1017 1365.8542,-282.0053 1374.6699,-287.8819 1376.4105,-281.1017"/>
</g>
<!-- Node54 -->
<g id="node45" class="node">
<title>Node54</title>
<g id="a_node45"><a xlink:href="diffusion_8_h.html" target="_top" xlink:title="amr&#45;wind/diffusion\l/diffusion.H">
<polygon fill="#ffffff" stroke="#000000" points="1923.8262,-257.5 1923.8262,-287.5 2019.8262,-287.5 2019.8262,-257.5 1923.8262,-257.5"/>
<text text-anchor="start" x="1931.8262" y="-275.5" font-family="Helvetica,sans-Serif" font-size="10.00" fill="#000000">amr&#45;wind/diffusion</text>
<text text-anchor="middle" x="1971.8262" y="-264.5" font-family="Helvetica,sans-Serif" font-size="10.00" fill="#000000">/diffusion.H</text>
</a>
</g>
</g>
<!-- Node51&#45;&gt;Node54 -->
<g id="edge106" class="edge">
<title>Node51&#45;&gt;Node54</title>
<path fill="none" stroke="#191970" d="M1659.334,-330.7071C1723.1559,-322.1284 1820.4801,-307.7768 1913.8207,-288.0873"/>
<polygon fill="#191970" stroke="#191970" points="1914.6642,-291.4862 1923.7139,-285.9768 1913.2037,-284.6402 1914.6642,-291.4862"/>
</g>
<!-- Node55 -->
<g id="node46" class="node">
<title>Node55</title>
<polygon fill="#ffffff" stroke="#bfbfbf" points="2119.8262,-196 2119.8262,-215 2215.8262,-215 2215.8262,-196 2119.8262,-196"/>
<text text-anchor="middle" x="2167.8262" y="-203" font-family="Helvetica,sans-Serif" font-size="10.00" fill="#000000">AMReX_MLMG.H</text>
</g>
<!-- Node51&#45;&gt;Node55 -->
<g id="edge111" class="edge">
<title>Node51&#45;&gt;Node55</title>
<path fill="none" stroke="#191970" d="M1659.4353,-335.9795C1765.9104,-329.8167 1963.7303,-315.0775 2028.8262,-288 2049.2701,-279.4961 2049.2278,-269.0154 2067.8262,-257 2090.1994,-242.5459 2117.1197,-228.8743 2137.3903,-219.2546"/>
<polygon fill="#191970" stroke="#191970" points="2138.9028,-222.4111 2146.4763,-215.0021 2135.9355,-216.0712 2138.9028,-222.4111"/>
</g>
<!-- Node56 -->
<g id="node47" class="node">
<title>Node56</title>
<polygon fill="#ffffff" stroke="#bfbfbf" points="1617.8262,-263 1617.8262,-282 1763.8262,-282 1763.8262,-263 1617.8262,-263"/>
<text text-anchor="middle" x="1690.8262" y="-270" font-family="Helvetica,sans-Serif" font-size="10.00" fill="#000000">AMReX_MLABecLaplacian.H</text>
</g>
<!-- Node51&#45;&gt;Node56 -->
<g id="edge109" class="edge">
<title>Node51&#45;&gt;Node56</title>
<path fill="none" stroke="#191970" d="M1612.4925,-324.4639C1628.981,-313.526 1651.2266,-298.769 1667.7984,-287.7759"/>
<polygon fill="#191970" stroke="#191970" points="1669.9502,-290.5485 1676.3486,-282.1039 1666.0806,-284.7153 1669.9502,-290.5485"/>
</g>
<!-- Node57 -->
<g id="node48" class="node">
<title>Node57</title>
<polygon fill="#ffffff" stroke="#bfbfbf" points="1782.3262,-263 1782.3262,-282 1905.3262,-282 1905.3262,-263 1782.3262,-263"/>
<text text-anchor="middle" x="1843.8262" y="-270" font-family="Helvetica,sans-Serif" font-size="10.00" fill="#000000">AMReX_MLTensorOp.H</text>
</g>
<!-- Node51&#45;&gt;Node57 -->
<g id="edge110" class="edge">
<title>Node51&#45;&gt;Node57</title>
<path fill="none" stroke="#191970" d="M1646.8287,-324.4639C1692.4617,-312.4269 1755.6287,-295.7647 1798.0169,-284.5835"/>
<polygon fill="#191970" stroke="#191970" points="1799.0147,-287.9402 1807.7912,-282.0053 1797.2292,-281.1717 1799.0147,-287.9402"/>
</g>
<!-- Node52&#45;&gt;Node4 -->
<g id="edge99" class="edge">
<title>Node52&#45;&gt;Node4</title>
<path fill="none" stroke="#191970" d="M1316.7251,-262.9521C1291.768,-243.4206 1235.0616,-199.9056 1212.8262,-190 1145.8492,-160.1625 1123.0224,-171.5299 1051.8262,-154 1024.0063,-147.1502 822.8722,-107.47 802.8262,-87 788.0482,-71.9094 784.1584,-47.2565 783.4143,-29.9193"/>
<polygon fill="#191970" stroke="#191970" points="786.9123,-29.7156 783.2968,-19.7568 779.9128,-29.7966 786.9123,-29.7156"/>
</g>
<!-- Node52&#45;&gt;Node9 -->
<g id="edge100" class="edge">
<title>Node52&#45;&gt;Node9</title>
<path fill="none" stroke="#191970" d="M1352.0626,-262.9423C1372.129,-253.9825 1401.2157,-239.2482 1422.8262,-221 1493.5725,-161.2607 1554.8762,-67.5449 1578.9512,-28.2737"/>
<polygon fill="#191970" stroke="#191970" points="1582.068,-29.8835 1584.2529,-19.5164 1576.0799,-26.2582 1582.068,-29.8835"/>
</g>
<!-- Node52&#45;&gt;Node49 -->
<g id="edge101" class="edge">
<title>Node52&#45;&gt;Node49</title>
<path fill="none" stroke="#191970" d="M1302.6067,-262.9005C1270.8081,-251.2584 1217.061,-231.5805 1181.5087,-218.5641"/>
<polygon fill="#191970" stroke="#191970" points="1182.5907,-215.2331 1171.997,-215.0817 1180.1841,-221.8064 1182.5907,-215.2331"/>
</g>
<!-- Node54&#45;&gt;Node12 -->
<g id="edge108" class="edge">
<title>Node54&#45;&gt;Node12</title>
<path fill="none" stroke="#191970" d="M1977.5774,-257.389C1986.9144,-232.8564 2005.3534,-184.4088 2015.5752,-157.5517"/>
<polygon fill="#191970" stroke="#191970" points="2018.8848,-158.6951 2019.1709,-148.1042 2012.3426,-156.2052 2018.8848,-158.6951"/>
</g>
<!-- Node54&#45;&gt;Node55 -->
<g id="edge107" class="edge">
<title>Node54&#45;&gt;Node55</title>
<path fill="none" stroke="#191970" d="M2015.8124,-257.4639C2050.2823,-245.6808 2097.7176,-229.4657 2130.386,-218.2984"/>
<polygon fill="#191970" stroke="#191970" points="2131.6894,-221.5518 2140.0197,-215.0053 2129.4251,-214.9281 2131.6894,-221.5518"/>
</g>
<!-- Node58&#45;&gt;Node12 -->
<g id="edge117" class="edge">
<title>Node58&#45;&gt;Node12</title>
<path fill="none" stroke="#191970" d="M2422.1186,-195.5418C2335.7535,-183.2039 2189.0871,-162.2516 2099.5835,-149.4653"/>
<polygon fill="#191970" stroke="#191970" points="2099.8912,-145.9738 2089.4967,-148.0244 2098.9012,-152.9035 2099.8912,-145.9738"/>
</g>
<!-- Node58&#45;&gt;Node14 -->
<g id="edge115" class="edge">
<title>Node58&#45;&gt;Node14</title>
<path fill="none" stroke="#191970" d="M2536.1482,-190.4616C2604.3486,-165.109 2722.0542,-111.2028 2670.8262,-56 2653.3063,-37.1208 2314.5889,-20.6311 2147.4841,-13.6071"/>
<polygon fill="#191970" stroke="#191970" points="2147.5994,-10.1089 2137.462,-13.1885 2147.3072,-17.1028 2147.5994,-10.1089"/>
</g>
<!-- Node58&#45;&gt;Node15 -->
<g id="edge116" class="edge">
<title>Node58&#45;&gt;Node15</title>
<path fill="none" stroke="#191970" d="M2503.4414,-190.389C2522.6323,-165.4222 2560.862,-115.6864 2581.2623,-89.1462"/>
<polygon fill="#191970" stroke="#191970" points="2584.1245,-91.1656 2587.4439,-81.1042 2578.5746,-86.8996 2584.1245,-91.1656"/>
</g>
<!-- Node58&#45;&gt;Node16 -->
<g id="edge118" class="edge">
<title>Node58&#45;&gt;Node16</title>
<path fill="none" stroke="#191970" d="M2561.4792,-200.7985C2627.3724,-194.7277 2719.4295,-181.4806 2741.8262,-154 2769.3428,-120.2372 2770.3349,-88.9293 2741.8262,-56 2725.3411,-36.9587 2573.8523,-21.89 2486.0452,-14.6653"/>
<polygon fill="#191970" stroke="#191970" points="2486.1775,-11.1646 2475.9272,-13.8443 2485.6113,-18.1417 2486.1775,-11.1646"/>
</g>
<!-- Node58&#45;&gt;Node39 -->
<g id="edge114" class="edge">
<title>Node58&#45;&gt;Node39</title>
<path fill="none" stroke="#191970" d="M2422.1505,-200.7521C2368.2941,-197.2526 2291.8681,-192.6566 2224.8262,-190 2130.6566,-186.2684 617.4712,-185.9983 528.8262,-154 507.9994,-146.4822 509.6547,-132.854 489.8262,-123 449.6154,-103.0168 400.9091,-90.2839 361.5138,-82.4785"/>
<polygon fill="#191970" stroke="#191970" points="361.9291,-78.9945 351.4492,-80.5506 360.6122,-85.8695 361.9291,-78.9945"/>
</g>
<!-- Node59&#45;&gt;Node12 -->
<g id="edge120" class="edge">
<title>Node59&#45;&gt;Node12</title>
<path fill="none" stroke="#191970" d="M2373.5215,-391.3884C2356.157,-351.7 2303.6356,-243.8637 2224.8262,-190 2202.5568,-174.7796 2137.7342,-159.8233 2087.4641,-149.984"/>
<polygon fill="#191970" stroke="#191970" points="2088.1029,-146.5428 2077.6211,-148.0858 2086.7774,-153.4161 2088.1029,-146.5428"/>
</g>
</g>
</svg>
