<?xml version="1.0" encoding="UTF-8" standalone="no"?>
<!DOCTYPE svg PUBLIC "-//W3C//DTD SVG 1.1//EN"
 "http://www.w3.org/Graphics/SVG/1.1/DTD/svg11.dtd">
<!-- Generated by graphviz version 2.40.1 (20161225.0304)
 -->
<!-- Title: vof.H Pages: 1 -->
<svg width="187pt" height="140pt"
 viewBox="0.00 0.00 187.46 140.00" xmlns="http://www.w3.org/2000/svg" xmlns:xlink="http://www.w3.org/1999/xlink">
<g id="graph0" class="graph" transform="scale(1 1) rotate(0) translate(4 136)">
<title>vof.H</title>
<polygon fill="#ffffff" stroke="transparent" points="-4,4 -4,-136 183.4575,-136 183.4575,4 -4,4"/>
<!-- Node58 -->
<g id="node1" class="node">
<title>Node58</title>
<polygon fill="#bfbfbf" stroke="#000000" points="34.9575,-112.5 34.9575,-131.5 75.9575,-131.5 75.9575,-112.5 34.9575,-112.5"/>
<text text-anchor="middle" x="55.4575" y="-119.5" font-family="Helvetica,sans-Serif" font-size="10.00" fill="#000000">vof.H</text>
</g>
<!-- Node59 -->
<g id="node2" class="node">
<title>Node59</title>
<g id="a_node2"><a xlink:href="vof_8cpp.html" target="_top" xlink:title="vof.cpp">
<polygon fill="#ffffff" stroke="#000000" points="30.9575,-.5 30.9575,-19.5 79.9575,-19.5 79.9575,-.5 30.9575,-.5"/>
<text text-anchor="middle" x="55.4575" y="-7.5" font-family="Helvetica,sans-Serif" font-size="10.00" fill="#000000">vof.cpp</text>
</a>
</g>
</g>
<!-- Node58&#45;&gt;Node59 -->
<g id="edge1" class="edge">
<title>Node58&#45;&gt;Node59</title>
<path fill="none" stroke="#191970" d="M29.5301,-106.5977C19.0706,-98.8639 8.1464,-88.4704 2.4575,-76 -7.9114,-53.271 18.8628,-31.6243 38.0218,-19.6455"/>
<polygon fill="#191970" stroke="#191970" points="27.8537,-109.6918 38.0817,-112.4558 31.8097,-103.9168 27.8537,-109.6918"/>
</g>
<!-- Node60 -->
<g id="node3" class="node">
<title>Node60</title>
<g id="a_node3"><a xlink:href="vof__advection_8_h.html" target="_top" xlink:title="vof_advection.H">
<polygon fill="#ffffff" stroke="#000000" points="11.4575,-56.5 11.4575,-75.5 99.4575,-75.5 99.4575,-56.5 11.4575,-56.5"/>
<text text-anchor="middle" x="55.4575" y="-63.5" font-family="Helvetica,sans-Serif" font-size="10.00" fill="#000000">vof_advection.H</text>
</a>
</g>
</g>
<!-- Node58&#45;&gt;Node60 -->
<g id="edge2" class="edge">
<title>Node58&#45;&gt;Node60</title>
<path fill="none" stroke="#191970" d="M55.4575,-102.1575C55.4575,-93.155 55.4575,-82.9199 55.4575,-75.6427"/>
<polygon fill="#191970" stroke="#191970" points="51.9576,-102.2455 55.4575,-112.2455 58.9576,-102.2456 51.9576,-102.2455"/>
</g>
<!-- Node61 -->
<g id="node4" class="node">
<title>Node61</title>
<g id="a_node4"><a xlink:href="vof__ops_8_h.html" target="_top" xlink:title="vof_ops.H">
<polygon fill="#ffffff" stroke="#000000" points="117.4575,-56.5 117.4575,-75.5 179.4575,-75.5 179.4575,-56.5 117.4575,-56.5"/>
<text text-anchor="middle" x="148.4575" y="-63.5" font-family="Helvetica,sans-Serif" font-size="10.00" fill="#000000">vof_ops.H</text>
</a>
</g>
</g>
<!-- Node58&#45;&gt;Node61 -->
<g id="edge4" class="edge">
<title>Node58&#45;&gt;Node61</title>
<path fill="none" stroke="#191970" d="M80.291,-107.0465C96.8385,-97.0824 118.1007,-84.2794 132.4437,-75.6427"/>
<polygon fill="#191970" stroke="#191970" points="78.4181,-104.0886 71.6568,-112.2455 82.0291,-110.0854 78.4181,-104.0886"/>
</g>
<!-- Node60&#45;&gt;Node59 -->
<g id="edge3" class="edge">
<title>Node60&#45;&gt;Node59</title>
<path fill="none" stroke="#191970" d="M55.4575,-46.1575C55.4575,-37.155 55.4575,-26.9199 55.4575,-19.6427"/>
<polygon fill="#191970" stroke="#191970" points="51.9576,-46.2455 55.4575,-56.2455 58.9576,-46.2456 51.9576,-46.2455"/>
</g>
<!-- Node61&#45;&gt;Node59 -->
<g id="edge5" class="edge">
<title>Node61&#45;&gt;Node59</title>
<path fill="none" stroke="#191970" d="M123.624,-51.0465C107.0764,-41.0824 85.8142,-28.2794 71.4712,-19.6427"/>
<polygon fill="#191970" stroke="#191970" points="121.8858,-54.0854 132.2581,-56.2455 125.4968,-48.0886 121.8858,-54.0854"/>
</g>
</g>
</svg>
