<?xml version="1.0" encoding="UTF-8" standalone="no"?>
<!DOCTYPE svg PUBLIC "-//W3C//DTD SVG 1.1//EN"
 "http://www.w3.org/Graphics/SVG/1.1/DTD/svg11.dtd">
<!-- Generated by graphviz version 2.40.1 (20161225.0304)
 -->
<!-- Title: volume_fractions.H Pages: 1 -->
<svg width="230pt" height="140pt"
 viewBox="0.00 0.00 229.50 140.00" xmlns="http://www.w3.org/2000/svg" xmlns:xlink="http://www.w3.org/1999/xlink">
<g id="graph0" class="graph" transform="scale(1 1) rotate(0) translate(4 136)">
<title>volume_fractions.H</title>
<polygon fill="#ffffff" stroke="transparent" points="-4,4 -4,-136 225.5,-136 225.5,4 -4,4"/>
<!-- Node3 -->
<g id="node1" class="node">
<title>Node3</title>
<polygon fill="#bfbfbf" stroke="#000000" points="69,-112.5 69,-131.5 170,-131.5 170,-112.5 69,-112.5"/>
<text text-anchor="middle" x="119.5" y="-119.5" font-family="Helvetica,sans-Serif" font-size="10.00" fill="#000000">volume_fractions.H</text>
</g>
<!-- Node4 -->
<g id="node2" class="node">
<title>Node4</title>
<g id="a_node2"><a xlink:href="lagrangian__advection_8_h.html" target="_top" xlink:title="lagrangian_advection.H">
<polygon fill="#ffffff" stroke="#000000" points="0,-56.5 0,-75.5 119,-75.5 119,-56.5 0,-56.5"/>
<text text-anchor="middle" x="59.5" y="-63.5" font-family="Helvetica,sans-Serif" font-size="10.00" fill="#000000">lagrangian_advection.H</text>
</a>
</g>
</g>
<!-- Node3&#45;&gt;Node4 -->
<g id="edge1" class="edge">
<title>Node3&#45;&gt;Node4</title>
<path fill="none" stroke="#191970" d="M101.6722,-105.3607C91.2922,-95.6727 78.5709,-83.7995 69.8314,-75.6427"/>
<polygon fill="#191970" stroke="#191970" points="99.3501,-107.981 109.0488,-112.2455 104.1263,-102.8636 99.3501,-107.981"/>
</g>
<!-- Node6 -->
<g id="node4" class="node">
<title>Node6</title>
<g id="a_node4"><a xlink:href="_multi_phase_8cpp.html" target="_top" xlink:title="MultiPhase.cpp">
<polygon fill="#ffffff" stroke="#000000" points="137.5,-56.5 137.5,-75.5 221.5,-75.5 221.5,-56.5 137.5,-56.5"/>
<text text-anchor="middle" x="179.5" y="-63.5" font-family="Helvetica,sans-Serif" font-size="10.00" fill="#000000">MultiPhase.cpp</text>
</a>
</g>
</g>
<!-- Node3&#45;&gt;Node6 -->
<g id="edge3" class="edge">
<title>Node3&#45;&gt;Node6</title>
<path fill="none" stroke="#191970" d="M137.3278,-105.3607C147.7078,-95.6727 160.4291,-83.7995 169.1686,-75.6427"/>
<polygon fill="#191970" stroke="#191970" points="134.8737,-102.8636 129.9512,-112.2455 139.6499,-107.981 134.8737,-102.8636"/>
</g>
<!-- Node5 -->
<g id="node3" class="node">
<title>Node5</title>
<g id="a_node3"><a xlink:href="_split_advection_8cpp.html" target="_top" xlink:title="SplitAdvection.cpp">
<polygon fill="#ffffff" stroke="#000000" points="10.5,-.5 10.5,-19.5 108.5,-19.5 108.5,-.5 10.5,-.5"/>
<text text-anchor="middle" x="59.5" y="-7.5" font-family="Helvetica,sans-Serif" font-size="10.00" fill="#000000">SplitAdvection.cpp</text>
</a>
</g>
</g>
<!-- Node4&#45;&gt;Node5 -->
<g id="edge2" class="edge">
<title>Node4&#45;&gt;Node5</title>
<path fill="none" stroke="#191970" d="M59.5,-46.1575C59.5,-37.155 59.5,-26.9199 59.5,-19.6427"/>
<polygon fill="#191970" stroke="#191970" points="56.0001,-46.2455 59.5,-56.2455 63.0001,-46.2456 56.0001,-46.2455"/>
</g>
</g>
</svg>
