<?xml version="1.0" encoding="UTF-8" standalone="no"?>
<!DOCTYPE svg PUBLIC "-//W3C//DTD SVG 1.1//EN"
 "http://www.w3.org/Graphics/SVG/1.1/DTD/svg11.dtd">
<!-- Generated by graphviz version 2.40.1 (20161225.0304)
 -->
<!-- Title: vstraits.H Pages: 1 -->
<svg width="160pt" height="84pt"
 viewBox="0.00 0.00 159.50 84.00" xmlns="http://www.w3.org/2000/svg" xmlns:xlink="http://www.w3.org/1999/xlink">
<g id="graph0" class="graph" transform="scale(1 1) rotate(0) translate(4 80)">
<title>vstraits.H</title>
<polygon fill="#ffffff" stroke="transparent" points="-4,4 -4,-80 155.5,-80 155.5,4 -4,4"/>
<!-- Node0 -->
<g id="node1" class="node">
<title>Node0</title>
<polygon fill="#bfbfbf" stroke="#000000" points="32.5,-56.5 32.5,-75.5 91.5,-75.5 91.5,-56.5 32.5,-56.5"/>
<text text-anchor="middle" x="62" y="-63.5" font-family="Helvetica,sans-Serif" font-size="10.00" fill="#000000">vstraits.H</text>
</g>
<!-- Node1 -->
<g id="node2" class="node">
<title>Node1</title>
<polygon fill="#ffffff" stroke="#bfbfbf" points="0,-.5 0,-19.5 40,-19.5 40,-.5 0,-.5"/>
<text text-anchor="middle" x="20" y="-7.5" font-family="Helvetica,sans-Serif" font-size="10.00" fill="#000000">limits</text>
</g>
<!-- Node0&#45;&gt;Node1 -->
<g id="edge1" class="edge">
<title>Node0&#45;&gt;Node1</title>
<path fill="none" stroke="#191970" d="M54.6842,-56.2455C48.7821,-48.3761 40.3258,-37.101 33.2406,-27.6542"/>
<polygon fill="#191970" stroke="#191970" points="36.0321,-25.5427 27.232,-19.6427 30.432,-29.7427 36.0321,-25.5427"/>
</g>
<!-- Node2 -->
<g id="node3" class="node">
<title>Node2</title>
<polygon fill="#ffffff" stroke="#bfbfbf" points="58.5,-.5 58.5,-19.5 151.5,-19.5 151.5,-.5 58.5,-.5"/>
<text text-anchor="middle" x="105" y="-7.5" font-family="Helvetica,sans-Serif" font-size="10.00" fill="#000000">AMReX_REAL.H</text>
</g>
<!-- Node0&#45;&gt;Node2 -->
<g id="edge2" class="edge">
<title>Node0&#45;&gt;Node2</title>
<path fill="none" stroke="#191970" d="M69.49,-56.2455C75.5326,-48.3761 84.1903,-37.101 91.4441,-27.6542"/>
<polygon fill="#191970" stroke="#191970" points="94.2815,-29.7058 97.5958,-19.6427 88.7295,-25.4426 94.2815,-29.7058"/>
</g>
</g>
</svg>
