<?xml version="1.0" encoding="UTF-8" standalone="no"?>
<!DOCTYPE svg PUBLIC "-//W3C//DTD SVG 1.1//EN"
 "http://www.w3.org/Graphics/SVG/1.1/DTD/svg11.dtd">
<!-- Generated by graphviz version 2.40.1 (20161225.0304)
 -->
<!-- Title: wing_ops.H Pages: 1 -->
<svg width="305pt" height="140pt"
 viewBox="0.00 0.00 305.00 140.00" xmlns="http://www.w3.org/2000/svg" xmlns:xlink="http://www.w3.org/1999/xlink">
<g id="graph0" class="graph" transform="scale(1 1) rotate(0) translate(4 136)">
<title>wing_ops.H</title>
<polygon fill="#ffffff" stroke="transparent" points="-4,4 -4,-136 301,-136 301,4 -4,4"/>
<!-- Node59 -->
<g id="node1" class="node">
<title>Node59</title>
<polygon fill="#bfbfbf" stroke="#000000" points="123.5,-112.5 123.5,-131.5 191.5,-131.5 191.5,-112.5 123.5,-112.5"/>
<text text-anchor="middle" x="157.5" y="-119.5" font-family="Helvetica,sans-Serif" font-size="10.00" fill="#000000">wing_ops.H</text>
</g>
<!-- Node60 -->
<g id="node2" class="node">
<title>Node60</title>
<g id="a_node2"><a xlink:href="fixed__wing__ops_8_h.html" target="_top" xlink:title="fixed_wing_ops.H">
<polygon fill="#ffffff" stroke="#000000" points="0,-56.5 0,-75.5 95,-75.5 95,-56.5 0,-56.5"/>
<text text-anchor="middle" x="47.5" y="-63.5" font-family="Helvetica,sans-Serif" font-size="10.00" fill="#000000">fixed_wing_ops.H</text>
</a>
</g>
</g>
<!-- Node59&#45;&gt;Node60 -->
<g id="edge1" class="edge">
<title>Node59&#45;&gt;Node60</title>
<path fill="none" stroke="#191970" d="M129.2086,-107.5971C109.4889,-97.558 83.72,-84.4393 66.441,-75.6427"/>
<polygon fill="#191970" stroke="#191970" points="127.8399,-110.8277 138.3395,-112.2455 131.0157,-104.5896 127.8399,-110.8277"/>
</g>
<!-- Node62 -->
<g id="node4" class="node">
<title>Node62</title>
<g id="a_node4"><a xlink:href="flat__plate__ops_8_h.html" target="_top" xlink:title="flat_plate_ops.H">
<polygon fill="#ffffff" stroke="#000000" points="113.5,-56.5 113.5,-75.5 201.5,-75.5 201.5,-56.5 113.5,-56.5"/>
<text text-anchor="middle" x="157.5" y="-63.5" font-family="Helvetica,sans-Serif" font-size="10.00" fill="#000000">flat_plate_ops.H</text>
</a>
</g>
</g>
<!-- Node59&#45;&gt;Node62 -->
<g id="edge3" class="edge">
<title>Node59&#45;&gt;Node62</title>
<path fill="none" stroke="#191970" d="M157.5,-102.1575C157.5,-93.155 157.5,-82.9199 157.5,-75.6427"/>
<polygon fill="#191970" stroke="#191970" points="154.0001,-102.2455 157.5,-112.2455 161.0001,-102.2456 154.0001,-102.2455"/>
</g>
<!-- Node64 -->
<g id="node6" class="node">
<title>Node64</title>
<g id="a_node6"><a xlink:href="wing__ops_8cpp.html" target="_top" xlink:title="wing_ops.cpp">
<polygon fill="#ffffff" stroke="#000000" points="220,-56.5 220,-75.5 297,-75.5 297,-56.5 220,-56.5"/>
<text text-anchor="middle" x="258.5" y="-63.5" font-family="Helvetica,sans-Serif" font-size="10.00" fill="#000000">wing_ops.cpp</text>
</a>
</g>
</g>
<!-- Node59&#45;&gt;Node64 -->
<g id="edge5" class="edge">
<title>Node59&#45;&gt;Node64</title>
<path fill="none" stroke="#191970" d="M183.9719,-107.3225C202.0125,-97.3198 225.3877,-84.3593 241.1087,-75.6427"/>
<polygon fill="#191970" stroke="#191970" points="182.1413,-104.3354 175.0929,-112.2455 185.5357,-110.4574 182.1413,-104.3354"/>
</g>
<!-- Node61 -->
<g id="node3" class="node">
<title>Node61</title>
<g id="a_node3"><a xlink:href="_fixed_wing_8cpp.html" target="_top" xlink:title="FixedWing.cpp">
<polygon fill="#ffffff" stroke="#000000" points="6.5,-.5 6.5,-19.5 88.5,-19.5 88.5,-.5 6.5,-.5"/>
<text text-anchor="middle" x="47.5" y="-7.5" font-family="Helvetica,sans-Serif" font-size="10.00" fill="#000000">FixedWing.cpp</text>
</a>
</g>
</g>
<!-- Node60&#45;&gt;Node61 -->
<g id="edge2" class="edge">
<title>Node60&#45;&gt;Node61</title>
<path fill="none" stroke="#191970" d="M47.5,-46.1575C47.5,-37.155 47.5,-26.9199 47.5,-19.6427"/>
<polygon fill="#191970" stroke="#191970" points="44.0001,-46.2455 47.5,-56.2455 51.0001,-46.2456 44.0001,-46.2455"/>
</g>
<!-- Node63 -->
<g id="node5" class="node">
<title>Node63</title>
<g id="a_node5"><a xlink:href="_flat_plate_8cpp.html" target="_top" xlink:title="FlatPlate.cpp">
<polygon fill="#ffffff" stroke="#000000" points="120.5,-.5 120.5,-19.5 194.5,-19.5 194.5,-.5 120.5,-.5"/>
<text text-anchor="middle" x="157.5" y="-7.5" font-family="Helvetica,sans-Serif" font-size="10.00" fill="#000000">FlatPlate.cpp</text>
</a>
</g>
</g>
<!-- Node62&#45;&gt;Node63 -->
<g id="edge4" class="edge">
<title>Node62&#45;&gt;Node63</title>
<path fill="none" stroke="#191970" d="M157.5,-46.1575C157.5,-37.155 157.5,-26.9199 157.5,-19.6427"/>
<polygon fill="#191970" stroke="#191970" points="154.0001,-46.2455 157.5,-56.2455 161.0001,-46.2456 154.0001,-46.2455"/>
</g>
</g>
</svg>
